<?xml version="1.0" encoding="UTF-8"?>
<!DOCTYPE svg PUBLIC "-//W3C//DTD SVG 1.1//EN" "http://www.w3.org/Graphics/SVG/1.1/DTD/svg11.dtd">
<svg xmlns="http://www.w3.org/2000/svg" version="1.1" width="512px" height="512px" style="shape-rendering:geometricPrecision; text-rendering:geometricPrecision; image-rendering:optimizeQuality; fill-rule:evenodd; clip-rule:evenodd" xmlns:xlink="http://www.w3.org/1999/xlink">
<g><path style="opacity:1" fill="#648596" d="M -0.5,-0.5 C 170.167,-0.5 340.833,-0.5 511.5,-0.5C 511.5,170.167 511.5,340.833 511.5,511.5C 418.5,511.5 325.5,511.5 232.5,511.5C 235.653,497.874 242.319,486.374 252.5,477C 258.077,475.594 263.743,474.761 269.5,474.5C 289.616,475.444 308.616,471.611 326.5,463C 328.779,460.939 330.946,458.772 333,456.5C 336.312,455.313 339.479,453.98 342.5,452.5C 343.941,448.464 346.274,444.964 349.5,442C 349.043,441.586 348.709,441.086 348.5,440.5C 349.687,439.481 350.687,438.314 351.5,437C 351.167,436.667 350.833,436.333 350.5,436C 351.191,434.933 351.691,433.766 352,432.5C 352.667,431.167 353.333,431.167 354,432.5C 354.707,430.919 355.54,429.419 356.5,428C 356.167,427.667 355.833,427.333 355.5,427C 356.669,424.993 357.335,422.827 357.5,420.5C 358.458,420.047 359.292,419.381 360,418.5C 361.574,419.984 362.907,421.651 364,423.5C 365.505,418.497 366.005,413.497 365.5,408.5C 366.585,407.216 367.252,405.716 367.5,404C 367.159,401.192 366.159,398.692 364.5,396.5C 364.814,393.708 365.814,391.208 367.5,389C 367.097,387.527 366.43,386.194 365.5,385C 365.685,373.786 365.685,362.453 365.5,351C 367.195,349.268 368.528,347.268 369.5,345C 369.094,341.486 368.76,337.986 368.5,334.5C 370.041,332.796 371.375,330.963 372.5,329C 370.672,327.494 370.338,325.827 371.5,324C 369.688,320.078 369.021,315.911 369.5,311.5C 370.833,311.5 372.167,311.5 373.5,311.5C 373.167,306.167 372.833,300.833 372.5,295.5C 371.5,295.5 370.5,295.5 369.5,295.5C 369.406,292.459 370.906,290.793 374,290.5C 374.665,285.401 374.165,280.401 372.5,275.5C 373.947,272.369 373.28,270.369 370.5,269.5C 371.936,268.066 373.602,266.9 375.5,266C 374.833,265.333 374.167,264.667 373.5,264C 374.428,263.612 375.095,262.945 375.5,262C 373.978,258.338 373.145,254.505 373,250.5C 372.311,251.357 371.478,252.023 370.5,252.5C 368.622,243.429 368.289,234.429 369.5,225.5C 370.806,222.537 372.473,219.87 374.5,217.5C 373.854,210.992 373.187,204.492 372.5,198C 373.112,195.942 374.112,194.109 375.5,192.5C 374.515,189.41 373.849,186.244 373.5,183C 375.688,174.34 376.022,165.506 374.5,156.5C 372.703,152.313 371.37,147.98 370.5,143.5C 369.876,141.042 368.376,139.376 366,138.5C 365.082,132.757 361.915,129.09 356.5,127.5C 355.833,124.833 355.167,122.167 354.5,119.5C 353.5,119.5 352.5,119.5 351.5,119.5C 351.5,118.5 351.5,117.5 351.5,116.5C 348.532,116.374 346.532,114.874 345.5,112C 340.062,111.115 335.729,108.448 332.5,104C 329.447,103.821 326.447,103.321 323.5,102.5C 316.843,97.2335 309.177,95.0668 300.5,96C 301.5,95.6667 302.5,95.3333 303.5,95C 300.313,94.9994 297.48,94.1661 295,92.5C 292.667,96.5 290.333,96.5 288,92.5C 279.612,93.5069 271.112,93.5069 262.5,92.5C 260.929,95.0934 258.596,96.0934 255.5,95.5C 255.313,87.3923 255.313,79.3923 255.5,71.5C 251.533,71.968 248.033,70.968 245,68.5C 244.255,69.9904 243.088,70.9904 241.5,71.5C 239.381,69.6002 237.047,67.9336 234.5,66.5C 233.42,60.9861 230.42,56.9861 225.5,54.5C 223.998,50.626 223.331,50.9593 223.5,55.5C 219.123,55.0541 214.956,55.7208 211,57.5C 208.46,56.7935 207.293,55.1268 207.5,52.5C 197.144,53.1279 186.81,53.1279 176.5,52.5C 175.87,46.1898 175.204,39.8565 174.5,33.5C 169.618,37.5925 164.951,41.9258 160.5,46.5C 157.387,47.3805 154.387,48.3805 151.5,49.5C 151.5,48.1667 151.5,46.8333 151.5,45.5C 148.689,45.1743 146.022,44.3409 143.5,43C 145.527,41.1207 147.86,39.954 150.5,39.5C 150.006,29.6342 148.672,29.3008 146.5,38.5C 146.167,38.8333 145.833,39.1667 145.5,39.5C 144.262,35.6893 143.596,35.6893 143.5,39.5C 142.5,39.5 141.5,39.5 140.5,39.5C 139.833,44.8333 139.167,44.8333 138.5,39.5C 135.833,39.5 133.167,39.5 130.5,39.5C 130.678,42.8788 130.678,46.0454 130.5,49C 128.717,49.2323 127.05,48.7323 125.5,47.5C 123.675,48.6511 121.675,49.3178 119.5,49.5C 119.657,50.8734 119.49,52.2068 119,53.5C 117.647,52.3147 116.48,50.9814 115.5,49.5C 112.332,53.4845 113.332,55.6511 118.5,56C 115.71,58.158 113.21,60.658 111,63.5C 110.223,60.5706 110.39,57.7372 111.5,55C 109.893,55.0187 108.226,55.1854 106.5,55.5C 106.662,57.5273 106.495,59.5273 106,61.5C 105.333,60.8333 104.667,60.1667 104,59.5C 103,60.8333 102,60.8333 101,59.5C 99.8118,60.5634 99.3118,61.8967 99.5,63.5C 97.3618,63.297 95.6951,62.297 94.5,60.5C 91.7096,62.3328 92.0429,63.3328 95.5,63.5C 95.5,66.1667 95.5,68.8333 95.5,71.5C 94.5,71.5 93.5,71.5 92.5,71.5C 92.6602,69.8008 92.4935,68.1341 92,66.5C 89.1545,65.2847 86.3212,64.2847 83.5,63.5C 81.9199,59.2577 79.2532,55.9244 75.5,53.5C 74.6919,53.8076 74.0253,54.3076 73.5,55C 75.9786,59.4152 78.6453,63.7485 81.5,68C 80.9777,68.9503 80.311,69.7836 79.5,70.5C 81.0453,71.4519 82.712,71.7852 84.5,71.5C 84.5,72.5 84.5,73.5 84.5,74.5C 82.5328,74.2606 80.6995,74.5939 79,75.5C 78.51,74.2068 78.3433,72.8734 78.5,71.5C 77.1667,71.5 75.8333,71.5 74.5,71.5C 75.4436,75.8173 75.9436,80.1507 76,84.5C 75.586,84.9574 75.086,85.2907 74.5,85.5C 72.7111,80.4816 71.5444,80.4816 71,85.5C 70.3333,84.8333 69.6667,84.1667 69,83.5C 67.7078,86.2884 65.8745,88.6217 63.5,90.5C 65.3181,91.7742 66.9847,93.2742 68.5,95C 65.6706,95.0475 63.3373,96.0475 61.5,98C 59.5273,98.4955 57.5273,98.6621 55.5,98.5C 55.2865,100.144 55.6198,101.644 56.5,103C 54.8659,103.494 53.1992,103.66 51.5,103.5C 51.22,106.272 51.8866,108.772 53.5,111C 51.5628,113.435 49.7295,113.602 48,111.5C 47.9789,118.786 47.1456,125.953 45.5,133C 47.5007,138.875 49.1674,138.541 50.5,132C 50.3222,127.778 50.3222,123.611 50.5,119.5C 53.0404,122.38 54.707,125.713 55.5,129.5C 54.4097,132.093 52.743,134.259 50.5,136C 51.1078,137.231 51.4411,138.564 51.5,140C 50.9089,142.239 50.2422,144.406 49.5,146.5C 47.8333,146.5 46.1667,146.5 44.5,146.5C 44.5,150.833 44.5,155.167 44.5,159.5C 46.1667,159.5 47.8333,159.5 49.5,159.5C 50.264,162.787 52.0973,165.454 55,167.5C 55.3057,169.906 56.139,172.073 57.5,174C 55.9972,175.921 55.3305,178.088 55.5,180.5C 58.1667,181.833 60.8333,181.833 63.5,180.5C 63.3287,177.203 63.9954,176.869 65.5,179.5C 64.1667,182.167 62.8333,184.833 61.5,187.5C 61.8076,188.308 62.3076,188.975 63,189.5C 63.813,187.564 64.313,185.564 64.5,183.5C 68.1569,183.974 68.3236,185.307 65,187.5C 64.1654,191.179 63.332,194.845 62.5,198.5C 63.5,199.167 64.5,199.833 65.5,200.5C 63.7988,200.19 62.1322,200.69 60.5,202C 64.5148,204.333 64.1814,205.999 59.5,207C 61.8333,207.333 64.1667,207.667 66.5,208C 61.6584,208.871 60.4917,211.371 63,215.5C 67.0983,214 67.5983,215 64.5,218.5C 62.8154,217.491 61.4821,217.991 60.5,220C 62.4342,222.502 63.4342,225.336 63.5,228.5C 62.1779,228.33 61.0113,228.663 60,229.5C 59.6667,231.833 59.3333,234.167 59,236.5C 57.9887,237.337 56.8221,237.67 55.5,237.5C 55.7399,240.579 55.4066,243.579 54.5,246.5C 55,247.5 55.5,248.5 56,249.5C 56.7096,248.027 57.8762,247.36 59.5,247.5C 59.7852,249.288 59.4519,250.955 58.5,252.5C 57.2011,253.09 56.3678,254.09 56,255.5C 55.5026,258.146 55.3359,260.813 55.5,263.5C 59.2998,263.819 59.4665,264.819 56,266.5C 55.1543,269.239 54.4876,271.906 54,274.5C 54.3333,274.833 54.6667,275.167 55,275.5C 55.4505,272.894 56.9505,271.561 59.5,271.5C 59.927,274.788 59.2603,277.788 57.5,280.5C 58.9223,281.547 60.4223,281.547 62,280.5C 62.9454,280.905 63.6121,281.572 64,282.5C 65.8453,279.816 67.012,280.149 67.5,283.5C 66.7739,287.31 65.4406,287.476 63.5,284C 57.0429,283.927 57.0429,284.927 63.5,287C 63.2539,290.349 63.2539,293.849 63.5,297.5C 68.6294,297.719 68.6294,298.386 63.5,299.5C 63.5,300.5 63.5,301.5 63.5,302.5C 64.8734,302.343 66.2068,302.51 67.5,303C 64.5184,303.498 61.5184,303.665 58.5,303.5C 58.3359,306.187 58.5026,308.854 59,311.5C 60.2977,308.576 62.2977,306.242 65,304.5C 69.676,305.339 70.5093,307.505 67.5,311C 68.3366,312.011 68.67,313.178 68.5,314.5C 66.8561,314.714 65.3561,314.38 64,313.5C 63.7392,317.706 63.2392,321.873 62.5,326C 62.1667,326.5 61.8333,327 61.5,327.5C 60.6093,322.555 59.6093,322.388 58.5,327C 59.4923,328.923 60.659,330.756 62,332.5C 62.4986,336.152 62.6653,339.818 62.5,343.5C 64.8568,343.337 67.1902,343.503 69.5,344C 65.5621,346.061 65.5621,348.227 69.5,350.5C 67.711,351.623 67.3776,352.956 68.5,354.5C 71.4025,352.197 72.2358,353.197 71,357.5C 67.9464,360.181 66.1131,359.348 65.5,355C 64.5165,354.409 63.8499,354.743 63.5,356C 64.5859,360.086 67.0859,362.919 71,364.5C 71.2022,362.744 71.7022,361.078 72.5,359.5C 72.8333,359.833 73.1667,360.167 73.5,360.5C 74.1062,362.709 74.7728,364.876 75.5,367C 72.4284,367.456 69.4284,367.456 66.5,367C 69.3027,369.11 72.4694,370.61 76,371.5C 78.0921,375.197 79.2588,379.197 79.5,383.5C 75.6482,383.511 73.8149,381.511 74,377.5C 73.0093,378.43 72.5093,379.596 72.5,381C 73.6296,383.407 74.463,385.907 75,388.5C 76.5095,389.09 78.0095,389.756 79.5,390.5C 78.9747,391.192 78.3081,391.692 77.5,392C 82.8333,394.333 82.8333,396.667 77.5,399C 83.2433,400.14 83.91,402.64 79.5,406.5C 81.5,407.833 83.5,409.167 85.5,410.5C 84.0921,411.243 82.7588,412.077 81.5,413C 84.9165,415.836 85.9165,419.336 84.5,423.5C 83.448,423.351 82.448,423.517 81.5,424C 85.9788,427.137 90.4788,430.304 95,433.5C 96.1531,431.503 97.6531,431.17 99.5,432.5C 98.627,434.413 97.627,436.247 96.5,438C 98.4188,439.934 99.9188,439.767 101,437.5C 101.444,440.611 102.777,443.277 105,445.5C 106.796,444.233 108.629,444.233 110.5,445.5C 115.604,450.061 120.27,455.061 124.5,460.5C 125.695,461.967 125.695,463.467 124.5,465C 124.946,466.726 125.779,468.226 127,469.5C 127.169,462.809 127.669,456.142 128.5,449.5C 128.711,455.743 129.378,462.077 130.5,468.5C 129.724,472.159 129.057,475.825 128.5,479.5C 129.833,479.5 131.167,479.5 132.5,479.5C 132.201,481.604 132.534,483.604 133.5,485.5C 135.657,484.034 135.99,482.2 134.5,480C 135.901,466.43 136.901,452.93 137.5,439.5C 137.784,454.189 137.451,468.856 136.5,483.5C 137.829,492.787 138.496,502.12 138.5,511.5C 92.1667,511.5 45.8333,511.5 -0.5,511.5C -0.5,340.833 -0.5,170.167 -0.5,-0.5 Z"/></g>
<g><path style="opacity:1" fill="#628394" d="M 151.5,49.5 C 151.758,54.7175 151.425,59.8841 150.5,65C 150.903,66.4728 151.57,67.8061 152.5,69C 149.518,69.498 146.518,69.6646 143.5,69.5C 143.5,70.5 143.5,71.5 143.5,72.5C 148.511,72.3341 153.511,72.5007 158.5,73C 159.423,75.0408 159.756,77.2075 159.5,79.5C 162.5,79.5 165.5,79.5 168.5,79.5C 167.697,84.476 164.864,87.8093 160,89.5C 159.51,88.2068 159.343,86.8734 159.5,85.5C 154.167,85.5 148.833,85.5 143.5,85.5C 143.5,87.5 143.5,89.5 143.5,91.5C 138.167,91.5 132.833,91.5 127.5,91.5C 127.335,94.8499 127.502,98.1832 128,101.5C 132.864,103.191 135.697,106.524 136.5,111.5C 141.642,110.94 145.642,112.773 148.5,117C 149.793,117.49 151.127,117.657 152.5,117.5C 152.5,116.167 152.5,114.833 152.5,113.5C 150.897,113.688 149.563,113.188 148.5,112C 150.256,111.798 151.922,111.298 153.5,110.5C 155.369,107.887 157.703,105.721 160.5,104C 162.163,103.735 163.663,104.235 165,105.5C 165.492,104.451 165.326,103.451 164.5,102.5C 168.021,100.615 171.688,99.2812 175.5,98.5C 175.5,99.8333 175.5,101.167 175.5,102.5C 174.178,102.67 173.011,102.337 172,101.5C 170.796,102.859 169.296,103.859 167.5,104.5C 170.012,105.795 172.679,106.461 175.5,106.5C 172.977,107.384 170.31,108.218 167.5,109C 166.619,109.708 165.953,110.542 165.5,111.5C 153.913,117.42 144.913,126.086 138.5,137.5C 135.321,141.502 133.655,146.169 133.5,151.5C 132.705,155.476 132.038,159.476 131.5,163.5C 131.167,164.167 130.833,164.833 130.5,165.5C 128.581,167.421 127.581,169.921 127.5,173C 128.719,189.832 128.552,206.665 127,223.5C 125.182,225.916 123.848,228.582 123,231.5C 123.998,237.868 123.665,244.201 122,250.5C 121.691,251.766 121.191,252.933 120.5,254C 115.917,255.145 111.251,255.811 106.5,256C 103.99,257.09 101.49,258.257 99,259.5C 97.7811,266.421 97.1145,273.421 97,280.5C 92.7974,291.05 90.2974,302.05 89.5,313.5C 88.9768,328.762 96.3102,334.929 111.5,332C 116.315,331.197 120.981,330.363 125.5,329.5C 125.833,329.5 126.167,329.5 126.5,329.5C 129.247,329.187 131.914,329.52 134.5,330.5C 135.18,332.889 136.014,335.222 137,337.5C 136.204,371.498 136.371,405.498 137.5,439.5C 136.901,452.93 135.901,466.43 134.5,480C 135.99,482.2 135.657,484.034 133.5,485.5C 132.534,483.604 132.201,481.604 132.5,479.5C 131.167,479.5 129.833,479.5 128.5,479.5C 129.057,475.825 129.724,472.159 130.5,468.5C 129.378,462.077 128.711,455.743 128.5,449.5C 127.669,456.142 127.169,462.809 127,469.5C 125.779,468.226 124.946,466.726 124.5,465C 125.695,463.467 125.695,461.967 124.5,460.5C 120.27,455.061 115.604,450.061 110.5,445.5C 108.629,444.233 106.796,444.233 105,445.5C 102.777,443.277 101.444,440.611 101,437.5C 99.9188,439.767 98.4188,439.934 96.5,438C 97.627,436.247 98.627,434.413 99.5,432.5C 97.6531,431.17 96.1531,431.503 95,433.5C 90.4788,430.304 85.9788,427.137 81.5,424C 82.448,423.517 83.448,423.351 84.5,423.5C 85.9165,419.336 84.9165,415.836 81.5,413C 82.7588,412.077 84.0921,411.243 85.5,410.5C 83.5,409.167 81.5,407.833 79.5,406.5C 83.91,402.64 83.2433,400.14 77.5,399C 82.8333,396.667 82.8333,394.333 77.5,392C 78.3081,391.692 78.9747,391.192 79.5,390.5C 78.0095,389.756 76.5095,389.09 75,388.5C 74.463,385.907 73.6296,383.407 72.5,381C 72.5093,379.596 73.0093,378.43 74,377.5C 73.8149,381.511 75.6482,383.511 79.5,383.5C 79.2588,379.197 78.0921,375.197 76,371.5C 72.4694,370.61 69.3027,369.11 66.5,367C 69.4284,367.456 72.4284,367.456 75.5,367C 74.7728,364.876 74.1062,362.709 73.5,360.5C 73.1667,360.167 72.8333,359.833 72.5,359.5C 71.7022,361.078 71.2022,362.744 71,364.5C 67.0859,362.919 64.5859,360.086 63.5,356C 63.8499,354.743 64.5165,354.409 65.5,355C 66.1131,359.348 67.9464,360.181 71,357.5C 72.2358,353.197 71.4025,352.197 68.5,354.5C 67.3776,352.956 67.711,351.623 69.5,350.5C 65.5621,348.227 65.5621,346.061 69.5,344C 67.1902,343.503 64.8568,343.337 62.5,343.5C 62.6653,339.818 62.4986,336.152 62,332.5C 60.659,330.756 59.4923,328.923 58.5,327C 59.6093,322.388 60.6093,322.555 61.5,327.5C 61.8333,327 62.1667,326.5 62.5,326C 63.2392,321.873 63.7392,317.706 64,313.5C 65.3561,314.38 66.8561,314.714 68.5,314.5C 68.67,313.178 68.3366,312.011 67.5,311C 70.5093,307.505 69.676,305.339 65,304.5C 62.2977,306.242 60.2977,308.576 59,311.5C 58.5026,308.854 58.3359,306.187 58.5,303.5C 61.5184,303.665 64.5184,303.498 67.5,303C 66.2068,302.51 64.8734,302.343 63.5,302.5C 63.5,301.5 63.5,300.5 63.5,299.5C 68.6294,298.386 68.6294,297.719 63.5,297.5C 63.2539,293.849 63.2539,290.349 63.5,287C 57.0429,284.927 57.0429,283.927 63.5,284C 65.4406,287.476 66.7739,287.31 67.5,283.5C 67.012,280.149 65.8453,279.816 64,282.5C 63.6121,281.572 62.9454,280.905 62,280.5C 60.4223,281.547 58.9223,281.547 57.5,280.5C 59.2603,277.788 59.927,274.788 59.5,271.5C 56.9505,271.561 55.4505,272.894 55,275.5C 54.6667,275.167 54.3333,274.833 54,274.5C 54.4876,271.906 55.1543,269.239 56,266.5C 59.4665,264.819 59.2998,263.819 55.5,263.5C 55.3359,260.813 55.5026,258.146 56,255.5C 56.3678,254.09 57.2011,253.09 58.5,252.5C 59.4519,250.955 59.7852,249.288 59.5,247.5C 57.8762,247.36 56.7096,248.027 56,249.5C 55.5,248.5 55,247.5 54.5,246.5C 55.4066,243.579 55.7399,240.579 55.5,237.5C 56.8221,237.67 57.9887,237.337 59,236.5C 59.3333,234.167 59.6667,231.833 60,229.5C 61.0113,228.663 62.1779,228.33 63.5,228.5C 63.4342,225.336 62.4342,222.502 60.5,220C 61.4821,217.991 62.8154,217.491 64.5,218.5C 67.5983,215 67.0983,214 63,215.5C 60.4917,211.371 61.6584,208.871 66.5,208C 64.1667,207.667 61.8333,207.333 59.5,207C 64.1814,205.999 64.5148,204.333 60.5,202C 62.1322,200.69 63.7988,200.19 65.5,200.5C 64.5,199.833 63.5,199.167 62.5,198.5C 63.332,194.845 64.1654,191.179 65,187.5C 68.3236,185.307 68.1569,183.974 64.5,183.5C 64.313,185.564 63.813,187.564 63,189.5C 62.3076,188.975 61.8076,188.308 61.5,187.5C 62.8333,184.833 64.1667,182.167 65.5,179.5C 63.9954,176.869 63.3287,177.203 63.5,180.5C 60.8333,181.833 58.1667,181.833 55.5,180.5C 55.3305,178.088 55.9972,175.921 57.5,174C 56.139,172.073 55.3057,169.906 55,167.5C 52.0973,165.454 50.264,162.787 49.5,159.5C 47.8333,159.5 46.1667,159.5 44.5,159.5C 44.5,155.167 44.5,150.833 44.5,146.5C 46.1667,146.5 47.8333,146.5 49.5,146.5C 50.2422,144.406 50.9089,142.239 51.5,140C 51.4411,138.564 51.1078,137.231 50.5,136C 52.743,134.259 54.4097,132.093 55.5,129.5C 54.707,125.713 53.0404,122.38 50.5,119.5C 50.3222,123.611 50.3222,127.778 50.5,132C 49.1674,138.541 47.5007,138.875 45.5,133C 47.1456,125.953 47.9789,118.786 48,111.5C 49.7295,113.602 51.5628,113.435 53.5,111C 51.8866,108.772 51.22,106.272 51.5,103.5C 53.1992,103.66 54.8659,103.494 56.5,103C 55.6198,101.644 55.2865,100.144 55.5,98.5C 57.5273,98.6621 59.5273,98.4955 61.5,98C 63.3373,96.0475 65.6706,95.0475 68.5,95C 66.9847,93.2742 65.3181,91.7742 63.5,90.5C 65.8745,88.6217 67.7078,86.2884 69,83.5C 69.6667,84.1667 70.3333,84.8333 71,85.5C 71.5444,80.4816 72.7111,80.4816 74.5,85.5C 75.086,85.2907 75.586,84.9574 76,84.5C 75.9436,80.1507 75.4436,75.8173 74.5,71.5C 75.8333,71.5 77.1667,71.5 78.5,71.5C 78.3433,72.8734 78.51,74.2068 79,75.5C 80.6995,74.5939 82.5328,74.2606 84.5,74.5C 84.5,73.5 84.5,72.5 84.5,71.5C 82.712,71.7852 81.0453,71.4519 79.5,70.5C 80.311,69.7836 80.9777,68.9503 81.5,68C 78.6453,63.7485 75.9786,59.4152 73.5,55C 74.0253,54.3076 74.6919,53.8076 75.5,53.5C 79.2532,55.9244 81.9199,59.2577 83.5,63.5C 86.3212,64.2847 89.1545,65.2847 92,66.5C 92.4935,68.1341 92.6602,69.8008 92.5,71.5C 93.5,71.5 94.5,71.5 95.5,71.5C 95.5,68.8333 95.5,66.1667 95.5,63.5C 92.0429,63.3328 91.7096,62.3328 94.5,60.5C 95.6951,62.297 97.3618,63.297 99.5,63.5C 99.3118,61.8967 99.8118,60.5634 101,59.5C 102,60.8333 103,60.8333 104,59.5C 104.667,60.1667 105.333,60.8333 106,61.5C 106.495,59.5273 106.662,57.5273 106.5,55.5C 108.226,55.1854 109.893,55.0187 111.5,55C 110.39,57.7372 110.223,60.5706 111,63.5C 113.21,60.658 115.71,58.158 118.5,56C 113.332,55.6511 112.332,53.4845 115.5,49.5C 116.48,50.9814 117.647,52.3147 119,53.5C 119.49,52.2068 119.657,50.8734 119.5,49.5C 121.675,49.3178 123.675,48.6511 125.5,47.5C 127.05,48.7323 128.717,49.2323 130.5,49C 130.678,46.0454 130.678,42.8788 130.5,39.5C 133.167,39.5 135.833,39.5 138.5,39.5C 139.167,44.8333 139.833,44.8333 140.5,39.5C 141.5,39.5 142.5,39.5 143.5,39.5C 143.596,35.6893 144.262,35.6893 145.5,39.5C 145.833,39.1667 146.167,38.8333 146.5,38.5C 148.672,29.3008 150.006,29.6342 150.5,39.5C 147.86,39.954 145.527,41.1207 143.5,43C 146.022,44.3409 148.689,45.1743 151.5,45.5C 151.5,46.8333 151.5,48.1667 151.5,49.5 Z"/></g>
<g><path style="opacity:1" fill="#628396" d="M 255.5,95.5 C 255.5,97.5 255.5,99.5 255.5,101.5C 268.171,101.333 280.838,101.5 293.5,102C 294,102.5 294.5,103 295,103.5C 298.436,102.714 301.936,102.047 305.5,101.5C 307.441,101.804 309.107,102.637 310.5,104C 302.877,105.51 295.21,105.677 287.5,104.5C 268.788,104.101 250.121,104.768 231.5,106.5C 219.84,105.709 208.174,105.042 196.5,104.5C 189.286,104.472 182.286,105.139 175.5,106.5C 172.679,106.461 170.012,105.795 167.5,104.5C 169.296,103.859 170.796,102.859 172,101.5C 173.011,102.337 174.178,102.67 175.5,102.5C 175.5,101.167 175.5,99.8333 175.5,98.5C 171.688,99.2812 168.021,100.615 164.5,102.5C 165.326,103.451 165.492,104.451 165,105.5C 163.663,104.235 162.163,103.735 160.5,104C 157.703,105.721 155.369,107.887 153.5,110.5C 151.922,111.298 150.256,111.798 148.5,112C 149.563,113.188 150.897,113.688 152.5,113.5C 152.5,114.833 152.5,116.167 152.5,117.5C 151.127,117.657 149.793,117.49 148.5,117C 145.642,112.773 141.642,110.94 136.5,111.5C 135.697,106.524 132.864,103.191 128,101.5C 127.502,98.1832 127.335,94.8499 127.5,91.5C 132.833,91.5 138.167,91.5 143.5,91.5C 143.5,89.5 143.5,87.5 143.5,85.5C 148.833,85.5 154.167,85.5 159.5,85.5C 159.343,86.8734 159.51,88.2068 160,89.5C 164.864,87.8093 167.697,84.476 168.5,79.5C 165.5,79.5 162.5,79.5 159.5,79.5C 159.756,77.2075 159.423,75.0408 158.5,73C 153.511,72.5007 148.511,72.3341 143.5,72.5C 143.5,71.5 143.5,70.5 143.5,69.5C 146.518,69.6646 149.518,69.498 152.5,69C 151.57,67.8061 150.903,66.4728 150.5,65C 151.425,59.8841 151.758,54.7175 151.5,49.5C 154.387,48.3805 157.387,47.3805 160.5,46.5C 164.951,41.9258 169.618,37.5925 174.5,33.5C 175.204,39.8565 175.87,46.1898 176.5,52.5C 186.81,53.1279 197.144,53.1279 207.5,52.5C 207.293,55.1268 208.46,56.7935 211,57.5C 214.956,55.7208 219.123,55.0541 223.5,55.5C 223.331,50.9593 223.998,50.626 225.5,54.5C 230.42,56.9861 233.42,60.9861 234.5,66.5C 237.047,67.9336 239.381,69.6002 241.5,71.5C 243.088,70.9904 244.255,69.9904 245,68.5C 248.033,70.968 251.533,71.968 255.5,71.5C 255.313,79.3923 255.313,87.3923 255.5,95.5 Z"/></g>
<g><path style="opacity:1" fill="#657987" d="M 287.5,104.5 C 290.167,105.167 292.833,105.833 295.5,106.5C 288.004,106.152 280.504,105.819 273,105.5C 266.926,105.341 261.092,106.007 255.5,107.5C 229.831,107.333 204.165,107.5 178.5,108C 174.132,109.106 169.799,110.272 165.5,111.5C 165.953,110.542 166.619,109.708 167.5,109C 170.31,108.218 172.977,107.384 175.5,106.5C 182.286,105.139 189.286,104.472 196.5,104.5C 208.174,105.042 219.84,105.709 231.5,106.5C 250.121,104.768 268.788,104.101 287.5,104.5 Z"/></g>
<g><path style="opacity:1" fill="#52636f" d="M 295.5,106.5 C 297.5,107.5 299.5,108.5 301.5,109.5C 286.233,107.737 270.899,107.07 255.5,107.5C 261.092,106.007 266.926,105.341 273,105.5C 280.504,105.819 288.004,106.152 295.5,106.5 Z"/></g>
<g><path style="opacity:1" fill="#050607" d="M 255.5,107.5 C 270.899,107.07 286.233,107.737 301.5,109.5C 320.126,112.731 336.626,120.398 351,132.5C 354.548,136.266 357.048,140.6 358.5,145.5C 358.48,146.726 358.147,147.726 357.5,148.5C 357.068,147.29 356.401,146.29 355.5,145.5C 350.922,139.21 344.922,134.877 337.5,132.5C 332.241,129.809 326.574,128.309 320.5,128C 274.66,128.768 228.827,128.268 183,126.5C 173.123,125.764 163.956,127.764 155.5,132.5C 149.254,133.954 143.921,136.954 139.5,141.5C 138.566,140.432 138.232,139.099 138.5,137.5C 144.913,126.086 153.913,117.42 165.5,111.5C 169.799,110.272 174.132,109.106 178.5,108C 204.165,107.5 229.831,107.333 255.5,107.5 Z"/></g>
<g><path style="opacity:1" fill="#e9dcd6" d="M 337.5,132.5 C 337.414,133.496 337.748,134.329 338.5,135C 337.313,136.019 336.313,137.186 335.5,138.5C 335.957,139.298 336.624,139.631 337.5,139.5C 337.5,140.5 337.5,141.5 337.5,142.5C 339.199,142.34 340.866,142.506 342.5,143C 340.231,143.758 338.064,143.591 336,142.5C 335.517,143.448 335.351,144.448 335.5,145.5C 332.907,144.147 330.073,143.481 327,143.5C 325.5,143.667 324,143.833 322.5,144C 323.905,145.269 325.571,145.769 327.5,145.5C 327.5,146.5 327.5,147.5 327.5,148.5C 325.143,148.663 322.81,148.497 320.5,148C 317.602,145.283 314.268,144.783 310.5,146.5C 304.362,144.31 298.029,143.31 291.5,143.5C 291.5,141.833 291.5,140.167 291.5,138.5C 290.167,138.5 288.833,138.5 287.5,138.5C 287.5,137.167 287.5,135.833 287.5,134.5C 276.833,134.167 266.167,133.833 255.5,133.5C 255.5,134.5 255.5,135.5 255.5,136.5C 265.518,136.584 275.518,137.084 285.5,138C 286.167,138.667 286.833,139.333 287.5,140C 283.863,140.717 280.196,141.217 276.5,141.5C 264.955,140.143 253.455,138.476 242,136.5C 230.117,137.137 218.284,138.137 206.5,139.5C 201.833,138.5 197.167,137.5 192.5,136.5C 191.406,138.836 190.073,138.836 188.5,136.5C 191.107,135.682 193.774,135.182 196.5,135C 189.508,134.5 182.508,134.334 175.5,134.5C 175.5,136.833 175.5,139.167 175.5,141.5C 172.282,141.651 171.949,142.484 174.5,144C 170.587,145.29 166.92,147.123 163.5,149.5C 162.333,151.167 161.167,152.833 160,154.5C 159.831,161.524 159.331,168.524 158.5,175.5C 156.427,180.718 154.76,186.052 153.5,191.5C 151.097,191.607 149.264,190.607 148,188.5C 147.501,184.179 147.334,179.846 147.5,175.5C 146.167,175.5 144.833,175.5 143.5,175.5C 143.839,170.07 143.339,164.736 142,159.5C 141.667,160.5 141.333,161.5 141,162.5C 140.952,159 140.118,156.5 138.5,155C 139.483,151.888 140.15,148.722 140.5,145.5C 144.614,140.046 149.614,135.713 155.5,132.5C 163.956,127.764 173.123,125.764 183,126.5C 228.827,128.268 274.66,128.768 320.5,128C 326.574,128.309 332.241,129.809 337.5,132.5 Z"/></g>
<g><path style="opacity:1" fill="#648292" d="M 357.5,420.5 C 356.971,385.302 358.971,350.302 363.5,315.5C 363.097,301.328 362.43,287.328 361.5,273.5C 361.667,234.499 361.5,195.499 361,156.5C 359.924,153.763 358.757,151.096 357.5,148.5C 358.147,147.726 358.48,146.726 358.5,145.5C 357.048,140.6 354.548,136.266 351,132.5C 336.626,120.398 320.126,112.731 301.5,109.5C 299.5,108.5 297.5,107.5 295.5,106.5C 292.833,105.833 290.167,105.167 287.5,104.5C 295.21,105.677 302.877,105.51 310.5,104C 309.107,102.637 307.441,101.804 305.5,101.5C 301.936,102.047 298.436,102.714 295,103.5C 294.5,103 294,102.5 293.5,102C 280.838,101.5 268.171,101.333 255.5,101.5C 255.5,99.5 255.5,97.5 255.5,95.5C 258.596,96.0934 260.929,95.0934 262.5,92.5C 271.112,93.5069 279.612,93.5069 288,92.5C 290.333,96.5 292.667,96.5 295,92.5C 297.48,94.1661 300.313,94.9994 303.5,95C 302.5,95.3333 301.5,95.6667 300.5,96C 309.177,95.0668 316.843,97.2335 323.5,102.5C 326.447,103.321 329.447,103.821 332.5,104C 335.729,108.448 340.062,111.115 345.5,112C 346.532,114.874 348.532,116.374 351.5,116.5C 351.5,117.5 351.5,118.5 351.5,119.5C 352.5,119.5 353.5,119.5 354.5,119.5C 355.167,122.167 355.833,124.833 356.5,127.5C 361.915,129.09 365.082,132.757 366,138.5C 368.376,139.376 369.876,141.042 370.5,143.5C 371.37,147.98 372.703,152.313 374.5,156.5C 376.022,165.506 375.688,174.34 373.5,183C 373.849,186.244 374.515,189.41 375.5,192.5C 374.112,194.109 373.112,195.942 372.5,198C 373.187,204.492 373.854,210.992 374.5,217.5C 372.473,219.87 370.806,222.537 369.5,225.5C 368.289,234.429 368.622,243.429 370.5,252.5C 371.478,252.023 372.311,251.357 373,250.5C 373.145,254.505 373.978,258.338 375.5,262C 375.095,262.945 374.428,263.612 373.5,264C 374.167,264.667 374.833,265.333 375.5,266C 373.602,266.9 371.936,268.066 370.5,269.5C 373.28,270.369 373.947,272.369 372.5,275.5C 374.165,280.401 374.665,285.401 374,290.5C 370.906,290.793 369.406,292.459 369.5,295.5C 370.5,295.5 371.5,295.5 372.5,295.5C 372.833,300.833 373.167,306.167 373.5,311.5C 372.167,311.5 370.833,311.5 369.5,311.5C 369.021,315.911 369.688,320.078 371.5,324C 370.338,325.827 370.672,327.494 372.5,329C 371.375,330.963 370.041,332.796 368.5,334.5C 368.76,337.986 369.094,341.486 369.5,345C 368.528,347.268 367.195,349.268 365.5,351C 365.685,362.453 365.685,373.786 365.5,385C 366.43,386.194 367.097,387.527 367.5,389C 365.814,391.208 364.814,393.708 364.5,396.5C 366.159,398.692 367.159,401.192 367.5,404C 367.252,405.716 366.585,407.216 365.5,408.5C 366.005,413.497 365.505,418.497 364,423.5C 362.907,421.651 361.574,419.984 360,418.5C 359.292,419.381 358.458,420.047 357.5,420.5 Z"/></g>
<g><path style="opacity:1" fill="#ecdcdc" d="M 337.5,139.5 C 338.265,139.077 339.098,138.743 340,138.5C 341.618,140.783 343.785,142.283 346.5,143C 344.842,143.725 344.342,144.892 345,146.5C 346.333,147.167 347.667,147.833 349,148.5C 350.454,152.224 352.287,155.724 354.5,159C 353.552,159.483 352.552,159.649 351.5,159.5C 353.186,171.387 354.186,184.721 354.5,199.5C 353.985,205.827 353.652,212.16 353.5,218.5C 352.834,214.979 352.167,211.313 351.5,207.5C 348.695,212.769 346.362,212.436 344.5,206.5C 344.987,205.554 345.32,204.554 345.5,203.5C 344.533,201.238 343.866,198.905 343.5,196.5C 340.774,196.264 338.441,197.097 336.5,199C 338.484,201.134 339.818,203.634 340.5,206.5C 339.675,207.386 338.675,207.719 337.5,207.5C 337.649,208.552 337.483,209.552 337,210.5C 335.89,206.542 333.723,203.208 330.5,200.5C 329.482,201.193 328.482,201.859 327.5,202.5C 325.365,200.631 322.698,199.964 319.5,200.5C 319.5,201.5 319.5,202.5 319.5,203.5C 318.448,203.649 317.448,203.483 316.5,203C 315.149,200.307 313.482,197.807 311.5,195.5C 306.141,193.738 301.308,191.072 297,187.5C 292.939,187.11 288.773,187.61 284.5,189C 281.536,189.84 281.203,190.84 283.5,192C 282.437,193.188 281.103,193.688 279.5,193.5C 279.66,195.199 279.494,196.866 279,198.5C 276.194,196.605 273.86,194.272 272,191.5C 271.51,192.793 271.343,194.127 271.5,195.5C 266.167,195.5 260.833,195.5 255.5,195.5C 255.5,194.167 255.5,192.833 255.5,191.5C 254.167,191.5 252.833,191.5 251.5,191.5C 254.17,190.173 256.836,188.673 259.5,187C 261.891,186.713 264.224,186.213 266.5,185.5C 268.5,183.167 270.5,180.833 272.5,178.5C 273.833,179.833 275.167,179.833 276.5,178.5C 277.833,176.833 279.167,175.167 280.5,173.5C 285.272,174.252 290.272,174.918 295.5,175.5C 296.167,169.5 293.5,166.833 287.5,167.5C 287.5,164.833 287.5,162.167 287.5,159.5C 282.167,159.5 276.833,159.5 271.5,159.5C 271.5,156.833 271.5,154.167 271.5,151.5C 266.167,151.5 260.833,151.5 255.5,151.5C 255.5,150.167 255.5,148.833 255.5,147.5C 239.509,146.834 223.509,146.5 207.5,146.5C 207.5,145.167 207.5,143.833 207.5,142.5C 205.801,142.66 204.134,142.494 202.5,142C 205.121,141.094 204.954,140.594 202,140.5C 198.279,142.561 194.445,142.894 190.5,141.5C 185.218,143.974 180.218,143.974 175.5,141.5C 175.5,139.167 175.5,136.833 175.5,134.5C 182.508,134.334 189.508,134.5 196.5,135C 193.774,135.182 191.107,135.682 188.5,136.5C 190.073,138.836 191.406,138.836 192.5,136.5C 197.167,137.5 201.833,138.5 206.5,139.5C 218.284,138.137 230.117,137.137 242,136.5C 253.455,138.476 264.955,140.143 276.5,141.5C 280.196,141.217 283.863,140.717 287.5,140C 286.833,139.333 286.167,138.667 285.5,138C 275.518,137.084 265.518,136.584 255.5,136.5C 255.5,135.5 255.5,134.5 255.5,133.5C 266.167,133.833 276.833,134.167 287.5,134.5C 287.5,135.833 287.5,137.167 287.5,138.5C 288.833,138.5 290.167,138.5 291.5,138.5C 291.5,140.167 291.5,141.833 291.5,143.5C 298.029,143.31 304.362,144.31 310.5,146.5C 314.268,144.783 317.602,145.283 320.5,148C 322.81,148.497 325.143,148.663 327.5,148.5C 327.5,147.5 327.5,146.5 327.5,145.5C 325.571,145.769 323.905,145.269 322.5,144C 324,143.833 325.5,143.667 327,143.5C 330.073,143.481 332.907,144.147 335.5,145.5C 335.351,144.448 335.517,143.448 336,142.5C 338.064,143.591 340.231,143.758 342.5,143C 340.866,142.506 339.199,142.34 337.5,142.5C 337.5,141.5 337.5,140.5 337.5,139.5 Z"/></g>
<g><path style="opacity:1" fill="#eedcdc" d="M 251.5,191.5 C 247.366,190.943 243.699,191.943 240.5,194.5C 234.88,193.057 229.38,193.39 224,195.5C 223.5,193.667 222.333,192.5 220.5,192C 216.109,191.317 211.776,190.484 207.5,189.5C 207.5,188.5 207.5,187.5 207.5,186.5C 203.322,184.58 198.988,183.08 194.5,182C 190.5,181.333 186.5,181.333 182.5,182C 184.214,186.623 187.214,188.123 191.5,186.5C 191.579,187.93 191.246,189.264 190.5,190.5C 182.841,194.301 174.841,195.634 166.5,194.5C 164.076,195.423 162.076,196.923 160.5,199C 161.022,199.561 161.355,200.228 161.5,201C 159.987,202.879 159.321,205.046 159.5,207.5C 157.5,207.5 155.5,207.5 153.5,207.5C 153.5,202.167 153.5,196.833 153.5,191.5C 154.76,186.052 156.427,180.718 158.5,175.5C 159.331,168.524 159.831,161.524 160,154.5C 161.167,152.833 162.333,151.167 163.5,149.5C 166.92,147.123 170.587,145.29 174.5,144C 171.949,142.484 172.282,141.651 175.5,141.5C 180.218,143.974 185.218,143.974 190.5,141.5C 194.445,142.894 198.279,142.561 202,140.5C 204.954,140.594 205.121,141.094 202.5,142C 204.134,142.494 205.801,142.66 207.5,142.5C 207.5,143.833 207.5,145.167 207.5,146.5C 223.509,146.5 239.509,146.834 255.5,147.5C 255.5,148.833 255.5,150.167 255.5,151.5C 260.833,151.5 266.167,151.5 271.5,151.5C 271.5,154.167 271.5,156.833 271.5,159.5C 276.833,159.5 282.167,159.5 287.5,159.5C 287.5,162.167 287.5,164.833 287.5,167.5C 293.5,166.833 296.167,169.5 295.5,175.5C 290.272,174.918 285.272,174.252 280.5,173.5C 279.167,175.167 277.833,176.833 276.5,178.5C 275.167,179.833 273.833,179.833 272.5,178.5C 270.5,180.833 268.5,183.167 266.5,185.5C 264.224,186.213 261.891,186.713 259.5,187C 256.836,188.673 254.17,190.173 251.5,191.5 Z"/></g>
<g><path style="opacity:1" fill="#545b62" d="M 138.5,137.5 C 138.232,139.099 138.566,140.432 139.5,141.5C 138.25,144.006 137.584,146.673 137.5,149.5C 137.5,156.5 137.5,163.5 137.5,170.5C 136.549,169.081 136.216,167.415 136.5,165.5C 136.234,162.334 135.901,159.167 135.5,156C 135.431,154.014 134.765,152.514 133.5,151.5C 133.655,146.169 135.321,141.502 138.5,137.5 Z"/></g>
<g><path style="opacity:1" fill="#9a9596" d="M 155.5,132.5 C 149.614,135.713 144.614,140.046 140.5,145.5C 139.5,146.833 138.5,148.167 137.5,149.5C 137.584,146.673 138.25,144.006 139.5,141.5C 143.921,136.954 149.254,133.954 155.5,132.5 Z"/></g>
<g><path style="opacity:1" fill="#282d32" d="M 133.5,151.5 C 134.765,152.514 135.431,154.014 135.5,156C 135.901,159.167 136.234,162.334 136.5,165.5C 135.819,163.842 134.985,162.175 134,160.5C 133.148,161.571 132.315,162.571 131.5,163.5C 132.038,159.476 132.705,155.476 133.5,151.5 Z"/></g>
<g><path style="opacity:1" fill="#e7d7d2" d="M 140.5,145.5 C 140.15,148.722 139.483,151.888 138.5,155C 140.118,156.5 140.952,159 141,162.5C 141.333,161.5 141.667,160.5 142,159.5C 143.339,164.736 143.839,170.07 143.5,175.5C 144.833,175.5 146.167,175.5 147.5,175.5C 147.334,179.846 147.501,184.179 148,188.5C 149.264,190.607 151.097,191.607 153.5,191.5C 153.5,196.833 153.5,202.167 153.5,207.5C 155.5,207.5 157.5,207.5 159.5,207.5C 158.219,213.796 156.886,220.129 155.5,226.5C 156.833,226.5 158.167,226.5 159.5,226.5C 159.5,227.5 159.5,228.5 159.5,229.5C 162.167,229.5 164.833,229.5 167.5,229.5C 167.5,227.5 167.5,225.5 167.5,223.5C 171.846,223.666 176.179,223.499 180.5,223C 185.961,221.271 191.295,219.438 196.5,217.5C 198.167,217.667 199.833,217.833 201.5,218C 199.845,219.444 199.178,221.278 199.5,223.5C 203.449,223.693 203.449,224.193 199.5,225C 191.479,225.168 183.479,225.668 175.5,226.5C 191.49,227.666 207.49,227.833 223.5,227C 225.577,226.808 227.577,226.308 229.5,225.5C 222.167,224.833 214.833,224.167 207.5,223.5C 207.833,223.167 208.167,222.833 208.5,222.5C 218.453,223.309 228.453,223.809 238.5,224C 236.5,224.333 234.5,224.667 232.5,225C 236.167,226.5 239.833,228 243.5,229.5C 247.486,228.667 251.486,228.501 255.5,229C 253.956,229.29 252.623,229.956 251.5,231C 253.586,231.315 255.586,231.815 257.5,232.5C 231.014,233.978 204.347,234.645 177.5,234.5C 167.269,233.79 157.269,234.957 147.5,238C 146.944,238.383 146.611,238.883 146.5,239.5C 145.167,243.833 145.167,248.167 146.5,252.5C 146.414,253.496 146.748,254.329 147.5,255C 145.273,255.121 143.44,255.954 142,257.5C 140.579,261.903 140.746,266.07 142.5,270C 141.833,274 141.167,278 140.5,282C 140.86,283.652 141.193,285.318 141.5,287C 140.552,287.483 139.552,287.649 138.5,287.5C 138.893,290.93 138.227,294.096 136.5,297C 135.5,297.333 134.5,297.667 133.5,298C 135.283,299.067 135.783,300.567 135,302.5C 133.365,303.849 131.865,303.682 130.5,302C 131.5,301.667 132.5,301.333 133.5,301C 131.58,299.878 129.58,299.044 127.5,298.5C 127.318,304.911 126.652,304.744 125.5,298C 126.973,294.664 127.64,291.164 127.5,287.5C 128.939,289.36 130.605,291.027 132.5,292.5C 134.376,295.175 135.876,294.842 137,291.5C 137.912,286.536 138.412,281.536 138.5,276.5C 140.07,253.04 141.07,229.54 141.5,206C 140.135,194.188 138.802,182.355 137.5,170.5C 137.5,163.5 137.5,156.5 137.5,149.5C 138.5,148.167 139.5,146.833 140.5,145.5 Z"/></g>
<g><path style="opacity:1" fill="#ecd8d8" d="M 251.5,191.5 C 252.833,191.5 254.167,191.5 255.5,191.5C 255.5,192.833 255.5,194.167 255.5,195.5C 260.833,195.5 266.167,195.5 271.5,195.5C 271.343,194.127 271.51,192.793 272,191.5C 273.86,194.272 276.194,196.605 279,198.5C 279.494,196.866 279.66,195.199 279.5,193.5C 281.103,193.688 282.437,193.188 283.5,192C 281.203,190.84 281.536,189.84 284.5,189C 288.773,187.61 292.939,187.11 297,187.5C 301.308,191.072 306.141,193.738 311.5,195.5C 313.482,197.807 315.149,200.307 316.5,203C 317.448,203.483 318.448,203.649 319.5,203.5C 319.5,202.5 319.5,201.5 319.5,200.5C 322.698,199.964 325.365,200.631 327.5,202.5C 327.586,203.496 327.252,204.329 326.5,205C 327.416,205.374 328.25,205.874 329,206.5C 329.479,209.624 330.646,212.457 332.5,215C 331.376,215.839 330.709,217.006 330.5,218.5C 331.26,220.596 331.26,222.596 330.5,224.5C 322.857,229.234 315.191,229.401 307.5,225C 310.5,224.667 313.5,224.333 316.5,224C 312.179,223.501 307.846,223.334 303.5,223.5C 303.5,224.833 303.5,226.167 303.5,227.5C 290.844,228.362 278.178,229.196 265.5,230C 265.833,230.333 266.167,230.667 266.5,231C 264.942,231.21 263.609,231.71 262.5,232.5C 260.833,232.5 259.167,232.5 257.5,232.5C 255.586,231.815 253.586,231.315 251.5,231C 252.623,229.956 253.956,229.29 255.5,229C 251.486,228.501 247.486,228.667 243.5,229.5C 239.833,228 236.167,226.5 232.5,225C 234.5,224.667 236.5,224.333 238.5,224C 228.453,223.809 218.453,223.309 208.5,222.5C 208.167,222.833 207.833,223.167 207.5,223.5C 214.833,224.167 222.167,224.833 229.5,225.5C 227.577,226.308 225.577,226.808 223.5,227C 207.49,227.833 191.49,227.666 175.5,226.5C 183.479,225.668 191.479,225.168 199.5,225C 203.449,224.193 203.449,223.693 199.5,223.5C 199.178,221.278 199.845,219.444 201.5,218C 199.833,217.833 198.167,217.667 196.5,217.5C 191.295,219.438 185.961,221.271 180.5,223C 176.179,223.499 171.846,223.666 167.5,223.5C 167.5,225.5 167.5,227.5 167.5,229.5C 164.833,229.5 162.167,229.5 159.5,229.5C 159.5,228.5 159.5,227.5 159.5,226.5C 158.167,226.5 156.833,226.5 155.5,226.5C 156.886,220.129 158.219,213.796 159.5,207.5C 159.321,205.046 159.987,202.879 161.5,201C 161.355,200.228 161.022,199.561 160.5,199C 162.076,196.923 164.076,195.423 166.5,194.5C 174.841,195.634 182.841,194.301 190.5,190.5C 191.246,189.264 191.579,187.93 191.5,186.5C 187.214,188.123 184.214,186.623 182.5,182C 186.5,181.333 190.5,181.333 194.5,182C 198.988,183.08 203.322,184.58 207.5,186.5C 207.5,187.5 207.5,188.5 207.5,189.5C 211.776,190.484 216.109,191.317 220.5,192C 222.333,192.5 223.5,193.667 224,195.5C 229.38,193.39 234.88,193.057 240.5,194.5C 243.699,191.943 247.366,190.943 251.5,191.5 Z"/></g>
<g><path style="opacity:1" fill="#eadbd6" d="M 353.5,218.5 C 352.971,222.351 353.638,225.851 355.5,229C 355.043,229.414 354.709,229.914 354.5,230.5C 355.243,231.182 355.909,231.849 356.5,232.5C 353.941,232.198 351.607,232.532 349.5,233.5C 338.167,233.5 326.833,233.5 315.5,233.5C 298.008,232.503 280.341,232.17 262.5,232.5C 263.609,231.71 264.942,231.21 266.5,231C 266.167,230.667 265.833,230.333 265.5,230C 278.178,229.196 290.844,228.362 303.5,227.5C 303.5,226.167 303.5,224.833 303.5,223.5C 307.846,223.334 312.179,223.501 316.5,224C 313.5,224.333 310.5,224.667 307.5,225C 315.191,229.401 322.857,229.234 330.5,224.5C 331.26,222.596 331.26,220.596 330.5,218.5C 330.709,217.006 331.376,215.839 332.5,215C 330.646,212.457 329.479,209.624 329,206.5C 328.25,205.874 327.416,205.374 326.5,205C 327.252,204.329 327.586,203.496 327.5,202.5C 328.482,201.859 329.482,201.193 330.5,200.5C 333.723,203.208 335.89,206.542 337,210.5C 337.483,209.552 337.649,208.552 337.5,207.5C 338.675,207.719 339.675,207.386 340.5,206.5C 339.818,203.634 338.484,201.134 336.5,199C 338.441,197.097 340.774,196.264 343.5,196.5C 343.866,198.905 344.533,201.238 345.5,203.5C 345.32,204.554 344.987,205.554 344.5,206.5C 346.362,212.436 348.695,212.769 351.5,207.5C 352.167,211.313 352.834,214.979 353.5,218.5 Z"/></g>
<g><path style="opacity:1" fill="#627882" d="M 130.5,165.5 C 130.667,179.504 130.5,193.504 130,207.5C 128.535,220.152 127.201,232.819 126,245.5C 125.261,249.385 123.927,253.052 122,256.5C 119.564,257.355 117.064,258.021 114.5,258.5C 111.482,258.335 108.482,258.502 105.5,259C 104.619,259.708 103.953,260.542 103.5,261.5C 102.496,262.683 101.662,264.016 101,265.5C 98.8705,276.101 97.0372,286.768 95.5,297.5C 95.5,298.833 95.5,300.167 95.5,301.5C 94.8418,302.793 94.5085,304.293 94.5,306C 95.1451,312.822 95.6451,319.655 96,326.5C 97.4608,329.279 99.7941,330.613 103,330.5C 107.042,330.236 110.875,329.57 114.5,328.5C 118.032,328.69 121.365,328.023 124.5,326.5C 122.871,328.196 123.204,329.196 125.5,329.5C 120.981,330.363 116.315,331.197 111.5,332C 96.3102,334.929 88.9768,328.762 89.5,313.5C 90.2974,302.05 92.7974,291.05 97,280.5C 97.1145,273.421 97.7811,266.421 99,259.5C 101.49,258.257 103.99,257.09 106.5,256C 111.251,255.811 115.917,255.145 120.5,254C 121.191,252.933 121.691,251.766 122,250.5C 123.665,244.201 123.998,237.868 123,231.5C 123.848,228.582 125.182,225.916 127,223.5C 128.552,206.665 128.719,189.832 127.5,173C 127.581,169.921 128.581,167.421 130.5,165.5 Z"/></g>
<g><path style="opacity:1" fill="#cdb0ad" d="M 257.5,232.5 C 259.167,232.5 260.833,232.5 262.5,232.5C 280.341,232.17 298.008,232.503 315.5,233.5C 296.326,233.17 277.326,233.503 258.5,234.5C 231.336,235.575 204.336,235.575 177.5,234.5C 204.347,234.645 231.014,233.978 257.5,232.5 Z"/></g>
<g><path style="opacity:1" fill="#4a413e" d="M 258.5,234.5 C 277.326,233.503 296.326,233.17 315.5,233.5C 326.833,233.5 338.167,233.5 349.5,233.5C 351.5,233.5 353.5,233.5 355.5,233.5C 355.815,237.371 355.482,241.038 354.5,244.5C 354.784,241.223 354.451,238.057 353.5,235C 321.835,234.5 290.168,234.333 258.5,234.5 Z"/></g>
<g><path style="opacity:1" fill="#080a0b" d="M 136.5,165.5 C 136.216,167.415 136.549,169.081 137.5,170.5C 138.802,182.355 140.135,194.188 141.5,206C 141.07,229.54 140.07,253.04 138.5,276.5C 137.302,281.67 136.302,287.003 135.5,292.5C 134.5,292.5 133.5,292.5 132.5,292.5C 130.605,291.027 128.939,289.36 127.5,287.5C 126.055,285.937 124.389,284.604 122.5,283.5C 122.5,283.167 122.5,282.833 122.5,282.5C 120.998,278.937 119.998,275.27 119.5,271.5C 119.5,268.5 119.5,265.5 119.5,262.5C 117.708,262.634 116.042,262.301 114.5,261.5C 113.167,260.5 113.167,259.5 114.5,258.5C 117.064,258.021 119.564,257.355 122,256.5C 123.927,253.052 125.261,249.385 126,245.5C 127.201,232.819 128.535,220.152 130,207.5C 130.5,193.504 130.667,179.504 130.5,165.5C 130.833,164.833 131.167,164.167 131.5,163.5C 132.315,162.571 133.148,161.571 134,160.5C 134.985,162.175 135.819,163.842 136.5,165.5 Z"/></g>
<g><path style="opacity:1" fill="#060404" d="M 177.5,234.5 C 204.336,235.575 231.336,235.575 258.5,234.5C 290.168,234.333 321.835,234.5 353.5,235C 354.451,238.057 354.784,241.223 354.5,244.5C 353.662,244.842 353.328,245.508 353.5,246.5C 350.167,246.5 346.833,246.5 343.5,246.5C 337.915,244.416 332.249,244.083 326.5,245.5C 322.292,245.677 318.626,247.01 315.5,249.5C 314.29,249.932 313.29,250.599 312.5,251.5C 308.951,252.723 305.951,254.723 303.5,257.5C 300.159,259.5 296.493,260.5 292.5,260.5C 291.089,258.461 289.089,257.461 286.5,257.5C 280.564,254.429 274.23,252.429 267.5,251.5C 263.354,250.353 259.02,250.186 254.5,251C 250.846,252.274 247.18,253.44 243.5,254.5C 242.167,254.5 240.833,254.5 239.5,254.5C 240.998,262.666 237.664,266.333 229.5,265.5C 223.325,261.912 216.991,258.578 210.5,255.5C 209.833,255.5 209.167,255.5 208.5,255.5C 208.389,254.883 208.056,254.383 207.5,254C 204.148,253.162 200.815,252.329 197.5,251.5C 196.833,251.5 196.167,251.5 195.5,251.5C 191.637,250.673 187.637,249.839 183.5,249C 178.648,248.185 173.981,248.352 169.5,249.5C 166.518,249.963 163.518,250.296 160.5,250.5C 156.167,250.5 151.833,250.5 147.5,250.5C 147.795,248.265 147.461,246.265 146.5,244.5C 146.5,242.833 146.5,241.167 146.5,239.5C 146.611,238.883 146.944,238.383 147.5,238C 157.269,234.957 167.269,233.79 177.5,234.5 Z"/></g>
<g><path style="opacity:1" fill="#9f9b94" d="M 356.5,232.5 C 361.549,246.446 357.216,251.113 343.5,246.5C 346.833,246.5 350.167,246.5 353.5,246.5C 354.496,246.586 355.329,246.252 356,245.5C 356.499,241.179 356.666,236.846 356.5,232.5 Z"/></g>
<g><path style="opacity:1" fill="#78736f" d="M 349.5,233.5 C 351.607,232.532 353.941,232.198 356.5,232.5C 356.666,236.846 356.499,241.179 356,245.5C 355.329,246.252 354.496,246.586 353.5,246.5C 353.328,245.508 353.662,244.842 354.5,244.5C 355.482,241.038 355.815,237.371 355.5,233.5C 353.5,233.5 351.5,233.5 349.5,233.5 Z"/></g>
<g><path style="opacity:1" fill="#a59794" d="M 146.5,239.5 C 146.5,241.167 146.5,242.833 146.5,244.5C 146.5,246.833 146.5,249.167 146.5,251.5C 147.5,251.5 148.5,251.5 149.5,251.5C 148.791,252.404 147.791,252.737 146.5,252.5C 145.167,248.167 145.167,243.833 146.5,239.5 Z"/></g>
<g><path style="opacity:1" fill="#aaa0a1" d="M 326.5,245.5 C 323.323,247.82 319.656,249.154 315.5,249.5C 318.626,247.01 322.292,245.677 326.5,245.5 Z"/></g>
<g><path style="opacity:1" fill="#d1b1b2" d="M 169.5,249.5 C 173.981,248.352 178.648,248.185 183.5,249C 187.637,249.839 191.637,250.673 195.5,251.5C 188.841,251.046 182.174,250.713 175.5,250.5C 173.735,249.539 171.735,249.205 169.5,249.5 Z"/></g>
<g><path style="opacity:1" fill="#53494b" d="M 146.5,244.5 C 147.461,246.265 147.795,248.265 147.5,250.5C 151.833,250.5 156.167,250.5 160.5,250.5C 157.038,251.482 153.371,251.815 149.5,251.5C 148.5,251.5 147.5,251.5 146.5,251.5C 146.5,249.167 146.5,246.833 146.5,244.5 Z"/></g>
<g><path style="opacity:1" fill="#e8e1da" d="M 337.5,132.5 C 344.922,134.877 350.922,139.21 355.5,145.5C 354.923,149.869 355.757,153.869 358,157.5C 358.333,156.833 358.667,156.167 359,155.5C 360.532,167.457 360.865,179.457 360,191.5C 359.172,180.864 358.672,180.864 358.5,191.5C 359.427,231.819 359.593,272.152 359,312.5C 356.925,331.896 355.258,351.563 354,371.5C 352.001,373.346 351.168,375.679 351.5,378.5C 352.039,381.529 352.706,384.529 353.5,387.5C 352.272,393.779 351.439,400.112 351,406.5C 348.263,414.682 346.097,423.015 344.5,431.5C 342.856,431.286 341.356,431.62 340,432.5C 338.326,436.338 336.326,440.338 334,444.5C 332.013,445.218 330.179,446.218 328.5,447.5C 327.354,450.279 326.021,452.946 324.5,455.5C 324.302,452.215 322.635,450.548 319.5,450.5C 319.5,449.5 319.5,448.5 319.5,447.5C 320.833,447.5 322.167,447.5 323.5,447.5C 322.718,442.652 324.718,439.819 329.5,439C 331.02,437.115 332.02,434.949 332.5,432.5C 333.325,431.614 334.325,431.281 335.5,431.5C 335.192,429.076 335.526,426.743 336.5,424.5C 337.192,425.025 337.692,425.692 338,426.5C 339.093,424.651 340.426,422.984 342,421.5C 342.626,419.287 342.459,417.12 341.5,415C 341.935,410.573 343.102,406.407 345,402.5C 346.254,394.98 345.421,387.813 342.5,381C 345.461,369.12 346.127,357.12 344.5,345C 345.003,341.991 346.003,339.158 347.5,336.5C 346.833,334.167 346.167,331.833 345.5,329.5C 346.147,323.302 346.814,317.136 347.5,311C 345.648,303.791 342.815,296.958 339,290.5C 339.726,287.555 338.893,284.888 336.5,282.5C 335.548,284.045 335.215,285.712 335.5,287.5C 330.786,287.173 326.12,287.507 321.5,288.5C 320.011,293.646 319.344,293.313 319.5,287.5C 318.167,287.5 316.833,287.5 315.5,287.5C 315.201,285.396 315.534,283.396 316.5,281.5C 318.62,282.872 319.62,282.205 319.5,279.5C 316.018,280.568 312.685,280.401 309.5,279C 307.963,277.89 307.297,276.39 307.5,274.5C 308.873,274.657 310.207,274.49 311.5,274C 311.167,273.667 310.833,273.333 310.5,273C 314.451,272.471 317.784,270.971 320.5,268.5C 323.226,266.35 326.226,264.683 329.5,263.5C 330.514,262.326 331.847,261.66 333.5,261.5C 334.167,261.5 334.833,261.5 335.5,261.5C 337.912,261.306 338.912,259.973 338.5,257.5C 328.828,257.666 319.161,257.5 309.5,257C 309.043,256.586 308.709,256.086 308.5,255.5C 310.421,254.676 311.754,253.343 312.5,251.5C 313.29,250.599 314.29,249.932 315.5,249.5C 319.656,249.154 323.323,247.82 326.5,245.5C 332.249,244.083 337.915,244.416 343.5,246.5C 357.216,251.113 361.549,246.446 356.5,232.5C 355.909,231.849 355.243,231.182 354.5,230.5C 354.709,229.914 355.043,229.414 355.5,229C 353.638,225.851 352.971,222.351 353.5,218.5C 353.652,212.16 353.985,205.827 354.5,199.5C 354.186,184.721 353.186,171.387 351.5,159.5C 352.552,159.649 353.552,159.483 354.5,159C 352.287,155.724 350.454,152.224 349,148.5C 347.667,147.833 346.333,147.167 345,146.5C 344.342,144.892 344.842,143.725 346.5,143C 343.785,142.283 341.618,140.783 340,138.5C 339.098,138.743 338.265,139.077 337.5,139.5C 336.624,139.631 335.957,139.298 335.5,138.5C 336.313,137.186 337.313,136.019 338.5,135C 337.748,134.329 337.414,133.496 337.5,132.5 Z"/></g>
<g><path style="opacity:1" fill="#f1e8dd" d="M 175.5,250.5 C 182.174,250.713 188.841,251.046 195.5,251.5C 196.167,251.5 196.833,251.5 197.5,251.5C 197.611,252.117 197.944,252.617 198.5,253C 201.777,254.143 205.11,254.977 208.5,255.5C 209.167,255.5 209.833,255.5 210.5,255.5C 210.511,257.017 211.177,258.184 212.5,259C 198.368,260.125 184.368,259.292 170.5,256.5C 167.869,256.321 165.535,256.987 163.5,258.5C 162.205,257.902 160.872,257.402 159.5,257C 161.991,256.374 161.991,255.541 159.5,254.5C 164.894,252.943 170.227,251.61 175.5,250.5 Z"/></g>
<g><path style="opacity:1" fill="#cec9c5" d="M 312.5,251.5 C 311.754,253.343 310.421,254.676 308.5,255.5C 308.709,256.086 309.043,256.586 309.5,257C 319.161,257.5 328.828,257.666 338.5,257.5C 338.912,259.973 337.912,261.306 335.5,261.5C 335.804,260.85 336.137,260.183 336.5,259.5C 327.675,258.179 319.009,258.179 310.5,259.5C 308.5,259.5 306.5,259.5 304.5,259.5C 302.302,259.591 301.969,258.925 303.5,257.5C 305.951,254.723 308.951,252.723 312.5,251.5 Z"/></g>
<g><path style="opacity:1" fill="#595756" d="M 310.5,259.5 C 319.009,258.179 327.675,258.179 336.5,259.5C 336.137,260.183 335.804,260.85 335.5,261.5C 334.833,261.5 334.167,261.5 333.5,261.5C 326.24,259.535 318.573,258.868 310.5,259.5 Z"/></g>
<g><path style="opacity:1" fill="#eadddc" d="M 289.5,262.5 C 290.75,262.577 291.583,263.244 292,264.5C 292.308,263.692 292.808,263.025 293.5,262.5C 294.321,265.447 294.821,268.447 295,271.5C 298.541,274.109 302.041,274.109 305.5,271.5C 310.124,271.237 314.458,270.237 318.5,268.5C 319.167,268.5 319.833,268.5 320.5,268.5C 317.784,270.971 314.451,272.471 310.5,273C 310.833,273.333 311.167,273.667 311.5,274C 310.207,274.49 308.873,274.657 307.5,274.5C 307.297,276.39 307.963,277.89 309.5,279C 312.685,280.401 316.018,280.568 319.5,279.5C 319.62,282.205 318.62,282.872 316.5,281.5C 315.534,283.396 315.201,285.396 315.5,287.5C 316.833,287.5 318.167,287.5 319.5,287.5C 319.344,293.313 320.011,293.646 321.5,288.5C 326.12,287.507 330.786,287.173 335.5,287.5C 335.215,285.712 335.548,284.045 336.5,282.5C 338.893,284.888 339.726,287.555 339,290.5C 342.815,296.958 345.648,303.791 347.5,311C 346.814,317.136 346.147,323.302 345.5,329.5C 346.167,331.833 346.833,334.167 347.5,336.5C 346.003,339.158 345.003,341.991 344.5,345C 346.127,357.12 345.461,369.12 342.5,381C 345.421,387.813 346.254,394.98 345,402.5C 343.102,406.407 341.935,410.573 341.5,415C 342.459,417.12 342.626,419.287 342,421.5C 340.426,422.984 339.093,424.651 338,426.5C 337.692,425.692 337.192,425.025 336.5,424.5C 335.526,426.743 335.192,429.076 335.5,431.5C 334.325,431.281 333.325,431.614 332.5,432.5C 332.02,434.949 331.02,437.115 329.5,439C 324.718,439.819 322.718,442.652 323.5,447.5C 322.167,447.5 320.833,447.5 319.5,447.5C 319.5,448.5 319.5,449.5 319.5,450.5C 315.798,450.981 312.131,451.648 308.5,452.5C 305.11,451.508 302.11,452.341 299.5,455C 298.207,455.49 296.873,455.657 295.5,455.5C 295.657,454.127 295.49,452.793 295,451.5C 292.667,452.167 290.333,452.833 288,453.5C 284.927,452.383 281.76,452.216 278.5,453C 276.623,455.106 274.29,456.439 271.5,457C 260.836,457.167 250.169,457.001 239.5,456.5C 239.5,455.5 239.5,454.5 239.5,453.5C 236.881,453.768 234.381,453.435 232,452.5C 230.587,454.652 229.754,456.986 229.5,459.5C 227.5,459.5 225.5,459.5 223.5,459.5C 223.5,460.833 223.5,462.167 223.5,463.5C 222.167,463.5 220.833,463.5 219.5,463.5C 219.666,468.844 219.499,474.177 219,479.5C 216.833,484.5 214.667,489.5 212.5,494.5C 210.994,495.747 209.494,495.747 208,494.5C 207.503,496.81 207.337,499.143 207.5,501.5C 202.167,501.5 196.833,501.5 191.5,501.5C 191.5,502.833 191.5,504.167 191.5,505.5C 180.833,505.5 170.167,505.5 159.5,505.5C 159.649,504.448 159.483,503.448 159,502.5C 156.703,504.314 154.203,505.48 151.5,506C 151.833,505.667 152.167,505.333 152.5,505C 149.815,501.424 148.815,497.591 149.5,493.5C 148.797,490.559 147.797,487.725 146.5,485C 147.703,483.632 148.703,482.132 149.5,480.5C 147.271,477.605 146.938,474.439 148.5,471C 148.299,468.889 147.633,467.055 146.5,465.5C 149.363,459.668 149.03,454.001 145.5,448.5C 145.98,446.051 146.98,443.885 148.5,442C 146.932,438.54 145.599,435.04 144.5,431.5C 145.5,431.5 146.5,431.5 147.5,431.5C 147.5,420.833 147.5,410.167 147.5,399.5C 148.5,399.5 149.5,399.5 150.5,399.5C 149.17,393.174 147.837,386.841 146.5,380.5C 148.731,372.318 149.731,363.985 149.5,355.5C 148.832,346.163 148.165,336.83 147.5,327.5C 146.167,327.5 144.833,327.5 143.5,327.5C 143.227,322.333 143.227,317.333 143.5,312.5C 140.944,312.868 138.944,312.034 137.5,310C 137.645,309.228 137.978,308.561 138.5,308C 140.256,307.798 141.922,307.298 143.5,306.5C 141.874,305.01 140.208,303.51 138.5,302C 140.433,301.217 141.933,301.717 143,303.5C 143.483,302.552 143.649,301.552 143.5,300.5C 142.448,300.649 141.448,300.483 140.5,300C 141.696,299.346 141.696,298.846 140.5,298.5C 139.5,301.167 138.5,301.167 137.5,298.5C 138.951,297.094 140.284,295.594 141.5,294C 141.167,293.667 140.833,293.333 140.5,293C 143.668,292.418 144.001,291.418 141.5,290C 143.15,286.06 143.983,281.893 144,277.5C 149.808,274.946 150.974,270.946 147.5,265.5C 148.5,262.5 150.5,260.5 153.5,259.5C 156.07,260.634 158.736,261.468 161.5,262C 160.366,263.016 160.699,263.683 162.5,264C 161.833,264.667 161.167,265.333 160.5,266C 162.174,267.506 163.174,269.339 163.5,271.5C 164.833,271.5 166.167,271.5 167.5,271.5C 166.961,274.695 167.961,277.195 170.5,279C 165.976,278.369 163.143,280.203 162,284.5C 162.947,288.001 163.447,291.667 163.5,295.5C 167.135,295.656 167.468,296.822 164.5,299C 168.152,299.499 171.818,299.665 175.5,299.5C 175.5,298.167 175.5,296.833 175.5,295.5C 186.167,294.833 196.833,294.167 207.5,293.5C 207.5,291.5 207.5,289.5 207.5,287.5C 212.833,287.5 218.167,287.5 223.5,287.5C 223.5,286.5 223.5,285.5 223.5,284.5C 228.479,282.54 233.479,280.54 238.5,278.5C 239.474,276.257 239.808,273.924 239.5,271.5C 241.833,271.5 244.167,271.5 246.5,271.5C 246.421,270.07 246.754,268.736 247.5,267.5C 250.181,265.286 252.515,262.786 254.5,260C 260.551,259.792 266.551,259.292 272.5,258.5C 274.605,261.027 276.939,263.36 279.5,265.5C 280.5,262.833 281.5,260.167 282.5,257.5C 283.853,258.685 285.02,260.019 286,261.5C 286.333,261.167 286.667,260.833 287,260.5C 287.708,261.381 288.542,262.047 289.5,262.5 Z"/></g>
<g><path style="opacity:1" fill="#b9abaa" d="M 267.5,251.5 C 259.369,250.649 251.702,252.149 244.5,256C 243.24,258.301 241.907,260.468 240.5,262.5C 240.5,260.167 240.5,257.833 240.5,255.5C 241.791,255.737 242.791,255.404 243.5,254.5C 247.18,253.44 250.846,252.274 254.5,251C 259.02,250.186 263.354,250.353 267.5,251.5 Z"/></g>
<g><path style="opacity:1" fill="#080709" d="M 304.5,259.5 C 306.5,259.5 308.5,259.5 310.5,259.5C 318.573,258.868 326.24,259.535 333.5,261.5C 331.847,261.66 330.514,262.326 329.5,263.5C 327.139,263.674 324.806,264.007 322.5,264.5C 315.383,264.45 308.383,265.116 301.5,266.5C 301.5,264.833 301.5,263.167 301.5,261.5C 302.71,261.068 303.71,260.401 304.5,259.5 Z"/></g>
<g><path style="opacity:1" fill="#4a4b51" d="M 114.5,258.5 C 113.167,259.5 113.167,260.5 114.5,261.5C 112.833,261.5 111.167,261.5 109.5,261.5C 107.983,261.511 106.816,262.177 106,263.5C 104.892,270.115 104.225,276.782 104,283.5C 103.292,284.381 102.458,285.047 101.5,285.5C 103.453,277.432 104.12,269.432 103.5,261.5C 103.953,260.542 104.619,259.708 105.5,259C 108.482,258.502 111.482,258.335 114.5,258.5 Z"/></g>
<g><path style="opacity:1" fill="#807b81" d="M 303.5,257.5 C 301.969,258.925 302.302,259.591 304.5,259.5C 303.71,260.401 302.71,261.068 301.5,261.5C 298.777,264.178 299.111,266.678 302.5,269C 307.861,269.609 313.195,269.442 318.5,268.5C 314.458,270.237 310.124,271.237 305.5,271.5C 302.881,271.768 300.381,271.435 298,270.5C 297.502,267.518 297.335,264.518 297.5,261.5C 295.585,261.784 293.919,261.451 292.5,260.5C 296.493,260.5 300.159,259.5 303.5,257.5 Z"/></g>
<g><path style="opacity:1" fill="#d2d0cc" d="M 109.5,261.5 C 111.167,261.5 112.833,261.5 114.5,261.5C 116.042,262.301 117.708,262.634 119.5,262.5C 119.5,265.5 119.5,268.5 119.5,271.5C 119.335,274.85 119.502,278.183 120,281.5C 120.671,282.252 121.504,282.586 122.5,282.5C 122.5,282.833 122.5,283.167 122.5,283.5C 121.167,283.5 119.833,283.5 118.5,283.5C 118.666,278.821 118.499,274.155 118,269.5C 114.726,268.508 113.893,269.674 115.5,273C 114.232,276.027 112.898,278.861 111.5,281.5C 111.841,277.84 111.175,274.507 109.5,271.5C 108.844,269.516 108.178,267.516 107.5,265.5C 107.752,263.927 108.418,262.594 109.5,261.5 Z"/></g>
<g><path style="opacity:1" fill="#37343d" d="M 301.5,261.5 C 301.5,263.167 301.5,264.833 301.5,266.5C 308.383,265.116 315.383,264.45 322.5,264.5C 321.167,265.833 319.833,267.167 318.5,268.5C 313.195,269.442 307.861,269.609 302.5,269C 299.111,266.678 298.777,264.178 301.5,261.5 Z"/></g>
<g><path style="opacity:1" fill="#a69b9b" d="M 329.5,263.5 C 326.226,264.683 323.226,266.35 320.5,268.5C 319.833,268.5 319.167,268.5 318.5,268.5C 319.833,267.167 321.167,265.833 322.5,264.5C 324.806,264.007 327.139,263.674 329.5,263.5 Z"/></g>
<g><path style="opacity:1" fill="#c1baba" d="M 286.5,257.5 C 289.089,257.461 291.089,258.461 292.5,260.5C 293.919,261.451 295.585,261.784 297.5,261.5C 297.335,264.518 297.502,267.518 298,270.5C 300.381,271.435 302.881,271.768 305.5,271.5C 302.041,274.109 298.541,274.109 295,271.5C 294.821,268.447 294.321,265.447 293.5,262.5C 292.808,263.025 292.308,263.692 292,264.5C 291.583,263.244 290.75,262.577 289.5,262.5C 289.611,261.883 289.944,261.383 290.5,261C 288.973,259.968 287.64,258.801 286.5,257.5 Z"/></g>
<g><path style="opacity:1" fill="#2c2c33" d="M 103.5,261.5 C 104.12,269.432 103.453,277.432 101.5,285.5C 98.9403,289.002 97.2736,293.002 96.5,297.5C 96.1667,297.5 95.8333,297.5 95.5,297.5C 97.0372,286.768 98.8705,276.101 101,265.5C 101.662,264.016 102.496,262.683 103.5,261.5 Z"/></g>
<g><path style="opacity:1" fill="#898183" d="M 109.5,261.5 C 108.418,262.594 107.752,263.927 107.5,265.5C 108.178,267.516 108.844,269.516 109.5,271.5C 108.598,275.755 107.598,280.089 106.5,284.5C 107.5,284.5 108.5,284.5 109.5,284.5C 108.147,286.738 106.147,288.071 103.5,288.5C 102.417,288.539 101.417,288.873 100.5,289.5C 100.018,292.703 98.6848,295.369 96.5,297.5C 97.2736,293.002 98.9403,289.002 101.5,285.5C 102.458,285.047 103.292,284.381 104,283.5C 104.225,276.782 104.892,270.115 106,263.5C 106.816,262.177 107.983,261.511 109.5,261.5 Z"/></g>
<g><path style="opacity:1" fill="#51484d" d="M 109.5,271.5 C 111.175,274.507 111.841,277.84 111.5,281.5C 110.094,281.973 109.427,282.973 109.5,284.5C 108.5,284.5 107.5,284.5 106.5,284.5C 107.598,280.089 108.598,275.755 109.5,271.5 Z"/></g>
<g><path style="opacity:1" fill="#e8dfd9" d="M 169.5,249.5 C 171.735,249.205 173.735,249.539 175.5,250.5C 170.227,251.61 164.894,252.943 159.5,254.5C 161.991,255.541 161.991,256.374 159.5,257C 160.872,257.402 162.205,257.902 163.5,258.5C 165.535,256.987 167.869,256.321 170.5,256.5C 184.368,259.292 198.368,260.125 212.5,259C 211.177,258.184 210.511,257.017 210.5,255.5C 216.991,258.578 223.325,261.912 229.5,265.5C 233.976,267.482 237.643,266.482 240.5,262.5C 241.907,260.468 243.24,258.301 244.5,256C 251.702,252.149 259.369,250.649 267.5,251.5C 274.23,252.429 280.564,254.429 286.5,257.5C 287.64,258.801 288.973,259.968 290.5,261C 289.944,261.383 289.611,261.883 289.5,262.5C 288.542,262.047 287.708,261.381 287,260.5C 286.667,260.833 286.333,261.167 286,261.5C 285.02,260.019 283.853,258.685 282.5,257.5C 281.5,260.167 280.5,262.833 279.5,265.5C 276.939,263.36 274.605,261.027 272.5,258.5C 266.551,259.292 260.551,259.792 254.5,260C 252.515,262.786 250.181,265.286 247.5,267.5C 246.754,268.736 246.421,270.07 246.5,271.5C 244.167,271.5 241.833,271.5 239.5,271.5C 239.808,273.924 239.474,276.257 238.5,278.5C 233.479,280.54 228.479,282.54 223.5,284.5C 223.5,285.5 223.5,286.5 223.5,287.5C 218.167,287.5 212.833,287.5 207.5,287.5C 207.5,289.5 207.5,291.5 207.5,293.5C 196.833,294.167 186.167,294.833 175.5,295.5C 175.5,296.833 175.5,298.167 175.5,299.5C 171.818,299.665 168.152,299.499 164.5,299C 167.468,296.822 167.135,295.656 163.5,295.5C 163.447,291.667 162.947,288.001 162,284.5C 163.143,280.203 165.976,278.369 170.5,279C 167.961,277.195 166.961,274.695 167.5,271.5C 166.167,271.5 164.833,271.5 163.5,271.5C 163.174,269.339 162.174,267.506 160.5,266C 161.167,265.333 161.833,264.667 162.5,264C 160.699,263.683 160.366,263.016 161.5,262C 158.736,261.468 156.07,260.634 153.5,259.5C 150.5,260.5 148.5,262.5 147.5,265.5C 150.974,270.946 149.808,274.946 144,277.5C 143.983,281.893 143.15,286.06 141.5,290C 144.001,291.418 143.668,292.418 140.5,293C 140.833,293.333 141.167,293.667 141.5,294C 140.284,295.594 138.951,297.094 137.5,298.5C 138.5,301.167 139.5,301.167 140.5,298.5C 141.696,298.846 141.696,299.346 140.5,300C 141.448,300.483 142.448,300.649 143.5,300.5C 143.649,301.552 143.483,302.552 143,303.5C 141.933,301.717 140.433,301.217 138.5,302C 140.208,303.51 141.874,305.01 143.5,306.5C 141.922,307.298 140.256,307.798 138.5,308C 137.978,308.561 137.645,309.228 137.5,310C 138.944,312.034 140.944,312.868 143.5,312.5C 143.227,317.333 143.227,322.333 143.5,327.5C 144.833,327.5 146.167,327.5 147.5,327.5C 148.165,336.83 148.832,346.163 149.5,355.5C 149.731,363.985 148.731,372.318 146.5,380.5C 147.837,386.841 149.17,393.174 150.5,399.5C 149.5,399.5 148.5,399.5 147.5,399.5C 147.5,410.167 147.5,420.833 147.5,431.5C 146.5,431.5 145.5,431.5 144.5,431.5C 145.599,435.04 146.932,438.54 148.5,442C 146.98,443.885 145.98,446.051 145.5,448.5C 149.03,454.001 149.363,459.668 146.5,465.5C 145.678,467.389 144.845,469.389 144,471.5C 143.667,469.833 143.333,468.167 143,466.5C 142.742,416.828 142.242,367.161 141.5,317.5C 139.901,317.232 138.568,317.566 137.5,318.5C 137.5,318.833 137.5,319.167 137.5,319.5C 133.226,322.028 128.893,324.362 124.5,326.5C 121.365,328.023 118.032,328.69 114.5,328.5C 109.456,328.827 104.456,328.494 99.5,327.5C 98.8333,326.833 98.1667,326.167 97.5,325.5C 96.525,317.547 95.8583,309.547 95.5,301.5C 97.2296,298.892 99.063,298.892 101,301.5C 101.495,303.473 101.662,305.473 101.5,307.5C 105.846,307.666 110.179,307.499 114.5,307C 117.241,303.758 116.908,300.758 113.5,298C 110.647,296.57 107.647,295.737 104.5,295.5C 103.544,294.341 102.544,293.174 101.5,292C 101.978,290.697 102.645,289.531 103.5,288.5C 106.147,288.071 108.147,286.738 109.5,284.5C 109.427,282.973 110.094,281.973 111.5,281.5C 112.898,278.861 114.232,276.027 115.5,273C 113.893,269.674 114.726,268.508 118,269.5C 118.499,274.155 118.666,278.821 118.5,283.5C 119.833,283.5 121.167,283.5 122.5,283.5C 124.389,284.604 126.055,285.937 127.5,287.5C 127.64,291.164 126.973,294.664 125.5,298C 126.652,304.744 127.318,304.911 127.5,298.5C 129.58,299.044 131.58,299.878 133.5,301C 132.5,301.333 131.5,301.667 130.5,302C 131.865,303.682 133.365,303.849 135,302.5C 135.783,300.567 135.283,299.067 133.5,298C 134.5,297.667 135.5,297.333 136.5,297C 138.227,294.096 138.893,290.93 138.5,287.5C 139.552,287.649 140.552,287.483 141.5,287C 141.193,285.318 140.86,283.652 140.5,282C 141.167,278 141.833,274 142.5,270C 140.746,266.07 140.579,261.903 142,257.5C 143.44,255.954 145.273,255.121 147.5,255C 146.748,254.329 146.414,253.496 146.5,252.5C 147.791,252.737 148.791,252.404 149.5,251.5C 153.371,251.815 157.038,251.482 160.5,250.5C 163.518,250.296 166.518,249.963 169.5,249.5 Z"/></g>
<g><path style="opacity:1" fill="#938685" d="M 138.5,276.5 C 138.412,281.536 137.912,286.536 137,291.5C 135.876,294.842 134.376,295.175 132.5,292.5C 133.5,292.5 134.5,292.5 135.5,292.5C 136.302,287.003 137.302,281.67 138.5,276.5 Z"/></g>
<g><path style="opacity:1" fill="#605a57" d="M 119.5,271.5 C 119.998,275.27 120.998,278.937 122.5,282.5C 121.504,282.586 120.671,282.252 120,281.5C 119.502,278.183 119.335,274.85 119.5,271.5 Z"/></g>
<g><path style="opacity:1" fill="#b8abaa" d="M 209.5,264.5 C 209.196,265.15 208.863,265.817 208.5,266.5C 203.833,266.833 199.167,267.167 194.5,267.5C 187.92,267.716 181.587,267.049 175.5,265.5C 186.91,267.078 198.243,266.745 209.5,264.5 Z"/></g>
<g><path style="opacity:1" fill="#141111" d="M 176.5,259.5 C 187.141,260.237 197.808,260.737 208.5,261C 209.337,262.011 209.67,263.178 209.5,264.5C 198.243,266.745 186.91,267.078 175.5,265.5C 172.519,265.818 170.185,264.818 168.5,262.5C 168.414,261.504 168.748,260.671 169.5,260C 171.81,259.503 174.143,259.337 176.5,259.5 Z"/></g>
<g><path style="opacity:1" fill="#6f6364" d="M 243.5,254.5 C 242.791,255.404 241.791,255.737 240.5,255.5C 240.5,257.833 240.5,260.167 240.5,262.5C 237.643,266.482 233.976,267.482 229.5,265.5C 237.664,266.333 240.998,262.666 239.5,254.5C 240.833,254.5 242.167,254.5 243.5,254.5 Z"/></g>
<g><path style="opacity:1" fill="#a79997" d="M 176.5,259.5 C 174.143,259.337 171.81,259.503 169.5,260C 168.748,260.671 168.414,261.504 168.5,262.5C 167.5,262.5 166.5,262.5 165.5,262.5C 165.5,261.167 165.5,259.833 165.5,258.5C 169.371,258.185 173.038,258.518 176.5,259.5 Z"/></g>
<g><path style="opacity:1" fill="#cfb6b7" d="M 197.5,251.5 C 200.815,252.329 204.148,253.162 207.5,254C 208.056,254.383 208.389,254.883 208.5,255.5C 205.11,254.977 201.777,254.143 198.5,253C 197.944,252.617 197.611,252.117 197.5,251.5 Z"/></g>
<g><path style="opacity:1" fill="#cdbebd" d="M 103.5,288.5 C 102.645,289.531 101.978,290.697 101.5,292C 102.544,293.174 103.544,294.341 104.5,295.5C 107.647,295.737 110.647,296.57 113.5,298C 116.908,300.758 117.241,303.758 114.5,307C 110.179,307.499 105.846,307.666 101.5,307.5C 101.662,305.473 101.495,303.473 101,301.5C 99.063,298.892 97.2296,298.892 95.5,301.5C 95.5,300.167 95.5,298.833 95.5,297.5C 95.8333,297.5 96.1667,297.5 96.5,297.5C 98.6848,295.369 100.018,292.703 100.5,289.5C 101.417,288.873 102.417,288.539 103.5,288.5 Z"/></g>
<g><path style="opacity:1" fill="#9f8c8d" d="M 104.5,295.5 C 105.833,296.5 107.167,297.5 108.5,298.5C 107.022,298.238 105.689,298.571 104.5,299.5C 104.583,304.86 107.25,306.86 112.5,305.5C 109.696,306.638 106.696,306.805 103.5,306C 102.46,302.6 101.794,299.1 101.5,295.5C 102.5,295.5 103.5,295.5 104.5,295.5 Z"/></g>
<g><path style="opacity:1" fill="#5a424c" d="M 108.5,298.5 C 111.272,299.436 113.272,301.27 114.5,304C 114.164,305.03 113.497,305.53 112.5,305.5C 107.25,306.86 104.583,304.86 104.5,299.5C 105.689,298.571 107.022,298.238 108.5,298.5 Z"/></g>
<g><path style="opacity:1" fill="#0f0b0d" d="M 288.5,319.5 C 290.607,320.468 292.941,320.802 295.5,320.5C 295.5,321.5 295.5,322.5 295.5,323.5C 295.5,324.167 295.5,324.833 295.5,325.5C 294.711,325.783 294.044,326.283 293.5,327C 287.954,327.369 282.62,328.203 277.5,329.5C 275.597,329.796 273.93,330.463 272.5,331.5C 271.391,331.557 270.391,331.89 269.5,332.5C 268.005,332.415 267.005,333.081 266.5,334.5C 267.246,335.736 267.579,337.07 267.5,338.5C 262.519,337.911 257.519,337.411 252.5,337C 250.771,335.211 250.104,333.044 250.5,330.5C 261.442,321.823 274.109,318.157 288.5,319.5 Z"/></g>
<g><path style="opacity:1" fill="#645763" d="M 288.5,319.5 C 291.167,319.5 293.833,319.5 296.5,319.5C 296.768,321.099 296.434,322.432 295.5,323.5C 295.5,322.5 295.5,321.5 295.5,320.5C 292.941,320.802 290.607,320.468 288.5,319.5 Z"/></g>
<g><path style="opacity:1" fill="#16181c" d="M 137.5,319.5 C 138.586,319.62 139.253,320.287 139.5,321.5C 138.954,323.135 138.62,324.801 138.5,326.5C 134.076,326.272 130.076,327.272 126.5,329.5C 126.167,329.5 125.833,329.5 125.5,329.5C 123.204,329.196 122.871,328.196 124.5,326.5C 128.893,324.362 133.226,322.028 137.5,319.5 Z"/></g>
<g><path style="opacity:1" fill="#babbb9" d="M 95.5,301.5 C 95.8583,309.547 96.525,317.547 97.5,325.5C 98.1667,326.167 98.8333,326.833 99.5,327.5C 104.456,328.494 109.456,328.827 114.5,328.5C 110.875,329.57 107.042,330.236 103,330.5C 99.7941,330.613 97.4608,329.279 96,326.5C 95.6451,319.655 95.1451,312.822 94.5,306C 94.5085,304.293 94.8418,302.793 95.5,301.5 Z"/></g>
<g><path style="opacity:1" fill="#b6a7ac" d="M 295.5,325.5 C 294.067,327.558 293.4,329.892 293.5,332.5C 292.167,332.5 290.833,332.5 289.5,332.5C 290.234,331.292 290.567,329.959 290.5,328.5C 286.215,329.295 281.881,329.628 277.5,329.5C 282.62,328.203 287.954,327.369 293.5,327C 294.044,326.283 294.711,325.783 295.5,325.5 Z"/></g>
<g><path style="opacity:1" fill="#dbcdc9" d="M 289.5,332.5 C 288.833,332.5 288.5,332.833 288.5,333.5C 286.447,333.402 284.78,334.069 283.5,335.5C 282.167,335.5 280.833,335.5 279.5,335.5C 276.833,335.5 274.167,335.5 271.5,335.5C 271.433,334.041 271.766,332.708 272.5,331.5C 273.93,330.463 275.597,329.796 277.5,329.5C 281.881,329.628 286.215,329.295 290.5,328.5C 290.567,329.959 290.234,331.292 289.5,332.5 Z"/></g>
<g><path style="opacity:1" fill="#9a8281" d="M 272.5,331.5 C 271.766,332.708 271.433,334.041 271.5,335.5C 274.167,335.5 276.833,335.5 279.5,335.5C 276.36,336.641 273.027,336.808 269.5,336C 268.316,334.855 268.316,333.688 269.5,332.5C 270.391,331.89 271.391,331.557 272.5,331.5 Z"/></g>
<g><path style="opacity:1" fill="#422d38" d="M 250.5,330.5 C 250.104,333.044 250.771,335.211 252.5,337C 257.519,337.411 262.519,337.911 267.5,338.5C 267.579,337.07 267.246,335.736 266.5,334.5C 267.005,333.081 268.005,332.415 269.5,332.5C 268.316,333.688 268.316,334.855 269.5,336C 273.027,336.808 276.36,336.641 279.5,335.5C 280.833,335.5 282.167,335.5 283.5,335.5C 283.082,336.222 282.416,336.722 281.5,337C 284.958,338.415 288.625,338.915 292.5,338.5C 292.5,336.833 292.5,335.167 292.5,333.5C 291.167,333.5 289.833,333.5 288.5,333.5C 288.5,332.833 288.833,332.5 289.5,332.5C 290.833,332.5 292.167,332.5 293.5,332.5C 293.62,334.199 293.954,335.865 294.5,337.5C 294.253,338.713 293.586,339.38 292.5,339.5C 281.136,339.743 269.802,339.41 258.5,338.5C 251.18,339.852 248.513,337.186 250.5,330.5 Z"/></g>
<g><path style="opacity:1" fill="#13060e" d="M 288.5,333.5 C 289.833,333.5 291.167,333.5 292.5,333.5C 292.5,335.167 292.5,336.833 292.5,338.5C 288.625,338.915 284.958,338.415 281.5,337C 282.416,336.722 283.082,336.222 283.5,335.5C 284.78,334.069 286.447,333.402 288.5,333.5 Z"/></g>
<g><path style="opacity:1" fill="#a9979c" d="M 258.5,338.5 C 269.802,339.41 281.136,339.743 292.5,339.5C 282.342,340.659 272.008,340.825 261.5,340C 260.263,339.768 259.263,339.268 258.5,338.5 Z"/></g>
<g><path style="opacity:1" fill="#7c9099" d="M 361.5,273.5 C 362.43,287.328 363.097,301.328 363.5,315.5C 358.971,350.302 356.971,385.302 357.5,420.5C 357.335,422.827 356.669,424.993 355.5,427C 355.833,427.333 356.167,427.667 356.5,428C 355.54,429.419 354.707,430.919 354,432.5C 353.333,431.167 352.667,431.167 352,432.5C 351.691,433.766 351.191,434.933 350.5,436C 350.833,436.333 351.167,436.667 351.5,437C 350.687,438.314 349.687,439.481 348.5,440.5C 348.709,441.086 349.043,441.586 349.5,442C 346.274,444.964 343.941,448.464 342.5,452.5C 339.479,453.98 336.312,455.313 333,456.5C 330.946,458.772 328.779,460.939 326.5,463C 308.616,471.611 289.616,475.444 269.5,474.5C 278.744,473.83 288.077,472.663 297.5,471C 299.852,470.76 301.852,469.927 303.5,468.5C 312.282,465.778 320.616,461.944 328.5,457C 331.328,454.752 334.328,452.752 337.5,451C 340.383,447.624 343.049,444.124 345.5,440.5C 351.189,433.991 354.355,426.324 355,417.5C 356.328,401.197 356.828,384.864 356.5,368.5C 360.845,337.034 362.512,305.367 361.5,273.5 Z"/></g>
<g><path style="opacity:1" fill="#eddadc" d="M 183.5,334.5 C 188.891,335.205 194.224,335.205 199.5,334.5C 199.5,335.5 199.5,336.5 199.5,337.5C 205.319,336.307 209.986,337.974 213.5,342.5C 216.287,344.227 219.287,345.394 222.5,346C 223.207,348.52 224.04,351.02 225,353.5C 229.667,358.167 234.333,362.833 239,367.5C 239.49,366.207 239.657,364.873 239.5,363.5C 244.833,363.5 250.167,363.5 255.5,363.5C 255.665,366.518 255.498,369.518 255,372.5C 250.237,374.463 245.403,376.296 240.5,378C 239.594,379.699 239.261,381.533 239.5,383.5C 237.334,383.579 235.334,384.246 233.5,385.5C 229.099,382.797 226.099,384.131 224.5,389.5C 227.053,391.962 227.053,394.295 224.5,396.5C 223.516,393.572 223.183,390.572 223.5,387.5C 212.833,387.5 202.167,387.5 191.5,387.5C 191.5,386.167 191.5,384.833 191.5,383.5C 192.552,383.649 193.552,383.483 194.5,383C 196.455,380.832 197.121,378.498 196.5,376C 194.343,375.922 192.343,375.755 190.5,375.5C 188.187,367.663 187.187,359.663 187.5,351.5C 194.167,351.5 200.833,351.5 207.5,351.5C 207.5,349.5 207.5,347.5 207.5,345.5C 202.077,342.781 196.411,342.114 190.5,343.5C 187.531,341.333 184.197,339.999 180.5,339.5C 181.325,338.614 182.325,338.281 183.5,338.5C 183.5,337.167 183.5,335.833 183.5,334.5 Z"/></g>
<g><path style="opacity:1" fill="#778b97" d="M 137.5,319.5 C 137.5,319.167 137.5,318.833 137.5,318.5C 138.5,318.5 139.5,318.5 140.5,318.5C 140.5,382.833 140.5,447.167 140.5,511.5C 139.833,511.5 139.167,511.5 138.5,511.5C 138.496,502.12 137.829,492.787 136.5,483.5C 137.451,468.856 137.784,454.189 137.5,439.5C 136.371,405.498 136.204,371.498 137,337.5C 136.014,335.222 135.18,332.889 134.5,330.5C 131.914,329.52 129.247,329.187 126.5,329.5C 130.076,327.272 134.076,326.272 138.5,326.5C 138.62,324.801 138.954,323.135 139.5,321.5C 139.253,320.287 138.586,319.62 137.5,319.5 Z"/></g>
<g><path style="opacity:1" fill="#75696b" d="M 295.5,392.5 C 296.5,393.167 297.5,393.833 298.5,394.5C 294.276,393.816 290.11,392.816 286,391.5C 283.921,388.63 281.421,386.297 278.5,384.5C 273.68,386.794 268.68,388.461 263.5,389.5C 266.939,387.386 270.606,385.719 274.5,384.5C 275.667,383.185 277.167,382.519 279,382.5C 281.137,383.077 283.304,383.41 285.5,383.5C 285.297,385.39 285.963,386.89 287.5,388C 290.059,389.777 292.726,391.277 295.5,392.5 Z"/></g>
<g><path style="opacity:1" fill="#b7acac" d="M 295.5,392.5 C 292.726,391.277 290.059,389.777 287.5,388C 285.963,386.89 285.297,385.39 285.5,383.5C 283.304,383.41 281.137,383.077 279,382.5C 277.167,382.519 275.667,383.185 274.5,384.5C 273.5,384.5 272.5,384.5 271.5,384.5C 273.959,380.536 277.626,378.202 282.5,377.5C 285.509,380.842 288.843,383.842 292.5,386.5C 293.559,388.534 294.559,390.534 295.5,392.5 Z"/></g>
<g><path style="opacity:1" fill="#0f0a0c" d="M 298.5,394.5 C 302.333,395.667 302.333,396.833 298.5,398C 278.487,398.483 258.487,398.817 238.5,399C 235.085,397.857 234.751,396.19 237.5,394C 239.473,393.505 241.473,393.338 243.5,393.5C 247.79,393.802 251.79,393.136 255.5,391.5C 258.221,391.037 260.888,390.371 263.5,389.5C 268.68,388.461 273.68,386.794 278.5,384.5C 281.421,386.297 283.921,388.63 286,391.5C 290.11,392.816 294.276,393.816 298.5,394.5 Z"/></g>
<g><path style="opacity:1" fill="#9c8887" d="M 271.5,384.5 C 272.5,384.5 273.5,384.5 274.5,384.5C 270.606,385.719 266.939,387.386 263.5,389.5C 260.888,390.371 258.221,391.037 255.5,391.5C 254.167,391.5 252.833,391.5 251.5,391.5C 258.242,389.585 264.908,387.252 271.5,384.5 Z"/></g>
<g><path style="opacity:1" fill="#443633" d="M 251.5,391.5 C 252.833,391.5 254.167,391.5 255.5,391.5C 251.79,393.136 247.79,393.802 243.5,393.5C 245.905,392.232 248.572,391.565 251.5,391.5 Z"/></g>
<g><path style="opacity:1" fill="#bfc8cc" d="M 356.5,368.5 C 356.828,384.864 356.328,401.197 355,417.5C 354.355,426.324 351.189,433.991 345.5,440.5C 346.176,436.813 347.676,433.48 350,430.5C 353.163,409.783 355.33,389.117 356.5,368.5 Z"/></g>
<g><path style="opacity:1" fill="#e8e1de" d="M 137.5,318.5 C 138.568,317.566 139.901,317.232 141.5,317.5C 142.242,367.161 142.742,416.828 143,466.5C 143.333,468.167 143.667,469.833 144,471.5C 144.845,469.389 145.678,467.389 146.5,465.5C 147.633,467.055 148.299,468.889 148.5,471C 146.938,474.439 147.271,477.605 149.5,480.5C 148.703,482.132 147.703,483.632 146.5,485C 147.797,487.725 148.797,490.559 149.5,493.5C 148.815,497.591 149.815,501.424 152.5,505C 152.167,505.333 151.833,505.667 151.5,506C 154.203,505.48 156.703,504.314 159,502.5C 159.483,503.448 159.649,504.448 159.5,505.5C 170.167,505.5 180.833,505.5 191.5,505.5C 191.5,504.167 191.5,502.833 191.5,501.5C 196.833,501.5 202.167,501.5 207.5,501.5C 207.337,499.143 207.503,496.81 208,494.5C 209.494,495.747 210.994,495.747 212.5,494.5C 214.667,489.5 216.833,484.5 219,479.5C 219.499,474.177 219.666,468.844 219.5,463.5C 220.833,463.5 222.167,463.5 223.5,463.5C 223.5,462.167 223.5,460.833 223.5,459.5C 225.5,459.5 227.5,459.5 229.5,459.5C 229.754,456.986 230.587,454.652 232,452.5C 234.381,453.435 236.881,453.768 239.5,453.5C 239.5,454.5 239.5,455.5 239.5,456.5C 250.169,457.001 260.836,457.167 271.5,457C 274.29,456.439 276.623,455.106 278.5,453C 281.76,452.216 284.927,452.383 288,453.5C 290.333,452.833 292.667,452.167 295,451.5C 295.49,452.793 295.657,454.127 295.5,455.5C 296.873,455.657 298.207,455.49 299.5,455C 302.11,452.341 305.11,451.508 308.5,452.5C 312.131,451.648 315.798,450.981 319.5,450.5C 319.849,453.045 319.016,455.045 317,456.5C 316.692,455.692 316.192,455.025 315.5,454.5C 313.459,455.236 311.459,456.069 309.5,457C 310.833,457.667 310.833,458.333 309.5,459C 307.131,459.536 305.131,460.703 303.5,462.5C 299.808,463.252 296.142,464.086 292.5,465C 293.308,465.308 293.975,465.808 294.5,466.5C 286.716,469.57 278.716,470.237 270.5,468.5C 267.095,469.614 263.595,470.281 260,470.5C 254.606,470.211 249.439,469.711 244.5,469C 243.289,470.113 243.289,471.28 244.5,472.5C 242.964,475.893 241.964,475.893 241.5,472.5C 240.815,474.781 240.649,477.114 241,479.5C 239.289,482.255 237.122,484.589 234.5,486.5C 233.225,489.373 232.392,492.373 232,495.5C 228.882,500.74 226.048,506.073 223.5,511.5C 195.833,511.5 168.167,511.5 140.5,511.5C 140.5,447.167 140.5,382.833 140.5,318.5C 139.5,318.5 138.5,318.5 137.5,318.5 Z"/></g>
<g><path style="opacity:1" fill="#dfdfdb" d="M 355.5,145.5 C 356.401,146.29 357.068,147.29 357.5,148.5C 358.757,151.096 359.924,153.763 361,156.5C 361.5,195.499 361.667,234.499 361.5,273.5C 362.512,305.367 360.845,337.034 356.5,368.5C 355.33,389.117 353.163,409.783 350,430.5C 347.676,433.48 346.176,436.813 345.5,440.5C 343.049,444.124 340.383,447.624 337.5,451C 334.328,452.752 331.328,454.752 328.5,457C 320.616,461.944 312.282,465.778 303.5,468.5C 285.629,471.154 267.629,472.654 249.5,473C 243.086,480.407 237.919,488.573 234,497.5C 229.709,501.206 227.209,505.872 226.5,511.5C 225.5,511.5 224.5,511.5 223.5,511.5C 226.048,506.073 228.882,500.74 232,495.5C 232.392,492.373 233.225,489.373 234.5,486.5C 237.122,484.589 239.289,482.255 241,479.5C 240.649,477.114 240.815,474.781 241.5,472.5C 241.964,475.893 242.964,475.893 244.5,472.5C 243.289,471.28 243.289,470.113 244.5,469C 249.439,469.711 254.606,470.211 260,470.5C 263.595,470.281 267.095,469.614 270.5,468.5C 278.716,470.237 286.716,469.57 294.5,466.5C 293.975,465.808 293.308,465.308 292.5,465C 296.142,464.086 299.808,463.252 303.5,462.5C 305.131,460.703 307.131,459.536 309.5,459C 310.833,458.333 310.833,457.667 309.5,457C 311.459,456.069 313.459,455.236 315.5,454.5C 316.192,455.025 316.692,455.692 317,456.5C 319.016,455.045 319.849,453.045 319.5,450.5C 322.635,450.548 324.302,452.215 324.5,455.5C 326.021,452.946 327.354,450.279 328.5,447.5C 330.179,446.218 332.013,445.218 334,444.5C 336.326,440.338 338.326,436.338 340,432.5C 341.356,431.62 342.856,431.286 344.5,431.5C 346.097,423.015 348.263,414.682 351,406.5C 351.439,400.112 352.272,393.779 353.5,387.5C 352.706,384.529 352.039,381.529 351.5,378.5C 351.168,375.679 352.001,373.346 354,371.5C 355.258,351.563 356.925,331.896 359,312.5C 359.593,272.152 359.427,231.819 358.5,191.5C 358.672,180.864 359.172,180.864 360,191.5C 360.865,179.457 360.532,167.457 359,155.5C 358.667,156.167 358.333,156.833 358,157.5C 355.757,153.869 354.923,149.869 355.5,145.5 Z"/></g>
<g><path style="opacity:1" fill="#8da1ad" d="M 303.5,468.5 C 301.852,469.927 299.852,470.76 297.5,471C 288.077,472.663 278.744,473.83 269.5,474.5C 263.743,474.761 258.077,475.594 252.5,477C 242.319,486.374 235.653,497.874 232.5,511.5C 230.5,511.5 228.5,511.5 226.5,511.5C 227.209,505.872 229.709,501.206 234,497.5C 237.919,488.573 243.086,480.407 249.5,473C 267.629,472.654 285.629,471.154 303.5,468.5 Z"/></g>
</svg>
