<?xml version="1.0" encoding="UTF-8"?>
<!DOCTYPE svg PUBLIC "-//W3C//DTD SVG 1.1//EN" "http://www.w3.org/Graphics/SVG/1.1/DTD/svg11.dtd">
<svg xmlns="http://www.w3.org/2000/svg" version="1.1" width="512px" height="512px" style="shape-rendering:geometricPrecision; text-rendering:geometricPrecision; image-rendering:optimizeQuality; fill-rule:evenodd; clip-rule:evenodd" xmlns:xlink="http://www.w3.org/1999/xlink">
<g><path style="opacity:1" fill="#658697" d="M -0.5,-0.5 C 170.167,-0.5 340.833,-0.5 511.5,-0.5C 511.5,170.167 511.5,340.833 511.5,511.5C 458.167,511.5 404.833,511.5 351.5,511.5C 351.5,510.167 351.5,508.833 351.5,507.5C 362.167,507.833 372.833,508.167 383.5,508.5C 383.664,505.813 383.497,503.146 383,500.5C 382.167,501.5 381.333,502.5 380.5,503.5C 379.639,500.473 378.139,497.806 376,495.5C 375.501,490.177 375.334,484.844 375.5,479.5C 373.076,479.808 370.743,479.474 368.5,478.5C 368.709,477.914 369.043,477.414 369.5,477C 367.709,474.894 367.042,472.394 367.5,469.5C 364.215,469.731 361.715,468.397 360,465.5C 359.501,459.509 359.334,453.509 359.5,447.5C 358.167,447.5 356.833,447.5 355.5,447.5C 356.521,442.752 357.854,438.085 359.5,433.5C 359.392,432.558 359.059,431.725 358.5,431C 360.107,431.019 361.774,431.185 363.5,431.5C 363.042,428.606 363.709,426.106 365.5,424C 364.692,423.692 364.025,423.192 363.5,422.5C 364.577,420.271 365.244,417.937 365.5,415.5C 364.325,415.719 363.325,415.386 362.5,414.5C 363.609,412.615 364.443,410.615 365,408.5C 366.131,409.604 366.965,409.271 367.5,407.5C 366.878,404.63 366.211,401.796 365.5,399C 366.798,394.923 367.464,390.589 367.5,386C 367.167,381.833 366.833,377.667 366.5,373.5C 364.994,372.77 363.66,372.437 362.5,372.5C 362.217,362.144 362.217,351.644 362.5,341C 361.923,334.01 361.257,327.177 360.5,320.5C 360.828,309.986 360.494,299.653 359.5,289.5C 359.5,289.167 359.5,288.833 359.5,288.5C 364.407,286.26 368.407,282.927 371.5,278.5C 371.184,283.844 370.684,289.178 370,294.5C 368.048,296.337 367.048,298.671 367,301.5C 366.692,300.692 366.192,300.025 365.5,299.5C 364.5,301.5 363.5,303.5 362.5,305.5C 363.867,310.274 364.533,314.94 364.5,319.5C 365.806,314.248 366.639,308.914 367,303.5C 367.5,319.497 367.667,335.497 367.5,351.5C 370.898,351.18 374.232,351.513 377.5,352.5C 378.588,354.965 380.421,356.631 383,357.5C 383.333,353.5 383.667,349.5 384,345.5C 388.18,343.987 391.013,341.154 392.5,337C 390.044,335.024 389.877,332.857 392,330.5C 393.981,328.343 396.314,326.676 399,325.5C 399.333,321.5 399.667,317.5 400,313.5C 404.18,311.987 407.013,309.154 408.5,305C 406.036,301.518 406.702,298.518 410.5,296C 412.081,295.293 413.581,294.46 415,293.5C 415.333,289.5 415.667,285.5 416,281.5C 420.864,279.809 423.697,276.476 424.5,271.5C 426.833,271.5 429.167,271.5 431.5,271.5C 431.662,269.473 431.495,267.473 431,265.5C 426.136,263.809 423.303,260.476 422.5,255.5C 425.5,255.5 428.5,255.5 431.5,255.5C 431.5,251.5 431.5,247.5 431.5,243.5C 426.167,243.5 420.833,243.5 415.5,243.5C 415.5,239.5 415.5,235.5 415.5,231.5C 410.125,231.828 404.792,231.495 399.5,230.5C 397.146,228.754 396.146,226.421 396.5,223.5C 397.552,223.649 398.552,223.483 399.5,223C 397.899,222.727 396.399,222.227 395,221.5C 394.697,219.112 393.863,216.945 392.5,215C 388.469,214.519 384.469,213.853 380.5,213C 381.667,212.5 382.5,211.667 383,210.5C 384.099,213.044 385.265,213.044 386.5,210.5C 384.014,209.18 382.014,207.347 380.5,205C 379.552,204.517 378.552,204.351 377.5,204.5C 377.307,201.692 376.64,199.025 375.5,196.5C 372.881,196.768 370.381,196.435 368,195.5C 366.991,197.025 366.491,198.692 366.5,200.5C 365.448,200.649 364.448,200.483 363.5,200C 363.833,199.667 364.167,199.333 364.5,199C 362.408,198.047 362.075,196.714 363.5,195C 362.541,193.293 361.875,191.459 361.5,189.5C 361.453,188 362.119,187 363.5,186.5C 364.088,188.911 365.255,190.911 367,192.5C 367.499,188.179 367.666,183.846 367.5,179.5C 370.488,179.845 371.821,178.512 371.5,175.5C 368.635,167.437 364.968,159.77 360.5,152.5C 360.938,151.494 361.604,151.494 362.5,152.5C 363.583,151.635 363.749,150.635 363,149.5C 362,148.167 361,148.167 360,149.5C 359.286,146.405 358.286,143.405 357,140.5C 354.667,139.5 353,137.833 352,135.5C 351.667,136.833 351.333,138.167 351,139.5C 350.667,139.167 350.333,138.833 350,138.5C 349.368,134.638 349.868,131.305 351.5,128.5C 350.037,128.368 348.537,128.035 347,127.5C 345.989,127.892 345.489,128.559 345.5,129.5C 344.476,128.147 343.143,127.48 341.5,127.5C 339.401,124.897 337.068,122.397 334.5,120C 335.833,118.667 335.833,117.333 334.5,116C 333.668,115.312 333.002,115.479 332.5,116.5C 333.428,117.768 333.595,119.101 333,120.5C 327.318,113.473 324.151,105.473 323.5,96.5C 320.91,94.6169 318.577,92.4502 316.5,90C 313.271,79.5015 306.271,71.8348 295.5,67C 292.173,66.3897 288.839,65.8897 285.5,65.5C 277.572,64.0696 269.572,63.4029 261.5,63.5C 247.006,62.3391 232.339,62.1724 217.5,63C 210.368,64.0342 203.368,65.5342 196.5,67.5C 188.894,67.6374 182.394,70.3041 177,75.5C 175.731,74.0953 175.231,72.4286 175.5,70.5C 178.588,70.8034 180.254,69.4701 180.5,66.5C 178.833,66.5 177.167,66.5 175.5,66.5C 175.5,65.5 175.5,64.5 175.5,63.5C 170.167,63.5 164.833,63.5 159.5,63.5C 159.662,65.5273 159.495,67.5273 159,69.5C 154.136,71.1907 151.303,74.524 150.5,79.5C 145.833,79.5 141.167,79.5 136.5,79.5C 135.697,84.476 132.864,87.8093 128,89.5C 127.667,93.5 127.333,97.5 127,101.5C 122.136,103.191 119.303,106.524 118.5,111.5C 117.5,111.5 116.5,111.5 115.5,111.5C 115.338,113.527 115.505,115.527 116,117.5C 118.333,118.833 120.667,120.167 123,121.5C 123.495,123.473 123.662,125.473 123.5,127.5C 125.355,127.272 126.188,127.939 126,129.5C 121.333,134.167 116.667,138.833 112,143.5C 111.667,146.833 111.333,150.167 111,153.5C 108.421,154.369 106.588,156.035 105.5,158.5C 103.604,159.466 101.604,159.799 99.5,159.5C 99.5,164.833 99.5,170.167 99.5,175.5C 101.483,175.157 102.817,175.824 103.5,177.5C 101.461,178.911 100.461,180.911 100.5,183.5C 99.5,183.5 98.5,183.5 97.5,183.5C 97.6882,185.103 97.1882,186.437 96,187.5C 95.6667,185.167 95.3333,182.833 95,180.5C 93.6814,182.25 93.1814,184.25 93.5,186.5C 91.5328,186.739 89.6995,186.406 88,185.5C 87.3942,188.076 87.8942,190.41 89.5,192.5C 88.1667,194.5 86.8333,196.5 85.5,198.5C 86.3473,200.061 86.0139,201.561 84.5,203C 82.6239,204.375 80.6239,205.542 78.5,206.5C 79,207.5 79.5,208.5 80,209.5C 81.5843,208.139 83.4176,207.472 85.5,207.5C 85.8541,210.421 84.8541,212.754 82.5,214.5C 83.877,217.577 83.7104,220.577 82,223.5C 81.0853,222.672 80.4186,221.672 80,220.5C 79.8333,221 79.6667,221.5 79.5,222C 80.5359,225.121 80.7026,228.287 80,231.5C 77.5541,233.142 75.7207,235.308 74.5,238C 75.0223,238.95 75.689,239.784 76.5,240.5C 75.5,242.5 74.5,244.5 73.5,246.5C 74.6085,248.214 73.9418,248.881 71.5,248.5C 72.0187,256.387 71.3521,264.053 69.5,271.5C 67.5,271.5 65.5,271.5 63.5,271.5C 63.3379,273.527 63.5045,275.527 64,277.5C 66.3333,279.167 68.6667,280.833 71,282.5C 72.0086,284.025 72.5086,285.692 72.5,287.5C 77.5445,288.31 82.5445,289.31 87.5,290.5C 87.5,289.5 87.5,288.5 87.5,287.5C 90.1667,287.5 92.8333,287.5 95.5,287.5C 96.5085,291.432 96.3418,295.432 95,299.5C 94.0766,298.241 93.2432,296.908 92.5,295.5C 92.1667,296.167 91.8333,296.833 91.5,297.5C 92.5227,299.003 93.5227,300.503 94.5,302C 92.8555,303.032 92.5221,304.199 93.5,305.5C 91.9775,307.283 89.9775,307.949 87.5,307.5C 87.5,308.5 87.5,309.5 87.5,310.5C 90.3855,309.754 93.3855,309.92 96.5,311C 97.0219,311.561 97.3552,312.228 97.5,313C 95.9056,316.636 95.0722,320.469 95,324.5C 92.8083,325.399 90.6416,326.399 88.5,327.5C 87.8081,330.145 86.8081,332.645 85.5,335C 86.7659,335.309 87.9326,335.809 89,336.5C 89.3763,339.01 90.2096,341.343 91.5,343.5C 92.6586,347.122 92.8253,350.789 92,354.5C 90.8231,356.176 89.3231,357.509 87.5,358.5C 88.6888,359.429 90.0222,359.762 91.5,359.5C 91.382,363.695 92.2154,367.695 94,371.5C 97.6777,371.82 98.3444,373.82 96,377.5C 95.6667,376.833 95.3333,376.167 95,375.5C 94.5026,378.146 94.3359,380.813 94.5,383.5C 100.167,383.5 105.833,383.5 111.5,383.5C 112.655,378.824 114.155,374.158 116,369.5C 116.499,363.509 116.666,357.509 116.5,351.5C 118.5,351.5 120.5,351.5 122.5,351.5C 122.666,356.511 122.499,361.511 122,366.5C 121.308,367.025 120.808,367.692 120.5,368.5C 121.823,372.923 122.823,377.423 123.5,382C 122.875,388.838 122.875,396.005 123.5,403.5C 123.054,410.189 122.387,416.856 121.5,423.5C 121.908,428.876 122.242,434.042 122.5,439C 119.975,441.746 119.975,444.58 122.5,447.5C 123.172,444.103 124.005,440.77 125,437.5C 125.18,440.956 125.847,444.289 127,447.5C 127.761,410.283 128.595,372.95 129.5,335.5C 129.833,335.5 130.167,335.5 130.5,335.5C 130.5,394.167 130.5,452.833 130.5,511.5C 86.8333,511.5 43.1667,511.5 -0.5,511.5C -0.5,340.833 -0.5,170.167 -0.5,-0.5 Z"/></g>
<g><path style="opacity:1" fill="#648593" d="M 196.5,67.5 C 192.925,69.2874 189.259,71.1207 185.5,73C 184.619,73.7083 183.953,74.5416 183.5,75.5C 177.465,78.2011 173.132,82.5345 170.5,88.5C 169.417,88.5394 168.417,88.8728 167.5,89.5C 165.235,95.1273 163.069,100.794 161,106.5C 158.217,108.89 156.551,108.557 156,105.5C 154.273,107.903 154.106,110.403 155.5,113C 153.303,115.911 151.47,119.078 150,122.5C 149.506,124.134 149.34,125.801 149.5,127.5C 148.127,127.343 146.793,127.51 145.5,128C 148,128.833 148.167,130 146,131.5C 145.581,130.328 144.915,129.328 144,128.5C 142.413,133.619 140.579,138.619 138.5,143.5C 137.307,143.03 136.64,142.03 136.5,140.5C 137.268,137.846 137.434,135.179 137,132.5C 136.092,134.439 134.592,135.439 132.5,135.5C 131.833,138.167 131.167,140.833 130.5,143.5C 129.5,143.5 128.5,143.5 127.5,143.5C 128.072,148.246 126.072,150.913 121.5,151.5C 118.992,155.86 116.992,160.527 115.5,165.5C 114.281,164.737 113.281,163.737 112.5,162.5C 111.376,163.914 110.376,165.414 109.5,167C 108.552,167.483 107.552,167.649 106.5,167.5C 106.89,171.394 106.223,175.06 104.5,178.5C 103.893,178.376 103.56,178.043 103.5,177.5C 102.817,175.824 101.483,175.157 99.5,175.5C 99.5,170.167 99.5,164.833 99.5,159.5C 101.604,159.799 103.604,159.466 105.5,158.5C 106.588,156.035 108.421,154.369 111,153.5C 111.333,150.167 111.667,146.833 112,143.5C 116.667,138.833 121.333,134.167 126,129.5C 126.188,127.939 125.355,127.272 123.5,127.5C 123.662,125.473 123.495,123.473 123,121.5C 120.667,120.167 118.333,118.833 116,117.5C 115.505,115.527 115.338,113.527 115.5,111.5C 116.5,111.5 117.5,111.5 118.5,111.5C 119.303,106.524 122.136,103.191 127,101.5C 127.333,97.5 127.667,93.5 128,89.5C 132.864,87.8093 135.697,84.476 136.5,79.5C 141.167,79.5 145.833,79.5 150.5,79.5C 151.303,74.524 154.136,71.1907 159,69.5C 159.495,67.5273 159.662,65.5273 159.5,63.5C 164.833,63.5 170.167,63.5 175.5,63.5C 175.5,64.5 175.5,65.5 175.5,66.5C 177.167,66.5 178.833,66.5 180.5,66.5C 180.254,69.4701 178.588,70.8034 175.5,70.5C 175.231,72.4286 175.731,74.0953 177,75.5C 182.394,70.3041 188.894,67.6374 196.5,67.5 Z"/></g>
<g><path style="opacity:1" fill="#1e2625" d="M 261.5,63.5 C 269.572,63.4029 277.572,64.0696 285.5,65.5C 298.92,69.0765 308.587,77.2431 314.5,90C 314.43,90.7648 314.097,91.2648 313.5,91.5C 310.859,89.1956 308.192,86.8623 305.5,84.5C 305.657,83.1266 305.49,81.7932 305,80.5C 301.423,77.7333 298.257,74.7333 295.5,71.5C 285.494,67.8322 275.161,65.8322 264.5,65.5C 254.167,65.5 243.833,65.5 233.5,65.5C 232.527,65.0133 231.527,64.5133 230.5,64C 240.828,63.5002 251.161,63.3335 261.5,63.5 Z"/></g>
<g><path style="opacity:1" fill="#333f3e" d="M 261.5,63.5 C 251.161,63.3335 240.828,63.5002 230.5,64C 231.527,64.5133 232.527,65.0133 233.5,65.5C 229.947,66.9552 226.447,66.6219 223,64.5C 222.25,65.1258 221.416,65.6258 220.5,66C 221.737,66.2321 222.737,66.7321 223.5,67.5C 221.332,68.6303 218.998,68.6303 216.5,67.5C 210.541,70.1807 204.374,70.8473 198,69.5C 195.435,70.4704 193.268,71.8037 191.5,73.5C 188.808,74.0087 186.308,75.0087 184,76.5C 183.601,76.2716 183.435,75.9382 183.5,75.5C 183.953,74.5416 184.619,73.7083 185.5,73C 189.259,71.1207 192.925,69.2874 196.5,67.5C 203.368,65.5342 210.368,64.0342 217.5,63C 232.339,62.1724 247.006,62.3391 261.5,63.5 Z"/></g>
<g><path style="opacity:1" fill="#27392e" d="M 233.5,65.5 C 243.833,65.5 254.167,65.5 264.5,65.5C 264.5,66.1667 264.5,66.8333 264.5,67.5C 258.824,67.3339 253.157,67.5006 247.5,68C 246.944,68.3826 246.611,68.8826 246.5,69.5C 238.631,70.0196 230.964,69.3529 223.5,67.5C 222.737,66.7321 221.737,66.2321 220.5,66C 221.416,65.6258 222.25,65.1258 223,64.5C 226.447,66.6219 229.947,66.9552 233.5,65.5 Z"/></g>
<g><path style="opacity:1" fill="#465347" d="M 264.5,65.5 C 275.161,65.8322 285.494,67.8322 295.5,71.5C 295.631,72.3764 295.298,73.0431 294.5,73.5C 284.787,70.0906 274.787,68.0906 264.5,67.5C 264.5,66.8333 264.5,66.1667 264.5,65.5 Z"/></g>
<g><path style="opacity:1" fill="#3c4f44" d="M 223.5,67.5 C 230.964,69.3529 238.631,70.0196 246.5,69.5C 251.032,69.1818 255.366,69.5151 259.5,70.5C 246.099,70.1213 232.765,70.7879 219.5,72.5C 209.909,72.8692 200.576,74.5359 191.5,77.5C 191.5,76.1667 191.5,74.8333 191.5,73.5C 193.268,71.8037 195.435,70.4704 198,69.5C 204.374,70.8473 210.541,70.1807 216.5,67.5C 218.998,68.6303 221.332,68.6303 223.5,67.5 Z"/></g>
<g><path style="opacity:1" fill="#e4dccc" d="M 291.5,76.5 C 296.465,78.649 301.132,81.3157 305.5,84.5C 308.192,86.8623 310.859,89.1956 313.5,91.5C 328.985,116.134 342.151,142.134 353,169.5C 354.741,174.054 356.074,178.721 357,183.5C 357.194,192.548 357.694,201.548 358.5,210.5C 357.311,211.429 355.978,211.762 354.5,211.5C 349.136,211.013 343.803,209.847 338.5,208C 339.966,207.365 341.3,206.531 342.5,205.5C 345.431,200.457 346.431,195.124 345.5,189.5C 347.613,184.547 347.279,179.714 344.5,175C 344.5,173 344.5,171 344.5,169C 347.288,166.626 346.954,165.293 343.5,165C 342.128,163.758 341.128,162.258 340.5,160.5C 337.481,159.453 337.148,157.453 339.5,154.5C 342.112,154.985 342.112,154.151 339.5,152C 340.654,151.086 340.487,150.253 339,149.5C 338.781,150.938 338.281,152.271 337.5,153.5C 336.914,153.291 336.414,152.957 336,152.5C 333.118,145.419 330.285,138.419 327.5,131.5C 326.167,131.5 324.833,131.5 323.5,131.5C 323.33,130.178 323.663,129.011 324.5,128C 323.5,127.667 322.5,127.333 321.5,127C 322.258,125.636 321.758,124.469 320,123.5C 319.667,123.833 319.333,124.167 319,124.5C 316.597,122.695 314.93,120.362 314,117.5C 310.887,116.29 308.387,114.29 306.5,111.5C 305.828,108.103 304.995,104.77 304,101.5C 303.505,103.473 303.338,105.473 303.5,107.5C 298.167,107.5 292.833,107.5 287.5,107.5C 287.5,108.833 287.5,110.167 287.5,111.5C 284.654,111.03 282.321,111.863 280.5,114C 271.952,116.585 263.618,119.585 255.5,123C 238.829,126.121 221.829,128.454 204.5,130C 200.588,131.204 197.088,133.038 194,135.5C 192.624,135.316 191.791,134.649 191.5,133.5C 191.5,131.5 191.5,129.5 191.5,127.5C 194.167,127.5 196.833,127.5 199.5,127.5C 199.172,122.125 199.505,116.792 200.5,111.5C 201.864,108.637 204.03,106.637 207,105.5C 207.499,101.179 207.666,96.8461 207.5,92.5C 212.833,92.5 218.167,92.5 223.5,92.5C 223.5,91.5 223.5,90.5 223.5,89.5C 228.833,89.5 234.167,89.5 239.5,89.5C 239.5,85.5 239.5,81.5 239.5,77.5C 236.333,77.4001 233.333,78.0668 230.5,79.5C 229.692,79.1924 229.025,78.6924 228.5,78C 241.087,73.9952 254.087,72.6619 267.5,74C 269.663,74.2453 271.33,75.2453 272.5,77C 275.095,77.2256 277.595,77.7256 280,78.5C 281.009,77.3418 282.342,76.6752 284,76.5C 286.58,77.4109 289.08,77.4109 291.5,76.5 Z"/></g>
<g><path style="opacity:1" fill="#21291a" d="M 264.5,67.5 C 274.787,68.0906 284.787,70.0906 294.5,73.5C 295.298,73.0431 295.631,72.3764 295.5,71.5C 298.257,74.7333 301.423,77.7333 305,80.5C 305.49,81.7932 305.657,83.1266 305.5,84.5C 301.132,81.3157 296.465,78.649 291.5,76.5C 287.576,74.1351 283.243,72.6351 278.5,72C 272.133,71.7065 265.8,71.2065 259.5,70.5C 255.366,69.5151 251.032,69.1818 246.5,69.5C 246.611,68.8826 246.944,68.3826 247.5,68C 253.157,67.5006 258.824,67.3339 264.5,67.5 Z"/></g>
<g><path style="opacity:1" fill="#e3dccf" d="M 259.5,70.5 C 265.8,71.2065 272.133,71.7065 278.5,72C 283.243,72.6351 287.576,74.1351 291.5,76.5C 289.08,77.4109 286.58,77.4109 284,76.5C 282.342,76.6752 281.009,77.3418 280,78.5C 277.595,77.7256 275.095,77.2256 272.5,77C 271.33,75.2453 269.663,74.2453 267.5,74C 254.087,72.6619 241.087,73.9952 228.5,78C 229.025,78.6924 229.692,79.1924 230.5,79.5C 233.333,78.0668 236.333,77.4001 239.5,77.5C 239.5,81.5 239.5,85.5 239.5,89.5C 234.167,89.5 228.833,89.5 223.5,89.5C 223.5,90.5 223.5,91.5 223.5,92.5C 218.167,92.5 212.833,92.5 207.5,92.5C 207.666,96.8461 207.499,101.179 207,105.5C 204.03,106.637 201.864,108.637 200.5,111.5C 199.505,116.792 199.172,122.125 199.5,127.5C 196.833,127.5 194.167,127.5 191.5,127.5C 191.5,129.5 191.5,131.5 191.5,133.5C 181.482,131.792 172.982,134.459 166,141.5C 165.477,145.142 164.31,148.476 162.5,151.5C 161.5,151.5 160.5,151.5 159.5,151.5C 158.993,139.518 158.16,139.518 157,151.5C 156.667,150.833 156.333,150.167 156,149.5C 155.691,150.766 155.191,151.933 154.5,153C 155.337,154.011 155.67,155.178 155.5,156.5C 154.167,156.5 152.833,156.5 151.5,156.5C 151.421,157.93 151.754,159.264 152.5,160.5C 150.204,165.419 148.204,170.419 146.5,175.5C 147.675,175.281 148.675,175.614 149.5,176.5C 148.412,178.965 146.579,180.631 144,181.5C 144.046,184.8 144.212,188.134 144.5,191.5C 148.099,191.262 148.433,192.262 145.5,194.5C 146.093,196.382 146.76,198.215 147.5,200C 145.5,201.667 143.5,203.333 141.5,205C 141.957,205.414 142.291,205.914 142.5,206.5C 153.618,207.832 164.618,208.832 175.5,209.5C 162.16,209.389 148.827,209.055 135.5,208.5C 134.167,208.5 132.833,208.5 131.5,208.5C 135.639,199.016 137.639,189.016 137.5,178.5C 140.94,166.008 144.274,153.342 147.5,140.5C 152.055,125.507 158.721,111.507 167.5,98.5C 173.719,92.7838 180.386,87.6171 187.5,83C 197.933,78.6076 208.6,75.1076 219.5,72.5C 232.765,70.7879 246.099,70.1213 259.5,70.5 Z"/></g>
<g><path style="opacity:1" fill="#40574d" d="M 219.5,72.5 C 208.6,75.1076 197.933,78.6076 187.5,83C 180.386,87.6171 173.719,92.7838 167.5,98.5C 166.624,98.6309 165.957,98.2975 165.5,97.5C 166.982,94.3777 168.649,91.3777 170.5,88.5C 173.132,82.5345 177.465,78.2011 183.5,75.5C 183.435,75.9382 183.601,76.2716 184,76.5C 186.308,75.0087 188.808,74.0087 191.5,73.5C 191.5,74.8333 191.5,76.1667 191.5,77.5C 200.576,74.5359 209.909,72.8692 219.5,72.5 Z"/></g>
<g><path style="opacity:1" fill="#e2d7c9" d="M 354.5,211.5 C 349.637,211.181 344.97,211.514 340.5,212.5C 320.193,214.562 299.859,214.895 279.5,213.5C 271.56,212.176 263.56,211.509 255.5,211.5C 234.176,210.722 212.843,210.389 191.5,210.5C 186.36,209.512 181.026,209.179 175.5,209.5C 164.618,208.832 153.618,207.832 142.5,206.5C 142.291,205.914 141.957,205.414 141.5,205C 143.5,203.333 145.5,201.667 147.5,200C 146.76,198.215 146.093,196.382 145.5,194.5C 148.433,192.262 148.099,191.262 144.5,191.5C 144.212,188.134 144.046,184.8 144,181.5C 146.579,180.631 148.412,178.965 149.5,176.5C 148.675,175.614 147.675,175.281 146.5,175.5C 148.204,170.419 150.204,165.419 152.5,160.5C 151.754,159.264 151.421,157.93 151.5,156.5C 152.833,156.5 154.167,156.5 155.5,156.5C 155.67,155.178 155.337,154.011 154.5,153C 155.191,151.933 155.691,150.766 156,149.5C 156.333,150.167 156.667,150.833 157,151.5C 158.16,139.518 158.993,139.518 159.5,151.5C 160.5,151.5 161.5,151.5 162.5,151.5C 164.31,148.476 165.477,145.142 166,141.5C 172.982,134.459 181.482,131.792 191.5,133.5C 191.791,134.649 192.624,135.316 194,135.5C 197.088,133.038 200.588,131.204 204.5,130C 221.829,128.454 238.829,126.121 255.5,123C 263.618,119.585 271.952,116.585 280.5,114C 282.321,111.863 284.654,111.03 287.5,111.5C 287.5,110.167 287.5,108.833 287.5,107.5C 292.833,107.5 298.167,107.5 303.5,107.5C 303.338,105.473 303.505,103.473 304,101.5C 304.995,104.77 305.828,108.103 306.5,111.5C 308.387,114.29 310.887,116.29 314,117.5C 314.93,120.362 316.597,122.695 319,124.5C 319.333,124.167 319.667,123.833 320,123.5C 321.758,124.469 322.258,125.636 321.5,127C 322.5,127.333 323.5,127.667 324.5,128C 323.663,129.011 323.33,130.178 323.5,131.5C 324.833,131.5 326.167,131.5 327.5,131.5C 330.285,138.419 333.118,145.419 336,152.5C 336.414,152.957 336.914,153.291 337.5,153.5C 338.281,152.271 338.781,150.938 339,149.5C 340.487,150.253 340.654,151.086 339.5,152C 342.112,154.151 342.112,154.985 339.5,154.5C 337.148,157.453 337.481,159.453 340.5,160.5C 341.128,162.258 342.128,163.758 343.5,165C 346.954,165.293 347.288,166.626 344.5,169C 344.5,171 344.5,173 344.5,175C 347.279,179.714 347.613,184.547 345.5,189.5C 346.431,195.124 345.431,200.457 342.5,205.5C 341.3,206.531 339.966,207.365 338.5,208C 343.803,209.847 349.136,211.013 354.5,211.5 Z"/></g>
<g><path style="opacity:1" fill="#e1d5c5" d="M 275.5,132.5 C 282.68,133.063 289.846,133.73 297,134.5C 299.4,133.956 301.733,133.289 304,132.5C 310.531,138.362 317.531,143.695 325,148.5C 325.414,148.043 325.914,147.709 326.5,147.5C 331.165,156.166 332.831,165.499 331.5,175.5C 332.833,175.5 334.167,175.5 335.5,175.5C 335.666,184.839 335.5,194.173 335,203.5C 334.077,204.759 333.243,206.092 332.5,207.5C 327.495,209.121 322.328,210.121 317,210.5C 312.735,209.999 308.235,209.665 303.5,209.5C 303.5,210.5 303.5,211.5 303.5,212.5C 290.355,211.883 290.355,210.383 303.5,208C 296.253,207.188 289.086,207.354 282,208.5C 279.848,207.115 277.515,206.115 275,205.5C 271.7,207.211 268.2,208.211 264.5,208.5C 244.633,208.089 224.8,208.089 205,208.5C 201.486,207.942 197.986,207.276 194.5,206.5C 196.113,205.573 197.779,204.739 199.5,204C 193.167,203.667 186.833,203.333 180.5,203C 182.767,202.724 185.1,202.057 187.5,201C 187.833,200.667 188.167,200.333 188.5,200C 187.552,199.517 186.552,199.351 185.5,199.5C 185.719,198.325 185.386,197.325 184.5,196.5C 181.573,195.199 178.573,194.199 175.5,193.5C 175.892,190.052 175.225,186.886 173.5,184C 175.146,181.405 175.813,178.572 175.5,175.5C 177.833,175.5 180.167,175.5 182.5,175.5C 183.303,170.524 186.136,167.191 191,165.5C 191.495,163.527 191.662,161.527 191.5,159.5C 193.833,159.5 196.167,159.5 198.5,159.5C 198.291,157.286 199.124,155.619 201,154.5C 202.872,153.932 204.705,153.265 206.5,152.5C 207.086,152.709 207.586,153.043 208,153.5C 217.116,149.016 226.616,145.516 236.5,143C 237.167,141.667 238.167,140.667 239.5,140C 244.907,140.226 249.741,138.726 254,135.5C 255,136.167 256,136.833 257,137.5C 260.98,136.244 264.98,134.911 269,133.5C 271.511,134.932 273.677,134.598 275.5,132.5 Z"/></g>
<g><path style="opacity:1" fill="#71858e" d="M 285.5,65.5 C 288.839,65.8897 292.173,66.3897 295.5,67C 306.271,71.8348 313.271,79.5015 316.5,90C 318.577,92.4502 320.91,94.6169 323.5,96.5C 324.151,105.473 327.318,113.473 333,120.5C 333.595,119.101 333.428,117.768 332.5,116.5C 333.002,115.479 333.668,115.312 334.5,116C 335.833,117.333 335.833,118.667 334.5,120C 337.068,122.397 339.401,124.897 341.5,127.5C 341.145,130.336 341.812,133.169 343.5,136C 343.167,136.333 342.833,136.667 342.5,137C 344.552,137.93 346.052,139.43 347,141.5C 348.359,145.623 349.359,149.956 350,154.5C 350.898,156.626 352.065,158.626 353.5,160.5C 353.167,161.167 352.833,161.833 352.5,162.5C 354.159,163.817 355.326,165.483 356,167.5C 357.096,175.633 358.43,183.633 360,191.5C 361.135,196.902 362.635,202.069 364.5,207C 363.833,207.333 363.167,207.667 362.5,208C 363.851,209.617 365.518,210.784 367.5,211.5C 365.604,212.466 363.604,212.799 361.5,212.5C 359.167,212.5 356.833,212.5 354.5,212.5C 349.833,212.5 345.167,212.5 340.5,212.5C 344.97,211.514 349.637,211.181 354.5,211.5C 355.978,211.762 357.311,211.429 358.5,210.5C 357.694,201.548 357.194,192.548 357,183.5C 356.074,178.721 354.741,174.054 353,169.5C 342.151,142.134 328.985,116.134 313.5,91.5C 314.097,91.2648 314.43,90.7648 314.5,90C 308.587,77.2431 298.92,69.0765 285.5,65.5 Z"/></g>
<g><path style="opacity:1" fill="#628393" d="M 138.5,143.5 C 139.494,147.068 138.661,150.401 136,153.5C 135.676,151.431 134.842,151.098 133.5,152.5C 131.158,157.898 129.991,163.564 130,169.5C 129.586,169.043 129.086,168.709 128.5,168.5C 127.526,170.743 127.192,173.076 127.5,175.5C 126.5,175.5 125.5,175.5 124.5,175.5C 124.64,177.124 123.973,178.29 122.5,179C 122.833,179.333 123.167,179.667 123.5,180C 122.707,181.085 122.04,182.252 121.5,183.5C 122.166,184.831 122.166,186.331 121.5,188C 121.167,188.833 120.833,189.667 120.5,190.5C 119.604,189.494 118.938,189.494 118.5,190.5C 119.04,191.748 119.707,192.915 120.5,194C 120.167,194.333 119.833,194.667 119.5,195C 120.56,198.792 121.56,202.626 122.5,206.5C 115.992,208.462 112.992,212.628 113.5,219C 111.114,222.511 111.281,225.678 114,228.5C 114.492,227.451 114.326,226.451 113.5,225.5C 113.808,224.692 114.308,224.025 115,223.5C 118.331,229.382 119.331,235.715 118,242.5C 115.714,248.024 113.048,253.357 110,258.5C 108.933,262.535 107.766,266.535 106.5,270.5C 106.709,271.086 107.043,271.586 107.5,272C 106.94,275.123 105.94,278.123 104.5,281C 106.169,285.06 107.002,289.226 107,293.5C 106.667,293.833 106.333,294.167 106,294.5C 105.361,291.888 104.194,289.554 102.5,287.5C 101.948,296.392 101.615,305.226 101.5,314C 102.328,314.915 103.328,315.581 104.5,316C 103.62,317.356 103.286,318.856 103.5,320.5C 106.222,322.598 109.889,324.265 114.5,325.5C 115.688,324.16 117.188,323.493 119,323.5C 121.822,324.275 124.656,324.942 127.5,325.5C 127.896,328.044 127.229,330.211 125.5,332C 126.532,333.627 127.866,334.793 129.5,335.5C 128.595,372.95 127.761,410.283 127,447.5C 125.847,444.289 125.18,440.956 125,437.5C 124.005,440.77 123.172,444.103 122.5,447.5C 119.975,444.58 119.975,441.746 122.5,439C 122.242,434.042 121.908,428.876 121.5,423.5C 122.387,416.856 123.054,410.189 123.5,403.5C 122.875,396.005 122.875,388.838 123.5,382C 122.823,377.423 121.823,372.923 120.5,368.5C 120.808,367.692 121.308,367.025 122,366.5C 122.499,361.511 122.666,356.511 122.5,351.5C 120.5,351.5 118.5,351.5 116.5,351.5C 116.666,357.509 116.499,363.509 116,369.5C 114.155,374.158 112.655,378.824 111.5,383.5C 105.833,383.5 100.167,383.5 94.5,383.5C 94.3359,380.813 94.5026,378.146 95,375.5C 95.3333,376.167 95.6667,376.833 96,377.5C 98.3444,373.82 97.6777,371.82 94,371.5C 92.2154,367.695 91.382,363.695 91.5,359.5C 90.0222,359.762 88.6888,359.429 87.5,358.5C 89.3231,357.509 90.8231,356.176 92,354.5C 92.8253,350.789 92.6586,347.122 91.5,343.5C 90.2096,341.343 89.3763,339.01 89,336.5C 87.9326,335.809 86.7659,335.309 85.5,335C 86.8081,332.645 87.8081,330.145 88.5,327.5C 90.6416,326.399 92.8083,325.399 95,324.5C 95.0722,320.469 95.9056,316.636 97.5,313C 97.3552,312.228 97.0219,311.561 96.5,311C 93.3855,309.92 90.3855,309.754 87.5,310.5C 87.5,309.5 87.5,308.5 87.5,307.5C 89.9775,307.949 91.9775,307.283 93.5,305.5C 92.5221,304.199 92.8555,303.032 94.5,302C 93.5227,300.503 92.5227,299.003 91.5,297.5C 91.8333,296.833 92.1667,296.167 92.5,295.5C 93.2432,296.908 94.0766,298.241 95,299.5C 96.3418,295.432 96.5085,291.432 95.5,287.5C 92.8333,287.5 90.1667,287.5 87.5,287.5C 87.5,288.5 87.5,289.5 87.5,290.5C 82.5445,289.31 77.5445,288.31 72.5,287.5C 72.5086,285.692 72.0086,284.025 71,282.5C 68.6667,280.833 66.3333,279.167 64,277.5C 63.5045,275.527 63.3379,273.527 63.5,271.5C 65.5,271.5 67.5,271.5 69.5,271.5C 71.3521,264.053 72.0187,256.387 71.5,248.5C 73.9418,248.881 74.6085,248.214 73.5,246.5C 74.5,244.5 75.5,242.5 76.5,240.5C 75.689,239.784 75.0223,238.95 74.5,238C 75.7207,235.308 77.5541,233.142 80,231.5C 80.7026,228.287 80.5359,225.121 79.5,222C 79.6667,221.5 79.8333,221 80,220.5C 80.4186,221.672 81.0853,222.672 82,223.5C 83.7104,220.577 83.877,217.577 82.5,214.5C 84.8541,212.754 85.8541,210.421 85.5,207.5C 83.4176,207.472 81.5843,208.139 80,209.5C 79.5,208.5 79,207.5 78.5,206.5C 80.6239,205.542 82.6239,204.375 84.5,203C 86.0139,201.561 86.3473,200.061 85.5,198.5C 86.8333,196.5 88.1667,194.5 89.5,192.5C 87.8942,190.41 87.3942,188.076 88,185.5C 89.6995,186.406 91.5328,186.739 93.5,186.5C 93.1814,184.25 93.6814,182.25 95,180.5C 95.3333,182.833 95.6667,185.167 96,187.5C 97.1882,186.437 97.6882,185.103 97.5,183.5C 98.5,183.5 99.5,183.5 100.5,183.5C 100.461,180.911 101.461,178.911 103.5,177.5C 103.56,178.043 103.893,178.376 104.5,178.5C 106.223,175.06 106.89,171.394 106.5,167.5C 107.552,167.649 108.552,167.483 109.5,167C 110.376,165.414 111.376,163.914 112.5,162.5C 113.281,163.737 114.281,164.737 115.5,165.5C 116.992,160.527 118.992,155.86 121.5,151.5C 126.072,150.913 128.072,148.246 127.5,143.5C 128.5,143.5 129.5,143.5 130.5,143.5C 131.167,140.833 131.833,138.167 132.5,135.5C 134.592,135.439 136.092,134.439 137,132.5C 137.434,135.179 137.268,137.846 136.5,140.5C 136.64,142.03 137.307,143.03 138.5,143.5 Z"/></g>
<g><path style="opacity:1" fill="#515351" d="M 147.5,140.5 C 144.274,153.342 140.94,166.008 137.5,178.5C 137.663,176.143 137.497,173.81 137,171.5C 136.617,172.056 136.117,172.389 135.5,172.5C 138.497,160.849 142.33,149.516 147,138.5C 147.464,139.094 147.631,139.761 147.5,140.5 Z"/></g>
<g><path style="opacity:1" fill="#67838f" d="M 170.5,88.5 C 168.649,91.3777 166.982,94.3777 165.5,97.5C 165.957,98.2975 166.624,98.6309 167.5,98.5C 158.721,111.507 152.055,125.507 147.5,140.5C 147.631,139.761 147.464,139.094 147,138.5C 142.33,149.516 138.497,160.849 135.5,172.5C 132.892,180.414 130.226,188.414 127.5,196.5C 125.559,200.324 124.225,204.324 123.5,208.5C 120.229,210.932 117.562,213.766 115.5,217C 116.89,222.612 119.223,227.778 122.5,232.5C 121.034,233.347 120.2,234.68 120,236.5C 119.5,244.159 119.334,251.826 119.5,259.5C 118.681,256.695 118.181,253.695 118,250.5C 117.409,255.867 115.742,260.867 113,265.5C 111.821,278.22 110.321,290.887 108.5,303.5C 104.417,317.422 109.751,322.755 124.5,319.5C 125.918,321.308 127.918,321.975 130.5,321.5C 130.5,326.167 130.5,330.833 130.5,335.5C 130.167,335.5 129.833,335.5 129.5,335.5C 127.866,334.793 126.532,333.627 125.5,332C 127.229,330.211 127.896,328.044 127.5,325.5C 124.656,324.942 121.822,324.275 119,323.5C 117.188,323.493 115.688,324.16 114.5,325.5C 109.889,324.265 106.222,322.598 103.5,320.5C 103.286,318.856 103.62,317.356 104.5,316C 103.328,315.581 102.328,314.915 101.5,314C 101.615,305.226 101.948,296.392 102.5,287.5C 104.194,289.554 105.361,291.888 106,294.5C 106.333,294.167 106.667,293.833 107,293.5C 107.002,289.226 106.169,285.06 104.5,281C 105.94,278.123 106.94,275.123 107.5,272C 107.043,271.586 106.709,271.086 106.5,270.5C 107.766,266.535 108.933,262.535 110,258.5C 113.048,253.357 115.714,248.024 118,242.5C 119.331,235.715 118.331,229.382 115,223.5C 114.308,224.025 113.808,224.692 113.5,225.5C 114.326,226.451 114.492,227.451 114,228.5C 111.281,225.678 111.114,222.511 113.5,219C 112.992,212.628 115.992,208.462 122.5,206.5C 121.56,202.626 120.56,198.792 119.5,195C 119.833,194.667 120.167,194.333 120.5,194C 119.707,192.915 119.04,191.748 118.5,190.5C 118.938,189.494 119.604,189.494 120.5,190.5C 120.833,189.667 121.167,188.833 121.5,188C 122.166,186.331 122.166,184.831 121.5,183.5C 122.04,182.252 122.707,181.085 123.5,180C 123.167,179.667 122.833,179.333 122.5,179C 123.973,178.29 124.64,177.124 124.5,175.5C 125.5,175.5 126.5,175.5 127.5,175.5C 127.192,173.076 127.526,170.743 128.5,168.5C 129.086,168.709 129.586,169.043 130,169.5C 129.991,163.564 131.158,157.898 133.5,152.5C 134.842,151.098 135.676,151.431 136,153.5C 138.661,150.401 139.494,147.068 138.5,143.5C 140.579,138.619 142.413,133.619 144,128.5C 144.915,129.328 145.581,130.328 146,131.5C 148.167,130 148,128.833 145.5,128C 146.793,127.51 148.127,127.343 149.5,127.5C 149.34,125.801 149.506,124.134 150,122.5C 151.47,119.078 153.303,115.911 155.5,113C 154.106,110.403 154.273,107.903 156,105.5C 156.551,108.557 158.217,108.89 161,106.5C 163.069,100.794 165.235,95.1273 167.5,89.5C 168.417,88.8728 169.417,88.5394 170.5,88.5 Z"/></g>
<g><path style="opacity:1" fill="#504842" d="M 137.5,178.5 C 137.639,189.016 135.639,199.016 131.5,208.5C 130.624,208.631 129.957,208.298 129.5,207.5C 131.171,205.49 131.838,203.157 131.5,200.5C 133.266,191.234 134.6,181.901 135.5,172.5C 136.117,172.389 136.617,172.056 137,171.5C 137.497,173.81 137.663,176.143 137.5,178.5 Z"/></g>
<g><path style="opacity:1" fill="#383c3b" d="M 135.5,172.5 C 134.6,181.901 133.266,191.234 131.5,200.5C 130.607,198.703 129.274,197.37 127.5,196.5C 130.226,188.414 132.892,180.414 135.5,172.5 Z"/></g>
<g><path style="opacity:1" fill="#252827" d="M 127.5,196.5 C 129.274,197.37 130.607,198.703 131.5,200.5C 131.838,203.157 131.171,205.49 129.5,207.5C 129.957,208.298 130.624,208.631 131.5,208.5C 132.833,208.5 134.167,208.5 135.5,208.5C 135.5,208.833 135.5,209.167 135.5,209.5C 132.977,210.384 130.31,211.218 127.5,212C 124.937,214.526 125.603,216.193 129.5,217C 130.305,218.113 130.972,219.279 131.5,220.5C 131.5,221.167 131.5,221.833 131.5,222.5C 131.798,226.653 129.798,228.653 125.5,228.5C 126.197,226.929 126.53,225.429 126.5,224C 121.563,222.023 119.396,218.523 120,213.5C 121.586,212.624 123.086,211.624 124.5,210.5C 124.137,209.817 123.804,209.15 123.5,208.5C 124.225,204.324 125.559,200.324 127.5,196.5 Z"/></g>
<g><path style="opacity:1" fill="#7f7770" d="M 135.5,209.5 C 135.5,209.167 135.5,208.833 135.5,208.5C 148.827,209.055 162.16,209.389 175.5,209.5C 181.026,209.179 186.36,209.512 191.5,210.5C 172.813,210.753 154.146,210.42 135.5,209.5 Z"/></g>
<g><path style="opacity:1" fill="#120a0a" d="M 135.5,209.5 C 154.146,210.42 172.813,210.753 191.5,210.5C 212.843,210.389 234.176,210.722 255.5,211.5C 258.832,212.082 262.166,212.916 265.5,214C 243.17,213.756 220.837,213.756 198.5,214C 198.167,214.333 197.833,214.667 197.5,215C 202.742,216.811 202.408,217.811 196.5,218C 197.056,218.383 197.389,218.883 197.5,219.5C 195.471,221.107 192.471,221.94 188.5,222C 181.508,222.5 174.508,222.666 167.5,222.5C 161.862,221.78 156.196,221.447 150.5,221.5C 149.115,220.386 147.615,219.386 146,218.5C 145.667,219.167 145.333,219.833 145,220.5C 143.883,218.876 142.383,217.876 140.5,217.5C 137.524,218.658 134.524,219.658 131.5,220.5C 130.972,219.279 130.305,218.113 129.5,217C 125.603,216.193 124.937,214.526 127.5,212C 130.31,211.218 132.977,210.384 135.5,209.5 Z"/></g>
<g><path style="opacity:1" fill="#171013" d="M 255.5,211.5 C 263.56,211.509 271.56,212.176 279.5,213.5C 279.414,214.496 279.748,215.329 280.5,216C 286.658,216.214 292.658,217.214 298.5,219C 296.956,219.29 295.623,219.956 294.5,221C 301.514,220.669 308.514,219.836 315.5,218.5C 319.899,218.528 320.232,219.028 316.5,220C 319.713,220.703 322.879,220.536 326,219.5C 328.058,220.112 329.891,221.112 331.5,222.5C 332.293,222.069 333.127,221.735 334,221.5C 339.507,223.029 345.007,224.029 350.5,224.5C 335.041,223.375 320.041,225.041 305.5,229.5C 299.638,230.991 293.638,231.824 287.5,232C 286.186,234.605 286.186,237.105 287.5,239.5C 287.194,242.385 287.527,245.052 288.5,247.5C 290.344,255.381 293.344,262.714 297.5,269.5C 298.917,275.088 300.917,280.422 303.5,285.5C 303.953,286.458 304.619,287.292 305.5,288C 316.674,288.826 327.674,288.659 338.5,287.5C 342.913,287.313 347.246,286.646 351.5,285.5C 354.221,285.037 356.888,284.371 359.5,283.5C 360.552,283.351 361.552,283.517 362.5,284C 360.624,284.918 359.624,286.418 359.5,288.5C 359.5,288.833 359.5,289.167 359.5,289.5C 357.901,289.232 356.568,289.566 355.5,290.5C 349.975,291.141 344.642,292.141 339.5,293.5C 325.501,294.807 311.501,294.807 297.5,293.5C 296.739,289.216 295.405,285.216 293.5,281.5C 291.582,271.91 288.748,262.576 285,253.5C 281.863,248.892 279.53,243.892 278,238.5C 275.982,237.777 274.148,236.777 272.5,235.5C 269.796,232.697 266.463,231.863 262.5,233C 261.177,233.816 260.511,234.983 260.5,236.5C 261.314,245.047 259.647,253.047 255.5,260.5C 254.883,260.389 254.383,260.056 254,259.5C 252.43,260.614 251.097,261.947 250,263.5C 249.333,260.833 248.667,260.833 248,263.5C 247.586,263.043 247.086,262.709 246.5,262.5C 243.581,268.887 240.581,275.721 237.5,283C 236.644,284.595 235.311,285.428 233.5,285.5C 238.544,276.2 242.71,266.533 246,256.5C 247.967,247.988 245.8,240.988 239.5,235.5C 238.791,234.596 237.791,234.263 236.5,234.5C 232.353,233.675 228.019,233.175 223.5,233C 225.037,231.89 225.703,230.39 225.5,228.5C 222.459,228.594 220.793,227.094 220.5,224C 216.167,223.667 211.833,223.333 207.5,223C 204.759,220.239 201.426,219.072 197.5,219.5C 197.389,218.883 197.056,218.383 196.5,218C 202.408,217.811 202.742,216.811 197.5,215C 197.833,214.667 198.167,214.333 198.5,214C 220.837,213.756 243.17,213.756 265.5,214C 262.166,212.916 258.832,212.082 255.5,211.5 Z"/></g>
<g><path style="opacity:1" fill="#0f0b0c" d="M 340.5,212.5 C 345.167,212.5 349.833,212.5 354.5,212.5C 355.398,214.627 357.064,215.794 359.5,216C 368.167,217 376.833,218 385.5,219C 386.728,220.49 386.728,221.99 385.5,223.5C 383.735,224.461 381.735,224.795 379.5,224.5C 379.5,225.5 379.5,226.5 379.5,227.5C 381.5,227.5 383.5,227.5 385.5,227.5C 385.5,227.833 385.5,228.167 385.5,228.5C 385.5,229.833 385.5,231.167 385.5,232.5C 383.61,232.297 382.11,232.963 381,234.5C 380.072,239.201 379.072,243.868 378,248.5C 378.32,245.54 378.32,242.54 378,239.5C 377.333,238.833 376.667,238.167 376,237.5C 375.761,233.613 374.928,229.946 373.5,226.5C 370.214,225.793 366.881,225.46 363.5,225.5C 362.833,225.5 362.167,225.5 361.5,225.5C 358.375,224.521 355.042,224.187 351.5,224.5C 351.167,224.5 350.833,224.5 350.5,224.5C 345.007,224.029 339.507,223.029 334,221.5C 333.127,221.735 332.293,222.069 331.5,222.5C 329.891,221.112 328.058,220.112 326,219.5C 322.879,220.536 319.713,220.703 316.5,220C 320.232,219.028 319.899,218.528 315.5,218.5C 308.514,219.836 301.514,220.669 294.5,221C 295.623,219.956 296.956,219.29 298.5,219C 292.658,217.214 286.658,216.214 280.5,216C 279.748,215.329 279.414,214.496 279.5,213.5C 299.859,214.895 320.193,214.562 340.5,212.5 Z"/></g>
<g><path style="opacity:1" fill="#1d2a30" d="M 354.5,212.5 C 356.833,212.5 359.167,212.5 361.5,212.5C 370.459,213.752 379.459,215.418 388.5,217.5C 389.464,221.681 389.131,225.681 387.5,229.5C 387.158,228.662 386.492,228.328 385.5,228.5C 385.5,228.167 385.5,227.833 385.5,227.5C 386.586,227.38 387.253,226.713 387.5,225.5C 387.253,224.287 386.586,223.62 385.5,223.5C 386.728,221.99 386.728,220.49 385.5,219C 376.833,218 368.167,217 359.5,216C 357.064,215.794 355.398,214.627 354.5,212.5 Z"/></g>
<g><path style="opacity:1" fill="#344646" d="M 123.5,208.5 C 123.804,209.15 124.137,209.817 124.5,210.5C 123.086,211.624 121.586,212.624 120,213.5C 119.396,218.523 121.563,222.023 126.5,224C 126.53,225.429 126.197,226.929 125.5,228.5C 127.186,231.537 126.186,232.87 122.5,232.5C 119.223,227.778 116.89,222.612 115.5,217C 117.562,213.766 120.229,210.932 123.5,208.5 Z"/></g>
<g><path style="opacity:1" fill="#1f181b" d="M 197.5,219.5 C 201.426,219.072 204.759,220.239 207.5,223C 211.833,223.333 216.167,223.667 220.5,224C 220.793,227.094 222.459,228.594 225.5,228.5C 225.703,230.39 225.037,231.89 223.5,233C 228.019,233.175 232.353,233.675 236.5,234.5C 229.16,234.723 221.827,235.056 214.5,235.5C 208.004,233.206 201.337,231.206 194.5,229.5C 192.585,227.929 191.585,225.929 191.5,223.5C 189.167,223.5 186.833,223.5 184.5,223.5C 182.167,223.5 179.833,223.5 177.5,223.5C 173.958,223.813 170.625,223.479 167.5,222.5C 174.508,222.666 181.508,222.5 188.5,222C 192.471,221.94 195.471,221.107 197.5,219.5 Z"/></g>
<g><path style="opacity:1" fill="#4f5354" d="M 385.5,223.5 C 386.586,223.62 387.253,224.287 387.5,225.5C 387.253,226.713 386.586,227.38 385.5,227.5C 383.5,227.5 381.5,227.5 379.5,227.5C 379.5,226.5 379.5,225.5 379.5,224.5C 381.735,224.795 383.735,224.461 385.5,223.5 Z"/></g>
<g><path style="opacity:1" fill="#78767a" d="M 351.5,224.5 C 355.042,224.187 358.375,224.521 361.5,225.5C 359.5,225.5 357.5,225.5 355.5,225.5C 355.838,228.325 354.838,230.492 352.5,232C 348.3,233.367 343.967,233.867 339.5,233.5C 342.305,232.681 345.305,232.181 348.5,232C 348.957,231.586 349.291,231.086 349.5,230.5C 342.874,229.947 336.208,229.947 329.5,230.5C 329.5,230.167 329.5,229.833 329.5,229.5C 334.434,229.771 339.1,229.104 343.5,227.5C 346.167,227.5 348.833,227.5 351.5,227.5C 351.5,226.5 351.5,225.5 351.5,224.5 Z"/></g>
<g><path style="opacity:1" fill="#c6bfbe" d="M 150.5,221.5 C 156.196,221.447 161.862,221.78 167.5,222.5C 170.625,223.479 173.958,223.813 177.5,223.5C 180.083,224.224 182.749,225.057 185.5,226C 175.842,226.791 166.175,227.458 156.5,228C 153.928,230.287 150.928,231.453 147.5,231.5C 147.5,229.833 147.5,228.167 147.5,226.5C 148.075,224.589 149.075,222.922 150.5,221.5 Z"/></g>
<g><path style="opacity:1" fill="#81767e" d="M 189.5,225.5 C 190.391,226.261 191.058,227.261 191.5,228.5C 188.87,229.381 186.203,230.048 183.5,230.5C 184.918,228.692 186.918,228.025 189.5,228.5C 189.5,227.5 189.5,226.5 189.5,225.5 Z"/></g>
<g><path style="opacity:1" fill="#9a9297" d="M 350.5,224.5 C 350.833,224.5 351.167,224.5 351.5,224.5C 351.5,225.5 351.5,226.5 351.5,227.5C 348.833,227.5 346.167,227.5 343.5,227.5C 341.257,226.188 338.59,225.522 335.5,225.5C 330.251,225.3 325.251,226.133 320.5,228C 323.478,228.696 326.478,229.196 329.5,229.5C 329.5,229.833 329.5,230.167 329.5,230.5C 325.84,230.159 322.507,230.825 319.5,232.5C 318.167,232.833 316.833,233.167 315.5,233.5C 316.234,232.292 316.567,230.959 316.5,229.5C 312.833,229.5 309.167,229.5 305.5,229.5C 320.041,225.041 335.041,223.375 350.5,224.5 Z"/></g>
<g><path style="opacity:1" fill="#bcb2b9" d="M 343.5,227.5 C 339.1,229.104 334.434,229.771 329.5,229.5C 326.478,229.196 323.478,228.696 320.5,228C 325.251,226.133 330.251,225.3 335.5,225.5C 338.59,225.522 341.257,226.188 343.5,227.5 Z"/></g>
<g><path style="opacity:1" fill="#352f34" d="M 184.5,223.5 C 186.833,223.5 189.167,223.5 191.5,223.5C 191.585,225.929 192.585,227.929 194.5,229.5C 201.337,231.206 208.004,233.206 214.5,235.5C 213.817,237.176 212.483,237.843 210.5,237.5C 207.817,235.664 204.817,234.664 201.5,234.5C 200.833,234.5 200.167,234.5 199.5,234.5C 198.5,234.5 197.5,234.5 196.5,234.5C 193.038,233.518 189.371,233.185 185.5,233.5C 182.505,233.294 179.838,233.96 177.5,235.5C 176.5,235.5 175.5,235.5 174.5,235.5C 173.494,235.062 173.494,234.396 174.5,233.5C 177.185,231.741 180.185,230.741 183.5,230.5C 186.203,230.048 188.87,229.381 191.5,228.5C 191.058,227.261 190.391,226.261 189.5,225.5C 187.694,224.976 186.028,224.309 184.5,223.5 Z"/></g>
<g><path style="opacity:1" fill="#464244" d="M 339.5,233.5 C 338.566,234.568 338.232,235.901 338.5,237.5C 330.316,237.174 322.316,237.508 314.5,238.5C 313.833,238.5 313.167,238.5 312.5,238.5C 312.611,237.883 312.944,237.383 313.5,237C 320.55,236.798 327.55,236.298 334.5,235.5C 335.415,234.672 336.081,233.672 336.5,232.5C 330.836,231.371 325.169,231.371 319.5,232.5C 322.507,230.825 325.84,230.159 329.5,230.5C 336.208,229.947 342.874,229.947 349.5,230.5C 349.291,231.086 348.957,231.586 348.5,232C 345.305,232.181 342.305,232.681 339.5,233.5 Z"/></g>
<g><path style="opacity:1" fill="#2f2629" d="M 312.5,238.5 C 310.204,238.196 309.871,237.196 311.5,235.5C 312.514,234.326 313.847,233.66 315.5,233.5C 316.833,233.167 318.167,232.833 319.5,232.5C 325.169,231.371 330.836,231.371 336.5,232.5C 336.081,233.672 335.415,234.672 334.5,235.5C 327.55,236.298 320.55,236.798 313.5,237C 312.944,237.383 312.611,237.883 312.5,238.5 Z"/></g>
<g><path style="opacity:1" fill="#a5abaf" d="M 361.5,225.5 C 362.167,225.5 362.833,225.5 363.5,225.5C 364.514,226.674 365.847,227.34 367.5,227.5C 367.5,228.5 367.5,229.5 367.5,230.5C 363.206,230.198 360.039,231.864 358,235.5C 356.835,246.481 356.002,257.481 355.5,268.5C 354.784,266.444 354.117,264.277 353.5,262C 350.779,261.398 348.113,261.565 345.5,262.5C 345.833,261.833 346.167,261.167 346.5,260.5C 346.833,260.5 347.167,260.5 347.5,260.5C 350.105,260.379 352.105,259.379 353.5,257.5C 354.15,255.565 354.483,253.565 354.5,251.5C 355.645,247.689 355.812,243.689 355,239.5C 351.362,235.541 349.862,236.541 350.5,242.5C 349.322,246.176 347.822,249.843 346,253.5C 345.292,254.381 344.458,255.047 343.5,255.5C 343.062,254.494 342.396,254.494 341.5,255.5C 343.299,251.097 343.966,246.43 343.5,241.5C 348.926,243.402 350.926,241.402 349.5,235.5C 347.512,235.173 345.512,234.84 343.5,234.5C 341.97,234.64 340.97,235.307 340.5,236.5C 339.596,235.791 339.263,234.791 339.5,233.5C 343.967,233.867 348.3,233.367 352.5,232C 354.838,230.492 355.838,228.325 355.5,225.5C 357.5,225.5 359.5,225.5 361.5,225.5 Z"/></g>
<g><path style="opacity:1" fill="#628695" d="M 341.5,127.5 C 343.143,127.48 344.476,128.147 345.5,129.5C 345.489,128.559 345.989,127.892 347,127.5C 348.537,128.035 350.037,128.368 351.5,128.5C 349.868,131.305 349.368,134.638 350,138.5C 350.333,138.833 350.667,139.167 351,139.5C 351.333,138.167 351.667,136.833 352,135.5C 353,137.833 354.667,139.5 357,140.5C 358.286,143.405 359.286,146.405 360,149.5C 361,148.167 362,148.167 363,149.5C 363.749,150.635 363.583,151.635 362.5,152.5C 361.604,151.494 360.938,151.494 360.5,152.5C 364.968,159.77 368.635,167.437 371.5,175.5C 371.821,178.512 370.488,179.845 367.5,179.5C 367.666,183.846 367.499,188.179 367,192.5C 365.255,190.911 364.088,188.911 363.5,186.5C 362.119,187 361.453,188 361.5,189.5C 361.875,191.459 362.541,193.293 363.5,195C 362.075,196.714 362.408,198.047 364.5,199C 364.167,199.333 363.833,199.667 363.5,200C 364.448,200.483 365.448,200.649 366.5,200.5C 366.491,198.692 366.991,197.025 368,195.5C 370.381,196.435 372.881,196.768 375.5,196.5C 376.64,199.025 377.307,201.692 377.5,204.5C 378.552,204.351 379.552,204.517 380.5,205C 382.014,207.347 384.014,209.18 386.5,210.5C 385.265,213.044 384.099,213.044 383,210.5C 382.5,211.667 381.667,212.5 380.5,213C 384.469,213.853 388.469,214.519 392.5,215C 393.863,216.945 394.697,219.112 395,221.5C 396.399,222.227 397.899,222.727 399.5,223C 398.552,223.483 397.552,223.649 396.5,223.5C 396.146,226.421 397.146,228.754 399.5,230.5C 404.792,231.495 410.125,231.828 415.5,231.5C 415.5,235.5 415.5,239.5 415.5,243.5C 420.833,243.5 426.167,243.5 431.5,243.5C 431.5,247.5 431.5,251.5 431.5,255.5C 428.5,255.5 425.5,255.5 422.5,255.5C 423.303,260.476 426.136,263.809 431,265.5C 431.495,267.473 431.662,269.473 431.5,271.5C 429.167,271.5 426.833,271.5 424.5,271.5C 423.697,276.476 420.864,279.809 416,281.5C 415.667,285.5 415.333,289.5 415,293.5C 413.581,294.46 412.081,295.293 410.5,296C 406.702,298.518 406.036,301.518 408.5,305C 407.013,309.154 404.18,311.987 400,313.5C 399.667,317.5 399.333,321.5 399,325.5C 396.314,326.676 393.981,328.343 392,330.5C 389.877,332.857 390.044,335.024 392.5,337C 391.013,341.154 388.18,343.987 384,345.5C 383.667,349.5 383.333,353.5 383,357.5C 380.421,356.631 378.588,354.965 377.5,352.5C 374.232,351.513 370.898,351.18 367.5,351.5C 367.667,335.497 367.5,319.497 367,303.5C 366.639,308.914 365.806,314.248 364.5,319.5C 364.533,314.94 363.867,310.274 362.5,305.5C 363.5,303.5 364.5,301.5 365.5,299.5C 366.192,300.025 366.692,300.692 367,301.5C 367.048,298.671 368.048,296.337 370,294.5C 370.684,289.178 371.184,283.844 371.5,278.5C 376.063,265.141 379.563,251.474 382,237.5C 384.861,235.483 386.695,232.817 387.5,229.5C 389.131,225.681 389.464,221.681 388.5,217.5C 379.459,215.418 370.459,213.752 361.5,212.5C 363.604,212.799 365.604,212.466 367.5,211.5C 365.518,210.784 363.851,209.617 362.5,208C 363.167,207.667 363.833,207.333 364.5,207C 362.635,202.069 361.135,196.902 360,191.5C 358.43,183.633 357.096,175.633 356,167.5C 355.326,165.483 354.159,163.817 352.5,162.5C 352.833,161.833 353.167,161.167 353.5,160.5C 352.065,158.626 350.898,156.626 350,154.5C 349.359,149.956 348.359,145.623 347,141.5C 346.052,139.43 344.552,137.93 342.5,137C 342.833,136.667 343.167,136.333 343.5,136C 341.812,133.169 341.145,130.336 341.5,127.5 Z"/></g>
<g><path style="opacity:1" fill="#c6c1c8" d="M 305.5,229.5 C 309.167,229.5 312.833,229.5 316.5,229.5C 316.567,230.959 316.234,232.292 315.5,233.5C 313.847,233.66 312.514,234.326 311.5,235.5C 307.263,237.453 302.93,239.12 298.5,240.5C 294.881,239.756 291.215,239.423 287.5,239.5C 286.186,237.105 286.186,234.605 287.5,232C 293.638,231.824 299.638,230.991 305.5,229.5 Z"/></g>
<g><path style="opacity:1" fill="#201d1c" d="M 136.5,258.5 C 135.5,258.5 134.5,258.5 133.5,258.5C 133.073,254.074 132.239,249.74 131,245.5C 129.059,243.458 126.892,242.792 124.5,243.5C 123.63,252.829 122.796,262.163 122,271.5C 121.617,270.944 121.117,270.611 120.5,270.5C 119.577,266.936 119.244,263.269 119.5,259.5C 119.334,251.826 119.5,244.159 120,236.5C 120.2,234.68 121.034,233.347 122.5,232.5C 126.186,232.87 127.186,231.537 125.5,228.5C 129.798,228.653 131.798,226.653 131.5,222.5C 134.469,221.671 137.469,221.505 140.5,222C 141.081,222.893 141.415,223.893 141.5,225C 138.643,230.713 136.31,236.713 134.5,243C 135.138,248.192 135.805,253.359 136.5,258.5 Z"/></g>
<g><path style="opacity:1" fill="#8d8287" d="M 185.5,233.5 C 183.162,235.04 180.495,235.706 177.5,235.5C 179.838,233.96 182.505,233.294 185.5,233.5 Z"/></g>
<g><path style="opacity:1" fill="#7e7271" d="M 272.5,235.5 C 268.23,233.869 264.23,234.202 260.5,236.5C 260.511,234.983 261.177,233.816 262.5,233C 266.463,231.863 269.796,232.697 272.5,235.5 Z"/></g>
<g><path style="opacity:1" fill="#b0acb2" d="M 177.5,223.5 C 179.833,223.5 182.167,223.5 184.5,223.5C 186.028,224.309 187.694,224.976 189.5,225.5C 189.5,226.5 189.5,227.5 189.5,228.5C 186.918,228.025 184.918,228.692 183.5,230.5C 180.185,230.741 177.185,231.741 174.5,233.5C 171.884,234.48 169.551,235.98 167.5,238C 167.728,238.399 168.062,238.565 168.5,238.5C 164.372,241.434 163.705,240.767 166.5,236.5C 164.108,235.792 161.941,236.458 160,238.5C 159.502,241.817 159.335,245.15 159.5,248.5C 162.01,248.054 164.01,248.72 165.5,250.5C 164.448,250.351 163.448,250.517 162.5,251C 163.71,252.039 164.71,253.206 165.5,254.5C 162.161,254.052 159.661,252.385 158,249.5C 156.189,248.922 154.355,248.422 152.5,248C 151.435,245.594 150.102,243.427 148.5,241.5C 148.167,242.833 147.833,244.167 147.5,245.5C 148.559,250.791 149.225,256.124 149.5,261.5C 147.159,254.483 145.826,247.15 145.5,239.5C 145.156,234.878 145.823,230.545 147.5,226.5C 147.5,228.167 147.5,229.833 147.5,231.5C 150.928,231.453 153.928,230.287 156.5,228C 166.175,227.458 175.842,226.791 185.5,226C 182.749,225.057 180.083,224.224 177.5,223.5 Z"/></g>
<g><path style="opacity:1" fill="#d6d3cf" d="M 343.5,241.5 C 342.263,240.035 341.263,238.368 340.5,236.5C 340.97,235.307 341.97,234.64 343.5,234.5C 345.512,234.84 347.512,235.173 349.5,235.5C 350.926,241.402 348.926,243.402 343.5,241.5 Z"/></g>
<g><path style="opacity:1" fill="#74686b" d="M 174.5,233.5 C 173.494,234.396 173.494,235.062 174.5,235.5C 172.967,237.245 170.967,238.245 168.5,238.5C 168.062,238.565 167.728,238.399 167.5,238C 169.551,235.98 171.884,234.48 174.5,233.5 Z"/></g>
<g><path style="opacity:1" fill="#1a1210" d="M 150.5,221.5 C 149.075,222.922 148.075,224.589 147.5,226.5C 145.823,230.545 145.156,234.878 145.5,239.5C 144.351,239.791 143.684,240.624 143.5,242C 143.217,250.032 143.551,258.199 144.5,266.5C 144.647,269.253 143.98,271.753 142.5,274C 143.803,278.166 143.803,282.333 142.5,286.5C 140.267,279.632 138.6,272.632 137.5,265.5C 137.483,263.435 137.15,261.435 136.5,259.5C 136.5,259.167 136.5,258.833 136.5,258.5C 135.805,253.359 135.138,248.192 134.5,243C 136.31,236.713 138.643,230.713 141.5,225C 141.415,223.893 141.081,222.893 140.5,222C 137.469,221.505 134.469,221.671 131.5,222.5C 131.5,221.833 131.5,221.167 131.5,220.5C 134.524,219.658 137.524,218.658 140.5,217.5C 142.383,217.876 143.883,218.876 145,220.5C 145.333,219.833 145.667,219.167 146,218.5C 147.615,219.386 149.115,220.386 150.5,221.5 Z"/></g>
<g><path style="opacity:1" fill="#deddd0" d="M 196.5,234.5 C 197.5,234.5 198.5,234.5 199.5,234.5C 200.164,236.487 201.331,238.154 203,239.5C 203.667,240.833 203.667,242.167 203,243.5C 199.563,246.036 195.73,247.703 191.5,248.5C 191.137,249.183 190.804,249.85 190.5,250.5C 188.561,249.986 187.561,248.653 187.5,246.5C 188.419,243.376 188.752,240.376 188.5,237.5C 187.624,236.749 186.624,236.249 185.5,236C 189.026,234.663 192.692,234.163 196.5,234.5 Z"/></g>
<g><path style="opacity:1" fill="#5c5c63" d="M 236.5,234.5 C 237.791,234.263 238.791,234.596 239.5,235.5C 235.445,235.176 231.445,235.509 227.5,236.5C 228.853,237.524 229.52,238.857 229.5,240.5C 228.5,240.5 227.5,240.5 226.5,240.5C 223.626,238.065 220.293,236.731 216.5,236.5C 217.159,239.455 217.492,242.455 217.5,245.5C 215.91,242.239 213.576,239.573 210.5,237.5C 212.483,237.843 213.817,237.176 214.5,235.5C 221.827,235.056 229.16,234.723 236.5,234.5 Z"/></g>
<g><path style="opacity:1" fill="#787278" d="M 311.5,235.5 C 309.871,237.196 310.204,238.196 312.5,238.5C 312.5,238.833 312.5,239.167 312.5,239.5C 310.473,239.338 308.473,239.505 306.5,240C 303.929,241.454 301.262,242.62 298.5,243.5C 297.022,243.762 295.689,243.429 294.5,242.5C 295.949,241.828 297.282,241.161 298.5,240.5C 302.93,239.12 307.263,237.453 311.5,235.5 Z"/></g>
<g><path style="opacity:1" fill="#8496a0" d="M 367.5,227.5 C 372.225,229.216 374.558,232.549 374.5,237.5C 374.295,250.782 371.462,263.449 366,275.5C 365.051,277.093 363.885,278.426 362.5,279.5C 361.469,278.751 360.302,278.085 359,277.5C 358.295,274.524 357.129,271.858 355.5,269.5C 355.5,269.167 355.5,268.833 355.5,268.5C 356.002,257.481 356.835,246.481 358,235.5C 360.039,231.864 363.206,230.198 367.5,230.5C 367.5,229.5 367.5,228.5 367.5,227.5 Z"/></g>
<g><path style="opacity:1" fill="#ada6ae" d="M 287.5,239.5 C 291.215,239.423 294.881,239.756 298.5,240.5C 297.282,241.161 295.949,241.828 294.5,242.5C 295.689,243.429 297.022,243.762 298.5,243.5C 297.903,244.139 297.07,244.472 296,244.5C 293.528,243.678 291.028,243.011 288.5,242.5C 288.5,244.167 288.5,245.833 288.5,247.5C 287.527,245.052 287.194,242.385 287.5,239.5 Z"/></g>
<g><path style="opacity:1" fill="#6b6a6e" d="M 354.5,251.5 C 354.813,248.753 354.48,246.086 353.5,243.5C 352.583,242.873 351.583,242.539 350.5,242.5C 349.862,236.541 351.362,235.541 355,239.5C 355.812,243.689 355.645,247.689 354.5,251.5 Z"/></g>
<g><path style="opacity:1" fill="#aaada3" d="M 312.5,239.5 C 312.5,239.167 312.5,238.833 312.5,238.5C 313.167,238.5 313.833,238.5 314.5,238.5C 318.5,238.5 322.5,238.5 326.5,238.5C 326.455,241.077 327.455,243.077 329.5,244.5C 329.771,246.38 329.104,247.713 327.5,248.5C 327.785,246.712 327.452,245.045 326.5,243.5C 324.483,242.826 322.817,241.659 321.5,240C 318.854,239.503 316.187,239.336 313.5,239.5C 313.167,239.5 312.833,239.5 312.5,239.5 Z"/></g>
<g><path style="opacity:1" fill="#859195" d="M 201.5,234.5 C 204.817,234.664 207.817,235.664 210.5,237.5C 213.576,239.573 215.91,242.239 217.5,245.5C 217.011,249.984 214.677,252.984 210.5,254.5C 209.5,254.5 208.5,254.5 207.5,254.5C 207.34,252.801 207.506,251.134 208,249.5C 209.834,248.505 211.001,247.005 211.5,245C 211.613,243.301 210.947,242.134 209.5,241.5C 208.319,239.933 206.653,239.099 204.5,239C 202.859,237.871 201.859,236.371 201.5,234.5 Z"/></g>
<g><path style="opacity:1" fill="#dadbcd" d="M 313.5,239.5 C 316.187,239.336 318.854,239.503 321.5,240C 322.817,241.659 324.483,242.826 326.5,243.5C 327.452,245.045 327.785,246.712 327.5,248.5C 326.29,248.932 325.29,249.599 324.5,250.5C 323.167,251.167 323.167,251.833 324.5,252.5C 322.338,253.128 320.672,254.461 319.5,256.5C 318.5,256.5 317.5,256.5 316.5,256.5C 315.131,250.604 314.131,244.937 313.5,239.5 Z"/></g>
<g><path style="opacity:1" fill="#3e3c34" d="M 331.5,248.5 C 329.618,251.218 327.285,251.885 324.5,250.5C 325.29,249.599 326.29,248.932 327.5,248.5C 329.104,247.713 329.771,246.38 329.5,244.5C 329.56,243.957 329.893,243.624 330.5,243.5C 331.452,245.045 331.785,246.712 331.5,248.5 Z"/></g>
<g><path style="opacity:1" fill="#dfd4d2" d="M 185.5,233.5 C 189.371,233.185 193.038,233.518 196.5,234.5C 192.692,234.163 189.026,234.663 185.5,236C 186.624,236.249 187.624,236.749 188.5,237.5C 188.752,240.376 188.419,243.376 187.5,246.5C 187.561,248.653 188.561,249.986 190.5,250.5C 191.404,251.209 191.737,252.209 191.5,253.5C 193.5,253.5 195.5,253.5 197.5,253.5C 199.634,255.033 202.134,255.7 205,255.5C 207.033,255.494 208.866,255.161 210.5,254.5C 214.677,252.984 217.011,249.984 217.5,245.5C 217.492,242.455 217.159,239.455 216.5,236.5C 220.293,236.731 223.626,238.065 226.5,240.5C 228.035,241.788 229.701,241.788 231.5,240.5C 230.754,239.264 230.421,237.93 230.5,236.5C 231.833,236.5 233.167,236.5 234.5,236.5C 234.565,238.696 235.232,240.696 236.5,242.5C 237.72,243.711 238.887,243.711 240,242.5C 241.294,243.854 241.46,245.188 240.5,246.5C 241.025,247.192 241.692,247.692 242.5,248C 241.483,249.049 241.316,250.216 242,251.5C 242.333,251.167 242.667,250.833 243,250.5C 244.02,251.891 244.853,253.391 245.5,255C 243.252,256.917 240.918,258.083 238.5,258.5C 238.409,256.777 238.075,254.777 237.5,252.5C 233.958,252.187 230.625,252.521 227.5,253.5C 226.209,253.263 225.209,253.596 224.5,254.5C 219.833,256.5 215.167,258.5 210.5,260.5C 208.883,261.038 207.216,261.371 205.5,261.5C 201.167,261.5 196.833,261.5 192.5,261.5C 184.579,259.083 176.912,256.083 169.5,252.5C 168.486,251.326 167.153,250.66 165.5,250.5C 164.01,248.72 162.01,248.054 159.5,248.5C 159.335,245.15 159.502,241.817 160,238.5C 161.941,236.458 164.108,235.792 166.5,236.5C 163.705,240.767 164.372,241.434 168.5,238.5C 170.967,238.245 172.967,237.245 174.5,235.5C 175.5,235.5 176.5,235.5 177.5,235.5C 180.495,235.706 183.162,235.04 185.5,233.5 Z"/></g>
<g><path style="opacity:1" fill="#c3cdc1" d="M 199.5,234.5 C 200.167,234.5 200.833,234.5 201.5,234.5C 201.859,236.371 202.859,237.871 204.5,239C 206.653,239.099 208.319,239.933 209.5,241.5C 209.5,242.833 209.5,244.167 209.5,245.5C 206.206,245.259 203.206,246.092 200.5,248C 203.028,249.017 203.028,250.184 200.5,251.5C 201.025,252.192 201.692,252.692 202.5,253C 200.866,253.494 199.199,253.66 197.5,253.5C 195.5,253.5 193.5,253.5 191.5,253.5C 191.737,252.209 191.404,251.209 190.5,250.5C 190.804,249.85 191.137,249.183 191.5,248.5C 195.73,247.703 199.563,246.036 203,243.5C 203.667,242.167 203.667,240.833 203,239.5C 201.331,238.154 200.164,236.487 199.5,234.5 Z"/></g>
<g><path style="opacity:1" fill="#7a9794" d="M 339.5,256.5 C 336.201,258.483 332.534,259.483 328.5,259.5C 329.219,257.236 329.552,254.903 329.5,252.5C 327.833,252.5 326.167,252.5 324.5,252.5C 323.167,251.833 323.167,251.167 324.5,250.5C 327.285,251.885 329.618,251.218 331.5,248.5C 332.216,246.444 332.883,244.277 333.5,242C 340.505,240.676 343.005,243.51 341,250.5C 340.028,252.305 338.861,253.972 337.5,255.5C 337.957,256.298 338.624,256.631 339.5,256.5 Z"/></g>
<g><path style="opacity:1" fill="#372f2d" d="M 350.5,242.5 C 351.583,242.539 352.583,242.873 353.5,243.5C 354.48,246.086 354.813,248.753 354.5,251.5C 354.483,253.565 354.15,255.565 353.5,257.5C 350.687,257.025 348.687,258.025 347.5,260.5C 347.167,260.5 346.833,260.5 346.5,260.5C 344.517,260.843 343.183,260.176 342.5,258.5C 343.11,257.609 343.443,256.609 343.5,255.5C 344.458,255.047 345.292,254.381 346,253.5C 347.822,249.843 349.322,246.176 350.5,242.5 Z"/></g>
<g><path style="opacity:1" fill="#5b6367" d="M 339.5,233.5 C 339.263,234.791 339.596,235.791 340.5,236.5C 341.263,238.368 342.263,240.035 343.5,241.5C 343.966,246.43 343.299,251.097 341.5,255.5C 340.833,255.833 340.167,256.167 339.5,256.5C 338.624,256.631 337.957,256.298 337.5,255.5C 338.861,253.972 340.028,252.305 341,250.5C 343.005,243.51 340.505,240.676 333.5,242C 332.883,244.277 332.216,246.444 331.5,248.5C 331.785,246.712 331.452,245.045 330.5,243.5C 329.893,243.624 329.56,243.957 329.5,244.5C 327.455,243.077 326.455,241.077 326.5,238.5C 322.5,238.5 318.5,238.5 314.5,238.5C 322.316,237.508 330.316,237.174 338.5,237.5C 338.232,235.901 338.566,234.568 339.5,233.5 Z"/></g>
<g><path style="opacity:1" fill="#b7c1b7" d="M 324.5,252.5 C 326.167,252.5 327.833,252.5 329.5,252.5C 329.552,254.903 329.219,257.236 328.5,259.5C 324.965,259.868 321.965,258.868 319.5,256.5C 320.672,254.461 322.338,253.128 324.5,252.5 Z"/></g>
<g><path style="opacity:1" fill="#ddd2ce" d="M 312.5,239.5 C 312.833,239.5 313.167,239.5 313.5,239.5C 314.131,244.937 315.131,250.604 316.5,256.5C 317.5,256.5 318.5,256.5 319.5,256.5C 321.965,258.868 324.965,259.868 328.5,259.5C 332.534,259.483 336.201,258.483 339.5,256.5C 340.167,256.167 340.833,255.833 341.5,255.5C 342.396,254.494 343.062,254.494 343.5,255.5C 343.443,256.609 343.11,257.609 342.5,258.5C 335.97,264.23 328.304,266.563 319.5,265.5C 315.398,264.91 311.398,263.91 307.5,262.5C 306.5,262.667 305.5,262.833 304.5,263C 305.381,263.708 306.047,264.542 306.5,265.5C 304.394,265.321 302.728,264.321 301.5,262.5C 302.376,261.749 303.376,261.249 304.5,261C 304.043,260.586 303.709,260.086 303.5,259.5C 304.522,258.646 305.355,257.646 306,256.5C 308.443,257.285 310.943,257.119 313.5,256C 310.178,255.941 307.344,254.774 305,252.5C 301.515,253.116 297.682,253.616 293.5,254C 292.392,256.99 293.225,259.49 296,261.5C 296.822,264.117 297.322,266.784 297.5,269.5C 293.344,262.714 290.344,255.381 288.5,247.5C 288.5,245.833 288.5,244.167 288.5,242.5C 291.028,243.011 293.528,243.678 296,244.5C 297.07,244.472 297.903,244.139 298.5,243.5C 301.262,242.62 303.929,241.454 306.5,240C 308.473,239.505 310.473,239.338 312.5,239.5 Z"/></g>
<g><path style="opacity:1" fill="#777471" d="M 353.5,257.5 C 352.105,259.379 350.105,260.379 347.5,260.5C 348.687,258.025 350.687,257.025 353.5,257.5 Z"/></g>
<g><path style="opacity:1" fill="#2c2b2c" d="M 136.5,258.5 C 136.5,258.833 136.5,259.167 136.5,259.5C 135.883,259.611 135.383,259.944 135,260.5C 134.503,262.81 134.337,265.143 134.5,267.5C 134.5,267.833 134.5,268.167 134.5,268.5C 133.778,273.711 132.945,279.044 132,284.5C 131.29,285.973 130.124,286.64 128.5,286.5C 128.649,285.448 128.483,284.448 128,283.5C 127.014,284.171 125.847,284.171 124.5,283.5C 122.364,279.424 121.03,275.09 120.5,270.5C 121.117,270.611 121.617,270.944 122,271.5C 122.796,262.163 123.63,252.829 124.5,243.5C 126.892,242.792 129.059,243.458 131,245.5C 132.239,249.74 133.073,254.074 133.5,258.5C 134.5,258.5 135.5,258.5 136.5,258.5 Z"/></g>
<g><path style="opacity:1" fill="#e3d4ce" d="M 239.5,235.5 C 245.8,240.988 247.967,247.988 246,256.5C 242.71,266.533 238.544,276.2 233.5,285.5C 231.99,286.836 230.323,288.003 228.5,289C 203.493,289.476 178.493,289.143 153.5,288C 152.874,287.25 152.374,286.416 152,285.5C 151.166,277.493 150.332,269.493 149.5,261.5C 149.225,256.124 148.559,250.791 147.5,245.5C 147.833,244.167 148.167,242.833 148.5,241.5C 150.102,243.427 151.435,245.594 152.5,248C 154.355,248.422 156.189,248.922 158,249.5C 159.661,252.385 162.161,254.052 165.5,254.5C 171.069,257.277 176.736,260.111 182.5,263C 192.307,263.131 201.974,264.297 211.5,266.5C 213.045,266.489 214.378,266.156 215.5,265.5C 217.099,265.768 218.432,265.434 219.5,264.5C 221.5,263.833 223.5,263.167 225.5,262.5C 228.716,261.062 232.049,259.895 235.5,259C 237.013,256.546 236.346,254.879 233.5,254C 231.527,253.505 229.527,253.338 227.5,253.5C 230.625,252.521 233.958,252.187 237.5,252.5C 238.075,254.777 238.409,256.777 238.5,258.5C 240.918,258.083 243.252,256.917 245.5,255C 244.853,253.391 244.02,251.891 243,250.5C 242.667,250.833 242.333,251.167 242,251.5C 241.316,250.216 241.483,249.049 242.5,248C 241.692,247.692 241.025,247.192 240.5,246.5C 241.46,245.188 241.294,243.854 240,242.5C 238.887,243.711 237.72,243.711 236.5,242.5C 235.232,240.696 234.565,238.696 234.5,236.5C 233.167,236.5 231.833,236.5 230.5,236.5C 230.421,237.93 230.754,239.264 231.5,240.5C 229.701,241.788 228.035,241.788 226.5,240.5C 227.5,240.5 228.5,240.5 229.5,240.5C 229.52,238.857 228.853,237.524 227.5,236.5C 231.445,235.509 235.445,235.176 239.5,235.5 Z"/></g>
<g><path style="opacity:1" fill="#1b1719" d="M 224.5,254.5 C 227.247,254.187 229.914,254.52 232.5,255.5C 231.221,257.146 229.555,258.313 227.5,259C 226.695,260.113 226.028,261.279 225.5,262.5C 223.5,263.167 221.5,263.833 219.5,264.5C 215.698,265.12 212.365,264.286 209.5,262C 210.056,261.617 210.389,261.117 210.5,260.5C 215.167,258.5 219.833,256.5 224.5,254.5 Z"/></g>
<g><path style="opacity:1" fill="#675a60" d="M 169.5,252.5 C 176.912,256.083 184.579,259.083 192.5,261.5C 190.034,262.634 187.367,262.801 184.5,262C 178.5,259 172.5,256 166.5,253C 167.448,252.517 168.448,252.351 169.5,252.5 Z"/></g>
<g><path style="opacity:1" fill="#494141" d="M 224.5,254.5 C 225.209,253.596 226.209,253.263 227.5,253.5C 229.527,253.338 231.527,253.505 233.5,254C 236.346,254.879 237.013,256.546 235.5,259C 232.049,259.895 228.716,261.062 225.5,262.5C 226.028,261.279 226.695,260.113 227.5,259C 229.555,258.313 231.221,257.146 232.5,255.5C 229.914,254.52 227.247,254.187 224.5,254.5 Z"/></g>
<g><path style="opacity:1" fill="#978a8f" d="M 165.5,250.5 C 167.153,250.66 168.486,251.326 169.5,252.5C 168.448,252.351 167.448,252.517 166.5,253C 172.5,256 178.5,259 184.5,262C 187.367,262.801 190.034,262.634 192.5,261.5C 196.833,261.5 201.167,261.5 205.5,261.5C 205.5,262.5 205.5,263.5 205.5,264.5C 208.786,265.207 212.119,265.54 215.5,265.5C 214.378,266.156 213.045,266.489 211.5,266.5C 201.974,264.297 192.307,263.131 182.5,263C 176.736,260.111 171.069,257.277 165.5,254.5C 164.71,253.206 163.71,252.039 162.5,251C 163.448,250.517 164.448,250.351 165.5,250.5 Z"/></g>
<g><path style="opacity:1" fill="#9aaeaa" d="M 209.5,241.5 C 210.947,242.134 211.613,243.301 211.5,245C 211.001,247.005 209.834,248.505 208,249.5C 207.506,251.134 207.34,252.801 207.5,254.5C 208.5,254.5 209.5,254.5 210.5,254.5C 208.866,255.161 207.033,255.494 205,255.5C 202.134,255.7 199.634,255.033 197.5,253.5C 199.199,253.66 200.866,253.494 202.5,253C 201.692,252.692 201.025,252.192 200.5,251.5C 203.028,250.184 203.028,249.017 200.5,248C 203.206,246.092 206.206,245.259 209.5,245.5C 209.5,244.167 209.5,242.833 209.5,241.5 Z"/></g>
<g><path style="opacity:1" fill="#6d706c" d="M 342.5,258.5 C 343.183,260.176 344.517,260.843 346.5,260.5C 346.167,261.167 345.833,261.833 345.5,262.5C 342.515,263.326 339.849,264.659 337.5,266.5C 334.607,266.632 332.274,267.799 330.5,270C 326.848,270.499 323.182,270.665 319.5,270.5C 316.848,270.59 314.515,269.924 312.5,268.5C 315.176,269.008 317.843,269.175 320.5,269C 320.957,268.586 321.291,268.086 321.5,267.5C 320.757,266.818 320.091,266.151 319.5,265.5C 328.304,266.563 335.97,264.23 342.5,258.5 Z"/></g>
<g><path style="opacity:1" fill="#e6d3d1" d="M 272.5,235.5 C 274.148,236.777 275.982,237.777 278,238.5C 279.53,243.892 281.863,248.892 285,253.5C 288.748,262.576 291.582,271.91 293.5,281.5C 290.351,280.84 288.851,278.84 289,275.5C 288.667,275.833 288.333,276.167 288,276.5C 288.046,278.313 287.88,279.979 287.5,281.5C 288.025,282.192 288.692,282.692 289.5,283C 289.034,284.299 289.034,285.799 289.5,287.5C 286.1,289.709 282.767,292.209 279.5,295C 280.167,295.167 280.833,295.333 281.5,295.5C 283.16,294.213 284.826,292.88 286.5,291.5C 286.833,292.167 287.167,292.833 287.5,293.5C 284.264,295.751 281.597,298.751 279.5,302.5C 269.856,303.498 260.19,303.832 250.5,303.5C 250.716,301.319 249.883,299.653 248,298.5C 247.667,299.5 247.333,300.5 247,301.5C 246.426,299.508 245.259,298.008 243.5,297C 245.394,295.921 245.727,294.587 244.5,293C 245.824,291.128 247.324,290.295 249,290.5C 249.17,288.155 248.837,285.821 248,283.5C 246.243,286.014 244.743,288.681 243.5,291.5C 242.476,292.853 241.143,293.52 239.5,293.5C 246.695,283.443 252.028,272.443 255.5,260.5C 259.647,253.047 261.314,245.047 260.5,236.5C 264.23,234.202 268.23,233.869 272.5,235.5 Z"/></g>
<g><path style="opacity:1" fill="#a18684" d="M 136.5,259.5 C 137.15,261.435 137.483,263.435 137.5,265.5C 136.222,265.782 135.222,266.449 134.5,267.5C 134.337,265.143 134.503,262.81 135,260.5C 135.383,259.944 135.883,259.611 136.5,259.5 Z"/></g>
<g><path style="opacity:1" fill="#e4d7ce" d="M 306.5,265.5 C 308.5,266.5 310.5,267.5 312.5,268.5C 314.515,269.924 316.848,270.59 319.5,270.5C 323.981,271.648 328.648,271.815 333.5,271C 335.751,270.252 337.084,268.752 337.5,266.5C 339.849,264.659 342.515,263.326 345.5,262.5C 348.113,261.565 350.779,261.398 353.5,262C 354.117,264.277 354.784,266.444 355.5,268.5C 355.5,268.833 355.5,269.167 355.5,269.5C 356.283,273.146 356.45,276.812 356,280.5C 354.644,282.409 353.144,284.076 351.5,285.5C 347.246,286.646 342.913,287.313 338.5,287.5C 328.161,287.666 317.828,287.5 307.5,287C 306.255,286.209 304.922,285.709 303.5,285.5C 300.917,280.422 298.917,275.088 297.5,269.5C 297.322,266.784 296.822,264.117 296,261.5C 293.225,259.49 292.392,256.99 293.5,254C 297.682,253.616 301.515,253.116 305,252.5C 307.344,254.774 310.178,255.941 313.5,256C 310.943,257.119 308.443,257.285 306,256.5C 305.355,257.646 304.522,258.646 303.5,259.5C 303.709,260.086 304.043,260.586 304.5,261C 303.376,261.249 302.376,261.749 301.5,262.5C 302.728,264.321 304.394,265.321 306.5,265.5 Z"/></g>
<g><path style="opacity:1" fill="#beb2af" d="M 337.5,266.5 C 337.084,268.752 335.751,270.252 333.5,271C 328.648,271.815 323.981,271.648 319.5,270.5C 323.182,270.665 326.848,270.499 330.5,270C 332.274,267.799 334.607,266.632 337.5,266.5 Z"/></g>
<g><path style="opacity:1" fill="#44494a" d="M 319.5,265.5 C 320.091,266.151 320.757,266.818 321.5,267.5C 321.291,268.086 320.957,268.586 320.5,269C 317.843,269.175 315.176,269.008 312.5,268.5C 310.5,267.5 308.5,266.5 306.5,265.5C 306.047,264.542 305.381,263.708 304.5,263C 305.5,262.833 306.5,262.667 307.5,262.5C 311.398,263.91 315.398,264.91 319.5,265.5 Z"/></g>
<g><path style="opacity:1" fill="#171b1e" d="M 363.5,225.5 C 366.881,225.46 370.214,225.793 373.5,226.5C 374.928,229.946 375.761,233.613 376,237.5C 376.667,238.167 377.333,238.833 378,239.5C 378.32,242.54 378.32,245.54 378,248.5C 379.072,243.868 380.072,239.201 381,234.5C 382.11,232.963 383.61,232.297 385.5,232.5C 385.5,231.167 385.5,229.833 385.5,228.5C 386.492,228.328 387.158,228.662 387.5,229.5C 386.695,232.817 384.861,235.483 382,237.5C 379.563,251.474 376.063,265.141 371.5,278.5C 368.407,282.927 364.407,286.26 359.5,288.5C 359.624,286.418 360.624,284.918 362.5,284C 361.552,283.517 360.552,283.351 359.5,283.5C 360.5,282.167 361.5,280.833 362.5,279.5C 363.885,278.426 365.051,277.093 366,275.5C 371.462,263.449 374.295,250.782 374.5,237.5C 374.558,232.549 372.225,229.216 367.5,227.5C 365.847,227.34 364.514,226.674 363.5,225.5 Z"/></g>
<g><path style="opacity:1" fill="#e5d7d6" d="M 293.5,281.5 C 295.405,285.216 296.739,289.216 297.5,293.5C 311.501,294.807 325.501,294.807 339.5,293.5C 334.37,294.987 329.037,296.153 323.5,297C 326.979,298.62 330.646,299.453 334.5,299.5C 338.498,298.808 342.498,298.641 346.5,299C 347.833,299.667 347.833,300.333 346.5,301C 338.625,302.941 338.958,303.774 347.5,303.5C 346.92,320.945 347.92,338.279 350.5,355.5C 348.365,359.279 348.698,363.112 351.5,367C 349.833,367.333 348.167,367.667 346.5,368C 347.62,378.897 347.62,389.73 346.5,400.5C 344.362,405.276 342.362,410.11 340.5,415C 341.358,418.22 340.191,420.72 337,422.5C 331.047,422.266 327.547,425.266 326.5,431.5C 325.5,431.5 324.5,431.5 323.5,431.5C 323.343,432.873 323.51,434.207 324,435.5C 325.183,434.269 326.349,434.269 327.5,435.5C 326.783,437.717 325.283,439.051 323,439.5C 318.44,437.022 314.44,438.689 311,444.5C 311.319,446.743 311.152,448.91 310.5,451C 309.5,451.667 308.5,451.667 307.5,451C 308.357,450.311 309.023,449.478 309.5,448.5C 306.232,447.513 302.898,447.18 299.5,447.5C 299.5,450.833 299.5,454.167 299.5,457.5C 296.167,458.167 292.833,458.833 289.5,459.5C 289.005,454.891 286.338,452.558 281.5,452.5C 276.414,453.006 271.414,453.839 266.5,455C 272.997,458.522 272.497,460.022 265,459.5C 262.026,460.118 259.192,461.118 256.5,462.5C 255.571,461.311 255.238,459.978 255.5,458.5C 250.261,459.037 245.261,458.37 240.5,456.5C 239.548,458.045 239.215,459.712 239.5,461.5C 236.316,462.643 232.983,463.309 229.5,463.5C 229.174,465.661 228.174,467.494 226.5,469C 223.447,469.179 220.447,469.679 217.5,470.5C 219.678,472.523 221.012,475.023 221.5,478C 219.476,480.881 218.143,484.047 217.5,487.5C 215.167,487.5 212.833,487.5 210.5,487.5C 210.277,489.342 209.943,491.175 209.5,493C 211.823,495.776 211.323,498.276 208,500.5C 207.703,497.705 206.203,496.039 203.5,495.5C 200.102,498.115 196.268,499.781 192,500.5C 186.898,498.017 181.398,496.684 175.5,496.5C 164.864,496.672 164.864,497.172 175.5,498C 172.774,498.182 170.107,498.682 167.5,499.5C 172.802,500.329 178.136,500.829 183.5,501C 170.175,502.071 156.842,502.904 143.5,503.5C 143.5,503.167 143.5,502.833 143.5,502.5C 149.485,501.995 151.985,498.661 151,492.5C 151.401,494.521 152.568,495.855 154.5,496.5C 166.72,494.398 179.053,493.231 191.5,493C 180.833,492.333 180.833,491.667 191.5,491C 188.833,490.667 186.167,490.333 183.5,490C 189.799,490.146 195.799,488.98 201.5,486.5C 205.163,481.34 208.829,476.173 212.5,471C 211.095,469.731 209.429,469.231 207.5,469.5C 207.5,467.5 207.5,465.5 207.5,463.5C 201.794,463.829 196.128,463.495 190.5,462.5C 185.833,457.833 181.167,453.167 176.5,448.5C 174.955,447.548 173.288,447.215 171.5,447.5C 171.5,442.167 171.5,436.833 171.5,431.5C 172.833,431.5 174.167,431.5 175.5,431.5C 175.5,426.167 175.5,420.833 175.5,415.5C 174.167,415.5 172.833,415.5 171.5,415.5C 171.666,411.154 171.499,406.821 171,402.5C 167.534,404.35 165.701,403.35 165.5,399.5C 163.833,399.5 162.167,399.5 160.5,399.5C 160.664,396.813 160.497,394.146 160,391.5C 158.663,392.904 157.497,394.404 156.5,396C 157.844,399.803 158.844,403.636 159.5,407.5C 158.167,407.5 156.833,407.5 155.5,407.5C 155.559,413.378 154.725,419.045 153,424.5C 150.278,416.394 149.112,408.061 149.5,399.5C 151.5,399.5 153.5,399.5 155.5,399.5C 155.161,388.782 154.161,378.115 152.5,367.5C 151.675,371.122 151.175,374.789 151,378.5C 149.019,376.343 146.686,374.676 144,373.5C 143.505,371.527 143.338,369.527 143.5,367.5C 144.833,367.5 146.167,367.5 147.5,367.5C 147.936,357.579 147.269,347.745 145.5,338C 145.645,336.774 145.978,335.607 146.5,334.5C 144.803,330.15 143.469,325.817 142.5,321.5C 143.552,319.744 145.219,319.077 147.5,319.5C 147.666,314.821 147.499,310.155 147,305.5C 144.595,302.8 145.095,300.967 148.5,300C 147.692,299.692 147.025,299.192 146.5,298.5C 147.363,297.274 147.363,295.94 146.5,294.5C 147.473,294.987 148.473,295.487 149.5,296C 178.5,296.667 207.5,296.667 236.5,296C 237.373,294.955 238.373,294.122 239.5,293.5C 241.143,293.52 242.476,292.853 243.5,291.5C 244.743,288.681 246.243,286.014 248,283.5C 248.837,285.821 249.17,288.155 249,290.5C 247.324,290.295 245.824,291.128 244.5,293C 245.727,294.587 245.394,295.921 243.5,297C 245.259,298.008 246.426,299.508 247,301.5C 247.333,300.5 247.667,299.5 248,298.5C 249.883,299.653 250.716,301.319 250.5,303.5C 260.19,303.832 269.856,303.498 279.5,302.5C 281.597,298.751 284.264,295.751 287.5,293.5C 287.167,292.833 286.833,292.167 286.5,291.5C 284.826,292.88 283.16,294.213 281.5,295.5C 280.833,295.333 280.167,295.167 279.5,295C 282.767,292.209 286.1,289.709 289.5,287.5C 289.034,285.799 289.034,284.299 289.5,283C 288.692,282.692 288.025,282.192 287.5,281.5C 287.88,279.979 288.046,278.313 288,276.5C 288.333,276.167 288.667,275.833 289,275.5C 288.851,278.84 290.351,280.84 293.5,281.5 Z"/></g>
<g><path style="opacity:1" fill="#bdbebd" d="M 355.5,269.5 C 357.129,271.858 358.295,274.524 359,277.5C 360.302,278.085 361.469,278.751 362.5,279.5C 361.5,280.833 360.5,282.167 359.5,283.5C 356.888,284.371 354.221,285.037 351.5,285.5C 353.144,284.076 354.644,282.409 356,280.5C 356.45,276.812 356.283,273.146 355.5,269.5 Z"/></g>
<g><path style="opacity:1" fill="#dfd8d3" d="M 119.5,259.5 C 119.244,263.269 119.577,266.936 120.5,270.5C 121.03,275.09 122.364,279.424 124.5,283.5C 125.861,285.85 127.194,288.184 128.5,290.5C 128.525,293.179 129.858,294.512 132.5,294.5C 132.5,293.5 132.5,292.5 132.5,291.5C 133.981,283.913 134.648,276.247 134.5,268.5C 134.5,268.167 134.5,267.833 134.5,267.5C 135.222,266.449 136.222,265.782 137.5,265.5C 138.6,272.632 140.267,279.632 142.5,286.5C 143.308,289.45 144.642,292.117 146.5,294.5C 147.363,295.94 147.363,297.274 146.5,298.5C 147.025,299.192 147.692,299.692 148.5,300C 145.095,300.967 144.595,302.8 147,305.5C 147.499,310.155 147.666,314.821 147.5,319.5C 145.219,319.077 143.552,319.744 142.5,321.5C 140.859,331.305 140.526,341.305 141.5,351.5C 141.495,357.211 140.828,362.544 139.5,367.5C 139.832,354.129 139.332,340.796 138,327.5C 135.472,323.397 134.638,323.564 135.5,328C 134.683,329.49 133.85,330.99 133,332.5C 132.5,370.832 132.333,409.165 132.5,447.5C 132.5,468.833 132.5,490.167 132.5,511.5C 132.167,511.5 131.833,511.5 131.5,511.5C 131.5,445.833 131.5,380.167 131.5,314.5C 130.209,314.263 129.209,314.596 128.5,315.5C 125.247,315.562 122.247,316.396 119.5,318C 116.833,318.667 114.167,318.667 111.5,318C 110.299,317.097 109.465,315.931 109,314.5C 108.501,310.848 108.335,307.182 108.5,303.5C 110.321,290.887 111.821,278.22 113,265.5C 115.742,260.867 117.409,255.867 118,250.5C 118.181,253.695 118.681,256.695 119.5,259.5 Z"/></g>
<g><path style="opacity:1" fill="#524a48" d="M 134.5,268.5 C 134.648,276.247 133.981,283.913 132.5,291.5C 131.041,291.567 129.708,291.234 128.5,290.5C 127.194,288.184 125.861,285.85 124.5,283.5C 125.847,284.171 127.014,284.171 128,283.5C 128.483,284.448 128.649,285.448 128.5,286.5C 130.124,286.64 131.29,285.973 132,284.5C 132.945,279.044 133.778,273.711 134.5,268.5 Z"/></g>
<g><path style="opacity:1" fill="#c1b0af" d="M 303.5,285.5 C 304.922,285.709 306.255,286.209 307.5,287C 317.828,287.5 328.161,287.666 338.5,287.5C 327.674,288.659 316.674,288.826 305.5,288C 304.619,287.292 303.953,286.458 303.5,285.5 Z"/></g>
<g><path style="opacity:1" fill="#1c1119" d="M 145.5,239.5 C 145.826,247.15 147.159,254.483 149.5,261.5C 150.332,269.493 151.166,277.493 152,285.5C 152.374,286.416 152.874,287.25 153.5,288C 178.493,289.143 203.493,289.476 228.5,289C 230.323,288.003 231.99,286.836 233.5,285.5C 235.311,285.428 236.644,284.595 237.5,283C 240.581,275.721 243.581,268.887 246.5,262.5C 247.086,262.709 247.586,263.043 248,263.5C 248.667,260.833 249.333,260.833 250,263.5C 251.097,261.947 252.43,260.614 254,259.5C 254.383,260.056 254.883,260.389 255.5,260.5C 252.028,272.443 246.695,283.443 239.5,293.5C 238.373,294.122 237.373,294.955 236.5,296C 207.5,296.667 178.5,296.667 149.5,296C 148.473,295.487 147.473,294.987 146.5,294.5C 144.642,292.117 143.308,289.45 142.5,286.5C 143.803,282.333 143.803,278.166 142.5,274C 143.98,271.753 144.647,269.253 144.5,266.5C 143.551,258.199 143.217,250.032 143.5,242C 143.684,240.624 144.351,239.791 145.5,239.5 Z"/></g>
<g><path style="opacity:1" fill="#535352" d="M 210.5,260.5 C 210.389,261.117 210.056,261.617 209.5,262C 212.365,264.286 215.698,265.12 219.5,264.5C 218.432,265.434 217.099,265.768 215.5,265.5C 212.119,265.54 208.786,265.207 205.5,264.5C 205.5,263.5 205.5,262.5 205.5,261.5C 207.216,261.371 208.883,261.038 210.5,260.5 Z"/></g>
<g><path style="opacity:1" fill="#978d8b" d="M 128.5,290.5 C 129.708,291.234 131.041,291.567 132.5,291.5C 132.5,292.5 132.5,293.5 132.5,294.5C 129.858,294.512 128.525,293.179 128.5,290.5 Z"/></g>
<g><path style="opacity:1" fill="#e8d8d7" d="M 238.5,383.5 C 235.976,383.957 233.309,383.957 230.5,383.5C 230.216,385.415 230.549,387.081 231.5,388.5C 231.973,389.906 232.973,390.573 234.5,390.5C 235.5,391.167 236.5,391.833 237.5,392.5C 236.776,394.218 236.109,396.052 235.5,398C 238.294,400.359 241.961,401.692 246.5,402C 248.399,405.398 249.065,408.898 248.5,412.5C 246.826,409.746 245.159,409.413 243.5,411.5C 242.264,412.246 240.93,412.579 239.5,412.5C 241.937,422.315 238.27,426.982 228.5,426.5C 231.116,432.022 229.449,435.022 223.5,435.5C 223.5,431.5 223.5,427.5 223.5,423.5C 222.5,423.5 221.5,423.5 220.5,423.5C 220.5,421.833 220.5,420.167 220.5,418.5C 218.167,418.5 215.833,418.5 213.5,418.5C 212.449,414.456 209.782,412.122 205.5,411.5C 204.239,408.736 202.405,406.403 200,404.5C 198.991,402.975 198.491,401.308 198.5,399.5C 196.167,399.5 193.833,399.5 191.5,399.5C 191.662,397.473 191.495,395.473 191,393.5C 186.82,391.987 183.987,389.154 182.5,385C 184.964,381.518 184.298,378.518 180.5,376C 176.047,374.891 174.38,372.058 175.5,367.5C 174.167,367.5 172.833,367.5 171.5,367.5C 171.5,362.167 171.5,356.833 171.5,351.5C 172.833,351.5 174.167,351.5 175.5,351.5C 173.425,362.205 175.925,363.872 183,356.5C 184.009,354.975 184.509,353.308 184.5,351.5C 186.833,351.5 189.167,351.5 191.5,351.5C 191.5,350.167 191.5,348.833 191.5,347.5C 198.863,347.831 206.197,347.497 213.5,346.5C 216.251,343.945 215.584,342.945 211.5,343.5C 211.336,340.813 211.503,338.146 212,335.5C 213.324,334.12 214.657,333.786 216,334.5C 218.168,333.371 218.668,331.871 217.5,330C 219.473,329.505 221.473,329.338 223.5,329.5C 223.343,328.127 223.51,326.793 224,325.5C 225.667,326.5 227.333,327.5 229,328.5C 230.328,326.978 230.162,325.311 228.5,323.5C 232.8,320.918 232.467,319.584 227.5,319.5C 227.231,317.571 227.731,315.905 229,314.5C 229.667,315.167 230.333,315.833 231,316.5C 232.727,313.107 235.394,310.774 239,309.5C 240.031,310.7 240.865,312.034 241.5,313.5C 240.167,316.167 238.833,318.833 237.5,321.5C 238.651,323.325 239.318,325.325 239.5,327.5C 237.833,327.5 236.167,327.5 234.5,327.5C 234.5,330.833 234.5,334.167 234.5,337.5C 236.39,337.703 237.89,337.037 239,335.5C 240.46,333.028 241.46,330.361 242,327.5C 243.724,325.155 245.557,324.655 247.5,326C 243.309,331.67 243.643,337.003 248.5,342C 253.026,343.008 257.026,345.008 260.5,348C 259.315,349.353 257.981,350.52 256.5,351.5C 255.505,356.792 255.172,362.125 255.5,367.5C 254.448,367.351 253.448,367.517 252.5,368C 254.314,368.92 255.314,370.42 255.5,372.5C 254.888,374.338 254.888,376.005 255.5,377.5C 250.291,379.146 244.957,380.146 239.5,380.5C 239.737,381.791 239.404,382.791 238.5,383.5 Z"/></g>
<g><path style="opacity:1" fill="#afb9ba" d="M 108.5,303.5 C 108.335,307.182 108.501,310.848 109,314.5C 109.465,315.931 110.299,317.097 111.5,318C 114.167,318.667 116.833,318.667 119.5,318C 122.247,316.396 125.247,315.562 128.5,315.5C 127.473,317.194 126.139,318.527 124.5,319.5C 109.751,322.755 104.417,317.422 108.5,303.5 Z"/></g>
<g><path style="opacity:1" fill="#4d5d5d" d="M 128.5,315.5 C 130.308,316.918 130.975,318.918 130.5,321.5C 127.918,321.975 125.918,321.308 124.5,319.5C 126.139,318.527 127.473,317.194 128.5,315.5 Z"/></g>
<g><path style="opacity:1" fill="#433534" d="M 283.5,326.5 C 286.547,323.81 290.213,322.476 294.5,322.5C 293.662,330.683 289.328,333.683 281.5,331.5C 280.221,329.059 280.887,327.392 283.5,326.5 Z"/></g>
<g><path style="opacity:1" fill="#6a6267" d="M 273.5,325.5 C 269.466,325.505 265.466,325.838 261.5,326.5C 263.679,325.074 266.179,324.408 269,324.5C 270.707,324.508 272.207,324.842 273.5,325.5 Z"/></g>
<g><path style="opacity:1" fill="#271715" d="M 283.5,326.5 C 284.583,326.461 285.583,326.127 286.5,325.5C 287.833,326.5 289.167,327.5 290.5,328.5C 288.378,330.115 286.045,330.615 283.5,330C 282.316,328.855 282.316,327.688 283.5,326.5 Z"/></g>
<g><path style="opacity:1" fill="#282025" d="M 273.5,325.5 C 274.573,326.251 274.74,327.251 274,328.5C 269.598,332.583 264.432,335.25 258.5,336.5C 257.5,336.5 256.5,336.5 255.5,336.5C 255.343,335.127 255.51,333.793 256,332.5C 258.04,330.63 259.873,328.63 261.5,326.5C 265.466,325.838 269.466,325.505 273.5,325.5 Z"/></g>
<g><path style="opacity:1" fill="#877d7f" d="M 261.5,326.5 C 259.873,328.63 258.04,330.63 256,332.5C 255.51,333.793 255.343,335.127 255.5,336.5C 256.5,336.5 257.5,336.5 258.5,336.5C 257.432,337.434 256.099,337.768 254.5,337.5C 253.983,332.017 256.316,328.351 261.5,326.5 Z"/></g>
<g><path style="opacity:1" fill="#8c9ca7" d="M 355.5,290.5 C 356.568,289.566 357.901,289.232 359.5,289.5C 360.494,299.653 360.828,309.986 360.5,320.5C 360.5,338.167 360.5,355.833 360.5,373.5C 359.609,346 358.942,318.333 358.5,290.5C 357.5,290.5 356.5,290.5 355.5,290.5 Z"/></g>
<g><path style="opacity:1" fill="#e5d7d3" d="M 142.5,321.5 C 143.469,325.817 144.803,330.15 146.5,334.5C 145.978,335.607 145.645,336.774 145.5,338C 147.269,347.745 147.936,357.579 147.5,367.5C 146.167,367.5 144.833,367.5 143.5,367.5C 143.338,369.527 143.505,371.527 144,373.5C 146.686,374.676 149.019,376.343 151,378.5C 151.175,374.789 151.675,371.122 152.5,367.5C 154.161,378.115 155.161,388.782 155.5,399.5C 153.5,399.5 151.5,399.5 149.5,399.5C 149.112,408.061 150.278,416.394 153,424.5C 154.725,419.045 155.559,413.378 155.5,407.5C 156.833,407.5 158.167,407.5 159.5,407.5C 158.844,403.636 157.844,399.803 156.5,396C 157.497,394.404 158.663,392.904 160,391.5C 160.497,394.146 160.664,396.813 160.5,399.5C 162.167,399.5 163.833,399.5 165.5,399.5C 165.701,403.35 167.534,404.35 171,402.5C 171.499,406.821 171.666,411.154 171.5,415.5C 172.833,415.5 174.167,415.5 175.5,415.5C 175.5,420.833 175.5,426.167 175.5,431.5C 174.167,431.5 172.833,431.5 171.5,431.5C 171.5,436.833 171.5,442.167 171.5,447.5C 173.288,447.215 174.955,447.548 176.5,448.5C 181.167,453.167 185.833,457.833 190.5,462.5C 196.128,463.495 201.794,463.829 207.5,463.5C 207.5,465.5 207.5,467.5 207.5,469.5C 209.429,469.231 211.095,469.731 212.5,471C 208.829,476.173 205.163,481.34 201.5,486.5C 195.799,488.98 189.799,490.146 183.5,490C 186.167,490.333 188.833,490.667 191.5,491C 180.833,491.667 180.833,492.333 191.5,493C 179.053,493.231 166.72,494.398 154.5,496.5C 152.568,495.855 151.401,494.521 151,492.5C 151.985,498.661 149.485,501.995 143.5,502.5C 143.608,498.753 143.108,495.086 142,491.5C 140.956,492.623 140.29,493.956 140,495.5C 139.667,495.167 139.333,494.833 139,494.5C 138.833,492 138.667,489.5 138.5,487C 141.852,468.544 142.185,450.044 139.5,431.5C 140.167,420.833 140.833,410.167 141.5,399.5C 140.831,388.823 140.165,378.156 139.5,367.5C 140.828,362.544 141.495,357.211 141.5,351.5C 140.526,341.305 140.859,331.305 142.5,321.5 Z"/></g>
<g><path style="opacity:1" fill="#907e7e" d="M 282.5,379.5 C 281.5,379.5 280.5,379.5 279.5,379.5C 279.5,378.5 279.5,377.5 279.5,376.5C 280.5,376.5 281.5,376.5 282.5,376.5C 282.5,377.5 282.5,378.5 282.5,379.5 Z"/></g>
<g><path style="opacity:1" fill="#b4a7a5" d="M 302.5,391.5 C 302.586,390.504 302.252,389.671 301.5,389C 298.5,388 295.5,387 292.5,386C 291.058,385.623 290.058,384.79 289.5,383.5C 289.167,382.833 288.833,382.167 288.5,381.5C 289.583,381.461 290.583,381.127 291.5,380.5C 293.301,384.907 296.634,387.074 301.5,387C 302.728,387.779 303.728,388.779 304.5,390C 304.164,391.03 303.497,391.53 302.5,391.5 Z"/></g>
<g><path style="opacity:1" fill="#7e6d6d" d="M 282.5,379.5 C 284.315,380.63 286.315,381.296 288.5,381.5C 288.833,382.167 289.167,382.833 289.5,383.5C 286.188,383.851 283.855,382.518 282.5,379.5 Z"/></g>
<g><path style="opacity:1" fill="#ccbbb9" d="M 238.5,383.5 C 246.65,384.493 254.983,384.826 263.5,384.5C 253,386.152 242.333,386.486 231.5,385.5C 231.5,386.5 231.5,387.5 231.5,388.5C 230.549,387.081 230.216,385.415 230.5,383.5C 233.309,383.957 235.976,383.957 238.5,383.5 Z"/></g>
<g><path style="opacity:1" fill="#8a959f" d="M 128.5,315.5 C 129.209,314.596 130.209,314.263 131.5,314.5C 131.5,380.167 131.5,445.833 131.5,511.5C 131.167,511.5 130.833,511.5 130.5,511.5C 130.5,452.833 130.5,394.167 130.5,335.5C 130.5,330.833 130.5,326.167 130.5,321.5C 130.975,318.918 130.308,316.918 128.5,315.5 Z"/></g>
<g><path style="opacity:1" fill="#1d1615" d="M 279.5,379.5 C 280.5,379.5 281.5,379.5 282.5,379.5C 283.855,382.518 286.188,383.851 289.5,383.5C 290.058,384.79 291.058,385.623 292.5,386C 295.5,387 298.5,388 301.5,389C 302.252,389.671 302.586,390.504 302.5,391.5C 301.833,391.5 301.167,391.5 300.5,391.5C 285.836,391.056 271.17,390.722 256.5,390.5C 249.066,390.763 241.733,390.763 234.5,390.5C 232.973,390.573 231.973,389.906 231.5,388.5C 231.5,387.5 231.5,386.5 231.5,385.5C 242.333,386.486 253,386.152 263.5,384.5C 267.846,384.666 272.179,384.499 276.5,384C 277.897,382.69 278.897,381.19 279.5,379.5 Z"/></g>
<g><path style="opacity:1" fill="#4a3b37" d="M 234.5,390.5 C 241.733,390.763 249.066,390.763 256.5,390.5C 253.167,391.167 249.833,391.833 246.5,392.5C 243.5,392.5 240.5,392.5 237.5,392.5C 236.5,391.833 235.5,391.167 234.5,390.5 Z"/></g>
<g><path style="opacity:1" fill="#706561" d="M 256.5,390.5 C 271.17,390.722 285.836,391.056 300.5,391.5C 282.674,392.497 264.674,392.83 246.5,392.5C 249.833,391.833 253.167,391.167 256.5,390.5 Z"/></g>
<g><path style="opacity:1" fill="#e6dcd3" d="M 139.5,367.5 C 140.165,378.156 140.831,388.823 141.5,399.5C 140.833,410.167 140.167,420.833 139.5,431.5C 142.185,450.044 141.852,468.544 138.5,487C 138.667,489.5 138.833,492 139,494.5C 139.333,494.833 139.667,495.167 140,495.5C 140.29,493.956 140.956,492.623 142,491.5C 143.108,495.086 143.608,498.753 143.5,502.5C 143.5,502.833 143.5,503.167 143.5,503.5C 141.589,503.426 140.422,502.426 140,500.5C 138.134,504.648 136.634,504.481 135.5,500C 136.059,499.275 136.392,498.442 136.5,497.5C 134.58,480.732 133.246,464.066 132.5,447.5C 132.333,409.165 132.5,370.832 133,332.5C 133.85,330.99 134.683,329.49 135.5,328C 134.638,323.564 135.472,323.397 138,327.5C 139.332,340.796 139.832,354.129 139.5,367.5 Z"/></g>
<g><path style="opacity:1" fill="#d3d6d4" d="M 355.5,290.5 C 356.5,290.5 357.5,290.5 358.5,290.5C 358.942,318.333 359.609,346 360.5,373.5C 362.881,393.461 359.881,412.461 351.5,430.5C 343.59,439.245 335.257,447.411 326.5,455C 321.113,457.354 316.113,460.188 311.5,463.5C 311.167,463.5 310.833,463.5 310.5,463.5C 310.281,462.325 310.614,461.325 311.5,460.5C 315.77,458.449 319.603,455.783 323,452.5C 323.333,452.833 323.667,453.167 324,453.5C 326.148,452.195 327.648,450.362 328.5,448C 331.107,447.363 333.44,446.196 335.5,444.5C 336.386,443.675 336.719,442.675 336.5,441.5C 337.5,441.5 338.5,441.5 339.5,441.5C 339.351,440.448 339.517,439.448 340,438.5C 343.988,435.513 346.821,431.68 348.5,427C 348.167,426.667 347.833,426.333 347.5,426C 348.5,425.5 349.5,425 350.5,424.5C 352.101,420.8 354.101,417.3 356.5,414C 357.142,406.701 357.475,399.367 357.5,392C 356.557,366.398 356.557,340.731 357.5,315C 356.991,307.154 356.324,299.321 355.5,291.5C 350.278,292.969 344.945,293.636 339.5,293.5C 344.642,292.141 349.975,291.141 355.5,290.5 Z"/></g>
<g><path style="opacity:1" fill="#e3dcd6" d="M 310.5,463.5 C 303.608,465.64 296.608,467.306 289.5,468.5C 274.83,468.333 260.163,468.5 245.5,469C 243.781,470.87 242.781,473.037 242.5,475.5C 239.255,482.077 236.255,488.743 233.5,495.5C 232.503,495.47 231.836,495.97 231.5,497C 230.29,501.904 228.957,506.738 227.5,511.5C 195.833,511.5 164.167,511.5 132.5,511.5C 132.5,490.167 132.5,468.833 132.5,447.5C 133.246,464.066 134.58,480.732 136.5,497.5C 136.392,498.442 136.059,499.275 135.5,500C 136.634,504.481 138.134,504.648 140,500.5C 140.422,502.426 141.589,503.426 143.5,503.5C 156.842,502.904 170.175,502.071 183.5,501C 178.136,500.829 172.802,500.329 167.5,499.5C 170.107,498.682 172.774,498.182 175.5,498C 164.864,497.172 164.864,496.672 175.5,496.5C 181.398,496.684 186.898,498.017 192,500.5C 196.268,499.781 200.102,498.115 203.5,495.5C 206.203,496.039 207.703,497.705 208,500.5C 211.323,498.276 211.823,495.776 209.5,493C 209.943,491.175 210.277,489.342 210.5,487.5C 212.833,487.5 215.167,487.5 217.5,487.5C 218.143,484.047 219.476,480.881 221.5,478C 221.012,475.023 219.678,472.523 217.5,470.5C 220.447,469.679 223.447,469.179 226.5,469C 228.174,467.494 229.174,465.661 229.5,463.5C 232.983,463.309 236.316,462.643 239.5,461.5C 239.215,459.712 239.548,458.045 240.5,456.5C 245.261,458.37 250.261,459.037 255.5,458.5C 255.238,459.978 255.571,461.311 256.5,462.5C 259.192,461.118 262.026,460.118 265,459.5C 272.497,460.022 272.997,458.522 266.5,455C 271.414,453.839 276.414,453.006 281.5,452.5C 286.338,452.558 289.005,454.891 289.5,459.5C 292.833,458.833 296.167,458.167 299.5,457.5C 299.5,454.167 299.5,450.833 299.5,447.5C 302.898,447.18 306.232,447.513 309.5,448.5C 309.023,449.478 308.357,450.311 307.5,451C 308.5,451.667 309.5,451.667 310.5,451C 311.152,448.91 311.319,446.743 311,444.5C 314.44,438.689 318.44,437.022 323,439.5C 325.283,439.051 326.783,437.717 327.5,435.5C 326.349,434.269 325.183,434.269 324,435.5C 323.51,434.207 323.343,432.873 323.5,431.5C 324.5,431.5 325.5,431.5 326.5,431.5C 327.547,425.266 331.047,422.266 337,422.5C 340.191,420.72 341.358,418.22 340.5,415C 342.362,410.11 344.362,405.276 346.5,400.5C 347.62,389.73 347.62,378.897 346.5,368C 348.167,367.667 349.833,367.333 351.5,367C 348.698,363.112 348.365,359.279 350.5,355.5C 347.92,338.279 346.92,320.945 347.5,303.5C 338.958,303.774 338.625,302.941 346.5,301C 347.833,300.333 347.833,299.667 346.5,299C 342.498,298.641 338.498,298.808 334.5,299.5C 330.646,299.453 326.979,298.62 323.5,297C 329.037,296.153 334.37,294.987 339.5,293.5C 344.945,293.636 350.278,292.969 355.5,291.5C 356.324,299.321 356.991,307.154 357.5,315C 356.557,340.731 356.557,366.398 357.5,392C 357.475,399.367 357.142,406.701 356.5,414C 354.101,417.3 352.101,420.8 350.5,424.5C 349.5,425 348.5,425.5 347.5,426C 347.833,426.333 348.167,426.667 348.5,427C 346.821,431.68 343.988,435.513 340,438.5C 339.517,439.448 339.351,440.448 339.5,441.5C 338.5,441.5 337.5,441.5 336.5,441.5C 336.719,442.675 336.386,443.675 335.5,444.5C 333.44,446.196 331.107,447.363 328.5,448C 327.648,450.362 326.148,452.195 324,453.5C 323.667,453.167 323.333,452.833 323,452.5C 319.603,455.783 315.77,458.449 311.5,460.5C 310.614,461.325 310.281,462.325 310.5,463.5 Z"/></g>
<g><path style="opacity:1" fill="#648494" d="M 360.5,320.5 C 361.257,327.177 361.923,334.01 362.5,341C 362.217,351.644 362.217,362.144 362.5,372.5C 363.66,372.437 364.994,372.77 366.5,373.5C 366.833,377.667 367.167,381.833 367.5,386C 367.464,390.589 366.798,394.923 365.5,399C 366.211,401.796 366.878,404.63 367.5,407.5C 366.965,409.271 366.131,409.604 365,408.5C 364.443,410.615 363.609,412.615 362.5,414.5C 363.325,415.386 364.325,415.719 365.5,415.5C 365.244,417.937 364.577,420.271 363.5,422.5C 364.025,423.192 364.692,423.692 365.5,424C 363.709,426.106 363.042,428.606 363.5,431.5C 361.774,431.185 360.107,431.019 358.5,431C 359.059,431.725 359.392,432.558 359.5,433.5C 357.854,438.085 356.521,442.752 355.5,447.5C 356.833,447.5 358.167,447.5 359.5,447.5C 359.334,453.509 359.501,459.509 360,465.5C 361.715,468.397 364.215,469.731 367.5,469.5C 367.042,472.394 367.709,474.894 369.5,477C 369.043,477.414 368.709,477.914 368.5,478.5C 370.743,479.474 373.076,479.808 375.5,479.5C 375.334,484.844 375.501,490.177 376,495.5C 378.139,497.806 379.639,500.473 380.5,503.5C 381.333,502.5 382.167,501.5 383,500.5C 383.497,503.146 383.664,505.813 383.5,508.5C 372.833,508.167 362.167,507.833 351.5,507.5C 351.5,508.833 351.5,510.167 351.5,511.5C 313.833,511.5 276.167,511.5 238.5,511.5C 237.103,510.181 236.437,508.514 236.5,506.5C 237.839,498.48 240.339,490.813 244,483.5C 243.805,477.952 246.638,474.119 252.5,472C 266.833,471.667 281.167,471.333 295.5,471C 300.018,470.204 304.351,468.871 308.5,467C 309.71,465.961 310.71,464.794 311.5,463.5C 316.113,460.188 321.113,457.354 326.5,455C 335.257,447.411 343.59,439.245 351.5,430.5C 359.881,412.461 362.881,393.461 360.5,373.5C 360.5,355.833 360.5,338.167 360.5,320.5 Z"/></g>
<g><path style="opacity:1" fill="#b6bcbe" d="M 289.5,468.5 C 275.673,469.331 261.673,469.831 247.5,470C 245.598,471.73 243.931,473.563 242.5,475.5C 242.781,473.037 243.781,470.87 245.5,469C 260.163,468.5 274.83,468.333 289.5,468.5 Z"/></g>
<g><path style="opacity:1" fill="#7c8f9c" d="M 310.5,463.5 C 310.833,463.5 311.167,463.5 311.5,463.5C 310.71,464.794 309.71,465.961 308.5,467C 304.351,468.871 300.018,470.204 295.5,471C 281.167,471.333 266.833,471.667 252.5,472C 246.638,474.119 243.805,477.952 244,483.5C 240.339,490.813 237.839,498.48 236.5,506.5C 236.437,508.514 237.103,510.181 238.5,511.5C 235.5,511.5 232.5,511.5 229.5,511.5C 230.535,506.026 231.868,500.693 233.5,495.5C 236.255,488.743 239.255,482.077 242.5,475.5C 243.931,473.563 245.598,471.73 247.5,470C 261.673,469.831 275.673,469.331 289.5,468.5C 296.608,467.306 303.608,465.64 310.5,463.5 Z"/></g>
<g><path style="opacity:1" fill="#b0bbc3" d="M 233.5,495.5 C 231.868,500.693 230.535,506.026 229.5,511.5C 228.833,511.5 228.167,511.5 227.5,511.5C 228.957,506.738 230.29,501.904 231.5,497C 231.836,495.97 232.503,495.47 233.5,495.5 Z"/></g>
</svg>
