<?xml version="1.0" encoding="UTF-8"?>
<!DOCTYPE svg PUBLIC "-//W3C//DTD SVG 1.1//EN" "http://www.w3.org/Graphics/SVG/1.1/DTD/svg11.dtd">
<svg xmlns="http://www.w3.org/2000/svg" version="1.1" width="512px" height="512px" style="shape-rendering:geometricPrecision; text-rendering:geometricPrecision; image-rendering:optimizeQuality; fill-rule:evenodd; clip-rule:evenodd" xmlns:xlink="http://www.w3.org/1999/xlink">
<g><path style="opacity:1" fill="#96534d" d="M -0.5,-0.5 C 170.167,-0.5 340.833,-0.5 511.5,-0.5C 511.5,7.5 511.5,15.5 511.5,23.5C 510.795,26.2281 510.128,29.0614 509.5,32C 510.607,52.9024 510.607,74.0691 509.5,95.5C 508.823,99.5987 507.823,103.599 506.5,107.5C 507.95,111.327 507.784,114.993 506,118.5C 505.667,116.167 505.333,113.833 505,111.5C 504.831,116.828 504.998,122.162 505.5,127.5C 506.5,127.5 507.5,127.5 508.5,127.5C 509.045,143.123 509.712,158.623 510.5,174C 509.768,187.539 508.935,201.039 508,214.5C 508.333,213.167 508.667,211.833 509,210.5C 507.966,219.735 507.3,229.068 507,238.5C 506.667,236.167 506.333,233.833 506,231.5C 503.909,236.612 502.742,241.946 502.5,247.5C 505.082,272.785 505.749,298.119 504.5,323.5C 504.833,327.5 505.167,331.5 505.5,335.5C 506.086,335.709 506.586,336.043 507,336.5C 507.769,340.514 508.603,344.514 509.5,348.5C 509.224,350.33 508.557,351.997 507.5,353.5C 504.585,350.365 501.585,347.198 498.5,344C 497.552,343.517 496.552,343.351 495.5,343.5C 495.666,348.179 495.499,352.845 495,357.5C 490.136,359.191 487.303,362.524 486.5,367.5C 488.167,367.5 489.833,367.5 491.5,367.5C 491.5,372.833 491.5,378.167 491.5,383.5C 493.833,383.5 496.167,383.5 498.5,383.5C 498.5,399.509 498.834,415.509 499.5,431.5C 498.167,431.5 496.833,431.5 495.5,431.5C 495.334,437.842 495.5,444.175 496,450.5C 497.848,448.047 500.348,447.047 503.5,447.5C 505.042,465.79 506.042,484.124 506.5,502.5C 506.099,506.401 503.932,508.401 500,508.5C 497.277,507.39 494.444,506.724 491.5,506.5C 466.329,507.938 440.996,508.271 415.5,507.5C 415.527,509.199 416.194,510.533 417.5,511.5C 406.167,511.5 394.833,511.5 383.5,511.5C 383.5,510.5 383.5,509.5 383.5,508.5C 370.691,509.29 358.357,507.29 346.5,502.5C 347.482,499.091 346.149,496.758 342.5,495.5C 340.999,496.752 339.332,497.752 337.5,498.5C 336.498,500.51 335.498,502.51 334.5,504.5C 330.07,502.48 325.736,500.314 321.5,498C 322.779,496.354 324.445,495.187 326.5,494.5C 329.235,488.364 331.401,482.03 333,475.5C 335.37,474.872 337.703,474.539 340,474.5C 342.86,470.685 344.193,466.352 344,461.5C 345.244,464.638 345.911,467.972 346,471.5C 348.516,468.962 350.016,466.295 350.5,463.5C 351.167,465.5 351.833,467.5 352.5,469.5C 353.086,469.291 353.586,468.957 354,468.5C 353.798,463.859 354.965,459.693 357.5,456C 360.817,455.502 364.15,455.335 367.5,455.5C 367.824,451.445 367.491,447.445 366.5,443.5C 364.889,444.32 364.222,445.654 364.5,447.5C 363.5,447.5 362.5,447.5 361.5,447.5C 361.5,445.833 361.5,444.167 361.5,442.5C 362.5,442.5 363.5,442.5 364.5,442.5C 364.756,440.063 365.423,437.729 366.5,435.5C 365.754,434.264 365.421,432.93 365.5,431.5C 364.167,431.5 362.833,431.5 361.5,431.5C 361.864,426.709 362.864,422.042 364.5,417.5C 363.211,411.813 363.211,406.147 364.5,400.5C 363.92,397.689 363.254,395.023 362.5,392.5C 362.5,384.167 362.5,375.833 362.5,367.5C 363.966,366.653 364.8,365.32 365,363.5C 366.326,357.862 367.493,352.195 368.5,346.5C 372.052,343.727 373.719,340.06 373.5,335.5C 375.591,335.682 377.591,335.348 379.5,334.5C 380.012,332.149 381.012,330.149 382.5,328.5C 383.239,315.178 383.572,302.178 383.5,289.5C 383.5,282.5 383.5,275.5 383.5,268.5C 383.5,264.833 383.5,261.167 383.5,257.5C 385.527,257.338 387.527,257.505 389.5,258C 391.114,260.127 393.114,261.627 395.5,262.5C 396.312,263.993 397.645,264.66 399.5,264.5C 403.015,264.641 405.682,263.307 407.5,260.5C 405.975,254.963 405.309,249.296 405.5,243.5C 405.309,237.704 405.975,232.037 407.5,226.5C 406.353,224.415 407.02,222.915 409.5,222C 408.688,216.913 408.688,211.746 409.5,206.5C 408.996,198.798 408.163,191.131 407,183.5C 406.422,180.47 405.255,177.803 403.5,175.5C 403.167,175.5 402.833,175.5 402.5,175.5C 402.5,170.167 402.5,164.833 402.5,159.5C 405.5,159.5 408.5,159.5 411.5,159.5C 412.236,157.771 413.57,156.771 415.5,156.5C 416.607,157.992 418.107,158.992 420,159.5C 421.537,158.886 422.87,158.886 424,159.5C 424.87,158.892 425.37,158.059 425.5,157C 424.852,155.56 424.519,154.06 424.5,152.5C 425.5,152.5 426.5,152.5 427.5,152.5C 426.637,154.895 426.637,157.229 427.5,159.5C 429.664,156.51 431.83,153.51 434,150.5C 435.202,148.323 435.702,145.989 435.5,143.5C 436.5,143.5 437.5,143.5 438.5,143.5C 438.28,137.858 439.28,132.525 441.5,127.5C 440.167,127.5 438.833,127.5 437.5,127.5C 438.066,124.417 438.066,121.417 437.5,118.5C 435.865,117.319 434.198,117.319 432.5,118.5C 431.702,116.922 431.202,115.256 431,113.5C 430.692,114.308 430.192,114.975 429.5,115.5C 428.416,114.335 427.583,113.002 427,111.5C 427.417,105.677 425.917,100.511 422.5,96C 422.395,93.1947 422.728,90.3613 423.5,87.5C 420.911,88.4379 418.411,88.7712 416,88.5C 413.878,87.7801 413.378,86.6134 414.5,85C 412.167,83.7574 411.5,82.0907 412.5,80C 409.118,79.8236 405.785,79.3236 402.5,78.5C 400.82,77.2311 399.653,75.5644 399,73.5C 398.612,74.428 397.945,75.0946 397,75.5C 392.443,73.8049 387.943,71.9716 383.5,70C 380.183,69.5017 376.85,69.335 373.5,69.5C 371.621,68.6586 369.621,68.3253 367.5,68.5C 365.721,66.6565 363.388,65.9898 360.5,66.5C 359.909,65.8485 359.243,65.1818 358.5,64.5C 354.667,64.1667 350.833,63.8333 347,63.5C 310.176,64.4112 273.342,64.4112 236.5,63.5C 235.5,63.6667 234.5,63.8333 233.5,64C 234.634,65.016 234.301,65.6827 232.5,66C 231,66.1667 229.5,66.3333 228,66.5C 223.909,65.2676 219.742,64.6009 215.5,64.5C 215.5,62.8333 215.5,61.1667 215.5,59.5C 201.94,58.3192 188.44,58.3192 175,59.5C 171.744,58.6517 168.411,57.985 165,57.5C 159.213,58.4058 153.547,58.7391 148,58.5C 146.188,58.5066 144.688,57.84 143.5,56.5C 140.333,56.1667 137.167,55.8333 134,55.5C 126.505,56.0125 119.005,56.3458 111.5,56.5C 111.5,55.5 111.5,54.5 111.5,53.5C 100.833,54.1667 90.1667,54.8333 79.5,55.5C 79.2229,58.4475 79.5562,61.2809 80.5,64C 78.3659,64.1273 76.1993,63.9607 74,63.5C 70.5918,64.6191 67.0918,65.2857 63.5,65.5C 63.5,67.5 63.5,69.5 63.5,71.5C 55.5519,71.7224 53.5519,75.389 57.5,82.5C 56.5723,86.8031 55.9056,91.1364 55.5,95.5C 53.8333,95.5 52.1667,95.5 50.5,95.5C 50.5688,100.854 50.9022,106.187 51.5,111.5C 50.1667,111.5 48.8333,111.5 47.5,111.5C 48.907,127.491 50.2403,143.491 51.5,159.5C 52.5,159.5 53.5,159.5 54.5,159.5C 55.0542,165.395 54.3876,171.062 52.5,176.5C 53.4476,181.435 53.781,186.435 53.5,191.5C 54.5,191.5 55.5,191.5 56.5,191.5C 56.4211,193.666 55.7545,195.666 54.5,197.5C 54.6667,198.167 54.8333,198.833 55,199.5C 56.3333,198.833 57.3333,197.833 58,196.5C 58.2463,199.89 58.7463,203.223 59.5,206.5C 58.3112,207.429 56.9778,207.762 55.5,207.5C 55.2229,210.448 55.5562,213.281 56.5,216C 55.9535,216.925 55.2868,217.758 54.5,218.5C 53.9899,227.418 52.9899,236.251 51.5,245C 51.8443,246.365 52.5109,247.532 53.5,248.5C 52.5714,250.322 53.2381,251.655 55.5,252.5C 54.5,253.333 53.5,254.167 52.5,255C 53.4491,255.617 54.2825,255.451 55,254.5C 55.4012,256.521 56.5679,257.855 58.5,258.5C 59.4922,262.783 59.8256,267.116 59.5,271.5C 60.8333,271.5 62.1667,271.5 63.5,271.5C 63.3398,269.801 63.5065,268.134 64,266.5C 67.178,270.859 67.178,275.192 64,279.5C 63.3333,281.833 63.3333,284.167 64,286.5C 66.0395,281.533 68.2061,281.366 70.5,286C 69.6705,287.465 69.5038,288.965 70,290.5C 71.3848,291.551 72.3848,292.884 73,294.5C 75.0408,295.423 77.2075,295.756 79.5,295.5C 79.3433,294.127 79.51,292.793 80,291.5C 81.1285,294.263 82.6285,296.763 84.5,299C 83.4629,301.245 82.1295,303.079 80.5,304.5C 78.2602,312.013 79.4269,313.346 84,308.5C 86.172,309.585 88.172,310.919 90,312.5C 90.0279,315.733 88.8612,318.567 86.5,321C 88.3533,325.686 91.6866,328.852 96.5,330.5C 97.4519,332.045 97.7852,333.712 97.5,335.5C 98.8333,335.5 100.167,335.5 101.5,335.5C 101.929,332.637 102.929,329.971 104.5,327.5C 107.167,329.5 107.167,331.5 104.5,333.5C 102.274,341.25 104.941,344.584 112.5,343.5C 111.438,346.103 111.272,348.77 112,351.5C 115.854,361.896 119.02,372.563 121.5,383.5C 120.5,383.5 119.5,383.5 118.5,383.5C 118.491,385.308 118.991,386.975 120,388.5C 123.15,390.121 123.984,392.454 122.5,395.5C 124.297,402.224 126.297,408.891 128.5,415.5C 130.879,412.249 131.879,408.582 131.5,404.5C 133.026,405.492 133.693,406.992 133.5,409C 133.377,412.682 132.044,415.849 129.5,418.5C 132.487,421.679 132.154,424.346 128.5,426.5C 127.343,429.784 127.176,433.118 128,436.5C 129.043,434.299 129.877,431.966 130.5,429.5C 134.247,433.598 134.413,437.932 131,442.5C 126.04,441.899 122.206,443.899 119.5,448.5C 113.813,449.208 108.146,449.875 102.5,450.5C 102.167,451.167 101.833,451.833 101.5,452.5C 102.651,454.325 103.318,456.325 103.5,458.5C 100.881,458.768 98.3806,458.435 96,457.5C 95.3698,459.903 96.2031,461.737 98.5,463C 95.1832,463.498 91.8499,463.665 88.5,463.5C 87.697,468.476 84.8636,471.809 80,473.5C 79.5045,475.473 79.3379,477.473 79.5,479.5C 75.1382,478.858 71.8048,480.358 69.5,484C 67.6547,485.128 65.6547,485.628 63.5,485.5C 63.7771,488.448 63.4438,491.281 62.5,494C 59.2889,495.153 55.9555,495.82 52.5,496C 53.5,496.833 54.5,497.667 55.5,498.5C 54.5,499.333 53.5,500.167 52.5,501C 56.2479,500.78 59.2479,502.113 61.5,505C 51.5378,506.248 41.5378,507.081 31.5,507.5C 25.5321,507.432 19.6987,506.766 14,505.5C 11.4252,507.321 8.75852,507.654 6,506.5C 5.93505,504.117 5.10172,503.45 3.5,504.5C 3.16667,503.5 2.83333,502.5 2.5,501.5C 3.72814,494.166 3.72814,486.833 2.5,479.5C 1.91395,479.709 1.41395,480.043 1,480.5C 0.833131,341.333 0.333131,202.333 -0.5,63.5C -0.5,42.1667 -0.5,20.8333 -0.5,-0.5 Z"/></g>
<g><path style="opacity:1" fill="#94504f" d="M 360.5,66.5 C 327.329,66.1684 294.329,66.5017 261.5,67.5C 259.5,67.5 257.5,67.5 255.5,67.5C 246.491,67.6256 237.491,67.959 228.5,68.5C 214.062,69.8748 199.729,70.5414 185.5,70.5C 174.048,70.481 163.048,68.3144 152.5,64C 138.837,63.5001 125.171,63.3334 111.5,63.5C 111.881,62.0689 112.881,61.2355 114.5,61C 113.552,60.5172 112.552,60.3505 111.5,60.5C 111.5,59.1667 111.5,57.8333 111.5,56.5C 119.005,56.3458 126.505,56.0125 134,55.5C 137.167,55.8333 140.333,56.1667 143.5,56.5C 144.688,57.84 146.188,58.5066 148,58.5C 153.547,58.7391 159.213,58.4058 165,57.5C 168.411,57.985 171.744,58.6517 175,59.5C 188.44,58.3192 201.94,58.3192 215.5,59.5C 215.5,61.1667 215.5,62.8333 215.5,64.5C 219.742,64.6009 223.909,65.2676 228,66.5C 229.5,66.3333 231,66.1667 232.5,66C 234.301,65.6827 234.634,65.016 233.5,64C 234.5,63.8333 235.5,63.6667 236.5,63.5C 273.342,64.4112 310.176,64.4112 347,63.5C 350.833,63.8333 354.667,64.1667 358.5,64.5C 359.243,65.1818 359.909,65.8485 360.5,66.5 Z"/></g>
<g><path style="opacity:1" fill="#7c5157" d="M 147.5,65.5 C 135.495,65.3335 123.495,65.5001 111.5,66C 109.292,66.1909 107.292,66.6909 105.5,67.5C 103.579,68.3627 101.579,69.0293 99.5,69.5C 94.793,69.0687 90.793,70.402 87.5,73.5C 84.2623,74.7376 81.5956,76.7376 79.5,79.5C 79.7733,77.549 79.1066,76.049 77.5,75C 81.8628,73.2521 85.8628,70.9188 89.5,68C 94.1603,67.0568 98.8269,66.2234 103.5,65.5C 118.318,64.2444 132.984,64.2444 147.5,65.5 Z"/></g>
<g><path style="opacity:1" fill="#020102" d="M 180.5,73.5 C 196.492,72.2333 212.492,70.8999 228.5,69.5C 237.727,69.8772 246.727,69.2106 255.5,67.5C 257.5,67.5 259.5,67.5 261.5,67.5C 295.172,67.41 328.839,67.7433 362.5,68.5C 369.417,70.7262 376.417,73.0595 383.5,75.5C 387.491,78.8383 392.158,80.8383 397.5,81.5C 401.194,86.5255 406.194,89.5255 412.5,90.5C 415.958,93.9962 418.792,97.9962 421,102.5C 422.157,111.099 423.99,119.433 426.5,127.5C 427.423,131.358 428.423,135.192 429.5,139C 429.95,141.626 428.95,143.126 426.5,143.5C 424.833,143.5 423.167,143.5 421.5,143.5C 421.662,145.527 421.495,147.527 421,149.5C 420.481,150.516 419.647,151.182 418.5,151.5C 416.306,150.175 414.306,148.508 412.5,146.5C 410.978,149.629 410.145,152.963 410,156.5C 409.612,157.428 408.945,158.095 408,158.5C 405.681,157.129 403.181,156.462 400.5,156.5C 400.936,163 401.602,169.334 402.5,175.5C 402.619,181.264 403.452,186.93 405,192.5C 405.5,200.159 405.666,207.826 405.5,215.5C 404.109,217.96 402.942,220.626 402,223.5C 401.667,234.833 401.333,246.167 401,257.5C 399.211,259.229 397.044,259.896 394.5,259.5C 391.268,256.39 387.601,254.056 383.5,252.5C 382.778,252.918 382.278,253.584 382,254.5C 381.185,259.352 381.352,264.019 382.5,268.5C 383.097,277.776 382.097,286.776 379.5,295.5C 380.675,303.661 380.675,311.661 379.5,319.5C 377.156,322.677 374.322,325.344 371,327.5C 367.871,326.017 364.704,324.684 361.5,323.5C 361.5,324.833 361.5,326.167 361.5,327.5C 361.5,330.167 361.5,332.833 361.5,335.5C 361.999,339.475 362.332,343.475 362.5,347.5C 361.744,355.026 360.744,362.526 359.5,370C 359.506,372.033 359.839,373.866 360.5,375.5C 360.5,378.167 360.5,380.833 360.5,383.5C 360.667,394.172 360.5,404.839 360,415.5C 356.225,423.486 353.225,431.819 351,440.5C 345.957,443.027 343.123,447.027 342.5,452.5C 341.076,454.515 340.41,456.848 340.5,459.5C 340.5,460.833 340.5,462.167 340.5,463.5C 339.655,464.671 338.989,466.005 338.5,467.5C 335.921,468.228 333.254,468.728 330.5,469C 329.748,469.671 329.414,470.504 329.5,471.5C 328.833,474.167 328.167,476.833 327.5,479.5C 325.159,481.656 323.159,484.156 321.5,487C 320.207,487.49 318.873,487.657 317.5,487.5C 316.399,486.402 315.066,486.235 313.5,487C 311.158,489.691 308.491,490.857 305.5,490.5C 292.982,489.756 280.316,489.089 267.5,488.5C 262.878,488.455 260.545,490.788 260.5,495.5C 259.442,496.6 258.608,497.934 258,499.5C 257.501,503.486 257.334,507.486 257.5,511.5C 256.833,511.5 256.167,511.5 255.5,511.5C 254.594,507.099 252.928,503.099 250.5,499.5C 249.925,497.589 248.925,495.922 247.5,494.5C 247.423,493.25 246.756,492.417 245.5,492C 240.062,491.329 234.728,490.496 229.5,489.5C 216.755,489.845 204.088,489.012 191.5,487C 190.016,486.338 188.683,485.504 187.5,484.5C 186.713,482.896 185.38,482.229 183.5,482.5C 175.878,478.239 169.878,479.906 165.5,487.5C 163.61,487.703 162.11,487.037 161,485.5C 159.521,481.583 158.354,477.583 157.5,473.5C 157.16,469.869 157.994,466.536 160,463.5C 160.814,458.98 160.647,454.646 159.5,450.5C 156.579,440.002 152.579,430.002 147.5,420.5C 146.361,417.082 145.028,413.749 143.5,410.5C 141.487,404.792 139.487,399.125 137.5,393.5C 136.204,388.607 134.538,383.94 132.5,379.5C 131.806,374.085 130.14,369.085 127.5,364.5C 125.362,354.391 121.695,345.057 116.5,336.5C 116.5,336.167 116.5,335.833 116.5,335.5C 113.453,332.455 110.787,329.122 108.5,325.5C 106.235,319.4 103.235,313.734 99.5,308.5C 97.3357,303.5 94.669,298.833 91.5,294.5C 89.1118,288.727 85.9452,283.393 82,278.5C 80.3091,274.46 78.8091,270.46 77.5,266.5C 77.5,266.167 77.5,265.833 77.5,265.5C 74.5687,254.081 71.902,242.747 69.5,231.5C 69.5,231.167 69.5,230.833 69.5,230.5C 67.3488,221.292 66.0155,211.958 65.5,202.5C 65.02,193.338 64.3533,184.338 63.5,175.5C 63.5,172.167 63.5,168.833 63.5,165.5C 60.7645,140.329 62.7645,115.662 69.5,91.5C 69.5,89.5 70.5,88.5 72.5,88.5C 77.8604,83.8063 82.8604,78.8063 87.5,73.5C 91.8862,73.0342 95.8862,71.7009 99.5,69.5C 101.579,69.0293 103.579,68.3627 105.5,67.5C 120.161,67.332 134.828,67.1653 149.5,67C 153.413,67.9499 156.08,70.2833 157.5,74C 165.345,74.8223 173.011,74.6557 180.5,73.5 Z"/></g>
<g><path style="opacity:1" fill="#442c34" d="M 147.5,65.5 C 151.444,65.9675 155.111,67.3008 158.5,69.5C 159.429,70.6888 159.762,72.0222 159.5,73.5C 166.5,73.5 173.5,73.5 180.5,73.5C 173.011,74.6557 165.345,74.8223 157.5,74C 156.08,70.2833 153.413,67.9499 149.5,67C 134.828,67.1653 120.161,67.332 105.5,67.5C 107.292,66.6909 109.292,66.1909 111.5,66C 123.495,65.5001 135.495,65.3335 147.5,65.5 Z"/></g>
<g><path style="opacity:1" fill="#854b4f" d="M 111.5,63.5 C 125.171,63.3334 138.837,63.5001 152.5,64C 163.048,68.3144 174.048,70.481 185.5,70.5C 199.729,70.5414 214.062,69.8748 228.5,68.5C 228.5,68.8333 228.5,69.1667 228.5,69.5C 212.492,70.8999 196.492,72.2333 180.5,73.5C 173.5,73.5 166.5,73.5 159.5,73.5C 159.762,72.0222 159.429,70.6888 158.5,69.5C 155.111,67.3008 151.444,65.9675 147.5,65.5C 132.984,64.2444 118.318,64.2444 103.5,65.5C 105.905,64.2318 108.572,63.5651 111.5,63.5 Z"/></g>
<g><path style="opacity:1" fill="#71464b" d="M 261.5,67.5 C 294.329,66.5017 327.329,66.1684 360.5,66.5C 363.388,65.9898 365.721,66.6565 367.5,68.5C 365.833,68.5 364.167,68.5 362.5,68.5C 328.839,67.7433 295.172,67.41 261.5,67.5 Z"/></g>
<g><path style="opacity:1" fill="#4f3236" d="M 255.5,67.5 C 246.727,69.2106 237.727,69.8772 228.5,69.5C 228.5,69.1667 228.5,68.8333 228.5,68.5C 237.491,67.959 246.491,67.6256 255.5,67.5 Z"/></g>
<g><path style="opacity:1" fill="#775057" d="M 362.5,68.5 C 364.167,68.5 365.833,68.5 367.5,68.5C 369.621,68.3253 371.621,68.6586 373.5,69.5C 376.935,71.5414 380.268,73.5414 383.5,75.5C 376.417,73.0595 369.417,70.7262 362.5,68.5 Z"/></g>
<g><path style="opacity:1" fill="#2d2027" d="M 99.5,69.5 C 95.8862,71.7009 91.8862,73.0342 87.5,73.5C 90.793,70.402 94.793,69.0687 99.5,69.5 Z"/></g>
<g><path style="opacity:1" fill="#6e4b52" d="M 383.5,75.5 C 385.857,75.3367 388.19,75.5034 390.5,76C 391.357,76.6891 392.023,77.5224 392.5,78.5C 395.295,78.9385 397.628,79.9385 399.5,81.5C 398.833,81.5 398.167,81.5 397.5,81.5C 392.158,80.8383 387.491,78.8383 383.5,75.5 Z"/></g>
<g><path style="opacity:1" fill="#35272d" d="M 87.5,73.5 C 82.8604,78.8063 77.8604,83.8063 72.5,88.5C 74.4273,85.2327 76.7606,82.2327 79.5,79.5C 81.5956,76.7376 84.2623,74.7376 87.5,73.5 Z"/></g>
<g><path style="opacity:1" fill="#412e39" d="M 397.5,81.5 C 398.167,81.5 398.833,81.5 399.5,81.5C 402.336,85.6821 406.336,88.0154 411.5,88.5C 411.833,89.1667 412.167,89.8333 412.5,90.5C 406.194,89.5255 401.194,86.5255 397.5,81.5 Z"/></g>
<g><path style="opacity:1" fill="#765052" d="M 79.5,79.5 C 76.7606,82.2327 74.4273,85.2327 72.5,88.5C 70.5,88.5 69.5,89.5 69.5,91.5C 68.5416,91.9528 67.7083,92.6195 67,93.5C 66.3136,99.7334 65.1469,105.733 63.5,111.5C 63.2809,105.023 64.1142,98.6894 66,92.5C 69.1436,88.351 72.3103,84.1844 75.5,80C 76.7932,79.51 78.1266,79.3433 79.5,79.5 Z"/></g>
<g><path style="opacity:1" fill="#744a4d" d="M 411.5,88.5 C 414.056,89.3777 416.39,90.7111 418.5,92.5C 420.354,96.8983 422.52,101.232 425,105.5C 425.942,112.806 426.442,120.14 426.5,127.5C 423.99,119.433 422.157,111.099 421,102.5C 418.792,97.9962 415.958,93.9962 412.5,90.5C 412.167,89.8333 411.833,89.1667 411.5,88.5 Z"/></g>
<g><path style="opacity:1" fill="#563f43" d="M 69.5,91.5 C 62.7645,115.662 60.7645,140.329 63.5,165.5C 60.9063,147.631 60.9063,129.631 63.5,111.5C 65.1469,105.733 66.3136,99.7334 67,93.5C 67.7083,92.6195 68.5416,91.9528 69.5,91.5 Z"/></g>
<g><path style="opacity:1" fill="#935251" d="M 373.5,69.5 C 376.85,69.335 380.183,69.5017 383.5,70C 387.943,71.9716 392.443,73.8049 397,75.5C 397.945,75.0946 398.612,74.428 399,73.5C 399.653,75.5644 400.82,77.2311 402.5,78.5C 405.785,79.3236 409.118,79.8236 412.5,80C 411.5,82.0907 412.167,83.7574 414.5,85C 413.378,86.6134 413.878,87.7801 416,88.5C 418.411,88.7712 420.911,88.4379 423.5,87.5C 422.728,90.3613 422.395,93.1947 422.5,96C 425.917,100.511 427.417,105.677 427,111.5C 427.583,113.002 428.416,114.335 429.5,115.5C 430.192,114.975 430.692,114.308 431,113.5C 431.202,115.256 431.702,116.922 432.5,118.5C 434.198,117.319 435.865,117.319 437.5,118.5C 438.066,121.417 438.066,124.417 437.5,127.5C 438.833,127.5 440.167,127.5 441.5,127.5C 439.28,132.525 438.28,137.858 438.5,143.5C 437.5,143.5 436.5,143.5 435.5,143.5C 435.702,145.989 435.202,148.323 434,150.5C 431.83,153.51 429.664,156.51 427.5,159.5C 426.637,157.229 426.637,154.895 427.5,152.5C 426.5,152.5 425.5,152.5 424.5,152.5C 424.519,154.06 424.852,155.56 425.5,157C 425.37,158.059 424.87,158.892 424,159.5C 422.87,158.886 421.537,158.886 420,159.5C 418.107,158.992 416.607,157.992 415.5,156.5C 420.295,157.092 423.295,154.759 424.5,149.5C 427.415,148.296 429.581,146.296 431,143.5C 431.635,138.053 431.135,132.72 429.5,127.5C 428.5,127.5 427.5,127.5 426.5,127.5C 426.442,120.14 425.942,112.806 425,105.5C 422.52,101.232 420.354,96.8983 418.5,92.5C 416.39,90.7111 414.056,89.3777 411.5,88.5C 406.336,88.0154 402.336,85.6821 399.5,81.5C 397.628,79.9385 395.295,78.9385 392.5,78.5C 392.023,77.5224 391.357,76.6891 390.5,76C 388.19,75.5034 385.857,75.3367 383.5,75.5C 380.268,73.5414 376.935,71.5414 373.5,69.5 Z"/></g>
<g><path style="opacity:1" fill="#784a4c" d="M 426.5,127.5 C 427.5,127.5 428.5,127.5 429.5,127.5C 431.135,132.72 431.635,138.053 431,143.5C 429.581,146.296 427.415,148.296 424.5,149.5C 423.295,154.759 420.295,157.092 415.5,156.5C 413.57,156.771 412.236,157.771 411.5,159.5C 411.599,156.395 412.599,153.728 414.5,151.5C 416.632,153.117 418.965,153.617 421.5,153C 422.512,149.488 424.179,146.321 426.5,143.5C 428.95,143.126 429.95,141.626 429.5,139C 428.423,135.192 427.423,131.358 426.5,127.5 Z"/></g>
<g><path style="opacity:1" fill="#5d3c42" d="M 426.5,143.5 C 424.179,146.321 422.512,149.488 421.5,153C 418.965,153.617 416.632,153.117 414.5,151.5C 412.599,153.728 411.599,156.395 411.5,159.5C 408.5,159.5 405.5,159.5 402.5,159.5C 402.5,164.833 402.5,170.167 402.5,175.5C 401.602,169.334 400.936,163 400.5,156.5C 403.181,156.462 405.681,157.129 408,158.5C 408.945,158.095 409.612,157.428 410,156.5C 410.145,152.963 410.978,149.629 412.5,146.5C 414.306,148.508 416.306,150.175 418.5,151.5C 419.647,151.182 420.481,150.516 421,149.5C 421.495,147.527 421.662,145.527 421.5,143.5C 423.167,143.5 424.833,143.5 426.5,143.5 Z"/></g>
<g><path style="opacity:1" fill="#815152" d="M 63.5,111.5 C 60.9063,129.631 60.9063,147.631 63.5,165.5C 63.5,168.833 63.5,172.167 63.5,175.5C 63.5,180.833 63.5,186.167 63.5,191.5C 61.78,189.342 60.9467,186.675 61,183.5C 60.3333,162.167 60.3333,140.833 61,119.5C 60.9467,116.325 61.78,113.658 63.5,111.5 Z"/></g>
<g><path style="opacity:1" fill="#3c3030" d="M 63.5,175.5 C 64.3533,184.338 65.02,193.338 65.5,202.5C 64.8333,201.5 64.1667,200.5 63.5,199.5C 63.5,196.833 63.5,194.167 63.5,191.5C 63.5,186.167 63.5,180.833 63.5,175.5 Z"/></g>
<g><path style="opacity:1" fill="#92534e" d="M 111.5,56.5 C 111.5,57.8333 111.5,59.1667 111.5,60.5C 112.552,60.3505 113.552,60.5172 114.5,61C 112.881,61.2355 111.881,62.0689 111.5,63.5C 108.572,63.5651 105.905,64.2318 103.5,65.5C 98.8269,66.2234 94.1603,67.0568 89.5,68C 85.8628,70.9188 81.8628,73.2521 77.5,75C 79.1066,76.049 79.7733,77.549 79.5,79.5C 78.1266,79.3433 76.7932,79.51 75.5,80C 72.3103,84.1844 69.1436,88.351 66,92.5C 64.1142,98.6894 63.2809,105.023 63.5,111.5C 61.78,113.658 60.9467,116.325 61,119.5C 60.3333,140.833 60.3333,162.167 61,183.5C 60.9467,186.675 61.78,189.342 63.5,191.5C 63.5,194.167 63.5,196.833 63.5,199.5C 64.2374,207.524 65.2374,215.524 66.5,223.5C 66.9385,226.295 67.9385,228.628 69.5,230.5C 69.5,230.833 69.5,231.167 69.5,231.5C 69.7509,236.507 70.0843,241.507 70.5,246.5C 72.1261,258.331 74.1261,269.998 76.5,281.5C 77.5,281.5 78.5,281.5 79.5,281.5C 82.3954,282.64 84.3954,284.64 85.5,287.5C 87.2597,292.295 89.2597,297.129 91.5,302C 90.4349,304.934 91.4349,307.101 94.5,308.5C 95.3078,310.423 95.8078,312.423 96,314.5C 96.4512,312.071 97.2845,311.904 98.5,314C 96.8446,315.444 96.178,317.278 96.5,319.5C 98.2624,319.643 99.9291,319.309 101.5,318.5C 101.632,322.367 103.465,325.034 107,326.5C 108.834,329.438 110.334,332.438 111.5,335.5C 113.167,335.5 114.833,335.5 116.5,335.5C 116.5,335.833 116.5,336.167 116.5,336.5C 117.259,343.315 119.426,349.649 123,355.5C 123.607,359.537 123.44,363.537 122.5,367.5C 124.322,367.169 125.989,366.502 127.5,365.5C 128.783,370.351 130.449,375.017 132.5,379.5C 132.5,380.833 132.5,382.167 132.5,383.5C 132.609,387.391 133.609,391.058 135.5,394.5C 135.062,395.506 134.396,395.506 133.5,394.5C 132.548,396.045 132.215,397.712 132.5,399.5C 130.41,392.63 129.077,392.963 128.5,400.5C 129.035,402.261 130.035,403.594 131.5,404.5C 131.879,408.582 130.879,412.249 128.5,415.5C 126.297,408.891 124.297,402.224 122.5,395.5C 123.984,392.454 123.15,390.121 120,388.5C 118.991,386.975 118.491,385.308 118.5,383.5C 119.5,383.5 120.5,383.5 121.5,383.5C 119.02,372.563 115.854,361.896 112,351.5C 111.272,348.77 111.438,346.103 112.5,343.5C 104.941,344.584 102.274,341.25 104.5,333.5C 107.167,331.5 107.167,329.5 104.5,327.5C 102.929,329.971 101.929,332.637 101.5,335.5C 100.167,335.5 98.8333,335.5 97.5,335.5C 97.7852,333.712 97.4519,332.045 96.5,330.5C 91.6866,328.852 88.3533,325.686 86.5,321C 88.8612,318.567 90.0279,315.733 90,312.5C 88.172,310.919 86.172,309.585 84,308.5C 79.4269,313.346 78.2602,312.013 80.5,304.5C 82.1295,303.079 83.4629,301.245 84.5,299C 82.6285,296.763 81.1285,294.263 80,291.5C 79.51,292.793 79.3433,294.127 79.5,295.5C 77.2075,295.756 75.0408,295.423 73,294.5C 72.3848,292.884 71.3848,291.551 70,290.5C 69.5038,288.965 69.6705,287.465 70.5,286C 68.2061,281.366 66.0395,281.533 64,286.5C 63.3333,284.167 63.3333,281.833 64,279.5C 67.178,275.192 67.178,270.859 64,266.5C 63.5065,268.134 63.3398,269.801 63.5,271.5C 62.1667,271.5 60.8333,271.5 59.5,271.5C 59.8256,267.116 59.4922,262.783 58.5,258.5C 56.5679,257.855 55.4012,256.521 55,254.5C 54.2825,255.451 53.4491,255.617 52.5,255C 53.5,254.167 54.5,253.333 55.5,252.5C 53.2381,251.655 52.5714,250.322 53.5,248.5C 52.5109,247.532 51.8443,246.365 51.5,245C 52.9899,236.251 53.9899,227.418 54.5,218.5C 55.2868,217.758 55.9535,216.925 56.5,216C 55.5562,213.281 55.2229,210.448 55.5,207.5C 56.9778,207.762 58.3112,207.429 59.5,206.5C 58.7463,203.223 58.2463,199.89 58,196.5C 57.3333,197.833 56.3333,198.833 55,199.5C 54.8333,198.833 54.6667,198.167 54.5,197.5C 55.7545,195.666 56.4211,193.666 56.5,191.5C 55.5,191.5 54.5,191.5 53.5,191.5C 53.781,186.435 53.4476,181.435 52.5,176.5C 54.3876,171.062 55.0542,165.395 54.5,159.5C 53.5,159.5 52.5,159.5 51.5,159.5C 50.2403,143.491 48.907,127.491 47.5,111.5C 48.8333,111.5 50.1667,111.5 51.5,111.5C 50.9022,106.187 50.5688,100.854 50.5,95.5C 52.1667,95.5 53.8333,95.5 55.5,95.5C 55.9056,91.1364 56.5723,86.8031 57.5,82.5C 53.5519,75.389 55.5519,71.7224 63.5,71.5C 63.5,69.5 63.5,67.5 63.5,65.5C 67.0918,65.2857 70.5918,64.6191 74,63.5C 76.1993,63.9607 78.3659,64.1273 80.5,64C 79.5562,61.2809 79.2229,58.4475 79.5,55.5C 90.1667,54.8333 100.833,54.1667 111.5,53.5C 111.5,54.5 111.5,55.5 111.5,56.5 Z"/></g>
<g><path style="opacity:1" fill="#49393e" d="M 229.5,195.5 C 226.426,195.127 223.426,194.461 220.5,193.5C 220.552,196.346 221.552,198.68 223.5,200.5C 224.167,202.5 224.833,204.5 225.5,206.5C 221.76,201.387 217.76,196.387 213.5,191.5C 219.511,190.171 224.844,191.504 229.5,195.5 Z"/></g>
<g><path style="opacity:1" fill="#746164" d="M 306.5,200.5 C 306.027,201.906 305.027,202.573 303.5,202.5C 303.5,201.5 303.5,200.5 303.5,199.5C 303.5,198.5 303.5,197.5 303.5,196.5C 298.047,196.365 292.714,197.032 287.5,198.5C 287.5,197.833 287.5,197.167 287.5,196.5C 289.565,196.047 291.232,195.047 292.5,193.5C 297.346,191.961 302.346,191.294 307.5,191.5C 307.632,194.57 307.299,197.57 306.5,200.5 Z"/></g>
<g><path style="opacity:1" fill="#4c464c" d="M 292.5,193.5 C 291.232,195.047 289.565,196.047 287.5,196.5C 284.994,197.75 282.327,198.416 279.5,198.5C 283.522,196.266 287.856,194.599 292.5,193.5 Z"/></g>
<g><path style="opacity:1" fill="#4e464f" d="M 308.5,188.5 C 309.833,188.5 311.167,188.5 312.5,188.5C 312.657,189.873 312.49,191.207 312,192.5C 310.252,195.291 308.419,197.958 306.5,200.5C 307.299,197.57 307.632,194.57 307.5,191.5C 302.346,191.294 297.346,191.961 292.5,193.5C 297.446,190.924 302.779,189.258 308.5,188.5 Z"/></g>
<g><path style="opacity:1" fill="#1b161c" d="M 308.5,188.5 C 309.946,187.387 311.613,187.22 313.5,188C 314.022,188.561 314.355,189.228 314.5,190C 313.043,196.613 309.376,201.446 303.5,204.5C 303.5,203.833 303.5,203.167 303.5,202.5C 305.027,202.573 306.027,201.906 306.5,200.5C 308.419,197.958 310.252,195.291 312,192.5C 312.49,191.207 312.657,189.873 312.5,188.5C 311.167,188.5 309.833,188.5 308.5,188.5 Z"/></g>
<g><path style="opacity:1" fill="#5c515b" d="M 229.5,195.5 C 230.833,195.833 232.167,196.167 233.5,196.5C 235.519,197.933 237.686,199.267 240,200.5C 240.608,202.154 241.108,203.821 241.5,205.5C 240.833,205.167 240.167,204.833 239.5,204.5C 235.326,199.746 229.993,197.08 223.5,196.5C 223.5,197.833 223.5,199.167 223.5,200.5C 221.552,198.68 220.552,196.346 220.5,193.5C 223.426,194.461 226.426,195.127 229.5,195.5 Z"/></g>
<g><path style="opacity:1" fill="#0c0105" d="M 220.5,227.5 C 209.619,222.226 198.619,217.226 187.5,212.5C 187.167,211.833 186.833,211.167 186.5,210.5C 190.326,209.52 190.326,208.687 186.5,208C 188.189,205.586 189.689,203.086 191,200.5C 191.674,201.578 192.674,202.245 194,202.5C 198.469,201.561 202.969,200.894 207.5,200.5C 207.5,201.5 207.5,202.5 207.5,203.5C 210.788,203.073 213.788,203.74 216.5,205.5C 217.086,205.291 217.586,204.957 218,204.5C 218.456,205.744 217.956,206.577 216.5,207C 218.562,209.068 219.728,211.568 220,214.5C 223.029,216.029 225.195,218.362 226.5,221.5C 225.221,223.146 223.555,224.313 221.5,225C 220.748,225.671 220.414,226.504 220.5,227.5 Z"/></g>
<g><path style="opacity:1" fill="#8e5051" d="M 403.5,175.5 C 405.255,177.803 406.422,180.47 407,183.5C 408.163,191.131 408.996,198.798 409.5,206.5C 408.688,211.746 408.688,216.913 409.5,222C 407.02,222.915 406.353,224.415 407.5,226.5C 405.975,232.037 405.309,237.704 405.5,243.5C 405.309,249.296 405.975,254.963 407.5,260.5C 405.682,263.307 403.015,264.641 399.5,264.5C 397.645,264.66 396.312,263.993 395.5,262.5C 398.482,262.896 401.149,262.229 403.5,260.5C 404.499,248.185 404.832,235.851 404.5,223.5C 405.469,221.337 406.302,219.004 407,216.5C 407.823,207.99 407.657,199.656 406.5,191.5C 405.134,186.353 404.134,181.02 403.5,175.5 Z"/></g>
<g><path style="opacity:1" fill="#736a73" d="M 287.5,196.5 C 287.5,197.167 287.5,197.833 287.5,198.5C 285.784,198.629 284.117,198.962 282.5,199.5C 275.458,202.084 268.125,203.751 260.5,204.5C 260.5,205.5 260.5,206.5 260.5,207.5C 256.153,207.32 252.819,209.153 250.5,213C 249.5,213.167 248.5,213.333 247.5,213.5C 244.607,212.605 241.941,211.271 239.5,209.5C 239.5,208.833 239.5,208.167 239.5,207.5C 239.5,206.5 239.5,205.5 239.5,204.5C 240.167,204.833 240.833,205.167 241.5,205.5C 242.881,210.057 245.881,211.891 250.5,211C 253.039,208.63 255.372,206.13 257.5,203.5C 261.533,202.975 265.2,201.642 268.5,199.5C 272.371,199.815 276.038,199.482 279.5,198.5C 282.327,198.416 284.994,197.75 287.5,196.5 Z"/></g>
<g><path style="opacity:1" fill="#403a43" d="M 268.5,199.5 C 265.2,201.642 261.533,202.975 257.5,203.5C 260.66,201 264.327,199.667 268.5,199.5 Z"/></g>
<g><path style="opacity:1" fill="#0a0306" d="M 303.5,204.5 C 303.5,205.5 303.5,206.5 303.5,207.5C 305.527,207.662 307.527,207.495 309.5,207C 310.126,206.25 310.626,205.416 311,204.5C 312.32,204.799 313.82,204.966 315.5,205C 316.308,205.308 316.975,205.808 317.5,206.5C 316.359,207.425 316.359,208.259 317.5,209C 322.748,210.788 328.081,212.454 333.5,214C 331.413,213.782 329.413,213.949 327.5,214.5C 328.025,215.192 328.692,215.692 329.5,216C 328.167,216.333 326.833,216.667 325.5,217C 326.167,217.333 326.833,217.667 327.5,218C 326.044,218.423 325.544,219.256 326,220.5C 326.333,220.167 326.667,219.833 327,219.5C 330.65,221.046 334.484,221.713 338.5,221.5C 332.833,222.167 327.167,222.833 321.5,223.5C 319.5,223.5 317.5,223.5 315.5,223.5C 308.159,223.666 300.826,223.5 293.5,223C 292.409,220.936 292.242,218.769 293,216.5C 294.669,215.154 295.836,213.487 296.5,211.5C 296.5,210.833 296.833,210.5 297.5,210.5C 299.5,209.167 301.167,207.5 302.5,205.5C 302.5,204.833 302.833,204.5 303.5,204.5 Z"/></g>
<g><path style="opacity:1" fill="#99746a" d="M 292.5,207.5 C 291.264,209.611 289.764,211.611 288,213.5C 287.502,216.817 287.335,220.15 287.5,223.5C 288.5,223.5 289.5,223.5 290.5,223.5C 290.5,224.5 290.5,225.5 290.5,226.5C 292.527,226.662 294.527,226.495 296.5,226C 297.056,225.617 297.389,225.117 297.5,224.5C 298.167,224.5 298.833,224.5 299.5,224.5C 300.568,225.434 301.901,225.768 303.5,225.5C 301.708,226.309 299.708,226.809 297.5,227C 296.824,230.203 295.324,233.37 293,236.5C 290.746,237.465 289.246,238.465 288.5,239.5C 284.255,242.119 279.588,242.952 274.5,242C 272.649,237.054 271.649,231.887 271.5,226.5C 264.097,226.037 258.43,229.037 254.5,235.5C 252.817,234.408 250.984,233.741 249,233.5C 246.793,234.705 244.626,234.705 242.5,233.5C 241.609,232.89 240.609,232.557 239.5,232.5C 238.833,231.833 238.167,231.167 237.5,230.5C 238.09,226.08 240.09,225.414 243.5,228.5C 249.55,225.783 253.884,221.45 256.5,215.5C 259.296,214.401 262.129,213.401 265,212.5C 269.44,215.442 271.773,214.109 272,208.5C 275.932,205.079 280.099,204.746 284.5,207.5C 286.369,206.932 288.203,206.266 290,205.5C 291.376,205.684 292.209,206.351 292.5,207.5 Z"/></g>
<g><path style="opacity:1" fill="#96797b" d="M 303.5,199.5 C 303.5,200.5 303.5,201.5 303.5,202.5C 303.5,203.167 303.5,203.833 303.5,204.5C 302.833,204.5 302.5,204.833 302.5,205.5C 299.833,206.167 298.167,207.833 297.5,210.5C 296.833,210.5 296.5,210.833 296.5,211.5C 291.6,214.365 290.267,218.532 292.5,224C 294.134,224.494 295.801,224.66 297.5,224.5C 297.389,225.117 297.056,225.617 296.5,226C 294.527,226.495 292.527,226.662 290.5,226.5C 290.5,225.5 290.5,224.5 290.5,223.5C 289.5,223.5 288.5,223.5 287.5,223.5C 287.335,220.15 287.502,216.817 288,213.5C 289.764,211.611 291.264,209.611 292.5,207.5C 294.5,206.024 296.167,204.191 297.5,202C 299.628,201.345 301.628,200.511 303.5,199.5 Z"/></g>
<g><path style="opacity:1" fill="#3c3843" d="M 233.5,196.5 C 235.199,196.34 236.866,196.506 238.5,197C 241.045,200.59 243.712,204.09 246.5,207.5C 247.333,207.833 248.167,208.167 249,208.5C 251.959,207.039 254.793,205.372 257.5,203.5C 255.372,206.13 253.039,208.63 250.5,211C 245.881,211.891 242.881,210.057 241.5,205.5C 241.108,203.821 240.608,202.154 240,200.5C 237.686,199.267 235.519,197.933 233.5,196.5 Z"/></g>
<g><path style="opacity:1" fill="#8b7576" d="M 282.5,199.5 C 281.64,201.614 279.973,202.78 277.5,203C 273.558,203.993 269.558,204.66 265.5,205C 261.416,209.757 256.749,213.757 251.5,217C 244.028,219.614 240.028,217.114 239.5,209.5C 241.941,211.271 244.607,212.605 247.5,213.5C 248.5,213.333 249.5,213.167 250.5,213C 252.819,209.153 256.153,207.32 260.5,207.5C 260.5,206.5 260.5,205.5 260.5,204.5C 268.125,203.751 275.458,202.084 282.5,199.5 Z"/></g>
<g><path style="opacity:1" fill="#463b43" d="M 302.5,205.5 C 301.167,207.5 299.5,209.167 297.5,210.5C 298.167,207.833 299.833,206.167 302.5,205.5 Z"/></g>
<g><path style="opacity:1" fill="#3f2527" d="M 402.5,175.5 C 402.833,175.5 403.167,175.5 403.5,175.5C 404.134,181.02 405.134,186.353 406.5,191.5C 406.826,199.684 406.492,207.684 405.5,215.5C 405.666,207.826 405.5,200.159 405,192.5C 403.452,186.93 402.619,181.264 402.5,175.5 Z"/></g>
<g><path style="opacity:1" fill="#664445" d="M 63.5,199.5 C 64.1667,200.5 64.8333,201.5 65.5,202.5C 66.0155,211.958 67.3488,221.292 69.5,230.5C 67.9385,228.628 66.9385,226.295 66.5,223.5C 65.2374,215.524 64.2374,207.524 63.5,199.5 Z"/></g>
<g><path style="opacity:1" fill="#7a6165" d="M 239.5,204.5 C 239.5,205.5 239.5,206.5 239.5,207.5C 237.833,207.5 236.167,207.5 234.5,207.5C 234.264,205.027 232.931,203.36 230.5,202.5C 229.119,203 228.453,204 228.5,205.5C 229.358,208.953 231.024,211.953 233.5,214.5C 234.156,216.453 234.489,218.453 234.5,220.5C 234.167,220.5 233.833,220.5 233.5,220.5C 233.573,218.973 232.906,217.973 231.5,217.5C 230.294,213.423 228.294,209.757 225.5,206.5C 224.833,204.5 224.167,202.5 223.5,200.5C 223.5,199.167 223.5,197.833 223.5,196.5C 229.993,197.08 235.326,199.746 239.5,204.5 Z"/></g>
<g><path style="opacity:1" fill="#916f69" d="M 303.5,199.5 C 301.628,200.511 299.628,201.345 297.5,202C 296.167,204.191 294.5,206.024 292.5,207.5C 292.209,206.351 291.376,205.684 290,205.5C 288.203,206.266 286.369,206.932 284.5,207.5C 280.099,204.746 275.932,205.079 272,208.5C 271.773,214.109 269.44,215.442 265,212.5C 262.129,213.401 259.296,214.401 256.5,215.5C 253.884,221.45 249.55,225.783 243.5,228.5C 240.09,225.414 238.09,226.08 237.5,230.5C 237.167,230.5 236.833,230.5 236.5,230.5C 237.01,227.612 236.344,225.279 234.5,223.5C 234.5,222.5 234.5,221.5 234.5,220.5C 234.489,218.453 234.156,216.453 233.5,214.5C 231.024,211.953 229.358,208.953 228.5,205.5C 228.453,204 229.119,203 230.5,202.5C 232.931,203.36 234.264,205.027 234.5,207.5C 236.167,207.5 237.833,207.5 239.5,207.5C 239.5,208.167 239.5,208.833 239.5,209.5C 240.028,217.114 244.028,219.614 251.5,217C 256.749,213.757 261.416,209.757 265.5,205C 269.558,204.66 273.558,203.993 277.5,203C 279.973,202.78 281.64,201.614 282.5,199.5C 284.117,198.962 285.784,198.629 287.5,198.5C 292.714,197.032 298.047,196.365 303.5,196.5C 303.5,197.5 303.5,198.5 303.5,199.5 Z"/></g>
<g><path style="opacity:1" fill="#7d5b5f" d="M 187.5,212.5 C 198.619,217.226 209.619,222.226 220.5,227.5C 220.833,228.167 221.167,228.833 221.5,229.5C 220.391,229.443 219.391,229.11 218.5,228.5C 217.167,228.5 215.833,228.5 214.5,228.5C 211.436,224.882 207.436,223.049 202.5,223C 200.099,222.205 197.932,221.038 196,219.5C 194.644,220.38 193.144,220.714 191.5,220.5C 191.5,219.5 191.5,218.5 191.5,217.5C 189.208,217.756 187.041,217.423 185,216.5C 181.393,218.924 180.226,222.09 181.5,226C 189.988,230.194 198.988,232.027 208.5,231.5C 209.5,231.5 210.5,231.5 211.5,231.5C 211.5,231.833 211.5,232.167 211.5,232.5C 210.833,232.5 210.5,232.833 210.5,233.5C 206.131,233.533 201.798,233.2 197.5,232.5C 191.809,231.628 186.142,230.628 180.5,229.5C 178.183,223.677 177.85,217.677 179.5,211.5C 182.237,211.401 184.904,211.735 187.5,212.5 Z"/></g>
<g><path style="opacity:1" fill="#9a6a67" d="M 214.5,228.5 C 212.588,229.799 210.588,230.799 208.5,231.5C 198.988,232.027 189.988,230.194 181.5,226C 180.226,222.09 181.393,218.924 185,216.5C 187.041,217.423 189.208,217.756 191.5,217.5C 191.5,218.5 191.5,219.5 191.5,220.5C 193.144,220.714 194.644,220.38 196,219.5C 197.932,221.038 200.099,222.205 202.5,223C 207.436,223.049 211.436,224.882 214.5,228.5 Z"/></g>
<g><path style="opacity:1" fill="#4a393f" d="M 186.5,210.5 C 186.833,211.167 187.167,211.833 187.5,212.5C 184.904,211.735 182.237,211.401 179.5,211.5C 177.85,217.677 178.183,223.677 180.5,229.5C 179.5,229.5 178.5,229.5 177.5,229.5C 177.5,227.5 177.5,225.5 177.5,223.5C 177.133,219.033 177.633,214.7 179,210.5C 181.432,209.55 183.932,209.55 186.5,210.5 Z"/></g>
<g><path style="opacity:1" fill="#2b2029" d="M 231.5,217.5 C 232.906,217.973 233.573,218.973 233.5,220.5C 233.384,223.86 233.051,227.193 232.5,230.5C 229.941,230.802 227.607,230.468 225.5,229.5C 227.5,229.5 229.5,229.5 231.5,229.5C 232.62,225.472 232.62,221.472 231.5,217.5 Z"/></g>
<g><path style="opacity:1" fill="#4e3b42" d="M 296.5,211.5 C 295.836,213.487 294.669,215.154 293,216.5C 292.242,218.769 292.409,220.936 293.5,223C 300.826,223.5 308.159,223.666 315.5,223.5C 310.36,224.488 305.026,224.821 299.5,224.5C 298.833,224.5 298.167,224.5 297.5,224.5C 295.801,224.66 294.134,224.494 292.5,224C 290.267,218.532 291.6,214.365 296.5,211.5 Z"/></g>
<g><path style="opacity:1" fill="#7d6267" d="M 315.5,223.5 C 317.5,223.5 319.5,223.5 321.5,223.5C 328.833,223.5 336.167,223.5 343.5,223.5C 343.665,226.85 343.498,230.183 343,233.5C 342.692,234.308 342.192,234.975 341.5,235.5C 340.583,234.873 339.583,234.539 338.5,234.5C 330.35,233.507 322.017,233.174 313.5,233.5C 322.986,232.506 332.652,232.173 342.5,232.5C 342.5,230.167 342.5,227.833 342.5,225.5C 329.624,224.276 316.624,224.276 303.5,225.5C 301.901,225.768 300.568,225.434 299.5,224.5C 305.026,224.821 310.36,224.488 315.5,223.5 Z"/></g>
<g><path style="opacity:1" fill="#9b6f6b" d="M 313.5,233.5 C 311.102,233.259 309.102,233.926 307.5,235.5C 302.955,235.45 299.289,237.117 296.5,240.5C 293.908,242.036 292.908,244.369 293.5,247.5C 292.661,245.219 291.661,242.885 290.5,240.5C 290.043,239.702 289.376,239.369 288.5,239.5C 289.246,238.465 290.746,237.465 293,236.5C 295.324,233.37 296.824,230.203 297.5,227C 299.708,226.809 301.708,226.309 303.5,225.5C 316.624,224.276 329.624,224.276 342.5,225.5C 342.5,227.833 342.5,230.167 342.5,232.5C 332.652,232.173 322.986,232.506 313.5,233.5 Z"/></g>
<g><path style="opacity:1" fill="#897c87" d="M 234.5,223.5 C 236.344,225.279 237.01,227.612 236.5,230.5C 236.5,232.167 236.5,233.833 236.5,235.5C 231.921,235.271 227.588,234.271 223.5,232.5C 221.257,231.868 219.591,230.534 218.5,228.5C 219.391,229.11 220.391,229.443 221.5,229.5C 225.102,231.859 229.102,232.692 233.5,232C 234.444,229.281 234.777,226.448 234.5,223.5 Z"/></g>
<g><path style="opacity:1" fill="#564957" d="M 233.5,220.5 C 233.833,220.5 234.167,220.5 234.5,220.5C 234.5,221.5 234.5,222.5 234.5,223.5C 234.777,226.448 234.444,229.281 233.5,232C 229.102,232.692 225.102,231.859 221.5,229.5C 222.833,229.5 224.167,229.5 225.5,229.5C 227.607,230.468 229.941,230.802 232.5,230.5C 233.051,227.193 233.384,223.86 233.5,220.5 Z"/></g>
<g><path style="opacity:1" fill="#694854" d="M 313.5,233.5 C 322.017,233.174 330.35,233.507 338.5,234.5C 334.833,234.5 331.167,234.5 327.5,234.5C 320.798,234.336 314.131,234.669 307.5,235.5C 309.102,233.926 311.102,233.259 313.5,233.5 Z"/></g>
<g><path style="opacity:1" fill="#442e3b" d="M 197.5,232.5 C 201.798,233.2 206.131,233.533 210.5,233.5C 212.624,234.031 214.124,235.365 215,237.5C 215.499,241.486 215.666,245.486 215.5,249.5C 214.274,245.477 213.274,241.311 212.5,237C 207.422,235.363 202.422,233.863 197.5,232.5 Z"/></g>
<g><path style="opacity:1" fill="#504950" d="M 342.5,249.5 C 342.817,246.428 342.484,243.428 341.5,240.5C 339.079,242.934 336.412,244.934 333.5,246.5C 335.167,244.5 336.833,242.5 338.5,240.5C 339.742,238.611 339.742,236.611 338.5,234.5C 339.583,234.539 340.583,234.873 341.5,235.5C 342.192,234.975 342.692,234.308 343,233.5C 343.498,230.183 343.665,226.85 343.5,223.5C 336.167,223.5 328.833,223.5 321.5,223.5C 327.167,222.833 332.833,222.167 338.5,221.5C 340.044,221.297 341.378,220.63 342.5,219.5C 343.086,219.709 343.586,220.043 344,220.5C 344.529,230.362 344.029,240.028 342.5,249.5 Z"/></g>
<g><path style="opacity:1" fill="#0c0408" d="M 327.5,234.5 C 330.641,235.321 333.975,235.821 337.5,236C 338.38,237.356 338.714,238.856 338.5,240.5C 336.833,242.5 335.167,244.5 333.5,246.5C 321.539,247.592 309.539,248.092 297.5,248C 296.565,245.619 296.232,243.119 296.5,240.5C 299.289,237.117 302.955,235.45 307.5,235.5C 314.131,234.669 320.798,234.336 327.5,234.5 Z"/></g>
<g><path style="opacity:1" fill="#0f0105" d="M 177.5,223.5 C 177.5,225.5 177.5,227.5 177.5,229.5C 178.5,229.5 179.5,229.5 180.5,229.5C 186.142,230.628 191.809,231.628 197.5,232.5C 202.422,233.863 207.422,235.363 212.5,237C 213.274,241.311 214.274,245.477 215.5,249.5C 215.5,249.833 215.5,250.167 215.5,250.5C 215.5,251.833 215.5,253.167 215.5,254.5C 211.709,250.048 210.709,245.048 212.5,239.5C 211.167,239.5 209.833,239.5 208.5,239.5C 208.665,243.182 208.499,246.848 208,250.5C 203.484,254.21 199.65,253.376 196.5,248C 189.122,244.983 181.622,242.15 174,239.5C 172.535,240.33 171.035,240.496 169.5,240C 171.513,239.125 171.513,237.791 169.5,236C 170.033,230.703 172.7,226.536 177.5,223.5 Z"/></g>
<g><path style="opacity:1" fill="#372e38" d="M 327.5,234.5 C 331.167,234.5 334.833,234.5 338.5,234.5C 339.742,236.611 339.742,238.611 338.5,240.5C 338.714,238.856 338.38,237.356 337.5,236C 333.975,235.821 330.641,235.321 327.5,234.5 Z"/></g>
<g><path style="opacity:1" fill="#9e7d76" d="M 239.5,232.5 C 240.609,232.557 241.609,232.89 242.5,233.5C 244.53,236.106 246.197,238.939 247.5,242C 241.76,247.963 235.927,247.796 230,241.5C 227.006,242.165 224.339,243.498 222,245.5C 224.553,252.106 226.053,259.106 226.5,266.5C 226.363,269.608 225.363,272.275 223.5,274.5C 222.004,263.531 221.17,252.531 221,241.5C 221.636,236.642 223.47,235.808 226.5,239C 228.473,239.495 230.473,239.662 232.5,239.5C 234.833,239.5 237.167,239.5 239.5,239.5C 239.5,237.167 239.5,234.833 239.5,232.5 Z"/></g>
<g><path style="opacity:1" fill="#a39297" d="M 236.5,230.5 C 236.833,230.5 237.167,230.5 237.5,230.5C 238.167,231.167 238.833,231.833 239.5,232.5C 239.5,234.833 239.5,237.167 239.5,239.5C 237.167,239.5 234.833,239.5 232.5,239.5C 229.236,237.577 226.236,235.244 223.5,232.5C 227.588,234.271 231.921,235.271 236.5,235.5C 236.5,233.833 236.5,232.167 236.5,230.5 Z"/></g>
<g><path style="opacity:1" fill="#6e5b6b" d="M 210.5,233.5 C 210.5,232.833 210.833,232.5 211.5,232.5C 213.371,232.859 214.871,233.859 216,235.5C 217.456,248.317 217.622,260.984 216.5,273.5C 215.798,265.679 215.465,258.012 215.5,250.5C 215.5,250.167 215.5,249.833 215.5,249.5C 215.666,245.486 215.499,241.486 215,237.5C 214.124,235.365 212.624,234.031 210.5,233.5 Z"/></g>
<g><path style="opacity:1" fill="#9d766a" d="M 288.5,239.5 C 289.376,239.369 290.043,239.702 290.5,240.5C 291.661,242.885 292.661,245.219 293.5,247.5C 293.5,248.167 293.5,248.833 293.5,249.5C 298.452,251.491 302.785,253.491 306.5,255.5C 311.279,255.269 311.946,254.269 308.5,252.5C 311.167,251.167 313.833,251.167 316.5,252.5C 313.57,255.743 310.904,259.243 308.5,263C 304.93,264.5 301.43,266 298,267.5C 298.048,269.926 297.881,272.259 297.5,274.5C 298.499,277.174 300.166,277.841 302.5,276.5C 303.489,280.107 303.823,283.774 303.5,287.5C 308.844,287.334 314.177,287.501 319.5,288C 320,288.5 320.5,289 321,289.5C 322.444,287.845 324.278,287.178 326.5,287.5C 327.132,292.305 329.799,295.472 334.5,297C 333.646,298.881 333.979,300.714 335.5,302.5C 332.5,303.167 329.5,303.833 326.5,304.5C 327.472,306.636 329.139,307.803 331.5,308C 327.845,308.814 325.512,310.981 324.5,314.5C 325,315.5 325.5,316.5 326,317.5C 326.333,317.167 326.667,316.833 327,316.5C 327.483,317.448 327.649,318.448 327.5,319.5C 325.5,319.5 323.5,319.5 321.5,319.5C 321.762,320.978 321.429,322.311 320.5,323.5C 317.341,325.504 314.841,328.17 313,331.5C 312.11,326.108 308.943,323.442 303.5,323.5C 303.5,320.833 303.5,318.167 303.5,315.5C 298.167,315.5 292.833,315.5 287.5,315.5C 287.5,316.833 287.5,318.167 287.5,319.5C 284.2,320.275 281.2,321.775 278.5,324C 276.444,324.311 274.444,324.811 272.5,325.5C 270.38,324.128 269.38,324.795 269.5,327.5C 267.876,327.64 266.71,326.973 266,325.5C 265.5,326.5 265,327.5 264.5,328.5C 259.07,331.013 253.736,333.347 248.5,335.5C 246.906,336.983 245.24,338.483 243.5,340C 244.163,341.518 245.163,342.685 246.5,343.5C 246.215,345.288 246.548,346.955 247.5,348.5C 250.084,349.393 252.751,349.726 255.5,349.5C 255.5,350.5 255.5,351.5 255.5,352.5C 256.552,352.351 257.552,352.517 258.5,353C 257.263,353.232 256.263,353.732 255.5,354.5C 250.124,356.002 244.79,357.835 239.5,360C 234.177,360.499 228.844,360.666 223.5,360.5C 221.678,358.504 220.011,356.337 218.5,354C 217.714,350.542 217.38,347.042 217.5,343.5C 218.628,340.595 220.295,337.928 222.5,335.5C 223.386,336.325 223.719,337.325 223.5,338.5C 226.73,338.439 228.563,336.772 229,333.5C 230.171,332.107 231.671,331.273 233.5,331C 231.432,327.697 229.766,324.197 228.5,320.5C 229.325,319.614 230.325,319.281 231.5,319.5C 231.83,313.132 231.496,306.798 230.5,300.5C 229.332,296.831 227.666,293.498 225.5,290.5C 225.887,286.78 227.887,284.78 231.5,284.5C 231.649,283.448 231.483,282.448 231,281.5C 227.033,284.913 222.867,285.579 218.5,283.5C 217.571,284.689 217.238,286.022 217.5,287.5C 216.778,287.082 216.278,286.416 216,285.5C 215.549,287.929 214.715,288.096 213.5,286C 217.215,283.142 219.881,279.642 221.5,275.5C 221.842,274.662 222.508,274.328 223.5,274.5C 225.363,272.275 226.363,269.608 226.5,266.5C 226.053,259.106 224.553,252.106 222,245.5C 224.339,243.498 227.006,242.165 230,241.5C 235.927,247.796 241.76,247.963 247.5,242C 246.197,238.939 244.53,236.106 242.5,233.5C 244.626,234.705 246.793,234.705 249,233.5C 250.984,233.741 252.817,234.408 254.5,235.5C 258.43,229.037 264.097,226.037 271.5,226.5C 271.649,231.887 272.649,237.054 274.5,242C 279.588,242.952 284.255,242.119 288.5,239.5 Z"/></g>
<g><path style="opacity:1" fill="#5d4e52" d="M 175.5,245.5 C 173.533,245.261 171.699,245.594 170,246.5C 169.501,250.152 169.335,253.818 169.5,257.5C 168.515,253.366 168.182,249.032 168.5,244.5C 171.059,244.198 173.393,244.532 175.5,245.5 Z"/></g>
<g><path style="opacity:1" fill="#a59193" d="M 335.5,248.5 C 336.227,252.224 334.894,254.891 331.5,256.5C 329.812,254.971 328.479,253.137 327.5,251C 324.883,250.178 322.216,249.678 319.5,249.5C 324.368,248.787 329.368,248.121 334.5,247.5C 335.107,247.624 335.44,247.957 335.5,248.5 Z"/></g>
<g><path style="opacity:1" fill="#7f4f52" d="M 404.5,223.5 C 404.832,235.851 404.499,248.185 403.5,260.5C 401.149,262.229 398.482,262.896 395.5,262.5C 393.114,261.627 391.114,260.127 389.5,258C 387.527,257.505 385.527,257.338 383.5,257.5C 383.5,261.167 383.5,264.833 383.5,268.5C 383.167,268.5 382.833,268.5 382.5,268.5C 382.324,263.12 382.658,257.787 383.5,252.5C 387.601,254.056 391.268,256.39 394.5,259.5C 397.469,261.006 400.302,260.673 403,258.5C 403.169,246.659 403.669,234.993 404.5,223.5 Z"/></g>
<g><path style="opacity:1" fill="#9e736c" d="M 182.5,249.5 C 183.403,252.391 183.736,255.391 183.5,258.5C 180.25,260.243 177.416,262.577 175,265.5C 173.317,264.113 172.15,262.447 171.5,260.5C 171.5,255.833 171.5,251.167 171.5,246.5C 175.347,246.894 179.014,247.894 182.5,249.5 Z"/></g>
<g><path style="opacity:1" fill="#473034" d="M 383.5,252.5 C 382.658,257.787 382.324,263.12 382.5,268.5C 381.352,264.019 381.185,259.352 382,254.5C 382.278,253.584 382.778,252.918 383.5,252.5 Z"/></g>
<g><path style="opacity:1" fill="#613d3f" d="M 406.5,191.5 C 407.657,199.656 407.823,207.99 407,216.5C 406.302,219.004 405.469,221.337 404.5,223.5C 403.669,234.993 403.169,246.659 403,258.5C 400.302,260.673 397.469,261.006 394.5,259.5C 397.044,259.896 399.211,259.229 401,257.5C 401.333,246.167 401.667,234.833 402,223.5C 402.942,220.626 404.109,217.96 405.5,215.5C 406.492,207.684 406.826,199.684 406.5,191.5 Z"/></g>
<g><path style="opacity:1" fill="#9f7e79" d="M 335.5,248.5 C 336.79,249.058 337.623,250.058 338,251.5C 339.407,259.979 339.573,268.312 338.5,276.5C 338.666,272.154 338.499,267.821 338,263.5C 335.536,262.474 333.702,263.308 332.5,266C 328.194,266.172 326.527,264.006 327.5,259.5C 326.5,259.5 325.5,259.5 324.5,259.5C 326.321,256.248 325.654,253.748 322.5,252C 316.258,250.63 309.925,250.13 303.5,250.5C 308.64,249.512 313.974,249.179 319.5,249.5C 322.216,249.678 324.883,250.178 327.5,251C 328.479,253.137 329.812,254.971 331.5,256.5C 334.894,254.891 336.227,252.224 335.5,248.5 Z"/></g>
<g><path style="opacity:1" fill="#614444" d="M 69.5,231.5 C 71.902,242.747 74.5687,254.081 77.5,265.5C 76.2058,264.71 75.0391,263.71 74,262.5C 74.1746,256.723 73.008,251.389 70.5,246.5C 70.0843,241.507 69.7509,236.507 69.5,231.5 Z"/></g>
<g><path style="opacity:1" fill="#8b7778" d="M 296.5,240.5 C 296.232,243.119 296.565,245.619 297.5,248C 309.539,248.092 321.539,247.592 333.5,246.5C 336.412,244.934 339.079,242.934 341.5,240.5C 342.484,243.428 342.817,246.428 342.5,249.5C 341.741,269.029 340.741,288.695 339.5,308.5C 338.833,309.5 338.167,310.5 337.5,311.5C 338.356,300.19 338.69,288.857 338.5,277.5C 338.5,277.167 338.5,276.833 338.5,276.5C 339.573,268.312 339.407,259.979 338,251.5C 337.623,250.058 336.79,249.058 335.5,248.5C 335.44,247.957 335.107,247.624 334.5,247.5C 329.368,248.121 324.368,248.787 319.5,249.5C 313.974,249.179 308.64,249.512 303.5,250.5C 300.119,250.54 296.786,250.207 293.5,249.5C 293.5,248.833 293.5,248.167 293.5,247.5C 292.908,244.369 293.908,242.036 296.5,240.5 Z"/></g>
<g><path style="opacity:1" fill="#835253" d="M 70.5,246.5 C 73.008,251.389 74.1746,256.723 74,262.5C 75.0391,263.71 76.2058,264.71 77.5,265.5C 77.5,265.833 77.5,266.167 77.5,266.5C 78.3273,271.477 78.994,276.477 79.5,281.5C 78.5,281.5 77.5,281.5 76.5,281.5C 74.1261,269.998 72.1261,258.331 70.5,246.5 Z"/></g>
<g><path style="opacity:1" fill="#8a6e72" d="M 175.5,245.5 C 179.26,246.686 182.926,248.019 186.5,249.5C 185.167,249.5 183.833,249.5 182.5,249.5C 179.014,247.894 175.347,246.894 171.5,246.5C 171.5,251.167 171.5,255.833 171.5,260.5C 171.825,267.687 171.491,274.687 170.5,281.5C 170.823,275.31 170.49,269.31 169.5,263.5C 169.5,261.5 169.5,259.5 169.5,257.5C 169.335,253.818 169.501,250.152 170,246.5C 171.699,245.594 173.533,245.261 175.5,245.5 Z"/></g>
<g><path style="opacity:1" fill="#988793" d="M 211.5,232.5 C 211.5,232.167 211.5,231.833 211.5,231.5C 214.522,231.428 216.688,232.762 218,235.5C 218.635,248.529 219.301,261.529 220,274.5C 218.833,277 217,278.833 214.5,280C 207.066,282.696 199.399,284.196 191.5,284.5C 197.318,281.587 203.318,279.253 209.5,277.5C 210.167,276.833 210.833,276.167 211.5,275.5C 213.514,275.608 215.18,274.942 216.5,273.5C 217.622,260.984 217.456,248.317 216,235.5C 214.871,233.859 213.371,232.859 211.5,232.5 Z"/></g>
<g><path style="opacity:1" fill="#9c736a" d="M 217.5,343.5 C 217.5,340.833 217.5,338.167 217.5,335.5C 211.34,334.477 205.34,332.977 199.5,331C 194.582,330.805 189.749,330.305 185,329.5C 182.185,329.895 180.018,331.228 178.5,333.5C 174.43,333.265 171.597,331.265 170,327.5C 169.058,322.547 168.558,317.547 168.5,312.5C 169.099,304.509 169.433,296.509 169.5,288.5C 169.5,287.833 169.833,287.5 170.5,287.5C 171.304,285.811 172.304,284.145 173.5,282.5C 177.625,283.459 180.292,285.959 181.5,290C 189.635,294.29 197.968,294.457 206.5,290.5C 209.443,291.244 212.443,291.744 215.5,292C 212.833,292.333 210.167,292.667 207.5,293C 212.833,293.667 212.833,294.333 207.5,295C 213.387,296.959 217.387,295.126 219.5,289.5C 219.253,288.287 218.586,287.62 217.5,287.5C 217.238,286.022 217.571,284.689 218.5,283.5C 222.867,285.579 227.033,284.913 231,281.5C 231.483,282.448 231.649,283.448 231.5,284.5C 227.887,284.78 225.887,286.78 225.5,290.5C 227.666,293.498 229.332,296.831 230.5,300.5C 231.496,306.798 231.83,313.132 231.5,319.5C 230.325,319.281 229.325,319.614 228.5,320.5C 229.766,324.197 231.432,327.697 233.5,331C 231.671,331.273 230.171,332.107 229,333.5C 228.563,336.772 226.73,338.439 223.5,338.5C 223.719,337.325 223.386,336.325 222.5,335.5C 220.295,337.928 218.628,340.595 217.5,343.5 Z"/></g>
<g><path style="opacity:1" fill="#a2878a" d="M 214.5,228.5 C 215.833,228.5 217.167,228.5 218.5,228.5C 219.591,230.534 221.257,231.868 223.5,232.5C 226.236,235.244 229.236,237.577 232.5,239.5C 230.473,239.662 228.473,239.495 226.5,239C 223.47,235.808 221.636,236.642 221,241.5C 221.17,252.531 222.004,263.531 223.5,274.5C 222.508,274.328 221.842,274.662 221.5,275.5C 219.4,278.104 217.067,280.604 214.5,283C 210.227,284.03 205.894,284.697 201.5,285C 195.792,287.682 189.792,288.182 183.5,286.5C 180.574,285.078 178.074,283.078 176,280.5C 175.337,275.463 175.504,270.463 176.5,265.5C 180.5,264.833 182.833,262.5 183.5,258.5C 183.736,255.391 183.403,252.391 182.5,249.5C 183.833,249.5 185.167,249.5 186.5,249.5C 186.557,250.609 186.89,251.609 187.5,252.5C 187.665,255.85 187.498,259.183 187,262.5C 185.681,264.487 183.848,265.654 181.5,266C 177.325,270.253 176.659,274.753 179.5,279.5C 182.085,284.034 186.085,285.701 191.5,284.5C 199.399,284.196 207.066,282.696 214.5,280C 217,278.833 218.833,277 220,274.5C 219.301,261.529 218.635,248.529 218,235.5C 216.688,232.762 214.522,231.428 211.5,231.5C 210.5,231.5 209.5,231.5 208.5,231.5C 210.588,230.799 212.588,229.799 214.5,228.5 Z"/></g>
<g><path style="opacity:1" fill="#3f2835" d="M 187.5,267.5 C 183.345,270.757 182.511,274.757 185,279.5C 189.058,279.902 193.225,279.902 197.5,279.5C 194.383,280.579 191.05,281.246 187.5,281.5C 185.307,281.674 183.473,281.007 182,279.5C 180.039,273.588 181.873,269.588 187.5,267.5 Z"/></g>
<g><path style="opacity:1" fill="#14040b" d="M 191.5,255.5 C 197.226,260.947 196.392,265.28 189,268.5C 188.443,270.615 187.609,272.615 186.5,274.5C 186.709,275.086 187.043,275.586 187.5,276C 189.167,276.167 190.833,276.333 192.5,276.5C 199.026,275.319 205.36,274.319 211.5,273.5C 212.192,272.975 212.692,272.308 213,271.5C 213.333,266.5 213.667,261.5 214,256.5C 214.383,255.944 214.883,255.611 215.5,255.5C 214.812,261.134 214.312,266.801 214,272.5C 213.302,273.691 212.469,274.691 211.5,275.5C 208.161,275.89 204.827,276.39 201.5,277C 199.68,277.2 198.347,278.034 197.5,279.5C 193.225,279.902 189.058,279.902 185,279.5C 182.511,274.757 183.345,270.757 187.5,267.5C 192.205,264.656 193.538,260.656 191.5,255.5 Z"/></g>
<g><path style="opacity:1" fill="#83727b" d="M 187.5,252.5 C 188.643,255.976 188.81,259.642 188,263.5C 185.333,266.167 182.667,268.833 180,271.5C 179.503,274.146 179.336,276.813 179.5,279.5C 176.659,274.753 177.325,270.253 181.5,266C 183.848,265.654 185.681,264.487 187,262.5C 187.498,259.183 187.665,255.85 187.5,252.5 Z"/></g>
<g><path style="opacity:1" fill="#63525c" d="M 186.5,249.5 C 187.833,250.167 188.833,251.167 189.5,252.5C 189.749,255.002 190.083,257.502 190.5,260C 190.179,262.805 189.179,265.305 187.5,267.5C 181.873,269.588 180.039,273.588 182,279.5C 183.473,281.007 185.307,281.674 187.5,281.5C 191.05,281.246 194.383,280.579 197.5,279.5C 201.454,278.619 205.454,277.952 209.5,277.5C 203.318,279.253 197.318,281.587 191.5,284.5C 186.085,285.701 182.085,284.034 179.5,279.5C 179.336,276.813 179.503,274.146 180,271.5C 182.667,268.833 185.333,266.167 188,263.5C 188.81,259.642 188.643,255.976 187.5,252.5C 186.89,251.609 186.557,250.609 186.5,249.5 Z"/></g>
<g><path style="opacity:1" fill="#3f2c36" d="M 189.5,252.5 C 190.401,253.29 191.068,254.29 191.5,255.5C 193.538,260.656 192.205,264.656 187.5,267.5C 189.179,265.305 190.179,262.805 190.5,260C 190.083,257.502 189.749,255.002 189.5,252.5 Z"/></g>
<g><path style="opacity:1" fill="#392534" d="M 215.5,250.5 C 215.465,258.012 215.798,265.679 216.5,273.5C 215.18,274.942 213.514,275.608 211.5,275.5C 212.469,274.691 213.302,273.691 214,272.5C 214.312,266.801 214.812,261.134 215.5,255.5C 215.5,255.167 215.5,254.833 215.5,254.5C 215.5,253.167 215.5,251.833 215.5,250.5 Z"/></g>
<g><path style="opacity:1" fill="#65555a" d="M 169.5,263.5 C 170.49,269.31 170.823,275.31 170.5,281.5C 170.5,283.5 170.5,285.5 170.5,287.5C 169.833,287.5 169.5,287.833 169.5,288.5C 167.748,300.633 167.248,312.967 168,325.5C 168.921,328.336 170.088,331.002 171.5,333.5C 170.5,332.833 169.5,332.167 168.5,331.5C 167.213,328.594 166.213,325.594 165.5,322.5C 165.76,316.828 166.093,311.161 166.5,305.5C 167.37,291.469 168.37,277.469 169.5,263.5 Z"/></g>
<g><path style="opacity:1" fill="#694b4d" d="M 77.5,266.5 C 78.8091,270.46 80.3091,274.46 82,278.5C 85.9452,283.393 89.1118,288.727 91.5,294.5C 88.7765,292.777 86.7765,290.444 85.5,287.5C 84.3954,284.64 82.3954,282.64 79.5,281.5C 78.994,276.477 78.3273,271.477 77.5,266.5 Z"/></g>
<g><path style="opacity:1" fill="#9b7671" d="M 183.5,258.5 C 182.833,262.5 180.5,264.833 176.5,265.5C 175.504,270.463 175.337,275.463 176,280.5C 178.074,283.078 180.574,285.078 183.5,286.5C 189.792,288.182 195.792,287.682 201.5,285C 205.894,284.697 210.227,284.03 214.5,283C 217.067,280.604 219.4,278.104 221.5,275.5C 219.881,279.642 217.215,283.142 213.5,286C 214.715,288.096 215.549,287.929 216,285.5C 216.278,286.416 216.778,287.082 217.5,287.5C 218.586,287.62 219.253,288.287 219.5,289.5C 217.387,295.126 213.387,296.959 207.5,295C 212.833,294.333 212.833,293.667 207.5,293C 210.167,292.667 212.833,292.333 215.5,292C 212.443,291.744 209.443,291.244 206.5,290.5C 197.968,294.457 189.635,294.29 181.5,290C 180.292,285.959 177.625,283.459 173.5,282.5C 172.304,284.145 171.304,285.811 170.5,287.5C 170.5,285.5 170.5,283.5 170.5,281.5C 171.491,274.687 171.825,267.687 171.5,260.5C 172.15,262.447 173.317,264.113 175,265.5C 177.416,262.577 180.25,260.243 183.5,258.5 Z"/></g>
<g><path style="opacity:1" fill="#35232f" d="M 211.5,275.5 C 210.833,276.167 210.167,276.833 209.5,277.5C 205.454,277.952 201.454,278.619 197.5,279.5C 198.347,278.034 199.68,277.2 201.5,277C 204.827,276.39 208.161,275.89 211.5,275.5 Z"/></g>
<g><path style="opacity:1" fill="#94534d" d="M 12.5,287.5 C 13.5,287.5 14.5,287.5 15.5,287.5C 15.5,290.167 15.5,292.833 15.5,295.5C 21.5,296.167 24.1667,293.5 23.5,287.5C 26.1667,287.5 28.8333,287.5 31.5,287.5C 31.8047,292.762 31.4714,297.928 30.5,303C 33.146,303.497 35.8127,303.664 38.5,303.5C 39.303,308.476 42.1364,311.809 47,313.5C 47.3333,317.5 47.6667,321.5 48,325.5C 51.6062,326.774 54.2728,329.107 56,332.5C 55.6307,338.773 55.464,345.107 55.5,351.5C 58.1667,351.5 60.8333,351.5 63.5,351.5C 63.5,356.833 63.5,362.167 63.5,367.5C 66.1667,367.5 68.8333,367.5 71.5,367.5C 71.464,373.893 71.6307,380.227 72,386.5C 70.2728,389.893 67.6062,392.226 64,393.5C 63.6667,397.5 63.3333,401.5 63,405.5C 58.8204,407.013 55.9871,409.846 54.5,414C 56.9642,417.482 56.2976,420.482 52.5,423C 48.0471,424.109 46.3805,426.942 47.5,431.5C 45.1667,431.5 42.8333,431.5 40.5,431.5C 39.697,436.476 36.8636,439.809 32,441.5C 31.6667,432.833 31.3333,424.167 31,415.5C 26.1667,410.5 21.3333,405.5 16.5,400.5C 15.3112,399.571 13.9778,399.238 12.5,399.5C 13.3893,370.205 12.7226,340.871 10.5,311.5C 11.8276,303.548 12.4943,295.548 12.5,287.5 Z"/></g>
<g><path style="opacity:1" fill="#9a7d79" d="M 338.5,277.5 C 338.69,288.857 338.356,300.19 337.5,311.5C 336.242,314.694 335.576,318.027 335.5,321.5C 333.759,323.395 332.759,325.728 332.5,328.5C 332.5,328.833 332.5,329.167 332.5,329.5C 331.034,330.347 330.2,331.68 330,333.5C 329.503,335.81 329.337,338.143 329.5,340.5C 329.167,340.5 328.833,340.5 328.5,340.5C 327.393,344.142 326.393,347.809 325.5,351.5C 325.167,351.5 324.833,351.5 324.5,351.5C 324.999,344.51 325.332,337.51 325.5,330.5C 326.675,330.719 327.675,330.386 328.5,329.5C 330.219,324.27 332.385,319.27 335,314.5C 336.153,303.537 336.819,292.537 337,281.5C 337.21,279.942 337.71,278.609 338.5,277.5 Z"/></g>
<g><path style="opacity:1" fill="#6e4648" d="M 382.5,268.5 C 382.833,268.5 383.167,268.5 383.5,268.5C 383.5,275.5 383.5,282.5 383.5,289.5C 382.778,289.918 382.278,290.584 382,291.5C 381.667,301.833 381.333,312.167 381,322.5C 379.293,324.037 377.793,325.704 376.5,327.5C 376.167,327.5 375.833,327.5 375.5,327.5C 377.284,325.052 378.618,322.385 379.5,319.5C 380.675,311.661 380.675,303.661 379.5,295.5C 382.097,286.776 383.097,277.776 382.5,268.5 Z"/></g>
<g><path style="opacity:1" fill="#6b4b4b" d="M 91.5,294.5 C 94.669,298.833 97.3357,303.5 99.5,308.5C 97.9826,308.489 96.8159,307.823 96,306.5C 93.6552,302.812 92.1552,298.812 91.5,294.5 Z"/></g>
<g><path style="opacity:1" fill="#7b6464" d="M 169.5,288.5 C 169.433,296.509 169.099,304.509 168.5,312.5C 168.558,317.547 169.058,322.547 170,327.5C 171.597,331.265 174.43,333.265 178.5,333.5C 182.012,332.945 185.012,333.612 187.5,335.5C 182.489,335.666 177.489,335.499 172.5,335C 171.944,334.617 171.611,334.117 171.5,333.5C 170.088,331.002 168.921,328.336 168,325.5C 167.248,312.967 167.748,300.633 169.5,288.5 Z"/></g>
<g><path style="opacity:1" fill="#895452" d="M 85.5,287.5 C 86.7765,290.444 88.7765,292.777 91.5,294.5C 92.1552,298.812 93.6552,302.812 96,306.5C 96.8159,307.823 97.9826,308.489 99.5,308.5C 99.372,310.655 99.872,312.655 101,314.5C 103.029,318.58 105.529,322.246 108.5,325.5C 110.787,329.122 113.453,332.455 116.5,335.5C 114.833,335.5 113.167,335.5 111.5,335.5C 110.334,332.438 108.834,329.438 107,326.5C 103.465,325.034 101.632,322.367 101.5,318.5C 99.9291,319.309 98.2624,319.643 96.5,319.5C 96.178,317.278 96.8446,315.444 98.5,314C 97.2845,311.904 96.4512,312.071 96,314.5C 95.8078,312.423 95.3078,310.423 94.5,308.5C 91.4349,307.101 90.4349,304.934 91.5,302C 89.2597,297.129 87.2597,292.295 85.5,287.5 Z"/></g>
<g><path style="opacity:1" fill="#362f38" d="M 166.5,305.5 C 166.093,311.161 165.76,316.828 165.5,322.5C 164.837,320.527 164.504,318.361 164.5,316C 164.379,312.218 165.046,308.718 166.5,305.5 Z"/></g>
<g><path style="opacity:1" fill="#6c4d4e" d="M 99.5,308.5 C 103.235,313.734 106.235,319.4 108.5,325.5C 105.529,322.246 103.029,318.58 101,314.5C 99.872,312.655 99.372,310.655 99.5,308.5 Z"/></g>
<g><path style="opacity:1" fill="#403639" d="M 339.5,308.5 C 339.346,313.289 338.013,317.622 335.5,321.5C 335.576,318.027 336.242,314.694 337.5,311.5C 338.167,310.5 338.833,309.5 339.5,308.5 Z"/></g>
<g><path style="opacity:1" fill="#9c786e" d="M 293.5,249.5 C 296.786,250.207 300.119,250.54 303.5,250.5C 309.925,250.13 316.258,250.63 322.5,252C 325.654,253.748 326.321,256.248 324.5,259.5C 325.5,259.5 326.5,259.5 327.5,259.5C 326.527,264.006 328.194,266.172 332.5,266C 333.702,263.308 335.536,262.474 338,263.5C 338.499,267.821 338.666,272.154 338.5,276.5C 338.5,276.833 338.5,277.167 338.5,277.5C 337.71,278.609 337.21,279.942 337,281.5C 336.819,292.537 336.153,303.537 335,314.5C 332.385,319.27 330.219,324.27 328.5,329.5C 327.675,330.386 326.675,330.719 325.5,330.5C 325.332,337.51 324.999,344.51 324.5,351.5C 324.747,353.858 324.081,355.858 322.5,357.5C 316.158,357.666 309.825,357.5 303.5,357C 304.167,356.667 304.833,356.333 305.5,356C 303.634,355.015 301.634,354.515 299.5,354.5C 297.145,355.067 294.812,355.9 292.5,357C 287.167,357.667 281.833,357.667 276.5,357C 274.635,354.088 272.635,353.922 270.5,356.5C 265.368,355.879 260.368,355.213 255.5,354.5C 256.263,353.732 257.263,353.232 258.5,353C 257.552,352.517 256.552,352.351 255.5,352.5C 255.5,351.5 255.5,350.5 255.5,349.5C 252.751,349.726 250.084,349.393 247.5,348.5C 246.548,346.955 246.215,345.288 246.5,343.5C 249.278,343.022 251.278,344.022 252.5,346.5C 254.167,347.167 255.833,347.833 257.5,348.5C 258.192,347.975 258.692,347.308 259,346.5C 259.739,347.574 260.739,348.241 262,348.5C 267.042,346.247 272.209,346.08 277.5,348C 284.833,348.667 292.167,348.667 299.5,348C 301.859,345.571 303.026,342.738 303,339.5C 302.617,340.056 302.117,340.389 301.5,340.5C 301.665,337.482 301.498,334.482 301,331.5C 300.722,330.584 300.222,329.918 299.5,329.5C 298.967,326.475 297.133,325.142 294,325.5C 292.319,325.608 291.152,326.275 290.5,327.5C 284.681,328.328 278.681,328.828 272.5,329C 268.151,331.849 263.484,334.016 258.5,335.5C 255.167,335.5 251.833,335.5 248.5,335.5C 253.736,333.347 259.07,331.013 264.5,328.5C 265,327.5 265.5,326.5 266,325.5C 266.71,326.973 267.876,327.64 269.5,327.5C 269.38,324.795 270.38,324.128 272.5,325.5C 274.444,324.811 276.444,324.311 278.5,324C 281.2,321.775 284.2,320.275 287.5,319.5C 287.5,318.167 287.5,316.833 287.5,315.5C 292.833,315.5 298.167,315.5 303.5,315.5C 303.5,318.167 303.5,320.833 303.5,323.5C 308.943,323.442 312.11,326.108 313,331.5C 314.841,328.17 317.341,325.504 320.5,323.5C 321.429,322.311 321.762,320.978 321.5,319.5C 323.5,319.5 325.5,319.5 327.5,319.5C 327.649,318.448 327.483,317.448 327,316.5C 326.667,316.833 326.333,317.167 326,317.5C 325.5,316.5 325,315.5 324.5,314.5C 325.512,310.981 327.845,308.814 331.5,308C 329.139,307.803 327.472,306.636 326.5,304.5C 329.5,303.833 332.5,303.167 335.5,302.5C 333.979,300.714 333.646,298.881 334.5,297C 329.799,295.472 327.132,292.305 326.5,287.5C 324.278,287.178 322.444,287.845 321,289.5C 320.5,289 320,288.5 319.5,288C 314.177,287.501 308.844,287.334 303.5,287.5C 303.823,283.774 303.489,280.107 302.5,276.5C 300.166,277.841 298.499,277.174 297.5,274.5C 297.881,272.259 298.048,269.926 298,267.5C 301.43,266 304.93,264.5 308.5,263C 310.904,259.243 313.57,255.743 316.5,252.5C 313.833,251.167 311.167,251.167 308.5,252.5C 311.946,254.269 311.279,255.269 306.5,255.5C 302.785,253.491 298.452,251.491 293.5,249.5 Z"/></g>
<g><path style="opacity:1" fill="#5e4c50" d="M 299.5,329.5 C 296.785,327.877 293.785,327.21 290.5,327.5C 291.152,326.275 292.319,325.608 294,325.5C 297.133,325.142 298.967,326.475 299.5,329.5 Z"/></g>
<g><path style="opacity:1" fill="#44393d" d="M 335.5,321.5 C 335.448,324.346 334.448,326.68 332.5,328.5C 332.759,325.728 333.759,323.395 335.5,321.5 Z"/></g>
<g><path style="opacity:1" fill="#52393d" d="M 379.5,319.5 C 378.618,322.385 377.284,325.052 375.5,327.5C 370.672,328.312 366.005,328.312 361.5,327.5C 361.5,326.167 361.5,324.833 361.5,323.5C 364.704,324.684 367.871,326.017 371,327.5C 374.322,325.344 377.156,322.677 379.5,319.5 Z"/></g>
<g><path style="opacity:1" fill="#070406" d="M 290.5,327.5 C 293.785,327.21 296.785,327.877 299.5,329.5C 299.67,331.848 300.003,334.182 300.5,336.5C 300.594,338.912 299.594,340.745 297.5,342C 290.95,343.42 284.284,343.92 277.5,343.5C 276.5,343.5 275.5,343.5 274.5,343.5C 268.602,342.864 262.602,342.031 256.5,341C 255.419,339.289 255.752,337.789 257.5,336.5C 258.167,336.5 258.5,336.167 258.5,335.5C 263.484,334.016 268.151,331.849 272.5,329C 278.681,328.828 284.681,328.328 290.5,327.5 Z"/></g>
<g><path style="opacity:1" fill="#925450" d="M 383.5,289.5 C 383.572,302.178 383.239,315.178 382.5,328.5C 381.012,330.149 380.012,332.149 379.5,334.5C 377.591,335.348 375.591,335.682 373.5,335.5C 373.719,340.06 372.052,343.727 368.5,346.5C 367.493,352.195 366.326,357.862 365,363.5C 364.8,365.32 363.966,366.653 362.5,367.5C 364.271,361.645 365.271,355.645 365.5,349.5C 364.722,343.173 364.555,336.839 365,330.5C 365.414,330.043 365.914,329.709 366.5,329.5C 367.216,330.311 368.05,330.978 369,331.5C 371.867,330.619 374.367,329.286 376.5,327.5C 377.793,325.704 379.293,324.037 381,322.5C 381.333,312.167 381.667,301.833 382,291.5C 382.278,290.584 382.778,289.918 383.5,289.5 Z"/></g>
<g><path style="opacity:1" fill="#463b3e" d="M 332.5,329.5 C 331.386,333.25 330.386,336.917 329.5,340.5C 329.337,338.143 329.503,335.81 330,333.5C 330.2,331.68 331.034,330.347 332.5,329.5 Z"/></g>
<g><path style="opacity:1" fill="#675761" d="M 188.5,335.5 C 192.846,335.334 197.179,335.501 201.5,336C 202.416,336.278 203.082,336.778 203.5,337.5C 198.332,337.066 193.332,336.4 188.5,335.5 Z"/></g>
<g><path style="opacity:1" fill="#372a32" d="M 168.5,331.5 C 169.5,332.167 170.5,332.833 171.5,333.5C 171.611,334.117 171.944,334.617 172.5,335C 177.489,335.499 182.489,335.666 187.5,335.5C 187.833,335.5 188.167,335.5 188.5,335.5C 193.332,336.4 198.332,337.066 203.5,337.5C 205.167,337.5 206.833,337.5 208.5,337.5C 209.641,338.339 210.974,339.006 212.5,339.5C 213.495,345.128 213.829,350.794 213.5,356.5C 212.512,351.36 212.179,346.026 212.5,340.5C 199.217,338.919 185.884,337.753 172.5,337C 170.536,335.549 169.203,333.716 168.5,331.5 Z"/></g>
<g><path style="opacity:1" fill="#4e4344" d="M 257.5,336.5 C 255.752,337.789 255.419,339.289 256.5,341C 262.602,342.031 268.602,342.864 274.5,343.5C 266.315,344.05 258.315,343.216 250.5,341C 248.519,340.395 248.185,339.395 249.5,338C 252.117,337.178 254.784,336.678 257.5,336.5 Z"/></g>
<g><path style="opacity:1" fill="#4b3e40" d="M 299.5,329.5 C 300.222,329.918 300.722,330.584 301,331.5C 301.498,334.482 301.665,337.482 301.5,340.5C 300.038,341.458 298.705,342.624 297.5,344C 290.654,344.821 283.987,344.654 277.5,343.5C 284.284,343.92 290.95,343.42 297.5,342C 299.594,340.745 300.594,338.912 300.5,336.5C 300.003,334.182 299.67,331.848 299.5,329.5 Z"/></g>
<g><path style="opacity:1" fill="#94544e" d="M 511.5,23.5 C 511.5,186.167 511.5,348.833 511.5,511.5C 480.167,511.5 448.833,511.5 417.5,511.5C 416.194,510.533 415.527,509.199 415.5,507.5C 440.996,508.271 466.329,507.938 491.5,506.5C 494.444,506.724 497.277,507.39 500,508.5C 503.932,508.401 506.099,506.401 506.5,502.5C 506.042,484.124 505.042,465.79 503.5,447.5C 500.348,447.047 497.848,448.047 496,450.5C 495.5,444.175 495.334,437.842 495.5,431.5C 496.833,431.5 498.167,431.5 499.5,431.5C 498.834,415.509 498.5,399.509 498.5,383.5C 496.167,383.5 493.833,383.5 491.5,383.5C 491.5,378.167 491.5,372.833 491.5,367.5C 489.833,367.5 488.167,367.5 486.5,367.5C 487.303,362.524 490.136,359.191 495,357.5C 495.499,352.845 495.666,348.179 495.5,343.5C 496.552,343.351 497.552,343.517 498.5,344C 501.585,347.198 504.585,350.365 507.5,353.5C 508.557,351.997 509.224,350.33 509.5,348.5C 508.603,344.514 507.769,340.514 507,336.5C 506.586,336.043 506.086,335.709 505.5,335.5C 505.167,331.5 504.833,327.5 504.5,323.5C 505.749,298.119 505.082,272.785 502.5,247.5C 502.742,241.946 503.909,236.612 506,231.5C 506.333,233.833 506.667,236.167 507,238.5C 507.3,229.068 507.966,219.735 509,210.5C 508.667,211.833 508.333,213.167 508,214.5C 508.935,201.039 509.768,187.539 510.5,174C 509.712,158.623 509.045,143.123 508.5,127.5C 507.5,127.5 506.5,127.5 505.5,127.5C 504.998,122.162 504.831,116.828 505,111.5C 505.333,113.833 505.667,116.167 506,118.5C 507.784,114.993 507.95,111.327 506.5,107.5C 507.823,103.599 508.823,99.5987 509.5,95.5C 510.607,74.0691 510.607,52.9024 509.5,32C 510.128,29.0614 510.795,26.2281 511.5,23.5 Z"/></g>
<g><path style="opacity:1" fill="#9e837f" d="M 248.5,335.5 C 251.833,335.5 255.167,335.5 258.5,335.5C 258.5,336.167 258.167,336.5 257.5,336.5C 254.784,336.678 252.117,337.178 249.5,338C 248.185,339.395 248.519,340.395 250.5,341C 258.315,343.216 266.315,344.05 274.5,343.5C 275.5,343.5 276.5,343.5 277.5,343.5C 283.987,344.654 290.654,344.821 297.5,344C 298.705,342.624 300.038,341.458 301.5,340.5C 302.117,340.389 302.617,340.056 303,339.5C 303.026,342.738 301.859,345.571 299.5,348C 292.167,348.667 284.833,348.667 277.5,348C 272.209,346.08 267.042,346.247 262,348.5C 260.739,348.241 259.739,347.574 259,346.5C 258.692,347.308 258.192,347.975 257.5,348.5C 255.833,347.833 254.167,347.167 252.5,346.5C 251.278,344.022 249.278,343.022 246.5,343.5C 245.163,342.685 244.163,341.518 243.5,340C 245.24,338.483 246.906,336.983 248.5,335.5 Z"/></g>
<g><path style="opacity:1" fill="#635a62" d="M 208.5,337.5 C 210.467,337.261 212.301,337.594 214,338.5C 214.169,345.524 214.669,352.524 215.5,359.5C 216.646,360.145 217.646,360.978 218.5,362C 228.061,363.448 237.727,363.948 247.5,363.5C 238.343,364.658 229.009,364.824 219.5,364C 215.082,363.417 213.082,360.917 213.5,356.5C 213.829,350.794 213.495,345.128 212.5,339.5C 210.974,339.006 209.641,338.339 208.5,337.5 Z"/></g>
<g><path style="opacity:1" fill="#776869" d="M 328.5,340.5 C 328.468,346.189 328.134,351.855 327.5,357.5C 326.5,358.167 325.5,358.833 324.5,359.5C 325.265,356.904 325.599,354.237 325.5,351.5C 326.393,347.809 327.393,344.142 328.5,340.5 Z"/></g>
<g><path style="opacity:1" fill="#a08379" d="M 255.5,354.5 C 260.368,355.213 265.368,355.879 270.5,356.5C 272.635,353.922 274.635,354.088 276.5,357C 281.833,357.667 287.167,357.667 292.5,357C 294.812,355.9 297.145,355.067 299.5,354.5C 301.634,354.515 303.634,355.015 305.5,356C 304.833,356.333 304.167,356.667 303.5,357C 309.825,357.5 316.158,357.666 322.5,357.5C 322.389,358.117 322.056,358.617 321.5,359C 304.836,359.649 288.169,360.149 271.5,360.5C 271.03,359.307 270.03,358.64 268.5,358.5C 259.933,356.957 251.599,357.79 243.5,361C 236.654,361.821 229.987,361.654 223.5,360.5C 228.844,360.666 234.177,360.499 239.5,360C 244.79,357.835 250.124,356.002 255.5,354.5 Z"/></g>
<g><path style="opacity:1" fill="#343639" d="M 327.5,357.5 C 326.833,360.167 325.167,361.833 322.5,362.5C 322.5,362.167 322.5,361.833 322.5,361.5C 323.167,360.833 323.833,360.167 324.5,359.5C 325.5,358.833 326.5,358.167 327.5,357.5 Z"/></g>
<g><path style="opacity:1" fill="#9e8d8a" d="M 324.5,351.5 C 324.833,351.5 325.167,351.5 325.5,351.5C 325.599,354.237 325.265,356.904 324.5,359.5C 323.833,360.167 323.167,360.833 322.5,361.5C 305.325,361.83 288.325,361.497 271.5,360.5C 288.169,360.149 304.836,359.649 321.5,359C 322.056,358.617 322.389,358.117 322.5,357.5C 324.081,355.858 324.747,353.858 324.5,351.5 Z"/></g>
<g><path style="opacity:1" fill="#9a8584" d="M 217.5,343.5 C 217.38,347.042 217.714,350.542 218.5,354C 220.011,356.337 221.678,358.504 223.5,360.5C 229.987,361.654 236.654,361.821 243.5,361C 251.599,357.79 259.933,356.957 268.5,358.5C 270.03,358.64 271.03,359.307 271.5,360.5C 265.642,360.178 259.975,360.511 254.5,361.5C 252.219,361.077 250.552,361.744 249.5,363.5C 248.833,363.5 248.167,363.5 247.5,363.5C 237.727,363.948 228.061,363.448 218.5,362C 217.646,360.978 216.646,360.145 215.5,359.5C 214.669,352.524 214.169,345.524 214,338.5C 212.301,337.594 210.467,337.261 208.5,337.5C 206.833,337.5 205.167,337.5 203.5,337.5C 203.082,336.778 202.416,336.278 201.5,336C 197.179,335.501 192.846,335.334 188.5,335.5C 188.167,335.5 187.833,335.5 187.5,335.5C 185.012,333.612 182.012,332.945 178.5,333.5C 180.018,331.228 182.185,329.895 185,329.5C 189.749,330.305 194.582,330.805 199.5,331C 205.34,332.977 211.34,334.477 217.5,335.5C 217.5,338.167 217.5,340.833 217.5,343.5 Z"/></g>
<g><path style="opacity:1" fill="#4c4952" d="M 254.5,361.5 C 276.49,362.304 298.49,362.637 320.5,362.5C 296.973,363.264 273.306,363.597 249.5,363.5C 250.552,361.744 252.219,361.077 254.5,361.5 Z"/></g>
<g><path style="opacity:1" fill="#827a7f" d="M 254.5,361.5 C 259.975,360.511 265.642,360.178 271.5,360.5C 288.325,361.497 305.325,361.83 322.5,361.5C 322.5,361.833 322.5,362.167 322.5,362.5C 321.833,362.5 321.167,362.5 320.5,362.5C 298.49,362.637 276.49,362.304 254.5,361.5 Z"/></g>
<g><path style="opacity:1" fill="#7e4e4e" d="M 116.5,336.5 C 121.695,345.057 125.362,354.391 127.5,364.5C 127.5,364.833 127.5,365.167 127.5,365.5C 125.989,366.502 124.322,367.169 122.5,367.5C 123.44,363.537 123.607,359.537 123,355.5C 119.426,349.649 117.259,343.315 116.5,336.5 Z"/></g>
<g><path style="opacity:1" fill="#604042" d="M 361.5,335.5 C 362.268,336.263 362.768,337.263 363,338.5C 363.167,342 363.333,345.5 363.5,349C 362.902,357.887 361.902,366.721 360.5,375.5C 359.839,373.866 359.506,372.033 359.5,370C 360.744,362.526 361.744,355.026 362.5,347.5C 362.332,343.475 361.999,339.475 361.5,335.5 Z"/></g>
<g><path style="opacity:1" fill="#583d3c" d="M 127.5,364.5 C 130.14,369.085 131.806,374.085 132.5,379.5C 130.449,375.017 128.783,370.351 127.5,365.5C 127.5,365.167 127.5,364.833 127.5,364.5 Z"/></g>
<g><path style="opacity:1" fill="#845152" d="M 375.5,327.5 C 375.833,327.5 376.167,327.5 376.5,327.5C 374.367,329.286 371.867,330.619 369,331.5C 368.05,330.978 367.216,330.311 366.5,329.5C 365.914,329.709 365.414,330.043 365,330.5C 364.555,336.839 364.722,343.173 365.5,349.5C 365.271,355.645 364.271,361.645 362.5,367.5C 362.5,375.833 362.5,384.167 362.5,392.5C 362.826,401.017 362.493,409.35 361.5,417.5C 361.828,405.988 361.495,394.654 360.5,383.5C 360.5,380.833 360.5,378.167 360.5,375.5C 361.902,366.721 362.902,357.887 363.5,349C 363.333,345.5 363.167,342 363,338.5C 362.768,337.263 362.268,336.263 361.5,335.5C 361.5,332.833 361.5,330.167 361.5,327.5C 366.005,328.312 370.672,328.312 375.5,327.5 Z"/></g>
<g><path style="opacity:1" fill="#4f3b3c" d="M 132.5,379.5 C 134.538,383.94 136.204,388.607 137.5,393.5C 135.456,390.377 133.789,387.044 132.5,383.5C 132.5,382.167 132.5,380.833 132.5,379.5 Z"/></g>
<g><path style="opacity:1" fill="#93524d" d="M -0.5,63.5 C 0.333131,202.333 0.833131,341.333 1,480.5C 1.41395,480.043 1.91395,479.709 2.5,479.5C 3.72814,486.833 3.72814,494.166 2.5,501.5C 2.83333,502.5 3.16667,503.5 3.5,504.5C 5.10172,503.45 5.93505,504.117 6,506.5C 8.75852,507.654 11.4252,507.321 14,505.5C 19.6987,506.766 25.5321,507.432 31.5,507.5C 41.5378,507.081 51.5378,506.248 61.5,505C 59.2479,502.113 56.2479,500.78 52.5,501C 53.5,500.167 54.5,499.333 55.5,498.5C 54.5,497.667 53.5,496.833 52.5,496C 55.9555,495.82 59.2889,495.153 62.5,494C 63.4438,491.281 63.7771,488.448 63.5,485.5C 65.6547,485.628 67.6547,485.128 69.5,484C 71.8048,480.358 75.1382,478.858 79.5,479.5C 79.3379,477.473 79.5045,475.473 80,473.5C 84.8636,471.809 87.697,468.476 88.5,463.5C 91.8499,463.665 95.1832,463.498 98.5,463C 96.2031,461.737 95.3698,459.903 96,457.5C 98.3806,458.435 100.881,458.768 103.5,458.5C 103.318,456.325 102.651,454.325 101.5,452.5C 101.833,451.833 102.167,451.167 102.5,450.5C 108.146,449.875 113.813,449.208 119.5,448.5C 122.206,443.899 126.04,441.899 131,442.5C 134.413,437.932 134.247,433.598 130.5,429.5C 129.877,431.966 129.043,434.299 128,436.5C 127.176,433.118 127.343,429.784 128.5,426.5C 132.154,424.346 132.487,421.679 129.5,418.5C 132.044,415.849 133.377,412.682 133.5,409C 133.693,406.992 133.026,405.492 131.5,404.5C 130.035,403.594 129.035,402.261 128.5,400.5C 129.077,392.963 130.41,392.63 132.5,399.5C 134.004,402.659 135.337,405.993 136.5,409.5C 137.167,408.167 137.833,406.833 138.5,405.5C 139.748,408.506 139.748,411.506 138.5,414.5C 143.293,418.681 145.626,423.347 145.5,428.5C 150.618,433.679 152.451,439.679 151,446.5C 148.19,443.803 147.357,444.303 148.5,448C 144.72,452.197 144.886,456.03 149,459.5C 149.333,459.167 149.667,458.833 150,458.5C 150.1,461.536 149.6,464.536 148.5,467.5C 148.406,470.501 149.739,472.501 152.5,473.5C 153.588,481.167 155.254,488.5 157.5,495.5C 159.124,495.64 160.29,494.973 161,493.5C 162.908,495.907 164.908,495.907 167,493.5C 169.875,495.569 172.542,497.902 175,500.5C 175.399,500.272 175.565,499.938 175.5,499.5C 176.801,500.884 176.801,502.384 175.5,504C 178.064,504.45 179.564,503.284 180,500.5C 180.333,498.5 180.667,496.5 181,494.5C 182.785,493.76 184.618,493.093 186.5,492.5C 190.614,494.445 194.947,495.612 199.5,496C 188.833,496.667 188.833,497.333 199.5,498C 201.731,499.147 204.065,500.147 206.5,501C 207.117,504.638 208.117,508.138 209.5,511.5C 139.5,511.5 69.5,511.5 -0.5,511.5C -0.5,362.167 -0.5,212.833 -0.5,63.5 Z"/></g>
<g><path style="opacity:1" fill="#624445" d="M 137.5,393.5 C 139.487,399.125 141.487,404.792 143.5,410.5C 142.85,410.196 142.183,409.863 141.5,409.5C 139.105,404.488 137.771,399.155 137.5,393.5 Z"/></g>
<g><path style="opacity:1" fill="#513335" d="M 360.5,383.5 C 361.495,394.654 361.828,405.988 361.5,417.5C 359.329,424.806 356.829,432.139 354,439.5C 349.222,443.1 345.388,447.433 342.5,452.5C 343.123,447.027 345.957,443.027 351,440.5C 353.225,431.819 356.225,423.486 360,415.5C 360.5,404.839 360.667,394.172 360.5,383.5 Z"/></g>
<g><path style="opacity:1" fill="#8d5353" d="M 132.5,383.5 C 133.789,387.044 135.456,390.377 137.5,393.5C 137.771,399.155 139.105,404.488 141.5,409.5C 142.183,409.863 142.85,410.196 143.5,410.5C 145.028,413.749 146.361,417.082 147.5,420.5C 148.507,428.515 151.34,435.849 156,442.5C 156.354,446.354 156.854,450.188 157.5,454C 155.594,458.477 154.594,463.144 154.5,468C 155.118,473.524 155.951,479.024 157,484.5C 158.715,486.759 160.548,488.926 162.5,491C 165.758,491.212 168.924,491.712 172,492.5C 174.632,489.854 178.132,487.854 182.5,486.5C 180.583,490.643 178.25,494.976 175.5,499.5C 175.565,499.938 175.399,500.272 175,500.5C 172.542,497.902 169.875,495.569 167,493.5C 164.908,495.907 162.908,495.907 161,493.5C 160.29,494.973 159.124,495.64 157.5,495.5C 155.254,488.5 153.588,481.167 152.5,473.5C 149.739,472.501 148.406,470.501 148.5,467.5C 149.6,464.536 150.1,461.536 150,458.5C 149.667,458.833 149.333,459.167 149,459.5C 144.886,456.03 144.72,452.197 148.5,448C 147.357,444.303 148.19,443.803 151,446.5C 152.451,439.679 150.618,433.679 145.5,428.5C 145.626,423.347 143.293,418.681 138.5,414.5C 139.748,411.506 139.748,408.506 138.5,405.5C 137.833,406.833 137.167,408.167 136.5,409.5C 135.337,405.993 134.004,402.659 132.5,399.5C 132.215,397.712 132.548,396.045 133.5,394.5C 134.396,395.506 135.062,395.506 135.5,394.5C 133.609,391.058 132.609,387.391 132.5,383.5 Z"/></g>
<g><path style="opacity:1" fill="#834f4e" d="M 361.5,417.5 C 360.88,425.702 359.38,433.702 357,441.5C 355.954,443.09 354.787,444.59 353.5,446C 352.551,446.617 351.718,446.451 351,445.5C 349.881,446.552 349.381,447.719 349.5,449C 348.062,449.219 346.729,449.719 345.5,450.5C 344.397,455.157 342.73,459.49 340.5,463.5C 340.5,462.167 340.5,460.833 340.5,459.5C 341.924,457.485 342.59,455.152 342.5,452.5C 345.388,447.433 349.222,443.1 354,439.5C 356.829,432.139 359.329,424.806 361.5,417.5 Z"/></g>
<g><path style="opacity:1" fill="#422a2c" d="M 342.5,452.5 C 342.59,455.152 341.924,457.485 340.5,459.5C 340.41,456.848 341.076,454.515 342.5,452.5 Z"/></g>
<g><path style="opacity:1" fill="#3f323d" d="M 159.5,450.5 C 160.647,454.646 160.814,458.98 160,463.5C 157.994,466.536 157.16,469.869 157.5,473.5C 155.954,469.358 156.454,465.358 159,461.5C 159.499,457.848 159.665,454.182 159.5,450.5 Z"/></g>
<g><path style="opacity:1" fill="#3b2528" d="M 338.5,467.5 C 335.72,469.026 332.72,470.36 329.5,471.5C 329.414,470.504 329.748,469.671 330.5,469C 333.254,468.728 335.921,468.228 338.5,467.5 Z"/></g>
<g><path style="opacity:1" fill="#211922" d="M 183.5,482.5 C 179.486,482.334 175.486,482.501 171.5,483C 169.959,484.371 168.625,485.871 167.5,487.5C 166.833,487.5 166.167,487.5 165.5,487.5C 169.878,479.906 175.878,478.239 183.5,482.5 Z"/></g>
<g><path style="opacity:1" fill="#483743" d="M 183.5,482.5 C 185.38,482.229 186.713,482.896 187.5,484.5C 180.356,482.914 173.69,483.914 167.5,487.5C 168.625,485.871 169.959,484.371 171.5,483C 175.486,482.501 179.486,482.334 183.5,482.5 Z"/></g>
<g><path style="opacity:1" fill="#7e5a60" d="M 147.5,420.5 C 152.579,430.002 156.579,440.002 159.5,450.5C 159.665,454.182 159.499,457.848 159,461.5C 156.454,465.358 155.954,469.358 157.5,473.5C 158.354,477.583 159.521,481.583 161,485.5C 162.11,487.037 163.61,487.703 165.5,487.5C 166.167,487.5 166.833,487.5 167.5,487.5C 173.69,483.914 180.356,482.914 187.5,484.5C 188.683,485.504 190.016,486.338 191.5,487C 204.088,489.012 216.755,489.845 229.5,489.5C 229.5,489.833 229.5,490.167 229.5,490.5C 222.167,490.5 214.833,490.5 207.5,490.5C 198.875,490.46 190.541,489.126 182.5,486.5C 178.132,487.854 174.632,489.854 172,492.5C 168.924,491.712 165.758,491.212 162.5,491C 160.548,488.926 158.715,486.759 157,484.5C 155.951,479.024 155.118,473.524 154.5,468C 154.594,463.144 155.594,458.477 157.5,454C 156.854,450.188 156.354,446.354 156,442.5C 151.34,435.849 148.507,428.515 147.5,420.5 Z"/></g>
<g><path style="opacity:1" fill="#1e1113" d="M 267.5,488.5 C 280.316,489.089 292.982,489.756 305.5,490.5C 294.167,490.5 282.833,490.5 271.5,490.5C 269.847,490.34 268.514,489.674 267.5,488.5 Z"/></g>
<g><path style="opacity:1" fill="#765256" d="M 271.5,490.5 C 282.833,490.5 294.167,490.5 305.5,490.5C 305.783,491.289 306.283,491.956 307,492.5C 307.406,498.849 307.906,505.183 308.5,511.5C 307.833,511.5 307.167,511.5 306.5,511.5C 305.945,505.846 305.445,500.18 305,494.5C 304.283,493.956 303.783,493.289 303.5,492.5C 292.833,491.833 282.167,491.167 271.5,490.5 Z"/></g>
<g><path style="opacity:1" fill="#1e161b" d="M 317.5,487.5 C 315.097,487.393 313.264,488.393 312,490.5C 311.5,497.492 311.334,504.492 311.5,511.5C 310.5,511.5 309.5,511.5 308.5,511.5C 307.906,505.183 307.406,498.849 307,492.5C 306.283,491.956 305.783,491.289 305.5,490.5C 308.491,490.857 311.158,489.691 313.5,487C 315.066,486.235 316.399,486.402 317.5,487.5 Z"/></g>
<g><path style="opacity:1" fill="#1d141b" d="M 229.5,490.5 C 229.5,490.167 229.5,489.833 229.5,489.5C 234.728,490.496 240.062,491.329 245.5,492C 246.756,492.417 247.423,493.25 247.5,494.5C 241.768,494.44 236.434,493.106 231.5,490.5C 230.833,490.5 230.167,490.5 229.5,490.5 Z"/></g>
<g><path style="opacity:1" fill="#8e585e" d="M 267.5,488.5 C 268.514,489.674 269.847,490.34 271.5,490.5C 282.167,491.167 292.833,491.833 303.5,492.5C 294.818,492.413 286.151,492.746 277.5,493.5C 272.978,493.374 268.645,492.874 264.5,492C 261.832,498.162 260.832,504.662 261.5,511.5C 260.833,511.5 260.167,511.5 259.5,511.5C 259.687,506.155 260.02,500.822 260.5,495.5C 260.545,490.788 262.878,488.455 267.5,488.5 Z"/></g>
<g><path style="opacity:1" fill="#7d5154" d="M 340.5,463.5 C 340.663,465.857 340.497,468.19 340,470.5C 337.433,472.305 334.599,473.638 331.5,474.5C 329.041,479.708 326.875,485.041 325,490.5C 322.333,491.833 319.667,491.833 317,490.5C 316.333,491.167 315.667,491.833 315,492.5C 313.63,498.742 313.13,505.075 313.5,511.5C 313.167,511.5 312.833,511.5 312.5,511.5C 312.334,505.158 312.5,498.825 313,492.5C 315.574,489.973 318.74,488.806 322.5,489C 324.645,486.049 326.312,482.883 327.5,479.5C 328.167,476.833 328.833,474.167 329.5,471.5C 332.72,470.36 335.72,469.026 338.5,467.5C 338.989,466.005 339.655,464.671 340.5,463.5 Z"/></g>
<g><path style="opacity:1" fill="#5a434e" d="M 231.5,490.5 C 236.434,493.106 241.768,494.44 247.5,494.5C 248.925,495.922 249.925,497.589 250.5,499.5C 246.151,496.2 241.151,494.367 235.5,494C 233.681,493.26 232.348,492.093 231.5,490.5 Z"/></g>
<g><path style="opacity:1" fill="#925553" d="M 182.5,486.5 C 190.541,489.126 198.875,490.46 207.5,490.5C 207.5,491.5 207.5,492.5 207.5,493.5C 214.815,492.585 222.148,492.418 229.5,493C 231.5,493.667 232.833,495 233.5,497C 237.5,498 241.5,499 245.5,500C 248.259,502.239 250.592,504.739 252.5,507.5C 253.345,508.671 254.011,510.005 254.5,511.5C 239.5,511.5 224.5,511.5 209.5,511.5C 208.117,508.138 207.117,504.638 206.5,501C 204.065,500.147 201.731,499.147 199.5,498C 188.833,497.333 188.833,496.667 199.5,496C 194.947,495.612 190.614,494.445 186.5,492.5C 184.618,493.093 182.785,493.76 181,494.5C 180.667,496.5 180.333,498.5 180,500.5C 179.564,503.284 178.064,504.45 175.5,504C 176.801,502.384 176.801,500.884 175.5,499.5C 178.25,494.976 180.583,490.643 182.5,486.5 Z"/></g>
<g><path style="opacity:1" fill="#93534d" d="M 362.5,392.5 C 363.254,395.023 363.92,397.689 364.5,400.5C 363.211,406.147 363.211,411.813 364.5,417.5C 362.864,422.042 361.864,426.709 361.5,431.5C 362.833,431.5 364.167,431.5 365.5,431.5C 365.421,432.93 365.754,434.264 366.5,435.5C 365.423,437.729 364.756,440.063 364.5,442.5C 363.5,442.5 362.5,442.5 361.5,442.5C 361.5,444.167 361.5,445.833 361.5,447.5C 362.5,447.5 363.5,447.5 364.5,447.5C 364.222,445.654 364.889,444.32 366.5,443.5C 367.491,447.445 367.824,451.445 367.5,455.5C 364.15,455.335 360.817,455.502 357.5,456C 354.965,459.693 353.798,463.859 354,468.5C 353.586,468.957 353.086,469.291 352.5,469.5C 351.833,467.5 351.167,465.5 350.5,463.5C 350.016,466.295 348.516,468.962 346,471.5C 345.911,467.972 345.244,464.638 344,461.5C 344.193,466.352 342.86,470.685 340,474.5C 337.703,474.539 335.37,474.872 333,475.5C 331.401,482.03 329.235,488.364 326.5,494.5C 324.445,495.187 322.779,496.354 321.5,498C 325.736,500.314 330.07,502.48 334.5,504.5C 335.498,502.51 336.498,500.51 337.5,498.5C 339.332,497.752 340.999,496.752 342.5,495.5C 346.149,496.758 347.482,499.091 346.5,502.5C 358.357,507.29 370.691,509.29 383.5,508.5C 383.5,509.5 383.5,510.5 383.5,511.5C 360.167,511.5 336.833,511.5 313.5,511.5C 313.13,505.075 313.63,498.742 315,492.5C 315.667,491.833 316.333,491.167 317,490.5C 319.667,491.833 322.333,491.833 325,490.5C 326.875,485.041 329.041,479.708 331.5,474.5C 334.599,473.638 337.433,472.305 340,470.5C 340.497,468.19 340.663,465.857 340.5,463.5C 342.73,459.49 344.397,455.157 345.5,450.5C 346.729,449.719 348.062,449.219 349.5,449C 349.381,447.719 349.881,446.552 351,445.5C 351.718,446.451 352.551,446.617 353.5,446C 354.787,444.59 355.954,443.09 357,441.5C 359.38,433.702 360.88,425.702 361.5,417.5C 362.493,409.35 362.826,401.017 362.5,392.5 Z"/></g>
<g><path style="opacity:1" fill="#95646a" d="M 207.5,490.5 C 214.833,490.5 222.167,490.5 229.5,490.5C 230.167,490.5 230.833,490.5 231.5,490.5C 232.348,492.093 233.681,493.26 235.5,494C 241.151,494.367 246.151,496.2 250.5,499.5C 250.584,502.327 251.25,504.994 252.5,507.5C 250.592,504.739 248.259,502.239 245.5,500C 241.5,499 237.5,498 233.5,497C 232.833,495 231.5,493.667 229.5,493C 222.148,492.418 214.815,492.585 207.5,493.5C 207.5,492.5 207.5,491.5 207.5,490.5 Z"/></g>
<g><path style="opacity:1" fill="#965351" d="M 303.5,492.5 C 303.783,493.289 304.283,493.956 305,494.5C 305.445,500.18 305.945,505.846 306.5,511.5C 291.5,511.5 276.5,511.5 261.5,511.5C 260.832,504.662 261.832,498.162 264.5,492C 268.645,492.874 272.978,493.374 277.5,493.5C 286.151,492.746 294.818,492.413 303.5,492.5 Z"/></g>
<g><path style="opacity:1" fill="#684c52" d="M 327.5,479.5 C 326.312,482.883 324.645,486.049 322.5,489C 318.74,488.806 315.574,489.973 313,492.5C 312.5,498.825 312.334,505.158 312.5,511.5C 312.167,511.5 311.833,511.5 311.5,511.5C 311.334,504.492 311.5,497.492 312,490.5C 313.264,488.393 315.097,487.393 317.5,487.5C 318.873,487.657 320.207,487.49 321.5,487C 323.159,484.156 325.159,481.656 327.5,479.5 Z"/></g>
<g><path style="opacity:1" fill="#66474a" d="M 260.5,495.5 C 260.02,500.822 259.687,506.155 259.5,511.5C 258.833,511.5 258.167,511.5 257.5,511.5C 257.334,507.486 257.501,503.486 258,499.5C 258.608,497.934 259.442,496.6 260.5,495.5 Z"/></g>
<g><path style="opacity:1" fill="#4e373c" d="M 250.5,499.5 C 252.928,503.099 254.594,507.099 255.5,511.5C 255.167,511.5 254.833,511.5 254.5,511.5C 254.011,510.005 253.345,508.671 252.5,507.5C 251.25,504.994 250.584,502.327 250.5,499.5 Z"/></g>
</svg>
