<?xml version="1.0" encoding="UTF-8"?>
<!DOCTYPE svg PUBLIC "-//W3C//DTD SVG 1.1//EN" "http://www.w3.org/Graphics/SVG/1.1/DTD/svg11.dtd">
<svg xmlns="http://www.w3.org/2000/svg" version="1.1" width="512px" height="512px" style="shape-rendering:geometricPrecision; text-rendering:geometricPrecision; image-rendering:optimizeQuality; fill-rule:evenodd; clip-rule:evenodd" xmlns:xlink="http://www.w3.org/1999/xlink">
<g><path style="opacity:1" fill="#648596" d="M -0.5,-0.5 C 170.167,-0.5 340.833,-0.5 511.5,-0.5C 511.5,170.167 511.5,340.833 511.5,511.5C 432.833,511.5 354.167,511.5 275.5,511.5C 277.11,497.515 278.61,483.515 280,469.5C 280.333,469.833 280.667,470.167 281,470.5C 281.866,467.021 283.033,463.688 284.5,460.5C 291.814,458.926 298.814,456.593 305.5,453.5C 308.967,451.933 312.3,450.099 315.5,448C 322.708,440.296 329.708,432.462 336.5,424.5C 347.951,411.547 352.618,396.547 350.5,379.5C 352.051,364.581 354.385,349.914 357.5,335.5C 357.34,337.199 357.506,338.866 358,340.5C 359.825,332.876 361.325,325.209 362.5,317.5C 363.9,306.485 363.733,295.485 362,284.5C 359.686,275.243 357.686,265.91 356,256.5C 355.329,255.748 354.496,255.414 353.5,255.5C 354.833,253.167 354.833,250.833 353.5,248.5C 356.505,248.25 358.338,249.583 359,252.5C 359.72,250.888 359.554,249.388 358.5,248C 361.807,243.466 362.807,238.466 361.5,233C 361.482,230.578 362.149,228.412 363.5,226.5C 362.217,224.159 361.217,221.659 360.5,219C 361.467,212.084 361.634,204.918 361,197.5C 360.617,196.944 360.117,196.611 359.5,196.5C 359.107,194.716 358.441,193.05 357.5,191.5C 357.62,189.266 357.287,187.099 356.5,185C 353.942,183.127 351.275,181.294 348.5,179.5C 347.167,178.5 347.167,177.5 348.5,176.5C 346.164,175.406 346.164,174.073 348.5,172.5C 350.462,173.634 352.462,173.634 354.5,172.5C 356.332,173.821 358.332,174.821 360.5,175.5C 360.487,178.863 358.821,181.03 355.5,182C 356.667,182.5 357.5,183.333 358,184.5C 359.587,183.273 360.921,183.606 362,185.5C 363.128,187.345 363.628,189.345 363.5,191.5C 364.833,191.5 366.167,191.5 367.5,191.5C 367.5,188.5 367.5,185.5 367.5,182.5C 365.712,182.785 364.045,182.452 362.5,181.5C 363.465,174.224 363.799,166.891 363.5,159.5C 362.167,159.5 360.833,159.5 359.5,159.5C 359.66,157.801 359.494,156.134 359,154.5C 356.344,151.199 354.178,147.532 352.5,143.5C 348.613,140.667 344.946,137.667 341.5,134.5C 340.365,132.201 339.032,130.034 337.5,128C 336.167,128.667 334.833,129.333 333.5,130C 332.542,128.853 332.875,127.853 334.5,127C 332.423,123.629 329.423,121.796 325.5,121.5C 325.67,120.178 325.337,119.011 324.5,118C 319.447,114.445 314.113,111.278 308.5,108.5C 307.759,104.815 306.259,104.149 304,106.5C 303.517,105.552 303.351,104.552 303.5,103.5C 299.367,102.102 295.034,101.269 290.5,101C 288.393,99.7365 287.393,97.9032 287.5,95.5C 284.833,95.5 282.167,95.5 279.5,95.5C 278.833,89.5 281.5,86.8333 287.5,87.5C 287.5,84.8333 287.5,82.1667 287.5,79.5C 282.167,79.5 276.833,79.5 271.5,79.5C 271.5,84.8333 271.5,90.1667 271.5,95.5C 260.918,95.035 250.251,95.035 239.5,95.5C 239.5,96.8333 239.5,98.1667 239.5,99.5C 234.167,99.5 228.833,99.5 223.5,99.5C 223.657,98.1266 223.49,96.7932 223,95.5C 218.333,100.167 213.667,104.833 209,109.5C 208.203,112.22 207.037,114.72 205.5,117C 201.268,118.95 196.934,120.617 192.5,122C 191.594,123.699 191.261,125.533 191.5,127.5C 189.167,127.5 186.833,127.5 184.5,127.5C 183.72,134.198 180.553,136.198 175,133.5C 170.136,135.191 167.303,138.524 166.5,143.5C 164.167,143.5 161.833,143.5 159.5,143.5C 159.662,145.527 159.495,147.527 159,149.5C 154.136,151.191 151.303,154.524 150.5,159.5C 149.5,159.5 148.5,159.5 147.5,159.5C 147.518,163.446 146.518,167.112 144.5,170.5C 141.297,169.463 138.463,167.797 136,165.5C 133.799,166.996 131.299,167.996 128.5,168.5C 129.833,170.5 131.167,172.5 132.5,174.5C 130.96,175.532 130.46,176.865 131,178.5C 132.743,180.321 134.243,182.321 135.5,184.5C 132.439,185.81 131.106,188.143 131.5,191.5C 130.5,191.5 129.5,191.5 128.5,191.5C 128.597,196.03 128.264,200.53 127.5,205C 127.482,207.379 128.149,209.546 129.5,211.5C 128.96,212.748 128.293,213.915 127.5,215C 129.676,218.511 131.176,222.344 132,226.5C 133.705,227.763 135.372,228.097 137,227.5C 137.579,229.649 138.079,231.815 138.5,234C 137.27,236.513 137.27,239.013 138.5,241.5C 136.936,242.494 135.936,244.494 135.5,247.5C 136.503,250.457 136.836,253.623 136.5,257C 135.461,260.617 134.128,264.117 132.5,267.5C 133.107,269.775 133.441,272.109 133.5,274.5C 132.629,284.157 131.962,293.824 131.5,303.5C 130.5,303.5 129.5,303.5 128.5,303.5C 127.62,310.149 127.454,316.816 128,323.5C 129.71,325.38 131.543,327.046 133.5,328.5C 134.864,327.957 136.197,327.79 137.5,328C 135.352,330.075 135.018,332.408 136.5,335C 134.312,337.71 132.645,340.71 131.5,344C 135.955,346.291 139.622,349.458 142.5,353.5C 143.318,350.893 143.818,348.226 144,345.5C 144.302,352.945 145.135,360.279 146.5,367.5C 148.5,367.5 150.5,367.5 152.5,367.5C 152.024,372.101 151.024,376.601 149.5,381C 150.054,382.551 150.72,384.051 151.5,385.5C 150.56,388.132 150.393,390.798 151,393.5C 154.592,393.926 156.092,395.926 155.5,399.5C 154.167,399.5 152.833,399.5 151.5,399.5C 151.788,405.229 151.454,410.896 150.5,416.5C 154.028,420.614 155.028,425.281 153.5,430.5C 155.998,431.938 158.164,431.604 160,429.5C 161.789,431.229 163.956,431.896 166.5,431.5C 166.333,442.172 166.5,452.839 167,463.5C 167.92,466.101 168.587,468.768 169,471.5C 169.815,463.254 169.648,455.088 168.5,447C 169.249,445.266 169.749,443.433 170,441.5C 171.785,464.808 171.951,488.141 170.5,511.5C 113.5,511.5 56.5,511.5 -0.5,511.5C -0.5,340.833 -0.5,170.167 -0.5,-0.5 Z"/></g>
<g><path style="opacity:1" fill="#618191" d="M 357.5,191.5 C 355.066,188.562 352.399,185.729 349.5,183C 345.812,181.818 342.145,180.652 338.5,179.5C 338.448,181.903 338.781,184.236 339.5,186.5C 338.206,185.71 337.039,184.71 336,183.5C 334.229,179.461 332.063,175.627 329.5,172C 327.463,172.483 325.463,173.316 323.5,174.5C 324.864,172.809 326.197,171.142 327.5,169.5C 328.117,169.389 328.617,169.056 329,168.5C 331.621,155.78 326.454,148.613 313.5,147C 311.14,141.439 307.14,137.605 301.5,135.5C 300.914,135.709 300.414,136.043 300,136.5C 296.119,134.589 291.952,133.256 287.5,132.5C 287.5,131.5 287.5,130.5 287.5,129.5C 278.202,129.838 268.868,130.005 259.5,130C 250.115,132.375 241.282,135.875 233,140.5C 230.503,138.952 228.003,138.285 225.5,138.5C 224.304,138.846 224.304,139.346 225.5,140C 221.737,141.629 217.904,143.129 214,144.5C 211.936,143.409 209.769,143.242 207.5,144C 210,144.833 210.167,146 208,147.5C 207.667,146.833 207.333,146.167 207,145.5C 204.149,147.345 200.982,148.511 197.5,149C 196.366,150.016 196.699,150.683 198.5,151C 196.099,151.795 193.932,152.962 192,154.5C 191.866,157.288 192.199,159.955 193,162.5C 189.935,162.93 188.102,164.596 187.5,167.5C 186.013,168.804 184.346,169.97 182.5,171C 179.305,171.181 176.305,171.681 173.5,172.5C 172.394,175.383 171.061,178.217 169.5,181C 164.431,181.245 160.431,183.412 157.5,187.5C 154.5,188.5 152.5,190.5 151.5,193.5C 149.113,195.913 146.946,198.58 145,201.5C 144.5,209.493 144.334,217.493 144.5,225.5C 139.372,251.46 135.038,277.46 131.5,303.5C 131.962,293.824 132.629,284.157 133.5,274.5C 133.441,272.109 133.107,269.775 132.5,267.5C 134.128,264.117 135.461,260.617 136.5,257C 136.836,253.623 136.503,250.457 135.5,247.5C 135.936,244.494 136.936,242.494 138.5,241.5C 137.27,239.013 137.27,236.513 138.5,234C 138.079,231.815 137.579,229.649 137,227.5C 135.372,228.097 133.705,227.763 132,226.5C 131.176,222.344 129.676,218.511 127.5,215C 128.293,213.915 128.96,212.748 129.5,211.5C 128.149,209.546 127.482,207.379 127.5,205C 128.264,200.53 128.597,196.03 128.5,191.5C 129.5,191.5 130.5,191.5 131.5,191.5C 131.106,188.143 132.439,185.81 135.5,184.5C 134.243,182.321 132.743,180.321 131,178.5C 130.46,176.865 130.96,175.532 132.5,174.5C 131.167,172.5 129.833,170.5 128.5,168.5C 131.299,167.996 133.799,166.996 136,165.5C 138.463,167.797 141.297,169.463 144.5,170.5C 146.518,167.112 147.518,163.446 147.5,159.5C 148.5,159.5 149.5,159.5 150.5,159.5C 151.303,154.524 154.136,151.191 159,149.5C 159.495,147.527 159.662,145.527 159.5,143.5C 161.833,143.5 164.167,143.5 166.5,143.5C 167.303,138.524 170.136,135.191 175,133.5C 180.553,136.198 183.72,134.198 184.5,127.5C 186.833,127.5 189.167,127.5 191.5,127.5C 191.261,125.533 191.594,123.699 192.5,122C 196.934,120.617 201.268,118.95 205.5,117C 207.037,114.72 208.203,112.22 209,109.5C 213.667,104.833 218.333,100.167 223,95.5C 223.49,96.7932 223.657,98.1266 223.5,99.5C 228.833,99.5 234.167,99.5 239.5,99.5C 239.5,98.1667 239.5,96.8333 239.5,95.5C 250.251,95.035 260.918,95.035 271.5,95.5C 271.5,90.1667 271.5,84.8333 271.5,79.5C 276.833,79.5 282.167,79.5 287.5,79.5C 287.5,82.1667 287.5,84.8333 287.5,87.5C 281.5,86.8333 278.833,89.5 279.5,95.5C 282.167,95.5 284.833,95.5 287.5,95.5C 287.393,97.9032 288.393,99.7365 290.5,101C 295.034,101.269 299.367,102.102 303.5,103.5C 303.351,104.552 303.517,105.552 304,106.5C 306.259,104.149 307.759,104.815 308.5,108.5C 314.113,111.278 319.447,114.445 324.5,118C 325.337,119.011 325.67,120.178 325.5,121.5C 329.423,121.796 332.423,123.629 334.5,127C 332.875,127.853 332.542,128.853 333.5,130C 334.833,129.333 336.167,128.667 337.5,128C 339.032,130.034 340.365,132.201 341.5,134.5C 344.946,137.667 348.613,140.667 352.5,143.5C 354.178,147.532 356.344,151.199 359,154.5C 359.494,156.134 359.66,157.801 359.5,159.5C 360.833,159.5 362.167,159.5 363.5,159.5C 363.799,166.891 363.465,174.224 362.5,181.5C 364.045,182.452 365.712,182.785 367.5,182.5C 367.5,185.5 367.5,188.5 367.5,191.5C 366.167,191.5 364.833,191.5 363.5,191.5C 363.628,189.345 363.128,187.345 362,185.5C 360.921,183.606 359.587,183.273 358,184.5C 357.5,183.333 356.667,182.5 355.5,182C 358.821,181.03 360.487,178.863 360.5,175.5C 358.332,174.821 356.332,173.821 354.5,172.5C 352.462,173.634 350.462,173.634 348.5,172.5C 346.164,174.073 346.164,175.406 348.5,176.5C 347.167,177.5 347.167,178.5 348.5,179.5C 351.275,181.294 353.942,183.127 356.5,185C 357.287,187.099 357.62,189.266 357.5,191.5 Z"/></g>
<g><path style="opacity:1" fill="#050b0f" d="M 280.5,138.5 C 280.611,139.117 280.944,139.617 281.5,140C 285.37,140.105 289.037,140.938 292.5,142.5C 291.975,143.192 291.308,143.692 290.5,144C 281.449,144.211 272.782,146.045 264.5,149.5C 262.399,152.265 260.733,155.265 259.5,158.5C 260.132,160.965 261.632,162.631 264,163.5C 265.617,162.464 265.784,161.297 264.5,160C 272.853,159.742 281.187,159.242 289.5,158.5C 291.512,158.84 293.512,159.173 295.5,159.5C 296.281,163.776 298.948,166.276 303.5,167C 299.968,168.182 296.634,169.848 293.5,172C 288.081,172.311 283.081,173.811 278.5,176.5C 277.893,176.376 277.56,176.043 277.5,175.5C 277.03,174.307 276.03,173.64 274.5,173.5C 271.898,173.467 269.898,174.467 268.5,176.5C 266.246,177.415 264.246,178.748 262.5,180.5C 261.292,181.234 259.959,181.567 258.5,181.5C 258.5,180.5 258.5,179.5 258.5,178.5C 253.29,178.701 248.29,178.034 243.5,176.5C 240.341,174.92 237.007,173.92 233.5,173.5C 231.723,172.4 229.723,171.566 227.5,171C 222.845,170.501 218.179,170.334 213.5,170.5C 213.167,170.5 212.833,170.5 212.5,170.5C 205.668,169.639 198.668,169.639 191.5,170.5C 191.5,168.833 191.5,167.167 191.5,165.5C 193.38,165.771 194.713,165.104 195.5,163.5C 197.609,160.366 200.609,158.533 204.5,158C 206.422,156.58 207.755,154.747 208.5,152.5C 221.724,145.449 235.724,140.616 250.5,138C 260.577,137.193 270.577,137.36 280.5,138.5 Z"/></g>
<g><path style="opacity:1" fill="#070f16" d="M 280.5,138.5 C 288.284,138.862 295.951,140.029 303.5,142C 312.006,147.43 320.006,153.597 327.5,160.5C 328.824,163.198 328.824,165.864 327.5,168.5C 325.334,170.076 322.834,171.409 320,172.5C 320.617,170.905 320.284,169.572 319,168.5C 315.996,170.674 313.163,173.008 310.5,175.5C 310.167,175.167 309.833,174.833 309.5,174.5C 311.256,172.809 311.756,170.809 311,168.5C 299.979,173.535 288.479,176.202 276.5,176.5C 276.624,175.893 276.957,175.56 277.5,175.5C 277.56,176.043 277.893,176.376 278.5,176.5C 283.081,173.811 288.081,172.311 293.5,172C 296.634,169.848 299.968,168.182 303.5,167C 298.948,166.276 296.281,163.776 295.5,159.5C 293.512,159.173 291.512,158.84 289.5,158.5C 281.187,159.242 272.853,159.742 264.5,160C 265.784,161.297 265.617,162.464 264,163.5C 261.632,162.631 260.132,160.965 259.5,158.5C 260.733,155.265 262.399,152.265 264.5,149.5C 272.782,146.045 281.449,144.211 290.5,144C 291.308,143.692 291.975,143.192 292.5,142.5C 289.037,140.938 285.37,140.105 281.5,140C 280.944,139.617 280.611,139.117 280.5,138.5 Z"/></g>
<g><path style="opacity:1" fill="#587483" d="M 327.5,169.5 C 327.5,169.167 327.5,168.833 327.5,168.5C 328.824,165.864 328.824,163.198 327.5,160.5C 320.006,153.597 312.006,147.43 303.5,142C 295.951,140.029 288.284,138.862 280.5,138.5C 270.577,137.36 260.577,137.193 250.5,138C 235.724,140.616 221.724,145.449 208.5,152.5C 207.755,154.747 206.422,156.58 204.5,158C 200.609,158.533 197.609,160.366 195.5,163.5C 192.24,163.797 189.573,165.13 187.5,167.5C 188.102,164.596 189.935,162.93 193,162.5C 192.199,159.955 191.866,157.288 192,154.5C 193.932,152.962 196.099,151.795 198.5,151C 196.699,150.683 196.366,150.016 197.5,149C 200.982,148.511 204.149,147.345 207,145.5C 207.333,146.167 207.667,146.833 208,147.5C 210.167,146 210,144.833 207.5,144C 209.769,143.242 211.936,143.409 214,144.5C 217.904,143.129 221.737,141.629 225.5,140C 224.304,139.346 224.304,138.846 225.5,138.5C 228.003,138.285 230.503,138.952 233,140.5C 241.282,135.875 250.115,132.375 259.5,130C 268.868,130.005 278.202,129.838 287.5,129.5C 287.5,130.5 287.5,131.5 287.5,132.5C 291.952,133.256 296.119,134.589 300,136.5C 300.414,136.043 300.914,135.709 301.5,135.5C 307.14,137.605 311.14,141.439 313.5,147C 326.454,148.613 331.621,155.78 329,168.5C 328.617,169.056 328.117,169.389 327.5,169.5 Z"/></g>
<g><path style="opacity:1" fill="#223841" d="M 195.5,163.5 C 194.713,165.104 193.38,165.771 191.5,165.5C 191.5,167.167 191.5,168.833 191.5,170.5C 188.995,172.715 185.995,173.881 182.5,174C 181.594,175.699 181.261,177.533 181.5,179.5C 181.167,179.5 180.833,179.5 180.5,179.5C 180.5,177.5 180.5,175.5 180.5,173.5C 178.712,173.215 177.045,173.548 175.5,174.5C 174.787,177.096 174.787,179.763 175.5,182.5C 174.883,182.389 174.383,182.056 174,181.5C 173.502,178.518 173.335,175.518 173.5,172.5C 176.305,171.681 179.305,171.181 182.5,171C 184.346,169.97 186.013,168.804 187.5,167.5C 189.573,165.13 192.24,163.797 195.5,163.5 Z"/></g>
<g><path style="opacity:1" fill="#515b61" d="M 212.5,170.5 C 206.547,171.557 200.547,172.224 194.5,172.5C 190.654,174.088 186.654,175.088 182.5,175.5C 182.768,177.099 182.434,178.432 181.5,179.5C 181.261,177.533 181.594,175.699 182.5,174C 185.995,173.881 188.995,172.715 191.5,170.5C 198.668,169.639 205.668,169.639 212.5,170.5 Z"/></g>
<g><path style="opacity:1" fill="#878386" d="M 213.5,170.5 C 218.179,170.334 222.845,170.501 227.5,171C 229.723,171.566 231.723,172.4 233.5,173.5C 226.639,172.91 219.972,171.91 213.5,170.5 Z"/></g>
<g><path style="opacity:1" fill="#181a1d" d="M 327.5,168.5 C 327.5,168.833 327.5,169.167 327.5,169.5C 326.197,171.142 324.864,172.809 323.5,174.5C 320.573,175.757 318.239,177.757 316.5,180.5C 312.849,182.444 309.016,184.111 305,185.5C 303.667,184.833 302.333,184.167 301,183.5C 295.671,185.361 290.171,186.528 284.5,187C 283.058,187.377 282.058,188.21 281.5,189.5C 274.833,190.167 268.167,190.833 261.5,191.5C 261.5,190.833 261.167,190.5 260.5,190.5C 260.018,189.584 259.685,188.584 259.5,187.5C 260.823,185.835 262.156,184.168 263.5,182.5C 266.689,181.486 269.522,179.82 272,177.5C 272.688,176.668 272.521,176.002 271.5,175.5C 270.583,176.127 269.583,176.461 268.5,176.5C 269.898,174.467 271.898,173.467 274.5,173.5C 276.03,173.64 277.03,174.307 277.5,175.5C 276.957,175.56 276.624,175.893 276.5,176.5C 288.479,176.202 299.979,173.535 311,168.5C 311.756,170.809 311.256,172.809 309.5,174.5C 309.833,174.833 310.167,175.167 310.5,175.5C 313.163,173.008 315.996,170.674 319,168.5C 320.284,169.572 320.617,170.905 320,172.5C 322.834,171.409 325.334,170.076 327.5,168.5 Z"/></g>
<g><path style="opacity:1" fill="#0b1014" d="M 180.5,179.5 C 180.5,180.5 180.5,181.5 180.5,182.5C 178.833,182.5 177.167,182.5 175.5,182.5C 174.787,179.763 174.787,177.096 175.5,174.5C 177.045,173.548 178.712,173.215 180.5,173.5C 180.5,175.5 180.5,177.5 180.5,179.5 Z"/></g>
<g><path style="opacity:1" fill="#66676d" d="M 233.5,173.5 C 237.007,173.92 240.341,174.92 243.5,176.5C 244.568,177.434 245.901,177.768 247.5,177.5C 247.5,178.5 247.5,179.5 247.5,180.5C 250.247,180.187 252.914,180.52 255.5,181.5C 253.441,182.951 252.441,184.951 252.5,187.5C 254.199,187.34 255.866,187.506 257.5,188C 258.078,189.417 259.078,190.25 260.5,190.5C 261.167,190.5 261.5,190.833 261.5,191.5C 259.302,191.88 257.635,191.213 256.5,189.5C 254.735,188.539 252.735,188.205 250.5,188.5C 250.674,186.139 251.007,183.806 251.5,181.5C 249.5,181.5 247.5,181.5 245.5,181.5C 245.715,179.821 245.048,178.821 243.5,178.5C 239.849,177.341 236.515,175.674 233.5,173.5 Z"/></g>
<g><path style="opacity:1" fill="#46545c" d="M 173.5,172.5 C 173.335,175.518 173.502,178.518 174,181.5C 174.383,182.056 174.883,182.389 175.5,182.5C 177.167,182.5 178.833,182.5 180.5,182.5C 180.5,181.5 180.5,180.5 180.5,179.5C 180.833,179.5 181.167,179.5 181.5,179.5C 181.714,181.144 181.38,182.644 180.5,184C 178.19,184.497 175.857,184.663 173.5,184.5C 173.784,186.415 173.451,188.081 172.5,189.5C 172.601,185.766 170.768,183.766 167,183.5C 163.753,184.564 160.586,185.898 157.5,187.5C 160.431,183.412 164.431,181.245 169.5,181C 171.061,178.217 172.394,175.383 173.5,172.5 Z"/></g>
<g><path style="opacity:1" fill="#253139" d="M 172.5,189.5 C 171.833,190.833 171.167,192.167 170.5,193.5C 170.663,191.143 170.497,188.81 170,186.5C 169.196,185.196 168.029,184.529 166.5,184.5C 161.38,187.316 156.38,190.316 151.5,193.5C 152.5,190.5 154.5,188.5 157.5,187.5C 160.586,185.898 163.753,184.564 167,183.5C 170.768,183.766 172.601,185.766 172.5,189.5 Z"/></g>
<g><path style="opacity:1" fill="#e5d8d7" d="M 212.5,170.5 C 212.833,170.5 213.167,170.5 213.5,170.5C 219.972,171.91 226.639,172.91 233.5,173.5C 236.515,175.674 239.849,177.341 243.5,178.5C 244.148,180.086 244.648,181.753 245,183.5C 246.011,184.337 247.178,184.67 248.5,184.5C 248.286,186.144 248.62,187.644 249.5,189C 251.81,189.497 254.143,189.663 256.5,189.5C 257.635,191.213 259.302,191.88 261.5,191.5C 264.64,192.641 267.973,192.808 271.5,192C 275.179,191.974 278.512,191.14 281.5,189.5C 289.012,186.935 296.678,186.102 304.5,187C 309.299,186.104 313.299,183.937 316.5,180.5C 319.407,179.471 322.074,177.971 324.5,176C 325.5,175.333 326.5,175.333 327.5,176C 330.557,181.272 334.223,186.105 338.5,190.5C 339.325,191.386 340.325,191.719 341.5,191.5C 342.378,195.103 343.711,198.603 345.5,202C 343.875,202.853 343.542,203.853 344.5,205C 342.956,205.29 341.623,205.956 340.5,207C 341.15,208.609 340.65,210.109 339,211.5C 338.333,215.167 338.333,218.833 339,222.5C 341.147,224.479 342.647,226.813 343.5,229.5C 343.5,229.833 343.5,230.167 343.5,230.5C 344.962,234.702 343.962,235.369 340.5,232.5C 338.629,233.767 336.796,233.767 335,232.5C 330.168,235.034 325.001,236.368 319.5,236.5C 319.254,239.47 317.588,240.803 314.5,240.5C 312.016,239.036 312.016,237.369 314.5,235.5C 316.733,235.136 318.566,234.136 320,232.5C 323.787,234.959 324.454,233.959 322,229.5C 321.333,230.833 320.667,230.833 320,229.5C 319.517,228.552 319.351,227.552 319.5,226.5C 314.74,226.215 311.74,228.381 310.5,233C 304.716,234.509 299.883,233.009 296,228.5C 294.991,226.975 294.491,225.308 294.5,223.5C 297.5,223.5 300.5,223.5 303.5,223.5C 303.5,222.167 303.5,220.833 303.5,219.5C 298.167,219.5 292.833,219.5 287.5,219.5C 287.5,217.833 287.5,216.167 287.5,214.5C 282.879,214.205 279.212,212.205 276.5,208.5C 274.955,207.548 273.288,207.215 271.5,207.5C 271.5,209.5 271.5,211.5 271.5,213.5C 264.877,214.082 264.043,212.416 269,208.5C 269.781,207.056 269.614,205.723 268.5,204.5C 264.223,203.394 259.89,203.228 255.5,204C 254.643,204.689 253.977,205.522 253.5,206.5C 256.631,207.797 258.964,209.964 260.5,213C 258.866,213.494 257.199,213.66 255.5,213.5C 255.5,212.5 255.5,211.5 255.5,210.5C 252.09,212.305 249.424,211.472 247.5,208C 247.833,207.667 248.167,207.333 248.5,207C 244.874,206.019 242.207,203.853 240.5,200.5C 234.854,201.125 229.187,201.792 223.5,202.5C 222.5,203.833 221.5,205.167 220.5,206.5C 221.325,207.386 222.325,207.719 223.5,207.5C 223.5,212.833 223.5,218.167 223.5,223.5C 222.167,223.5 220.833,223.5 219.5,223.5C 219.624,229.551 216.624,233.051 210.5,234C 211.337,235.011 211.67,236.178 211.5,237.5C 209.891,237.094 208.557,237.094 207.5,237.5C 209.369,238.624 211.369,239.457 213.5,240C 215.004,241.491 215.837,243.324 216,245.5C 217.5,247 219,248.5 220.5,250C 219.705,252.099 218.705,254.265 217.5,256.5C 219.365,257.666 221.032,257.333 222.5,255.5C 224.149,259.714 222.816,262.547 218.5,264C 219.653,265.883 221.319,266.716 223.5,266.5C 223.657,267.873 223.49,269.207 223,270.5C 218.151,268.05 212.984,266.717 207.5,266.5C 207.5,267.5 207.5,268.5 207.5,269.5C 205.167,270.167 202.833,270.833 200.5,271.5C 200.671,274.797 200.005,275.131 198.5,272.5C 196.382,273.946 194.049,274.613 191.5,274.5C 191.5,275.5 191.5,276.5 191.5,277.5C 201.652,274.619 201.819,275.952 192,281.5C 191.505,283.473 191.338,285.473 191.5,287.5C 192.833,287.5 194.167,287.5 195.5,287.5C 196.057,292.454 195.724,295.121 194.5,295.5C 192.332,294.821 190.332,293.821 188.5,292.5C 187.558,292.608 186.725,292.941 186,293.5C 184,301.958 183.167,310.625 183.5,319.5C 185.167,319.5 186.833,319.5 188.5,319.5C 186.796,324.581 184.796,329.581 182.5,334.5C 184.464,346.414 185.298,358.414 185,370.5C 184.092,368.561 182.592,367.561 180.5,367.5C 182.465,377.614 184.965,387.614 188,397.5C 188.772,398.849 189.939,399.682 191.5,400C 190.552,400.483 189.552,400.649 188.5,400.5C 188.238,401.978 188.571,403.311 189.5,404.5C 192.717,405.972 196.051,407.138 199.5,408C 201.493,409.999 203.827,411.499 206.5,412.5C 208.757,415.474 210.257,418.808 211,422.5C 211.414,422.043 211.914,421.709 212.5,421.5C 213.167,422.5 213.833,423.5 214.5,424.5C 216.709,425.106 218.876,425.773 221,426.5C 222.177,422.732 223.344,422.899 224.5,427C 226.615,427.557 228.615,428.391 230.5,429.5C 233.326,432.358 236.326,434.692 239.5,436.5C 235.05,436.858 231.55,435.192 229,431.5C 228.493,432.996 228.993,434.163 230.5,435C 228.285,436.885 228.618,438.718 231.5,440.5C 230.833,440.833 230.167,441.167 229.5,441.5C 225.939,440.26 222.939,438.26 220.5,435.5C 221.525,435.103 221.692,434.437 221,433.5C 219.887,432.695 218.721,432.028 217.5,431.5C 206.955,421.971 195.288,413.971 182.5,407.5C 180.246,406.876 178.579,405.543 177.5,403.5C 175.895,398.865 174.228,394.198 172.5,389.5C 167.681,376.204 164.181,362.537 162,348.5C 160.951,346.382 159.451,344.716 157.5,343.5C 157.5,342.5 157.5,341.5 157.5,340.5C 157.129,336.351 156.129,332.351 154.5,328.5C 155.167,328.167 155.833,327.833 156.5,327.5C 153.69,324.381 151.356,321.047 149.5,317.5C 148.367,313.433 147.033,309.433 145.5,305.5C 144.471,297.19 144.471,288.857 145.5,280.5C 145.76,274.828 146.093,269.161 146.5,263.5C 146.5,262.833 146.5,262.167 146.5,261.5C 147.824,255.293 149.157,248.96 150.5,242.5C 151.417,243.127 152.417,243.461 153.5,243.5C 156.007,244.892 158.673,245.892 161.5,246.5C 162.808,247.232 164.142,248.066 165.5,249C 162.258,249.283 161.924,250.117 164.5,251.5C 165.246,252.736 165.579,254.07 165.5,255.5C 166.833,255.5 168.167,255.5 169.5,255.5C 169.062,259.908 171.062,261.575 175.5,260.5C 175.5,261.5 175.5,262.5 175.5,263.5C 182.046,263.461 188.712,263.128 195.5,262.5C 198.226,262.318 200.893,261.818 203.5,261C 202.207,260.51 200.873,260.343 199.5,260.5C 199.281,259.325 199.614,258.325 200.5,257.5C 204.48,259.338 207.147,258.172 208.5,254C 210.5,253.167 212.5,252.333 214.5,251.5C 209.385,250.867 204.385,250.534 199.5,250.5C 199.5,249.5 199.5,248.5 199.5,247.5C 201.117,248.038 202.784,248.371 204.5,248.5C 207.287,249.477 210.287,249.81 213.5,249.5C 213.737,248.209 213.404,247.209 212.5,246.5C 211.128,245.488 209.795,244.488 208.5,243.5C 207.251,241.864 205.584,240.697 203.5,240C 198.511,239.501 193.511,239.334 188.5,239.5C 184.802,239.448 181.135,239.114 177.5,238.5C 171.757,237.885 166.091,236.885 160.5,235.5C 158.393,234.532 156.059,234.198 153.5,234.5C 153.334,229.489 153.501,224.489 154,219.5C 154.904,216.767 156.404,214.433 158.5,212.5C 158.833,212.5 159.167,212.5 159.5,212.5C 163.886,212.034 167.886,210.701 171.5,208.5C 173.292,208.634 174.958,208.301 176.5,207.5C 182.832,207.362 188.832,206.029 194.5,203.5C 194.291,202.914 193.957,202.414 193.5,202C 191.134,201.56 188.801,201.06 186.5,200.5C 184.739,199.687 183.072,198.687 181.5,197.5C 174.368,196.506 172.702,192.839 176.5,186.5C 178.078,185.702 179.744,185.202 181.5,185C 182.919,179.912 186.252,177.579 191.5,178C 193.16,176.512 194.16,174.679 194.5,172.5C 200.547,172.224 206.547,171.557 212.5,170.5 Z"/></g>
<g><path style="opacity:1" fill="#a4a3a9" d="M 243.5,178.5 C 245.048,178.821 245.715,179.821 245.5,181.5C 247.5,181.5 249.5,181.5 251.5,181.5C 251.007,183.806 250.674,186.139 250.5,188.5C 252.735,188.205 254.735,188.539 256.5,189.5C 254.143,189.663 251.81,189.497 249.5,189C 248.62,187.644 248.286,186.144 248.5,184.5C 247.178,184.67 246.011,184.337 245,183.5C 244.648,181.753 244.148,180.086 243.5,178.5 Z"/></g>
<g><path style="opacity:1" fill="#918a8b" d="M 316.5,180.5 C 313.299,183.937 309.299,186.104 304.5,187C 296.678,186.102 289.012,186.935 281.5,189.5C 282.058,188.21 283.058,187.377 284.5,187C 290.171,186.528 295.671,185.361 301,183.5C 302.333,184.167 303.667,184.833 305,185.5C 309.016,184.111 312.849,182.444 316.5,180.5 Z"/></g>
<g><path style="opacity:1" fill="#595c68" d="M 263.5,182.5 C 262.662,182.158 262.328,181.492 262.5,180.5C 264.246,178.748 266.246,177.415 268.5,176.5C 269.583,176.461 270.583,176.127 271.5,175.5C 272.521,176.002 272.688,176.668 272,177.5C 269.522,179.82 266.689,181.486 263.5,182.5 Z"/></g>
<g><path style="opacity:1" fill="#2b292d" d="M 243.5,176.5 C 248.29,178.034 253.29,178.701 258.5,178.5C 258.5,179.5 258.5,180.5 258.5,181.5C 259.959,181.567 261.292,181.234 262.5,180.5C 262.328,181.492 262.662,182.158 263.5,182.5C 262.156,184.168 260.823,185.835 259.5,187.5C 259.685,188.584 260.018,189.584 260.5,190.5C 259.078,190.25 258.078,189.417 257.5,188C 255.866,187.506 254.199,187.34 252.5,187.5C 252.441,184.951 253.441,182.951 255.5,181.5C 252.914,180.52 250.247,180.187 247.5,180.5C 247.5,179.5 247.5,178.5 247.5,177.5C 245.901,177.768 244.568,177.434 243.5,176.5 Z"/></g>
<g><path style="opacity:1" fill="#758088" d="M 339.5,186.5 C 340.833,187.5 342.167,188.5 343.5,189.5C 345.909,191.902 347.909,194.569 349.5,197.5C 347.167,195.5 344.833,193.5 342.5,191.5C 341.075,190.078 340.075,188.411 339.5,186.5 Z"/></g>
<g><path style="opacity:1" fill="#24333f" d="M 357.5,191.5 C 358.441,193.05 359.107,194.716 359.5,196.5C 360.715,200.301 360.715,203.967 359.5,207.5C 359.625,202.667 358.792,198 357,193.5C 352.106,191.275 348.106,187.942 345,183.5C 344.08,183.93 343.247,184.264 342.5,184.5C 343.912,186.197 344.246,187.864 343.5,189.5C 342.167,188.5 340.833,187.5 339.5,186.5C 338.781,184.236 338.448,181.903 338.5,179.5C 342.145,180.652 345.812,181.818 349.5,183C 352.399,185.729 355.066,188.562 357.5,191.5 Z"/></g>
<g><path style="opacity:1" fill="#aca4a5" d="M 281.5,189.5 C 278.512,191.14 275.179,191.974 271.5,192C 267.973,192.808 264.64,192.641 261.5,191.5C 268.167,190.833 274.833,190.167 281.5,189.5 Z"/></g>
<g><path style="opacity:1" fill="#131a21" d="M 359.5,207.5 C 358.842,208.398 358.176,209.398 357.5,210.5C 355.918,208.985 354.584,207.319 353.5,205.5C 353.206,202.246 351.873,199.579 349.5,197.5C 347.909,194.569 345.909,191.902 343.5,189.5C 344.246,187.864 343.912,186.197 342.5,184.5C 343.247,184.264 344.08,183.93 345,183.5C 348.106,187.942 352.106,191.275 357,193.5C 358.792,198 359.625,202.667 359.5,207.5 Z"/></g>
<g><path style="opacity:1" fill="#929297" d="M 194.5,172.5 C 194.16,174.679 193.16,176.512 191.5,178C 186.252,177.579 182.919,179.912 181.5,185C 179.744,185.202 178.078,185.702 176.5,186.5C 172.702,192.839 174.368,196.506 181.5,197.5C 177.116,197.826 172.783,197.492 168.5,196.5C 169.193,195.482 169.859,194.482 170.5,193.5C 171.167,192.167 171.833,190.833 172.5,189.5C 173.451,188.081 173.784,186.415 173.5,184.5C 175.857,184.663 178.19,184.497 180.5,184C 181.38,182.644 181.714,181.144 181.5,179.5C 182.434,178.432 182.768,177.099 182.5,175.5C 186.654,175.088 190.654,174.088 194.5,172.5 Z"/></g>
<g><path style="opacity:1" fill="#504e54" d="M 170.5,193.5 C 169.859,194.482 169.193,195.482 168.5,196.5C 172.783,197.492 177.116,197.826 181.5,197.5C 183.072,198.687 184.739,199.687 186.5,200.5C 180.858,199.646 175.191,198.98 169.5,198.5C 167.824,197.817 167.157,196.483 167.5,194.5C 168.391,193.89 169.391,193.557 170.5,193.5 Z"/></g>
<g><path style="opacity:1" fill="#e9d8d7" d="M 314.5,240.5 C 310.064,241.912 306.397,244.579 303.5,248.5C 301.887,249.427 300.221,250.261 298.5,251C 298.75,252.571 298.083,254.071 296.5,255.5C 296.529,257.029 297.196,258.196 298.5,259C 305.354,262.12 312.354,264.953 319.5,267.5C 320.179,269.814 321.512,270.147 323.5,268.5C 329.115,269.289 334.782,269.789 340.5,270C 342.651,270.265 344.318,271.265 345.5,273C 349.141,284.419 349.308,295.919 346,307.5C 345.667,303.5 345.333,299.5 345,295.5C 344.717,306.23 343.883,316.897 342.5,327.5C 340.716,328.574 339.549,330.24 339,332.5C 336.815,339.961 334.315,347.294 331.5,354.5C 330.695,350.708 330.362,347.042 330.5,343.5C 329.833,351.5 329.167,359.5 328.5,367.5C 326.765,371.15 324.432,374.316 321.5,377C 315.833,377.333 310.167,377.667 304.5,378C 308.571,379.361 311.905,381.695 314.5,385C 316.025,386.009 317.692,386.509 319.5,386.5C 319.665,389.518 319.498,392.518 319,395.5C 316.26,396.144 313.76,397.311 311.5,399C 312.337,400.011 312.67,401.178 312.5,402.5C 313.5,402.5 314.5,402.5 315.5,402.5C 315.281,401.325 315.614,400.325 316.5,399.5C 317.614,400.723 317.781,402.056 317,403.5C 314.602,407.057 312.435,410.723 310.5,414.5C 303.696,416.698 302.029,414.698 305.5,408.5C 307.5,407.167 309.167,405.5 310.5,403.5C 308.525,401.455 308.525,399.788 310.5,398.5C 308.488,395.979 307.654,393.313 308,390.5C 302.12,385.81 295.286,383.477 287.5,383.5C 287.799,381.396 287.466,379.396 286.5,377.5C 280.81,375.994 276.143,372.994 272.5,368.5C 273.305,366.085 274.305,363.751 275.5,361.5C 278.522,359.312 281.022,356.645 283,353.5C 283.419,354.672 284.085,355.672 285,356.5C 285.972,354.695 287.139,353.028 288.5,351.5C 289.281,352.737 290.281,353.737 291.5,354.5C 292.23,353.066 293.23,351.9 294.5,351C 293.488,349.357 292.488,348.19 291.5,347.5C 292.488,346.81 293.488,345.643 294.5,344C 293.549,343.282 293.383,342.449 294,341.5C 294.667,340.167 295.333,340.167 296,341.5C 296.236,339.236 296.736,337.069 297.5,335C 295.98,333.115 294.98,330.949 294.5,328.5C 293.277,327.386 291.944,327.219 290.5,328C 289.91,329.509 289.244,331.009 288.5,332.5C 282.988,330.953 277.488,329.286 272,327.5C 266.376,330.786 260.209,332.619 253.5,333C 251.113,334.685 248.613,336.185 246,337.5C 244.483,334.449 242.316,333.783 239.5,335.5C 239.679,337.954 239.013,340.121 237.5,342C 238.617,345.395 240.283,348.395 242.5,351C 241.376,351.249 240.376,351.749 239.5,352.5C 240.914,353.624 242.414,354.624 244,355.5C 245.657,359.724 247.824,363.557 250.5,367C 249.789,368.255 248.956,369.421 248,370.5C 247.667,370.167 247.333,369.833 247,369.5C 243.55,371.444 241.05,374.111 239.5,377.5C 228.833,377.833 218.167,378.167 207.5,378.5C 207.334,383.844 207.501,389.177 208,394.5C 209.617,393.464 209.784,392.297 208.5,391C 209.025,390.308 209.692,389.808 210.5,389.5C 211.258,390.811 212.258,391.311 213.5,391C 214.227,389.601 214.727,388.101 215,386.5C 216.811,390.312 219.478,393.312 223,395.5C 224.333,394.833 225.333,393.833 226,392.5C 229.235,395.494 228.401,396.828 223.5,396.5C 223.491,398.308 223.991,399.975 225,401.5C 234.942,408.753 234.442,410.753 223.5,407.5C 224.45,410.068 224.45,412.568 223.5,415C 224.5,415.333 225.5,415.667 226.5,416C 225.446,417.388 225.28,418.888 226,420.5C 229.638,424.546 233.971,425.879 239,424.5C 241.316,425.496 243.65,426.496 246,427.5C 247.68,426.453 249.514,425.787 251.5,425.5C 256.226,426.738 260.559,428.738 264.5,431.5C 266.383,430.976 268.216,430.309 270,429.5C 275.63,431.699 281.463,433.199 287.5,434C 289.758,435.753 291.425,437.919 292.5,440.5C 290.811,441.304 289.145,442.304 287.5,443.5C 276.208,445.072 264.875,445.572 253.5,445C 249.266,442.088 244.6,440.255 239.5,439.5C 239.5,438.5 239.5,437.5 239.5,436.5C 236.326,434.692 233.326,432.358 230.5,429.5C 228.615,428.391 226.615,427.557 224.5,427C 223.344,422.899 222.177,422.732 221,426.5C 218.876,425.773 216.709,425.106 214.5,424.5C 213.833,423.5 213.167,422.5 212.5,421.5C 211.914,421.709 211.414,422.043 211,422.5C 210.257,418.808 208.757,415.474 206.5,412.5C 203.827,411.499 201.493,409.999 199.5,408C 196.051,407.138 192.717,405.972 189.5,404.5C 188.571,403.311 188.238,401.978 188.5,400.5C 189.552,400.649 190.552,400.483 191.5,400C 189.939,399.682 188.772,398.849 188,397.5C 184.965,387.614 182.465,377.614 180.5,367.5C 182.592,367.561 184.092,368.561 185,370.5C 185.298,358.414 184.464,346.414 182.5,334.5C 184.796,329.581 186.796,324.581 188.5,319.5C 186.833,319.5 185.167,319.5 183.5,319.5C 183.167,310.625 184,301.958 186,293.5C 186.725,292.941 187.558,292.608 188.5,292.5C 190.332,293.821 192.332,294.821 194.5,295.5C 195.724,295.121 196.057,292.454 195.5,287.5C 194.167,287.5 192.833,287.5 191.5,287.5C 191.338,285.473 191.505,283.473 192,281.5C 201.819,275.952 201.652,274.619 191.5,277.5C 191.5,276.5 191.5,275.5 191.5,274.5C 194.049,274.613 196.382,273.946 198.5,272.5C 200.005,275.131 200.671,274.797 200.5,271.5C 202.833,270.833 205.167,270.167 207.5,269.5C 207.5,268.5 207.5,267.5 207.5,266.5C 212.984,266.717 218.151,268.05 223,270.5C 223.49,269.207 223.657,267.873 223.5,266.5C 221.319,266.716 219.653,265.883 218.5,264C 222.816,262.547 224.149,259.714 222.5,255.5C 221.032,257.333 219.365,257.666 217.5,256.5C 218.705,254.265 219.705,252.099 220.5,250C 219,248.5 217.5,247 216,245.5C 215.837,243.324 215.004,241.491 213.5,240C 211.369,239.457 209.369,238.624 207.5,237.5C 208.557,237.094 209.891,237.094 211.5,237.5C 211.67,236.178 211.337,235.011 210.5,234C 216.624,233.051 219.624,229.551 219.5,223.5C 220.833,223.5 222.167,223.5 223.5,223.5C 223.5,218.167 223.5,212.833 223.5,207.5C 222.325,207.719 221.325,207.386 220.5,206.5C 221.5,205.167 222.5,203.833 223.5,202.5C 229.187,201.792 234.854,201.125 240.5,200.5C 242.207,203.853 244.874,206.019 248.5,207C 248.167,207.333 247.833,207.667 247.5,208C 249.424,211.472 252.09,212.305 255.5,210.5C 255.5,211.5 255.5,212.5 255.5,213.5C 257.199,213.66 258.866,213.494 260.5,213C 258.964,209.964 256.631,207.797 253.5,206.5C 253.977,205.522 254.643,204.689 255.5,204C 259.89,203.228 264.223,203.394 268.5,204.5C 269.614,205.723 269.781,207.056 269,208.5C 264.043,212.416 264.877,214.082 271.5,213.5C 271.5,211.5 271.5,209.5 271.5,207.5C 273.288,207.215 274.955,207.548 276.5,208.5C 279.212,212.205 282.879,214.205 287.5,214.5C 287.5,216.167 287.5,217.833 287.5,219.5C 292.833,219.5 298.167,219.5 303.5,219.5C 303.5,220.833 303.5,222.167 303.5,223.5C 300.5,223.5 297.5,223.5 294.5,223.5C 294.491,225.308 294.991,226.975 296,228.5C 299.883,233.009 304.716,234.509 310.5,233C 311.74,228.381 314.74,226.215 319.5,226.5C 319.351,227.552 319.517,228.552 320,229.5C 320.667,230.833 321.333,230.833 322,229.5C 324.454,233.959 323.787,234.959 320,232.5C 318.566,234.136 316.733,235.136 314.5,235.5C 312.016,237.369 312.016,239.036 314.5,240.5 Z"/></g>
<g><path style="opacity:1" fill="#242026" d="M 169.5,198.5 C 175.191,198.98 180.858,199.646 186.5,200.5C 187.301,202.042 187.634,203.708 187.5,205.5C 183.542,205.251 179.876,205.918 176.5,207.5C 174.958,208.301 173.292,208.634 171.5,208.5C 168.167,209.167 164.833,209.833 161.5,210.5C 161.423,209.25 160.756,208.417 159.5,208C 163.167,207.667 166.833,207.333 170.5,207C 171.509,204.828 173.176,203.662 175.5,203.5C 175.5,202.5 175.5,201.5 175.5,200.5C 173.102,200.741 171.102,200.074 169.5,198.5 Z"/></g>
<g><path style="opacity:1" fill="#6e6b71" d="M 186.5,200.5 C 188.801,201.06 191.134,201.56 193.5,202C 193.957,202.414 194.291,202.914 194.5,203.5C 188.832,206.029 182.832,207.362 176.5,207.5C 179.876,205.918 183.542,205.251 187.5,205.5C 187.634,203.708 187.301,202.042 186.5,200.5 Z"/></g>
<g><path style="opacity:1" fill="#d4d1d1" d="M 339.5,186.5 C 340.075,188.411 341.075,190.078 342.5,191.5C 343.02,194.193 344.52,196.193 347,197.5C 348.248,204.215 347.248,210.548 344,216.5C 343.501,220.821 343.334,225.154 343.5,229.5C 342.647,226.813 341.147,224.479 339,222.5C 338.333,218.833 338.333,215.167 339,211.5C 340.65,210.109 341.15,208.609 340.5,207C 341.623,205.956 342.956,205.29 344.5,205C 343.542,203.853 343.875,202.853 345.5,202C 343.711,198.603 342.378,195.103 341.5,191.5C 340.325,191.719 339.325,191.386 338.5,190.5C 334.223,186.105 330.557,181.272 327.5,176C 326.5,175.333 325.5,175.333 324.5,176C 322.074,177.971 319.407,179.471 316.5,180.5C 318.239,177.757 320.573,175.757 323.5,174.5C 325.463,173.316 327.463,172.483 329.5,172C 332.063,175.627 334.229,179.461 336,183.5C 337.039,184.71 338.206,185.71 339.5,186.5 Z"/></g>
<g><path style="opacity:1" fill="#837b7d" d="M 171.5,208.5 C 167.886,210.701 163.886,212.034 159.5,212.5C 159.833,211.5 160.5,210.833 161.5,210.5C 164.833,209.833 168.167,209.167 171.5,208.5 Z"/></g>
<g><path style="opacity:1" fill="#b8bcc2" d="M 342.5,191.5 C 344.833,193.5 347.167,195.5 349.5,197.5C 350.336,200.592 351.003,203.759 351.5,207C 350.681,214.277 349.014,221.277 346.5,228C 346.667,229.167 346.833,230.333 347,231.5C 348.892,233.054 350.392,234.888 351.5,237C 351.164,238.03 350.497,238.53 349.5,238.5C 348.687,235.011 346.687,232.344 343.5,230.5C 343.5,230.167 343.5,229.833 343.5,229.5C 343.334,225.154 343.501,220.821 344,216.5C 347.248,210.548 348.248,204.215 347,197.5C 344.52,196.193 343.02,194.193 342.5,191.5 Z"/></g>
<g><path style="opacity:1" fill="#647886" d="M 359.5,196.5 C 360.117,196.611 360.617,196.944 361,197.5C 361.634,204.918 361.467,212.084 360.5,219C 361.217,221.659 362.217,224.159 363.5,226.5C 362.149,228.412 361.482,230.578 361.5,233C 362.807,238.466 361.807,243.466 358.5,248C 359.554,249.388 359.72,250.888 359,252.5C 358.338,249.583 356.505,248.25 353.5,248.5C 352.833,248.5 352.5,248.167 352.5,247.5C 356.225,247.22 357.392,245.22 356,241.5C 354.211,239.771 352.044,239.104 349.5,239.5C 349.5,239.167 349.5,238.833 349.5,238.5C 350.497,238.53 351.164,238.03 351.5,237C 350.392,234.888 348.892,233.054 347,231.5C 346.833,230.333 346.667,229.167 346.5,228C 349.014,221.277 350.681,214.277 351.5,207C 351.003,203.759 350.336,200.592 349.5,197.5C 351.873,199.579 353.206,202.246 353.5,205.5C 354.098,213.911 352.765,221.911 349.5,229.5C 349.855,233.547 351.855,235.213 355.5,234.5C 356.51,225.444 357.843,216.444 359.5,207.5C 360.715,203.967 360.715,200.301 359.5,196.5 Z"/></g>
<g><path style="opacity:1" fill="#2f3a45" d="M 353.5,205.5 C 354.584,207.319 355.918,208.985 357.5,210.5C 358.176,209.398 358.842,208.398 359.5,207.5C 357.843,216.444 356.51,225.444 355.5,234.5C 351.855,235.213 349.855,233.547 349.5,229.5C 352.765,221.911 354.098,213.911 353.5,205.5 Z"/></g>
<g><path style="opacity:1" fill="#1a2d35" d="M 151.5,193.5 C 151.106,197.391 149.273,200.391 146,202.5C 145.829,210.344 145.329,218.011 144.5,225.5C 144.334,217.493 144.5,209.493 145,201.5C 146.946,198.58 149.113,195.913 151.5,193.5 Z"/></g>
<g><path style="opacity:1" fill="#141215" d="M 167.5,194.5 C 167.157,196.483 167.824,197.817 169.5,198.5C 171.102,200.074 173.102,200.741 175.5,200.5C 175.5,201.5 175.5,202.5 175.5,203.5C 173.176,203.662 171.509,204.828 170.5,207C 166.833,207.333 163.167,207.667 159.5,208C 160.756,208.417 161.423,209.25 161.5,210.5C 160.5,210.833 159.833,211.5 159.5,212.5C 159.167,212.5 158.833,212.5 158.5,212.5C 156.284,213.203 154.451,214.536 153,216.5C 152.268,219.529 151.435,222.529 150.5,225.5C 151.472,228.464 151.638,231.464 151,234.5C 147.857,238.128 146.691,242.462 147.5,247.5C 146.873,252.141 146.54,256.807 146.5,261.5C 146.5,262.167 146.5,262.833 146.5,263.5C 144.589,271.245 143.589,279.245 143.5,287.5C 142.836,289.978 142.503,292.645 142.5,295.5C 142.683,299.016 143.35,302.349 144.5,305.5C 145.097,310.018 146.764,314.018 149.5,317.5C 152.029,325.317 154.695,332.984 157.5,340.5C 157.5,341.5 157.5,342.5 157.5,343.5C 158.951,349.251 160.285,354.917 161.5,360.5C 162.138,369.714 164.472,378.381 168.5,386.5C 169.167,388.833 169.833,391.167 170.5,393.5C 165.982,392.371 163.982,389.038 164.5,383.5C 163.178,383.67 162.011,383.337 161,382.5C 158.144,366.742 154.811,351.076 151,335.5C 148.228,327.953 144.895,320.62 141,313.5C 138.145,303.252 137.812,292.918 140,282.5C 140.556,284.595 141.056,284.762 141.5,283C 140.928,280.709 140.594,278.375 140.5,276C 142.517,264.595 144.184,253.095 145.5,241.5C 145.32,240.446 144.987,239.446 144.5,238.5C 144.846,237.304 145.346,237.304 146,238.5C 146.151,231.104 146.818,223.771 148,216.5C 152.577,215.307 154.744,212.307 154.5,207.5C 155.5,207.5 156.5,207.5 157.5,207.5C 157.454,204.449 158.454,201.782 160.5,199.5C 162.135,198.319 163.802,198.319 165.5,199.5C 166.59,198.609 166.59,197.609 165.5,196.5C 165.855,195.478 166.522,194.811 167.5,194.5 Z"/></g>
<g><path style="opacity:1" fill="#6b686c" d="M 158.5,212.5 C 156.404,214.433 154.904,216.767 154,219.5C 153.501,224.489 153.334,229.489 153.5,234.5C 156.059,234.198 158.393,234.532 160.5,235.5C 158.143,235.337 155.81,235.503 153.5,236C 152.594,237.699 152.261,239.533 152.5,241.5C 151.542,241.047 150.708,240.381 150,239.5C 149.057,242.251 148.224,244.917 147.5,247.5C 146.691,242.462 147.857,238.128 151,234.5C 151.638,231.464 151.472,228.464 150.5,225.5C 151.435,222.529 152.268,219.529 153,216.5C 154.451,214.536 156.284,213.203 158.5,212.5 Z"/></g>
<g><path style="opacity:1" fill="#5d555f" d="M 177.5,238.5 C 181.135,239.114 184.802,239.448 188.5,239.5C 188.5,239.833 188.5,240.167 188.5,240.5C 184.511,240.884 180.845,240.217 177.5,238.5 Z"/></g>
<g><path style="opacity:1" fill="#baaeb6" d="M 188.5,240.5 C 188.5,240.167 188.5,239.833 188.5,239.5C 193.511,239.334 198.511,239.501 203.5,240C 205.584,240.697 207.251,241.864 208.5,243.5C 202.016,241.42 195.349,240.42 188.5,240.5 Z"/></g>
<g><path style="opacity:1" fill="#9a9192" d="M 152.5,241.5 C 152.833,242.167 153.167,242.833 153.5,243.5C 152.417,243.461 151.417,243.127 150.5,242.5C 149.157,248.96 147.824,255.293 146.5,261.5C 146.54,256.807 146.873,252.141 147.5,247.5C 148.224,244.917 149.057,242.251 150,239.5C 150.708,240.381 151.542,241.047 152.5,241.5 Z"/></g>
<g><path style="opacity:1" fill="#1a141a" d="M 160.5,235.5 C 166.091,236.885 171.757,237.885 177.5,238.5C 180.845,240.217 184.511,240.884 188.5,240.5C 195.349,240.42 202.016,241.42 208.5,243.5C 209.795,244.488 211.128,245.488 212.5,246.5C 210.365,248.369 207.698,249.036 204.5,248.5C 202.784,248.371 201.117,248.038 199.5,247.5C 193.713,245.312 187.713,243.979 181.5,243.5C 174.954,245.35 168.287,246.35 161.5,246.5C 158.673,245.892 156.007,244.892 153.5,243.5C 153.167,242.833 152.833,242.167 152.5,241.5C 152.261,239.533 152.594,237.699 153.5,236C 155.81,235.503 158.143,235.337 160.5,235.5 Z"/></g>
<g><path style="opacity:1" fill="#b9b0b7" d="M 345.5,239.5 C 345.158,240.338 344.492,240.672 343.5,240.5C 339.064,240.21 334.73,240.71 330.5,242C 333.245,242.053 335.245,243.22 336.5,245.5C 335.643,246.425 334.643,247.092 333.5,247.5C 333.5,246.5 333.5,245.5 333.5,244.5C 330.833,244.5 328.167,244.5 325.5,244.5C 324.817,242.824 323.483,242.157 321.5,242.5C 324.203,241.037 327.203,240.204 330.5,240C 335.489,239.501 340.489,239.334 345.5,239.5 Z"/></g>
<g><path style="opacity:1" fill="#1e2024" d="M 345.5,239.5 C 346.833,239.5 348.167,239.5 349.5,239.5C 352.044,239.104 354.211,239.771 356,241.5C 357.392,245.22 356.225,247.22 352.5,247.5C 352.167,247.5 351.833,247.5 351.5,247.5C 348.063,246.055 344.397,245.055 340.5,244.5C 340.5,243.5 340.5,242.5 340.5,241.5C 341.791,241.737 342.791,241.404 343.5,240.5C 344.492,240.672 345.158,240.338 345.5,239.5 Z"/></g>
<g><path style="opacity:1" fill="#7f7883" d="M 321.5,242.5 C 323.483,242.157 324.817,242.824 325.5,244.5C 322.779,244.963 320.112,245.629 317.5,246.5C 316.791,245.596 315.791,245.263 314.5,245.5C 316.649,244.264 318.982,243.264 321.5,242.5 Z"/></g>
<g><path style="opacity:1" fill="#e1d9de" d="M 343.5,230.5 C 346.687,232.344 348.687,235.011 349.5,238.5C 349.5,238.833 349.5,239.167 349.5,239.5C 348.167,239.5 346.833,239.5 345.5,239.5C 340.489,239.334 335.489,239.501 330.5,240C 327.203,240.204 324.203,241.037 321.5,242.5C 318.982,243.264 316.649,244.264 314.5,245.5C 309.332,247.659 304.665,250.659 300.5,254.5C 301.32,256.111 302.654,256.778 304.5,256.5C 304.281,255.325 304.614,254.325 305.5,253.5C 309.517,251.139 313.517,248.806 317.5,246.5C 320.112,245.629 322.779,244.963 325.5,244.5C 328.167,244.5 330.833,244.5 333.5,244.5C 333.5,245.5 333.5,246.5 333.5,247.5C 329.29,248.99 328.457,251.656 331,255.5C 336.375,258.489 341.042,257.489 345,252.5C 345.494,250.866 345.66,249.199 345.5,247.5C 347.5,247.5 349.5,247.5 351.5,247.5C 351.833,247.5 352.167,247.5 352.5,247.5C 352.5,248.167 352.833,248.5 353.5,248.5C 354.833,250.833 354.833,253.167 353.5,255.5C 351.118,256.351 349.118,257.684 347.5,259.5C 345.716,259.893 344.05,260.559 342.5,261.5C 339.367,262.011 336.2,262.344 333,262.5C 324.586,260.726 316.086,259.893 307.5,260C 311.954,260.921 315.954,262.421 319.5,264.5C 320.263,265.268 321.263,265.768 322.5,266C 321.263,266.232 320.263,266.732 319.5,267.5C 312.354,264.953 305.354,262.12 298.5,259C 297.196,258.196 296.529,257.029 296.5,255.5C 298.083,254.071 298.75,252.571 298.5,251C 300.221,250.261 301.887,249.427 303.5,248.5C 306.397,244.579 310.064,241.912 314.5,240.5C 317.588,240.803 319.254,239.47 319.5,236.5C 325.001,236.368 330.168,235.034 335,232.5C 336.796,233.767 338.629,233.767 340.5,232.5C 343.962,235.369 344.962,234.702 343.5,230.5 Z"/></g>
<g><path style="opacity:1" fill="#756971" d="M 212.5,246.5 C 213.404,247.209 213.737,248.209 213.5,249.5C 210.287,249.81 207.287,249.477 204.5,248.5C 207.698,249.036 210.365,248.369 212.5,246.5 Z"/></g>
<g><path style="opacity:1" fill="#453e4a" d="M 314.5,245.5 C 315.791,245.263 316.791,245.596 317.5,246.5C 313.517,248.806 309.517,251.139 305.5,253.5C 304.614,254.325 304.281,255.325 304.5,256.5C 302.654,256.778 301.32,256.111 300.5,254.5C 304.665,250.659 309.332,247.659 314.5,245.5 Z"/></g>
<g><path style="opacity:1" fill="#95878a" d="M 343.5,240.5 C 342.791,241.404 341.791,241.737 340.5,241.5C 340.5,242.5 340.5,243.5 340.5,244.5C 344.397,245.055 348.063,246.055 351.5,247.5C 349.5,247.5 347.5,247.5 345.5,247.5C 345.66,249.199 345.494,250.866 345,252.5C 341.042,257.489 336.375,258.489 331,255.5C 328.457,251.656 329.29,248.99 333.5,247.5C 334.643,247.092 335.643,246.425 336.5,245.5C 335.245,243.22 333.245,242.053 330.5,242C 334.73,240.71 339.064,240.21 343.5,240.5 Z"/></g>
<g><path style="opacity:1" fill="#605c5d" d="M 347.5,259.5 C 349.167,260.167 350.833,260.833 352.5,261.5C 349.001,262.444 345.668,262.444 342.5,261.5C 344.05,260.559 345.716,259.893 347.5,259.5 Z"/></g>
<g><path style="opacity:1" fill="#e5d9df" d="M 199.5,247.5 C 199.5,248.5 199.5,249.5 199.5,250.5C 204.385,250.534 209.385,250.867 214.5,251.5C 212.5,252.333 210.5,253.167 208.5,254C 207.147,258.172 204.48,259.338 200.5,257.5C 199.614,258.325 199.281,259.325 199.5,260.5C 200.873,260.343 202.207,260.51 203.5,261C 200.893,261.818 198.226,262.318 195.5,262.5C 188.712,263.128 182.046,263.461 175.5,263.5C 175.5,262.5 175.5,261.5 175.5,260.5C 171.062,261.575 169.062,259.908 169.5,255.5C 168.167,255.5 166.833,255.5 165.5,255.5C 165.579,254.07 165.246,252.736 164.5,251.5C 161.924,250.117 162.258,249.283 165.5,249C 164.142,248.066 162.808,247.232 161.5,246.5C 168.287,246.35 174.954,245.35 181.5,243.5C 187.713,243.979 193.713,245.312 199.5,247.5 Z"/></g>
<g><path style="opacity:1" fill="#72656f" d="M 172.5,257.5 C 173.097,256.861 173.93,256.528 175,256.5C 178.448,257.538 181.948,258.371 185.5,259C 180.939,259.945 176.606,259.445 172.5,257.5 Z"/></g>
<g><path style="opacity:1" fill="#baafb1" d="M 342.5,261.5 C 345.668,262.444 349.001,262.444 352.5,261.5C 355.307,266.802 357.307,272.468 358.5,278.5C 357.167,275.833 355.833,273.167 354.5,270.5C 353.319,268.933 351.653,268.099 349.5,268C 350.167,267.667 350.833,267.333 351.5,267C 350.624,265.415 349.291,264.415 347.5,264C 341.623,263.758 335.79,264.258 330,265.5C 326.489,265.196 322.989,264.863 319.5,264.5C 315.954,262.421 311.954,260.921 307.5,260C 316.086,259.893 324.586,260.726 333,262.5C 336.2,262.344 339.367,262.011 342.5,261.5 Z"/></g>
<g><path style="opacity:1" fill="#686165" d="M 146.5,263.5 C 146.093,269.161 145.76,274.828 145.5,280.5C 144.833,282.833 144.167,285.167 143.5,287.5C 143.589,279.245 144.589,271.245 146.5,263.5 Z"/></g>
<g><path style="opacity:1" fill="#a59b9f" d="M 145.5,280.5 C 144.471,288.857 144.471,297.19 145.5,305.5C 145.167,305.5 144.833,305.5 144.5,305.5C 143.35,302.349 142.683,299.016 142.5,295.5C 142.503,292.645 142.836,289.978 143.5,287.5C 144.167,285.167 144.833,282.833 145.5,280.5 Z"/></g>
<g><path style="opacity:1" fill="#1b262d" d="M 353.5,255.5 C 354.496,255.414 355.329,255.748 356,256.5C 357.686,265.91 359.686,275.243 362,284.5C 363.733,295.485 363.9,306.485 362.5,317.5C 361.539,315.735 361.205,313.735 361.5,311.5C 361.666,304.159 361.5,296.826 361,289.5C 360.581,285.608 359.748,281.942 358.5,278.5C 357.307,272.468 355.307,266.802 352.5,261.5C 350.833,260.833 349.167,260.167 347.5,259.5C 349.118,257.684 351.118,256.351 353.5,255.5 Z"/></g>
<g><path style="opacity:1" fill="#83797c" d="M 144.5,305.5 C 144.833,305.5 145.167,305.5 145.5,305.5C 147.033,309.433 148.367,313.433 149.5,317.5C 146.764,314.018 145.097,310.018 144.5,305.5 Z"/></g>
<g><path style="opacity:1" fill="#405661" d="M 361.5,311.5 C 361.205,313.735 361.539,315.735 362.5,317.5C 361.325,325.209 359.825,332.876 358,340.5C 357.506,338.866 357.34,337.199 357.5,335.5C 359.071,327.407 360.404,319.407 361.5,311.5 Z"/></g>
<g><path style="opacity:1" fill="#908a8f" d="M 149.5,317.5 C 151.356,321.047 153.69,324.381 156.5,327.5C 155.833,327.833 155.167,328.167 154.5,328.5C 156.129,332.351 157.129,336.351 157.5,340.5C 154.695,332.984 152.029,325.317 149.5,317.5 Z"/></g>
<g><path style="opacity:1" fill="#d8dad8" d="M 354.5,270.5 C 355.833,273.167 357.167,275.833 358.5,278.5C 359.748,281.942 360.581,285.608 361,289.5C 361.5,296.826 361.666,304.159 361.5,311.5C 360.404,319.407 359.071,327.407 357.5,335.5C 354.385,349.914 352.051,364.581 350.5,379.5C 349.195,387.526 347.695,395.526 346,403.5C 344.457,407.12 342.624,410.453 340.5,413.5C 334.78,419.279 329.78,425.613 325.5,432.5C 323.861,434.806 321.861,436.806 319.5,438.5C 321.473,435.533 322.639,432.2 323,428.5C 329.621,421.257 335.787,414.423 341.5,408C 342.348,405.23 342.681,402.397 342.5,399.5C 343.5,399.5 344.5,399.5 345.5,399.5C 346.94,388.978 347.94,378.311 348.5,367.5C 347.5,367.5 346.5,367.5 345.5,367.5C 345.757,359.137 347.591,351.137 351,343.5C 351.2,339.247 351.7,335.08 352.5,331C 352.043,330.586 351.709,330.086 351.5,329.5C 353.134,325.36 354.134,321.027 354.5,316.5C 354.484,312.143 354.484,307.809 354.5,303.5C 355.5,303.5 356.5,303.5 357.5,303.5C 357.375,296.379 357.375,289.379 357.5,282.5C 357.203,279.126 355.87,276.293 353.5,274C 354.337,272.989 354.67,271.822 354.5,270.5 Z"/></g>
<g><path style="opacity:1" fill="#060e12" d="M 170.5,193.5 C 169.391,193.557 168.391,193.89 167.5,194.5C 166.522,194.811 165.855,195.478 165.5,196.5C 166.59,197.609 166.59,198.609 165.5,199.5C 163.802,198.319 162.135,198.319 160.5,199.5C 158.454,201.782 157.454,204.449 157.5,207.5C 156.5,207.5 155.5,207.5 154.5,207.5C 154.744,212.307 152.577,215.307 148,216.5C 146.818,223.771 146.151,231.104 146,238.5C 145.346,237.304 144.846,237.304 144.5,238.5C 144.987,239.446 145.32,240.446 145.5,241.5C 144.184,253.095 142.517,264.595 140.5,276C 140.594,278.375 140.928,280.709 141.5,283C 141.056,284.762 140.556,284.595 140,282.5C 137.812,292.918 138.145,303.252 141,313.5C 144.895,320.62 148.228,327.953 151,335.5C 154.811,351.076 158.144,366.742 161,382.5C 162.011,383.337 163.178,383.67 164.5,383.5C 163.982,389.038 165.982,392.371 170.5,393.5C 171.458,393.953 172.292,394.619 173,395.5C 173.511,397.878 174.178,400.212 175,402.5C 175.671,403.252 176.504,403.586 177.5,403.5C 178.579,405.543 180.246,406.876 182.5,407.5C 182.414,408.496 182.748,409.329 183.5,410C 181.833,410.333 180.167,410.667 178.5,411C 178.833,411.333 179.167,411.667 179.5,412C 176.245,417.918 175.245,424.251 176.5,431C 175.805,437.816 175.305,444.65 175,451.5C 174.962,442.603 174.129,433.936 172.5,425.5C 172.666,419.824 172.499,414.157 172,408.5C 169,404.833 166,401.167 163,397.5C 161.333,393.167 159.667,388.833 158,384.5C 154.546,366.442 150.88,348.442 147,330.5C 146.208,328.413 145.041,326.579 143.5,325C 139.833,324.667 136.167,324.333 132.5,324C 131.667,323.167 130.833,322.333 130,321.5C 129.377,315.396 129.877,309.396 131.5,303.5C 135.038,277.46 139.372,251.46 144.5,225.5C 145.329,218.011 145.829,210.344 146,202.5C 149.273,200.391 151.106,197.391 151.5,193.5C 156.38,190.316 161.38,187.316 166.5,184.5C 168.029,184.529 169.196,185.196 170,186.5C 170.497,188.81 170.663,191.143 170.5,193.5 Z"/></g>
<g><path style="opacity:1" fill="#b5acb2" d="M 157.5,343.5 C 159.451,344.716 160.951,346.382 162,348.5C 164.181,362.537 167.681,376.204 172.5,389.5C 171.167,388.5 169.833,387.5 168.5,386.5C 166.525,378.739 164.858,370.906 163.5,363C 163.316,361.624 162.649,360.791 161.5,360.5C 160.285,354.917 158.951,349.251 157.5,343.5 Z"/></g>
<g><path style="opacity:1" fill="#777078" d="M 161.5,360.5 C 162.649,360.791 163.316,361.624 163.5,363C 164.858,370.906 166.525,378.739 168.5,386.5C 164.472,378.381 162.138,369.714 161.5,360.5 Z"/></g>
<g><path style="opacity:1" fill="#e6dad9" d="M 342.5,327.5 C 342.34,330.884 342.673,334.217 343.5,337.5C 341.656,346.189 339.323,354.689 336.5,363C 337.744,363.456 338.577,362.956 339,361.5C 339.857,369.829 340.191,378.162 340,386.5C 339.667,386.833 339.333,387.167 339,387.5C 337.855,381.196 336.855,374.862 336,368.5C 336.562,373.557 334.896,377.557 331,380.5C 330.099,386.835 329.266,393.168 328.5,399.5C 327.5,399.5 326.5,399.5 325.5,399.5C 325.06,405.057 322.227,408.724 317,410.5C 316.506,412.134 316.34,413.801 316.5,415.5C 317.675,415.281 318.675,415.614 319.5,416.5C 312.384,418.952 308.718,423.952 308.5,431.5C 306.833,431.5 305.167,431.5 303.5,431.5C 303.48,433.143 304.147,434.476 305.5,435.5C 304.86,438.648 303.86,438.981 302.5,436.5C 299.145,437.846 295.812,439.18 292.5,440.5C 291.425,437.919 289.758,435.753 287.5,434C 281.463,433.199 275.63,431.699 270,429.5C 268.216,430.309 266.383,430.976 264.5,431.5C 260.559,428.738 256.226,426.738 251.5,425.5C 249.514,425.787 247.68,426.453 246,427.5C 243.65,426.496 241.316,425.496 239,424.5C 233.971,425.879 229.638,424.546 226,420.5C 225.28,418.888 225.446,417.388 226.5,416C 225.5,415.667 224.5,415.333 223.5,415C 224.45,412.568 224.45,410.068 223.5,407.5C 234.442,410.753 234.942,408.753 225,401.5C 223.991,399.975 223.491,398.308 223.5,396.5C 228.401,396.828 229.235,395.494 226,392.5C 225.333,393.833 224.333,394.833 223,395.5C 219.478,393.312 216.811,390.312 215,386.5C 214.727,388.101 214.227,389.601 213.5,391C 212.258,391.311 211.258,390.811 210.5,389.5C 209.692,389.808 209.025,390.308 208.5,391C 209.784,392.297 209.617,393.464 208,394.5C 207.501,389.177 207.334,383.844 207.5,378.5C 218.167,378.167 228.833,377.833 239.5,377.5C 241.05,374.111 243.55,371.444 247,369.5C 247.333,369.833 247.667,370.167 248,370.5C 248.956,369.421 249.789,368.255 250.5,367C 247.824,363.557 245.657,359.724 244,355.5C 242.414,354.624 240.914,353.624 239.5,352.5C 240.376,351.749 241.376,351.249 242.5,351C 240.283,348.395 238.617,345.395 237.5,342C 239.013,340.121 239.679,337.954 239.5,335.5C 242.316,333.783 244.483,334.449 246,337.5C 248.613,336.185 251.113,334.685 253.5,333C 260.209,332.619 266.376,330.786 272,327.5C 277.488,329.286 282.988,330.953 288.5,332.5C 289.244,331.009 289.91,329.509 290.5,328C 291.944,327.219 293.277,327.386 294.5,328.5C 294.98,330.949 295.98,333.115 297.5,335C 296.736,337.069 296.236,339.236 296,341.5C 295.333,340.167 294.667,340.167 294,341.5C 293.383,342.449 293.549,343.282 294.5,344C 293.488,345.643 292.488,346.81 291.5,347.5C 292.488,348.19 293.488,349.357 294.5,351C 293.23,351.9 292.23,353.066 291.5,354.5C 290.281,353.737 289.281,352.737 288.5,351.5C 287.139,353.028 285.972,354.695 285,356.5C 284.085,355.672 283.419,354.672 283,353.5C 281.022,356.645 278.522,359.312 275.5,361.5C 274.305,363.751 273.305,366.085 272.5,368.5C 276.143,372.994 280.81,375.994 286.5,377.5C 287.466,379.396 287.799,381.396 287.5,383.5C 295.286,383.477 302.12,385.81 308,390.5C 307.654,393.313 308.488,395.979 310.5,398.5C 308.525,399.788 308.525,401.455 310.5,403.5C 309.167,405.5 307.5,407.167 305.5,408.5C 302.029,414.698 303.696,416.698 310.5,414.5C 312.435,410.723 314.602,407.057 317,403.5C 317.781,402.056 317.614,400.723 316.5,399.5C 315.614,400.325 315.281,401.325 315.5,402.5C 314.5,402.5 313.5,402.5 312.5,402.5C 312.67,401.178 312.337,400.011 311.5,399C 313.76,397.311 316.26,396.144 319,395.5C 319.498,392.518 319.665,389.518 319.5,386.5C 317.692,386.509 316.025,386.009 314.5,385C 311.905,381.695 308.571,379.361 304.5,378C 310.167,377.667 315.833,377.333 321.5,377C 324.432,374.316 326.765,371.15 328.5,367.5C 329.167,359.5 329.833,351.5 330.5,343.5C 330.362,347.042 330.695,350.708 331.5,354.5C 334.315,347.294 336.815,339.961 339,332.5C 339.549,330.24 340.716,328.574 342.5,327.5 Z"/></g>
<g><path style="opacity:1" fill="#5a525b" d="M 251.5,386.5 C 246.025,387.489 240.358,387.822 234.5,387.5C 234.5,388.5 234.5,389.5 234.5,390.5C 235.791,390.263 236.791,390.596 237.5,391.5C 233.324,392.169 231.991,390.669 233.5,387C 239.491,386.501 245.491,386.334 251.5,386.5 Z"/></g>
<g><path style="opacity:1" fill="#7b7378" d="M 269.5,385.5 C 272.64,384.359 275.973,384.192 279.5,385C 280.942,385.377 281.942,386.21 282.5,387.5C 278.326,385.936 273.993,385.269 269.5,385.5 Z"/></g>
<g><path style="opacity:1" fill="#211c24" d="M 283.5,343.5 C 276.847,344.054 270.18,344.388 263.5,344.5C 260.428,344.817 257.428,344.484 254.5,343.5C 255.171,342.054 256.338,341.388 258,341.5C 266.438,339.337 274.938,339.004 283.5,340.5C 283.5,341.5 283.5,342.5 283.5,343.5 Z"/></g>
<g><path style="opacity:1" fill="#b9b0b8" d="M 283.5,343.5 C 283.5,342.5 283.5,341.5 283.5,340.5C 274.938,339.004 266.438,339.337 258,341.5C 256.338,341.388 255.171,342.054 254.5,343.5C 257.428,344.484 260.428,344.817 263.5,344.5C 260.36,345.641 257.027,345.808 253.5,345C 252.62,343.644 252.286,342.144 252.5,340.5C 263.087,338.686 273.754,338.186 284.5,339C 286.043,341.045 285.71,342.545 283.5,343.5 Z"/></g>
<g><path style="opacity:1" fill="#1a1518" d="M 269.5,385.5 C 273.993,385.269 278.326,385.936 282.5,387.5C 287.687,390.924 293.354,393.591 299.5,395.5C 278.594,397.574 257.927,396.241 237.5,391.5C 236.791,390.596 235.791,390.263 234.5,390.5C 234.5,389.5 234.5,388.5 234.5,387.5C 240.358,387.822 246.025,387.489 251.5,386.5C 257.464,385.693 263.464,385.36 269.5,385.5 Z"/></g>
<g><path style="opacity:1" fill="#8a838b" d="M 168.5,386.5 C 169.833,387.5 171.167,388.5 172.5,389.5C 174.228,394.198 175.895,398.865 177.5,403.5C 176.504,403.586 175.671,403.252 175,402.5C 174.178,400.212 173.511,397.878 173,395.5C 172.292,394.619 171.458,393.953 170.5,393.5C 169.833,391.167 169.167,388.833 168.5,386.5 Z"/></g>
<g><path style="opacity:1" fill="#607f91" d="M 131.5,303.5 C 129.877,309.396 129.377,315.396 130,321.5C 130.833,322.333 131.667,323.167 132.5,324C 136.167,324.333 139.833,324.667 143.5,325C 145.041,326.579 146.208,328.413 147,330.5C 150.88,348.442 154.546,366.442 158,384.5C 159.667,388.833 161.333,393.167 163,397.5C 166,401.167 169,404.833 172,408.5C 172.499,414.157 172.666,419.824 172.5,425.5C 172.5,438.833 172.5,452.167 172.5,465.5C 172.5,480.833 172.5,496.167 172.5,511.5C 171.833,511.5 171.167,511.5 170.5,511.5C 171.951,488.141 171.785,464.808 170,441.5C 169.749,443.433 169.249,445.266 168.5,447C 169.648,455.088 169.815,463.254 169,471.5C 168.587,468.768 167.92,466.101 167,463.5C 166.5,452.839 166.333,442.172 166.5,431.5C 163.956,431.896 161.789,431.229 160,429.5C 158.164,431.604 155.998,431.938 153.5,430.5C 155.028,425.281 154.028,420.614 150.5,416.5C 151.454,410.896 151.788,405.229 151.5,399.5C 152.833,399.5 154.167,399.5 155.5,399.5C 156.092,395.926 154.592,393.926 151,393.5C 150.393,390.798 150.56,388.132 151.5,385.5C 150.72,384.051 150.054,382.551 149.5,381C 151.024,376.601 152.024,372.101 152.5,367.5C 150.5,367.5 148.5,367.5 146.5,367.5C 145.135,360.279 144.302,352.945 144,345.5C 143.818,348.226 143.318,350.893 142.5,353.5C 139.622,349.458 135.955,346.291 131.5,344C 132.645,340.71 134.312,337.71 136.5,335C 135.018,332.408 135.352,330.075 137.5,328C 136.197,327.79 134.864,327.957 133.5,328.5C 131.543,327.046 129.71,325.38 128,323.5C 127.454,316.816 127.62,310.149 128.5,303.5C 129.5,303.5 130.5,303.5 131.5,303.5 Z"/></g>
<g><path style="opacity:1" fill="#628596" d="M 447.5,399.5 C 453.206,399.171 458.872,399.505 464.5,400.5C 465.364,402.197 466.697,403.363 468.5,404C 471.688,408.185 475.188,412.018 479,415.5C 479.499,420.823 479.666,426.156 479.5,431.5C 481.833,431.5 484.167,431.5 486.5,431.5C 487.303,436.476 490.136,439.809 495,441.5C 495.5,448.826 495.666,456.159 495.5,463.5C 498.167,463.5 500.833,463.5 503.5,463.5C 503.846,470.696 501.012,472.696 495,469.5C 491.822,470.67 489.322,472.67 487.5,475.5C 487.321,482.071 487.321,488.737 487.5,495.5C 484.833,495.5 482.167,495.5 479.5,495.5C 481.572,484.727 479.072,483.061 472,490.5C 470.991,492.025 470.491,493.692 470.5,495.5C 457.5,495.5 444.5,495.5 431.5,495.5C 431.5,492.833 431.5,490.167 431.5,487.5C 428.843,487.838 426.51,487.171 424.5,485.5C 423.361,476.548 423.195,467.548 424,458.5C 425.805,455.961 428.305,454.961 431.5,455.5C 431.5,452.833 431.5,450.167 431.5,447.5C 434.167,447.5 436.833,447.5 439.5,447.5C 439.5,436.833 439.5,426.167 439.5,415.5C 442.167,415.5 444.833,415.5 447.5,415.5C 447.5,410.167 447.5,404.833 447.5,399.5 Z"/></g>
<g><path style="opacity:1" fill="#3b4c59" d="M 350.5,379.5 C 352.618,396.547 347.951,411.547 336.5,424.5C 336.631,423.761 336.464,423.094 336,422.5C 335.292,423.381 334.458,424.047 333.5,424.5C 335.051,421.437 337.218,418.771 340,416.5C 340.483,415.552 340.649,414.552 340.5,413.5C 342.624,410.453 344.457,407.12 346,403.5C 347.695,395.526 349.195,387.526 350.5,379.5 Z"/></g>
<g><path style="opacity:1" fill="#7f8b93" d="M 340.5,413.5 C 340.649,414.552 340.483,415.552 340,416.5C 337.218,418.771 335.051,421.437 333.5,424.5C 331.194,427.473 328.527,430.14 325.5,432.5C 329.78,425.613 334.78,419.279 340.5,413.5 Z"/></g>
<g><path style="opacity:1" fill="#23323e" d="M 336.5,424.5 C 329.708,432.462 322.708,440.296 315.5,448C 312.3,450.099 308.967,451.933 305.5,453.5C 304.001,452.506 302.334,452.506 300.5,453.5C 307.668,449.677 314.001,444.677 319.5,438.5C 321.861,436.806 323.861,434.806 325.5,432.5C 328.527,430.14 331.194,427.473 333.5,424.5C 334.458,424.047 335.292,423.381 336,422.5C 336.464,423.094 336.631,423.761 336.5,424.5 Z"/></g>
<g><path style="opacity:1" fill="#e5dcd9" d="M 354.5,270.5 C 354.67,271.822 354.337,272.989 353.5,274C 355.87,276.293 357.203,279.126 357.5,282.5C 357.375,289.379 357.375,296.379 357.5,303.5C 356.5,303.5 355.5,303.5 354.5,303.5C 354.484,307.809 354.484,312.143 354.5,316.5C 354.134,321.027 353.134,325.36 351.5,329.5C 351.709,330.086 352.043,330.586 352.5,331C 351.7,335.08 351.2,339.247 351,343.5C 347.591,351.137 345.757,359.137 345.5,367.5C 346.5,367.5 347.5,367.5 348.5,367.5C 347.94,378.311 346.94,388.978 345.5,399.5C 344.5,399.5 343.5,399.5 342.5,399.5C 342.681,402.397 342.348,405.23 341.5,408C 335.787,414.423 329.621,421.257 323,428.5C 322.639,432.2 321.473,435.533 319.5,438.5C 317.801,438.34 316.134,438.506 314.5,439C 313.71,442.79 311.376,444.79 307.5,445C 303.022,448.287 298.355,451.287 293.5,454C 290.964,454.339 288.464,454.839 286,455.5C 284.97,455.836 284.47,456.503 284.5,457.5C 283.833,457.5 283.167,457.5 282.5,457.5C 278.833,457.5 275.167,457.5 271.5,457.5C 270.5,457.5 269.5,457.5 268.5,457.5C 268.719,458.675 268.386,459.675 267.5,460.5C 265.566,460.901 264.066,461.901 263,463.5C 261.213,479.529 259.38,495.529 257.5,511.5C 234.167,511.5 210.833,511.5 187.5,511.5C 187.75,510.078 188.583,509.078 190,508.5C 190.44,503.327 190.94,498.161 191.5,493C 189.816,477.535 189.316,462.035 190,446.5C 191.501,441.998 193.668,437.831 196.5,434C 196.092,431.08 194.759,428.746 192.5,427C 193.49,423.48 195.49,422.647 198.5,424.5C 203.55,427.692 208.883,430.358 214.5,432.5C 216.181,434.008 218.181,435.008 220.5,435.5C 222.939,438.26 225.939,440.26 229.5,441.5C 230.167,441.167 230.833,440.833 231.5,440.5C 228.618,438.718 228.285,436.885 230.5,435C 228.993,434.163 228.493,432.996 229,431.5C 231.55,435.192 235.05,436.858 239.5,436.5C 239.5,437.5 239.5,438.5 239.5,439.5C 244.6,440.255 249.266,442.088 253.5,445C 264.875,445.572 276.208,445.072 287.5,443.5C 289.145,442.304 290.811,441.304 292.5,440.5C 295.812,439.18 299.145,437.846 302.5,436.5C 303.86,438.981 304.86,438.648 305.5,435.5C 304.147,434.476 303.48,433.143 303.5,431.5C 305.167,431.5 306.833,431.5 308.5,431.5C 308.718,423.952 312.384,418.952 319.5,416.5C 318.675,415.614 317.675,415.281 316.5,415.5C 316.34,413.801 316.506,412.134 317,410.5C 322.227,408.724 325.06,405.057 325.5,399.5C 326.5,399.5 327.5,399.5 328.5,399.5C 329.266,393.168 330.099,386.835 331,380.5C 334.896,377.557 336.562,373.557 336,368.5C 336.855,374.862 337.855,381.196 339,387.5C 339.333,387.167 339.667,386.833 340,386.5C 340.191,378.162 339.857,369.829 339,361.5C 338.577,362.956 337.744,363.456 336.5,363C 339.323,354.689 341.656,346.189 343.5,337.5C 342.673,334.217 342.34,330.884 342.5,327.5C 343.883,316.897 344.717,306.23 345,295.5C 345.333,299.5 345.667,303.5 346,307.5C 349.308,295.919 349.141,284.419 345.5,273C 344.318,271.265 342.651,270.265 340.5,270C 334.782,269.789 329.115,269.289 323.5,268.5C 321.512,270.147 320.179,269.814 319.5,267.5C 320.263,266.732 321.263,266.232 322.5,266C 321.263,265.768 320.263,265.268 319.5,264.5C 322.989,264.863 326.489,265.196 330,265.5C 335.79,264.258 341.623,263.758 347.5,264C 349.291,264.415 350.624,265.415 351.5,267C 350.833,267.333 350.167,267.667 349.5,268C 351.653,268.099 353.319,268.933 354.5,270.5 Z"/></g>
<g><path style="opacity:1" fill="#605d64" d="M 217.5,431.5 C 218.721,432.028 219.887,432.695 221,433.5C 221.692,434.437 221.525,435.103 220.5,435.5C 218.181,435.008 216.181,434.008 214.5,432.5C 215.791,432.737 216.791,432.404 217.5,431.5 Z"/></g>
<g><path style="opacity:1" fill="#acb1b7" d="M 319.5,438.5 C 314.001,444.677 307.668,449.677 300.5,453.5C 295.25,455.146 289.917,456.479 284.5,457.5C 284.47,456.503 284.97,455.836 286,455.5C 288.464,454.839 290.964,454.339 293.5,454C 298.355,451.287 303.022,448.287 307.5,445C 311.376,444.79 313.71,442.79 314.5,439C 316.134,438.506 317.801,438.34 319.5,438.5 Z"/></g>
<g><path style="opacity:1" fill="#3f4246" d="M 185.5,416.5 C 184.5,416.5 183.5,416.5 182.5,416.5C 184.208,420.27 185.541,424.27 186.5,428.5C 186.276,431.08 185.609,433.414 184.5,435.5C 183.883,435.611 183.383,435.944 183,436.5C 180.488,451.221 179.988,466.055 181.5,481C 181.654,490.711 180.987,500.211 179.5,509.5C 179.333,483.831 179.5,458.165 180,432.5C 182.45,426.412 181.95,420.745 178.5,415.5C 178.47,414.503 178.97,413.836 180,413.5C 182.12,414.14 183.954,415.14 185.5,416.5 Z"/></g>
<g><path style="opacity:1" fill="#727478" d="M 185.5,416.5 C 186.71,416.932 187.71,417.599 188.5,418.5C 186.952,418.821 186.285,419.821 186.5,421.5C 188.964,426.772 188.964,432.105 186.5,437.5C 185.667,458.492 185.167,479.492 185,500.5C 184.76,504.252 184.26,507.919 183.5,511.5C 182.5,511.5 181.5,511.5 180.5,511.5C 181.122,510.373 181.955,509.373 183,508.5C 183.734,490.49 183.567,472.49 182.5,454.5C 182.875,448.122 183.542,441.789 184.5,435.5C 185.609,433.414 186.276,431.08 186.5,428.5C 185.541,424.27 184.208,420.27 182.5,416.5C 183.5,416.5 184.5,416.5 185.5,416.5 Z"/></g>
<g><path style="opacity:1" fill="#969496" d="M 186.5,421.5 C 187.79,422.058 188.623,423.058 189,424.5C 189.81,429.257 189.476,433.924 188,438.5C 187.667,461.833 187.333,485.167 187,508.5C 186.487,509.527 185.987,510.527 185.5,511.5C 184.833,511.5 184.167,511.5 183.5,511.5C 184.26,507.919 184.76,504.252 185,500.5C 185.167,479.492 185.667,458.492 186.5,437.5C 188.964,432.105 188.964,426.772 186.5,421.5 Z"/></g>
<g><path style="opacity:1" fill="#586974" d="M 284.5,460.5 C 283.033,463.688 281.866,467.021 281,470.5C 280.667,470.167 280.333,469.833 280,469.5C 278.61,483.515 277.11,497.515 275.5,511.5C 275.167,511.5 274.833,511.5 274.5,511.5C 274.5,508.833 274.5,506.167 274.5,503.5C 276.654,491.599 278.154,479.599 279,467.5C 279.833,465.5 280.667,463.5 281.5,461.5C 282.417,460.873 283.417,460.539 284.5,460.5 Z"/></g>
<g><path style="opacity:1" fill="#272d33" d="M 178.5,415.5 C 181.95,420.745 182.45,426.412 180,432.5C 179.5,458.165 179.333,483.831 179.5,509.5C 179.167,510.167 178.833,510.833 178.5,511.5C 176.5,511.5 174.5,511.5 172.5,511.5C 172.5,496.167 172.5,480.833 172.5,465.5C 173.331,479.661 173.831,493.994 174,508.5C 175.011,509.337 176.178,509.67 177.5,509.5C 175.993,478.157 176.326,446.823 178.5,415.5 Z"/></g>
<g><path style="opacity:1" fill="#6d7175" d="M 280.5,458.5 C 279.306,459.272 278.306,460.272 277.5,461.5C 271.811,462.358 268.644,465.691 268,471.5C 266.397,484.785 265.564,498.118 265.5,511.5C 264.833,511.5 264.167,511.5 263.5,511.5C 262.893,509.254 262.56,506.921 262.5,504.5C 264.479,491.581 265.645,478.581 266,465.5C 267.828,463.919 269.828,462.585 272,461.5C 272.483,460.552 272.649,459.552 272.5,458.5C 275.167,458.5 277.833,458.5 280.5,458.5 Z"/></g>
<g><path style="opacity:1" fill="#2b2f31" d="M 273.5,465.5 C 271.13,480.398 269.464,495.398 268.5,510.5C 270.144,510.714 271.644,510.38 273,509.5C 273.191,507.292 273.691,505.292 274.5,503.5C 274.5,506.167 274.5,508.833 274.5,511.5C 272.167,511.5 269.833,511.5 267.5,511.5C 266.899,509.422 266.566,507.255 266.5,505C 267.966,494.222 268.799,483.388 269,472.5C 269.667,470.5 270.333,468.5 271,466.5C 271.671,465.748 272.504,465.414 273.5,465.5 Z"/></g>
<g><path style="opacity:1" fill="#12161b" d="M 182.5,407.5 C 195.288,413.971 206.955,421.971 217.5,431.5C 216.791,432.404 215.791,432.737 214.5,432.5C 208.883,430.358 203.55,427.692 198.5,424.5C 195.202,422.515 191.869,420.515 188.5,418.5C 187.71,417.599 186.71,416.932 185.5,416.5C 183.954,415.14 182.12,414.14 180,413.5C 178.97,413.836 178.47,414.503 178.5,415.5C 176.326,446.823 175.993,478.157 177.5,509.5C 176.178,509.67 175.011,509.337 174,508.5C 173.831,493.994 173.331,479.661 172.5,465.5C 172.5,452.167 172.5,438.833 172.5,425.5C 174.129,433.936 174.962,442.603 175,451.5C 175.305,444.65 175.805,437.816 176.5,431C 175.245,424.251 176.245,417.918 179.5,412C 179.167,411.667 178.833,411.333 178.5,411C 180.167,410.667 181.833,410.333 183.5,410C 182.748,409.329 182.414,408.496 182.5,407.5 Z"/></g>
<g><path style="opacity:1" fill="#53575c" d="M 184.5,435.5 C 183.542,441.789 182.875,448.122 182.5,454.5C 183.567,472.49 183.734,490.49 183,508.5C 181.955,509.373 181.122,510.373 180.5,511.5C 179.833,511.5 179.167,511.5 178.5,511.5C 178.833,510.833 179.167,510.167 179.5,509.5C 180.987,500.211 181.654,490.711 181.5,481C 179.988,466.055 180.488,451.221 183,436.5C 183.383,435.944 183.883,435.611 184.5,435.5 Z"/></g>
<g><path style="opacity:1" fill="#9c9c9f" d="M 271.5,457.5 C 275.167,457.5 278.833,457.5 282.5,457.5C 282.158,458.338 281.492,458.672 280.5,458.5C 277.833,458.5 275.167,458.5 272.5,458.5C 272.649,459.552 272.483,460.552 272,461.5C 269.828,462.585 267.828,463.919 266,465.5C 265.645,478.581 264.479,491.581 262.5,504.5C 262.56,506.921 262.893,509.254 263.5,511.5C 262.833,511.5 262.167,511.5 261.5,511.5C 261.574,495.796 262.407,480.129 264,464.5C 265.579,462.959 267.413,461.792 269.5,461C 270.305,459.887 270.972,458.721 271.5,457.5 Z"/></g>
<g><path style="opacity:1" fill="#13171b" d="M 305.5,453.5 C 298.814,456.593 291.814,458.926 284.5,460.5C 283.417,460.539 282.417,460.873 281.5,461.5C 280.667,463.5 279.833,465.5 279,467.5C 278.154,479.599 276.654,491.599 274.5,503.5C 273.691,505.292 273.191,507.292 273,509.5C 271.644,510.38 270.144,510.714 268.5,510.5C 269.464,495.398 271.13,480.398 273.5,465.5C 275.167,464.5 276.5,463.167 277.5,461.5C 278.306,460.272 279.306,459.272 280.5,458.5C 281.492,458.672 282.158,458.338 282.5,457.5C 283.167,457.5 283.833,457.5 284.5,457.5C 289.917,456.479 295.25,455.146 300.5,453.5C 302.334,452.506 304.001,452.506 305.5,453.5 Z"/></g>
<g><path style="opacity:1" fill="#bfbbbb" d="M 271.5,457.5 C 270.972,458.721 270.305,459.887 269.5,461C 267.413,461.792 265.579,462.959 264,464.5C 262.407,480.129 261.574,495.796 261.5,511.5C 260.167,511.5 258.833,511.5 257.5,511.5C 259.38,495.529 261.213,479.529 263,463.5C 264.066,461.901 265.566,460.901 267.5,460.5C 268.386,459.675 268.719,458.675 268.5,457.5C 269.5,457.5 270.5,457.5 271.5,457.5 Z"/></g>
<g><path style="opacity:1" fill="#404548" d="M 277.5,461.5 C 276.5,463.167 275.167,464.5 273.5,465.5C 272.504,465.414 271.671,465.748 271,466.5C 270.333,468.5 269.667,470.5 269,472.5C 268.799,483.388 267.966,494.222 266.5,505C 266.566,507.255 266.899,509.422 267.5,511.5C 266.833,511.5 266.167,511.5 265.5,511.5C 265.564,498.118 266.397,484.785 268,471.5C 268.644,465.691 271.811,462.358 277.5,461.5 Z"/></g>
<g><path style="opacity:1" fill="#c5bebe" d="M 188.5,418.5 C 191.869,420.515 195.202,422.515 198.5,424.5C 195.49,422.647 193.49,423.48 192.5,427C 194.759,428.746 196.092,431.08 196.5,434C 193.668,437.831 191.501,441.998 190,446.5C 189.316,462.035 189.816,477.535 191.5,493C 190.94,498.161 190.44,503.327 190,508.5C 188.583,509.078 187.75,510.078 187.5,511.5C 186.833,511.5 186.167,511.5 185.5,511.5C 185.987,510.527 186.487,509.527 187,508.5C 187.333,485.167 187.667,461.833 188,438.5C 189.476,433.924 189.81,429.257 189,424.5C 188.623,423.058 187.79,422.058 186.5,421.5C 186.285,419.821 186.952,418.821 188.5,418.5 Z"/></g>
</svg>
