<?xml version="1.0" encoding="UTF-8"?>
<!DOCTYPE svg PUBLIC "-//W3C//DTD SVG 1.1//EN" "http://www.w3.org/Graphics/SVG/1.1/DTD/svg11.dtd">
<svg xmlns="http://www.w3.org/2000/svg" version="1.1" width="512px" height="512px" style="shape-rendering:geometricPrecision; text-rendering:geometricPrecision; image-rendering:optimizeQuality; fill-rule:evenodd; clip-rule:evenodd" xmlns:xlink="http://www.w3.org/1999/xlink">
<g><path style="opacity:1" fill="#94554f" d="M 511.5,23.5 C 511.5,186.167 511.5,348.833 511.5,511.5C 463.5,511.5 415.5,511.5 367.5,511.5C 370.701,509.74 374.367,508.906 378.5,509C 374.848,508.501 371.182,508.335 367.5,508.5C 367.5,507.5 367.5,506.5 367.5,505.5C 380.171,505.667 392.838,505.5 405.5,505C 413.129,504.459 419.962,501.959 426,497.5C 424.101,488.534 418.934,485.034 410.5,487C 409.333,486.5 408.5,485.667 408,484.5C 407.167,472.153 407.334,459.82 408.5,447.5C 412.138,442.158 417.138,439.491 423.5,439.5C 429.523,442.89 434.69,441.89 439,436.5C 440.009,434.975 440.509,433.308 440.5,431.5C 441.833,431.5 443.167,431.5 444.5,431.5C 444.5,428.833 444.5,426.167 444.5,423.5C 445.5,423.5 446.5,423.5 447.5,423.5C 449.487,420.804 451.154,417.804 452.5,414.5C 450.833,413.167 449.167,413.167 447.5,414.5C 449.85,415.774 449.683,417.107 447,418.5C 445.795,417.929 444.628,417.262 443.5,416.5C 444.325,415.614 445.325,415.281 446.5,415.5C 445.656,406.575 448.656,399.408 455.5,394C 456.5,393.333 457.5,393.333 458.5,394C 454.868,397.047 454.868,400.214 458.5,403.5C 461.125,402.236 463.792,401.069 466.5,400C 466.043,399.586 465.709,399.086 465.5,398.5C 466.833,396.5 468.167,394.5 469.5,392.5C 468.652,390.591 468.318,388.591 468.5,386.5C 465.955,386.849 463.955,386.016 462.5,384C 459.018,384 455.684,383.833 452.5,383.5C 452.276,379.438 450.276,376.605 446.5,375C 447.059,374.275 447.392,373.442 447.5,372.5C 444.372,370.104 443.706,367.104 445.5,363.5C 443.803,356.776 442.469,349.943 441.5,343C 443.158,341.337 445.158,340.504 447.5,340.5C 447.335,337.482 447.502,334.482 448,331.5C 449.485,329.271 450.818,326.938 452,324.5C 453.011,323.663 454.178,323.33 455.5,323.5C 455.34,321.801 455.506,320.134 456,318.5C 457.868,315.299 460.368,312.799 463.5,311C 462.5,310 461.5,309 460.5,308C 462.439,307.092 463.439,305.592 463.5,303.5C 464.552,303.649 465.552,303.483 466.5,303C 469.332,300.148 471.832,296.981 474,293.5C 474.333,291.833 474.667,290.167 475,288.5C 477.14,287.272 478.807,285.605 480,283.5C 480.583,285.002 481.416,286.335 482.5,287.5C 484.986,285.422 485.986,282.755 485.5,279.5C 483.876,279.36 482.71,280.027 482,281.5C 481.5,281 481,280.5 480.5,280C 482.68,277.582 483.013,274.916 481.5,272C 483.701,271.175 485.534,271.675 487,273.5C 486.874,268.316 488.041,267.65 490.5,271.5C 491.495,266.208 491.828,260.875 491.5,255.5C 490.167,255.5 488.833,255.5 487.5,255.5C 487.274,250.416 484.774,246.749 480,244.5C 479.506,242.866 479.34,241.199 479.5,239.5C 471.5,239.5 463.5,239.5 455.5,239.5C 455.666,249.172 455.5,258.839 455,268.5C 453.527,270.136 451.693,271.136 449.5,271.5C 447.076,270.262 444.742,268.762 442.5,267C 439.312,262.815 435.812,258.982 432,255.5C 431.667,244.833 431.333,234.167 431,223.5C 426.333,218.833 421.667,214.167 417,209.5C 416.812,207.939 417.645,207.272 419.5,207.5C 419.5,202.167 419.5,196.833 419.5,191.5C 418.167,191.5 416.833,191.5 415.5,191.5C 416.62,186.942 414.953,184.109 410.5,183C 408.416,181.499 407.083,179.499 406.5,177C 407.434,171.215 407.768,165.382 407.5,159.5C 409.924,159.808 412.257,159.474 414.5,158.5C 412.208,156.343 409.875,154.176 407.5,152C 407.833,151.667 408.167,151.333 408.5,151C 405.971,148.971 403.304,147.138 400.5,145.5C 399.504,139.537 399.171,133.537 399.5,127.5C 397.5,127.5 395.5,127.5 393.5,127.5C 393.604,123.973 392.437,120.973 390,118.5C 389.667,118.833 389.333,119.167 389,119.5C 387.556,117.845 385.722,117.178 383.5,117.5C 383.643,108.999 383.643,100.666 383.5,92.5C 380.833,93.1667 378.167,93.8333 375.5,94.5C 375.5,93.5 375.5,92.5 375.5,91.5C 369.929,90.8173 364.929,92.1506 360.5,95.5C 359.808,94.9747 359.308,94.3081 359,93.5C 358.71,95.0441 358.044,96.3774 357,97.5C 355.656,94.2049 353.656,90.8716 351,87.5C 350.703,90.448 351.537,93.1146 353.5,95.5C 352.556,99.8463 350.889,103.846 348.5,107.5C 349.313,108.814 350.313,109.981 351.5,111C 347.827,111.892 347.66,113.392 351,115.5C 352.381,113.365 353.381,111.032 354,108.5C 354.718,107.549 355.551,107.383 356.5,108C 356.452,112.501 357.285,117.001 359,121.5C 360.167,122.667 361.333,123.833 362.5,125C 362.043,125.414 361.709,125.914 361.5,126.5C 363.025,126.112 364.692,126.112 366.5,126.5C 367.5,123.833 368.5,123.833 369.5,126.5C 367.816,127.854 367.316,129.521 368,131.5C 370.97,130.426 372.803,131.593 373.5,135C 371.717,136.067 371.217,137.567 372,139.5C 373.942,141.955 376.442,143.288 379.5,143.5C 379.648,149.453 381.648,154.62 385.5,159C 384.606,160.396 383.939,161.896 383.5,163.5C 386.104,167.011 386.104,170.511 383.5,174C 385.769,175.758 385.935,177.592 384,179.5C 383.501,183.486 383.334,187.486 383.5,191.5C 381.833,191.5 380.167,191.5 378.5,191.5C 378.509,193.308 378.009,194.975 377,196.5C 375.434,195.939 374.101,196.606 373,198.5C 372.502,201.482 372.335,204.482 372.5,207.5C 370.167,207.5 367.833,207.5 365.5,207.5C 365.824,211.555 365.491,215.555 364.5,219.5C 363.573,217.887 362.739,216.221 362,214.5C 361.667,206.5 361.333,198.5 361,190.5C 360.333,191.833 359.667,191.833 359,190.5C 358.212,196.22 358.379,201.886 359.5,207.5C 357.406,212.256 357.073,217.089 358.5,222C 356.304,225.801 355.304,229.967 355.5,234.5C 354.167,234.5 352.833,234.5 351.5,234.5C 349.265,234.795 347.265,234.461 345.5,233.5C 347.5,233.5 349.5,233.5 351.5,233.5C 351.5,232.5 351.5,231.5 351.5,230.5C 349.901,230.768 348.568,230.434 347.5,229.5C 349.483,229.843 350.817,229.176 351.5,227.5C 353.871,225.003 354.871,222.003 354.5,218.5C 355.309,216.708 355.809,214.708 356,212.5C 356.5,202.839 356.666,193.172 356.5,183.5C 357.75,183.423 358.583,182.756 359,181.5C 361.829,170.936 360.496,160.936 355,151.5C 344.97,134.086 331.47,120.086 314.5,109.5C 310.208,106.38 306.041,103.047 302,99.5C 294.691,86.0267 284.525,75.3601 271.5,67.5C 269.432,66.6252 267.432,65.4585 265.5,64C 256.814,63.8319 248.148,63.3319 239.5,62.5C 237.212,60.2353 234.378,59.2353 231,59.5C 227.667,59.4435 225.167,60.7769 223.5,63.5C 222.449,64.2223 221.782,65.2223 221.5,66.5C 217.519,67.6332 213.853,69.4665 210.5,72C 206.489,76.8956 202.156,81.3956 197.5,85.5C 196.167,85.5 194.833,85.5 193.5,85.5C 193.719,84.325 193.386,83.325 192.5,82.5C 191.289,83.2739 191.289,84.1072 192.5,85C 189.486,85.1276 186.486,85.1276 183.5,85C 179.96,87.3712 176.294,89.5379 172.5,91.5C 173.025,92.1924 173.692,92.6924 174.5,93C 170.603,95.908 166.936,99.0747 163.5,102.5C 162.232,104.304 161.565,106.304 161.5,108.5C 160.094,108.973 159.427,109.973 159.5,111.5C 153.836,117.476 149.669,124.476 147,132.5C 141.633,137.532 136.633,142.865 132,148.5C 130.34,153.157 128.673,157.823 127,162.5C 126.92,177.52 127.254,192.52 128,207.5C 126.643,221.706 124.477,235.706 121.5,249.5C 120.086,252.076 118.586,254.743 117,257.5C 116.147,259.125 115.147,259.458 114,258.5C 113.5,268.828 113.334,279.161 113.5,289.5C 112.781,291.764 112.448,294.097 112.5,296.5C 109.801,303.879 109.135,311.545 110.5,319.5C 111.324,321.421 112.657,322.754 114.5,323.5C 114.804,324.15 115.137,324.817 115.5,325.5C 119.476,326.386 123.476,327.052 127.5,327.5C 127.281,352.512 127.615,377.512 128.5,402.5C 128.217,428.351 128.884,454.018 130.5,479.5C 130.5,490.167 130.5,500.833 130.5,511.5C 86.8333,511.5 43.1667,511.5 -0.5,511.5C -0.5,510.167 -0.5,508.833 -0.5,507.5C 1.01088,505.524 1.84421,503.191 2,500.5C 2.33333,500.833 2.66667,501.167 3,501.5C 6.89233,499.925 11.059,498.925 15.5,498.5C 23.5,498.167 31.5,497.833 39.5,497.5C 52.855,497.945 66.1883,498.612 79.5,499.5C 79.5,501.167 79.5,502.833 79.5,504.5C 83.337,505.083 87.1703,505.75 91,506.5C 95.8099,504.732 100.143,505.399 104,508.5C 109.784,507.669 115.618,506.835 121.5,506C 123.125,505.147 123.458,504.147 122.5,503C 123.574,500.544 124.574,498.044 125.5,495.5C 126.778,478.162 126.778,460.828 125.5,443.5C 126.218,436.172 126.884,428.839 127.5,421.5C 125.759,414.364 125.093,407.03 125.5,399.5C 124.5,399.5 123.5,399.5 122.5,399.5C 122.374,389.151 121.874,378.818 121,368.5C 119.533,376.053 118.7,383.719 118.5,391.5C 119.546,400.948 120.546,410.615 121.5,420.5C 121.522,422.965 121.022,425.298 120,427.5C 119.907,424.993 119.074,422.826 117.5,421C 118.516,420.481 119.182,419.647 119.5,418.5C 118.818,414.862 118.318,411.195 118,407.5C 117.172,418.136 116.672,418.136 116.5,407.5C 117.303,387.484 116.803,367.484 115,347.5C 111.592,343.142 111.759,338.975 115.5,335C 114.213,333.59 113.046,332.09 112,330.5C 111.798,332.256 111.298,333.922 110.5,335.5C 110.167,335.167 109.833,334.833 109.5,334.5C 108.774,331.148 107.941,327.815 107,324.5C 104.567,325.118 103.067,323.952 102.5,321C 102.611,319.278 103.111,319.112 104,320.5C 104.167,318.333 104.333,316.167 104.5,314C 103.695,307.841 103.528,301.674 104,295.5C 106.898,292.692 106.898,290.025 104,287.5C 103.833,286.167 103.667,284.833 103.5,283.5C 104.695,276.605 104.695,269.772 103.5,263C 105.747,261.005 106.747,258.505 106.5,255.5C 107.978,255.762 109.311,255.429 110.5,254.5C 111.217,252.172 112.217,250.005 113.5,248C 112.917,245.085 111.25,243.085 108.5,242C 110.721,236.425 112.721,231.425 114.5,227C 113.722,221.138 112.722,215.638 111.5,210.5C 112.126,205.993 112.793,201.493 113.5,197C 113.129,190.434 112.462,185.934 111.5,183.5C 104.492,183.334 97.4921,183.5 90.5,184C 87.9607,185.805 86.9607,188.305 87.5,191.5C 82.1254,191.172 76.7921,191.505 71.5,192.5C 68.0641,196.551 63.7308,199.051 58.5,200C 52.1551,207.656 53.6551,213.489 63,217.5C 63.6667,230.167 63.6667,242.833 63,255.5C 58.1667,260.5 53.3333,265.5 48.5,270.5C 50.7427,271.474 53.076,271.808 55.5,271.5C 55.5,279.5 55.5,287.5 55.5,295.5C 54.1667,295.5 52.8333,295.5 51.5,295.5C 50.7814,298.073 49.7814,300.573 48.5,303C 49.448,303.483 50.448,303.649 51.5,303.5C 51.9452,306.365 51.2785,308.865 49.5,311C 51.3213,313.456 51.988,316.289 51.5,319.5C 54.1667,319.5 56.8333,319.5 59.5,319.5C 59.5,324.833 59.5,330.167 59.5,335.5C 60.8333,335.5 62.1667,335.5 63.5,335.5C 63.9944,339.527 62.4944,342.527 59,344.5C 58.6258,343.584 58.1258,342.75 57.5,342C 54.1832,341.502 50.8499,341.335 47.5,341.5C 47.5,342.833 47.5,344.167 47.5,345.5C 42.5637,345.059 42.2303,343.559 46.5,341C 49.3926,339.851 52.3926,339.351 55.5,339.5C 54.3645,336.511 54.1979,333.511 55,330.5C 54.6258,329.584 54.1258,328.75 53.5,328C 48.5209,327.192 45.8542,324.358 45.5,319.5C 43.3393,319.174 41.5059,318.174 40,316.5C 37.9524,318.506 38.4524,319.506 41.5,319.5C 41.719,320.675 41.3857,321.675 40.5,322.5C 36.2555,321.06 35.2555,318.727 37.5,315.5C 37.1667,314.833 36.8333,314.167 36.5,313.5C 35.8679,315.737 34.5346,317.403 32.5,318.5C 33.5964,320.513 33.2631,322.346 31.5,324C 31.7591,325.261 32.4258,326.261 33.5,327C 32.1509,327.772 31.3176,328.939 31,330.5C 30.1241,328.275 28.9574,326.275 27.5,324.5C 26.2807,325.263 25.2807,326.263 24.5,327.5C 23.5508,324.874 23.5508,322.208 24.5,319.5C 23.5,319.5 22.5,319.5 21.5,319.5C 21.7399,316.421 21.4066,313.421 20.5,310.5C 24.0102,306.138 24.3435,301.471 21.5,296.5C 19.5,295.833 17.5,295.167 15.5,294.5C 16.5821,294.251 17.9154,294.085 19.5,294C 19.9574,293.586 20.2907,293.086 20.5,292.5C 19.1936,291.088 18.3603,289.421 18,287.5C 17.7508,288.624 17.2508,289.624 16.5,290.5C 15.3526,288.235 15.1859,285.902 16,283.5C 17.1475,284.458 18.1475,284.125 19,282.5C 19.4935,284.134 19.6602,285.801 19.5,287.5C 22.5602,286.135 25.5602,285.302 28.5,285C 27.3774,283.956 26.0441,283.29 24.5,283C 26.696,279.417 27.8627,275.584 28,271.5C 27.2613,270.426 26.2613,269.759 25,269.5C 23.4029,270.885 21.5695,271.551 19.5,271.5C 19.5789,269.334 20.2455,267.334 21.5,265.5C 20.0667,263.664 19.5667,261.664 20,259.5C 21.246,260.772 22.4126,261.105 23.5,260.5C 21.6613,258.162 19.6613,255.996 17.5,254C 16.1667,252.333 16.1667,250.667 17.5,249C 16.6119,247.78 15.9452,246.447 15.5,245C 16.5938,241.98 18.0938,239.147 20,236.5C 21.2682,236.384 22.6015,236.051 24,235.5C 25.772,231.687 26.6053,227.687 26.5,223.5C 25.5,223.5 24.5,223.5 23.5,223.5C 23.2323,217.618 23.5656,211.785 24.5,206C 23.3798,202.379 21.0464,199.879 17.5,198.5C 16.5258,196.257 16.1924,193.924 16.5,191.5C 17.5,191.5 18.5,191.5 19.5,191.5C 19.1953,186.238 19.5286,181.072 20.5,176C 19.3783,173.876 17.8783,172.043 16,170.5C 15.5,140.168 15.3334,109.835 15.5,79.5C 16.8333,79.5 18.1667,79.5 19.5,79.5C 19.5,74.1667 19.5,68.8333 19.5,63.5C 18.1667,63.5 16.8333,63.5 15.5,63.5C 15.5,61.5 15.5,59.5 15.5,57.5C 20.8333,56.8333 20.8333,56.1667 15.5,55.5C 15.6941,52.6703 16.3608,50.0037 17.5,47.5C 19.1667,47.5 20.8333,47.5 22.5,47.5C 23.303,42.524 26.1364,39.1907 31,37.5C 31.3333,38.8333 31.6667,40.1667 32,41.5C 36.1796,39.9871 39.0129,37.1537 40.5,33C 38.0358,29.5179 38.7024,26.5179 42.5,24C 46.5554,21.6597 50.8887,20.993 55.5,22C 52.8333,22.3333 50.1667,22.6667 47.5,23C 52.8229,23.4994 58.1563,23.666 63.5,23.5C 63.5,22.5 63.5,21.5 63.5,20.5C 79.4913,19.8336 95.4913,19.5003 111.5,19.5C 111.5,20.8333 111.5,22.1667 111.5,23.5C 122.59,24.1297 133.423,23.4631 144,21.5C 148.864,23.1907 151.697,26.524 152.5,31.5C 160.167,31.5 167.833,31.5 175.5,31.5C 175.336,34.1873 175.503,36.854 176,39.5C 177.019,38.3128 178.186,37.3128 179.5,36.5C 180.874,37.7113 182.374,38.7113 184,39.5C 188.356,36.8222 193.023,34.8222 198,33.5C 206.651,38.4194 215.484,38.7528 224.5,34.5C 226.5,35.1667 228.5,35.8333 230.5,36.5C 231.386,37.325 231.719,38.325 231.5,39.5C 240.65,41.7868 249.983,42.1201 259.5,40.5C 267.095,43.8332 275.095,45.4999 283.5,45.5C 287.624,44.9012 291.624,43.9012 295.5,42.5C 295.238,43.9778 295.571,45.3112 296.5,46.5C 299.089,44.8427 301.756,44.5094 304.5,45.5C 305.646,44.8551 306.646,44.0217 307.5,43C 312.293,42.3471 316.959,41.1805 321.5,39.5C 323.601,40.5917 325.768,41.5917 328,42.5C 329.101,47.0547 331.434,50.7214 335,53.5C 335.49,52.2068 335.657,50.8734 335.5,49.5C 331.3,49.0857 330.467,47.0857 333,43.5C 333.49,44.7932 333.657,46.1266 333.5,47.5C 334.675,47.281 335.675,47.6143 336.5,48.5C 338.272,50.9413 339.606,53.6079 340.5,56.5C 342.672,59.1912 344.672,59.0245 346.5,56C 348.134,55.5065 349.801,55.3398 351.5,55.5C 351.5,54.1667 351.5,52.8333 351.5,51.5C 367.5,51.5 383.5,51.5 399.5,51.5C 399.5,50.1667 399.5,48.8333 399.5,47.5C 404.343,47.8835 409.009,47.2168 413.5,45.5C 416.324,46.7544 419.157,46.7544 422,45.5C 423.928,45.9335 425.761,46.6002 427.5,47.5C 429.055,47.278 430.389,46.6113 431.5,45.5C 436.638,47.3334 441.972,48.0001 447.5,47.5C 447.5,48.8333 447.5,50.1667 447.5,51.5C 451.025,51.7854 454.358,51.1187 457.5,49.5C 459.325,50.6511 461.325,51.3178 463.5,51.5C 463.238,50.0222 463.571,48.6888 464.5,47.5C 466.61,47.2936 468.61,48.1269 470.5,50C 469.272,50.779 468.272,51.779 467.5,53C 468.289,53.5464 469.289,54.2131 470.5,55C 469.552,55.4828 468.552,55.6495 467.5,55.5C 467.5,58.1667 467.5,60.8333 467.5,63.5C 472.421,63.8651 472.755,62.8651 468.5,60.5C 472.814,59.9601 476.981,58.9601 481,57.5C 482.412,58.9227 483.579,58.756 484.5,57C 482.833,56.6667 481.167,56.3333 479.5,56C 481.521,55.487 483.021,54.3203 484,52.5C 486.138,55.6561 488.471,55.9895 491,53.5C 491.167,49.8333 491.333,46.1667 491.5,42.5C 491.429,38.3125 490.762,34.3125 489.5,30.5C 489.919,29.3279 490.585,28.3279 491.5,27.5C 497.531,23.9 504.198,22.5667 511.5,23.5 Z"/></g>
<g><path style="opacity:1" fill="#834e4c" d="M 271.5,67.5 C 260.938,65.856 250.271,65.0226 239.5,65C 234.421,62.3342 229.088,61.8342 223.5,63.5C 225.167,60.7769 227.667,59.4435 231,59.5C 234.378,59.2353 237.212,60.2353 239.5,62.5C 248.148,63.3319 256.814,63.8319 265.5,64C 267.432,65.4585 269.432,66.6252 271.5,67.5 Z"/></g>
<g><path style="opacity:1" fill="#070505" d="M 271.5,67.5 C 284.525,75.3601 294.691,86.0267 302,99.5C 306.041,103.047 310.208,106.38 314.5,109.5C 314.709,110.922 315.209,112.255 316,113.5C 318.773,114.606 320.94,116.439 322.5,119C 321.264,122.76 322.097,123.26 325,120.5C 326.589,122.911 326.089,125.078 323.5,127C 325.804,126.427 327.971,125.26 330,123.5C 330.333,123.833 330.667,124.167 331,124.5C 330.689,125.935 330.855,127.268 331.5,128.5C 330.833,128.833 330.167,129.167 329.5,129.5C 331.333,131.833 333.167,134.167 335,136.5C 336.085,134.343 337.251,134.176 338.5,136C 336.777,139.408 337.777,141.741 341.5,143C 340.552,143.483 339.552,143.649 338.5,143.5C 337.974,146.354 336.974,149.021 335.5,151.5C 328.371,145.542 321.371,139.375 314.5,133C 309.698,130.36 305.032,127.527 300.5,124.5C 299.558,124.608 298.725,124.941 298,125.5C 294.644,131.664 291.144,137.664 287.5,143.5C 285.037,145.461 282.703,147.628 280.5,150C 278.593,151.122 276.593,151.955 274.5,152.5C 273.5,152.5 272.5,152.5 271.5,152.5C 270.737,151.732 269.737,151.232 268.5,151C 269.71,149.961 270.71,148.794 271.5,147.5C 275.266,142.97 278.266,137.97 280.5,132.5C 281.461,130.735 281.795,128.735 281.5,126.5C 279.585,126.216 277.919,126.549 276.5,127.5C 273.256,128.463 270.256,129.796 267.5,131.5C 262.607,132.415 257.94,133.748 253.5,135.5C 247.697,138.404 241.697,140.738 235.5,142.5C 233.167,142.5 230.833,142.5 228.5,142.5C 228.946,138.302 229.946,134.302 231.5,130.5C 227.314,131.589 223.314,133.256 219.5,135.5C 216.94,133.807 214.106,132.807 211,132.5C 205.331,132.994 199.831,133.66 194.5,134.5C 192.833,134.5 191.167,134.5 189.5,134.5C 188.325,134.719 187.325,134.386 186.5,133.5C 187.005,130.483 188.505,128.149 191,126.5C 191.494,124.866 191.66,123.199 191.5,121.5C 189.549,121.773 188.049,121.107 187,119.5C 185.703,120.784 184.536,120.617 183.5,119C 184.833,118.667 186.167,118.333 187.5,118C 185.5,117.333 183.5,117.333 181.5,118C 177.711,120.024 174.711,122.858 172.5,126.5C 170.955,127.452 169.288,127.785 167.5,127.5C 168.245,124.07 166.911,122.403 163.5,122.5C 161.796,123.068 160.296,123.068 159,122.5C 158.072,125.035 156.238,126.035 153.5,125.5C 154.5,122.833 155.5,120.167 156.5,117.5C 158.58,116.956 160.58,116.122 162.5,115C 163.337,113.989 163.67,112.822 163.5,111.5C 165.199,111.66 166.866,111.494 168.5,111C 170.026,109.113 172.026,108.113 174.5,108C 174.957,107.586 175.291,107.086 175.5,106.5C 173.955,105.548 172.288,105.215 170.5,105.5C 170.5,104.167 170.5,102.833 170.5,101.5C 174.499,100.312 178.499,98.812 182.5,97C 183.634,95.984 183.301,95.3173 181.5,95C 186.433,93.6823 191.433,92.849 196.5,92.5C 198.059,89.9038 199.726,87.2371 201.5,84.5C 204.342,83.9955 205.675,82.3289 205.5,79.5C 210.974,78.8633 214.474,75.8633 216,70.5C 217.98,69.2509 219.813,67.9176 221.5,66.5C 221.782,65.2223 222.449,64.2223 223.5,63.5C 229.088,61.8342 234.421,62.3342 239.5,65C 250.271,65.0226 260.938,65.856 271.5,67.5 Z"/></g>
<g><path style="opacity:1" fill="#824c4a" d="M 197.5,85.5 C 195.5,87.1667 193.5,88.8333 191.5,90.5C 188.159,89.9947 184.826,89.8281 181.5,90C 178.157,92.5732 175.157,95.4065 172.5,98.5C 168.177,101.158 164.511,104.491 161.5,108.5C 161.565,106.304 162.232,104.304 163.5,102.5C 166.936,99.0747 170.603,95.908 174.5,93C 173.692,92.6924 173.025,92.1924 172.5,91.5C 176.294,89.5379 179.96,87.3712 183.5,85C 186.486,85.1276 189.486,85.1276 192.5,85C 191.289,84.1072 191.289,83.2739 192.5,82.5C 193.386,83.325 193.719,84.325 193.5,85.5C 194.833,85.5 196.167,85.5 197.5,85.5 Z"/></g>
<g><path style="opacity:1" fill="#96554f" d="M 367.5,511.5 C 343.833,511.5 320.167,511.5 296.5,511.5C 296.999,506.508 297.499,501.508 298,496.5C 299.725,492.38 301.559,488.38 303.5,484.5C 307.767,482.867 311.767,480.867 315.5,478.5C 315.421,477.07 315.754,475.736 316.5,474.5C 318.145,471.22 320.479,468.553 323.5,466.5C 324.65,462.184 326.484,458.184 329,454.5C 334.888,451.221 337.054,446.221 335.5,439.5C 337.411,439.426 338.578,438.426 339,436.5C 347.054,410.728 352.221,384.395 354.5,357.5C 355.421,349.877 357.088,342.544 359.5,335.5C 361.298,332.969 362.465,329.969 363,326.5C 363.139,310.836 362.972,295.169 362.5,279.5C 362.667,266.496 362.5,253.496 362,240.5C 359.194,237.397 355.694,235.73 351.5,235.5C 351.5,235.167 351.5,234.833 351.5,234.5C 352.833,234.5 354.167,234.5 355.5,234.5C 355.304,229.967 356.304,225.801 358.5,222C 357.073,217.089 357.406,212.256 359.5,207.5C 358.379,201.886 358.212,196.22 359,190.5C 359.667,191.833 360.333,191.833 361,190.5C 361.333,198.5 361.667,206.5 362,214.5C 362.739,216.221 363.573,217.887 364.5,219.5C 365.491,215.555 365.824,211.555 365.5,207.5C 367.833,207.5 370.167,207.5 372.5,207.5C 372.335,204.482 372.502,201.482 373,198.5C 374.101,196.606 375.434,195.939 377,196.5C 378.009,194.975 378.509,193.308 378.5,191.5C 380.167,191.5 381.833,191.5 383.5,191.5C 383.334,187.486 383.501,183.486 384,179.5C 385.935,177.592 385.769,175.758 383.5,174C 386.104,170.511 386.104,167.011 383.5,163.5C 383.939,161.896 384.606,160.396 385.5,159C 381.648,154.62 379.648,149.453 379.5,143.5C 376.442,143.288 373.942,141.955 372,139.5C 371.217,137.567 371.717,136.067 373.5,135C 372.803,131.593 370.97,130.426 368,131.5C 367.316,129.521 367.816,127.854 369.5,126.5C 368.5,123.833 367.5,123.833 366.5,126.5C 364.692,126.112 363.025,126.112 361.5,126.5C 361.709,125.914 362.043,125.414 362.5,125C 361.333,123.833 360.167,122.667 359,121.5C 357.285,117.001 356.452,112.501 356.5,108C 355.551,107.383 354.718,107.549 354,108.5C 353.381,111.032 352.381,113.365 351,115.5C 347.66,113.392 347.827,111.892 351.5,111C 350.313,109.981 349.313,108.814 348.5,107.5C 350.889,103.846 352.556,99.8463 353.5,95.5C 351.537,93.1146 350.703,90.448 351,87.5C 353.656,90.8716 355.656,94.2049 357,97.5C 358.044,96.3774 358.71,95.0441 359,93.5C 359.308,94.3081 359.808,94.9747 360.5,95.5C 364.929,92.1506 369.929,90.8173 375.5,91.5C 375.5,92.5 375.5,93.5 375.5,94.5C 378.167,93.8333 380.833,93.1667 383.5,92.5C 383.643,100.666 383.643,108.999 383.5,117.5C 385.722,117.178 387.556,117.845 389,119.5C 389.333,119.167 389.667,118.833 390,118.5C 392.437,120.973 393.604,123.973 393.5,127.5C 395.5,127.5 397.5,127.5 399.5,127.5C 399.171,133.537 399.504,139.537 400.5,145.5C 403.304,147.138 405.971,148.971 408.5,151C 408.167,151.333 407.833,151.667 407.5,152C 409.875,154.176 412.208,156.343 414.5,158.5C 412.257,159.474 409.924,159.808 407.5,159.5C 407.768,165.382 407.434,171.215 406.5,177C 407.083,179.499 408.416,181.499 410.5,183C 414.953,184.109 416.62,186.942 415.5,191.5C 416.833,191.5 418.167,191.5 419.5,191.5C 419.5,196.833 419.5,202.167 419.5,207.5C 417.645,207.272 416.812,207.939 417,209.5C 421.667,214.167 426.333,218.833 431,223.5C 431.333,234.167 431.667,244.833 432,255.5C 435.812,258.982 439.312,262.815 442.5,267C 444.742,268.762 447.076,270.262 449.5,271.5C 451.693,271.136 453.527,270.136 455,268.5C 455.5,258.839 455.666,249.172 455.5,239.5C 463.5,239.5 471.5,239.5 479.5,239.5C 479.34,241.199 479.506,242.866 480,244.5C 484.774,246.749 487.274,250.416 487.5,255.5C 488.833,255.5 490.167,255.5 491.5,255.5C 491.828,260.875 491.495,266.208 490.5,271.5C 488.041,267.65 486.874,268.316 487,273.5C 485.534,271.675 483.701,271.175 481.5,272C 483.013,274.916 482.68,277.582 480.5,280C 481,280.5 481.5,281 482,281.5C 482.71,280.027 483.876,279.36 485.5,279.5C 485.986,282.755 484.986,285.422 482.5,287.5C 481.416,286.335 480.583,285.002 480,283.5C 478.807,285.605 477.14,287.272 475,288.5C 474.667,290.167 474.333,291.833 474,293.5C 471.832,296.981 469.332,300.148 466.5,303C 465.552,303.483 464.552,303.649 463.5,303.5C 463.439,305.592 462.439,307.092 460.5,308C 461.5,309 462.5,310 463.5,311C 460.368,312.799 457.868,315.299 456,318.5C 455.506,320.134 455.34,321.801 455.5,323.5C 454.178,323.33 453.011,323.663 452,324.5C 450.818,326.938 449.485,329.271 448,331.5C 447.502,334.482 447.335,337.482 447.5,340.5C 445.158,340.504 443.158,341.337 441.5,343C 442.469,349.943 443.803,356.776 445.5,363.5C 443.706,367.104 444.372,370.104 447.5,372.5C 447.392,373.442 447.059,374.275 446.5,375C 450.276,376.605 452.276,379.438 452.5,383.5C 455.684,383.833 459.018,384 462.5,384C 463.955,386.016 465.955,386.849 468.5,386.5C 468.318,388.591 468.652,390.591 469.5,392.5C 468.167,394.5 466.833,396.5 465.5,398.5C 465.709,399.086 466.043,399.586 466.5,400C 463.792,401.069 461.125,402.236 458.5,403.5C 454.868,400.214 454.868,397.047 458.5,394C 457.5,393.333 456.5,393.333 455.5,394C 448.656,399.408 445.656,406.575 446.5,415.5C 445.325,415.281 444.325,415.614 443.5,416.5C 444.628,417.262 445.795,417.929 447,418.5C 449.683,417.107 449.85,415.774 447.5,414.5C 449.167,413.167 450.833,413.167 452.5,414.5C 451.154,417.804 449.487,420.804 447.5,423.5C 446.5,423.5 445.5,423.5 444.5,423.5C 444.5,426.167 444.5,428.833 444.5,431.5C 443.167,431.5 441.833,431.5 440.5,431.5C 440.509,433.308 440.009,434.975 439,436.5C 434.69,441.89 429.523,442.89 423.5,439.5C 417.138,439.491 412.138,442.158 408.5,447.5C 407.334,459.82 407.167,472.153 408,484.5C 408.5,485.667 409.333,486.5 410.5,487C 418.934,485.034 424.101,488.534 426,497.5C 419.962,501.959 413.129,504.459 405.5,505C 392.838,505.5 380.171,505.667 367.5,505.5C 367.5,506.5 367.5,507.5 367.5,508.5C 371.182,508.335 374.848,508.501 378.5,509C 374.367,508.906 370.701,509.74 367.5,511.5 Z"/></g>
<g><path style="opacity:1" fill="#442424" d="M 191.5,90.5 C 188.023,91.3227 184.356,91.8227 180.5,92C 178.858,95.4799 176.191,97.6465 172.5,98.5C 175.157,95.4065 178.157,92.5732 181.5,90C 184.826,89.8281 188.159,89.9947 191.5,90.5 Z"/></g>
<g><path style="opacity:1" fill="#1d1010" d="M 221.5,66.5 C 219.813,67.9176 217.98,69.2509 216,70.5C 214.474,75.8633 210.974,78.8633 205.5,79.5C 205.675,82.3289 204.342,83.9955 201.5,84.5C 199.726,87.2371 198.059,89.9038 196.5,92.5C 191.433,92.849 186.433,93.6823 181.5,95C 183.301,95.3173 183.634,95.984 182.5,97C 178.499,98.812 174.499,100.312 170.5,101.5C 168.126,106.241 164.459,109.574 159.5,111.5C 159.427,109.973 160.094,108.973 161.5,108.5C 164.511,104.491 168.177,101.158 172.5,98.5C 176.191,97.6465 178.858,95.4799 180.5,92C 184.356,91.8227 188.023,91.3227 191.5,90.5C 193.5,88.8333 195.5,87.1667 197.5,85.5C 202.156,81.3956 206.489,76.8956 210.5,72C 213.853,69.4665 217.519,67.6332 221.5,66.5 Z"/></g>
<g><path style="opacity:1" fill="#51454e" d="M 276.5,127.5 C 277.919,126.549 279.585,126.216 281.5,126.5C 281.795,128.735 281.461,130.735 280.5,132.5C 280.5,130.833 280.5,129.167 280.5,127.5C 279.167,127.5 277.833,127.5 276.5,127.5 Z"/></g>
<g><path style="opacity:1" fill="#827779" d="M 267.5,131.5 C 264.912,133.625 261.912,134.958 258.5,135.5C 256.833,135.5 255.167,135.5 253.5,135.5C 257.94,133.748 262.607,132.415 267.5,131.5 Z"/></g>
<g><path style="opacity:1" fill="#c5b6b4" d="M 276.5,127.5 C 277.833,127.5 279.167,127.5 280.5,127.5C 280.5,129.167 280.5,130.833 280.5,132.5C 278.266,137.97 275.266,142.97 271.5,147.5C 271.167,147.5 270.833,147.5 270.5,147.5C 270.423,146.25 269.756,145.417 268.5,145C 270.087,144.138 271.754,143.471 273.5,143C 273.167,142.667 272.833,142.333 272.5,142C 274.25,140.246 274.917,138.079 274.5,135.5C 277.831,134.907 277.664,133.574 274,131.5C 271.156,132.926 268.322,134.426 265.5,136C 262.961,136.796 260.628,136.629 258.5,135.5C 261.912,134.958 264.912,133.625 267.5,131.5C 270.256,129.796 273.256,128.463 276.5,127.5 Z"/></g>
<g><path style="opacity:1" fill="#a99ea7" d="M 185.5,130.5 C 184.032,131.779 183.365,133.446 183.5,135.5C 179.526,134.492 175.859,135.158 172.5,137.5C 171.167,137.5 169.833,137.5 168.5,137.5C 170.964,136.433 173.297,135.1 175.5,133.5C 178.173,131.824 180.84,130.157 183.5,128.5C 184.713,128.747 185.38,129.414 185.5,130.5 Z"/></g>
<g><path style="opacity:1" fill="#b0a1a3" d="M 235.5,142.5 C 232.713,143.477 229.713,143.81 226.5,143.5C 226.5,141.167 226.5,138.833 226.5,136.5C 220.968,137.052 215.801,136.052 211,133.5C 205.55,134.43 200.05,134.763 194.5,134.5C 199.831,133.66 205.331,132.994 211,132.5C 214.106,132.807 216.94,133.807 219.5,135.5C 223.314,133.256 227.314,131.589 231.5,130.5C 229.946,134.302 228.946,138.302 228.5,142.5C 230.833,142.5 233.167,142.5 235.5,142.5 Z"/></g>
<g><path style="opacity:1" fill="#ddd0cd" d="M 270.5,147.5 C 269.18,148.942 267.514,149.608 265.5,149.5C 263.088,149.244 261.421,150.244 260.5,152.5C 265.318,153.812 269.985,153.812 274.5,152.5C 276.593,151.955 278.593,151.122 280.5,150C 282.703,147.628 285.037,145.461 287.5,143.5C 287.799,145.604 287.466,147.604 286.5,149.5C 285.914,149.291 285.414,148.957 285,148.5C 283.833,150.333 282.333,151.833 280.5,153C 273.567,154.506 266.567,154.839 259.5,154C 257.939,153.682 256.772,152.849 256,151.5C 255.667,151.833 255.333,152.167 255,152.5C 254.515,148.275 253.181,144.942 251,142.5C 240.068,146.509 229.235,146.342 218.5,142C 217.833,141.333 217.167,140.667 216.5,140C 204.143,138.74 195.143,137.24 189.5,135.5C 189.5,135.167 189.5,134.833 189.5,134.5C 191.167,134.5 192.833,134.5 194.5,134.5C 200.05,134.763 205.55,134.43 211,133.5C 215.801,136.052 220.968,137.052 226.5,136.5C 226.5,138.833 226.5,141.167 226.5,143.5C 229.713,143.81 232.713,143.477 235.5,142.5C 241.697,140.738 247.697,138.404 253.5,135.5C 255.167,135.5 256.833,135.5 258.5,135.5C 260.628,136.629 262.961,136.796 265.5,136C 268.322,134.426 271.156,132.926 274,131.5C 277.664,133.574 277.831,134.907 274.5,135.5C 274.917,138.079 274.25,140.246 272.5,142C 272.833,142.333 273.167,142.667 273.5,143C 271.754,143.471 270.087,144.138 268.5,145C 269.756,145.417 270.423,146.25 270.5,147.5 Z"/></g>
<g><path style="opacity:1" fill="#a495a0" d="M 155.5,146.5 C 152.726,149.26 150.392,152.26 148.5,155.5C 148.933,151.062 151.267,148.062 155.5,146.5 Z"/></g>
<g><path style="opacity:1" fill="#0e080a" d="M 170.5,101.5 C 170.5,102.833 170.5,104.167 170.5,105.5C 172.288,105.215 173.955,105.548 175.5,106.5C 175.291,107.086 174.957,107.586 174.5,108C 172.026,108.113 170.026,109.113 168.5,111C 166.866,111.494 165.199,111.66 163.5,111.5C 163.67,112.822 163.337,113.989 162.5,115C 160.58,116.122 158.58,116.956 156.5,117.5C 155.5,120.167 154.5,122.833 153.5,125.5C 156.238,126.035 158.072,125.035 159,122.5C 160.296,123.068 161.796,123.068 163.5,122.5C 166.911,122.403 168.245,124.07 167.5,127.5C 169.288,127.785 170.955,127.452 172.5,126.5C 174.711,122.858 177.711,120.024 181.5,118C 183.5,117.333 185.5,117.333 187.5,118C 186.167,118.333 184.833,118.667 183.5,119C 184.536,120.617 185.703,120.784 187,119.5C 188.049,121.107 189.549,121.773 191.5,121.5C 191.66,123.199 191.494,124.866 191,126.5C 188.505,128.149 187.005,130.483 186.5,133.5C 187.325,134.386 188.325,134.719 189.5,134.5C 189.5,134.833 189.5,135.167 189.5,135.5C 187.5,135.5 185.5,135.5 183.5,135.5C 183.365,133.446 184.032,131.779 185.5,130.5C 186.404,129.791 186.737,128.791 186.5,127.5C 181.362,127.001 177.696,129.001 175.5,133.5C 173.297,135.1 170.964,136.433 168.5,137.5C 162.737,138.621 158.403,141.621 155.5,146.5C 151.267,148.062 148.933,151.062 148.5,155.5C 146.787,156.635 146.12,158.302 146.5,160.5C 144.689,165.779 144.356,171.112 145.5,176.5C 146.443,189.463 146.777,202.463 146.5,215.5C 145.514,219.97 145.181,224.637 145.5,229.5C 150.833,229.5 156.167,229.5 161.5,229.5C 167.509,229.334 173.509,229.501 179.5,230C 177.108,230.572 175.108,231.738 173.5,233.5C 168.052,232.352 162.719,232.852 157.5,235C 160.414,235.133 162.747,236.3 164.5,238.5C 167.977,239.167 171.311,239.834 174.5,240.5C 170.958,240.187 167.625,240.521 164.5,241.5C 160.235,243.765 156.235,246.431 152.5,249.5C 151.692,251.423 151.192,253.423 151,255.5C 150.79,253.942 150.29,252.609 149.5,251.5C 149.672,250.508 149.338,249.842 148.5,249.5C 143.36,248.512 138.026,248.179 132.5,248.5C 132.5,253.5 132.5,258.5 132.5,263.5C 132.425,266.206 132.092,268.873 131.5,271.5C 129.77,275.883 128.77,280.55 128.5,285.5C 127.833,285.5 127.5,285.833 127.5,286.5C 126.069,287.78 125.402,289.447 125.5,291.5C 124.5,291.5 123.5,291.5 122.5,291.5C 122.737,290.209 122.404,289.209 121.5,288.5C 119.602,279.627 118.602,270.627 118.5,261.5C 119.787,257.687 120.787,253.687 121.5,249.5C 124.477,235.706 126.643,221.706 128,207.5C 127.254,192.52 126.92,177.52 127,162.5C 128.673,157.823 130.34,153.157 132,148.5C 136.633,142.865 141.633,137.532 147,132.5C 149.669,124.476 153.836,117.476 159.5,111.5C 164.459,109.574 168.126,106.241 170.5,101.5 Z"/></g>
<g><path style="opacity:1" fill="#605561" d="M 185.5,130.5 C 185.38,129.414 184.713,128.747 183.5,128.5C 180.84,130.157 178.173,131.824 175.5,133.5C 177.696,129.001 181.362,127.001 186.5,127.5C 186.737,128.791 186.404,129.791 185.5,130.5 Z"/></g>
<g><path style="opacity:1" fill="#190c0b" d="M 314.5,109.5 C 331.47,120.086 344.97,134.086 355,151.5C 360.496,160.936 361.829,170.936 359,181.5C 358.583,182.756 357.75,183.423 356.5,183.5C 355.062,176.623 352.062,170.623 347.5,165.5C 346.471,162.109 344.471,159.443 341.5,157.5C 339.833,155.167 337.833,153.167 335.5,151.5C 336.974,149.021 337.974,146.354 338.5,143.5C 339.552,143.649 340.552,143.483 341.5,143C 337.777,141.741 336.777,139.408 338.5,136C 337.251,134.176 336.085,134.343 335,136.5C 333.167,134.167 331.333,131.833 329.5,129.5C 330.167,129.167 330.833,128.833 331.5,128.5C 330.855,127.268 330.689,125.935 331,124.5C 330.667,124.167 330.333,123.833 330,123.5C 327.971,125.26 325.804,126.427 323.5,127C 326.089,125.078 326.589,122.911 325,120.5C 322.097,123.26 321.264,122.76 322.5,119C 320.94,116.439 318.773,114.606 316,113.5C 315.209,112.255 314.709,110.922 314.5,109.5 Z"/></g>
<g><path style="opacity:1" fill="#e8dad9" d="M 335.5,151.5 C 337.833,153.167 339.833,155.167 341.5,157.5C 344.893,164.26 347.893,171.26 350.5,178.5C 351.442,191.143 351.775,203.81 351.5,216.5C 349.901,216.232 348.568,216.566 347.5,217.5C 347.167,217.5 346.833,217.5 346.5,217.5C 324.527,216.056 302.527,215.39 280.5,215.5C 278.611,214.62 276.611,214.62 274.5,215.5C 274.032,219.467 275.032,222.967 277.5,226C 277.335,227.117 277.002,228.284 276.5,229.5C 277.025,230.192 277.692,230.692 278.5,231C 274.179,231.499 269.846,231.666 265.5,231.5C 258.15,229.831 250.817,228.164 243.5,226.5C 241.369,225.686 239.036,225.186 236.5,225C 239.547,224.484 241.88,222.984 243.5,220.5C 243.5,220.167 243.5,219.833 243.5,219.5C 249.063,216.658 248.729,214.658 242.5,213.5C 232.206,212.573 221.872,212.24 211.5,212.5C 216.651,211.673 221.984,211.173 227.5,211C 228.759,210.077 230.092,209.243 231.5,208.5C 220.81,207.853 210.143,207.52 199.5,207.5C 199.649,206.448 199.483,205.448 199,204.5C 195.369,206.81 191.536,207.143 187.5,205.5C 182.332,206.742 177.165,207.742 172,208.5C 171,208.167 170,207.833 169,207.5C 168.751,208.624 168.251,209.624 167.5,210.5C 167.598,209.384 167.098,208.384 166,207.5C 164.578,208.205 163.245,208.539 162,208.5C 160.601,207.773 159.101,207.273 157.5,207C 157.495,191.233 157.829,175.4 158.5,159.5C 163.157,154.673 166.824,149.173 169.5,143C 174.147,142.995 178.814,143.162 183.5,143.5C 183.528,141.418 182.861,139.584 181.5,138C 178.356,138.095 175.356,137.928 172.5,137.5C 175.859,135.158 179.526,134.492 183.5,135.5C 185.5,135.5 187.5,135.5 189.5,135.5C 195.143,137.24 204.143,138.74 216.5,140C 217.167,140.667 217.833,141.333 218.5,142C 229.235,146.342 240.068,146.509 251,142.5C 253.181,144.942 254.515,148.275 255,152.5C 255.333,152.167 255.667,151.833 256,151.5C 256.772,152.849 257.939,153.682 259.5,154C 266.567,154.839 273.567,154.506 280.5,153C 282.333,151.833 283.833,150.333 285,148.5C 285.414,148.957 285.914,149.291 286.5,149.5C 287.466,147.604 287.799,145.604 287.5,143.5C 291.144,137.664 294.644,131.664 298,125.5C 298.725,124.941 299.558,124.608 300.5,124.5C 305.032,127.527 309.698,130.36 314.5,133C 321.371,139.375 328.371,145.542 335.5,151.5 Z"/></g>
<g><path style="opacity:1" fill="#827482" d="M 265.5,149.5 C 264.571,150.315 263.571,151.148 262.5,152C 265.482,152.498 268.482,152.665 271.5,152.5C 272.5,152.5 273.5,152.5 274.5,152.5C 269.985,153.812 265.318,153.812 260.5,152.5C 261.421,150.244 263.088,149.244 265.5,149.5 Z"/></g>
<g><path style="opacity:1" fill="#3e3043" d="M 270.5,147.5 C 270.833,147.5 271.167,147.5 271.5,147.5C 270.71,148.794 269.71,149.961 268.5,151C 269.737,151.232 270.737,151.732 271.5,152.5C 268.482,152.665 265.482,152.498 262.5,152C 263.571,151.148 264.571,150.315 265.5,149.5C 267.514,149.608 269.18,148.942 270.5,147.5 Z"/></g>
<g><path style="opacity:1" fill="#e3d7d3" d="M 168.5,137.5 C 169.833,137.5 171.167,137.5 172.5,137.5C 175.356,137.928 178.356,138.095 181.5,138C 182.861,139.584 183.528,141.418 183.5,143.5C 178.814,143.162 174.147,142.995 169.5,143C 166.824,149.173 163.157,154.673 158.5,159.5C 157.829,175.4 157.495,191.233 157.5,207C 159.101,207.273 160.601,207.773 162,208.5C 163.245,208.539 164.578,208.205 166,207.5C 167.098,208.384 167.598,209.384 167.5,210.5C 168.251,209.624 168.751,208.624 169,207.5C 170,207.833 171,208.167 172,208.5C 177.165,207.742 182.332,206.742 187.5,205.5C 191.536,207.143 195.369,206.81 199,204.5C 199.483,205.448 199.649,206.448 199.5,207.5C 210.143,207.52 220.81,207.853 231.5,208.5C 230.092,209.243 228.759,210.077 227.5,211C 221.984,211.173 216.651,211.673 211.5,212.5C 197.163,212.333 182.829,212.5 168.5,213C 163.648,213.713 158.981,215.046 154.5,217C 152.845,218.444 152.178,220.278 152.5,222.5C 173.534,222.244 194.534,222.911 215.5,224.5C 215.167,225.167 214.833,225.833 214.5,226.5C 211.5,226.5 208.5,226.5 205.5,226.5C 190.873,227.943 176.206,228.609 161.5,228.5C 156.5,228.5 151.5,228.5 146.5,228.5C 146.5,224.167 146.5,219.833 146.5,215.5C 146.777,202.463 146.443,189.463 145.5,176.5C 145.833,171.167 146.167,165.833 146.5,160.5C 146.12,158.302 146.787,156.635 148.5,155.5C 150.392,152.26 152.726,149.26 155.5,146.5C 158.403,141.621 162.737,138.621 168.5,137.5 Z"/></g>
<g><path style="opacity:1" fill="#96554f" d="M -0.5,-0.5 C 170.167,-0.5 340.833,-0.5 511.5,-0.5C 511.5,7.5 511.5,15.5 511.5,23.5C 504.198,22.5667 497.531,23.9 491.5,27.5C 490.585,28.3279 489.919,29.3279 489.5,30.5C 490.762,34.3125 491.429,38.3125 491.5,42.5C 491.333,46.1667 491.167,49.8333 491,53.5C 488.471,55.9895 486.138,55.6561 484,52.5C 483.021,54.3203 481.521,55.487 479.5,56C 481.167,56.3333 482.833,56.6667 484.5,57C 483.579,58.756 482.412,58.9227 481,57.5C 476.981,58.9601 472.814,59.9601 468.5,60.5C 472.755,62.8651 472.421,63.8651 467.5,63.5C 467.5,60.8333 467.5,58.1667 467.5,55.5C 468.552,55.6495 469.552,55.4828 470.5,55C 469.289,54.2131 468.289,53.5464 467.5,53C 468.272,51.779 469.272,50.779 470.5,50C 468.61,48.1269 466.61,47.2936 464.5,47.5C 463.571,48.6888 463.238,50.0222 463.5,51.5C 461.325,51.3178 459.325,50.6511 457.5,49.5C 454.358,51.1187 451.025,51.7854 447.5,51.5C 447.5,50.1667 447.5,48.8333 447.5,47.5C 441.972,48.0001 436.638,47.3334 431.5,45.5C 430.389,46.6113 429.055,47.278 427.5,47.5C 425.761,46.6002 423.928,45.9335 422,45.5C 419.157,46.7544 416.324,46.7544 413.5,45.5C 409.009,47.2168 404.343,47.8835 399.5,47.5C 399.5,48.8333 399.5,50.1667 399.5,51.5C 383.5,51.5 367.5,51.5 351.5,51.5C 351.5,52.8333 351.5,54.1667 351.5,55.5C 349.801,55.3398 348.134,55.5065 346.5,56C 344.672,59.0245 342.672,59.1912 340.5,56.5C 339.606,53.6079 338.272,50.9413 336.5,48.5C 335.675,47.6143 334.675,47.281 333.5,47.5C 333.657,46.1266 333.49,44.7932 333,43.5C 330.467,47.0857 331.3,49.0857 335.5,49.5C 335.657,50.8734 335.49,52.2068 335,53.5C 331.434,50.7214 329.101,47.0547 328,42.5C 325.768,41.5917 323.601,40.5917 321.5,39.5C 316.959,41.1805 312.293,42.3471 307.5,43C 306.646,44.0217 305.646,44.8551 304.5,45.5C 301.756,44.5094 299.089,44.8427 296.5,46.5C 295.571,45.3112 295.238,43.9778 295.5,42.5C 291.624,43.9012 287.624,44.9012 283.5,45.5C 275.095,45.4999 267.095,43.8332 259.5,40.5C 249.983,42.1201 240.65,41.7868 231.5,39.5C 231.719,38.325 231.386,37.325 230.5,36.5C 228.5,35.8333 226.5,35.1667 224.5,34.5C 215.484,38.7528 206.651,38.4194 198,33.5C 193.023,34.8222 188.356,36.8222 184,39.5C 182.374,38.7113 180.874,37.7113 179.5,36.5C 178.186,37.3128 177.019,38.3128 176,39.5C 175.503,36.854 175.336,34.1873 175.5,31.5C 167.833,31.5 160.167,31.5 152.5,31.5C 151.697,26.524 148.864,23.1907 144,21.5C 133.423,23.4631 122.59,24.1297 111.5,23.5C 111.5,22.1667 111.5,20.8333 111.5,19.5C 95.4913,19.5003 79.4913,19.8336 63.5,20.5C 63.5,21.5 63.5,22.5 63.5,23.5C 58.1563,23.666 52.8229,23.4994 47.5,23C 50.1667,22.6667 52.8333,22.3333 55.5,22C 50.8887,20.993 46.5554,21.6597 42.5,24C 38.7024,26.5179 38.0358,29.5179 40.5,33C 39.0129,37.1537 36.1796,39.9871 32,41.5C 31.6667,40.1667 31.3333,38.8333 31,37.5C 26.1364,39.1907 23.303,42.524 22.5,47.5C 20.8333,47.5 19.1667,47.5 17.5,47.5C 16.3608,50.0037 15.6941,52.6703 15.5,55.5C 20.8333,56.1667 20.8333,56.8333 15.5,57.5C 15.5,59.5 15.5,61.5 15.5,63.5C 16.8333,63.5 18.1667,63.5 19.5,63.5C 19.5,68.8333 19.5,74.1667 19.5,79.5C 18.1667,79.5 16.8333,79.5 15.5,79.5C 15.3334,109.835 15.5,140.168 16,170.5C 17.8783,172.043 19.3783,173.876 20.5,176C 19.5286,181.072 19.1953,186.238 19.5,191.5C 18.5,191.5 17.5,191.5 16.5,191.5C 16.1924,193.924 16.5258,196.257 17.5,198.5C 21.0464,199.879 23.3798,202.379 24.5,206C 23.5656,211.785 23.2323,217.618 23.5,223.5C 24.5,223.5 25.5,223.5 26.5,223.5C 26.6053,227.687 25.772,231.687 24,235.5C 22.6015,236.051 21.2682,236.384 20,236.5C 18.0938,239.147 16.5938,241.98 15.5,245C 15.9452,246.447 16.6119,247.78 17.5,249C 16.1667,250.667 16.1667,252.333 17.5,254C 19.6613,255.996 21.6613,258.162 23.5,260.5C 22.4126,261.105 21.246,260.772 20,259.5C 19.5667,261.664 20.0667,263.664 21.5,265.5C 20.2455,267.334 19.5789,269.334 19.5,271.5C 21.5695,271.551 23.4029,270.885 25,269.5C 26.2613,269.759 27.2613,270.426 28,271.5C 27.8627,275.584 26.696,279.417 24.5,283C 26.0441,283.29 27.3774,283.956 28.5,285C 25.5602,285.302 22.5602,286.135 19.5,287.5C 19.6602,285.801 19.4935,284.134 19,282.5C 18.1475,284.125 17.1475,284.458 16,283.5C 15.1859,285.902 15.3526,288.235 16.5,290.5C 17.2508,289.624 17.7508,288.624 18,287.5C 18.3603,289.421 19.1936,291.088 20.5,292.5C 20.2907,293.086 19.9574,293.586 19.5,294C 17.9154,294.085 16.5821,294.251 15.5,294.5C 17.5,295.167 19.5,295.833 21.5,296.5C 24.3435,301.471 24.0102,306.138 20.5,310.5C 21.4066,313.421 21.7399,316.421 21.5,319.5C 22.5,319.5 23.5,319.5 24.5,319.5C 23.5508,322.208 23.5508,324.874 24.5,327.5C 25.2807,326.263 26.2807,325.263 27.5,324.5C 28.9574,326.275 30.1241,328.275 31,330.5C 31.3176,328.939 32.1509,327.772 33.5,327C 32.4258,326.261 31.7591,325.261 31.5,324C 33.2631,322.346 33.5964,320.513 32.5,318.5C 34.5346,317.403 35.8679,315.737 36.5,313.5C 36.8333,314.167 37.1667,314.833 37.5,315.5C 35.2555,318.727 36.2555,321.06 40.5,322.5C 41.3857,321.675 41.719,320.675 41.5,319.5C 38.4524,319.506 37.9524,318.506 40,316.5C 41.5059,318.174 43.3393,319.174 45.5,319.5C 45.8542,324.358 48.5209,327.192 53.5,328C 54.1258,328.75 54.6258,329.584 55,330.5C 54.1979,333.511 54.3645,336.511 55.5,339.5C 52.3926,339.351 49.3926,339.851 46.5,341C 42.2303,343.559 42.5637,345.059 47.5,345.5C 47.5,344.167 47.5,342.833 47.5,341.5C 50.8499,341.335 54.1832,341.502 57.5,342C 58.1258,342.75 58.6258,343.584 59,344.5C 62.4944,342.527 63.9944,339.527 63.5,335.5C 62.1667,335.5 60.8333,335.5 59.5,335.5C 59.5,330.167 59.5,324.833 59.5,319.5C 56.8333,319.5 54.1667,319.5 51.5,319.5C 51.988,316.289 51.3213,313.456 49.5,311C 51.2785,308.865 51.9452,306.365 51.5,303.5C 50.448,303.649 49.448,303.483 48.5,303C 49.7814,300.573 50.7814,298.073 51.5,295.5C 52.8333,295.5 54.1667,295.5 55.5,295.5C 55.5,287.5 55.5,279.5 55.5,271.5C 53.076,271.808 50.7427,271.474 48.5,270.5C 53.3333,265.5 58.1667,260.5 63,255.5C 63.6667,242.833 63.6667,230.167 63,217.5C 53.6551,213.489 52.1551,207.656 58.5,200C 63.7308,199.051 68.0641,196.551 71.5,192.5C 76.7921,191.505 82.1254,191.172 87.5,191.5C 86.9607,188.305 87.9607,185.805 90.5,184C 97.4921,183.5 104.492,183.334 111.5,183.5C 112.462,185.934 113.129,190.434 113.5,197C 112.793,201.493 112.126,205.993 111.5,210.5C 112.722,215.638 113.722,221.138 114.5,227C 112.721,231.425 110.721,236.425 108.5,242C 111.25,243.085 112.917,245.085 113.5,248C 112.217,250.005 111.217,252.172 110.5,254.5C 109.311,255.429 107.978,255.762 106.5,255.5C 106.747,258.505 105.747,261.005 103.5,263C 104.695,269.772 104.695,276.605 103.5,283.5C 103.667,284.833 103.833,286.167 104,287.5C 106.898,290.025 106.898,292.692 104,295.5C 103.528,301.674 103.695,307.841 104.5,314C 104.333,316.167 104.167,318.333 104,320.5C 103.111,319.112 102.611,319.278 102.5,321C 103.067,323.952 104.567,325.118 107,324.5C 107.941,327.815 108.774,331.148 109.5,334.5C 109.833,334.833 110.167,335.167 110.5,335.5C 111.298,333.922 111.798,332.256 112,330.5C 113.046,332.09 114.213,333.59 115.5,335C 111.759,338.975 111.592,343.142 115,347.5C 116.803,367.484 117.303,387.484 116.5,407.5C 116.672,418.136 117.172,418.136 118,407.5C 118.318,411.195 118.818,414.862 119.5,418.5C 119.182,419.647 118.516,420.481 117.5,421C 119.074,422.826 119.907,424.993 120,427.5C 121.022,425.298 121.522,422.965 121.5,420.5C 120.546,410.615 119.546,400.948 118.5,391.5C 118.7,383.719 119.533,376.053 121,368.5C 121.874,378.818 122.374,389.151 122.5,399.5C 123.5,399.5 124.5,399.5 125.5,399.5C 125.093,407.03 125.759,414.364 127.5,421.5C 126.884,428.839 126.218,436.172 125.5,443.5C 126.778,460.828 126.778,478.162 125.5,495.5C 124.574,498.044 123.574,500.544 122.5,503C 123.458,504.147 123.125,505.147 121.5,506C 115.618,506.835 109.784,507.669 104,508.5C 100.143,505.399 95.8099,504.732 91,506.5C 87.1703,505.75 83.337,505.083 79.5,504.5C 79.5,502.833 79.5,501.167 79.5,499.5C 66.1883,498.612 52.855,497.945 39.5,497.5C 31.5,497.833 23.5,498.167 15.5,498.5C 11.059,498.925 6.89233,499.925 3,501.5C 2.66667,501.167 2.33333,500.833 2,500.5C 1.84421,503.191 1.01088,505.524 -0.5,507.5C -0.5,338.167 -0.5,168.833 -0.5,-0.5 Z"/></g>
<g><path style="opacity:1" fill="#b9a8ae" d="M 146.5,160.5 C 146.167,165.833 145.833,171.167 145.5,176.5C 144.356,171.112 144.689,165.779 146.5,160.5 Z"/></g>
<g><path style="opacity:1" fill="#c8a7a2" d="M 341.5,157.5 C 344.471,159.443 346.471,162.109 347.5,165.5C 349.449,170.609 351.616,175.609 354,180.5C 354.5,192.829 354.667,205.162 354.5,217.5C 353.167,217.5 351.833,217.5 350.5,217.5C 349.5,217.5 348.5,217.5 347.5,217.5C 348.568,216.566 349.901,216.232 351.5,216.5C 351.775,203.81 351.442,191.143 350.5,178.5C 347.893,171.26 344.893,164.26 341.5,157.5 Z"/></g>
<g><path style="opacity:1" fill="#af8680" d="M 347.5,165.5 C 352.062,170.623 355.062,176.623 356.5,183.5C 356.666,193.172 356.5,202.839 356,212.5C 355.809,214.708 355.309,216.708 354.5,218.5C 352.901,218.768 351.568,218.434 350.5,217.5C 351.833,217.5 353.167,217.5 354.5,217.5C 354.667,205.162 354.5,192.829 354,180.5C 351.616,175.609 349.449,170.609 347.5,165.5 Z"/></g>
<g><path style="opacity:1" fill="#140e0f" d="M 211.5,212.5 C 221.872,212.24 232.206,212.573 242.5,213.5C 243.341,215.379 243.675,217.379 243.5,219.5C 243.5,219.833 243.5,220.167 243.5,220.5C 240.933,221.75 238.267,222.917 235.5,224C 228.842,224.5 222.175,224.666 215.5,224.5C 194.534,222.911 173.534,222.244 152.5,222.5C 152.178,220.278 152.845,218.444 154.5,217C 158.981,215.046 163.648,213.713 168.5,213C 182.829,212.5 197.163,212.333 211.5,212.5 Z"/></g>
<g><path style="opacity:1" fill="#3d213b" d="M 242.5,213.5 C 248.729,214.658 249.063,216.658 243.5,219.5C 243.675,217.379 243.341,215.379 242.5,213.5 Z"/></g>
<g><path style="opacity:1" fill="#9a8e8d" d="M 280.5,215.5 C 302.527,215.39 324.527,216.056 346.5,217.5C 346.5,217.833 346.5,218.167 346.5,218.5C 330.483,218.202 314.483,217.535 298.5,216.5C 291.474,216.579 284.474,216.912 277.5,217.5C 278.5,216.833 279.5,216.167 280.5,215.5 Z"/></g>
<g><path style="opacity:1" fill="#110909" d="M 346.5,218.5 C 347.5,218.5 348.5,218.5 349.5,218.5C 349.5,221.5 349.5,224.5 349.5,227.5C 332.039,228.14 314.705,228.807 297.5,229.5C 297.167,229.5 296.833,229.5 296.5,229.5C 294.173,229.247 292.173,229.914 290.5,231.5C 291.689,232.429 293.022,232.762 294.5,232.5C 295.5,232.5 296.5,232.5 297.5,232.5C 299.948,233.473 302.615,233.806 305.5,233.5C 298.888,234.995 292.221,235.495 285.5,235C 286.696,234.346 286.696,233.846 285.5,233.5C 282.76,235.375 279.927,236.042 277,235.5C 276.691,236.766 276.191,237.933 275.5,239C 277.631,239.543 279.631,240.376 281.5,241.5C 281.376,242.107 281.043,242.44 280.5,242.5C 278.621,243.341 276.621,243.675 274.5,243.5C 267.978,243.177 261.645,243.51 255.5,244.5C 254.603,245.598 253.77,245.598 253,244.5C 252.502,247.817 252.335,251.15 252.5,254.5C 249.152,249.103 250.152,244.603 255.5,241C 252.851,238.563 253.517,237.23 257.5,237C 256.027,236.29 255.36,235.124 255.5,233.5C 251.402,233.082 247.402,232.249 243.5,231C 247.245,231.035 247.912,230.035 245.5,228C 230.706,227.511 216.039,228.011 201.5,229.5C 200.5,229 199.5,228.5 198.5,228C 201.036,227.814 203.369,227.314 205.5,226.5C 208.5,226.5 211.5,226.5 214.5,226.5C 224.162,225.255 233.828,225.255 243.5,226.5C 250.817,228.164 258.15,229.831 265.5,231.5C 270.37,232.804 275.37,232.804 280.5,231.5C 281.631,229.926 281.798,228.259 281,226.5C 277.896,224.008 276.729,221.008 277.5,217.5C 284.474,216.912 291.474,216.579 298.5,216.5C 314.483,217.535 330.483,218.202 346.5,218.5 Z"/></g>
<g><path style="opacity:1" fill="#463030" d="M 346.5,218.5 C 346.5,218.167 346.5,217.833 346.5,217.5C 346.833,217.5 347.167,217.5 347.5,217.5C 348.5,217.5 349.5,217.5 350.5,217.5C 351.568,218.434 352.901,218.768 354.5,218.5C 354.871,222.003 353.871,225.003 351.5,227.5C 350.833,227.5 350.167,227.5 349.5,227.5C 349.5,224.5 349.5,221.5 349.5,218.5C 348.5,218.5 347.5,218.5 346.5,218.5 Z"/></g>
<g><path style="opacity:1" fill="#7c6a6f" d="M 243.5,220.5 C 241.88,222.984 239.547,224.484 236.5,225C 239.036,225.186 241.369,225.686 243.5,226.5C 233.828,225.255 224.162,225.255 214.5,226.5C 214.833,225.833 215.167,225.167 215.5,224.5C 222.175,224.666 228.842,224.5 235.5,224C 238.267,222.917 240.933,221.75 243.5,220.5 Z"/></g>
<g><path style="opacity:1" fill="#a69898" d="M 146.5,215.5 C 146.5,219.833 146.5,224.167 146.5,228.5C 151.5,228.5 156.5,228.5 161.5,228.5C 161.5,228.833 161.5,229.167 161.5,229.5C 156.167,229.5 150.833,229.5 145.5,229.5C 145.181,224.637 145.514,219.97 146.5,215.5 Z"/></g>
<g><path style="opacity:1" fill="#ccbec0" d="M 280.5,215.5 C 279.5,216.167 278.5,216.833 277.5,217.5C 276.729,221.008 277.896,224.008 281,226.5C 281.798,228.259 281.631,229.926 280.5,231.5C 275.37,232.804 270.37,232.804 265.5,231.5C 269.846,231.666 274.179,231.499 278.5,231C 277.692,230.692 277.025,230.192 276.5,229.5C 277.002,228.284 277.335,227.117 277.5,226C 275.032,222.967 274.032,219.467 274.5,215.5C 276.611,214.62 278.611,214.62 280.5,215.5 Z"/></g>
<g><path style="opacity:1" fill="#857170" d="M 349.5,227.5 C 350.167,227.5 350.833,227.5 351.5,227.5C 350.817,229.176 349.483,229.843 347.5,229.5C 346.167,229.5 344.833,229.5 343.5,229.5C 328.167,229.5 312.833,229.5 297.5,229.5C 314.705,228.807 332.039,228.14 349.5,227.5 Z"/></g>
<g><path style="opacity:1" fill="#e6d5c9" d="M 296.5,229.5 C 296.833,229.5 297.167,229.5 297.5,229.5C 312.833,229.5 328.167,229.5 343.5,229.5C 343.423,230.75 342.756,231.583 341.5,232C 326.837,232.5 312.17,232.667 297.5,232.5C 296.5,232.5 295.5,232.5 294.5,232.5C 294.782,231.222 295.449,230.222 296.5,229.5 Z"/></g>
<g><path style="opacity:1" fill="#827576" d="M 296.5,229.5 C 295.449,230.222 294.782,231.222 294.5,232.5C 293.022,232.762 291.689,232.429 290.5,231.5C 292.173,229.914 294.173,229.247 296.5,229.5 Z"/></g>
<g><path style="opacity:1" fill="#ba9e92" d="M 343.5,229.5 C 344.833,229.5 346.167,229.5 347.5,229.5C 348.568,230.434 349.901,230.768 351.5,230.5C 351.5,231.5 351.5,232.5 351.5,233.5C 349.5,233.5 347.5,233.5 345.5,233.5C 332.167,233.5 318.833,233.5 305.5,233.5C 302.615,233.806 299.948,233.473 297.5,232.5C 312.17,232.667 326.837,232.5 341.5,232C 342.756,231.583 343.423,230.75 343.5,229.5 Z"/></g>
<g><path style="opacity:1" fill="#140e03" d="M 305.5,233.5 C 318.833,233.5 332.167,233.5 345.5,233.5C 347.265,234.461 349.265,234.795 351.5,234.5C 351.5,234.833 351.5,235.167 351.5,235.5C 353.184,237 354.851,238.667 356.5,240.5C 355.938,244.413 354.438,245.079 352,242.5C 349.441,244.853 347.274,244.687 345.5,242C 336.798,241.256 328.132,241.422 319.5,242.5C 319.5,243.833 319.5,245.167 319.5,246.5C 316.421,246.196 313.587,245.196 311,243.5C 306.729,245.496 302.229,245.996 297.5,245C 296.953,244.075 296.287,243.242 295.5,242.5C 294.088,243.806 292.421,244.64 290.5,245C 289.874,245.75 289.374,246.584 289,247.5C 285.963,246.291 282.796,245.457 279.5,245C 280.252,244.329 280.586,243.496 280.5,242.5C 281.043,242.44 281.376,242.107 281.5,241.5C 279.631,240.376 277.631,239.543 275.5,239C 276.191,237.933 276.691,236.766 277,235.5C 279.927,236.042 282.76,235.375 285.5,233.5C 286.696,233.846 286.696,234.346 285.5,235C 292.221,235.495 298.888,234.995 305.5,233.5 Z"/></g>
<g><path style="opacity:1" fill="#140f07" d="M 205.5,226.5 C 203.369,227.314 201.036,227.814 198.5,228C 199.5,228.5 200.5,229 201.5,229.5C 216.039,228.011 230.706,227.511 245.5,228C 247.912,230.035 247.245,231.035 243.5,231C 247.402,232.249 251.402,233.082 255.5,233.5C 255.36,235.124 256.027,236.29 257.5,237C 253.517,237.23 252.851,238.563 255.5,241C 250.152,244.603 249.152,249.103 252.5,254.5C 252.689,260.282 252.022,265.948 250.5,271.5C 249.5,271.5 248.5,271.5 247.5,271.5C 247.714,273.144 247.38,274.644 246.5,276C 244.19,276.497 241.857,276.663 239.5,276.5C 239.5,275.167 239.5,273.833 239.5,272.5C 239.5,271.5 239.5,270.5 239.5,269.5C 241.646,259.689 241.979,249.689 240.5,239.5C 238.5,239.5 236.5,239.5 234.5,239.5C 234.167,239.5 233.833,239.5 233.5,239.5C 232.737,238.732 231.737,238.232 230.5,238C 217.451,237.299 204.451,237.799 191.5,239.5C 191.663,241.857 191.497,244.19 191,246.5C 190.261,243.427 188.428,241.26 185.5,240C 181.745,239.245 178.078,239.411 174.5,240.5C 171.311,239.834 167.977,239.167 164.5,238.5C 162.747,236.3 160.414,235.133 157.5,235C 162.719,232.852 168.052,232.352 173.5,233.5C 175.108,231.738 177.108,230.572 179.5,230C 173.509,229.501 167.509,229.334 161.5,229.5C 161.5,229.167 161.5,228.833 161.5,228.5C 176.206,228.609 190.873,227.943 205.5,226.5 Z"/></g>
<g><path style="opacity:1" fill="#f0e0cc" d="M 206.5,240.5 C 207.167,240.5 207.833,240.5 208.5,240.5C 216.528,240.169 224.528,240.502 232.5,241.5C 234.193,243.027 236.027,244.36 238,245.5C 238.422,247.355 238.922,249.189 239.5,251C 237.203,255.168 235.203,259.502 233.5,264C 234.119,266.544 233.619,269.044 232,271.5C 229.2,272.125 226.366,272.792 223.5,273.5C 235.429,275.142 235.429,276.142 223.5,276.5C 220.833,276.5 218.167,276.5 215.5,276.5C 209.034,275.122 202.368,274.122 195.5,273.5C 195.977,272.522 196.643,271.689 197.5,271C 190.576,267.744 183.576,264.577 176.5,261.5C 175.833,262.167 175.167,262.833 174.5,263.5C 173.281,259.395 171.781,255.395 170,251.5C 166.622,249.254 165.789,246.254 167.5,242.5C 168.328,243.415 169.328,244.081 170.5,244.5C 171.863,243.802 173.029,243.802 174,244.5C 174.333,243.833 174.667,243.167 175,242.5C 176.419,243.46 177.919,244.293 179.5,245C 180.127,252.288 184.127,255.622 191.5,255C 194.391,258.336 198.057,259.336 202.5,258C 203.056,257.617 203.389,257.117 203.5,256.5C 203.5,255.833 203.5,255.167 203.5,254.5C 205.218,250.2 206.218,245.533 206.5,240.5 Z"/></g>
<g><path style="opacity:1" fill="#3b2724" d="M 234.5,239.5 C 236.5,239.5 238.5,239.5 240.5,239.5C 241.979,249.689 241.646,259.689 239.5,269.5C 240.205,262.173 240.372,254.84 240,247.5C 238.883,244.241 237.05,241.574 234.5,239.5 Z"/></g>
<g><path style="opacity:1" fill="#1f110d" d="M 233.5,239.5 C 224.983,239.174 216.65,239.507 208.5,240.5C 207.833,240.5 207.167,240.5 206.5,240.5C 205.504,240.414 204.671,240.748 204,241.5C 204.091,245.898 203.924,250.231 203.5,254.5C 199.944,255.985 196.611,255.652 193.5,253.5C 191.847,253.34 190.514,252.674 189.5,251.5C 187.909,250.781 186.409,249.781 185,248.5C 185.862,242.528 183.362,240.195 177.5,241.5C 173.167,241.5 168.833,241.5 164.5,241.5C 167.625,240.521 170.958,240.187 174.5,240.5C 178.078,239.411 181.745,239.245 185.5,240C 188.428,241.26 190.261,243.427 191,246.5C 191.497,244.19 191.663,241.857 191.5,239.5C 204.451,237.799 217.451,237.299 230.5,238C 231.737,238.232 232.737,238.732 233.5,239.5 Z"/></g>
<g><path style="opacity:1" fill="#24140f" d="M 351.5,235.5 C 355.694,235.73 359.194,237.397 362,240.5C 362.5,253.496 362.667,266.496 362.5,279.5C 361.833,281.167 361.167,282.833 360.5,284.5C 360.666,278.491 360.499,272.491 360,266.5C 358.644,265.62 357.144,265.286 355.5,265.5C 355.66,263.801 355.494,262.134 355,260.5C 354.517,261.448 354.351,262.448 354.5,263.5C 353.596,262.791 353.263,261.791 353.5,260.5C 353.249,255.493 352.916,250.493 352.5,245.5C 351.167,245.5 349.833,245.5 348.5,245.5C 347.833,245.5 347.167,245.5 346.5,245.5C 339.833,245.5 333.167,245.5 326.5,245.5C 325.005,245.415 324.005,246.081 323.5,247.5C 324.348,249.409 324.682,251.409 324.5,253.5C 323.833,254.167 323.167,254.833 322.5,255.5C 315.886,258.023 311.553,256.023 309.5,249.5C 304.325,247.915 298.991,247.248 293.5,247.5C 293.505,251.534 293.838,255.534 294.5,259.5C 291.792,255.805 288.958,252.805 286,250.5C 283.575,251.261 282.242,252.928 282,255.5C 281.667,254.167 281.333,252.833 281,251.5C 280.502,254.482 280.335,257.482 280.5,260.5C 278.822,255.432 278.156,250.098 278.5,244.5C 276.901,244.768 275.568,244.434 274.5,243.5C 276.621,243.675 278.621,243.341 280.5,242.5C 280.586,243.496 280.252,244.329 279.5,245C 282.796,245.457 285.963,246.291 289,247.5C 289.374,246.584 289.874,245.75 290.5,245C 292.421,244.64 294.088,243.806 295.5,242.5C 296.287,243.242 296.953,244.075 297.5,245C 302.229,245.996 306.729,245.496 311,243.5C 313.587,245.196 316.421,246.196 319.5,246.5C 319.5,245.167 319.5,243.833 319.5,242.5C 328.132,241.422 336.798,241.256 345.5,242C 347.274,244.687 349.441,244.853 352,242.5C 354.438,245.079 355.938,244.413 356.5,240.5C 354.851,238.667 353.184,237 351.5,235.5 Z"/></g>
<g><path style="opacity:1" fill="#281916" d="M 164.5,241.5 C 164.802,244.059 164.468,246.393 163.5,248.5C 163.587,245.402 163.087,245.068 162,247.5C 160.921,250.063 160.421,252.729 160.5,255.5C 158.174,256.953 155.674,258.286 153,259.5C 151.748,262.014 151.248,264.68 151.5,267.5C 149.922,262.417 149.255,257.084 149.5,251.5C 150.29,252.609 150.79,253.942 151,255.5C 151.192,253.423 151.692,251.423 152.5,249.5C 156.235,246.431 160.235,243.765 164.5,241.5 Z"/></g>
<g><path style="opacity:1" fill="#896d6f" d="M 206.5,240.5 C 206.218,245.533 205.218,250.2 203.5,254.5C 203.924,250.231 204.091,245.898 204,241.5C 204.671,240.748 205.504,240.414 206.5,240.5 Z"/></g>
<g><path style="opacity:1" fill="#eedfcc" d="M 326.5,245.5 C 333.167,245.5 339.833,245.5 346.5,245.5C 346.335,248.85 346.502,252.183 347,255.5C 348.55,261.596 350.383,267.596 352.5,273.5C 352.32,274.554 351.987,275.554 351.5,276.5C 335.514,277.499 319.514,277.833 303.5,277.5C 298.362,274.403 295.862,269.736 296,263.5C 295.501,258.511 295.334,253.511 295.5,248.5C 297.857,248.337 300.19,248.503 302.5,249C 302.167,249.333 301.833,249.667 301.5,250C 302.766,250.309 303.933,250.809 305,251.5C 305.333,251.167 305.667,250.833 306,250.5C 306.667,252.167 306.667,253.833 306,255.5C 303.63,257.849 303.13,260.515 304.5,263.5C 311.174,261.585 318.174,259.752 325.5,258C 325.043,257.586 324.709,257.086 324.5,256.5C 327.55,254.769 327.883,252.436 325.5,249.5C 325.433,248.041 325.766,246.708 326.5,245.5 Z"/></g>
<g><path style="opacity:1" fill="#876b6f" d="M 177.5,241.5 C 183.362,240.195 185.862,242.528 185,248.5C 186.409,249.781 187.909,250.781 189.5,251.5C 184.382,252.053 181.716,249.719 181.5,244.5C 180.099,243.479 178.765,242.479 177.5,241.5 Z"/></g>
<g><path style="opacity:1" fill="#8a7170" d="M 326.5,245.5 C 325.766,246.708 325.433,248.041 325.5,249.5C 325.768,251.099 325.434,252.432 324.5,253.5C 324.682,251.409 324.348,249.409 323.5,247.5C 324.005,246.081 325.005,245.415 326.5,245.5 Z"/></g>
<g><path style="opacity:1" fill="#e6d7c8" d="M 208.5,240.5 C 216.65,239.507 224.983,239.174 233.5,239.5C 233.833,239.5 234.167,239.5 234.5,239.5C 237.05,241.574 238.883,244.241 240,247.5C 240.372,254.84 240.205,262.173 239.5,269.5C 239.5,270.5 239.5,271.5 239.5,272.5C 237.858,277.028 234.525,278.694 229.5,277.5C 227.265,277.795 225.265,277.461 223.5,276.5C 235.429,276.142 235.429,275.142 223.5,273.5C 226.366,272.792 229.2,272.125 232,271.5C 233.619,269.044 234.119,266.544 233.5,264C 235.203,259.502 237.203,255.168 239.5,251C 238.922,249.189 238.422,247.355 238,245.5C 236.027,244.36 234.193,243.027 232.5,241.5C 224.528,240.502 216.528,240.169 208.5,240.5 Z"/></g>
<g><path style="opacity:1" fill="#b8887a" d="M 348.5,245.5 C 349.833,245.5 351.167,245.5 352.5,245.5C 352.916,250.493 353.249,255.493 353.5,260.5C 352.732,261.263 352.232,262.263 352,263.5C 350.361,257.549 349.194,251.549 348.5,245.5 Z"/></g>
<g><path style="opacity:1" fill="#e8d5c9" d="M 309.5,249.5 C 308.498,255.644 311.165,258.311 317.5,257.5C 318.833,257.333 320.167,257.167 321.5,257C 322.056,256.617 322.389,256.117 322.5,255.5C 323.167,254.833 323.833,254.167 324.5,253.5C 325.434,252.432 325.768,251.099 325.5,249.5C 327.883,252.436 327.55,254.769 324.5,256.5C 324.709,257.086 325.043,257.586 325.5,258C 318.174,259.752 311.174,261.585 304.5,263.5C 303.13,260.515 303.63,257.849 306,255.5C 306.667,253.833 306.667,252.167 306,250.5C 305.667,250.833 305.333,251.167 305,251.5C 303.933,250.809 302.766,250.309 301.5,250C 301.833,249.667 302.167,249.333 302.5,249C 300.19,248.503 297.857,248.337 295.5,248.5C 295.334,253.511 295.501,258.511 296,263.5C 295.862,269.736 298.362,274.403 303.5,277.5C 301.5,277.5 299.5,277.5 297.5,277.5C 295.932,275.189 295.098,272.522 295,269.5C 294.502,266.183 294.335,262.85 294.5,259.5C 293.838,255.534 293.505,251.534 293.5,247.5C 298.991,247.248 304.325,247.915 309.5,249.5 Z"/></g>
<g><path style="opacity:1" fill="#69545b" d="M 193.5,253.5 C 196.611,255.652 199.944,255.985 203.5,254.5C 203.5,255.167 203.5,255.833 203.5,256.5C 200.813,256.664 198.146,256.497 195.5,256C 194.619,255.292 193.953,254.458 193.5,253.5 Z"/></g>
<g><path style="opacity:1" fill="#ab9192" d="M 309.5,249.5 C 311.553,256.023 315.886,258.023 322.5,255.5C 322.389,256.117 322.056,256.617 321.5,257C 320.167,257.167 318.833,257.333 317.5,257.5C 311.165,258.311 308.498,255.644 309.5,249.5 Z"/></g>
<g><path style="opacity:1" fill="#bba9ac" d="M 148.5,249.5 C 143.5,249.5 138.5,249.5 133.5,249.5C 133.819,254.363 133.486,259.03 132.5,263.5C 132.5,258.5 132.5,253.5 132.5,248.5C 138.026,248.179 143.36,248.512 148.5,249.5 Z"/></g>
<g><path style="opacity:1" fill="#c1a898" d="M 346.5,245.5 C 347.167,245.5 347.833,245.5 348.5,245.5C 349.194,251.549 350.361,257.549 352,263.5C 352.232,262.263 352.732,261.263 353.5,260.5C 353.263,261.791 353.596,262.791 354.5,263.5C 354.777,268.233 354.443,272.9 353.5,277.5C 334.671,278.828 316.004,278.828 297.5,277.5C 299.5,277.5 301.5,277.5 303.5,277.5C 319.514,277.833 335.514,277.499 351.5,276.5C 351.987,275.554 352.32,274.554 352.5,273.5C 350.383,267.596 348.55,261.596 347,255.5C 346.502,252.183 346.335,248.85 346.5,245.5 Z"/></g>
<g><path style="opacity:1" fill="#1c0d17" d="M 255.5,244.5 C 256.044,255.15 254.544,265.483 251,275.5C 248.194,281.007 243.694,283.007 237.5,281.5C 234.472,280.932 231.805,279.599 229.5,277.5C 234.525,278.694 237.858,277.028 239.5,272.5C 239.5,273.833 239.5,275.167 239.5,276.5C 241.857,276.663 244.19,276.497 246.5,276C 247.38,274.644 247.714,273.144 247.5,271.5C 248.5,271.5 249.5,271.5 250.5,271.5C 252.022,265.948 252.689,260.282 252.5,254.5C 252.335,251.15 252.502,247.817 253,244.5C 253.77,245.598 254.603,245.598 255.5,244.5 Z"/></g>
<g><path style="opacity:1" fill="#e9d9cb" d="M 164.5,241.5 C 168.833,241.5 173.167,241.5 177.5,241.5C 178.765,242.479 180.099,243.479 181.5,244.5C 181.716,249.719 184.382,252.053 189.5,251.5C 190.514,252.674 191.847,253.34 193.5,253.5C 193.953,254.458 194.619,255.292 195.5,256C 198.146,256.497 200.813,256.664 203.5,256.5C 203.389,257.117 203.056,257.617 202.5,258C 198.057,259.336 194.391,258.336 191.5,255C 184.127,255.622 180.127,252.288 179.5,245C 177.919,244.293 176.419,243.46 175,242.5C 174.667,243.167 174.333,243.833 174,244.5C 173.029,243.802 171.863,243.802 170.5,244.5C 169.328,244.081 168.328,243.415 167.5,242.5C 165.789,246.254 166.622,249.254 170,251.5C 171.781,255.395 173.281,259.395 174.5,263.5C 175.167,262.833 175.833,262.167 176.5,261.5C 183.576,264.577 190.576,267.744 197.5,271C 196.643,271.689 195.977,272.522 195.5,273.5C 202.368,274.122 209.034,275.122 215.5,276.5C 197.838,275.334 180.172,274.167 162.5,273C 160.993,271.527 160.326,269.693 160.5,267.5C 161.965,261.244 162.965,254.911 163.5,248.5C 164.468,246.393 164.802,244.059 164.5,241.5 Z"/></g>
<g><path style="opacity:1" fill="#eadcdb" d="M 148.5,249.5 C 149.338,249.842 149.672,250.508 149.5,251.5C 149.255,257.084 149.922,262.417 151.5,267.5C 151.89,270.839 152.39,274.173 153,277.5C 153.833,279.667 155.333,281.167 157.5,282C 166.827,282.5 176.161,282.666 185.5,282.5C 186.919,283.451 188.585,283.784 190.5,283.5C 181.009,284.33 171.342,284.83 161.5,285C 159.224,287.649 156.724,287.482 154,284.5C 152.72,284.613 151.887,285.28 151.5,286.5C 153.36,289.86 156.027,292.36 159.5,294C 166.94,294.089 174.273,294.922 181.5,296.5C 180.167,298.5 178.833,300.5 177.5,302.5C 181.107,303.489 184.774,303.823 188.5,303.5C 188.297,305.39 188.963,306.89 190.5,308C 195.274,309.553 199.94,311.386 204.5,313.5C 205.167,313.333 205.833,313.167 206.5,313C 201.799,311.472 199.132,308.305 198.5,303.5C 202.08,302.923 205.08,303.923 207.5,306.5C 212.792,307.495 218.125,307.828 223.5,307.5C 223.343,308.873 223.51,310.207 224,311.5C 224.497,308.854 224.664,306.187 224.5,303.5C 225.5,303.5 226.5,303.5 227.5,303.5C 226.725,299.818 228.059,297.318 231.5,296C 234.633,295.04 237.8,294.207 241,293.5C 242.879,295.013 245.046,295.679 247.5,295.5C 248.099,298.168 249.766,300.002 252.5,301C 250.956,301.29 249.623,301.956 248.5,303C 252.5,303.333 256.5,303.667 260.5,304C 264.189,305.513 267.855,307.013 271.5,308.5C 271.192,306.076 271.526,303.743 272.5,301.5C 275.128,303.633 277.961,303.966 281,302.5C 284.446,303.149 287.612,304.483 290.5,306.5C 292.258,305.872 293.758,304.872 295,303.5C 296.732,305.939 298.565,308.273 300.5,310.5C 299.975,311.192 299.308,311.692 298.5,312C 300.795,321.136 300.962,330.303 299,339.5C 298.586,339.043 298.086,338.709 297.5,338.5C 296.833,339.833 296.167,341.167 295.5,342.5C 293.2,342.132 291.033,342.132 289,342.5C 288.667,343.167 288.333,343.833 288,344.5C 286.06,342.262 283.893,342.262 281.5,344.5C 282.768,346.047 284.435,347.047 286.5,347.5C 287.48,350.086 287.813,352.753 287.5,355.5C 292.833,355.5 298.167,355.5 303.5,355.5C 303.5,353.167 303.5,350.833 303.5,348.5C 300.167,349.5 296.833,350.5 293.5,351.5C 293.33,350.178 293.663,349.011 294.5,348C 299.009,344.668 303.676,341.501 308.5,338.5C 309.294,332.217 309.794,325.884 310,319.5C 310.473,317.221 311.473,315.221 313,313.5C 313.657,318.787 314.824,323.953 316.5,329C 313.618,333.715 310.951,338.548 308.5,343.5C 310.774,345.713 312.274,348.379 313,351.5C 315.228,347.556 317.062,343.556 318.5,339.5C 319.324,336.215 319.824,332.882 320,329.5C 324.864,327.809 327.697,324.476 328.5,319.5C 331.809,319.692 334.309,318.359 336,315.5C 337.181,313.325 338.348,311.158 339.5,309C 339.057,307.175 338.723,305.342 338.5,303.5C 336.567,303.271 334.9,302.438 333.5,301C 334.729,300.219 336.062,299.719 337.5,299.5C 341.555,300.086 345.222,301.419 348.5,303.5C 348.917,300.657 349.917,297.99 351.5,295.5C 351.833,295.667 352.167,295.833 352.5,296C 351.628,303.256 351.462,310.756 352,318.5C 352.499,313.511 352.666,308.511 352.5,303.5C 353.5,303.5 354.5,303.5 355.5,303.5C 354.758,316.518 353.758,329.518 352.5,342.5C 350.185,351.332 349.185,360.332 349.5,369.5C 348.252,370.334 347.585,371.667 347.5,373.5C 346.04,383.591 344.374,393.591 342.5,403.5C 340.723,406.505 339.723,409.838 339.5,413.5C 335.388,421.651 331.555,429.984 328,438.5C 326.431,443.961 324.598,449.294 322.5,454.5C 321.931,457.719 320.264,460.052 317.5,461.5C 315.235,464.077 313.235,466.91 311.5,470C 305.574,474.447 299.574,478.614 293.5,482.5C 291.716,482.893 290.05,483.559 288.5,484.5C 287.5,484.5 286.5,484.5 285.5,484.5C 285.458,486.849 286.625,488.182 289,488.5C 290.667,487.833 292.333,487.167 294,486.5C 294.5,486.833 295,487.167 295.5,487.5C 292.961,495.259 291.628,503.259 291.5,511.5C 240.5,511.5 189.5,511.5 138.5,511.5C 138.489,509.983 137.823,508.816 136.5,508C 137.938,507.781 139.271,507.281 140.5,506.5C 139.76,501.468 138.76,496.468 137.5,491.5C 138.074,483.182 137.741,474.849 136.5,466.5C 137.457,463.738 138.124,460.905 138.5,458C 137.499,443.84 137.499,429.673 138.5,415.5C 139.5,415.5 140.5,415.5 141.5,415.5C 142.067,434.162 142.567,452.829 143,471.5C 143.333,457.5 143.667,443.5 144,429.5C 146,428.167 146,426.833 144,425.5C 143.597,420.133 142.93,414.799 142,409.5C 140.956,410.623 140.29,411.956 140,413.5C 138.104,395.493 138.938,377.66 142.5,360C 139.199,346.693 138.199,333.193 139.5,319.5C 138.5,319.5 137.5,319.5 136.5,319.5C 135.671,308.437 136.338,297.437 138.5,286.5C 136.371,282.096 136.371,277.596 138.5,273C 136.639,270.054 136.139,266.887 137,263.5C 137.667,262.167 138.333,262.167 139,263.5C 139.182,266.226 139.682,268.893 140.5,271.5C 141.238,266.109 142.238,260.776 143.5,255.5C 144.177,259.599 145.177,263.599 146.5,267.5C 147.086,267.291 147.586,266.957 148,266.5C 148.499,260.843 148.666,255.176 148.5,249.5 Z"/></g>
<g><path style="opacity:1" fill="#e5d4d1" d="M 274.5,243.5 C 275.568,244.434 276.901,244.768 278.5,244.5C 278.156,250.098 278.822,255.432 280.5,260.5C 280.651,268.404 281.984,276.071 284.5,283.5C 284.484,285.484 285.484,286.484 287.5,286.5C 289.762,285.533 292.095,284.866 294.5,284.5C 307.125,284.892 319.792,284.892 332.5,284.5C 322.167,285.723 311.667,286.723 301,287.5C 300.167,287.833 299.333,288.167 298.5,288.5C 299.954,290.667 299.788,292.667 298,294.5C 296.477,292.431 295.643,290.097 295.5,287.5C 290.95,286.34 287.117,287.674 284,291.5C 283.508,290.451 283.674,289.451 284.5,288.5C 283.033,282.593 280.7,282.093 277.5,287C 278.981,287.98 280.315,289.147 281.5,290.5C 280.273,291.59 279.44,292.924 279,294.5C 277.173,292.698 276.006,290.532 275.5,288C 274.207,287.51 272.873,287.343 271.5,287.5C 271.5,290.167 271.5,292.833 271.5,295.5C 275.243,295.459 275.41,296.126 272,297.5C 271.517,298.448 271.351,299.448 271.5,300.5C 268.047,299.857 264.881,298.524 262,296.5C 259.902,297.878 258.068,297.544 256.5,295.5C 249.049,296.365 248.716,295.031 255.5,291.5C 246.697,288.045 246.697,286.045 255.5,285.5C 255.5,284.5 255.5,283.5 255.5,282.5C 249.161,283.669 242.828,283.669 236.5,282.5C 232.768,282.341 229.268,283.008 226,284.5C 214.194,283.551 202.361,283.218 190.5,283.5C 188.585,283.784 186.919,283.451 185.5,282.5C 202.848,282.674 220.181,282.341 237.5,281.5C 243.694,283.007 248.194,281.007 251,275.5C 254.544,265.483 256.044,255.15 255.5,244.5C 261.645,243.51 267.978,243.177 274.5,243.5 Z"/></g>
<g><path style="opacity:1" fill="#815250" d="M 121.5,249.5 C 120.787,253.687 119.787,257.687 118.5,261.5C 117.501,268.745 117.168,276.745 117.5,285.5C 115.726,286.37 114.393,287.703 113.5,289.5C 113.334,279.161 113.5,268.828 114,258.5C 115.147,259.458 116.147,259.125 117,257.5C 118.586,254.743 120.086,252.076 121.5,249.5 Z"/></g>
<g><path style="opacity:1" fill="#836f72" d="M 118.5,261.5 C 118.602,270.627 119.602,279.627 121.5,288.5C 121.737,289.791 121.404,290.791 120.5,291.5C 120.008,289.181 119.008,287.181 117.5,285.5C 117.168,276.745 117.501,268.745 118.5,261.5 Z"/></g>
<g><path style="opacity:1" fill="#120b0d" d="M 163.5,248.5 C 162.965,254.911 161.965,261.244 160.5,267.5C 160.326,269.693 160.993,271.527 162.5,273C 180.172,274.167 197.838,275.334 215.5,276.5C 218.167,276.5 220.833,276.5 223.5,276.5C 225.265,277.461 227.265,277.795 229.5,277.5C 231.805,279.599 234.472,280.932 237.5,281.5C 220.181,282.341 202.848,282.674 185.5,282.5C 176.161,282.666 166.827,282.5 157.5,282C 155.333,281.167 153.833,279.667 153,277.5C 152.39,274.173 151.89,270.839 151.5,267.5C 151.248,264.68 151.748,262.014 153,259.5C 155.674,258.286 158.174,256.953 160.5,255.5C 160.421,252.729 160.921,250.063 162,247.5C 163.087,245.068 163.587,245.402 163.5,248.5 Z"/></g>
<g><path style="opacity:1" fill="#0f0707" d="M 294.5,259.5 C 294.335,262.85 294.502,266.183 295,269.5C 295.098,272.522 295.932,275.189 297.5,277.5C 316.004,278.828 334.671,278.828 353.5,277.5C 354.443,272.9 354.777,268.233 354.5,263.5C 354.351,262.448 354.517,261.448 355,260.5C 355.494,262.134 355.66,263.801 355.5,265.5C 357.144,265.286 358.644,265.62 360,266.5C 360.499,272.491 360.666,278.491 360.5,284.5C 360.784,286.415 360.451,288.081 359.5,289.5C 359.672,288.508 359.338,287.842 358.5,287.5C 357.972,286.279 357.305,285.113 356.5,284C 350.984,283.183 345.65,283.349 340.5,284.5C 337.833,284.5 335.167,284.5 332.5,284.5C 319.792,284.892 307.125,284.892 294.5,284.5C 291.257,284.123 287.924,283.79 284.5,283.5C 281.984,276.071 280.651,268.404 280.5,260.5C 280.335,257.482 280.502,254.482 281,251.5C 281.333,252.833 281.667,254.167 282,255.5C 282.242,252.928 283.575,251.261 286,250.5C 288.958,252.805 291.792,255.805 294.5,259.5 Z"/></g>
<g><path style="opacity:1" fill="#a6999f" d="M 131.5,271.5 C 131.23,276.45 130.23,281.117 128.5,285.5C 128.77,280.55 129.77,275.883 131.5,271.5 Z"/></g>
<g><path style="opacity:1" fill="#eadcd7" d="M 332.5,284.5 C 335.167,284.5 337.833,284.5 340.5,284.5C 345.233,284.223 349.9,284.557 354.5,285.5C 355.967,288.998 356.633,292.664 356.5,296.5C 356.497,299.025 356.163,301.359 355.5,303.5C 354.5,303.5 353.5,303.5 352.5,303.5C 352.666,308.511 352.499,313.511 352,318.5C 351.462,310.756 351.628,303.256 352.5,296C 352.167,295.833 351.833,295.667 351.5,295.5C 349.917,297.99 348.917,300.657 348.5,303.5C 345.222,301.419 341.555,300.086 337.5,299.5C 336.062,299.719 334.729,300.219 333.5,301C 334.9,302.438 336.567,303.271 338.5,303.5C 338.723,305.342 339.057,307.175 339.5,309C 338.348,311.158 337.181,313.325 336,315.5C 334.309,318.359 331.809,319.692 328.5,319.5C 327.697,324.476 324.864,327.809 320,329.5C 319.824,332.882 319.324,336.215 318.5,339.5C 317.062,343.556 315.228,347.556 313,351.5C 312.274,348.379 310.774,345.713 308.5,343.5C 310.951,338.548 313.618,333.715 316.5,329C 314.824,323.953 313.657,318.787 313,313.5C 311.473,315.221 310.473,317.221 310,319.5C 309.794,325.884 309.294,332.217 308.5,338.5C 303.676,341.501 299.009,344.668 294.5,348C 293.663,349.011 293.33,350.178 293.5,351.5C 296.833,350.5 300.167,349.5 303.5,348.5C 303.5,350.833 303.5,353.167 303.5,355.5C 298.167,355.5 292.833,355.5 287.5,355.5C 287.813,352.753 287.48,350.086 286.5,347.5C 284.435,347.047 282.768,346.047 281.5,344.5C 283.893,342.262 286.06,342.262 288,344.5C 288.333,343.833 288.667,343.167 289,342.5C 291.033,342.132 293.2,342.132 295.5,342.5C 296.167,341.167 296.833,339.833 297.5,338.5C 298.086,338.709 298.586,339.043 299,339.5C 300.962,330.303 300.795,321.136 298.5,312C 299.308,311.692 299.975,311.192 300.5,310.5C 298.565,308.273 296.732,305.939 295,303.5C 293.758,304.872 292.258,305.872 290.5,306.5C 287.612,304.483 284.446,303.149 281,302.5C 277.961,303.966 275.128,303.633 272.5,301.5C 271.526,303.743 271.192,306.076 271.5,308.5C 267.855,307.013 264.189,305.513 260.5,304C 256.5,303.667 252.5,303.333 248.5,303C 249.623,301.956 250.956,301.29 252.5,301C 249.766,300.002 248.099,298.168 247.5,295.5C 245.046,295.679 242.879,295.013 241,293.5C 237.8,294.207 234.633,295.04 231.5,296C 228.059,297.318 226.725,299.818 227.5,303.5C 226.5,303.5 225.5,303.5 224.5,303.5C 224.664,306.187 224.497,308.854 224,311.5C 223.51,310.207 223.343,308.873 223.5,307.5C 218.125,307.828 212.792,307.495 207.5,306.5C 205.08,303.923 202.08,302.923 198.5,303.5C 199.132,308.305 201.799,311.472 206.5,313C 205.833,313.167 205.167,313.333 204.5,313.5C 199.94,311.386 195.274,309.553 190.5,308C 188.963,306.89 188.297,305.39 188.5,303.5C 184.774,303.823 181.107,303.489 177.5,302.5C 178.833,300.5 180.167,298.5 181.5,296.5C 174.273,294.922 166.94,294.089 159.5,294C 156.027,292.36 153.36,289.86 151.5,286.5C 151.887,285.28 152.72,284.613 154,284.5C 156.724,287.482 159.224,287.649 161.5,285C 171.342,284.83 181.009,284.33 190.5,283.5C 202.361,283.218 214.194,283.551 226,284.5C 229.268,283.008 232.768,282.341 236.5,282.5C 242.828,283.669 249.161,283.669 255.5,282.5C 255.5,283.5 255.5,284.5 255.5,285.5C 246.697,286.045 246.697,288.045 255.5,291.5C 248.716,295.031 249.049,296.365 256.5,295.5C 258.068,297.544 259.902,297.878 262,296.5C 264.881,298.524 268.047,299.857 271.5,300.5C 271.351,299.448 271.517,298.448 272,297.5C 275.41,296.126 275.243,295.459 271.5,295.5C 271.5,292.833 271.5,290.167 271.5,287.5C 272.873,287.343 274.207,287.51 275.5,288C 276.006,290.532 277.173,292.698 279,294.5C 279.44,292.924 280.273,291.59 281.5,290.5C 280.315,289.147 278.981,287.98 277.5,287C 280.7,282.093 283.033,282.593 284.5,288.5C 283.674,289.451 283.508,290.451 284,291.5C 287.117,287.674 290.95,286.34 295.5,287.5C 295.643,290.097 296.477,292.431 298,294.5C 299.788,292.667 299.954,290.667 298.5,288.5C 299.333,288.167 300.167,287.833 301,287.5C 311.667,286.723 322.167,285.723 332.5,284.5 Z"/></g>
<g><path style="opacity:1" fill="#ad9aa4" d="M 284.5,283.5 C 287.924,283.79 291.257,284.123 294.5,284.5C 292.095,284.866 289.762,285.533 287.5,286.5C 285.484,286.484 284.484,285.484 284.5,283.5 Z"/></g>
<g><path style="opacity:1" fill="#e8e0da" d="M 148.5,249.5 C 148.666,255.176 148.499,260.843 148,266.5C 147.586,266.957 147.086,267.291 146.5,267.5C 145.177,263.599 144.177,259.599 143.5,255.5C 142.238,260.776 141.238,266.109 140.5,271.5C 139.682,268.893 139.182,266.226 139,263.5C 138.333,262.167 137.667,262.167 137,263.5C 136.139,266.887 136.639,270.054 138.5,273C 136.371,277.596 136.371,282.096 138.5,286.5C 136.338,297.437 135.671,308.437 136.5,319.5C 137.5,319.5 138.5,319.5 139.5,319.5C 138.199,333.193 139.199,346.693 142.5,360C 138.938,377.66 138.104,395.493 140,413.5C 140.29,411.956 140.956,410.623 142,409.5C 142.93,414.799 143.597,420.133 144,425.5C 146,426.833 146,428.167 144,429.5C 143.667,443.5 143.333,457.5 143,471.5C 142.567,452.829 142.067,434.162 141.5,415.5C 140.5,415.5 139.5,415.5 138.5,415.5C 137.499,429.673 137.499,443.84 138.5,458C 138.124,460.905 137.457,463.738 136.5,466.5C 137.741,474.849 138.074,483.182 137.5,491.5C 138.76,496.468 139.76,501.468 140.5,506.5C 139.271,507.281 137.938,507.781 136.5,508C 137.823,508.816 138.489,509.983 138.5,511.5C 136.5,511.5 134.5,511.5 132.5,511.5C 132.019,490.17 131.685,468.836 131.5,447.5C 130.393,407.463 130.393,367.463 131.5,327.5C 128.077,315.501 126.744,303.168 127.5,290.5C 127.5,289.167 127.5,287.833 127.5,286.5C 127.5,285.833 127.833,285.5 128.5,285.5C 130.23,281.117 131.23,276.45 131.5,271.5C 132.092,268.873 132.425,266.206 132.5,263.5C 133.486,259.03 133.819,254.363 133.5,249.5C 138.5,249.5 143.5,249.5 148.5,249.5 Z"/></g>
<g><path style="opacity:1" fill="#2b1d20" d="M 117.5,285.5 C 119.008,287.181 120.008,289.181 120.5,291.5C 121.073,294.407 122.739,296.407 125.5,297.5C 125.5,298.167 125.5,298.833 125.5,299.5C 125.665,302.518 125.498,305.518 125,308.5C 124.23,309.598 123.397,309.598 122.5,308.5C 121.864,306.205 120.531,304.539 118.5,303.5C 118.5,302.5 118.5,301.5 118.5,300.5C 116.278,300.178 114.444,300.845 113,302.5C 112.505,300.527 112.338,298.527 112.5,296.5C 112.448,294.097 112.781,291.764 113.5,289.5C 114.393,287.703 115.726,286.37 117.5,285.5 Z"/></g>
<g><path style="opacity:1" fill="#5f535d" d="M 127.5,286.5 C 127.5,287.833 127.5,289.167 127.5,290.5C 125.837,292.438 125.171,294.772 125.5,297.5C 122.739,296.407 121.073,294.407 120.5,291.5C 121.404,290.791 121.737,289.791 121.5,288.5C 122.404,289.209 122.737,290.209 122.5,291.5C 123.5,291.5 124.5,291.5 125.5,291.5C 125.402,289.447 126.069,287.78 127.5,286.5 Z"/></g>
<g><path style="opacity:1" fill="#a39293" d="M 118.5,303.5 C 120.531,304.539 121.864,306.205 122.5,308.5C 122.813,312.042 122.479,315.375 121.5,318.5C 121.167,319.833 120.833,321.167 120.5,322.5C 115.773,323.273 113.273,321.273 113,316.5C 112.333,312.833 112.333,309.167 113,305.5C 113.991,302.419 115.824,301.752 118.5,303.5 Z"/></g>
<g><path style="opacity:1" fill="#d3c0b8" d="M 340.5,284.5 C 345.65,283.349 350.984,283.183 356.5,284C 357.305,285.113 357.972,286.279 358.5,287.5C 359.941,306.439 357.941,324.772 352.5,342.5C 353.758,329.518 354.758,316.518 355.5,303.5C 356.163,301.359 356.497,299.025 356.5,296.5C 356.633,292.664 355.967,288.998 354.5,285.5C 349.9,284.557 345.233,284.223 340.5,284.5 Z"/></g>
<g><path style="opacity:1" fill="#5e4342" d="M 112.5,296.5 C 112.338,298.527 112.505,300.527 113,302.5C 114.444,300.845 116.278,300.178 118.5,300.5C 118.5,301.5 118.5,302.5 118.5,303.5C 115.824,301.752 113.991,302.419 113,305.5C 112.333,309.167 112.333,312.833 113,316.5C 113.273,321.273 115.773,323.273 120.5,322.5C 118.735,323.461 116.735,323.795 114.5,323.5C 112.657,322.754 111.324,321.421 110.5,319.5C 109.135,311.545 109.801,303.879 112.5,296.5 Z"/></g>
<g><path style="opacity:1" fill="#5c5053" d="M 125.5,299.5 C 126.229,307.036 126.895,314.702 127.5,322.5C 125.167,321.167 122.833,321.167 120.5,322.5C 120.833,321.167 121.167,319.833 121.5,318.5C 122.479,315.375 122.813,312.042 122.5,308.5C 123.397,309.598 124.23,309.598 125,308.5C 125.498,305.518 125.665,302.518 125.5,299.5 Z"/></g>
<g><path style="opacity:1" fill="#d4c7c6" d="M 121.5,318.5 C 119.547,319.999 117.88,319.665 116.5,317.5C 115.516,314.572 115.183,311.572 115.5,308.5C 117.467,308.261 119.301,308.594 121,309.5C 121.498,312.482 121.665,315.482 121.5,318.5 Z"/></g>
<g><path style="opacity:1" fill="#865a58" d="M 362.5,279.5 C 362.972,295.169 363.139,310.836 363,326.5C 362.465,329.969 361.298,332.969 359.5,335.5C 361.365,326.93 361.865,318.264 361,309.5C 360.814,312.036 360.314,314.369 359.5,316.5C 359.5,307.5 359.5,298.5 359.5,289.5C 360.451,288.081 360.784,286.415 360.5,284.5C 361.167,282.833 361.833,281.167 362.5,279.5 Z"/></g>
<g><path style="opacity:1" fill="#d5c6c3" d="M 127.5,290.5 C 126.744,303.168 128.077,315.501 131.5,327.5C 130.393,367.463 130.393,407.463 131.5,447.5C 130.833,441.5 130.167,435.5 129.5,429.5C 129.827,420.318 129.493,411.318 128.5,402.5C 127.615,377.512 127.281,352.512 127.5,327.5C 127.5,325.833 127.5,324.167 127.5,322.5C 126.895,314.702 126.229,307.036 125.5,299.5C 125.5,298.833 125.5,298.167 125.5,297.5C 125.171,294.772 125.837,292.438 127.5,290.5 Z"/></g>
<g><path style="opacity:1" fill="#25191b" d="M 127.5,322.5 C 127.5,324.167 127.5,325.833 127.5,327.5C 123.476,327.052 119.476,326.386 115.5,325.5C 115.137,324.817 114.804,324.15 114.5,323.5C 116.735,323.795 118.735,323.461 120.5,322.5C 122.833,321.167 125.167,321.167 127.5,322.5 Z"/></g>
<g><path style="opacity:1" fill="#2c1538" d="M 297.5,316.5 C 298.806,322.599 298.806,328.599 297.5,334.5C 297.66,332.801 297.494,331.134 297,329.5C 296.329,328.748 295.496,328.414 294.5,328.5C 294.335,324.818 294.501,321.152 295,317.5C 295.671,316.748 296.504,316.414 297.5,316.5 Z"/></g>
<g><path style="opacity:1" fill="#c6b8c1" d="M 297.5,316.5 C 296.504,316.414 295.671,316.748 295,317.5C 294.501,321.152 294.335,324.818 294.5,328.5C 293.008,331.323 290.674,332.99 287.5,333.5C 287.176,330.306 288.342,329.306 291,330.5C 291.667,329.167 292.333,327.833 293,326.5C 293.238,322.778 293.738,319.111 294.5,315.5C 296.052,314.202 297.052,314.535 297.5,316.5 Z"/></g>
<g><path style="opacity:1" fill="#150c15" d="M 272.5,338.5 C 266.324,340.965 259.991,341.632 253.5,340.5C 254.911,338.086 256.911,336.419 259.5,335.5C 264.805,334.558 270.139,334.391 275.5,335C 275.833,335.333 276.167,335.667 276.5,336C 274.934,336.608 273.6,337.442 272.5,338.5 Z"/></g>
<g><path style="opacity:1" fill="#170c18" d="M 294.5,328.5 C 295.496,328.414 296.329,328.748 297,329.5C 297.494,331.134 297.66,332.801 297.5,334.5C 296.976,337.188 295.309,338.688 292.5,339C 289.493,339.301 286.493,339.135 283.5,338.5C 283.5,337.5 283.5,336.5 283.5,335.5C 284.995,335.011 286.329,334.345 287.5,333.5C 290.674,332.99 293.008,331.323 294.5,328.5 Z"/></g>
<g><path style="opacity:1" fill="#635462" d="M 283.5,335.5 C 283.5,336.5 283.5,337.5 283.5,338.5C 279.833,338.5 276.167,338.5 272.5,338.5C 273.6,337.442 274.934,336.608 276.5,336C 276.167,335.667 275.833,335.333 275.5,335C 270.139,334.391 264.805,334.558 259.5,335.5C 259.918,334.778 260.584,334.278 261.5,334C 264.167,333.833 266.833,333.667 269.5,333.5C 274.217,334.006 278.883,334.672 283.5,335.5 Z"/></g>
<g><path style="opacity:1" fill="#644d46" d="M 359.5,335.5 C 357.088,342.544 355.421,349.877 354.5,357.5C 353.539,355.735 353.205,353.735 353.5,351.5C 355.856,339.874 357.856,328.208 359.5,316.5C 360.314,314.369 360.814,312.036 361,309.5C 361.865,318.264 361.365,326.93 359.5,335.5 Z"/></g>
<g><path style="opacity:1" fill="#c1a9a4" d="M 358.5,287.5 C 359.338,287.842 359.672,288.508 359.5,289.5C 359.5,298.5 359.5,307.5 359.5,316.5C 357.856,328.208 355.856,339.874 353.5,351.5C 352.024,357.303 351.024,363.303 350.5,369.5C 350.167,369.5 349.833,369.5 349.5,369.5C 349.185,360.332 350.185,351.332 352.5,342.5C 357.941,324.772 359.941,306.439 358.5,287.5 Z"/></g>
<g><path style="opacity:1" fill="#d1bdb8" d="M 349.5,369.5 C 348.501,377.495 347.501,385.495 346.5,393.5C 346.5,394.833 346.5,396.167 346.5,397.5C 345.167,399.5 343.833,401.5 342.5,403.5C 344.374,393.591 346.04,383.591 347.5,373.5C 347.585,371.667 348.252,370.334 349.5,369.5 Z"/></g>
<g><path style="opacity:1" fill="#836059" d="M 353.5,351.5 C 353.205,353.735 353.539,355.735 354.5,357.5C 352.221,384.395 347.054,410.728 339,436.5C 338.578,438.426 337.411,439.426 335.5,439.5C 338.204,429.018 341.37,418.684 345,408.5C 345.548,404.83 346.048,401.163 346.5,397.5C 346.5,396.167 346.5,394.833 346.5,393.5C 348.011,391.524 348.844,389.191 349,386.5C 350.029,380.877 350.529,375.21 350.5,369.5C 351.024,363.303 352.024,357.303 353.5,351.5 Z"/></g>
<g><path style="opacity:1" fill="#605363" d="M 237.5,392.5 C 237.5,392.833 237.5,393.167 237.5,393.5C 234.941,393.198 232.607,393.532 230.5,394.5C 229.957,394.44 229.624,394.107 229.5,393.5C 232.086,392.52 234.753,392.187 237.5,392.5 Z"/></g>
<g><path style="opacity:1" fill="#a4979a" d="M 237.5,393.5 C 237.5,393.167 237.5,392.833 237.5,392.5C 254.17,392.333 270.837,392.5 287.5,393C 289.544,393.498 290.878,394.665 291.5,396.5C 289.407,395.955 287.407,395.122 285.5,394C 269.503,393.5 253.503,393.333 237.5,393.5 Z"/></g>
<g><path style="opacity:1" fill="#9e8982" d="M 349.5,369.5 C 349.833,369.5 350.167,369.5 350.5,369.5C 350.529,375.21 350.029,380.877 349,386.5C 348.844,389.191 348.011,391.524 346.5,393.5C 347.501,385.495 348.501,377.495 349.5,369.5 Z"/></g>
<g><path style="opacity:1" fill="#140c14" d="M 237.5,393.5 C 253.503,393.333 269.503,393.5 285.5,394C 287.407,395.122 289.407,395.955 291.5,396.5C 292.391,397.11 293.391,397.443 294.5,397.5C 295.609,398.29 296.942,398.79 298.5,399C 297.944,399.383 297.611,399.883 297.5,400.5C 281.5,400.5 265.5,400.5 249.5,400.5C 244.95,399.509 240.283,398.509 235.5,397.5C 233.326,397.25 231.659,396.25 230.5,394.5C 232.607,393.532 234.941,393.198 237.5,393.5 Z"/></g>
<g><path style="opacity:1" fill="#9d8e96" d="M 294.5,397.5 C 297.247,397.187 299.914,397.52 302.5,398.5C 301.332,400.217 299.665,400.884 297.5,400.5C 297.611,399.883 297.944,399.383 298.5,399C 296.942,398.79 295.609,398.29 294.5,397.5 Z"/></g>
<g><path style="opacity:1" fill="#5b4e54" d="M 235.5,397.5 C 240.283,398.509 244.95,399.509 249.5,400.5C 244.404,400.956 239.738,399.956 235.5,397.5 Z"/></g>
<g><path style="opacity:1" fill="#dac8c2" d="M 339.5,413.5 C 337.639,421.564 335.472,429.564 333,437.5C 330.333,442.833 327.667,448.167 325,453.5C 324.329,454.252 323.496,454.586 322.5,454.5C 324.598,449.294 326.431,443.961 328,438.5C 331.555,429.984 335.388,421.651 339.5,413.5 Z"/></g>
<g><path style="opacity:1" fill="#bd9e98" d="M 346.5,397.5 C 346.048,401.163 345.548,404.83 345,408.5C 341.37,418.684 338.204,429.018 335.5,439.5C 332.043,444.574 328.876,449.907 326,455.5C 322.369,458.709 320.035,462.709 319,467.5C 316.148,469.951 313.315,472.285 310.5,474.5C 314.16,470.845 316.493,466.511 317.5,461.5C 320.264,460.052 321.931,457.719 322.5,454.5C 323.496,454.586 324.329,454.252 325,453.5C 327.667,448.167 330.333,442.833 333,437.5C 335.472,429.564 337.639,421.564 339.5,413.5C 339.723,409.838 340.723,406.505 342.5,403.5C 343.833,401.5 345.167,399.5 346.5,397.5 Z"/></g>
<g><path style="opacity:1" fill="#d0bab7" d="M 129.5,429.5 C 130.167,435.5 130.833,441.5 131.5,447.5C 131.685,468.836 132.019,490.17 132.5,511.5C 131.833,511.5 131.167,511.5 130.5,511.5C 130.5,500.833 130.5,490.167 130.5,479.5C 130.35,462.829 130.017,446.162 129.5,429.5 Z"/></g>
<g><path style="opacity:1" fill="#a5807c" d="M 128.5,402.5 C 129.493,411.318 129.827,420.318 129.5,429.5C 130.017,446.162 130.35,462.829 130.5,479.5C 128.884,454.018 128.217,428.351 128.5,402.5 Z"/></g>
<g><path style="opacity:1" fill="#ccbcb7" d="M 317.5,461.5 C 316.493,466.511 314.16,470.845 310.5,474.5C 307.223,476.115 304.223,478.115 301.5,480.5C 298.673,480.584 296.006,481.25 293.5,482.5C 299.574,478.614 305.574,474.447 311.5,470C 313.235,466.91 315.235,464.077 317.5,461.5 Z"/></g>
<g><path style="opacity:1" fill="#362626" d="M 301.5,480.5 C 303.048,480.821 303.715,481.821 303.5,483.5C 301.265,483.205 299.265,483.539 297.5,484.5C 296.5,484.5 295.5,484.5 294.5,484.5C 292.302,484.591 291.969,483.925 293.5,482.5C 296.006,481.25 298.673,480.584 301.5,480.5 Z"/></g>
<g><path style="opacity:1" fill="#756065" d="M 293.5,482.5 C 291.969,483.925 292.302,484.591 294.5,484.5C 292.473,486.088 290.139,486.588 287.5,486C 288.056,485.617 288.389,485.117 288.5,484.5C 290.05,483.559 291.716,482.893 293.5,482.5 Z"/></g>
<g><path style="opacity:1" fill="#96615a" d="M 335.5,439.5 C 337.054,446.221 334.888,451.221 329,454.5C 326.484,458.184 324.65,462.184 323.5,466.5C 320.479,468.553 318.145,471.22 316.5,474.5C 315.754,475.736 315.421,477.07 315.5,478.5C 311.767,480.867 307.767,482.867 303.5,484.5C 301.559,488.38 299.725,492.38 298,496.5C 297.499,501.508 296.999,506.508 296.5,511.5C 295.833,511.5 295.167,511.5 294.5,511.5C 295.228,502.191 297.228,493.191 300.5,484.5C 299.5,484.5 298.5,484.5 297.5,484.5C 299.265,483.539 301.265,483.205 303.5,483.5C 303.715,481.821 303.048,480.821 301.5,480.5C 304.223,478.115 307.223,476.115 310.5,474.5C 313.315,472.285 316.148,469.951 319,467.5C 320.035,462.709 322.369,458.709 326,455.5C 328.876,449.907 332.043,444.574 335.5,439.5 Z"/></g>
<g><path style="opacity:1" fill="#ccb1ae" d="M 288.5,484.5 C 288.389,485.117 288.056,485.617 287.5,486C 290.139,486.588 292.473,486.088 294.5,484.5C 295.5,484.5 296.5,484.5 297.5,484.5C 298.5,484.5 299.5,484.5 300.5,484.5C 297.228,493.191 295.228,502.191 294.5,511.5C 293.5,511.5 292.5,511.5 291.5,511.5C 291.628,503.259 292.961,495.259 295.5,487.5C 295,487.167 294.5,486.833 294,486.5C 292.333,487.167 290.667,487.833 289,488.5C 286.625,488.182 285.458,486.849 285.5,484.5C 286.5,484.5 287.5,484.5 288.5,484.5 Z"/></g>
</svg>
