<?xml version="1.0" encoding="UTF-8"?>
<!DOCTYPE svg PUBLIC "-//W3C//DTD SVG 1.1//EN" "http://www.w3.org/Graphics/SVG/1.1/DTD/svg11.dtd">
<svg xmlns="http://www.w3.org/2000/svg" version="1.1" width="512px" height="512px" style="shape-rendering:geometricPrecision; text-rendering:geometricPrecision; image-rendering:optimizeQuality; fill-rule:evenodd; clip-rule:evenodd" xmlns:xlink="http://www.w3.org/1999/xlink">
<g><path style="opacity:1" fill="#628394" d="M -0.5,-0.5 C 170.167,-0.5 340.833,-0.5 511.5,-0.5C 511.5,162.167 511.5,324.833 511.5,487.5C 510.325,487.719 509.325,487.386 508.5,486.5C 506.461,482.297 503.128,479.797 498.5,479C 499.337,477.989 499.67,476.822 499.5,475.5C 498.022,475.762 496.689,475.429 495.5,474.5C 497.783,473.865 499.449,472.532 500.5,470.5C 499.594,468.253 498.261,466.253 496.5,464.5C 497.369,461.237 498.703,460.904 500.5,463.5C 501.062,460.568 500.396,457.735 498.5,455C 500.88,453.274 503.38,452.774 506,453.5C 506.068,450.681 507.234,448.514 509.5,447C 508.696,445.229 507.529,443.729 506,442.5C 505.5,443 505,443.5 504.5,444C 505.908,446.292 505.741,448.459 504,450.5C 502.252,448.946 502.085,447.28 503.5,445.5C 503.444,444.263 502.944,443.263 502,442.5C 501.813,435.919 501.313,429.419 500.5,423C 503.319,420.28 502.986,417.947 499.5,416C 501.79,415.21 502.123,413.876 500.5,412C 501.009,410.831 501.842,409.998 503,409.5C 503.403,412.708 504.403,415.708 506,418.5C 506.333,418.167 506.667,417.833 507,417.5C 508.316,405.491 508.483,393.491 507.5,381.5C 507.875,379.541 508.541,377.707 509.5,376C 508.572,375.612 507.905,374.945 507.5,374C 508.833,371.333 508.833,368.667 507.5,366C 508.167,364.333 508.833,362.667 509.5,361C 509.095,360.055 508.428,359.388 507.5,359C 508.337,357.989 508.67,356.822 508.5,355.5C 506.833,355.5 505.167,355.5 503.5,355.5C 503.281,354.325 503.614,353.325 504.5,352.5C 505.736,353.246 507.07,353.579 508.5,353.5C 506.939,346.75 507.273,340.084 509.5,333.5C 509.251,330.823 508.251,328.49 506.5,326.5C 509.103,320.59 509.603,314.59 508,308.5C 506.644,307.62 505.144,307.286 503.5,307.5C 504.484,310.968 505.484,314.468 506.5,318C 504.085,325.271 502.918,332.771 503,340.5C 501.195,343.039 498.695,344.039 495.5,343.5C 495.5,348.833 495.5,354.167 495.5,359.5C 490.167,359.5 484.833,359.5 479.5,359.5C 479.5,362.167 479.5,364.833 479.5,367.5C 476.833,367.5 474.167,367.5 471.5,367.5C 471.5,372.833 471.5,378.167 471.5,383.5C 468.833,383.5 466.167,383.5 463.5,383.5C 463.338,385.527 463.505,387.527 464,389.5C 467.178,390.67 469.678,392.67 471.5,395.5C 470.754,396.736 470.421,398.07 470.5,399.5C 473.5,399.5 476.5,399.5 479.5,399.5C 479.5,408.167 479.5,416.833 479.5,425.5C 483.29,424.953 485.29,426.62 485.5,430.5C 484.311,431.429 482.978,431.762 481.5,431.5C 480.964,434.555 480.131,437.555 479,440.5C 477.612,439.446 476.112,439.28 474.5,440C 475.448,440.483 476.448,440.649 477.5,440.5C 477.5,441.5 477.5,442.5 477.5,443.5C 475.897,443.312 474.563,443.812 473.5,445C 474.931,445.465 476.097,446.299 477,447.5C 477.536,449.869 478.703,451.869 480.5,453.5C 480.833,453 481.167,452.5 481.5,452C 480.293,450.7 479.626,449.2 479.5,447.5C 480.822,447.33 481.989,447.663 483,448.5C 482.734,445.099 484.234,443.433 487.5,443.5C 486.108,448.178 484.608,452.844 483,457.5C 481.795,458.071 480.628,458.738 479.5,459.5C 484.414,461.489 489.414,462.155 494.5,461.5C 495.631,463.074 495.798,464.741 495,466.5C 494.085,465.672 493.419,464.672 493,463.5C 492.433,466.168 491.933,468.834 491.5,471.5C 492.552,471.351 493.552,471.517 494.5,472C 493.184,474.833 491.184,475.666 488.5,474.5C 487.614,475.325 487.281,476.325 487.5,477.5C 484.833,477.5 482.167,477.5 479.5,477.5C 479.5,475.5 479.5,473.5 479.5,471.5C 478.325,471.281 477.325,471.614 476.5,472.5C 475.833,474.5 475.167,476.5 474.5,478.5C 473.675,479.386 472.675,479.719 471.5,479.5C 471.649,478.448 471.483,477.448 471,476.5C 470.16,479.464 469.16,479.797 468,477.5C 467.918,472.781 467.085,468.281 465.5,464C 466.857,458.443 468.523,458.276 470.5,463.5C 471.213,460.231 471.546,457.065 471.5,454C 471.333,453.5 471.167,453 471,452.5C 469.195,455.039 466.695,456.039 463.5,455.5C 463.5,458.167 463.5,460.833 463.5,463.5C 460.833,463.5 458.167,463.5 455.5,463.5C 455.5,458.167 455.5,452.833 455.5,447.5C 452.833,447.5 450.167,447.5 447.5,447.5C 446.38,442.942 448.047,440.109 452.5,439C 454.584,437.499 455.917,435.499 456.5,433C 455.566,427.215 455.232,421.382 455.5,415.5C 452.833,415.5 450.167,415.5 447.5,415.5C 447.5,418.167 447.5,420.833 447.5,423.5C 446.022,423.762 444.689,423.429 443.5,422.5C 444.214,420.189 445.214,418.022 446.5,416C 441.778,415.198 441.945,413.698 447,411.5C 448.154,413.957 449.488,413.957 451,411.5C 452.046,407.453 451.213,406.786 448.5,409.5C 446.821,407.896 444.821,407.229 442.5,407.5C 442.5,405.833 442.5,404.167 442.5,402.5C 444.167,402.5 445.833,402.5 447.5,402.5C 447.662,400.473 447.495,398.473 447,396.5C 445.677,399.059 443.843,399.725 441.5,398.5C 443.521,395.765 445.521,393.099 447.5,390.5C 447.351,391.552 447.517,392.552 448,393.5C 451.606,392.226 454.273,389.893 456,386.5C 457.103,380.244 457.603,373.911 457.5,367.5C 457.333,362.167 457.167,356.833 457,351.5C 455.763,346.596 452.763,343.262 448,341.5C 447.505,339.527 447.338,337.527 447.5,335.5C 448.833,335.5 450.167,335.5 451.5,335.5C 451.5,330.167 451.5,324.833 451.5,319.5C 450.167,319.5 448.833,319.5 447.5,319.5C 447.334,314.156 447.501,308.823 448,303.5C 453,308.833 458,314.167 463,319.5C 463.495,317.527 463.662,315.527 463.5,313.5C 468.833,313.5 474.167,313.5 479.5,313.5C 479.334,304.827 479.5,296.16 480,287.5C 484.833,282.5 489.667,277.5 494.5,272.5C 492.257,271.526 489.924,271.192 487.5,271.5C 488.388,258.188 489.055,244.855 489.5,231.5C 489.277,220.801 488.61,210.134 487.5,199.5C 488.828,191.548 489.494,183.548 489.5,175.5C 485.167,175.5 480.833,175.5 476.5,175.5C 476.5,191.509 476.166,207.509 475.5,223.5C 476.833,223.5 478.167,223.5 479.5,223.5C 479.5,230.833 479.5,238.167 479.5,245.5C 473.824,245.666 468.157,245.499 462.5,245C 460.508,244.426 459.008,243.259 458,241.5C 457.667,235.5 457.333,229.5 457,223.5C 456.333,222.167 455.667,222.167 455,223.5C 455.314,218.497 457.981,215.164 463,213.5C 463.495,211.527 463.662,209.527 463.5,207.5C 464.5,207.5 465.5,207.5 466.5,207.5C 466.281,208.675 466.614,209.675 467.5,210.5C 469.478,208.469 469.478,206.803 467.5,205.5C 467.167,200.5 466.833,195.5 466.5,190.5C 466.572,184.864 467.239,179.364 468.5,174C 466.355,161.854 466.188,149.687 468,137.5C 468.45,135.481 469.283,133.648 470.5,132C 472.409,131.552 473.576,132.385 474,134.5C 476.117,142.688 476.95,151.021 476.5,159.5C 477.5,159.5 478.5,159.5 479.5,159.5C 477.425,170.205 479.925,171.872 487,164.5C 488.009,162.975 488.509,161.308 488.5,159.5C 489.5,159.5 490.5,159.5 491.5,159.5C 491.5,154.167 491.5,148.833 491.5,143.5C 492.833,143.5 494.167,143.5 495.5,143.5C 495.5,138.167 495.5,132.833 495.5,127.5C 496.833,127.5 498.167,127.5 499.5,127.5C 499.5,122.167 499.5,116.833 499.5,111.5C 498.167,111.5 496.833,111.5 495.5,111.5C 495.5,100.833 495.5,90.1667 495.5,79.5C 494.167,79.5 492.833,79.5 491.5,79.5C 492.054,73.6049 491.388,67.9383 489.5,62.5C 490.588,60.0352 492.421,58.3686 495,57.5C 495.498,54.1832 495.665,50.8499 495.5,47.5C 494.167,47.5 492.833,47.5 491.5,47.5C 491.5,42.1667 491.5,36.8333 491.5,31.5C 487.5,31.5 483.5,31.5 479.5,31.5C 479.5,30.1667 479.5,28.8333 479.5,27.5C 474.167,27.5 468.833,27.5 463.5,27.5C 463.628,29.6547 463.128,31.6547 462,33.5C 457.667,37.5 453.333,41.5 449,45.5C 448.833,45.8333 448.667,46.1667 448.5,46.5C 450.045,47.4519 451.712,47.7852 453.5,47.5C 453.5,52.8333 453.5,58.1667 453.5,63.5C 451.5,63.5 449.5,63.5 447.5,63.5C 447.666,68.1785 447.499,72.8452 447,77.5C 446.25,78.1258 445.416,78.6258 444.5,79C 440.179,79.499 435.846,79.6657 431.5,79.5C 431.5,84.8333 431.5,90.1667 431.5,95.5C 430.167,95.5 428.833,95.5 427.5,95.5C 427.5,100.833 427.5,106.167 427.5,111.5C 425.5,111.5 423.5,111.5 421.5,111.5C 421.5,122.167 421.5,132.833 421.5,143.5C 419.5,143.5 417.5,143.5 415.5,143.5C 415.5,148.833 415.5,154.167 415.5,159.5C 414.167,159.5 412.833,159.5 411.5,159.5C 411.5,164.833 411.5,170.167 411.5,175.5C 401.653,175.437 391.987,175.437 382.5,175.5C 383.465,171.762 383.465,167.762 382.5,163.5C 376.521,169.212 374.187,167.878 375.5,159.5C 373.833,159.5 372.167,159.5 370.5,159.5C 370.162,162.157 370.829,164.49 372.5,166.5C 371.726,167.711 370.893,167.711 370,166.5C 369.833,167 369.667,167.5 369.5,168C 371.411,170.482 373.077,173.149 374.5,176C 373.944,176.383 373.611,176.883 373.5,177.5C 371.213,173.878 368.547,170.545 365.5,167.5C 361.23,158.679 354.23,153.179 344.5,151C 305.835,150.5 267.168,150.333 228.5,150.5C 211.78,150.558 195.114,151.391 178.5,153C 177.429,153.852 176.429,154.685 175.5,155.5C 166.399,162.227 157.066,168.727 147.5,175C 144.629,177.703 141.962,180.536 139.5,183.5C 138.778,183.082 138.278,182.416 138,181.5C 136.564,185.638 134.064,186.471 130.5,184C 129.167,182.333 129.167,180.667 130.5,179C 131.167,178.333 131.833,178.333 132.5,179C 133.155,180.487 134.155,181.653 135.5,182.5C 136.583,181.635 136.749,180.635 136,179.5C 133.961,177.743 132.461,175.576 131.5,173C 129.567,172.217 128.067,172.717 127,174.5C 125.303,173.636 124.137,172.303 123.5,170.5C 126.157,165.79 126.157,161.123 123.5,156.5C 123.719,154.085 125.052,153.085 127.5,153.5C 127.247,151.173 127.914,149.173 129.5,147.5C 128.833,146.5 128.167,145.5 127.5,144.5C 128.615,143.402 128.615,142.235 127.5,141C 129.735,139.355 130.735,140.188 130.5,143.5C 134.53,142.494 136.197,139.827 135.5,135.5C 143.831,136.162 152.164,136.829 160.5,137.5C 164.5,137.333 168.5,137.167 172.5,137C 173.263,136.056 174.263,135.556 175.5,135.5C 177.42,136.669 179.42,137.669 181.5,138.5C 187.993,137.856 194.326,136.689 200.5,135C 201.09,133.491 201.756,131.991 202.5,130.5C 204.603,132.88 205.77,132.213 206,128.5C 207.011,127.663 208.178,127.33 209.5,127.5C 209.484,123.726 211.15,122.726 214.5,124.5C 215.386,123.675 215.719,122.675 215.5,121.5C 212.795,121.62 212.128,120.62 213.5,118.5C 213.167,117.5 212.5,116.833 211.5,116.5C 210.186,117.313 209.019,118.313 208,119.5C 207.519,113.592 204.852,112.259 200,115.5C 197.254,114.857 194.421,114.524 191.5,114.5C 188.387,114.562 185.554,115.229 183,116.5C 182.261,114.779 181.427,113.113 180.5,111.5C 179.571,112.689 179.238,114.022 179.5,115.5C 178.5,115.5 177.5,115.5 176.5,115.5C 176.227,113.549 176.893,112.049 178.5,111C 176.787,109.622 175.453,107.955 174.5,106C 173.551,105.383 172.718,105.549 172,106.5C 172.67,111.042 170.836,113.709 166.5,114.5C 164.096,113.992 163.429,112.825 164.5,111C 163.91,109.491 163.244,107.991 162.5,106.5C 160.775,107.015 159.108,107.682 157.5,108.5C 157.977,109.478 158.643,110.311 159.5,111C 156.308,112.094 153.642,113.927 151.5,116.5C 149.19,118.483 146.523,119.483 143.5,119.5C 143.323,117.019 144.323,115.186 146.5,114C 145.584,113.626 144.75,113.126 144,112.5C 142.767,115.417 141.267,118.084 139.5,120.5C 139.324,118.328 139.157,115.995 139,113.5C 137.853,112.542 136.853,112.875 136,114.5C 135.833,114 135.667,113.5 135.5,113C 138.065,109.06 137.065,107.893 132.5,109.5C 132.5,107.5 132.5,105.5 132.5,103.5C 131.448,103.649 130.448,103.483 129.5,103C 131.061,102.059 132.395,100.892 133.5,99.5C 131.833,98.3333 130.167,97.1667 128.5,96C 129.093,92.3732 130.426,89.0399 132.5,86C 131.182,84.0104 129.848,82.0104 128.5,80C 129.402,77.7984 130.402,75.6317 131.5,73.5C 133.135,76.3143 134.635,79.3143 136,82.5C 137.325,78.8611 138.492,75.1944 139.5,71.5C 138.167,71.5 136.833,71.5 135.5,71.5C 137.754,66.9413 139.754,62.108 141.5,57C 141.37,55.9412 140.87,55.1079 140,54.5C 139.151,57.5214 138.317,60.5214 137.5,63.5C 136.022,63.762 134.689,63.4287 133.5,62.5C 134.879,58.6888 136.212,54.8555 137.5,51C 137.37,49.9412 136.87,49.1079 136,48.5C 135.326,49.5784 134.326,50.2451 133,50.5C 130.835,49.2495 128.501,48.2495 126,47.5C 122.188,48.5142 118.355,48.5142 114.5,47.5C 114.872,50.0217 114.039,52.0217 112,53.5C 109,52.1667 106,50.8333 103,49.5C 100.425,50.8644 98.4248,50.1977 97,47.5C 95.6992,48.8932 94.1992,49.3932 92.5,49C 91.0755,46.8995 89.7422,44.7328 88.5,42.5C 87.8076,43.0253 87.3076,43.6919 87,44.5C 86.0201,42.9411 85.1867,41.2744 84.5,39.5C 83.3377,44.4345 82.0044,44.6011 80.5,40C 81.3081,39.6924 81.9747,39.1924 82.5,38.5C 81.2402,37.6184 80.0736,36.6184 79,35.5C 78.084,38.524 76.584,41.1906 74.5,43.5C 72.5,42.5 70.5,41.5 68.5,40.5C 69.5,39.8333 70.5,39.1667 71.5,38.5C 68.2152,37.6764 64.8818,37.1764 61.5,37C 59.9716,35.6387 58.3049,34.472 56.5,33.5C 55.6143,34.325 55.281,35.325 55.5,36.5C 52.9512,36.3874 50.6179,37.0541 48.5,38.5C 47.671,43.4671 47.171,48.4671 47,53.5C 42.1364,55.1907 39.303,58.524 38.5,63.5C 36.1667,63.5 33.8333,63.5 31.5,63.5C 31.5,66.1667 31.5,68.8333 31.5,71.5C 25.0413,71.8075 22.0413,68.6408 22.5,62C 23.0831,59.5007 24.4164,57.5007 26.5,56C 24.1667,55.6667 21.8333,55.3333 19.5,55C 20.3567,54.3109 21.0233,53.4776 21.5,52.5C 18.8708,51.791 16.3708,50.791 14,49.5C 13.228,49.6448 12.5613,49.9781 12,50.5C 11.7978,52.2556 11.2978,53.9223 10.5,55.5C 8.92933,53.1178 8.096,50.4512 8,47.5C 7.66667,49.1667 7.33333,50.8333 7,52.5C 6.63971,50.5789 5.80638,48.9122 4.5,47.5C 3.83333,50.1667 3.16667,52.8333 2.5,55.5C 1.75702,50.6654 1.09035,45.832 0.5,41C 2.09784,39.2739 1.76451,38.4406 -0.5,38.5C -0.5,25.5 -0.5,12.5 -0.5,-0.5 Z"/></g>
<g><path style="opacity:1" fill="#618396" d="M 447.5,390.5 C 447.998,386.781 447.164,383.447 445,380.5C 443.963,382.218 443.463,384.051 443.5,386C 441.899,386.273 440.399,386.773 439,387.5C 436.673,383.278 437.173,379.445 440.5,376C 439.594,374.301 439.261,372.467 439.5,370.5C 438.5,370.5 437.5,370.5 436.5,370.5C 436.737,366.59 435.904,362.923 434,359.5C 433.704,362.706 433.204,365.872 432.5,369C 433.127,371.527 432.627,374.027 431,376.5C 430.667,374.833 430.333,373.167 430,371.5C 429.667,372.167 429.333,372.833 429,373.5C 428.567,371.336 429.067,369.336 430.5,367.5C 427.595,355.893 425.261,344.227 423.5,332.5C 427.438,332.157 428.438,330.157 426.5,326.5C 426.833,325.5 427.5,324.833 428.5,324.5C 429.425,325.641 430.259,325.641 431,324.5C 431.494,322.866 431.66,321.199 431.5,319.5C 428.482,319.335 425.482,319.502 422.5,320C 423.885,321.965 423.718,323.798 422,325.5C 420.25,323.296 418.417,321.296 416.5,319.5C 406.1,284.571 396.934,249.237 389,213.5C 385.827,202.827 381.327,192.827 375.5,183.5C 374.833,181.5 374.167,179.5 373.5,177.5C 373.611,176.883 373.944,176.383 374.5,176C 373.077,173.149 371.411,170.482 369.5,168C 369.667,167.5 369.833,167 370,166.5C 370.893,167.711 371.726,167.711 372.5,166.5C 370.829,164.49 370.162,162.157 370.5,159.5C 372.167,159.5 373.833,159.5 375.5,159.5C 374.187,167.878 376.521,169.212 382.5,163.5C 383.465,167.762 383.465,171.762 382.5,175.5C 391.987,175.437 401.653,175.437 411.5,175.5C 411.5,170.167 411.5,164.833 411.5,159.5C 412.833,159.5 414.167,159.5 415.5,159.5C 415.5,154.167 415.5,148.833 415.5,143.5C 417.5,143.5 419.5,143.5 421.5,143.5C 421.5,132.833 421.5,122.167 421.5,111.5C 423.5,111.5 425.5,111.5 427.5,111.5C 427.5,106.167 427.5,100.833 427.5,95.5C 428.833,95.5 430.167,95.5 431.5,95.5C 431.5,90.1667 431.5,84.8333 431.5,79.5C 435.846,79.6657 440.179,79.499 444.5,79C 445.416,78.6258 446.25,78.1258 447,77.5C 447.499,72.8452 447.666,68.1785 447.5,63.5C 449.5,63.5 451.5,63.5 453.5,63.5C 453.5,58.1667 453.5,52.8333 453.5,47.5C 451.712,47.7852 450.045,47.4519 448.5,46.5C 448.667,46.1667 448.833,45.8333 449,45.5C 453.333,41.5 457.667,37.5 462,33.5C 463.128,31.6547 463.628,29.6547 463.5,27.5C 468.833,27.5 474.167,27.5 479.5,27.5C 479.5,28.8333 479.5,30.1667 479.5,31.5C 483.5,31.5 487.5,31.5 491.5,31.5C 491.5,36.8333 491.5,42.1667 491.5,47.5C 492.833,47.5 494.167,47.5 495.5,47.5C 495.665,50.8499 495.498,54.1832 495,57.5C 492.421,58.3686 490.588,60.0352 489.5,62.5C 491.388,67.9383 492.054,73.6049 491.5,79.5C 492.833,79.5 494.167,79.5 495.5,79.5C 495.5,90.1667 495.5,100.833 495.5,111.5C 496.833,111.5 498.167,111.5 499.5,111.5C 499.5,116.833 499.5,122.167 499.5,127.5C 498.167,127.5 496.833,127.5 495.5,127.5C 495.5,132.833 495.5,138.167 495.5,143.5C 494.167,143.5 492.833,143.5 491.5,143.5C 491.5,148.833 491.5,154.167 491.5,159.5C 490.5,159.5 489.5,159.5 488.5,159.5C 488.509,161.308 488.009,162.975 487,164.5C 479.925,171.872 477.425,170.205 479.5,159.5C 478.5,159.5 477.5,159.5 476.5,159.5C 476.95,151.021 476.117,142.688 474,134.5C 473.576,132.385 472.409,131.552 470.5,132C 469.283,133.648 468.45,135.481 468,137.5C 466.188,149.687 466.355,161.854 468.5,174C 467.239,179.364 466.572,184.864 466.5,190.5C 466.833,195.5 467.167,200.5 467.5,205.5C 469.478,206.803 469.478,208.469 467.5,210.5C 466.614,209.675 466.281,208.675 466.5,207.5C 465.5,207.5 464.5,207.5 463.5,207.5C 463.662,209.527 463.495,211.527 463,213.5C 457.981,215.164 455.314,218.497 455,223.5C 455.667,222.167 456.333,222.167 457,223.5C 457.333,229.5 457.667,235.5 458,241.5C 459.008,243.259 460.508,244.426 462.5,245C 468.157,245.499 473.824,245.666 479.5,245.5C 479.5,238.167 479.5,230.833 479.5,223.5C 478.167,223.5 476.833,223.5 475.5,223.5C 476.166,207.509 476.5,191.509 476.5,175.5C 480.833,175.5 485.167,175.5 489.5,175.5C 489.494,183.548 488.828,191.548 487.5,199.5C 488.61,210.134 489.277,220.801 489.5,231.5C 489.055,244.855 488.388,258.188 487.5,271.5C 489.924,271.192 492.257,271.526 494.5,272.5C 489.667,277.5 484.833,282.5 480,287.5C 479.5,296.16 479.334,304.827 479.5,313.5C 474.167,313.5 468.833,313.5 463.5,313.5C 463.662,315.527 463.495,317.527 463,319.5C 458,314.167 453,308.833 448,303.5C 447.501,308.823 447.334,314.156 447.5,319.5C 448.833,319.5 450.167,319.5 451.5,319.5C 451.5,324.833 451.5,330.167 451.5,335.5C 450.167,335.5 448.833,335.5 447.5,335.5C 447.338,337.527 447.505,339.527 448,341.5C 452.763,343.262 455.763,346.596 457,351.5C 457.167,356.833 457.333,362.167 457.5,367.5C 457.603,373.911 457.103,380.244 456,386.5C 454.273,389.893 451.606,392.226 448,393.5C 447.517,392.552 447.351,391.552 447.5,390.5 Z"/></g>
<g><path style="opacity:1" fill="#618293" d="M 139.5,183.5 C 131.838,191.995 123.671,199.995 115,207.5C 111.34,213.313 109.173,219.646 108.5,226.5C 107.778,226.918 107.278,227.584 107,228.5C 106.5,248.164 106.333,267.831 106.5,287.5C 106.656,291.582 106.156,295.582 105,299.5C 100.302,312.571 95.3024,325.571 90,338.5C 88.4429,343.894 87.6096,349.394 87.5,355C 88.0162,367.526 88.8496,380.026 90,392.5C 91.1351,396.905 92.4685,401.238 94,405.5C 94.3541,415.958 95.6874,426.291 98,436.5C 99.4169,439.613 100.917,442.613 102.5,445.5C 102.5,446.167 102.5,446.833 102.5,447.5C 102.752,451.767 103.419,455.934 104.5,460C 109.58,459.045 113.247,461.045 115.5,466C 124.361,469.958 133.528,471.792 143,471.5C 146.183,468.377 149.517,467.377 153,468.5C 155.106,466.709 157.606,466.042 160.5,466.5C 164.325,467.074 167.991,468.241 171.5,470C 172.944,471.126 173.61,472.626 173.5,474.5C 170.794,486.909 167.794,499.243 164.5,511.5C 109.5,511.5 54.5,511.5 -0.5,511.5C -0.5,353.833 -0.5,196.167 -0.5,38.5C 1.76451,38.4406 2.09784,39.2739 0.5,41C 1.09035,45.832 1.75702,50.6654 2.5,55.5C 3.16667,52.8333 3.83333,50.1667 4.5,47.5C 5.80638,48.9122 6.63971,50.5789 7,52.5C 7.33333,50.8333 7.66667,49.1667 8,47.5C 8.096,50.4512 8.92933,53.1178 10.5,55.5C 11.2978,53.9223 11.7978,52.2556 12,50.5C 12.5613,49.9781 13.228,49.6448 14,49.5C 16.3708,50.791 18.8708,51.791 21.5,52.5C 21.0233,53.4776 20.3567,54.3109 19.5,55C 21.8333,55.3333 24.1667,55.6667 26.5,56C 24.4164,57.5007 23.0831,59.5007 22.5,62C 22.0413,68.6408 25.0413,71.8075 31.5,71.5C 31.5,68.8333 31.5,66.1667 31.5,63.5C 33.8333,63.5 36.1667,63.5 38.5,63.5C 39.303,58.524 42.1364,55.1907 47,53.5C 47.171,48.4671 47.671,43.4671 48.5,38.5C 50.6179,37.0541 52.9512,36.3874 55.5,36.5C 55.281,35.325 55.6143,34.325 56.5,33.5C 58.3049,34.472 59.9716,35.6387 61.5,37C 64.8818,37.1764 68.2152,37.6764 71.5,38.5C 70.5,39.1667 69.5,39.8333 68.5,40.5C 70.5,41.5 72.5,42.5 74.5,43.5C 76.584,41.1906 78.084,38.524 79,35.5C 80.0736,36.6184 81.2402,37.6184 82.5,38.5C 81.9747,39.1924 81.3081,39.6924 80.5,40C 82.0044,44.6011 83.3377,44.4345 84.5,39.5C 85.1867,41.2744 86.0201,42.9411 87,44.5C 87.3076,43.6919 87.8076,43.0253 88.5,42.5C 89.7422,44.7328 91.0755,46.8995 92.5,49C 94.1992,49.3932 95.6992,48.8932 97,47.5C 98.4248,50.1977 100.425,50.8644 103,49.5C 106,50.8333 109,52.1667 112,53.5C 114.039,52.0217 114.872,50.0217 114.5,47.5C 118.355,48.5142 122.188,48.5142 126,47.5C 128.501,48.2495 130.835,49.2495 133,50.5C 134.326,50.2451 135.326,49.5784 136,48.5C 136.87,49.1079 137.37,49.9412 137.5,51C 136.212,54.8555 134.879,58.6888 133.5,62.5C 134.689,63.4287 136.022,63.762 137.5,63.5C 138.317,60.5214 139.151,57.5214 140,54.5C 140.87,55.1079 141.37,55.9412 141.5,57C 139.754,62.108 137.754,66.9413 135.5,71.5C 136.833,71.5 138.167,71.5 139.5,71.5C 138.492,75.1944 137.325,78.8611 136,82.5C 134.635,79.3143 133.135,76.3143 131.5,73.5C 130.402,75.6317 129.402,77.7984 128.5,80C 129.848,82.0104 131.182,84.0104 132.5,86C 130.426,89.0399 129.093,92.3732 128.5,96C 130.167,97.1667 131.833,98.3333 133.5,99.5C 132.395,100.892 131.061,102.059 129.5,103C 130.448,103.483 131.448,103.649 132.5,103.5C 132.5,105.5 132.5,107.5 132.5,109.5C 137.065,107.893 138.065,109.06 135.5,113C 135.667,113.5 135.833,114 136,114.5C 136.853,112.875 137.853,112.542 139,113.5C 139.157,115.995 139.324,118.328 139.5,120.5C 141.267,118.084 142.767,115.417 144,112.5C 144.75,113.126 145.584,113.626 146.5,114C 144.323,115.186 143.323,117.019 143.5,119.5C 146.523,119.483 149.19,118.483 151.5,116.5C 153.642,113.927 156.308,112.094 159.5,111C 158.643,110.311 157.977,109.478 157.5,108.5C 159.108,107.682 160.775,107.015 162.5,106.5C 163.244,107.991 163.91,109.491 164.5,111C 163.429,112.825 164.096,113.992 166.5,114.5C 170.836,113.709 172.67,111.042 172,106.5C 172.718,105.549 173.551,105.383 174.5,106C 175.453,107.955 176.787,109.622 178.5,111C 176.893,112.049 176.227,113.549 176.5,115.5C 177.5,115.5 178.5,115.5 179.5,115.5C 179.238,114.022 179.571,112.689 180.5,111.5C 181.427,113.113 182.261,114.779 183,116.5C 185.554,115.229 188.387,114.562 191.5,114.5C 194.421,114.524 197.254,114.857 200,115.5C 204.852,112.259 207.519,113.592 208,119.5C 209.019,118.313 210.186,117.313 211.5,116.5C 212.5,116.833 213.167,117.5 213.5,118.5C 212.128,120.62 212.795,121.62 215.5,121.5C 215.719,122.675 215.386,123.675 214.5,124.5C 211.15,122.726 209.484,123.726 209.5,127.5C 208.178,127.33 207.011,127.663 206,128.5C 205.77,132.213 204.603,132.88 202.5,130.5C 201.756,131.991 201.09,133.491 200.5,135C 194.326,136.689 187.993,137.856 181.5,138.5C 179.42,137.669 177.42,136.669 175.5,135.5C 174.263,135.556 173.263,136.056 172.5,137C 168.5,137.167 164.5,137.333 160.5,137.5C 152.164,136.829 143.831,136.162 135.5,135.5C 136.197,139.827 134.53,142.494 130.5,143.5C 130.735,140.188 129.735,139.355 127.5,141C 128.615,142.235 128.615,143.402 127.5,144.5C 128.167,145.5 128.833,146.5 129.5,147.5C 127.914,149.173 127.247,151.173 127.5,153.5C 125.052,153.085 123.719,154.085 123.5,156.5C 126.157,161.123 126.157,165.79 123.5,170.5C 124.137,172.303 125.303,173.636 127,174.5C 128.067,172.717 129.567,172.217 131.5,173C 132.461,175.576 133.961,177.743 136,179.5C 136.749,180.635 136.583,181.635 135.5,182.5C 134.155,181.653 133.155,180.487 132.5,179C 131.833,178.333 131.167,178.333 130.5,179C 129.167,180.667 129.167,182.333 130.5,184C 134.064,186.471 136.564,185.638 138,181.5C 138.278,182.416 138.778,183.082 139.5,183.5 Z"/></g>
<g><path style="opacity:1" fill="#030303" d="M 228.5,150.5 C 267.168,150.333 305.835,150.5 344.5,151C 354.23,153.179 361.23,158.679 365.5,167.5C 367.148,171.711 368.648,176.044 370,180.5C 371.866,181.527 373.7,182.527 375.5,183.5C 381.327,192.827 385.827,202.827 389,213.5C 396.934,249.237 406.1,284.571 416.5,319.5C 424.902,340.046 427.735,361.379 425,383.5C 421.009,406.822 412.342,428.156 399,447.5C 387.168,459.999 372.668,466.999 355.5,468.5C 348.8,468.83 342.134,468.497 335.5,467.5C 334.315,466.147 332.981,464.98 331.5,464C 325.666,463.94 319.666,463.606 313.5,463C 311.352,460.846 308.852,459.346 306,458.5C 302.519,459.123 299.019,459.623 295.5,460C 298.167,460.333 300.833,460.667 303.5,461C 300.666,461.045 298.166,461.879 296,463.5C 295,462.833 294,462.167 293,461.5C 291.89,463.037 290.39,463.703 288.5,463.5C 288.649,462.448 288.483,461.448 288,460.5C 281.124,461.131 274.29,462.131 267.5,463.5C 269.641,475.971 271.308,488.305 272.5,500.5C 272.885,503.371 271.885,505.537 269.5,507C 270.308,507.308 270.975,507.808 271.5,508.5C 268.63,509.257 265.964,510.257 263.5,511.5C 230.5,511.5 197.5,511.5 164.5,511.5C 167.794,499.243 170.794,486.909 173.5,474.5C 173.61,472.626 172.944,471.126 171.5,470C 167.991,468.241 164.325,467.074 160.5,466.5C 157.949,465.155 155.116,464.489 152,464.5C 142.632,466.923 133.132,467.756 123.5,467C 114.366,462.696 107.366,456.196 102.5,447.5C 102.5,446.833 102.5,446.167 102.5,445.5C 103.293,442.376 102.293,439.71 99.5,437.5C 99.3426,435.111 99.676,432.611 100.5,430C 97.9338,426.647 97.2671,422.98 98.5,419C 98.0255,414.683 97.0255,410.516 95.5,406.5C 96.0253,405.808 96.6919,405.308 97.5,405C 96.3333,404.5 95.5,403.667 95,402.5C 90.0444,388.053 89.2111,373.386 92.5,358.5C 92.2935,355.377 91.6268,352.377 90.5,349.5C 91.5368,342.145 93.3701,334.811 96,327.5C 97.2812,327.619 98.4479,327.119 99.5,326C 99.1667,325.667 98.8333,325.333 98.5,325C 100.176,323.823 101.509,322.323 102.5,320.5C 101.624,319.749 100.624,319.249 99.5,319C 100.507,315.138 102.34,311.304 105,307.5C 107.043,300.994 107.876,294.327 107.5,287.5C 107.314,267.154 107.647,246.821 108.5,226.5C 109.173,219.646 111.34,213.313 115,207.5C 123.671,199.995 131.838,191.995 139.5,183.5C 141.962,180.536 144.629,177.703 147.5,175C 157.066,168.727 166.399,162.227 175.5,155.5C 192.03,152.983 208.697,151.816 225.5,152C 226.737,151.768 227.737,151.268 228.5,150.5 Z"/></g>
<g><path style="opacity:1" fill="#0c151b" d="M 228.5,150.5 C 227.737,151.268 226.737,151.768 225.5,152C 208.697,151.816 192.03,152.983 175.5,155.5C 176.429,154.685 177.429,153.852 178.5,153C 195.114,151.391 211.78,150.558 228.5,150.5 Z"/></g>
<g><path style="opacity:1" fill="#121a21" d="M 365.5,167.5 C 368.547,170.545 371.213,173.878 373.5,177.5C 374.167,179.5 374.833,181.5 375.5,183.5C 373.7,182.527 371.866,181.527 370,180.5C 368.648,176.044 367.148,171.711 365.5,167.5 Z"/></g>
<g><path style="opacity:1" fill="#02090b" d="M 303.5,230.5 C 299.4,230.763 295.4,230.43 291.5,229.5C 283.664,228.703 275.664,228.036 267.5,227.5C 262.603,229.479 257.603,231.313 252.5,233C 247.663,233.467 242.83,233.967 238,234.5C 225.262,232.664 212.429,231.997 199.5,232.5C 191.439,232.511 183.439,233.177 175.5,234.5C 172.728,234.22 170.228,234.887 168,236.5C 168.148,235.175 167.982,234.008 167.5,233C 169.741,231.261 171.408,229.094 172.5,226.5C 171.833,225.167 170.833,224.167 169.5,223.5C 168.167,225.5 166.5,227.167 164.5,228.5C 163.548,226.955 163.215,225.288 163.5,223.5C 164.833,223.5 166.167,223.5 167.5,223.5C 166.948,217.715 169.615,214.715 175.5,214.5C 186.125,213.169 196.792,212.503 207.5,212.5C 207.5,213.5 207.5,214.5 207.5,215.5C 218.167,215.5 228.833,215.5 239.5,215.5C 239.5,216.5 239.5,217.5 239.5,218.5C 244.833,218.5 250.167,218.5 255.5,218.5C 255.201,216.396 255.534,214.396 256.5,212.5C 260.626,210.381 264.959,208.715 269.5,207.5C 272.405,208.174 275.072,209.34 277.5,211C 278.573,212.25 278.573,213.584 277.5,215C 278.665,218.831 281.165,221.331 285,222.5C 285.414,222.043 285.914,221.709 286.5,221.5C 287.994,226.077 290.994,227.744 295.5,226.5C 298.341,227.708 301.007,229.041 303.5,230.5 Z"/></g>
<g><path style="opacity:1" fill="#504430" d="M 291.5,229.5 C 295.4,230.43 299.4,230.763 303.5,230.5C 303.5,230.833 303.5,231.167 303.5,231.5C 292.279,231.74 281.279,232.073 270.5,232.5C 268.708,232.366 267.042,232.699 265.5,233.5C 261.566,234.36 257.566,234.693 253.5,234.5C 265.666,230.114 278.333,228.447 291.5,229.5 Z"/></g>
<g><path style="opacity:1" fill="#151915" d="M 291.5,229.5 C 278.333,228.447 265.666,230.114 253.5,234.5C 253.167,234.5 252.833,234.5 252.5,234.5C 238.45,236.031 224.45,235.697 210.5,233.5C 206.833,233.5 203.167,233.5 199.5,233.5C 199.5,233.167 199.5,232.833 199.5,232.5C 212.429,231.997 225.262,232.664 238,234.5C 242.83,233.967 247.663,233.467 252.5,233C 257.603,231.313 262.603,229.479 267.5,227.5C 275.664,228.036 283.664,228.703 291.5,229.5 Z"/></g>
<g><path style="opacity:1" fill="#413529" d="M 199.5,232.5 C 199.5,232.833 199.5,233.167 199.5,233.5C 196.615,233.194 193.948,233.527 191.5,234.5C 186.681,234.352 182.015,235.018 177.5,236.5C 174.744,236.716 172.41,237.716 170.5,239.5C 171.2,236.8 172.866,235.133 175.5,234.5C 183.439,233.177 191.439,232.511 199.5,232.5 Z"/></g>
<g><path style="opacity:1" fill="#a5845d" d="M 270.5,232.5 C 281.279,232.073 292.279,231.74 303.5,231.5C 310.799,232.35 318.132,232.683 325.5,232.5C 322.124,234.082 318.458,234.749 314.5,234.5C 310.818,234.335 307.152,234.501 303.5,235C 304.833,235.667 304.833,236.333 303.5,237C 297.558,238.406 291.558,238.739 285.5,238C 286.96,236.418 288.627,235.085 290.5,234C 289.975,233.308 289.308,232.808 288.5,232.5C 286.821,234.104 284.821,234.771 282.5,234.5C 278.253,234.806 274.253,234.139 270.5,232.5 Z"/></g>
<g><path style="opacity:1" fill="#a0825c" d="M 199.5,233.5 C 203.167,233.5 206.833,233.5 210.5,233.5C 217.203,235.552 224.203,236.719 231.5,237C 232.529,238.698 234.029,239.532 236,239.5C 238.27,238.14 240.77,237.473 243.5,237.5C 246.167,237.5 248.833,237.5 251.5,237.5C 247.521,238.176 243.521,239.176 239.5,240.5C 236.166,242.084 233.166,241.584 230.5,239C 224.667,238.167 218.833,237.333 213,236.5C 211.011,236.921 209.177,237.588 207.5,238.5C 201.974,238.821 196.64,238.488 191.5,237.5C 189.708,236.691 187.708,236.191 185.5,236C 187.708,235.809 189.708,235.309 191.5,234.5C 193.948,233.527 196.615,233.194 199.5,233.5 Z"/></g>
<g><path style="opacity:1" fill="#41341b" d="M 210.5,233.5 C 224.45,235.697 238.45,236.031 252.5,234.5C 252.389,235.117 252.056,235.617 251.5,236C 248.635,236.183 245.969,236.683 243.5,237.5C 240.77,237.473 238.27,238.14 236,239.5C 234.029,239.532 232.529,238.698 231.5,237C 224.203,236.719 217.203,235.552 210.5,233.5 Z"/></g>
<g><path style="opacity:1" fill="#7f603d" d="M 265.5,233.5 C 265.389,234.117 265.056,234.617 264.5,235C 260.833,235.333 257.167,235.667 253.5,236C 252.944,236.383 252.611,236.883 252.5,237.5C 252.167,237.5 251.833,237.5 251.5,237.5C 248.833,237.5 246.167,237.5 243.5,237.5C 245.969,236.683 248.635,236.183 251.5,236C 252.056,235.617 252.389,235.117 252.5,234.5C 252.833,234.5 253.167,234.5 253.5,234.5C 257.566,234.693 261.566,234.36 265.5,233.5 Z"/></g>
<g><path style="opacity:1" fill="#be8e59" d="M 325.5,232.5 C 330.263,232.226 334.93,232.559 339.5,233.5C 340.824,236.795 339.491,238.128 335.5,237.5C 329.158,237.334 322.825,237.5 316.5,238C 315.263,238.232 314.263,238.732 313.5,239.5C 312.833,239.5 312.167,239.5 311.5,239.5C 307.911,240.298 304.578,241.631 301.5,243.5C 300.5,243.5 299.5,243.5 298.5,243.5C 298.5,242.5 298.5,241.5 298.5,240.5C 304.118,238.786 309.451,236.786 314.5,234.5C 318.458,234.749 322.124,234.082 325.5,232.5 Z"/></g>
<g><path style="opacity:1" fill="#7e5d30" d="M 339.5,233.5 C 341.28,234.99 341.946,236.99 341.5,239.5C 339.379,239.675 337.379,239.341 335.5,238.5C 335.5,238.167 335.5,237.833 335.5,237.5C 339.491,238.128 340.824,236.795 339.5,233.5 Z"/></g>
<g><path style="opacity:1" fill="#674f3b" d="M 177.5,236.5 C 175.854,238.146 174.188,239.812 172.5,241.5C 174.045,242.452 175.712,242.785 177.5,242.5C 175.052,243.473 172.385,243.806 169.5,243.5C 169.232,241.901 169.566,240.568 170.5,239.5C 172.41,237.716 174.744,236.716 177.5,236.5 Z"/></g>
<g><path style="opacity:1" fill="#937151" d="M 191.5,234.5 C 189.708,235.309 187.708,235.809 185.5,236C 187.708,236.191 189.708,236.691 191.5,237.5C 187.208,237.035 183.208,237.868 179.5,240C 180.793,240.49 182.127,240.657 183.5,240.5C 182.5,241.167 181.5,241.833 180.5,242.5C 179.5,242.5 178.5,242.5 177.5,242.5C 175.712,242.785 174.045,242.452 172.5,241.5C 174.188,239.812 175.854,238.146 177.5,236.5C 182.015,235.018 186.681,234.352 191.5,234.5 Z"/></g>
<g><path style="opacity:1" fill="#af8155" d="M 191.5,237.5 C 196.64,238.488 201.974,238.821 207.5,238.5C 207.5,238.833 207.5,239.167 207.5,239.5C 206.5,240.167 205.5,240.833 204.5,241.5C 202.833,241.5 201.167,241.5 199.5,241.5C 194.36,240.512 189.026,240.179 183.5,240.5C 182.127,240.657 180.793,240.49 179.5,240C 183.208,237.868 187.208,237.035 191.5,237.5 Z"/></g>
<g><path style="opacity:1" fill="#39240d" d="M 335.5,237.5 C 335.5,237.833 335.5,238.167 335.5,238.5C 328.132,238.317 320.799,238.65 313.5,239.5C 314.263,238.732 315.263,238.232 316.5,238C 322.825,237.5 329.158,237.334 335.5,237.5 Z"/></g>
<g><path style="opacity:1" fill="#39230f" d="M 183.5,240.5 C 189.026,240.179 194.36,240.512 199.5,241.5C 193.131,241.347 186.797,241.68 180.5,242.5C 181.5,241.833 182.5,241.167 183.5,240.5 Z"/></g>
<g><path style="opacity:1" fill="#bd9e71" d="M 239.5,240.5 C 238.091,242.417 236.424,244.25 234.5,246C 236.656,248.288 236.99,250.788 235.5,253.5C 234.25,253.423 233.417,252.756 233,251.5C 230.442,253.943 229.608,253.443 230.5,250C 228.89,248.505 227.224,248.339 225.5,249.5C 221.368,246.752 217.368,243.918 213.5,241C 211.564,240.187 209.564,239.687 207.5,239.5C 207.5,239.167 207.5,238.833 207.5,238.5C 209.177,237.588 211.011,236.921 213,236.5C 218.833,237.333 224.667,238.167 230.5,239C 233.166,241.584 236.166,242.084 239.5,240.5 Z"/></g>
<g><path style="opacity:1" fill="#2a1e0f" d="M 311.5,239.5 C 311.196,240.15 310.863,240.817 310.5,241.5C 313.428,242.484 316.428,242.817 319.5,242.5C 314.083,243.451 308.749,244.784 303.5,246.5C 302.833,246.5 302.167,246.5 301.5,246.5C 300.662,246.158 300.328,245.492 300.5,244.5C 301.167,244.5 301.5,244.167 301.5,243.5C 304.578,241.631 307.911,240.298 311.5,239.5 Z"/></g>
<g><path style="opacity:1" fill="#985e38" d="M 179.5,249.5 C 187.984,248.507 196.651,248.174 205.5,248.5C 206.5,249.167 207.5,249.833 208.5,250.5C 198.857,249.675 189.191,249.342 179.5,249.5 Z"/></g>
<g><path style="opacity:1" fill="#62492f" d="M 300.5,244.5 C 300.328,245.492 300.662,246.158 301.5,246.5C 299.194,248.139 297.194,250.139 295.5,252.5C 294.374,253.714 293.041,254.714 291.5,255.5C 290.068,255.267 289.568,254.6 290,253.5C 293.667,250.664 297.167,247.664 300.5,244.5 Z"/></g>
<g><path style="opacity:1" fill="#b47e38" d="M 339.5,245.5 C 340.167,245.5 340.5,245.833 340.5,246.5C 340.5,248.5 340.5,250.5 340.5,252.5C 338.833,252.5 337.167,252.5 335.5,252.5C 333.5,252.5 331.5,252.5 329.5,252.5C 331.292,251.691 333.292,251.191 335.5,251C 336.488,248.833 337.821,247 339.5,245.5 Z"/></g>
<g><path style="opacity:1" fill="#1e170b" d="M 216.5,246.5 C 219.135,247.811 221.469,249.478 223.5,251.5C 223.179,253.048 222.179,253.715 220.5,253.5C 219.391,253.443 218.391,253.11 217.5,252.5C 214.539,251.677 211.539,251.01 208.5,250.5C 207.5,249.833 206.5,249.167 205.5,248.5C 208.865,248.954 212.198,249.62 215.5,250.5C 216.5,250.167 217.5,249.833 218.5,249.5C 217.388,248.735 216.721,247.735 216.5,246.5 Z"/></g>
<g><path style="opacity:1" fill="#c18348" d="M 301.5,246.5 C 302.167,246.5 302.833,246.5 303.5,246.5C 302.993,247.859 301.993,248.859 300.5,249.5C 301.325,250.386 302.325,250.719 303.5,250.5C 303.5,251.833 303.5,253.167 303.5,254.5C 302.448,254.351 301.448,254.517 300.5,255C 302.473,255.495 304.473,255.662 306.5,255.5C 307.919,256.451 309.585,256.784 311.5,256.5C 307.702,257.483 303.702,257.817 299.5,257.5C 298.167,257.5 296.833,257.5 295.5,257.5C 294.167,255.833 294.167,254.167 295.5,252.5C 297.194,250.139 299.194,248.139 301.5,246.5 Z"/></g>
<g><path style="opacity:1" fill="#cea46f" d="M 265.5,236.5 C 266.984,237.473 267.484,238.807 267,240.5C 265.22,242.293 263.387,243.96 261.5,245.5C 263.003,247.422 265.003,248.588 267.5,249C 265.699,249.317 265.366,249.984 266.5,251C 265.687,252.314 264.687,253.481 263.5,254.5C 264.648,256.149 265.981,257.649 267.5,259C 265.216,260.363 265.049,261.863 267,263.5C 267.725,261.842 268.892,261.342 270.5,262C 271.627,263.753 272.627,265.587 273.5,267.5C 272.463,269.681 271.13,269.681 269.5,267.5C 268.833,267.667 268.167,267.833 267.5,268C 268.061,269.676 269.061,271.009 270.5,272C 269.725,274.608 268.725,277.108 267.5,279.5C 268.156,281.453 268.489,283.453 268.5,285.5C 265.282,284.531 262.282,282.531 259.5,279.5C 255.906,280.888 254.573,283.555 255.5,287.5C 253.833,287.5 252.167,287.5 250.5,287.5C 250.5,285.167 250.5,282.833 250.5,280.5C 249.178,280.33 248.011,280.663 247,281.5C 246.081,285.87 245.081,290.203 244,294.5C 244.278,290.861 244.278,287.194 244,283.5C 243.654,286.576 242.988,289.576 242,292.5C 239.667,292.833 237.333,293.167 235,293.5C 234.647,294.672 234.813,295.838 235.5,297C 233.799,298.86 232.799,301.027 232.5,303.5C 227.919,303.245 224.753,305.245 223,309.5C 219.027,309.358 216.86,307.358 216.5,303.5C 213.634,304.759 210.634,305.759 207.5,306.5C 210.963,303.9 214.629,301.4 218.5,299C 222.833,297.333 227.167,295.667 231.5,294C 232.26,292.559 232.926,291.059 233.5,289.5C 232.752,287.584 232.752,285.584 233.5,283.5C 233.5,283.167 233.5,282.833 233.5,282.5C 235.097,281.263 236.263,279.596 237,277.5C 237.33,274.511 238.164,271.678 239.5,269C 238.227,266.349 238.894,264.182 241.5,262.5C 241.023,261.522 240.357,260.689 239.5,260C 242.373,257.629 242.039,255.796 238.5,254.5C 235.552,257.499 234.552,257.166 235.5,253.5C 236.99,250.788 236.656,248.288 234.5,246C 236.424,244.25 238.091,242.417 239.5,240.5C 243.521,239.176 247.521,238.176 251.5,237.5C 251.833,237.5 252.167,237.5 252.5,237.5C 256.768,236.627 261.102,236.294 265.5,236.5 Z"/></g>
<g><path style="opacity:1" fill="#cf8a38" d="M 319.5,242.5 C 326.261,243.505 332.928,244.505 339.5,245.5C 337.821,247 336.488,248.833 335.5,251C 333.292,251.191 331.292,251.691 329.5,252.5C 321.855,253.68 314.188,254.68 306.5,255.5C 304.473,255.662 302.473,255.495 300.5,255C 301.448,254.517 302.448,254.351 303.5,254.5C 303.5,253.167 303.5,251.833 303.5,250.5C 302.325,250.719 301.325,250.386 300.5,249.5C 301.993,248.859 302.993,247.859 303.5,246.5C 308.749,244.784 314.083,243.451 319.5,242.5 Z"/></g>
<g><path style="opacity:1" fill="#e2812a" d="M 175.5,250.5 C 186.186,250.818 196.853,251.485 207.5,252.5C 200.679,253.167 194.012,253.833 187.5,254.5C 183.154,254.334 178.821,254.501 174.5,255C 172.494,255.083 171.494,255.583 171.5,256.5C 170.833,257.167 170.167,257.833 169.5,258.5C 167.972,258.483 167.472,257.816 168,256.5C 170.114,253.879 172.614,251.879 175.5,250.5 Z"/></g>
<g><path style="opacity:1" fill="#c06d27" d="M 175.5,250.5 C 176.568,249.566 177.901,249.232 179.5,249.5C 189.191,249.342 198.857,249.675 208.5,250.5C 211.539,251.01 214.539,251.677 217.5,252.5C 217.577,253.75 218.244,254.583 219.5,255C 218.552,255.483 217.552,255.649 216.5,255.5C 213.5,255.5 210.5,255.5 207.5,255.5C 201.021,254.509 194.354,254.176 187.5,254.5C 194.012,253.833 200.679,253.167 207.5,252.5C 196.853,251.485 186.186,250.818 175.5,250.5 Z"/></g>
<g><path style="opacity:1" fill="#68482b" d="M 223.5,251.5 C 224.5,251.833 225.167,252.5 225.5,253.5C 224.432,254.434 223.099,254.768 221.5,254.5C 220.833,254.5 220.5,254.167 220.5,253.5C 222.179,253.715 223.179,253.048 223.5,251.5 Z"/></g>
<g><path style="opacity:1" fill="#c1986c" d="M 270.5,232.5 C 274.253,234.139 278.253,234.806 282.5,234.5C 277.775,238.002 277.442,242.168 281.5,247C 280.669,250.022 282.002,251.522 285.5,251.5C 285.623,254.374 286.623,256.874 288.5,259C 286.789,260.133 286.289,261.633 287,263.5C 289.653,265.155 291.986,267.155 294,269.5C 296.405,274.212 298.905,278.878 301.5,283.5C 305.634,287.767 309.967,288.433 314.5,285.5C 321.569,286.796 328.569,288.796 335.5,291.5C 336.098,292.795 336.598,294.128 337,295.5C 337.183,292.635 337.683,289.969 338.5,287.5C 338.5,295.833 338.5,304.167 338.5,312.5C 337.698,313.952 337.198,315.618 337,317.5C 336.667,314.5 336.333,311.5 336,308.5C 334.883,310.124 333.383,311.124 331.5,311.5C 327.448,310.069 324.615,307.403 323,303.5C 320.277,300.576 316.944,298.576 313,297.5C 310.576,299.161 308.742,298.661 307.5,296C 304.42,295.234 301.42,294.234 298.5,293C 294.088,289.71 289.588,286.544 285,283.5C 283.778,280.211 281.945,277.378 279.5,275C 278.427,273.584 278.427,272.25 279.5,271C 275.415,267.323 274.582,262.823 277,257.5C 278.044,258.623 278.71,259.956 279,261.5C 279.273,259.899 279.773,258.399 280.5,257C 278.691,254.151 277.691,250.985 277.5,247.5C 274.679,247.684 273.012,246.351 272.5,243.5C 273.628,242.738 274.795,242.071 276,241.5C 277.145,239.749 277.645,237.916 277.5,236C 274.221,234.851 270.887,234.018 267.5,233.5C 267.715,235.179 267.048,236.179 265.5,236.5C 261.102,236.294 256.768,236.627 252.5,237.5C 252.611,236.883 252.944,236.383 253.5,236C 257.167,235.667 260.833,235.333 264.5,235C 265.056,234.617 265.389,234.117 265.5,233.5C 267.042,232.699 268.708,232.366 270.5,232.5 Z"/></g>
<g><path style="opacity:1" fill="#b99064" d="M 314.5,234.5 C 309.451,236.786 304.118,238.786 298.5,240.5C 298.5,241.5 298.5,242.5 298.5,243.5C 299.5,243.5 300.5,243.5 301.5,243.5C 301.5,244.167 301.167,244.5 300.5,244.5C 297.167,247.664 293.667,250.664 290,253.5C 289.568,254.6 290.068,255.267 291.5,255.5C 293.041,254.714 294.374,253.714 295.5,252.5C 294.167,254.167 294.167,255.833 295.5,257.5C 294.244,257.461 293.244,257.961 292.5,259C 293.061,260.676 294.061,262.009 295.5,263C 295.167,263.333 294.833,263.667 294.5,264C 296.886,264.284 297.552,265.284 296.5,267C 299.98,267.262 303.647,267.762 307.5,268.5C 308.957,270.849 310.291,273.182 311.5,275.5C 313.5,275.833 315.5,276.167 317.5,276.5C 316.895,278.026 315.729,279.026 314,279.5C 312.534,277.675 310.701,277.175 308.5,278C 310.768,280.418 312.768,282.918 314.5,285.5C 309.967,288.433 305.634,287.767 301.5,283.5C 298.905,278.878 296.405,274.212 294,269.5C 291.986,267.155 289.653,265.155 287,263.5C 286.289,261.633 286.789,260.133 288.5,259C 286.623,256.874 285.623,254.374 285.5,251.5C 282.002,251.522 280.669,250.022 281.5,247C 277.442,242.168 277.775,238.002 282.5,234.5C 284.821,234.771 286.821,234.104 288.5,232.5C 289.308,232.808 289.975,233.308 290.5,234C 288.627,235.085 286.96,236.418 285.5,238C 291.558,238.739 297.558,238.406 303.5,237C 304.833,236.333 304.833,235.667 303.5,235C 307.152,234.501 310.818,234.335 314.5,234.5 Z"/></g>
<g><path style="opacity:1" fill="#893700" d="M 187.5,254.5 C 194.354,254.176 201.021,254.509 207.5,255.5C 196.654,255.172 185.987,255.506 175.5,256.5C 174.167,256.5 172.833,256.5 171.5,256.5C 171.494,255.583 172.494,255.083 174.5,255C 178.821,254.501 183.154,254.334 187.5,254.5 Z"/></g>
<g><path style="opacity:1" fill="#c69d6c" d="M 207.5,239.5 C 209.564,239.687 211.564,240.187 213.5,241C 217.368,243.918 221.368,246.752 225.5,249.5C 227.224,248.339 228.89,248.505 230.5,250C 229.608,253.443 230.442,253.943 233,251.5C 233.417,252.756 234.25,253.423 235.5,253.5C 234.552,257.166 235.552,257.499 238.5,254.5C 242.039,255.796 242.373,257.629 239.5,260C 240.357,260.689 241.023,261.522 241.5,262.5C 238.894,264.182 238.227,266.349 239.5,269C 238.164,271.678 237.33,274.511 237,277.5C 236.263,279.596 235.097,281.263 233.5,282.5C 234.421,277.924 234.755,273.424 234.5,269C 233.571,264.581 231.571,260.747 228.5,257.5C 227.878,255.878 226.878,254.545 225.5,253.5C 225.167,252.5 224.5,251.833 223.5,251.5C 221.469,249.478 219.135,247.811 216.5,246.5C 212.998,243.752 208.998,242.086 204.5,241.5C 205.5,240.833 206.5,240.167 207.5,239.5 Z"/></g>
<g><path style="opacity:1" fill="#8f5613" d="M 329.5,252.5 C 331.5,252.5 333.5,252.5 335.5,252.5C 334.167,253.167 332.833,253.833 331.5,254.5C 328.941,254.198 326.607,254.532 324.5,255.5C 320.202,256.2 315.869,256.533 311.5,256.5C 309.585,256.784 307.919,256.451 306.5,255.5C 314.188,254.68 321.855,253.68 329.5,252.5 Z"/></g>
<g><path style="opacity:1" fill="#3d2504" d="M 175.5,256.5 C 185.987,255.506 196.654,255.172 207.5,255.5C 207.5,256.167 207.5,256.833 207.5,257.5C 201.167,257.5 194.833,257.5 188.5,257.5C 184.19,256.92 179.857,256.586 175.5,256.5 Z"/></g>
<g><path style="opacity:1" fill="#804815" d="M 207.5,255.5 C 210.5,255.5 213.5,255.5 216.5,255.5C 216.804,256.15 217.137,256.817 217.5,257.5C 214.232,258.487 210.898,258.82 207.5,258.5C 207.5,258.167 207.5,257.833 207.5,257.5C 207.5,256.833 207.5,256.167 207.5,255.5 Z"/></g>
<g><path style="opacity:1" fill="#c88c4f" d="M 188.5,257.5 C 194.833,257.5 201.167,257.5 207.5,257.5C 207.5,257.833 207.5,258.167 207.5,258.5C 204.299,260.26 200.633,261.094 196.5,261C 193.766,261.998 192.099,263.832 191.5,266.5C 187.092,266.925 182.758,267.592 178.5,268.5C 176.167,268.5 173.833,268.5 171.5,268.5C 172.833,266.5 172.833,264.5 171.5,262.5C 174.002,262.749 176.502,263.083 179,263.5C 186.079,261.625 193.246,260.125 200.5,259C 196.312,258.824 192.312,258.324 188.5,257.5 Z"/></g>
<g><path style="opacity:1" fill="#552f14" d="M 169.5,252.5 C 166.179,256.135 164.845,260.469 165.5,265.5C 164.226,261.926 164.393,258.259 166,254.5C 166.816,253.177 167.983,252.511 169.5,252.5 Z"/></g>
<g><path style="opacity:1" fill="#d8a160" d="M 324.5,255.5 C 327.5,255.5 330.5,255.5 333.5,255.5C 333.703,257.39 333.037,258.89 331.5,260C 321.758,264.095 312.258,263.595 303,258.5C 301.421,259.8 300.255,259.466 299.5,257.5C 303.702,257.817 307.702,257.483 311.5,256.5C 315.869,256.533 320.202,256.2 324.5,255.5 Z"/></g>
<g><path style="opacity:1" fill="#da9b52" d="M 171.5,256.5 C 172.833,256.5 174.167,256.5 175.5,256.5C 179.857,256.586 184.19,256.92 188.5,257.5C 192.312,258.324 196.312,258.824 200.5,259C 193.246,260.125 186.079,261.625 179,263.5C 176.502,263.083 174.002,262.749 171.5,262.5C 169.824,261.817 169.157,260.483 169.5,258.5C 170.167,257.833 170.833,257.167 171.5,256.5 Z"/></g>
<g><path style="opacity:1" fill="#c1905a" d="M 324.5,255.5 C 326.607,254.532 328.941,254.198 331.5,254.5C 333.167,254.5 334.833,254.5 336.5,254.5C 336.51,258.503 334.843,261.503 331.5,263.5C 323.841,266.432 315.841,268.099 307.5,268.5C 303.647,267.762 299.98,267.262 296.5,267C 297.552,265.284 296.886,264.284 294.5,264C 294.833,263.667 295.167,263.333 295.5,263C 294.061,262.009 293.061,260.676 292.5,259C 293.244,257.961 294.244,257.461 295.5,257.5C 296.833,257.5 298.167,257.5 299.5,257.5C 300.255,259.466 301.421,259.8 303,258.5C 312.258,263.595 321.758,264.095 331.5,260C 333.037,258.89 333.703,257.39 333.5,255.5C 330.5,255.5 327.5,255.5 324.5,255.5 Z"/></g>
<g><path style="opacity:1" fill="#c2732b" d="M 175.5,250.5 C 172.614,251.879 170.114,253.879 168,256.5C 167.472,257.816 167.972,258.483 169.5,258.5C 169.157,260.483 169.824,261.817 171.5,262.5C 172.833,264.5 172.833,266.5 171.5,268.5C 170.5,268.5 169.5,268.5 168.5,268.5C 168.715,266.821 168.048,265.821 166.5,265.5C 166.167,265.5 165.833,265.5 165.5,265.5C 164.845,260.469 166.179,256.135 169.5,252.5C 171.102,250.926 173.102,250.259 175.5,250.5 Z"/></g>
<g><path style="opacity:1" fill="#8f7857" d="M 338.5,258.5 C 338.5,262.833 338.5,267.167 338.5,271.5C 338.663,273.857 338.497,276.19 338,278.5C 336.873,275.623 336.206,272.623 336,269.5C 335.586,269.957 335.086,270.291 334.5,270.5C 333.353,268.235 333.186,265.902 334,263.5C 335.517,261.76 337.017,260.094 338.5,258.5 Z"/></g>
<g><path style="opacity:1" fill="#ab7747" d="M 217.5,252.5 C 218.391,253.11 219.391,253.443 220.5,253.5C 220.5,254.167 220.833,254.5 221.5,254.5C 221.5,254.833 221.5,255.167 221.5,255.5C 221.714,257.144 221.38,258.644 220.5,260C 221.448,260.483 222.448,260.649 223.5,260.5C 223.071,264.459 224.071,267.959 226.5,271C 224.231,271.758 222.064,271.591 220,270.5C 215.494,274.414 210.994,274.414 206.5,270.5C 202.66,273.691 198.326,274.358 193.5,272.5C 188.962,272.597 184.629,273.93 180.5,276.5C 178.471,274.542 176.137,274.542 173.5,276.5C 172.893,276.376 172.56,276.043 172.5,275.5C 173.806,274.533 174.473,273.199 174.5,271.5C 176.619,271.532 177.952,270.532 178.5,268.5C 182.758,267.592 187.092,266.925 191.5,266.5C 192.099,263.832 193.766,261.998 196.5,261C 200.633,261.094 204.299,260.26 207.5,258.5C 210.898,258.82 214.232,258.487 217.5,257.5C 217.137,256.817 216.804,256.15 216.5,255.5C 217.552,255.649 218.552,255.483 219.5,255C 218.244,254.583 217.577,253.75 217.5,252.5 Z"/></g>
<g><path style="opacity:1" fill="#7f633d" d="M 340.5,246.5 C 341.833,271.833 341.833,297.167 340.5,322.5C 340.5,308.833 340.5,295.167 340.5,281.5C 341.069,277.671 340.402,274.337 338.5,271.5C 338.5,267.167 338.5,262.833 338.5,258.5C 338.771,256.62 338.104,255.287 336.5,254.5C 334.833,254.5 333.167,254.5 331.5,254.5C 332.833,253.833 334.167,253.167 335.5,252.5C 337.167,252.5 338.833,252.5 340.5,252.5C 340.5,250.5 340.5,248.5 340.5,246.5 Z"/></g>
<g><path style="opacity:1" fill="#ac8155" d="M 331.5,263.5 C 331.545,268.144 329.879,271.978 326.5,275C 327.598,275.77 327.598,276.603 326.5,277.5C 323.391,277.736 320.391,277.403 317.5,276.5C 315.5,276.167 313.5,275.833 311.5,275.5C 310.291,273.182 308.957,270.849 307.5,268.5C 315.841,268.099 323.841,266.432 331.5,263.5 Z"/></g>
<g><path style="opacity:1" fill="#a7784c" d="M 221.5,255.5 C 223.257,256.084 224.59,257.251 225.5,259C 226.487,264.777 227.82,270.277 229.5,275.5C 227.173,275.335 225.007,274.669 223,273.5C 222.626,274.416 222.126,275.25 221.5,276C 211.625,276.564 201.958,276.397 192.5,275.5C 188.223,275.991 184.223,277.324 180.5,279.5C 178.584,278.752 176.584,278.752 174.5,279.5C 174.719,280.675 174.386,281.675 173.5,282.5C 172.719,281.271 172.219,279.938 172,278.5C 168.917,284.398 167.751,290.731 168.5,297.5C 168.167,297.5 167.833,297.5 167.5,297.5C 167.5,288.833 167.5,280.167 167.5,271.5C 168.163,273.042 168.83,274.709 169.5,276.5C 170.417,275.873 171.417,275.539 172.5,275.5C 172.56,276.043 172.893,276.376 173.5,276.5C 176.137,274.542 178.471,274.542 180.5,276.5C 184.629,273.93 188.962,272.597 193.5,272.5C 198.326,274.358 202.66,273.691 206.5,270.5C 210.994,274.414 215.494,274.414 220,270.5C 222.064,271.591 224.231,271.758 226.5,271C 224.071,267.959 223.071,264.459 223.5,260.5C 222.448,260.649 221.448,260.483 220.5,260C 221.38,258.644 221.714,257.144 221.5,255.5 Z"/></g>
<g><path style="opacity:1" fill="#4d6872" d="M 108.5,226.5 C 107.647,246.821 107.314,267.154 107.5,287.5C 107.167,287.5 106.833,287.5 106.5,287.5C 106.333,267.831 106.5,248.164 107,228.5C 107.278,227.584 107.778,226.918 108.5,226.5 Z"/></g>
<g><path style="opacity:1" fill="#aa6c33" d="M 166.5,265.5 C 168.048,265.821 168.715,266.821 168.5,268.5C 169.5,268.5 170.5,268.5 171.5,268.5C 173.833,268.5 176.167,268.5 178.5,268.5C 177.952,270.532 176.619,271.532 174.5,271.5C 174.473,273.199 173.806,274.533 172.5,275.5C 171.417,275.539 170.417,275.873 169.5,276.5C 168.83,274.709 168.163,273.042 167.5,271.5C 167.483,269.435 167.15,267.435 166.5,265.5 Z"/></g>
<g><path style="opacity:1" fill="#a08057" d="M 336.5,254.5 C 338.104,255.287 338.771,256.62 338.5,258.5C 337.017,260.094 335.517,261.76 334,263.5C 333.186,265.902 333.353,268.235 334.5,270.5C 335.086,270.291 335.586,269.957 336,269.5C 336.206,272.623 336.873,275.623 338,278.5C 338.497,276.19 338.663,273.857 338.5,271.5C 340.402,274.337 341.069,277.671 340.5,281.5C 339.5,281.833 338.833,282.5 338.5,283.5C 337.069,281.563 335.402,279.73 333.5,278C 331.19,277.503 328.857,277.337 326.5,277.5C 327.598,276.603 327.598,275.77 326.5,275C 329.879,271.978 331.545,268.144 331.5,263.5C 334.843,261.503 336.51,258.503 336.5,254.5 Z"/></g>
<g><path style="opacity:1" fill="#b08d66" d="M 317.5,276.5 C 320.391,277.403 323.391,277.736 326.5,277.5C 328.857,277.337 331.19,277.503 333.5,278C 335.402,279.73 337.069,281.563 338.5,283.5C 338.5,284.833 338.5,286.167 338.5,287.5C 337.683,289.969 337.183,292.635 337,295.5C 336.598,294.128 336.098,292.795 335.5,291.5C 328.569,288.796 321.569,286.796 314.5,285.5C 312.768,282.918 310.768,280.418 308.5,278C 310.701,277.175 312.534,277.675 314,279.5C 315.729,279.026 316.895,278.026 317.5,276.5 Z"/></g>
<g><path style="opacity:1" fill="#4e321a" d="M 165.5,265.5 C 165.833,265.5 166.167,265.5 166.5,265.5C 167.15,267.435 167.483,269.435 167.5,271.5C 167.5,280.167 167.5,288.833 167.5,297.5C 166.74,286.983 166.073,276.317 165.5,265.5 Z"/></g>
<g><path style="opacity:1" fill="#ac8157" d="M 225.5,253.5 C 226.878,254.545 227.878,255.878 228.5,257.5C 227.923,261.869 228.757,265.869 231,269.5C 231.667,273.167 231.667,276.833 231,280.5C 228.763,278.796 226.263,277.796 223.5,277.5C 223.5,278.833 223.5,280.167 223.5,281.5C 210.892,281.656 198.225,282.156 185.5,283C 183.833,283.333 182.167,283.667 180.5,284C 179.663,285.011 179.33,286.178 179.5,287.5C 175.515,287.44 173.848,289.44 174.5,293.5C 172.833,293.5 171.167,293.5 169.5,293.5C 169.5,307.5 169.5,321.5 169.5,335.5C 168.505,323.011 168.171,310.344 168.5,297.5C 167.751,290.731 168.917,284.398 172,278.5C 172.219,279.938 172.719,281.271 173.5,282.5C 174.386,281.675 174.719,280.675 174.5,279.5C 176.584,278.752 178.584,278.752 180.5,279.5C 184.223,277.324 188.223,275.991 192.5,275.5C 201.958,276.397 211.625,276.564 221.5,276C 222.126,275.25 222.626,274.416 223,273.5C 225.007,274.669 227.173,275.335 229.5,275.5C 227.82,270.277 226.487,264.777 225.5,259C 224.59,257.251 223.257,256.084 221.5,255.5C 221.5,255.167 221.5,254.833 221.5,254.5C 223.099,254.768 224.432,254.434 225.5,253.5 Z"/></g>
<g><path style="opacity:1" fill="#d1a372" d="M 268.5,285.5 C 272.412,286.993 272.079,287.66 267.5,287.5C 267.673,290.179 268.673,292.513 270.5,294.5C 268.257,295.474 265.924,295.808 263.5,295.5C 263.5,298.167 263.5,300.833 263.5,303.5C 260.833,303.5 258.167,303.5 255.5,303.5C 255.5,304.833 255.5,306.167 255.5,307.5C 258.167,307.5 260.833,307.5 263.5,307.5C 263.82,310.898 263.487,314.232 262.5,317.5C 260.931,318.714 260.098,320.381 260,322.5C 258.057,322.959 256.724,321.959 256,319.5C 255.589,326.067 252.089,328.733 245.5,327.5C 245.5,328.833 245.5,330.167 245.5,331.5C 243.064,331.317 240.897,331.984 239,333.5C 234.573,329.647 233.407,324.981 235.5,319.5C 239.421,319.24 241.754,317.24 242.5,313.5C 240.794,311.097 239.461,308.43 238.5,305.5C 235.268,307.861 234.268,310.861 235.5,314.5C 235.234,316.66 234.234,318.326 232.5,319.5C 232.931,320.293 233.265,321.127 233.5,322C 231.846,324.042 230.012,325.876 228,327.5C 227.668,332.213 227.835,336.713 228.5,341C 227.377,343.939 225.711,346.439 223.5,348.5C 221.168,349.162 220.501,350.495 221.5,352.5C 220.092,353.243 218.759,354.077 217.5,355C 218.449,355.617 219.282,355.451 220,354.5C 220.499,358.821 220.666,363.154 220.5,367.5C 221.5,367.5 222.5,367.5 223.5,367.5C 223.5,365.833 223.5,364.167 223.5,362.5C 226.11,361.498 228.776,361.665 231.5,363C 232.289,366.097 233.456,366.264 235,363.5C 235.167,364.167 235.333,364.833 235.5,365.5C 232.96,368.039 232.126,371.039 233,374.5C 236.648,376.684 240.481,377.018 244.5,375.5C 250.752,377.24 257.086,378.573 263.5,379.5C 265.099,379.232 266.432,379.566 267.5,380.5C 257.626,380.796 247.793,380.463 238,379.5C 235.495,379.994 233.661,381.328 232.5,383.5C 232.167,383.5 231.833,383.5 231.5,383.5C 228.833,384.167 226.167,384.833 223.5,385.5C 225.203,393.112 228.87,399.612 234.5,405C 236.134,405.494 237.801,405.66 239.5,405.5C 244.482,407.739 249.816,408.739 255.5,408.5C 247.682,409.861 240.015,408.861 232.5,405.5C 231.369,407.074 231.202,408.741 232,410.5C 233.353,411.685 234.52,413.019 235.5,414.5C 236.689,415.429 238.022,415.762 239.5,415.5C 239.316,418.321 240.649,419.988 243.5,420.5C 247.787,418.948 252.12,418.615 256.5,419.5C 258.839,418.122 261.172,416.789 263.5,415.5C 266.071,416.353 268.738,416.353 271.5,415.5C 271.5,414.5 271.5,413.5 271.5,412.5C 276.911,411.751 282.245,410.751 287.5,409.5C 287.5,407.833 287.5,406.167 287.5,404.5C 291.355,405.155 294.188,403.821 296,400.5C 296.893,401.081 297.893,401.415 299,401.5C 301.059,400.382 303.226,399.715 305.5,399.5C 305.798,396.735 306.798,394.235 308.5,392C 307.483,390.951 307.316,389.784 308,388.5C 311.991,384.555 312.491,380.222 309.5,375.5C 310.771,368.853 312.271,362.186 314,355.5C 315.441,354.74 316.941,354.074 318.5,353.5C 321.237,356.303 323.571,356.136 325.5,353C 323.613,348.617 322.447,344.117 322,339.5C 324.2,337.169 326.2,337.169 328,339.5C 331.658,335.641 330.824,333.307 325.5,332.5C 325.194,329.722 324.194,327.222 322.5,325C 322.509,323.596 323.009,322.43 324,321.5C 326.852,323.335 329.686,325.169 332.5,327C 334.134,327.494 335.801,327.66 337.5,327.5C 338.164,322.527 338.497,317.527 338.5,312.5C 338.5,304.167 338.5,295.833 338.5,287.5C 338.5,286.167 338.5,284.833 338.5,283.5C 338.833,282.5 339.5,281.833 340.5,281.5C 340.5,295.167 340.5,308.833 340.5,322.5C 340.5,325.167 340.5,327.833 340.5,330.5C 339.668,347.328 339.168,364.328 339,381.5C 338.174,384.793 337.674,388.126 337.5,391.5C 337.5,391.833 337.5,392.167 337.5,392.5C 335.837,394.438 335.171,396.772 335.5,399.5C 333.659,401.849 332.326,404.515 331.5,407.5C 329.755,409.033 328.755,411.033 328.5,413.5C 327.833,415.167 327.167,416.833 326.5,418.5C 320.397,426.27 313.064,432.603 304.5,437.5C 302.208,437.244 300.041,437.577 298,438.5C 297.383,437.551 297.549,436.718 298.5,436C 296.86,434.605 295.36,433.105 294,431.5C 293.161,432.624 291.994,433.291 290.5,433.5C 284.205,431.769 277.871,431.435 271.5,432.5C 276.63,433.401 281.963,434.401 287.5,435.5C 287.5,436.5 287.5,437.5 287.5,438.5C 281.865,438.393 276.532,438.059 271.5,437.5C 271.966,439.201 271.966,440.701 271.5,442C 262.648,442.869 253.981,444.036 245.5,445.5C 241.265,446.436 236.931,446.769 232.5,446.5C 232.167,446.5 231.833,446.5 231.5,446.5C 229.064,445.129 226.397,444.129 223.5,443.5C 222.313,441.025 220.313,440.025 217.5,440.5C 215.515,436.173 212.181,433.84 207.5,433.5C 205.246,432.585 203.246,431.252 201.5,429.5C 200.415,427.413 198.749,426.08 196.5,425.5C 191.93,421.386 187.597,417.053 183.5,412.5C 177.102,403.961 173.268,394.295 172,383.5C 171.167,372.846 170.667,362.18 170.5,351.5C 170.5,335.5 170.5,319.5 170.5,303.5C 172.124,303.36 173.29,304.027 174,305.5C 174.333,305.167 174.667,304.833 175,304.5C 175.7,306.032 176.866,307.032 178.5,307.5C 181.538,305.481 184.871,304.314 188.5,304C 186.527,303.505 184.527,303.338 182.5,303.5C 182.358,299.777 183.691,298.944 186.5,301C 190.541,301.173 194.541,301.673 198.5,302.5C 196.234,303.314 193.9,303.814 191.5,304C 195.671,305.633 199.671,305.466 203.5,303.5C 204.167,304.5 204.833,305.5 205.5,306.5C 206.429,307.55 207.095,307.55 207.5,306.5C 210.634,305.759 213.634,304.759 216.5,303.5C 216.86,307.358 219.027,309.358 223,309.5C 224.753,305.245 227.919,303.245 232.5,303.5C 232.799,301.027 233.799,298.86 235.5,297C 234.813,295.838 234.647,294.672 235,293.5C 237.333,293.167 239.667,292.833 242,292.5C 242.988,289.576 243.654,286.576 244,283.5C 244.278,287.194 244.278,290.861 244,294.5C 245.081,290.203 246.081,285.87 247,281.5C 248.011,280.663 249.178,280.33 250.5,280.5C 250.5,282.833 250.5,285.167 250.5,287.5C 252.167,287.5 253.833,287.5 255.5,287.5C 254.573,283.555 255.906,280.888 259.5,279.5C 262.282,282.531 265.282,284.531 268.5,285.5 Z"/></g>
<g><path style="opacity:1" fill="#cca172" d="M 338.5,312.5 C 338.497,317.527 338.164,322.527 337.5,327.5C 335.801,327.66 334.134,327.494 332.5,327C 329.686,325.169 326.852,323.335 324,321.5C 323.009,322.43 322.509,323.596 322.5,325C 324.194,327.222 325.194,329.722 325.5,332.5C 330.824,333.307 331.658,335.641 328,339.5C 326.2,337.169 324.2,337.169 322,339.5C 322.447,344.117 323.613,348.617 325.5,353C 323.571,356.136 321.237,356.303 318.5,353.5C 316.941,354.074 315.441,354.74 314,355.5C 312.271,362.186 310.771,368.853 309.5,375.5C 312.491,380.222 311.991,384.555 308,388.5C 307.316,389.784 307.483,390.951 308.5,392C 306.798,394.235 305.798,396.735 305.5,399.5C 303.226,399.715 301.059,400.382 299,401.5C 297.893,401.415 296.893,401.081 296,400.5C 294.188,403.821 291.355,405.155 287.5,404.5C 287.38,403.414 286.713,402.747 285.5,402.5C 275.676,405.805 265.676,407.805 255.5,408.5C 262.276,406.587 269.276,405.087 276.5,404C 278.842,402.272 281.175,400.605 283.5,399C 285.464,397.549 286.797,395.716 287.5,393.5C 289.5,391.833 291.5,390.167 293.5,388.5C 294.609,388.443 295.609,388.11 296.5,387.5C 298.104,386.713 298.771,385.38 298.5,383.5C 296.426,381.894 293.426,381.06 289.5,381C 282.174,380.5 274.841,380.334 267.5,380.5C 266.432,379.566 265.099,379.232 263.5,379.5C 265.811,377.932 268.478,377.098 271.5,377C 269.19,375.345 266.69,375.178 264,376.5C 261.269,375.383 258.435,374.717 255.5,374.5C 255.286,372.856 255.62,371.356 256.5,370C 261.42,368.75 266.42,368.25 271.5,368.5C 271.5,367.5 271.5,366.5 271.5,365.5C 266.319,367.019 260.986,367.853 255.5,368C 253.697,368.637 252.364,369.803 251.5,371.5C 250.5,371 249.5,370.5 248.5,370C 250.833,369 252.5,367.333 253.5,365C 256.553,364.821 259.553,364.321 262.5,363.5C 260.221,360.293 257.721,359.959 255,362.5C 253.795,361.929 252.628,361.262 251.5,360.5C 253.723,358.277 256.389,356.944 259.5,356.5C 263.601,357.089 267.601,358.089 271.5,359.5C 272.696,359.154 272.696,358.654 271.5,358C 272.793,357.51 274.127,357.343 275.5,357.5C 276.038,353.233 277.372,349.233 279.5,345.5C 275.589,343.379 272.922,340.212 271.5,336C 269.119,335.262 267.119,335.762 265.5,337.5C 260.678,338.998 256.678,341.664 253.5,345.5C 250.794,345.575 248.127,345.908 245.5,346.5C 245.719,345.325 245.386,344.325 244.5,343.5C 243.396,345.389 242.063,347.055 240.5,348.5C 239.686,350.766 239.186,353.1 239,355.5C 236.956,356.772 235.122,356.439 233.5,354.5C 232.232,355.428 230.899,355.595 229.5,355C 227.707,352.612 225.707,350.446 223.5,348.5C 225.711,346.439 227.377,343.939 228.5,341C 227.835,336.713 227.668,332.213 228,327.5C 230.012,325.876 231.846,324.042 233.5,322C 233.265,321.127 232.931,320.293 232.5,319.5C 234.234,318.326 235.234,316.66 235.5,314.5C 234.268,310.861 235.268,307.861 238.5,305.5C 239.461,308.43 240.794,311.097 242.5,313.5C 241.754,317.24 239.421,319.24 235.5,319.5C 233.407,324.981 234.573,329.647 239,333.5C 240.897,331.984 243.064,331.317 245.5,331.5C 245.5,330.167 245.5,328.833 245.5,327.5C 252.089,328.733 255.589,326.067 256,319.5C 256.724,321.959 258.057,322.959 260,322.5C 260.098,320.381 260.931,318.714 262.5,317.5C 263.487,314.232 263.82,310.898 263.5,307.5C 260.833,307.5 258.167,307.5 255.5,307.5C 255.5,306.167 255.5,304.833 255.5,303.5C 258.167,303.5 260.833,303.5 263.5,303.5C 263.5,300.833 263.5,298.167 263.5,295.5C 265.924,295.808 268.257,295.474 270.5,294.5C 268.673,292.513 267.673,290.179 267.5,287.5C 272.079,287.66 272.412,286.993 268.5,285.5C 268.489,283.453 268.156,281.453 267.5,279.5C 268.725,277.108 269.725,274.608 270.5,272C 269.061,271.009 268.061,269.676 267.5,268C 268.167,267.833 268.833,267.667 269.5,267.5C 271.13,269.681 272.463,269.681 273.5,267.5C 272.627,265.587 271.627,263.753 270.5,262C 268.892,261.342 267.725,261.842 267,263.5C 265.049,261.863 265.216,260.363 267.5,259C 265.981,257.649 264.648,256.149 263.5,254.5C 264.687,253.481 265.687,252.314 266.5,251C 265.366,249.984 265.699,249.317 267.5,249C 265.003,248.588 263.003,247.422 261.5,245.5C 263.387,243.96 265.22,242.293 267,240.5C 267.484,238.807 266.984,237.473 265.5,236.5C 267.048,236.179 267.715,235.179 267.5,233.5C 270.887,234.018 274.221,234.851 277.5,236C 277.645,237.916 277.145,239.749 276,241.5C 274.795,242.071 273.628,242.738 272.5,243.5C 273.012,246.351 274.679,247.684 277.5,247.5C 277.691,250.985 278.691,254.151 280.5,257C 279.773,258.399 279.273,259.899 279,261.5C 278.71,259.956 278.044,258.623 277,257.5C 274.582,262.823 275.415,267.323 279.5,271C 278.427,272.25 278.427,273.584 279.5,275C 281.945,277.378 283.778,280.211 285,283.5C 289.588,286.544 294.088,289.71 298.5,293C 301.42,294.234 304.42,295.234 307.5,296C 308.742,298.661 310.576,299.161 313,297.5C 316.944,298.576 320.277,300.576 323,303.5C 324.615,307.403 327.448,310.069 331.5,311.5C 333.383,311.124 334.883,310.124 336,308.5C 336.333,311.5 336.667,314.5 337,317.5C 337.198,315.618 337.698,313.952 338.5,312.5 Z"/></g>
<g><path style="opacity:1" fill="#c89d6c" d="M 233.5,283.5 C 232.752,285.584 232.752,287.584 233.5,289.5C 232.926,291.059 232.26,292.559 231.5,294C 227.167,295.667 222.833,297.333 218.5,299C 214.629,301.4 210.963,303.9 207.5,306.5C 207.095,307.55 206.429,307.55 205.5,306.5C 204.833,305.5 204.167,304.5 203.5,303.5C 199.671,305.466 195.671,305.633 191.5,304C 193.9,303.814 196.234,303.314 198.5,302.5C 194.541,301.673 190.541,301.173 186.5,301C 183.691,298.944 182.358,299.777 182.5,303.5C 184.527,303.338 186.527,303.505 188.5,304C 184.871,304.314 181.538,305.481 178.5,307.5C 176.866,307.032 175.7,306.032 175,304.5C 174.667,304.833 174.333,305.167 174,305.5C 173.29,304.027 172.124,303.36 170.5,303.5C 170.5,319.5 170.5,335.5 170.5,351.5C 169.512,346.36 169.179,341.026 169.5,335.5C 169.5,321.5 169.5,307.5 169.5,293.5C 171.167,293.5 172.833,293.5 174.5,293.5C 174.351,294.552 174.517,295.552 175,296.5C 177.529,293.968 180.529,292.302 184,291.5C 188.213,292.138 192.38,292.471 196.5,292.5C 209.353,291.203 221.687,288.203 233.5,283.5 Z"/></g>
<g><path style="opacity:1" fill="#ba9165" d="M 228.5,257.5 C 231.571,260.747 233.571,264.581 234.5,269C 234.755,273.424 234.421,277.924 233.5,282.5C 233.5,282.833 233.5,283.167 233.5,283.5C 221.687,288.203 209.353,291.203 196.5,292.5C 192.38,292.471 188.213,292.138 184,291.5C 180.529,292.302 177.529,293.968 175,296.5C 174.517,295.552 174.351,294.552 174.5,293.5C 173.848,289.44 175.515,287.44 179.5,287.5C 179.33,286.178 179.663,285.011 180.5,284C 182.167,283.667 183.833,283.333 185.5,283C 198.225,282.156 210.892,281.656 223.5,281.5C 223.5,280.167 223.5,278.833 223.5,277.5C 226.263,277.796 228.763,278.796 231,280.5C 231.667,276.833 231.667,273.167 231,269.5C 228.757,265.869 227.923,261.869 228.5,257.5 Z"/></g>
<g><path style="opacity:1" fill="#618294" d="M 511.5,487.5 C 511.5,495.5 511.5,503.5 511.5,511.5C 433.5,511.5 355.5,511.5 277.5,511.5C 277.466,501.155 277.133,490.821 276.5,480.5C 277.309,478.708 277.809,476.708 278,474.5C 282.524,470.607 287.691,468.607 293.5,468.5C 314.32,468.192 334.987,468.192 355.5,468.5C 372.668,466.999 387.168,459.999 399,447.5C 412.342,428.156 421.009,406.822 425,383.5C 427.735,361.379 424.902,340.046 416.5,319.5C 418.417,321.296 420.25,323.296 422,325.5C 423.718,323.798 423.885,321.965 422.5,320C 425.482,319.502 428.482,319.335 431.5,319.5C 431.66,321.199 431.494,322.866 431,324.5C 430.259,325.641 429.425,325.641 428.5,324.5C 427.5,324.833 426.833,325.5 426.5,326.5C 428.438,330.157 427.438,332.157 423.5,332.5C 425.261,344.227 427.595,355.893 430.5,367.5C 429.067,369.336 428.567,371.336 429,373.5C 429.333,372.833 429.667,372.167 430,371.5C 430.333,373.167 430.667,374.833 431,376.5C 432.627,374.027 433.127,371.527 432.5,369C 433.204,365.872 433.704,362.706 434,359.5C 435.904,362.923 436.737,366.59 436.5,370.5C 437.5,370.5 438.5,370.5 439.5,370.5C 439.261,372.467 439.594,374.301 440.5,376C 437.173,379.445 436.673,383.278 439,387.5C 440.399,386.773 441.899,386.273 443.5,386C 443.463,384.051 443.963,382.218 445,380.5C 447.164,383.447 447.998,386.781 447.5,390.5C 445.521,393.099 443.521,395.765 441.5,398.5C 443.843,399.725 445.677,399.059 447,396.5C 447.495,398.473 447.662,400.473 447.5,402.5C 445.833,402.5 444.167,402.5 442.5,402.5C 442.5,404.167 442.5,405.833 442.5,407.5C 444.821,407.229 446.821,407.896 448.5,409.5C 451.213,406.786 452.046,407.453 451,411.5C 449.488,413.957 448.154,413.957 447,411.5C 441.945,413.698 441.778,415.198 446.5,416C 445.214,418.022 444.214,420.189 443.5,422.5C 444.689,423.429 446.022,423.762 447.5,423.5C 447.5,420.833 447.5,418.167 447.5,415.5C 450.167,415.5 452.833,415.5 455.5,415.5C 455.232,421.382 455.566,427.215 456.5,433C 455.917,435.499 454.584,437.499 452.5,439C 448.047,440.109 446.38,442.942 447.5,447.5C 450.167,447.5 452.833,447.5 455.5,447.5C 455.5,452.833 455.5,458.167 455.5,463.5C 458.167,463.5 460.833,463.5 463.5,463.5C 463.5,460.833 463.5,458.167 463.5,455.5C 466.695,456.039 469.195,455.039 471,452.5C 471.167,453 471.333,453.5 471.5,454C 471.546,457.065 471.213,460.231 470.5,463.5C 468.523,458.276 466.857,458.443 465.5,464C 467.085,468.281 467.918,472.781 468,477.5C 469.16,479.797 470.16,479.464 471,476.5C 471.483,477.448 471.649,478.448 471.5,479.5C 472.675,479.719 473.675,479.386 474.5,478.5C 475.167,476.5 475.833,474.5 476.5,472.5C 477.325,471.614 478.325,471.281 479.5,471.5C 479.5,473.5 479.5,475.5 479.5,477.5C 482.167,477.5 484.833,477.5 487.5,477.5C 487.281,476.325 487.614,475.325 488.5,474.5C 491.184,475.666 493.184,474.833 494.5,472C 493.552,471.517 492.552,471.351 491.5,471.5C 491.933,468.834 492.433,466.168 493,463.5C 493.419,464.672 494.085,465.672 495,466.5C 495.798,464.741 495.631,463.074 494.5,461.5C 489.414,462.155 484.414,461.489 479.5,459.5C 480.628,458.738 481.795,458.071 483,457.5C 484.608,452.844 486.108,448.178 487.5,443.5C 484.234,443.433 482.734,445.099 483,448.5C 481.989,447.663 480.822,447.33 479.5,447.5C 479.626,449.2 480.293,450.7 481.5,452C 481.167,452.5 480.833,453 480.5,453.5C 478.703,451.869 477.536,449.869 477,447.5C 476.097,446.299 474.931,445.465 473.5,445C 474.563,443.812 475.897,443.312 477.5,443.5C 477.5,442.5 477.5,441.5 477.5,440.5C 476.448,440.649 475.448,440.483 474.5,440C 476.112,439.28 477.612,439.446 479,440.5C 480.131,437.555 480.964,434.555 481.5,431.5C 482.978,431.762 484.311,431.429 485.5,430.5C 485.29,426.62 483.29,424.953 479.5,425.5C 479.5,416.833 479.5,408.167 479.5,399.5C 476.5,399.5 473.5,399.5 470.5,399.5C 470.421,398.07 470.754,396.736 471.5,395.5C 469.678,392.67 467.178,390.67 464,389.5C 463.505,387.527 463.338,385.527 463.5,383.5C 466.167,383.5 468.833,383.5 471.5,383.5C 471.5,378.167 471.5,372.833 471.5,367.5C 474.167,367.5 476.833,367.5 479.5,367.5C 479.5,364.833 479.5,362.167 479.5,359.5C 484.833,359.5 490.167,359.5 495.5,359.5C 495.5,354.167 495.5,348.833 495.5,343.5C 498.695,344.039 501.195,343.039 503,340.5C 502.918,332.771 504.085,325.271 506.5,318C 505.484,314.468 504.484,310.968 503.5,307.5C 505.144,307.286 506.644,307.62 508,308.5C 509.603,314.59 509.103,320.59 506.5,326.5C 508.251,328.49 509.251,330.823 509.5,333.5C 507.273,340.084 506.939,346.75 508.5,353.5C 507.07,353.579 505.736,353.246 504.5,352.5C 503.614,353.325 503.281,354.325 503.5,355.5C 505.167,355.5 506.833,355.5 508.5,355.5C 508.67,356.822 508.337,357.989 507.5,359C 508.428,359.388 509.095,360.055 509.5,361C 508.833,362.667 508.167,364.333 507.5,366C 508.833,368.667 508.833,371.333 507.5,374C 507.905,374.945 508.572,375.612 509.5,376C 508.541,377.707 507.875,379.541 507.5,381.5C 508.483,393.491 508.316,405.491 507,417.5C 506.667,417.833 506.333,418.167 506,418.5C 504.403,415.708 503.403,412.708 503,409.5C 501.842,409.998 501.009,410.831 500.5,412C 502.123,413.876 501.79,415.21 499.5,416C 502.986,417.947 503.319,420.28 500.5,423C 501.313,429.419 501.813,435.919 502,442.5C 502.944,443.263 503.444,444.263 503.5,445.5C 502.085,447.28 502.252,448.946 504,450.5C 505.741,448.459 505.908,446.292 504.5,444C 505,443.5 505.5,443 506,442.5C 507.529,443.729 508.696,445.229 509.5,447C 507.234,448.514 506.068,450.681 506,453.5C 503.38,452.774 500.88,453.274 498.5,455C 500.396,457.735 501.062,460.568 500.5,463.5C 498.703,460.904 497.369,461.237 496.5,464.5C 498.261,466.253 499.594,468.253 500.5,470.5C 499.449,472.532 497.783,473.865 495.5,474.5C 496.689,475.429 498.022,475.762 499.5,475.5C 499.67,476.822 499.337,477.989 498.5,479C 503.128,479.797 506.461,482.297 508.5,486.5C 509.325,487.386 510.325,487.719 511.5,487.5 Z"/></g>
<g><path style="opacity:1" fill="#090f14" d="M 106.5,287.5 C 106.833,287.5 107.167,287.5 107.5,287.5C 107.876,294.327 107.043,300.994 105,307.5C 102.34,311.304 100.507,315.138 99.5,319C 100.624,319.249 101.624,319.749 102.5,320.5C 101.509,322.323 100.176,323.823 98.5,325C 98.8333,325.333 99.1667,325.667 99.5,326C 98.4479,327.119 97.2812,327.619 96,327.5C 93.3701,334.811 91.5368,342.145 90.5,349.5C 91.6268,352.377 92.2935,355.377 92.5,358.5C 89.2111,373.386 90.0444,388.053 95,402.5C 95.5,403.667 96.3333,404.5 97.5,405C 96.6919,405.308 96.0253,405.808 95.5,406.5C 97.0255,410.516 98.0255,414.683 98.5,419C 97.2671,422.98 97.9338,426.647 100.5,430C 99.676,432.611 99.3426,435.111 99.5,437.5C 102.293,439.71 103.293,442.376 102.5,445.5C 100.917,442.613 99.4169,439.613 98,436.5C 95.6874,426.291 94.3541,415.958 94,405.5C 92.4685,401.238 91.1351,396.905 90,392.5C 88.8496,380.026 88.0162,367.526 87.5,355C 87.6096,349.394 88.4429,343.894 90,338.5C 95.3024,325.571 100.302,312.571 105,299.5C 106.156,295.582 106.656,291.582 106.5,287.5 Z"/></g>
<g><path style="opacity:1" fill="#644f3b" d="M 271.5,341.5 C 272.993,342.312 273.66,343.645 273.5,345.5C 273.48,346.726 273.147,347.726 272.5,348.5C 272.552,346.097 272.219,343.764 271.5,341.5 Z"/></g>
<g><path style="opacity:1" fill="#1a120c" d="M 271.5,339.5 C 271.5,340.167 271.5,340.833 271.5,341.5C 272.219,343.764 272.552,346.097 272.5,348.5C 272.5,349.167 272.167,349.5 271.5,349.5C 265.907,349.193 260.407,349.527 255,350.5C 254.5,350 254,349.5 253.5,349C 255.142,345.699 257.475,343.032 260.5,341C 264.06,339.763 267.727,339.263 271.5,339.5 Z"/></g>
<g><path style="opacity:1" fill="#3c2d20" d="M 265.5,337.5 C 268.082,337.025 270.082,337.692 271.5,339.5C 267.727,339.263 264.06,339.763 260.5,341C 257.475,343.032 255.142,345.699 253.5,349C 254,349.5 254.5,350 255,350.5C 260.407,349.527 265.907,349.193 271.5,349.5C 269.095,350.768 266.428,351.435 263.5,351.5C 259.833,351.5 256.167,351.5 252.5,351.5C 252.5,350.167 252.5,348.833 252.5,347.5C 252.833,346.833 253.167,346.167 253.5,345.5C 256.678,341.664 260.678,338.998 265.5,337.5 Z"/></g>
<g><path style="opacity:1" fill="#c89e72" d="M 263.5,379.5 C 257.086,378.573 250.752,377.24 244.5,375.5C 240.481,377.018 236.648,376.684 233,374.5C 232.126,371.039 232.96,368.039 235.5,365.5C 235.333,364.833 235.167,364.167 235,363.5C 233.456,366.264 232.289,366.097 231.5,363C 228.776,361.665 226.11,361.498 223.5,362.5C 223.5,364.167 223.5,365.833 223.5,367.5C 222.5,367.5 221.5,367.5 220.5,367.5C 220.666,363.154 220.499,358.821 220,354.5C 219.282,355.451 218.449,355.617 217.5,355C 218.759,354.077 220.092,353.243 221.5,352.5C 220.501,350.495 221.168,349.162 223.5,348.5C 225.707,350.446 227.707,352.612 229.5,355C 230.899,355.595 232.232,355.428 233.5,354.5C 235.122,356.439 236.956,356.772 239,355.5C 239.186,353.1 239.686,350.766 240.5,348.5C 242.063,347.055 243.396,345.389 244.5,343.5C 245.386,344.325 245.719,345.325 245.5,346.5C 248.127,345.908 250.794,345.575 253.5,345.5C 253.167,346.167 252.833,346.833 252.5,347.5C 251.549,348.919 251.216,350.585 251.5,352.5C 255.702,352.817 259.702,352.483 263.5,351.5C 266.428,351.435 269.095,350.768 271.5,349.5C 272.167,349.5 272.5,349.167 272.5,348.5C 273.147,347.726 273.48,346.726 273.5,345.5C 273.66,343.645 272.993,342.312 271.5,341.5C 271.5,340.833 271.5,340.167 271.5,339.5C 270.082,337.692 268.082,337.025 265.5,337.5C 267.119,335.762 269.119,335.262 271.5,336C 272.922,340.212 275.589,343.379 279.5,345.5C 277.372,349.233 276.038,353.233 275.5,357.5C 274.127,357.343 272.793,357.51 271.5,358C 272.696,358.654 272.696,359.154 271.5,359.5C 267.601,358.089 263.601,357.089 259.5,356.5C 256.389,356.944 253.723,358.277 251.5,360.5C 252.628,361.262 253.795,361.929 255,362.5C 257.721,359.959 260.221,360.293 262.5,363.5C 259.553,364.321 256.553,364.821 253.5,365C 252.5,367.333 250.833,369 248.5,370C 249.5,370.5 250.5,371 251.5,371.5C 252.364,369.803 253.697,368.637 255.5,368C 260.986,367.853 266.319,367.019 271.5,365.5C 271.5,366.5 271.5,367.5 271.5,368.5C 266.42,368.25 261.42,368.75 256.5,370C 255.62,371.356 255.286,372.856 255.5,374.5C 258.435,374.717 261.269,375.383 264,376.5C 266.69,375.178 269.19,375.345 271.5,377C 268.478,377.098 265.811,377.932 263.5,379.5 Z"/></g>
<g><path style="opacity:1" fill="#6d4e2f" d="M 252.5,347.5 C 252.5,348.833 252.5,350.167 252.5,351.5C 256.167,351.5 259.833,351.5 263.5,351.5C 259.702,352.483 255.702,352.817 251.5,352.5C 251.216,350.585 251.549,348.919 252.5,347.5 Z"/></g>
<g><path style="opacity:1" fill="#a07d59" d="M 340.5,330.5 C 340.667,348.17 340.5,365.836 340,383.5C 339.454,386.379 338.621,389.046 337.5,391.5C 337.674,388.126 338.174,384.793 339,381.5C 339.168,364.328 339.668,347.328 340.5,330.5 Z"/></g>
<g><path style="opacity:1" fill="#d49566" d="M 267.5,380.5 C 274.841,380.334 282.174,380.5 289.5,381C 293.426,381.06 296.426,381.894 298.5,383.5C 296.5,383.5 294.5,383.5 292.5,383.5C 289.167,383.5 285.833,383.5 282.5,383.5C 273.709,382.063 264.709,381.396 255.5,381.5C 249.789,381.505 244.456,382.172 239.5,383.5C 237.167,383.5 234.833,383.5 232.5,383.5C 233.661,381.328 235.495,379.994 238,379.5C 247.793,380.463 257.626,380.796 267.5,380.5 Z"/></g>
<g><path style="opacity:1" fill="#d88659" d="M 282.5,383.5 C 268.167,383.5 253.833,383.5 239.5,383.5C 244.456,382.172 249.789,381.505 255.5,381.5C 264.709,381.396 273.709,382.063 282.5,383.5 Z"/></g>
<g><path style="opacity:1" fill="#d1683c" d="M 231.5,383.5 C 231.833,383.5 232.167,383.5 232.5,383.5C 234.833,383.5 237.167,383.5 239.5,383.5C 253.833,383.5 268.167,383.5 282.5,383.5C 285.833,383.5 289.167,383.5 292.5,383.5C 292.5,383.833 292.5,384.167 292.5,384.5C 291.833,384.5 291.167,384.5 290.5,384.5C 270.805,384.137 251.138,384.637 231.5,386C 229.09,386.057 227.756,387.224 227.5,389.5C 226.427,388.749 226.26,387.749 227,386.5C 228.652,385.601 230.152,384.601 231.5,383.5 Z"/></g>
<g><path style="opacity:1" fill="#885a3c" d="M 292.5,384.5 C 292.5,384.167 292.5,383.833 292.5,383.5C 294.5,383.5 296.5,383.5 298.5,383.5C 298.771,385.38 298.104,386.713 296.5,387.5C 296.5,386.5 296.5,385.5 296.5,384.5C 295.167,384.5 293.833,384.5 292.5,384.5 Z"/></g>
<g><path style="opacity:1" fill="#b43917" d="M 290.5,384.5 C 288.162,386.04 285.495,386.706 282.5,386.5C 279.833,386.5 277.167,386.5 274.5,386.5C 260.142,386.255 245.808,386.588 231.5,387.5C 231.737,388.791 231.404,389.791 230.5,390.5C 229.391,390.443 228.391,390.11 227.5,389.5C 227.756,387.224 229.09,386.057 231.5,386C 251.138,384.637 270.805,384.137 290.5,384.5 Z"/></g>
<g><path style="opacity:1" fill="#a41d06" d="M 274.5,386.5 C 264.675,387.33 254.675,387.83 244.5,388C 242.744,388.202 241.078,388.702 239.5,389.5C 247.384,391.272 255.384,391.939 263.5,391.5C 253.995,392.55 244.328,392.55 234.5,391.5C 233.167,391.5 231.833,391.5 230.5,391.5C 230.5,391.167 230.5,390.833 230.5,390.5C 231.404,389.791 231.737,388.791 231.5,387.5C 245.808,386.588 260.142,386.255 274.5,386.5 Z"/></g>
<g><path style="opacity:1" fill="#581a07" d="M 290.5,384.5 C 291.167,384.5 291.833,384.5 292.5,384.5C 293.833,384.5 295.167,384.5 296.5,384.5C 296.5,385.5 296.5,386.5 296.5,387.5C 295.609,388.11 294.609,388.443 293.5,388.5C 291.5,388.833 289.5,389.167 287.5,389.5C 283.445,389.824 279.445,389.491 275.5,388.5C 277.969,387.832 280.302,387.165 282.5,386.5C 285.495,386.706 288.162,386.04 290.5,384.5 Z"/></g>
<g><path style="opacity:1" fill="#861603" d="M 274.5,386.5 C 277.167,386.5 279.833,386.5 282.5,386.5C 280.302,387.165 277.969,387.832 275.5,388.5C 279.445,389.491 283.445,389.824 287.5,389.5C 286.965,391.446 285.632,392.446 283.5,392.5C 277.021,391.509 270.354,391.176 263.5,391.5C 255.384,391.939 247.384,391.272 239.5,389.5C 241.078,388.702 242.744,388.202 244.5,388C 254.675,387.83 264.675,387.33 274.5,386.5 Z"/></g>
<g><path style="opacity:1" fill="#d39261" d="M 231.5,383.5 C 230.152,384.601 228.652,385.601 227,386.5C 226.26,387.749 226.427,388.749 227.5,389.5C 227.491,391.308 227.991,392.975 229,394.5C 231.413,396.409 233.247,398.743 234.5,401.5C 235.85,402.95 237.516,403.617 239.5,403.5C 239.5,404.167 239.5,404.833 239.5,405.5C 237.801,405.66 236.134,405.494 234.5,405C 228.87,399.612 225.203,393.112 223.5,385.5C 226.167,384.833 228.833,384.167 231.5,383.5 Z"/></g>
<g><path style="opacity:1" fill="#bc5126" d="M 293.5,388.5 C 291.5,390.167 289.5,391.833 287.5,393.5C 283.905,395.102 280.571,397.102 277.5,399.5C 278.907,397.692 280.074,395.692 281,393.5C 281.671,392.748 282.504,392.414 283.5,392.5C 285.632,392.446 286.965,391.446 287.5,389.5C 289.5,389.167 291.5,388.833 293.5,388.5 Z"/></g>
<g><path style="opacity:1" fill="#d37949" d="M 227.5,389.5 C 228.391,390.11 229.391,390.443 230.5,390.5C 230.5,390.833 230.5,391.167 230.5,391.5C 233.037,395.935 236.037,399.935 239.5,403.5C 237.516,403.617 235.85,402.95 234.5,401.5C 233.247,398.743 231.413,396.409 229,394.5C 227.991,392.975 227.491,391.308 227.5,389.5 Z"/></g>
<g><path style="opacity:1" fill="#493825" d="M 337.5,392.5 C 337.59,395.152 336.924,397.485 335.5,399.5C 335.171,396.772 335.837,394.438 337.5,392.5 Z"/></g>
<g><path style="opacity:1" fill="#d94829" d="M 234.5,391.5 C 244.328,392.55 253.995,392.55 263.5,391.5C 270.354,391.176 277.021,391.509 283.5,392.5C 282.504,392.414 281.671,392.748 281,393.5C 280.074,395.692 278.907,397.692 277.5,399.5C 275.737,400.63 273.904,400.63 272,399.5C 269.335,400.083 266.835,401.083 264.5,402.5C 258.11,403.871 251.776,403.704 245.5,402C 243.108,399.158 240.775,396.324 238.5,393.5C 236.974,393.006 235.641,392.339 234.5,391.5 Z"/></g>
<g><path style="opacity:1" fill="#da5b2e" d="M 230.5,391.5 C 231.833,391.5 233.167,391.5 234.5,391.5C 235.641,392.339 236.974,393.006 238.5,393.5C 240.775,396.324 243.108,399.158 245.5,402C 251.776,403.704 258.11,403.871 264.5,402.5C 266.835,401.083 269.335,400.083 272,399.5C 273.904,400.63 275.737,400.63 277.5,399.5C 277.047,400.458 276.381,401.292 275.5,402C 263.642,405.984 251.642,406.484 239.5,403.5C 236.037,399.935 233.037,395.935 230.5,391.5 Z"/></g>
<g><path style="opacity:1" fill="#da8755" d="M 287.5,393.5 C 286.797,395.716 285.464,397.549 283.5,399C 281.175,400.605 278.842,402.272 276.5,404C 269.276,405.087 262.276,406.587 255.5,408.5C 249.816,408.739 244.482,407.739 239.5,405.5C 239.5,404.833 239.5,404.167 239.5,403.5C 251.642,406.484 263.642,405.984 275.5,402C 276.381,401.292 277.047,400.458 277.5,399.5C 280.571,397.102 283.905,395.102 287.5,393.5 Z"/></g>
<g><path style="opacity:1" fill="#2d2315" d="M 335.5,399.5 C 335.248,403.327 333.915,406.66 331.5,409.5C 331.5,408.833 331.5,408.167 331.5,407.5C 332.326,404.515 333.659,401.849 335.5,399.5 Z"/></g>
<g><path style="opacity:1" fill="#cea378" d="M 287.5,404.5 C 287.5,406.167 287.5,407.833 287.5,409.5C 282.245,410.751 276.911,411.751 271.5,412.5C 271.5,413.5 271.5,414.5 271.5,415.5C 268.738,416.353 266.071,416.353 263.5,415.5C 261.172,416.789 258.839,418.122 256.5,419.5C 252.12,418.615 247.787,418.948 243.5,420.5C 240.649,419.988 239.316,418.321 239.5,415.5C 238.022,415.762 236.689,415.429 235.5,414.5C 234.52,413.019 233.353,411.685 232,410.5C 231.202,408.741 231.369,407.074 232.5,405.5C 240.015,408.861 247.682,409.861 255.5,408.5C 265.676,407.805 275.676,405.805 285.5,402.5C 286.713,402.747 287.38,403.414 287.5,404.5 Z"/></g>
<g><path style="opacity:1" fill="#866643" d="M 331.5,407.5 C 331.5,408.167 331.5,408.833 331.5,409.5C 330.857,411.076 329.857,412.41 328.5,413.5C 328.755,411.033 329.755,409.033 331.5,407.5 Z"/></g>
<g><path style="opacity:1" fill="#312212" d="M 331.5,409.5 C 331.657,410.873 331.49,412.207 331,413.5C 329.951,416.187 328.451,418.52 326.5,420.5C 326.5,419.833 326.5,419.167 326.5,418.5C 327.167,416.833 327.833,415.167 328.5,413.5C 329.857,412.41 330.857,411.076 331.5,409.5 Z"/></g>
<g><path style="opacity:1" fill="#080300" d="M 183.5,412.5 C 187.597,417.053 191.93,421.386 196.5,425.5C 197.585,427.587 199.251,428.92 201.5,429.5C 203.246,431.252 205.246,432.585 207.5,433.5C 210.475,436.323 213.808,438.656 217.5,440.5C 219.456,441.492 221.456,442.492 223.5,443.5C 225.416,445.977 228.083,446.977 231.5,446.5C 231.833,446.5 232.167,446.5 232.5,446.5C 247.991,447.496 263.658,447.83 279.5,447.5C 279.082,448.222 278.416,448.722 277.5,449C 277.833,449.333 278.167,449.667 278.5,450C 272.922,452.117 267.422,451.951 262,449.5C 254.759,450.655 247.592,452.988 240.5,456.5C 240.132,458.8 240.132,460.967 240.5,463C 245.159,464.334 247.659,467.501 248,472.5C 249.171,473.893 250.671,474.727 252.5,475C 253.167,476.333 253.833,477.667 254.5,479C 249.482,480.181 244.482,481.348 239.5,482.5C 239.5,481.5 239.5,480.5 239.5,479.5C 236.685,480.126 234.185,481.46 232,483.5C 223.953,483.541 215.786,483.375 207.5,483C 204.832,481.711 202.165,480.544 199.5,479.5C 199.785,477.712 199.452,476.045 198.5,474.5C 195.629,473.129 193.629,470.963 192.5,468C 189.074,466.762 187.408,467.929 187.5,471.5C 186.167,471.5 184.833,471.5 183.5,471.5C 183.425,468.794 183.092,466.127 182.5,463.5C 184.668,462.821 186.668,461.821 188.5,460.5C 190.778,460.781 191.945,462.115 192,464.5C 193.117,463.051 193.784,461.384 194,459.5C 194.903,458.299 196.069,457.465 197.5,457C 195.751,455.708 193.918,454.542 192,453.5C 191.505,451.527 191.338,449.527 191.5,447.5C 190.5,447.5 189.5,447.5 188.5,447.5C 188.666,441.158 188.5,434.825 188,428.5C 186.301,427.594 184.467,427.261 182.5,427.5C 182.5,428.833 182.5,430.167 182.5,431.5C 181.167,431.5 179.833,431.5 178.5,431.5C 178.5,434.167 178.5,436.833 178.5,439.5C 177.5,439.5 176.5,439.5 175.5,439.5C 176.773,435.989 177.773,432.322 178.5,428.5C 181.264,426.22 183.931,423.72 186.5,421C 185.577,418.14 184.577,415.307 183.5,412.5 Z"/></g>
<g><path style="opacity:1" fill="#875c38" d="M 196.5,425.5 C 198.749,426.08 200.415,427.413 201.5,429.5C 199.251,428.92 197.585,427.587 196.5,425.5 Z"/></g>
<g><path style="opacity:1" fill="#765433" d="M 326.5,418.5 C 326.5,419.167 326.5,419.833 326.5,420.5C 320.32,428.684 312.653,435.017 303.5,439.5C 303.833,438.833 304.167,438.167 304.5,437.5C 313.064,432.603 320.397,426.27 326.5,418.5 Z"/></g>
<g><path style="opacity:1" fill="#cc9b6e" d="M 304.5,437.5 C 304.167,438.167 303.833,438.833 303.5,439.5C 299.203,440.655 295.203,442.321 291.5,444.5C 289.102,444.259 287.102,444.926 285.5,446.5C 284.833,446.5 284.167,446.5 283.5,446.5C 270.833,446.167 258.167,445.833 245.5,445.5C 253.981,444.036 262.648,442.869 271.5,442C 271.966,440.701 271.966,439.201 271.5,437.5C 276.532,438.059 281.865,438.393 287.5,438.5C 287.5,437.5 287.5,436.5 287.5,435.5C 281.963,434.401 276.63,433.401 271.5,432.5C 277.871,431.435 284.205,431.769 290.5,433.5C 291.994,433.291 293.161,432.624 294,431.5C 295.36,433.105 296.86,434.605 298.5,436C 297.549,436.718 297.383,437.551 298,438.5C 300.041,437.577 302.208,437.244 304.5,437.5 Z"/></g>
<g><path style="opacity:1" fill="#b48151" d="M 207.5,433.5 C 212.181,433.84 215.515,436.173 217.5,440.5C 213.808,438.656 210.475,436.323 207.5,433.5 Z"/></g>
<g><path style="opacity:1" fill="#98673a" d="M 217.5,440.5 C 220.313,440.025 222.313,441.025 223.5,443.5C 221.456,442.492 219.456,441.492 217.5,440.5 Z"/></g>
<g><path style="opacity:1" fill="#432a17" d="M 303.5,439.5 C 300.375,442.964 296.375,444.631 291.5,444.5C 295.203,442.321 299.203,440.655 303.5,439.5 Z"/></g>
<g><path style="opacity:1" fill="#41250c" d="M 223.5,443.5 C 226.397,444.129 229.064,445.129 231.5,446.5C 228.083,446.977 225.416,445.977 223.5,443.5 Z"/></g>
<g><path style="opacity:1" fill="#875633" d="M 245.5,445.5 C 258.167,445.833 270.833,446.167 283.5,446.5C 282.432,447.434 281.099,447.768 279.5,447.5C 263.658,447.83 247.991,447.496 232.5,446.5C 236.931,446.769 241.265,446.436 245.5,445.5 Z"/></g>
<g><path style="opacity:1" fill="#382011" d="M 291.5,444.5 C 289.898,446.074 287.898,446.741 285.5,446.5C 287.102,444.926 289.102,444.259 291.5,444.5 Z"/></g>
<g><path style="opacity:1" fill="#587585" d="M 102.5,447.5 C 107.366,456.196 114.366,462.696 123.5,467C 133.132,467.756 142.632,466.923 152,464.5C 155.116,464.489 157.949,465.155 160.5,466.5C 157.606,466.042 155.106,466.709 153,468.5C 149.517,467.377 146.183,468.377 143,471.5C 133.528,471.792 124.361,469.958 115.5,466C 113.247,461.045 109.58,459.045 104.5,460C 103.419,455.934 102.752,451.767 102.5,447.5 Z"/></g>
<g><path style="opacity:1" fill="#030b0e" d="M 355.5,468.5 C 334.987,468.192 314.32,468.192 293.5,468.5C 289.298,468.183 285.298,468.517 281.5,469.5C 279.254,470.455 276.921,471.122 274.5,471.5C 275.413,484.872 275.413,498.206 274.5,511.5C 270.833,511.5 267.167,511.5 263.5,511.5C 265.964,510.257 268.63,509.257 271.5,508.5C 270.975,507.808 270.308,507.308 269.5,507C 271.885,505.537 272.885,503.371 272.5,500.5C 271.308,488.305 269.641,475.971 267.5,463.5C 274.29,462.131 281.124,461.131 288,460.5C 288.483,461.448 288.649,462.448 288.5,463.5C 290.39,463.703 291.89,463.037 293,461.5C 294,462.167 295,462.833 296,463.5C 298.166,461.879 300.666,461.045 303.5,461C 300.833,460.667 298.167,460.333 295.5,460C 299.019,459.623 302.519,459.123 306,458.5C 308.852,459.346 311.352,460.846 313.5,463C 319.666,463.606 325.666,463.94 331.5,464C 332.981,464.98 334.315,466.147 335.5,467.5C 342.134,468.497 348.8,468.83 355.5,468.5 Z"/></g>
<g><path style="opacity:1" fill="#38515f" d="M 293.5,468.5 C 287.691,468.607 282.524,470.607 278,474.5C 277.809,476.708 277.309,478.708 276.5,480.5C 276.337,478.143 276.503,475.81 277,473.5C 278.992,472.672 280.492,471.339 281.5,469.5C 285.298,468.517 289.298,468.183 293.5,468.5 Z"/></g>
<g><path style="opacity:1" fill="#1d2e38" d="M 281.5,469.5 C 280.492,471.339 278.992,472.672 277,473.5C 276.503,475.81 276.337,478.143 276.5,480.5C 277.133,490.821 277.466,501.155 277.5,511.5C 276.5,511.5 275.5,511.5 274.5,511.5C 275.413,498.206 275.413,484.872 274.5,471.5C 276.921,471.122 279.254,470.455 281.5,469.5 Z"/></g>
</svg>
