<?xml version="1.0" encoding="UTF-8"?>
<!DOCTYPE svg PUBLIC "-//W3C//DTD SVG 1.1//EN" "http://www.w3.org/Graphics/SVG/1.1/DTD/svg11.dtd">
<svg xmlns="http://www.w3.org/2000/svg" version="1.1" width="512px" height="512px" style="shape-rendering:geometricPrecision; text-rendering:geometricPrecision; image-rendering:optimizeQuality; fill-rule:evenodd; clip-rule:evenodd" xmlns:xlink="http://www.w3.org/1999/xlink">
<g><path style="opacity:1" fill="#93544e" d="M -0.5,-0.5 C 170.167,-0.5 340.833,-0.5 511.5,-0.5C 511.5,170.167 511.5,340.833 511.5,511.5C 432.833,511.5 354.167,511.5 275.5,511.5C 274.737,500.203 274.903,488.87 276,477.5C 276.569,474.088 278.069,471.255 280.5,469C 285.057,467.742 289.724,467.575 294.5,468.5C 296.46,467.862 298.293,467.862 300,468.5C 301.8,466.683 303.966,465.516 306.5,465C 308.049,463.786 309.215,462.286 310,460.5C 310.388,461.428 311.055,462.095 312,462.5C 317.512,461.243 317.345,459.743 311.5,458C 314.51,455.778 317.01,456.278 319,459.5C 321.437,457.207 322.937,454.374 323.5,451C 326.93,450.362 328.263,451.862 327.5,455.5C 329.5,455.5 331.5,455.5 333.5,455.5C 333.231,457.429 333.731,459.095 335,460.5C 335.333,457.833 335.667,455.167 336,452.5C 337.011,453.337 338.178,453.67 339.5,453.5C 339.33,454.822 339.663,455.989 340.5,457C 342.696,458.352 344.862,458.852 347,458.5C 347.494,460.134 347.66,461.801 347.5,463.5C 348.833,463.5 350.167,463.5 351.5,463.5C 351.276,461.213 350.609,459.047 349.5,457C 350.885,455.403 351.551,453.57 351.5,451.5C 352.978,451.762 354.311,451.429 355.5,450.5C 353.418,449.634 352.085,448.134 351.5,446C 351.67,443.169 352.837,442.669 355,444.5C 357.48,444.048 357.98,442.881 356.5,441C 360.018,436.803 360.184,432.636 357,428.5C 354.71,430.768 353.044,433.435 352,436.5C 351.189,432.504 350.856,428.504 351,424.5C 353.493,423.054 355.327,423.721 356.5,426.5C 356.833,426 357.167,425.5 357.5,425C 355.722,423.001 354.722,420.667 354.5,418C 354.953,411.533 354.953,405.033 354.5,398.5C 356.46,396.709 357.793,394.543 358.5,392C 354.091,389.667 353.424,386.5 356.5,382.5C 355.533,380.238 354.866,377.905 354.5,375.5C 355.5,375.5 356.5,375.5 357.5,375.5C 357.682,373.325 358.349,371.325 359.5,369.5C 358.963,368.259 358.296,367.092 357.5,366C 358.833,364.333 360.167,362.667 361.5,361C 359.763,355.802 358.43,350.469 357.5,345C 358.526,339.789 359.692,334.622 361,329.5C 362.319,331.25 362.819,333.25 362.5,335.5C 363.5,335.5 364.5,335.5 365.5,335.5C 365.933,338.166 366.433,340.832 367,343.5C 367.965,338.599 367.465,333.932 365.5,329.5C 367.17,322.974 368.003,316.307 368,309.5C 370.579,308.631 372.412,306.965 373.5,304.5C 372.311,303.571 370.978,303.238 369.5,303.5C 369.741,297.54 371.074,291.873 373.5,286.5C 371.796,283.178 369.796,280.845 367.5,279.5C 367.833,278.833 368.167,278.167 368.5,277.5C 369.258,278.811 370.258,279.311 371.5,279C 370.167,276.667 370.167,274.333 371.5,272C 368.621,271.043 366.121,271.543 364,273.5C 363.514,262.162 363.014,250.829 362.5,239.5C 362.544,232.159 362.878,224.659 363.5,217C 363.452,213.435 362.452,210.268 360.5,207.5C 360.219,203.812 359.719,200.145 359,196.5C 356.006,193.884 354.506,190.551 354.5,186.5C 353.5,186.5 352.5,186.5 351.5,186.5C 351.657,185.127 351.49,183.793 351,182.5C 345.913,177.489 341.08,172.489 336.5,167.5C 334.929,166.691 333.262,166.357 331.5,166.5C 330.738,164.738 329.404,163.738 327.5,163.5C 327.586,162.504 327.252,161.671 326.5,161C 324.26,160.023 321.927,159.523 319.5,159.5C 318.448,157.744 316.781,157.077 314.5,157.5C 294.833,156.833 275.167,156.167 255.5,155.5C 266.172,155.667 276.839,155.5 287.5,155C 290.371,154.882 293.038,154.216 295.5,153C 282.32,152.327 268.986,152.493 255.5,153.5C 255.5,152.5 255.5,151.5 255.5,150.5C 267.519,149.831 279.519,148.831 291.5,147.5C 295.531,148.508 299.531,148.508 303.5,147.5C 301.392,146.645 299.226,145.978 297,145.5C 293.895,146.367 290.728,146.701 287.5,146.5C 287.5,145.5 287.5,144.5 287.5,143.5C 291.182,143.665 294.848,143.499 298.5,143C 299.333,140.833 300.833,139.333 303,138.5C 303.483,139.448 303.649,140.448 303.5,141.5C 306.056,141.868 308.056,141.034 309.5,139C 307.533,135.095 305.199,131.428 302.5,128C 299.668,127.788 297.002,127.621 294.5,127.5C 293.809,124.647 292.476,122.147 290.5,120C 288.422,120.9 286.089,121.4 283.5,121.5C 281.514,121.213 279.68,120.547 278,119.5C 275.914,121.249 273.581,122.583 271,123.5C 269.66,122.132 268.326,120.799 267,119.5C 265.739,119.759 264.739,120.426 264,121.5C 262.951,119.893 261.451,119.227 259.5,119.5C 259.833,122.5 258.5,123.833 255.5,123.5C 255.687,116.334 254.02,116.167 250.5,123C 245.5,123.333 240.5,123.667 235.5,124C 233.592,125.935 231.758,125.769 230,123.5C 227.98,124.032 227.147,125.365 227.5,127.5C 225.549,127.773 224.049,127.107 223,125.5C 222.25,126.126 221.416,126.626 220.5,127C 222.439,127.908 223.439,129.408 223.5,131.5C 222.167,131.5 220.833,131.5 219.5,131.5C 219.5,132.833 219.5,134.167 219.5,135.5C 215.664,135.126 211.664,135.126 207.5,135.5C 206.284,141.284 208.618,143.951 214.5,143.5C 214.993,145.806 215.326,148.139 215.5,150.5C 211.476,150.044 207.976,151.044 205,153.5C 197.891,152.666 191.058,151.999 184.5,151.5C 180.821,152.91 180.655,154.576 184,156.5C 190.41,155.522 196.91,155.189 203.5,155.5C 200.833,156.167 198.167,156.833 195.5,157.5C 192.833,158.167 190.167,158.833 187.5,159.5C 182.756,159.543 178.756,161.21 175.5,164.5C 171.385,165.74 167.551,167.74 164,170.5C 161.667,173.5 159.333,176.5 157,179.5C 155.768,183.498 154.602,187.498 153.5,191.5C 152.532,193.607 152.198,195.941 152.5,198.5C 151.232,209.844 151.232,221.344 152.5,233C 151.847,238.485 151.347,243.985 151,249.5C 148.873,251.114 147.373,253.114 146.5,255.5C 139.783,257.519 133.783,260.852 128.5,265.5C 127.548,267.045 127.215,268.712 127.5,270.5C 126.487,276.103 126.487,281.77 127.5,287.5C 127.187,290.247 127.52,292.914 128.5,295.5C 131.845,299.05 133.345,303.383 133,308.5C 135.767,310.599 137.767,313.266 139,316.5C 140,317.5 141,318.5 142,319.5C 146.682,319.336 151.515,319.336 156.5,319.5C 157.43,330.128 157.763,340.795 157.5,351.5C 154.751,365.237 153.917,379.237 155,393.5C 156.173,400.181 159.173,405.848 164,410.5C 164.822,412.788 165.489,415.122 166,417.5C 168.667,418.833 170.667,420.833 172,423.5C 172.556,431.876 173.723,439.876 175.5,447.5C 175.5,468.833 175.5,490.167 175.5,511.5C 116.833,511.5 58.1667,511.5 -0.5,511.5C -0.5,340.833 -0.5,170.167 -0.5,-0.5 Z"/></g>
<g><path style="opacity:1" fill="#92514b" d="M 255.5,155.5 C 238.167,155.5 220.833,155.5 203.5,155.5C 196.91,155.189 190.41,155.522 184,156.5C 180.655,154.576 180.821,152.91 184.5,151.5C 191.058,151.999 197.891,152.666 205,153.5C 207.976,151.044 211.476,150.044 215.5,150.5C 215.326,148.139 214.993,145.806 214.5,143.5C 208.618,143.951 206.284,141.284 207.5,135.5C 211.664,135.126 215.664,135.126 219.5,135.5C 219.5,134.167 219.5,132.833 219.5,131.5C 220.833,131.5 222.167,131.5 223.5,131.5C 223.439,129.408 222.439,127.908 220.5,127C 221.416,126.626 222.25,126.126 223,125.5C 224.049,127.107 225.549,127.773 227.5,127.5C 227.147,125.365 227.98,124.032 230,123.5C 231.758,125.769 233.592,125.935 235.5,124C 240.5,123.667 245.5,123.333 250.5,123C 254.02,116.167 255.687,116.334 255.5,123.5C 258.5,123.833 259.833,122.5 259.5,119.5C 261.451,119.227 262.951,119.893 264,121.5C 264.739,120.426 265.739,119.759 267,119.5C 268.326,120.799 269.66,122.132 271,123.5C 273.581,122.583 275.914,121.249 278,119.5C 279.68,120.547 281.514,121.213 283.5,121.5C 286.089,121.4 288.422,120.9 290.5,120C 292.476,122.147 293.809,124.647 294.5,127.5C 297.002,127.621 299.668,127.788 302.5,128C 305.199,131.428 307.533,135.095 309.5,139C 308.056,141.034 306.056,141.868 303.5,141.5C 303.649,140.448 303.483,139.448 303,138.5C 300.833,139.333 299.333,140.833 298.5,143C 294.848,143.499 291.182,143.665 287.5,143.5C 287.5,144.5 287.5,145.5 287.5,146.5C 290.728,146.701 293.895,146.367 297,145.5C 299.226,145.978 301.392,146.645 303.5,147.5C 299.531,148.508 295.531,148.508 291.5,147.5C 279.519,148.831 267.519,149.831 255.5,150.5C 255.5,151.5 255.5,152.5 255.5,153.5C 268.986,152.493 282.32,152.327 295.5,153C 293.038,154.216 290.371,154.882 287.5,155C 276.839,155.5 266.172,155.667 255.5,155.5 Z"/></g>
<g><path style="opacity:1" fill="#644138" d="M 203.5,155.5 C 220.833,155.5 238.167,155.5 255.5,155.5C 275.167,156.167 294.833,156.833 314.5,157.5C 274.833,157.5 235.167,157.5 195.5,157.5C 198.167,156.833 200.833,156.167 203.5,155.5 Z"/></g>
<g><path style="opacity:1" fill="#383326" d="M 195.5,157.5 C 235.167,157.5 274.833,157.5 314.5,157.5C 316.781,157.077 318.448,157.744 319.5,159.5C 321.849,161.341 324.515,162.674 327.5,163.5C 329.404,163.738 330.738,164.738 331.5,166.5C 345.065,177.304 354.399,190.971 359.5,207.5C 359.83,213.868 359.496,220.202 358.5,226.5C 357.614,225.675 357.281,224.675 357.5,223.5C 357.386,198.939 347.053,179.939 326.5,166.5C 324.365,164.929 322.032,163.596 319.5,162.5C 318.653,161.034 317.32,160.2 315.5,160C 312.183,159.502 308.85,159.335 305.5,159.5C 269.514,159.64 233.514,159.807 197.5,160C 193.553,161.154 189.553,161.987 185.5,162.5C 186.167,161.5 186.833,160.5 187.5,159.5C 190.167,158.833 192.833,158.167 195.5,157.5 Z"/></g>
<g><path style="opacity:1" fill="#666048" d="M 305.5,159.5 C 308.85,159.335 312.183,159.502 315.5,160C 317.32,160.2 318.653,161.034 319.5,162.5C 314.791,161.209 310.125,160.209 305.5,159.5 Z"/></g>
<g><path style="opacity:1" fill="#65433c" d="M 319.5,159.5 C 321.927,159.523 324.26,160.023 326.5,161C 327.252,161.671 327.586,162.504 327.5,163.5C 324.515,162.674 321.849,161.341 319.5,159.5 Z"/></g>
<g><path style="opacity:1" fill="#c1b092" d="M 305.5,159.5 C 310.125,160.209 314.791,161.209 319.5,162.5C 322.032,163.596 324.365,164.929 326.5,166.5C 321.638,164.868 316.638,163.702 311.5,163C 276.833,162.333 242.167,162.333 207.5,163C 198.895,163.449 190.562,165.115 182.5,168C 178.656,171.636 173.99,173.136 168.5,172.5C 168.833,171.833 169.167,171.167 169.5,170.5C 170.975,168.31 172.975,166.977 175.5,166.5C 178.833,165.167 182.167,163.833 185.5,162.5C 189.553,161.987 193.553,161.154 197.5,160C 233.514,159.807 269.514,159.64 305.5,159.5 Z"/></g>
<g><path style="opacity:1" fill="#573f2d" d="M 187.5,159.5 C 186.833,160.5 186.167,161.5 185.5,162.5C 182.167,163.833 178.833,165.167 175.5,166.5C 175.5,165.833 175.5,165.167 175.5,164.5C 178.756,161.21 182.756,159.543 187.5,159.5 Z"/></g>
<g><path style="opacity:1" fill="#724842" d="M 331.5,166.5 C 333.262,166.357 334.929,166.691 336.5,167.5C 341.08,172.489 345.913,177.489 351,182.5C 351.49,183.793 351.657,185.127 351.5,186.5C 352.5,186.5 353.5,186.5 354.5,186.5C 354.506,190.551 356.006,193.884 359,196.5C 359.719,200.145 360.219,203.812 360.5,207.5C 360.167,207.5 359.833,207.5 359.5,207.5C 354.399,190.971 345.065,177.304 331.5,166.5 Z"/></g>
<g><path style="opacity:1" fill="#754f3f" d="M 175.5,164.5 C 175.5,165.167 175.5,165.833 175.5,166.5C 172.975,166.977 170.975,168.31 169.5,170.5C 161.787,174.906 157.287,181.573 156,190.5C 155.175,201.008 155.341,211.342 156.5,221.5C 156.5,222.167 156.5,222.833 156.5,223.5C 154.842,213.039 153.842,202.372 153.5,191.5C 154.602,187.498 155.768,183.498 157,179.5C 159.333,176.5 161.667,173.5 164,170.5C 167.551,167.74 171.385,165.74 175.5,164.5 Z"/></g>
<g><path style="opacity:1" fill="#ccb08d" d="M 326.5,166.5 C 347.053,179.939 357.386,198.939 357.5,223.5C 356.857,225.076 355.857,226.41 354.5,227.5C 351.14,227.384 347.807,227.051 344.5,226.5C 335.985,225.922 327.651,224.922 319.5,223.5C 322.5,223.5 325.5,223.5 328.5,223.5C 334.833,223.5 341.167,223.5 347.5,223.5C 348.336,218.175 350.003,213.175 352.5,208.5C 352.064,205.821 351.564,203.155 351,200.5C 350.075,199.953 349.242,199.287 348.5,198.5C 346.573,193.261 344.239,188.261 341.5,183.5C 334.344,179.681 329.344,174.014 326.5,166.5 Z"/></g>
<g><path style="opacity:1" fill="#9d7e64" d="M 169.5,170.5 C 169.167,171.167 168.833,171.833 168.5,172.5C 162.259,177.284 158.426,183.617 157,191.5C 156.5,201.494 156.334,211.494 156.5,221.5C 155.341,211.342 155.175,201.008 156,190.5C 157.287,181.573 161.787,174.906 169.5,170.5 Z"/></g>
<g><path style="opacity:1" fill="#d0ab7f" d="M 335.5,185.5 C 336.489,187.782 338.156,189.449 340.5,190.5C 340.291,191.086 339.957,191.586 339.5,192C 341.122,193.295 342.455,194.795 343.5,196.5C 341.98,198.779 339.314,200.112 335.5,200.5C 335.36,202.124 336.027,203.29 337.5,204C 340.821,205.438 344.154,205.605 347.5,204.5C 349.503,206.133 350.836,208.133 351.5,210.5C 349.5,210.5 347.5,210.5 345.5,210.5C 345.174,212.661 344.174,214.494 342.5,216C 338.584,217.102 334.584,217.769 330.5,218C 329.167,219 329.167,220 330.5,221C 329.619,221.708 328.953,222.542 328.5,223.5C 325.5,223.5 322.5,223.5 319.5,223.5C 318.5,223.5 317.5,223.5 316.5,223.5C 313.058,222.252 309.392,221.419 305.5,221C 301.948,217.727 297.948,215.227 293.5,213.5C 275.219,208.88 257.219,209.88 239.5,216.5C 239.5,215.5 239.5,214.5 239.5,213.5C 235.486,213.334 231.486,213.501 227.5,214C 228.022,214.561 228.355,215.228 228.5,216C 227.048,217.565 225.381,218.898 223.5,220C 224.833,220.667 224.833,221.333 223.5,222C 221.069,222.295 219.236,223.462 218,225.5C 217.29,224.027 216.124,223.36 214.5,223.5C 214.586,222.504 214.252,221.671 213.5,221C 206.021,218.007 198.354,215.507 190.5,213.5C 188.199,214.956 185.865,215.289 183.5,214.5C 180.348,216.316 178.348,218.983 177.5,222.5C 176.624,223.251 175.624,223.751 174.5,224C 176.029,227.75 175.696,231.25 173.5,234.5C 170.5,234.5 167.5,234.5 164.5,234.5C 164.5,232.833 164.5,231.167 164.5,229.5C 163.5,229.5 162.5,229.5 161.5,229.5C 161.621,221.365 165.621,216.031 173.5,213.5C 174.192,214.025 174.692,214.692 175,215.5C 175.49,214.207 175.657,212.873 175.5,211.5C 178.885,211.154 182.218,210.488 185.5,209.5C 192.737,212.167 200.07,212.833 207.5,211.5C 211.98,211.732 216.313,211.065 220.5,209.5C 217.852,207.962 215.185,206.628 212.5,205.5C 212.918,204.778 213.584,204.278 214.5,204C 214.043,203.586 213.709,203.086 213.5,202.5C 209.777,201.319 206.111,199.986 202.5,198.5C 201.833,198.833 201.167,199.167 200.5,199.5C 196.795,198.314 193.462,196.648 190.5,194.5C 194.522,193.24 198.022,194.24 201,197.5C 201.414,197.043 201.914,196.709 202.5,196.5C 209.372,198.635 216.372,200.301 223.5,201.5C 226.363,202.795 229.03,204.462 231.5,206.5C 238.723,207.183 245.89,207.849 253,208.5C 263.544,208.057 274.21,208.057 285,208.5C 286.326,208.245 287.326,207.578 288,206.5C 289.4,207.116 290.9,207.449 292.5,207.5C 294.924,206.979 297.257,206.312 299.5,205.5C 299.351,206.552 299.517,207.552 300,208.5C 301.96,205.36 304.793,203.527 308.5,203C 310.042,201.259 310.876,199.426 311,197.5C 311.414,197.957 311.914,198.291 312.5,198.5C 314.5,197.5 316.5,196.5 318.5,195.5C 319.429,194.311 319.762,192.978 319.5,191.5C 321.995,191.031 324.661,191.031 327.5,191.5C 327.52,189.857 326.853,188.524 325.5,187.5C 328.788,186.555 332.121,185.888 335.5,185.5 Z"/></g>
<g><path style="opacity:1" fill="#d2ac87" d="M 326.5,166.5 C 329.344,174.014 334.344,179.681 341.5,183.5C 344.239,188.261 346.573,193.261 348.5,198.5C 349.242,199.287 350.075,199.953 351,200.5C 351.564,203.155 352.064,205.821 352.5,208.5C 350.003,213.175 348.336,218.175 347.5,223.5C 341.167,223.5 334.833,223.5 328.5,223.5C 328.953,222.542 329.619,221.708 330.5,221C 329.167,220 329.167,219 330.5,218C 334.584,217.769 338.584,217.102 342.5,216C 344.174,214.494 345.174,212.661 345.5,210.5C 347.5,210.5 349.5,210.5 351.5,210.5C 350.836,208.133 349.503,206.133 347.5,204.5C 344.154,205.605 340.821,205.438 337.5,204C 336.027,203.29 335.36,202.124 335.5,200.5C 339.314,200.112 341.98,198.779 343.5,196.5C 342.455,194.795 341.122,193.295 339.5,192C 339.957,191.586 340.291,191.086 340.5,190.5C 338.156,189.449 336.489,187.782 335.5,185.5C 333.274,181.866 330.274,178.199 326.5,174.5C 325.311,173.571 323.978,173.238 322.5,173.5C 322.5,172.167 322.5,170.833 322.5,169.5C 320.857,169.48 319.524,170.147 318.5,171.5C 316.321,170.243 314.321,168.743 312.5,167C 310.5,166.667 308.5,166.333 306.5,166C 299.409,166.319 292.075,166.486 284.5,166.5C 281.319,165.887 278.152,165.22 275,164.5C 249.864,165.32 224.697,165.82 199.5,166C 197.615,168.222 195.449,170.056 193,171.5C 192.055,171.095 191.388,170.428 191,169.5C 186.519,170.824 182.352,172.824 178.5,175.5C 177.719,176.729 177.219,178.062 177,179.5C 175.488,180.257 174.154,181.257 173,182.5C 172.865,187.275 171.031,191.108 167.5,194C 169.663,198.075 172.33,198.408 175.5,195C 179.555,194.768 183.555,194.268 187.5,193.5C 188.417,194.127 189.417,194.461 190.5,194.5C 193.462,196.648 196.795,198.314 200.5,199.5C 201.167,199.167 201.833,198.833 202.5,198.5C 206.111,199.986 209.777,201.319 213.5,202.5C 213.709,203.086 214.043,203.586 214.5,204C 213.584,204.278 212.918,204.778 212.5,205.5C 203.817,202.229 194.817,200.229 185.5,199.5C 175.572,199.881 167.405,203.881 161,211.5C 160.51,212.793 160.343,214.127 160.5,215.5C 165.931,213.583 170.931,210.917 175.5,207.5C 180.782,206.433 186.115,206.267 191.5,207C 197.034,208.296 202.367,209.796 207.5,211.5C 200.07,212.833 192.737,212.167 185.5,209.5C 182.218,210.488 178.885,211.154 175.5,211.5C 175.657,212.873 175.49,214.207 175,215.5C 174.692,214.692 174.192,214.025 173.5,213.5C 165.621,216.031 161.621,221.365 161.5,229.5C 162.5,229.5 163.5,229.5 164.5,229.5C 164.5,231.167 164.5,232.833 164.5,234.5C 163.848,235.449 163.514,236.615 163.5,238C 163.608,239.681 164.275,240.848 165.5,241.5C 165.167,242.167 164.833,242.833 164.5,243.5C 162.692,244.918 162.025,246.918 162.5,249.5C 161.677,246.316 161.01,242.983 160.5,239.5C 159.632,235.686 158.632,232.019 157.5,228.5C 157.784,226.585 157.451,224.919 156.5,223.5C 156.5,222.833 156.5,222.167 156.5,221.5C 156.334,211.494 156.5,201.494 157,191.5C 158.426,183.617 162.259,177.284 168.5,172.5C 173.99,173.136 178.656,171.636 182.5,168C 190.562,165.115 198.895,163.449 207.5,163C 242.167,162.333 276.833,162.333 311.5,163C 316.638,163.702 321.638,164.868 326.5,166.5 Z"/></g>
<g><path style="opacity:1" fill="#bc825a" d="M 293.5,213.5 C 294.234,214.708 294.567,216.041 294.5,217.5C 291.627,217.802 288.961,218.469 286.5,219.5C 272.57,218.697 258.903,220.03 245.5,223.5C 240.36,224.197 235.693,223.197 231.5,220.5C 233.612,218.229 236.279,216.896 239.5,216.5C 257.219,209.88 275.219,208.88 293.5,213.5 Z"/></g>
<g><path style="opacity:1" fill="#bd9471" d="M 185.5,199.5 C 194.817,200.229 203.817,202.229 212.5,205.5C 215.185,206.628 217.852,207.962 220.5,209.5C 216.313,211.065 211.98,211.732 207.5,211.5C 202.367,209.796 197.034,208.296 191.5,207C 186.115,206.267 180.782,206.433 175.5,207.5C 175.611,206.883 175.944,206.383 176.5,206C 181.833,205.667 187.167,205.333 192.5,205C 191.227,201.709 188.894,199.876 185.5,199.5 Z"/></g>
<g><path style="opacity:1" fill="#b47e5c" d="M 185.5,199.5 C 188.894,199.876 191.227,201.709 192.5,205C 187.167,205.333 181.833,205.667 176.5,206C 175.944,206.383 175.611,206.883 175.5,207.5C 170.931,210.917 165.931,213.583 160.5,215.5C 160.343,214.127 160.51,212.793 161,211.5C 167.405,203.881 175.572,199.881 185.5,199.5 Z"/></g>
<g><path style="opacity:1" fill="#d6ac79" d="M 319.5,191.5 C 319.762,192.978 319.429,194.311 318.5,195.5C 316.5,196.5 314.5,197.5 312.5,198.5C 311.914,198.291 311.414,197.957 311,197.5C 310.876,199.426 310.042,201.259 308.5,203C 304.793,203.527 301.96,205.36 300,208.5C 299.517,207.552 299.351,206.552 299.5,205.5C 297.257,206.312 294.924,206.979 292.5,207.5C 290.9,207.449 289.4,207.116 288,206.5C 287.326,207.578 286.326,208.245 285,208.5C 274.21,208.057 263.544,208.057 253,208.5C 245.89,207.849 238.723,207.183 231.5,206.5C 229.03,204.462 226.363,202.795 223.5,201.5C 218.85,199.494 214.85,196.494 211.5,192.5C 208.553,191.679 205.553,191.179 202.5,191C 198.763,189.332 198.763,187.999 202.5,187C 199.302,186.152 196.469,184.652 194,182.5C 193.333,181.833 193.333,181.167 194,180.5C 200.409,176.194 199.575,174.36 191.5,175C 196.732,172.848 202.066,172.348 207.5,173.5C 207.5,172.5 207.5,171.5 207.5,170.5C 217.819,169.913 227.986,170.58 238,172.5C 250.128,172.347 262.295,172.013 274.5,171.5C 286.864,171.895 299.031,173.228 311,175.5C 311.333,174.833 311.667,174.167 312,173.5C 314.228,175.113 316.728,175.78 319.5,175.5C 319.34,177.199 319.506,178.866 320,180.5C 325.248,183.147 325.414,185.813 320.5,188.5C 319.614,189.325 319.281,190.325 319.5,191.5 Z"/></g>
<g><path style="opacity:1" fill="#d6ac74" d="M 255.5,180.5 C 265.718,179.75 275.718,180.75 285.5,183.5C 286.647,183.182 287.481,182.516 288,181.5C 290.565,183.179 293.398,183.846 296.5,183.5C 296.5,184.833 296.5,186.167 296.5,187.5C 298.833,187.5 301.167,187.5 303.5,187.5C 303.5,188.833 303.5,190.167 303.5,191.5C 302.167,191.5 300.833,191.5 299.5,191.5C 299.968,196.539 297.635,199.372 292.5,200C 288.137,200.29 283.804,200.79 279.5,201.5C 271.533,201.767 263.533,201.434 255.5,200.5C 255.67,199.178 255.337,198.011 254.5,197C 249.439,196.218 244.605,194.718 240,192.5C 239.667,193.167 239.333,193.833 239,194.5C 237.13,192.781 234.963,191.781 232.5,191.5C 232.672,185.981 235.339,183.981 240.5,185.5C 245.692,184.053 250.692,182.386 255.5,180.5 Z"/></g>
<g><path style="opacity:1" fill="#d6ac7f" d="M 335.5,185.5 C 332.121,185.888 328.788,186.555 325.5,187.5C 326.853,188.524 327.52,189.857 327.5,191.5C 324.661,191.031 321.995,191.031 319.5,191.5C 319.281,190.325 319.614,189.325 320.5,188.5C 325.414,185.813 325.248,183.147 320,180.5C 319.506,178.866 319.34,177.199 319.5,175.5C 316.728,175.78 314.228,175.113 312,173.5C 311.667,174.167 311.333,174.833 311,175.5C 299.031,173.228 286.864,171.895 274.5,171.5C 262.295,172.013 250.128,172.347 238,172.5C 227.986,170.58 217.819,169.913 207.5,170.5C 207.5,171.5 207.5,172.5 207.5,173.5C 202.066,172.348 196.732,172.848 191.5,175C 199.575,174.36 200.409,176.194 194,180.5C 193.333,181.167 193.333,181.833 194,182.5C 196.469,184.652 199.302,186.152 202.5,187C 198.763,187.999 198.763,189.332 202.5,191C 205.553,191.179 208.553,191.679 211.5,192.5C 214.85,196.494 218.85,199.494 223.5,201.5C 216.372,200.301 209.372,198.635 202.5,196.5C 201.914,196.709 201.414,197.043 201,197.5C 198.022,194.24 194.522,193.24 190.5,194.5C 189.417,194.461 188.417,194.127 187.5,193.5C 183.555,194.268 179.555,194.768 175.5,195C 172.33,198.408 169.663,198.075 167.5,194C 171.031,191.108 172.865,187.275 173,182.5C 174.154,181.257 175.488,180.257 177,179.5C 177.219,178.062 177.719,176.729 178.5,175.5C 182.352,172.824 186.519,170.824 191,169.5C 191.388,170.428 192.055,171.095 193,171.5C 195.449,170.056 197.615,168.222 199.5,166C 224.697,165.82 249.864,165.32 275,164.5C 278.152,165.22 281.319,165.887 284.5,166.5C 292.075,166.486 299.409,166.319 306.5,166C 308.5,166.333 310.5,166.667 312.5,167C 314.321,168.743 316.321,170.243 318.5,171.5C 319.524,170.147 320.857,169.48 322.5,169.5C 322.5,170.833 322.5,172.167 322.5,173.5C 323.978,173.238 325.311,173.571 326.5,174.5C 330.274,178.199 333.274,181.866 335.5,185.5 Z"/></g>
<g><path style="opacity:1" fill="#c47456" d="M 279.5,215.5 C 271.13,215.735 263.13,216.735 255.5,218.5C 252.807,218.572 250.14,218.905 247.5,219.5C 246.5,219.167 245.5,218.833 244.5,218.5C 244.709,217.914 245.043,217.414 245.5,217C 256.554,212.597 267.888,211.597 279.5,214C 280.738,214.69 280.738,215.19 279.5,215.5 Z"/></g>
<g><path style="opacity:1" fill="#d1a979" d="M 214.5,223.5 C 213.475,224.374 212.808,225.541 212.5,227C 213.33,228.465 213.496,229.965 213,231.5C 211.267,232.833 209.767,234.333 208.5,236C 208.989,237.138 209.322,238.305 209.5,239.5C 208.375,240.014 207.209,240.347 206,240.5C 202.354,235.621 197.521,234.288 191.5,236.5C 191.5,237.5 191.5,238.5 191.5,239.5C 190.167,239.5 188.833,239.5 187.5,239.5C 187.5,240.833 187.5,242.167 187.5,243.5C 185.718,242.28 183.718,241.614 181.5,241.5C 181.034,239.799 181.034,238.299 181.5,237C 179.575,237.135 177.575,237.302 175.5,237.5C 178.04,235.334 177.373,234.334 173.5,234.5C 175.696,231.25 176.029,227.75 174.5,224C 175.624,223.751 176.624,223.251 177.5,222.5C 178.348,218.983 180.348,216.316 183.5,214.5C 185.865,215.289 188.199,214.956 190.5,213.5C 198.354,215.507 206.021,218.007 213.5,221C 214.252,221.671 214.586,222.504 214.5,223.5 Z"/></g>
<g><path style="opacity:1" fill="#bf7b4b" d="M 279.5,215.5 C 281.042,216.163 282.709,216.83 284.5,217.5C 276.005,218.272 267.505,218.939 259,219.5C 257.615,219.486 256.449,219.152 255.5,218.5C 263.13,216.735 271.13,215.735 279.5,215.5 Z"/></g>
<g><path style="opacity:1" fill="#62423e" d="M 153.5,191.5 C 153.842,202.372 154.842,213.039 156.5,223.5C 157.451,224.919 157.784,226.585 157.5,228.5C 157.567,229.959 157.234,231.292 156.5,232.5C 154.172,231.264 153.006,229.264 153,226.5C 152.5,217.173 152.334,207.839 152.5,198.5C 152.198,195.941 152.532,193.607 153.5,191.5 Z"/></g>
<g><path style="opacity:1" fill="#b0905f" d="M 293.5,213.5 C 297.948,215.227 301.948,217.727 305.5,221C 309.392,221.419 313.058,222.252 316.5,223.5C 311.706,222.903 307.373,223.57 303.5,225.5C 303.5,226.167 303.5,226.833 303.5,227.5C 302.833,227.5 302.167,227.5 301.5,227.5C 299.371,225.05 296.704,223.383 293.5,222.5C 291.645,220.767 289.312,219.767 286.5,219.5C 288.961,218.469 291.627,217.802 294.5,217.5C 294.567,216.041 294.234,214.708 293.5,213.5 Z"/></g>
<g><path style="opacity:1" fill="#724a44" d="M 360.5,207.5 C 362.452,210.268 363.452,213.435 363.5,217C 362.878,224.659 362.544,232.159 362.5,239.5C 363.1,235.465 362.1,231.965 359.5,229C 360.448,221.878 360.781,214.712 360.5,207.5 Z"/></g>
<g><path style="opacity:1" fill="#7b4f4a" d="M 152.5,198.5 C 152.334,207.839 152.5,217.173 153,226.5C 153.006,229.264 154.172,231.264 156.5,232.5C 156.5,234.833 156.5,237.167 156.5,239.5C 155.707,243.339 155.04,247.339 154.5,251.5C 157.514,255.298 156.848,256.632 152.5,255.5C 150.5,255.5 148.5,255.5 146.5,255.5C 147.373,253.114 148.873,251.114 151,249.5C 151.347,243.985 151.847,238.485 152.5,233C 151.232,221.344 151.232,209.844 152.5,198.5 Z"/></g>
<g><path style="opacity:1" fill="#ccac7a" d="M 293.5,222.5 C 296.704,223.383 299.371,225.05 301.5,227.5C 302.082,228.931 302.915,230.264 304,231.5C 304.414,231.043 304.914,230.709 305.5,230.5C 309.934,232.589 314.6,233.756 319.5,234C 327.525,234.301 335.525,234.801 343.5,235.5C 342.301,238.956 340.801,242.289 339,245.5C 338,244.833 337,244.167 336,243.5C 332.751,245.289 329.418,245.622 326,244.5C 323.706,245.422 321.539,246.422 319.5,247.5C 318.198,248.807 316.865,248.807 315.5,247.5C 312.165,249.675 308.831,251.008 305.5,251.5C 301.797,247.466 298.13,243.466 294.5,239.5C 294.778,237.654 294.111,236.32 292.5,235.5C 289.816,241.344 290.149,247.011 293.5,252.5C 293.92,256.007 294.92,259.341 296.5,262.5C 295.5,262.5 294.5,262.5 293.5,262.5C 291.871,257.648 290.704,252.648 290,247.5C 289.292,246.619 288.458,245.953 287.5,245.5C 287.162,237.656 289.495,230.823 294.5,225C 294.095,224.055 293.428,223.388 292.5,223C 292.728,222.601 293.062,222.435 293.5,222.5 Z"/></g>
<g><path style="opacity:1" fill="#9d7861" d="M 316.5,223.5 C 317.5,223.5 318.5,223.5 319.5,223.5C 327.651,224.922 335.985,225.922 344.5,226.5C 343.737,227.268 342.737,227.768 341.5,228C 342.337,229.011 342.67,230.178 342.5,231.5C 334.858,230.808 327.192,230.308 319.5,230C 315.647,229.83 312.314,228.496 309.5,226C 307.527,225.505 305.527,225.338 303.5,225.5C 307.373,223.57 311.706,222.903 316.5,223.5 Z"/></g>
<g><path style="opacity:1" fill="#d4af7a" d="M 239.5,216.5 C 236.279,216.896 233.612,218.229 231.5,220.5C 229.052,220.01 227.385,220.843 226.5,223C 230.228,226.184 234.561,227.184 239.5,226C 241.611,225.155 243.611,224.322 245.5,223.5C 258.903,220.03 272.57,218.697 286.5,219.5C 289.312,219.767 291.645,220.767 293.5,222.5C 293.062,222.435 292.728,222.601 292.5,223C 293.428,223.388 294.095,224.055 294.5,225C 289.495,230.823 287.162,237.656 287.5,245.5C 287.5,247.167 287.5,248.833 287.5,250.5C 286.167,249.833 285.167,248.833 284.5,247.5C 283.338,245.511 282.005,243.677 280.5,242C 280.714,236.879 282.047,232.212 284.5,228C 284.104,226.103 283.104,224.603 281.5,223.5C 278.232,222.513 274.898,222.18 271.5,222.5C 271.5,223.5 271.5,224.5 271.5,225.5C 263.663,224.968 255.997,225.801 248.5,228C 249.711,228.893 249.711,229.726 248.5,230.5C 246.378,229.218 244.711,229.718 243.5,232C 245.048,234.264 246.714,236.431 248.5,238.5C 246.41,241.948 247.076,245.114 250.5,248C 250.167,248.333 249.833,248.667 249.5,249C 250.5,249.333 251.5,249.667 252.5,250C 250.754,250.471 249.087,251.138 247.5,252C 248.056,252.383 248.389,252.883 248.5,253.5C 245.282,252.308 242.115,250.975 239,249.5C 238.536,250.094 238.369,250.761 238.5,251.5C 235.173,250.754 233.007,248.754 232,245.5C 231.667,245.833 231.333,246.167 231,246.5C 228.931,245.736 226.764,245.236 224.5,245C 223.773,243.601 223.273,242.101 223,240.5C 222.242,242.91 220.575,243.91 218,243.5C 216.833,243.333 215.667,243.167 214.5,243C 213.491,240.828 211.824,239.662 209.5,239.5C 209.322,238.305 208.989,237.138 208.5,236C 209.767,234.333 211.267,232.833 213,231.5C 213.496,229.965 213.33,228.465 212.5,227C 212.808,225.541 213.475,224.374 214.5,223.5C 216.124,223.36 217.29,224.027 218,225.5C 219.236,223.462 221.069,222.295 223.5,222C 224.833,221.333 224.833,220.667 223.5,220C 225.381,218.898 227.048,217.565 228.5,216C 228.355,215.228 228.022,214.561 227.5,214C 231.486,213.501 235.486,213.334 239.5,213.5C 239.5,214.5 239.5,215.5 239.5,216.5 Z"/></g>
<g><path style="opacity:1" fill="#a98d5c" d="M 231.5,220.5 C 235.693,223.197 240.36,224.197 245.5,223.5C 243.611,224.322 241.611,225.155 239.5,226C 234.561,227.184 230.228,226.184 226.5,223C 227.385,220.843 229.052,220.01 231.5,220.5 Z"/></g>
<g><path style="opacity:1" fill="#947a58" d="M 303.5,225.5 C 305.527,225.338 307.527,225.505 309.5,226C 312.314,228.496 315.647,229.83 319.5,230C 327.192,230.308 334.858,230.808 342.5,231.5C 343.552,231.351 344.552,231.517 345.5,232C 346.163,233.518 347.163,234.685 348.5,235.5C 348.625,240.622 348.625,245.956 348.5,251.5C 347.517,247.702 347.183,243.702 347.5,239.5C 347.548,236.708 346.215,234.875 343.5,234C 335.562,232.803 327.562,232.136 319.5,232C 313.739,231.558 308.406,230.058 303.5,227.5C 303.5,226.833 303.5,226.167 303.5,225.5 Z"/></g>
<g><path style="opacity:1" fill="#967c68" d="M 157.5,228.5 C 158.632,232.019 159.632,235.686 160.5,239.5C 159.523,242.287 159.19,245.287 159.5,248.5C 158.681,245.695 158.181,242.695 158,239.5C 157.768,240.737 157.268,241.737 156.5,242.5C 156.5,241.5 156.5,240.5 156.5,239.5C 156.5,237.167 156.5,234.833 156.5,232.5C 157.234,231.292 157.567,229.959 157.5,228.5 Z"/></g>
<g><path style="opacity:1" fill="#ac8459" d="M 164.5,234.5 C 167.5,234.5 170.5,234.5 173.5,234.5C 177.373,234.334 178.04,235.334 175.5,237.5C 174.127,237.343 172.793,237.51 171.5,238C 169.595,239.421 167.595,240.588 165.5,241.5C 164.275,240.848 163.608,239.681 163.5,238C 163.514,236.615 163.848,235.449 164.5,234.5 Z"/></g>
<g><path style="opacity:1" fill="#a08978" d="M 344.5,226.5 C 347.807,227.051 351.14,227.384 354.5,227.5C 354.351,228.552 354.517,229.552 355,230.5C 356.685,232.017 358.185,233.684 359.5,235.5C 358.995,236.919 357.995,237.585 356.5,237.5C 353.673,237.416 351.006,236.75 348.5,235.5C 347.163,234.685 346.163,233.518 345.5,232C 344.552,231.517 343.552,231.351 342.5,231.5C 342.67,230.178 342.337,229.011 341.5,228C 342.737,227.768 343.737,227.268 344.5,226.5 Z"/></g>
<g><path style="opacity:1" fill="#c4ab80" d="M 301.5,227.5 C 302.167,227.5 302.833,227.5 303.5,227.5C 308.406,230.058 313.739,231.558 319.5,232C 327.562,232.136 335.562,232.803 343.5,234C 346.215,234.875 347.548,236.708 347.5,239.5C 346.86,244.808 345.86,250.141 344.5,255.5C 342.833,255.5 341.167,255.5 339.5,255.5C 340.056,251.807 338.722,249.14 335.5,247.5C 331.351,246.191 327.351,246.191 323.5,247.5C 322.167,247.833 320.833,248.167 319.5,248.5C 319.5,248.167 319.5,247.833 319.5,247.5C 321.539,246.422 323.706,245.422 326,244.5C 329.418,245.622 332.751,245.289 336,243.5C 337,244.167 338,244.833 339,245.5C 340.801,242.289 342.301,238.956 343.5,235.5C 335.525,234.801 327.525,234.301 319.5,234C 314.6,233.756 309.934,232.589 305.5,230.5C 304.914,230.709 304.414,231.043 304,231.5C 302.915,230.264 302.082,228.931 301.5,227.5 Z"/></g>
<g><path style="opacity:1" fill="#d6b186" d="M 187.5,243.5 C 188.315,244.837 189.482,245.837 191,246.5C 191.499,251.155 191.666,255.821 191.5,260.5C 188.311,260.858 185.311,261.525 182.5,262.5C 178.523,261.489 174.189,261.489 169.5,262.5C 167.749,259.071 167.249,255.405 168,251.5C 169.863,249.624 171.363,247.457 172.5,245C 170.558,242.099 168.225,241.932 165.5,244.5C 164.893,244.376 164.56,244.043 164.5,243.5C 164.833,242.833 165.167,242.167 165.5,241.5C 167.595,240.588 169.595,239.421 171.5,238C 172.793,237.51 174.127,237.343 175.5,237.5C 177.575,237.302 179.575,237.135 181.5,237C 181.034,238.299 181.034,239.799 181.5,241.5C 183.718,241.614 185.718,242.28 187.5,243.5 Z"/></g>
<g><path style="opacity:1" fill="#d8ac78" d="M 284.5,247.5 C 283.592,252.868 282.426,258.534 281,264.5C 278.597,266.305 276.93,268.638 276,271.5C 274.161,269.289 274.328,267.123 276.5,265C 274.899,264.727 273.399,264.227 272,263.5C 271.751,264.624 271.251,265.624 270.5,266.5C 266.167,264.167 262.833,260.833 260.5,256.5C 256.916,254.031 252.916,253.031 248.5,253.5C 248.389,252.883 248.056,252.383 247.5,252C 249.087,251.138 250.754,250.471 252.5,250C 251.5,249.667 250.5,249.333 249.5,249C 249.833,248.667 250.167,248.333 250.5,248C 247.076,245.114 246.41,241.948 248.5,238.5C 246.714,236.431 245.048,234.264 243.5,232C 244.711,229.718 246.378,229.218 248.5,230.5C 249.711,229.726 249.711,228.893 248.5,228C 255.997,225.801 263.663,224.968 271.5,225.5C 271.5,224.5 271.5,223.5 271.5,222.5C 274.898,222.18 278.232,222.513 281.5,223.5C 283.104,224.603 284.104,226.103 284.5,228C 282.047,232.212 280.714,236.879 280.5,242C 282.005,243.677 283.338,245.511 284.5,247.5 Z"/></g>
<g><path style="opacity:1" fill="#5e4743" d="M 359.5,207.5 C 359.833,207.5 360.167,207.5 360.5,207.5C 360.781,214.712 360.448,221.878 359.5,229C 362.1,231.965 363.1,235.465 362.5,239.5C 359.137,244.687 358.804,250.02 361.5,255.5C 361.666,264.506 361.5,273.506 361,282.5C 359.149,281.463 357.983,282.13 357.5,284.5C 356.833,284.5 356.167,284.5 355.5,284.5C 355.378,281.743 356.545,279.743 359,278.5C 360.02,267.983 359.187,257.65 356.5,247.5C 355.293,244.148 355.293,240.814 356.5,237.5C 357.995,237.585 358.995,236.919 359.5,235.5C 358.185,233.684 356.685,232.017 355,230.5C 354.517,229.552 354.351,228.552 354.5,227.5C 355.857,226.41 356.857,225.076 357.5,223.5C 357.281,224.675 357.614,225.675 358.5,226.5C 359.496,220.202 359.83,213.868 359.5,207.5 Z"/></g>
<g><path style="opacity:1" fill="#575040" d="M 348.5,235.5 C 351.006,236.75 353.673,237.416 356.5,237.5C 355.293,240.814 355.293,244.148 356.5,247.5C 354.631,249.635 353.964,252.302 354.5,255.5C 352.796,263.062 351.63,263.062 351,255.5C 350.79,257.058 350.29,258.391 349.5,259.5C 349.721,256.721 349.388,254.054 348.5,251.5C 348.625,245.956 348.625,240.622 348.5,235.5 Z"/></g>
<g><path style="opacity:1" fill="#ab975e" d="M 294.5,239.5 C 296.188,244.895 297.855,250.228 299.5,255.5C 297.636,254.022 296.303,252.022 295.5,249.5C 294.081,250.005 293.415,251.005 293.5,252.5C 290.149,247.011 289.816,241.344 292.5,235.5C 294.111,236.32 294.778,237.654 294.5,239.5 Z"/></g>
<g><path style="opacity:1" fill="#775b4c" d="M 156.5,239.5 C 156.5,240.5 156.5,241.5 156.5,242.5C 156.146,246.637 156.646,250.637 158,254.5C 159.319,252.75 159.819,250.75 159.5,248.5C 159.19,245.287 159.523,242.287 160.5,239.5C 161.01,242.983 161.677,246.316 162.5,249.5C 162.5,250.833 162.5,252.167 162.5,253.5C 160.259,254.3 159.259,255.966 159.5,258.5C 156.509,258.834 154.176,257.834 152.5,255.5C 156.848,256.632 157.514,255.298 154.5,251.5C 155.04,247.339 155.707,243.339 156.5,239.5 Z"/></g>
<g><path style="opacity:1" fill="#b29888" d="M 159.5,248.5 C 159.819,250.75 159.319,252.75 158,254.5C 156.646,250.637 156.146,246.637 156.5,242.5C 157.268,241.737 157.768,240.737 158,239.5C 158.181,242.695 158.681,245.695 159.5,248.5 Z"/></g>
<g><path style="opacity:1" fill="#c1b181" d="M 294.5,239.5 C 298.13,243.466 301.797,247.466 305.5,251.5C 308.831,251.008 312.165,249.675 315.5,247.5C 316.865,248.807 318.198,248.807 319.5,247.5C 319.5,247.833 319.5,248.167 319.5,248.5C 319.5,249.167 319.5,249.833 319.5,250.5C 317.516,250.484 316.516,251.484 316.5,253.5C 317.027,256.687 318.693,259.02 321.5,260.5C 321.918,261.222 322.584,261.722 323.5,262C 322.167,262.333 320.833,262.667 319.5,263C 321.301,263.317 321.634,263.984 320.5,265C 324.013,266.367 326.68,268.534 328.5,271.5C 326.432,272.375 324.432,273.541 322.5,275C 324.167,275.333 325.833,275.667 327.5,276C 324.832,276.567 322.166,277.067 319.5,277.5C 319.33,276.178 319.663,275.011 320.5,274C 319.975,273.308 319.308,272.808 318.5,272.5C 316.232,273.544 313.899,273.711 311.5,273C 308.623,271.873 305.623,271.206 302.5,271C 302.957,270.586 303.291,270.086 303.5,269.5C 301.955,268.548 300.288,268.215 298.5,268.5C 296.833,266.5 295.167,264.5 293.5,262.5C 294.5,262.5 295.5,262.5 296.5,262.5C 298.297,263.73 300.297,264.396 302.5,264.5C 301.241,261.634 300.241,258.634 299.5,255.5C 297.855,250.228 296.188,244.895 294.5,239.5 Z"/></g>
<g><path style="opacity:1" fill="#9c8d6d" d="M 323.5,247.5 C 326.167,247.5 328.833,247.5 331.5,247.5C 331.389,248.117 331.056,248.617 330.5,249C 332.116,249.615 333.449,250.615 334.5,252C 333.134,253.6 332.134,255.433 331.5,257.5C 330.059,258.304 328.559,258.971 327,259.5C 325.014,257.185 322.514,255.852 319.5,255.5C 319.5,253.833 319.5,252.167 319.5,250.5C 319.5,249.833 319.5,249.167 319.5,248.5C 320.833,248.167 322.167,247.833 323.5,247.5 Z"/></g>
<g><path style="opacity:1" fill="#d1b082" d="M 209.5,239.5 C 211.824,239.662 213.491,240.828 214.5,243C 215.667,243.167 216.833,243.333 218,243.5C 220.575,243.91 222.242,242.91 223,240.5C 223.273,242.101 223.773,243.601 224.5,245C 226.764,245.236 228.931,245.736 231,246.5C 231.333,246.167 231.667,245.833 232,245.5C 233.007,248.754 235.173,250.754 238.5,251.5C 238.763,255.741 241.097,257.907 245.5,258C 246.126,258.75 246.626,259.584 247,260.5C 247.333,260.167 247.667,259.833 248,259.5C 251.531,261.984 252.031,264.817 249.5,268C 250.272,269.221 251.272,270.221 252.5,271C 255.146,271.497 257.813,271.664 260.5,271.5C 261.196,266.588 262.863,266.422 265.5,271C 264.167,272 262.833,273 261.5,274C 263.176,275.177 264.509,276.677 265.5,278.5C 266.607,279.022 267.774,279.355 269,279.5C 271.003,278.017 273.17,276.683 275.5,275.5C 276.568,272.795 278.568,271.295 281.5,271C 282.126,270.25 282.626,269.416 283,268.5C 282.68,271.46 282.68,274.46 283,277.5C 284.818,273.714 286.318,274.048 287.5,278.5C 284.904,280.297 285.237,281.631 288.5,282.5C 288.6,278.186 290.266,274.686 293.5,272C 292.062,271.781 290.729,271.281 289.5,270.5C 290.833,269.5 290.833,268.5 289.5,267.5C 292.916,263.562 292.583,259.729 288.5,256C 289.739,253.882 289.405,252.049 287.5,250.5C 287.5,248.833 287.5,247.167 287.5,245.5C 288.458,245.953 289.292,246.619 290,247.5C 290.704,252.648 291.871,257.648 293.5,262.5C 295.167,264.5 296.833,266.5 298.5,268.5C 296.938,272.652 296.272,276.985 296.5,281.5C 295.055,284.118 293.389,286.618 291.5,289C 292.088,292.015 293.755,294.182 296.5,295.5C 309.341,298.4 322.341,299.233 335.5,298C 337.058,297.79 338.391,297.29 339.5,296.5C 339.833,296.5 340.167,296.5 340.5,296.5C 341.483,297.85 342.816,298.85 344.5,299.5C 342.713,300.316 341.046,301.316 339.5,302.5C 340.689,303.429 342.022,303.762 343.5,303.5C 343.035,309.294 342.035,314.961 340.5,320.5C 339.833,320.167 339.167,319.833 338.5,319.5C 337.821,315.134 336.821,310.801 335.5,306.5C 327.515,307.391 319.515,307.558 311.5,307C 316.833,306.333 316.833,305.667 311.5,305C 311.833,304.667 312.167,304.333 312.5,304C 308.5,303.667 304.5,303.333 300.5,303C 302.781,301.149 302.781,299.482 300.5,298C 298.19,297.503 295.857,297.337 293.5,297.5C 293.92,299.674 293.92,301.674 293.5,303.5C 292.197,301.063 290.53,298.896 288.5,297C 290.211,295.867 290.711,294.367 290,292.5C 289.586,292.957 289.086,293.291 288.5,293.5C 283.992,293.006 279.659,292.006 275.5,290.5C 273.971,290.529 272.804,291.196 272,292.5C 269.415,290.242 266.582,288.409 263.5,287C 266.167,286.667 268.833,286.333 271.5,286C 267.789,285.825 264.122,285.325 260.5,284.5C 260.833,283.833 261.167,283.167 261.5,282.5C 259.887,281.573 258.221,280.739 256.5,280C 257.167,279.667 257.833,279.333 258.5,279C 256.246,277.744 253.912,276.577 251.5,275.5C 249.535,277.934 248.202,280.767 247.5,284C 247.675,285.658 248.342,286.991 249.5,288C 245.955,294.786 240.288,298.619 232.5,299.5C 229.55,298.376 226.717,297.042 224,295.5C 220.855,296.88 218.188,296.214 216,293.5C 210.3,294.18 204.466,294.18 198.5,293.5C 196.077,293.594 193.744,294.094 191.5,295C 196.584,295.173 201.584,295.839 206.5,297C 199.181,299.763 191.848,301.263 184.5,301.5C 182.446,305.192 180.946,309.192 180,313.5C 177.978,314.991 176.312,314.658 175,312.5C 174.768,313.737 174.268,314.737 173.5,315.5C 173.261,312.085 173.928,308.919 175.5,306C 175.055,304.553 174.388,303.22 173.5,302C 175.984,300.394 175.984,298.894 173.5,297.5C 173.846,296.304 174.346,296.304 175,297.5C 175.464,296.906 175.631,296.239 175.5,295.5C 175.5,293.5 175.5,291.5 175.5,289.5C 190.076,287.385 204.242,288.385 218,292.5C 222.741,292.236 227.575,292.069 232.5,292C 235.424,289.277 237.424,285.944 238.5,282C 237.571,280.923 236.904,279.756 236.5,278.5C 240.394,275.565 241.061,272.065 238.5,268C 240.328,262.98 239.328,258.647 235.5,255C 232.716,254.108 230.05,252.942 227.5,251.5C 226.452,252.383 225.285,253.05 224,253.5C 221.901,252.713 219.734,252.38 217.5,252.5C 215.157,251.656 212.824,250.656 210.5,249.5C 206.577,245.609 201.911,244.609 196.5,246.5C 194.359,250.717 194.026,255.05 195.5,259.5C 194.462,261.519 193.128,261.853 191.5,260.5C 191.666,255.821 191.499,251.155 191,246.5C 189.482,245.837 188.315,244.837 187.5,243.5C 187.5,242.167 187.5,240.833 187.5,239.5C 188.833,239.5 190.167,239.5 191.5,239.5C 191.5,238.5 191.5,237.5 191.5,236.5C 197.521,234.288 202.354,235.621 206,240.5C 207.209,240.347 208.375,240.014 209.5,239.5 Z"/></g>
<g><path style="opacity:1" fill="#b49b7b" d="M 210.5,249.5 C 211.291,252.417 211.291,255.25 210.5,258C 205.837,260.262 201.504,259.762 197.5,256.5C 196.614,257.325 196.281,258.325 196.5,259.5C 196.167,259.5 195.833,259.5 195.5,259.5C 194.026,255.05 194.359,250.717 196.5,246.5C 201.911,244.609 206.577,245.609 210.5,249.5 Z"/></g>
<g><path style="opacity:1" fill="#958c44" d="M 299.5,255.5 C 300.241,258.634 301.241,261.634 302.5,264.5C 300.297,264.396 298.297,263.73 296.5,262.5C 294.92,259.341 293.92,256.007 293.5,252.5C 293.415,251.005 294.081,250.005 295.5,249.5C 296.303,252.022 297.636,254.022 299.5,255.5 Z"/></g>
<g><path style="opacity:1" fill="#969465" d="M 331.5,247.5 C 333.371,247.859 334.871,248.859 336,250.5C 336.43,253.192 336.263,255.859 335.5,258.5C 330.967,259.984 326.3,260.65 321.5,260.5C 318.693,259.02 317.027,256.687 316.5,253.5C 316.516,251.484 317.516,250.484 319.5,250.5C 319.5,252.167 319.5,253.833 319.5,255.5C 322.514,255.852 325.014,257.185 327,259.5C 328.559,258.971 330.059,258.304 331.5,257.5C 332.134,255.433 333.134,253.6 334.5,252C 333.449,250.615 332.116,249.615 330.5,249C 331.056,248.617 331.389,248.117 331.5,247.5 Z"/></g>
<g><path style="opacity:1" fill="#9f9466" d="M 210.5,249.5 C 212.824,250.656 215.157,251.656 217.5,252.5C 217.285,254.179 217.952,255.179 219.5,255.5C 221.042,256.141 222.376,257.141 223.5,258.5C 219.521,258.654 215.521,258.987 211.5,259.5C 210.754,260.736 210.421,262.07 210.5,263.5C 208.167,263.5 205.833,263.5 203.5,263.5C 200.669,262.921 198.336,261.588 196.5,259.5C 196.281,258.325 196.614,257.325 197.5,256.5C 201.504,259.762 205.837,260.262 210.5,258C 211.291,255.25 211.291,252.417 210.5,249.5 Z"/></g>
<g><path style="opacity:1" fill="#4d3c33" d="M 162.5,253.5 C 162.708,255.92 162.374,258.253 161.5,260.5C 160.311,261.429 158.978,261.762 157.5,261.5C 155.821,259.193 153.488,258.193 150.5,258.5C 142.679,258.739 136.179,261.739 131,267.5C 130.209,268.745 129.709,270.078 129.5,271.5C 129.167,271.5 128.833,271.5 128.5,271.5C 128.5,270.833 128.167,270.5 127.5,270.5C 127.215,268.712 127.548,267.045 128.5,265.5C 133.783,260.852 139.783,257.519 146.5,255.5C 148.5,255.5 150.5,255.5 152.5,255.5C 154.176,257.834 156.509,258.834 159.5,258.5C 159.259,255.966 160.259,254.3 162.5,253.5 Z"/></g>
<g><path style="opacity:1" fill="#bead96" d="M 157.5,261.5 C 156.5,261.5 155.5,261.5 154.5,261.5C 151.83,260.32 149.164,260.487 146.5,262C 147.369,263.465 146.869,264.631 145,265.5C 144.127,265.265 143.293,264.931 142.5,264.5C 139.467,266.796 136.133,268.63 132.5,270C 131.518,272.738 130.852,275.572 130.5,278.5C 129.532,276.393 129.198,274.059 129.5,271.5C 129.709,270.078 130.209,268.745 131,267.5C 136.179,261.739 142.679,258.739 150.5,258.5C 153.488,258.193 155.821,259.193 157.5,261.5 Z"/></g>
<g><path style="opacity:1" fill="#c1af87" d="M 236.5,278.5 C 235.833,278.167 235.167,277.833 234.5,277.5C 233.57,271.429 233.237,265.429 233.5,259.5C 231.803,258.636 230.637,257.303 230,255.5C 226.651,255.746 223.151,255.746 219.5,255.5C 217.952,255.179 217.285,254.179 217.5,252.5C 219.734,252.38 221.901,252.713 224,253.5C 225.285,253.05 226.452,252.383 227.5,251.5C 230.05,252.942 232.716,254.108 235.5,255C 239.328,258.647 240.328,262.98 238.5,268C 241.061,272.065 240.394,275.565 236.5,278.5 Z"/></g>
<g><path style="opacity:1" fill="#959d64" d="M 219.5,255.5 C 223.151,255.746 226.651,255.746 230,255.5C 230.637,257.303 231.803,258.636 233.5,259.5C 233.237,265.429 233.57,271.429 234.5,277.5C 234.66,279.199 234.494,280.866 234,282.5C 231.304,283.19 229.137,284.69 227.5,287C 222.648,287.815 217.981,287.648 213.5,286.5C 213.281,285.325 213.614,284.325 214.5,283.5C 215.739,283.058 216.739,282.391 217.5,281.5C 219.167,281.5 220.833,281.5 222.5,281.5C 222.5,278.167 222.5,274.833 222.5,271.5C 221.5,271.5 220.5,271.5 219.5,271.5C 219.579,270.07 219.246,268.736 218.5,267.5C 213.959,266.05 209.292,265.217 204.5,265C 203.944,264.617 203.611,264.117 203.5,263.5C 205.833,263.5 208.167,263.5 210.5,263.5C 210.421,262.07 210.754,260.736 211.5,259.5C 215.521,258.987 219.521,258.654 223.5,258.5C 222.376,257.141 221.042,256.141 219.5,255.5 Z"/></g>
<g><path style="opacity:1" fill="#ad9f7f" d="M 347.5,239.5 C 347.183,243.702 347.517,247.702 348.5,251.5C 349.388,254.054 349.721,256.721 349.5,259.5C 349.5,262.833 349.5,266.167 349.5,269.5C 347.81,269.856 346.81,270.856 346.5,272.5C 344.595,272.072 342.762,272.738 341,274.5C 338.847,271.876 336.013,270.876 332.5,271.5C 331.21,268.36 332.043,265.694 335,263.5C 335.494,261.866 335.66,260.199 335.5,258.5C 336.263,255.859 336.43,253.192 336,250.5C 334.871,248.859 333.371,247.859 331.5,247.5C 328.833,247.5 326.167,247.5 323.5,247.5C 327.351,246.191 331.351,246.191 335.5,247.5C 338.722,249.14 340.056,251.807 339.5,255.5C 341.167,255.5 342.833,255.5 344.5,255.5C 345.86,250.141 346.86,244.808 347.5,239.5 Z"/></g>
<g><path style="opacity:1" fill="#94866e" d="M 356.5,247.5 C 359.187,257.65 360.02,267.983 359,278.5C 356.545,279.743 355.378,281.743 355.5,284.5C 355.443,285.609 355.11,286.609 354.5,287.5C 352.373,283.929 350.206,280.262 348,276.5C 347.517,277.448 347.351,278.448 347.5,279.5C 347.167,279.5 346.833,279.5 346.5,279.5C 346.5,277.167 346.5,274.833 346.5,272.5C 346.81,270.856 347.81,269.856 349.5,269.5C 348.105,274.048 349.272,278.048 353,281.5C 353.915,280.672 354.581,279.672 355,278.5C 355.822,270.655 355.656,262.989 354.5,255.5C 353.964,252.302 354.631,249.635 356.5,247.5 Z"/></g>
<g><path style="opacity:1" fill="#c3b586" d="M 195.5,259.5 C 195.833,259.5 196.167,259.5 196.5,259.5C 198.336,261.588 200.669,262.921 203.5,263.5C 203.611,264.117 203.944,264.617 204.5,265C 209.292,265.217 213.959,266.05 218.5,267.5C 219.246,268.736 219.579,270.07 219.5,271.5C 220.5,271.5 221.5,271.5 222.5,271.5C 222.5,274.833 222.5,278.167 222.5,281.5C 220.833,281.5 219.167,281.5 217.5,281.5C 210.313,281.825 203.313,281.491 196.5,280.5C 211.129,279.504 211.129,278.504 196.5,277.5C 195.311,277.756 194.144,278.089 193,278.5C 187.294,276.769 181.46,275.436 175.5,274.5C 171.719,271.744 171.552,268.744 175,265.5C 175.333,266.167 175.667,266.833 176,267.5C 177.965,265.45 180.132,263.783 182.5,262.5C 185.311,261.525 188.311,260.858 191.5,260.5C 193.128,261.853 194.462,261.519 195.5,259.5 Z"/></g>
<g><path style="opacity:1" fill="#adac83" d="M 335.5,258.5 C 335.66,260.199 335.494,261.866 335,263.5C 332.043,265.694 331.21,268.36 332.5,271.5C 331.298,272.405 329.964,272.405 328.5,271.5C 326.68,268.534 324.013,266.367 320.5,265C 321.634,263.984 321.301,263.317 319.5,263C 320.833,262.667 322.167,262.333 323.5,262C 322.584,261.722 321.918,261.222 321.5,260.5C 326.3,260.65 330.967,259.984 335.5,258.5 Z"/></g>
<g><path style="opacity:1" fill="#d4ad7f" d="M 284.5,247.5 C 285.167,248.833 286.167,249.833 287.5,250.5C 289.405,252.049 289.739,253.882 288.5,256C 292.583,259.729 292.916,263.562 289.5,267.5C 290.833,268.5 290.833,269.5 289.5,270.5C 290.729,271.281 292.062,271.781 293.5,272C 290.266,274.686 288.6,278.186 288.5,282.5C 285.237,281.631 284.904,280.297 287.5,278.5C 286.318,274.048 284.818,273.714 283,277.5C 282.68,274.46 282.68,271.46 283,268.5C 282.626,269.416 282.126,270.25 281.5,271C 278.568,271.295 276.568,272.795 275.5,275.5C 273.17,276.683 271.003,278.017 269,279.5C 267.774,279.355 266.607,279.022 265.5,278.5C 264.509,276.677 263.176,275.177 261.5,274C 262.833,273 264.167,272 265.5,271C 262.863,266.422 261.196,266.588 260.5,271.5C 257.813,271.664 255.146,271.497 252.5,271C 251.272,270.221 250.272,269.221 249.5,268C 252.031,264.817 251.531,261.984 248,259.5C 247.667,259.833 247.333,260.167 247,260.5C 246.626,259.584 246.126,258.75 245.5,258C 241.097,257.907 238.763,255.741 238.5,251.5C 238.369,250.761 238.536,250.094 239,249.5C 242.115,250.975 245.282,252.308 248.5,253.5C 252.916,253.031 256.916,254.031 260.5,256.5C 262.833,260.833 266.167,264.167 270.5,266.5C 271.251,265.624 271.751,264.624 272,263.5C 273.399,264.227 274.899,264.727 276.5,265C 274.328,267.123 274.161,269.289 276,271.5C 276.93,268.638 278.597,266.305 281,264.5C 282.426,258.534 283.592,252.868 284.5,247.5 Z"/></g>
<g><path style="opacity:1" fill="#b9ac87" d="M 298.5,268.5 C 300.288,268.215 301.955,268.548 303.5,269.5C 303.291,270.086 302.957,270.586 302.5,271C 305.623,271.206 308.623,271.873 311.5,273C 313.899,273.711 316.232,273.544 318.5,272.5C 319.308,272.808 319.975,273.308 320.5,274C 319.663,275.011 319.33,276.178 319.5,277.5C 322.166,277.067 324.832,276.567 327.5,276C 325.833,275.667 324.167,275.333 322.5,275C 324.432,273.541 326.432,272.375 328.5,271.5C 329.964,272.405 331.298,272.405 332.5,271.5C 336.013,270.876 338.847,271.876 341,274.5C 342.762,272.738 344.595,272.072 346.5,272.5C 346.5,274.833 346.5,277.167 346.5,279.5C 338.178,280.055 329.844,280.388 321.5,280.5C 317.005,279.578 312.338,278.911 307.5,278.5C 306.399,277.402 305.066,277.235 303.5,278C 302.295,279.376 300.962,280.542 299.5,281.5C 298.659,280.991 298.159,281.657 298,283.5C 297.722,282.584 297.222,281.918 296.5,281.5C 296.272,276.985 296.938,272.652 298.5,268.5 Z"/></g>
<g><path style="opacity:1" fill="#c8b188" d="M 182.5,262.5 C 180.132,263.783 177.965,265.45 176,267.5C 175.667,266.833 175.333,266.167 175,265.5C 171.552,268.744 171.719,271.744 175.5,274.5C 181.46,275.436 187.294,276.769 193,278.5C 194.144,278.089 195.311,277.756 196.5,277.5C 211.129,278.504 211.129,279.504 196.5,280.5C 194.833,280.5 193.167,280.5 191.5,280.5C 186.075,279.016 180.409,278.349 174.5,278.5C 170.833,278.667 167.167,278.833 163.5,279C 162.956,279.717 162.289,280.217 161.5,280.5C 161.196,279.85 160.863,279.183 160.5,278.5C 166.909,276.857 166.576,275.857 159.5,275.5C 159.5,274.5 159.5,273.5 159.5,272.5C 160.552,272.649 161.552,272.483 162.5,272C 160.866,271.506 159.199,271.34 157.5,271.5C 157.33,270.178 157.663,269.011 158.5,268C 157.072,265.868 155.739,263.701 154.5,261.5C 155.5,261.5 156.5,261.5 157.5,261.5C 158.978,261.762 160.311,261.429 161.5,260.5C 162.374,258.253 162.708,255.92 162.5,253.5C 162.5,252.167 162.5,250.833 162.5,249.5C 162.025,246.918 162.692,244.918 164.5,243.5C 164.56,244.043 164.893,244.376 165.5,244.5C 168.225,241.932 170.558,242.099 172.5,245C 171.363,247.457 169.863,249.624 168,251.5C 167.249,255.405 167.749,259.071 169.5,262.5C 174.189,261.489 178.523,261.489 182.5,262.5 Z"/></g>
<g><path style="opacity:1" fill="#d7b080" d="M 338.5,319.5 C 337.12,319.962 336.453,320.962 336.5,322.5C 337.987,326.593 337.82,330.593 336,334.5C 335.751,333.376 335.251,332.376 334.5,331.5C 330.065,332.24 325.731,333.407 321.5,335C 325.486,335.499 329.486,335.666 333.5,335.5C 333.5,336.833 333.5,338.167 333.5,339.5C 328.999,339.2 324.333,339.2 319.5,339.5C 319.657,338.127 319.49,336.793 319,335.5C 314,340.833 309,346.167 304,351.5C 303.716,349.114 302.716,348.448 301,349.5C 299.404,355.364 297.237,361.03 294.5,366.5C 295.231,368.817 296.898,370.984 299.5,373C 293.947,374.57 288.281,374.903 282.5,374C 271.276,371.616 259.942,370.616 248.5,371C 242.368,375.294 236.035,375.627 229.5,372C 227.963,370.89 227.297,369.39 227.5,367.5C 225.856,367.286 224.356,367.62 223,368.5C 222.667,367.5 222.333,366.5 222,365.5C 219.323,363.486 216.656,361.486 214,359.5C 212.779,360.272 211.779,361.272 211,362.5C 204.838,359.832 198.338,358.832 191.5,359.5C 191.5,356.833 191.5,354.167 191.5,351.5C 188.002,351.435 187.502,350.101 190,347.5C 193.394,345.394 196.228,342.727 198.5,339.5C 197.307,337.616 195.641,337.116 193.5,338C 192.027,338.71 191.36,339.876 191.5,341.5C 189.184,342.36 186.851,342.86 184.5,343C 185.714,340.649 186.548,338.149 187,335.5C 187.499,330.177 187.666,324.844 187.5,319.5C 189.998,320.627 192.664,321.294 195.5,321.5C 200.396,320.957 200.396,319.624 195.5,317.5C 194.5,318.167 193.5,318.833 192.5,319.5C 190.842,316.839 189.176,314.173 187.5,311.5C 187.709,310.914 188.043,310.414 188.5,310C 187.333,309.5 186.5,308.667 186,307.5C 185.685,305.414 185.185,303.414 184.5,301.5C 191.848,301.263 199.181,299.763 206.5,297C 201.584,295.839 196.584,295.173 191.5,295C 193.744,294.094 196.077,293.594 198.5,293.5C 204.466,294.18 210.3,294.18 216,293.5C 218.188,296.214 220.855,296.88 224,295.5C 226.717,297.042 229.55,298.376 232.5,299.5C 240.288,298.619 245.955,294.786 249.5,288C 248.342,286.991 247.675,285.658 247.5,284C 248.202,280.767 249.535,277.934 251.5,275.5C 253.912,276.577 256.246,277.744 258.5,279C 257.833,279.333 257.167,279.667 256.5,280C 258.221,280.739 259.887,281.573 261.5,282.5C 261.167,283.167 260.833,283.833 260.5,284.5C 264.122,285.325 267.789,285.825 271.5,286C 268.833,286.333 266.167,286.667 263.5,287C 266.582,288.409 269.415,290.242 272,292.5C 272.804,291.196 273.971,290.529 275.5,290.5C 279.659,292.006 283.992,293.006 288.5,293.5C 289.086,293.291 289.586,292.957 290,292.5C 290.711,294.367 290.211,295.867 288.5,297C 290.53,298.896 292.197,301.063 293.5,303.5C 293.92,301.674 293.92,299.674 293.5,297.5C 295.857,297.337 298.19,297.503 300.5,298C 302.781,299.482 302.781,301.149 300.5,303C 304.5,303.333 308.5,303.667 312.5,304C 312.167,304.333 311.833,304.667 311.5,305C 316.833,305.667 316.833,306.333 311.5,307C 319.515,307.558 327.515,307.391 335.5,306.5C 336.821,310.801 337.821,315.134 338.5,319.5 Z"/></g>
<g><path style="opacity:1" fill="#6a5a4f" d="M 354.5,255.5 C 355.656,262.989 355.822,270.655 355,278.5C 354.581,279.672 353.915,280.672 353,281.5C 349.272,278.048 348.105,274.048 349.5,269.5C 349.5,266.167 349.5,262.833 349.5,259.5C 350.29,258.391 350.79,257.058 351,255.5C 351.63,263.062 352.796,263.062 354.5,255.5 Z"/></g>
<g><path style="opacity:1" fill="#bdb787" d="M 191.5,280.5 C 187.5,280.5 183.5,280.5 179.5,280.5C 174.968,280.182 170.634,280.515 166.5,281.5C 163.3,282.044 160.967,283.71 159.5,286.5C 159.259,284.114 159.925,282.114 161.5,280.5C 162.289,280.217 162.956,279.717 163.5,279C 167.167,278.833 170.833,278.667 174.5,278.5C 180.409,278.349 186.075,279.016 191.5,280.5 Z"/></g>
<g><path style="opacity:1" fill="#625d28" d="M 166.5,281.5 C 170.634,280.515 174.968,280.182 179.5,280.5C 182.139,281.459 184.806,282.626 187.5,284C 182.845,284.499 178.179,284.666 173.5,284.5C 171.68,282.552 169.346,281.552 166.5,281.5 Z"/></g>
<g><path style="opacity:1" fill="#716c5b" d="M 346.5,279.5 C 346.833,279.5 347.167,279.5 347.5,279.5C 347.421,280.93 347.754,282.264 348.5,283.5C 347.388,284.265 346.721,285.265 346.5,286.5C 344.167,286.5 341.833,286.5 339.5,286.5C 340.23,285.288 341.23,284.288 342.5,283.5C 342,283.167 341.5,282.833 341,282.5C 334.356,281.887 327.856,281.221 321.5,280.5C 329.844,280.388 338.178,280.055 346.5,279.5 Z"/></g>
<g><path style="opacity:1" fill="#9e9181" d="M 128.5,271.5 C 128.833,271.5 129.167,271.5 129.5,271.5C 129.198,274.059 129.532,276.393 130.5,278.5C 131.879,284.256 133.546,289.923 135.5,295.5C 133.36,293.3 131.86,290.633 131,287.5C 129.038,282.344 128.205,277.011 128.5,271.5 Z"/></g>
<g><path style="opacity:1" fill="#a1806e" d="M 301.5,287.5 C 301.704,285.315 302.37,283.315 303.5,281.5C 306.989,281.137 310.489,280.804 314,280.5C 320.111,281.761 326.277,282.594 332.5,283C 329.277,284.126 326.111,284.293 323,283.5C 321.795,284.071 320.628,284.738 319.5,285.5C 321.424,285.567 323.424,285.9 325.5,286.5C 322.951,288.835 320.117,289.168 317,287.5C 311.822,290.069 306.655,290.069 301.5,287.5 Z"/></g>
<g><path style="opacity:1" fill="#8f834f" d="M 179.5,280.5 C 183.5,280.5 187.5,280.5 191.5,280.5C 193.167,280.5 194.833,280.5 196.5,280.5C 203.313,281.491 210.313,281.825 217.5,281.5C 216.739,282.391 215.739,283.058 214.5,283.5C 213.614,284.325 213.281,285.325 213.5,286.5C 200.169,286.103 186.835,285.77 173.5,285.5C 173.5,285.167 173.5,284.833 173.5,284.5C 178.179,284.666 182.845,284.499 187.5,284C 184.806,282.626 182.139,281.459 179.5,280.5 Z"/></g>
<g><path style="opacity:1" fill="#898159" d="M 307.5,278.5 C 305.545,278.799 304.211,279.799 303.5,281.5C 302.37,283.315 301.704,285.315 301.5,287.5C 301.5,288.5 301.5,289.5 301.5,290.5C 307.5,290.5 313.5,290.5 319.5,290.5C 319.5,291.167 319.5,291.833 319.5,292.5C 315.03,293.486 310.363,293.819 305.5,293.5C 301.576,294.035 298.576,292.701 296.5,289.5C 298.054,287.056 299.054,284.389 299.5,281.5C 300.962,280.542 302.295,279.376 303.5,278C 305.066,277.235 306.399,277.402 307.5,278.5 Z"/></g>
<g><path style="opacity:1" fill="#937b67" d="M 307.5,278.5 C 312.338,278.911 317.005,279.578 321.5,280.5C 327.856,281.221 334.356,281.887 341,282.5C 341.5,282.833 342,283.167 342.5,283.5C 341.23,284.288 340.23,285.288 339.5,286.5C 332.548,286.939 325.881,288.272 319.5,290.5C 313.5,290.5 307.5,290.5 301.5,290.5C 301.5,289.5 301.5,288.5 301.5,287.5C 306.655,290.069 311.822,290.069 317,287.5C 320.117,289.168 322.951,288.835 325.5,286.5C 323.424,285.9 321.424,285.567 319.5,285.5C 320.628,284.738 321.795,284.071 323,283.5C 326.111,284.293 329.277,284.126 332.5,283C 326.277,282.594 320.111,281.761 314,280.5C 310.489,280.804 306.989,281.137 303.5,281.5C 304.211,279.799 305.545,278.799 307.5,278.5 Z"/></g>
<g><path style="opacity:1" fill="#5e5744" d="M 354.5,287.5 C 354.5,291.833 354.5,296.167 354.5,300.5C 353.679,297.359 353.179,294.025 353,290.5C 351.89,288.963 350.39,288.297 348.5,288.5C 348.167,288.5 347.833,288.5 347.5,288.5C 347.167,287.833 346.833,287.167 346.5,286.5C 346.721,285.265 347.388,284.265 348.5,283.5C 347.754,282.264 347.421,280.93 347.5,279.5C 347.351,278.448 347.517,277.448 348,276.5C 350.206,280.262 352.373,283.929 354.5,287.5 Z"/></g>
<g><path style="opacity:1" fill="#c7aa8d" d="M 154.5,261.5 C 155.739,263.701 157.072,265.868 158.5,268C 157.663,269.011 157.33,270.178 157.5,271.5C 159.199,271.34 160.866,271.506 162.5,272C 161.552,272.483 160.552,272.649 159.5,272.5C 159.5,273.5 159.5,274.5 159.5,275.5C 166.576,275.857 166.909,276.857 160.5,278.5C 160.863,279.183 161.196,279.85 161.5,280.5C 159.925,282.114 159.259,284.114 159.5,286.5C 159.296,288.685 158.63,290.685 157.5,292.5C 157.5,292.833 157.5,293.167 157.5,293.5C 155.177,296.126 152.843,298.793 150.5,301.5C 148.856,301.714 147.356,301.38 146,300.5C 146.155,297.16 146.655,293.826 147.5,290.5C 147.5,289.5 147.5,288.5 147.5,287.5C 147.874,282.147 148.874,276.98 150.5,272C 150.43,271.235 150.097,270.735 149.5,270.5C 148.054,269.06 146.221,268.393 144,268.5C 141.813,268.788 139.646,269.122 137.5,269.5C 136.87,277.421 137.87,285.087 140.5,292.5C 140.5,294.5 140.5,296.5 140.5,298.5C 139.167,298.5 137.833,298.5 136.5,298.5C 135.89,297.609 135.557,296.609 135.5,295.5C 133.546,289.923 131.879,284.256 130.5,278.5C 130.852,275.572 131.518,272.738 132.5,270C 136.133,268.63 139.467,266.796 142.5,264.5C 143.293,264.931 144.127,265.265 145,265.5C 146.869,264.631 147.369,263.465 146.5,262C 149.164,260.487 151.83,260.32 154.5,261.5 Z"/></g>
<g><path style="opacity:1" fill="#9b6453" d="M 149.5,270.5 C 150.097,270.735 150.43,271.235 150.5,272C 148.874,276.98 147.874,282.147 147.5,287.5C 145.442,289.996 144.276,289.33 144,285.5C 142.989,284.663 141.822,284.33 140.5,284.5C 139.569,280.381 139.736,276.381 141,272.5C 143.667,271.167 146.333,271.167 149,272.5C 149.464,271.906 149.631,271.239 149.5,270.5 Z"/></g>
<g><path style="opacity:1" fill="#835c50" d="M 149.5,270.5 C 149.631,271.239 149.464,271.906 149,272.5C 146.333,271.167 143.667,271.167 141,272.5C 139.736,276.381 139.569,280.381 140.5,284.5C 141.822,284.33 142.989,284.663 144,285.5C 144.276,289.33 145.442,289.996 147.5,287.5C 147.5,288.5 147.5,289.5 147.5,290.5C 146.325,291.974 145.325,293.64 144.5,295.5C 142.84,294.828 141.507,293.828 140.5,292.5C 137.87,285.087 136.87,277.421 137.5,269.5C 139.646,269.122 141.813,268.788 144,268.5C 146.221,268.393 148.054,269.06 149.5,270.5 Z"/></g>
<g><path style="opacity:1" fill="#79534f" d="M 361.5,255.5 C 362.659,266.33 363.159,277.33 363,288.5C 362,289.833 361,291.167 360,292.5C 359.346,304.089 357.846,315.423 355.5,326.5C 357.149,312.48 357.816,298.48 357.5,284.5C 357.983,282.13 359.149,281.463 361,282.5C 361.5,273.506 361.666,264.506 361.5,255.5 Z"/></g>
<g><path style="opacity:1" fill="#584c2f" d="M 166.5,281.5 C 169.346,281.552 171.68,282.552 173.5,284.5C 173.5,284.833 173.5,285.167 173.5,285.5C 172.041,285.433 170.708,285.766 169.5,286.5C 169.167,286.5 168.833,286.5 168.5,286.5C 167.514,290.97 167.181,295.637 167.5,300.5C 166.767,297.355 165.767,294.188 164.5,291C 161.829,290.167 159.496,290.667 157.5,292.5C 158.63,290.685 159.296,288.685 159.5,286.5C 160.967,283.71 163.3,282.044 166.5,281.5 Z"/></g>
<g><path style="opacity:1" fill="#72744e" d="M 339.5,286.5 C 341.833,286.5 344.167,286.5 346.5,286.5C 346.833,287.167 347.167,287.833 347.5,288.5C 338.032,288.995 328.699,290.329 319.5,292.5C 319.5,291.833 319.5,291.167 319.5,290.5C 325.881,288.272 332.548,286.939 339.5,286.5 Z"/></g>
<g><path style="opacity:1" fill="#cbb589" d="M 234.5,277.5 C 235.167,277.833 235.833,278.167 236.5,278.5C 236.904,279.756 237.571,280.923 238.5,282C 237.424,285.944 235.424,289.277 232.5,292C 227.575,292.069 222.741,292.236 218,292.5C 204.242,288.385 190.076,287.385 175.5,289.5C 175.5,291.5 175.5,293.5 175.5,295.5C 174.842,294.602 174.176,293.602 173.5,292.5C 172.808,293.025 172.308,293.692 172,294.5C 171.219,299.554 171.386,304.554 172.5,309.5C 172.23,313.276 171.23,316.61 169.5,319.5C 170.522,308.435 170.522,297.435 169.5,286.5C 170.708,285.766 172.041,285.433 173.5,285.5C 186.835,285.77 200.169,286.103 213.5,286.5C 217.981,287.648 222.648,287.815 227.5,287C 229.137,284.69 231.304,283.19 234,282.5C 234.494,280.866 234.66,279.199 234.5,277.5 Z"/></g>
<g><path style="opacity:1" fill="#343035" d="M 127.5,270.5 C 128.167,270.5 128.5,270.833 128.5,271.5C 128.205,277.011 129.038,282.344 131,287.5C 131.86,290.633 133.36,293.3 135.5,295.5C 135.557,296.609 135.89,297.609 136.5,298.5C 137.11,299.391 137.443,300.391 137.5,301.5C 138.933,303.558 139.6,305.892 139.5,308.5C 136.479,305.634 133.979,302.3 132,298.5C 130.951,294.486 129.451,290.82 127.5,287.5C 126.487,281.77 126.487,276.103 127.5,270.5 Z"/></g>
<g><path style="opacity:1" fill="#474334" d="M 167.5,300.5 C 167.823,307.022 167.49,313.355 166.5,319.5C 166.666,313.491 166.499,307.491 166,301.5C 165.29,302.973 164.124,303.64 162.5,303.5C 161.5,303.5 160.5,303.5 159.5,303.5C 159.5,302.167 159.5,300.833 159.5,299.5C 159.975,296.918 159.308,294.918 157.5,293.5C 157.5,293.167 157.5,292.833 157.5,292.5C 159.496,290.667 161.829,290.167 164.5,291C 165.767,294.188 166.767,297.355 167.5,300.5 Z"/></g>
<g><path style="opacity:1" fill="#b1a085" d="M 348.5,288.5 C 350.39,288.297 351.89,288.963 353,290.5C 353.179,294.025 353.679,297.359 354.5,300.5C 354.451,304.078 353.785,307.411 352.5,310.5C 353.201,306.128 352.034,302.461 349,299.5C 348.505,297.527 348.338,295.527 348.5,293.5C 348.5,291.833 348.5,290.167 348.5,288.5 Z"/></g>
<g><path style="opacity:1" fill="#c7b687" d="M 299.5,281.5 C 299.054,284.389 298.054,287.056 296.5,289.5C 298.576,292.701 301.576,294.035 305.5,293.5C 306.6,294.558 307.934,295.392 309.5,296C 312.817,296.498 316.15,296.665 319.5,296.5C 326.097,295.725 332.764,295.725 339.5,296.5C 338.391,297.29 337.058,297.79 335.5,298C 322.341,299.233 309.341,298.4 296.5,295.5C 293.755,294.182 292.088,292.015 291.5,289C 293.389,286.618 295.055,284.118 296.5,281.5C 297.222,281.918 297.722,282.584 298,283.5C 298.159,281.657 298.659,280.991 299.5,281.5 Z"/></g>
<g><path style="opacity:1" fill="#b9b48f" d="M 347.5,288.5 C 347.833,288.5 348.167,288.5 348.5,288.5C 348.5,290.167 348.5,291.833 348.5,293.5C 338.739,293.721 329.072,294.721 319.5,296.5C 316.15,296.665 312.817,296.498 309.5,296C 307.934,295.392 306.6,294.558 305.5,293.5C 310.363,293.819 315.03,293.486 319.5,292.5C 328.699,290.329 338.032,288.995 347.5,288.5 Z"/></g>
<g><path style="opacity:1" fill="#383d37" d="M 157.5,293.5 C 159.308,294.918 159.975,296.918 159.5,299.5C 157.896,300.287 157.229,301.62 157.5,303.5C 156.5,303.5 155.5,303.5 154.5,303.5C 154.577,306.509 153.244,308.676 150.5,310C 148.511,310.519 147.511,309.686 147.5,307.5C 148.201,305.412 149.201,303.412 150.5,301.5C 152.843,298.793 155.177,296.126 157.5,293.5 Z"/></g>
<g><path style="opacity:1" fill="#46433e" d="M 355.5,284.5 C 356.167,284.5 356.833,284.5 357.5,284.5C 357.816,298.48 357.149,312.48 355.5,326.5C 355.5,327.167 355.167,327.5 354.5,327.5C 353.299,333.684 352.132,340.017 351,346.5C 350.861,360.273 349.694,373.939 347.5,387.5C 346.176,391.516 345.176,395.516 344.5,399.5C 345.829,388.222 347.162,376.888 348.5,365.5C 348.493,363.631 348.16,361.964 347.5,360.5C 348.254,355.537 348.587,350.537 348.5,345.5C 349.434,342.344 350.101,339.011 350.5,335.5C 352.132,328.063 352.799,320.396 352.5,312.5C 352.5,311.833 352.5,311.167 352.5,310.5C 353.785,307.411 354.451,304.078 354.5,300.5C 354.5,296.167 354.5,291.833 354.5,287.5C 355.11,286.609 355.443,285.609 355.5,284.5 Z"/></g>
<g><path style="opacity:1" fill="#524741" d="M 159.5,299.5 C 159.5,300.833 159.5,302.167 159.5,303.5C 160.5,303.5 161.5,303.5 162.5,303.5C 162.833,322.179 162.5,340.845 161.5,359.5C 160.828,360.949 160.161,362.282 159.5,363.5C 160.95,348.529 161.45,333.529 161,318.5C 160.667,318.833 160.333,319.167 160,319.5C 159.788,316.242 159.288,313.076 158.5,310C 154.235,308.755 150.902,309.922 148.5,313.5C 146.254,312.79 143.92,312.29 141.5,312C 140.695,310.887 140.028,309.721 139.5,308.5C 139.6,305.892 138.933,303.558 137.5,301.5C 139.634,302.703 140.968,304.537 141.5,307C 143.473,307.495 145.473,307.662 147.5,307.5C 147.511,309.686 148.511,310.519 150.5,310C 153.244,308.676 154.577,306.509 154.5,303.5C 155.5,303.5 156.5,303.5 157.5,303.5C 157.229,301.62 157.896,300.287 159.5,299.5 Z"/></g>
<g><path style="opacity:1" fill="#845651" d="M 127.5,287.5 C 129.451,290.82 130.951,294.486 132,298.5C 133.979,302.3 136.479,305.634 139.5,308.5C 140.028,309.721 140.695,310.887 141.5,312C 143.92,312.29 146.254,312.79 148.5,313.5C 150.91,312.937 153.243,312.437 155.5,312C 156.714,314.351 157.548,316.851 158,319.5C 158.825,330.341 158.659,341.008 157.5,351.5C 157.763,340.795 157.43,330.128 156.5,319.5C 151.515,319.336 146.682,319.336 142,319.5C 141,318.5 140,317.5 139,316.5C 137.767,313.266 135.767,310.599 133,308.5C 133.345,303.383 131.845,299.05 128.5,295.5C 127.52,292.914 127.187,290.247 127.5,287.5 Z"/></g>
<g><path style="opacity:1" fill="#8f8772" d="M 147.5,290.5 C 146.655,293.826 146.155,297.16 146,300.5C 147.356,301.38 148.856,301.714 150.5,301.5C 149.201,303.412 148.201,305.412 147.5,307.5C 145.473,307.662 143.473,307.495 141.5,307C 140.968,304.537 139.634,302.703 137.5,301.5C 137.443,300.391 137.11,299.391 136.5,298.5C 137.833,298.5 139.167,298.5 140.5,298.5C 140.5,296.5 140.5,294.5 140.5,292.5C 141.507,293.828 142.84,294.828 144.5,295.5C 145.325,293.64 146.325,291.974 147.5,290.5 Z"/></g>
<g><path style="opacity:1" fill="#ccb592" d="M 348.5,293.5 C 348.338,295.527 348.505,297.527 349,299.5C 352.034,302.461 353.201,306.128 352.5,310.5C 352.5,311.167 352.5,311.833 352.5,312.5C 351.416,319.983 350.749,327.65 350.5,335.5C 350.101,339.011 349.434,342.344 348.5,345.5C 348.5,344.5 348.5,343.5 348.5,342.5C 348.073,339.99 347.407,337.657 346.5,335.5C 347.228,331.69 347.895,327.857 348.5,324C 348.646,321.966 347.98,320.299 346.5,319C 347.051,316.81 347.051,314.477 346.5,312C 346.889,309.584 347.555,307.251 348.5,305C 346.493,302.964 345.327,300.464 345,297.5C 343.644,296.62 342.144,296.286 340.5,296.5C 340.167,296.5 339.833,296.5 339.5,296.5C 332.764,295.725 326.097,295.725 319.5,296.5C 329.072,294.721 338.739,293.721 348.5,293.5 Z"/></g>
<g><path style="opacity:1" fill="#847e64" d="M 168.5,286.5 C 167.578,320.492 166.911,354.492 166.5,388.5C 165.504,374.01 165.171,359.343 165.5,344.5C 165.174,335.983 165.507,327.65 166.5,319.5C 167.49,313.355 167.823,307.022 167.5,300.5C 167.181,295.637 167.514,290.97 168.5,286.5 Z"/></g>
<g><path style="opacity:1" fill="#757c60" d="M 352.5,312.5 C 352.799,320.396 352.132,328.063 350.5,335.5C 350.749,327.65 351.416,319.983 352.5,312.5 Z"/></g>
<g><path style="opacity:1" fill="#b3a484" d="M 168.5,286.5 C 168.833,286.5 169.167,286.5 169.5,286.5C 170.522,297.435 170.522,308.435 169.5,319.5C 167.814,344.46 167.148,369.46 167.5,394.5C 166.539,392.735 166.205,390.735 166.5,388.5C 166.911,354.492 167.578,320.492 168.5,286.5 Z"/></g>
<g><path style="opacity:1" fill="#636152" d="M 165.5,344.5 C 165.171,359.343 165.504,374.01 166.5,388.5C 166.205,390.735 166.539,392.735 167.5,394.5C 167.993,396.806 168.326,399.139 168.5,401.5C 167.065,399.402 165.898,397.069 165,394.5C 164.172,377.662 164.338,360.995 165.5,344.5 Z"/></g>
<g><path style="opacity:1" fill="#7b534d" d="M 354.5,327.5 C 352.17,343.678 351.003,360.012 351,376.5C 350.667,375.833 350.333,375.167 350,374.5C 349.851,379.101 349.018,383.434 347.5,387.5C 349.694,373.939 350.861,360.273 351,346.5C 352.132,340.017 353.299,333.684 354.5,327.5 Z"/></g>
<g><path style="opacity:1" fill="#5b4442" d="M 159.5,363.5 C 159.5,373.167 159.5,382.833 159.5,392.5C 159.5,394.833 159.5,397.167 159.5,399.5C 156.076,393.792 154.743,387.459 155.5,380.5C 156.167,370.83 156.834,361.163 157.5,351.5C 158.659,341.008 158.825,330.341 158,319.5C 157.548,316.851 156.714,314.351 155.5,312C 153.243,312.437 150.91,312.937 148.5,313.5C 150.902,309.922 154.235,308.755 158.5,310C 159.288,313.076 159.788,316.242 160,319.5C 160.333,319.167 160.667,318.833 161,318.5C 161.45,333.529 160.95,348.529 159.5,363.5 Z"/></g>
<g><path style="opacity:1" fill="#282f2d" d="M 166.5,319.5 C 165.507,327.65 165.174,335.983 165.5,344.5C 164.338,360.995 164.172,377.662 165,394.5C 165.898,397.069 167.065,399.402 168.5,401.5C 170.341,405.183 172.674,408.516 175.5,411.5C 175.631,412.239 175.464,412.906 175,413.5C 168.332,412.832 165.332,409.165 166,402.5C 163.05,399.579 160.883,396.246 159.5,392.5C 159.5,382.833 159.5,373.167 159.5,363.5C 160.161,362.282 160.828,360.949 161.5,359.5C 162.5,340.845 162.833,322.179 162.5,303.5C 164.124,303.64 165.29,302.973 166,301.5C 166.499,307.491 166.666,313.491 166.5,319.5 Z"/></g>
<g><path style="opacity:1" fill="#cbc29b" d="M 348.5,342.5 C 348.5,343.5 348.5,344.5 348.5,345.5C 348.587,350.537 348.254,355.537 347.5,360.5C 346.475,375.842 343.642,390.842 339,405.5C 338.059,407.727 336.892,409.727 335.5,411.5C 341.152,389.937 344.985,367.937 347,345.5C 347.232,344.263 347.732,343.263 348.5,342.5 Z"/></g>
<g><path style="opacity:1" fill="#978f79" d="M 167.5,394.5 C 170.518,397.802 172.351,401.802 173,406.5C 174.758,408.083 176.258,409.75 177.5,411.5C 176.833,411.5 176.167,411.5 175.5,411.5C 172.674,408.516 170.341,405.183 168.5,401.5C 168.326,399.139 167.993,396.806 167.5,394.5 Z"/></g>
<g><path style="opacity:1" fill="#7f524c" d="M 157.5,351.5 C 156.834,361.163 156.167,370.83 155.5,380.5C 154.743,387.459 156.076,393.792 159.5,399.5C 162.734,404.28 165.901,409.28 169,414.5C 170.011,415.337 171.178,415.67 172.5,415.5C 172.643,418.097 173.477,420.431 175,422.5C 175.5,430.827 175.666,439.16 175.5,447.5C 173.723,439.876 172.556,431.876 172,423.5C 170.667,420.833 168.667,418.833 166,417.5C 165.489,415.122 164.822,412.788 164,410.5C 159.173,405.848 156.173,400.181 155,393.5C 153.917,379.237 154.751,365.237 157.5,351.5 Z"/></g>
<g><path style="opacity:1" fill="#4f4540" d="M 159.5,392.5 C 160.883,396.246 163.05,399.579 166,402.5C 165.332,409.165 168.332,412.832 175,413.5C 175.464,412.906 175.631,412.239 175.5,411.5C 176.167,411.5 176.833,411.5 177.5,411.5C 178.833,412.5 180.167,413.5 181.5,414.5C 181.5,416.5 181.5,418.5 181.5,420.5C 180.523,423.287 180.19,426.287 180.5,429.5C 180.5,433.5 180.5,437.5 180.5,441.5C 180.167,441.5 179.833,441.5 179.5,441.5C 179.831,433.804 179.497,426.138 178.5,418.5C 177.501,433.485 177.167,448.485 177.5,463.5C 176.833,458.167 176.167,452.833 175.5,447.5C 175.666,439.16 175.5,430.827 175,422.5C 173.477,420.431 172.643,418.097 172.5,415.5C 171.178,415.67 170.011,415.337 169,414.5C 165.901,409.28 162.734,404.28 159.5,399.5C 159.5,397.167 159.5,394.833 159.5,392.5 Z"/></g>
<g><path style="opacity:1" fill="#774f35" d="M 181.5,414.5 C 184.491,414.166 186.824,415.166 188.5,417.5C 187.564,418.974 186.23,419.974 184.5,420.5C 183.5,420.5 182.5,420.5 181.5,420.5C 181.5,418.5 181.5,416.5 181.5,414.5 Z"/></g>
<g><path style="opacity:1" fill="#79554f" d="M 341.5,408.5 C 341.588,413.483 340.421,418.149 338,422.5C 332.923,428.691 327.756,434.858 322.5,441C 319.599,443.716 316.266,445.882 312.5,447.5C 316.693,442.802 321.193,438.136 326,433.5C 327.823,428.845 330.823,425.179 335,422.5C 336.947,417.612 339.114,412.946 341.5,408.5 Z"/></g>
<g><path style="opacity:1" fill="#d4b18c" d="M 175.5,295.5 C 175.631,296.239 175.464,296.906 175,297.5C 174.346,296.304 173.846,296.304 173.5,297.5C 175.984,298.894 175.984,300.394 173.5,302C 174.388,303.22 175.055,304.553 175.5,306C 173.928,308.919 173.261,312.085 173.5,315.5C 174.69,337.931 174.69,360.597 173.5,383.5C 172.5,383.5 171.5,383.5 170.5,383.5C 170.566,387.753 172.066,388.42 175,385.5C 176.631,390.113 178.298,394.78 180,399.5C 180.667,400.167 181.333,400.833 182,401.5C 182.826,399.595 183.993,399.261 185.5,400.5C 186.579,402.543 188.246,403.876 190.5,404.5C 191.429,405.689 191.762,407.022 191.5,408.5C 193.936,408.317 196.103,408.984 198,410.5C 198.333,410.167 198.667,409.833 199,409.5C 199.813,411.436 200.313,413.436 200.5,415.5C 206.015,415.621 211.348,415.621 216.5,415.5C 216.833,415.833 217.167,416.167 217.5,416.5C 215.13,418.688 214.463,421.188 215.5,424C 220.504,426.584 225.837,427.918 231.5,428C 233.686,429.512 235.353,431.512 236.5,434C 241.884,436.614 247.384,438.781 253,440.5C 261.827,439.563 270.66,439.396 279.5,440C 276.523,439.519 273.857,438.352 271.5,436.5C 272,436.167 272.5,435.833 273,435.5C 276.458,436.813 279.958,437.98 283.5,439C 282.833,439.333 282.167,439.667 281.5,440C 289.753,441.874 295.419,439.041 298.5,431.5C 300.167,431.5 301.833,431.5 303.5,431.5C 303.215,429.712 303.548,428.045 304.5,426.5C 310.197,423.424 313.697,418.757 315,412.5C 315.739,411.426 316.739,410.759 318,410.5C 319.416,411.573 320.75,411.573 322,410.5C 322.333,408.833 322.667,407.167 323,405.5C 325.027,404.307 326.527,402.64 327.5,400.5C 326.689,399.784 326.022,398.95 325.5,398C 326.695,394.44 328.529,391.274 331,388.5C 331.494,386.866 331.66,385.199 331.5,383.5C 332.5,383.5 333.5,383.5 334.5,383.5C 335.192,375.858 335.692,368.192 336,360.5C 336.186,362.9 336.686,365.234 337.5,367.5C 338.63,361.45 338.296,355.45 336.5,349.5C 338.541,339.877 339.874,330.211 340.5,320.5C 342.035,314.961 343.035,309.294 343.5,303.5C 342.022,303.762 340.689,303.429 339.5,302.5C 341.046,301.316 342.713,300.316 344.5,299.5C 342.816,298.85 341.483,297.85 340.5,296.5C 342.144,296.286 343.644,296.62 345,297.5C 345.327,300.464 346.493,302.964 348.5,305C 347.555,307.251 346.889,309.584 346.5,312C 347.051,314.477 347.051,316.81 346.5,319C 347.98,320.299 348.646,321.966 348.5,324C 347.895,327.857 347.228,331.69 346.5,335.5C 345.504,335.414 344.671,335.748 344,336.5C 343.069,344.152 342.236,351.819 341.5,359.5C 340.749,358.624 340.249,357.624 340,356.5C 341.48,371.077 340.146,385.41 336,399.5C 335.667,398.833 335.333,398.167 335,397.5C 334.527,399.779 333.527,401.779 332,403.5C 331.502,406.482 331.335,409.482 331.5,412.5C 327.084,410.486 323.418,411.32 320.5,415C 321.938,415.219 323.271,415.719 324.5,416.5C 323.38,418.596 321.88,418.93 320,417.5C 319.751,418.624 319.251,419.624 318.5,420.5C 312.051,423.447 308.551,428.447 308,435.5C 306.644,434.62 305.144,434.286 303.5,434.5C 303.5,435.833 303.5,437.167 303.5,438.5C 298.212,440.471 292.879,442.471 287.5,444.5C 287.5,446.167 287.5,447.833 287.5,449.5C 284.449,449.454 281.782,450.454 279.5,452.5C 272.356,449.891 265.189,449.891 258,452.5C 254.561,452.185 251.394,451.185 248.5,449.5C 245.516,450.275 242.516,450.941 239.5,451.5C 233.079,449.123 227.079,445.956 221.5,442C 210.797,433.328 199.797,425.161 188.5,417.5C 186.824,415.166 184.491,414.166 181.5,414.5C 180.167,413.5 178.833,412.5 177.5,411.5C 176.258,409.75 174.758,408.083 173,406.5C 172.351,401.802 170.518,397.802 167.5,394.5C 167.148,369.46 167.814,344.46 169.5,319.5C 171.23,316.61 172.23,313.276 172.5,309.5C 171.386,304.554 171.219,299.554 172,294.5C 172.308,293.692 172.808,293.025 173.5,292.5C 174.176,293.602 174.842,294.602 175.5,295.5 Z"/></g>
<g><path style="opacity:1" fill="#d7b186" d="M 184.5,301.5 C 185.185,303.414 185.685,305.414 186,307.5C 186.5,308.667 187.333,309.5 188.5,310C 188.043,310.414 187.709,310.914 187.5,311.5C 189.176,314.173 190.842,316.839 192.5,319.5C 193.5,318.833 194.5,318.167 195.5,317.5C 200.396,319.624 200.396,320.957 195.5,321.5C 192.664,321.294 189.998,320.627 187.5,319.5C 187.666,324.844 187.499,330.177 187,335.5C 186.548,338.149 185.714,340.649 184.5,343C 186.851,342.86 189.184,342.36 191.5,341.5C 191.36,339.876 192.027,338.71 193.5,338C 195.641,337.116 197.307,337.616 198.5,339.5C 196.228,342.727 193.394,345.394 190,347.5C 187.502,350.101 188.002,351.435 191.5,351.5C 191.5,354.167 191.5,356.833 191.5,359.5C 198.338,358.832 204.838,359.832 211,362.5C 211.779,361.272 212.779,360.272 214,359.5C 216.656,361.486 219.323,363.486 222,365.5C 222.333,366.5 222.667,367.5 223,368.5C 224.356,367.62 225.856,367.286 227.5,367.5C 227.297,369.39 227.963,370.89 229.5,372C 236.035,375.627 242.368,375.294 248.5,371C 259.942,370.616 271.276,371.616 282.5,374C 288.281,374.903 293.947,374.57 299.5,373C 296.898,370.984 295.231,368.817 294.5,366.5C 297.237,361.03 299.404,355.364 301,349.5C 302.716,348.448 303.716,349.114 304,351.5C 309,346.167 314,340.833 319,335.5C 319.49,336.793 319.657,338.127 319.5,339.5C 324.333,339.2 328.999,339.2 333.5,339.5C 333.5,338.167 333.5,336.833 333.5,335.5C 329.486,335.666 325.486,335.499 321.5,335C 325.731,333.407 330.065,332.24 334.5,331.5C 335.251,332.376 335.751,333.376 336,334.5C 337.82,330.593 337.987,326.593 336.5,322.5C 336.453,320.962 337.12,319.962 338.5,319.5C 339.167,319.833 339.833,320.167 340.5,320.5C 339.874,330.211 338.541,339.877 336.5,349.5C 338.296,355.45 338.63,361.45 337.5,367.5C 336.686,365.234 336.186,362.9 336,360.5C 335.692,368.192 335.192,375.858 334.5,383.5C 333.5,383.5 332.5,383.5 331.5,383.5C 331.66,385.199 331.494,386.866 331,388.5C 328.529,391.274 326.695,394.44 325.5,398C 326.022,398.95 326.689,399.784 327.5,400.5C 326.527,402.64 325.027,404.307 323,405.5C 322.667,407.167 322.333,408.833 322,410.5C 320.75,411.573 319.416,411.573 318,410.5C 316.739,410.759 315.739,411.426 315,412.5C 313.697,418.757 310.197,423.424 304.5,426.5C 303.548,428.045 303.215,429.712 303.5,431.5C 301.833,431.5 300.167,431.5 298.5,431.5C 295.419,439.041 289.753,441.874 281.5,440C 282.167,439.667 282.833,439.333 283.5,439C 279.958,437.98 276.458,436.813 273,435.5C 272.5,435.833 272,436.167 271.5,436.5C 273.857,438.352 276.523,439.519 279.5,440C 270.66,439.396 261.827,439.563 253,440.5C 247.384,438.781 241.884,436.614 236.5,434C 235.353,431.512 233.686,429.512 231.5,428C 225.837,427.918 220.504,426.584 215.5,424C 214.463,421.188 215.13,418.688 217.5,416.5C 217.167,416.167 216.833,415.833 216.5,415.5C 211.348,415.621 206.015,415.621 200.5,415.5C 200.313,413.436 199.813,411.436 199,409.5C 198.667,409.833 198.333,410.167 198,410.5C 196.103,408.984 193.936,408.317 191.5,408.5C 191.762,407.022 191.429,405.689 190.5,404.5C 188.246,403.876 186.579,402.543 185.5,400.5C 183.993,399.261 182.826,399.595 182,401.5C 181.333,400.833 180.667,400.167 180,399.5C 178.298,394.78 176.631,390.113 175,385.5C 172.066,388.42 170.566,387.753 170.5,383.5C 171.5,383.5 172.5,383.5 173.5,383.5C 174.69,360.597 174.69,337.931 173.5,315.5C 174.268,314.737 174.768,313.737 175,312.5C 176.312,314.658 177.978,314.991 180,313.5C 180.946,309.192 182.446,305.192 184.5,301.5 Z"/></g>
<g><path style="opacity:1" fill="#d8b38d" d="M 255.5,404.5 C 268.66,403.669 281.994,403.169 295.5,403C 300.877,401.579 304.711,398.413 307,393.5C 307.814,391.098 307.647,388.765 306.5,386.5C 297.471,385.851 288.471,384.851 279.5,383.5C 268.649,380.958 257.649,380.958 246.5,383.5C 244.146,383.162 241.813,382.662 239.5,382C 248,380.223 256.5,378.723 265,377.5C 271.032,376.861 277.032,377.527 283,379.5C 284.365,379.156 285.532,378.489 286.5,377.5C 294.881,378.282 303.214,379.449 311.5,381C 312.308,381.308 312.975,381.808 313.5,382.5C 311.222,383.215 309.889,384.382 309.5,386C 311.916,386.661 313.582,388.161 314.5,390.5C 312.534,394.626 310.368,398.626 308,402.5C 305.659,404.226 303.159,405.726 300.5,407C 301.448,407.483 302.448,407.649 303.5,407.5C 303.5,408.5 303.5,409.5 303.5,410.5C 301.512,410.827 299.512,411.16 297.5,411.5C 294.484,410.218 291.317,409.218 288,408.5C 285.046,408.594 284.879,409.094 287.5,410C 278.986,409.868 270.986,411.701 263.5,415.5C 255.571,415.482 247.571,415.315 239.5,415C 244.594,414.476 249.594,413.476 254.5,412C 249.404,411.155 244.404,409.988 239.5,408.5C 244.845,407.038 250.179,405.705 255.5,404.5 Z"/></g>
<g><path style="opacity:1" fill="#ac6a45" d="M 279.5,383.5 C 288.471,384.851 297.471,385.851 306.5,386.5C 307.647,388.765 307.814,391.098 307,393.5C 304.711,398.413 300.877,401.579 295.5,403C 281.994,403.169 268.66,403.669 255.5,404.5C 253.5,404.5 251.5,404.5 249.5,404.5C 238.936,407.653 232.936,403.986 231.5,393.5C 231.502,389.667 233.169,387.001 236.5,385.5C 237.5,385.5 238.5,385.5 239.5,385.5C 233.062,389.787 232.062,395.287 236.5,402C 239.265,403.476 241.932,403.643 244.5,402.5C 253.502,402.214 262.502,401.881 271.5,401.5C 275.151,402.165 278.985,402.499 283,402.5C 293.946,404.169 301.446,400.002 305.5,390C 305.245,388.674 304.578,387.674 303.5,387C 301.527,386.505 299.527,386.338 297.5,386.5C 291.129,386.938 285.129,385.938 279.5,383.5 Z"/></g>
<g><path style="opacity:1" fill="#bd685a" d="M 265.5,383.5 C 270.167,383.5 274.833,383.5 279.5,383.5C 285.129,385.938 291.129,386.938 297.5,386.5C 297.918,387.222 298.584,387.722 299.5,388C 300.054,390.612 299.387,393.112 297.5,395.5C 294.757,395.928 292.424,397.095 290.5,399C 283.971,399.448 277.637,400.282 271.5,401.5C 262.502,401.881 253.502,402.214 244.5,402.5C 242.958,401.699 241.292,401.366 239.5,401.5C 239.5,397.5 239.5,393.5 239.5,389.5C 248.382,387.777 257.049,385.777 265.5,383.5 Z"/></g>
<g><path style="opacity:1" fill="#c26b4c" d="M 265.5,383.5 C 257.049,385.777 248.382,387.777 239.5,389.5C 239.5,393.5 239.5,397.5 239.5,401.5C 241.292,401.366 242.958,401.699 244.5,402.5C 241.932,403.643 239.265,403.476 236.5,402C 232.062,395.287 233.062,389.787 239.5,385.5C 248.049,383.996 256.716,383.33 265.5,383.5 Z"/></g>
<g><path style="opacity:1" fill="#bf634a" d="M 297.5,386.5 C 299.527,386.338 301.527,386.505 303.5,387C 304.578,387.674 305.245,388.674 305.5,390C 301.446,400.002 293.946,404.169 283,402.5C 278.985,402.499 275.151,402.165 271.5,401.5C 277.637,400.282 283.971,399.448 290.5,399C 292.424,397.095 294.757,395.928 297.5,395.5C 299.387,393.112 300.054,390.612 299.5,388C 298.584,387.722 297.918,387.222 297.5,386.5 Z"/></g>
<g><path style="opacity:1" fill="#cb9d70" d="M 236.5,385.5 C 233.169,387.001 231.502,389.667 231.5,393.5C 232.936,403.986 238.936,407.653 249.5,404.5C 244.684,405.65 239.684,405.816 234.5,405C 232.667,403.833 231.167,402.333 230,400.5C 228.964,395.574 229.464,390.907 231.5,386.5C 233.045,385.548 234.712,385.215 236.5,385.5 Z"/></g>
<g><path style="opacity:1" fill="#a67254" d="M 279.5,383.5 C 274.833,383.5 270.167,383.5 265.5,383.5C 256.716,383.33 248.049,383.996 239.5,385.5C 241.833,384.833 244.167,384.167 246.5,383.5C 257.649,380.958 268.649,380.958 279.5,383.5 Z"/></g>
<g><path style="opacity:1" fill="#877963" d="M 181.5,420.5 C 182.5,420.5 183.5,420.5 184.5,420.5C 184.5,420.833 184.5,421.167 184.5,421.5C 183.5,421.833 182.833,422.5 182.5,423.5C 181.833,425.5 181.167,427.5 180.5,429.5C 180.19,426.287 180.523,423.287 181.5,420.5 Z"/></g>
<g><path style="opacity:1" fill="#d3b796" d="M 346.5,335.5 C 347.407,337.657 348.073,339.99 348.5,342.5C 347.732,343.263 347.232,344.263 347,345.5C 344.985,367.937 341.152,389.937 335.5,411.5C 325.908,428.265 313.574,442.765 298.5,455C 296.975,456.009 295.308,456.509 293.5,456.5C 292.264,454.957 290.598,453.957 288.5,453.5C 287.417,452.635 287.251,451.635 288,450.5C 291.183,452.523 294.683,453.023 298.5,452C 298.043,451.586 297.709,451.086 297.5,450.5C 298.715,447.664 300.382,445.164 302.5,443C 302.989,441.436 303.322,439.936 303.5,438.5C 303.5,437.167 303.5,435.833 303.5,434.5C 305.144,434.286 306.644,434.62 308,435.5C 308.551,428.447 312.051,423.447 318.5,420.5C 319.251,419.624 319.751,418.624 320,417.5C 321.88,418.93 323.38,418.596 324.5,416.5C 323.271,415.719 321.938,415.219 320.5,415C 323.418,411.32 327.084,410.486 331.5,412.5C 331.335,409.482 331.502,406.482 332,403.5C 333.527,401.779 334.527,399.779 335,397.5C 335.333,398.167 335.667,398.833 336,399.5C 340.146,385.41 341.48,371.077 340,356.5C 340.249,357.624 340.749,358.624 341.5,359.5C 342.236,351.819 343.069,344.152 344,336.5C 344.671,335.748 345.504,335.414 346.5,335.5 Z"/></g>
<g><path style="opacity:1" fill="#945750" d="M 362.5,239.5 C 363.014,250.829 363.514,262.162 364,273.5C 366.121,271.543 368.621,271.043 371.5,272C 370.167,274.333 370.167,276.667 371.5,279C 370.258,279.311 369.258,278.811 368.5,277.5C 368.167,278.167 367.833,278.833 367.5,279.5C 369.796,280.845 371.796,283.178 373.5,286.5C 371.074,291.873 369.741,297.54 369.5,303.5C 370.978,303.238 372.311,303.571 373.5,304.5C 372.412,306.965 370.579,308.631 368,309.5C 368.003,316.307 367.17,322.974 365.5,329.5C 367.465,333.932 367.965,338.599 367,343.5C 366.433,340.832 365.933,338.166 365.5,335.5C 364.5,335.5 363.5,335.5 362.5,335.5C 362.819,333.25 362.319,331.25 361,329.5C 359.692,334.622 358.526,339.789 357.5,345C 358.43,350.469 359.763,355.802 361.5,361C 360.167,362.667 358.833,364.333 357.5,366C 358.296,367.092 358.963,368.259 359.5,369.5C 358.349,371.325 357.682,373.325 357.5,375.5C 356.5,375.5 355.5,375.5 354.5,375.5C 354.866,377.905 355.533,380.238 356.5,382.5C 353.424,386.5 354.091,389.667 358.5,392C 357.793,394.543 356.46,396.709 354.5,398.5C 354.953,405.033 354.953,411.533 354.5,418C 354.722,420.667 355.722,423.001 357.5,425C 357.167,425.5 356.833,426 356.5,426.5C 355.327,423.721 353.493,423.054 351,424.5C 350.856,428.504 351.189,432.504 352,436.5C 353.044,433.435 354.71,430.768 357,428.5C 360.184,432.636 360.018,436.803 356.5,441C 357.98,442.881 357.48,444.048 355,444.5C 352.837,442.669 351.67,443.169 351.5,446C 352.085,448.134 353.418,449.634 355.5,450.5C 354.311,451.429 352.978,451.762 351.5,451.5C 351.551,453.57 350.885,455.403 349.5,457C 350.609,459.047 351.276,461.213 351.5,463.5C 350.167,463.5 348.833,463.5 347.5,463.5C 347.66,461.801 347.494,460.134 347,458.5C 344.862,458.852 342.696,458.352 340.5,457C 339.663,455.989 339.33,454.822 339.5,453.5C 338.178,453.67 337.011,453.337 336,452.5C 335.667,455.167 335.333,457.833 335,460.5C 333.731,459.095 333.231,457.429 333.5,455.5C 331.5,455.5 329.5,455.5 327.5,455.5C 328.263,451.862 326.93,450.362 323.5,451C 322.937,454.374 321.437,457.207 319,459.5C 317.01,456.278 314.51,455.778 311.5,458C 317.345,459.743 317.512,461.243 312,462.5C 311.055,462.095 310.388,461.428 310,460.5C 309.215,462.286 308.049,463.786 306.5,465C 303.966,465.516 301.8,466.683 300,468.5C 298.293,467.862 296.46,467.862 294.5,468.5C 296.212,464.692 299.212,462.692 303.5,462.5C 304.854,457.557 307.687,453.557 312,450.5C 312.483,449.552 312.649,448.552 312.5,447.5C 316.266,445.882 319.599,443.716 322.5,441C 327.756,434.858 332.923,428.691 338,422.5C 340.421,418.149 341.588,413.483 341.5,408.5C 342.079,405.294 343.079,402.294 344.5,399.5C 345.176,395.516 346.176,391.516 347.5,387.5C 349.018,383.434 349.851,379.101 350,374.5C 350.333,375.167 350.667,375.833 351,376.5C 351.003,360.012 352.17,343.678 354.5,327.5C 355.167,327.5 355.5,327.167 355.5,326.5C 357.846,315.423 359.346,304.089 360,292.5C 361,291.167 362,289.833 363,288.5C 363.159,277.33 362.659,266.33 361.5,255.5C 358.804,250.02 359.137,244.687 362.5,239.5 Z"/></g>
<g><path style="opacity:1" fill="#3c342f" d="M 179.5,441.5 C 179.833,459.512 179.5,477.512 178.5,495.5C 177.501,484.854 177.168,474.187 177.5,463.5C 177.167,448.485 177.501,433.485 178.5,418.5C 179.497,426.138 179.831,433.804 179.5,441.5 Z"/></g>
<g><path style="opacity:1" fill="#d4ae85" d="M 182.5,504.5 C 183.403,501.609 183.736,498.609 183.5,495.5C 184.158,496.398 184.824,497.398 185.5,498.5C 185.833,498 186.167,497.5 186.5,497C 185.725,494.73 185.392,492.563 185.5,490.5C 186.098,489.205 186.598,487.872 187,486.5C 187.667,489.167 188.333,489.167 189,486.5C 189.602,474.091 190.768,461.757 192.5,449.5C 194.553,450.939 195.553,452.939 195.5,455.5C 198.734,455.763 200.068,454.263 199.5,451C 197.945,446.285 197.279,441.451 197.5,436.5C 199.613,437.256 201.613,437.423 203.5,437C 202.939,438.566 203.606,439.899 205.5,441C 208.446,441.806 211.112,443.139 213.5,445C 212.833,445.333 212.167,445.667 211.5,446C 213.213,447.378 214.547,449.045 215.5,451C 218.141,453.209 220.975,453.709 224,452.5C 226.167,454 226,455.167 223.5,456C 226.5,456.333 228.167,458 228.5,461C 227.833,461.667 227.167,462.333 226.5,463C 230.444,463.99 234.111,463.49 237.5,461.5C 239.958,462.919 242.625,463.919 245.5,464.5C 241.997,469.669 243.33,472.002 249.5,471.5C 249.351,472.552 249.517,473.552 250,474.5C 252.137,475.479 253.971,476.812 255.5,478.5C 254.311,479.429 252.978,479.762 251.5,479.5C 251.183,482.572 251.516,485.572 252.5,488.5C 253.167,488.833 253.833,489.167 254.5,489.5C 255.221,491.686 255.887,493.853 256.5,496C 254.788,497.625 252.454,499.292 249.5,501C 250.439,502.944 251.773,504.611 253.5,506C 243.233,509.16 232.9,509.327 222.5,506.5C 221.312,507.84 219.812,508.507 218,508.5C 211.918,506.923 205.751,505.756 199.5,505C 197.294,503.193 194.961,502.693 192.5,503.5C 191.644,499.919 190.644,499.753 189.5,503C 190.536,505.446 189.702,507.28 187,508.5C 185.306,507.301 183.806,505.968 182.5,504.5 Z"/></g>
<g><path style="opacity:1" fill="#363f38" d="M 347.5,360.5 C 348.16,361.964 348.493,363.631 348.5,365.5C 347.162,376.888 345.829,388.222 344.5,399.5C 343.079,402.294 342.079,405.294 341.5,408.5C 339.114,412.946 336.947,417.612 335,422.5C 330.823,425.179 327.823,428.845 326,433.5C 321.193,438.136 316.693,442.802 312.5,447.5C 306.593,453.565 299.926,458.731 292.5,463C 290.866,463.494 289.199,463.66 287.5,463.5C 282.797,463.563 278.13,463.229 273.5,462.5C 273.158,461.662 272.492,461.328 271.5,461.5C 271.5,461.167 271.5,460.833 271.5,460.5C 276.511,460.666 281.511,460.499 286.5,460C 289.281,459.478 291.615,458.311 293.5,456.5C 295.308,456.509 296.975,456.009 298.5,455C 313.574,442.765 325.908,428.265 335.5,411.5C 336.892,409.727 338.059,407.727 339,405.5C 343.642,390.842 346.475,375.842 347.5,360.5 Z"/></g>
<g><path style="opacity:1" fill="#d4b18c" d="M 184.5,421.5 C 194.938,425.893 204.271,432.06 212.5,440C 226.547,450.967 242.213,458.8 259.5,463.5C 260.027,466.231 260.86,468.898 262,471.5C 262.861,480.331 263.694,489.164 264.5,498C 264.311,501.154 263.644,504.154 262.5,507C 262.605,508.592 262.939,510.092 263.5,511.5C 235.833,511.5 208.167,511.5 180.5,511.5C 180.5,510.167 180.5,508.833 180.5,507.5C 181.167,506.5 181.833,505.5 182.5,504.5C 183.806,505.968 185.306,507.301 187,508.5C 189.702,507.28 190.536,505.446 189.5,503C 190.644,499.753 191.644,499.919 192.5,503.5C 194.961,502.693 197.294,503.193 199.5,505C 205.751,505.756 211.918,506.923 218,508.5C 219.812,508.507 221.312,507.84 222.5,506.5C 232.9,509.327 243.233,509.16 253.5,506C 251.773,504.611 250.439,502.944 249.5,501C 252.454,499.292 254.788,497.625 256.5,496C 255.887,493.853 255.221,491.686 254.5,489.5C 253.833,489.167 253.167,488.833 252.5,488.5C 251.516,485.572 251.183,482.572 251.5,479.5C 252.978,479.762 254.311,479.429 255.5,478.5C 253.971,476.812 252.137,475.479 250,474.5C 249.517,473.552 249.351,472.552 249.5,471.5C 243.33,472.002 241.997,469.669 245.5,464.5C 242.625,463.919 239.958,462.919 237.5,461.5C 234.111,463.49 230.444,463.99 226.5,463C 227.167,462.333 227.833,461.667 228.5,461C 228.167,458 226.5,456.333 223.5,456C 226,455.167 226.167,454 224,452.5C 220.975,453.709 218.141,453.209 215.5,451C 214.547,449.045 213.213,447.378 211.5,446C 212.167,445.667 212.833,445.333 213.5,445C 211.112,443.139 208.446,441.806 205.5,441C 203.606,439.899 202.939,438.566 203.5,437C 201.613,437.423 199.613,437.256 197.5,436.5C 197.279,441.451 197.945,446.285 199.5,451C 200.068,454.263 198.734,455.763 195.5,455.5C 195.553,452.939 194.553,450.939 192.5,449.5C 190.768,461.757 189.602,474.091 189,486.5C 188.333,489.167 187.667,489.167 187,486.5C 186.598,487.872 186.098,489.205 185.5,490.5C 185.392,492.563 185.725,494.73 186.5,497C 186.167,497.5 185.833,498 185.5,498.5C 184.824,497.398 184.158,496.398 183.5,495.5C 182.691,471.509 182.357,447.509 182.5,423.5C 182.833,422.5 183.5,421.833 184.5,421.5 Z"/></g>
<g><path style="opacity:1" fill="#d3b498" d="M 303.5,438.5 C 303.322,439.936 302.989,441.436 302.5,443C 300.382,445.164 298.715,447.664 297.5,450.5C 297.709,451.086 298.043,451.586 298.5,452C 294.683,453.023 291.183,452.523 288,450.5C 287.251,451.635 287.417,452.635 288.5,453.5C 290.598,453.957 292.264,454.957 293.5,456.5C 291.615,458.311 289.281,459.478 286.5,460C 281.511,460.499 276.511,460.666 271.5,460.5C 268.833,460.5 266.167,460.5 263.5,460.5C 255.291,458.062 247.291,455.062 239.5,451.5C 242.516,450.941 245.516,450.275 248.5,449.5C 251.394,451.185 254.561,452.185 258,452.5C 265.189,449.891 272.356,449.891 279.5,452.5C 281.782,450.454 284.449,449.454 287.5,449.5C 287.5,447.833 287.5,446.167 287.5,444.5C 292.879,442.471 298.212,440.471 303.5,438.5 Z"/></g>
<g><path style="opacity:1" fill="#bcb08b" d="M 182.5,423.5 C 182.357,447.509 182.691,471.509 183.5,495.5C 183.736,498.609 183.403,501.609 182.5,504.5C 181.833,505.5 181.167,506.5 180.5,507.5C 180.5,485.5 180.5,463.5 180.5,441.5C 180.5,437.5 180.5,433.5 180.5,429.5C 181.167,427.5 181.833,425.5 182.5,423.5 Z"/></g>
<g><path style="opacity:1" fill="#aa775c" d="M 188.5,417.5 C 199.797,425.161 210.797,433.328 221.5,442C 227.079,445.956 233.079,449.123 239.5,451.5C 247.291,455.062 255.291,458.062 263.5,460.5C 264.952,461.302 266.618,461.802 268.5,462C 266.845,463.444 266.178,465.278 266.5,467.5C 265.147,465.817 263.48,464.484 261.5,463.5C 260.833,463.5 260.167,463.5 259.5,463.5C 242.213,458.8 226.547,450.967 212.5,440C 204.271,432.06 194.938,425.893 184.5,421.5C 184.5,421.167 184.5,420.833 184.5,420.5C 186.23,419.974 187.564,418.974 188.5,417.5 Z"/></g>
<g><path style="opacity:1" fill="#855750" d="M 312.5,447.5 C 312.649,448.552 312.483,449.552 312,450.5C 307.687,453.557 304.854,457.557 303.5,462.5C 299.212,462.692 296.212,464.692 294.5,468.5C 289.724,467.575 285.057,467.742 280.5,469C 278.069,471.255 276.569,474.088 276,477.5C 274.903,488.87 274.737,500.203 275.5,511.5C 274.833,511.5 274.167,511.5 273.5,511.5C 273.168,499.814 273.501,488.148 274.5,476.5C 275.692,474.258 276.692,471.925 277.5,469.5C 281.037,467.674 284.37,465.674 287.5,463.5C 289.199,463.66 290.866,463.494 292.5,463C 299.926,458.731 306.593,453.565 312.5,447.5 Z"/></g>
<g><path style="opacity:1" fill="#8c5c4c" d="M 263.5,460.5 C 266.167,460.5 268.833,460.5 271.5,460.5C 271.5,460.833 271.5,461.167 271.5,461.5C 270.394,464.054 269.561,466.721 269,469.5C 268.5,479.494 268.334,489.494 268.5,499.5C 268.167,499.5 267.833,499.5 267.5,499.5C 267.433,488.823 267.099,478.156 266.5,467.5C 266.178,465.278 266.845,463.444 268.5,462C 266.618,461.802 264.952,461.302 263.5,460.5 Z"/></g>
<g><path style="opacity:1" fill="#c1a181" d="M 259.5,463.5 C 260.167,463.5 260.833,463.5 261.5,463.5C 263.298,466.345 264.298,469.511 264.5,473C 266.378,485.811 266.711,498.644 265.5,511.5C 264.833,511.5 264.167,511.5 263.5,511.5C 262.939,510.092 262.605,508.592 262.5,507C 263.644,504.154 264.311,501.154 264.5,498C 263.694,489.164 262.861,480.331 262,471.5C 260.86,468.898 260.027,466.231 259.5,463.5 Z"/></g>
<g><path style="opacity:1" fill="#6e554a" d="M 179.5,441.5 C 179.833,441.5 180.167,441.5 180.5,441.5C 180.5,463.5 180.5,485.5 180.5,507.5C 180.5,508.833 180.5,510.167 180.5,511.5C 178.833,511.5 177.167,511.5 175.5,511.5C 175.5,490.167 175.5,468.833 175.5,447.5C 176.167,452.833 176.833,458.167 177.5,463.5C 177.168,474.187 177.501,484.854 178.5,495.5C 179.5,477.512 179.833,459.512 179.5,441.5 Z"/></g>
<g><path style="opacity:1" fill="#614641" d="M 273.5,462.5 C 278.13,463.229 282.797,463.563 287.5,463.5C 284.37,465.674 281.037,467.674 277.5,469.5C 276.692,471.925 275.692,474.258 274.5,476.5C 273.501,488.148 273.168,499.814 273.5,511.5C 271.167,511.5 268.833,511.5 266.5,511.5C 266.646,507.481 266.979,503.481 267.5,499.5C 267.833,499.5 268.167,499.5 268.5,499.5C 269.136,489.942 270.136,480.276 271.5,470.5C 271.615,467.983 272.615,465.983 274.5,464.5C 274.137,463.817 273.804,463.15 273.5,462.5 Z"/></g>
<g><path style="opacity:1" fill="#aa866b" d="M 261.5,463.5 C 263.48,464.484 265.147,465.817 266.5,467.5C 267.099,478.156 267.433,488.823 267.5,499.5C 266.979,503.481 266.646,507.481 266.5,511.5C 266.167,511.5 265.833,511.5 265.5,511.5C 266.711,498.644 266.378,485.811 264.5,473C 264.298,469.511 263.298,466.345 261.5,463.5 Z"/></g>
<g><path style="opacity:1" fill="#69453b" d="M 271.5,461.5 C 272.492,461.328 273.158,461.662 273.5,462.5C 273.804,463.15 274.137,463.817 274.5,464.5C 272.615,465.983 271.615,467.983 271.5,470.5C 270.136,480.276 269.136,489.942 268.5,499.5C 268.334,489.494 268.5,479.494 269,469.5C 269.561,466.721 270.394,464.054 271.5,461.5 Z"/></g>
</svg>
