<?xml version="1.0" encoding="UTF-8"?>
<!DOCTYPE svg PUBLIC "-//W3C//DTD SVG 1.1//EN" "http://www.w3.org/Graphics/SVG/1.1/DTD/svg11.dtd">
<svg xmlns="http://www.w3.org/2000/svg" version="1.1" width="512px" height="512px" style="shape-rendering:geometricPrecision; text-rendering:geometricPrecision; image-rendering:optimizeQuality; fill-rule:evenodd; clip-rule:evenodd" xmlns:xlink="http://www.w3.org/1999/xlink">
<g><path style="opacity:1" fill="#638496" d="M -0.5,-0.5 C 167.833,-0.5 336.167,-0.5 504.5,-0.5C 505.633,2.73787 506.467,6.0712 507,9.5C 507.853,171.638 508.02,333.638 507.5,495.5C 508.5,495.5 509.5,495.5 510.5,495.5C 510.182,500.032 510.515,504.366 511.5,508.5C 511.5,509.5 511.5,510.5 511.5,511.5C 419.167,511.5 326.833,511.5 234.5,511.5C 234.644,507.203 234.977,502.869 235.5,498.5C 235.932,497.29 236.599,496.29 237.5,495.5C 239.371,495.141 240.871,494.141 242,492.5C 245.186,488.127 247.853,483.46 250,478.5C 253.56,479.379 256.893,478.046 260,474.5C 260.957,476.709 262.124,476.543 263.5,474C 262.833,473.667 262.167,473.333 261.5,473C 262.078,471.583 263.078,470.75 264.5,470.5C 266.429,470.231 268.095,470.731 269.5,472C 267.875,472.853 267.542,473.853 268.5,475C 276.436,475.211 284.103,476.711 291.5,479.5C 299.517,480.155 307.517,479.488 315.5,477.5C 316.833,477.833 318.167,478.167 319.5,478.5C 318.572,479.768 318.405,481.101 319,482.5C 325.084,481.358 331.251,481.191 337.5,482C 340,483.167 341.833,485 343,487.5C 344.87,486.257 347.036,485.59 349.5,485.5C 355.5,485 361.5,484.5 367.5,484C 368.416,483.626 369.25,483.126 370,482.5C 368.976,478.35 370.809,476.35 375.5,476.5C 375.413,479.598 375.913,479.932 377,477.5C 377.333,473.5 377.667,469.5 378,465.5C 378.875,468.215 380.708,469.548 383.5,469.5C 383.5,468.167 383.5,466.833 383.5,465.5C 385.103,465.688 386.437,465.188 387.5,464C 385.974,462.411 384.807,460.577 384,458.5C 380.538,461.244 379.038,460.244 379.5,455.5C 382.796,455.304 385.129,453.638 386.5,450.5C 384.221,447.079 383.888,443.412 385.5,439.5C 387.124,439.36 388.29,440.027 389,441.5C 389.5,440.333 390.333,439.5 391.5,439C 386.306,437.33 386.306,435.83 391.5,434.5C 389.955,433.548 388.288,433.215 386.5,433.5C 386.424,429.319 387.758,425.652 390.5,422.5C 390.192,421.692 389.692,421.025 389,420.5C 388.092,422.439 386.592,423.439 384.5,423.5C 384.232,420.881 384.565,418.381 385.5,416C 383.012,410.878 381.679,405.378 381.5,399.5C 380.167,399.5 378.833,399.5 377.5,399.5C 377.234,395.429 377.567,391.429 378.5,387.5C 376.668,384.757 375.668,381.757 375.5,378.5C 372.833,378.5 370.167,378.5 367.5,378.5C 367.5,380.167 367.5,381.833 367.5,383.5C 366.5,383.5 365.5,383.5 364.5,383.5C 364.215,368.478 364.548,353.478 365.5,338.5C 364.729,324.178 364.063,309.845 363.5,295.5C 365.37,283.73 365.37,271.897 363.5,260C 364.167,257.667 364.833,255.333 365.5,253C 364.608,245.239 364.608,237.573 365.5,230C 363.297,216.581 362.963,203.081 364.5,189.5C 365.969,195.164 366.302,200.831 365.5,206.5C 366.289,212.115 366.789,217.782 367,223.5C 367.667,203.833 367.667,184.167 367,164.5C 365.224,167.669 365.057,171.002 366.5,174.5C 364.525,179.117 363.191,183.784 362.5,188.5C 362.183,182.792 362.85,177.292 364.5,172C 363.253,162.019 359.92,152.853 354.5,144.5C 353.311,143.571 351.978,143.238 350.5,143.5C 348.086,142.089 346.419,140.089 345.5,137.5C 345.611,136.883 345.944,136.383 346.5,136C 340.563,126.73 333.23,118.73 324.5,112C 323.207,111.51 321.873,111.343 320.5,111.5C 319.833,111.5 319.5,111.167 319.5,110.5C 316.419,106.009 313.586,101.342 311,96.5C 309.513,92.8835 308.18,89.2169 307,85.5C 304.315,84.3164 302.148,82.4831 300.5,80C 301.448,79.5172 302.448,79.3505 303.5,79.5C 303.688,77.8967 303.188,76.5634 302,75.5C 299.936,76.5914 297.769,76.7581 295.5,76C 290.738,72.5651 285.738,69.5651 280.5,67C 278.765,66.3486 277.098,66.5153 275.5,67.5C 269.12,64.8085 262.454,63.1418 255.5,62.5C 251.68,59.3101 247.347,57.6434 242.5,57.5C 241.596,58.209 241.263,59.209 241.5,60.5C 241.5,62.5 241.5,64.5 241.5,66.5C 240.205,65.3114 238.205,64.4781 235.5,64C 232.167,63.3333 228.833,63.3333 225.5,64C 223.984,65.897 223.317,68.0637 223.5,70.5C 219.486,70.6655 215.486,70.4988 211.5,70C 211.634,67.961 211.134,65.7944 210,63.5C 205.265,66.8933 200.599,70.5599 196,74.5C 193.443,73.3543 192.11,74.3543 192,77.5C 191.69,73.2748 189.857,72.1082 186.5,74C 189.12,76.6254 188.954,79.1254 186,81.5C 185.009,80.5704 184.509,79.4038 184.5,78C 184.95,76.4504 185.117,74.9504 185,73.5C 183.608,76.2784 183.108,79.2784 183.5,82.5C 177.508,83.373 172.341,86.0397 168,90.5C 167.261,92.2205 166.427,93.8872 165.5,95.5C 164.268,96.1445 162.935,96.3112 161.5,96C 160.833,96.6667 160.167,97.3333 159.5,98C 168.81,98.8281 168.81,99.3281 159.5,99.5C 159.5,100.833 159.5,102.167 159.5,103.5C 154.167,103.5 148.833,103.5 143.5,103.5C 143.5,106.167 143.5,108.833 143.5,111.5C 149.197,112.017 154.864,112.85 160.5,114C 160.833,114.333 161.167,114.667 161.5,115C 158.68,115.736 156.68,117.402 155.5,120C 157.932,121.087 157.598,121.587 154.5,121.5C 154.5,122.5 154.5,123.5 154.5,124.5C 151.882,124.779 149.382,125.446 147,126.5C 145.989,125.663 144.822,125.33 143.5,125.5C 142.302,131.272 140.636,137.272 138.5,143.5C 137.167,143.5 135.833,143.5 134.5,143.5C 134.5,144.5 134.5,145.5 134.5,146.5C 133.5,146.5 132.5,146.5 131.5,146.5C 131.07,150.637 129.237,153.97 126,156.5C 125.122,163.094 123.955,169.594 122.5,176C 124.538,177.236 125.705,179.069 126,181.5C 126.833,204.853 126.5,228.186 125,251.5C 124.667,251.833 124.333,252.167 124,252.5C 118.47,251.606 112.97,250.772 107.5,250C 106.859,253.015 105.693,256.181 104,259.5C 103.501,263.486 103.334,267.486 103.5,271.5C 102.167,271.5 100.833,271.5 99.5,271.5C 99.9801,276.822 100.313,282.155 100.5,287.5C 101.5,287.5 102.5,287.5 103.5,287.5C 102.645,298.233 104.145,308.566 108,318.5C 109.989,320.839 112.489,322.173 115.5,322.5C 116.028,323.721 116.695,324.887 117.5,326C 112.298,327.352 112.298,328.518 117.5,329.5C 118.641,330.425 118.641,331.259 117.5,332C 119.932,333.087 119.598,333.587 116.5,333.5C 113.761,332.425 112.094,330.425 111.5,327.5C 109.208,327.756 107.041,327.423 105,326.5C 103.602,329.325 103.102,332.159 103.5,335C 100.854,335.497 98.1873,335.664 95.5,335.5C 95.5,332.833 95.5,330.167 95.5,327.5C 92.305,328.039 89.805,327.039 88,324.5C 87.1949,311.633 87.3615,298.8 88.5,286C 87.0129,281.846 84.1796,279.013 80,277.5C 79.5008,272.845 79.3342,268.179 79.5,263.5C 73.5,264.167 70.8333,261.5 71.5,255.5C 66.6435,256.119 61.6435,256.119 56.5,255.5C 55.697,260.476 52.8636,263.809 48,265.5C 47.5045,267.473 47.3379,269.473 47.5,271.5C 44.8333,271.5 42.1667,271.5 39.5,271.5C 39.5,276.833 39.5,282.167 39.5,287.5C 36.8333,287.5 34.1667,287.5 31.5,287.5C 31.3334,300.171 31.5001,312.838 32,325.5C 39.3408,328.517 42.1741,333.851 40.5,341.5C 42.5098,343.171 44.8431,343.838 47.5,343.5C 47.5,346.167 47.5,348.833 47.5,351.5C 48.8333,351.5 50.1667,351.5 51.5,351.5C 51.5,356.833 51.5,362.167 51.5,367.5C 50.1667,367.5 48.8333,367.5 47.5,367.5C 47.6621,369.527 47.4955,371.527 47,373.5C 41.9419,375.042 39.4419,378.375 39.5,383.5C 38.5,383.5 37.5,383.5 36.5,383.5C 34.9256,383.063 33.7589,382.063 33,380.5C 32.586,380.957 32.086,381.291 31.5,381.5C 30.4164,380.335 29.5831,379.002 29,377.5C 27.8118,378.563 27.3118,379.897 27.5,381.5C 25.8762,381.36 24.7096,382.027 24,383.5C 21.6014,380.999 19.1014,380.999 16.5,383.5C 16.1667,383 15.8333,382.5 15.5,382C 16.5089,380.832 17.5089,379.665 18.5,378.5C 14.5295,376.93 11.6962,374.263 10,370.5C 10.0962,365.45 9.92954,360.45 9.5,355.5C 12.614,346.445 11.9473,337.778 7.5,329.5C 9.13158,320.429 10.1316,311.263 10.5,302C 9.88826,299.942 8.88826,298.109 7.5,296.5C 8.5,295.833 9.5,295.167 10.5,294.5C 7.09733,292.335 6.76399,289.835 9.5,287C 7.97331,284.243 7.30664,281.243 7.5,278C 7.58115,275.375 8.24782,273.041 9.5,271C 8.87424,270.25 8.37424,269.416 8,268.5C 7.23922,254.818 7.40589,241.151 8.5,227.5C 8.11415,223.404 7.28082,219.404 6,215.5C 5.66667,216.5 5.33333,217.5 5,218.5C 4.30198,235.714 4.46865,252.88 5.5,270C 4.87344,273.517 4.20677,277.017 3.5,280.5C 4.75624,310.126 5.42291,339.626 5.5,369C 4.80837,387.165 4.1417,405.332 3.5,423.5C 4.16667,428.833 4.83333,434.167 5.5,439.5C 4.29684,461.376 3.46351,483.376 3,505.5C 2.05127,503.907 0.884606,502.574 -0.5,501.5C -0.5,334.167 -0.5,166.833 -0.5,-0.5 Z"/></g>
<g><path style="opacity:1" fill="#030202" d="M 242.5,57.5 C 254.133,66.8078 267.467,71.9745 282.5,73C 292.021,76.3316 299.521,82.1649 305,90.5C 308.27,96.0399 311.27,101.707 314,107.5C 315.741,108.758 317.574,109.758 319.5,110.5C 319.5,111.167 319.833,111.5 320.5,111.5C 330.207,118.873 338.54,127.54 345.5,137.5C 346.419,140.089 348.086,142.089 350.5,143.5C 354.424,148.343 357.591,153.676 360,159.5C 360.499,165.157 360.666,170.824 360.5,176.5C 360.141,187.078 359.141,197.578 357.5,208C 358.459,209.707 359.125,211.541 359.5,213.5C 358.202,241.682 358.202,269.848 359.5,298C 358.975,298.692 358.308,299.192 357.5,299.5C 356.757,298.092 355.923,296.759 355,295.5C 354.713,297.891 354.213,300.224 353.5,302.5C 354.689,303.429 356.022,303.762 357.5,303.5C 357.645,317.183 357.312,330.85 356.5,344.5C 355.686,342.369 355.186,340.036 355,337.5C 354.667,338.167 354.333,338.833 354,339.5C 353.667,332.833 353.333,326.167 353,319.5C 352.716,317.114 351.716,316.448 350,317.5C 348.12,309.945 347.287,302.278 347.5,294.5C 343.107,294.457 342.774,294.957 346.5,296C 346,296.5 345.5,297 345,297.5C 343.644,296.62 342.144,296.286 340.5,296.5C 333.646,296.176 326.979,296.509 320.5,297.5C 314.824,297.666 309.157,297.499 303.5,297C 302.473,296.487 301.473,295.987 300.5,295.5C 299.132,290.731 299.466,286.064 301.5,281.5C 300.769,277.677 300.102,273.844 299.5,270C 301.025,267.034 301.525,263.867 301,260.5C 298.365,257.67 295.199,256.004 291.5,255.5C 290.833,255.5 290.167,255.5 289.5,255.5C 288.833,255.5 288.167,255.5 287.5,255.5C 286.391,254.71 285.058,254.21 283.5,254C 268.726,252.941 254.059,253.441 239.5,255.5C 237.537,256.96 235.704,258.627 234,260.5C 233.353,271.909 233.687,283.242 235,294.5C 234.097,295.701 232.931,296.535 231.5,297C 226.511,297.499 221.511,297.666 216.5,297.5C 216.167,297.5 215.833,297.5 215.5,297.5C 207.684,296.508 199.684,296.174 191.5,296.5C 186.376,295.171 180.876,294.505 175,294.5C 162.471,295.204 149.971,295.371 137.5,295C 136.918,297.916 135.918,299.916 134.5,301C 136.108,307.804 135.775,314.471 133.5,321C 135.374,325.408 135.374,329.575 133.5,333.5C 132.162,329.238 130.829,324.905 129.5,320.5C 125.605,319.746 121.605,319.246 117.5,319C 116.105,316.925 116.438,315.092 118.5,313.5C 117.333,311.833 116.167,310.167 115,308.5C 114.667,309.167 114.333,309.833 114,310.5C 113,309.167 112,309.167 111,310.5C 108.235,300.262 106.735,289.929 106.5,279.5C 106.333,274.826 105.999,270.159 105.5,265.5C 104.809,261.193 106.143,257.693 109.5,255C 115.581,254.791 121.581,254.291 127.5,253.5C 128.117,253.389 128.617,253.056 129,252.5C 129.938,249.188 130.771,245.855 131.5,242.5C 131.835,228.511 131.335,214.511 130,200.5C 129.617,199.944 129.117,199.611 128.5,199.5C 128.5,191.5 128.5,183.5 128.5,175.5C 129.324,171.688 129.824,167.688 130,163.5C 132.122,159.637 133.955,155.637 135.5,151.5C 139.988,139.209 148.155,130.209 160,124.5C 164.298,119.537 167.798,114.203 170.5,108.5C 176.264,106.807 182.264,105.974 188.5,106C 189.132,102.678 190.132,99.511 191.5,96.5C 192.958,92.3693 193.958,88.036 194.5,83.5C 198.38,82.4088 202.047,81.0755 205.5,79.5C 207.929,78.7352 209.262,77.0685 209.5,74.5C 209.611,73.8826 209.944,73.3826 210.5,73C 214.833,72.6667 219.167,72.3333 223.5,72C 224.833,69.6667 226.167,67.3333 227.5,65C 232.569,65.2976 237.569,66.1309 242.5,67.5C 242.802,64.9407 242.468,62.6074 241.5,60.5C 241.263,59.209 241.596,58.209 242.5,57.5 Z"/></g>
<g><path style="opacity:1" fill="#627c89" d="M 242.5,57.5 C 247.347,57.6434 251.68,59.3101 255.5,62.5C 262.454,63.1418 269.12,64.8085 275.5,67.5C 277.098,66.5153 278.765,66.3486 280.5,67C 285.738,69.5651 290.738,72.5651 295.5,76C 297.769,76.7581 299.936,76.5914 302,75.5C 303.188,76.5634 303.688,77.8967 303.5,79.5C 302.448,79.3505 301.448,79.5172 300.5,80C 302.148,82.4831 304.315,84.3164 307,85.5C 308.18,89.2169 309.513,92.8835 311,96.5C 313.586,101.342 316.419,106.009 319.5,110.5C 317.574,109.758 315.741,108.758 314,107.5C 311.27,101.707 308.27,96.0399 305,90.5C 299.521,82.1649 292.021,76.3316 282.5,73C 267.467,71.9745 254.133,66.8078 242.5,57.5 Z"/></g>
<g><path style="opacity:1" fill="#617e8f" d="M 241.5,60.5 C 242.468,62.6074 242.802,64.9407 242.5,67.5C 237.569,66.1309 232.569,65.2976 227.5,65C 226.167,67.3333 224.833,69.6667 223.5,72C 219.167,72.3333 214.833,72.6667 210.5,73C 209.944,73.3826 209.611,73.8826 209.5,74.5C 207.413,75.5846 206.08,77.2512 205.5,79.5C 202.047,81.0755 198.38,82.4088 194.5,83.5C 193.958,88.036 192.958,92.3693 191.5,96.5C 190.167,97.1667 189.167,98.1667 188.5,99.5C 186.319,101.572 183.985,103.572 181.5,105.5C 178.482,105.335 175.482,105.502 172.5,106C 171.619,106.708 170.953,107.542 170.5,108.5C 167.798,114.203 164.298,119.537 160,124.5C 148.155,130.209 139.988,139.209 135.5,151.5C 129.173,158.163 126.84,166.163 128.5,175.5C 128.5,183.5 128.5,191.5 128.5,199.5C 128.375,217.505 128.042,235.505 127.5,253.5C 121.581,254.291 115.581,254.791 109.5,255C 106.143,257.693 104.809,261.193 105.5,265.5C 105.999,270.159 106.333,274.826 106.5,279.5C 105.622,292.072 106.789,304.405 110,316.5C 111.36,319.023 113.193,321.023 115.5,322.5C 112.489,322.173 109.989,320.839 108,318.5C 104.145,308.566 102.645,298.233 103.5,287.5C 102.5,287.5 101.5,287.5 100.5,287.5C 100.313,282.155 99.9801,276.822 99.5,271.5C 100.833,271.5 102.167,271.5 103.5,271.5C 103.334,267.486 103.501,263.486 104,259.5C 105.693,256.181 106.859,253.015 107.5,250C 112.97,250.772 118.47,251.606 124,252.5C 124.333,252.167 124.667,251.833 125,251.5C 126.5,228.186 126.833,204.853 126,181.5C 125.705,179.069 124.538,177.236 122.5,176C 123.955,169.594 125.122,163.094 126,156.5C 129.237,153.97 131.07,150.637 131.5,146.5C 132.5,146.5 133.5,146.5 134.5,146.5C 134.5,145.5 134.5,144.5 134.5,143.5C 135.833,143.5 137.167,143.5 138.5,143.5C 140.636,137.272 142.302,131.272 143.5,125.5C 144.822,125.33 145.989,125.663 147,126.5C 149.382,125.446 151.882,124.779 154.5,124.5C 154.5,123.5 154.5,122.5 154.5,121.5C 157.598,121.587 157.932,121.087 155.5,120C 156.68,117.402 158.68,115.736 161.5,115C 161.167,114.667 160.833,114.333 160.5,114C 154.864,112.85 149.197,112.017 143.5,111.5C 143.5,108.833 143.5,106.167 143.5,103.5C 148.833,103.5 154.167,103.5 159.5,103.5C 159.5,102.167 159.5,100.833 159.5,99.5C 168.81,99.3281 168.81,98.8281 159.5,98C 160.167,97.3333 160.833,96.6667 161.5,96C 162.935,96.3112 164.268,96.1445 165.5,95.5C 166.427,93.8872 167.261,92.2205 168,90.5C 172.341,86.0397 177.508,83.373 183.5,82.5C 183.108,79.2784 183.608,76.2784 185,73.5C 185.117,74.9504 184.95,76.4504 184.5,78C 184.509,79.4038 185.009,80.5704 186,81.5C 188.954,79.1254 189.12,76.6254 186.5,74C 189.857,72.1082 191.69,73.2748 192,77.5C 192.11,74.3543 193.443,73.3543 196,74.5C 200.599,70.5599 205.265,66.8933 210,63.5C 211.134,65.7944 211.634,67.961 211.5,70C 215.486,70.4988 219.486,70.6655 223.5,70.5C 223.317,68.0637 223.984,65.897 225.5,64C 228.833,63.3333 232.167,63.3333 235.5,64C 238.205,64.4781 240.205,65.3114 241.5,66.5C 241.5,64.5 241.5,62.5 241.5,60.5 Z"/></g>
<g><path style="opacity:1" fill="#233c48" d="M 209.5,74.5 C 209.262,77.0685 207.929,78.7352 205.5,79.5C 206.08,77.2512 207.413,75.5846 209.5,74.5 Z"/></g>
<g><path style="opacity:1" fill="#182127" d="M 191.5,96.5 C 190.132,99.511 189.132,102.678 188.5,106C 182.264,105.974 176.264,106.807 170.5,108.5C 170.953,107.542 171.619,106.708 172.5,106C 175.482,105.502 178.482,105.335 181.5,105.5C 183.5,105.5 185.5,105.5 187.5,105.5C 187.325,103.379 187.659,101.379 188.5,99.5C 189.167,98.1667 190.167,97.1667 191.5,96.5 Z"/></g>
<g><path style="opacity:1" fill="#31424b" d="M 188.5,99.5 C 187.659,101.379 187.325,103.379 187.5,105.5C 185.5,105.5 183.5,105.5 181.5,105.5C 183.985,103.572 186.319,101.572 188.5,99.5 Z"/></g>
<g><path style="opacity:1" fill="#576e79" d="M 320.5,111.5 C 321.873,111.343 323.207,111.51 324.5,112C 333.23,118.73 340.563,126.73 346.5,136C 345.944,136.383 345.611,136.883 345.5,137.5C 338.54,127.54 330.207,118.873 320.5,111.5 Z"/></g>
<g><path style="opacity:1" fill="#482816" d="M 242.5,143.5 C 244.258,143.123 245.925,142.456 247.5,141.5C 249.868,143.223 252.534,143.89 255.5,143.5C 255.5,144.5 255.5,145.5 255.5,146.5C 258.518,146.665 261.518,146.498 264.5,146C 263.304,145.346 263.304,144.846 264.5,144.5C 267.345,144.766 269.678,145.766 271.5,147.5C 271.5,148.5 271.5,149.5 271.5,150.5C 268.794,150.425 266.127,150.092 263.5,149.5C 263.649,150.552 263.483,151.552 263,152.5C 261.644,151.62 260.144,151.286 258.5,151.5C 258.5,150.5 258.5,149.5 258.5,148.5C 253.929,148.272 249.263,148.105 244.5,148C 245.711,147.107 245.711,146.274 244.5,145.5C 243.284,148.25 241.284,149.417 238.5,149C 238.957,148.586 239.291,148.086 239.5,147.5C 235.256,145.03 230.923,144.863 226.5,147C 227.902,148.342 227.569,149.176 225.5,149.5C 224.151,149.154 222.817,148.821 221.5,148.5C 221.062,148.565 220.728,148.399 220.5,148C 221.328,147.085 222.328,146.419 223.5,146C 220.456,145.641 220.122,144.974 222.5,144C 216.375,143.596 210.375,142.596 204.5,141C 205.624,140.751 206.624,140.251 207.5,139.5C 205.955,138.548 204.288,138.215 202.5,138.5C 199.111,136.78 195.444,136.113 191.5,136.5C 191.5,136.167 191.5,135.833 191.5,135.5C 192.5,135.5 193.5,135.5 194.5,135.5C 197.69,135.441 200.857,135.107 204,134.5C 207.872,134.673 211.372,135.84 214.5,138C 219.362,138.692 224.195,138.525 229,137.5C 229.833,137.667 230.667,137.833 231.5,138C 230.359,138.741 230.359,139.575 231.5,140.5C 234.751,142.879 238.418,143.879 242.5,143.5 Z"/></g>
<g><path style="opacity:1" fill="#482310" d="M 319.5,143.5 C 321.438,145.802 323.105,148.302 324.5,151C 323.286,153.351 322.452,155.851 322,158.5C 321.107,157.289 320.274,157.289 319.5,158.5C 321.607,161.275 321.941,164.275 320.5,167.5C 319.176,169.828 317.843,172.161 316.5,174.5C 314.604,175.466 312.604,175.799 310.5,175.5C 311.303,180.476 314.136,183.809 319,185.5C 319.333,191.167 319.667,196.833 320,202.5C 321.977,199.411 323.477,196.077 324.5,192.5C 325.833,191.167 327.167,191.167 328.5,192.5C 329.812,196.416 330.812,200.416 331.5,204.5C 331.268,211.27 330.268,217.77 328.5,224C 330.81,224.497 333.143,224.663 335.5,224.5C 335.5,225.5 335.5,226.5 335.5,227.5C 331.692,227.163 328.026,227.663 324.5,229C 328.459,229.763 332.126,230.93 335.5,232.5C 324.833,233.167 314.167,233.833 303.5,234.5C 287.5,234.5 271.5,234.5 255.5,234.5C 222.152,234.833 188.818,234.333 155.5,233C 153.197,230.836 151.863,228.169 151.5,225C 152.184,218.198 152.851,211.364 153.5,204.5C 152.691,202.929 152.357,201.262 152.5,199.5C 153.649,199.209 154.316,198.376 154.5,197C 154.057,195.175 153.723,193.342 153.5,191.5C 154.822,191.33 155.989,191.663 157,192.5C 157.253,197.039 157.753,201.539 158.5,206C 157.071,209.258 157.238,212.424 159,215.5C 159.333,207.5 159.667,199.5 160,191.5C 162.034,195.916 163.2,200.583 163.5,205.5C 169.532,204.307 175.198,202.307 180.5,199.5C 180.26,193.907 182.927,191.073 188.5,191C 187.167,189.333 187.167,187.667 188.5,186C 191.096,184.412 193.429,182.412 195.5,180C 199.393,177.983 203.393,176.483 207.5,175.5C 207.5,172.833 207.5,170.167 207.5,167.5C 215.364,167.268 217.364,163.768 213.5,157C 217.002,154.273 219.669,151.44 221.5,148.5C 222.817,148.821 224.151,149.154 225.5,149.5C 227.569,149.176 227.902,148.342 226.5,147C 230.923,144.863 235.256,145.03 239.5,147.5C 239.291,148.086 238.957,148.586 238.5,149C 241.284,149.417 243.284,148.25 244.5,145.5C 245.711,146.274 245.711,147.107 244.5,148C 249.263,148.105 253.929,148.272 258.5,148.5C 258.5,149.5 258.5,150.5 258.5,151.5C 260.144,151.286 261.644,151.62 263,152.5C 263.483,151.552 263.649,150.552 263.5,149.5C 266.127,150.092 268.794,150.425 271.5,150.5C 271.5,149.5 271.5,148.5 271.5,147.5C 272.397,148.598 273.23,148.598 274,147.5C 274.783,149.433 274.283,150.933 272.5,152C 275.826,152.53 278.993,153.364 282,154.5C 284.086,154.081 285.586,152.914 286.5,151C 288.392,150.027 290.392,149.36 292.5,149C 293.167,146.667 293.833,144.333 294.5,142C 296.311,142.707 298.311,143.207 300.5,143.5C 301.063,140.626 302.063,137.96 303.5,135.5C 306.887,134.617 310.053,133.951 313,133.5C 314.826,135.074 316.993,135.907 319.5,136C 320.232,138.363 320.232,140.863 319.5,143.5 Z"/></g>
<g><path style="opacity:1" fill="#3a251a" d="M 278.5,150.5 C 277.683,148.031 277.183,145.365 277,142.5C 275.598,140.027 274.098,140.027 272.5,142.5C 271.808,141.975 271.308,141.308 271,140.5C 266.487,142.38 262.654,141.547 259.5,138C 257.351,137.421 255.185,136.921 253,136.5C 249.184,138.302 245.351,140.135 241.5,142C 242.056,142.383 242.389,142.883 242.5,143.5C 238.418,143.879 234.751,142.879 231.5,140.5C 230.359,139.575 230.359,138.741 231.5,138C 230.667,137.833 229.833,137.667 229,137.5C 224.195,138.525 219.362,138.692 214.5,138C 211.372,135.84 207.872,134.673 204,134.5C 200.857,135.107 197.69,135.441 194.5,135.5C 197.58,134.217 200.914,133.55 204.5,133.5C 209.8,133.927 214.967,134.927 220,136.5C 224.813,135.547 229.646,135.38 234.5,136C 236.394,137.404 238.394,138.57 240.5,139.5C 243.888,136.891 247.721,135.225 252,134.5C 254.547,134.762 257.047,135.262 259.5,136C 262.146,139.093 265.312,140.259 269,139.5C 270.429,136.238 271.929,133.071 273.5,130C 275.345,128.872 277.345,128.372 279.5,128.5C 279.056,135.827 278.723,143.16 278.5,150.5 Z"/></g>
<g><path style="opacity:1" fill="#532b18" d="M 191.5,136.5 C 195.444,136.113 199.111,136.78 202.5,138.5C 202.423,139.75 201.756,140.583 200.5,141C 202.952,143.071 202.286,143.904 198.5,143.5C 196.68,143.351 195.18,142.684 194,141.5C 193.25,142.126 192.416,142.626 191.5,143C 186.833,143.333 182.167,143.667 177.5,144C 175.44,145.696 173.107,146.863 170.5,147.5C 167.736,146.525 165.403,147.359 163.5,150C 164.567,155.594 164.567,161.428 163.5,167.5C 161.588,169.156 159.588,169.489 157.5,168.5C 158.711,167.28 158.711,166.113 157.5,165C 158.167,164.667 158.833,164.333 159.5,164C 158,162.5 156.5,161 155,159.5C 154.023,161.706 152.857,163.706 151.5,165.5C 151.546,157.07 153.213,149.07 156.5,141.5C 160.604,141.116 164.271,139.616 167.5,137C 175.493,136.5 183.493,136.334 191.5,136.5 Z"/></g>
<g><path style="opacity:1" fill="#432311" d="M 335.5,232.5 C 332.126,230.93 328.459,229.763 324.5,229C 328.026,227.663 331.692,227.163 335.5,227.5C 335.5,226.5 335.5,225.5 335.5,224.5C 333.143,224.663 330.81,224.497 328.5,224C 330.268,217.77 331.268,211.27 331.5,204.5C 330.812,200.416 329.812,196.416 328.5,192.5C 327.167,191.167 325.833,191.167 324.5,192.5C 323.477,196.077 321.977,199.411 320,202.5C 319.667,196.833 319.333,191.167 319,185.5C 314.136,183.809 311.303,180.476 310.5,175.5C 312.604,175.799 314.604,175.466 316.5,174.5C 317.843,172.161 319.176,169.828 320.5,167.5C 321.941,164.275 321.607,161.275 319.5,158.5C 320.274,157.289 321.107,157.289 322,158.5C 322.452,155.851 323.286,153.351 324.5,151C 323.105,148.302 321.438,145.802 319.5,143.5C 320.822,143.67 321.989,143.337 323,142.5C 324.999,145.823 326.999,149.156 329,152.5C 330.131,151.396 330.965,151.729 331.5,153.5C 330.978,154.607 330.645,155.774 330.5,157C 331.228,163.143 331.728,169.309 332,175.5C 333.262,179.079 334.929,182.412 337,185.5C 337.739,193.664 339.239,201.664 341.5,209.5C 340.451,216.823 340.285,224.157 341,231.5C 339.301,232.406 337.467,232.739 335.5,232.5 Z"/></g>
<g><path style="opacity:1" fill="#3e2314" d="M 317.5,127.5 C 320.351,133.193 324.518,137.86 330,141.5C 330.465,146.06 332.132,150.06 335,153.5C 336.316,158.097 337.316,162.764 338,167.5C 340.525,188.771 342.358,210.105 343.5,231.5C 343.5,232.167 343.5,232.833 343.5,233.5C 330.216,234.464 316.883,234.797 303.5,234.5C 314.167,233.833 324.833,233.167 335.5,232.5C 337.467,232.739 339.301,232.406 341,231.5C 340.285,224.157 340.451,216.823 341.5,209.5C 339.239,201.664 337.739,193.664 337,185.5C 334.929,182.412 333.262,179.079 332,175.5C 331.728,169.309 331.228,163.143 330.5,157C 330.645,155.774 330.978,154.607 331.5,153.5C 330.965,151.729 330.131,151.396 329,152.5C 326.999,149.156 324.999,145.823 323,142.5C 321.989,143.337 320.822,143.67 319.5,143.5C 320.232,140.863 320.232,138.363 319.5,136C 316.993,135.907 314.826,135.074 313,133.5C 310.053,133.951 306.887,134.617 303.5,135.5C 302.063,137.96 301.063,140.626 300.5,143.5C 298.311,143.207 296.311,142.707 294.5,142C 293.833,144.333 293.167,146.667 292.5,149C 290.392,149.36 288.392,150.027 286.5,151C 285.586,152.914 284.086,154.081 282,154.5C 278.993,153.364 275.826,152.53 272.5,152C 274.283,150.933 274.783,149.433 274,147.5C 273.23,148.598 272.397,148.598 271.5,147.5C 269.678,145.766 267.345,144.766 264.5,144.5C 263.304,144.846 263.304,145.346 264.5,146C 261.518,146.498 258.518,146.665 255.5,146.5C 255.5,145.5 255.5,144.5 255.5,143.5C 252.534,143.89 249.868,143.223 247.5,141.5C 245.925,142.456 244.258,143.123 242.5,143.5C 242.389,142.883 242.056,142.383 241.5,142C 245.351,140.135 249.184,138.302 253,136.5C 255.185,136.921 257.351,137.421 259.5,138C 262.654,141.547 266.487,142.38 271,140.5C 271.308,141.308 271.808,141.975 272.5,142.5C 274.098,140.027 275.598,140.027 277,142.5C 277.183,145.365 277.683,148.031 278.5,150.5C 279.601,151.598 280.934,151.765 282.5,151C 289.156,144.553 294.489,137.053 298.5,128.5C 300.045,127.548 301.712,127.215 303.5,127.5C 304.167,124.5 304.833,121.5 305.5,118.5C 306.552,118.351 307.552,118.517 308.5,119C 311.343,122.01 314.343,124.843 317.5,127.5 Z"/></g>
<g><path style="opacity:1" fill="#321f15" d="M 317.5,127.5 C 326.541,135.208 334.541,143.874 341.5,153.5C 341.133,178.228 342.133,202.895 344.5,227.5C 344.489,229.045 344.156,230.378 343.5,231.5C 342.358,210.105 340.525,188.771 338,167.5C 337.316,162.764 336.316,158.097 335,153.5C 332.132,150.06 330.465,146.06 330,141.5C 324.518,137.86 320.351,133.193 317.5,127.5 Z"/></g>
<g><path style="opacity:1" fill="#495e69" d="M 135.5,151.5 C 133.955,155.637 132.122,159.637 130,163.5C 129.824,167.688 129.324,171.688 128.5,175.5C 126.84,166.163 129.173,158.163 135.5,151.5 Z"/></g>
<g><path style="opacity:1" fill="#160c06" d="M 341.5,153.5 C 342.793,154.842 343.626,156.509 344,158.5C 344.212,161.758 344.712,164.924 345.5,168C 344.92,181.756 344.92,195.589 345.5,209.5C 345.498,217.862 344.831,225.862 343.5,233.5C 343.5,232.833 343.5,232.167 343.5,231.5C 344.156,230.378 344.489,229.045 344.5,227.5C 342.133,202.895 341.133,178.228 341.5,153.5 Z"/></g>
<g><path style="opacity:1" fill="#4c2511" d="M 202.5,138.5 C 204.288,138.215 205.955,138.548 207.5,139.5C 206.624,140.251 205.624,140.751 204.5,141C 210.375,142.596 216.375,143.596 222.5,144C 220.122,144.974 220.456,145.641 223.5,146C 222.328,146.419 221.328,147.085 220.5,148C 220.728,148.399 221.062,148.565 221.5,148.5C 219.669,151.44 217.002,154.273 213.5,157C 217.364,163.768 215.364,167.268 207.5,167.5C 207.5,170.167 207.5,172.833 207.5,175.5C 203.393,176.483 199.393,177.983 195.5,180C 193.429,182.412 191.096,184.412 188.5,186C 187.167,187.667 187.167,189.333 188.5,191C 182.927,191.073 180.26,193.907 180.5,199.5C 175.198,202.307 169.532,204.307 163.5,205.5C 163.2,200.583 162.034,195.916 160,191.5C 159.667,199.5 159.333,207.5 159,215.5C 157.238,212.424 157.071,209.258 158.5,206C 157.753,201.539 157.253,197.039 157,192.5C 155.989,191.663 154.822,191.33 153.5,191.5C 153.723,193.342 154.057,195.175 154.5,197C 154.316,198.376 153.649,199.209 152.5,199.5C 151.941,195.624 151.275,191.791 150.5,188C 151.197,185.841 150.863,183.674 149.5,181.5C 148.939,176.083 149.606,170.749 151.5,165.5C 152.857,163.706 154.023,161.706 155,159.5C 156.5,161 158,162.5 159.5,164C 158.833,164.333 158.167,164.667 157.5,165C 158.711,166.113 158.711,167.28 157.5,168.5C 159.588,169.489 161.588,169.156 163.5,167.5C 164.567,161.428 164.567,155.594 163.5,150C 165.403,147.359 167.736,146.525 170.5,147.5C 173.107,146.863 175.44,145.696 177.5,144C 182.167,143.667 186.833,143.333 191.5,143C 192.416,142.626 193.25,142.126 194,141.5C 195.18,142.684 196.68,143.351 198.5,143.5C 202.286,143.904 202.952,143.071 200.5,141C 201.756,140.583 202.423,139.75 202.5,138.5 Z"/></g>
<g><path style="opacity:1" fill="#382116" d="M 149.5,159.5 C 149.056,164.486 148.723,169.486 148.5,174.5C 149.933,194.492 150.933,214.492 151.5,234.5C 150.504,234.586 149.671,234.252 149,233.5C 148.912,214.126 148.079,194.793 146.5,175.5C 146.301,169.815 147.301,164.481 149.5,159.5 Z"/></g>
<g><path style="opacity:1" fill="#3f2215" d="M 191.5,135.5 C 191.5,135.833 191.5,136.167 191.5,136.5C 183.493,136.334 175.493,136.5 167.5,137C 164.271,139.616 160.604,141.116 156.5,141.5C 153.213,149.07 151.546,157.07 151.5,165.5C 149.606,170.749 148.939,176.083 149.5,181.5C 150.863,183.674 151.197,185.841 150.5,188C 151.275,191.791 151.941,195.624 152.5,199.5C 152.357,201.262 152.691,202.929 153.5,204.5C 152.851,211.364 152.184,218.198 151.5,225C 151.863,228.169 153.197,230.836 155.5,233C 188.818,234.333 222.152,234.833 255.5,234.5C 255.5,234.833 255.5,235.167 255.5,235.5C 220.663,235.832 185.996,235.498 151.5,234.5C 150.933,214.492 149.933,194.492 148.5,174.5C 148.723,169.486 149.056,164.486 149.5,159.5C 150.328,154.643 151.162,149.643 152,144.5C 157.752,137.726 165.086,134.393 174,134.5C 179.821,135.105 185.654,135.438 191.5,135.5 Z"/></g>
<g><path style="opacity:1" fill="#618495" d="M 36.5,383.5 C 37.2714,385.114 38.2714,386.614 39.5,388C 39.3333,388.5 39.1667,389 39,389.5C 36.7997,388.01 34.9664,388.343 33.5,390.5C 35.396,391.466 37.396,391.799 39.5,391.5C 40.9872,398.402 38.3205,401.735 31.5,401.5C 31.3505,402.552 31.5172,403.552 32,404.5C 36.1536,402.664 39.6536,403.497 42.5,407C 40.0712,407.451 39.9045,408.285 42,409.5C 43.9738,407.348 45.8071,407.681 47.5,410.5C 46.3112,411.429 44.9778,411.762 43.5,411.5C 43.1756,414.694 44.3422,415.694 47,414.5C 47.4988,418.486 47.6655,422.486 47.5,426.5C 52.8437,426.666 58.1771,426.499 63.5,426C 69.533,423.464 73.1997,418.964 74.5,412.5C 78.1867,412.44 81.52,410.94 84.5,408C 83.1279,407.598 81.7946,407.098 80.5,406.5C 79.7846,404.213 79.4513,402.046 79.5,400C 82.5302,399.712 85.3635,399.545 88,399.5C 86.7656,402.685 87.9323,404.685 91.5,405.5C 92.7362,404.754 94.0695,404.421 95.5,404.5C 95.5,408.167 95.5,411.833 95.5,415.5C 91.5,415.5 87.5,415.5 83.5,415.5C 83.5,420.833 83.5,426.167 83.5,431.5C 82.1667,431.5 80.8333,431.5 79.5,431.5C 79.8318,441.19 79.4984,450.856 78.5,460.5C 75.7096,462.333 76.0429,463.333 79.5,463.5C 79.5,464.833 79.5,466.167 79.5,467.5C 84.8333,467.5 90.1667,467.5 95.5,467.5C 95.5,460.833 95.5,454.167 95.5,447.5C 96.8333,447.5 98.1667,447.5 99.5,447.5C 99.1849,454.305 99.8515,460.971 101.5,467.5C 101.175,472.599 101.675,477.599 103,482.5C 104.727,485.893 107.394,488.226 111,489.5C 111.495,491.473 111.662,493.473 111.5,495.5C 112.5,495.5 113.5,495.5 114.5,495.5C 115.763,490.968 117.597,486.635 120,482.5C 121.476,487.076 121.81,491.743 121,496.5C 119.644,495.62 118.144,495.286 116.5,495.5C 116.5,498.167 116.5,500.833 116.5,503.5C 117.552,503.351 118.552,503.517 119.5,504C 118.139,505.584 117.472,507.418 117.5,509.5C 114.918,509.025 112.918,509.692 111.5,511.5C 74.1667,511.5 36.8333,511.5 -0.5,511.5C -0.5,508.167 -0.5,504.833 -0.5,501.5C 0.884606,502.574 2.05127,503.907 3,505.5C 3.46351,483.376 4.29684,461.376 5.5,439.5C 4.83333,434.167 4.16667,428.833 3.5,423.5C 4.1417,405.332 4.80837,387.165 5.5,369C 5.42291,339.626 4.75624,310.126 3.5,280.5C 4.20677,277.017 4.87344,273.517 5.5,270C 4.46865,252.88 4.30198,235.714 5,218.5C 5.33333,217.5 5.66667,216.5 6,215.5C 7.28082,219.404 8.11415,223.404 8.5,227.5C 7.40589,241.151 7.23922,254.818 8,268.5C 8.37424,269.416 8.87424,270.25 9.5,271C 8.24782,273.041 7.58115,275.375 7.5,278C 7.30664,281.243 7.97331,284.243 9.5,287C 6.76399,289.835 7.09733,292.335 10.5,294.5C 9.5,295.167 8.5,295.833 7.5,296.5C 8.88826,298.109 9.88826,299.942 10.5,302C 10.1316,311.263 9.13158,320.429 7.5,329.5C 11.9473,337.778 12.614,346.445 9.5,355.5C 9.92954,360.45 10.0962,365.45 10,370.5C 11.6962,374.263 14.5295,376.93 18.5,378.5C 17.5089,379.665 16.5089,380.832 15.5,382C 15.8333,382.5 16.1667,383 16.5,383.5C 19.1014,380.999 21.6014,380.999 24,383.5C 24.7096,382.027 25.8762,381.36 27.5,381.5C 27.3118,379.897 27.8118,378.563 29,377.5C 29.5831,379.002 30.4164,380.335 31.5,381.5C 32.086,381.291 32.586,380.957 33,380.5C 33.7589,382.063 34.9256,383.063 36.5,383.5 Z"/></g>
<g><path style="opacity:1" fill="#0e1518" d="M 128.5,199.5 C 129.117,199.611 129.617,199.944 130,200.5C 131.335,214.511 131.835,228.511 131.5,242.5C 130.771,245.855 129.938,249.188 129,252.5C 128.617,253.056 128.117,253.389 127.5,253.5C 128.042,235.505 128.375,217.505 128.5,199.5 Z"/></g>
<g><path style="opacity:1" fill="#1c0c06" d="M 343.5,233.5 C 343.389,234.117 343.056,234.617 342.5,235C 313.502,235.5 284.502,235.667 255.5,235.5C 255.5,235.167 255.5,234.833 255.5,234.5C 271.5,234.5 287.5,234.5 303.5,234.5C 316.883,234.797 330.216,234.464 343.5,233.5 Z"/></g>
<g><path style="opacity:1" fill="#4d616b" d="M 350.5,143.5 C 351.978,143.238 353.311,143.571 354.5,144.5C 359.92,152.853 363.253,162.019 364.5,172C 362.85,177.292 362.183,182.792 362.5,188.5C 362.702,210.846 362.369,233.179 361.5,255.5C 361.832,291.337 361.498,327.004 360.5,362.5C 360.5,300.5 360.5,238.5 360.5,176.5C 360.666,170.824 360.499,165.157 360,159.5C 357.591,153.676 354.424,148.343 350.5,143.5 Z"/></g>
<g><path style="opacity:1" fill="#482b1c" d="M 155.5,252.5 C 161.245,252.079 163.745,254.746 163,260.5C 163.833,261.333 164.667,262.167 165.5,263C 173.059,261.857 180.726,261.523 188.5,262C 193.134,262.042 197.134,263.542 200.5,266.5C 201.167,268.167 201.833,269.833 202.5,271.5C 199.14,272.21 197.307,270.876 197,267.5C 195.681,265.513 193.848,264.346 191.5,264C 183.452,263.505 175.452,264.005 167.5,265.5C 164.57,265.846 162.237,264.846 160.5,262.5C 160.167,263.5 159.833,264.5 159.5,265.5C 159.766,267.66 160.766,269.326 162.5,270.5C 158.622,271.885 158.622,273.051 162.5,274C 159.833,274.333 157.167,274.667 154.5,275C 154.043,275.414 153.709,275.914 153.5,276.5C 154.5,277.333 155.5,278.167 156.5,279C 168.162,279.5 179.829,279.667 191.5,279.5C 191.5,279.833 191.5,280.167 191.5,280.5C 180.795,280.237 170.128,280.57 159.5,281.5C 156.5,281.5 153.5,281.5 150.5,281.5C 149.97,272.99 149.303,264.49 148.5,256C 148.585,254.893 148.919,253.893 149.5,253C 151.473,252.505 153.473,252.338 155.5,252.5 Z"/></g>
<g><path style="opacity:1" fill="#421e0a" d="M 287.5,255.5 C 287.334,259.514 287.501,263.514 288,267.5C 288.333,267.833 288.667,268.167 289,268.5C 289.192,266.423 289.692,264.423 290.5,262.5C 290.833,263 291.167,263.5 291.5,264C 291.81,267.721 291.477,271.554 290.5,275.5C 286.876,272.349 282.876,269.682 278.5,267.5C 276.5,268.167 274.5,268.833 272.5,269.5C 271.513,272.768 271.18,276.102 271.5,279.5C 268.482,279.335 265.482,279.502 262.5,280C 268.263,292.905 264.43,296.738 251,291.5C 249.93,291.528 249.097,291.861 248.5,292.5C 247.603,291.402 246.77,291.402 246,292.5C 245.517,291.552 245.351,290.552 245.5,289.5C 246.831,281.519 246.831,273.519 245.5,265.5C 248.536,255.036 255.536,251.37 266.5,254.5C 273.514,254.667 280.514,255 287.5,255.5 Z"/></g>
<g><path style="opacity:1" fill="#628597" d="M 116.5,333.5 C 115.711,333.783 115.044,334.283 114.5,335C 117.146,335.497 119.813,335.664 122.5,335.5C 122.278,339.171 121.944,342.837 121.5,346.5C 122.103,349.68 122.769,352.847 123.5,356C 123.167,357.5 122.833,359 122.5,360.5C 121.914,360.291 121.414,359.957 121,359.5C 119.466,370.17 119.132,380.837 120,391.5C 119.136,387.903 117.969,388.07 116.5,392C 119.71,394.625 120.043,397.458 117.5,400.5C 120.744,407.519 120.744,414.686 117.5,422C 117.833,423 118.167,424 118.5,425C 117.307,429.094 115.64,432.928 113.5,436.5C 115.279,438.935 114.613,439.935 111.5,439.5C 111.788,445.442 110.955,445.775 109,440.5C 106.493,444.442 106.993,447.775 110.5,450.5C 108.332,452.455 105.998,453.121 103.5,452.5C 106.184,452.976 108.517,453.976 110.5,455.5C 109.079,458.009 107.412,460.343 105.5,462.5C 106.137,464.303 107.303,465.636 109,466.5C 109.494,468.134 109.66,469.801 109.5,471.5C 106.849,470.289 104.182,468.955 101.5,467.5C 99.8515,460.971 99.1849,454.305 99.5,447.5C 98.1667,447.5 96.8333,447.5 95.5,447.5C 95.5,454.167 95.5,460.833 95.5,467.5C 90.1667,467.5 84.8333,467.5 79.5,467.5C 79.5,466.167 79.5,464.833 79.5,463.5C 76.0429,463.333 75.7096,462.333 78.5,460.5C 79.4984,450.856 79.8318,441.19 79.5,431.5C 80.8333,431.5 82.1667,431.5 83.5,431.5C 83.5,426.167 83.5,420.833 83.5,415.5C 87.5,415.5 91.5,415.5 95.5,415.5C 95.5,411.833 95.5,408.167 95.5,404.5C 94.0695,404.421 92.7362,404.754 91.5,405.5C 87.9323,404.685 86.7656,402.685 88,399.5C 85.3635,399.545 82.5302,399.712 79.5,400C 79.4513,402.046 79.7846,404.213 80.5,406.5C 81.7946,407.098 83.1279,407.598 84.5,408C 81.52,410.94 78.1867,412.44 74.5,412.5C 73.1997,418.964 69.533,423.464 63.5,426C 58.1771,426.499 52.8437,426.666 47.5,426.5C 47.6655,422.486 47.4988,418.486 47,414.5C 44.3422,415.694 43.1756,414.694 43.5,411.5C 44.9778,411.762 46.3112,411.429 47.5,410.5C 45.8071,407.681 43.9738,407.348 42,409.5C 39.9045,408.285 40.0712,407.451 42.5,407C 39.6536,403.497 36.1536,402.664 32,404.5C 31.5172,403.552 31.3505,402.552 31.5,401.5C 38.3205,401.735 40.9872,398.402 39.5,391.5C 37.396,391.799 35.396,391.466 33.5,390.5C 34.9664,388.343 36.7997,388.01 39,389.5C 39.1667,389 39.3333,388.5 39.5,388C 38.2714,386.614 37.2714,385.114 36.5,383.5C 37.5,383.5 38.5,383.5 39.5,383.5C 39.4419,378.375 41.9419,375.042 47,373.5C 47.4955,371.527 47.6621,369.527 47.5,367.5C 48.8333,367.5 50.1667,367.5 51.5,367.5C 51.5,362.167 51.5,356.833 51.5,351.5C 50.1667,351.5 48.8333,351.5 47.5,351.5C 47.5,348.833 47.5,346.167 47.5,343.5C 44.8431,343.838 42.5098,343.171 40.5,341.5C 42.1741,333.851 39.3408,328.517 32,325.5C 31.5001,312.838 31.3334,300.171 31.5,287.5C 34.1667,287.5 36.8333,287.5 39.5,287.5C 39.5,282.167 39.5,276.833 39.5,271.5C 42.1667,271.5 44.8333,271.5 47.5,271.5C 47.3379,269.473 47.5045,267.473 48,265.5C 52.8636,263.809 55.697,260.476 56.5,255.5C 61.6435,256.119 66.6435,256.119 71.5,255.5C 70.8333,261.5 73.5,264.167 79.5,263.5C 79.3342,268.179 79.5008,272.845 80,277.5C 84.1796,279.013 87.0129,281.846 88.5,286C 87.3615,298.8 87.1949,311.633 88,324.5C 89.805,327.039 92.305,328.039 95.5,327.5C 95.5,330.167 95.5,332.833 95.5,335.5C 98.1873,335.664 100.854,335.497 103.5,335C 103.102,332.159 103.602,329.325 105,326.5C 107.041,327.423 109.208,327.756 111.5,327.5C 112.094,330.425 113.761,332.425 116.5,333.5 Z"/></g>
<g><path style="opacity:1" fill="#3a1d0f" d="M 287.5,255.5 C 280.514,255 273.514,254.667 266.5,254.5C 255.536,251.37 248.536,255.036 245.5,265.5C 246.831,273.519 246.831,281.519 245.5,289.5C 243.78,290.751 243.447,292.251 244.5,294C 240.211,297.32 236.545,300.486 233.5,303.5C 230.65,302.897 227.816,302.23 225,301.5C 221.714,303.396 218.214,303.896 214.5,303C 219.596,301.892 219.763,300.392 215,298.5C 213.769,299.108 212.436,299.441 211,299.5C 204.335,298.975 197.835,298.308 191.5,297.5C 199.5,297.5 207.5,297.5 215.5,297.5C 215.833,297.5 216.167,297.5 216.5,297.5C 220.912,298.447 225.412,299.447 230,300.5C 233.29,299.355 236.29,297.688 239,295.5C 237.849,284.983 237.349,274.65 237.5,264.5C 238.923,261.725 239.589,258.725 239.5,255.5C 254.059,253.441 268.726,252.941 283.5,254C 285.058,254.21 286.391,254.71 287.5,255.5 Z"/></g>
<g><path style="opacity:1" fill="#4d2814" d="M 202.5,271.5 C 202.318,273.591 202.652,275.591 203.5,277.5C 202.398,278.176 201.398,278.842 200.5,279.5C 197.5,279.5 194.5,279.5 191.5,279.5C 179.829,279.667 168.162,279.5 156.5,279C 155.5,278.167 154.5,277.333 153.5,276.5C 153.709,275.914 154.043,275.414 154.5,275C 157.167,274.667 159.833,274.333 162.5,274C 158.622,273.051 158.622,271.885 162.5,270.5C 160.766,269.326 159.766,267.66 159.5,265.5C 159.833,264.5 160.167,263.5 160.5,262.5C 162.237,264.846 164.57,265.846 167.5,265.5C 175.452,264.005 183.452,263.505 191.5,264C 193.848,264.346 195.681,265.513 197,267.5C 197.307,270.876 199.14,272.21 202.5,271.5 Z"/></g>
<g><path style="opacity:1" fill="#472310" d="M 290.5,275.5 C 292.726,280.329 293.06,285.329 291.5,290.5C 292.047,293.826 292.547,297.16 293,300.5C 295.042,300.818 297.209,300.985 299.5,301C 300.167,301.667 300.833,302.333 301.5,303C 297.148,305.281 292.481,306.448 287.5,306.5C 287.5,307.5 287.5,308.5 287.5,309.5C 289.842,309.504 291.842,310.337 293.5,312C 291.875,312.853 291.542,313.853 292.5,315C 289.5,315.333 286.5,315.667 283.5,316C 282.584,316.278 281.918,316.778 281.5,317.5C 277.671,316.931 274.337,317.598 271.5,319.5C 264.673,320.533 257.84,321.533 251,322.5C 248.909,321.5 247.243,322.167 246,324.5C 245.667,324.167 245.333,323.833 245,323.5C 244.517,324.448 244.351,325.448 244.5,326.5C 241.043,326.96 239.377,328.96 239.5,332.5C 245.405,332.88 246.738,335.38 243.5,340C 244.448,340.483 245.448,340.649 246.5,340.5C 248.503,343.498 251.17,345.831 254.5,347.5C 255.167,346.833 255.833,346.167 256.5,345.5C 261.476,346.638 266.476,346.638 271.5,345.5C 271.5,346.5 271.5,347.5 271.5,348.5C 276.978,348.149 282.312,348.816 287.5,350.5C 286.311,351.429 284.978,351.762 283.5,351.5C 283.45,353.59 284.45,354.923 286.5,355.5C 288.071,354.691 289.738,354.357 291.5,354.5C 291.852,351.886 293.352,350.219 296,349.5C 296.945,349.905 297.612,350.572 298,351.5C 298.928,348.965 300.762,347.965 303.5,348.5C 303.73,345.306 303.064,342.306 301.5,339.5C 302.866,337.63 304.033,335.63 305,333.5C 305.497,335.81 305.663,338.143 305.5,340.5C 306.833,340.5 308.167,340.5 309.5,340.5C 309.5,338.833 309.5,337.167 309.5,335.5C 310.833,335.5 312.167,335.5 313.5,335.5C 313.34,332.116 313.673,328.783 314.5,325.5C 316.161,323.665 317.661,321.665 319,319.5C 319.175,323.211 319.675,326.878 320.5,330.5C 321.799,329.91 322.632,328.91 323,327.5C 324.931,321.477 323.098,317.31 317.5,315C 321.094,313.325 323.761,314.492 325.5,318.5C 326.689,319.429 328.022,319.762 329.5,319.5C 329.607,324.585 330.274,329.585 331.5,334.5C 329.27,342.672 328.27,351.005 328.5,359.5C 326.418,359.528 324.584,358.861 323,357.5C 321.933,358.191 320.766,358.691 319.5,359C 323.768,361.433 326.768,364.933 328.5,369.5C 327.708,371.745 326.375,372.078 324.5,370.5C 323.508,370.672 322.842,370.338 322.5,369.5C 319.014,368.467 315.347,367.633 311.5,367C 305.737,364.272 299.903,361.772 294,359.5C 289.107,359.488 284.274,359.988 279.5,361C 266.443,361.922 253.443,361.589 240.5,360C 251.179,356.917 250.845,355.084 239.5,354.5C 239.5,355.5 239.5,356.5 239.5,357.5C 234.481,358.951 229.481,360.617 224.5,362.5C 223.833,362.167 223.167,361.833 222.5,361.5C 218.957,362.766 215.957,364.766 213.5,367.5C 212.217,370.365 212.217,373.365 213.5,376.5C 215.89,377.891 217.557,379.891 218.5,382.5C 221.027,383.214 223.527,383.88 226,384.5C 227.328,387.283 229.162,389.783 231.5,392C 232.658,393.261 232.658,394.427 231.5,395.5C 230.127,395.343 228.793,395.51 227.5,396C 227.273,397.135 226.94,398.302 226.5,399.5C 224.124,397.373 223.124,394.707 223.5,391.5C 221.833,391.5 220.167,391.5 218.5,391.5C 219.667,394.819 220.501,398.153 221,401.5C 220.196,402.804 219.029,403.471 217.5,403.5C 215.141,402.163 212.807,400.83 210.5,399.5C 209.675,395.878 209.175,392.211 209,388.5C 206.444,387.781 205.277,386.114 205.5,383.5C 201.461,384.34 198.461,383.007 196.5,379.5C 197.04,378.252 197.707,377.085 198.5,376C 197.207,375.51 195.873,375.343 194.5,375.5C 194.343,374.127 194.51,372.793 195,371.5C 199.538,367.696 201.371,363.029 200.5,357.5C 197.998,356.809 195.498,357.142 193,358.5C 189.862,355.822 187.029,356.155 184.5,359.5C 182.87,356.104 183.537,353.271 186.5,351C 184.863,348.69 182.696,347.19 180,346.5C 180.155,344.189 180.155,341.856 180,339.5C 178.647,338.315 177.48,336.981 176.5,335.5C 175.784,336.311 174.95,336.978 174,337.5C 169.709,335.338 165.209,335.005 160.5,336.5C 162.792,338.657 165.125,340.824 167.5,343C 164.854,343.497 162.187,343.664 159.5,343.5C 159.575,337.471 159.241,331.471 158.5,325.5C 158.338,323.473 158.505,321.473 159,319.5C 159.497,322.146 159.664,324.813 159.5,327.5C 160.5,327.5 161.5,327.5 162.5,327.5C 165.74,321.534 164.907,316.201 160,311.5C 159.012,308.576 158.346,305.576 158,302.5C 157.005,301.934 156.172,301.267 155.5,300.5C 156.473,300.013 157.473,299.513 158.5,299C 164.157,298.501 169.824,298.334 175.5,298.5C 183.536,298.402 191.536,298.902 199.5,300C 191.652,301.597 191.652,302.597 199.5,303C 191.812,303.169 184.145,303.669 176.5,304.5C 178.858,307.118 181.691,307.785 185,306.5C 187.047,307.609 189.213,308.276 191.5,308.5C 191.351,309.552 191.517,310.552 192,311.5C 192.583,309.998 193.416,308.665 194.5,307.5C 195.134,309.567 196.134,311.4 197.5,313C 200.481,312.649 203.481,313.149 206.5,314.5C 207.416,318.383 209.583,321.383 213,323.5C 213.49,324.793 213.657,326.127 213.5,327.5C 221.833,327.5 230.167,327.5 238.5,327.5C 238.642,324.383 239.976,321.883 242.5,320C 241.552,319.517 240.552,319.351 239.5,319.5C 239.5,315.833 239.5,312.167 239.5,308.5C 240.5,308.5 241.5,308.5 242.5,308.5C 242.34,306.801 242.506,305.134 243,303.5C 245.318,300.027 247.151,296.361 248.5,292.5C 249.097,291.861 249.93,291.528 251,291.5C 264.43,296.738 268.263,292.905 262.5,280C 265.482,279.502 268.482,279.335 271.5,279.5C 271.18,276.102 271.513,272.768 272.5,269.5C 274.5,268.833 276.5,268.167 278.5,267.5C 282.876,269.682 286.876,272.349 290.5,275.5 Z"/></g>
<g><path style="opacity:1" fill="#2b1a13" d="M 239.5,255.5 C 239.589,258.725 238.923,261.725 237.5,264.5C 237.349,274.65 237.849,284.983 239,295.5C 236.29,297.688 233.29,299.355 230,300.5C 225.412,299.447 220.912,298.447 216.5,297.5C 221.511,297.666 226.511,297.499 231.5,297C 232.931,296.535 234.097,295.701 235,294.5C 233.687,283.242 233.353,271.909 234,260.5C 235.704,258.627 237.537,256.96 239.5,255.5 Z"/></g>
<g><path style="opacity:1" fill="#241814" d="M 291.5,255.5 C 295.199,256.004 298.365,257.67 301,260.5C 301.525,263.867 301.025,267.034 299.5,270C 300.102,273.844 300.769,277.677 301.5,281.5C 299.466,286.064 299.132,290.731 300.5,295.5C 298.836,294.051 298.002,292.051 298,289.5C 297.509,279.808 297.509,270.141 298,260.5C 295.648,258.97 293.481,257.303 291.5,255.5 Z"/></g>
<g><path style="opacity:1" fill="#28211e" d="M 329.5,268.5 C 335.855,267.873 337.855,270.54 335.5,276.5C 332.628,277.783 329.795,277.783 327,276.5C 326.626,275.584 326.126,274.75 325.5,274C 327.439,272.568 328.772,270.735 329.5,268.5 Z"/></g>
<g><path style="opacity:1" fill="#3f2f27" d="M 200.5,266.5 C 203.526,269.195 206.526,271.862 209.5,274.5C 209.937,276.074 210.937,277.241 212.5,278C 212.167,278.333 211.833,278.667 211.5,279C 207.848,279.499 204.182,279.665 200.5,279.5C 201.398,278.842 202.398,278.176 203.5,277.5C 202.652,275.591 202.318,273.591 202.5,271.5C 201.833,269.833 201.167,268.167 200.5,266.5 Z"/></g>
<g><path style="opacity:1" fill="#2a211f" d="M 209.5,274.5 C 214.771,273.982 219.438,275.315 223.5,278.5C 223.291,279.086 222.957,279.586 222.5,280C 212.172,280.5 201.839,280.666 191.5,280.5C 191.5,280.167 191.5,279.833 191.5,279.5C 194.5,279.5 197.5,279.5 200.5,279.5C 204.182,279.665 207.848,279.499 211.5,279C 211.833,278.667 212.167,278.333 212.5,278C 210.937,277.241 209.937,276.074 209.5,274.5 Z"/></g>
<g><path style="opacity:1" fill="#2c1a12" d="M 155.5,252.5 C 153.473,252.338 151.473,252.505 149.5,253C 148.919,253.893 148.585,254.893 148.5,256C 149.303,264.49 149.97,272.99 150.5,281.5C 153.5,281.5 156.5,281.5 159.5,281.5C 156.36,282.641 153.027,282.808 149.5,282C 148.773,280.601 148.273,279.101 148,277.5C 147.333,269.167 147.333,260.833 148,252.5C 150.605,251.186 153.105,251.186 155.5,252.5 Z"/></g>
<g><path style="opacity:1" fill="#42220f" d="M 245.5,289.5 C 245.351,290.552 245.517,291.552 246,292.5C 246.77,291.402 247.603,291.402 248.5,292.5C 247.151,296.361 245.318,300.027 243,303.5C 242.506,305.134 242.34,306.801 242.5,308.5C 241.5,308.5 240.5,308.5 239.5,308.5C 239.5,312.167 239.5,315.833 239.5,319.5C 240.552,319.351 241.552,319.517 242.5,320C 239.976,321.883 238.642,324.383 238.5,327.5C 230.167,327.5 221.833,327.5 213.5,327.5C 213.657,326.127 213.49,324.793 213,323.5C 209.583,321.383 207.416,318.383 206.5,314.5C 203.481,313.149 200.481,312.649 197.5,313C 196.134,311.4 195.134,309.567 194.5,307.5C 193.416,308.665 192.583,309.998 192,311.5C 191.517,310.552 191.351,309.552 191.5,308.5C 189.213,308.276 187.047,307.609 185,306.5C 181.691,307.785 178.858,307.118 176.5,304.5C 184.145,303.669 191.812,303.169 199.5,303C 191.652,302.597 191.652,301.597 199.5,300C 191.536,298.902 183.536,298.402 175.5,298.5C 180.64,297.512 185.974,297.179 191.5,297.5C 197.835,298.308 204.335,298.975 211,299.5C 212.436,299.441 213.769,299.108 215,298.5C 219.763,300.392 219.596,301.892 214.5,303C 218.214,303.896 221.714,303.396 225,301.5C 227.816,302.23 230.65,302.897 233.5,303.5C 236.545,300.486 240.211,297.32 244.5,294C 243.447,292.251 243.78,290.751 245.5,289.5 Z"/></g>
<g><path style="opacity:1" fill="#392017" d="M 289.5,255.5 C 290.167,255.5 290.833,255.5 291.5,255.5C 293.481,257.303 295.648,258.97 298,260.5C 297.509,270.141 297.509,279.808 298,289.5C 298.002,292.051 298.836,294.051 300.5,295.5C 301.473,295.987 302.473,296.487 303.5,297C 309.157,297.499 314.824,297.666 320.5,297.5C 325.695,297.179 330.695,297.513 335.5,298.5C 329.342,298.02 323.342,298.687 317.5,300.5C 311.814,300.079 306.147,299.746 300.5,299.5C 299.833,298.833 299.167,298.167 298.5,297.5C 295.435,286.646 294.101,275.646 294.5,264.5C 293.095,261.318 291.429,258.318 289.5,255.5 Z"/></g>
<g><path style="opacity:1" fill="#0e0704" d="M 191.5,296.5 C 180.833,296.5 170.167,296.5 159.5,296.5C 154.238,296.195 149.072,296.529 144,297.5C 144.816,325.645 145.649,353.645 146.5,381.5C 146.5,382.167 146.5,382.833 146.5,383.5C 146.5,395.5 146.5,407.5 146.5,419.5C 145.003,443.54 143.336,467.54 141.5,491.5C 138.445,460.476 136.445,429.309 135.5,398C 136.892,387.893 137.559,377.726 137.5,367.5C 136.5,367.5 135.5,367.5 134.5,367.5C 134.501,359.488 134.834,351.488 135.5,343.5C 135.478,340.41 134.812,337.743 133.5,335.5C 133.5,334.833 133.5,334.167 133.5,333.5C 135.374,329.575 135.374,325.408 133.5,321C 135.775,314.471 136.108,307.804 134.5,301C 135.918,299.916 136.918,297.916 137.5,295C 149.971,295.371 162.471,295.204 175,294.5C 180.876,294.505 186.376,295.171 191.5,296.5 Z"/></g>
<g><path style="opacity:1" fill="#432312" d="M 287.5,255.5 C 288.167,255.5 288.833,255.5 289.5,255.5C 291.429,258.318 293.095,261.318 294.5,264.5C 294.101,275.646 295.435,286.646 298.5,297.5C 299.167,298.167 299.833,298.833 300.5,299.5C 306.147,299.746 311.814,300.079 317.5,300.5C 323.342,298.687 329.342,298.02 335.5,298.5C 335.821,300.048 336.821,300.715 338.5,300.5C 338.942,304.731 338.942,309.064 338.5,313.5C 337.883,313.389 337.383,313.056 337,312.5C 336.023,314.74 335.523,317.073 335.5,319.5C 334.022,319.238 332.689,319.571 331.5,320.5C 335.261,331.866 336.428,343.532 335,355.5C 333.287,356.878 331.953,358.545 331,360.5C 330.667,363.833 330.333,367.167 330,370.5C 329.617,369.944 329.117,369.611 328.5,369.5C 326.768,364.933 323.768,361.433 319.5,359C 320.766,358.691 321.933,358.191 323,357.5C 324.584,358.861 326.418,359.528 328.5,359.5C 328.27,351.005 329.27,342.672 331.5,334.5C 330.274,329.585 329.607,324.585 329.5,319.5C 328.022,319.762 326.689,319.429 325.5,318.5C 323.761,314.492 321.094,313.325 317.5,315C 323.098,317.31 324.931,321.477 323,327.5C 322.632,328.91 321.799,329.91 320.5,330.5C 319.675,326.878 319.175,323.211 319,319.5C 317.661,321.665 316.161,323.665 314.5,325.5C 313.673,328.783 313.34,332.116 313.5,335.5C 312.167,335.5 310.833,335.5 309.5,335.5C 309.5,337.167 309.5,338.833 309.5,340.5C 308.167,340.5 306.833,340.5 305.5,340.5C 305.663,338.143 305.497,335.81 305,333.5C 304.033,335.63 302.866,337.63 301.5,339.5C 303.064,342.306 303.73,345.306 303.5,348.5C 300.762,347.965 298.928,348.965 298,351.5C 297.612,350.572 296.945,349.905 296,349.5C 293.352,350.219 291.852,351.886 291.5,354.5C 289.738,354.357 288.071,354.691 286.5,355.5C 284.45,354.923 283.45,353.59 283.5,351.5C 284.978,351.762 286.311,351.429 287.5,350.5C 282.312,348.816 276.978,348.149 271.5,348.5C 271.5,347.5 271.5,346.5 271.5,345.5C 266.476,346.638 261.476,346.638 256.5,345.5C 255.833,346.167 255.167,346.833 254.5,347.5C 251.17,345.831 248.503,343.498 246.5,340.5C 249.067,339.78 251.734,340.114 254.5,341.5C 268.747,341.139 282.747,340.972 296.5,341C 297.667,339.833 298.833,338.667 300,337.5C 301.305,330.874 301.638,324.208 301,317.5C 294.569,316.609 288.069,316.609 281.5,317.5C 281.918,316.778 282.584,316.278 283.5,316C 286.5,315.667 289.5,315.333 292.5,315C 291.542,313.853 291.875,312.853 293.5,312C 291.842,310.337 289.842,309.504 287.5,309.5C 287.5,308.5 287.5,307.5 287.5,306.5C 292.481,306.448 297.148,305.281 301.5,303C 300.833,302.333 300.167,301.667 299.5,301C 297.209,300.985 295.042,300.818 293,300.5C 292.547,297.16 292.047,293.826 291.5,290.5C 293.06,285.329 292.726,280.329 290.5,275.5C 291.477,271.554 291.81,267.721 291.5,264C 291.167,263.5 290.833,263 290.5,262.5C 289.692,264.423 289.192,266.423 289,268.5C 288.667,268.167 288.333,267.833 288,267.5C 287.501,263.514 287.334,259.514 287.5,255.5 Z"/></g>
<g><path style="opacity:1" fill="#2e1e17" d="M 320.5,297.5 C 326.979,296.509 333.646,296.176 340.5,296.5C 341.172,297.267 342.005,297.934 343,298.5C 343.167,301 343.333,303.5 343.5,306C 342.186,333.669 342.186,361.335 343.5,389C 343.514,392.76 342.847,396.26 341.5,399.5C 341.667,366.832 341.5,334.165 341,301.5C 339.736,299.393 337.903,298.393 335.5,298.5C 330.695,297.513 325.695,297.179 320.5,297.5 Z"/></g>
<g><path style="opacity:1" fill="#638497" d="M 504.5,-0.5 C 506.833,-0.5 509.167,-0.5 511.5,-0.5C 511.5,169.167 511.5,338.833 511.5,508.5C 510.515,504.366 510.182,500.032 510.5,495.5C 509.5,495.5 508.5,495.5 507.5,495.5C 508.02,333.638 507.853,171.638 507,9.5C 506.467,6.0712 505.633,2.73787 504.5,-0.5 Z"/></g>
<g><path style="opacity:1" fill="#442719" d="M 338.5,313.5 C 338.312,315.103 338.812,316.437 340,317.5C 340.62,339.507 340.453,361.507 339.5,383.5C 338.167,383.5 336.833,383.5 335.5,383.5C 335.664,380.813 335.497,378.146 335,375.5C 333.853,376.458 332.853,376.125 332,374.5C 331.581,375.672 330.915,376.672 330,377.5C 329.252,375.668 328.252,374.001 327,372.5C 326.392,374.066 325.558,375.4 324.5,376.5C 324.5,374.5 324.5,372.5 324.5,370.5C 326.375,372.078 327.708,371.745 328.5,369.5C 329.117,369.611 329.617,369.944 330,370.5C 330.333,367.167 330.667,363.833 331,360.5C 331.953,358.545 333.287,356.878 335,355.5C 336.428,343.532 335.261,331.866 331.5,320.5C 332.689,319.571 334.022,319.238 335.5,319.5C 335.523,317.073 336.023,314.74 337,312.5C 337.383,313.056 337.883,313.389 338.5,313.5 Z"/></g>
<g><path style="opacity:1" fill="#472614" d="M 155.5,300.5 C 156.172,301.267 157.005,301.934 158,302.5C 158.346,305.576 159.012,308.576 160,311.5C 164.907,316.201 165.74,321.534 162.5,327.5C 161.5,327.5 160.5,327.5 159.5,327.5C 159.664,324.813 159.497,322.146 159,319.5C 158.505,321.473 158.338,323.473 158.5,325.5C 156.945,329.203 156.278,333.203 156.5,337.5C 156.686,342.186 157.019,346.853 157.5,351.5C 156.836,353.978 156.503,356.645 156.5,359.5C 157.6,369.487 158.1,379.487 158,389.5C 157.667,389.167 157.333,388.833 157,388.5C 155.905,389.693 155.072,391.027 154.5,392.5C 153.852,397.314 153.852,402.314 154.5,407.5C 153.49,421.168 152.157,434.502 150.5,447.5C 149.616,401.182 148.616,354.848 147.5,308.5C 147.667,305.833 147.833,303.167 148,300.5C 150.587,300.341 153.087,300.341 155.5,300.5 Z"/></g>
<g><path style="opacity:1" fill="#1e110a" d="M 159.5,296.5 C 154.767,297.19 149.934,297.856 145,298.5C 146.375,326.064 146.875,353.731 146.5,381.5C 145.649,353.645 144.816,325.645 144,297.5C 149.072,296.529 154.238,296.195 159.5,296.5 Z"/></g>
<g><path style="opacity:1" fill="#4a2611" d="M 158.5,325.5 C 159.241,331.471 159.575,337.471 159.5,343.5C 162.187,343.664 164.854,343.497 167.5,343C 165.125,340.824 162.792,338.657 160.5,336.5C 165.209,335.005 169.709,335.338 174,337.5C 174.95,336.978 175.784,336.311 176.5,335.5C 177.48,336.981 178.647,338.315 180,339.5C 180.155,341.856 180.155,344.189 180,346.5C 182.696,347.19 184.863,348.69 186.5,351C 183.537,353.271 182.87,356.104 184.5,359.5C 187.029,356.155 189.862,355.822 193,358.5C 195.498,357.142 197.998,356.809 200.5,357.5C 201.371,363.029 199.538,367.696 195,371.5C 194.51,372.793 194.343,374.127 194.5,375.5C 195.873,375.343 197.207,375.51 198.5,376C 197.707,377.085 197.04,378.252 196.5,379.5C 198.461,383.007 201.461,384.34 205.5,383.5C 205.277,386.114 206.444,387.781 209,388.5C 209.175,392.211 209.675,395.878 210.5,399.5C 212.807,400.83 215.141,402.163 217.5,403.5C 219.029,403.471 220.196,402.804 221,401.5C 220.501,398.153 219.667,394.819 218.5,391.5C 220.167,391.5 221.833,391.5 223.5,391.5C 223.124,394.707 224.124,397.373 226.5,399.5C 226.94,398.302 227.273,397.135 227.5,396C 228.793,395.51 230.127,395.343 231.5,395.5C 232.496,395.414 233.329,395.748 234,396.5C 234.093,399.007 234.926,401.174 236.5,403C 240.241,404.014 243.907,404.847 247.5,405.5C 246.365,406.474 245.365,407.641 244.5,409C 242.579,409.36 240.912,410.194 239.5,411.5C 245.035,413.207 250.369,415.207 255.5,417.5C 255.458,415.151 256.625,413.818 259,413.5C 260.396,414.394 261.896,415.061 263.5,415.5C 265.239,414.6 267.072,413.933 269,413.5C 277.068,415.672 285.235,416.005 293.5,414.5C 292.515,412.902 292.349,411.235 293,409.5C 294.698,408.259 296.198,406.926 297.5,405.5C 299.354,404.759 301.021,403.759 302.5,402.5C 303.451,403.919 303.784,405.585 303.5,407.5C 309.5,406.833 312.167,409.5 311.5,415.5C 309.833,415.5 308.167,415.5 306.5,415.5C 306.32,419.215 306.654,422.882 307.5,426.5C 306.383,429.07 305.55,431.737 305,434.5C 304.667,433.833 304.333,433.167 304,432.5C 301.834,434.121 299.334,434.955 296.5,435C 294.833,436 293.5,437.333 292.5,439C 290.866,439.494 289.199,439.66 287.5,439.5C 287.5,440.833 287.5,442.167 287.5,443.5C 285.436,443.313 283.436,442.813 281.5,442C 281.833,441.667 282.167,441.333 282.5,441C 280.956,439.813 279.289,439.48 277.5,440C 278.167,440.333 278.833,440.667 279.5,441C 277.597,441.774 275.93,441.44 274.5,440C 275.167,439.667 275.833,439.333 276.5,439C 269.531,437.377 262.531,437.21 255.5,438.5C 255.137,439.183 254.804,439.85 254.5,440.5C 250.265,439.564 245.931,439.231 241.5,439.5C 241.688,437.897 241.188,436.563 240,435.5C 237.315,435.827 234.482,435.827 231.5,435.5C 231.338,433.473 231.505,431.473 232,429.5C 235.572,428.021 237.406,425.354 237.5,421.5C 227.514,422.331 217.514,422.998 207.5,423.5C 207.813,420.753 207.48,418.086 206.5,415.5C 203.716,413.528 203.049,411.028 204.5,408C 202.591,407.552 201.424,408.385 201,410.5C 200.667,410.167 200.333,409.833 200,409.5C 198.933,411.283 197.433,411.783 195.5,411C 192.593,408.986 189.926,406.652 187.5,404C 186.062,403.781 184.729,403.281 183.5,402.5C 180.829,398.02 178.163,393.187 175.5,388C 175.903,386.527 176.57,385.194 177.5,384C 173.66,384.037 171.327,382.204 170.5,378.5C 168.5,376.833 166.5,375.167 164.5,373.5C 163.503,366.197 163.169,358.863 163.5,351.5C 161.5,351.5 159.5,351.5 157.5,351.5C 157.019,346.853 156.686,342.186 156.5,337.5C 156.278,333.203 156.945,329.203 158.5,325.5 Z"/></g>
<g><path style="opacity:1" fill="#3d2014" d="M 246.5,340.5 C 245.448,340.649 244.448,340.483 243.5,340C 246.738,335.38 245.405,332.88 239.5,332.5C 239.377,328.96 241.043,326.96 244.5,326.5C 244.351,325.448 244.517,324.448 245,323.5C 245.333,323.833 245.667,324.167 246,324.5C 247.243,322.167 248.909,321.5 251,322.5C 257.84,321.533 264.673,320.533 271.5,319.5C 274.337,317.598 277.671,316.931 281.5,317.5C 288.069,316.609 294.569,316.609 301,317.5C 301.638,324.208 301.305,330.874 300,337.5C 298.833,338.667 297.667,339.833 296.5,341C 282.747,340.972 268.747,341.139 254.5,341.5C 251.734,340.114 249.067,339.78 246.5,340.5 Z"/></g>
<g><path style="opacity:1" fill="#080100" d="M 298.5,319.5 C 298.5,321.833 298.5,324.167 298.5,326.5C 296.768,329.039 295.768,332.039 295.5,335.5C 285.557,336.987 275.557,337.654 265.5,337.5C 262.119,337.54 258.786,337.207 255.5,336.5C 249.955,335.442 247.788,332.109 249,326.5C 256.665,324.428 264.165,322.095 271.5,319.5C 280.562,318.419 289.562,318.419 298.5,319.5 Z"/></g>
<g><path style="opacity:1" fill="#190d08" d="M 298.5,326.5 C 298.399,330.65 297.399,334.483 295.5,338C 285.325,338.825 275.325,338.658 265.5,337.5C 275.557,337.654 285.557,336.987 295.5,335.5C 295.768,332.039 296.768,329.039 298.5,326.5 Z"/></g>
<g><path style="opacity:1" fill="#2d1912" d="M 298.5,319.5 C 299.651,324.65 299.817,329.984 299,335.5C 298.535,336.931 297.701,338.097 296.5,339C 285.5,339.667 274.5,339.667 263.5,339C 260.325,339.053 257.658,338.22 255.5,336.5C 258.786,337.207 262.119,337.54 265.5,337.5C 275.325,338.658 285.325,338.825 295.5,338C 297.399,334.483 298.399,330.65 298.5,326.5C 298.5,324.167 298.5,321.833 298.5,319.5 Z"/></g>
<g><path style="opacity:1" fill="#5f7581" d="M 361.5,255.5 C 362.662,305.336 362.662,355.336 361.5,405.5C 361.167,405.5 360.833,405.5 360.5,405.5C 360.5,391.167 360.5,376.833 360.5,362.5C 361.498,327.004 361.832,291.337 361.5,255.5 Z"/></g>
<g><path style="opacity:1" fill="#472410" d="M 157.5,351.5 C 159.5,351.5 161.5,351.5 163.5,351.5C 163.169,358.863 163.503,366.197 164.5,373.5C 166.5,375.167 168.5,376.833 170.5,378.5C 171.327,382.204 173.66,384.037 177.5,384C 176.57,385.194 175.903,386.527 175.5,388C 178.163,393.187 180.829,398.02 183.5,402.5C 184.729,403.281 186.062,403.781 187.5,404C 189.926,406.652 192.593,408.986 195.5,411C 197.433,411.783 198.933,411.283 200,409.5C 200.333,409.833 200.667,410.167 201,410.5C 201.424,408.385 202.591,407.552 204.5,408C 203.049,411.028 203.716,413.528 206.5,415.5C 207.48,418.086 207.813,420.753 207.5,423.5C 217.514,422.998 227.514,422.331 237.5,421.5C 237.406,425.354 235.572,428.021 232,429.5C 231.505,431.473 231.338,433.473 231.5,435.5C 234.482,435.827 237.315,435.827 240,435.5C 241.188,436.563 241.688,437.897 241.5,439.5C 245.931,439.231 250.265,439.564 254.5,440.5C 255.043,440.56 255.376,440.893 255.5,441.5C 250.885,442.714 246.218,443.714 241.5,444.5C 236.933,442.019 232.266,441.852 227.5,444C 227.833,444.333 228.167,444.667 228.5,445C 227.244,445.417 226.577,446.25 226.5,447.5C 220.582,446.989 214.915,447.656 209.5,449.5C 207.964,447.975 206.964,445.975 206.5,443.5C 205.571,444.689 205.238,446.022 205.5,447.5C 203.833,447.5 202.167,447.5 200.5,447.5C 200.5,448.5 200.5,449.5 200.5,450.5C 199.5,450.5 198.5,450.5 197.5,450.5C 197.649,449.448 197.483,448.448 197,447.5C 195.519,450.11 194.352,452.777 193.5,455.5C 189.92,454.923 186.92,455.923 184.5,458.5C 183.548,456.955 183.215,455.288 183.5,453.5C 181.856,453.714 180.356,453.38 179,452.5C 176.639,448.135 175.139,443.468 174.5,438.5C 171.635,440.743 170.302,443.743 170.5,447.5C 167.428,447.817 164.428,447.484 161.5,446.5C 162.961,443.618 164.127,440.618 165,437.5C 165.5,430.174 165.666,422.841 165.5,415.5C 166.5,415.5 167.5,415.5 168.5,415.5C 168.358,412.383 167.024,409.883 164.5,408C 161.967,408.611 159.3,409.111 156.5,409.5C 156.283,403.64 155.617,397.973 154.5,392.5C 155.072,391.027 155.905,389.693 157,388.5C 157.333,388.833 157.667,389.167 158,389.5C 158.1,379.487 157.6,369.487 156.5,359.5C 156.503,356.645 156.836,353.978 157.5,351.5 Z"/></g>
<g><path style="opacity:1" fill="#432413" d="M 322.5,369.5 C 318.512,369.17 314.678,369.17 311,369.5C 308.64,368.22 306.14,367.553 303.5,367.5C 303.5,366.5 303.5,365.5 303.5,364.5C 301.194,364.007 298.861,363.674 296.5,363.5C 276.952,362.584 257.285,362.25 237.5,362.5C 231.914,363.859 226.247,364.692 220.5,365C 218.509,365.374 216.842,366.207 215.5,367.5C 214.833,367.5 214.167,367.5 213.5,367.5C 215.957,364.766 218.957,362.766 222.5,361.5C 223.167,361.833 223.833,362.167 224.5,362.5C 229.481,360.617 234.481,358.951 239.5,357.5C 239.5,356.5 239.5,355.5 239.5,354.5C 250.845,355.084 251.179,356.917 240.5,360C 253.443,361.589 266.443,361.922 279.5,361C 284.274,359.988 289.107,359.488 294,359.5C 299.903,361.772 305.737,364.272 311.5,367C 315.347,367.633 319.014,368.467 322.5,369.5 Z"/></g>
<g><path style="opacity:1" fill="#371e11" d="M 296.5,363.5 C 286.473,363.301 276.473,363.634 266.5,364.5C 249.42,364.394 232.42,365.394 215.5,367.5C 216.842,366.207 218.509,365.374 220.5,365C 226.247,364.692 231.914,363.859 237.5,362.5C 257.285,362.25 276.952,362.584 296.5,363.5 Z"/></g>
<g><path style="opacity:1" fill="#0d0401" d="M 296.5,363.5 C 301.996,374.072 310.329,377.072 321.5,372.5C 321.023,376.793 319.023,380.127 315.5,382.5C 315.297,380.61 315.963,379.11 317.5,378C 311.125,374.987 304.791,374.987 298.5,378C 292.976,378.287 287.476,378.787 282,379.5C 268.994,375.73 255.494,374.73 241.5,376.5C 234.777,375.84 228.277,374.507 222,372.5C 219.5,373.158 219,374.491 220.5,376.5C 216.081,375.677 215.414,373.51 218.5,370C 234.58,367.627 250.58,365.794 266.5,364.5C 276.473,363.634 286.473,363.301 296.5,363.5 Z"/></g>
<g><path style="opacity:1" fill="#3a2217" d="M 296.5,363.5 C 298.861,363.674 301.194,364.007 303.5,364.5C 303.5,365.5 303.5,366.5 303.5,367.5C 306.14,367.553 308.64,368.22 311,369.5C 314.678,369.17 318.512,369.17 322.5,369.5C 322.842,370.338 323.508,370.672 324.5,370.5C 324.5,372.5 324.5,374.5 324.5,376.5C 323.287,378.728 321.62,380.728 319.5,382.5C 318.311,383.429 316.978,383.762 315.5,383.5C 315.5,383.167 315.5,382.833 315.5,382.5C 319.023,380.127 321.023,376.793 321.5,372.5C 310.329,377.072 301.996,374.072 296.5,363.5 Z"/></g>
<g><path style="opacity:1" fill="#20313b" d="M 127.5,321.5 C 128.29,322.609 128.79,323.942 129,325.5C 129.831,362.336 129.664,399.002 128.5,435.5C 128.783,397.486 128.45,359.486 127.5,321.5 Z"/></g>
<g><path style="opacity:1" fill="#638292" d="M 264.5,470.5 C 278.583,470.919 292.75,470.252 307,468.5C 310.304,469.126 313.304,468.126 316,465.5C 317.067,466.191 318.234,466.691 319.5,467C 324.823,467.499 330.156,467.666 335.5,467.5C 335.227,465.042 336.227,463.375 338.5,462.5C 341.438,463.575 344.438,463.741 347.5,463C 346.478,460.684 344.978,460.184 343,461.5C 341.601,460.773 340.101,460.273 338.5,460C 341.428,457.911 343.761,455.411 345.5,452.5C 347.924,451.97 350.257,451.136 352.5,450C 357.494,445.305 360.327,439.472 361,432.5C 361.5,423.506 361.666,414.506 361.5,405.5C 362.662,355.336 362.662,305.336 361.5,255.5C 362.369,233.179 362.702,210.846 362.5,188.5C 363.191,183.784 364.525,179.117 366.5,174.5C 365.057,171.002 365.224,167.669 367,164.5C 367.667,184.167 367.667,203.833 367,223.5C 366.789,217.782 366.289,212.115 365.5,206.5C 366.302,200.831 365.969,195.164 364.5,189.5C 362.963,203.081 363.297,216.581 365.5,230C 364.608,237.573 364.608,245.239 365.5,253C 364.833,255.333 364.167,257.667 363.5,260C 365.37,271.897 365.37,283.73 363.5,295.5C 364.063,309.845 364.729,324.178 365.5,338.5C 364.548,353.478 364.215,368.478 364.5,383.5C 365.5,383.5 366.5,383.5 367.5,383.5C 367.5,381.833 367.5,380.167 367.5,378.5C 370.167,378.5 372.833,378.5 375.5,378.5C 375.668,381.757 376.668,384.757 378.5,387.5C 377.567,391.429 377.234,395.429 377.5,399.5C 378.833,399.5 380.167,399.5 381.5,399.5C 381.679,405.378 383.012,410.878 385.5,416C 384.565,418.381 384.232,420.881 384.5,423.5C 386.592,423.439 388.092,422.439 389,420.5C 389.692,421.025 390.192,421.692 390.5,422.5C 387.758,425.652 386.424,429.319 386.5,433.5C 388.288,433.215 389.955,433.548 391.5,434.5C 386.306,435.83 386.306,437.33 391.5,439C 390.333,439.5 389.5,440.333 389,441.5C 388.29,440.027 387.124,439.36 385.5,439.5C 383.888,443.412 384.221,447.079 386.5,450.5C 385.129,453.638 382.796,455.304 379.5,455.5C 379.038,460.244 380.538,461.244 384,458.5C 384.807,460.577 385.974,462.411 387.5,464C 386.437,465.188 385.103,465.688 383.5,465.5C 383.5,466.833 383.5,468.167 383.5,469.5C 380.708,469.548 378.875,468.215 378,465.5C 377.667,469.5 377.333,473.5 377,477.5C 375.913,479.932 375.413,479.598 375.5,476.5C 370.809,476.35 368.976,478.35 370,482.5C 369.25,483.126 368.416,483.626 367.5,484C 361.5,484.5 355.5,485 349.5,485.5C 347.036,485.59 344.87,486.257 343,487.5C 341.833,485 340,483.167 337.5,482C 331.251,481.191 325.084,481.358 319,482.5C 318.405,481.101 318.572,479.768 319.5,478.5C 318.167,478.167 316.833,477.833 315.5,477.5C 307.517,479.488 299.517,480.155 291.5,479.5C 284.103,476.711 276.436,475.211 268.5,475C 267.542,473.853 267.875,472.853 269.5,472C 268.095,470.731 266.429,470.231 264.5,470.5 Z"/></g>
<g><path style="opacity:1" fill="#190b05" d="M 266.5,364.5 C 250.58,365.794 234.58,367.627 218.5,370C 215.414,373.51 216.081,375.677 220.5,376.5C 226.11,379.641 231.776,382.808 237.5,386C 240.511,390.512 242.677,395.012 244,399.5C 249.618,400.615 255.118,401.615 260.5,402.5C 253.774,402.795 247.108,402.462 240.5,401.5C 239.833,400.833 239.167,400.167 238.5,399.5C 237.977,395.29 236.81,391.29 235,387.5C 228.135,383.738 221.468,379.738 215,375.5C 214.278,372.739 214.445,370.073 215.5,367.5C 232.42,365.394 249.42,364.394 266.5,364.5 Z"/></g>
<g><path style="opacity:1" fill="#070301" d="M 315.5,382.5 C 315.5,382.833 315.5,383.167 315.5,383.5C 305.891,385.613 300.724,391.613 300,401.5C 299.292,402.381 298.458,403.047 297.5,403.5C 296.033,403.894 294.533,404.227 293,404.5C 282.014,403.888 271.181,403.221 260.5,402.5C 255.118,401.615 249.618,400.615 244,399.5C 242.677,395.012 240.511,390.512 237.5,386C 231.776,382.808 226.11,379.641 220.5,376.5C 219,374.491 219.5,373.158 222,372.5C 228.277,374.507 234.777,375.84 241.5,376.5C 255.494,374.73 268.994,375.73 282,379.5C 287.476,378.787 292.976,378.287 298.5,378C 304.791,374.987 311.125,374.987 317.5,378C 315.963,379.11 315.297,380.61 315.5,382.5 Z"/></g>
<g><path style="opacity:1" fill="#432615" d="M 339.5,383.5 C 339.39,388.342 339.223,393.342 339,398.5C 338.722,399.416 338.222,400.082 337.5,400.5C 337.44,399.957 337.107,399.624 336.5,399.5C 335.833,400.833 335.167,402.167 334.5,403.5C 332.997,402.41 332.664,401.243 333.5,400C 331.479,399.487 329.979,398.32 329,396.5C 328.974,392.892 328.141,389.558 326.5,386.5C 324.228,387.441 322.228,388.774 320.5,390.5C 319.719,389.263 318.719,388.263 317.5,387.5C 314.593,388.981 311.593,390.315 308.5,391.5C 307.125,393.163 307.458,394.497 309.5,395.5C 308.855,397.432 307.521,398.599 305.5,399C 306.167,399.333 306.833,399.667 307.5,400C 305.825,400.985 304.158,401.819 302.5,402.5C 301.021,403.759 299.354,404.759 297.5,405.5C 297.5,404.833 297.5,404.167 297.5,403.5C 298.458,403.047 299.292,402.381 300,401.5C 300.724,391.613 305.891,385.613 315.5,383.5C 316.978,383.762 318.311,383.429 319.5,382.5C 321.62,380.728 323.287,378.728 324.5,376.5C 325.558,375.4 326.392,374.066 327,372.5C 328.252,374.001 329.252,375.668 330,377.5C 330.915,376.672 331.581,375.672 332,374.5C 332.853,376.125 333.853,376.458 335,375.5C 335.497,378.146 335.664,380.813 335.5,383.5C 336.833,383.5 338.167,383.5 339.5,383.5 Z"/></g>
<g><path style="opacity:1" fill="#618193" d="M 127.5,321.5 C 128.45,359.486 128.783,397.486 128.5,435.5C 128.5,460.833 128.5,486.167 128.5,511.5C 122.833,511.5 117.167,511.5 111.5,511.5C 112.918,509.692 114.918,509.025 117.5,509.5C 117.472,507.418 118.139,505.584 119.5,504C 118.552,503.517 117.552,503.351 116.5,503.5C 116.5,500.833 116.5,498.167 116.5,495.5C 118.144,495.286 119.644,495.62 121,496.5C 121.81,491.743 121.476,487.076 120,482.5C 117.597,486.635 115.763,490.968 114.5,495.5C 113.5,495.5 112.5,495.5 111.5,495.5C 111.662,493.473 111.495,491.473 111,489.5C 107.394,488.226 104.727,485.893 103,482.5C 101.675,477.599 101.175,472.599 101.5,467.5C 104.182,468.955 106.849,470.289 109.5,471.5C 109.66,469.801 109.494,468.134 109,466.5C 107.303,465.636 106.137,464.303 105.5,462.5C 107.412,460.343 109.079,458.009 110.5,455.5C 108.517,453.976 106.184,452.976 103.5,452.5C 105.998,453.121 108.332,452.455 110.5,450.5C 106.993,447.775 106.493,444.442 109,440.5C 110.955,445.775 111.788,445.442 111.5,439.5C 114.613,439.935 115.279,438.935 113.5,436.5C 115.64,432.928 117.307,429.094 118.5,425C 118.167,424 117.833,423 117.5,422C 120.744,414.686 120.744,407.519 117.5,400.5C 120.043,397.458 119.71,394.625 116.5,392C 117.969,388.07 119.136,387.903 120,391.5C 119.132,380.837 119.466,370.17 121,359.5C 121.414,359.957 121.914,360.291 122.5,360.5C 122.833,359 123.167,357.5 123.5,356C 122.769,352.847 122.103,349.68 121.5,346.5C 121.944,342.837 122.278,339.171 122.5,335.5C 119.813,335.664 117.146,335.497 114.5,335C 115.044,334.283 115.711,333.783 116.5,333.5C 119.598,333.587 119.932,333.087 117.5,332C 118.641,331.259 118.641,330.425 117.5,329.5C 112.298,328.518 112.298,327.352 117.5,326C 116.695,324.887 116.028,323.721 115.5,322.5C 119.534,322.495 123.534,322.162 127.5,321.5 Z"/></g>
<g><path style="opacity:1" fill="#392316" d="M 213.5,367.5 C 214.167,367.5 214.833,367.5 215.5,367.5C 214.445,370.073 214.278,372.739 215,375.5C 221.468,379.738 228.135,383.738 235,387.5C 236.81,391.29 237.977,395.29 238.5,399.5C 239.167,400.167 239.833,400.833 240.5,401.5C 247.108,402.462 253.774,402.795 260.5,402.5C 271.181,403.221 282.014,403.888 293,404.5C 294.533,404.227 296.033,403.894 297.5,403.5C 297.5,404.167 297.5,404.833 297.5,405.5C 289.202,404.989 281.035,405.655 273,407.5C 264.531,406.564 256.031,405.898 247.5,405.5C 243.907,404.847 240.241,404.014 236.5,403C 234.926,401.174 234.093,399.007 234,396.5C 233.329,395.748 232.496,395.414 231.5,395.5C 232.658,394.427 232.658,393.261 231.5,392C 229.162,389.783 227.328,387.283 226,384.5C 223.527,383.88 221.027,383.214 218.5,382.5C 217.557,379.891 215.89,377.891 213.5,376.5C 212.217,373.365 212.217,370.365 213.5,367.5 Z"/></g>
<g><path style="opacity:1" fill="#3d261a" d="M 335.5,298.5 C 337.903,298.393 339.736,299.393 341,301.5C 341.5,334.165 341.667,366.832 341.5,399.5C 340.221,406.912 336.721,412.912 331,417.5C 328.308,420.692 325.808,424.025 323.5,427.5C 316.669,431.651 310.669,436.984 305.5,443.5C 302.27,444.808 298.936,445.808 295.5,446.5C 297.25,443.69 299.75,441.69 303,440.5C 303.414,440.957 303.914,441.291 304.5,441.5C 306.86,438.473 309.527,435.806 312.5,433.5C 313.123,428.92 315.29,425.253 319,422.5C 319.333,423.167 319.667,423.833 320,424.5C 323.405,421.216 326.905,418.05 330.5,415C 329.465,413.493 329.632,411.993 331,410.5C 333,409.167 335,407.833 337,406.5C 337.495,404.527 337.662,402.527 337.5,400.5C 338.222,400.082 338.722,399.416 339,398.5C 339.223,393.342 339.39,388.342 339.5,383.5C 340.453,361.507 340.62,339.507 340,317.5C 338.812,316.437 338.312,315.103 338.5,313.5C 338.942,309.064 338.942,304.731 338.5,300.5C 336.821,300.715 335.821,300.048 335.5,298.5 Z"/></g>
<g><path style="opacity:1" fill="#432310" d="M 154.5,392.5 C 155.617,397.973 156.283,403.64 156.5,409.5C 159.3,409.111 161.967,408.611 164.5,408C 167.024,409.883 168.358,412.383 168.5,415.5C 167.5,415.5 166.5,415.5 165.5,415.5C 165.666,422.841 165.5,430.174 165,437.5C 164.127,440.618 162.961,443.618 161.5,446.5C 164.428,447.484 167.428,447.817 170.5,447.5C 170.302,443.743 171.635,440.743 174.5,438.5C 175.139,443.468 176.639,448.135 179,452.5C 180.356,453.38 181.856,453.714 183.5,453.5C 183.215,455.288 183.548,456.955 184.5,458.5C 186.92,455.923 189.92,454.923 193.5,455.5C 194.352,452.777 195.519,450.11 197,447.5C 197.483,448.448 197.649,449.448 197.5,450.5C 198.5,450.5 199.5,450.5 200.5,450.5C 200.5,449.5 200.5,448.5 200.5,447.5C 202.167,447.5 203.833,447.5 205.5,447.5C 205.238,446.022 205.571,444.689 206.5,443.5C 206.964,445.975 207.964,447.975 209.5,449.5C 208.909,450.151 208.243,450.818 207.5,451.5C 210.863,453.687 211.196,456.187 208.5,459C 211.728,462.221 211.062,463.721 206.5,463.5C 203.998,468.377 202.664,473.711 202.5,479.5C 201.167,479.5 199.833,479.5 198.5,479.5C 197.99,484.699 196.657,489.699 194.5,494.5C 195.52,496.432 195.687,498.432 195,500.5C 194,501.833 193,501.833 192,500.5C 191.517,501.448 191.351,502.448 191.5,503.5C 186.997,505.644 182.33,505.978 177.5,504.5C 173.323,505.131 169.156,505.797 165,506.5C 163.374,505.711 161.874,504.711 160.5,503.5C 159.833,503.833 159.167,504.167 158.5,504.5C 157.225,500.555 157.558,496.722 159.5,493C 158.508,491.077 157.341,489.244 156,487.5C 155.078,479.32 153.911,471.32 152.5,463.5C 151.043,458.402 150.376,453.069 150.5,447.5C 152.157,434.502 153.49,421.168 154.5,407.5C 153.852,402.314 153.852,397.314 154.5,392.5 Z"/></g>
<g><path style="opacity:1" fill="#482613" d="M 337.5,400.5 C 337.662,402.527 337.495,404.527 337,406.5C 335,407.833 333,409.167 331,410.5C 329.632,411.993 329.465,413.493 330.5,415C 326.905,418.05 323.405,421.216 320,424.5C 319.667,423.833 319.333,423.167 319,422.5C 315.29,425.253 313.123,428.92 312.5,433.5C 309.527,435.806 306.86,438.473 304.5,441.5C 303.914,441.291 303.414,440.957 303,440.5C 299.75,441.69 297.25,443.69 295.5,446.5C 272.879,447.479 250.212,447.812 227.5,447.5C 227.167,447.5 226.833,447.5 226.5,447.5C 226.577,446.25 227.244,445.417 228.5,445C 228.167,444.667 227.833,444.333 227.5,444C 232.266,441.852 236.933,442.019 241.5,444.5C 246.218,443.714 250.885,442.714 255.5,441.5C 255.376,440.893 255.043,440.56 254.5,440.5C 254.804,439.85 255.137,439.183 255.5,438.5C 262.531,437.21 269.531,437.377 276.5,439C 275.833,439.333 275.167,439.667 274.5,440C 275.93,441.44 277.597,441.774 279.5,441C 278.833,440.667 278.167,440.333 277.5,440C 279.289,439.48 280.956,439.813 282.5,441C 282.167,441.333 281.833,441.667 281.5,442C 283.436,442.813 285.436,443.313 287.5,443.5C 287.5,442.167 287.5,440.833 287.5,439.5C 289.199,439.66 290.866,439.494 292.5,439C 293.5,437.333 294.833,436 296.5,435C 299.334,434.955 301.834,434.121 304,432.5C 304.333,433.167 304.667,433.833 305,434.5C 305.55,431.737 306.383,429.07 307.5,426.5C 306.654,422.882 306.32,419.215 306.5,415.5C 308.167,415.5 309.833,415.5 311.5,415.5C 312.167,409.5 309.5,406.833 303.5,407.5C 303.784,405.585 303.451,403.919 302.5,402.5C 304.158,401.819 305.825,400.985 307.5,400C 306.833,399.667 306.167,399.333 305.5,399C 307.521,398.599 308.855,397.432 309.5,395.5C 307.458,394.497 307.125,393.163 308.5,391.5C 311.593,390.315 314.593,388.981 317.5,387.5C 318.719,388.263 319.719,389.263 320.5,390.5C 322.228,388.774 324.228,387.441 326.5,386.5C 328.141,389.558 328.974,392.892 329,396.5C 329.979,398.32 331.479,399.487 333.5,400C 332.664,401.243 332.997,402.41 334.5,403.5C 335.167,402.167 335.833,400.833 336.5,399.5C 337.107,399.624 337.44,399.957 337.5,400.5 Z"/></g>
<g><path style="opacity:1" fill="#472714" d="M 247.5,405.5 C 256.031,405.898 264.531,406.564 273,407.5C 281.035,405.655 289.202,404.989 297.5,405.5C 296.198,406.926 294.698,408.259 293,409.5C 292.349,411.235 292.515,412.902 293.5,414.5C 285.235,416.005 277.068,415.672 269,413.5C 267.072,413.933 265.239,414.6 263.5,415.5C 261.896,415.061 260.396,414.394 259,413.5C 256.625,413.818 255.458,415.151 255.5,417.5C 250.369,415.207 245.035,413.207 239.5,411.5C 240.912,410.194 242.579,409.36 244.5,409C 245.365,407.641 246.365,406.474 247.5,405.5 Z"/></g>
<g><path style="opacity:1" fill="#050504" d="M 356.5,344.5 C 358.186,369.973 357.019,395.306 353,420.5C 352.02,422.059 351.187,423.726 350.5,425.5C 347.473,428.029 344.64,430.695 342,433.5C 342.051,436.941 340.885,439.774 338.5,442C 338.799,443.32 338.966,444.82 339,446.5C 341.296,442.599 341.796,442.932 340.5,447.5C 337.822,447.198 335.155,447.865 332.5,449.5C 330.631,448.932 328.797,448.266 327,447.5C 326.167,447.833 325.333,448.167 324.5,448.5C 325.421,450.756 327.088,451.756 329.5,451.5C 329.672,453.492 329.005,455.158 327.5,456.5C 322.057,457.062 316.724,458.062 311.5,459.5C 308.956,458.265 308.956,457.099 311.5,456C 307.296,455.34 303.296,455.84 299.5,457.5C 296.753,456.781 294.086,456.781 291.5,457.5C 290.614,458.325 290.281,459.325 290.5,460.5C 296.608,460.774 302.608,460.941 308.5,461C 306.999,462.252 305.332,463.252 303.5,464C 298.177,464.499 292.844,464.666 287.5,464.5C 287.5,463.5 287.5,462.5 287.5,461.5C 282.178,462.029 276.844,462.529 271.5,463C 268.429,463.147 265.596,463.98 263,465.5C 262.586,465.043 262.086,464.709 261.5,464.5C 258.953,464.771 256.953,465.771 255.5,467.5C 253.549,467.773 252.049,467.107 251,465.5C 245.702,472.427 241.702,480.094 239,488.5C 238.667,488.167 238.333,487.833 238,487.5C 236.233,493.102 233.399,498.102 229.5,502.5C 230.724,505.495 230.724,508.495 229.5,511.5C 224.833,511.5 220.167,511.5 215.5,511.5C 215.582,507.27 216.249,502.937 217.5,498.5C 218.159,501.824 220.159,503.157 223.5,502.5C 224.423,489.349 224.423,476.349 223.5,463.5C 218.177,463.974 216.843,462.141 219.5,458C 217.987,456.121 217.321,453.954 217.5,451.5C 224.362,451.938 231.195,452.605 238,453.5C 242.329,451.188 246.829,450.855 251.5,452.5C 256.008,451.888 260.508,451.221 265,450.5C 267.006,451.073 268.84,451.073 270.5,450.5C 271.941,451.304 273.441,451.971 275,452.5C 281.668,451.724 288.168,450.724 294.5,449.5C 294.611,448.883 294.944,448.383 295.5,448C 298.226,447.818 300.893,447.318 303.5,446.5C 304.612,445.735 305.279,444.735 305.5,443.5C 310.669,436.984 316.669,431.651 323.5,427.5C 325.808,424.025 328.308,420.692 331,417.5C 336.721,412.912 340.221,406.912 341.5,399.5C 342.847,396.26 343.514,392.76 343.5,389C 342.186,361.335 342.186,333.669 343.5,306C 343.333,303.5 343.167,301 343,298.5C 342.005,297.934 341.172,297.267 340.5,296.5C 342.144,296.286 343.644,296.62 345,297.5C 345.5,297 346,296.5 346.5,296C 342.774,294.957 343.107,294.457 347.5,294.5C 347.287,302.278 348.12,309.945 350,317.5C 351.716,316.448 352.716,317.114 353,319.5C 353.333,326.167 353.667,332.833 354,339.5C 354.333,338.833 354.667,338.167 355,337.5C 355.186,340.036 355.686,342.369 356.5,344.5 Z"/></g>
<g><path style="opacity:1" fill="#21110a" d="M 146.5,383.5 C 148.015,409.99 149.015,436.656 149.5,463.5C 147.279,449.066 146.279,434.399 146.5,419.5C 146.5,407.5 146.5,395.5 146.5,383.5 Z"/></g>
<g><path style="opacity:1" fill="#3b2217" d="M 159.5,296.5 C 170.167,296.5 180.833,296.5 191.5,296.5C 199.684,296.174 207.684,296.508 215.5,297.5C 207.5,297.5 199.5,297.5 191.5,297.5C 185.974,297.179 180.64,297.512 175.5,298.5C 169.824,298.334 164.157,298.501 158.5,299C 157.473,299.513 156.473,300.013 155.5,300.5C 153.087,300.341 150.587,300.341 148,300.5C 147.833,303.167 147.667,305.833 147.5,308.5C 148.616,354.848 149.616,401.182 150.5,447.5C 150.376,453.069 151.043,458.402 152.5,463.5C 153.071,476.493 153.571,489.493 154,502.5C 154.396,505.657 155.229,508.657 156.5,511.5C 155.5,511.5 154.5,511.5 153.5,511.5C 152.889,500.844 152.389,490.177 152,479.5C 151.85,473.919 151.017,468.586 149.5,463.5C 149.015,436.656 148.015,409.99 146.5,383.5C 146.5,382.833 146.5,382.167 146.5,381.5C 146.875,353.731 146.375,326.064 145,298.5C 149.934,297.856 154.767,297.19 159.5,296.5 Z"/></g>
<g><path style="opacity:1" fill="#4f6673" d="M 360.5,405.5 C 360.833,405.5 361.167,405.5 361.5,405.5C 361.666,414.506 361.5,423.506 361,432.5C 360.327,439.472 357.494,445.305 352.5,450C 350.257,451.136 347.924,451.97 345.5,452.5C 350.075,447.469 354.242,442.135 358,436.5C 360.3,426.339 361.134,416.006 360.5,405.5 Z"/></g>
<g><path style="opacity:1" fill="#160f0c" d="M 146.5,419.5 C 146.279,434.399 147.279,449.066 149.5,463.5C 150.941,479.584 150.607,495.584 148.5,511.5C 146.167,511.5 143.833,511.5 141.5,511.5C 141.737,504.945 141.737,498.278 141.5,491.5C 143.336,467.54 145.003,443.54 146.5,419.5 Z"/></g>
<g><path style="opacity:1" fill="#1e110a" d="M 305.5,443.5 C 305.279,444.735 304.612,445.735 303.5,446.5C 300.893,447.318 298.226,447.818 295.5,448C 294.944,448.383 294.611,448.883 294.5,449.5C 274.505,450.147 254.505,449.814 234.5,448.5C 227.968,450.132 221.302,450.798 214.5,450.5C 214.5,451.5 214.5,452.5 214.5,453.5C 213.566,452.432 213.232,451.099 213.5,449.5C 217.846,449.666 222.179,449.499 226.5,449C 227.056,448.617 227.389,448.117 227.5,447.5C 250.212,447.812 272.879,447.479 295.5,446.5C 298.936,445.808 302.27,444.808 305.5,443.5 Z"/></g>
<g><path style="opacity:1" fill="#02070c" d="M 360.5,176.5 C 360.5,238.5 360.5,300.5 360.5,362.5C 360.5,376.833 360.5,391.167 360.5,405.5C 361.134,416.006 360.3,426.339 358,436.5C 354.242,442.135 350.075,447.469 345.5,452.5C 328.229,461.778 309.729,466.778 290,467.5C 278.48,466.229 266.98,466.229 255.5,467.5C 256.953,465.771 258.953,464.771 261.5,464.5C 262.086,464.709 262.586,465.043 263,465.5C 265.596,463.98 268.429,463.147 271.5,463C 276.844,462.529 282.178,462.029 287.5,461.5C 287.5,462.5 287.5,463.5 287.5,464.5C 292.844,464.666 298.177,464.499 303.5,464C 305.332,463.252 306.999,462.252 308.5,461C 302.608,460.941 296.608,460.774 290.5,460.5C 290.281,459.325 290.614,458.325 291.5,457.5C 294.086,456.781 296.753,456.781 299.5,457.5C 303.296,455.84 307.296,455.34 311.5,456C 308.956,457.099 308.956,458.265 311.5,459.5C 316.724,458.062 322.057,457.062 327.5,456.5C 329.005,455.158 329.672,453.492 329.5,451.5C 327.088,451.756 325.421,450.756 324.5,448.5C 325.333,448.167 326.167,447.833 327,447.5C 328.797,448.266 330.631,448.932 332.5,449.5C 335.155,447.865 337.822,447.198 340.5,447.5C 341.796,442.932 341.296,442.599 339,446.5C 338.966,444.82 338.799,443.32 338.5,442C 340.885,439.774 342.051,436.941 342,433.5C 344.64,430.695 347.473,428.029 350.5,425.5C 351.187,423.726 352.02,422.059 353,420.5C 357.019,395.306 358.186,369.973 356.5,344.5C 357.312,330.85 357.645,317.183 357.5,303.5C 356.022,303.762 354.689,303.429 353.5,302.5C 354.213,300.224 354.713,297.891 355,295.5C 355.923,296.759 356.757,298.092 357.5,299.5C 358.308,299.192 358.975,298.692 359.5,298C 358.202,269.848 358.202,241.682 359.5,213.5C 359.125,211.541 358.459,209.707 357.5,208C 359.141,197.578 360.141,187.078 360.5,176.5 Z"/></g>
<g><path style="opacity:1" fill="#617c89" d="M 345.5,452.5 C 343.761,455.411 341.428,457.911 338.5,460C 340.101,460.273 341.601,460.773 343,461.5C 344.978,460.184 346.478,460.684 347.5,463C 344.438,463.741 341.438,463.575 338.5,462.5C 336.227,463.375 335.227,465.042 335.5,467.5C 330.156,467.666 324.823,467.499 319.5,467C 318.234,466.691 317.067,466.191 316,465.5C 313.304,468.126 310.304,469.126 307,468.5C 292.75,470.252 278.583,470.919 264.5,470.5C 263.078,470.75 262.078,471.583 261.5,473C 262.167,473.333 262.833,473.667 263.5,474C 262.124,476.543 260.957,476.709 260,474.5C 256.893,478.046 253.56,479.379 250,478.5C 247.853,483.46 245.186,488.127 242,492.5C 240.871,494.141 239.371,495.141 237.5,495.5C 241.529,484.823 247.529,475.49 255.5,467.5C 266.98,466.229 278.48,466.229 290,467.5C 309.729,466.778 328.229,461.778 345.5,452.5 Z"/></g>
<g><path style="opacity:1" fill="#070706" d="M 133.5,335.5 C 134.812,337.743 135.478,340.41 135.5,343.5C 134.834,351.488 134.501,359.488 134.5,367.5C 135.5,367.5 136.5,367.5 137.5,367.5C 137.559,377.726 136.892,387.893 135.5,398C 136.445,429.309 138.445,460.476 141.5,491.5C 141.737,498.278 141.737,504.945 141.5,511.5C 139.5,511.5 137.5,511.5 135.5,511.5C 134.167,506.167 134.167,500.833 135.5,495.5C 134.5,495.5 133.5,495.5 132.5,495.5C 132.665,480.798 131.998,466.131 130.5,451.5C 129.97,418.772 130.637,386.272 132.5,354C 130.726,347.971 130.059,341.805 130.5,335.5C 131.5,335.5 132.5,335.5 133.5,335.5 Z"/></g>
<g><path style="opacity:1" fill="#0b0704" d="M 294.5,449.5 C 288.168,450.724 281.668,451.724 275,452.5C 273.441,451.971 271.941,451.304 270.5,450.5C 268.84,451.073 267.006,451.073 265,450.5C 260.508,451.221 256.008,451.888 251.5,452.5C 246.829,450.855 242.329,451.188 238,453.5C 231.195,452.605 224.362,451.938 217.5,451.5C 217.321,453.954 217.987,456.121 219.5,458C 216.843,462.141 218.177,463.974 223.5,463.5C 224.423,476.349 224.423,489.349 223.5,502.5C 220.159,503.157 218.159,501.824 217.5,498.5C 216.249,502.937 215.582,507.27 215.5,511.5C 214.5,511.5 213.5,511.5 212.5,511.5C 213.812,500.339 213.812,489.172 212.5,478C 213.233,469.835 213.9,461.669 214.5,453.5C 214.5,452.5 214.5,451.5 214.5,450.5C 221.302,450.798 227.968,450.132 234.5,448.5C 254.505,449.814 274.505,450.147 294.5,449.5 Z"/></g>
<g><path style="opacity:1" fill="#331f14" d="M 213.5,449.5 C 213.232,451.099 213.566,452.432 214.5,453.5C 213.9,461.669 213.233,469.835 212.5,478C 213.812,489.172 213.812,500.339 212.5,511.5C 209.167,511.5 205.833,511.5 202.5,511.5C 199.66,508.62 200.16,506.287 204,504.5C 204.333,504.833 204.667,505.167 205,505.5C 205.667,504.167 206.333,502.833 207,501.5C 207.811,502.96 208.645,503.293 209.5,502.5C 209.086,499.968 208.752,497.468 208.5,495C 209.126,494.25 209.626,493.416 210,492.5C 210.084,477.922 211.251,463.589 213.5,449.5 Z"/></g>
<g><path style="opacity:1" fill="#060c10" d="M 106.5,279.5 C 106.735,289.929 108.235,300.262 111,310.5C 112,309.167 113,309.167 114,310.5C 114.333,309.833 114.667,309.167 115,308.5C 116.167,310.167 117.333,311.833 118.5,313.5C 116.438,315.092 116.105,316.925 117.5,319C 121.605,319.246 125.605,319.746 129.5,320.5C 130.829,324.905 132.162,329.238 133.5,333.5C 133.5,334.167 133.5,334.833 133.5,335.5C 132.5,335.5 131.5,335.5 130.5,335.5C 130.059,341.805 130.726,347.971 132.5,354C 130.637,386.272 129.97,418.772 130.5,451.5C 131.998,466.131 132.665,480.798 132.5,495.5C 133.5,495.5 134.5,495.5 135.5,495.5C 134.167,500.833 134.167,506.167 135.5,511.5C 133.167,511.5 130.833,511.5 128.5,511.5C 128.5,486.167 128.5,460.833 128.5,435.5C 129.664,399.002 129.831,362.336 129,325.5C 128.79,323.942 128.29,322.609 127.5,321.5C 123.534,322.162 119.534,322.495 115.5,322.5C 113.193,321.023 111.36,319.023 110,316.5C 106.789,304.405 105.622,292.072 106.5,279.5 Z"/></g>
<g><path style="opacity:1" fill="#251710" d="M 149.5,463.5 C 151.017,468.586 151.85,473.919 152,479.5C 152.389,490.177 152.889,500.844 153.5,511.5C 151.833,511.5 150.167,511.5 148.5,511.5C 150.607,495.584 150.941,479.584 149.5,463.5 Z"/></g>
<g><path style="opacity:1" fill="#071114" d="M 255.5,467.5 C 247.529,475.49 241.529,484.823 237.5,495.5C 236.599,496.29 235.932,497.29 235.5,498.5C 233.217,502.512 231.551,506.845 230.5,511.5C 230.167,511.5 229.833,511.5 229.5,511.5C 230.724,508.495 230.724,505.495 229.5,502.5C 233.399,498.102 236.233,493.102 238,487.5C 238.333,487.833 238.667,488.167 239,488.5C 241.702,480.094 245.702,472.427 251,465.5C 252.049,467.107 253.549,467.773 255.5,467.5 Z"/></g>
<g><path style="opacity:1" fill="#3e2314" d="M 226.5,447.5 C 226.833,447.5 227.167,447.5 227.5,447.5C 227.389,448.117 227.056,448.617 226.5,449C 222.179,449.499 217.846,449.666 213.5,449.5C 211.251,463.589 210.084,477.922 210,492.5C 209.626,493.416 209.126,494.25 208.5,495C 208.752,497.468 209.086,499.968 209.5,502.5C 208.645,503.293 207.811,502.96 207,501.5C 206.333,502.833 205.667,504.167 205,505.5C 204.667,505.167 204.333,504.833 204,504.5C 200.16,506.287 199.66,508.62 202.5,511.5C 187.167,511.5 171.833,511.5 156.5,511.5C 155.229,508.657 154.396,505.657 154,502.5C 153.571,489.493 153.071,476.493 152.5,463.5C 153.911,471.32 155.078,479.32 156,487.5C 157.341,489.244 158.508,491.077 159.5,493C 157.558,496.722 157.225,500.555 158.5,504.5C 159.167,504.167 159.833,503.833 160.5,503.5C 161.874,504.711 163.374,505.711 165,506.5C 169.156,505.797 173.323,505.131 177.5,504.5C 182.33,505.978 186.997,505.644 191.5,503.5C 191.351,502.448 191.517,501.448 192,500.5C 193,501.833 194,501.833 195,500.5C 195.687,498.432 195.52,496.432 194.5,494.5C 196.657,489.699 197.99,484.699 198.5,479.5C 199.833,479.5 201.167,479.5 202.5,479.5C 202.664,473.711 203.998,468.377 206.5,463.5C 211.062,463.721 211.728,462.221 208.5,459C 211.196,456.187 210.863,453.687 207.5,451.5C 208.243,450.818 208.909,450.151 209.5,449.5C 214.915,447.656 220.582,446.989 226.5,447.5 Z"/></g>
<g><path style="opacity:1" fill="#4b626e" d="M 235.5,498.5 C 234.977,502.869 234.644,507.203 234.5,511.5C 233.167,511.5 231.833,511.5 230.5,511.5C 231.551,506.845 233.217,502.512 235.5,498.5 Z"/></g>
</svg>
