<?xml version="1.0" encoding="UTF-8"?>
<!DOCTYPE svg PUBLIC "-//W3C//DTD SVG 1.1//EN" "http://www.w3.org/Graphics/SVG/1.1/DTD/svg11.dtd">
<svg xmlns="http://www.w3.org/2000/svg" version="1.1" width="512px" height="512px" style="shape-rendering:geometricPrecision; text-rendering:geometricPrecision; image-rendering:optimizeQuality; fill-rule:evenodd; clip-rule:evenodd" xmlns:xlink="http://www.w3.org/1999/xlink">
<g><path style="opacity:1" fill="#648492" d="M 103.5,-0.5 C 134.5,-0.5 165.5,-0.5 196.5,-0.5C 196.611,0.117425 196.944,0.617425 197.5,1C 195.865,2.74823 193.865,3.9149 191.5,4.5C 193.561,7.27039 196.061,9.60373 199,11.5C 199.49,12.7932 199.657,14.1266 199.5,15.5C 196.753,15.1866 194.086,15.52 191.5,16.5C 192.949,17.1719 194.282,17.8386 195.5,18.5C 193.517,18.1568 192.183,18.8235 191.5,20.5C 180.5,20.5 169.5,20.5 158.5,20.5C 155.697,18.0472 152.697,17.8805 149.5,20C 145.027,23.5613 141.027,27.5613 137.5,32C 135.22,32.2326 133.22,33.066 131.5,34.5C 130.348,37.9651 129.015,41.2984 127.5,44.5C 125.851,50.4192 124.185,56.4192 122.5,62.5C 122.5,68.1667 122.5,73.8333 122.5,79.5C 120.554,74.6042 119.887,69.2709 120.5,63.5C 119.167,63.5 117.833,63.5 116.5,63.5C 116.295,71.8569 116.628,80.1903 117.5,88.5C 117.705,92.5555 117.039,93.0555 115.5,90C 116.654,89.0862 116.487,88.2529 115,87.5C 114.503,84.854 114.336,82.1873 114.5,79.5C 115.124,79.0831 115.457,78.4164 115.5,77.5C 114.641,74.0366 113.974,70.5366 113.5,67C 113.827,65.1867 114.493,63.52 115.5,62C 113.617,53.9192 112.117,45.7525 111,37.5C 106.136,39.1907 103.303,42.524 102.5,47.5C 97.5,47.5 92.5,47.5 87.5,47.5C 87.3337,40.4921 87.5004,33.4921 88,26.5C 89.805,23.9607 92.305,22.9607 95.5,23.5C 95.5,20.8333 95.5,18.1667 95.5,15.5C 98.1667,15.5 100.833,15.5 103.5,15.5C 103.5,10.1667 103.5,4.83333 103.5,-0.5 Z"/></g>
<g><path style="opacity:1" fill="#618293" d="M 398.5,-0.5 C 436.167,-0.5 473.833,-0.5 511.5,-0.5C 511.5,170.167 511.5,340.833 511.5,511.5C 452.833,511.5 394.167,511.5 335.5,511.5C 330.681,510.093 325.681,508.926 320.5,508C 318.889,505.285 316.722,504.785 314,506.5C 312.739,506.241 311.739,505.574 311,504.5C 311.013,501.103 311.679,497.77 313,494.5C 314.975,494.492 316.809,493.492 318.5,491.5C 319.386,490.675 319.719,489.675 319.5,488.5C 313.717,487.446 313.383,485.779 318.5,483.5C 321.632,484.416 324.632,483.916 327.5,482C 327.906,478.585 329.572,475.918 332.5,474C 333.449,473.383 334.282,473.549 335,474.5C 338.07,472.553 340.57,470.053 342.5,467C 341.466,463.33 342.633,460.497 346,458.5C 347.332,456.45 347.498,454.45 346.5,452.5C 348.568,442.317 350.234,431.984 351.5,421.5C 353.017,421.489 354.184,420.823 355,419.5C 359.116,402.461 361.616,385.128 362.5,367.5C 363.5,367.5 364.5,367.5 365.5,367.5C 363.518,377.194 361.851,387.028 360.5,397C 360.957,400.085 361.623,403.085 362.5,406C 357.455,409.821 355.621,414.654 357,420.5C 358.063,421.438 359.23,422.438 360.5,423.5C 360.872,420.534 362.205,418.2 364.5,416.5C 363.675,415.614 362.675,415.281 361.5,415.5C 361.215,413.712 361.548,412.045 362.5,410.5C 363.799,411.09 364.632,412.09 365,413.5C 365.708,412.619 366.542,411.953 367.5,411.5C 367.5,414.5 367.5,417.5 367.5,420.5C 365.864,421.749 364.697,423.416 364,425.5C 363.853,428.571 363.02,431.404 361.5,434C 363.384,434.216 365.051,434.883 366.5,436C 365.978,436.561 365.645,437.228 365.5,438C 367.686,441.18 369.853,444.347 372,447.5C 371.31,451.066 372.81,453.733 376.5,455.5C 376.829,459.162 378.829,461.162 382.5,461.5C 384.574,459.172 385.574,459.839 385.5,463.5C 387.5,463.5 389.5,463.5 391.5,463.5C 391.5,464.833 391.5,466.167 391.5,467.5C 397.696,467.574 398.03,468.741 392.5,471C 397.353,471.538 401.853,473.038 406,475.5C 406.945,475.095 407.612,474.428 408,473.5C 410.333,476.167 412.667,476.167 415,473.5C 415.333,475.5 415.667,477.5 416,479.5C 425.142,470.69 433.975,461.523 442.5,452C 444.303,451.363 445.636,450.197 446.5,448.5C 448.045,447.548 449.712,447.215 451.5,447.5C 451.5,442.167 451.5,436.833 451.5,431.5C 451.318,429.325 450.651,427.325 449.5,425.5C 449.608,424.558 449.941,423.725 450.5,423C 449.328,422.581 448.328,421.915 447.5,421C 450.014,419.748 452.68,419.248 455.5,419.5C 455.5,420.5 455.5,421.5 455.5,422.5C 458.488,422.845 459.821,421.512 459.5,418.5C 457.758,414.296 457.258,409.962 458,405.5C 458.689,406.357 459.522,407.023 460.5,407.5C 462.392,405.129 462.725,402.629 461.5,400C 462.793,399.51 464.127,399.343 465.5,399.5C 465.215,397.712 465.548,396.045 466.5,394.5C 468.085,397.272 469.085,397.106 469.5,394C 469.156,392.635 468.489,391.468 467.5,390.5C 467.709,389.914 468.043,389.414 468.5,389C 466.731,386.943 464.731,385.11 462.5,383.5C 461.457,380.579 459.79,378.079 457.5,376C 458.167,375.667 458.833,375.333 459.5,375C 458.449,373.615 457.116,372.615 455.5,372C 457.286,371.215 458.786,370.049 460,368.5C 460.059,365.178 461.226,362.344 463.5,360C 461.866,359.506 460.199,359.34 458.5,359.5C 458.724,357.213 459.391,355.047 460.5,353C 459.978,352.05 459.311,351.216 458.5,350.5C 465.167,349.167 465.167,347.833 458.5,346.5C 459.403,344.38 460.737,344.046 462.5,345.5C 463.928,342.048 462.761,339.715 459,338.5C 458.517,337.552 458.351,336.552 458.5,335.5C 459.5,335.5 460.5,335.5 461.5,335.5C 461.939,330.482 461.273,325.648 459.5,321C 461.212,317.024 460.212,313.857 456.5,311.5C 455.711,308.354 455.045,305.187 454.5,302C 456.6,299.68 458.267,297.014 459.5,294C 456.887,290.491 457.22,287.158 460.5,284C 459.707,282.915 459.04,281.748 458.5,280.5C 455.566,279.027 454.899,279.694 456.5,282.5C 456.281,283.938 455.781,285.271 455,286.5C 454.042,284.801 453.542,282.967 453.5,281C 455.718,276.432 457.384,271.932 458.5,267.5C 458.471,265.971 457.804,264.804 456.5,264C 457.167,263.667 457.833,263.333 458.5,263C 455.833,260.667 455.833,258.333 458.5,256C 457.427,254.75 457.427,253.416 458.5,252C 457.491,250.832 456.491,249.665 455.5,248.5C 457.26,245.788 457.927,242.788 457.5,239.5C 456.5,239.5 455.5,239.5 454.5,239.5C 454.34,236.116 454.673,232.783 455.5,229.5C 454.408,227.399 453.408,225.232 452.5,223C 454.677,221.814 455.677,219.981 455.5,217.5C 452.813,217.659 450.48,216.825 448.5,215C 449.899,214.405 451.232,214.572 452.5,215.5C 458.058,211.221 460.725,205.721 460.5,199C 461.448,198.517 462.448,198.351 463.5,198.5C 463.5,196.5 463.5,194.5 463.5,192.5C 462.325,192.719 461.325,192.386 460.5,191.5C 462.729,188.189 465.062,185.022 467.5,182C 466.244,180.521 465.244,178.855 464.5,177C 464.916,174.08 465.916,171.414 467.5,169C 467.095,168.055 466.428,167.388 465.5,167C 468.064,161.968 470.231,156.801 472,151.5C 474.35,149.317 476.517,146.984 478.5,144.5C 476.051,143.09 473.884,143.424 472,145.5C 470.361,141.722 468.861,137.889 467.5,134C 467.645,133.228 467.978,132.561 468.5,132C 471.81,132.229 473.644,130.729 474,127.5C 474.667,124.833 474.667,122.167 474,119.5C 472.409,117.073 471.575,114.407 471.5,111.5C 469.5,111.5 467.5,111.5 465.5,111.5C 466.167,106.167 466.833,100.833 467.5,95.5C 465.5,95.5 463.5,95.5 461.5,95.5C 461.312,93.8967 461.812,92.5634 463,91.5C 464.183,92.731 465.349,92.731 466.5,91.5C 465.675,90.6143 464.675,90.281 463.5,90.5C 463.338,87.3314 461.672,85.3314 458.5,84.5C 457.723,82.2233 456.723,80.0566 455.5,78C 459.394,74.1828 458.394,72.8495 452.5,74C 449.062,74.92 446.062,76.5867 443.5,79C 443.833,79.3333 444.167,79.6667 444.5,80C 442.833,80.6667 441.167,80.6667 439.5,80C 441.429,77.5755 442.429,74.7421 442.5,71.5C 443.5,71.5 444.5,71.5 445.5,71.5C 444.198,65.4351 446.531,61.9351 452.5,61C 450.374,60.1016 448.374,58.935 446.5,57.5C 440.454,61.8183 436.121,60.485 433.5,53.5C 435.326,53.0798 437.326,53.0798 439.5,53.5C 438.629,50.9382 438.629,48.2716 439.5,45.5C 434.167,44.8333 434.167,44.1667 439.5,43.5C 439.5,42.1667 439.5,40.8333 439.5,39.5C 440.873,39.6567 442.207,39.49 443.5,39C 438.279,35.3873 432.612,32.8873 426.5,31.5C 425.472,29.5599 425.472,27.5599 426.5,25.5C 426.182,24.3527 425.516,23.5194 424.5,23C 426.373,20.7911 428.54,18.9578 431,17.5C 432.013,12.5207 433.846,11.854 436.5,15.5C 437.48,12.9135 437.813,10.2469 437.5,7.5C 435.345,7.62799 433.345,7.12799 431.5,6C 404.829,5.2777 378.163,4.44437 351.5,3.5C 366.833,2.83333 382.167,2.16667 397.5,1.5C 397.863,0.816537 398.196,0.14987 398.5,-0.5 Z"/></g>
<g><path style="opacity:1" fill="#638495" d="M 196.5,-0.5 C 263.833,-0.5 331.167,-0.5 398.5,-0.5C 398.196,0.14987 397.863,0.816537 397.5,1.5C 382.167,2.16667 366.833,2.83333 351.5,3.5C 378.163,4.44437 404.829,5.2777 431.5,6C 433.345,7.12799 435.345,7.62799 437.5,7.5C 437.813,10.2469 437.48,12.9135 436.5,15.5C 433.846,11.854 432.013,12.5207 431,17.5C 428.54,18.9578 426.373,20.7911 424.5,23C 425.516,23.5194 426.182,24.3527 426.5,25.5C 425.472,27.5599 425.472,29.5599 426.5,31.5C 432.612,32.8873 438.279,35.3873 443.5,39C 442.207,39.49 440.873,39.6567 439.5,39.5C 439.5,40.8333 439.5,42.1667 439.5,43.5C 434.167,44.1667 434.167,44.8333 439.5,45.5C 438.629,48.2716 438.629,50.9382 439.5,53.5C 437.326,53.0798 435.326,53.0798 433.5,53.5C 436.121,60.485 440.454,61.8183 446.5,57.5C 448.374,58.935 450.374,60.1016 452.5,61C 446.531,61.9351 444.198,65.4351 445.5,71.5C 444.5,71.5 443.5,71.5 442.5,71.5C 442.429,74.7421 441.429,77.5755 439.5,80C 441.167,80.6667 442.833,80.6667 444.5,80C 444.167,79.6667 443.833,79.3333 443.5,79C 446.062,76.5867 449.062,74.92 452.5,74C 458.394,72.8495 459.394,74.1828 455.5,78C 456.723,80.0566 457.723,82.2233 458.5,84.5C 461.672,85.3314 463.338,87.3314 463.5,90.5C 464.675,90.281 465.675,90.6143 466.5,91.5C 465.349,92.731 464.183,92.731 463,91.5C 461.812,92.5634 461.312,93.8967 461.5,95.5C 463.5,95.5 465.5,95.5 467.5,95.5C 466.833,100.833 466.167,106.167 465.5,111.5C 467.5,111.5 469.5,111.5 471.5,111.5C 471.575,114.407 472.409,117.073 474,119.5C 474.667,122.167 474.667,124.833 474,127.5C 473.644,130.729 471.81,132.229 468.5,132C 467.978,132.561 467.645,133.228 467.5,134C 468.861,137.889 470.361,141.722 472,145.5C 473.884,143.424 476.051,143.09 478.5,144.5C 476.517,146.984 474.35,149.317 472,151.5C 470.231,156.801 468.064,161.968 465.5,167C 466.428,167.388 467.095,168.055 467.5,169C 465.916,171.414 464.916,174.08 464.5,177C 465.244,178.855 466.244,180.521 467.5,182C 465.062,185.022 462.729,188.189 460.5,191.5C 461.325,192.386 462.325,192.719 463.5,192.5C 463.5,194.5 463.5,196.5 463.5,198.5C 462.448,198.351 461.448,198.517 460.5,199C 460.725,205.721 458.058,211.221 452.5,215.5C 451.232,214.572 449.899,214.405 448.5,215C 450.48,216.825 452.813,217.659 455.5,217.5C 455.677,219.981 454.677,221.814 452.5,223C 453.408,225.232 454.408,227.399 455.5,229.5C 454.673,232.783 454.34,236.116 454.5,239.5C 455.5,239.5 456.5,239.5 457.5,239.5C 457.927,242.788 457.26,245.788 455.5,248.5C 456.491,249.665 457.491,250.832 458.5,252C 457.427,253.416 457.427,254.75 458.5,256C 455.833,258.333 455.833,260.667 458.5,263C 457.833,263.333 457.167,263.667 456.5,264C 457.804,264.804 458.471,265.971 458.5,267.5C 457.384,271.932 455.718,276.432 453.5,281C 453.542,282.967 454.042,284.801 455,286.5C 455.781,285.271 456.281,283.938 456.5,282.5C 454.899,279.694 455.566,279.027 458.5,280.5C 459.04,281.748 459.707,282.915 460.5,284C 457.22,287.158 456.887,290.491 459.5,294C 458.267,297.014 456.6,299.68 454.5,302C 455.045,305.187 455.711,308.354 456.5,311.5C 460.212,313.857 461.212,317.024 459.5,321C 461.273,325.648 461.939,330.482 461.5,335.5C 460.5,335.5 459.5,335.5 458.5,335.5C 458.351,336.552 458.517,337.552 459,338.5C 462.761,339.715 463.928,342.048 462.5,345.5C 460.737,344.046 459.403,344.38 458.5,346.5C 465.167,347.833 465.167,349.167 458.5,350.5C 459.311,351.216 459.978,352.05 460.5,353C 459.391,355.047 458.724,357.213 458.5,359.5C 460.199,359.34 461.866,359.506 463.5,360C 461.226,362.344 460.059,365.178 460,368.5C 458.786,370.049 457.286,371.215 455.5,372C 457.116,372.615 458.449,373.615 459.5,375C 458.833,375.333 458.167,375.667 457.5,376C 459.79,378.079 461.457,380.579 462.5,383.5C 464.731,385.11 466.731,386.943 468.5,389C 468.043,389.414 467.709,389.914 467.5,390.5C 468.489,391.468 469.156,392.635 469.5,394C 469.085,397.106 468.085,397.272 466.5,394.5C 465.548,396.045 465.215,397.712 465.5,399.5C 464.127,399.343 462.793,399.51 461.5,400C 462.725,402.629 462.392,405.129 460.5,407.5C 459.522,407.023 458.689,406.357 458,405.5C 457.258,409.962 457.758,414.296 459.5,418.5C 459.821,421.512 458.488,422.845 455.5,422.5C 455.5,421.5 455.5,420.5 455.5,419.5C 452.68,419.248 450.014,419.748 447.5,421C 448.328,421.915 449.328,422.581 450.5,423C 449.941,423.725 449.608,424.558 449.5,425.5C 450.651,427.325 451.318,429.325 451.5,431.5C 450.167,431.5 448.833,431.5 447.5,431.5C 447.5,430.167 447.5,428.833 447.5,427.5C 442.167,427.5 436.833,427.5 431.5,427.5C 431.5,432.833 431.5,438.167 431.5,443.5C 425.459,443.747 419.459,443.414 413.5,442.5C 410.945,442.722 409.278,444.055 408.5,446.5C 405.572,447.484 402.572,447.817 399.5,447.5C 399.5,445.5 399.5,443.5 399.5,441.5C 402.167,441.5 404.833,441.5 407.5,441.5C 407.685,436.399 410.352,434.066 415.5,434.5C 415.491,432.692 415.991,431.025 417,429.5C 421.333,425.5 425.667,421.5 430,417.5C 431.128,415.655 431.628,413.655 431.5,411.5C 426.167,411.5 420.833,411.5 415.5,411.5C 415.5,412.833 415.5,414.167 415.5,415.5C 413.167,415.5 410.833,415.5 408.5,415.5C 408.358,418.617 407.024,421.117 404.5,423C 400.716,424.947 396.716,426.28 392.5,427C 390.545,427.953 388.878,429.287 387.5,431C 386.207,431.49 384.873,431.657 383.5,431.5C 385.575,442.205 383.075,443.872 376,436.5C 375.362,435.391 374.862,434.225 374.5,433C 376.906,426.306 374.572,423.14 367.5,423.5C 367.5,422.5 367.5,421.5 367.5,420.5C 367.5,417.5 367.5,414.5 367.5,411.5C 367.334,407.486 367.501,403.486 368,399.5C 368.615,397.884 369.615,396.551 371,395.5C 372.94,400.418 375.274,405.085 378,409.5C 379.699,410.406 381.533,410.739 383.5,410.5C 383.5,414.167 383.5,417.833 383.5,421.5C 386.118,421.221 388.618,420.554 391,419.5C 391.308,420.308 391.808,420.975 392.5,421.5C 393.068,416.535 395.234,416.201 399,420.5C 399.711,418.633 399.211,417.133 397.5,416C 399.25,414.246 399.917,412.079 399.5,409.5C 402.247,409.813 404.914,409.48 407.5,408.5C 410.446,406.112 413.613,404.112 417,402.5C 415.776,396.336 415.276,390.002 415.5,383.5C 418.167,383.5 420.833,383.5 423.5,383.5C 423.5,378.167 423.5,372.833 423.5,367.5C 424.833,367.5 426.167,367.5 427.5,367.5C 427.5,362.167 427.5,356.833 427.5,351.5C 426.167,351.5 424.833,351.5 423.5,351.5C 423.5,346.167 423.5,340.833 423.5,335.5C 424.5,335.5 425.5,335.5 426.5,335.5C 425.483,331.211 427.15,328.878 431.5,328.5C 429.525,327.251 429.191,325.751 430.5,324C 428.651,322.907 426.984,321.574 425.5,320C 429.927,320 430.427,318.833 427,316.5C 426.294,308.149 426.461,299.816 427.5,291.5C 427.535,287.755 426.535,287.088 424.5,289.5C 423.961,286.798 422.628,284.631 420.5,283C 421.152,278.767 419.652,278.267 416,281.5C 415.176,278.118 415.343,274.784 416.5,271.5C 417.977,268.86 419.644,266.36 421.5,264C 421.333,263.5 421.167,263 421,262.5C 419.333,263.5 417.667,264.5 416,265.5C 415.333,258.833 415.333,252.167 416,245.5C 417.663,243.842 418.496,241.842 418.5,239.5C 417.5,239.5 416.5,239.5 415.5,239.5C 415.281,244.629 414.614,244.629 413.5,239.5C 411.833,239.5 410.167,239.5 408.5,239.5C 407.697,234.524 404.864,231.191 400,229.5C 399.502,232.817 399.335,236.15 399.5,239.5C 398.5,239.5 397.5,239.5 396.5,239.5C 395.794,232.787 393.794,232.12 390.5,237.5C 391.518,238.852 392.851,239.852 394.5,240.5C 392.5,245.167 390.5,249.833 388.5,254.5C 389.689,255.429 391.022,255.762 392.5,255.5C 391.697,260.476 388.864,263.809 384,265.5C 383.667,261.167 383.333,256.833 383,252.5C 381.066,250.581 381.233,249.081 383.5,248C 383.167,247.667 382.833,247.333 382.5,247C 386.075,239.365 387.408,231.531 386.5,223.5C 387.154,220.506 387.821,217.506 388.5,214.5C 387.683,208.041 388.517,201.708 391,195.5C 391.214,190.115 391.714,184.781 392.5,179.5C 392.189,176.804 391.855,174.137 391.5,171.5C 392.496,171.414 393.329,171.748 394,172.5C 394.195,174.207 394.195,175.874 394,177.5C 397.552,176.028 399.218,177.362 399,181.5C 399.308,180.692 399.808,180.025 400.5,179.5C 401.852,180.518 402.852,181.851 403.5,183.5C 403.833,183 404.167,182.5 404.5,182C 402.887,177.267 402.387,172.433 403,167.5C 404.667,166.5 406.333,165.5 408,164.5C 408.733,168.187 410.9,170.52 414.5,171.5C 415.749,169.525 417.249,169.191 419,170.5C 419.72,172.112 419.554,173.612 418.5,175C 420.167,176.167 421.833,177.333 423.5,178.5C 421.955,179.452 420.288,179.785 418.5,179.5C 418.559,182.049 417.559,184.049 415.5,185.5C 416.711,187.422 418.044,189.255 419.5,191C 418.552,191.483 417.552,191.649 416.5,191.5C 416.299,194.728 416.633,197.895 417.5,201C 415.818,202.895 415.318,205.062 416,207.5C 420.833,202.5 425.667,197.5 430.5,192.5C 432.045,191.548 433.712,191.215 435.5,191.5C 435.5,186.167 435.5,180.833 435.5,175.5C 434.167,175.5 432.833,175.5 431.5,175.5C 431.665,172.15 431.498,168.817 431,165.5C 428.929,164.636 427.262,163.303 426,161.5C 425.832,150.152 425.332,138.819 424.5,127.5C 423.051,128.617 421.384,129.284 419.5,129.5C 415.916,128.284 412.249,127.617 408.5,127.5C 408.31,124.123 406.81,121.456 404,119.5C 403.503,116.854 403.336,114.187 403.5,111.5C 402.167,111.5 400.833,111.5 399.5,111.5C 399.5,108.167 399.5,104.833 399.5,101.5C 394.167,101.5 388.833,101.5 383.5,101.5C 383.5,99.5 383.5,97.5 383.5,95.5C 386.5,95.5 389.5,95.5 392.5,95.5C 391.697,90.524 388.864,87.1907 384,85.5C 383.667,81.5 383.333,77.5 383,73.5C 381.844,74.9928 381.01,74.8261 380.5,73C 379.633,69.8948 379.299,66.7281 379.5,63.5C 380.833,63.5 382.167,63.5 383.5,63.5C 383.665,59.8183 383.499,56.1516 383,52.5C 382.092,54.4386 380.592,55.4386 378.5,55.5C 378.33,56.8221 378.663,57.9887 379.5,59C 378.956,59.7172 378.289,60.2172 377.5,60.5C 377.5,56.1667 377.5,51.8333 377.5,47.5C 379.5,47.5 381.5,47.5 383.5,47.5C 383.5,42.1667 383.5,36.8333 383.5,31.5C 380.482,31.6646 377.482,31.498 374.5,31C 375.978,25.3022 373.644,22.8022 367.5,23.5C 367.5,22.5 367.5,21.5 367.5,20.5C 358.092,19.6829 348.925,18.0163 340,15.5C 334.204,15.971 328.37,16.1377 322.5,16C 321.376,16.2492 320.376,16.7492 319.5,17.5C 320.167,17.8333 320.833,18.1667 321.5,18.5C 324.248,16.7087 327.248,16.2087 330.5,17C 328.825,17.9853 327.158,18.8186 325.5,19.5C 324.423,20.0184 323.256,20.3517 322,20.5C 279.822,19.4614 237.655,18.7948 195.5,18.5C 194.282,17.8386 192.949,17.1719 191.5,16.5C 194.086,15.52 196.753,15.1866 199.5,15.5C 199.657,14.1266 199.49,12.7932 199,11.5C 196.061,9.60373 193.561,7.27039 191.5,4.5C 193.865,3.9149 195.865,2.74823 197.5,1C 196.944,0.617425 196.611,0.117425 196.5,-0.5 Z"/></g>
<g><path style="opacity:1" fill="#628494" d="M -0.5,-0.5 C 34.1667,-0.5 68.8333,-0.5 103.5,-0.5C 103.5,4.83333 103.5,10.1667 103.5,15.5C 100.833,15.5 98.1667,15.5 95.5,15.5C 95.5,18.1667 95.5,20.8333 95.5,23.5C 92.305,22.9607 89.805,23.9607 88,26.5C 87.5004,33.4921 87.3337,40.4921 87.5,47.5C 92.5,47.5 97.5,47.5 102.5,47.5C 103.303,42.524 106.136,39.1907 111,37.5C 112.117,45.7525 113.617,53.9192 115.5,62C 114.493,63.52 113.827,65.1867 113.5,67C 113.974,70.5366 114.641,74.0366 115.5,77.5C 115.457,78.4164 115.124,79.0831 114.5,79.5C 113.368,76.3716 112.535,73.0382 112,69.5C 111.667,71.1667 111.333,72.8333 111,74.5C 109.21,71.0974 106.876,68.0974 104,65.5C 100.943,68.2359 98.4427,67.7359 96.5,64C 90.8431,63.5006 85.1764,63.3339 79.5,63.5C 79.5,61.8333 79.5,60.1667 79.5,58.5C 76.8728,57.9084 74.2062,57.5751 71.5,57.5C 71.5405,54.1194 71.2071,50.7861 70.5,47.5C 68.1667,47.5 65.8333,47.5 63.5,47.5C 63.5,42.1667 63.5,36.8333 63.5,31.5C 61.1667,31.5 58.8333,31.5 56.5,31.5C 55.697,36.476 52.8636,39.8093 48,41.5C 47.5017,38.1832 47.335,34.8499 47.5,31.5C 42.1667,31.5 36.8333,31.5 31.5,31.5C 31.5,36.8333 31.5,42.1667 31.5,47.5C 36.8333,47.5 42.1667,47.5 47.5,47.5C 47.5,50.1667 47.5,52.8333 47.5,55.5C 53.5,54.8333 56.1667,57.5 55.5,63.5C 58.1667,63.5 60.8333,63.5 63.5,63.5C 63.5,68.8333 63.5,74.1667 63.5,79.5C 76.8333,79.5 90.1667,79.5 103.5,79.5C 103.5,82.1667 103.5,84.8333 103.5,87.5C 100.289,87.988 97.456,87.3213 95,85.5C 91.4496,86.8208 87.9496,88.3208 84.5,90C 83.1667,91.6667 83.1667,93.3333 84.5,95C 82.8659,95.4935 81.1992,95.6602 79.5,95.5C 79.5,97.1667 79.5,98.8333 79.5,100.5C 73.1999,101.207 66.8666,101.707 60.5,102C 58.4299,102.948 56.9299,104.448 56,106.5C 55.501,110.821 55.3343,115.154 55.5,119.5C 52.8333,119.5 50.1667,119.5 47.5,119.5C 47.2011,121.604 47.5344,123.604 48.5,125.5C 49.5,123.833 50.8333,122.5 52.5,121.5C 55.172,123.425 56.172,126.092 55.5,129.5C 44.6705,129.499 42.8372,133.499 50,141.5C 50.4828,138.177 51.9828,135.51 54.5,133.5C 56.0782,139.22 54.4116,143.72 49.5,147C 51.1579,148.663 53.1579,149.496 55.5,149.5C 54.3805,152.387 53.3805,155.387 52.5,158.5C 51.914,158.291 51.414,157.957 51,157.5C 50.0975,158.701 48.9308,159.535 47.5,160C 47.6187,164.288 47.6187,168.788 47.5,173.5C 45.3193,173.284 43.6526,174.117 42.5,176C 44.3567,179.236 46.0234,182.569 47.5,186C 47.5066,187.812 46.84,189.312 45.5,190.5C 47.5619,192.092 47.8952,193.925 46.5,196C 51.6024,198.418 54.769,202.251 56,207.5C 56.6127,203.682 58.6127,202.682 62,204.5C 62.964,208.796 63.7974,213.13 64.5,217.5C 65.6721,217.919 66.6721,218.585 67.5,219.5C 68.3615,222.599 69.6949,225.433 71.5,228C 74.1194,227.917 76.786,227.75 79.5,227.5C 79.5,228.5 79.5,229.5 79.5,230.5C 77.5,230.5 75.5,230.5 73.5,230.5C 73.1667,233.5 74.5,234.833 77.5,234.5C 77.6509,231.282 78.4842,230.949 80,233.5C 81.3159,230.972 82.4826,230.972 83.5,233.5C 82.6872,234.814 81.6872,235.981 80.5,237C 81.0465,237.925 81.7132,238.758 82.5,239.5C 85.9182,237.848 89.5849,237.015 93.5,237C 94.6667,236.5 95.5,235.667 96,234.5C 97.5737,235.984 98.907,237.651 100,239.5C 102.923,237.442 105.09,234.775 106.5,231.5C 107.783,234.372 107.783,237.205 106.5,240C 109.018,241.81 109.018,243.643 106.5,245.5C 104.561,248.276 102.061,248.943 99,247.5C 95.8638,249.164 94.6971,251.831 95.5,255.5C 94.1667,255.5 92.8333,255.5 91.5,255.5C 91.1718,260.875 91.5052,266.208 92.5,271.5C 94.5499,272.077 95.5499,273.41 95.5,275.5C 94.1667,275.5 92.8333,275.5 91.5,275.5C 91.2267,277.451 91.8934,278.951 93.5,280C 92.565,282.381 92.2317,284.881 92.5,287.5C 93.5,287.5 94.5,287.5 95.5,287.5C 95.4742,292.795 96.1409,297.961 97.5,303C 96.7139,310.353 96.3805,317.686 96.5,325C 97,325.5 97.5,326 98,326.5C 98.1764,323.118 98.6764,319.785 99.5,316.5C 100.176,317.602 100.842,318.602 101.5,319.5C 100.907,324.167 100.24,328.834 99.5,333.5C 100.982,335.483 102.649,337.316 104.5,339C 100.852,341.497 101.185,343.831 105.5,346C 104.338,346.827 103.171,347.66 102,348.5C 99.6496,347.496 97.3163,346.496 95,345.5C 92.6826,348.768 89.5159,350.935 85.5,352C 88.112,354.151 88.112,354.985 85.5,354.5C 84.1861,355.313 83.0195,356.313 82,357.5C 80.2495,350.694 78.5828,350.36 77,356.5C 75.4173,358.055 73.584,359.222 71.5,360C 73.1096,361.495 74.7763,361.661 76.5,360.5C 77.5,360.833 78.1667,361.5 78.5,362.5C 76.3759,363.149 74.3759,363.983 72.5,365C 73.5762,366.726 73.7429,368.559 73,370.5C 70.7652,374.63 68.2652,378.63 65.5,382.5C 67.5,383.167 69.5,383.833 71.5,384.5C 67.3624,387.594 63.0291,388.094 58.5,386C 60.2464,385.529 61.913,384.862 63.5,384C 60.854,383.503 58.1873,383.336 55.5,383.5C 55.8229,393.817 54.1563,394.15 50.5,384.5C 51.7287,383.719 53.062,383.219 54.5,383C 53.9747,382.308 53.3081,381.808 52.5,381.5C 51.549,382.326 50.549,382.492 49.5,382C 49.0563,380.467 48.723,378.967 48.5,377.5C 47.5344,379.396 47.2011,381.396 47.5,383.5C 45.0459,383.321 42.8792,383.987 41,385.5C 40.5,385.167 40,384.833 39.5,384.5C 41.0066,382.031 40.6732,379.865 38.5,378C 35.5168,375.921 32.1834,375.087 28.5,375.5C 28.5,374.5 28.5,373.5 28.5,372.5C 29.5,372.5 30.5,372.5 31.5,372.5C 31.5,371.5 31.5,370.5 31.5,369.5C 28.234,369.567 26.734,367.901 27,364.5C 24.7658,363.295 23.0992,363.961 22,366.5C 21.502,369.482 21.3354,372.482 21.5,375.5C 23.288,375.215 24.9547,375.548 26.5,376.5C 24.9435,378.701 23.7768,378.701 23,376.5C 21.0464,378.785 21.213,380.952 23.5,383C 22.2068,383.49 20.8734,383.657 19.5,383.5C 19.8333,380.833 20.1667,378.167 20.5,375.5C 19.5,375.5 18.5,375.5 17.5,375.5C 18.0414,378.652 17.0414,381.152 14.5,383C 15.938,383.219 17.2713,383.719 18.5,384.5C 17.7865,386.811 16.7865,388.978 15.5,391C 17.0911,393.386 18.0911,396.053 18.5,399C 17.8333,399.333 17.1667,399.667 16.5,400C 19.3974,401.715 20.7307,404.215 20.5,407.5C 19.448,407.351 18.448,407.517 17.5,408C 18.8333,409.333 20.1667,410.667 21.5,412C 20.4214,412.956 19.2547,413.789 18,414.5C 17.878,420.373 17.0447,426.039 15.5,431.5C 17.1992,431.34 18.8659,431.506 20.5,432C 19.2364,433.861 18.2364,435.861 17.5,438C 18.5794,442.458 18.7461,446.958 18,451.5C 16.0152,459.372 14.6819,467.372 14,475.5C 13.051,483.322 13.551,490.989 15.5,498.5C 12.8333,499.167 10.1667,499.833 7.5,500.5C 7.58747,497.402 7.08747,497.068 6,499.5C 4.66667,495.5 3.33333,495.5 2,499.5C 1.14825,498.429 0.314913,497.429 -0.5,496.5C -0.5,330.833 -0.5,165.167 -0.5,-0.5 Z"/></g>
<g><path style="opacity:1" fill="#668693" d="M 377.5,60.5 C 377.5,61.5 377.5,62.5 377.5,63.5C 376.022,63.238 374.689,63.5713 373.5,64.5C 369.154,70.7982 367.154,70.4648 367.5,63.5C 366.178,56.3223 365.012,49.3223 364,42.5C 362.539,40.4067 360.706,38.74 358.5,37.5C 356.754,35.7484 354.754,34.4151 352.5,33.5C 351.29,33.0679 350.29,32.4013 349.5,31.5C 346.737,27.194 342.904,24.194 338,22.5C 336.755,22.4615 335.422,22.7948 334,23.5C 332.831,22.9915 331.998,22.1581 331.5,21C 329.292,20.8091 327.292,20.3091 325.5,19.5C 327.158,18.8186 328.825,17.9853 330.5,17C 327.248,16.2087 324.248,16.7087 321.5,18.5C 320.833,18.1667 320.167,17.8333 319.5,17.5C 320.376,16.7492 321.376,16.2492 322.5,16C 328.37,16.1377 334.204,15.971 340,15.5C 348.925,18.0163 358.092,19.6829 367.5,20.5C 367.5,21.5 367.5,22.5 367.5,23.5C 373.644,22.8022 375.978,25.3022 374.5,31C 377.482,31.498 380.482,31.6646 383.5,31.5C 383.5,36.8333 383.5,42.1667 383.5,47.5C 381.5,47.5 379.5,47.5 377.5,47.5C 377.5,51.8333 377.5,56.1667 377.5,60.5 Z"/></g>
<g><path style="opacity:1" fill="#010101" d="M 158.5,20.5 C 158.918,21.2216 159.584,21.7216 160.5,22C 171.035,22.673 181.368,22.173 191.5,20.5C 233.496,21.3227 275.496,21.4894 317.5,21C 328.34,23.2241 338.673,26.7241 348.5,31.5C 347.697,32.4232 347.53,33.4232 348,34.5C 350.746,36.0366 353.079,38.0366 355,40.5C 357.348,44.9405 359.181,49.6072 360.5,54.5C 360.291,55.086 359.957,55.586 359.5,56C 360.459,57.7073 361.125,59.5406 361.5,61.5C 360.91,63.8464 360.91,66.3464 361.5,69C 359.501,86.4427 359.001,103.943 360,121.5C 360.353,124.152 361.52,126.152 363.5,127.5C 364.804,128.987 365.97,130.654 367,132.5C 374.179,148.855 381.345,165.188 388.5,181.5C 388.666,185.846 388.499,190.179 388,194.5C 385.363,201.247 383.863,208.247 383.5,215.5C 382.079,225.202 380.412,234.869 378.5,244.5C 378.5,244.833 378.5,245.167 378.5,245.5C 377.778,245.918 377.278,246.584 377,247.5C 375.345,256.762 374.345,266.096 374,275.5C 373.208,278.106 371.708,280.106 369.5,281.5C 367.5,281.5 365.5,281.5 363.5,281.5C 362.058,280.18 361.392,278.514 361.5,276.5C 362.038,274.883 362.371,273.216 362.5,271.5C 363.795,258.186 363.795,244.852 362.5,231.5C 362.616,227.245 361.783,223.245 360,219.5C 358.542,220.747 357.042,220.747 355.5,219.5C 354.784,220.311 353.95,220.978 353,221.5C 347.472,219.436 341.805,217.769 336,216.5C 321.998,218.658 307.831,219.991 293.5,220.5C 292.833,220.833 292.167,221.167 291.5,221.5C 292.167,222.5 292.833,223.5 293.5,224.5C 292.198,227.708 291.531,231.041 291.5,234.5C 290.596,233.791 290.263,232.791 290.5,231.5C 288.833,231.5 287.167,231.5 285.5,231.5C 285.663,233.857 285.497,236.19 285,238.5C 283.387,239.622 282.22,239.122 281.5,237C 278.304,236.604 275.47,235.438 273,233.5C 272.667,233.833 272.333,234.167 272,234.5C 269.201,232.457 266.201,230.791 263,229.5C 260.626,231.378 258.126,233.045 255.5,234.5C 253.175,241.935 250.175,249.102 246.5,256C 246.957,256.414 247.291,256.914 247.5,257.5C 246.833,257.833 246.167,258.167 245.5,258.5C 246.246,259.736 246.579,261.07 246.5,262.5C 245.448,262.649 244.448,262.483 243.5,262C 243.986,259.973 243.986,257.807 243.5,255.5C 244.919,253.849 246.253,252.016 247.5,250C 247.043,249.586 246.709,249.086 246.5,248.5C 246.887,244.947 247.887,241.614 249.5,238.5C 248.395,237.108 247.061,235.941 245.5,235C 245.833,234.667 246.167,234.333 246.5,234C 243.483,230.971 240.817,227.638 238.5,224C 235.471,223.461 232.471,222.794 229.5,222C 230.662,221.173 231.829,220.34 233,219.5C 235.099,220.287 237.266,220.62 239.5,220.5C 239.5,218.833 239.5,217.167 239.5,215.5C 235.89,214.376 232.224,213.376 228.5,212.5C 227.914,212.709 227.414,213.043 227,213.5C 223.23,211.43 219.23,210.096 215,209.5C 209.558,210.714 204.058,210.714 198.5,209.5C 191.514,210.443 184.514,211.276 177.5,212C 176.167,212.667 174.833,213.333 173.5,214C 172.521,215.779 172.854,217.445 174.5,219C 177.5,219.333 180.5,219.667 183.5,220C 172.833,220.667 172.833,221.333 183.5,222C 182.263,222.232 181.263,222.732 180.5,223.5C 178.833,223.5 177.167,223.5 175.5,223.5C 169.409,223.535 163.409,224.201 157.5,225.5C 157.975,228.885 156.642,231.218 153.5,232.5C 151.98,234.662 150.98,236.995 150.5,239.5C 148.856,239.286 147.356,239.62 146,240.5C 145.79,243.234 144.956,245.734 143.5,248C 144.252,248.671 144.586,249.504 144.5,250.5C 143.945,256.154 143.445,261.82 143,267.5C 142.64,265.392 141.973,263.392 141,261.5C 139.111,264.112 137.611,266.945 136.5,270C 139.112,271.983 138.945,273.816 136,275.5C 135.578,279.009 134.578,282.343 133,285.5C 132,295.828 131.167,306.161 130.5,316.5C 130.898,321.677 130.898,326.677 130.5,331.5C 132.725,333.562 133.058,335.895 131.5,338.5C 132.167,338.833 132.833,339.167 133.5,339.5C 132.833,340.5 132.167,341.5 131.5,342.5C 133.808,351.606 134.142,360.606 132.5,369.5C 131.593,382.164 134.426,393.83 141,404.5C 141.703,407.713 141.536,410.879 140.5,414C 141.456,415.365 142.122,416.865 142.5,418.5C 139.917,427.99 138.917,437.657 139.5,447.5C 138.167,447.5 136.833,447.5 135.5,447.5C 135.5,442.167 135.5,436.833 135.5,431.5C 136.675,431.719 137.675,431.386 138.5,430.5C 137.82,428.111 136.986,425.778 136,423.5C 135.085,424.328 134.419,425.328 134,426.5C 134.346,436.386 134.513,446.22 134.5,456C 133.578,460.106 132.744,464.273 132,468.5C 131.802,466.618 131.302,464.952 130.5,463.5C 130.83,431.521 131.163,400.021 131.5,369C 129.339,366.36 129.005,363.527 130.5,360.5C 129.862,352.371 129.195,344.371 128.5,336.5C 127.673,335.561 127.006,335.895 126.5,337.5C 121.636,339.67 116.636,340.003 111.5,338.5C 108.706,336.181 106.872,333.181 106,329.5C 105.501,324.177 105.334,318.844 105.5,313.5C 106.364,304.959 107.364,296.459 108.5,288C 107.805,279.818 107.305,271.651 107,263.5C 108.456,260.874 110.623,259.207 113.5,258.5C 117.203,258.157 120.703,258.491 124,259.5C 125.595,258.644 126.428,257.311 126.5,255.5C 127.051,252.193 127.384,248.86 127.5,245.5C 127.778,236.447 127.444,227.447 126.5,218.5C 126.59,215.848 125.924,213.515 124.5,211.5C 123.674,208.515 122.341,205.849 120.5,203.5C 118.847,200.193 117.18,196.86 115.5,193.5C 111.384,182.583 109.717,171.249 110.5,159.5C 111.833,155.5 113.167,151.5 114.5,147.5C 115.857,146.41 116.857,145.076 117.5,143.5C 119.735,141.355 122.069,139.188 124.5,137C 124.265,136.127 123.931,135.293 123.5,134.5C 124.837,130.935 127.17,128.435 130.5,127C 130.167,126.667 129.833,126.333 129.5,126C 131.041,120.628 132.708,115.295 134.5,110C 133.061,107.097 133.394,104.43 135.5,102C 135.001,98.5838 135.001,95.4171 135.5,92.5C 135.289,88.3689 133.622,85.0356 130.5,82.5C 131.818,75.8628 132.484,69.3628 132.5,63C 131.76,61.2151 131.093,59.3817 130.5,57.5C 130.043,56.7025 129.376,56.3691 128.5,56.5C 126.243,52.7143 125.91,48.7143 127.5,44.5C 129.015,41.2984 130.348,37.9651 131.5,34.5C 133.22,33.066 135.22,32.2326 137.5,32C 141.027,27.5613 145.027,23.5613 149.5,20C 152.697,17.8805 155.697,18.0472 158.5,20.5 Z"/></g>
<g><path style="opacity:1" fill="#657783" d="M 195.5,18.5 C 237.655,18.7948 279.822,19.4614 322,20.5C 323.256,20.3517 324.423,20.0184 325.5,19.5C 327.292,20.3091 329.292,20.8091 331.5,21C 331.998,22.1581 332.831,22.9915 334,23.5C 335.422,22.7948 336.755,22.4615 338,22.5C 342.904,24.194 346.737,27.194 349.5,31.5C 349.167,31.5 348.833,31.5 348.5,31.5C 338.673,26.7241 328.34,23.2241 317.5,21C 275.496,21.4894 233.496,21.3227 191.5,20.5C 192.183,18.8235 193.517,18.1568 195.5,18.5 Z"/></g>
<g><path style="opacity:1" fill="#56656f" d="M 158.5,20.5 C 169.5,20.5 180.5,20.5 191.5,20.5C 181.368,22.173 171.035,22.673 160.5,22C 159.584,21.7216 158.918,21.2216 158.5,20.5 Z"/></g>
<g><path style="opacity:1" fill="#090e13" d="M 348.5,31.5 C 348.833,31.5 349.167,31.5 349.5,31.5C 350.29,32.4013 351.29,33.0679 352.5,33.5C 355.086,36.3579 357.42,39.3579 359.5,42.5C 359.927,45.0098 360.593,47.3432 361.5,49.5C 362.461,51.2646 362.795,53.2646 362.5,55.5C 361.944,70.505 361.277,85.505 360.5,100.5C 360.5,107.009 360.834,113.342 361.5,119.5C 362.167,122.167 362.833,124.833 363.5,127.5C 361.52,126.152 360.353,124.152 360,121.5C 359.001,103.943 359.501,86.4427 361.5,69C 360.91,66.3464 360.91,63.8464 361.5,61.5C 361.125,59.5406 360.459,57.7073 359.5,56C 359.957,55.586 360.291,55.086 360.5,54.5C 359.181,49.6072 357.348,44.9405 355,40.5C 353.079,38.0366 350.746,36.0366 348,34.5C 347.53,33.4232 347.697,32.4232 348.5,31.5 Z"/></g>
<g><path style="opacity:1" fill="#2b3a41" d="M 352.5,33.5 C 354.754,34.4151 356.754,35.7484 358.5,37.5C 358.629,39.2161 358.962,40.8828 359.5,42.5C 357.42,39.3579 355.086,36.3579 352.5,33.5 Z"/></g>
<g><path style="opacity:1" fill="#2d3b45" d="M 359.5,42.5 C 360.117,42.6107 360.617,42.944 361,43.5C 361.495,45.4727 361.662,47.4727 361.5,49.5C 360.593,47.3432 359.927,45.0098 359.5,42.5 Z"/></g>
<g><path style="opacity:1" fill="#26343e" d="M 127.5,44.5 C 125.91,48.7143 126.243,52.7143 128.5,56.5C 126.016,58.0638 124.016,60.0638 122.5,62.5C 124.185,56.4192 125.851,50.4192 127.5,44.5 Z"/></g>
<g><path style="opacity:1" fill="#060a10" d="M 128.5,56.5 C 129.376,56.3691 130.043,56.7025 130.5,57.5C 131.093,59.3817 131.76,61.2151 132.5,63C 132.484,69.3628 131.818,75.8628 130.5,82.5C 133.622,85.0356 135.289,88.3689 135.5,92.5C 135.001,95.4171 135.001,98.5838 135.5,102C 133.394,104.43 133.061,107.097 134.5,110C 132.708,115.295 131.041,120.628 129.5,126C 129.833,126.333 130.167,126.667 130.5,127C 127.17,128.435 124.837,130.935 123.5,134.5C 123.931,135.293 124.265,136.127 124.5,137C 122.069,139.188 119.735,141.355 117.5,143.5C 118.911,140.325 120.078,136.991 121,133.5C 125.132,128.567 127.632,122.9 128.5,116.5C 129.129,106.787 130.462,97.1201 132.5,87.5C 131.5,87.5 130.5,87.5 129.5,87.5C 129.819,89.7505 129.319,91.7505 128,93.5C 127.292,92.6195 126.458,91.9528 125.5,91.5C 125.342,87.1586 124.342,83.1586 122.5,79.5C 122.5,73.8333 122.5,68.1667 122.5,62.5C 124.016,60.0638 126.016,58.0638 128.5,56.5 Z"/></g>
<g><path style="opacity:1" fill="#3f4c57" d="M 362.5,55.5 C 363.166,59.3188 363.499,63.3188 363.5,67.5C 361.798,84.7686 361.131,102.102 361.5,119.5C 360.834,113.342 360.5,107.009 360.5,100.5C 361.277,85.505 361.944,70.505 362.5,55.5 Z"/></g>
<g><path style="opacity:1" fill="#628293" d="M 114.5,79.5 C 114.336,82.1873 114.503,84.854 115,87.5C 116.487,88.2529 116.654,89.0862 115.5,90C 117.039,93.0555 117.705,92.5555 117.5,88.5C 116.628,80.1903 116.295,71.8569 116.5,63.5C 117.833,63.5 119.167,63.5 120.5,63.5C 119.887,69.2709 120.554,74.6042 122.5,79.5C 122.681,82.3971 122.348,85.2305 121.5,88C 122.161,90.464 122.661,92.964 123,95.5C 123.667,94.1667 124.333,94.1667 125,95.5C 126.372,103.125 126.706,110.792 126,118.5C 123.686,122.601 121.853,126.934 120.5,131.5C 119.522,131.977 118.689,132.643 118,133.5C 117.261,137.062 115.761,140.228 113.5,143C 114.38,144.356 114.714,145.856 114.5,147.5C 113.167,151.5 111.833,155.5 110.5,159.5C 109.778,159.918 109.278,160.584 109,161.5C 107.694,171.95 108.861,181.95 112.5,191.5C 112.779,194.118 113.446,196.618 114.5,199C 114.043,199.414 113.709,199.914 113.5,200.5C 115.106,200.975 116.606,202.309 118,204.5C 118.496,206.035 118.33,207.535 117.5,209C 120.135,211.544 121.635,214.711 122,218.5C 123.953,224.776 123.786,230.943 121.5,237C 122.717,241.117 121.217,242.617 117,241.5C 114.208,244.489 110.708,245.823 106.5,245.5C 109.018,243.643 109.018,241.81 106.5,240C 107.783,237.205 107.783,234.372 106.5,231.5C 105.09,234.775 102.923,237.442 100,239.5C 98.907,237.651 97.5737,235.984 96,234.5C 95.5,235.667 94.6667,236.5 93.5,237C 89.5849,237.015 85.9182,237.848 82.5,239.5C 81.7132,238.758 81.0465,237.925 80.5,237C 81.6872,235.981 82.6872,234.814 83.5,233.5C 82.4826,230.972 81.3159,230.972 80,233.5C 78.4842,230.949 77.6509,231.282 77.5,234.5C 74.5,234.833 73.1667,233.5 73.5,230.5C 75.5,230.5 77.5,230.5 79.5,230.5C 79.5,229.5 79.5,228.5 79.5,227.5C 76.786,227.75 74.1194,227.917 71.5,228C 69.6949,225.433 68.3615,222.599 67.5,219.5C 66.6721,218.585 65.6721,217.919 64.5,217.5C 63.7974,213.13 62.964,208.796 62,204.5C 58.6127,202.682 56.6127,203.682 56,207.5C 54.769,202.251 51.6024,198.418 46.5,196C 47.8952,193.925 47.5619,192.092 45.5,190.5C 46.84,189.312 47.5066,187.812 47.5,186C 46.0234,182.569 44.3567,179.236 42.5,176C 43.6526,174.117 45.3193,173.284 47.5,173.5C 47.6187,168.788 47.6187,164.288 47.5,160C 48.9308,159.535 50.0975,158.701 51,157.5C 51.414,157.957 51.914,158.291 52.5,158.5C 53.3805,155.387 54.3805,152.387 55.5,149.5C 53.1579,149.496 51.1579,148.663 49.5,147C 54.4116,143.72 56.0782,139.22 54.5,133.5C 51.9828,135.51 50.4828,138.177 50,141.5C 42.8372,133.499 44.6705,129.499 55.5,129.5C 56.172,126.092 55.172,123.425 52.5,121.5C 50.8333,122.5 49.5,123.833 48.5,125.5C 47.5344,123.604 47.2011,121.604 47.5,119.5C 50.1667,119.5 52.8333,119.5 55.5,119.5C 55.3343,115.154 55.501,110.821 56,106.5C 56.9299,104.448 58.4299,102.948 60.5,102C 66.8666,101.707 73.1999,101.207 79.5,100.5C 79.5,98.8333 79.5,97.1667 79.5,95.5C 81.1992,95.6602 82.8659,95.4935 84.5,95C 83.1667,93.3333 83.1667,91.6667 84.5,90C 87.9496,88.3208 91.4496,86.8208 95,85.5C 97.456,87.3213 100.289,87.988 103.5,87.5C 103.5,84.8333 103.5,82.1667 103.5,79.5C 90.1667,79.5 76.8333,79.5 63.5,79.5C 63.5,74.1667 63.5,68.8333 63.5,63.5C 60.8333,63.5 58.1667,63.5 55.5,63.5C 56.1667,57.5 53.5,54.8333 47.5,55.5C 47.5,52.8333 47.5,50.1667 47.5,47.5C 42.1667,47.5 36.8333,47.5 31.5,47.5C 31.5,42.1667 31.5,36.8333 31.5,31.5C 36.8333,31.5 42.1667,31.5 47.5,31.5C 47.335,34.8499 47.5017,38.1832 48,41.5C 52.8636,39.8093 55.697,36.476 56.5,31.5C 58.8333,31.5 61.1667,31.5 63.5,31.5C 63.5,36.8333 63.5,42.1667 63.5,47.5C 65.8333,47.5 68.1667,47.5 70.5,47.5C 71.2071,50.7861 71.5405,54.1194 71.5,57.5C 74.2062,57.5751 76.8728,57.9084 79.5,58.5C 79.5,60.1667 79.5,61.8333 79.5,63.5C 85.1764,63.3339 90.8431,63.5006 96.5,64C 98.4427,67.7359 100.943,68.2359 104,65.5C 106.876,68.0974 109.21,71.0974 111,74.5C 111.333,72.8333 111.667,71.1667 112,69.5C 112.535,73.0382 113.368,76.3716 114.5,79.5 Z"/></g>
<g><path style="opacity:1" fill="#212a33" d="M 128.5,116.5 C 128.87,107.951 127.87,99.6174 125.5,91.5C 126.458,91.9528 127.292,92.6195 128,93.5C 129.319,91.7505 129.819,89.7505 129.5,87.5C 130.5,87.5 131.5,87.5 132.5,87.5C 130.462,97.1201 129.129,106.787 128.5,116.5 Z"/></g>
<g><path style="opacity:1" fill="#638396" d="M 391.5,171.5 C 387.849,170.274 385.515,167.274 384.5,162.5C 388.755,160.135 388.421,159.135 383.5,159.5C 383.594,156.459 382.094,154.793 379,154.5C 378.689,152.444 378.189,150.444 377.5,148.5C 377.709,147.914 378.043,147.414 378.5,147C 377,146.167 375.833,145 375,143.5C 372.987,138.122 370.987,132.789 369,127.5C 368.333,130.167 367.667,130.167 367,127.5C 366,124.167 365,120.833 364,117.5C 363.402,101.588 363.902,85.5882 365.5,69.5C 365.539,67.0478 366.206,65.0478 367.5,63.5C 367.154,70.4648 369.154,70.7982 373.5,64.5C 374.689,63.5713 376.022,63.238 377.5,63.5C 377.5,62.5 377.5,61.5 377.5,60.5C 378.289,60.2172 378.956,59.7172 379.5,59C 378.663,57.9887 378.33,56.8221 378.5,55.5C 380.592,55.4386 382.092,54.4386 383,52.5C 383.499,56.1516 383.665,59.8183 383.5,63.5C 382.167,63.5 380.833,63.5 379.5,63.5C 379.299,66.7281 379.633,69.8948 380.5,73C 381.01,74.8261 381.844,74.9928 383,73.5C 383.333,77.5 383.667,81.5 384,85.5C 388.864,87.1907 391.697,90.524 392.5,95.5C 389.5,95.5 386.5,95.5 383.5,95.5C 383.5,97.5 383.5,99.5 383.5,101.5C 388.833,101.5 394.167,101.5 399.5,101.5C 399.5,104.833 399.5,108.167 399.5,111.5C 400.833,111.5 402.167,111.5 403.5,111.5C 403.336,114.187 403.503,116.854 404,119.5C 406.81,121.456 408.31,124.123 408.5,127.5C 412.249,127.617 415.916,128.284 419.5,129.5C 421.384,129.284 423.051,128.617 424.5,127.5C 425.332,138.819 425.832,150.152 426,161.5C 427.262,163.303 428.929,164.636 431,165.5C 431.498,168.817 431.665,172.15 431.5,175.5C 432.833,175.5 434.167,175.5 435.5,175.5C 435.5,180.833 435.5,186.167 435.5,191.5C 433.712,191.215 432.045,191.548 430.5,192.5C 425.667,197.5 420.833,202.5 416,207.5C 415.318,205.062 415.818,202.895 417.5,201C 416.633,197.895 416.299,194.728 416.5,191.5C 417.552,191.649 418.552,191.483 419.5,191C 418.044,189.255 416.711,187.422 415.5,185.5C 417.559,184.049 418.559,182.049 418.5,179.5C 420.288,179.785 421.955,179.452 423.5,178.5C 421.833,177.333 420.167,176.167 418.5,175C 419.554,173.612 419.72,172.112 419,170.5C 417.249,169.191 415.749,169.525 414.5,171.5C 410.9,170.52 408.733,168.187 408,164.5C 406.333,165.5 404.667,166.5 403,167.5C 402.387,172.433 402.887,177.267 404.5,182C 404.167,182.5 403.833,183 403.5,183.5C 402.852,181.851 401.852,180.518 400.5,179.5C 399.808,180.025 399.308,180.692 399,181.5C 399.218,177.362 397.552,176.028 394,177.5C 394.195,175.874 394.195,174.207 394,172.5C 393.329,171.748 392.496,171.414 391.5,171.5 Z"/></g>
<g><path style="opacity:1" fill="#596d7a" d="M 122.5,79.5 C 124.342,83.1586 125.342,87.1586 125.5,91.5C 127.87,99.6174 128.87,107.951 128.5,116.5C 127.632,122.9 125.132,128.567 121,133.5C 120.078,136.991 118.911,140.325 117.5,143.5C 116.857,145.076 115.857,146.41 114.5,147.5C 114.714,145.856 114.38,144.356 113.5,143C 115.761,140.228 117.261,137.062 118,133.5C 118.689,132.643 119.522,131.977 120.5,131.5C 121.853,126.934 123.686,122.601 126,118.5C 126.706,110.792 126.372,103.125 125,95.5C 124.333,94.1667 123.667,94.1667 123,95.5C 122.661,92.964 122.161,90.464 121.5,88C 122.348,85.2305 122.681,82.3971 122.5,79.5 Z"/></g>
<g><path style="opacity:1" fill="#637f8c" d="M 358.5,37.5 C 360.706,38.74 362.539,40.4067 364,42.5C 365.012,49.3223 366.178,56.3223 367.5,63.5C 366.206,65.0478 365.539,67.0478 365.5,69.5C 363.902,85.5882 363.402,101.588 364,117.5C 365,120.833 366,124.167 367,127.5C 367.667,130.167 368.333,130.167 369,127.5C 370.987,132.789 372.987,138.122 375,143.5C 375.833,145 377,146.167 378.5,147C 378.043,147.414 377.709,147.914 377.5,148.5C 378.189,150.444 378.689,152.444 379,154.5C 382.094,154.793 383.594,156.459 383.5,159.5C 388.421,159.135 388.755,160.135 384.5,162.5C 385.515,167.274 387.849,170.274 391.5,171.5C 391.855,174.137 392.189,176.804 392.5,179.5C 391.714,184.781 391.214,190.115 391,195.5C 388.517,201.708 387.683,208.041 388.5,214.5C 387.821,217.506 387.154,220.506 386.5,223.5C 383.966,230.711 381.299,237.711 378.5,244.5C 380.412,234.869 382.079,225.202 383.5,215.5C 384.584,210.604 385.75,205.604 387,200.5C 387.915,199.672 388.581,198.672 389,197.5C 389.817,191.984 389.651,186.65 388.5,181.5C 381.345,165.188 374.179,148.855 367,132.5C 365.97,130.654 364.804,128.987 363.5,127.5C 362.833,124.833 362.167,122.167 361.5,119.5C 361.131,102.102 361.798,84.7686 363.5,67.5C 363.499,63.3188 363.166,59.3188 362.5,55.5C 362.795,53.2646 362.461,51.2646 361.5,49.5C 361.662,47.4727 361.495,45.4727 361,43.5C 360.617,42.944 360.117,42.6107 359.5,42.5C 358.962,40.8828 358.629,39.2161 358.5,37.5 Z"/></g>
<g><path style="opacity:1" fill="#556975" d="M 110.5,159.5 C 109.717,171.249 111.384,182.583 115.5,193.5C 114.222,193.218 113.222,192.551 112.5,191.5C 108.861,181.95 107.694,171.95 109,161.5C 109.278,160.584 109.778,159.918 110.5,159.5 Z"/></g>
<g><path style="opacity:1" fill="#526771" d="M 388.5,181.5 C 389.651,186.65 389.817,191.984 389,197.5C 388.581,198.672 387.915,199.672 387,200.5C 385.75,205.604 384.584,210.604 383.5,215.5C 383.863,208.247 385.363,201.247 388,194.5C 388.499,190.179 388.666,185.846 388.5,181.5 Z"/></g>
<g><path style="opacity:1" fill="#09000a" d="M 243.5,255.5 C 243.401,252.763 243.735,250.096 244.5,247.5C 245.473,245.052 245.806,242.385 245.5,239.5C 242.465,240.412 239.465,240.412 236.5,239.5C 233.256,237.701 229.923,236.201 226.5,235C 224.833,234 223.5,232.667 222.5,231C 216.346,229.148 210.346,226.981 204.5,224.5C 196.528,223.502 188.528,223.169 180.5,223.5C 181.263,222.732 182.263,222.232 183.5,222C 172.833,221.333 172.833,220.667 183.5,220C 180.5,219.667 177.5,219.333 174.5,219C 172.854,217.445 172.521,215.779 173.5,214C 174.833,213.333 176.167,212.667 177.5,212C 184.514,211.276 191.514,210.443 198.5,209.5C 204.058,210.714 209.558,210.714 215,209.5C 219.23,210.096 223.23,211.43 227,213.5C 227.414,213.043 227.914,212.709 228.5,212.5C 232.224,213.376 235.89,214.376 239.5,215.5C 239.5,217.167 239.5,218.833 239.5,220.5C 237.266,220.62 235.099,220.287 233,219.5C 231.829,220.34 230.662,221.173 229.5,222C 232.471,222.794 235.471,223.461 238.5,224C 240.817,227.638 243.483,230.971 246.5,234C 246.167,234.333 245.833,234.667 245.5,235C 247.061,235.941 248.395,237.108 249.5,238.5C 247.887,241.614 246.887,244.947 246.5,248.5C 246.709,249.086 247.043,249.586 247.5,250C 246.253,252.016 244.919,253.849 243.5,255.5 Z"/></g>
<g><path style="opacity:1" fill="#596e7a" d="M 120.5,203.5 C 122.341,205.849 123.674,208.515 124.5,211.5C 124.41,214.152 125.076,216.485 126.5,218.5C 127.444,227.447 127.778,236.447 127.5,245.5C 126.635,248.418 125.635,251.418 124.5,254.5C 122.955,255.452 121.288,255.785 119.5,255.5C 116.167,255.5 112.833,255.5 109.5,255.5C 113.298,254.517 117.298,254.183 121.5,254.5C 121.489,249.837 122.989,245.837 126,242.5C 126.167,239.333 126.333,236.167 126.5,233C 125.297,222.932 123.297,213.099 120.5,203.5 Z"/></g>
<g><path style="opacity:1" fill="#334046" d="M 124.5,211.5 C 125.924,213.515 126.59,215.848 126.5,218.5C 125.076,216.485 124.41,214.152 124.5,211.5 Z"/></g>
<g><path style="opacity:1" fill="#08010a" d="M 362.5,231.5 C 362.167,231.5 361.833,231.5 361.5,231.5C 360.699,229.207 360.032,229.54 359.5,232.5C 359.5,233.167 359.167,233.5 358.5,233.5C 357.542,233.047 356.708,232.381 356,231.5C 354.352,233.028 352.352,233.695 350,233.5C 337.425,232.52 324.925,232.187 312.5,232.5C 304.66,233.002 298.827,236.669 295,243.5C 294.609,248.854 294.109,254.188 293.5,259.5C 296.228,261.93 298.895,263.93 301.5,265.5C 299.973,265.427 298.973,266.094 298.5,267.5C 297.833,267.5 297.5,267.833 297.5,268.5C 296.715,270.374 296.048,272.374 295.5,274.5C 294.735,275.66 293.735,276.66 292.5,277.5C 291.399,274.365 290.399,271.198 289.5,268C 289.482,265.621 290.149,263.454 291.5,261.5C 290.146,260.146 288.812,258.812 287.5,257.5C 288.513,249.796 289.846,242.129 291.5,234.5C 291.531,231.041 292.198,227.708 293.5,224.5C 292.833,223.5 292.167,222.5 291.5,221.5C 292.167,221.167 292.833,220.833 293.5,220.5C 307.831,219.991 321.998,218.658 336,216.5C 341.805,217.769 347.472,219.436 353,221.5C 353.95,220.978 354.784,220.311 355.5,219.5C 357.042,220.747 358.542,220.747 360,219.5C 361.783,223.245 362.616,227.245 362.5,231.5 Z"/></g>
<g><path style="opacity:1" fill="#180416" d="M 175.5,223.5 C 177.167,223.5 178.833,223.5 180.5,223.5C 188.528,223.169 196.528,223.502 204.5,224.5C 210.346,226.981 216.346,229.148 222.5,231C 223.5,232.667 224.833,234 226.5,235C 229.923,236.201 233.256,237.701 236.5,239.5C 239.465,240.412 242.465,240.412 245.5,239.5C 245.806,242.385 245.473,245.052 244.5,247.5C 244.5,245.5 244.5,243.5 244.5,241.5C 241.545,242.159 238.545,242.492 235.5,242.5C 232.729,242.579 230.063,242.079 227.5,241C 227.833,240.667 228.167,240.333 228.5,240C 218.999,235.17 209.166,231.003 199,227.5C 191.606,229.021 184.106,230.188 176.5,231C 175.675,232.688 174.675,232.855 173.5,231.5C 171.889,232.32 171.222,233.654 171.5,235.5C 168.433,235.121 167.433,236.121 168.5,238.5C 167.708,239.967 167.708,241.3 168.5,242.5C 171.91,243.608 175.243,244.774 178.5,246C 177.5,246.333 176.5,246.667 175.5,247C 178.688,248.383 181.854,248.549 185,247.5C 185.167,247.833 185.333,248.167 185.5,248.5C 183.947,249.439 182.613,250.606 181.5,252C 181.667,252.5 181.833,253 182,253.5C 185.11,252.327 185.277,252.827 182.5,255C 186.282,255.934 186.115,256.768 182,257.5C 180.674,257.245 179.674,256.578 179,255.5C 177.75,256.573 176.416,256.573 175,255.5C 173.131,256.369 172.631,257.535 173.5,259C 170.54,260.957 167.874,263.124 165.5,265.5C 164.797,261.879 166.13,258.879 169.5,256.5C 168.073,253.467 168.406,250.634 170.5,248C 168.615,245.063 166.282,242.563 163.5,240.5C 165.002,233.736 169.002,229.07 175.5,226.5C 175.376,225.893 175.043,225.56 174.5,225.5C 174.833,224.833 175.167,224.167 175.5,223.5 Z"/></g>
<g><path style="opacity:1" fill="#1c051a" d="M 235.5,242.5 C 233.833,243.167 232.167,243.833 230.5,244.5C 228.409,244.318 226.409,244.652 224.5,245.5C 223.784,244.689 222.95,244.022 222,243.5C 218.526,245.103 215.026,246.269 211.5,247C 212.667,245.167 214.167,243.667 216,242.5C 216.483,241.552 216.649,240.552 216.5,239.5C 211.884,240.557 208.551,239.057 206.5,235C 204.2,234.342 201.867,233.842 199.5,233.5C 194.996,234.793 190.496,234.793 186,233.5C 179.39,233.87 173.556,235.536 168.5,238.5C 167.433,236.121 168.433,235.121 171.5,235.5C 171.222,233.654 171.889,232.32 173.5,231.5C 174.675,232.855 175.675,232.688 176.5,231C 184.106,230.188 191.606,229.021 199,227.5C 209.166,231.003 218.999,235.17 228.5,240C 228.167,240.333 227.833,240.667 227.5,241C 230.063,242.079 232.729,242.579 235.5,242.5 Z"/></g>
<g><path style="opacity:1" fill="#638697" d="M 386.5,223.5 C 387.408,231.531 386.075,239.365 382.5,247C 382.833,247.333 383.167,247.667 383.5,248C 381.233,249.081 381.066,250.581 383,252.5C 383.333,256.833 383.667,261.167 384,265.5C 388.864,263.809 391.697,260.476 392.5,255.5C 391.022,255.762 389.689,255.429 388.5,254.5C 390.5,249.833 392.5,245.167 394.5,240.5C 392.851,239.852 391.518,238.852 390.5,237.5C 393.794,232.12 395.794,232.787 396.5,239.5C 397.5,239.5 398.5,239.5 399.5,239.5C 399.335,236.15 399.502,232.817 400,229.5C 404.864,231.191 407.697,234.524 408.5,239.5C 410.167,239.5 411.833,239.5 413.5,239.5C 414.614,244.629 415.281,244.629 415.5,239.5C 416.5,239.5 417.5,239.5 418.5,239.5C 418.496,241.842 417.663,243.842 416,245.5C 415.333,252.167 415.333,258.833 416,265.5C 417.667,264.5 419.333,263.5 421,262.5C 421.167,263 421.333,263.5 421.5,264C 419.644,266.36 417.977,268.86 416.5,271.5C 415.343,274.784 415.176,278.118 416,281.5C 419.652,278.267 421.152,278.767 420.5,283C 422.628,284.631 423.961,286.798 424.5,289.5C 426.535,287.088 427.535,287.755 427.5,291.5C 426.461,299.816 426.294,308.149 427,316.5C 430.427,318.833 429.927,320 425.5,320C 426.984,321.574 428.651,322.907 430.5,324C 429.191,325.751 429.525,327.251 431.5,328.5C 427.15,328.878 425.483,331.211 426.5,335.5C 425.5,335.5 424.5,335.5 423.5,335.5C 423.5,340.833 423.5,346.167 423.5,351.5C 424.833,351.5 426.167,351.5 427.5,351.5C 427.5,356.833 427.5,362.167 427.5,367.5C 426.167,367.5 424.833,367.5 423.5,367.5C 423.5,372.833 423.5,378.167 423.5,383.5C 420.833,383.5 418.167,383.5 415.5,383.5C 415.276,390.002 415.776,396.336 417,402.5C 413.613,404.112 410.446,406.112 407.5,408.5C 404.914,409.48 402.247,409.813 399.5,409.5C 399.917,412.079 399.25,414.246 397.5,416C 399.211,417.133 399.711,418.633 399,420.5C 395.234,416.201 393.068,416.535 392.5,421.5C 391.808,420.975 391.308,420.308 391,419.5C 388.618,420.554 386.118,421.221 383.5,421.5C 383.5,417.833 383.5,414.167 383.5,410.5C 381.533,410.739 379.699,410.406 378,409.5C 375.274,405.085 372.94,400.418 371,395.5C 369.615,396.551 368.615,397.884 368,399.5C 367.501,403.486 367.334,407.486 367.5,411.5C 366.542,411.953 365.708,412.619 365,413.5C 364.632,412.09 363.799,411.09 362.5,410.5C 361.548,412.045 361.215,413.712 361.5,415.5C 362.675,415.281 363.675,415.614 364.5,416.5C 362.205,418.2 360.872,420.534 360.5,423.5C 359.23,422.438 358.063,421.438 357,420.5C 355.621,414.654 357.455,409.821 362.5,406C 361.623,403.085 360.957,400.085 360.5,397C 361.851,387.028 363.518,377.194 365.5,367.5C 365.697,358.43 365.697,349.43 365.5,340.5C 366.276,335.014 366.943,329.514 367.5,324C 366.879,311.991 366.212,299.991 365.5,288C 366.151,285.496 367.818,284.163 370.5,284C 371.701,283.097 372.535,281.931 373,280.5C 373.333,280.833 373.667,281.167 374,281.5C 374.606,278.287 375.773,275.287 377.5,272.5C 377.069,271.707 376.735,270.873 376.5,270C 376.788,264.727 377.788,259.727 379.5,255C 378.549,251.943 378.216,248.777 378.5,245.5C 378.5,245.167 378.5,244.833 378.5,244.5C 381.299,237.711 383.966,230.711 386.5,223.5 Z"/></g>
<g><path style="opacity:1" fill="#5e3547" d="M 361.5,231.5 C 360.833,231.833 360.167,232.167 359.5,232.5C 360.032,229.54 360.699,229.207 361.5,231.5 Z"/></g>
<g><path style="opacity:1" fill="#0f040e" d="M 175.5,223.5 C 175.167,224.167 174.833,224.833 174.5,225.5C 172.801,225.34 171.134,225.506 169.5,226C 167.299,229.535 164.465,232.368 161,234.5C 159.75,237.077 159.416,239.743 160,242.5C 165.941,244.11 166.775,246.943 162.5,251C 162.833,251.333 163.167,251.667 163.5,252C 162.241,252.923 160.908,253.757 159.5,254.5C 163.375,255.486 163.375,256.653 159.5,258C 162.028,259.017 162.028,260.184 159.5,261.5C 162.781,263.588 162.948,265.588 160,267.5C 159.667,266.5 159.333,265.5 159,264.5C 158.667,264.833 158.333,265.167 158,265.5C 157.799,268.753 156.966,271.753 155.5,274.5C 152.677,275.385 152.01,277.052 153.5,279.5C 149.736,278.615 148.736,276.448 150.5,273C 149.833,272.667 149.167,272.333 148.5,272C 149.428,271.612 150.095,270.945 150.5,270C 149.458,267.463 148.125,265.129 146.5,263C 147.059,262.275 147.392,261.442 147.5,260.5C 146.135,257.2 145.135,253.867 144.5,250.5C 144.586,249.504 144.252,248.671 143.5,248C 144.956,245.734 145.79,243.234 146,240.5C 147.356,239.62 148.856,239.286 150.5,239.5C 150.98,236.995 151.98,234.662 153.5,232.5C 156.642,231.218 157.975,228.885 157.5,225.5C 163.409,224.201 169.409,223.535 175.5,223.5 Z"/></g>
<g><path style="opacity:1" fill="#140817" d="M 358.5,233.5 C 358.167,236.167 357.833,238.833 357.5,241.5C 356.518,244.962 356.185,248.629 356.5,252.5C 356.167,252.5 355.833,252.5 355.5,252.5C 354.679,249.359 354.179,246.025 354,242.5C 352.984,241.366 352.317,241.699 352,243.5C 351.316,241.521 351.816,239.854 353.5,238.5C 352.975,237.808 352.308,237.308 351.5,237C 342.14,235.576 332.64,235.076 323,235.5C 320.841,236.155 319.341,237.488 318.5,239.5C 314.894,239.789 311.394,239.456 308,238.5C 301.744,243.201 302.578,246.368 310.5,248C 307.342,250.166 304.175,252.333 301,254.5C 298.513,258.43 299.013,260.763 302.5,261.5C 304.175,263.456 303.842,264.789 301.5,265.5C 298.895,263.93 296.228,261.93 293.5,259.5C 294.109,254.188 294.609,248.854 295,243.5C 298.827,236.669 304.66,233.002 312.5,232.5C 324.925,232.187 337.425,232.52 350,233.5C 352.352,233.695 354.352,233.028 356,231.5C 356.708,232.381 357.542,233.047 358.5,233.5 Z"/></g>
<g><path style="opacity:1" fill="#1b0b1f" d="M 355.5,252.5 C 355.67,253.822 355.337,254.989 354.5,256C 352.618,256.198 350.952,256.698 349.5,257.5C 338.915,259.207 328.249,260.707 317.5,262C 311.36,264.617 305.026,266.451 298.5,267.5C 298.973,266.094 299.973,265.427 301.5,265.5C 303.842,264.789 304.175,263.456 302.5,261.5C 307.794,259.749 313.127,258.082 318.5,256.5C 319.167,255.167 319.833,253.833 320.5,252.5C 324.244,254.872 327.911,254.705 331.5,252C 328.236,249.969 324.903,248.803 321.5,248.5C 320.833,247.833 320.167,247.167 319.5,246.5C 320.5,245.667 321.5,244.833 322.5,244C 320.356,243.208 319.023,241.708 318.5,239.5C 319.341,237.488 320.841,236.155 323,235.5C 332.64,235.076 342.14,235.576 351.5,237C 352.308,237.308 352.975,237.808 353.5,238.5C 351.816,239.854 351.316,241.521 352,243.5C 352.317,241.699 352.984,241.366 354,242.5C 354.179,246.025 354.679,249.359 355.5,252.5 Z"/></g>
<g><path style="opacity:1" fill="#150a1c" d="M 318.5,239.5 C 319.023,241.708 320.356,243.208 322.5,244C 321.5,244.833 320.5,245.667 319.5,246.5C 320.167,247.167 320.833,247.833 321.5,248.5C 324.903,248.803 328.236,249.969 331.5,252C 327.911,254.705 324.244,254.872 320.5,252.5C 319.833,253.833 319.167,255.167 318.5,256.5C 313.127,258.082 307.794,259.749 302.5,261.5C 299.013,260.763 298.513,258.43 301,254.5C 304.175,252.333 307.342,250.166 310.5,248C 302.578,246.368 301.744,243.201 308,238.5C 311.394,239.456 314.894,239.789 318.5,239.5 Z"/></g>
<g><path style="opacity:1" fill="#658291" d="M 112.5,191.5 C 113.222,192.551 114.222,193.218 115.5,193.5C 117.18,196.86 118.847,200.193 120.5,203.5C 123.297,213.099 125.297,222.932 126.5,233C 126.333,236.167 126.167,239.333 126,242.5C 122.989,245.837 121.489,249.837 121.5,254.5C 117.298,254.183 113.298,254.517 109.5,255.5C 107.184,256.422 105.517,258.089 104.5,260.5C 103.836,263.146 103.502,265.979 103.5,269C 104.953,276.72 105.62,284.554 105.5,292.5C 105.5,293.833 105.5,295.167 105.5,296.5C 104.732,297.263 104.232,298.263 104,299.5C 103.267,309.86 103.433,320.194 104.5,330.5C 103.097,326.934 102.097,323.267 101.5,319.5C 100.842,318.602 100.176,317.602 99.5,316.5C 98.6764,319.785 98.1764,323.118 98,326.5C 97.5,326 97,325.5 96.5,325C 96.3805,317.686 96.7139,310.353 97.5,303C 96.1409,297.961 95.4742,292.795 95.5,287.5C 94.5,287.5 93.5,287.5 92.5,287.5C 92.2317,284.881 92.565,282.381 93.5,280C 91.8934,278.951 91.2267,277.451 91.5,275.5C 92.8333,275.5 94.1667,275.5 95.5,275.5C 95.5499,273.41 94.5499,272.077 92.5,271.5C 91.5052,266.208 91.1718,260.875 91.5,255.5C 92.8333,255.5 94.1667,255.5 95.5,255.5C 94.6971,251.831 95.8638,249.164 99,247.5C 102.061,248.943 104.561,248.276 106.5,245.5C 110.708,245.823 114.208,244.489 117,241.5C 121.217,242.617 122.717,241.117 121.5,237C 123.786,230.943 123.953,224.776 122,218.5C 121.635,214.711 120.135,211.544 117.5,209C 118.33,207.535 118.496,206.035 118,204.5C 116.606,202.309 115.106,200.975 113.5,200.5C 113.709,199.914 114.043,199.414 114.5,199C 113.446,196.618 112.779,194.118 112.5,191.5 Z"/></g>
<g><path style="opacity:1" fill="#220a20" d="M 230.5,244.5 C 230.918,245.222 231.584,245.722 232.5,246C 229.921,247.076 228.254,248.909 227.5,251.5C 225.427,256.877 221.427,259.211 215.5,258.5C 214.192,257.768 212.858,256.934 211.5,256C 204.808,255.169 198.142,255.336 191.5,256.5C 185.322,258.641 178.989,260.474 172.5,262C 169.622,263.716 167.288,265.883 165.5,268.5C 163.5,269.5 161.5,270.5 159.5,271.5C 160.95,269.077 162.95,267.077 165.5,265.5C 167.874,263.124 170.54,260.957 173.5,259C 172.631,257.535 173.131,256.369 175,255.5C 176.416,256.573 177.75,256.573 179,255.5C 179.674,256.578 180.674,257.245 182,257.5C 186.115,256.768 186.282,255.934 182.5,255C 185.277,252.827 185.11,252.327 182,253.5C 181.833,253 181.667,252.5 181.5,252C 182.613,250.606 183.947,249.439 185.5,248.5C 185.333,248.167 185.167,247.833 185,247.5C 181.854,248.549 178.688,248.383 175.5,247C 176.5,246.667 177.5,246.333 178.5,246C 175.243,244.774 171.91,243.608 168.5,242.5C 167.708,241.3 167.708,239.967 168.5,238.5C 173.556,235.536 179.39,233.87 186,233.5C 190.496,234.793 194.996,234.793 199.5,233.5C 201.867,233.842 204.2,234.342 206.5,235C 208.551,239.057 211.884,240.557 216.5,239.5C 216.649,240.552 216.483,241.552 216,242.5C 214.167,243.667 212.667,245.167 211.5,247C 215.026,246.269 218.526,245.103 222,243.5C 222.95,244.022 223.784,244.689 224.5,245.5C 226.409,244.652 228.409,244.318 230.5,244.5 Z"/></g>
<g><path style="opacity:1" fill="#2c1521" d="M 244.5,247.5 C 243.735,250.096 243.401,252.763 243.5,255.5C 240.082,261.493 237.415,267.826 235.5,274.5C 235.5,273.5 235.5,272.5 235.5,271.5C 234.296,268.402 234.629,265.402 236.5,262.5C 235.653,261.155 234.487,260.155 233,259.5C 233.128,256.514 233.128,253.514 233,250.5C 230.924,249.243 229.09,249.576 227.5,251.5C 228.254,248.909 229.921,247.076 232.5,246C 231.584,245.722 230.918,245.222 230.5,244.5C 232.167,243.833 233.833,243.167 235.5,242.5C 238.545,242.492 241.545,242.159 244.5,241.5C 244.5,243.5 244.5,245.5 244.5,247.5 Z"/></g>
<g><path style="opacity:1" fill="#808598" d="M 361.5,231.5 C 361.833,231.5 362.167,231.5 362.5,231.5C 363.795,244.852 363.795,258.186 362.5,271.5C 361.542,271.953 360.708,272.619 360,273.5C 359.692,272.692 359.192,272.025 358.5,271.5C 357.501,261.522 357.168,251.522 357.5,241.5C 357.833,238.833 358.167,236.167 358.5,233.5C 359.167,233.5 359.5,233.167 359.5,232.5C 360.167,232.167 360.833,231.833 361.5,231.5 Z"/></g>
<g><path style="opacity:1" fill="#170714" d="M 174.5,225.5 C 175.043,225.56 175.376,225.893 175.5,226.5C 169.002,229.07 165.002,233.736 163.5,240.5C 166.282,242.563 168.615,245.063 170.5,248C 168.406,250.634 168.073,253.467 169.5,256.5C 166.13,258.879 164.797,261.879 165.5,265.5C 162.95,267.077 160.95,269.077 159.5,271.5C 158.965,273.446 157.632,274.446 155.5,274.5C 156.966,271.753 157.799,268.753 158,265.5C 158.333,265.167 158.667,264.833 159,264.5C 159.333,265.5 159.667,266.5 160,267.5C 162.948,265.588 162.781,263.588 159.5,261.5C 162.028,260.184 162.028,259.017 159.5,258C 163.375,256.653 163.375,255.486 159.5,254.5C 160.908,253.757 162.241,252.923 163.5,252C 163.167,251.667 162.833,251.333 162.5,251C 166.775,246.943 165.941,244.11 160,242.5C 159.416,239.743 159.75,237.077 161,234.5C 164.465,232.368 167.299,229.535 169.5,226C 171.134,225.506 172.801,225.34 174.5,225.5 Z"/></g>
<g><path style="opacity:1" fill="#090402" d="M 291.5,234.5 C 289.846,242.129 288.513,249.796 287.5,257.5C 287.157,259.225 286.157,259.725 284.5,259C 283.594,257.301 283.261,255.467 283.5,253.5C 281.508,253.328 279.842,253.995 278.5,255.5C 277.185,253.684 275.685,252.017 274,250.5C 273.365,251.966 272.531,253.3 271.5,254.5C 267.519,255.061 263.686,256.061 260,257.5C 258.56,256.852 257.06,256.519 255.5,256.5C 256.112,260.876 254.946,261.543 252,258.5C 249.544,263.836 247.211,269.169 245,274.5C 242.624,275.376 241.124,277.042 240.5,279.5C 237.864,280.971 235.364,282.637 233,284.5C 230.334,282.013 227.834,282.013 225.5,284.5C 225.977,285.478 226.643,286.311 227.5,287C 224.238,286.624 220.905,286.124 217.5,285.5C 208.451,286.48 199.618,287.813 191,289.5C 186.109,287.532 181.275,287.532 176.5,289.5C 171.106,289.45 165.773,289.45 160.5,289.5C 159.348,292.106 159.182,294.773 160,297.5C 162.579,298.369 164.412,300.035 165.5,302.5C 167.396,303.466 169.396,303.799 171.5,303.5C 171.729,308.978 172.729,314.311 174.5,319.5C 175.194,316.403 176.194,316.069 177.5,318.5C 180.167,319.167 182.833,319.833 185.5,320.5C 186.369,322.868 188.035,324.368 190.5,325C 191.456,328.394 191.789,331.894 191.5,335.5C 194.167,335.5 196.833,335.5 199.5,335.5C 198.61,340.741 200.777,343.408 206,343.5C 209.54,341.177 213.54,339.843 218,339.5C 224.055,340.37 230.055,342.37 236,345.5C 237.261,345.241 238.261,344.574 239,343.5C 244.093,345.868 249.427,347.868 255,349.5C 259.687,346.7 264.853,345.2 270.5,345C 269.167,344.333 267.833,343.667 266.5,343C 268.382,342.802 270.048,342.302 271.5,341.5C 271.5,339.5 271.5,337.5 271.5,335.5C 275.603,336.231 279.103,335.231 282,332.5C 285.833,334.274 289.667,335.94 293.5,337.5C 293.703,342.036 296.036,344.702 300.5,345.5C 300.5,344.5 300.5,343.5 300.5,342.5C 301.5,342.5 302.5,342.5 303.5,342.5C 307.209,348.306 310.209,354.639 312.5,361.5C 317.907,362.255 320.24,359.755 319.5,354C 318.908,350.745 318.908,347.578 319.5,344.5C 317.728,342.059 316.394,339.392 315.5,336.5C 320.131,335.338 324.798,335.172 329.5,336C 330.071,337.205 330.738,338.372 331.5,339.5C 333.235,340.057 334.902,340.39 336.5,340.5C 338.233,336.246 336.9,333.58 332.5,332.5C 334.347,328.436 335.347,324.102 335.5,319.5C 337.833,319.5 340.167,319.5 342.5,319.5C 342.472,317.418 343.139,315.584 344.5,314C 343.5,313.333 342.5,313.333 341.5,314C 339.972,315.361 338.305,316.528 336.5,317.5C 329.939,313.045 327.939,307.211 330.5,300C 325.388,297.656 320.221,295.489 315,293.5C 312.73,294.86 310.23,295.527 307.5,295.5C 307.719,299.527 306.552,300.194 304,297.5C 303.749,295.567 303.249,293.734 302.5,292C 303.916,290.085 303.582,288.585 301.5,287.5C 300.074,284.701 300.408,282.034 302.5,279.5C 302.833,279.5 303.167,279.5 303.5,279.5C 305.685,279.888 307.518,280.888 309,282.5C 309.772,282.355 310.439,282.022 311,281.5C 320.243,283.294 329.743,284.127 339.5,284C 331.141,285.394 322.807,286.727 314.5,288C 317.098,291.094 318.765,290.928 319.5,287.5C 322.045,287.151 324.045,287.984 325.5,290C 330.5,290.333 335.5,290.667 340.5,291C 340,291.5 339.5,292 339,292.5C 337.817,291.269 336.651,291.269 335.5,292.5C 340.833,293.833 346.167,295.167 351.5,296.5C 352.214,298.811 353.214,300.978 354.5,303C 353.341,307.119 353.341,311.286 354.5,315.5C 356.307,329.101 356.474,342.768 355,356.5C 351.964,367.25 350.631,378.25 351,389.5C 349.22,390.639 347.386,391.639 345.5,392.5C 345.665,389.482 345.498,386.482 345,383.5C 343.763,388.404 340.763,391.738 336,393.5C 335.502,390.183 335.335,386.85 335.5,383.5C 336.833,383.5 338.167,383.5 339.5,383.5C 339.813,380.753 339.48,378.086 338.5,375.5C 336.915,378.272 335.915,378.106 335.5,375C 336.675,372.509 336.675,370.009 335.5,367.5C 332.167,367.5 328.833,367.5 325.5,367.5C 325.703,369.39 325.037,370.89 323.5,372C 318.246,373.271 312.913,373.771 307.5,373.5C 307.67,372.178 307.337,371.011 306.5,370C 303.746,368.079 300.746,367.412 297.5,368C 295.652,374.025 291.652,376.525 285.5,375.5C 285.723,372.886 284.556,371.219 282,370.5C 276.033,374.894 269.867,378.894 263.5,382.5C 260.914,383.48 258.247,383.813 255.5,383.5C 255.5,380.833 255.5,378.167 255.5,375.5C 247.977,376.073 240.644,375.24 233.5,373C 228.641,367.986 222.641,365.32 215.5,365C 218.167,364.667 220.833,364.333 223.5,364C 216.409,362.751 209.742,363.917 203.5,367.5C 199.345,362.163 194.345,359.829 188.5,360.5C 183.985,356.761 179.818,357.428 176,362.5C 172.219,361.266 168.386,361.266 164.5,362.5C 162.62,362.075 161.12,361.075 160,359.5C 158.263,360.62 156.429,361.62 154.5,362.5C 152.819,366.955 150.986,371.289 149,375.5C 148.503,378.146 148.336,380.813 148.5,383.5C 152.167,383.5 155.833,383.5 159.5,383.5C 159.832,395.851 159.499,408.185 158.5,420.5C 155.578,423.599 154.245,427.265 154.5,431.5C 156.924,431.192 159.257,431.526 161.5,432.5C 158.956,434.611 158.956,436.778 161.5,439C 161.276,447.761 164.11,455.594 170,462.5C 171.149,465.393 171.649,468.393 171.5,471.5C 172.833,471.5 174.167,471.5 175.5,471.5C 176.41,474.789 177.41,478.122 178.5,481.5C 182.977,485.498 187.143,489.832 191,494.5C 193.139,493.231 195.305,493.231 197.5,494.5C 195.604,495.466 193.604,495.799 191.5,495.5C 191.244,497.792 191.577,499.959 192.5,502C 195.38,502.684 198.213,502.517 201,501.5C 204.038,502.545 204.038,503.878 201,505.5C 197.944,506.077 194.944,506.743 192,507.5C 184,506.833 176,506.167 168,505.5C 166.6,506.116 165.1,506.449 163.5,506.5C 157.069,505.214 150.736,503.547 144.5,501.5C 143.914,501.709 143.414,502.043 143,502.5C 141.868,500.661 141.035,498.661 140.5,496.5C 139.675,495.614 138.675,495.281 137.5,495.5C 137.5,484.833 137.5,474.167 137.5,463.5C 136.5,463.5 135.5,463.5 134.5,463.5C 134.248,468.385 134.581,473.219 135.5,478C 133.621,482.793 132.121,482.627 131,477.5C 130.501,472.845 130.334,468.179 130.5,463.5C 131.302,464.952 131.802,466.618 132,468.5C 132.744,464.273 133.578,460.106 134.5,456C 134.513,446.22 134.346,436.386 134,426.5C 134.419,425.328 135.085,424.328 136,423.5C 136.986,425.778 137.82,428.111 138.5,430.5C 137.675,431.386 136.675,431.719 135.5,431.5C 135.5,436.833 135.5,442.167 135.5,447.5C 136.833,447.5 138.167,447.5 139.5,447.5C 138.917,437.657 139.917,427.99 142.5,418.5C 142.122,416.865 141.456,415.365 140.5,414C 141.536,410.879 141.703,407.713 141,404.5C 134.426,393.83 131.593,382.164 132.5,369.5C 134.142,360.606 133.808,351.606 131.5,342.5C 132.167,341.5 132.833,340.5 133.5,339.5C 132.833,339.167 132.167,338.833 131.5,338.5C 133.058,335.895 132.725,333.562 130.5,331.5C 130.898,326.677 130.898,321.677 130.5,316.5C 131.167,306.161 132,295.828 133,285.5C 134.578,282.343 135.578,279.009 136,275.5C 138.945,273.816 139.112,271.983 136.5,270C 137.611,266.945 139.111,264.112 141,261.5C 141.973,263.392 142.64,265.392 143,267.5C 143.445,261.82 143.945,256.154 144.5,250.5C 145.135,253.867 146.135,257.2 147.5,260.5C 147.392,261.442 147.059,262.275 146.5,263C 148.125,265.129 149.458,267.463 150.5,270C 150.095,270.945 149.428,271.612 148.5,272C 149.167,272.333 149.833,272.667 150.5,273C 148.736,276.448 149.736,278.615 153.5,279.5C 153.833,279.5 154.167,279.5 154.5,279.5C 173.03,280.176 191.697,281.176 210.5,282.5C 212.867,282.158 215.2,281.658 217.5,281C 216.167,280.667 214.833,280.333 213.5,280C 218.661,279.268 223.661,278.434 228.5,277.5C 231.346,277.448 233.68,276.448 235.5,274.5C 237.415,267.826 240.082,261.493 243.5,255.5C 243.986,257.807 243.986,259.973 243.5,262C 244.448,262.483 245.448,262.649 246.5,262.5C 246.579,261.07 246.246,259.736 245.5,258.5C 246.167,258.167 246.833,257.833 247.5,257.5C 247.291,256.914 246.957,256.414 246.5,256C 250.175,249.102 253.175,241.935 255.5,234.5C 258.126,233.045 260.626,231.378 263,229.5C 266.201,230.791 269.201,232.457 272,234.5C 272.333,234.167 272.667,233.833 273,233.5C 275.47,235.438 278.304,236.604 281.5,237C 282.22,239.122 283.387,239.622 285,238.5C 285.497,236.19 285.663,233.857 285.5,231.5C 287.167,231.5 288.833,231.5 290.5,231.5C 290.263,232.791 290.596,233.791 291.5,234.5 Z"/></g>
<g><path style="opacity:1" fill="#0f0501" d="M 287.5,257.5 C 288.812,258.812 290.146,260.146 291.5,261.5C 290.149,263.454 289.482,265.621 289.5,268C 290.399,271.198 291.399,274.365 292.5,277.5C 293.735,276.66 294.735,275.66 295.5,274.5C 295.919,279.396 296.586,284.229 297.5,289C 297.145,293.89 296.478,298.724 295.5,303.5C 297.766,303.859 299.599,303.192 301,301.5C 301.499,296.845 301.666,292.179 301.5,287.5C 303.582,288.585 303.916,290.085 302.5,292C 303.249,293.734 303.749,295.567 304,297.5C 306.552,300.194 307.719,299.527 307.5,295.5C 310.23,295.527 312.73,294.86 315,293.5C 320.221,295.489 325.388,297.656 330.5,300C 327.939,307.211 329.939,313.045 336.5,317.5C 338.305,316.528 339.972,315.361 341.5,314C 342.5,313.333 343.5,313.333 344.5,314C 343.139,315.584 342.472,317.418 342.5,319.5C 340.167,319.5 337.833,319.5 335.5,319.5C 335.347,324.102 334.347,328.436 332.5,332.5C 336.9,333.58 338.233,336.246 336.5,340.5C 334.902,340.39 333.235,340.057 331.5,339.5C 330.738,338.372 330.071,337.205 329.5,336C 324.798,335.172 320.131,335.338 315.5,336.5C 316.394,339.392 317.728,342.059 319.5,344.5C 318.908,347.578 318.908,350.745 319.5,354C 320.24,359.755 317.907,362.255 312.5,361.5C 310.209,354.639 307.209,348.306 303.5,342.5C 302.5,342.5 301.5,342.5 300.5,342.5C 300.5,343.5 300.5,344.5 300.5,345.5C 296.036,344.702 293.703,342.036 293.5,337.5C 294.376,337.631 295.043,337.298 295.5,336.5C 294.438,333.897 294.272,331.23 295,328.5C 297.465,322.406 300.298,316.572 303.5,311C 302.874,310.25 302.374,309.416 302,308.5C 300.853,309.458 299.853,309.125 299,307.5C 294.509,310.921 291.342,310.088 289.5,305C 290.353,302.867 290.686,300.867 290.5,299C 288.294,296.791 287.96,294.291 289.5,291.5C 289.154,290.304 288.654,290.304 288,291.5C 287.51,290.207 287.343,288.873 287.5,287.5C 284.5,287.5 281.5,287.5 278.5,287.5C 277.89,281.579 274.89,277.579 269.5,275.5C 267.595,276.065 265.929,277.065 264.5,278.5C 262.837,277.125 261.503,277.458 260.5,279.5C 259.52,282.086 259.187,284.753 259.5,287.5C 258.167,287.5 256.833,287.5 255.5,287.5C 255.234,291.571 255.567,295.571 256.5,299.5C 255.833,302.833 253.833,304.167 250.5,303.5C 250.5,304.5 250.5,305.5 250.5,306.5C 249.5,306.5 248.5,306.5 247.5,306.5C 247.74,303.421 247.407,300.421 246.5,297.5C 241.583,294.268 238.583,295.602 237.5,301.5C 239.313,307.342 239.98,313.342 239.5,319.5C 242.898,319.858 246.065,319.192 249,317.5C 250.879,319.013 253.046,319.679 255.5,319.5C 255.5,320.833 255.5,322.167 255.5,323.5C 266.146,323.671 266.146,324.171 255.5,325C 266.146,325.829 266.146,326.329 255.5,326.5C 255.859,328.766 255.192,330.599 253.5,332C 256.468,333.322 259.468,334.489 262.5,335.5C 263.342,340.375 266.342,342.375 271.5,341.5C 270.048,342.302 268.382,342.802 266.5,343C 267.833,343.667 269.167,344.333 270.5,345C 264.853,345.2 259.687,346.7 255,349.5C 249.427,347.868 244.093,345.868 239,343.5C 238.261,344.574 237.261,345.241 236,345.5C 230.055,342.37 224.055,340.37 218,339.5C 213.54,339.843 209.54,341.177 206,343.5C 200.777,343.408 198.61,340.741 199.5,335.5C 196.833,335.5 194.167,335.5 191.5,335.5C 191.789,331.894 191.456,328.394 190.5,325C 188.035,324.368 186.369,322.868 185.5,320.5C 182.833,319.833 180.167,319.167 177.5,318.5C 176.194,316.069 175.194,316.403 174.5,319.5C 172.729,314.311 171.729,308.978 171.5,303.5C 169.396,303.799 167.396,303.466 165.5,302.5C 164.412,300.035 162.579,298.369 160,297.5C 159.182,294.773 159.348,292.106 160.5,289.5C 165.773,289.45 171.106,289.45 176.5,289.5C 181.275,287.532 186.109,287.532 191,289.5C 199.618,287.813 208.451,286.48 217.5,285.5C 220.905,286.124 224.238,286.624 227.5,287C 226.643,286.311 225.977,285.478 225.5,284.5C 227.834,282.013 230.334,282.013 233,284.5C 235.364,282.637 237.864,280.971 240.5,279.5C 241.124,277.042 242.624,275.376 245,274.5C 247.211,269.169 249.544,263.836 252,258.5C 254.946,261.543 256.112,260.876 255.5,256.5C 257.06,256.519 258.56,256.852 260,257.5C 263.686,256.061 267.519,255.061 271.5,254.5C 272.531,253.3 273.365,251.966 274,250.5C 275.685,252.017 277.185,253.684 278.5,255.5C 279.842,253.995 281.508,253.328 283.5,253.5C 283.261,255.467 283.594,257.301 284.5,259C 286.157,259.725 287.157,259.225 287.5,257.5 Z"/></g>
<g><path style="opacity:1" fill="#391929" d="M 235.5,271.5 C 227.756,273.775 219.756,274.775 211.5,274.5C 212.167,273.833 212.833,273.167 213.5,272.5C 217.107,272.175 217.774,271.008 215.5,269C 215.833,268.667 216.167,268.333 216.5,268C 213.692,265.334 211.359,263 209.5,261C 207.389,260.155 205.389,259.322 203.5,258.5C 207.601,259.366 211.601,259.366 215.5,258.5C 221.427,259.211 225.427,256.877 227.5,251.5C 229.09,249.576 230.924,249.243 233,250.5C 233.128,253.514 233.128,256.514 233,259.5C 234.487,260.155 235.653,261.155 236.5,262.5C 234.629,265.402 234.296,268.402 235.5,271.5 Z"/></g>
<g><path style="opacity:1" fill="#384048" d="M 127.5,245.5 C 127.384,248.86 127.051,252.193 126.5,255.5C 124.122,258.143 121.788,258.143 119.5,255.5C 121.288,255.785 122.955,255.452 124.5,254.5C 125.635,251.418 126.635,248.418 127.5,245.5 Z"/></g>
<g><path style="opacity:1" fill="#300f26" d="M 215.5,258.5 C 211.601,259.366 207.601,259.366 203.5,258.5C 196.47,257.966 189.803,258.966 183.5,261.5C 180.834,261.933 178.168,262.433 175.5,263C 172.26,265.091 168.926,266.924 165.5,268.5C 167.288,265.883 169.622,263.716 172.5,262C 178.989,260.474 185.322,258.641 191.5,256.5C 198.142,255.336 204.808,255.169 211.5,256C 212.858,256.934 214.192,257.768 215.5,258.5 Z"/></g>
<g><path style="opacity:1" fill="#4b3146" d="M 349.5,257.5 C 345.251,260.767 340.751,263.767 336,266.5C 335.885,268.107 336.385,269.607 337.5,271C 337.07,272.434 336.236,273.601 335,274.5C 332.932,273.658 330.765,273.658 328.5,274.5C 324.352,273.338 320.185,272.338 316,271.5C 311.973,272.064 307.806,272.064 303.5,271.5C 302.012,269.155 300.012,268.821 297.5,270.5C 297.5,269.833 297.5,269.167 297.5,268.5C 297.5,267.833 297.833,267.5 298.5,267.5C 305.026,266.451 311.36,264.617 317.5,262C 328.249,260.707 338.915,259.207 349.5,257.5 Z"/></g>
<g><path style="opacity:1" fill="#655d6f" d="M 357.5,241.5 C 357.168,251.522 357.501,261.522 358.5,271.5C 359.192,272.025 359.692,272.692 360,273.5C 360.708,272.619 361.542,271.953 362.5,271.5C 362.371,273.216 362.038,274.883 361.5,276.5C 360.833,276.5 360.167,276.5 359.5,276.5C 358.5,276.5 357.5,276.5 356.5,276.5C 354.904,273.207 353.238,269.874 351.5,266.5C 353.874,263.972 354.874,260.972 354.5,257.5C 356.213,256.365 356.88,254.698 356.5,252.5C 356.185,248.629 356.518,244.962 357.5,241.5 Z"/></g>
<g><path style="opacity:1" fill="#49203a" d="M 203.5,258.5 C 205.389,259.322 207.389,260.155 209.5,261C 211.359,263 213.692,265.334 216.5,268C 216.167,268.333 215.833,268.667 215.5,269C 217.774,271.008 217.107,272.175 213.5,272.5C 211.143,272.663 208.81,272.497 206.5,272C 203.874,269.854 200.874,268.521 197.5,268C 195.859,264.8 193.526,263.966 190.5,265.5C 190.108,263.821 189.608,262.154 189,260.5C 187.301,261.406 185.467,261.739 183.5,261.5C 189.803,258.966 196.47,257.966 203.5,258.5 Z"/></g>
<g><path style="opacity:1" fill="#573b4e" d="M 355.5,252.5 C 355.833,252.5 356.167,252.5 356.5,252.5C 356.88,254.698 356.213,256.365 354.5,257.5C 353.5,257.5 352.5,257.5 351.5,257.5C 350.773,263.084 347.773,265.25 342.5,264C 339.055,267.472 338.555,270.972 341,274.5C 346.319,273.616 351.486,274.283 356.5,276.5C 357.5,276.5 358.5,276.5 359.5,276.5C 357.052,277.473 354.385,277.806 351.5,277.5C 337.666,276.607 323.666,276.607 309.5,277.5C 312.977,276.677 316.644,276.177 320.5,276C 320.167,275.667 319.833,275.333 319.5,275C 314.177,274.501 308.844,274.334 303.5,274.5C 303.5,273.5 303.5,272.5 303.5,271.5C 307.806,272.064 311.973,272.064 316,271.5C 320.185,272.338 324.352,273.338 328.5,274.5C 330.765,273.658 332.932,273.658 335,274.5C 336.236,273.601 337.07,272.434 337.5,271C 336.385,269.607 335.885,268.107 336,266.5C 340.751,263.767 345.251,260.767 349.5,257.5C 350.952,256.698 352.618,256.198 354.5,256C 355.337,254.989 355.67,253.822 355.5,252.5 Z"/></g>
<g><path style="opacity:1" fill="#5e495c" d="M 354.5,257.5 C 354.874,260.972 353.874,263.972 351.5,266.5C 353.238,269.874 354.904,273.207 356.5,276.5C 351.486,274.283 346.319,273.616 341,274.5C 338.555,270.972 339.055,267.472 342.5,264C 347.773,265.25 350.773,263.084 351.5,257.5C 352.5,257.5 353.5,257.5 354.5,257.5 Z"/></g>
<g><path style="opacity:1" fill="#4d2b45" d="M 213.5,272.5 C 212.833,273.167 212.167,273.833 211.5,274.5C 205.907,274.807 200.407,274.473 195,273.5C 193.933,274.191 192.766,274.691 191.5,275C 186.167,275.667 180.833,275.667 175.5,275C 171.831,273.075 171.831,271.408 175.5,270C 178.234,269.79 180.734,268.956 183,267.5C 183.333,267.833 183.667,268.167 184,268.5C 186.294,267.578 188.461,266.578 190.5,265.5C 193.526,263.966 195.859,264.8 197.5,268C 200.874,268.521 203.874,269.854 206.5,272C 208.81,272.497 211.143,272.663 213.5,272.5 Z"/></g>
<g><path style="opacity:1" fill="#55616b" d="M 104.5,260.5 C 104.761,268.373 105.427,276.206 106.5,284C 106.498,287.021 106.164,289.854 105.5,292.5C 105.62,284.554 104.953,276.72 103.5,269C 103.502,265.979 103.836,263.146 104.5,260.5 Z"/></g>
<g><path style="opacity:1" fill="#684653" d="M 303.5,271.5 C 303.5,272.5 303.5,273.5 303.5,274.5C 308.844,274.334 314.177,274.501 319.5,275C 319.833,275.333 320.167,275.667 320.5,276C 316.644,276.177 312.977,276.677 309.5,277.5C 307.901,277.232 306.568,277.566 305.5,278.5C 304.508,278.328 303.842,278.662 303.5,279.5C 303.167,279.5 302.833,279.5 302.5,279.5C 300.857,279.52 299.524,278.853 298.5,277.5C 297.526,275.257 297.192,272.924 297.5,270.5C 300.012,268.821 302.012,269.155 303.5,271.5 Z"/></g>
<g><path style="opacity:1" fill="#512a3c" d="M 190.5,265.5 C 188.461,266.578 186.294,267.578 184,268.5C 183.667,268.167 183.333,267.833 183,267.5C 180.734,268.956 178.234,269.79 175.5,270C 171.831,271.408 171.831,273.075 175.5,275C 180.833,275.667 186.167,275.667 191.5,275C 192.766,274.691 193.933,274.191 195,273.5C 200.407,274.473 205.907,274.807 211.5,274.5C 219.756,274.775 227.756,273.775 235.5,271.5C 235.5,272.5 235.5,273.5 235.5,274.5C 233.68,276.448 231.346,277.448 228.5,277.5C 203.849,278.684 179.182,279.351 154.5,279.5C 154.167,279.5 153.833,279.5 153.5,279.5C 152.01,277.052 152.677,275.385 155.5,274.5C 157.632,274.446 158.965,273.446 159.5,271.5C 161.5,270.5 163.5,269.5 165.5,268.5C 168.926,266.924 172.26,265.091 175.5,263C 178.168,262.433 180.834,261.933 183.5,261.5C 185.467,261.739 187.301,261.406 189,260.5C 189.608,262.154 190.108,263.821 190.5,265.5 Z"/></g>
<g><path style="opacity:1" fill="#301523" d="M 351.5,277.5 C 336.175,278.144 320.842,278.477 305.5,278.5C 306.568,277.566 307.901,277.232 309.5,277.5C 323.666,276.607 337.666,276.607 351.5,277.5 Z"/></g>
<g><path style="opacity:1" fill="#18020a" d="M 228.5,277.5 C 223.661,278.434 218.661,279.268 213.5,280C 214.833,280.333 216.167,280.667 217.5,281C 215.2,281.658 212.867,282.158 210.5,282.5C 191.697,281.176 173.03,280.176 154.5,279.5C 179.182,279.351 203.849,278.684 228.5,277.5 Z"/></g>
<g><path style="opacity:1" fill="#110700" d="M 293.5,337.5 C 289.667,335.94 285.833,334.274 282,332.5C 279.103,335.231 275.603,336.231 271.5,335.5C 271.5,337.5 271.5,339.5 271.5,341.5C 266.342,342.375 263.342,340.375 262.5,335.5C 259.468,334.489 256.468,333.322 253.5,332C 255.192,330.599 255.859,328.766 255.5,326.5C 266.146,326.329 266.146,325.829 255.5,325C 266.146,324.171 266.146,323.671 255.5,323.5C 255.5,322.167 255.5,320.833 255.5,319.5C 253.046,319.679 250.879,319.013 249,317.5C 246.065,319.192 242.898,319.858 239.5,319.5C 239.98,313.342 239.313,307.342 237.5,301.5C 238.583,295.602 241.583,294.268 246.5,297.5C 247.407,300.421 247.74,303.421 247.5,306.5C 248.5,306.5 249.5,306.5 250.5,306.5C 250.5,305.5 250.5,304.5 250.5,303.5C 253.833,304.167 255.833,302.833 256.5,299.5C 255.567,295.571 255.234,291.571 255.5,287.5C 256.833,287.5 258.167,287.5 259.5,287.5C 259.187,284.753 259.52,282.086 260.5,279.5C 261.503,277.458 262.837,277.125 264.5,278.5C 265.929,277.065 267.595,276.065 269.5,275.5C 274.89,277.579 277.89,281.579 278.5,287.5C 281.5,287.5 284.5,287.5 287.5,287.5C 287.343,288.873 287.51,290.207 288,291.5C 288.654,290.304 289.154,290.304 289.5,291.5C 287.96,294.291 288.294,296.791 290.5,299C 290.686,300.867 290.353,302.867 289.5,305C 291.342,310.088 294.509,310.921 299,307.5C 299.853,309.125 300.853,309.458 302,308.5C 302.374,309.416 302.874,310.25 303.5,311C 300.298,316.572 297.465,322.406 295,328.5C 294.272,331.23 294.438,333.897 295.5,336.5C 295.043,337.298 294.376,337.631 293.5,337.5 Z"/></g>
<g><path style="opacity:1" fill="#261413" d="M 297.5,268.5 C 297.5,269.167 297.5,269.833 297.5,270.5C 297.192,272.924 297.526,275.257 298.5,277.5C 299.524,278.853 300.857,279.52 302.5,279.5C 300.408,282.034 300.074,284.701 301.5,287.5C 301.666,292.179 301.499,296.845 301,301.5C 299.599,303.192 297.766,303.859 295.5,303.5C 296.478,298.724 297.145,293.89 297.5,289C 296.586,284.229 295.919,279.396 295.5,274.5C 296.048,272.374 296.715,270.374 297.5,268.5 Z"/></g>
<g><path style="opacity:1" fill="#0e0509" d="M 359.5,276.5 C 360.167,276.5 360.833,276.5 361.5,276.5C 361.392,278.514 362.058,280.18 363.5,281.5C 363.5,281.833 363.5,282.167 363.5,282.5C 361.742,282.877 360.075,283.544 358.5,284.5C 357.507,289.12 357.173,293.786 357.5,298.5C 357.605,303.901 357.439,309.234 357,314.5C 356.667,314.167 356.333,313.833 356,313.5C 355.722,314.416 355.222,315.082 354.5,315.5C 353.341,311.286 353.341,307.119 354.5,303C 353.214,300.978 352.214,298.811 351.5,296.5C 346.167,295.167 340.833,293.833 335.5,292.5C 336.651,291.269 337.817,291.269 339,292.5C 339.5,292 340,291.5 340.5,291C 335.5,290.667 330.5,290.333 325.5,290C 324.045,287.984 322.045,287.151 319.5,287.5C 318.765,290.928 317.098,291.094 314.5,288C 322.807,286.727 331.141,285.394 339.5,284C 329.743,284.127 320.243,283.294 311,281.5C 310.439,282.022 309.772,282.355 309,282.5C 307.518,280.888 305.685,279.888 303.5,279.5C 303.842,278.662 304.508,278.328 305.5,278.5C 320.842,278.477 336.175,278.144 351.5,277.5C 354.385,277.806 357.052,277.473 359.5,276.5 Z"/></g>
<g><path style="opacity:1" fill="#0f1315" d="M 109.5,255.5 C 112.833,255.5 116.167,255.5 119.5,255.5C 121.788,258.143 124.122,258.143 126.5,255.5C 126.428,257.311 125.595,258.644 124,259.5C 120.703,258.491 117.203,258.157 113.5,258.5C 110.623,259.207 108.456,260.874 107,263.5C 107.305,271.651 107.805,279.818 108.5,288C 107.364,296.459 106.364,304.959 105.5,313.5C 104.501,307.995 104.501,302.328 105.5,296.5C 105.5,295.167 105.5,293.833 105.5,292.5C 106.164,289.854 106.498,287.021 106.5,284C 105.427,276.206 104.761,268.373 104.5,260.5C 105.517,258.089 107.184,256.422 109.5,255.5 Z"/></g>
<g><path style="opacity:1" fill="#161319" d="M 363.5,282.5 C 363.5,300.167 363.5,317.833 363.5,335.5C 363.5,338.167 363.5,340.833 363.5,343.5C 362.951,353.266 361.618,362.933 359.5,372.5C 359.036,361.547 359.37,350.547 360.5,339.5C 359.512,334.88 358.845,330.213 358.5,325.5C 359.466,316.845 359.633,308.179 359,299.5C 358.617,298.944 358.117,298.611 357.5,298.5C 357.173,293.786 357.507,289.12 358.5,284.5C 360.075,283.544 361.742,282.877 363.5,282.5 Z"/></g>
<g><path style="opacity:1" fill="#515964" d="M 363.5,281.5 C 365.5,281.5 367.5,281.5 369.5,281.5C 368.378,282.947 366.878,283.947 365,284.5C 364.832,301.672 364.332,318.672 363.5,335.5C 363.5,317.833 363.5,300.167 363.5,282.5C 363.5,282.167 363.5,281.833 363.5,281.5 Z"/></g>
<g><path style="opacity:1" fill="#5b6c76" d="M 105.5,296.5 C 104.501,302.328 104.501,307.995 105.5,313.5C 105.334,318.844 105.501,324.177 106,329.5C 106.872,333.181 108.706,336.181 111.5,338.5C 110.127,338.657 108.793,338.49 107.5,338C 107.833,337.667 108.167,337.333 108.5,337C 105.307,335.974 103.974,333.808 104.5,330.5C 103.433,320.194 103.267,309.86 104,299.5C 104.232,298.263 104.732,297.263 105.5,296.5 Z"/></g>
<g><path style="opacity:1" fill="#07080b" d="M 357.5,298.5 C 358.117,298.611 358.617,298.944 359,299.5C 359.633,308.179 359.466,316.845 358.5,325.5C 358.845,330.213 359.512,334.88 360.5,339.5C 359.37,350.547 359.036,361.547 359.5,372.5C 357.952,389.004 355.285,405.337 351.5,421.5C 348.344,431.793 345.344,442.126 342.5,452.5C 342.034,450.799 342.034,449.299 342.5,448C 340.597,447.226 338.93,447.56 337.5,449C 338.604,450.131 338.271,450.965 336.5,451.5C 335.833,453.5 335.167,455.5 334.5,457.5C 332.954,456.788 331.954,455.622 331.5,454C 332.833,451.333 334.167,448.667 335.5,446C 334.152,444.445 333.486,442.611 333.5,440.5C 334.726,436.181 336.059,431.848 337.5,427.5C 335.655,425.464 335.155,423.13 336,420.5C 342.393,412.327 345.559,402.994 345.5,392.5C 347.386,391.639 349.22,390.639 351,389.5C 350.631,378.25 351.964,367.25 355,356.5C 356.474,342.768 356.307,329.101 354.5,315.5C 355.222,315.082 355.722,314.416 356,313.5C 356.333,313.833 356.667,314.167 357,314.5C 357.439,309.234 357.605,303.901 357.5,298.5 Z"/></g>
<g><path style="opacity:1" fill="#618293" d="M 101.5,319.5 C 102.097,323.267 103.097,326.934 104.5,330.5C 103.974,333.808 105.307,335.974 108.5,337C 108.167,337.333 107.833,337.667 107.5,338C 108.793,338.49 110.127,338.657 111.5,338.5C 111.577,339.75 112.244,340.583 113.5,341C 117.272,341.406 120.939,342.239 124.5,343.5C 125.505,348.475 125.505,353.475 124.5,358.5C 125.099,375.063 125.766,391.563 126.5,408C 125.858,411.245 124.858,414.412 123.5,417.5C 125.766,435.369 125.766,453.202 123.5,471C 123.531,481.107 123.865,491.274 124.5,501.5C 122.981,504.601 122.315,507.934 122.5,511.5C 81.5,511.5 40.5,511.5 -0.5,511.5C -0.5,506.5 -0.5,501.5 -0.5,496.5C 0.314913,497.429 1.14825,498.429 2,499.5C 3.33333,495.5 4.66667,495.5 6,499.5C 7.08747,497.068 7.58747,497.402 7.5,500.5C 10.1667,499.833 12.8333,499.167 15.5,498.5C 13.551,490.989 13.051,483.322 14,475.5C 14.6819,467.372 16.0152,459.372 18,451.5C 18.7461,446.958 18.5794,442.458 17.5,438C 18.2364,435.861 19.2364,433.861 20.5,432C 18.8659,431.506 17.1992,431.34 15.5,431.5C 17.0447,426.039 17.878,420.373 18,414.5C 19.2547,413.789 20.4214,412.956 21.5,412C 20.1667,410.667 18.8333,409.333 17.5,408C 18.448,407.517 19.448,407.351 20.5,407.5C 20.7307,404.215 19.3974,401.715 16.5,400C 17.1667,399.667 17.8333,399.333 18.5,399C 18.0911,396.053 17.0911,393.386 15.5,391C 16.7865,388.978 17.7865,386.811 18.5,384.5C 17.2713,383.719 15.938,383.219 14.5,383C 17.0414,381.152 18.0414,378.652 17.5,375.5C 18.5,375.5 19.5,375.5 20.5,375.5C 20.1667,378.167 19.8333,380.833 19.5,383.5C 20.8734,383.657 22.2068,383.49 23.5,383C 21.213,380.952 21.0464,378.785 23,376.5C 23.7768,378.701 24.9435,378.701 26.5,376.5C 24.9547,375.548 23.288,375.215 21.5,375.5C 21.3354,372.482 21.502,369.482 22,366.5C 23.0992,363.961 24.7658,363.295 27,364.5C 26.734,367.901 28.234,369.567 31.5,369.5C 31.5,370.5 31.5,371.5 31.5,372.5C 30.5,372.5 29.5,372.5 28.5,372.5C 28.5,373.5 28.5,374.5 28.5,375.5C 32.1834,375.087 35.5168,375.921 38.5,378C 40.6732,379.865 41.0066,382.031 39.5,384.5C 40,384.833 40.5,385.167 41,385.5C 42.8792,383.987 45.0459,383.321 47.5,383.5C 47.2011,381.396 47.5344,379.396 48.5,377.5C 48.723,378.967 49.0563,380.467 49.5,382C 50.549,382.492 51.549,382.326 52.5,381.5C 53.3081,381.808 53.9747,382.308 54.5,383C 53.062,383.219 51.7287,383.719 50.5,384.5C 54.1563,394.15 55.8229,393.817 55.5,383.5C 58.1873,383.336 60.854,383.503 63.5,384C 61.913,384.862 60.2464,385.529 58.5,386C 63.0291,388.094 67.3624,387.594 71.5,384.5C 69.5,383.833 67.5,383.167 65.5,382.5C 68.2652,378.63 70.7652,374.63 73,370.5C 73.7429,368.559 73.5762,366.726 72.5,365C 74.3759,363.983 76.3759,363.149 78.5,362.5C 78.1667,361.5 77.5,360.833 76.5,360.5C 74.7763,361.661 73.1096,361.495 71.5,360C 73.584,359.222 75.4173,358.055 77,356.5C 78.5828,350.36 80.2495,350.694 82,357.5C 83.0195,356.313 84.1861,355.313 85.5,354.5C 88.112,354.985 88.112,354.151 85.5,352C 89.5159,350.935 92.6826,348.768 95,345.5C 97.3163,346.496 99.6496,347.496 102,348.5C 103.171,347.66 104.338,346.827 105.5,346C 101.185,343.831 100.852,341.497 104.5,339C 102.649,337.316 100.982,335.483 99.5,333.5C 100.24,328.834 100.907,324.167 101.5,319.5 Z"/></g>
<g><path style="opacity:1" fill="#020202" d="M 128.5,336.5 C 129.195,344.371 129.862,352.371 130.5,360.5C 129.005,363.527 129.339,366.36 131.5,369C 131.163,400.021 130.83,431.521 130.5,463.5C 130.334,468.179 130.501,472.845 131,477.5C 132.121,482.627 133.621,482.793 135.5,478C 134.581,473.219 134.248,468.385 134.5,463.5C 135.5,463.5 136.5,463.5 137.5,463.5C 137.5,474.167 137.5,484.833 137.5,495.5C 138.675,495.281 139.675,495.614 140.5,496.5C 141.035,498.661 141.868,500.661 143,502.5C 143.414,502.043 143.914,501.709 144.5,501.5C 150.736,503.547 157.069,505.214 163.5,506.5C 165.1,506.449 166.6,506.116 168,505.5C 176,506.167 184,506.833 192,507.5C 194.944,506.743 197.944,506.077 201,505.5C 204.038,503.878 204.038,502.545 201,501.5C 198.213,502.517 195.38,502.684 192.5,502C 191.577,499.959 191.244,497.792 191.5,495.5C 193.604,495.799 195.604,495.466 197.5,494.5C 195.305,493.231 193.139,493.231 191,494.5C 187.143,489.832 182.977,485.498 178.5,481.5C 177.41,478.122 176.41,474.789 175.5,471.5C 174.167,471.5 172.833,471.5 171.5,471.5C 171.649,468.393 171.149,465.393 170,462.5C 164.11,455.594 161.276,447.761 161.5,439C 158.956,436.778 158.956,434.611 161.5,432.5C 159.257,431.526 156.924,431.192 154.5,431.5C 154.245,427.265 155.578,423.599 158.5,420.5C 159.499,408.185 159.832,395.851 159.5,383.5C 155.833,383.5 152.167,383.5 148.5,383.5C 148.336,380.813 148.503,378.146 149,375.5C 150.986,371.289 152.819,366.955 154.5,362.5C 156.429,361.62 158.263,360.62 160,359.5C 161.12,361.075 162.62,362.075 164.5,362.5C 168.386,361.266 172.219,361.266 176,362.5C 179.818,357.428 183.985,356.761 188.5,360.5C 194.345,359.829 199.345,362.163 203.5,367.5C 209.742,363.917 216.409,362.751 223.5,364C 220.833,364.333 218.167,364.667 215.5,365C 222.641,365.32 228.641,367.986 233.5,373C 240.644,375.24 247.977,376.073 255.5,375.5C 255.5,378.167 255.5,380.833 255.5,383.5C 258.247,383.813 260.914,383.48 263.5,382.5C 269.867,378.894 276.033,374.894 282,370.5C 284.556,371.219 285.723,372.886 285.5,375.5C 291.652,376.525 295.652,374.025 297.5,368C 300.746,367.412 303.746,368.079 306.5,370C 307.337,371.011 307.67,372.178 307.5,373.5C 312.913,373.771 318.246,373.271 323.5,372C 325.037,370.89 325.703,369.39 325.5,367.5C 328.833,367.5 332.167,367.5 335.5,367.5C 336.675,370.009 336.675,372.509 335.5,375C 335.915,378.106 336.915,378.272 338.5,375.5C 339.48,378.086 339.813,380.753 339.5,383.5C 338.167,383.5 336.833,383.5 335.5,383.5C 335.335,386.85 335.502,390.183 336,393.5C 340.763,391.738 343.763,388.404 345,383.5C 345.498,386.482 345.665,389.482 345.5,392.5C 345.559,402.994 342.393,412.327 336,420.5C 335.155,423.13 335.655,425.464 337.5,427.5C 336.059,431.848 334.726,436.181 333.5,440.5C 333.486,442.611 334.152,444.445 335.5,446C 334.167,448.667 332.833,451.333 331.5,454C 331.954,455.622 332.954,456.788 334.5,457.5C 335.167,455.5 335.833,453.5 336.5,451.5C 338.271,450.965 338.604,450.131 337.5,449C 338.93,447.56 340.597,447.226 342.5,448C 342.034,449.299 342.034,450.799 342.5,452.5C 340.795,457.186 339.128,461.853 337.5,466.5C 332.251,469.474 327.251,472.974 322.5,477C 315.474,479.595 308.974,483.095 303,487.5C 302.209,488.745 301.709,490.078 301.5,491.5C 299.545,497.986 297.878,504.653 296.5,511.5C 240.5,511.5 184.5,511.5 128.5,511.5C 128.5,453.167 128.5,394.833 128.5,336.5 Z"/></g>
<g><path style="opacity:1" fill="#6a808d" d="M 378.5,245.5 C 378.216,248.777 378.549,251.943 379.5,255C 377.788,259.727 376.788,264.727 376.5,270C 376.735,270.873 377.069,271.707 377.5,272.5C 375.773,275.287 374.606,278.287 374,281.5C 373.667,281.167 373.333,280.833 373,280.5C 372.535,281.931 371.701,283.097 370.5,284C 367.818,284.163 366.151,285.496 365.5,288C 366.212,299.991 366.879,311.991 367.5,324C 366.943,329.514 366.276,335.014 365.5,340.5C 365.697,349.43 365.697,358.43 365.5,367.5C 364.5,367.5 363.5,367.5 362.5,367.5C 363.276,359.525 363.61,351.525 363.5,343.5C 363.5,340.833 363.5,338.167 363.5,335.5C 364.332,318.672 364.832,301.672 365,284.5C 366.878,283.947 368.378,282.947 369.5,281.5C 371.708,280.106 373.208,278.106 374,275.5C 374.345,266.096 375.345,256.762 377,247.5C 377.278,246.584 377.778,245.918 378.5,245.5 Z"/></g>
<g><path style="opacity:1" fill="#62747f" d="M 363.5,343.5 C 363.61,351.525 363.276,359.525 362.5,367.5C 361.616,385.128 359.116,402.461 355,419.5C 354.184,420.823 353.017,421.489 351.5,421.5C 355.285,405.337 357.952,389.004 359.5,372.5C 361.618,362.933 362.951,353.266 363.5,343.5 Z"/></g>
<g><path style="opacity:1" fill="#628396" d="M 451.5,431.5 C 451.5,436.833 451.5,442.167 451.5,447.5C 449.712,447.215 448.045,447.548 446.5,448.5C 445.636,450.197 444.303,451.363 442.5,452C 433.975,461.523 425.142,470.69 416,479.5C 415.667,477.5 415.333,475.5 415,473.5C 412.667,476.167 410.333,476.167 408,473.5C 407.612,474.428 406.945,475.095 406,475.5C 401.853,473.038 397.353,471.538 392.5,471C 398.03,468.741 397.696,467.574 391.5,467.5C 391.5,466.167 391.5,464.833 391.5,463.5C 389.5,463.5 387.5,463.5 385.5,463.5C 385.574,459.839 384.574,459.172 382.5,461.5C 378.829,461.162 376.829,459.162 376.5,455.5C 372.81,453.733 371.31,451.066 372,447.5C 369.853,444.347 367.686,441.18 365.5,438C 365.645,437.228 365.978,436.561 366.5,436C 365.051,434.883 363.384,434.216 361.5,434C 363.02,431.404 363.853,428.571 364,425.5C 364.697,423.416 365.864,421.749 367.5,420.5C 367.5,421.5 367.5,422.5 367.5,423.5C 374.572,423.14 376.906,426.306 374.5,433C 374.862,434.225 375.362,435.391 376,436.5C 383.075,443.872 385.575,442.205 383.5,431.5C 384.873,431.657 386.207,431.49 387.5,431C 388.878,429.287 390.545,427.953 392.5,427C 396.716,426.28 400.716,424.947 404.5,423C 407.024,421.117 408.358,418.617 408.5,415.5C 410.833,415.5 413.167,415.5 415.5,415.5C 415.5,414.167 415.5,412.833 415.5,411.5C 420.833,411.5 426.167,411.5 431.5,411.5C 431.628,413.655 431.128,415.655 430,417.5C 425.667,421.5 421.333,425.5 417,429.5C 415.991,431.025 415.491,432.692 415.5,434.5C 410.352,434.066 407.685,436.399 407.5,441.5C 404.833,441.5 402.167,441.5 399.5,441.5C 399.5,443.5 399.5,445.5 399.5,447.5C 402.572,447.817 405.572,447.484 408.5,446.5C 409.278,444.055 410.945,442.722 413.5,442.5C 419.459,443.414 425.459,443.747 431.5,443.5C 431.5,438.167 431.5,432.833 431.5,427.5C 436.833,427.5 442.167,427.5 447.5,427.5C 447.5,428.833 447.5,430.167 447.5,431.5C 448.833,431.5 450.167,431.5 451.5,431.5 Z"/></g>
<g><path style="opacity:1" fill="#5f7989" d="M 126.5,337.5 C 127.499,395.331 127.832,453.331 127.5,511.5C 125.833,511.5 124.167,511.5 122.5,511.5C 122.315,507.934 122.981,504.601 124.5,501.5C 123.865,491.274 123.531,481.107 123.5,471C 125.766,453.202 125.766,435.369 123.5,417.5C 124.858,414.412 125.858,411.245 126.5,408C 125.766,391.563 125.099,375.063 124.5,358.5C 125.505,353.475 125.505,348.475 124.5,343.5C 120.939,342.239 117.272,341.406 113.5,341C 112.244,340.583 111.577,339.75 111.5,338.5C 116.636,340.003 121.636,339.67 126.5,337.5 Z"/></g>
<g><path style="opacity:1" fill="#576470" d="M 351.5,421.5 C 350.234,431.984 348.568,442.317 346.5,452.5C 343.531,457.146 340.531,461.813 337.5,466.5C 339.128,461.853 340.795,457.186 342.5,452.5C 345.344,442.126 348.344,431.793 351.5,421.5 Z"/></g>
<g><path style="opacity:1" fill="#596269" d="M 128.5,336.5 C 128.5,394.833 128.5,453.167 128.5,511.5C 128.167,511.5 127.833,511.5 127.5,511.5C 127.832,453.331 127.499,395.331 126.5,337.5C 127.006,335.895 127.673,335.561 128.5,336.5 Z"/></g>
<g><path style="opacity:1" fill="#647e8e" d="M 346.5,452.5 C 347.498,454.45 347.332,456.45 346,458.5C 342.633,460.497 341.466,463.33 342.5,467C 340.57,470.053 338.07,472.553 335,474.5C 334.282,473.549 333.449,473.383 332.5,474C 329.572,475.918 327.906,478.585 327.5,482C 324.632,483.916 321.632,484.416 318.5,483.5C 313.383,485.779 313.717,487.446 319.5,488.5C 319.719,489.675 319.386,490.675 318.5,491.5C 316.809,493.492 314.975,494.492 313,494.5C 311.679,497.77 311.013,501.103 311,504.5C 311.739,505.574 312.739,506.241 314,506.5C 316.722,504.785 318.889,505.285 320.5,508C 325.681,508.926 330.681,510.093 335.5,511.5C 323.167,511.5 310.833,511.5 298.5,511.5C 300.761,505.04 301.761,498.374 301.5,491.5C 301.709,490.078 302.209,488.745 303,487.5C 308.974,483.095 315.474,479.595 322.5,477C 327.251,472.974 332.251,469.474 337.5,466.5C 340.531,461.813 343.531,457.146 346.5,452.5 Z"/></g>
<g><path style="opacity:1" fill="#4d5661" d="M 301.5,491.5 C 301.761,498.374 300.761,505.04 298.5,511.5C 297.833,511.5 297.167,511.5 296.5,511.5C 297.878,504.653 299.545,497.986 301.5,491.5 Z"/></g>
</svg>
