<?xml version="1.0" encoding="UTF-8"?>
<!DOCTYPE svg PUBLIC "-//W3C//DTD SVG 1.1//EN" "http://www.w3.org/Graphics/SVG/1.1/DTD/svg11.dtd">
<svg xmlns="http://www.w3.org/2000/svg" version="1.1" width="512px" height="512px" style="shape-rendering:geometricPrecision; text-rendering:geometricPrecision; image-rendering:optimizeQuality; fill-rule:evenodd; clip-rule:evenodd" xmlns:xlink="http://www.w3.org/1999/xlink">
<g><path style="opacity:1" fill="#648596" d="M -0.5,-0.5 C 170.167,-0.5 340.833,-0.5 511.5,-0.5C 511.5,71.8333 511.5,144.167 511.5,216.5C 510.833,210.654 510.167,204.654 509.5,198.5C 505.261,200.067 502.928,203.067 502.5,207.5C 504.167,207.5 505.833,207.5 507.5,207.5C 507.817,210.572 507.484,213.572 506.5,216.5C 504.867,215.256 503.867,215.756 503.5,218C 504.593,219.599 505.927,220.765 507.5,221.5C 506.565,224.471 505.732,227.471 505,230.5C 503.992,225.459 503.492,225.792 503.5,231.5C 502.5,231.5 501.5,231.5 500.5,231.5C 500.642,235.074 501.975,237.241 504.5,238C 503.862,241.402 502.695,244.569 501,247.5C 500.223,250.429 500.39,253.263 501.5,256C 500.307,260.199 498.14,261.032 495,258.5C 490.854,260.22 487.521,259.22 485,255.5C 482.854,258.594 483.021,261.594 485.5,264.5C 483.676,266.932 481.176,268.266 478,268.5C 475.547,267.507 473.047,267.34 470.5,268C 466.198,269.016 462.365,270.849 459,273.5C 458.5,273.167 458,272.833 457.5,272.5C 460.028,270.495 459.695,268.829 456.5,267.5C 455.611,264.721 454.444,262.055 453,259.5C 451.921,261.394 450.587,261.727 449,260.5C 447.985,256.56 447.485,252.56 447.5,248.5C 455.394,248.473 455.394,247.807 447.5,246.5C 448.167,245.833 448.833,245.167 449.5,244.5C 447.599,243.065 447.266,241.398 448.5,239.5C 450.5,240.833 452.5,242.167 454.5,243.5C 454.833,243.167 455.167,242.833 455.5,242.5C 454.24,241.618 453.074,240.618 452,239.5C 451.667,236.833 451.333,234.167 451,231.5C 449.513,230.845 448.347,229.845 447.5,228.5C 449.833,227 452.167,225.5 454.5,224C 451.5,223.667 448.5,223.333 445.5,223C 443.833,220.667 442.167,218.333 440.5,216C 438.633,215.289 437.133,215.789 436,217.5C 435.5,217 435,216.5 434.5,216C 438.276,214.395 440.276,211.562 440.5,207.5C 437.413,207.253 434.58,206.253 432,204.5C 432.183,197.842 432.016,190.842 431.5,183.5C 432.552,183.649 433.552,183.483 434.5,183C 429.734,180.047 424.401,178.714 418.5,179C 417.09,178.632 416.09,177.799 415.5,176.5C 420.792,175.505 426.125,175.172 431.5,175.5C 431.5,174.167 431.5,172.833 431.5,171.5C 426.5,171.5 421.5,171.5 416.5,171.5C 417.352,161.53 418.185,151.53 419,141.5C 422.796,133.411 423.962,125.078 422.5,116.5C 420.941,111.712 418.607,107.379 415.5,103.5C 414.242,101.313 413.242,98.9798 412.5,96.5C 413.844,89.6502 411.844,84.3169 406.5,80.5C 401.741,77.2467 397.408,73.4134 393.5,69C 389.762,66.215 385.596,64.3817 381,63.5C 377.732,64.9919 374.232,65.6585 370.5,65.5C 349.161,64.2593 327.828,64.426 306.5,66C 278.741,67.5953 251.074,70.0953 223.5,73.5C 223.5,72.5 223.5,71.5 223.5,70.5C 236.206,69.9143 248.873,68.9143 261.5,67.5C 265.969,67.7397 270.302,67.073 274.5,65.5C 276.985,65.9428 279.485,66.2761 282,66.5C 299.79,64.7657 317.623,63.7657 335.5,63.5C 335.5,62.5 335.5,61.5 335.5,60.5C 346.167,59.8333 356.833,59.1667 367.5,58.5C 367.5,57.5 367.5,56.5 367.5,55.5C 363.818,55.6653 360.152,55.4986 356.5,55C 357.5,54.6667 358.5,54.3333 359.5,54C 354.418,52.2764 349.418,50.4431 344.5,48.5C 342.301,42.0284 344.635,39.0284 351.5,39.5C 351.5,36.8333 351.5,34.1667 351.5,31.5C 338.5,31.5 325.5,31.5 312.5,31.5C 311.697,26.524 308.864,23.1907 304,21.5C 303.821,18.4465 303.321,15.4465 302.5,12.5C 297.699,10.3429 292.699,9.00955 287.5,8.5C 287.5,7.5 287.5,6.5 287.5,5.5C 250.167,5.5 212.833,5.5 175.5,5.5C 175.5,8.83333 175.5,12.1667 175.5,15.5C 170.167,15.5 164.833,15.5 159.5,15.5C 159.5,12.5 159.5,9.5 159.5,6.5C 154.46,5.84847 150.127,7.18181 146.5,10.5C 148.149,11.6477 149.649,12.981 151,14.5C 152.087,12.0684 152.587,12.4017 152.5,15.5C 145.075,16.7266 138.742,14.8933 133.5,10C 128.937,6.8513 124.437,7.01796 120,10.5C 119.362,11.6086 118.862,12.7753 118.5,14C 120.046,17.0917 119.713,19.925 117.5,22.5C 113.032,24.4506 108.365,25.4506 103.5,25.5C 100.552,25.7771 97.7191,25.4438 95,24.5C 94.1667,25.3333 93.3333,26.1667 92.5,27C 86.4443,26.3072 80.7777,27.6405 75.5,31C 71.5138,31.4988 67.5138,31.6655 63.5,31.5C 63.6621,33.5273 63.4955,35.5273 63,37.5C 58.602,39.2682 55.4353,42.2682 53.5,46.5C 51.604,47.4656 49.604,47.7989 47.5,47.5C 46.6314,52.2866 45.1314,56.9532 43,61.5C 42.6667,64.8333 42.3333,68.1667 42,71.5C 40.3333,73.1667 38.6667,74.8333 37,76.5C 36.5038,78.0349 36.6705,79.5349 37.5,81C 36.9238,82.7144 35.7571,83.8811 34,84.5C 33.3333,87.8333 32.6667,91.1667 32,94.5C 29.8896,92.1623 27.7229,92.329 25.5,95C 27.6621,97.5219 27.9955,100.355 26.5,103.5C 25.869,98.6978 23.2023,96.5311 18.5,97C 17.1667,97.6667 17.1667,98.3333 18.5,99C 24.4083,99.1888 24.7416,100.189 19.5,102C 18.3659,103.016 18.6992,103.683 20.5,104C 16.5376,108.514 12.0376,109.681 7,107.5C 6.36528,109.635 6.69862,111.635 8,113.5C 8.70956,112.027 9.87623,111.36 11.5,111.5C 10.3608,114.004 9.69409,116.67 9.5,119.5C 10.9778,119.238 12.3112,119.571 13.5,120.5C 11.8507,121.988 9.85068,122.988 7.5,123.5C 9.14934,126.651 11.1493,129.485 13.5,132C 12.7282,133.221 11.7282,134.221 10.5,135C 11.428,135.388 12.0946,136.055 12.5,137C 9.96602,140.409 9.96602,143.743 12.5,147C 10.493,149.51 9.15964,152.343 8.5,155.5C 8.81403,161.819 9.81403,167.985 11.5,174C 11.1667,175 10.8333,176 10.5,177C 11.6094,179.047 12.2761,181.213 12.5,183.5C 11.5,183.5 10.5,183.5 9.5,183.5C 9.32051,185.954 9.98718,188.121 11.5,190C 9.90558,193.636 9.07225,197.469 9,201.5C 8.66667,201.833 8.33333,202.167 8,202.5C 6.06512,199.093 5.23178,195.426 5.5,191.5C 6.55198,191.649 7.55198,191.483 8.5,191C 6.64991,188.982 4.64991,187.149 2.5,185.5C 0.235576,186.538 -0.0977576,188.038 1.5,190C 1.16389,191.03 0.497222,191.53 -0.5,191.5C -0.5,127.5 -0.5,63.5 -0.5,-0.5 Z"/></g>
<g><path style="opacity:1" fill="#628597" d="M 261.5,67.5 C 262.85,66.3501 262.684,65.6834 261,65.5C 254.895,66.791 248.728,66.791 242.5,65.5C 241.707,66.3554 242.04,67.1887 243.5,68C 241.888,68.7203 240.388,68.5536 239,67.5C 220.728,70.4503 202.228,70.617 183.5,68C 182.141,66.7955 181.141,65.2955 180.5,63.5C 177.765,62.4412 174.931,61.7745 172,61.5C 165.908,65.2354 159.742,65.4021 153.5,62C 141.047,62.3887 129.714,59.3887 119.5,53C 116.978,52.5014 114.478,52.6681 112,53.5C 110.029,53.5317 108.529,52.6984 107.5,51C 102.339,48.8842 97.3387,49.0508 92.5,51.5C 90.3368,51.0776 89.0034,49.7443 88.5,47.5C 87.8076,48.0253 87.3076,48.6919 87,49.5C 86.196,48.1955 85.0293,47.5288 83.5,47.5C 79.6451,48.9847 75.6451,49.9847 71.5,50.5C 71.5,49.5 71.5,48.5 71.5,47.5C 74.5719,47.8174 77.5719,47.4841 80.5,46.5C 85.3333,41.5 90.1667,36.5 95,31.5C 95.1245,38.4714 97.2911,38.8047 101.5,32.5C 104.167,31.8333 106.833,31.1667 109.5,30.5C 109,29.1195 108,28.4528 106.5,28.5C 102.869,29.5148 99.2022,29.6814 95.5,29C 106.167,28.3333 106.167,27.6667 95.5,27C 98.3647,26.8171 101.031,26.3171 103.5,25.5C 108.365,25.4506 113.032,24.4506 117.5,22.5C 119.713,19.925 120.046,17.0917 118.5,14C 118.862,12.7753 119.362,11.6086 120,10.5C 124.437,7.01796 128.937,6.8513 133.5,10C 138.742,14.8933 145.075,16.7266 152.5,15.5C 152.587,12.4017 152.087,12.0684 151,14.5C 149.649,12.981 148.149,11.6477 146.5,10.5C 150.127,7.18181 154.46,5.84847 159.5,6.5C 159.5,9.5 159.5,12.5 159.5,15.5C 164.833,15.5 170.167,15.5 175.5,15.5C 175.5,12.1667 175.5,8.83333 175.5,5.5C 212.833,5.5 250.167,5.5 287.5,5.5C 287.5,6.5 287.5,7.5 287.5,8.5C 292.699,9.00955 297.699,10.3429 302.5,12.5C 303.321,15.4465 303.821,18.4465 304,21.5C 308.864,23.1907 311.697,26.524 312.5,31.5C 325.5,31.5 338.5,31.5 351.5,31.5C 351.5,34.1667 351.5,36.8333 351.5,39.5C 344.635,39.0284 342.301,42.0284 344.5,48.5C 349.418,50.4431 354.418,52.2764 359.5,54C 358.5,54.3333 357.5,54.6667 356.5,55C 360.152,55.4986 363.818,55.6653 367.5,55.5C 367.5,56.5 367.5,57.5 367.5,58.5C 356.833,59.1667 346.167,59.8333 335.5,60.5C 335.5,61.5 335.5,62.5 335.5,63.5C 317.623,63.7657 299.79,64.7657 282,66.5C 279.485,66.2761 276.985,65.9428 274.5,65.5C 270.302,67.073 265.969,67.7397 261.5,67.5 Z"/></g>
<g><path style="opacity:1" fill="#628494" d="M 103.5,25.5 C 101.031,26.3171 98.3647,26.8171 95.5,27C 106.167,27.6667 106.167,28.3333 95.5,29C 99.2022,29.6814 102.869,29.5148 106.5,28.5C 108,28.4528 109,29.1195 109.5,30.5C 106.833,31.1667 104.167,31.8333 101.5,32.5C 97.2911,38.8047 95.1245,38.4714 95,31.5C 90.1667,36.5 85.3333,41.5 80.5,46.5C 77.5719,47.4841 74.5719,47.8174 71.5,47.5C 71.5,48.5 71.5,49.5 71.5,50.5C 71.7523,55.3855 71.419,60.2188 70.5,65C 71.1117,67.0577 72.1117,68.891 73.5,70.5C 69.6728,70.9956 66.3394,72.3289 63.5,74.5C 63.4436,77.394 62.6103,80.0607 61,82.5C 57.2225,86.364 53.2225,90.0306 49,93.5C 47.627,95.6954 47.2937,98.0288 48,100.5C 49.0086,98.9751 49.5086,97.3084 49.5,95.5C 50.8333,95.5 52.1667,95.5 53.5,95.5C 53.3573,97.2624 53.6906,98.9291 54.5,100.5C 53.3175,102.645 51.8175,102.645 50,100.5C 50.6639,104.182 50.4972,107.848 49.5,111.5C 50.8333,111.5 52.1667,111.5 53.5,111.5C 52.4376,118.003 53.1042,124.336 55.5,130.5C 54.7052,133.807 54.0385,137.141 53.5,140.5C 54.1171,148.683 54.7838,156.849 55.5,165C 54.8422,168.477 53.1755,171.31 50.5,173.5C 51.4573,184.801 51.7906,196.135 51.5,207.5C 50.1667,207.5 48.8333,207.5 47.5,207.5C 47.5,217.833 47.5,228.167 47.5,238.5C 49.952,238.376 51.952,237.376 53.5,235.5C 54.6473,235.818 55.4806,236.484 56,237.5C 56.3333,235.5 56.6667,233.5 57,231.5C 58.7701,241.956 60.7701,241.956 63,231.5C 64.4678,241.568 67.1344,241.901 71,232.5C 71.6667,231.167 72.3333,231.167 73,232.5C 73.0748,230.065 73.9081,229.398 75.5,230.5C 79.0719,247.892 79.4052,265.392 76.5,283C 76.6055,285.884 76.9388,288.718 77.5,291.5C 77.8212,293.048 78.8212,293.715 80.5,293.5C 80.0358,296.696 78.5358,296.696 76,293.5C 75.5924,287.911 75.0924,282.577 74.5,277.5C 76.5618,272.84 76.7284,268.174 75,263.5C 74.081,271.31 73.581,279.31 73.5,287.5C 71.8333,287.5 70.1667,287.5 68.5,287.5C 67.8359,284.152 67.8359,280.652 68.5,277C 68.1667,275.167 67.8333,273.333 67.5,271.5C 64.3846,287.336 63.0513,303.336 63.5,319.5C 65.5,319.5 67.5,319.5 69.5,319.5C 69.5,324.833 69.5,330.167 69.5,335.5C 72.8333,335.5 76.1667,335.5 79.5,335.5C 79.5,340.833 79.5,346.167 79.5,351.5C 81.5,351.5 83.5,351.5 85.5,351.5C 85.5,356.833 85.5,362.167 85.5,367.5C 89.226,367.177 92.8927,367.511 96.5,368.5C 101.167,373.167 105.833,377.833 110.5,382.5C 105.167,383.167 99.8333,383.833 94.5,384.5C 93.6364,386.197 92.3031,387.363 90.5,388C 87.6587,392.007 84.3253,395.507 80.5,398.5C 84.1073,399.489 87.774,399.823 91.5,399.5C 91.5,404.833 91.5,410.167 91.5,415.5C 93.3547,415.272 94.1881,415.939 94,417.5C 89.5,421.833 85,426.167 80.5,430.5C 82.0453,431.452 83.712,431.785 85.5,431.5C 85.5,442.167 85.5,452.833 85.5,463.5C 83.5,463.5 81.5,463.5 79.5,463.5C 79.5,468.833 79.5,474.167 79.5,479.5C 78.1667,479.5 76.8333,479.5 75.5,479.5C 75.5,484.833 75.5,490.167 75.5,495.5C 76.8333,495.5 78.1667,495.5 79.5,495.5C 79.5,499.833 79.5,504.167 79.5,508.5C 75.6215,508.024 72.2882,509.024 69.5,511.5C 46.1667,511.5 22.8333,511.5 -0.5,511.5C -0.5,404.833 -0.5,298.167 -0.5,191.5C 0.497222,191.53 1.16389,191.03 1.5,190C -0.0977576,188.038 0.235576,186.538 2.5,185.5C 4.64991,187.149 6.64991,188.982 8.5,191C 7.55198,191.483 6.55198,191.649 5.5,191.5C 5.23178,195.426 6.06512,199.093 8,202.5C 8.33333,202.167 8.66667,201.833 9,201.5C 9.07225,197.469 9.90558,193.636 11.5,190C 9.98718,188.121 9.32051,185.954 9.5,183.5C 10.5,183.5 11.5,183.5 12.5,183.5C 12.2761,181.213 11.6094,179.047 10.5,177C 10.8333,176 11.1667,175 11.5,174C 9.81403,167.985 8.81403,161.819 8.5,155.5C 9.15964,152.343 10.493,149.51 12.5,147C 9.96602,143.743 9.96602,140.409 12.5,137C 12.0946,136.055 11.428,135.388 10.5,135C 11.7282,134.221 12.7282,133.221 13.5,132C 11.1493,129.485 9.14934,126.651 7.5,123.5C 9.85068,122.988 11.8507,121.988 13.5,120.5C 12.3112,119.571 10.9778,119.238 9.5,119.5C 9.69409,116.67 10.3608,114.004 11.5,111.5C 9.87623,111.36 8.70956,112.027 8,113.5C 6.69862,111.635 6.36528,109.635 7,107.5C 12.0376,109.681 16.5376,108.514 20.5,104C 18.6992,103.683 18.3659,103.016 19.5,102C 24.7416,100.189 24.4083,99.1888 18.5,99C 17.1667,98.3333 17.1667,97.6667 18.5,97C 23.2023,96.5311 25.869,98.6978 26.5,103.5C 27.9955,100.355 27.6621,97.5219 25.5,95C 27.7229,92.329 29.8896,92.1623 32,94.5C 32.6667,91.1667 33.3333,87.8333 34,84.5C 35.7571,83.8811 36.9238,82.7144 37.5,81C 36.6705,79.5349 36.5038,78.0349 37,76.5C 38.6667,74.8333 40.3333,73.1667 42,71.5C 42.3333,68.1667 42.6667,64.8333 43,61.5C 45.1314,56.9532 46.6314,52.2866 47.5,47.5C 49.604,47.7989 51.604,47.4656 53.5,46.5C 55.4353,42.2682 58.602,39.2682 63,37.5C 63.4955,35.5273 63.6621,33.5273 63.5,31.5C 67.5138,31.6655 71.5138,31.4988 75.5,31C 80.7777,27.6405 86.4443,26.3072 92.5,27C 93.3333,26.1667 94.1667,25.3333 95,24.5C 97.7191,25.4438 100.552,25.7771 103.5,25.5 Z"/></g>
<g><path style="opacity:1" fill="#5f8193" d="M 261.5,67.5 C 248.873,68.9143 236.206,69.9143 223.5,70.5C 223.5,71.5 223.5,72.5 223.5,73.5C 222.833,73.5 222.167,73.5 221.5,73.5C 211.952,72.8352 202.286,72.5019 192.5,72.5C 187.008,73.7863 181.341,74.453 175.5,74.5C 154.202,72.7342 132.869,72.2342 111.5,73C 106.187,74.0778 101.02,75.5778 96,77.5C 95.5172,78.448 95.3505,79.448 95.5,80.5C 89.4435,84.6929 82.7768,87.5263 75.5,89C 73.714,89.7845 72.214,90.9512 71,92.5C 67.5102,97.3134 64.6769,102.48 62.5,108C 59.9517,117.741 57.785,127.574 56,137.5C 55.0273,146.299 55.6939,154.965 58,163.5C 59.688,168.226 62.3546,172.226 66,175.5C 66.5327,195.516 66.5327,215.516 66,235.5C 68.3756,232.955 70.8756,230.622 73.5,228.5C 74.7133,228.747 75.38,229.414 75.5,230.5C 73.9081,229.398 73.0748,230.065 73,232.5C 72.3333,231.167 71.6667,231.167 71,232.5C 67.1344,241.901 64.4678,241.568 63,231.5C 60.7701,241.956 58.7701,241.956 57,231.5C 56.6667,233.5 56.3333,235.5 56,237.5C 55.4806,236.484 54.6473,235.818 53.5,235.5C 51.952,237.376 49.952,238.376 47.5,238.5C 47.5,228.167 47.5,217.833 47.5,207.5C 48.8333,207.5 50.1667,207.5 51.5,207.5C 51.7906,196.135 51.4573,184.801 50.5,173.5C 53.1755,171.31 54.8422,168.477 55.5,165C 54.7838,156.849 54.1171,148.683 53.5,140.5C 54.0385,137.141 54.7052,133.807 55.5,130.5C 53.1042,124.336 52.4376,118.003 53.5,111.5C 52.1667,111.5 50.8333,111.5 49.5,111.5C 50.4972,107.848 50.6639,104.182 50,100.5C 51.8175,102.645 53.3175,102.645 54.5,100.5C 53.6906,98.9291 53.3573,97.2624 53.5,95.5C 52.1667,95.5 50.8333,95.5 49.5,95.5C 49.5086,97.3084 49.0086,98.9751 48,100.5C 47.2937,98.0288 47.627,95.6954 49,93.5C 53.2225,90.0306 57.2225,86.364 61,82.5C 62.6103,80.0607 63.4436,77.394 63.5,74.5C 66.3394,72.3289 69.6728,70.9956 73.5,70.5C 72.1117,68.891 71.1117,67.0577 70.5,65C 71.419,60.2188 71.7523,55.3855 71.5,50.5C 75.6451,49.9847 79.6451,48.9847 83.5,47.5C 85.0293,47.5288 86.196,48.1955 87,49.5C 87.3076,48.6919 87.8076,48.0253 88.5,47.5C 89.0034,49.7443 90.3368,51.0776 92.5,51.5C 97.3387,49.0508 102.339,48.8842 107.5,51C 108.529,52.6984 110.029,53.5317 112,53.5C 114.478,52.6681 116.978,52.5014 119.5,53C 129.714,59.3887 141.047,62.3887 153.5,62C 159.742,65.4021 165.908,65.2354 172,61.5C 174.931,61.7745 177.765,62.4412 180.5,63.5C 181.141,65.2955 182.141,66.7955 183.5,68C 202.228,70.617 220.728,70.4503 239,67.5C 240.388,68.5536 241.888,68.7203 243.5,68C 242.04,67.1887 241.707,66.3554 242.5,65.5C 248.728,66.791 254.895,66.791 261,65.5C 262.684,65.6834 262.85,66.3501 261.5,67.5 Z"/></g>
<g><path style="opacity:1" fill="#647d89" d="M 221.5,73.5 C 195.512,76.9046 169.512,77.0713 143.5,74C 129.316,72.7098 115.316,73.7098 101.5,77C 99.3083,77.926 97.3083,79.0927 95.5,80.5C 95.3505,79.448 95.5172,78.448 96,77.5C 101.02,75.5778 106.187,74.0778 111.5,73C 132.869,72.2342 154.202,72.7342 175.5,74.5C 181.341,74.453 187.008,73.7863 192.5,72.5C 202.286,72.5019 211.952,72.8352 221.5,73.5 Z"/></g>
<g><path style="opacity:1" fill="#010202" d="M 415.5,103.5 C 416.457,108.819 414.957,109.819 411,106.5C 409.108,107.617 408.275,109.284 408.5,111.5C 410.833,111.5 413.167,111.5 415.5,111.5C 415.708,113.92 415.374,116.253 414.5,118.5C 414.833,118.833 415.167,119.167 415.5,119.5C 416.167,118.5 416.833,117.5 417.5,116.5C 417.723,117.967 418.056,119.467 418.5,121C 417.551,121.617 416.718,121.451 416,120.5C 414.263,128.063 413.263,135.73 413,143.5C 411.264,148.044 409.93,152.71 409,157.5C 408.311,158.357 407.478,159.023 406.5,159.5C 406.101,165.261 405.101,170.761 403.5,176C 405.221,177.437 406.721,176.937 408,174.5C 409.821,176.685 409.488,178.685 407,180.5C 407.017,186.281 406.517,189.948 405.5,191.5C 404.167,191.5 402.833,191.5 401.5,191.5C 401.193,197.093 401.527,202.593 402.5,208C 400.332,212.699 399.332,212.532 399.5,207.5C 398.325,207.281 397.325,207.614 396.5,208.5C 394.229,214.813 392.063,221.146 390,227.5C 388.903,229.053 387.57,230.386 386,231.5C 386.083,234.119 386.25,236.786 386.5,239.5C 385.5,239.5 384.5,239.5 383.5,239.5C 383.5,241.5 383.5,243.5 383.5,245.5C 382.178,245.67 381.011,245.337 380,244.5C 379.333,246.833 379.333,249.167 380,251.5C 380.923,250.241 381.757,248.908 382.5,247.5C 383.598,251.361 384.431,251.361 385,247.5C 385.75,248.126 386.584,248.626 387.5,249C 385.947,250.097 384.614,251.43 383.5,253C 384.956,253.423 385.456,254.256 385,255.5C 384.282,254.549 383.449,254.383 382.5,255C 383.423,257.041 383.756,259.208 383.5,261.5C 383.666,270.173 383.5,278.84 383,287.5C 381.628,288.91 380.795,290.577 380.5,292.5C 380.5,292.833 380.5,293.167 380.5,293.5C 379.86,303.039 379.027,312.706 378,322.5C 376.938,323.899 375.605,324.899 374,325.5C 371.179,324.013 369.013,321.846 367.5,319C 366.423,318.53 365.423,318.697 364.5,319.5C 363.448,319.351 362.448,319.517 361.5,320C 361.273,321.135 360.94,322.302 360.5,323.5C 359.719,322.271 359.219,320.938 359,319.5C 356.654,324.43 356.488,329.264 358.5,334C 357.419,335.371 356.585,336.871 356,338.5C 354.996,345.196 353.83,351.863 352.5,358.5C 352.719,362.775 354.052,366.609 356.5,370C 356.589,371.716 356.256,373.549 355.5,375.5C 356.482,378.096 357.149,380.762 357.5,383.5C 356.5,383.5 355.5,383.5 354.5,383.5C 353.133,388.052 352.133,392.719 351.5,397.5C 351.818,398.647 352.484,399.481 353.5,400C 352.692,400.308 352.025,400.808 351.5,401.5C 352.167,401.833 352.833,402.167 353.5,402.5C 352.833,403.167 352.167,403.833 351.5,404.5C 351.838,406.655 351.838,408.989 351.5,411.5C 350.293,415.787 349.293,420.12 348.5,424.5C 347.49,430.673 343.824,433.839 337.5,434C 336.646,435.022 335.646,435.855 334.5,436.5C 333.803,440.377 333.136,444.21 332.5,448C 329.486,448.128 326.486,448.128 323.5,448C 321.627,449.704 319.96,451.537 318.5,453.5C 317.508,453.328 316.842,453.662 316.5,454.5C 313.732,457.771 310.732,460.938 307.5,464C 303.5,464.333 299.5,464.667 295.5,465C 291.91,466.53 288.243,467.864 284.5,469C 275.324,469.17 266.324,469.67 257.5,470.5C 257.167,470.5 256.833,470.5 256.5,470.5C 251.329,472.002 246.662,471.002 242.5,467.5C 240.217,468.321 237.884,468.988 235.5,469.5C 233.832,466.546 231.665,466.88 229,470.5C 228.506,472.134 228.34,473.801 228.5,475.5C 225.753,469.542 222.087,464.042 217.5,459C 214.056,458.889 211.723,457.223 210.5,454C 208.167,453 205.833,452 203.5,451C 201.105,447.333 198.105,444.333 194.5,442C 193.552,441.517 192.552,441.351 191.5,441.5C 191.657,440.127 191.49,438.793 191,437.5C 186.167,430 180,423.833 172.5,419C 167.141,411.273 160.474,404.94 152.5,400C 148.833,399.333 145.167,399.333 141.5,400C 140.594,402.447 139.761,404.947 139,407.5C 138.536,406.906 138.369,406.239 138.5,405.5C 138.5,405.167 138.5,404.833 138.5,404.5C 139.284,400.534 140.117,396.534 141,392.5C 141.92,392.07 142.753,391.736 143.5,391.5C 142.469,390.3 141.635,388.966 141,387.5C 140.667,388.167 140.333,388.833 140,389.5C 138.382,382.672 135.882,375.839 132.5,369C 134.961,367.403 135.127,365.57 133,363.5C 132.667,363.833 132.333,364.167 132,364.5C 132.038,359.076 130.704,354.076 128,349.5C 127.351,352.937 126.851,353.104 126.5,350C 127.566,347.79 127.732,345.623 127,343.5C 131.712,344.046 134.212,346.713 134.5,351.5C 135.495,346.208 135.828,340.875 135.5,335.5C 134.022,335.762 132.689,335.429 131.5,334.5C 128.928,331.287 127.428,327.62 127,323.5C 125.369,326.038 124.036,328.705 123,331.5C 121.197,329.865 120.03,327.865 119.5,325.5C 119.59,323.575 120.59,322.408 122.5,322C 122.043,321.586 121.709,321.086 121.5,320.5C 123.607,317.725 123.941,314.725 122.5,311.5C 121.719,312.729 121.219,314.062 121,315.5C 119.833,313 118,311.167 115.5,310C 116.91,309.632 117.91,308.799 118.5,307.5C 115.621,303.576 112.621,299.743 109.5,296C 109.957,295.586 110.291,295.086 110.5,294.5C 106.781,288.318 103.447,281.985 100.5,275.5C 98.8068,274.772 97.3068,273.772 96,272.5C 96.228,281.63 94.8947,282.297 92,274.5C 91,273.833 90,273.167 89,272.5C 88.0266,274.392 87.3599,276.392 87,278.5C 85.9887,277.663 84.8221,277.33 83.5,277.5C 83.2738,268.817 82.9405,260.484 82.5,252.5C 83.1667,251.167 83.8333,249.833 84.5,248.5C 83.1369,247.107 82.3036,245.441 82,243.5C 81.2888,236.844 80.7888,230.178 80.5,223.5C 78.5,223.5 76.5,223.5 74.5,223.5C 72.4225,212.294 71.0891,200.961 70.5,189.5C 70.8971,188.014 71.2305,186.514 71.5,185C 70.0085,178.926 69.0085,172.759 68.5,166.5C 69.1313,161.55 69.1313,156.55 68.5,151.5C 68.6407,148.181 69.3073,145.014 70.5,142C 69.7636,139.861 68.7636,137.861 67.5,136C 69.6621,133.478 69.9955,130.645 68.5,127.5C 67.6858,129.766 67.1858,132.1 67,134.5C 64.3408,132.94 63.1741,130.607 63.5,127.5C 64.5,127.5 65.5,127.5 66.5,127.5C 68.2038,122.419 70.2038,117.419 72.5,112.5C 74.1492,111.852 75.4825,110.852 76.5,109.5C 76.433,107.576 76.0997,105.576 75.5,103.5C 74.6399,105.931 72.9732,107.264 70.5,107.5C 70.3505,106.448 70.5172,105.448 71,104.5C 73.5968,102.182 76.0968,99.6824 78.5,97C 78.1667,96.6667 77.8333,96.3333 77.5,96C 78.8304,96.0772 80.1637,96.5772 81.5,97.5C 85.046,94.897 89.046,93.0637 93.5,92C 93.8116,90.3362 94.6449,88.5029 96,86.5C 96.3333,86.8333 96.6667,87.1667 97,87.5C 99.0581,86.8905 99.8914,85.8905 99.5,84.5C 100.086,84.7093 100.586,85.0426 101,85.5C 101.667,84.1667 102.333,82.8333 103,81.5C 104.472,83.4421 106.472,84.4421 109,84.5C 114.884,82.0208 121.051,81.0208 127.5,81.5C 131.5,81.6667 135.5,81.8333 139.5,82C 141.243,83.6352 143.077,83.8019 145,82.5C 147.73,83.8614 150.563,84.3614 153.5,84C 152.346,83.0862 152.513,82.2529 154,81.5C 158.16,83.837 162.66,85.0036 167.5,85C 164.854,85.4974 162.187,85.6641 159.5,85.5C 159.5,86.5 159.5,87.5 159.5,88.5C 164.833,88.5 170.167,88.5 175.5,88.5C 175.5,87.5 175.5,86.5 175.5,85.5C 184.201,86.0397 192.534,84.7064 200.5,81.5C 201.167,81.8333 201.833,82.1667 202.5,82.5C 203.833,81.5 205.167,80.5 206.5,79.5C 209.3,80.7319 212.3,81.3985 215.5,81.5C 225.956,81.2271 225.956,80.0605 215.5,78C 218.361,76.7543 221.361,75.7543 224.5,75C 231.688,74.8018 238.688,74.9685 245.5,75.5C 249.802,72.8415 254.135,72.8415 258.5,75.5C 259.5,75.3333 260.5,75.1667 261.5,75C 257.633,73.0125 257.633,72.5125 261.5,73.5C 262.478,73.0233 263.311,72.3567 264,71.5C 264.839,72.6241 266.006,73.2908 267.5,73.5C 270.15,73.965 272.816,74.2983 275.5,74.5C 284.777,73.085 294.11,72.4183 303.5,72.5C 314.177,73.1686 324.844,73.8353 335.5,74.5C 335.5,73.5 335.5,72.5 335.5,71.5C 330.033,70.9228 324.533,70.9228 319,71.5C 316.815,71.0788 314.649,70.5788 312.5,70C 311.304,69.3457 311.304,68.8457 312.5,68.5C 313.446,68.9867 314.446,69.3201 315.5,69.5C 334.594,65.7349 353.761,65.0682 373,67.5C 375.167,67.8333 377.333,68.1667 379.5,68.5C 378.975,69.1924 378.308,69.6924 377.5,70C 378.833,70.6667 380.167,71.3333 381.5,72C 381.167,72.3333 380.833,72.6667 380.5,73C 383.473,75.9701 386.806,78.1368 390.5,79.5C 390.5,80.5 390.5,81.5 390.5,82.5C 394.722,82.0781 398.722,82.7448 402.5,84.5C 406.773,89.8172 409.606,95.8172 411,102.5C 412.356,103.38 413.856,103.714 415.5,103.5 Z"/></g>
<g><path style="opacity:1" fill="#020a0c" d="M 406.5,80.5 C 407.343,83.5162 408.843,86.1829 411,88.5C 411.183,91.3647 411.683,94.0314 412.5,96.5C 413.242,98.9798 414.242,101.313 415.5,103.5C 413.856,103.714 412.356,103.38 411,102.5C 409.606,95.8172 406.773,89.8172 402.5,84.5C 398.722,82.7448 394.722,82.0781 390.5,82.5C 390.5,81.5 390.5,80.5 390.5,79.5C 386.806,78.1368 383.473,75.9701 380.5,73C 380.833,72.6667 381.167,72.3333 381.5,72C 380.167,71.3333 378.833,70.6667 377.5,70C 378.308,69.6924 378.975,69.1924 379.5,68.5C 377.333,68.1667 375.167,67.8333 373,67.5C 353.761,65.0682 334.594,65.7349 315.5,69.5C 314.446,69.3201 313.446,68.9867 312.5,68.5C 311.304,68.8457 311.304,69.3457 312.5,70C 314.649,70.5788 316.815,71.0788 319,71.5C 324.533,70.9228 330.033,70.9228 335.5,71.5C 335.5,72.5 335.5,73.5 335.5,74.5C 324.844,73.8353 314.177,73.1686 303.5,72.5C 294.11,72.4183 284.777,73.085 275.5,74.5C 272.816,74.2983 270.15,73.965 267.5,73.5C 266.006,73.2908 264.839,72.6241 264,71.5C 263.311,72.3567 262.478,73.0233 261.5,73.5C 257.633,72.5125 257.633,73.0125 261.5,75C 260.5,75.1667 259.5,75.3333 258.5,75.5C 254.135,72.8415 249.802,72.8415 245.5,75.5C 238.688,74.9685 231.688,74.8018 224.5,75C 221.361,75.7543 218.361,76.7543 215.5,78C 225.956,80.0605 225.956,81.2271 215.5,81.5C 212.3,81.3985 209.3,80.7319 206.5,79.5C 205.167,80.5 203.833,81.5 202.5,82.5C 201.833,82.1667 201.167,81.8333 200.5,81.5C 192.534,84.7064 184.201,86.0397 175.5,85.5C 175.5,86.5 175.5,87.5 175.5,88.5C 170.167,88.5 164.833,88.5 159.5,88.5C 159.5,87.5 159.5,86.5 159.5,85.5C 162.187,85.6641 164.854,85.4974 167.5,85C 162.66,85.0036 158.16,83.837 154,81.5C 152.513,82.2529 152.346,83.0862 153.5,84C 150.563,84.3614 147.73,83.8614 145,82.5C 143.077,83.8019 141.243,83.6352 139.5,82C 135.5,81.8333 131.5,81.6667 127.5,81.5C 121.051,81.0208 114.884,82.0208 109,84.5C 106.472,84.4421 104.472,83.4421 103,81.5C 102.333,82.8333 101.667,84.1667 101,85.5C 100.586,85.0426 100.086,84.7093 99.5,84.5C 99.8914,85.8905 99.0581,86.8905 97,87.5C 96.6667,87.1667 96.3333,86.8333 96,86.5C 94.6449,88.5029 93.8116,90.3362 93.5,92C 89.046,93.0637 85.046,94.897 81.5,97.5C 80.1637,96.5772 78.8304,96.0772 77.5,96C 77.8333,96.3333 78.1667,96.6667 78.5,97C 76.0968,99.6824 73.5968,102.182 71,104.5C 70.5172,105.448 70.3505,106.448 70.5,107.5C 72.9732,107.264 74.6399,105.931 75.5,103.5C 76.0997,105.576 76.433,107.576 76.5,109.5C 75.4825,110.852 74.1492,111.852 72.5,112.5C 70.2038,117.419 68.2038,122.419 66.5,127.5C 65.5,127.5 64.5,127.5 63.5,127.5C 63.1741,130.607 64.3408,132.94 67,134.5C 67.1858,132.1 67.6858,129.766 68.5,127.5C 69.9955,130.645 69.6621,133.478 67.5,136C 68.7636,137.861 69.7636,139.861 70.5,142C 69.3073,145.014 68.6407,148.181 68.5,151.5C 69.1313,156.55 69.1313,161.55 68.5,166.5C 69.0085,172.759 70.0085,178.926 71.5,185C 71.2305,186.514 70.8971,188.014 70.5,189.5C 71.0891,200.961 72.4225,212.294 74.5,223.5C 76.5,223.5 78.5,223.5 80.5,223.5C 80.7888,230.178 81.2888,236.844 82,243.5C 82.3036,245.441 83.1369,247.107 84.5,248.5C 83.8333,249.833 83.1667,251.167 82.5,252.5C 82.9405,260.484 83.2738,268.817 83.5,277.5C 84.8221,277.33 85.9887,277.663 87,278.5C 87.3599,276.392 88.0266,274.392 89,272.5C 90,273.167 91,273.833 92,274.5C 94.8947,282.297 96.228,281.63 96,272.5C 97.3068,273.772 98.8068,274.772 100.5,275.5C 103.447,281.985 106.781,288.318 110.5,294.5C 110.291,295.086 109.957,295.586 109.5,296C 112.621,299.743 115.621,303.576 118.5,307.5C 117.91,308.799 116.91,309.632 115.5,310C 118,311.167 119.833,313 121,315.5C 121.219,314.062 121.719,312.729 122.5,311.5C 123.941,314.725 123.607,317.725 121.5,320.5C 121.709,321.086 122.043,321.586 122.5,322C 120.59,322.408 119.59,323.575 119.5,325.5C 120.03,327.865 121.197,329.865 123,331.5C 124.036,328.705 125.369,326.038 127,323.5C 127.428,327.62 128.928,331.287 131.5,334.5C 132.689,335.429 134.022,335.762 135.5,335.5C 135.828,340.875 135.495,346.208 134.5,351.5C 134.212,346.713 131.712,344.046 127,343.5C 127.732,345.623 127.566,347.79 126.5,350C 126.851,353.104 127.351,352.937 128,349.5C 130.704,354.076 132.038,359.076 132,364.5C 132.333,364.167 132.667,363.833 133,363.5C 135.127,365.57 134.961,367.403 132.5,369C 135.882,375.839 138.382,382.672 140,389.5C 140.333,388.833 140.667,388.167 141,387.5C 141.635,388.966 142.469,390.3 143.5,391.5C 142.753,391.736 141.92,392.07 141,392.5C 140.117,396.534 139.284,400.534 138.5,404.5C 137.225,400.898 136.225,397.231 135.5,393.5C 130.065,376.952 124.899,360.285 120,343.5C 118.329,336.476 116.663,329.476 115,322.5C 111.005,321.416 108.171,322.916 106.5,327C 104.861,328.519 103.194,328.686 101.5,327.5C 102.223,321.428 100.889,315.928 97.5,311C 96.2341,310.691 95.0674,310.191 94,309.5C 92.1082,302.604 90.6082,295.604 89.5,288.5C 88.635,287.417 87.635,287.251 86.5,288C 84.3228,289.515 82.1561,291.015 80,292.5C 79.0979,292.257 78.2646,291.923 77.5,291.5C 76.9388,288.718 76.6055,285.884 76.5,283C 79.4052,265.392 79.0719,247.892 75.5,230.5C 75.38,229.414 74.7133,228.747 73.5,228.5C 70.8756,230.622 68.3756,232.955 66,235.5C 66.5327,215.516 66.5327,195.516 66,175.5C 62.3546,172.226 59.688,168.226 58,163.5C 55.6939,154.965 55.0273,146.299 56,137.5C 57.785,127.574 59.9517,117.741 62.5,108C 64.6769,102.48 67.5102,97.3134 71,92.5C 72.214,90.9512 73.714,89.7845 75.5,89C 82.7768,87.5263 89.4435,84.6929 95.5,80.5C 97.3083,79.0927 99.3083,77.926 101.5,77C 115.316,73.7098 129.316,72.7098 143.5,74C 169.512,77.0713 195.512,76.9046 221.5,73.5C 222.167,73.5 222.833,73.5 223.5,73.5C 251.074,70.0953 278.741,67.5953 306.5,66C 327.828,64.426 349.161,64.2593 370.5,65.5C 374.232,65.6585 377.732,64.9919 381,63.5C 385.596,64.3817 389.762,66.215 393.5,69C 397.408,73.4134 401.741,77.2467 406.5,80.5 Z"/></g>
<g><path style="opacity:1" fill="#37515f" d="M 406.5,80.5 C 411.844,84.3169 413.844,89.6502 412.5,96.5C 411.683,94.0314 411.183,91.3647 411,88.5C 408.843,86.1829 407.343,83.5162 406.5,80.5 Z"/></g>
<g><path style="opacity:1" fill="#02060c" d="M 415.5,103.5 C 418.607,107.379 420.941,111.712 422.5,116.5C 418.15,139.419 413.984,162.419 410,185.5C 410.151,198.54 409.318,211.206 407.5,223.5C 406.304,221.019 404.804,221.019 403,223.5C 401.168,228.487 399.668,233.487 398.5,238.5C 398.216,240.415 398.549,242.081 399.5,243.5C 399.666,248.511 399.499,253.511 399,258.5C 398.612,259.428 397.945,260.095 397,260.5C 395.862,260.011 394.695,259.678 393.5,259.5C 388.847,252.577 385.513,253.243 383.5,261.5C 383.756,259.208 383.423,257.041 382.5,255C 383.449,254.383 384.282,254.549 385,255.5C 385.456,254.256 384.956,253.423 383.5,253C 384.614,251.43 385.947,250.097 387.5,249C 386.584,248.626 385.75,248.126 385,247.5C 384.431,251.361 383.598,251.361 382.5,247.5C 381.757,248.908 380.923,250.241 380,251.5C 379.333,249.167 379.333,246.833 380,244.5C 381.011,245.337 382.178,245.67 383.5,245.5C 383.5,243.5 383.5,241.5 383.5,239.5C 384.5,239.5 385.5,239.5 386.5,239.5C 386.25,236.786 386.083,234.119 386,231.5C 387.57,230.386 388.903,229.053 390,227.5C 392.063,221.146 394.229,214.813 396.5,208.5C 397.325,207.614 398.325,207.281 399.5,207.5C 399.332,212.532 400.332,212.699 402.5,208C 401.527,202.593 401.193,197.093 401.5,191.5C 402.833,191.5 404.167,191.5 405.5,191.5C 406.517,189.948 407.017,186.281 407,180.5C 409.488,178.685 409.821,176.685 408,174.5C 406.721,176.937 405.221,177.437 403.5,176C 405.101,170.761 406.101,165.261 406.5,159.5C 407.478,159.023 408.311,158.357 409,157.5C 409.93,152.71 411.264,148.044 413,143.5C 413.263,135.73 414.263,128.063 416,120.5C 416.718,121.451 417.551,121.617 418.5,121C 418.056,119.467 417.723,117.967 417.5,116.5C 416.833,117.5 416.167,118.5 415.5,119.5C 415.167,119.167 414.833,118.833 414.5,118.5C 415.374,116.253 415.708,113.92 415.5,111.5C 413.167,111.5 410.833,111.5 408.5,111.5C 408.275,109.284 409.108,107.617 411,106.5C 414.957,109.819 416.457,108.819 415.5,103.5 Z"/></g>
<g><path style="opacity:1" fill="#536f7f" d="M 422.5,116.5 C 423.962,125.078 422.796,133.411 419,141.5C 418.185,151.53 417.352,161.53 416.5,171.5C 415.034,172.347 414.2,173.68 414,175.5C 413,180.167 412,184.833 411,189.5C 410.667,201.167 410.333,212.833 410,224.5C 408.488,225.257 407.154,226.257 406,227.5C 404.386,233.155 402.219,238.489 399.5,243.5C 398.549,242.081 398.216,240.415 398.5,238.5C 401.409,233.904 403.409,228.904 404.5,223.5C 405.5,223.5 406.5,223.5 407.5,223.5C 409.318,211.206 410.151,198.54 410,185.5C 413.984,162.419 418.15,139.419 422.5,116.5 Z"/></g>
<g><path style="opacity:1" fill="#845940" d="M 313.5,188.5 C 301.057,188.297 288.724,189.297 276.5,191.5C 288.632,187.685 300.966,186.685 313.5,188.5 Z"/></g>
<g><path style="opacity:1" fill="#c28f67" d="M 313.5,188.5 C 316.311,188.826 318.978,189.659 321.5,191C 322.823,191.816 323.489,192.983 323.5,194.5C 321.859,193.853 320.526,192.853 319.5,191.5C 314.499,191.25 309.499,190.917 304.5,190.5C 293.559,192.136 282.559,192.803 271.5,192.5C 272.919,191.549 274.585,191.216 276.5,191.5C 288.724,189.297 301.057,188.297 313.5,188.5 Z"/></g>
<g><path style="opacity:1" fill="#a68a72" d="M 269.5,192.5 C 269.5,192.833 269.5,193.167 269.5,193.5C 262.595,195.148 255.595,196.148 248.5,196.5C 255.235,194.437 262.235,193.103 269.5,192.5 Z"/></g>
<g><path style="opacity:1" fill="#cfa378" d="M 319.5,191.5 C 320.243,195.423 320.243,199.423 319.5,203.5C 317.517,206.475 314.85,208.808 311.5,210.5C 308.653,208.371 305.32,207.371 301.5,207.5C 296.283,206.848 291.117,206.848 286,207.5C 283.528,206.258 281.028,205.092 278.5,204C 276.623,203.424 274.789,203.591 273,204.5C 270.774,204.022 268.608,203.355 266.5,202.5C 269.711,200.938 273.044,199.438 276.5,198C 274.266,196.25 271.932,194.75 269.5,193.5C 269.5,193.167 269.5,192.833 269.5,192.5C 270.167,192.5 270.833,192.5 271.5,192.5C 282.559,192.803 293.559,192.136 304.5,190.5C 309.499,190.917 314.499,191.25 319.5,191.5 Z"/></g>
<g><path style="opacity:1" fill="#a6866a" d="M 247.5,196.5 C 243.915,198.806 239.915,200.139 235.5,200.5C 239.085,198.194 243.085,196.861 247.5,196.5 Z"/></g>
<g><path style="opacity:1" fill="#876a56" d="M 323.5,194.5 C 325.721,198.436 327.054,202.77 327.5,207.5C 330.93,210.263 333.93,213.263 336.5,216.5C 333.838,214.732 330.838,214.065 327.5,214.5C 326.094,207.849 324.761,201.182 323.5,194.5 Z"/></g>
<g><path style="opacity:1" fill="#628394" d="M 416.5,171.5 C 421.5,171.5 426.5,171.5 431.5,171.5C 431.5,172.833 431.5,174.167 431.5,175.5C 426.125,175.172 420.792,175.505 415.5,176.5C 416.09,177.799 417.09,178.632 418.5,179C 424.401,178.714 429.734,180.047 434.5,183C 433.552,183.483 432.552,183.649 431.5,183.5C 432.016,190.842 432.183,197.842 432,204.5C 434.58,206.253 437.413,207.253 440.5,207.5C 440.276,211.562 438.276,214.395 434.5,216C 435,216.5 435.5,217 436,217.5C 437.133,215.789 438.633,215.289 440.5,216C 442.167,218.333 443.833,220.667 445.5,223C 448.5,223.333 451.5,223.667 454.5,224C 452.167,225.5 449.833,227 447.5,228.5C 448.347,229.845 449.513,230.845 451,231.5C 451.333,234.167 451.667,236.833 452,239.5C 453.074,240.618 454.24,241.618 455.5,242.5C 455.167,242.833 454.833,243.167 454.5,243.5C 452.5,242.167 450.5,240.833 448.5,239.5C 447.266,241.398 447.599,243.065 449.5,244.5C 448.833,245.167 448.167,245.833 447.5,246.5C 455.394,247.807 455.394,248.473 447.5,248.5C 447.485,252.56 447.985,256.56 449,260.5C 450.587,261.727 451.921,261.394 453,259.5C 454.444,262.055 455.611,264.721 456.5,267.5C 459.695,268.829 460.028,270.495 457.5,272.5C 458,272.833 458.5,273.167 459,273.5C 462.365,270.849 466.198,269.016 470.5,268C 473.047,267.34 475.547,267.507 478,268.5C 481.176,268.266 483.676,266.932 485.5,264.5C 483.021,261.594 482.854,258.594 485,255.5C 487.521,259.22 490.854,260.22 495,258.5C 498.14,261.032 500.307,260.199 501.5,256C 500.39,253.263 500.223,250.429 501,247.5C 502.695,244.569 503.862,241.402 504.5,238C 501.975,237.241 500.642,235.074 500.5,231.5C 501.5,231.5 502.5,231.5 503.5,231.5C 503.492,225.792 503.992,225.459 505,230.5C 505.732,227.471 506.565,224.471 507.5,221.5C 505.927,220.765 504.593,219.599 503.5,218C 503.867,215.756 504.867,215.256 506.5,216.5C 507.484,213.572 507.817,210.572 507.5,207.5C 505.833,207.5 504.167,207.5 502.5,207.5C 502.928,203.067 505.261,200.067 509.5,198.5C 510.167,204.654 510.833,210.654 511.5,216.5C 511.5,314.833 511.5,413.167 511.5,511.5C 479.5,511.5 447.5,511.5 415.5,511.5C 415.5,508.167 415.5,504.833 415.5,501.5C 410.167,501.5 404.833,501.5 399.5,501.5C 399.752,498.68 399.252,496.014 398,493.5C 393.5,489.167 389,484.833 384.5,480.5C 382.955,479.548 381.288,479.215 379.5,479.5C 378.167,458.167 376.833,436.833 375.5,415.5C 371.818,415.665 368.152,415.499 364.5,415C 365.444,408.763 366.444,402.263 367.5,395.5C 367.833,394.167 368.167,392.833 368.5,391.5C 369.901,397.201 371.401,402.867 373,408.5C 374.667,412.5 376.333,412.5 378,408.5C 379.149,405.607 379.649,402.607 379.5,399.5C 380.833,399.5 382.167,399.5 383.5,399.5C 383.667,385.829 383.5,372.163 383,358.5C 381.92,356.447 381.086,354.28 380.5,352C 384.152,351.501 387.818,351.335 391.5,351.5C 391.5,346.167 391.5,340.833 391.5,335.5C 389.076,335.808 386.743,335.474 384.5,334.5C 389,330.167 393.5,325.833 398,321.5C 398.016,317.777 399.516,314.443 402.5,311.5C 403.48,308.914 403.813,306.247 403.5,303.5C 401.473,303.662 399.473,303.495 397.5,303C 397.833,302.667 398.167,302.333 398.5,302C 396.442,300.51 395.109,298.51 394.5,296C 390.697,295.006 386.863,294.506 383,294.5C 382.667,305.167 382.333,315.833 382,326.5C 381.667,325.833 381.333,325.167 381,324.5C 379.48,328.352 376.647,330.185 372.5,330C 370.787,331.378 369.453,333.045 368.5,335C 367.552,335.483 366.552,335.649 365.5,335.5C 365.922,341.691 366.589,347.858 367.5,354C 368.296,358.18 366.963,361.347 363.5,363.5C 363.167,365.5 362.833,367.5 362.5,369.5C 363.135,375.152 363.468,380.818 363.5,386.5C 361.755,382.8 360.755,378.8 360.5,374.5C 360.334,369.821 360.501,365.155 361,360.5C 362.11,358.963 363.61,358.297 365.5,358.5C 365.802,355.941 365.468,353.607 364.5,351.5C 364.5,350.5 364.5,349.5 364.5,348.5C 362.891,340.009 363.391,331.676 366,323.5C 368.948,325.035 371.948,326.368 375,327.5C 376.711,327.561 378.044,326.894 379,325.5C 380.344,314.882 380.844,304.216 380.5,293.5C 380.5,293.167 380.5,292.833 380.5,292.5C 382.017,292.489 383.184,291.823 384,290.5C 384.333,281.167 384.667,271.833 385,262.5C 386.741,258.521 389.575,257.521 393.5,259.5C 394.695,259.678 395.862,260.011 397,260.5C 397.945,260.095 398.612,259.428 399,258.5C 399.499,253.511 399.666,248.511 399.5,243.5C 402.219,238.489 404.386,233.155 406,227.5C 407.154,226.257 408.488,225.257 410,224.5C 410.333,212.833 410.667,201.167 411,189.5C 412,184.833 413,180.167 414,175.5C 414.2,173.68 415.034,172.347 416.5,171.5 Z"/></g>
<g><path style="opacity:1" fill="#8d6d56" d="M 233.5,200.5 C 232.329,201.345 230.995,202.011 229.5,202.5C 227.565,203.15 225.565,203.483 223.5,203.5C 226.505,201.723 229.838,200.723 233.5,200.5 Z"/></g>
<g><path style="opacity:1" fill="#d7ac7f" d="M 269.5,193.5 C 271.932,194.75 274.266,196.25 276.5,198C 273.044,199.438 269.711,200.938 266.5,202.5C 268.608,203.355 270.774,204.022 273,204.5C 274.789,203.591 276.623,203.424 278.5,204C 281.028,205.092 283.528,206.258 286,207.5C 291.117,206.848 296.283,206.848 301.5,207.5C 305.32,207.371 308.653,208.371 311.5,210.5C 314.85,208.808 317.517,206.475 319.5,203.5C 320.496,203.414 321.329,203.748 322,204.5C 324.772,210.725 324.938,217.058 322.5,223.5C 324.655,223.372 326.655,223.872 328.5,225C 329.833,227.667 331.833,229.667 334.5,231C 330.936,233.951 327.27,236.785 323.5,239.5C 321.912,238.99 320.745,237.99 320,236.5C 318.82,237.684 317.32,238.351 315.5,238.5C 310.193,239.276 304.86,239.609 299.5,239.5C 297.615,237.15 297.282,234.65 298.5,232C 295.928,231.568 294.594,230.068 294.5,227.5C 295.653,226.687 295.653,225.687 294.5,224.5C 295.689,223.571 297.022,223.238 298.5,223.5C 300,227.33 300.667,231.33 300.5,235.5C 301.5,235.5 302.5,235.5 303.5,235.5C 302.926,231.733 304.093,228.733 307,226.5C 307.497,224.19 307.663,221.857 307.5,219.5C 303.613,218.149 299.613,217.149 295.5,216.5C 295.5,215.5 295.5,214.5 295.5,213.5C 284.847,212.556 274.181,212.39 263.5,213C 260.077,213.549 256.744,214.382 253.5,215.5C 249.578,214.784 249.578,214.117 253.5,213.5C 253.167,211.5 252.833,209.5 252.5,207.5C 241.828,207.667 231.161,207.5 220.5,207C 223.714,205.626 226.714,204.126 229.5,202.5C 230.995,202.011 232.329,201.345 233.5,200.5C 234.167,200.5 234.833,200.5 235.5,200.5C 239.915,200.139 243.915,198.806 247.5,196.5C 247.833,196.5 248.167,196.5 248.5,196.5C 255.595,196.148 262.595,195.148 269.5,193.5 Z"/></g>
<g><path style="opacity:1" fill="#8d6448" d="M 222.5,203.5 C 220.485,204.924 218.152,205.59 215.5,205.5C 217.515,204.076 219.848,203.41 222.5,203.5 Z"/></g>
<g><path style="opacity:1" fill="#886142" d="M 213.5,205.5 C 213.5,205.833 213.5,206.167 213.5,206.5C 211.565,207.15 209.565,207.483 207.5,207.5C 209.102,205.926 211.102,205.259 213.5,205.5 Z"/></g>
<g><path style="opacity:1" fill="#daac7a" d="M 229.5,202.5 C 226.714,204.126 223.714,205.626 220.5,207C 231.161,207.5 241.828,207.667 252.5,207.5C 252.833,209.5 253.167,211.5 253.5,213.5C 249.578,214.117 249.578,214.784 253.5,215.5C 256.744,214.382 260.077,213.549 263.5,213C 274.181,212.39 284.847,212.556 295.5,213.5C 295.5,214.5 295.5,215.5 295.5,216.5C 299.613,217.149 303.613,218.149 307.5,219.5C 307.663,221.857 307.497,224.19 307,226.5C 304.093,228.733 302.926,231.733 303.5,235.5C 302.5,235.5 301.5,235.5 300.5,235.5C 300.667,231.33 300,227.33 298.5,223.5C 297.022,223.238 295.689,223.571 294.5,224.5C 295.653,225.687 295.653,226.687 294.5,227.5C 293.839,226.282 293.172,224.949 292.5,223.5C 291.914,223.709 291.414,224.043 291,224.5C 289.024,223.572 287.191,222.405 285.5,221C 281.113,220.774 276.779,220.274 272.5,219.5C 266.796,222.564 261.129,225.564 255.5,228.5C 254.551,230.737 253.884,233.071 253.5,235.5C 248.833,235.5 244.167,235.5 239.5,235.5C 239.5,238.167 239.5,240.833 239.5,243.5C 236.65,243.636 233.817,243.969 231,244.5C 227.847,242.474 224.68,242.308 221.5,244C 223.584,245.771 225.918,247.104 228.5,248C 227.552,248.483 226.552,248.649 225.5,248.5C 224.833,248.5 224.167,248.5 223.5,248.5C 221.898,246.926 219.898,246.259 217.5,246.5C 215.716,246.107 214.05,245.441 212.5,244.5C 211.07,243.463 209.403,242.796 207.5,242.5C 205.491,240.935 203.157,239.935 200.5,239.5C 198.036,238.433 195.703,237.1 193.5,235.5C 192.067,233.442 191.4,231.108 191.5,228.5C 194.509,228.423 196.676,229.756 198,232.5C 198.741,231.359 199.575,231.359 200.5,232.5C 201.429,233.689 201.762,235.022 201.5,236.5C 206.375,237.281 211.042,238.614 215.5,240.5C 217.709,240.396 219.876,240.063 222,239.5C 224.267,241.258 226.767,241.758 229.5,241C 228.437,239.812 227.103,239.312 225.5,239.5C 225.682,237.325 226.349,235.325 227.5,233.5C 225.748,230.809 226.248,230.142 229,231.5C 229.782,225.985 231.616,220.985 234.5,216.5C 233.079,212.724 231.245,212.724 229,216.5C 227.561,214.986 226.061,214.653 224.5,215.5C 223.571,214.311 223.238,212.978 223.5,211.5C 220.659,211.44 217.993,210.774 215.5,209.5C 215.082,208.778 214.416,208.278 213.5,208C 220.134,207.177 220.134,206.677 213.5,206.5C 213.5,206.167 213.5,205.833 213.5,205.5C 214.167,205.5 214.833,205.5 215.5,205.5C 218.152,205.59 220.485,204.924 222.5,203.5C 222.833,203.5 223.167,203.5 223.5,203.5C 225.565,203.483 227.565,203.15 229.5,202.5 Z"/></g>
<g><path style="opacity:1" fill="#daa76e" d="M 215.5,209.5 C 217.993,210.774 220.659,211.44 223.5,211.5C 223.238,212.978 223.571,214.311 224.5,215.5C 226.061,214.653 227.561,214.986 229,216.5C 231.245,212.724 233.079,212.724 234.5,216.5C 231.616,220.985 229.782,225.985 229,231.5C 226.248,230.142 225.748,230.809 227.5,233.5C 226.349,235.325 225.682,237.325 225.5,239.5C 227.103,239.312 228.437,239.812 229.5,241C 226.767,241.758 224.267,241.258 222,239.5C 219.876,240.063 217.709,240.396 215.5,240.5C 211.042,238.614 206.375,237.281 201.5,236.5C 201.762,235.022 201.429,233.689 200.5,232.5C 199.575,231.359 198.741,231.359 198,232.5C 196.676,229.756 194.509,228.423 191.5,228.5C 191.4,231.108 192.067,233.442 193.5,235.5C 191.621,234.103 189.954,232.437 188.5,230.5C 186.909,229.781 185.409,228.781 184,227.5C 183.386,225.687 183.719,225.353 185,226.5C 188.291,225.736 191.457,224.569 194.5,223C 193.391,221.187 194.058,220.354 196.5,220.5C 196.5,219.5 196.5,218.5 196.5,217.5C 198.816,216.064 201.316,214.731 204,213.5C 204.95,214.022 205.784,214.689 206.5,215.5C 209.273,213.043 212.273,211.043 215.5,209.5 Z"/></g>
<g><path style="opacity:1" fill="#dcaf7e" d="M 294.5,227.5 C 294.594,230.068 295.928,231.568 298.5,232C 297.282,234.65 297.615,237.15 299.5,239.5C 298.262,239.81 298.262,240.31 299.5,241C 300.793,241.49 302.127,241.657 303.5,241.5C 303.5,243.5 303.5,245.5 303.5,247.5C 298.643,247.492 294.31,245.992 290.5,243C 288.5,242.333 286.5,242.333 284.5,243C 283.423,246.92 283.423,251.086 284.5,255.5C 289.56,256.844 290.56,259.677 287.5,264C 287.667,264.833 287.833,265.667 288,266.5C 289.347,264.534 290.847,264.201 292.5,265.5C 292.5,267.5 292.5,269.5 292.5,271.5C 293.873,271.343 295.207,271.51 296.5,272C 297.452,273.911 297.786,276.078 297.5,278.5C 299.541,279.236 301.541,280.069 303.5,281C 297.375,281.927 292.375,280.093 288.5,275.5C 286.831,276.671 285.331,278.004 284,279.5C 282.237,279.025 280.57,278.358 279,277.5C 275.38,279.183 271.546,279.85 267.5,279.5C 265.473,279.338 263.473,279.505 261.5,280C 259.957,281.878 258.124,283.378 256,284.5C 254.281,282.684 252.115,281.684 249.5,281.5C 246.326,281.831 242.992,281.831 239.5,281.5C 239.74,278.421 239.407,275.421 238.5,272.5C 234.803,271.298 231.47,269.464 228.5,267C 230.875,264.824 233.208,262.657 235.5,260.5C 235.661,262.97 236.828,265.303 239,267.5C 239.499,263.179 239.666,258.846 239.5,254.5C 236.833,254.833 234.167,255.167 231.5,255.5C 232.739,254.788 233.239,253.788 233,252.5C 230.7,250.591 228.2,249.257 225.5,248.5C 226.552,248.649 227.552,248.483 228.5,248C 225.918,247.104 223.584,245.771 221.5,244C 224.68,242.308 227.847,242.474 231,244.5C 233.817,243.969 236.65,243.636 239.5,243.5C 239.5,240.833 239.5,238.167 239.5,235.5C 244.167,235.5 248.833,235.5 253.5,235.5C 253.884,233.071 254.551,230.737 255.5,228.5C 261.129,225.564 266.796,222.564 272.5,219.5C 276.779,220.274 281.113,220.774 285.5,221C 287.191,222.405 289.024,223.572 291,224.5C 291.414,224.043 291.914,223.709 292.5,223.5C 293.172,224.949 293.839,226.282 294.5,227.5 Z"/></g>
<g><path style="opacity:1" fill="#c9905d" d="M 213.5,206.5 C 220.134,206.677 220.134,207.177 213.5,208C 214.416,208.278 215.082,208.778 215.5,209.5C 212.273,211.043 209.273,213.043 206.5,215.5C 205.784,214.689 204.95,214.022 204,213.5C 201.316,214.731 198.816,216.064 196.5,217.5C 196.5,218.5 196.5,219.5 196.5,220.5C 194.058,220.354 193.391,221.187 194.5,223C 191.457,224.569 188.291,225.736 185,226.5C 183.719,225.353 183.386,225.687 184,227.5C 185.409,228.781 186.909,229.781 188.5,230.5C 187.833,230.5 187.167,230.5 186.5,230.5C 184.833,229.833 183.167,229.167 181.5,228.5C 181.629,226.784 181.962,225.117 182.5,223.5C 187.469,219.341 192.469,215.175 197.5,211C 200.561,208.965 203.895,207.799 207.5,207.5C 209.565,207.483 211.565,207.15 213.5,206.5 Z"/></g>
<g><path style="opacity:1" fill="#3d271c" d="M 182.5,223.5 C 181.962,225.117 181.629,226.784 181.5,228.5C 181.804,229.15 182.137,229.817 182.5,230.5C 180.955,231.452 179.288,231.785 177.5,231.5C 176.167,231.5 174.833,231.5 173.5,231.5C 174.635,229.787 176.302,229.12 178.5,229.5C 178.622,226.708 179.956,224.708 182.5,223.5 Z"/></g>
<g><path style="opacity:1" fill="#415866" d="M 407.5,223.5 C 406.5,223.5 405.5,223.5 404.5,223.5C 403.409,228.904 401.409,233.904 398.5,238.5C 399.668,233.487 401.168,228.487 403,223.5C 404.804,221.019 406.304,221.019 407.5,223.5 Z"/></g>
<g><path style="opacity:1" fill="#50381e" d="M 181.5,228.5 C 183.167,229.167 184.833,229.833 186.5,230.5C 187.234,231.708 187.567,233.041 187.5,234.5C 184.167,233.833 180.833,233.167 177.5,232.5C 177.5,232.167 177.5,231.833 177.5,231.5C 179.288,231.785 180.955,231.452 182.5,230.5C 182.137,229.817 181.804,229.15 181.5,228.5 Z"/></g>
<g><path style="opacity:1" fill="#916640" d="M 186.5,230.5 C 187.167,230.5 187.833,230.5 188.5,230.5C 189.954,232.437 191.621,234.103 193.5,235.5C 195.703,237.1 198.036,238.433 200.5,239.5C 197.183,238.779 193.849,238.612 190.5,239C 189.871,241.375 188.871,243.541 187.5,245.5C 185.139,247.194 183.139,249.194 181.5,251.5C 182.962,247.118 184.629,242.785 186.5,238.5C 186.392,237.558 186.059,236.725 185.5,236C 182.401,235.613 179.734,234.446 177.5,232.5C 180.833,233.167 184.167,233.833 187.5,234.5C 187.567,233.041 187.234,231.708 186.5,230.5 Z"/></g>
<g><path style="opacity:1" fill="#d8b791" d="M 337.5,221.5 C 341.695,230.936 341.361,240.27 336.5,249.5C 334.974,249.994 333.641,250.661 332.5,251.5C 331.391,251.557 330.391,251.89 329.5,252.5C 326.123,252.959 322.789,253.626 319.5,254.5C 293.015,254.739 293.015,253.739 319.5,251.5C 319.5,249.5 319.5,247.5 319.5,245.5C 324.087,245.424 328.087,243.924 331.5,241C 331.167,240.667 330.833,240.333 330.5,240C 332.329,239.727 333.829,238.893 335,237.5C 336.102,232.201 336.936,226.868 337.5,221.5 Z"/></g>
<g><path style="opacity:1" fill="#d7af7e" d="M 173.5,231.5 C 174.833,231.5 176.167,231.5 177.5,231.5C 177.5,231.833 177.5,232.167 177.5,232.5C 179.734,234.446 182.401,235.613 185.5,236C 186.059,236.725 186.392,237.558 186.5,238.5C 184.629,242.785 182.962,247.118 181.5,251.5C 179.394,253.282 177.061,254.615 174.5,255.5C 174.326,247.527 173.826,247.527 173,255.5C 172.5,248.174 172.334,240.841 172.5,233.5C 172.833,232.833 173.167,232.167 173.5,231.5 Z"/></g>
<g><path style="opacity:1" fill="#62482d" d="M 200.5,239.5 C 203.157,239.935 205.491,240.935 207.5,242.5C 204.654,242.448 202.32,241.448 200.5,239.5 Z"/></g>
<g><path style="opacity:1" fill="#d8b184" d="M 319.5,191.5 C 320.526,192.853 321.859,193.853 323.5,194.5C 324.761,201.182 326.094,207.849 327.5,214.5C 330.838,214.065 333.838,214.732 336.5,216.5C 337.167,216.5 337.5,216.833 337.5,217.5C 337.5,218.833 337.5,220.167 337.5,221.5C 336.936,226.868 336.102,232.201 335,237.5C 333.829,238.893 332.329,239.727 330.5,240C 330.833,240.333 331.167,240.667 331.5,241C 328.087,243.924 324.087,245.424 319.5,245.5C 319.5,247.5 319.5,249.5 319.5,251.5C 293.015,253.739 293.015,254.739 319.5,254.5C 315.702,255.483 311.702,255.817 307.5,255.5C 303.513,255.01 299.846,255.676 296.5,257.5C 295.193,259.223 295.193,261.057 296.5,263C 295.835,265.577 294.501,266.41 292.5,265.5C 290.847,264.201 289.347,264.534 288,266.5C 287.833,265.667 287.667,264.833 287.5,264C 290.56,259.677 289.56,256.844 284.5,255.5C 283.423,251.086 283.423,246.92 284.5,243C 286.5,242.333 288.5,242.333 290.5,243C 294.31,245.992 298.643,247.492 303.5,247.5C 303.5,245.5 303.5,243.5 303.5,241.5C 302.127,241.657 300.793,241.49 299.5,241C 298.262,240.31 298.262,239.81 299.5,239.5C 304.86,239.609 310.193,239.276 315.5,238.5C 317.32,238.351 318.82,237.684 320,236.5C 320.745,237.99 321.912,238.99 323.5,239.5C 327.27,236.785 330.936,233.951 334.5,231C 331.833,229.667 329.833,227.667 328.5,225C 326.655,223.872 324.655,223.372 322.5,223.5C 324.938,217.058 324.772,210.725 322,204.5C 321.329,203.748 320.496,203.414 319.5,203.5C 320.243,199.423 320.243,195.423 319.5,191.5 Z"/></g>
<g><path style="opacity:1" fill="#1a1202" d="M 200.5,239.5 C 202.32,241.448 204.654,242.448 207.5,242.5C 209.403,242.796 211.07,243.463 212.5,244.5C 210.712,244.215 209.045,244.548 207.5,245.5C 212.35,247.166 216.684,249.666 220.5,253C 219.377,254.044 218.044,254.71 216.5,255C 218.74,255.977 221.073,256.477 223.5,256.5C 222.833,257.167 222.167,257.833 221.5,258.5C 218.848,258.41 216.515,259.076 214.5,260.5C 211.921,260.394 209.588,261.061 207.5,262.5C 205.768,264.371 203.602,265.704 201,266.5C 196.908,263.254 192.408,262.921 187.5,265.5C 186.5,265.167 185.5,264.833 184.5,264.5C 183.574,260.906 183.241,257.24 183.5,253.5C 184.382,250.615 185.716,247.948 187.5,245.5C 188.871,243.541 189.871,241.375 190.5,239C 193.849,238.612 197.183,238.779 200.5,239.5 Z"/></g>
<g><path style="opacity:1" fill="#8f6f4f" d="M 217.5,246.5 C 219.898,246.259 221.898,246.926 223.5,248.5C 221.102,248.741 219.102,248.074 217.5,246.5 Z"/></g>
<g><path style="opacity:1" fill="#b9a78c" d="M 337.5,217.5 C 338.935,219.598 340.102,221.931 341,224.5C 341.971,233.62 341.471,242.62 339.5,251.5C 337.167,251.5 334.833,251.5 332.5,251.5C 333.641,250.661 334.974,249.994 336.5,249.5C 341.361,240.27 341.695,230.936 337.5,221.5C 337.5,220.167 337.5,218.833 337.5,217.5 Z"/></g>
<g><path style="opacity:1" fill="#0f0904" d="M 212.5,244.5 C 214.05,245.441 215.716,246.107 217.5,246.5C 219.102,248.074 221.102,248.741 223.5,248.5C 224.958,250.011 226.791,251.011 229,251.5C 229.49,252.793 229.657,254.127 229.5,255.5C 227.435,255.517 225.435,255.85 223.5,256.5C 221.073,256.477 218.74,255.977 216.5,255C 218.044,254.71 219.377,254.044 220.5,253C 216.684,249.666 212.35,247.166 207.5,245.5C 209.045,244.548 210.712,244.215 212.5,244.5 Z"/></g>
<g><path style="opacity:1" fill="#927046" d="M 223.5,248.5 C 224.167,248.5 224.833,248.5 225.5,248.5C 228.2,249.257 230.7,250.591 233,252.5C 233.239,253.788 232.739,254.788 231.5,255.5C 230.833,255.5 230.167,255.5 229.5,255.5C 229.657,254.127 229.49,252.793 229,251.5C 226.791,251.011 224.958,250.011 223.5,248.5 Z"/></g>
<g><path style="opacity:1" fill="#c19a6e" d="M 172.5,233.5 C 172.334,240.841 172.5,248.174 173,255.5C 173.826,247.527 174.326,247.527 174.5,255.5C 177.061,254.615 179.394,253.282 181.5,251.5C 180.167,256.5 180.167,261.5 181.5,266.5C 180.542,266.047 179.708,265.381 179,264.5C 178.808,262.423 178.308,260.423 177.5,258.5C 175.483,259.673 174.816,261.173 175.5,263C 174.213,264.41 173.046,265.91 172,267.5C 171.667,267.167 171.333,266.833 171,266.5C 170.283,271.22 170.45,275.886 171.5,280.5C 170.609,281.11 169.609,281.443 168.5,281.5C 169.324,278.236 169.658,274.902 169.5,271.5C 170.092,258.653 171.092,245.986 172.5,233.5 Z"/></g>
<g><path style="opacity:1" fill="#9b7a51" d="M 229.5,255.5 C 229.5,255.833 229.5,256.167 229.5,256.5C 226.994,257.75 224.327,258.416 221.5,258.5C 222.167,257.833 222.833,257.167 223.5,256.5C 225.435,255.85 227.435,255.517 229.5,255.5 Z"/></g>
<g><path style="opacity:1" fill="#836b50" d="M 307.5,255.5 C 307.5,255.833 307.5,256.167 307.5,256.5C 304.813,256.336 302.146,256.503 299.5,257C 297.963,258.11 297.297,259.61 297.5,261.5C 296.566,260.432 296.232,259.099 296.5,257.5C 299.846,255.676 303.513,255.01 307.5,255.5 Z"/></g>
<g><path style="opacity:1" fill="#485d6c" d="M 393.5,259.5 C 389.575,257.521 386.741,258.521 385,262.5C 384.667,271.833 384.333,281.167 384,290.5C 383.184,291.823 382.017,292.489 380.5,292.5C 380.795,290.577 381.628,288.91 383,287.5C 383.5,278.84 383.666,270.173 383.5,261.5C 385.513,253.243 388.847,252.577 393.5,259.5 Z"/></g>
<g><path style="opacity:1" fill="#745434" d="M 187.5,245.5 C 185.716,247.948 184.382,250.615 183.5,253.5C 182.357,256.976 182.19,260.642 183,264.5C 183.377,265.942 184.21,266.942 185.5,267.5C 186.833,269.167 188.167,270.833 189.5,272.5C 186.569,270.909 183.902,268.909 181.5,266.5C 180.167,261.5 180.167,256.5 181.5,251.5C 183.139,249.194 185.139,247.194 187.5,245.5 Z"/></g>
<g><path style="opacity:1" fill="#110b04" d="M 329.5,252.5 C 329.389,253.117 329.056,253.617 328.5,254C 330.81,254.497 333.143,254.663 335.5,254.5C 335.356,260.134 335.023,265.801 334.5,271.5C 332.739,272.035 331.406,273.035 330.5,274.5C 327.15,274.665 323.817,274.498 320.5,274C 323.627,273.608 326.627,272.775 329.5,271.5C 329.833,269.833 330.167,268.167 330.5,266.5C 330.595,263.083 329.928,260.249 328.5,258C 325.412,257.153 322.579,257.653 320,259.5C 319.586,259.043 319.086,258.709 318.5,258.5C 313.475,260.507 308.475,262.507 303.5,264.5C 303.715,266.179 303.048,267.179 301.5,267.5C 299.903,264.681 299.403,261.681 300,258.5C 302.607,257.877 305.107,257.21 307.5,256.5C 307.5,256.167 307.5,255.833 307.5,255.5C 311.702,255.817 315.702,255.483 319.5,254.5C 322.789,253.626 326.123,252.959 329.5,252.5 Z"/></g>
<g><path style="opacity:1" fill="#ddb078" d="M 239.5,281.5 C 236.802,283.172 233.802,284.339 230.5,285C 229.667,285.833 228.833,286.667 228,287.5C 226.667,286.167 225.333,284.833 224,283.5C 223.51,284.793 223.343,286.127 223.5,287.5C 220.833,287.5 218.167,287.5 215.5,287.5C 214.766,281.965 214.432,276.799 214.5,272C 216.577,271.808 218.577,271.308 220.5,270.5C 218.028,269.104 215.362,268.27 212.5,268C 211.663,266.989 211.33,265.822 211.5,264.5C 213.202,263.925 214.869,263.092 216.5,262C 218.769,261.242 220.936,261.409 223,262.5C 223.483,261.552 223.649,260.552 223.5,259.5C 226.313,259.975 228.313,258.975 229.5,256.5C 229.5,256.167 229.5,255.833 229.5,255.5C 230.167,255.5 230.833,255.5 231.5,255.5C 234.167,255.167 236.833,254.833 239.5,254.5C 239.666,258.846 239.499,263.179 239,267.5C 236.828,265.303 235.661,262.97 235.5,260.5C 233.208,262.657 230.875,264.824 228.5,267C 231.47,269.464 234.803,271.298 238.5,272.5C 239.407,275.421 239.74,278.421 239.5,281.5 Z"/></g>
<g><path style="opacity:1" fill="#231306" d="M 330.5,274.5 C 332.5,274.5 334.5,274.5 336.5,274.5C 331.944,276.442 326.944,277.108 321.5,276.5C 320.508,276.672 319.842,276.338 319.5,275.5C 319.082,274.778 318.416,274.278 317.5,274C 312.816,273.565 308.149,273.065 303.5,272.5C 303.107,270.716 302.441,269.05 301.5,267.5C 303.048,267.179 303.715,266.179 303.5,264.5C 308.475,262.507 313.475,260.507 318.5,258.5C 319.086,258.709 319.586,259.043 320,259.5C 322.579,257.653 325.412,257.153 328.5,258C 329.928,260.249 330.595,263.083 330.5,266.5C 330.167,268.167 329.833,269.833 329.5,271.5C 326.627,272.775 323.627,273.608 320.5,274C 323.817,274.498 327.15,274.665 330.5,274.5 Z"/></g>
<g><path style="opacity:1" fill="#402d1a" d="M 307.5,256.5 C 305.107,257.21 302.607,257.877 300,258.5C 299.403,261.681 299.903,264.681 301.5,267.5C 302.441,269.05 303.107,270.716 303.5,272.5C 300.758,269.308 298.758,265.642 297.5,261.5C 297.297,259.61 297.963,258.11 299.5,257C 302.146,256.503 304.813,256.336 307.5,256.5 Z"/></g>
<g><path style="opacity:1" fill="#2d1c06" d="M 183.5,253.5 C 183.241,257.24 183.574,260.906 184.5,264.5C 185.5,264.833 186.5,265.167 187.5,265.5C 192.408,262.921 196.908,263.254 201,266.5C 203.602,265.704 205.768,264.371 207.5,262.5C 205.602,264.973 203.935,267.64 202.5,270.5C 200.667,270.833 198.833,271.167 197,271.5C 192.812,271.026 188.979,269.693 185.5,267.5C 184.21,266.942 183.377,265.942 183,264.5C 182.19,260.642 182.357,256.976 183.5,253.5 Z"/></g>
<g><path style="opacity:1" fill="#dcab79" d="M 229.5,256.5 C 228.313,258.975 226.313,259.975 223.5,259.5C 223.649,260.552 223.483,261.552 223,262.5C 220.936,261.409 218.769,261.242 216.5,262C 214.869,263.092 213.202,263.925 211.5,264.5C 211.33,265.822 211.663,266.989 212.5,268C 215.362,268.27 218.028,269.104 220.5,270.5C 218.577,271.308 216.577,271.808 214.5,272C 214.432,276.799 214.766,281.965 215.5,287.5C 218.167,287.5 220.833,287.5 223.5,287.5C 223.343,286.127 223.51,284.793 224,283.5C 225.333,284.833 226.667,286.167 228,287.5C 228.833,286.667 229.667,285.833 230.5,285C 233.802,284.339 236.802,283.172 239.5,281.5C 242.992,281.831 246.326,281.831 249.5,281.5C 252.115,281.684 254.281,282.684 256,284.5C 258.124,283.378 259.957,281.878 261.5,280C 263.473,279.505 265.473,279.338 267.5,279.5C 267.34,281.199 267.506,282.866 268,284.5C 271.378,284.132 274.878,284.132 278.5,284.5C 278.5,285.5 278.5,286.5 278.5,287.5C 276.167,287.5 273.833,287.5 271.5,287.5C 271.201,289.604 271.534,291.604 272.5,293.5C 272.998,292.397 273.331,291.397 273.5,290.5C 275.911,291.361 277.911,292.694 279.5,294.5C 277.266,294.38 275.099,294.713 273,295.5C 270.164,297.496 267.664,299.83 265.5,302.5C 264.675,303.386 263.675,303.719 262.5,303.5C 262.966,305.201 262.966,306.701 262.5,308C 254.45,308.386 246.95,310.553 240,314.5C 239.169,322.188 239.335,329.855 240.5,337.5C 244.816,339.658 249.482,341.991 254.5,344.5C 255,345.5 255.5,346.5 256,347.5C 257.011,346.663 258.178,346.33 259.5,346.5C 258.699,348.042 258.366,349.708 258.5,351.5C 257.5,351.5 256.5,351.5 255.5,351.5C 255.5,350.5 255.5,349.5 255.5,348.5C 253.61,348.703 252.11,348.037 251,346.5C 244.309,348.67 237.976,347.67 232,343.5C 231.667,344.5 231.333,345.5 231,346.5C 228.787,345.198 226.454,344.198 224,343.5C 223.506,341.866 223.34,340.199 223.5,338.5C 223.817,335.428 223.484,332.428 222.5,329.5C 220.697,328.863 219.364,327.697 218.5,326C 217.552,325.517 216.552,325.351 215.5,325.5C 216.034,320.099 214.867,315.099 212,310.5C 210.448,309.034 208.614,308.034 206.5,307.5C 205.352,305.851 204.019,304.351 202.5,303C 204.167,301.833 205.833,300.667 207.5,299.5C 202.504,294.5 196.838,293.5 190.5,296.5C 185.305,292.2 183.972,287.034 186.5,281C 187.886,278.217 189.386,278.05 191,280.5C 191.49,281.793 191.657,283.127 191.5,284.5C 200.222,284.958 200.389,283.292 192,279.5C 191.506,277.866 191.34,276.199 191.5,274.5C 192.492,274.328 193.158,274.662 193.5,275.5C 197.425,278.594 201.758,279.094 206.5,277C 207.216,272.456 208.216,267.956 209.5,263.5C 211.261,262.687 212.928,261.687 214.5,260.5C 216.515,259.076 218.848,258.41 221.5,258.5C 224.327,258.416 226.994,257.75 229.5,256.5 Z"/></g>
<g><path style="opacity:1" fill="#5c3e1e" d="M 214.5,260.5 C 212.928,261.687 211.261,262.687 209.5,263.5C 207.817,267.599 205.483,271.433 202.5,275C 199.518,275.498 196.518,275.665 193.5,275.5C 193.158,274.662 192.492,274.328 191.5,274.5C 190.833,273.833 190.167,273.167 189.5,272.5C 188.167,270.833 186.833,269.167 185.5,267.5C 188.979,269.693 192.812,271.026 197,271.5C 198.833,271.167 200.667,270.833 202.5,270.5C 203.935,267.64 205.602,264.973 207.5,262.5C 209.588,261.061 211.921,260.394 214.5,260.5 Z"/></g>
<g><path style="opacity:1" fill="#d7ac7a" d="M 181.5,266.5 C 183.902,268.909 186.569,270.909 189.5,272.5C 190.167,273.167 190.833,273.833 191.5,274.5C 191.34,276.199 191.506,277.866 192,279.5C 200.389,283.292 200.222,284.958 191.5,284.5C 191.657,283.127 191.49,281.793 191,280.5C 189.386,278.05 187.886,278.217 186.5,281C 183.972,287.034 185.305,292.2 190.5,296.5C 196.838,293.5 202.504,294.5 207.5,299.5C 205.833,300.667 204.167,301.833 202.5,303C 204.019,304.351 205.352,305.851 206.5,307.5C 208.614,308.034 210.448,309.034 212,310.5C 214.867,315.099 216.034,320.099 215.5,325.5C 216.552,325.351 217.552,325.517 218.5,326C 219.364,327.697 220.697,328.863 222.5,329.5C 223.484,332.428 223.817,335.428 223.5,338.5C 220.379,335.084 217.379,331.584 214.5,328C 214.833,327.667 215.167,327.333 215.5,327C 213.248,323.832 211.248,320.499 209.5,317C 206.328,315.248 203.328,313.248 200.5,311C 196.231,310.297 192.231,308.964 188.5,307C 186.606,305.921 186.273,304.587 187.5,303C 185.049,298.607 182.216,294.441 179,290.5C 175.914,294.163 174.581,293.163 175,287.5C 174.667,289.5 174.333,291.5 174,293.5C 173.667,293.167 173.333,292.833 173,292.5C 172.824,288.312 172.324,284.312 171.5,280.5C 170.45,275.886 170.283,271.22 171,266.5C 171.333,266.833 171.667,267.167 172,267.5C 173.046,265.91 174.213,264.41 175.5,263C 174.816,261.173 175.483,259.673 177.5,258.5C 178.308,260.423 178.808,262.423 179,264.5C 179.708,265.381 180.542,266.047 181.5,266.5 Z"/></g>
<g><path style="opacity:1" fill="#4b2e19" d="M 303.5,272.5 C 308.149,273.065 312.816,273.565 317.5,274C 318.416,274.278 319.082,274.778 319.5,275.5C 315.486,275.666 311.486,275.499 307.5,275C 305.934,274.392 304.6,273.558 303.5,272.5 Z"/></g>
<g><path style="opacity:1" fill="#82715d" d="M 341.5,282.5 C 342.069,278.671 341.402,275.337 339.5,272.5C 339.947,269.476 340.78,269.143 342,271.5C 342.81,275.358 342.643,279.024 341.5,282.5 Z"/></g>
<g><path style="opacity:1" fill="#a77b4e" d="M 209.5,263.5 C 208.216,267.956 207.216,272.456 206.5,277C 201.758,279.094 197.425,278.594 193.5,275.5C 196.518,275.665 199.518,275.498 202.5,275C 205.483,271.433 207.817,267.599 209.5,263.5 Z"/></g>
<g><path style="opacity:1" fill="#d8ab80" d="M 296.5,257.5 C 296.232,259.099 296.566,260.432 297.5,261.5C 298.758,265.642 300.758,269.308 303.5,272.5C 304.6,273.558 305.934,274.392 307.5,275C 311.486,275.499 315.486,275.666 319.5,275.5C 319.842,276.338 320.508,276.672 321.5,276.5C 326.305,277.487 331.305,277.821 336.5,277.5C 335.86,286.266 335.193,294.932 334.5,303.5C 334.662,301.473 334.495,299.473 334,297.5C 333.683,299.301 333.016,299.634 332,298.5C 330.604,295.517 330.437,292.517 331.5,289.5C 331.182,288.353 330.516,287.519 329.5,287C 330.672,286.581 331.672,285.915 332.5,285C 328.906,281.541 325.24,281.208 321.5,284C 322.551,285.385 323.884,286.385 325.5,287C 326.156,297.337 325.489,307.67 323.5,318C 325.482,322.643 325.982,327.476 325,332.5C 322.878,333.22 322.378,334.387 323.5,336C 319.5,340 315.5,344 311.5,348C 308.333,348.252 305.333,348.418 302.5,348.5C 299.687,346.456 297.021,344.456 294.5,342.5C 295.151,341.909 295.818,341.243 296.5,340.5C 298.198,341.681 299.865,341.681 301.5,340.5C 301.167,339.167 300.833,337.833 300.5,336.5C 301.325,335.614 302.325,335.281 303.5,335.5C 303.238,334.022 303.571,332.689 304.5,331.5C 305.833,332.833 307.167,334.167 308.5,335.5C 310.539,333.258 312.205,330.758 313.5,328C 310.908,324.738 307.741,322.238 304,320.5C 303.667,322.047 304.167,323.38 305.5,324.5C 304.045,326.22 303.212,328.22 303,330.5C 301.303,329.636 300.137,328.303 299.5,326.5C 302.449,319.642 301.783,313.142 297.5,307C 297.833,306 298.167,305 298.5,304C 293.989,299.885 288.656,298.051 282.5,298.5C 282.768,296.901 282.434,295.568 281.5,294.5C 280.833,294.5 280.167,294.5 279.5,294.5C 277.911,292.694 275.911,291.361 273.5,290.5C 273.331,291.397 272.998,292.397 272.5,293.5C 271.534,291.604 271.201,289.604 271.5,287.5C 273.833,287.5 276.167,287.5 278.5,287.5C 278.5,286.5 278.5,285.5 278.5,284.5C 274.878,284.132 271.378,284.132 268,284.5C 267.506,282.866 267.34,281.199 267.5,279.5C 271.546,279.85 275.38,279.183 279,277.5C 280.57,278.358 282.237,279.025 284,279.5C 285.331,278.004 286.831,276.671 288.5,275.5C 292.375,280.093 297.375,281.927 303.5,281C 301.541,280.069 299.541,279.236 297.5,278.5C 297.786,276.078 297.452,273.911 296.5,272C 295.207,271.51 293.873,271.343 292.5,271.5C 292.5,269.5 292.5,267.5 292.5,265.5C 294.501,266.41 295.835,265.577 296.5,263C 295.193,261.057 295.193,259.223 296.5,257.5 Z"/></g>
<g><path style="opacity:1" fill="#a78262" d="M 339.5,272.5 C 338.89,274.434 337.89,276.101 336.5,277.5C 331.305,277.821 326.305,277.487 321.5,276.5C 326.944,277.108 331.944,276.442 336.5,274.5C 337.5,273.833 338.5,273.167 339.5,272.5 Z"/></g>
<g><path style="opacity:1" fill="#917354" d="M 169.5,271.5 C 169.658,274.902 169.324,278.236 168.5,281.5C 168.768,283.099 168.434,284.432 167.5,285.5C 167.229,280.566 167.896,275.9 169.5,271.5 Z"/></g>
<g><path style="opacity:1" fill="#d5ac7f" d="M 171.5,280.5 C 172.324,284.312 172.824,288.312 173,292.5C 173.333,292.833 173.667,293.167 174,293.5C 174.333,291.5 174.667,289.5 175,287.5C 174.581,293.163 175.914,294.163 179,290.5C 182.216,294.441 185.049,298.607 187.5,303C 186.273,304.587 186.606,305.921 188.5,307C 192.231,308.964 196.231,310.297 200.5,311C 203.328,313.248 206.328,315.248 209.5,317C 211.248,320.499 213.248,323.832 215.5,327C 215.167,327.333 214.833,327.667 214.5,328C 217.379,331.584 220.379,335.084 223.5,338.5C 223.34,340.199 223.506,341.866 224,343.5C 226.454,344.198 228.787,345.198 231,346.5C 231.333,345.5 231.667,344.5 232,343.5C 237.976,347.67 244.309,348.67 251,346.5C 252.11,348.037 253.61,348.703 255.5,348.5C 255.5,349.5 255.5,350.5 255.5,351.5C 256.5,351.5 257.5,351.5 258.5,351.5C 258.366,349.708 258.699,348.042 259.5,346.5C 260.671,345.655 262.005,344.989 263.5,344.5C 265.099,344.232 266.432,344.566 267.5,345.5C 265.8,347.21 264.467,349.21 263.5,351.5C 261.726,352.187 260.059,353.02 258.5,354C 260.119,354.236 261.119,355.069 261.5,356.5C 260.5,356.5 259.5,356.5 258.5,356.5C 248.073,356.237 237.74,356.071 227.5,356C 226.5,355.667 225.5,355.333 224.5,355C 226.359,354.316 228.026,353.316 229.5,352C 225.514,351.501 221.514,351.334 217.5,351.5C 217.5,350.167 217.5,348.833 217.5,347.5C 216.325,347.719 215.325,347.386 214.5,346.5C 212.971,343.246 211.638,339.913 210.5,336.5C 208.833,335.833 207.167,335.167 205.5,334.5C 202.211,327.697 196.878,323.863 189.5,323C 188.315,321.647 186.981,320.48 185.5,319.5C 184.96,316.214 183.794,313.214 182,310.5C 181.586,310.957 181.086,311.291 180.5,311.5C 179.15,310.05 177.484,309.383 175.5,309.5C 174.987,305.454 174.154,301.454 173,297.5C 171.785,302.051 171.119,306.718 171,311.5C 170.581,310.328 169.915,309.328 169,308.5C 167.712,301.563 167.212,294.563 167.5,287.5C 167.5,286.833 167.5,286.167 167.5,285.5C 168.434,284.432 168.768,283.099 168.5,281.5C 169.609,281.443 170.609,281.11 171.5,280.5 Z"/></g>
<g><path style="opacity:1" fill="#dda578" d="M 279.5,294.5 C 280.167,294.5 280.833,294.5 281.5,294.5C 280.241,297.366 279.241,300.366 278.5,303.5C 276.167,303.5 273.833,303.5 271.5,303.5C 271.5,304.5 271.5,305.5 271.5,306.5C 277.607,305.678 283.607,306.511 289.5,309C 292.542,311.4 294.542,314.567 295.5,318.5C 295.167,318.833 294.833,319.167 294.5,319.5C 293.424,317.013 292.09,314.68 290.5,312.5C 289.5,311.167 288.5,311.167 287.5,312.5C 290.882,314.04 291.216,316.207 288.5,319C 289.022,319.561 289.355,320.228 289.5,321C 287.934,323.912 287.101,327.079 287,330.5C 285.951,329.483 284.784,329.316 283.5,330C 284.5,332.091 283.833,333.757 281.5,335C 283.577,335.192 285.577,335.692 287.5,336.5C 287.333,336.833 287.167,337.167 287,337.5C 278.809,338.234 270.976,340.568 263.5,344.5C 262.005,344.989 260.671,345.655 259.5,346.5C 258.178,346.33 257.011,346.663 256,347.5C 255.5,346.5 255,345.5 254.5,344.5C 249.482,341.991 244.816,339.658 240.5,337.5C 239.335,329.855 239.169,322.188 240,314.5C 246.95,310.553 254.45,308.386 262.5,308C 262.966,306.701 262.966,305.201 262.5,303.5C 263.675,303.719 264.675,303.386 265.5,302.5C 267.664,299.83 270.164,297.496 273,295.5C 275.099,294.713 277.266,294.38 279.5,294.5 Z"/></g>
<g><path style="opacity:1" fill="#5f8294" d="M 77.5,291.5 C 78.2646,291.923 79.0979,292.257 80,292.5C 82.1561,291.015 84.3228,289.515 86.5,288C 87.635,287.251 88.635,287.417 89.5,288.5C 90.6082,295.604 92.1082,302.604 94,309.5C 95.0674,310.191 96.2341,310.691 97.5,311C 100.889,315.928 102.223,321.428 101.5,327.5C 102.574,329.216 104.241,330.216 106.5,330.5C 108.577,328.924 110.077,326.924 111,324.5C 112,325.5 113,326.5 114,327.5C 116.816,345.876 121.649,363.71 128.5,381C 127.398,383.401 127.231,385.901 128,388.5C 131.799,391.369 132.965,395.036 131.5,399.5C 132.675,399.281 133.675,399.614 134.5,400.5C 133.567,404.429 133.234,408.429 133.5,412.5C 132.318,433.928 130.151,455.262 127,476.5C 126.439,488.167 125.939,499.834 125.5,511.5C 106.833,511.5 88.1667,511.5 69.5,511.5C 72.2882,509.024 75.6215,508.024 79.5,508.5C 79.5,504.167 79.5,499.833 79.5,495.5C 78.1667,495.5 76.8333,495.5 75.5,495.5C 75.5,490.167 75.5,484.833 75.5,479.5C 76.8333,479.5 78.1667,479.5 79.5,479.5C 79.5,474.167 79.5,468.833 79.5,463.5C 81.5,463.5 83.5,463.5 85.5,463.5C 85.5,452.833 85.5,442.167 85.5,431.5C 83.712,431.785 82.0453,431.452 80.5,430.5C 85,426.167 89.5,421.833 94,417.5C 94.1881,415.939 93.3547,415.272 91.5,415.5C 91.5,410.167 91.5,404.833 91.5,399.5C 87.774,399.823 84.1073,399.489 80.5,398.5C 84.3253,395.507 87.6587,392.007 90.5,388C 92.3031,387.363 93.6364,386.197 94.5,384.5C 99.8333,383.833 105.167,383.167 110.5,382.5C 105.833,377.833 101.167,373.167 96.5,368.5C 92.8927,367.511 89.226,367.177 85.5,367.5C 85.5,362.167 85.5,356.833 85.5,351.5C 83.5,351.5 81.5,351.5 79.5,351.5C 79.5,346.167 79.5,340.833 79.5,335.5C 76.1667,335.5 72.8333,335.5 69.5,335.5C 69.5,330.167 69.5,324.833 69.5,319.5C 67.5,319.5 65.5,319.5 63.5,319.5C 63.0513,303.336 64.3846,287.336 67.5,271.5C 67.8333,273.333 68.1667,275.167 68.5,277C 67.8359,280.652 67.8359,284.152 68.5,287.5C 70.1667,287.5 71.8333,287.5 73.5,287.5C 73.581,279.31 74.081,271.31 75,263.5C 76.7284,268.174 76.5618,272.84 74.5,277.5C 75.0924,282.577 75.5924,287.911 76,293.5C 78.5358,296.696 80.0358,296.696 80.5,293.5C 78.8212,293.715 77.8212,293.048 77.5,291.5 Z"/></g>
<g><path style="opacity:1" fill="#d9b48d" d="M 339.5,272.5 C 341.402,275.337 342.069,278.671 341.5,282.5C 341.211,292.169 340.878,301.835 340.5,311.5C 338.366,320.57 337.2,329.903 337,339.5C 336.127,342.618 334.961,345.618 333.5,348.5C 329.608,351.437 326.274,354.937 323.5,359C 317.472,359.641 311.472,359.474 305.5,358.5C 303.901,358.232 302.568,358.566 301.5,359.5C 298.167,361.497 294.5,362.497 290.5,362.5C 285.851,361.872 281.184,361.539 276.5,361.5C 267.5,361.5 258.5,361.5 249.5,361.5C 249.5,361.167 249.5,360.833 249.5,360.5C 251.735,360.795 253.735,360.461 255.5,359.5C 260.844,359.666 266.177,359.499 271.5,359C 266.72,359.108 262.386,358.275 258.5,356.5C 259.5,356.5 260.5,356.5 261.5,356.5C 271.706,357.377 281.873,357.711 292,357.5C 294.375,357.182 295.542,355.849 295.5,353.5C 297.937,353.244 300.271,352.577 302.5,351.5C 304.679,353.686 307.179,354.019 310,352.5C 313.992,350.655 317.658,348.989 321,347.5C 322.646,345.945 322.979,344.279 322,342.5C 323.667,340.833 325.333,339.167 327,337.5C 327.499,331.509 327.666,325.509 327.5,319.5C 328.822,319.67 329.989,319.337 331,318.5C 331.236,316.236 331.736,314.069 332.5,312C 331.213,308.731 331.88,305.897 334.5,303.5C 335.193,294.932 335.86,286.266 336.5,277.5C 337.89,276.101 338.89,274.434 339.5,272.5 Z"/></g>
<g><path style="opacity:1" fill="#02060c" d="M 364.5,319.5 C 360.558,329.245 360.558,338.912 364.5,348.5C 364.5,349.5 364.5,350.5 364.5,351.5C 364.5,353.5 364.5,355.5 364.5,357.5C 363.07,357.421 361.736,357.754 360.5,358.5C 359.185,363.986 359.185,369.32 360.5,374.5C 360.755,378.8 361.755,382.8 363.5,386.5C 363.5,387.833 363.5,389.167 363.5,390.5C 363.666,394.514 363.499,398.514 363,402.5C 361.659,405.022 360.826,407.689 360.5,410.5C 357.833,409.5 355.167,408.5 352.5,407.5C 352.768,409.099 352.434,410.432 351.5,411.5C 351.838,408.989 351.838,406.655 351.5,404.5C 352.167,403.833 352.833,403.167 353.5,402.5C 352.833,402.167 352.167,401.833 351.5,401.5C 352.025,400.808 352.692,400.308 353.5,400C 352.484,399.481 351.818,398.647 351.5,397.5C 352.133,392.719 353.133,388.052 354.5,383.5C 355.5,383.5 356.5,383.5 357.5,383.5C 357.149,380.762 356.482,378.096 355.5,375.5C 356.256,373.549 356.589,371.716 356.5,370C 354.052,366.609 352.719,362.775 352.5,358.5C 353.83,351.863 354.996,345.196 356,338.5C 356.585,336.871 357.419,335.371 358.5,334C 356.488,329.264 356.654,324.43 359,319.5C 359.219,320.938 359.719,322.271 360.5,323.5C 360.94,322.302 361.273,321.135 361.5,320C 362.448,319.517 363.448,319.351 364.5,319.5 Z"/></g>
<g><path style="opacity:1" fill="#d0ad84" d="M 167.5,287.5 C 167.212,294.563 167.712,301.563 169,308.5C 169.915,309.328 170.581,310.328 171,311.5C 171.119,306.718 171.785,302.051 173,297.5C 174.154,301.454 174.987,305.454 175.5,309.5C 177.484,309.383 179.15,310.05 180.5,311.5C 181.086,311.291 181.586,310.957 182,310.5C 183.794,313.214 184.96,316.214 185.5,319.5C 186.981,320.48 188.315,321.647 189.5,323C 196.878,323.863 202.211,327.697 205.5,334.5C 207.167,335.167 208.833,335.833 210.5,336.5C 211.638,339.913 212.971,343.246 214.5,346.5C 215.325,347.386 216.325,347.719 217.5,347.5C 217.5,348.833 217.5,350.167 217.5,351.5C 221.514,351.334 225.514,351.501 229.5,352C 228.026,353.316 226.359,354.316 224.5,355C 225.5,355.333 226.5,355.667 227.5,356C 237.74,356.071 248.073,356.237 258.5,356.5C 262.386,358.275 266.72,359.108 271.5,359C 266.177,359.499 260.844,359.666 255.5,359.5C 237.005,358.338 218.338,358.171 199.5,359C 216.132,360.372 232.798,360.872 249.5,360.5C 249.5,360.833 249.5,361.167 249.5,361.5C 232.833,361.5 216.167,361.5 199.5,361.5C 196.615,361.806 193.948,361.473 191.5,360.5C 191.62,354 192.12,347.666 193,341.5C 192.124,339.365 190.624,338.031 188.5,337.5C 188.5,336.167 187.833,335.5 186.5,335.5C 182.882,330.057 177.882,328.39 171.5,330.5C 170.201,326.577 168.534,322.91 166.5,319.5C 165.95,314.36 165.617,309.193 165.5,304C 165.311,298.248 165.978,292.748 167.5,287.5 Z"/></g>
<g><path style="opacity:1" fill="#daa77d" d="M 281.5,294.5 C 282.434,295.568 282.768,296.901 282.5,298.5C 288.656,298.051 293.989,299.885 298.5,304C 298.167,305 297.833,306 297.5,307C 301.783,313.142 302.449,319.642 299.5,326.5C 300.137,328.303 301.303,329.636 303,330.5C 303.212,328.22 304.045,326.22 305.5,324.5C 304.167,323.38 303.667,322.047 304,320.5C 307.741,322.238 310.908,324.738 313.5,328C 312.205,330.758 310.539,333.258 308.5,335.5C 307.167,334.167 305.833,332.833 304.5,331.5C 303.571,332.689 303.238,334.022 303.5,335.5C 302.325,335.281 301.325,335.614 300.5,336.5C 300.833,337.833 301.167,339.167 301.5,340.5C 299.865,341.681 298.198,341.681 296.5,340.5C 295.818,341.243 295.151,341.909 294.5,342.5C 292.052,343.372 289.885,344.705 288,346.5C 287.517,345.552 287.351,344.552 287.5,343.5C 285.304,343.41 283.137,343.077 281,342.5C 276.614,343.981 272.114,344.981 267.5,345.5C 266.432,344.566 265.099,344.232 263.5,344.5C 270.976,340.568 278.809,338.234 287,337.5C 287.167,337.167 287.333,336.833 287.5,336.5C 285.577,335.692 283.577,335.192 281.5,335C 283.833,333.757 284.5,332.091 283.5,330C 284.784,329.316 285.951,329.483 287,330.5C 287.101,327.079 287.934,323.912 289.5,321C 289.355,320.228 289.022,319.561 288.5,319C 291.216,316.207 290.882,314.04 287.5,312.5C 288.5,311.167 289.5,311.167 290.5,312.5C 292.09,314.68 293.424,317.013 294.5,319.5C 294.833,319.167 295.167,318.833 295.5,318.5C 294.542,314.567 292.542,311.4 289.5,309C 283.607,306.511 277.607,305.678 271.5,306.5C 271.5,305.5 271.5,304.5 271.5,303.5C 273.833,303.5 276.167,303.5 278.5,303.5C 279.241,300.366 280.241,297.366 281.5,294.5 Z"/></g>
<g><path style="opacity:1" fill="#4c6471" d="M 380.5,293.5 C 380.844,304.216 380.344,314.882 379,325.5C 378.044,326.894 376.711,327.561 375,327.5C 371.948,326.368 368.948,325.035 366,323.5C 363.391,331.676 362.891,340.009 364.5,348.5C 360.558,338.912 360.558,329.245 364.5,319.5C 365.423,318.697 366.423,318.53 367.5,319C 369.013,321.846 371.179,324.013 374,325.5C 375.605,324.899 376.938,323.899 378,322.5C 379.027,312.706 379.86,303.039 380.5,293.5 Z"/></g>
<g><path style="opacity:1" fill="#96775e" d="M 166.5,319.5 C 168.534,322.91 170.201,326.577 171.5,330.5C 177.882,328.39 182.882,330.057 186.5,335.5C 181.2,332.346 175.533,331.346 169.5,332.5C 168.029,328.282 167.029,323.949 166.5,319.5 Z"/></g>
<g><path style="opacity:1" fill="#5c7986" d="M 135.5,393.5 C 135.761,400.072 135.094,406.406 133.5,412.5C 133.234,408.429 133.567,404.429 134.5,400.5C 133.675,399.614 132.675,399.281 131.5,399.5C 132.965,395.036 131.799,391.369 128,388.5C 127.231,385.901 127.398,383.401 128.5,381C 121.649,363.71 116.816,345.876 114,327.5C 113,326.5 112,325.5 111,324.5C 110.077,326.924 108.577,328.924 106.5,330.5C 104.241,330.216 102.574,329.216 101.5,327.5C 103.194,328.686 104.861,328.519 106.5,327C 108.171,322.916 111.005,321.416 115,322.5C 116.663,329.476 118.329,336.476 120,343.5C 124.899,360.285 130.065,376.952 135.5,393.5 Z"/></g>
<g><path style="opacity:1" fill="#514339" d="M 186.5,335.5 C 187.833,335.5 188.5,336.167 188.5,337.5C 189.774,340.26 190.774,343.093 191.5,346C 191.518,348.442 190.851,350.608 189.5,352.5C 188.523,355.287 188.19,358.287 188.5,361.5C 187.03,356.294 187.363,351.127 189.5,346C 187.203,336.398 181.203,332.565 171.5,334.5C 170.478,334.145 169.811,333.478 169.5,332.5C 175.533,331.346 181.2,332.346 186.5,335.5 Z"/></g>
<g><path style="opacity:1" fill="#d7ad86" d="M 334.5,303.5 C 331.88,305.897 331.213,308.731 332.5,312C 331.736,314.069 331.236,316.236 331,318.5C 329.989,319.337 328.822,319.67 327.5,319.5C 327.666,325.509 327.499,331.509 327,337.5C 325.333,339.167 323.667,340.833 322,342.5C 322.979,344.279 322.646,345.945 321,347.5C 317.658,348.989 313.992,350.655 310,352.5C 307.179,354.019 304.679,353.686 302.5,351.5C 300.271,352.577 297.937,353.244 295.5,353.5C 295.542,355.849 294.375,357.182 292,357.5C 281.873,357.711 271.706,357.377 261.5,356.5C 261.119,355.069 260.119,354.236 258.5,354C 260.059,353.02 261.726,352.187 263.5,351.5C 264.467,349.21 265.8,347.21 267.5,345.5C 272.114,344.981 276.614,343.981 281,342.5C 283.137,343.077 285.304,343.41 287.5,343.5C 287.351,344.552 287.517,345.552 288,346.5C 289.885,344.705 292.052,343.372 294.5,342.5C 297.021,344.456 299.687,346.456 302.5,348.5C 305.333,348.418 308.333,348.252 311.5,348C 315.5,344 319.5,340 323.5,336C 322.378,334.387 322.878,333.22 325,332.5C 325.982,327.476 325.482,322.643 323.5,318C 325.489,307.67 326.156,297.337 325.5,287C 323.884,286.385 322.551,285.385 321.5,284C 325.24,281.208 328.906,281.541 332.5,285C 331.672,285.915 330.672,286.581 329.5,287C 330.516,287.519 331.182,288.353 331.5,289.5C 330.437,292.517 330.604,295.517 332,298.5C 333.016,299.634 333.683,299.301 334,297.5C 334.495,299.473 334.662,301.473 334.5,303.5 Z"/></g>
<g><path style="opacity:1" fill="#a8886f" d="M 188.5,337.5 C 190.624,338.031 192.124,339.365 193,341.5C 192.12,347.666 191.62,354 191.5,360.5C 189.631,358.365 188.964,355.698 189.5,352.5C 190.851,350.608 191.518,348.442 191.5,346C 190.774,343.093 189.774,340.26 188.5,337.5 Z"/></g>
<g><path style="opacity:1" fill="#99826e" d="M 340.5,311.5 C 339.833,321.167 339.167,330.833 338.5,340.5C 336.559,347.033 333.059,352.7 328,357.5C 327.163,359.351 326.329,361.184 325.5,363C 322.151,363.388 318.817,363.221 315.5,362.5C 311.873,361.679 308.54,360.346 305.5,358.5C 311.472,359.474 317.472,359.641 323.5,359C 326.274,354.937 329.608,351.437 333.5,348.5C 334.961,345.618 336.127,342.618 337,339.5C 337.2,329.903 338.366,320.57 340.5,311.5 Z"/></g>
<g><path style="opacity:1" fill="#5b4e47" d="M 338.5,340.5 C 336.982,349.54 332.982,357.373 326.5,364C 323.5,364.667 320.5,364.667 317.5,364C 316.584,363.722 315.918,363.222 315.5,362.5C 318.817,363.221 322.151,363.388 325.5,363C 326.329,361.184 327.163,359.351 328,357.5C 333.059,352.7 336.559,347.033 338.5,340.5 Z"/></g>
<g><path style="opacity:1" fill="#deb27d" d="M 255.5,359.5 C 253.735,360.461 251.735,360.795 249.5,360.5C 232.798,360.872 216.132,360.372 199.5,359C 218.338,358.171 237.005,358.338 255.5,359.5 Z"/></g>
<g><path style="opacity:1" fill="#3e5463" d="M 364.5,351.5 C 365.468,353.607 365.802,355.941 365.5,358.5C 363.61,358.297 362.11,358.963 361,360.5C 360.501,365.155 360.334,369.821 360.5,374.5C 359.185,369.32 359.185,363.986 360.5,358.5C 361.736,357.754 363.07,357.421 364.5,357.5C 364.5,355.5 364.5,353.5 364.5,351.5 Z"/></g>
<g><path style="opacity:1" fill="#745f50" d="M 189.5,352.5 C 188.964,355.698 189.631,358.365 191.5,360.5C 193.948,361.473 196.615,361.806 199.5,361.5C 195.876,364.156 192.209,364.156 188.5,361.5C 188.19,358.287 188.523,355.287 189.5,352.5 Z"/></g>
<g><path style="opacity:1" fill="#836d54" d="M 301.5,359.5 C 298.685,362.776 295.019,364.109 290.5,363.5C 285.624,363.31 280.957,362.643 276.5,361.5C 281.184,361.539 285.851,361.872 290.5,362.5C 294.5,362.497 298.167,361.497 301.5,359.5 Z"/></g>
<g><path style="opacity:1" fill="#110601" d="M 287.5,396.5 C 275.5,396.5 263.5,396.5 251.5,396.5C 243.975,395.252 236.308,395.252 228.5,396.5C 228.611,395.883 228.944,395.383 229.5,395C 238.16,394.5 246.827,394.334 255.5,394.5C 255.5,393.167 255.5,391.833 255.5,390.5C 252.603,390.875 249.937,390.375 247.5,389C 248.912,387.694 250.579,386.86 252.5,386.5C 261.688,385.207 270.855,384.207 280,383.5C 281.333,384.167 282.333,385.167 283,386.5C 283.333,386.167 283.667,385.833 284,385.5C 285.02,388.724 286.854,390.391 289.5,390.5C 288.253,392.323 287.586,394.323 287.5,396.5 Z"/></g>
<g><path style="opacity:1" fill="#6f482b" d="M 251.5,396.5 C 263.5,396.5 275.5,396.5 287.5,396.5C 290.385,396.194 293.052,396.527 295.5,397.5C 276.83,397.333 258.164,397.5 239.5,398C 238.5,398.333 237.5,398.667 236.5,399C 239.31,399.782 241.977,400.616 244.5,401.5C 240.167,401.5 235.833,401.5 231.5,401.5C 230.064,398.727 231.064,397.227 234.5,397C 240.157,396.501 245.824,396.334 251.5,396.5 Z"/></g>
<g><path style="opacity:1" fill="#3a2413" d="M 251.5,396.5 C 245.824,396.334 240.157,396.501 234.5,397C 231.064,397.227 230.064,398.727 231.5,401.5C 226.787,401.512 225.787,399.846 228.5,396.5C 236.308,395.252 243.975,395.252 251.5,396.5 Z"/></g>
<g><path style="opacity:1" fill="#483323" d="M 295.5,397.5 C 296.978,397.238 298.311,397.571 299.5,398.5C 298.332,400.217 296.665,400.884 294.5,400.5C 295.11,399.609 295.443,398.609 295.5,397.5 Z"/></g>
<g><path style="opacity:1" fill="#a06c44" d="M 295.5,397.5 C 295.443,398.609 295.11,399.609 294.5,400.5C 293.167,400.5 291.833,400.5 290.5,400.5C 283.364,401.831 275.864,402.497 268,402.5C 260.091,402.485 252.258,402.151 244.5,401.5C 241.977,400.616 239.31,399.782 236.5,399C 237.5,398.667 238.5,398.333 239.5,398C 258.164,397.5 276.83,397.333 295.5,397.5 Z"/></g>
<g><path style="opacity:1" fill="#bc7642" d="M 290.5,400.5 C 276.76,400.946 263.093,400.446 249.5,399C 256.333,398.833 263.167,398.667 270,398.5C 277.201,398.503 284.034,399.17 290.5,400.5 Z"/></g>
<g><path style="opacity:1" fill="#0d0805" d="M 228.5,475.5 C 230.619,487.377 231.619,499.377 231.5,511.5C 230.833,511.5 230.167,511.5 229.5,511.5C 230.308,498.257 228.975,485.257 225.5,472.5C 224.011,470.005 222.344,467.672 220.5,465.5C 213.867,458.721 206.2,453.221 197.5,449C 193.542,444.904 189.542,441.071 185.5,437.5C 183.269,430.089 178.602,424.589 171.5,421C 168.5,417.333 165.167,414 161.5,411C 158.212,409.698 155.212,408.532 152.5,407.5C 151.34,409.146 150.673,410.979 150.5,413C 150.701,416.34 151.034,419.674 151.5,423C 150.299,429.436 149.299,435.936 148.5,442.5C 146.052,442.085 144.719,443.085 144.5,445.5C 145.496,448.797 145.663,452.131 145,455.5C 144.667,455.167 144.333,454.833 144,454.5C 139.599,472.122 140.099,489.622 145.5,507C 144.926,508.607 144.26,510.107 143.5,511.5C 139.167,511.5 134.833,511.5 130.5,511.5C 131.895,510.352 131.728,509.352 130,508.5C 129.922,474.326 132.255,440.326 137,406.5C 137.383,405.944 137.883,405.611 138.5,405.5C 138.369,406.239 138.536,406.906 139,407.5C 139.761,404.947 140.594,402.447 141.5,400C 145.167,399.333 148.833,399.333 152.5,400C 160.474,404.94 167.141,411.273 172.5,419C 180,423.833 186.167,430 191,437.5C 191.49,438.793 191.657,440.127 191.5,441.5C 192.552,441.351 193.552,441.517 194.5,442C 198.105,444.333 201.105,447.333 203.5,451C 205.833,452 208.167,453 210.5,454C 211.723,457.223 214.056,458.889 217.5,459C 222.087,464.042 225.753,469.542 228.5,475.5 Z"/></g>
<g><path style="opacity:1" fill="#150c06" d="M 185.5,437.5 C 182.726,434.297 179.726,431.297 176.5,428.5C 175.614,427.675 175.281,426.675 175.5,425.5C 169.82,423.244 164.32,420.577 159,417.5C 154.632,418.129 153.798,419.963 156.5,423C 155.552,423.483 154.552,423.649 153.5,423.5C 152.411,427.677 152.411,431.844 153.5,436C 153.325,437.658 152.658,438.991 151.5,440C 152.464,442.647 151.964,445.147 150,447.5C 149.833,450.167 149.667,452.833 149.5,455.5C 150.687,469.21 153.02,482.71 156.5,496C 156.291,497.871 155.291,499.038 153.5,499.5C 152.534,501.396 152.201,503.396 152.5,505.5C 153.5,505.5 154.5,505.5 155.5,505.5C 155.089,508.276 155.922,508.943 158,507.5C 159.699,508.704 161.199,510.038 162.5,511.5C 156.167,511.5 149.833,511.5 143.5,511.5C 144.26,510.107 144.926,508.607 145.5,507C 140.099,489.622 139.599,472.122 144,454.5C 144.333,454.833 144.667,455.167 145,455.5C 145.663,452.131 145.496,448.797 144.5,445.5C 144.719,443.085 146.052,442.085 148.5,442.5C 149.299,435.936 150.299,429.436 151.5,423C 151.034,419.674 150.701,416.34 150.5,413C 150.673,410.979 151.34,409.146 152.5,407.5C 155.212,408.532 158.212,409.698 161.5,411C 165.167,414 168.5,417.333 171.5,421C 178.602,424.589 183.269,430.089 185.5,437.5 Z"/></g>
<g><path style="opacity:1" fill="#425a69" d="M 363.5,390.5 C 364.886,396.737 364.719,403.071 363,409.5C 360.267,411.105 357.267,412.105 354,412.5C 353.7,417.271 351.867,421.271 348.5,424.5C 349.293,420.12 350.293,415.787 351.5,411.5C 352.434,410.432 352.768,409.099 352.5,407.5C 355.167,408.5 357.833,409.5 360.5,410.5C 360.826,407.689 361.659,405.022 363,402.5C 363.499,398.514 363.666,394.514 363.5,390.5 Z"/></g>
<g><path style="opacity:1" fill="#21130a" d="M 216.5,465.5 C 215.574,475.562 215.241,485.562 215.5,495.5C 212.833,495.5 210.167,495.5 207.5,495.5C 207.649,496.552 207.483,497.552 207,498.5C 205.028,499.305 203.528,500.639 202.5,502.5C 196.528,503.33 190.528,503.83 184.5,504C 182.5,504.667 180.5,505.333 178.5,506C 181.124,506.576 181.791,507.91 180.5,510C 178.866,510.494 177.199,510.66 175.5,510.5C 175.414,509.504 175.748,508.671 176.5,508C 175.833,507.333 175.167,506.667 174.5,506C 175.91,505.632 176.91,504.799 177.5,503.5C 177.191,497.577 175.358,492.244 172,487.5C 169.539,482.666 168.705,477.666 169.5,472.5C 166.527,472.713 163.527,472.379 160.5,471.5C 160.619,462.055 159.619,452.389 157.5,442.5C 157.954,437.477 158.287,432.477 158.5,427.5C 162.514,427.334 166.514,427.501 170.5,428C 171.878,429.713 173.545,431.047 175.5,432C 174.833,432.667 174.167,433.333 173.5,434C 176.195,436.566 177.695,439.399 178,442.5C 180.559,443.98 183.226,445.313 186,446.5C 190.303,455.771 194.969,464.771 200,473.5C 201.356,474.38 202.856,474.714 204.5,474.5C 205.639,471.838 205.806,469.171 205,466.5C 206.32,464.183 207.986,462.183 210,460.5C 212.328,461.999 214.495,463.666 216.5,465.5 Z"/></g>
<g><path style="opacity:1" fill="#1c0e07" d="M 185.5,437.5 C 189.542,441.071 193.542,444.904 197.5,449C 206.2,453.221 213.867,458.721 220.5,465.5C 218.965,464.646 217.632,464.646 216.5,465.5C 214.495,463.666 212.328,461.999 210,460.5C 207.986,462.183 206.32,464.183 205,466.5C 205.806,469.171 205.639,471.838 204.5,474.5C 202.856,474.714 201.356,474.38 200,473.5C 194.969,464.771 190.303,455.771 186,446.5C 183.226,445.313 180.559,443.98 178,442.5C 177.695,439.399 176.195,436.566 173.5,434C 174.167,433.333 174.833,432.667 175.5,432C 173.545,431.047 171.878,429.713 170.5,428C 166.514,427.501 162.514,427.334 158.5,427.5C 158.287,432.477 157.954,437.477 157.5,442.5C 159.619,452.389 160.619,462.055 160.5,471.5C 163.527,472.379 166.527,472.713 169.5,472.5C 168.705,477.666 169.539,482.666 172,487.5C 175.358,492.244 177.191,497.577 177.5,503.5C 176.91,504.799 175.91,505.632 174.5,506C 175.167,506.667 175.833,507.333 176.5,508C 175.748,508.671 175.414,509.504 175.5,510.5C 175.5,510.833 175.5,511.167 175.5,511.5C 171.167,511.5 166.833,511.5 162.5,511.5C 161.199,510.038 159.699,508.704 158,507.5C 155.922,508.943 155.089,508.276 155.5,505.5C 154.5,505.5 153.5,505.5 152.5,505.5C 152.201,503.396 152.534,501.396 153.5,499.5C 155.291,499.038 156.291,497.871 156.5,496C 153.02,482.71 150.687,469.21 149.5,455.5C 149.667,452.833 149.833,450.167 150,447.5C 151.964,445.147 152.464,442.647 151.5,440C 152.658,438.991 153.325,437.658 153.5,436C 152.411,431.844 152.411,427.677 153.5,423.5C 154.552,423.649 155.552,423.483 156.5,423C 153.798,419.963 154.632,418.129 159,417.5C 164.32,420.577 169.82,423.244 175.5,425.5C 175.281,426.675 175.614,427.675 176.5,428.5C 179.726,431.297 182.726,434.297 185.5,437.5 Z"/></g>
<g><path style="opacity:1" fill="#506670" d="M 348.5,424.5 C 348.534,430.944 345.534,434.777 339.5,436C 338.333,437.167 337.167,438.333 336,439.5C 335.667,442.833 335.333,446.167 335,449.5C 333.207,451.572 331.04,451.905 328.5,450.5C 325.303,451.801 321.97,452.801 318.5,453.5C 319.96,451.537 321.627,449.704 323.5,448C 326.486,448.128 329.486,448.128 332.5,448C 333.136,444.21 333.803,440.377 334.5,436.5C 335.646,435.855 336.646,435.022 337.5,434C 343.824,433.839 347.49,430.673 348.5,424.5 Z"/></g>
<g><path style="opacity:1" fill="#5f8294" d="M 415.5,511.5 C 355.167,511.5 294.833,511.5 234.5,511.5C 234.58,501.445 233.913,491.445 232.5,481.5C 233.496,481.414 234.329,481.748 235,482.5C 235.333,484.167 235.667,485.833 236,487.5C 236.741,486.359 237.575,486.359 238.5,487.5C 239.167,484.167 239.833,480.833 240.5,477.5C 241.192,478.025 241.692,478.692 242,479.5C 243.079,477.606 244.413,477.273 246,478.5C 249.701,475.831 253.701,474.831 258,475.5C 262.116,472.526 266.616,470.86 271.5,470.5C 284.602,470.256 297.602,469.09 310.5,467C 315.044,464.078 317.044,459.911 316.5,454.5C 316.842,453.662 317.508,453.328 318.5,453.5C 321.97,452.801 325.303,451.801 328.5,450.5C 331.04,451.905 333.207,451.572 335,449.5C 335.333,446.167 335.667,442.833 336,439.5C 337.167,438.333 338.333,437.167 339.5,436C 345.534,434.777 348.534,430.944 348.5,424.5C 351.867,421.271 353.7,417.271 354,412.5C 357.267,412.105 360.267,411.105 363,409.5C 364.719,403.071 364.886,396.737 363.5,390.5C 363.5,389.167 363.5,387.833 363.5,386.5C 363.468,380.818 363.135,375.152 362.5,369.5C 362.833,367.5 363.167,365.5 363.5,363.5C 366.963,361.347 368.296,358.18 367.5,354C 366.589,347.858 365.922,341.691 365.5,335.5C 366.552,335.649 367.552,335.483 368.5,335C 369.453,333.045 370.787,331.378 372.5,330C 376.647,330.185 379.48,328.352 381,324.5C 381.333,325.167 381.667,325.833 382,326.5C 382.333,315.833 382.667,305.167 383,294.5C 386.863,294.506 390.697,295.006 394.5,296C 395.109,298.51 396.442,300.51 398.5,302C 398.167,302.333 397.833,302.667 397.5,303C 399.473,303.495 401.473,303.662 403.5,303.5C 403.813,306.247 403.48,308.914 402.5,311.5C 399.516,314.443 398.016,317.777 398,321.5C 393.5,325.833 389,330.167 384.5,334.5C 386.743,335.474 389.076,335.808 391.5,335.5C 391.5,340.833 391.5,346.167 391.5,351.5C 387.818,351.335 384.152,351.501 380.5,352C 381.086,354.28 381.92,356.447 383,358.5C 383.5,372.163 383.667,385.829 383.5,399.5C 382.167,399.5 380.833,399.5 379.5,399.5C 379.649,402.607 379.149,405.607 378,408.5C 376.333,412.5 374.667,412.5 373,408.5C 371.401,402.867 369.901,397.201 368.5,391.5C 368.167,392.833 367.833,394.167 367.5,395.5C 366.444,402.263 365.444,408.763 364.5,415C 368.152,415.499 371.818,415.665 375.5,415.5C 376.833,436.833 378.167,458.167 379.5,479.5C 381.288,479.215 382.955,479.548 384.5,480.5C 389,484.833 393.5,489.167 398,493.5C 399.252,496.014 399.752,498.68 399.5,501.5C 404.833,501.5 410.167,501.5 415.5,501.5C 415.5,504.833 415.5,508.167 415.5,511.5 Z"/></g>
<g><path style="opacity:1" fill="#0a1415" d="M 135.5,393.5 C 136.225,397.231 137.225,400.898 138.5,404.5C 138.5,404.833 138.5,405.167 138.5,405.5C 137.883,405.611 137.383,405.944 137,406.5C 132.255,440.326 129.922,474.326 130,508.5C 131.728,509.352 131.895,510.352 130.5,511.5C 128.833,511.5 127.167,511.5 125.5,511.5C 125.939,499.834 126.439,488.167 127,476.5C 130.151,455.262 132.318,433.928 133.5,412.5C 135.094,406.406 135.761,400.072 135.5,393.5 Z"/></g>
<g><path style="opacity:1" fill="#556b75" d="M 316.5,454.5 C 317.044,459.911 315.044,464.078 310.5,467C 297.602,469.09 284.602,470.256 271.5,470.5C 266.833,470.5 262.167,470.5 257.5,470.5C 266.324,469.67 275.324,469.17 284.5,469C 288.243,467.864 291.91,466.53 295.5,465C 299.5,464.667 303.5,464.333 307.5,464C 310.732,460.938 313.732,457.771 316.5,454.5 Z"/></g>
<g><path style="opacity:1" fill="#718792" d="M 256.5,470.5 C 256.833,470.5 257.167,470.5 257.5,470.5C 262.167,470.5 266.833,470.5 271.5,470.5C 266.616,470.86 262.116,472.526 258,475.5C 253.701,474.831 249.701,475.831 246,478.5C 244.413,477.273 243.079,477.606 242,479.5C 241.692,478.692 241.192,478.025 240.5,477.5C 239.833,480.833 239.167,484.167 238.5,487.5C 237.575,486.359 236.741,486.359 236,487.5C 235.667,485.833 235.333,484.167 235,482.5C 234.329,481.748 233.496,481.414 232.5,481.5C 232.5,477.833 232.5,474.167 232.5,470.5C 238.485,470.549 244.318,471.549 250,473.5C 252.546,473.141 254.713,472.141 256.5,470.5 Z"/></g>
<g><path style="opacity:1" fill="#0d1417" d="M 256.5,470.5 C 254.713,472.141 252.546,473.141 250,473.5C 244.318,471.549 238.485,470.549 232.5,470.5C 232.5,474.167 232.5,477.833 232.5,481.5C 233.913,491.445 234.58,501.445 234.5,511.5C 233.5,511.5 232.5,511.5 231.5,511.5C 231.619,499.377 230.619,487.377 228.5,475.5C 228.34,473.801 228.506,472.134 229,470.5C 231.665,466.88 233.832,466.546 235.5,469.5C 237.884,468.988 240.217,468.321 242.5,467.5C 246.662,471.002 251.329,472.002 256.5,470.5 Z"/></g>
<g><path style="opacity:1" fill="#20160d" d="M 220.5,465.5 C 222.344,467.672 224.011,470.005 225.5,472.5C 228.975,485.257 230.308,498.257 229.5,511.5C 211.5,511.5 193.5,511.5 175.5,511.5C 175.5,511.167 175.5,510.833 175.5,510.5C 177.199,510.66 178.866,510.494 180.5,510C 181.791,507.91 181.124,506.576 178.5,506C 180.5,505.333 182.5,504.667 184.5,504C 190.528,503.83 196.528,503.33 202.5,502.5C 203.528,500.639 205.028,499.305 207,498.5C 207.483,497.552 207.649,496.552 207.5,495.5C 210.167,495.5 212.833,495.5 215.5,495.5C 215.241,485.562 215.574,475.562 216.5,465.5C 217.632,464.646 218.965,464.646 220.5,465.5 Z"/></g>
</svg>
