<?xml version="1.0" encoding="UTF-8"?>
<!DOCTYPE svg PUBLIC "-//W3C//DTD SVG 1.1//EN" "http://www.w3.org/Graphics/SVG/1.1/DTD/svg11.dtd">
<svg xmlns="http://www.w3.org/2000/svg" version="1.1" width="512px" height="512px" style="shape-rendering:geometricPrecision; text-rendering:geometricPrecision; image-rendering:optimizeQuality; fill-rule:evenodd; clip-rule:evenodd" xmlns:xlink="http://www.w3.org/1999/xlink">
<g><path style="opacity:1" fill="#94534e" d="M -0.5,-0.5 C 170.167,-0.5 340.833,-0.5 511.5,-0.5C 511.5,170.167 511.5,340.833 511.5,511.5C 340.833,511.5 170.167,511.5 -0.5,511.5C -0.5,340.833 -0.5,170.167 -0.5,-0.5 Z"/></g>
<g><path style="opacity:1" fill="#020102" d="M 319.5,64.5 C 332.418,63.7167 345.084,65.05 357.5,68.5C 368.517,68.9554 379.184,71.4554 389.5,76C 392.833,76.3333 396.167,76.6667 399.5,77C 402.167,78.6667 404.833,80.3333 407.5,82C 411.74,86.7454 416.407,90.912 421.5,94.5C 422.167,94.5 422.5,94.8333 422.5,95.5C 421.996,99.5066 421.83,103.507 422,107.5C 424.929,110.196 427.429,113.196 429.5,116.5C 429.5,117.833 429.5,119.167 429.5,120.5C 425.936,121.756 422.27,122.756 418.5,123.5C 417.671,128.467 417.171,133.467 417,138.5C 415.829,139.893 414.329,140.727 412.5,141C 411.196,141.804 410.529,142.971 410.5,144.5C 411.141,148.449 412.807,151.782 415.5,154.5C 415.813,157.247 415.48,159.914 414.5,162.5C 412.067,163.73 409.567,164.73 407,165.5C 406.833,167.167 406.667,168.833 406.5,170.5C 407.272,175.141 408.605,179.474 410.5,183.5C 408.187,196.695 406.854,210.029 406.5,223.5C 402.026,230.055 400.026,237.389 400.5,245.5C 400.54,248.881 400.207,252.214 399.5,255.5C 398.711,255.783 398.044,256.283 397.5,257C 393.579,257.203 389.745,257.703 386,258.5C 384.641,268.109 384.141,277.776 384.5,287.5C 383.169,290.127 381.336,292.46 379,294.5C 378.705,302.859 378.205,311.192 377.5,319.5C 377.167,319.5 376.833,319.5 376.5,319.5C 372.037,320.978 367.371,321.978 362.5,322.5C 361.191,328.629 361.191,334.629 362.5,340.5C 362.334,349.506 362.5,358.506 363,367.5C 363.21,369.058 363.71,370.391 364.5,371.5C 366.487,379.753 368.154,388.086 369.5,396.5C 369.167,398.167 368.833,399.833 368.5,401.5C 367.702,401.043 367.369,400.376 367.5,399.5C 366.682,395.346 364.349,392.346 360.5,390.5C 359.833,390.833 359.167,391.167 358.5,391.5C 358.02,403.625 356.686,415.625 354.5,427.5C 352.833,427.5 351.167,427.5 349.5,427.5C 349.5,432.5 349.5,437.5 349.5,442.5C 348.71,443.794 347.71,444.961 346.5,446C 342.354,447.937 338.021,449.271 333.5,450C 332.058,450.377 331.058,451.21 330.5,452.5C 325.669,455.811 320.669,458.978 315.5,462C 307.5,464 299.5,466 291.5,468C 283.841,468.5 276.174,468.666 268.5,468.5C 256.469,468.749 244.469,468.416 232.5,467.5C 226.306,465.714 220.639,462.88 215.5,459C 202.034,455.766 189.7,450.1 178.5,442C 173.667,434.5 167.5,428.333 160,423.5C 154.812,416.788 150.979,409.455 148.5,401.5C 146.541,388.933 141.874,377.599 134.5,367.5C 134.664,364.813 134.497,362.146 134,359.5C 131.668,353.463 129.334,347.463 127,341.5C 124.015,338.591 120.515,336.591 116.5,335.5C 112.054,330.944 108.888,325.611 107,319.5C 102.729,315.297 99.7292,310.297 98,304.5C 93.6082,296.775 88.4415,289.608 82.5,283C 79.5883,281.768 76.9216,280.268 74.5,278.5C 72.8729,276.37 71.0396,274.37 69,272.5C 68.6667,266.833 68.3333,261.167 68,255.5C 62.6745,252.556 58.5079,253.889 55.5,259.5C 53.3718,260.957 51.0384,261.957 48.5,262.5C 48.3367,260.143 48.5034,257.81 49,255.5C 52.0344,244.454 55.8677,233.787 60.5,223.5C 61.1614,222.282 61.8281,220.949 62.5,219.5C 62.6393,201.176 64.306,183.009 67.5,165C 67.0992,161.833 66.7659,158.666 66.5,155.5C 66.4152,147.297 65.4152,139.297 63.5,131.5C 64.5677,122 66.401,112.667 69,103.5C 71.6347,99.3643 74.4681,95.3643 77.5,91.5C 80.7642,89.9059 83.4309,87.5725 85.5,84.5C 90.0543,83.2458 94.3877,81.5791 98.5,79.5C 104.263,77.7857 109.93,75.7857 115.5,73.5C 121.644,73.8223 127.644,73.1556 133.5,71.5C 145.638,73.842 157.638,73.842 169.5,71.5C 184.837,71.6666 200.17,71.4999 215.5,71C 234.134,69.0735 252.801,67.4068 271.5,66C 287.672,65.8314 303.672,65.3314 319.5,64.5 Z"/></g>
<g><path style="opacity:1" fill="#8b5654" d="M 319.5,64.5 C 303.672,65.3314 287.672,65.8314 271.5,66C 252.801,67.4068 234.134,69.0735 215.5,71C 200.17,71.4999 184.837,71.6666 169.5,71.5C 164.5,71.5 159.5,71.5 154.5,71.5C 161.321,70.6715 168.321,70.1715 175.5,70C 177.991,69.3741 177.991,68.5407 175.5,67.5C 179.442,66.5071 183.442,65.8404 187.5,65.5C 196.986,66.0615 206.32,67.0615 215.5,68.5C 232.17,67.1719 248.837,66.0053 265.5,65C 283.497,64.5001 301.497,64.3334 319.5,64.5 Z"/></g>
<g><path style="opacity:1" fill="#6e4d4d" d="M 154.5,71.5 C 159.5,71.5 164.5,71.5 169.5,71.5C 157.638,73.842 145.638,73.842 133.5,71.5C 127.644,73.1556 121.644,73.8223 115.5,73.5C 120.894,71.5407 126.727,70.5407 133,70.5C 140.147,71.2696 147.314,71.603 154.5,71.5 Z"/></g>
<g><path style="opacity:1" fill="#764b4b" d="M 357.5,68.5 C 363.842,68.3338 370.175,68.5005 376.5,69C 382.078,71.8803 388.078,73.2136 394.5,73C 397.552,74.9349 400.885,76.2682 404.5,77C 408.696,79.1811 412.363,82.1811 415.5,86C 420.809,86.4777 422.809,89.3111 421.5,94.5C 416.407,90.912 411.74,86.7454 407.5,82C 404.833,80.3333 402.167,78.6667 399.5,77C 396.167,76.6667 392.833,76.3333 389.5,76C 379.184,71.4554 368.517,68.9554 357.5,68.5 Z"/></g>
<g><path style="opacity:1" fill="#513538" d="M 85.5,84.5 C 83.4309,87.5725 80.7642,89.9059 77.5,91.5C 73.1453,94.6921 69.6453,98.6921 67,103.5C 65.2864,110.21 64.1198,116.876 63.5,123.5C 63.3558,119.489 63.0225,115.489 62.5,111.5C 62.542,108.741 63.042,106.075 64,103.5C 68.7815,97.5555 73.9481,92.2222 79.5,87.5C 81.1815,85.9925 83.1815,84.9925 85.5,84.5 Z"/></g>
<g><path style="opacity:1" fill="#312126" d="M 77.5,91.5 C 74.4681,95.3643 71.6347,99.3643 69,103.5C 66.401,112.667 64.5677,122 63.5,131.5C 65.4152,139.297 66.4152,147.297 66.5,155.5C 65.9182,152.687 64.9182,150.02 63.5,147.5C 63.5,147.167 63.5,146.833 63.5,146.5C 63.5702,141.395 62.9035,136.395 61.5,131.5C 61.5676,128.562 62.2342,125.895 63.5,123.5C 64.1198,116.876 65.2864,110.21 67,103.5C 69.6453,98.6921 73.1453,94.6921 77.5,91.5 Z"/></g>
<g><path style="opacity:1" fill="#6e4747" d="M 79.5,87.5 C 73.9481,92.2222 68.7815,97.5555 64,103.5C 63.042,106.075 62.542,108.741 62.5,111.5C 63.0225,115.489 63.3558,119.489 63.5,123.5C 62.2342,125.895 61.5676,128.562 61.5,131.5C 62.9035,136.395 63.5702,141.395 63.5,146.5C 62.8826,146.389 62.3826,146.056 62,145.5C 61.6543,142.424 60.9876,139.424 60,136.5C 60.3003,126.482 60.3003,116.482 60,106.5C 64.1218,100.709 68.6218,95.2095 73.5,90C 75.4068,88.878 77.4068,88.0447 79.5,87.5 Z"/></g>
<g><path style="opacity:1" fill="#814e4c" d="M 422.5,95.5 C 425.389,96.0485 427.056,97.8818 427.5,101C 426.591,102.789 426.424,104.623 427,106.5C 428.718,108.897 429.885,111.564 430.5,114.5C 431.5,115 432.5,115.5 433.5,116C 433.057,117.518 433.724,118.685 435.5,119.5C 434.273,120.59 433.44,121.924 433,123.5C 431.022,122.184 429.522,122.684 428.5,125C 426.527,125.495 424.527,125.662 422.5,125.5C 422.5,131.5 422.5,137.5 422.5,143.5C 420.833,143.5 419.167,143.5 417.5,143.5C 417.811,142.522 418.478,141.855 419.5,141.5C 420.329,136.198 420.829,130.864 421,125.5C 424.726,124.637 428.059,122.971 431,120.5C 431.773,118.648 431.273,117.314 429.5,116.5C 427.429,113.196 424.929,110.196 422,107.5C 421.83,103.507 421.996,99.5066 422.5,95.5 Z"/></g>
<g><path style="opacity:1" fill="#864f4c" d="M 98.5,79.5 C 94.3877,81.5791 90.0543,83.2458 85.5,84.5C 83.1815,84.9925 81.1815,85.9925 79.5,87.5C 77.4068,88.0447 75.4068,88.878 73.5,90C 68.6218,95.2095 64.1218,100.709 60,106.5C 60.3003,116.482 60.3003,126.482 60,136.5C 60.9876,139.424 61.6543,142.424 62,145.5C 62.3826,146.056 62.8826,146.389 63.5,146.5C 63.5,146.833 63.5,147.167 63.5,147.5C 64.2122,153.32 64.8788,159.153 65.5,165C 64.7186,171.906 63.5519,178.739 62,185.5C 61.7318,198.187 61.2318,210.854 60.5,223.5C 55.8677,233.787 52.0344,244.454 49,255.5C 48.5034,257.81 48.3367,260.143 48.5,262.5C 51.0384,261.957 53.3718,260.957 55.5,259.5C 58.0895,259.604 60.4229,258.937 62.5,257.5C 63.1667,257.833 63.8333,258.167 64.5,258.5C 65.6984,261.972 65.6984,265.472 64.5,269C 64.9586,270.942 65.9586,272.442 67.5,273.5C 67.281,274.675 67.6143,275.675 68.5,276.5C 71.35,278.427 74.0167,280.594 76.5,283C 78.4357,283.813 80.4357,284.313 82.5,284.5C 82.5,285.5 82.5,286.5 82.5,287.5C 79.4725,285.86 76.1391,285.026 72.5,285C 71.8903,283.053 71.0569,281.219 70,279.5C 68.9887,280.337 67.8221,280.67 66.5,280.5C 66.8333,277.5 65.5,276.167 62.5,276.5C 60.505,273.317 58.6717,269.984 57,266.5C 54.8914,266.566 52.7247,266.899 50.5,267.5C 49.8333,266.833 49.1667,266.167 48.5,265.5C 47.3391,261.205 47.1725,256.871 48,252.5C 49.1037,248.816 50.2704,245.15 51.5,241.5C 49.0681,238.19 50.0681,236.19 54.5,235.5C 54.3107,231.36 53.6441,227.36 52.5,223.5C 55.462,223.883 56.462,222.883 55.5,220.5C 56.8513,218.981 58.3513,217.648 60,216.5C 60.1031,207.315 59.6031,198.148 58.5,189C 61.392,174.385 61.0587,159.885 57.5,145.5C 57.7556,144.311 58.0889,143.144 58.5,142C 57.1998,139.805 56.1998,137.472 55.5,135C 55.5562,131.306 55.7229,127.473 56,123.5C 58.5988,120.835 58.7655,118.168 56.5,115.5C 54.9843,116.804 54.3176,116.304 54.5,114C 56.5131,111.677 56.8464,109.177 55.5,106.5C 56.2318,102.885 57.5651,99.5521 59.5,96.5C 61.772,95.5147 64.1053,94.6813 66.5,94C 68.208,91.9565 70.208,90.2899 72.5,89C 73.5314,85.9605 75.3647,83.4605 78,81.5C 78.779,82.7282 79.779,83.7282 81,84.5C 84.0551,83.3895 86.8884,81.8895 89.5,80C 92.4816,79.502 95.4816,79.3354 98.5,79.5 Z"/></g>
<g><path style="opacity:1" fill="#4d3033" d="M 429.5,116.5 C 431.273,117.314 431.773,118.648 431,120.5C 428.059,122.971 424.726,124.637 421,125.5C 420.829,130.864 420.329,136.198 419.5,141.5C 418.478,141.855 417.811,142.522 417.5,143.5C 416.167,143.5 414.833,143.5 413.5,143.5C 413.414,147.319 414.081,150.985 415.5,154.5C 412.807,151.782 411.141,148.449 410.5,144.5C 410.529,142.971 411.196,141.804 412.5,141C 414.329,140.727 415.829,139.893 417,138.5C 417.171,133.467 417.671,128.467 418.5,123.5C 422.27,122.756 425.936,121.756 429.5,120.5C 429.5,119.167 429.5,117.833 429.5,116.5 Z"/></g>
<g><path style="opacity:1" fill="#794848" d="M 417.5,143.5 C 418.649,146.041 418.649,148.541 417.5,151C 421.106,155.109 421.439,159.609 418.5,164.5C 415.129,164.923 412.295,166.257 410,168.5C 409.502,173.519 409.668,178.519 410.5,183.5C 408.605,179.474 407.272,175.141 406.5,170.5C 406.667,168.833 406.833,167.167 407,165.5C 409.567,164.73 412.067,163.73 414.5,162.5C 415.48,159.914 415.813,157.247 415.5,154.5C 414.081,150.985 413.414,147.319 413.5,143.5C 414.833,143.5 416.167,143.5 417.5,143.5 Z"/></g>
<g><path style="opacity:1" fill="#745b74" d="M 219.5,194.5 C 213.776,193.239 211.443,195.239 212.5,200.5C 211.833,200.5 211.167,200.5 210.5,200.5C 207.639,197.484 207.972,194.984 211.5,193C 214.538,192.115 217.205,192.615 219.5,194.5 Z"/></g>
<g><path style="opacity:1" fill="#c4a8c1" d="M 219.5,194.5 C 222.539,195.278 225.206,196.612 227.5,198.5C 223.612,197.027 219.612,196.527 215.5,197C 214.978,197.561 214.645,198.228 214.5,199C 215.32,200.8 215.986,202.634 216.5,204.5C 215.167,203.167 213.833,201.833 212.5,200.5C 211.443,195.239 213.776,193.239 219.5,194.5 Z"/></g>
<g><path style="opacity:1" fill="#66403f" d="M 63.5,147.5 C 64.9182,150.02 65.9182,152.687 66.5,155.5C 66.7659,158.666 67.0992,161.833 67.5,165C 64.306,183.009 62.6393,201.176 62.5,219.5C 61.8281,220.949 61.1614,222.282 60.5,223.5C 61.2318,210.854 61.7318,198.187 62,185.5C 63.5519,178.739 64.7186,171.906 65.5,165C 64.8788,159.153 64.2122,153.32 63.5,147.5 Z"/></g>
<g><path style="opacity:1" fill="#3d2e43" d="M 296.5,204.5 C 303.478,203.074 310.478,203.574 317.5,206C 318.942,206.377 319.942,207.21 320.5,208.5C 312.817,205.517 304.817,204.183 296.5,204.5 Z"/></g>
<g><path style="opacity:1" fill="#ebd8d9" d="M 227.5,198.5 C 232.14,200.149 236.807,201.816 241.5,203.5C 254.527,204.251 267.527,205.251 280.5,206.5C 284.859,206.351 289.192,206.017 293.5,205.5C 298.759,205.016 303.759,205.683 308.5,207.5C 308.908,208.643 309.575,209.643 310.5,210.5C 313.392,211.394 316.059,212.728 318.5,214.5C 320.714,212.037 323.048,211.871 325.5,214C 323.369,214.543 321.369,215.376 319.5,216.5C 320.815,217.895 320.481,218.895 318.5,219.5C 315.385,217.952 312.051,216.952 308.5,216.5C 305.825,219.01 306.492,220.51 310.5,221C 306.373,225.33 301.706,226.164 296.5,223.5C 296.167,219.5 295.833,219.5 295.5,223.5C 291.694,224.813 292.027,225.98 296.5,227C 295.43,229.742 293.93,232.242 292,234.5C 291.092,232.561 289.592,231.561 287.5,231.5C 287.579,233.666 288.246,235.666 289.5,237.5C 289.182,238.647 288.516,239.481 287.5,240C 288.622,243.409 288.789,246.909 288,250.5C 287.503,248.19 287.337,245.857 287.5,243.5C 284.671,243.675 283.004,242.342 282.5,239.5C 281.505,244.792 281.172,250.125 281.5,255.5C 280.5,255.5 279.5,255.5 278.5,255.5C 279.303,260.476 282.136,263.809 287,265.5C 287.333,263.833 287.667,262.167 288,260.5C 288.5,261 289,261.5 289.5,262C 289.185,264.098 289.185,266.098 289.5,268C 292.897,269.663 293.23,271.663 290.5,274C 291.077,276.137 291.41,278.304 291.5,280.5C 292.873,280.657 294.207,280.49 295.5,280C 293.679,277.544 293.012,274.711 293.5,271.5C 294.822,271.67 295.989,271.337 297,270.5C 298.511,273.796 299.677,277.129 300.5,280.5C 302.367,280.045 304.2,279.378 306,278.5C 311.204,279.275 316.371,279.608 321.5,279.5C 327.204,278.004 332.204,275.338 336.5,271.5C 337.332,280.816 337.832,290.149 338,299.5C 338.333,300.833 338.667,302.167 339,303.5C 339.495,301.527 339.662,299.527 339.5,297.5C 340.338,297.842 340.672,298.508 340.5,299.5C 341.447,311.807 340.113,323.807 336.5,335.5C 333.85,340.756 329.85,344.756 324.5,347.5C 323.682,350.107 323.182,352.774 323,355.5C 321.391,356.147 319.891,356.98 318.5,358C 284.848,359.335 251.182,359.835 217.5,359.5C 219.025,357.964 221.025,356.964 223.5,356.5C 218.167,355.833 212.833,355.167 207.5,354.5C 206.272,352.679 204.606,351.679 202.5,351.5C 202.665,348.15 202.498,344.817 202,341.5C 195.751,333.339 191.418,324.339 189,314.5C 188.501,310.848 188.335,307.182 188.5,303.5C 186.833,303.5 185.167,303.5 183.5,303.5C 182.375,301.179 182.208,298.846 183,296.5C 182.667,297.167 182.333,297.833 182,298.5C 180.473,296.779 179.473,294.779 179,292.5C 178.64,294.421 177.806,296.088 176.5,297.5C 175.334,284.513 175.167,271.513 176,258.5C 177.975,259.478 179.642,260.811 181,262.5C 181.772,262.355 182.439,262.022 183,261.5C 182.575,259.945 181.742,258.445 180.5,257C 181.009,255.831 181.842,254.998 183,254.5C 183.17,252.285 183.837,250.285 185,248.5C 186.244,251.638 186.911,254.972 187,258.5C 187.707,260.081 188.54,261.581 189.5,263C 198.485,268.131 206.985,267.631 215,261.5C 218.57,256.503 218.236,251.837 214,247.5C 213.506,245.866 213.34,244.199 213.5,242.5C 216.833,242.833 220.167,243.167 223.5,243.5C 224.482,247.979 227.316,250.646 232,251.5C 235.391,246.89 234.891,242.89 230.5,239.5C 229.833,239.5 229.5,239.167 229.5,238.5C 229.391,233.297 228.391,228.297 226.5,223.5C 225.5,223.5 224.5,223.5 223.5,223.5C 223.112,221.315 222.112,219.482 220.5,218C 221.517,215.213 221.684,212.38 221,209.5C 219.068,206.003 218.068,202.337 218,198.5C 221.777,199.535 225.611,200.035 229.5,200C 228.584,199.722 227.918,199.222 227.5,198.5 Z"/></g>
<g><path style="opacity:1" fill="#c5afc2" d="M 293.5,205.5 C 294.209,204.596 295.209,204.263 296.5,204.5C 304.817,204.183 312.817,205.517 320.5,208.5C 322.38,208.229 323.713,208.896 324.5,210.5C 321.482,210.665 318.482,210.498 315.5,210C 316.634,208.984 316.301,208.317 314.5,208C 312.527,207.505 310.527,207.338 308.5,207.5C 303.759,205.683 298.759,205.016 293.5,205.5 Z"/></g>
<g><path style="opacity:1" fill="#673a39" d="M 410.5,183.5 C 411.162,185.304 411.495,187.304 411.5,189.5C 409.924,199.052 409.091,208.719 409,218.5C 408.159,221.628 407.325,224.628 406.5,227.5C 406.5,226.167 406.5,224.833 406.5,223.5C 406.854,210.029 408.187,196.695 410.5,183.5 Z"/></g>
<g><path style="opacity:1" fill="#563b5d" d="M 186.5,212.5 C 181.489,212.334 176.489,212.501 171.5,213C 170.956,213.717 170.289,214.217 169.5,214.5C 169.414,213.504 169.748,212.671 170.5,212C 176.016,211.183 181.35,211.349 186.5,212.5 Z"/></g>
<g><path style="opacity:1" fill="#170e1b" d="M 210.5,200.5 C 211.167,200.5 211.833,200.5 212.5,200.5C 213.833,201.833 215.167,203.167 216.5,204.5C 216.833,205.833 217.167,207.167 217.5,208.5C 217.67,209.822 217.337,210.989 216.5,212C 207.173,212.5 197.839,212.666 188.5,212.5C 187.833,212.5 187.167,212.5 186.5,212.5C 181.35,211.349 176.016,211.183 170.5,212C 169.748,212.671 169.414,213.504 169.5,214.5C 169.784,216.415 169.451,218.081 168.5,219.5C 168.336,216.813 168.503,214.146 169,211.5C 170.518,208.246 172.685,207.746 175.5,210C 187.58,211.007 199.58,211.507 211.5,211.5C 212.833,210.833 213.833,209.833 214.5,208.5C 213.086,205.787 211.753,203.12 210.5,200.5 Z"/></g>
<g><path style="opacity:1" fill="#7b6880" d="M 217.5,208.5 C 219.647,209.932 219.98,211.765 218.5,214C 208.526,213.705 198.526,213.538 188.5,213.5C 188.5,213.167 188.5,212.833 188.5,212.5C 197.839,212.666 207.173,212.5 216.5,212C 217.337,210.989 217.67,209.822 217.5,208.5 Z"/></g>
<g><path style="opacity:1" fill="#ab8eab" d="M 186.5,212.5 C 187.167,212.5 187.833,212.5 188.5,212.5C 188.5,212.833 188.5,213.167 188.5,213.5C 184.818,213.335 181.152,213.501 177.5,214C 175.324,214.163 173.491,214.996 172,216.5C 170.616,223.411 170.116,230.411 170.5,237.5C 170.167,237.5 169.833,237.5 169.5,237.5C 168.835,231.523 168.502,225.523 168.5,219.5C 169.451,218.081 169.784,216.415 169.5,214.5C 170.289,214.217 170.956,213.717 171.5,213C 176.489,212.501 181.489,212.334 186.5,212.5 Z"/></g>
<g><path style="opacity:1" fill="#1e161d" d="M 341.5,299.5 C 341.167,299.5 340.833,299.5 340.5,299.5C 340.672,298.508 340.338,297.842 339.5,297.5C 339.5,280.833 339.5,264.167 339.5,247.5C 340.205,238.275 341.205,228.942 342.5,219.5C 342.167,217.5 341.833,215.5 341.5,213.5C 338.242,212.583 334.909,212.249 331.5,212.5C 330.508,212.672 329.842,212.338 329.5,211.5C 333.042,211.62 336.542,211.286 340,210.5C 341.711,210.439 343.044,211.106 344,212.5C 344.837,214.351 345.671,216.184 346.5,218C 345.097,223.112 343.763,228.279 342.5,233.5C 343.332,236.235 344.332,238.235 345.5,239.5C 344.5,239.5 343.5,239.5 342.5,239.5C 342.656,259.435 342.322,279.435 341.5,299.5 Z"/></g>
<g><path style="opacity:1" fill="#bda6bb" d="M 331.5,212.5 C 334.909,212.249 338.242,212.583 341.5,213.5C 341.833,215.5 342.167,217.5 342.5,219.5C 341.205,228.942 340.205,238.275 339.5,247.5C 339.5,242.5 339.5,237.5 339.5,232.5C 332.716,234.594 325.716,236.094 318.5,237C 316.081,238.509 315.081,240.675 315.5,243.5C 313.926,240.57 314.592,238.07 317.5,236C 320.379,235.454 323.046,234.621 325.5,233.5C 328.667,233.6 331.667,232.933 334.5,231.5C 335.466,229.604 335.799,227.604 335.5,225.5C 328.543,224.614 321.543,224.28 314.5,224.5C 321.321,223.345 328.321,223.179 335.5,224C 336.653,225.883 338.319,226.716 340.5,226.5C 340.665,222.818 340.499,219.152 340,215.5C 336.911,214.972 334.077,213.972 331.5,212.5 Z"/></g>
<g><path style="opacity:1" fill="#0d020b" d="M 309.5,225.5 C 316.891,225.201 324.224,225.535 331.5,226.5C 332.731,227.651 332.731,228.817 331.5,230C 327.569,231.807 323.569,232.974 319.5,233.5C 315.012,233.941 310.846,235.274 307,237.5C 302.406,236.751 300.739,234.085 302,229.5C 304.974,228.918 307.474,227.585 309.5,225.5 Z"/></g>
<g><path style="opacity:1" fill="#3a233f" d="M 309.5,225.5 C 310.919,224.549 312.585,224.216 314.5,224.5C 321.543,224.28 328.543,224.614 335.5,225.5C 335.799,227.604 335.466,229.604 334.5,231.5C 331.667,232.933 328.667,233.6 325.5,233.5C 323.5,233.5 321.5,233.5 319.5,233.5C 323.569,232.974 327.569,231.807 331.5,230C 332.731,228.817 332.731,227.651 331.5,226.5C 324.224,225.535 316.891,225.201 309.5,225.5 Z"/></g>
<g><path style="opacity:1" fill="#402325" d="M 406.5,223.5 C 406.5,224.833 406.5,226.167 406.5,227.5C 403.103,233.025 401.103,239.025 400.5,245.5C 400.026,237.389 402.026,230.055 406.5,223.5 Z"/></g>
<g><path style="opacity:1" fill="#70467c" d="M 225.5,231.5 C 226.167,231.5 226.5,231.833 226.5,232.5C 226.802,235.059 226.468,237.393 225.5,239.5C 223.442,238.067 221.108,237.4 218.5,237.5C 214.03,236.514 209.363,236.181 204.5,236.5C 211.313,235.509 218.313,235.175 225.5,235.5C 225.5,234.167 225.5,232.833 225.5,231.5 Z"/></g>
<g><path style="opacity:1" fill="#261225" d="M 309.5,225.5 C 307.474,227.585 304.974,228.918 302,229.5C 300.739,234.085 302.406,236.751 307,237.5C 310.846,235.274 315.012,233.941 319.5,233.5C 316.926,234.881 314.426,236.548 312,238.5C 311.503,240.81 311.337,243.143 311.5,245.5C 309.703,244.27 307.703,243.604 305.5,243.5C 304.821,245.668 303.821,247.668 302.5,249.5C 303.156,251.453 303.489,253.453 303.5,255.5C 305.179,255.285 306.179,255.952 306.5,257.5C 304.486,257.608 302.82,256.942 301.5,255.5C 301.403,250.97 301.736,246.47 302.5,242C 302.079,238.82 301.079,235.82 299.5,233C 299.989,231.862 300.322,230.695 300.5,229.5C 302.835,226.835 305.835,225.502 309.5,225.5 Z"/></g>
<g><path style="opacity:1" fill="#ecd9df" d="M 308.5,207.5 C 310.527,207.338 312.527,207.505 314.5,208C 316.301,208.317 316.634,208.984 315.5,210C 318.482,210.498 321.482,210.665 324.5,210.5C 326.216,210.629 327.883,210.962 329.5,211.5C 329.842,212.338 330.508,212.672 331.5,212.5C 334.077,213.972 336.911,214.972 340,215.5C 340.499,219.152 340.665,222.818 340.5,226.5C 338.319,226.716 336.653,225.883 335.5,224C 328.321,223.179 321.321,223.345 314.5,224.5C 312.585,224.216 310.919,224.549 309.5,225.5C 305.835,225.502 302.835,226.835 300.5,229.5C 299.833,229.833 299.167,230.167 298.5,230.5C 297.842,231.793 297.508,233.293 297.5,235C 298.102,240.824 298.602,246.658 299,252.5C 299.383,253.056 299.883,253.389 300.5,253.5C 300.328,254.492 300.662,255.158 301.5,255.5C 302.82,256.942 304.486,257.608 306.5,257.5C 310.884,258.424 314.218,257.091 316.5,253.5C 317.147,252.726 317.48,251.726 317.5,250.5C 317.114,248.068 316.447,245.734 315.5,243.5C 315.081,240.675 316.081,238.509 318.5,237C 325.716,236.094 332.716,234.594 339.5,232.5C 339.5,237.5 339.5,242.5 339.5,247.5C 339.5,264.167 339.5,280.833 339.5,297.5C 339.662,299.527 339.495,301.527 339,303.5C 338.667,302.167 338.333,300.833 338,299.5C 337.832,290.149 337.332,280.816 336.5,271.5C 332.204,275.338 327.204,278.004 321.5,279.5C 316.371,279.608 311.204,279.275 306,278.5C 304.2,279.378 302.367,280.045 300.5,280.5C 299.677,277.129 298.511,273.796 297,270.5C 295.989,271.337 294.822,271.67 293.5,271.5C 293.012,274.711 293.679,277.544 295.5,280C 294.207,280.49 292.873,280.657 291.5,280.5C 291.41,278.304 291.077,276.137 290.5,274C 293.23,271.663 292.897,269.663 289.5,268C 289.185,266.098 289.185,264.098 289.5,262C 289,261.5 288.5,261 288,260.5C 287.667,262.167 287.333,263.833 287,265.5C 282.136,263.809 279.303,260.476 278.5,255.5C 279.5,255.5 280.5,255.5 281.5,255.5C 281.172,250.125 281.505,244.792 282.5,239.5C 283.004,242.342 284.671,243.675 287.5,243.5C 287.337,245.857 287.503,248.19 288,250.5C 288.789,246.909 288.622,243.409 287.5,240C 288.516,239.481 289.182,238.647 289.5,237.5C 288.246,235.666 287.579,233.666 287.5,231.5C 289.592,231.561 291.092,232.561 292,234.5C 293.93,232.242 295.43,229.742 296.5,227C 292.027,225.98 291.694,224.813 295.5,223.5C 295.833,219.5 296.167,219.5 296.5,223.5C 301.706,226.164 306.373,225.33 310.5,221C 306.492,220.51 305.825,219.01 308.5,216.5C 312.051,216.952 315.385,217.952 318.5,219.5C 320.481,218.895 320.815,217.895 319.5,216.5C 321.369,215.376 323.369,214.543 325.5,214C 323.048,211.871 320.714,212.037 318.5,214.5C 316.059,212.728 313.392,211.394 310.5,210.5C 309.575,209.643 308.908,208.643 308.5,207.5 Z"/></g>
<g><path style="opacity:1" fill="#663b64" d="M 319.5,233.5 C 321.5,233.5 323.5,233.5 325.5,233.5C 323.046,234.621 320.379,235.454 317.5,236C 314.592,238.07 313.926,240.57 315.5,243.5C 316.447,245.734 317.114,248.068 317.5,250.5C 317.48,251.726 317.147,252.726 316.5,253.5C 316.853,249.535 315.187,246.869 311.5,245.5C 311.337,243.143 311.503,240.81 312,238.5C 314.426,236.548 316.926,234.881 319.5,233.5 Z"/></g>
<g><path style="opacity:1" fill="#b798b9" d="M 226.5,232.5 C 227.797,234.371 228.797,236.371 229.5,238.5C 229.5,239.167 229.833,239.5 230.5,239.5C 230.993,241.806 231.326,244.139 231.5,246.5C 227.441,246.04 225.441,243.707 225.5,239.5C 226.468,237.393 226.802,235.059 226.5,232.5 Z"/></g>
<g><path style="opacity:1" fill="#bc9fbf" d="M 298.5,230.5 C 300.064,238.061 300.731,245.728 300.5,253.5C 299.883,253.389 299.383,253.056 299,252.5C 298.602,246.658 298.102,240.824 297.5,235C 297.508,233.293 297.842,231.793 298.5,230.5 Z"/></g>
<g><path style="opacity:1" fill="#5a3e63" d="M 300.5,229.5 C 300.322,230.695 299.989,231.862 299.5,233C 301.079,235.82 302.079,238.82 302.5,242C 301.736,246.47 301.403,250.97 301.5,255.5C 300.662,255.158 300.328,254.492 300.5,253.5C 300.731,245.728 300.064,238.061 298.5,230.5C 299.167,230.167 299.833,229.833 300.5,229.5 Z"/></g>
<g><path style="opacity:1" fill="#120613" d="M 311.5,245.5 C 315.187,246.869 316.853,249.535 316.5,253.5C 314.218,257.091 310.884,258.424 306.5,257.5C 306.179,255.952 305.179,255.285 303.5,255.5C 303.489,253.453 303.156,251.453 302.5,249.5C 303.821,247.668 304.821,245.668 305.5,243.5C 307.703,243.604 309.703,244.27 311.5,245.5 Z"/></g>
<g><path style="opacity:1" fill="#eedbe4" d="M 227.5,198.5 C 227.918,199.222 228.584,199.722 229.5,200C 225.611,200.035 221.777,199.535 218,198.5C 218.068,202.337 219.068,206.003 221,209.5C 221.684,212.38 221.517,215.213 220.5,218C 222.112,219.482 223.112,221.315 223.5,223.5C 224.5,223.5 225.5,223.5 226.5,223.5C 228.391,228.297 229.391,233.297 229.5,238.5C 228.797,236.371 227.797,234.371 226.5,232.5C 226.5,231.833 226.167,231.5 225.5,231.5C 225.34,229.847 224.674,228.514 223.5,227.5C 222.17,223.082 219.17,221.415 214.5,222.5C 210.446,222.79 209.946,222.123 213,220.5C 213.684,219.216 213.517,218.049 212.5,217C 202.534,215.302 192.534,215.135 182.5,216.5C 178.727,217.449 177.727,219.616 179.5,223C 185.348,223.173 191.015,223.673 196.5,224.5C 193.094,224.956 189.761,225.622 186.5,226.5C 183.527,226.965 182.36,228.632 183,231.5C 185.029,234.596 187.862,236.262 191.5,236.5C 192.9,237.1 193.9,238.1 194.5,239.5C 191.029,240.478 189.195,242.812 189,246.5C 188.833,248 188.667,249.5 188.5,251C 188.569,252.986 189.235,254.486 190.5,255.5C 190.263,256.791 190.596,257.791 191.5,258.5C 192.894,260.708 194.894,262.208 197.5,263C 201.255,263.755 204.922,263.589 208.5,262.5C 211.204,262.33 212.871,260.997 213.5,258.5C 214.634,256.034 214.801,253.367 214,250.5C 212.748,248.999 211.748,247.332 211,245.5C 208.648,243.97 206.481,242.303 204.5,240.5C 204.196,239.85 203.863,239.183 203.5,238.5C 208.456,237.506 213.456,237.173 218.5,237.5C 221.108,237.4 223.442,238.067 225.5,239.5C 225.441,243.707 227.441,246.04 231.5,246.5C 231.326,244.139 230.993,241.806 230.5,239.5C 234.891,242.89 235.391,246.89 232,251.5C 227.316,250.646 224.482,247.979 223.5,243.5C 220.167,243.167 216.833,242.833 213.5,242.5C 213.34,244.199 213.506,245.866 214,247.5C 218.236,251.837 218.57,256.503 215,261.5C 206.985,267.631 198.485,268.131 189.5,263C 188.54,261.581 187.707,260.081 187,258.5C 186.911,254.972 186.244,251.638 185,248.5C 183.837,250.285 183.17,252.285 183,254.5C 181.842,254.998 181.009,255.831 180.5,257C 181.742,258.445 182.575,259.945 183,261.5C 182.439,262.022 181.772,262.355 181,262.5C 179.642,260.811 177.975,259.478 176,258.5C 175.167,271.513 175.334,284.513 176.5,297.5C 177.806,296.088 178.64,294.421 179,292.5C 179.473,294.779 180.473,296.779 182,298.5C 182.333,297.833 182.667,297.167 183,296.5C 182.208,298.846 182.375,301.179 183.5,303.5C 185.167,303.5 186.833,303.5 188.5,303.5C 188.335,307.182 188.501,310.848 189,314.5C 191.418,324.339 195.751,333.339 202,341.5C 202.498,344.817 202.665,348.15 202.5,351.5C 204.606,351.679 206.272,352.679 207.5,354.5C 212.833,355.167 218.167,355.833 223.5,356.5C 221.025,356.964 219.025,357.964 217.5,359.5C 209.93,360.054 202.596,359.387 195.5,357.5C 195.021,353.36 194.021,349.36 192.5,345.5C 192.477,343.073 191.977,340.74 191,338.5C 188.69,334.028 185.523,330.362 181.5,327.5C 180.11,319.275 178.11,311.275 175.5,303.5C 175.561,299.951 174.727,296.618 173,293.5C 172.83,283.658 172.33,273.991 171.5,264.5C 171.784,262.585 171.451,260.919 170.5,259.5C 170.5,252.167 170.5,244.833 170.5,237.5C 170.116,230.411 170.616,223.411 172,216.5C 173.491,214.996 175.324,214.163 177.5,214C 181.152,213.501 184.818,213.335 188.5,213.5C 198.526,213.538 208.526,213.705 218.5,214C 219.98,211.765 219.647,209.932 217.5,208.5C 217.167,207.167 216.833,205.833 216.5,204.5C 215.986,202.634 215.32,200.8 214.5,199C 214.645,198.228 214.978,197.561 215.5,197C 219.612,196.527 223.612,197.027 227.5,198.5 Z"/></g>
<g><path style="opacity:1" fill="#1c0817" d="M 213.5,258.5 C 212.871,260.997 211.204,262.33 208.5,262.5C 209.231,260.251 210.231,258.084 211.5,256C 211.22,254.605 210.553,253.438 209.5,252.5C 205.564,251.405 201.564,250.572 197.5,250C 196.333,249.5 195.5,248.667 195,247.5C 193.989,248.337 192.822,248.67 191.5,248.5C 191.5,251.833 191.5,255.167 191.5,258.5C 190.596,257.791 190.263,256.791 190.5,255.5C 190.311,240.336 196.478,237.336 209,246.5C 209.972,248.305 211.139,249.972 212.5,251.5C 213.474,253.743 213.808,256.076 213.5,258.5 Z"/></g>
<g><path style="opacity:1" fill="#70466e" d="M 194.5,239.5 C 196.5,239.5 198.5,239.5 200.5,239.5C 201.833,239.833 203.167,240.167 204.5,240.5C 206.481,242.303 208.648,243.97 211,245.5C 211.748,247.332 212.748,248.999 214,250.5C 214.801,253.367 214.634,256.034 213.5,258.5C 213.808,256.076 213.474,253.743 212.5,251.5C 211.139,249.972 209.972,248.305 209,246.5C 196.478,237.336 190.311,240.336 190.5,255.5C 189.235,254.486 188.569,252.986 188.5,251C 188.667,249.5 188.833,248 189,246.5C 189.195,242.812 191.029,240.478 194.5,239.5 Z"/></g>
<g><path style="opacity:1" fill="#a870a5" d="M 191.5,236.5 C 195.167,236.5 198.833,236.5 202.5,236.5C 201.449,237.222 200.782,238.222 200.5,239.5C 198.5,239.5 196.5,239.5 194.5,239.5C 193.9,238.1 192.9,237.1 191.5,236.5 Z"/></g>
<g><path style="opacity:1" fill="#f0ccf0" d="M 202.5,236.5 C 203.167,236.5 203.833,236.5 204.5,236.5C 209.363,236.181 214.03,236.514 218.5,237.5C 213.456,237.173 208.456,237.506 203.5,238.5C 203.863,239.183 204.196,239.85 204.5,240.5C 203.167,240.167 201.833,239.833 200.5,239.5C 200.782,238.222 201.449,237.222 202.5,236.5 Z"/></g>
<g><path style="opacity:1" fill="#411e41" d="M 186.5,226.5 C 185.058,227.82 184.392,229.486 184.5,231.5C 188.448,233.337 192.615,234.67 197,235.5C 205.815,234.675 214.648,234.342 223.5,234.5C 223.5,232.167 223.5,229.833 223.5,227.5C 224.674,228.514 225.34,229.847 225.5,231.5C 225.5,232.833 225.5,234.167 225.5,235.5C 218.313,235.175 211.313,235.509 204.5,236.5C 203.833,236.5 203.167,236.5 202.5,236.5C 198.833,236.5 195.167,236.5 191.5,236.5C 187.862,236.262 185.029,234.596 183,231.5C 182.36,228.632 183.527,226.965 186.5,226.5 Z"/></g>
<g><path style="opacity:1" fill="#10040b" d="M 214.5,222.5 C 219.17,221.415 222.17,223.082 223.5,227.5C 223.5,229.833 223.5,232.167 223.5,234.5C 214.648,234.342 205.815,234.675 197,235.5C 192.615,234.67 188.448,233.337 184.5,231.5C 184.392,229.486 185.058,227.82 186.5,226.5C 189.761,225.622 193.094,224.956 196.5,224.5C 202.65,223.963 208.65,223.296 214.5,222.5 Z"/></g>
<g><path style="opacity:1" fill="#e6d1d5" d="M 214.5,222.5 C 208.65,223.296 202.65,223.963 196.5,224.5C 191.015,223.673 185.348,223.173 179.5,223C 177.727,219.616 178.727,217.449 182.5,216.5C 192.534,215.135 202.534,215.302 212.5,217C 213.517,218.049 213.684,219.216 213,220.5C 209.946,222.123 210.446,222.79 214.5,222.5 Z"/></g>
<g><path style="opacity:1" fill="#0c050f" d="M 208.5,262.5 C 204.922,263.589 201.255,263.755 197.5,263C 194.894,262.208 192.894,260.708 191.5,258.5C 191.5,255.167 191.5,251.833 191.5,248.5C 192.822,248.67 193.989,248.337 195,247.5C 195.5,248.667 196.333,249.5 197.5,250C 201.564,250.572 205.564,251.405 209.5,252.5C 210.553,253.438 211.22,254.605 211.5,256C 210.231,258.084 209.231,260.251 208.5,262.5 Z"/></g>
<g><path style="opacity:1" fill="#533536" d="M 74.5,278.5 C 71.9066,277.246 69.5732,275.58 67.5,273.5C 65.9586,272.442 64.9586,270.942 64.5,269C 65.6984,265.472 65.6984,261.972 64.5,258.5C 63.8333,258.167 63.1667,257.833 62.5,257.5C 60.4229,258.937 58.0895,259.604 55.5,259.5C 58.5079,253.889 62.6745,252.556 68,255.5C 68.3333,261.167 68.6667,266.833 69,272.5C 71.0396,274.37 72.8729,276.37 74.5,278.5 Z"/></g>
<g><path style="opacity:1" fill="#2b1c31" d="M 169.5,237.5 C 169.833,237.5 170.167,237.5 170.5,237.5C 170.5,244.833 170.5,252.167 170.5,259.5C 170.093,270.831 169.759,282.164 169.5,293.5C 168.539,291.735 168.205,289.735 168.5,287.5C 169.186,270.842 169.519,254.176 169.5,237.5 Z"/></g>
<g><path style="opacity:1" fill="#18111a" d="M 329.5,271.5 C 328.473,273.194 327.139,274.527 325.5,275.5C 324.081,276.451 322.415,276.784 320.5,276.5C 317.615,276.806 314.948,276.473 312.5,275.5C 309.784,273.036 310.118,270.87 313.5,269C 312.906,268.536 312.239,268.369 311.5,268.5C 313.102,266.926 315.102,266.259 317.5,266.5C 321.146,265.717 324.812,265.55 328.5,266C 329.406,267.699 329.739,269.533 329.5,271.5 Z"/></g>
<g><path style="opacity:1" fill="#4e3457" d="M 324.5,264.5 C 327.881,264.46 331.214,264.793 334.5,265.5C 334.313,268.69 332.646,270.69 329.5,271.5C 329.739,269.533 329.406,267.699 328.5,266C 324.812,265.55 321.146,265.717 317.5,266.5C 319.515,265.076 321.848,264.41 324.5,264.5 Z"/></g>
<g><path style="opacity:1" fill="#b599b2" d="M 324.5,264.5 C 327.304,263.362 330.304,263.195 333.5,264C 336.054,266.269 336.054,268.602 333.5,271C 331.545,271.953 329.878,273.287 328.5,275C 327.552,275.483 326.552,275.649 325.5,275.5C 327.139,274.527 328.473,273.194 329.5,271.5C 332.646,270.69 334.313,268.69 334.5,265.5C 331.214,264.793 327.881,264.46 324.5,264.5 Z"/></g>
<g><path style="opacity:1" fill="#623d3d" d="M 399.5,255.5 C 399.586,256.496 399.252,257.329 398.5,258C 395.183,258.498 391.85,258.665 388.5,258.5C 386.998,268.268 385.665,277.934 384.5,287.5C 384.141,277.776 384.641,268.109 386,258.5C 389.745,257.703 393.579,257.203 397.5,257C 398.044,256.283 398.711,255.783 399.5,255.5 Z"/></g>
<g><path style="opacity:1" fill="#422147" d="M 311.5,268.5 C 312.239,268.369 312.906,268.536 313.5,269C 310.118,270.87 309.784,273.036 312.5,275.5C 310.143,275.663 307.81,275.497 305.5,275C 304.272,273.51 304.272,272.01 305.5,270.5C 307.102,268.926 309.102,268.259 311.5,268.5 Z"/></g>
<g><path style="opacity:1" fill="#8e6b8b" d="M 305.5,270.5 C 304.272,272.01 304.272,273.51 305.5,275C 307.81,275.497 310.143,275.663 312.5,275.5C 314.948,276.473 317.615,276.806 320.5,276.5C 315.684,277.65 310.684,277.816 305.5,277C 300.425,274.354 300.425,272.188 305.5,270.5 Z"/></g>
<g><path style="opacity:1" fill="#e1cbe4" d="M 171.5,264.5 C 172.33,273.991 172.83,283.658 173,293.5C 174.727,296.618 175.561,299.951 175.5,303.5C 174.542,303.047 173.708,302.381 173,301.5C 172.012,298.576 171.346,295.576 171,292.5C 171.067,283.179 171.234,273.846 171.5,264.5 Z"/></g>
<g><path style="opacity:1" fill="#754744" d="M 384.5,287.5 C 384.39,290.962 383.224,293.962 381,296.5C 380.667,302.5 380.333,308.5 380,314.5C 379.95,316.744 379.117,318.411 377.5,319.5C 378.205,311.192 378.705,302.859 379,294.5C 381.336,292.46 383.169,290.127 384.5,287.5 Z"/></g>
<g><path style="opacity:1" fill="#806688" d="M 170.5,259.5 C 171.451,260.919 171.784,262.585 171.5,264.5C 171.234,273.846 171.067,283.179 171,292.5C 171.346,295.576 172.012,298.576 173,301.5C 173.708,302.381 174.542,303.047 175.5,303.5C 178.11,311.275 180.11,319.275 181.5,327.5C 179.9,325.297 178.567,322.964 177.5,320.5C 174.852,311.55 172.185,302.55 169.5,293.5C 169.759,282.164 170.093,270.831 170.5,259.5 Z"/></g>
<g><path style="opacity:1" fill="#887b85" d="M 340.5,299.5 C 340.833,299.5 341.167,299.5 341.5,299.5C 342.777,314.581 341.11,329.247 336.5,343.5C 334.833,344.833 333.167,346.167 331.5,347.5C 331.783,344.153 333.283,341.487 336,339.5C 336.49,338.207 336.657,336.873 336.5,335.5C 340.113,323.807 341.447,311.807 340.5,299.5 Z"/></g>
<g><path style="opacity:1" fill="#a48aa4" d="M 287.5,319.5 C 286.432,320.434 285.099,320.768 283.5,320.5C 277.464,320.36 271.464,320.693 265.5,321.5C 266.263,320.732 267.263,320.232 268.5,320C 274.825,319.5 281.158,319.334 287.5,319.5 Z"/></g>
<g><path style="opacity:1" fill="#36233c" d="M 177.5,320.5 C 178.567,322.964 179.9,325.297 181.5,327.5C 181.66,329.153 182.326,330.486 183.5,331.5C 185.086,334.257 186.086,337.257 186.5,340.5C 181.895,334.617 178.895,327.951 177.5,320.5 Z"/></g>
<g><path style="opacity:1" fill="#614d5f" d="M 283.5,320.5 C 274.048,321.515 264.714,323.181 255.5,325.5C 252.873,325.293 251.207,326.46 250.5,329C 252.089,332.094 254.422,334.26 257.5,335.5C 256.167,335.5 254.833,335.5 253.5,335.5C 251.652,333.484 249.985,331.317 248.5,329C 249.101,327.395 250.101,326.062 251.5,325C 253.723,324.434 255.723,323.6 257.5,322.5C 259.948,321.527 262.615,321.194 265.5,321.5C 271.464,320.693 277.464,320.36 283.5,320.5 Z"/></g>
<g><path style="opacity:1" fill="#4a3030" d="M 376.5,319.5 C 375.5,320.833 374.5,322.167 373.5,323.5C 370.482,323.335 367.482,323.502 364.5,324C 364,324.5 363.5,325 363,325.5C 362.501,330.489 362.334,335.489 362.5,340.5C 361.191,334.629 361.191,328.629 362.5,322.5C 367.371,321.978 372.037,320.978 376.5,319.5 Z"/></g>
<g><path style="opacity:1" fill="#6d4a49" d="M 67.5,273.5 C 69.5732,275.58 71.9066,277.246 74.5,278.5C 76.9216,280.268 79.5883,281.768 82.5,283C 88.4415,289.608 93.6082,296.775 98,304.5C 99.7292,310.297 102.729,315.297 107,319.5C 108.888,325.611 112.054,330.944 116.5,335.5C 114.833,335.5 113.167,335.5 111.5,335.5C 109.965,332.768 108.131,330.102 106,327.5C 105.181,323.541 103.681,319.874 101.5,316.5C 100.311,315.571 98.9778,315.238 97.5,315.5C 96.9767,311.127 96.1434,306.794 95,302.5C 93.9887,301.663 92.8221,301.33 91.5,301.5C 91.6567,300.127 91.49,298.793 91,297.5C 87.5836,294.59 84.7503,291.257 82.5,287.5C 82.5,286.5 82.5,285.5 82.5,284.5C 80.4357,284.313 78.4357,283.813 76.5,283C 74.0167,280.594 71.35,278.427 68.5,276.5C 67.6143,275.675 67.281,274.675 67.5,273.5 Z"/></g>
<g><path style="opacity:1" fill="#ad97a4" d="M 257.5,322.5 C 255.723,323.6 253.723,324.434 251.5,325C 250.101,326.062 249.101,327.395 248.5,329C 249.985,331.317 251.652,333.484 253.5,335.5C 248.046,335.061 245.879,332.061 247,326.5C 247.374,325.584 247.874,324.75 248.5,324C 251.478,323.304 254.478,322.804 257.5,322.5 Z"/></g>
<g><path style="opacity:1" fill="#aa92ae" d="M 181.5,327.5 C 185.523,330.362 188.69,334.028 191,338.5C 191.977,340.74 192.477,343.073 192.5,345.5C 190.439,341.525 188.273,337.525 186,333.5C 185.292,332.619 184.458,331.953 183.5,331.5C 182.326,330.486 181.66,329.153 181.5,327.5 Z"/></g>
<g><path style="opacity:1" fill="#94838a" d="M 253.5,335.5 C 254.833,335.5 256.167,335.5 257.5,335.5C 260.362,337.76 263.362,339.76 266.5,341.5C 265.127,341.657 263.793,341.49 262.5,341C 259.135,339.656 256.135,337.823 253.5,335.5 Z"/></g>
<g><path style="opacity:1" fill="#605259" d="M 257.5,335.5 C 261.945,336.22 265.612,338.22 268.5,341.5C 267.833,341.5 267.167,341.5 266.5,341.5C 263.362,339.76 260.362,337.76 257.5,335.5 Z"/></g>
<g><path style="opacity:1" fill="#160f16" d="M 287.5,319.5 C 290.579,319.26 293.579,319.593 296.5,320.5C 297.452,322.045 297.785,323.712 297.5,325.5C 298.569,330.178 298.569,334.844 297.5,339.5C 293.377,340.511 289.377,341.511 285.5,342.5C 279.773,342.74 274.106,342.407 268.5,341.5C 265.612,338.22 261.945,336.22 257.5,335.5C 254.422,334.26 252.089,332.094 250.5,329C 251.207,326.46 252.873,325.293 255.5,325.5C 264.714,323.181 274.048,321.515 283.5,320.5C 285.099,320.768 286.432,320.434 287.5,319.5 Z"/></g>
<g><path style="opacity:1" fill="#060302" d="M 255.5,325.5 C 259.605,325.766 263.605,325.266 267.5,324C 275.833,323.333 284.167,323.333 292.5,324C 293.701,324.903 294.535,326.069 295,327.5C 295.315,330.372 295.815,333.205 296.5,336C 296.355,336.772 296.022,337.439 295.5,338C 287.67,340.323 279.67,340.99 271.5,340C 268.413,337.79 265.079,336.123 261.5,335C 262.167,334.667 262.833,334.333 263.5,334C 261.714,333.804 260.381,332.971 259.5,331.5C 257.865,330.319 256.198,330.319 254.5,331.5C 254.167,331 253.833,330.5 253.5,330C 254.707,328.7 255.374,327.2 255.5,325.5 Z"/></g>
<g><path style="opacity:1" fill="#4e414d" d="M 297.5,325.5 C 299.13,327.026 299.963,329.026 300,331.5C 300.667,334.5 300.667,337.5 300,340.5C 295.31,341.941 290.477,342.608 285.5,342.5C 289.377,341.511 293.377,340.511 297.5,339.5C 298.569,334.844 298.569,330.178 297.5,325.5 Z"/></g>
<g><path style="opacity:1" fill="#988492" d="M 287.5,319.5 C 295.902,316.46 300.736,319.46 302,328.5C 302.667,332.5 302.667,336.5 302,340.5C 300.509,342.004 298.676,342.837 296.5,343C 287.174,343.911 277.84,344.244 268.5,344C 267.619,343.292 266.953,342.458 266.5,341.5C 267.167,341.5 267.833,341.5 268.5,341.5C 274.106,342.407 279.773,342.74 285.5,342.5C 290.477,342.608 295.31,341.941 300,340.5C 300.667,337.5 300.667,334.5 300,331.5C 299.963,329.026 299.13,327.026 297.5,325.5C 297.785,323.712 297.452,322.045 296.5,320.5C 293.579,319.593 290.579,319.26 287.5,319.5 Z"/></g>
<g><path style="opacity:1" fill="#0f0513" d="M 168.5,287.5 C 168.205,289.735 168.539,291.735 169.5,293.5C 172.185,302.55 174.852,311.55 177.5,320.5C 178.895,327.951 181.895,334.617 186.5,340.5C 186.812,343.273 187.978,345.607 190,347.5C 190.499,351.152 190.665,354.818 190.5,358.5C 188.683,354.937 187.517,350.937 187,346.5C 182.761,339.702 179.095,333.036 176,326.5C 175.667,322.833 175.333,319.167 175,315.5C 172.601,312.88 170.934,309.88 170,306.5C 169.444,308.595 168.944,308.762 168.5,307C 168.384,300.376 168.384,293.876 168.5,287.5 Z"/></g>
<g><path style="opacity:1" fill="#442c2c" d="M 362.5,340.5 C 363.706,350.647 364.372,360.98 364.5,371.5C 363.71,370.391 363.21,369.058 363,367.5C 362.5,358.506 362.334,349.506 362.5,340.5 Z"/></g>
<g><path style="opacity:1" fill="#372c3c" d="M 186.5,340.5 C 188.619,341.986 190.119,343.986 191,346.5C 189.143,359.476 194.643,364.81 207.5,362.5C 203.354,363.647 199.02,363.814 194.5,363C 192.959,361.629 191.625,360.129 190.5,358.5C 190.665,354.818 190.499,351.152 190,347.5C 187.978,345.607 186.812,343.273 186.5,340.5 Z"/></g>
<g><path style="opacity:1" fill="#614445" d="M 116.5,335.5 C 120.515,336.591 124.015,338.591 127,341.5C 129.334,347.463 131.668,353.463 134,359.5C 134.497,362.146 134.664,364.813 134.5,367.5C 132.78,365.342 131.947,362.675 132,359.5C 130.915,357.627 129.582,355.96 128,354.5C 128.035,349.705 126.702,345.372 124,341.5C 121.312,339.636 118.812,337.636 116.5,335.5 Z"/></g>
<g><path style="opacity:1" fill="#dacbd5" d="M 336.5,335.5 C 336.657,336.873 336.49,338.207 336,339.5C 333.283,341.487 331.783,344.153 331.5,347.5C 328.73,349.366 327.23,352.032 327,355.5C 325.649,357.019 324.149,358.352 322.5,359.5C 315.26,361.113 307.927,361.779 300.5,361.5C 300.167,361.5 299.833,361.5 299.5,361.5C 265.669,360.668 231.669,360.168 197.5,360C 196.619,359.292 195.953,358.458 195.5,357.5C 202.596,359.387 209.93,360.054 217.5,359.5C 251.182,359.835 284.848,359.335 318.5,358C 319.891,356.98 321.391,356.147 323,355.5C 323.182,352.774 323.682,350.107 324.5,347.5C 329.85,344.756 333.85,340.756 336.5,335.5 Z"/></g>
<g><path style="opacity:1" fill="#968c97" d="M 192.5,345.5 C 194.021,349.36 195.021,353.36 195.5,357.5C 195.953,358.458 196.619,359.292 197.5,360C 231.669,360.168 265.669,360.668 299.5,361.5C 279.5,361.5 259.5,361.5 239.5,361.5C 225.163,361.667 210.829,361.5 196.5,361C 195.667,360.167 194.833,359.333 194,358.5C 193.535,354.152 193.035,349.819 192.5,345.5 Z"/></g>
<g><path style="opacity:1" fill="#625667" d="M 183.5,331.5 C 184.458,331.953 185.292,332.619 186,333.5C 188.273,337.525 190.439,341.525 192.5,345.5C 193.035,349.819 193.535,354.152 194,358.5C 194.833,359.333 195.667,360.167 196.5,361C 210.829,361.5 225.163,361.667 239.5,361.5C 229.013,362.494 218.346,362.828 207.5,362.5C 194.643,364.81 189.143,359.476 191,346.5C 190.119,343.986 188.619,341.986 186.5,340.5C 186.086,337.257 185.086,334.257 183.5,331.5 Z"/></g>
<g><path style="opacity:1" fill="#847885" d="M 331.5,347.5 C 330.085,351.084 328.918,354.751 328,358.5C 326.833,359.667 325.667,360.833 324.5,362C 317.508,362.5 310.508,362.666 303.5,362.5C 302.209,362.737 301.209,362.404 300.5,361.5C 307.927,361.779 315.26,361.113 322.5,359.5C 324.149,358.352 325.649,357.019 327,355.5C 327.23,352.032 328.73,349.366 331.5,347.5 Z"/></g>
<g><path style="opacity:1" fill="#473e49" d="M 336.5,343.5 C 335.339,347.812 333.173,351.479 330,354.5C 330.188,358.232 328.688,361.066 325.5,363C 317.988,363.822 310.655,363.655 303.5,362.5C 310.508,362.666 317.508,362.5 324.5,362C 325.667,360.833 326.833,359.667 328,358.5C 328.918,354.751 330.085,351.084 331.5,347.5C 333.167,346.167 334.833,344.833 336.5,343.5 Z"/></g>
<g><path style="opacity:1" fill="#7f5250" d="M 134.5,367.5 C 141.874,377.599 146.541,388.933 148.5,401.5C 145.438,399.377 143.938,396.377 144,392.5C 142.602,391.949 141.268,391.616 140,391.5C 139.667,388.167 139.333,384.833 139,381.5C 138.869,378.629 137.703,376.295 135.5,374.5C 134.526,372.257 134.192,369.924 134.5,367.5 Z"/></g>
<g><path style="opacity:1" fill="#875552" d="M 373.5,323.5 C 370.628,324.325 367.628,325.159 364.5,326C 363.878,327.569 363.544,329.236 363.5,331C 364.545,345.164 365.545,359.33 366.5,373.5C 370.603,383.451 372.103,393.784 371,404.5C 369.929,408.041 368.263,408.708 366,406.5C 365.667,407.167 365.333,407.833 365,408.5C 364.632,407.09 363.799,406.09 362.5,405.5C 359.755,416.426 357.255,427.426 355,438.5C 354.241,440.063 353.074,441.063 351.5,441.5C 351.18,438.102 351.513,434.768 352.5,431.5C 354.111,430.68 354.778,429.346 354.5,427.5C 356.54,423.868 357.707,419.868 358,415.5C 358.333,408.833 358.667,402.167 359,395.5C 359.725,393.842 360.892,393.342 362.5,394C 363.851,396.264 365.517,398.098 367.5,399.5C 367.369,400.376 367.702,401.043 368.5,401.5C 368.833,399.833 369.167,398.167 369.5,396.5C 368.154,388.086 366.487,379.753 364.5,371.5C 364.372,360.98 363.706,350.647 362.5,340.5C 362.334,335.489 362.501,330.489 363,325.5C 363.5,325 364,324.5 364.5,324C 367.482,323.502 370.482,323.335 373.5,323.5 Z"/></g>
<g><path style="opacity:1" fill="#563d3d" d="M 367.5,399.5 C 365.517,398.098 363.851,396.264 362.5,394C 360.892,393.342 359.725,393.842 359,395.5C 358.667,402.167 358.333,408.833 358,415.5C 357.707,419.868 356.54,423.868 354.5,427.5C 356.686,415.625 358.02,403.625 358.5,391.5C 359.167,391.167 359.833,390.833 360.5,390.5C 364.349,392.346 366.682,395.346 367.5,399.5 Z"/></g>
<g><path style="opacity:1" fill="#412b2f" d="M 354.5,427.5 C 354.778,429.346 354.111,430.68 352.5,431.5C 351.513,434.768 351.18,438.102 351.5,441.5C 350.833,441.833 350.167,442.167 349.5,442.5C 349.5,437.5 349.5,432.5 349.5,427.5C 351.167,427.5 352.833,427.5 354.5,427.5 Z"/></g>
<g><path style="opacity:1" fill="#392222" d="M 232.5,467.5 C 244.469,468.416 256.469,468.749 268.5,468.5C 257.679,469.495 246.679,469.828 235.5,469.5C 234.5,468.833 233.5,468.167 232.5,467.5 Z"/></g>
<g><path style="opacity:1" fill="#885652" d="M 330.5,452.5 C 329.883,454.229 328.883,455.729 327.5,457C 324.442,458.218 321.776,460.051 319.5,462.5C 314.565,465.293 309.232,466.96 303.5,467.5C 306.115,468.762 308.782,469.928 311.5,471C 308.854,471.497 306.187,471.664 303.5,471.5C 303.649,472.552 303.483,473.552 303,474.5C 299.643,473.83 296.477,472.663 293.5,471C 273.996,470.832 254.662,470.332 235.5,469.5C 246.679,469.828 257.679,469.495 268.5,468.5C 276.174,468.666 283.841,468.5 291.5,468C 299.5,466 307.5,464 315.5,462C 320.669,458.978 325.669,455.811 330.5,452.5 Z"/></g>
</svg>
