<?xml version="1.0" encoding="UTF-8"?>
<!DOCTYPE svg PUBLIC "-//W3C//DTD SVG 1.1//EN" "http://www.w3.org/Graphics/SVG/1.1/DTD/svg11.dtd">
<svg xmlns="http://www.w3.org/2000/svg" version="1.1" width="512px" height="512px" style="shape-rendering:geometricPrecision; text-rendering:geometricPrecision; image-rendering:optimizeQuality; fill-rule:evenodd; clip-rule:evenodd" xmlns:xlink="http://www.w3.org/1999/xlink">
<g><path style="opacity:1" fill="#5f8193" d="M -0.5,-0.5 C 170.167,-0.5 340.833,-0.5 511.5,-0.5C 511.5,170.167 511.5,340.833 511.5,511.5C 449.5,511.5 387.5,511.5 325.5,511.5C 324.918,508.416 323.085,506.416 320,505.5C 315.418,506.802 310.585,507.469 305.5,507.5C 300.833,507.333 296.167,507.167 291.5,507C 290.167,506 288.833,505 287.5,504C 287.629,500.045 287.629,495.878 287.5,491.5C 288.5,491.5 289.5,491.5 290.5,491.5C 290.67,492.822 290.337,493.989 289.5,495C 290.635,495.749 291.635,495.583 292.5,494.5C 294.826,489.531 296.826,484.531 298.5,479.5C 300.167,479.5 301.833,479.5 303.5,479.5C 303.174,475.116 303.508,470.783 304.5,466.5C 306.255,465.33 307.255,463.663 307.5,461.5C 306.349,459.675 305.682,457.675 305.5,455.5C 307.308,455.509 308.975,455.009 310.5,454C 309.027,453.29 308.36,452.124 308.5,450.5C 311.336,450.855 314.169,450.188 317,448.5C 317.414,448.957 317.914,449.291 318.5,449.5C 321.578,447.87 324.911,447.037 328.5,447C 328.167,446.667 327.833,446.333 327.5,446C 332.798,444.841 338.131,444.007 343.5,443.5C 342.724,448.05 344.558,450.716 349,451.5C 349.49,452.793 349.657,454.127 349.5,455.5C 352.662,457.717 356.329,458.883 360.5,459C 361.313,460.803 362.48,462.303 364,463.5C 364.5,463.167 365,462.833 365.5,462.5C 367.248,455.704 368.081,448.704 368,441.5C 372.864,439.809 375.697,436.476 376.5,431.5C 378.833,431.5 381.167,431.5 383.5,431.5C 383.5,420.833 383.5,410.167 383.5,399.5C 384.833,399.5 386.167,399.5 387.5,399.5C 387.5,394.167 387.5,388.833 387.5,383.5C 386.167,383.5 384.833,383.5 383.5,383.5C 383.5,381.833 383.5,380.167 383.5,378.5C 381.5,378.5 379.5,378.5 377.5,378.5C 377.421,379.93 377.754,381.264 378.5,382.5C 377.675,383.386 376.675,383.719 375.5,383.5C 375.679,385.954 375.013,388.121 373.5,390C 374.022,390.95 374.689,391.784 375.5,392.5C 374.635,393.583 373.635,393.749 372.5,393C 371.414,389.741 370.08,386.574 368.5,383.5C 366.373,385.617 366.04,384.951 367.5,381.5C 366.478,380.646 365.645,379.646 365,378.5C 364.351,381.937 363.851,382.104 363.5,379C 363.755,377.674 364.422,376.674 365.5,376C 363.21,375.21 362.877,373.876 364.5,372C 363.833,368.333 363.167,364.667 362.5,361C 363.448,355.789 363.448,350.789 362.5,346C 363.709,342.963 364.543,339.796 365,336.5C 365.414,336.957 365.914,337.291 366.5,337.5C 367.281,336.271 367.781,334.938 368,333.5C 368.333,334.167 368.667,334.833 369,335.5C 369.655,333.372 370.489,331.372 371.5,329.5C 373.984,327.2 375.984,324.533 377.5,321.5C 380.351,317.812 383.018,313.979 385.5,310C 384.996,304.854 384.996,299.354 385.5,293.5C 387.136,294.749 388.303,296.416 389,298.5C 390,294.833 391,291.167 392,287.5C 393.161,291.83 395.327,295.497 398.5,298.5C 399.452,300.045 399.785,301.712 399.5,303.5C 400.5,303.5 401.5,303.5 402.5,303.5C 400.69,306.524 399.523,309.858 399,313.5C 396.421,314.369 394.588,316.035 393.5,318.5C 397.833,319.833 402.167,319.833 406.5,318.5C 407.089,314.534 408.422,310.867 410.5,307.5C 412.003,306.948 413.669,306.948 415.5,307.5C 415.5,306.167 415.5,304.833 415.5,303.5C 414.5,303.5 413.5,303.5 412.5,303.5C 412.927,300.624 413.594,297.791 414.5,295C 413.246,291.716 411.913,291.716 410.5,295C 411.747,296.494 411.747,297.994 410.5,299.5C 409.28,299.113 408.613,298.28 408.5,297C 409.047,291.784 410.047,286.451 411.5,281C 411.333,278.833 411.167,276.667 411,274.5C 409.989,273.663 408.822,273.33 407.5,273.5C 407.753,271.173 407.086,269.173 405.5,267.5C 406.167,266.5 406.833,265.5 407.5,264.5C 406.975,263.808 406.308,263.308 405.5,263C 408.167,260.667 408.167,258.333 405.5,256C 406.516,255.481 407.182,254.647 407.5,253.5C 406.257,251.309 405.424,248.976 405,246.5C 400.181,241.732 395.514,236.732 391,231.5C 389.759,233.421 388.259,233.754 386.5,232.5C 387.326,231.549 387.492,230.549 387,229.5C 385.324,228.939 383.991,227.939 383,226.5C 381.56,227.93 381.226,229.597 382,231.5C 384.856,234.023 387.356,236.856 389.5,240C 389.241,241.261 388.574,242.261 387.5,243C 388.449,246.85 388.116,250.684 386.5,254.5C 385.583,255.127 384.583,255.461 383.5,255.5C 383.5,252.5 383.5,249.5 383.5,246.5C 384.109,243.122 382.776,241.122 379.5,240.5C 374.1,239.813 368.6,239.146 363,238.5C 362.179,226.676 361.345,215.009 360.5,203.5C 359.927,200.097 358.594,197.097 356.5,194.5C 355.82,192.61 355.653,190.61 356,188.5C 353.876,187.773 351.709,187.106 349.5,186.5C 348.041,184.417 346.708,182.25 345.5,180C 343.975,178.991 342.308,178.491 340.5,178.5C 334.35,170.85 327.683,163.683 320.5,157C 317.264,155.214 313.93,153.714 310.5,152.5C 308.438,151.224 306.104,150.39 303.5,150C 292.817,149.354 282.15,149.521 271.5,150.5C 245.124,150.045 218.79,150.545 192.5,152C 188.167,153.667 183.833,155.333 179.5,157C 172.293,162.706 165.96,169.206 160.5,176.5C 158.825,179.097 156.658,181.43 154,183.5C 153.503,186.146 153.336,188.813 153.5,191.5C 152.268,201.482 151.102,211.482 150,221.5C 147.295,226.824 145.962,232.49 146,238.5C 143.263,239.56 140.43,240.394 137.5,241C 134.894,241.792 132.894,243.292 131.5,245.5C 130.883,245.611 130.383,245.944 130,246.5C 129.238,267.184 129.405,287.851 130.5,308.5C 130.567,310.401 130.233,312.234 129.5,314C 130.009,315.169 130.842,316.002 132,316.5C 132.718,315.549 133.551,315.383 134.5,316C 133.269,317.183 133.269,318.349 134.5,319.5C 135.192,318.975 135.692,318.308 136,317.5C 137.788,319.333 137.954,321.333 136.5,323.5C 138.854,327.908 141.354,332.241 144,336.5C 145.755,340.295 146.255,344.128 145.5,348C 146.428,348.388 147.095,349.055 147.5,350C 145.551,355.632 144.551,361.466 144.5,367.5C 145.822,367.33 146.989,367.663 148,368.5C 148.106,375.607 148.939,382.607 150.5,389.5C 150.43,390.772 150.097,391.938 149.5,393C 152.124,395.864 152.458,398.697 150.5,401.5C 151.156,403.453 151.489,405.453 151.5,407.5C 154.276,407.089 154.943,407.922 153.5,410C 153.78,411.395 154.447,412.562 155.5,413.5C 156.48,412.019 157.647,410.685 159,409.5C 160.733,411.617 162.9,413.117 165.5,414C 164.426,414.739 163.759,415.739 163.5,417C 163.773,427.153 164.107,437.319 164.5,447.5C 165.495,442.208 165.828,436.875 165.5,431.5C 166.5,431.5 167.5,431.5 168.5,431.5C 169.426,458.152 169.759,484.818 169.5,511.5C 112.833,511.5 56.1667,511.5 -0.5,511.5C -0.5,340.833 -0.5,170.167 -0.5,-0.5 Z"/></g>
<g><path style="opacity:1" fill="#608295" d="M 319.5,95.5 C 324.881,100.566 330.047,105.899 335,111.5C 335.49,110.207 335.657,108.873 335.5,107.5C 340.833,107.5 346.167,107.5 351.5,107.5C 351.5,108.833 351.5,110.167 351.5,111.5C 352.833,111.5 354.167,111.5 355.5,111.5C 355.5,116.833 355.5,122.167 355.5,127.5C 356.978,127.238 358.311,127.571 359.5,128.5C 360.528,130.361 362.028,131.695 364,132.5C 364.17,134.845 363.837,137.179 363,139.5C 358.318,141.803 358.485,143.137 363.5,143.5C 363.351,142.448 363.517,141.448 364,140.5C 365.269,141.905 365.769,143.571 365.5,145.5C 363.654,145.222 362.32,145.889 361.5,147.5C 362.32,149.111 363.654,149.778 365.5,149.5C 365.857,153.664 364.19,156.831 360.5,159C 361.672,160.868 361.505,162.702 360,164.5C 359.502,161.183 359.335,157.85 359.5,154.5C 355.848,152.599 351.848,151.599 347.5,151.5C 347.567,148.234 345.901,146.734 342.5,147C 341.663,145.989 341.33,144.822 341.5,143.5C 334.182,142.81 329.515,138.81 327.5,131.5C 322.421,129.129 317.088,127.629 311.5,127C 310.465,123.389 308.798,122.889 306.5,125.5C 305.833,123.5 305.167,121.5 304.5,119.5C 303.784,120.311 302.95,120.978 302,121.5C 298.661,120.418 295.661,118.752 293,116.5C 291.742,119.055 289.909,119.722 287.5,118.5C 288.87,115.428 289.87,112.261 290.5,109C 292.112,108.28 293.612,108.446 295,109.5C 297.481,107.686 300.315,107.02 303.5,107.5C 303.5,106.167 303.5,104.833 303.5,103.5C 308.833,103.5 314.167,103.5 319.5,103.5C 319.5,100.833 319.5,98.1667 319.5,95.5 Z"/></g>
<g><path style="opacity:1" fill="#556874" d="M 310.5,152.5 C 297.341,151.615 284.341,151.282 271.5,151.5C 271.5,151.167 271.5,150.833 271.5,150.5C 282.15,149.521 292.817,149.354 303.5,150C 306.104,150.39 308.438,151.224 310.5,152.5 Z"/></g>
<g><path style="opacity:1" fill="#3c4f5b" d="M 271.5,150.5 C 271.5,150.833 271.5,151.167 271.5,151.5C 253.5,151.5 235.5,151.5 217.5,151.5C 209.786,151.295 202.119,151.795 194.5,153C 191.367,153.86 188.7,155.36 186.5,157.5C 185.833,157.5 185.167,157.5 184.5,157.5C 182.821,157.892 181.154,158.392 179.5,159C 174.952,163.848 170.119,168.348 165,172.5C 164.536,173.094 164.369,173.761 164.5,174.5C 163.167,175.5 161.833,176.5 160.5,177.5C 160.5,177.167 160.5,176.833 160.5,176.5C 165.96,169.206 172.293,162.706 179.5,157C 183.833,155.333 188.167,153.667 192.5,152C 218.79,150.545 245.124,150.045 271.5,150.5 Z"/></g>
<g><path style="opacity:1" fill="#020102" d="M 217.5,151.5 C 235.5,151.5 253.5,151.5 271.5,151.5C 284.341,151.282 297.341,151.615 310.5,152.5C 313.93,153.714 317.264,155.214 320.5,157C 327.683,163.683 334.35,170.85 340.5,178.5C 344.833,184.833 350.167,190.167 356.5,194.5C 358.594,197.097 359.927,200.097 360.5,203.5C 360.699,215.523 360.366,227.523 359.5,239.5C 366.123,240.38 372.789,240.713 379.5,240.5C 382.776,241.122 384.109,243.122 383.5,246.5C 382.741,262.678 382.075,279.011 381.5,295.5C 380.004,301.605 379.337,307.938 379.5,314.5C 378.061,316.588 377.394,318.921 377.5,321.5C 374.825,324.209 372.158,326.876 369.5,329.5C 365.269,330.22 361.936,332.22 359.5,335.5C 358.102,347.815 357.102,360.315 356.5,373C 356.624,375.532 356.957,378.032 357.5,380.5C 355.565,384.571 354.398,388.904 354,393.5C 353.577,392.044 352.744,391.544 351.5,392C 352.33,393.747 353.33,395.413 354.5,397C 352.175,398.452 352.175,400.119 354.5,402C 349.934,409.032 345.934,415.866 342.5,422.5C 340,425.832 337,428.666 333.5,431C 323.897,437.631 313.897,443.464 303.5,448.5C 299.838,448.723 296.505,449.723 293.5,451.5C 290.833,452.167 289.167,453.833 288.5,456.5C 287.076,458.515 286.41,460.848 286.5,463.5C 283.854,468.782 282.187,474.448 281.5,480.5C 278.44,490.489 276.773,500.822 276.5,511.5C 273.5,511.5 270.5,511.5 267.5,511.5C 268.237,509.392 268.904,507.225 269.5,505C 268.217,502.152 268.217,499.318 269.5,496.5C 268.689,495.784 268.022,494.95 267.5,494C 267.892,492.989 268.559,492.489 269.5,492.5C 267.162,490.472 264.829,488.472 262.5,486.5C 261.26,480.761 259.76,475.095 258,469.5C 251.813,467.578 245.647,465.578 239.5,463.5C 238.448,463.649 237.448,463.483 236.5,463C 223.955,453.615 211.288,444.448 198.5,435.5C 197.306,434.728 196.306,433.728 195.5,432.5C 195.5,431.833 195.167,431.5 194.5,431.5C 193.833,430.5 193.167,429.5 192.5,428.5C 189.738,426.181 186.571,424.515 183,423.5C 180.786,423.911 179.453,425.245 179,427.5C 178.068,455.528 177.901,483.528 178.5,511.5C 175.833,511.5 173.167,511.5 170.5,511.5C 171.111,478.16 171.611,444.827 172,411.5C 168.257,407.268 164.757,402.935 161.5,398.5C 157.79,390.045 155.124,381.379 153.5,372.5C 153.46,369.012 152.793,365.679 151.5,362.5C 151.529,356.79 151.029,351.123 150,345.5C 149.392,343.934 148.558,342.6 147.5,341.5C 146.694,338.451 145.694,335.451 144.5,332.5C 144.319,328.278 142.986,324.611 140.5,321.5C 138.167,318.167 135.833,314.833 133.5,311.5C 130.406,289.688 129.739,267.688 131.5,245.5C 132.894,243.292 134.894,241.792 137.5,241C 140.43,240.394 143.263,239.56 146,238.5C 145.962,232.49 147.295,226.824 150,221.5C 151.102,211.482 152.268,201.482 153.5,191.5C 155.825,186.877 158.158,182.211 160.5,177.5C 161.833,176.5 163.167,175.5 164.5,174.5C 171.214,168.777 177.881,163.111 184.5,157.5C 185.167,157.5 185.833,157.5 186.5,157.5C 196.852,154.989 207.186,152.989 217.5,151.5 Z"/></g>
<g><path style="opacity:1" fill="#11181f" d="M 217.5,151.5 C 207.186,152.989 196.852,154.989 186.5,157.5C 188.7,155.36 191.367,153.86 194.5,153C 202.119,151.795 209.786,151.295 217.5,151.5 Z"/></g>
<g><path style="opacity:1" fill="#1e1511" d="M 324.5,171.5 C 321.665,170.931 319.999,169.264 319.5,166.5C 316.984,166.245 314.65,165.411 312.5,164C 304.173,163.5 295.84,163.334 287.5,163.5C 285.257,162.188 282.59,161.522 279.5,161.5C 275.799,161.627 272.132,161.96 268.5,162.5C 269.167,161.833 269.833,161.167 270.5,160.5C 280.189,160.726 289.856,160.392 299.5,159.5C 310.189,159.014 318.523,163.014 324.5,171.5 Z"/></g>
<g><path style="opacity:1" fill="#3b2419" d="M 287.5,163.5 C 300.648,167.201 313.981,170.534 327.5,173.5C 328.5,173.833 329.167,174.5 329.5,175.5C 330.379,177.228 331.046,179.061 331.5,181C 331.561,182.711 330.894,184.044 329.5,185C 323.155,187.57 316.655,188.07 310,186.5C 306.961,187.578 303.961,188.578 301,189.5C 299.833,189.333 298.667,189.167 297.5,189C 298.888,188.111 298.722,187.611 297,187.5C 294.065,189.192 290.898,189.858 287.5,189.5C 287.5,188.5 287.5,187.5 287.5,186.5C 283.154,186.666 278.821,186.499 274.5,186C 272.77,184.148 271.604,184.314 271,186.5C 268.571,185.971 266.738,184.637 265.5,182.5C 262.215,181.676 258.882,181.176 255.5,181C 258.167,180.667 260.833,180.333 263.5,180C 255.521,179.162 247.521,178.662 239.5,178.5C 239.5,179.5 239.5,180.5 239.5,181.5C 236.428,181.813 233.595,181.146 231,179.5C 228.88,180.459 226.713,180.626 224.5,180C 223.167,178.667 223.167,177.333 224.5,176C 232.87,175.739 241.203,175.072 249.5,174C 254.715,172.554 259.381,170.387 263.5,167.5C 265.262,165.3 267.596,164.133 270.5,164C 276.157,163.501 281.824,163.334 287.5,163.5 Z"/></g>
<g><path style="opacity:1" fill="#19110d" d="M 268.5,162.5 C 264.239,164.085 259.905,165.418 255.5,166.5C 249.618,166.232 243.785,166.566 238,167.5C 234.563,166.513 231.063,165.846 227.5,165.5C 220.808,166.514 214.141,167.514 207.5,168.5C 218.007,164.031 229.007,162.698 240.5,164.5C 249.843,163.877 259.177,163.21 268.5,162.5 Z"/></g>
<g><path style="opacity:1" fill="#24150f" d="M 255.5,166.5 C 254.391,167.29 253.058,167.79 251.5,168C 235.919,167.66 220.586,169.327 205.5,173C 199.661,176.056 193.661,178.723 187.5,181C 183.498,184.451 181.498,188.617 181.5,193.5C 182.183,193.137 182.85,192.804 183.5,192.5C 189.161,192.093 194.828,191.76 200.5,191.5C 193.094,193.437 185.427,194.437 177.5,194.5C 175.086,193.223 174.919,191.557 177,189.5C 180.692,185.396 184.525,181.396 188.5,177.5C 194.61,173.914 200.943,170.914 207.5,168.5C 214.141,167.514 220.808,166.514 227.5,165.5C 231.063,165.846 234.563,166.513 238,167.5C 243.785,166.566 249.618,166.232 255.5,166.5 Z"/></g>
<g><path style="opacity:1" fill="#2d1b14" d="M 287.5,163.5 C 295.84,163.334 304.173,163.5 312.5,164C 314.65,165.411 316.984,166.245 319.5,166.5C 319.999,169.264 321.665,170.931 324.5,171.5C 325.5,172.167 326.5,172.833 327.5,173.5C 313.981,170.534 300.648,167.201 287.5,163.5 Z"/></g>
<g><path style="opacity:1" fill="#142029" d="M 184.5,157.5 C 177.881,163.111 171.214,168.777 164.5,174.5C 164.369,173.761 164.536,173.094 165,172.5C 170.119,168.348 174.952,163.848 179.5,159C 181.154,158.392 182.821,157.892 184.5,157.5 Z"/></g>
<g><path style="opacity:1" fill="#2e1b13" d="M 287.5,163.5 C 281.824,163.334 276.157,163.501 270.5,164C 267.596,164.133 265.262,165.3 263.5,167.5C 257.774,168.386 252.274,170.053 247,172.5C 241.165,173.838 235.332,174.172 229.5,173.5C 219.034,174.6 208.701,176.433 198.5,179C 194.584,180.497 190.918,182.497 187.5,185C 185.045,186.942 183.712,189.442 183.5,192.5C 182.85,192.804 182.183,193.137 181.5,193.5C 181.498,188.617 183.498,184.451 187.5,181C 193.661,178.723 199.661,176.056 205.5,173C 220.586,169.327 235.919,167.66 251.5,168C 253.058,167.79 254.391,167.29 255.5,166.5C 259.905,165.418 264.239,164.085 268.5,162.5C 272.132,161.96 275.799,161.627 279.5,161.5C 282.59,161.522 285.257,162.188 287.5,163.5 Z"/></g>
<g><path style="opacity:1" fill="#362116" d="M 263.5,167.5 C 259.381,170.387 254.715,172.554 249.5,174C 241.203,175.072 232.87,175.739 224.5,176C 223.167,177.333 223.167,178.667 224.5,180C 226.713,180.626 228.88,180.459 231,179.5C 233.595,181.146 236.428,181.813 239.5,181.5C 239.5,180.5 239.5,179.5 239.5,178.5C 247.521,178.662 255.521,179.162 263.5,180C 260.833,180.333 258.167,180.667 255.5,181C 258.882,181.176 262.215,181.676 265.5,182.5C 266.738,184.637 268.571,185.971 271,186.5C 271.604,184.314 272.77,184.148 274.5,186C 278.821,186.499 283.154,186.666 287.5,186.5C 287.5,187.5 287.5,188.5 287.5,189.5C 290.898,189.858 294.065,189.192 297,187.5C 298.722,187.611 298.888,188.111 297.5,189C 298.667,189.167 299.833,189.333 301,189.5C 303.961,188.578 306.961,187.578 310,186.5C 316.655,188.07 323.155,187.57 329.5,185C 330.894,184.044 331.561,182.711 331.5,181C 331.046,179.061 330.379,177.228 329.5,175.5C 335.59,179.054 335.923,182.887 330.5,187C 316.921,190.058 303.255,192.225 289.5,193.5C 287.833,193.5 286.167,193.5 284.5,193.5C 281.619,194.274 278.952,195.607 276.5,197.5C 280.565,198.245 280.232,199.579 275.5,201.5C 274.914,201.291 274.414,200.957 274,200.5C 273.013,204.767 272.179,205.1 271.5,201.5C 269.571,201.769 267.905,201.269 266.5,200C 267.167,199.667 267.833,199.333 268.5,199C 263.566,197.84 258.566,197.34 253.5,197.5C 253.859,195.234 253.192,193.401 251.5,192C 251.833,191.667 252.167,191.333 252.5,191C 251.5,190.5 250.5,190 249.5,189.5C 235.503,189.201 221.503,189.534 207.5,190.5C 207.5,190.833 207.5,191.167 207.5,191.5C 205.167,191.5 202.833,191.5 200.5,191.5C 194.828,191.76 189.161,192.093 183.5,192.5C 183.712,189.442 185.045,186.942 187.5,185C 190.918,182.497 194.584,180.497 198.5,179C 208.701,176.433 219.034,174.6 229.5,173.5C 235.332,174.172 241.165,173.838 247,172.5C 252.274,170.053 257.774,168.386 263.5,167.5 Z"/></g>
<g><path style="opacity:1" fill="#080808" d="M 270.5,160.5 C 269.833,161.167 269.167,161.833 268.5,162.5C 259.177,163.21 249.843,163.877 240.5,164.5C 229.007,162.698 218.007,164.031 207.5,168.5C 199.547,169.156 192.214,171.656 185.5,176C 182.938,179.065 179.938,181.565 176.5,183.5C 174.732,185.939 173.399,188.606 172.5,191.5C 173.073,194.085 174.739,195.085 177.5,194.5C 185.427,194.437 193.094,193.437 200.5,191.5C 202.833,191.5 205.167,191.5 207.5,191.5C 195.926,194.044 184.093,196.378 172,198.5C 169.797,198.761 167.63,198.261 165.5,197C 164.929,195.795 164.262,194.628 163.5,193.5C 162.5,195.167 161.167,196.5 159.5,197.5C 158.5,197.167 157.833,196.5 157.5,195.5C 158.467,193.37 159.634,191.37 161,189.5C 161.667,188.167 162.333,188.167 163,189.5C 164.323,187.161 165.823,184.995 167.5,183C 166.137,180.871 166.471,180.371 168.5,181.5C 172.151,180.838 174.484,178.838 175.5,175.5C 181.245,173.758 186.245,170.758 190.5,166.5C 191.086,166.709 191.586,167.043 192,167.5C 196.133,165.515 200.3,163.682 204.5,162C 218.006,161.431 231.506,161.598 245,162.5C 253.542,162.286 262.042,161.619 270.5,160.5 Z"/></g>
<g><path style="opacity:1" fill="#556f82" d="M 340.5,178.5 C 342.308,178.491 343.975,178.991 345.5,180C 346.708,182.25 348.041,184.417 349.5,186.5C 351.709,187.106 353.876,187.773 356,188.5C 355.653,190.61 355.82,192.61 356.5,194.5C 350.167,190.167 344.833,184.833 340.5,178.5 Z"/></g>
<g><path style="opacity:1" fill="#1a1009" d="M 207.5,168.5 C 200.943,170.914 194.61,173.914 188.5,177.5C 184.525,181.396 180.692,185.396 177,189.5C 174.919,191.557 175.086,193.223 177.5,194.5C 174.739,195.085 173.073,194.085 172.5,191.5C 173.399,188.606 174.732,185.939 176.5,183.5C 179.938,181.565 182.938,179.065 185.5,176C 192.214,171.656 199.547,169.156 207.5,168.5 Z"/></g>
<g><path style="opacity:1" fill="#536b78" d="M 160.5,176.5 C 160.5,176.833 160.5,177.167 160.5,177.5C 158.158,182.211 155.825,186.877 153.5,191.5C 153.336,188.813 153.503,186.146 154,183.5C 156.658,181.43 158.825,179.097 160.5,176.5 Z"/></g>
<g><path style="opacity:1" fill="#120905" d="M 226.5,191.5 C 232.345,191.151 238.012,191.984 243.5,194C 247.755,199.808 247.422,205.141 242.5,210C 237.511,210.499 232.511,210.666 227.5,210.5C 232.422,209.72 237.422,208.72 242.5,207.5C 242.816,204.022 242.316,200.688 241,197.5C 236.331,194.966 231.498,192.966 226.5,191.5 Z"/></g>
<g><path style="opacity:1" fill="#301d11" d="M 207.5,190.5 C 221.503,189.534 235.503,189.201 249.5,189.5C 250.5,190 251.5,190.5 252.5,191C 252.167,191.333 251.833,191.667 251.5,192C 253.192,193.401 253.859,195.234 253.5,197.5C 258.566,197.34 263.566,197.84 268.5,199C 267.833,199.333 267.167,199.667 266.5,200C 267.905,201.269 269.571,201.769 271.5,201.5C 272.179,205.1 273.013,204.767 274,200.5C 274.414,200.957 274.914,201.291 275.5,201.5C 280.232,199.579 280.565,198.245 276.5,197.5C 278.952,195.607 281.619,194.274 284.5,193.5C 283.185,194.667 282.519,196.167 282.5,198C 283.252,200.154 283.419,202.32 283,204.5C 282.333,203.833 281.667,203.167 281,202.5C 278.911,204.457 278.077,206.624 278.5,209C 277.5,209.833 276.5,210.667 275.5,211.5C 279.048,214.588 282.048,218.088 284.5,222C 282.667,223.167 281.167,224.667 280,226.5C 279.093,232.322 278.26,237.822 277.5,243C 275.336,243.914 273.336,245.081 271.5,246.5C 266.938,247.144 262.438,247.478 258,247.5C 256.342,245.677 254.509,244.01 252.5,242.5C 251.399,238.462 249.399,234.962 246.5,232C 244.19,231.503 241.857,231.337 239.5,231.5C 238.711,230.085 238.044,228.585 237.5,227C 238.867,224.346 239.867,221.513 240.5,218.5C 243.091,221.13 246.091,222.63 249.5,223C 248.039,221.649 246.706,220.149 245.5,218.5C 248.044,217.063 248.044,215.563 245.5,214C 247.125,213.147 247.458,212.147 246.5,211C 247.833,210 249.167,209 250.5,208C 248.581,206.196 248.248,204.196 249.5,202C 248.914,194.695 244.914,191.028 237.5,191C 227.506,190.5 217.506,190.334 207.5,190.5 Z"/></g>
<g><path style="opacity:1" fill="#2c1a12" d="M 207.5,191.5 C 207.5,191.167 207.5,190.833 207.5,190.5C 217.506,190.334 227.506,190.5 237.5,191C 244.914,191.028 248.914,194.695 249.5,202C 248.248,204.196 248.581,206.196 250.5,208C 249.167,209 247.833,210 246.5,211C 247.458,212.147 247.125,213.147 245.5,214C 248.044,215.563 248.044,217.063 245.5,218.5C 246.706,220.149 248.039,221.649 249.5,223C 246.091,222.63 243.091,221.13 240.5,218.5C 239.867,221.513 238.867,224.346 237.5,227C 238.044,228.585 238.711,230.085 239.5,231.5C 238.504,231.586 237.671,231.252 237,230.5C 236.749,228.567 236.249,226.734 235.5,225C 236.181,221.85 235.015,219.35 232,217.5C 230.372,218.097 228.705,217.763 227,216.5C 225.396,217.649 223.73,217.649 222,216.5C 220.726,217.535 219.56,218.702 218.5,220C 219.5,220.333 220.5,220.667 221.5,221C 219.866,221.494 218.199,221.66 216.5,221.5C 215.402,220.603 215.402,219.77 216.5,219C 213.5,218.667 210.5,218.333 207.5,218C 212.624,216.089 217.957,214.756 223.5,214C 212.836,213.833 202.169,213.999 191.5,214.5C 203.202,212.689 215.202,211.356 227.5,210.5C 232.511,210.666 237.511,210.499 242.5,210C 247.422,205.141 247.755,199.808 243.5,194C 238.012,191.984 232.345,191.151 226.5,191.5C 220.167,191.5 213.833,191.5 207.5,191.5 Z"/></g>
<g><path style="opacity:1" fill="#271710" d="M 284.5,193.5 C 286.167,193.5 287.833,193.5 289.5,193.5C 288.122,194.234 286.622,194.901 285,195.5C 284.558,198.305 285.058,200.972 286.5,203.5C 284.966,206.202 283.299,208.702 281.5,211C 281.907,213.91 283.574,215.743 286.5,216.5C 287.474,218.743 287.808,221.076 287.5,223.5C 284.974,223.687 283.307,225.02 282.5,227.5C 280.947,232.01 280.114,236.676 280,241.5C 279.535,242.931 278.701,244.097 277.5,245C 275.693,246.602 273.693,247.936 271.5,249C 267.179,249.499 262.846,249.666 258.5,249.5C 257.209,249.737 256.209,249.404 255.5,248.5C 251.706,244.93 248.373,240.93 245.5,236.5C 237.812,233.974 232.145,229.141 228.5,222C 223.486,222.056 218.486,222.556 213.5,223.5C 214.5,222.833 215.5,222.167 216.5,221.5C 218.199,221.66 219.866,221.494 221.5,221C 220.5,220.667 219.5,220.333 218.5,220C 219.56,218.702 220.726,217.535 222,216.5C 223.73,217.649 225.396,217.649 227,216.5C 228.705,217.763 230.372,218.097 232,217.5C 235.015,219.35 236.181,221.85 235.5,225C 236.249,226.734 236.749,228.567 237,230.5C 237.671,231.252 238.504,231.586 239.5,231.5C 241.857,231.337 244.19,231.503 246.5,232C 249.399,234.962 251.399,238.462 252.5,242.5C 254.509,244.01 256.342,245.677 258,247.5C 262.438,247.478 266.938,247.144 271.5,246.5C 273.336,245.081 275.336,243.914 277.5,243C 278.26,237.822 279.093,232.322 280,226.5C 281.167,224.667 282.667,223.167 284.5,222C 282.048,218.088 279.048,214.588 275.5,211.5C 276.5,210.667 277.5,209.833 278.5,209C 278.077,206.624 278.911,204.457 281,202.5C 281.667,203.167 282.333,203.833 283,204.5C 283.419,202.32 283.252,200.154 282.5,198C 282.519,196.167 283.185,194.667 284.5,193.5 Z"/></g>
<g><path style="opacity:1" fill="#120d09" d="M 313.5,235.5 C 322.839,235.666 332.173,235.5 341.5,235C 342.203,228.781 341.537,222.614 339.5,216.5C 330.859,215.502 322.192,215.169 313.5,215.5C 321.971,214.018 330.638,213.518 339.5,214C 341.041,215.579 342.208,217.413 343,219.5C 343.181,224.146 344.014,228.646 345.5,233C 345.415,234.107 345.081,235.107 344.5,236C 333.992,236.825 323.658,236.659 313.5,235.5 Z"/></g>
<g><path style="opacity:1" fill="#321d14" d="M 216.5,221.5 C 215.5,222.167 214.5,222.833 213.5,223.5C 200.79,224.246 188.124,224.246 175.5,223.5C 172.003,223.005 171.003,221.172 172.5,218C 178.6,215.675 184.933,214.509 191.5,214.5C 202.169,213.999 212.836,213.833 223.5,214C 217.957,214.756 212.624,216.089 207.5,218C 210.5,218.333 213.5,218.667 216.5,219C 215.402,219.77 215.402,220.603 216.5,221.5 Z"/></g>
<g><path style="opacity:1" fill="#5c7f92" d="M 385.5,293.5 C 385.338,291.473 385.505,289.473 386,287.5C 386.308,288.308 386.808,288.975 387.5,289.5C 388.281,288.271 388.781,286.938 389,285.5C 389.33,279.68 389.497,274.013 389.5,268.5C 389.281,267.062 388.781,265.729 388,264.5C 386.413,265.727 385.079,265.394 384,263.5C 383.503,260.854 383.336,258.187 383.5,255.5C 384.583,255.461 385.583,255.127 386.5,254.5C 388.116,250.684 388.449,246.85 387.5,243C 388.574,242.261 389.241,241.261 389.5,240C 387.356,236.856 384.856,234.023 382,231.5C 381.226,229.597 381.56,227.93 383,226.5C 383.991,227.939 385.324,228.939 387,229.5C 387.492,230.549 387.326,231.549 386.5,232.5C 388.259,233.754 389.759,233.421 391,231.5C 395.514,236.732 400.181,241.732 405,246.5C 405.424,248.976 406.257,251.309 407.5,253.5C 407.182,254.647 406.516,255.481 405.5,256C 408.167,258.333 408.167,260.667 405.5,263C 406.308,263.308 406.975,263.808 407.5,264.5C 406.833,265.5 406.167,266.5 405.5,267.5C 407.086,269.173 407.753,271.173 407.5,273.5C 408.822,273.33 409.989,273.663 411,274.5C 411.167,276.667 411.333,278.833 411.5,281C 410.047,286.451 409.047,291.784 408.5,297C 408.613,298.28 409.28,299.113 410.5,299.5C 411.747,297.994 411.747,296.494 410.5,295C 411.913,291.716 413.246,291.716 414.5,295C 413.594,297.791 412.927,300.624 412.5,303.5C 413.5,303.5 414.5,303.5 415.5,303.5C 415.5,304.833 415.5,306.167 415.5,307.5C 413.669,306.948 412.003,306.948 410.5,307.5C 408.422,310.867 407.089,314.534 406.5,318.5C 402.167,319.833 397.833,319.833 393.5,318.5C 394.588,316.035 396.421,314.369 399,313.5C 399.523,309.858 400.69,306.524 402.5,303.5C 401.5,303.5 400.5,303.5 399.5,303.5C 399.785,301.712 399.452,300.045 398.5,298.5C 395.327,295.497 393.161,291.83 392,287.5C 391,291.167 390,294.833 389,298.5C 388.303,296.416 387.136,294.749 385.5,293.5 Z"/></g>
<g><path style="opacity:1" fill="#120703" d="M 287.5,223.5 C 285.586,229.725 284.086,236.058 283,242.5C 280.876,246.313 277.709,248.813 273.5,250C 268.316,250.816 263.316,250.65 258.5,249.5C 262.846,249.666 267.179,249.499 271.5,249C 273.693,247.936 275.693,246.602 277.5,245C 278.701,244.097 279.535,242.931 280,241.5C 280.114,236.676 280.947,232.01 282.5,227.5C 283.307,225.02 284.974,223.687 287.5,223.5 Z"/></g>
<g><path style="opacity:1" fill="#241a15" d="M 313.5,215.5 C 322.192,215.169 330.859,215.502 339.5,216.5C 341.537,222.614 342.203,228.781 341.5,235C 332.173,235.5 322.839,235.666 313.5,235.5C 308.25,235.667 307.25,233.667 310.5,229.5C 308.828,226.163 307.161,222.83 305.5,219.5C 305.833,218.833 306.167,218.167 306.5,217.5C 308.801,216.675 311.135,216.008 313.5,215.5 Z"/></g>
<g><path style="opacity:1" fill="#331e17" d="M 313.5,216.5 C 320.841,216.334 328.174,216.5 335.5,217C 338.907,219.245 340.24,222.412 339.5,226.5C 339.333,228.5 339.167,230.5 339,232.5C 338.5,233 338,233.5 337.5,234C 329.507,234.5 321.507,234.666 313.5,234.5C 313.662,232.473 313.495,230.473 313,228.5C 309.239,225.779 308.072,222.279 309.5,218C 311.058,217.79 312.391,217.29 313.5,216.5 Z"/></g>
<g><path style="opacity:1" fill="#35434e" d="M 360.5,203.5 C 361.345,215.009 362.179,226.676 363,238.5C 368.6,239.146 374.1,239.813 379.5,240.5C 372.789,240.713 366.123,240.38 359.5,239.5C 360.366,227.523 360.699,215.523 360.5,203.5 Z"/></g>
<g><path style="opacity:1" fill="#140a07" d="M 255.5,248.5 C 254.022,248.762 252.689,248.429 251.5,247.5C 249.35,244.849 247.017,242.349 244.5,240C 238.61,237.137 233.11,233.637 228,229.5C 227.51,228.207 227.343,226.873 227.5,225.5C 220.808,225.335 214.141,225.668 207.5,226.5C 196.463,226.266 185.797,225.266 175.5,223.5C 188.124,224.246 200.79,224.246 213.5,223.5C 218.486,222.556 223.486,222.056 228.5,222C 232.145,229.141 237.812,233.974 245.5,236.5C 248.373,240.93 251.706,244.93 255.5,248.5 Z"/></g>
<g><path style="opacity:1" fill="#0d000b" d="M 234.5,315.5 C 234.5,311.5 234.5,307.5 234.5,303.5C 234.5,295.5 234.5,287.5 234.5,279.5C 235.886,273.263 235.719,266.929 234,260.5C 232.806,259.57 231.473,258.903 230,258.5C 227.295,259.939 224.462,260.939 221.5,261.5C 224.459,260.007 227.126,258.007 229.5,255.5C 235.33,257.703 237.997,262.036 237.5,268.5C 237.063,284.259 236.063,299.926 234.5,315.5 Z"/></g>
<g><path style="opacity:1" fill="#290a1e" d="M 234.5,279.5 C 236.127,269.382 231.96,263.715 222,262.5C 218.326,263.555 214.826,264.889 211.5,266.5C 214.168,263.709 217.502,262.042 221.5,261.5C 224.462,260.939 227.295,259.939 230,258.5C 231.473,258.903 232.806,259.57 234,260.5C 235.719,266.929 235.886,273.263 234.5,279.5 Z"/></g>
<g><path style="opacity:1" fill="#58778a" d="M 383.5,246.5 C 383.5,249.5 383.5,252.5 383.5,255.5C 383.336,258.187 383.503,260.854 384,263.5C 385.079,265.394 386.413,265.727 388,264.5C 388.781,265.729 389.281,267.062 389.5,268.5C 389.497,274.013 389.33,279.68 389,285.5C 388.781,286.938 388.281,288.271 387.5,289.5C 386.808,288.975 386.308,288.308 386,287.5C 385.505,289.473 385.338,291.473 385.5,293.5C 384.996,299.354 384.996,304.854 385.5,310C 383.018,313.979 380.351,317.812 377.5,321.5C 377.394,318.921 378.061,316.588 379.5,314.5C 380.222,314.082 380.722,313.416 381,312.5C 381.499,306.843 381.666,301.176 381.5,295.5C 382.075,279.011 382.741,262.678 383.5,246.5 Z"/></g>
<g><path style="opacity:1" fill="#3a0827" d="M 234.5,279.5 C 234.5,287.5 234.5,295.5 234.5,303.5C 234.167,303.5 233.833,303.5 233.5,303.5C 233.666,295.826 233.5,288.159 233,280.5C 230.749,277.983 229.916,274.983 230.5,271.5C 227.365,270.887 224.365,269.887 221.5,268.5C 216.664,268.894 211.998,269.894 207.5,271.5C 197.5,270.833 187.5,270.167 177.5,269.5C 189.013,270.13 200.346,269.13 211.5,266.5C 214.826,264.889 218.326,263.555 222,262.5C 231.96,263.715 236.127,269.382 234.5,279.5 Z"/></g>
<g><path style="opacity:1" fill="#22120e" d="M 271.5,277.5 C 270.482,274.665 268.982,271.998 267,269.5C 264.646,267.152 261.979,266.486 259,267.5C 258.723,271.824 257.556,275.824 255.5,279.5C 255.5,279.833 255.5,280.167 255.5,280.5C 253.832,282.479 253.166,284.812 253.5,287.5C 252.617,290.385 251.284,293.052 249.5,295.5C 250.528,288.63 252.361,281.963 255,275.5C 255.333,271.833 255.667,268.167 256,264.5C 259.565,262.025 263.232,262.025 267,264.5C 270.167,268.166 271.667,272.499 271.5,277.5 Z"/></g>
<g><path style="opacity:1" fill="#2e1a12" d="M 271.5,277.5 C 271.5,278.167 271.5,278.833 271.5,279.5C 270.732,280.263 270.232,281.263 270,282.5C 266.947,279.113 264.28,275.447 262,271.5C 261.456,275.635 259.29,278.302 255.5,279.5C 257.556,275.824 258.723,271.824 259,267.5C 261.979,266.486 264.646,267.152 267,269.5C 268.982,271.998 270.482,274.665 271.5,277.5 Z"/></g>
<g><path style="opacity:1" fill="#48092a" d="M 175.5,268.5 C 175.842,269.338 176.508,269.672 177.5,269.5C 187.5,270.167 197.5,270.833 207.5,271.5C 206.833,271.833 206.167,272.167 205.5,272.5C 195.514,271.834 185.514,271.501 175.5,271.5C 175.509,273.308 175.009,274.975 174,276.5C 172.513,275.259 171.68,275.759 171.5,278C 173.072,280.919 173.739,284.085 173.5,287.5C 171.926,287.937 170.759,288.937 170,290.5C 169.667,290.167 169.333,289.833 169,289.5C 168.51,290.793 168.343,292.127 168.5,293.5C 167.136,286.248 167.469,278.915 169.5,271.5C 169.278,269.945 168.611,268.611 167.5,267.5C 167.887,266.28 168.72,265.613 170,265.5C 171.731,266.741 173.564,267.741 175.5,268.5 Z"/></g>
<g><path style="opacity:1" fill="#400c29" d="M 337.5,266.5 C 340.5,266.5 343.5,266.5 346.5,266.5C 345.396,270.02 343.063,272.353 339.5,273.5C 338.5,272.833 337.5,272.167 336.5,271.5C 335.702,271.957 335.369,272.624 335.5,273.5C 325.232,271.758 314.899,271.258 304.5,272C 303.307,273.095 301.973,273.928 300.5,274.5C 300.472,272.418 301.139,270.584 302.5,269C 314.227,268.817 325.894,267.983 337.5,266.5 Z"/></g>
<g><path style="opacity:1" fill="#2e172f" d="M 365.5,299.5 C 365.628,290.134 365.128,280.8 364,271.5C 362.794,268.488 361.46,265.488 360,262.5C 358.286,262.205 356.453,262.538 354.5,263.5C 351.837,264.752 349.17,265.752 346.5,266.5C 343.5,266.5 340.5,266.5 337.5,266.5C 339.5,265.833 341.5,265.167 343.5,264.5C 346.127,263.895 348.793,263.395 351.5,263C 355.903,258.181 360.07,258.347 364,263.5C 366.542,275.553 367.042,287.553 365.5,299.5 Z"/></g>
<g><path style="opacity:1" fill="#4b042f" d="M 233.5,303.5 C 233.768,305.099 233.434,306.432 232.5,307.5C 232.666,300.159 232.5,292.826 232,285.5C 231.138,287.087 230.471,288.754 230,290.5C 229.308,289.975 228.808,289.308 228.5,288.5C 229.706,286.484 229.706,284.484 228.5,282.5C 227.416,283.665 226.583,284.998 226,286.5C 225.759,283.711 225.092,281.044 224,278.5C 223.667,278.833 223.333,279.167 223,279.5C 221.482,277.652 219.649,276.152 217.5,275C 211.527,275.163 205.527,275.33 199.5,275.5C 201.249,274.015 203.249,273.015 205.5,272.5C 206.167,272.167 206.833,271.833 207.5,271.5C 211.998,269.894 216.664,268.894 221.5,268.5C 224.365,269.887 227.365,270.887 230.5,271.5C 229.916,274.983 230.749,277.983 233,280.5C 233.5,288.159 233.666,295.826 233.5,303.5 Z"/></g>
<g><path style="opacity:1" fill="#381029" d="M 175.5,268.5 C 173.564,267.741 171.731,266.741 170,265.5C 168.72,265.613 167.887,266.28 167.5,267.5C 168.611,268.611 169.278,269.945 169.5,271.5C 167.469,278.915 167.136,286.248 168.5,293.5C 168.5,296.833 168.5,300.167 168.5,303.5C 166.13,291.285 163.964,278.952 162,266.5C 165.183,264.477 168.683,263.977 172.5,265C 173.71,266.039 174.71,267.206 175.5,268.5 Z"/></g>
<g><path style="opacity:1" fill="#490a2f" d="M 335.5,273.5 C 336.71,273.932 337.71,274.599 338.5,275.5C 337.849,276.091 337.182,276.757 336.5,277.5C 329.318,277.271 321.985,276.605 314.5,275.5C 311.135,276.075 307.802,276.742 304.5,277.5C 303.502,286.141 303.169,294.808 303.5,303.5C 300.982,294.14 299.982,284.473 300.5,274.5C 301.973,273.928 303.307,273.095 304.5,272C 314.899,271.258 325.232,271.758 335.5,273.5 Z"/></g>
<g><path style="opacity:1" fill="#520228" d="M 205.5,272.5 C 203.249,273.015 201.249,274.015 199.5,275.5C 193.617,278.299 187.617,280.132 181.5,281C 180.183,282.659 178.517,283.826 176.5,284.5C 175.482,286.594 174.482,288.594 173.5,290.5C 173.5,289.5 173.5,288.5 173.5,287.5C 173.739,284.085 173.072,280.919 171.5,278C 171.68,275.759 172.513,275.259 174,276.5C 175.009,274.975 175.509,273.308 175.5,271.5C 185.514,271.501 195.514,271.834 205.5,272.5 Z"/></g>
<g><path style="opacity:1" fill="#4a103a" d="M 354.5,263.5 C 353.907,266.935 352.24,269.768 349.5,272C 351.697,274.421 353.03,277.255 353.5,280.5C 354.092,284.906 354.092,289.239 353.5,293.5C 352.883,293.611 352.383,293.944 352,294.5C 351.505,292.527 351.338,290.527 351.5,288.5C 349.625,284.609 347.958,280.609 346.5,276.5C 346.709,275.914 347.043,275.414 347.5,275C 344.577,274.366 341.577,274.533 338.5,275.5C 337.71,274.599 336.71,273.932 335.5,273.5C 335.369,272.624 335.702,271.957 336.5,271.5C 337.5,272.167 338.5,272.833 339.5,273.5C 343.063,272.353 345.396,270.02 346.5,266.5C 349.17,265.752 351.837,264.752 354.5,263.5 Z"/></g>
<g><path style="opacity:1" fill="#520a36" d="M 351.5,288.5 C 350.504,288.414 349.671,288.748 349,289.5C 347.833,287.667 346.667,285.833 345.5,284C 343.893,283.885 342.393,284.385 341,285.5C 339.347,285.18 338.347,284.18 338,282.5C 336.36,284.923 334.027,285.923 331,285.5C 327.43,285.922 324.764,284.589 323,281.5C 320.035,281.819 317.202,283.152 314.5,285.5C 312.227,284.625 311.227,282.958 311.5,280.5C 310.5,280.5 309.5,280.5 308.5,280.5C 308.5,282.167 308.5,283.833 308.5,285.5C 306.54,291.99 305.873,298.49 306.5,305C 308.074,306.826 308.907,308.993 309,311.5C 312.287,311.662 315.787,311.995 319.5,312.5C 318.129,313.787 316.295,314.453 314,314.5C 311.698,314.4 309.698,313.733 308,312.5C 306.732,315.779 305.232,316.112 303.5,313.5C 303.5,310.167 303.5,306.833 303.5,303.5C 303.169,294.808 303.502,286.141 304.5,277.5C 307.802,276.742 311.135,276.075 314.5,275.5C 321.985,276.605 329.318,277.271 336.5,277.5C 337.182,276.757 337.849,276.091 338.5,275.5C 341.577,274.533 344.577,274.366 347.5,275C 347.043,275.414 346.709,275.914 346.5,276.5C 347.958,280.609 349.625,284.609 351.5,288.5 Z"/></g>
<g><path style="opacity:1" fill="#5a0334" d="M 232.5,307.5 C 230.057,308.109 228.39,309.609 227.5,312C 226.207,312.49 224.873,312.657 223.5,312.5C 226.124,311.414 227.79,309.414 228.5,306.5C 228.629,303.062 228.296,299.562 227.5,296C 224.76,295.234 221.76,294.068 218.5,292.5C 216.851,290.35 215.018,288.35 213,286.5C 210.255,287.952 207.922,289.952 206,292.5C 203.512,289.017 200.678,288.351 197.5,290.5C 196.833,290.167 196.167,289.833 195.5,289.5C 190.936,291.28 186.269,292.78 181.5,294C 180.619,294.708 179.953,295.542 179.5,296.5C 178.5,296.833 177.833,297.5 177.5,298.5C 175.534,297.745 175.2,296.579 176.5,295C 175.473,294.487 174.473,293.987 173.5,293.5C 173.5,292.5 173.5,291.5 173.5,290.5C 174.482,288.594 175.482,286.594 176.5,284.5C 178.517,283.826 180.183,282.659 181.5,281C 187.617,280.132 193.617,278.299 199.5,275.5C 205.527,275.33 211.527,275.163 217.5,275C 219.649,276.152 221.482,277.652 223,279.5C 223.333,279.167 223.667,278.833 224,278.5C 225.092,281.044 225.759,283.711 226,286.5C 226.583,284.998 227.416,283.665 228.5,282.5C 229.706,284.484 229.706,286.484 228.5,288.5C 228.808,289.308 229.308,289.975 230,290.5C 230.471,288.754 231.138,287.087 232,285.5C 232.5,292.826 232.666,300.159 232.5,307.5 Z"/></g>
<g><path style="opacity:1" fill="#441944" d="M 365.5,299.5 C 365.806,302.385 365.473,305.052 364.5,307.5C 364.5,306.5 364.5,305.5 364.5,304.5C 364.5,300.833 364.5,297.167 364.5,293.5C 363.178,293.67 362.011,293.337 361,292.5C 359.847,289.289 359.18,285.956 359,282.5C 358.085,281.672 357.419,280.672 357,279.5C 356.372,282.954 355.205,283.287 353.5,280.5C 353.03,277.255 351.697,274.421 349.5,272C 352.24,269.768 353.907,266.935 354.5,263.5C 356.453,262.538 358.286,262.205 360,262.5C 361.46,265.488 362.794,268.488 364,271.5C 365.128,280.8 365.628,290.134 365.5,299.5 Z"/></g>
<g><path style="opacity:1" fill="#540635" d="M 351.5,288.5 C 351.338,290.527 351.505,292.527 352,294.5C 352.383,293.944 352.883,293.611 353.5,293.5C 353.5,294.167 353.5,294.833 353.5,295.5C 351.363,295.64 349.03,296.306 346.5,297.5C 342.594,295.585 339.594,296.418 337.5,300C 333.775,300.76 330.108,300.593 326.5,299.5C 325.719,298.271 325.219,296.938 325,295.5C 322.077,292.935 318.91,291.935 315.5,292.5C 315.5,290.833 315.5,289.167 315.5,287.5C 313.071,287.116 310.737,286.449 308.5,285.5C 308.5,283.833 308.5,282.167 308.5,280.5C 309.5,280.5 310.5,280.5 311.5,280.5C 311.227,282.958 312.227,284.625 314.5,285.5C 317.202,283.152 320.035,281.819 323,281.5C 324.764,284.589 327.43,285.922 331,285.5C 334.027,285.923 336.36,284.923 338,282.5C 338.347,284.18 339.347,285.18 341,285.5C 342.393,284.385 343.893,283.885 345.5,284C 346.667,285.833 347.833,287.667 349,289.5C 349.671,288.748 350.504,288.414 351.5,288.5 Z"/></g>
<g><path style="opacity:1" fill="#2f0e22" d="M 343.5,264.5 C 341.5,265.167 339.5,265.833 337.5,266.5C 325.894,267.983 314.227,268.817 302.5,269C 301.139,270.584 300.472,272.418 300.5,274.5C 299.982,284.473 300.982,294.14 303.5,303.5C 303.5,306.833 303.5,310.167 303.5,313.5C 302.549,314.919 302.216,316.585 302.5,318.5C 304.948,319.473 307.615,319.806 310.5,319.5C 308.052,320.529 305.386,321.196 302.5,321.5C 300.933,321.523 299.6,321.023 298.5,320C 299,319.5 299.5,319 300,318.5C 300.897,314.045 301.397,309.545 301.5,305C 299.683,292.895 299.183,280.729 300,268.5C 300.689,267.643 301.522,266.977 302.5,266.5C 305.78,267.128 309.113,267.461 312.5,267.5C 322.847,266.593 333.18,265.593 343.5,264.5 Z"/></g>
<g><path style="opacity:1" fill="#62043a" d="M 223.5,312.5 C 223.5,313.167 223.5,313.833 223.5,314.5C 221.565,315.15 219.565,315.483 217.5,315.5C 217.937,313.926 218.937,312.759 220.5,312C 216.413,309.563 216.746,307.563 221.5,306C 221.469,304.279 220.802,302.446 219.5,300.5C 213.81,297.917 208.477,298.584 203.5,302.5C 201.668,301.752 200.001,300.752 198.5,299.5C 197.108,300.605 195.941,301.939 195,303.5C 193.207,300.705 191.04,298.205 188.5,296C 185.525,295.956 182.525,296.123 179.5,296.5C 179.953,295.542 180.619,294.708 181.5,294C 186.269,292.78 190.936,291.28 195.5,289.5C 196.167,289.833 196.833,290.167 197.5,290.5C 200.678,288.351 203.512,289.017 206,292.5C 207.922,289.952 210.255,287.952 213,286.5C 215.018,288.35 216.851,290.35 218.5,292.5C 221.76,294.068 224.76,295.234 227.5,296C 228.296,299.562 228.629,303.062 228.5,306.5C 227.79,309.414 226.124,311.414 223.5,312.5 Z"/></g>
<g><path style="opacity:1" fill="#5a093a" d="M 308.5,285.5 C 310.737,286.449 313.071,287.116 315.5,287.5C 315.5,289.167 315.5,290.833 315.5,292.5C 318.91,291.935 322.077,292.935 325,295.5C 325.219,296.938 325.719,298.271 326.5,299.5C 330.108,300.593 333.775,300.76 337.5,300C 339.594,296.418 342.594,295.585 346.5,297.5C 349.03,296.306 351.363,295.64 353.5,295.5C 354.404,296.209 354.737,297.209 354.5,298.5C 353.962,300.117 353.629,301.784 353.5,303.5C 351.654,303.222 350.32,303.889 349.5,305.5C 352.1,308.041 352.1,310.541 349.5,313C 352.044,314.092 354.711,314.759 357.5,315C 358.056,315.383 358.389,315.883 358.5,316.5C 350.709,317.291 343.709,315.124 337.5,310C 338.993,308.844 338.826,308.01 337,307.5C 331.912,308.479 327.079,308.479 322.5,307.5C 319.258,307.783 318.924,308.617 321.5,310C 320.244,310.417 319.577,311.25 319.5,312.5C 315.787,311.995 312.287,311.662 309,311.5C 308.907,308.993 308.074,306.826 306.5,305C 305.873,298.49 306.54,291.99 308.5,285.5 Z"/></g>
<g><path style="opacity:1" fill="#3a1a0f" d="M 255.5,280.5 C 256.15,280.804 256.817,281.137 257.5,281.5C 258.766,286.266 261.099,290.432 264.5,294C 267.951,294.747 268.284,294.08 265.5,292C 267.764,291.764 269.931,291.264 272,290.5C 274.376,299.711 276.209,308.878 277.5,318C 276.978,318.95 276.311,319.784 275.5,320.5C 277.151,323.889 276.317,326.555 273,328.5C 271.991,330.025 271.491,331.692 271.5,333.5C 269.493,334.679 269.16,334.179 270.5,332C 270,331.5 269.5,331 269,330.5C 267.89,332.037 266.39,332.703 264.5,332.5C 264.649,333.552 264.483,334.552 264,335.5C 262.6,334.252 261.1,333.252 259.5,332.5C 260.778,331.251 261.778,329.751 262.5,328C 261.594,326.301 261.261,324.467 261.5,322.5C 258.856,322.16 256.523,322.827 254.5,324.5C 253.643,323.264 252.977,321.931 252.5,320.5C 251.675,319.614 250.675,319.281 249.5,319.5C 251.577,316.254 252.91,312.587 253.5,308.5C 254.774,310.85 256.107,310.683 257.5,308C 255.795,304.832 254.962,301.332 255,297.5C 254.187,299.436 253.687,301.436 253.5,303.5C 252.5,303.5 251.5,303.5 250.5,303.5C 252.121,298.587 253.455,293.587 254.5,288.5C 254.376,287.893 254.043,287.56 253.5,287.5C 253.166,284.812 253.832,282.479 255.5,280.5 Z"/></g>
<g><path style="opacity:1" fill="#511245" d="M 364.5,304.5 C 362.983,304.511 361.816,305.177 361,306.5C 360.308,305.975 359.808,305.308 359.5,304.5C 360.093,302.618 360.76,300.785 361.5,299C 360.437,297.812 359.103,297.312 357.5,297.5C 356.985,302.086 355.985,302.419 354.5,298.5C 354.737,297.209 354.404,296.209 353.5,295.5C 353.5,294.833 353.5,294.167 353.5,293.5C 354.092,289.239 354.092,284.906 353.5,280.5C 355.205,283.287 356.372,282.954 357,279.5C 357.419,280.672 358.085,281.672 359,282.5C 359.18,285.956 359.847,289.289 361,292.5C 362.011,293.337 363.178,293.67 364.5,293.5C 364.5,297.167 364.5,300.833 364.5,304.5 Z"/></g>
<g><path style="opacity:1" fill="#6b0d43" d="M 217.5,315.5 C 203.395,316.203 189.395,316.87 175.5,317.5C 175.5,317.167 175.5,316.833 175.5,316.5C 177.74,315.736 180.073,314.902 182.5,314C 181.552,313.517 180.552,313.351 179.5,313.5C 180.789,308.143 180.123,303.143 177.5,298.5C 177.833,297.5 178.5,296.833 179.5,296.5C 182.525,296.123 185.525,295.956 188.5,296C 191.04,298.205 193.207,300.705 195,303.5C 195.941,301.939 197.108,300.605 198.5,299.5C 200.001,300.752 201.668,301.752 203.5,302.5C 208.477,298.584 213.81,297.917 219.5,300.5C 220.802,302.446 221.469,304.279 221.5,306C 216.746,307.563 216.413,309.563 220.5,312C 218.937,312.759 217.937,313.926 217.5,315.5 Z"/></g>
<g><path style="opacity:1" fill="#475968" d="M 131.5,245.5 C 129.739,267.688 130.406,289.688 133.5,311.5C 132.728,310.306 131.728,309.306 130.5,308.5C 129.405,287.851 129.238,267.184 130,246.5C 130.383,245.944 130.883,245.611 131.5,245.5 Z"/></g>
<g><path style="opacity:1" fill="#3c1310" d="M 253.5,287.5 C 254.043,287.56 254.376,287.893 254.5,288.5C 253.455,293.587 252.121,298.587 250.5,303.5C 251.5,303.5 252.5,303.5 253.5,303.5C 253.687,301.436 254.187,299.436 255,297.5C 254.962,301.332 255.795,304.832 257.5,308C 256.107,310.683 254.774,310.85 253.5,308.5C 252.91,312.587 251.577,316.254 249.5,319.5C 248.1,318.9 247.1,317.9 246.5,316.5C 244.547,315.756 243.547,314.256 243.5,312C 244.832,306.117 246.832,300.617 249.5,295.5C 251.284,293.052 252.617,290.385 253.5,287.5 Z"/></g>
<g><path style="opacity:1" fill="#531a3c" d="M 173.5,287.5 C 173.5,288.5 173.5,289.5 173.5,290.5C 173.5,291.5 173.5,292.5 173.5,293.5C 172.347,299.319 172.181,305.319 173,311.5C 173.374,313.491 174.207,315.158 175.5,316.5C 175.5,316.833 175.5,317.167 175.5,317.5C 175.5,318.167 175.5,318.833 175.5,319.5C 174.508,319.672 173.842,319.338 173.5,318.5C 172.63,313.776 170.963,309.443 168.5,305.5C 168.5,304.833 168.5,304.167 168.5,303.5C 168.5,300.167 168.5,296.833 168.5,293.5C 168.343,292.127 168.51,290.793 169,289.5C 169.333,289.833 169.667,290.167 170,290.5C 170.759,288.937 171.926,287.937 173.5,287.5 Z"/></g>
<g><path style="opacity:1" fill="#621844" d="M 173.5,293.5 C 174.473,293.987 175.473,294.487 176.5,295C 175.2,296.579 175.534,297.745 177.5,298.5C 180.123,303.143 180.789,308.143 179.5,313.5C 180.552,313.351 181.552,313.517 182.5,314C 180.073,314.902 177.74,315.736 175.5,316.5C 174.207,315.158 173.374,313.491 173,311.5C 172.181,305.319 172.347,299.319 173.5,293.5 Z"/></g>
<g><path style="opacity:1" fill="#60194b" d="M 364.5,304.5 C 364.5,305.5 364.5,306.5 364.5,307.5C 363.749,311.266 361.749,314.266 358.5,316.5C 358.389,315.883 358.056,315.383 357.5,315C 354.711,314.759 352.044,314.092 349.5,313C 352.1,310.541 352.1,308.041 349.5,305.5C 350.32,303.889 351.654,303.222 353.5,303.5C 353.629,301.784 353.962,300.117 354.5,298.5C 355.985,302.419 356.985,302.086 357.5,297.5C 359.103,297.312 360.437,297.812 361.5,299C 360.76,300.785 360.093,302.618 359.5,304.5C 359.808,305.308 360.308,305.975 361,306.5C 361.816,305.177 362.983,304.511 364.5,304.5 Z"/></g>
<g><path style="opacity:1" fill="#581136" d="M 358.5,316.5 C 361.749,314.266 363.749,311.266 364.5,307.5C 364.543,310.91 364.043,314.243 363,317.5C 362.329,318.252 361.496,318.586 360.5,318.5C 349.415,318.345 338.415,317.345 327.5,315.5C 321.783,315.304 316.283,316.304 311,318.5C 308.111,318.388 305.278,318.388 302.5,318.5C 302.216,316.585 302.549,314.919 303.5,313.5C 305.232,316.112 306.732,315.779 308,312.5C 309.698,313.733 311.698,314.4 314,314.5C 316.295,314.453 318.129,313.787 319.5,312.5C 319.577,311.25 320.244,310.417 321.5,310C 318.924,308.617 319.258,307.783 322.5,307.5C 327.079,308.479 331.912,308.479 337,307.5C 338.826,308.01 338.993,308.844 337.5,310C 343.709,315.124 350.709,317.291 358.5,316.5 Z"/></g>
<g><path style="opacity:1" fill="#3b4c5a" d="M 381.5,295.5 C 381.666,301.176 381.499,306.843 381,312.5C 380.722,313.416 380.222,314.082 379.5,314.5C 379.337,307.938 380.004,301.605 381.5,295.5 Z"/></g>
<g><path style="opacity:1" fill="#39192c" d="M 168.5,305.5 C 170.963,309.443 172.63,313.776 173.5,318.5C 171.061,314.597 169.395,310.263 168.5,305.5 Z"/></g>
<g><path style="opacity:1" fill="#4e0f24" d="M 233.5,303.5 C 233.833,303.5 234.167,303.5 234.5,303.5C 234.5,307.5 234.5,311.5 234.5,315.5C 233.365,317.213 231.698,317.88 229.5,317.5C 229.804,316.85 230.137,316.183 230.5,315.5C 228.257,314.526 225.924,314.192 223.5,314.5C 223.5,313.833 223.5,313.167 223.5,312.5C 224.873,312.657 226.207,312.49 227.5,312C 228.39,309.609 230.057,308.109 232.5,307.5C 233.434,306.432 233.768,305.099 233.5,303.5 Z"/></g>
<g><path style="opacity:1" fill="#691634" d="M 223.5,314.5 C 225.924,314.192 228.257,314.526 230.5,315.5C 230.137,316.183 229.804,316.85 229.5,317.5C 229.082,318.222 228.416,318.722 227.5,319C 210.17,319.5 192.837,319.667 175.5,319.5C 175.5,318.833 175.5,318.167 175.5,317.5C 189.395,316.87 203.395,316.203 217.5,315.5C 219.565,315.483 221.565,315.15 223.5,314.5 Z"/></g>
<g><path style="opacity:1" fill="#4f1328" d="M 360.5,318.5 C 344.008,319.497 327.342,319.83 310.5,319.5C 307.615,319.806 304.948,319.473 302.5,318.5C 305.278,318.388 308.111,318.388 311,318.5C 316.283,316.304 321.783,315.304 327.5,315.5C 338.415,317.345 349.415,318.345 360.5,318.5 Z"/></g>
<g><path style="opacity:1" fill="#311910" d="M 271.5,279.5 C 275.379,289.023 277.712,299.023 278.5,309.5C 280.796,315.426 283.63,321.093 287,326.5C 287.499,330.152 287.665,333.818 287.5,337.5C 288.5,337.5 289.5,337.5 290.5,337.5C 291.568,338.434 292.901,338.768 294.5,338.5C 291.859,339.274 289.192,339.607 286.5,339.5C 285.868,337.263 284.535,335.597 282.5,334.5C 283.399,331.105 282.566,328.105 280,325.5C 278.568,328.002 278.402,330.502 279.5,333C 276.819,337.269 274.819,341.769 273.5,346.5C 273.813,343.753 273.48,341.086 272.5,338.5C 271.125,341.25 269.792,343.916 268.5,346.5C 269.192,342.109 270.192,337.776 271.5,333.5C 271.491,331.692 271.991,330.025 273,328.5C 276.317,326.555 277.151,323.889 275.5,320.5C 276.311,319.784 276.978,318.95 277.5,318C 276.209,308.878 274.376,299.711 272,290.5C 269.931,291.264 267.764,291.764 265.5,292C 268.284,294.08 267.951,294.747 264.5,294C 261.099,290.432 258.766,286.266 257.5,281.5C 256.817,281.137 256.15,280.804 255.5,280.5C 255.5,280.167 255.5,279.833 255.5,279.5C 259.29,278.302 261.456,275.635 262,271.5C 264.28,275.447 266.947,279.113 270,282.5C 270.232,281.263 270.732,280.263 271.5,279.5 Z"/></g>
<g><path style="opacity:1" fill="#361a0a" d="M 246.5,316.5 C 247.1,317.9 248.1,318.9 249.5,319.5C 250.675,319.281 251.675,319.614 252.5,320.5C 252.977,321.931 253.643,323.264 254.5,324.5C 256.523,322.827 258.856,322.16 261.5,322.5C 261.261,324.467 261.594,326.301 262.5,328C 261.778,329.751 260.778,331.251 259.5,332.5C 259.443,334.884 259.777,337.218 260.5,339.5C 259.232,343.47 258.065,347.47 257,351.5C 256.632,352.91 255.799,353.91 254.5,354.5C 248.123,352.529 248.123,351.362 254.5,351C 249.592,347.24 245.926,342.406 243.5,336.5C 242.311,335.571 240.978,335.238 239.5,335.5C 241.107,330.952 243.274,326.619 246,322.5C 246.495,320.527 246.662,318.527 246.5,316.5 Z"/></g>
<g><path style="opacity:1" fill="#1a242d" d="M 140.5,321.5 C 142.986,324.611 144.319,328.278 144.5,332.5C 141.81,329.453 140.476,325.787 140.5,321.5 Z"/></g>
<g><path style="opacity:1" fill="#415361" d="M 377.5,321.5 C 375.984,324.533 373.984,327.2 371.5,329.5C 370.833,329.5 370.167,329.5 369.5,329.5C 372.158,326.876 374.825,324.209 377.5,321.5 Z"/></g>
<g><path style="opacity:1" fill="#3a1d0e" d="M 294.5,338.5 C 298.234,338.323 301.901,338.656 305.5,339.5C 308.083,340.224 310.749,341.057 313.5,342C 311.5,343.333 309.5,344.667 307.5,346C 313.957,348.354 320.624,349.521 327.5,349.5C 327.436,353.22 326.936,356.886 326,360.5C 325.586,360.957 325.086,361.291 324.5,361.5C 322.807,359.721 320.807,359.221 318.5,360C 319.337,361.011 319.67,362.178 319.5,363.5C 324.833,363.5 330.167,363.5 335.5,363.5C 335.5,364.833 335.5,366.167 335.5,367.5C 334.696,369.189 333.696,370.855 332.5,372.5C 331.833,371.833 331.167,371.167 330.5,370.5C 329.548,372.045 329.215,373.712 329.5,375.5C 327.336,375.721 325.67,376.721 324.5,378.5C 320.601,376.047 318.601,372.38 318.5,367.5C 315.961,365.8 313.295,364.3 310.5,363C 312.301,362.683 312.634,362.016 311.5,361C 309.129,360.265 306.795,359.432 304.5,358.5C 304.478,366.004 302.811,366.838 299.5,361C 295.268,361.442 293.102,359.276 293,354.5C 291.757,356.833 290.091,357.5 288,356.5C 287.517,357.448 287.351,358.448 287.5,359.5C 284.281,361.224 282.281,360.224 281.5,356.5C 280.675,355.614 279.675,355.281 278.5,355.5C 278.5,357.5 278.5,359.5 278.5,361.5C 277.74,358.216 275.907,355.549 273,353.5C 272.297,351.071 272.463,348.738 273.5,346.5C 274.819,341.769 276.819,337.269 279.5,333C 278.402,330.502 278.568,328.002 280,325.5C 282.566,328.105 283.399,331.105 282.5,334.5C 284.535,335.597 285.868,337.263 286.5,339.5C 289.192,339.607 291.859,339.274 294.5,338.5 Z"/></g>
<g><path style="opacity:1" fill="#3a1d0b" d="M 271.5,333.5 C 270.192,337.776 269.192,342.109 268.5,346.5C 267.031,348.836 265.698,351.336 264.5,354C 262.953,354.333 261.62,353.833 260.5,352.5C 260.167,353.167 259.833,353.833 259.5,354.5C 260.821,356.332 261.821,358.332 262.5,360.5C 259.244,361.3 256.077,361.633 253,361.5C 247.537,358.018 243.203,359.018 240,364.5C 239.667,362.167 239.333,359.833 239,357.5C 238.282,356.549 237.449,356.383 236.5,357C 238.155,358.444 238.822,360.278 238.5,362.5C 234.651,362.019 232.651,363.686 232.5,367.5C 229.893,369.551 227.059,371.551 224,373.5C 223.505,371.527 223.338,369.527 223.5,367.5C 222.167,367.5 220.833,367.5 219.5,367.5C 219.335,371.182 219.501,374.848 220,378.5C 221.993,374.473 223.16,374.64 223.5,379C 224.068,382.263 222.734,383.763 219.5,383.5C 221.267,391.654 218.767,398.321 212,403.5C 212.094,406.501 210.761,408.501 208,409.5C 207.505,407.527 207.338,405.527 207.5,403.5C 202.175,402.504 196.842,401.504 191.5,400.5C 192.209,399.596 193.209,399.263 194.5,399.5C 198.909,399.034 202.909,400.034 206.5,402.5C 208.223,399.06 208.89,395.394 208.5,391.5C 209.873,391.657 211.207,391.49 212.5,391C 210.833,389.833 209.167,388.667 207.5,387.5C 208.04,386.252 208.707,385.085 209.5,384C 208.139,382.416 207.472,380.582 207.5,378.5C 205.516,378.617 203.85,377.95 202.5,376.5C 200.558,370.294 199.724,363.961 200,357.5C 202.015,360.565 204.515,361.565 207.5,360.5C 207.5,357.5 207.5,354.5 207.5,351.5C 228.706,351.809 228.706,350.809 207.5,348.5C 212.792,347.505 218.125,347.172 223.5,347.5C 223.5,346.167 223.5,344.833 223.5,343.5C 226.522,343.428 228.688,344.762 230,347.5C 231.309,345.109 232.309,345.109 233,347.5C 233.468,344.322 235.301,341.655 238.5,339.5C 239.429,338.311 239.762,336.978 239.5,335.5C 240.978,335.238 242.311,335.571 243.5,336.5C 245.926,342.406 249.592,347.24 254.5,351C 248.123,351.362 248.123,352.529 254.5,354.5C 255.799,353.91 256.632,352.91 257,351.5C 258.065,347.47 259.232,343.47 260.5,339.5C 259.777,337.218 259.443,334.884 259.5,332.5C 261.1,333.252 262.6,334.252 264,335.5C 264.483,334.552 264.649,333.552 264.5,332.5C 266.39,332.703 267.89,332.037 269,330.5C 269.5,331 270,331.5 270.5,332C 269.16,334.179 269.493,334.679 271.5,333.5 Z"/></g>
<g><path style="opacity:1" fill="#311816" d="M 237.5,335.5 C 237.249,337.17 236.582,338.67 235.5,340C 218.995,340.169 202.662,340.669 186.5,341.5C 183.12,340.671 179.786,340.338 176.5,340.5C 175.667,341.5 174.833,342.5 174,343.5C 173.23,342.402 172.397,342.402 171.5,343.5C 169.833,343.5 168.167,343.5 166.5,343.5C 166.36,341.876 167.027,340.71 168.5,340C 171.544,339.637 174.544,339.137 177.5,338.5C 196.492,339.449 215.492,339.616 234.5,339C 235.163,337.482 236.163,336.315 237.5,335.5 Z"/></g>
<g><path style="opacity:1" fill="#301b13" d="M 303.5,336.5 C 315.046,335.755 326.379,336.922 337.5,340C 341.431,343.779 343.431,348.446 343.5,354C 341.673,363.606 340.006,373.273 338.5,383C 339.566,386.422 338.899,389.589 336.5,392.5C 335.526,394.743 335.192,397.076 335.5,399.5C 333.09,399.921 331.257,401.254 330,403.5C 328.739,407.877 326.905,411.877 324.5,415.5C 322.833,415.5 321.167,415.5 319.5,415.5C 322.018,409.84 324.351,404.507 326.5,399.5C 327.5,399.5 328.5,399.5 329.5,399.5C 329.338,397.473 329.505,395.473 330,393.5C 332.014,391.817 333.68,389.817 335,387.5C 335.191,381.917 335.691,376.417 336.5,371C 335.663,369.989 335.33,368.822 335.5,367.5C 336.833,367.5 338.167,367.5 339.5,367.5C 340.387,361.855 340.554,356.188 340,350.5C 338.518,347.727 336.852,345.06 335,342.5C 333.612,341.446 332.112,341.28 330.5,342C 331.328,342.915 332.328,343.581 333.5,344C 331.331,344.429 329.331,343.929 327.5,342.5C 326.672,343.415 325.672,344.081 324.5,344.5C 322.865,343.954 321.199,343.62 319.5,343.5C 319.5,342.5 319.5,341.5 319.5,340.5C 320.552,340.649 321.552,340.483 322.5,340C 316.592,337.718 310.926,337.551 305.5,339.5C 301.901,338.656 298.234,338.323 294.5,338.5C 292.901,338.768 291.568,338.434 290.5,337.5C 294.842,337.261 299.176,336.927 303.5,336.5 Z"/></g>
<g><path style="opacity:1" fill="#361e11" d="M 335.5,367.5 C 335.5,366.167 335.5,364.833 335.5,363.5C 330.167,363.5 324.833,363.5 319.5,363.5C 319.67,362.178 319.337,361.011 318.5,360C 320.807,359.221 322.807,359.721 324.5,361.5C 325.086,361.291 325.586,360.957 326,360.5C 326.936,356.886 327.436,353.22 327.5,349.5C 320.624,349.521 313.957,348.354 307.5,346C 309.5,344.667 311.5,343.333 313.5,342C 310.749,341.057 308.083,340.224 305.5,339.5C 310.926,337.551 316.592,337.718 322.5,340C 321.552,340.483 320.552,340.649 319.5,340.5C 319.5,341.5 319.5,342.5 319.5,343.5C 321.199,343.62 322.865,343.954 324.5,344.5C 325.672,344.081 326.672,343.415 327.5,342.5C 329.331,343.929 331.331,344.429 333.5,344C 332.328,343.581 331.328,342.915 330.5,342C 332.112,341.28 333.612,341.446 335,342.5C 336.852,345.06 338.518,347.727 340,350.5C 340.554,356.188 340.387,361.855 339.5,367.5C 338.167,367.5 336.833,367.5 335.5,367.5 Z"/></g>
<g><path style="opacity:1" fill="#03080e" d="M 359.5,335.5 C 359.5,351.5 359.5,367.5 359.5,383.5C 359.471,398.91 353.804,411.91 342.5,422.5C 345.934,415.866 349.934,409.032 354.5,402C 352.175,400.119 352.175,398.452 354.5,397C 353.33,395.413 352.33,393.747 351.5,392C 352.744,391.544 353.577,392.044 354,393.5C 354.398,388.904 355.565,384.571 357.5,380.5C 356.957,378.032 356.624,375.532 356.5,373C 357.102,360.315 358.102,347.815 359.5,335.5 Z"/></g>
<g><path style="opacity:1" fill="#120d08" d="M 162.5,335.5 C 164.649,351.367 165.316,367.367 164.5,383.5C 163.819,381.842 162.985,380.175 162,378.5C 160.265,364.003 160.432,349.67 162.5,335.5 Z"/></g>
<g><path style="opacity:1" fill="#351d15" d="M 166.5,343.5 C 168.167,343.5 169.833,343.5 171.5,343.5C 171.923,344.265 172.257,345.098 172.5,346C 169.708,352.912 168.874,360.079 170,367.5C 171.317,372.1 172.317,376.766 173,381.5C 174.163,379.715 174.83,377.715 175,375.5C 175.497,378.146 175.664,380.813 175.5,383.5C 176.5,383.5 177.5,383.5 178.5,383.5C 176.893,388.304 177.559,392.804 180.5,397C 180.355,397.772 180.022,398.439 179.5,399C 181.027,401.69 183.027,403.857 185.5,405.5C 178.408,402.909 173.408,398.075 170.5,391C 171.784,389.703 171.617,388.536 170,387.5C 167.513,374.016 167.013,360.516 168.5,347C 167.695,345.887 167.028,344.721 166.5,343.5 Z"/></g>
<g><path style="opacity:1" fill="#4d616c" d="M 147.5,341.5 C 148.558,342.6 149.392,343.934 150,345.5C 151.029,351.123 151.529,356.79 151.5,362.5C 150,355.642 148.667,348.642 147.5,341.5 Z"/></g>
<g><path style="opacity:1" fill="#180701" d="M 273.5,346.5 C 272.463,348.738 272.297,351.071 273,353.5C 275.907,355.549 277.74,358.216 278.5,361.5C 279.167,363.5 279.833,365.5 280.5,367.5C 275.978,365.764 274.312,362.431 275.5,357.5C 272.824,356.992 270.157,356.825 267.5,357C 266.717,359.118 265.384,360.618 263.5,361.5C 265.358,356.593 267.024,351.593 268.5,346.5C 269.792,343.916 271.125,341.25 272.5,338.5C 273.48,341.086 273.813,343.753 273.5,346.5 Z"/></g>
<g><path style="opacity:1" fill="#3a1b0b" d="M 324.5,378.5 C 324.739,380.467 324.406,382.301 323.5,384C 324.167,384.667 324.833,385.333 325.5,386C 323.567,386.251 321.734,386.751 320,387.5C 320.214,390.274 320.214,392.94 320,395.5C 321.188,394.437 321.688,393.103 321.5,391.5C 322.5,391.5 323.5,391.5 324.5,391.5C 324.657,392.873 324.49,394.207 324,395.5C 321.798,396.913 319.632,398.413 317.5,400C 318.833,402.333 320.167,404.667 321.5,407C 315.409,406.592 312.409,409.425 312.5,415.5C 309.5,415.5 306.5,415.5 303.5,415.5C 299.226,423.125 292.893,427.459 284.5,428.5C 283.883,428.389 283.383,428.056 283,427.5C 282.19,423.31 282.69,419.31 284.5,415.5C 285.675,415.719 286.675,415.386 287.5,414.5C 285.995,413.158 285.328,411.492 285.5,409.5C 288.157,409.838 290.49,409.171 292.5,407.5C 295.967,402.531 299.633,397.698 303.5,393C 301.881,391.077 300.048,390.577 298,391.5C 294.917,386.994 293.25,381.994 293,376.5C 292.667,376.833 292.333,377.167 292,377.5C 290.667,374.833 289.333,372.167 288,369.5C 287.502,366.183 287.335,362.85 287.5,359.5C 287.351,358.448 287.517,357.448 288,356.5C 290.091,357.5 291.757,356.833 293,354.5C 293.102,359.276 295.268,361.442 299.5,361C 302.811,366.838 304.478,366.004 304.5,358.5C 306.795,359.432 309.129,360.265 311.5,361C 312.634,362.016 312.301,362.683 310.5,363C 313.295,364.3 315.961,365.8 318.5,367.5C 318.601,372.38 320.601,376.047 324.5,378.5 Z"/></g>
<g><path style="opacity:1" fill="#3c1c0f" d="M 268.5,346.5 C 267.024,351.593 265.358,356.593 263.5,361.5C 262.696,363.189 261.696,364.855 260.5,366.5C 256.033,363.299 251.033,361.799 245.5,362C 244.877,364.607 244.21,367.107 243.5,369.5C 242.087,372.219 241.42,375.219 241.5,378.5C 240.711,378.783 240.044,379.283 239.5,380C 244.371,382.255 244.371,383.422 239.5,383.5C 240.544,386.852 239.877,390.019 237.5,393C 238.899,395.238 238.232,395.905 235.5,395C 234.382,393.926 233.382,392.76 232.5,391.5C 231.52,394.086 231.187,396.753 231.5,399.5C 234.85,399.335 238.183,399.502 241.5,400C 239.381,402.218 239.048,404.718 240.5,407.5C 241.192,406.975 241.692,406.308 242,405.5C 247.469,407.601 252.969,409.601 258.5,411.5C 257.911,407.029 258.577,403.029 260.5,399.5C 260.144,402.564 260.977,405.231 263,407.5C 265.726,403.473 267.559,399.14 268.5,394.5C 268.736,397.609 268.403,400.609 267.5,403.5C 265.882,406.171 265.215,409.171 265.5,412.5C 264.099,415.799 262.265,416.132 260,413.5C 259.481,414.516 258.647,415.182 257.5,415.5C 251.101,413.709 245.101,411.376 239.5,408.5C 239.5,410.833 239.5,413.167 239.5,415.5C 235.833,415.5 232.167,415.5 228.5,415.5C 228.5,418.167 228.5,420.833 228.5,423.5C 226.473,423.338 224.473,423.505 222.5,424C 227.275,424.445 229.608,427.112 229.5,432C 233.122,433.787 235.455,436.621 236.5,440.5C 231.003,438.255 226.003,435.255 221.5,431.5C 218.218,426.715 214.384,422.382 210,418.5C 209.667,419.167 209.333,419.833 209,420.5C 206.932,418.438 204.432,417.272 201.5,417C 199.075,413.294 195.908,410.46 192,408.5C 191.409,407.517 191.743,406.85 193,406.5C 194.872,407.068 196.705,407.735 198.5,408.5C 200.256,408.64 201.922,408.14 203.5,407C 199.897,404.033 195.897,401.866 191.5,400.5C 196.842,401.504 202.175,402.504 207.5,403.5C 207.338,405.527 207.505,407.527 208,409.5C 210.761,408.501 212.094,406.501 212,403.5C 218.767,398.321 221.267,391.654 219.5,383.5C 222.734,383.763 224.068,382.263 223.5,379C 223.16,374.64 221.993,374.473 220,378.5C 219.501,374.848 219.335,371.182 219.5,367.5C 220.833,367.5 222.167,367.5 223.5,367.5C 223.338,369.527 223.505,371.527 224,373.5C 227.059,371.551 229.893,369.551 232.5,367.5C 232.651,363.686 234.651,362.019 238.5,362.5C 238.822,360.278 238.155,358.444 236.5,357C 237.449,356.383 238.282,356.549 239,357.5C 239.333,359.833 239.667,362.167 240,364.5C 243.203,359.018 247.537,358.018 253,361.5C 256.077,361.633 259.244,361.3 262.5,360.5C 261.821,358.332 260.821,356.332 259.5,354.5C 259.833,353.833 260.167,353.167 260.5,352.5C 261.62,353.833 262.953,354.333 264.5,354C 265.698,351.336 267.031,348.836 268.5,346.5 Z"/></g>
<g><path style="opacity:1" fill="#0d0100" d="M 280.5,367.5 C 282.433,369.937 284.6,372.271 287,374.5C 287.495,376.473 287.662,378.473 287.5,380.5C 281.788,380.456 276.121,380.289 270.5,380C 269.577,382.041 269.244,384.208 269.5,386.5C 268.754,389.139 267.754,391.806 266.5,394.5C 265.998,395.521 265.332,395.688 264.5,395C 261.898,390.19 260.898,385.024 261.5,379.5C 255.178,378.986 248.845,378.653 242.5,378.5C 242.963,375.518 243.296,372.518 243.5,369.5C 244.21,367.107 244.877,364.607 245.5,362C 251.033,361.799 256.033,363.299 260.5,366.5C 261.696,364.855 262.696,363.189 263.5,361.5C 265.384,360.618 266.717,359.118 267.5,357C 270.157,356.825 272.824,356.992 275.5,357.5C 274.312,362.431 275.978,365.764 280.5,367.5 Z"/></g>
<g><path style="opacity:1" fill="#2a1a15" d="M 162.5,335.5 C 167.61,336.588 172.61,337.588 177.5,338.5C 174.544,339.137 171.544,339.637 168.5,340C 167.027,340.71 166.36,341.876 166.5,343.5C 167.028,344.721 167.695,345.887 168.5,347C 167.013,360.516 167.513,374.016 170,387.5C 171.617,388.536 171.784,389.703 170.5,391C 173.408,398.075 178.408,402.909 185.5,405.5C 186.925,406.922 187.925,408.589 188.5,410.5C 182.785,406.312 176.785,402.645 170.5,399.5C 167.51,394.529 165.51,389.196 164.5,383.5C 165.316,367.367 164.649,351.367 162.5,335.5 Z"/></g>
<g><path style="opacity:1" fill="#381c0c" d="M 237.5,335.5 C 238.167,335.5 238.833,335.5 239.5,335.5C 239.762,336.978 239.429,338.311 238.5,339.5C 235.301,341.655 233.468,344.322 233,347.5C 232.309,345.109 231.309,345.109 230,347.5C 228.688,344.762 226.522,343.428 223.5,343.5C 223.5,344.833 223.5,346.167 223.5,347.5C 218.125,347.172 212.792,347.505 207.5,348.5C 228.706,350.809 228.706,351.809 207.5,351.5C 207.5,354.5 207.5,357.5 207.5,360.5C 204.515,361.565 202.015,360.565 200,357.5C 199.724,363.961 200.558,370.294 202.5,376.5C 203.85,377.95 205.516,378.617 207.5,378.5C 207.472,380.582 208.139,382.416 209.5,384C 208.707,385.085 208.04,386.252 207.5,387.5C 209.167,388.667 210.833,389.833 212.5,391C 211.207,391.49 209.873,391.657 208.5,391.5C 208.89,395.394 208.223,399.06 206.5,402.5C 202.909,400.034 198.909,399.034 194.5,399.5C 194.662,397.473 194.495,395.473 194,393.5C 190.73,385.47 187.897,377.137 185.5,368.5C 187.396,367.534 189.396,367.201 191.5,367.5C 191.804,364.767 190.637,363.101 188,362.5C 185.61,363.278 183.443,364.445 181.5,366C 181.641,369.026 181.141,372.193 180,375.5C 178.784,371.878 177.284,368.378 175.5,365C 175.759,363.739 176.426,362.739 177.5,362C 176.572,361.612 175.905,360.945 175.5,360C 177.519,358.312 179.186,356.312 180.5,354C 181.784,353.316 182.951,353.483 184,354.5C 188.262,350.119 193.429,347.452 199.5,346.5C 199.291,345.914 198.957,345.414 198.5,345C 194.493,343.702 190.493,342.535 186.5,341.5C 202.662,340.669 218.995,340.169 235.5,340C 236.582,338.67 237.249,337.17 237.5,335.5 Z"/></g>
<g><path style="opacity:1" fill="#465765" d="M 369.5,329.5 C 366.585,331.587 364.085,334.254 362,337.5C 361.624,352.841 361.124,368.175 360.5,383.5C 360.167,383.5 359.833,383.5 359.5,383.5C 359.5,367.5 359.5,351.5 359.5,335.5C 361.936,332.22 365.269,330.22 369.5,329.5 Z"/></g>
<g><path style="opacity:1" fill="#371b10" d="M 186.5,341.5 C 190.493,342.535 194.493,343.702 198.5,345C 198.957,345.414 199.291,345.914 199.5,346.5C 193.429,347.452 188.262,350.119 184,354.5C 182.951,353.483 181.784,353.316 180.5,354C 179.186,356.312 177.519,358.312 175.5,360C 175.905,360.945 176.572,361.612 177.5,362C 176.426,362.739 175.759,363.739 175.5,365C 177.284,368.378 178.784,371.878 180,375.5C 181.141,372.193 181.641,369.026 181.5,366C 183.443,364.445 185.61,363.278 188,362.5C 190.637,363.101 191.804,364.767 191.5,367.5C 189.396,367.201 187.396,367.534 185.5,368.5C 187.897,377.137 190.73,385.47 194,393.5C 194.495,395.473 194.662,397.473 194.5,399.5C 193.209,399.263 192.209,399.596 191.5,400.5C 195.897,401.866 199.897,404.033 203.5,407C 201.922,408.14 200.256,408.64 198.5,408.5C 196.705,407.735 194.872,407.068 193,406.5C 191.743,406.85 191.409,407.517 192,408.5C 195.908,410.46 199.075,413.294 201.5,417C 204.432,417.272 206.932,418.438 209,420.5C 209.333,419.833 209.667,419.167 210,418.5C 214.384,422.382 218.218,426.715 221.5,431.5C 211.067,423.582 200.067,416.582 188.5,410.5C 187.925,408.589 186.925,406.922 185.5,405.5C 183.027,403.857 181.027,401.69 179.5,399C 180.022,398.439 180.355,397.772 180.5,397C 177.559,392.804 176.893,388.304 178.5,383.5C 177.5,383.5 176.5,383.5 175.5,383.5C 175.664,380.813 175.497,378.146 175,375.5C 174.83,377.715 174.163,379.715 173,381.5C 172.317,376.766 171.317,372.1 170,367.5C 168.874,360.079 169.708,352.912 172.5,346C 172.257,345.098 171.923,344.265 171.5,343.5C 172.397,342.402 173.23,342.402 174,343.5C 174.833,342.5 175.667,341.5 176.5,340.5C 179.786,340.338 183.12,340.671 186.5,341.5 Z"/></g>
<g><path style="opacity:1" fill="#5f7e8d" d="M 369.5,329.5 C 370.167,329.5 370.833,329.5 371.5,329.5C 370.489,331.372 369.655,333.372 369,335.5C 368.667,334.833 368.333,334.167 368,333.5C 367.781,334.938 367.281,336.271 366.5,337.5C 365.914,337.291 365.414,336.957 365,336.5C 364.543,339.796 363.709,342.963 362.5,346C 363.448,350.789 363.448,355.789 362.5,361C 363.167,364.667 363.833,368.333 364.5,372C 362.877,373.876 363.21,375.21 365.5,376C 364.422,376.674 363.755,377.674 363.5,379C 363.851,382.104 364.351,381.937 365,378.5C 365.645,379.646 366.478,380.646 367.5,381.5C 366.04,384.951 366.373,385.617 368.5,383.5C 370.08,386.574 371.414,389.741 372.5,393C 373.635,393.749 374.635,393.583 375.5,392.5C 374.689,391.784 374.022,390.95 373.5,390C 375.013,388.121 375.679,385.954 375.5,383.5C 376.675,383.719 377.675,383.386 378.5,382.5C 377.754,381.264 377.421,379.93 377.5,378.5C 379.5,378.5 381.5,378.5 383.5,378.5C 383.5,380.167 383.5,381.833 383.5,383.5C 384.833,383.5 386.167,383.5 387.5,383.5C 387.5,388.833 387.5,394.167 387.5,399.5C 386.167,399.5 384.833,399.5 383.5,399.5C 383.5,410.167 383.5,420.833 383.5,431.5C 381.167,431.5 378.833,431.5 376.5,431.5C 375.697,436.476 372.864,439.809 368,441.5C 368.081,448.704 367.248,455.704 365.5,462.5C 365,462.833 364.5,463.167 364,463.5C 362.48,462.303 361.313,460.803 360.5,459C 356.329,458.883 352.662,457.717 349.5,455.5C 349.657,454.127 349.49,452.793 349,451.5C 344.558,450.716 342.724,448.05 343.5,443.5C 338.131,444.007 332.798,444.841 327.5,446C 327.833,446.333 328.167,446.667 328.5,447C 324.911,447.037 321.578,447.87 318.5,449.5C 317.914,449.291 317.414,448.957 317,448.5C 314.169,450.188 311.336,450.855 308.5,450.5C 307.25,450.577 306.417,451.244 306,452.5C 301.71,451.295 297.543,451.795 293.5,454C 290.502,456.809 288.169,459.976 286.5,463.5C 286.41,460.848 287.076,458.515 288.5,456.5C 290.5,455.167 292.167,453.5 293.5,451.5C 296.505,449.723 299.838,448.723 303.5,448.5C 304.695,448.322 305.862,447.989 307,447.5C 307.945,447.905 308.612,448.572 309,449.5C 313.201,446.793 317.701,444.793 322.5,443.5C 328.77,437.036 335.77,431.536 343.5,427C 347.826,423.34 351.826,419.34 355.5,415C 355.043,414.586 354.709,414.086 354.5,413.5C 355.922,407 357.755,400.667 360,394.5C 360.499,390.848 360.665,387.182 360.5,383.5C 361.124,368.175 361.624,352.841 362,337.5C 364.085,334.254 366.585,331.587 369.5,329.5 Z"/></g>
<g><path style="opacity:1" fill="#251912" d="M 303.5,336.5 C 306.962,335.518 310.629,335.185 314.5,335.5C 324.172,335.334 333.839,335.5 343.5,336C 344,336.5 344.5,337 345,337.5C 345.841,354.86 345.507,372.194 344,389.5C 343.027,391.392 342.36,393.392 342,395.5C 338.775,397.597 336.775,400.597 336,404.5C 332.485,405.495 330.319,407.828 329.5,411.5C 327.581,412.612 325.914,413.946 324.5,415.5C 326.905,411.877 328.739,407.877 330,403.5C 331.257,401.254 333.09,399.921 335.5,399.5C 335.192,397.076 335.526,394.743 336.5,392.5C 338.899,389.589 339.566,386.422 338.5,383C 340.006,373.273 341.673,363.606 343.5,354C 343.431,348.446 341.431,343.779 337.5,340C 326.379,336.922 315.046,335.755 303.5,336.5 Z"/></g>
<g><path style="opacity:1" fill="#411a14" d="M 241.5,378.5 C 247.276,379.23 253.11,380.23 259,381.5C 260.41,387.379 260.91,393.379 260.5,399.5C 258.577,403.029 257.911,407.029 258.5,411.5C 252.969,409.601 247.469,407.601 242,405.5C 241.692,406.308 241.192,406.975 240.5,407.5C 239.048,404.718 239.381,402.218 241.5,400C 238.183,399.502 234.85,399.335 231.5,399.5C 231.187,396.753 231.52,394.086 232.5,391.5C 233.382,392.76 234.382,393.926 235.5,395C 238.232,395.905 238.899,395.238 237.5,393C 239.877,390.019 240.544,386.852 239.5,383.5C 244.371,383.422 244.371,382.255 239.5,380C 240.044,379.283 240.711,378.783 241.5,378.5 Z"/></g>
<g><path style="opacity:1" fill="#481a13" d="M 267.5,403.5 C 268.403,400.609 268.736,397.609 268.5,394.5C 269.338,394.158 269.672,393.492 269.5,392.5C 271.414,389.316 272.08,385.649 271.5,381.5C 275.348,381.24 279.015,381.906 282.5,383.5C 284.187,383.24 285.687,382.573 287,381.5C 286.693,386.098 288.193,389.931 291.5,393C 288.36,394 287.027,396.167 287.5,399.5C 283.684,400.244 280.684,402.244 278.5,405.5C 278.167,404.833 277.833,404.167 277.5,403.5C 275.556,404.189 273.556,404.689 271.5,405C 272.336,406.243 272.003,407.41 270.5,408.5C 268.949,407.2 267.949,405.533 267.5,403.5 Z"/></g>
<g><path style="opacity:1" fill="#546875" d="M 153.5,372.5 C 155.124,381.379 157.79,390.045 161.5,398.5C 158.299,396.694 156.132,394.027 155,390.5C 154.169,384.523 153.669,378.523 153.5,372.5 Z"/></g>
<g><path style="opacity:1" fill="#401b0f" d="M 287.5,359.5 C 287.335,362.85 287.502,366.183 288,369.5C 289.333,372.167 290.667,374.833 292,377.5C 292.333,377.167 292.667,376.833 293,376.5C 293.25,381.994 294.917,386.994 298,391.5C 300.048,390.577 301.881,391.077 303.5,393C 299.633,397.698 295.967,402.531 292.5,407.5C 290.49,409.171 288.157,409.838 285.5,409.5C 285.328,411.492 285.995,413.158 287.5,414.5C 286.675,415.386 285.675,415.719 284.5,415.5C 279.005,414.67 273.671,413.003 268.5,410.5C 267.482,411.193 266.482,411.859 265.5,412.5C 265.215,409.171 265.882,406.171 267.5,403.5C 267.949,405.533 268.949,407.2 270.5,408.5C 272.003,407.41 272.336,406.243 271.5,405C 273.556,404.689 275.556,404.189 277.5,403.5C 277.833,404.167 278.167,404.833 278.5,405.5C 280.684,402.244 283.684,400.244 287.5,399.5C 287.027,396.167 288.36,394 291.5,393C 288.193,389.931 286.693,386.098 287,381.5C 285.687,382.573 284.187,383.24 282.5,383.5C 279.015,381.906 275.348,381.24 271.5,381.5C 272.08,385.649 271.414,389.316 269.5,392.5C 269.5,390.5 269.5,388.5 269.5,386.5C 269.244,384.208 269.577,382.041 270.5,380C 276.121,380.289 281.788,380.456 287.5,380.5C 287.662,378.473 287.495,376.473 287,374.5C 284.6,372.271 282.433,369.937 280.5,367.5C 279.833,365.5 279.167,363.5 278.5,361.5C 278.5,359.5 278.5,357.5 278.5,355.5C 279.675,355.281 280.675,355.614 281.5,356.5C 282.281,360.224 284.281,361.224 287.5,359.5 Z"/></g>
<g><path style="opacity:1" fill="#2e130d" d="M 243.5,369.5 C 243.296,372.518 242.963,375.518 242.5,378.5C 248.845,378.653 255.178,378.986 261.5,379.5C 260.898,385.024 261.898,390.19 264.5,395C 265.332,395.688 265.998,395.521 266.5,394.5C 267.754,391.806 268.754,389.139 269.5,386.5C 269.5,388.5 269.5,390.5 269.5,392.5C 269.672,393.492 269.338,394.158 268.5,394.5C 267.559,399.14 265.726,403.473 263,407.5C 260.977,405.231 260.144,402.564 260.5,399.5C 260.91,393.379 260.41,387.379 259,381.5C 253.11,380.23 247.276,379.23 241.5,378.5C 241.42,375.219 242.087,372.219 243.5,369.5 Z"/></g>
<g><path style="opacity:1" fill="#0e0d0a" d="M 323.5,417.5 C 323.833,416.833 324.167,416.167 324.5,415.5C 325.914,413.946 327.581,412.612 329.5,411.5C 330.319,407.828 332.485,405.495 336,404.5C 336.775,400.597 338.775,397.597 342,395.5C 342.36,393.392 343.027,391.392 344,389.5C 345.507,372.194 345.841,354.86 345,337.5C 344.5,337 344,336.5 343.5,336C 333.839,335.5 324.172,335.334 314.5,335.5C 324.657,334.255 334.99,333.755 345.5,334C 346.872,335.242 347.872,336.742 348.5,338.5C 347.398,349.778 347.398,361.278 348.5,373C 347.374,378.297 346.374,383.63 345.5,389C 345.603,390.561 345.937,392.061 346.5,393.5C 343.622,397.387 341.788,401.72 341,406.5C 335.949,411.423 330.116,415.09 323.5,417.5 Z"/></g>
<g><path style="opacity:1" fill="#597687" d="M 130.5,308.5 C 131.728,309.306 132.728,310.306 133.5,311.5C 135.833,314.833 138.167,318.167 140.5,321.5C 140.476,325.787 141.81,329.453 144.5,332.5C 145.694,335.451 146.694,338.451 147.5,341.5C 148.667,348.642 150,355.642 151.5,362.5C 152.793,365.679 153.46,369.012 153.5,372.5C 153.669,378.523 154.169,384.523 155,390.5C 156.132,394.027 158.299,396.694 161.5,398.5C 164.757,402.935 168.257,407.268 172,411.5C 171.611,444.827 171.111,478.16 170.5,511.5C 170.167,511.5 169.833,511.5 169.5,511.5C 169.759,484.818 169.426,458.152 168.5,431.5C 167.5,431.5 166.5,431.5 165.5,431.5C 165.828,436.875 165.495,442.208 164.5,447.5C 164.107,437.319 163.773,427.153 163.5,417C 163.759,415.739 164.426,414.739 165.5,414C 162.9,413.117 160.733,411.617 159,409.5C 157.647,410.685 156.48,412.019 155.5,413.5C 154.447,412.562 153.78,411.395 153.5,410C 154.943,407.922 154.276,407.089 151.5,407.5C 151.489,405.453 151.156,403.453 150.5,401.5C 152.458,398.697 152.124,395.864 149.5,393C 150.097,391.938 150.43,390.772 150.5,389.5C 148.939,382.607 148.106,375.607 148,368.5C 146.989,367.663 145.822,367.33 144.5,367.5C 144.551,361.466 145.551,355.632 147.5,350C 147.095,349.055 146.428,348.388 145.5,348C 146.255,344.128 145.755,340.295 144,336.5C 141.354,332.241 138.854,327.908 136.5,323.5C 137.954,321.333 137.788,319.333 136,317.5C 135.692,318.308 135.192,318.975 134.5,319.5C 133.269,318.349 133.269,317.183 134.5,316C 133.551,315.383 132.718,315.549 132,316.5C 130.842,316.002 130.009,315.169 129.5,314C 130.233,312.234 130.567,310.401 130.5,308.5 Z"/></g>
<g><path style="opacity:1" fill="#3e2110" d="M 265.5,412.5 C 266.482,411.859 267.482,411.193 268.5,410.5C 273.671,413.003 279.005,414.67 284.5,415.5C 282.69,419.31 282.19,423.31 283,427.5C 283.383,428.056 283.883,428.389 284.5,428.5C 283.151,433.347 279.985,436.347 275,437.5C 274.167,436.5 273.333,435.5 272.5,434.5C 271.516,437.428 271.183,440.428 271.5,443.5C 267.06,444.437 262.727,444.77 258.5,444.5C 255.262,444.087 252.262,443.087 249.5,441.5C 248.446,441.68 247.446,442.013 246.5,442.5C 244.271,441.423 241.937,440.756 239.5,440.5C 238.5,440.5 237.5,440.5 236.5,440.5C 235.455,436.621 233.122,433.787 229.5,432C 229.608,427.112 227.275,424.445 222.5,424C 224.473,423.505 226.473,423.338 228.5,423.5C 228.5,420.833 228.5,418.167 228.5,415.5C 232.167,415.5 235.833,415.5 239.5,415.5C 239.5,413.167 239.5,410.833 239.5,408.5C 245.101,411.376 251.101,413.709 257.5,415.5C 258.647,415.182 259.481,414.516 260,413.5C 262.265,416.132 264.099,415.799 265.5,412.5 Z"/></g>
<g><path style="opacity:1" fill="#301f19" d="M 319.5,415.5 C 321.167,415.5 322.833,415.5 324.5,415.5C 324.167,416.167 323.833,416.833 323.5,417.5C 320.333,420.498 317,423.331 313.5,426C 303.572,428.926 295.572,434.593 289.5,443C 277.496,447.02 265.163,448.353 252.5,447C 247.899,445.943 243.566,444.443 239.5,442.5C 246.436,443.009 253.103,444.342 259.5,446.5C 268.532,445.856 277.366,444.189 286,441.5C 288.661,438.673 291.495,436.006 294.5,433.5C 295.005,430.812 296.338,428.645 298.5,427C 302.033,426.126 305.366,424.792 308.5,423C 312.319,420.674 315.985,418.174 319.5,415.5 Z"/></g>
<g><path style="opacity:1" fill="#3a1e14" d="M 335.5,367.5 C 335.33,368.822 335.663,369.989 336.5,371C 335.691,376.417 335.191,381.917 335,387.5C 333.68,389.817 332.014,391.817 330,393.5C 329.505,395.473 329.338,397.473 329.5,399.5C 328.5,399.5 327.5,399.5 326.5,399.5C 324.351,404.507 322.018,409.84 319.5,415.5C 315.985,418.174 312.319,420.674 308.5,423C 305.366,424.792 302.033,426.126 298.5,427C 296.338,428.645 295.005,430.812 294.5,433.5C 291.495,436.006 288.661,438.673 286,441.5C 277.366,444.189 268.532,445.856 259.5,446.5C 253.103,444.342 246.436,443.009 239.5,442.5C 239.5,441.833 239.5,441.167 239.5,440.5C 241.937,440.756 244.271,441.423 246.5,442.5C 247.446,442.013 248.446,441.68 249.5,441.5C 252.262,443.087 255.262,444.087 258.5,444.5C 262.727,444.77 267.06,444.437 271.5,443.5C 271.183,440.428 271.516,437.428 272.5,434.5C 273.333,435.5 274.167,436.5 275,437.5C 279.985,436.347 283.151,433.347 284.5,428.5C 292.893,427.459 299.226,423.125 303.5,415.5C 306.5,415.5 309.5,415.5 312.5,415.5C 312.409,409.425 315.409,406.592 321.5,407C 320.167,404.667 318.833,402.333 317.5,400C 319.632,398.413 321.798,396.913 324,395.5C 324.49,394.207 324.657,392.873 324.5,391.5C 323.5,391.5 322.5,391.5 321.5,391.5C 321.688,393.103 321.188,394.437 320,395.5C 320.214,392.94 320.214,390.274 320,387.5C 321.734,386.751 323.567,386.251 325.5,386C 324.833,385.333 324.167,384.667 323.5,384C 324.406,382.301 324.739,380.467 324.5,378.5C 325.67,376.721 327.336,375.721 329.5,375.5C 329.215,373.712 329.548,372.045 330.5,370.5C 331.167,371.167 331.833,371.833 332.5,372.5C 333.696,370.855 334.696,369.189 335.5,367.5 Z"/></g>
<g><path style="opacity:1" fill="#526a76" d="M 359.5,383.5 C 359.833,383.5 360.167,383.5 360.5,383.5C 360.665,387.182 360.499,390.848 360,394.5C 357.755,400.667 355.922,407 354.5,413.5C 354.709,414.086 355.043,414.586 355.5,415C 351.826,419.34 347.826,423.34 343.5,427C 335.77,431.536 328.77,437.036 322.5,443.5C 317.701,444.793 313.201,446.793 309,449.5C 308.612,448.572 307.945,447.905 307,447.5C 305.862,447.989 304.695,448.322 303.5,448.5C 313.897,443.464 323.897,437.631 333.5,431C 337,428.666 340,425.832 342.5,422.5C 353.804,411.91 359.471,398.91 359.5,383.5 Z"/></g>
<g><path style="opacity:1" fill="#5c8090" d="M 89.5,431.5 C 91.5,431.5 93.5,431.5 95.5,431.5C 95.5,444.833 95.5,458.167 95.5,471.5C 101.5,470.833 104.167,473.5 103.5,479.5C 114.833,479.5 126.167,479.5 137.5,479.5C 137.178,481.722 137.845,483.556 139.5,485C 145.757,487.555 152.09,488.388 158.5,487.5C 157.595,493.612 157.095,499.612 157,505.5C 152.599,506.467 148.099,506.8 143.5,506.5C 143.5,505.5 143.5,504.5 143.5,503.5C 141.712,503.785 140.045,503.452 138.5,502.5C 137.192,497.728 134.859,493.561 131.5,490C 124.982,488.34 118.315,487.507 111.5,487.5C 104.418,487.879 97.4182,488.379 90.5,489C 87.382,487.107 84.0487,485.774 80.5,485C 79.5939,483.301 79.2606,481.467 79.5,479.5C 77.1667,479.5 74.8333,479.5 72.5,479.5C 71.4233,476.474 71.4233,473.474 72.5,470.5C 71.3333,468.833 70.1667,467.167 69,465.5C 68.0266,467.392 67.3599,469.392 67,471.5C 65.4563,468.829 64.2897,465.996 63.5,463C 66.1667,461.333 66.1667,459.667 63.5,458C 70.9069,456.104 78.4069,454.937 86,454.5C 87.0977,450.672 88.5977,447.006 90.5,443.5C 89.5672,439.571 89.2338,435.571 89.5,431.5 Z"/></g>
<g><path style="opacity:1" fill="#0d0a06" d="M 192.5,428.5 C 189.583,429.291 186.75,429.291 184,428.5C 182.496,430.099 182.33,431.932 183.5,434C 183.231,435.607 182.397,436.774 181,437.5C 180.349,446.404 180.849,455.237 182.5,464C 181.832,477.028 180.832,490.028 179.5,503C 179.393,505.221 180.06,507.054 181.5,508.5C 181.5,509.5 181.5,510.5 181.5,511.5C 180.5,511.5 179.5,511.5 178.5,511.5C 177.901,483.528 178.068,455.528 179,427.5C 179.453,425.245 180.786,423.911 183,423.5C 186.571,424.515 189.738,426.181 192.5,428.5 Z"/></g>
<g><path style="opacity:1" fill="#658395" d="M 308.5,450.5 C 308.36,452.124 309.027,453.29 310.5,454C 308.975,455.009 307.308,455.509 305.5,455.5C 305.682,457.675 306.349,459.675 307.5,461.5C 307.255,463.663 306.255,465.33 304.5,466.5C 303.508,470.783 303.174,475.116 303.5,479.5C 301.833,479.5 300.167,479.5 298.5,479.5C 296.826,484.531 294.826,489.531 292.5,494.5C 291.635,495.583 290.635,495.749 289.5,495C 290.337,493.989 290.67,492.822 290.5,491.5C 289.5,491.5 288.5,491.5 287.5,491.5C 287.629,495.878 287.629,500.045 287.5,504C 288.833,505 290.167,506 291.5,507C 296.167,507.167 300.833,507.333 305.5,507.5C 310.585,507.469 315.418,506.802 320,505.5C 323.085,506.416 324.918,508.416 325.5,511.5C 309.5,511.5 293.5,511.5 277.5,511.5C 278.576,501.124 279.909,490.791 281.5,480.5C 283.703,475.203 285.37,469.536 286.5,463.5C 288.169,459.976 290.502,456.809 293.5,454C 297.543,451.795 301.71,451.295 306,452.5C 306.417,451.244 307.25,450.577 308.5,450.5 Z"/></g>
<g><path style="opacity:1" fill="#42505b" d="M 293.5,451.5 C 292.167,453.5 290.5,455.167 288.5,456.5C 289.167,453.833 290.833,452.167 293.5,451.5 Z"/></g>
<g><path style="opacity:1" fill="#34180d" d="M 196.5,435.5 C 197.167,435.5 197.833,435.5 198.5,435.5C 211.288,444.448 223.955,453.615 236.5,463C 237.448,463.483 238.448,463.649 239.5,463.5C 239.5,463.833 239.5,464.167 239.5,464.5C 242.335,467.828 245.668,470.662 249.5,473C 247.701,474.036 246.034,474.203 244.5,473.5C 240.652,470.133 238.986,471.133 239.5,476.5C 236.324,476.33 234.324,474.663 233.5,471.5C 230.763,469.726 228.096,468.059 225.5,466.5C 225.5,468.167 225.5,469.833 225.5,471.5C 226.833,471.5 228.167,471.5 229.5,471.5C 229.343,472.873 229.51,474.207 230,475.5C 232.314,478.067 234.481,480.733 236.5,483.5C 235.054,485.618 234.387,487.951 234.5,490.5C 229.395,491.561 226.228,489.561 225,484.5C 219.866,481.852 215.866,477.852 213,472.5C 212.667,472.833 212.333,473.167 212,473.5C 211.667,469.833 211.333,466.167 211,462.5C 210.311,461.643 209.478,460.977 208.5,460.5C 207.675,464.122 207.175,467.789 207,471.5C 206.581,472.672 205.915,473.672 205,474.5C 204.705,471.895 203.871,469.229 202.5,466.5C 203.552,466.649 204.552,466.483 205.5,466C 202.909,462.248 201.242,458.081 200.5,453.5C 201.247,453.264 202.08,452.93 203,452.5C 203.402,451.128 203.902,449.795 204.5,448.5C 202.618,448.642 200.618,448.142 198.5,447C 198.833,446.667 199.167,446.333 199.5,446C 197.21,445.21 196.877,443.876 198.5,442C 196.673,439.933 196.007,437.766 196.5,435.5 Z"/></g>
<g><path style="opacity:1" fill="#170f09" d="M 192.5,428.5 C 193.167,429.5 193.833,430.5 194.5,431.5C 193.5,431.5 192.5,431.5 191.5,431.5C 191.762,432.978 191.429,434.311 190.5,435.5C 188.53,434.557 187.03,435.224 186,437.5C 186.359,453.889 185.859,470.389 184.5,487C 184.585,488.107 184.919,489.107 185.5,490C 183.645,496.061 182.312,502.228 181.5,508.5C 180.06,507.054 179.393,505.221 179.5,503C 180.832,490.028 181.832,477.028 182.5,464C 180.849,455.237 180.349,446.404 181,437.5C 182.397,436.774 183.231,435.607 183.5,434C 182.33,431.932 182.496,430.099 184,428.5C 186.75,429.291 189.583,429.291 192.5,428.5 Z"/></g>
<g><path style="opacity:1" fill="#341a0e" d="M 196.5,435.5 C 196.007,437.766 196.673,439.933 198.5,442C 196.877,443.876 197.21,445.21 199.5,446C 199.167,446.333 198.833,446.667 198.5,447C 200.618,448.142 202.618,448.642 204.5,448.5C 203.902,449.795 203.402,451.128 203,452.5C 202.08,452.93 201.247,453.264 200.5,453.5C 201.242,458.081 202.909,462.248 205.5,466C 204.552,466.483 203.552,466.649 202.5,466.5C 203.871,469.229 204.705,471.895 205,474.5C 205.915,473.672 206.581,472.672 207,471.5C 207.175,467.789 207.675,464.122 208.5,460.5C 209.478,460.977 210.311,461.643 211,462.5C 211.333,466.167 211.667,469.833 212,473.5C 212.333,473.167 212.667,472.833 213,472.5C 215.866,477.852 219.866,481.852 225,484.5C 226.228,489.561 229.395,491.561 234.5,490.5C 234.387,487.951 235.054,485.618 236.5,483.5C 234.481,480.733 232.314,478.067 230,475.5C 229.51,474.207 229.343,472.873 229.5,471.5C 228.167,471.5 226.833,471.5 225.5,471.5C 225.5,469.833 225.5,468.167 225.5,466.5C 228.096,468.059 230.763,469.726 233.5,471.5C 234.324,474.663 236.324,476.33 239.5,476.5C 238.986,471.133 240.652,470.133 244.5,473.5C 242.317,475.423 240.651,477.257 239.5,479C 241.399,481.453 243.066,484.12 244.5,487C 242.893,488.049 242.227,489.549 242.5,491.5C 238.367,491.384 235.034,492.884 232.5,496C 234.619,498.393 237.285,499.726 240.5,500C 241.337,501.011 241.67,502.178 241.5,503.5C 242.675,503.281 243.675,503.614 244.5,504.5C 242.855,505.696 241.189,506.696 239.5,507.5C 227.908,506.632 216.241,506.298 204.5,506.5C 200.03,505.697 197.697,503.031 197.5,498.5C 197.068,494.501 196.068,490.668 194.5,487C 195.308,486.692 195.975,486.192 196.5,485.5C 196.321,479.565 196.154,473.565 196,467.5C 195,468.833 194,468.833 193,467.5C 192.667,468.167 192.333,468.833 192,469.5C 191.5,461.841 191.334,454.174 191.5,446.5C 192.833,446.5 194.167,446.5 195.5,446.5C 195.726,443.751 195.393,441.084 194.5,438.5C 194.942,437.261 195.609,436.261 196.5,435.5 Z"/></g>
<g><path style="opacity:1" fill="#4f626e" d="M 286.5,463.5 C 285.37,469.536 283.703,475.203 281.5,480.5C 282.187,474.448 283.854,468.782 286.5,463.5 Z"/></g>
<g><path style="opacity:1" fill="#2d190d" d="M 195.5,432.5 C 196.306,433.728 197.306,434.728 198.5,435.5C 197.833,435.5 197.167,435.5 196.5,435.5C 195.609,436.261 194.942,437.261 194.5,438.5C 195.393,441.084 195.726,443.751 195.5,446.5C 194.167,446.5 192.833,446.5 191.5,446.5C 191.334,454.174 191.5,461.841 192,469.5C 192.333,468.833 192.667,468.167 193,467.5C 194,468.833 195,468.833 196,467.5C 196.154,473.565 196.321,479.565 196.5,485.5C 195.975,486.192 195.308,486.692 194.5,487C 196.068,490.668 197.068,494.501 197.5,498.5C 195.606,497.952 193.94,496.952 192.5,495.5C 191.673,491.541 191.173,487.541 191,483.5C 190.209,484.745 189.709,486.078 189.5,487.5C 188.983,473.879 188.483,460.212 188,446.5C 187.907,443.044 188.907,440.044 191,437.5C 191.333,437.833 191.667,438.167 192,438.5C 192.008,435.655 193.175,433.655 195.5,432.5 Z"/></g>
<g><path style="opacity:1" fill="#2e180f" d="M 239.5,464.5 C 244.676,467.224 250.01,469.558 255.5,471.5C 256.885,474.259 257.552,477.259 257.5,480.5C 256.37,488.505 255.203,496.505 254,504.5C 252.333,506.167 250.667,507.833 249,509.5C 248.617,508.944 248.117,508.611 247.5,508.5C 244.98,508.636 242.314,508.302 239.5,507.5C 241.189,506.696 242.855,505.696 244.5,504.5C 243.675,503.614 242.675,503.281 241.5,503.5C 241.67,502.178 241.337,501.011 240.5,500C 237.285,499.726 234.619,498.393 232.5,496C 235.034,492.884 238.367,491.384 242.5,491.5C 242.227,489.549 242.893,488.049 244.5,487C 243.066,484.12 241.399,481.453 239.5,479C 240.651,477.257 242.317,475.423 244.5,473.5C 246.034,474.203 247.701,474.036 249.5,473C 245.668,470.662 242.335,467.828 239.5,464.5 Z"/></g>
<g><path style="opacity:1" fill="#301d16" d="M 197.5,498.5 C 197.697,503.031 200.03,505.697 204.5,506.5C 216.241,506.298 227.908,506.632 239.5,507.5C 242.314,508.302 244.98,508.636 247.5,508.5C 247.5,509.5 247.5,510.5 247.5,511.5C 230.833,511.5 214.167,511.5 197.5,511.5C 197.804,510.85 198.137,510.183 198.5,509.5C 196.52,509.697 194.52,509.03 192.5,507.5C 191.571,506.311 191.238,504.978 191.5,503.5C 189.052,503.915 187.719,502.915 187.5,500.5C 189.185,496.345 189.851,492.012 189.5,487.5C 189.709,486.078 190.209,484.745 191,483.5C 191.173,487.541 191.673,491.541 192.5,495.5C 193.94,496.952 195.606,497.952 197.5,498.5 Z"/></g>
<g><path style="opacity:1" fill="#4a5963" d="M 281.5,480.5 C 279.909,490.791 278.576,501.124 277.5,511.5C 277.167,511.5 276.833,511.5 276.5,511.5C 276.773,500.822 278.44,490.489 281.5,480.5 Z"/></g>
<g><path style="opacity:1" fill="#251712" d="M 194.5,431.5 C 195.167,431.5 195.5,431.833 195.5,432.5C 193.175,433.655 192.008,435.655 192,438.5C 191.667,438.167 191.333,437.833 191,437.5C 188.907,440.044 187.907,443.044 188,446.5C 188.483,460.212 188.983,473.879 189.5,487.5C 189.851,492.012 189.185,496.345 187.5,500.5C 187.719,502.915 189.052,503.915 191.5,503.5C 191.238,504.978 191.571,506.311 192.5,507.5C 194.52,509.03 196.52,509.697 198.5,509.5C 198.137,510.183 197.804,510.85 197.5,511.5C 192.167,511.5 186.833,511.5 181.5,511.5C 181.5,510.5 181.5,509.5 181.5,508.5C 182.312,502.228 183.645,496.061 185.5,490C 184.919,489.107 184.585,488.107 184.5,487C 185.859,470.389 186.359,453.889 186,437.5C 187.03,435.224 188.53,434.557 190.5,435.5C 191.429,434.311 191.762,432.978 191.5,431.5C 192.5,431.5 193.5,431.5 194.5,431.5 Z"/></g>
<g><path style="opacity:1" fill="#0f0c08" d="M 239.5,464.5 C 239.5,464.167 239.5,463.833 239.5,463.5C 245.647,465.578 251.813,467.578 258,469.5C 259.76,475.095 261.26,480.761 262.5,486.5C 264.829,488.472 267.162,490.472 269.5,492.5C 268.559,492.489 267.892,492.989 267.5,494C 268.022,494.95 268.689,495.784 269.5,496.5C 268.217,499.318 268.217,502.152 269.5,505C 268.904,507.225 268.237,509.392 267.5,511.5C 264.833,511.5 262.167,511.5 259.5,511.5C 259.249,509.83 258.582,508.33 257.5,507C 257.716,496.283 257.883,485.45 258,474.5C 257.623,473.058 256.79,472.058 255.5,471.5C 250.01,469.558 244.676,467.224 239.5,464.5 Z"/></g>
<g><path style="opacity:1" fill="#20150e" d="M 255.5,471.5 C 256.79,472.058 257.623,473.058 258,474.5C 257.883,485.45 257.716,496.283 257.5,507C 258.582,508.33 259.249,509.83 259.5,511.5C 255.5,511.5 251.5,511.5 247.5,511.5C 247.5,510.5 247.5,509.5 247.5,508.5C 248.117,508.611 248.617,508.944 249,509.5C 250.667,507.833 252.333,506.167 254,504.5C 255.203,496.505 256.37,488.505 257.5,480.5C 257.552,477.259 256.885,474.259 255.5,471.5 Z"/></g>
</svg>
