<?xml version="1.0" encoding="UTF-8"?>
<!DOCTYPE svg PUBLIC "-//W3C//DTD SVG 1.1//EN" "http://www.w3.org/Graphics/SVG/1.1/DTD/svg11.dtd">
<svg xmlns="http://www.w3.org/2000/svg" version="1.1" width="512px" height="512px" style="shape-rendering:geometricPrecision; text-rendering:geometricPrecision; image-rendering:optimizeQuality; fill-rule:evenodd; clip-rule:evenodd" xmlns:xlink="http://www.w3.org/1999/xlink">
<g><path style="opacity:1" fill="#658697" d="M -0.5,-0.5 C 170.167,-0.5 340.833,-0.5 511.5,-0.5C 511.5,170.167 511.5,340.833 511.5,511.5C 435.167,511.5 358.833,511.5 282.5,511.5C 279.167,508.5 275.833,505.5 272.5,502.5C 275.86,494.563 277.193,486.229 276.5,477.5C 277.134,474.357 278.8,471.857 281.5,470C 287.445,468.838 293.445,468.338 299.5,468.5C 309.379,470.162 319.379,470.828 329.5,470.5C 341.854,470.549 354.187,470.715 366.5,471C 367.056,470.617 367.389,470.117 367.5,469.5C 378.371,465.636 387.204,458.969 394,449.5C 404.661,425.675 414.828,401.675 424.5,377.5C 425.117,377.389 425.617,377.056 426,376.5C 430.441,356.889 428.941,337.889 421.5,319.5C 408.443,282.356 395.61,245.022 383,207.5C 378.158,199.819 373.825,191.819 370,183.5C 363.797,171.722 355.297,162.056 344.5,154.5C 344.082,153.778 343.416,153.278 342.5,153C 339.518,152.502 336.518,152.335 333.5,152.5C 331.5,152.167 329.5,151.833 327.5,151.5C 327.611,150.883 327.944,150.383 328.5,150C 314.661,149.831 300.994,149.331 287.5,148.5C 298.526,147.189 309.693,147.189 321,148.5C 323.135,147.873 325.302,147.373 327.5,147C 328.207,144.457 329.54,142.291 331.5,140.5C 330.91,139.201 329.91,138.368 328.5,138C 324.778,137.762 321.111,137.262 317.5,136.5C 316.386,135.277 316.219,133.944 317,132.5C 318.501,130.631 320.001,128.797 321.5,127C 318.833,125.333 318.833,123.667 321.5,122C 319.833,121.333 318.167,121.333 316.5,122C 317.337,123.011 317.67,124.178 317.5,125.5C 311.677,124.4 310.01,121.067 312.5,115.5C 311.189,111.593 310.522,107.593 310.5,103.5C 309.167,103.5 307.833,103.5 306.5,103.5C 306.34,106.884 306.673,110.217 307.5,113.5C 307.281,114.938 306.781,116.271 306,117.5C 304.5,114.667 302.333,112.5 299.5,111C 295.018,111.063 290.852,110.23 287,108.5C 284.626,111.801 283.96,115.467 285,119.5C 286.112,121.39 286.946,123.39 287.5,125.5C 289.369,128.113 291.703,130.279 294.5,132C 293.547,133.955 292.213,135.622 290.5,137C 284.864,138.236 279.864,137.07 275.5,133.5C 273.431,133.824 273.098,134.658 274.5,136C 271.941,139.039 270.774,138.206 271,133.5C 269.354,134.779 268.187,136.445 267.5,138.5C 264.196,138.678 262.529,140.344 262.5,143.5C 243.129,143.828 225.796,143.828 210.5,143.5C 210.327,140.821 209.327,138.487 207.5,136.5C 208.687,135.481 209.687,134.314 210.5,133C 212.521,132.86 214.355,132.693 216,132.5C 216.192,134.577 216.692,136.577 217.5,138.5C 217.833,138.333 218.167,138.167 218.5,138C 219.456,134.606 219.789,131.106 219.5,127.5C 220.833,127.5 222.167,127.5 223.5,127.5C 223.799,125.396 223.466,123.396 222.5,121.5C 220.5,125.5 218.5,125.5 216.5,121.5C 214.102,122.898 212.435,124.898 211.5,127.5C 210.852,125.851 209.852,124.518 208.5,123.5C 207.686,121.234 207.186,118.9 207,116.5C 204.556,119.054 202.889,122.054 202,125.5C 201.044,124.421 200.211,123.255 199.5,122C 196.498,120.719 193.665,119.219 191,117.5C 189.206,119.434 187.206,121.101 185,122.5C 182.964,122.046 181.13,121.213 179.5,120C 180.308,119.692 180.975,119.192 181.5,118.5C 180.311,117.571 178.978,117.238 177.5,117.5C 177.313,115.436 176.813,113.436 176,111.5C 175.502,114.482 175.335,117.482 175.5,120.5C 172.833,121.833 170.167,121.833 167.5,120.5C 167.5,121.5 167.5,122.5 167.5,123.5C 163.818,123.335 160.152,123.501 156.5,124C 155.359,124.741 155.359,125.575 156.5,126.5C 155.675,127.386 154.675,127.719 153.5,127.5C 153.719,128.675 153.386,129.675 152.5,130.5C 151.692,128.577 151.192,126.577 151,124.5C 149.354,125.941 149.187,127.608 150.5,129.5C 150.27,133.483 148.937,134.149 146.5,131.5C 145.522,131.977 144.689,132.643 144,133.5C 140.224,131.693 137.391,132.693 135.5,136.5C 138.044,138.392 138.044,140.225 135.5,142C 132.833,141.667 130.167,141.333 127.5,141C 126.144,143.398 124.977,145.898 124,148.5C 121.464,145.304 119.964,145.304 119.5,148.5C 116.901,148.549 114.734,149.549 113,151.5C 112.999,154.687 112.166,157.52 110.5,160C 111.38,161.356 111.714,162.856 111.5,164.5C 108.774,164.264 106.441,165.097 104.5,167C 107.419,169.948 107.086,172.448 103.5,174.5C 101.5,175.167 99.5,175.833 97.5,176.5C 97.9312,177.293 98.2645,178.127 98.5,179C 97.3867,180.394 96.0534,181.561 94.5,182.5C 95.5,183.167 96.5,183.833 97.5,184.5C 96.8333,185.5 96.1667,186.5 95.5,187.5C 97.9114,189.319 98.078,191.319 96,193.5C 95.3333,197.5 95.3333,201.5 96,205.5C 97.9447,209.271 99.278,213.271 100,217.5C 104.151,218.326 104.651,220.159 101.5,223C 100.207,223.49 98.8734,223.657 97.5,223.5C 97.5,228.833 97.5,234.167 97.5,239.5C 98.5,239.5 99.5,239.5 100.5,239.5C 100.172,244.875 100.505,250.208 101.5,255.5C 102.197,251.623 102.864,247.79 103.5,244C 102.058,240.872 102.558,238.038 105,235.5C 105.5,242.158 105.666,248.825 105.5,255.5C 104.67,264.324 104.17,273.324 104,282.5C 102.341,290.454 100.508,298.287 98.5,306C 93.6509,316.283 90.4843,326.783 89,337.5C 86.3048,340.648 84.9715,344.315 85,348.5C 83.5049,360.837 83.0049,373.17 83.5,385.5C 84.2877,390.232 85.2877,394.898 86.5,399.5C 87.5,399.5 88.5,399.5 89.5,399.5C 90.3292,403.486 91.1626,407.486 92,411.5C 92.8518,412.571 93.6851,413.571 94.5,414.5C 96.8831,433.826 104.216,450.993 116.5,466C 118.116,466.615 119.449,467.615 120.5,469C 124.248,468.78 127.248,470.113 129.5,473C 130.667,473.167 131.833,473.333 133,473.5C 140.368,471.19 147.868,469.19 155.5,467.5C 158.514,467.258 161.014,468.258 163,470.5C 166.338,479.015 169.172,487.682 171.5,496.5C 171.485,498.634 170.985,500.634 170,502.5C 167.59,505.397 165.423,508.397 163.5,511.5C 108.833,511.5 54.1667,511.5 -0.5,511.5C -0.5,340.833 -0.5,170.167 -0.5,-0.5 Z"/></g>
<g><path style="opacity:1" fill="#628395" d="M 287.5,148.5 C 252.832,148.333 218.165,148.5 183.5,149C 176.546,152.533 169.546,155.866 162.5,159C 160.833,159.333 159.167,159.667 157.5,160C 147.139,169.184 138.139,179.684 130.5,191.5C 127.879,192.58 125.712,194.247 124,196.5C 121.599,200.806 119.766,205.472 118.5,210.5C 114.047,215.456 111.714,221.123 111.5,227.5C 109.048,236.66 107.381,245.993 106.5,255.5C 106.167,255.5 105.833,255.5 105.5,255.5C 105.666,248.825 105.5,242.158 105,235.5C 102.558,238.038 102.058,240.872 103.5,244C 102.864,247.79 102.197,251.623 101.5,255.5C 100.505,250.208 100.172,244.875 100.5,239.5C 99.5,239.5 98.5,239.5 97.5,239.5C 97.5,234.167 97.5,228.833 97.5,223.5C 98.8734,223.657 100.207,223.49 101.5,223C 104.651,220.159 104.151,218.326 100,217.5C 99.278,213.271 97.9447,209.271 96,205.5C 95.3333,201.5 95.3333,197.5 96,193.5C 98.078,191.319 97.9114,189.319 95.5,187.5C 96.1667,186.5 96.8333,185.5 97.5,184.5C 96.5,183.833 95.5,183.167 94.5,182.5C 96.0534,181.561 97.3867,180.394 98.5,179C 98.2645,178.127 97.9312,177.293 97.5,176.5C 99.5,175.833 101.5,175.167 103.5,174.5C 107.086,172.448 107.419,169.948 104.5,167C 106.441,165.097 108.774,164.264 111.5,164.5C 111.714,162.856 111.38,161.356 110.5,160C 112.166,157.52 112.999,154.687 113,151.5C 114.734,149.549 116.901,148.549 119.5,148.5C 119.964,145.304 121.464,145.304 124,148.5C 124.977,145.898 126.144,143.398 127.5,141C 130.167,141.333 132.833,141.667 135.5,142C 138.044,140.225 138.044,138.392 135.5,136.5C 137.391,132.693 140.224,131.693 144,133.5C 144.689,132.643 145.522,131.977 146.5,131.5C 148.937,134.149 150.27,133.483 150.5,129.5C 149.187,127.608 149.354,125.941 151,124.5C 151.192,126.577 151.692,128.577 152.5,130.5C 153.386,129.675 153.719,128.675 153.5,127.5C 154.675,127.719 155.675,127.386 156.5,126.5C 155.359,125.575 155.359,124.741 156.5,124C 160.152,123.501 163.818,123.335 167.5,123.5C 167.5,122.5 167.5,121.5 167.5,120.5C 170.167,121.833 172.833,121.833 175.5,120.5C 175.335,117.482 175.502,114.482 176,111.5C 176.813,113.436 177.313,115.436 177.5,117.5C 178.978,117.238 180.311,117.571 181.5,118.5C 180.975,119.192 180.308,119.692 179.5,120C 181.13,121.213 182.964,122.046 185,122.5C 187.206,121.101 189.206,119.434 191,117.5C 193.665,119.219 196.498,120.719 199.5,122C 200.211,123.255 201.044,124.421 202,125.5C 202.889,122.054 204.556,119.054 207,116.5C 207.186,118.9 207.686,121.234 208.5,123.5C 209.852,124.518 210.852,125.851 211.5,127.5C 212.435,124.898 214.102,122.898 216.5,121.5C 218.5,125.5 220.5,125.5 222.5,121.5C 223.466,123.396 223.799,125.396 223.5,127.5C 222.167,127.5 220.833,127.5 219.5,127.5C 219.789,131.106 219.456,134.606 218.5,138C 218.167,138.167 217.833,138.333 217.5,138.5C 216.692,136.577 216.192,134.577 216,132.5C 214.355,132.693 212.521,132.86 210.5,133C 209.687,134.314 208.687,135.481 207.5,136.5C 209.327,138.487 210.327,140.821 210.5,143.5C 225.796,143.828 243.129,143.828 262.5,143.5C 262.529,140.344 264.196,138.678 267.5,138.5C 268.187,136.445 269.354,134.779 271,133.5C 270.774,138.206 271.941,139.039 274.5,136C 273.098,134.658 273.431,133.824 275.5,133.5C 279.864,137.07 284.864,138.236 290.5,137C 292.213,135.622 293.547,133.955 294.5,132C 291.703,130.279 289.369,128.113 287.5,125.5C 286.946,123.39 286.112,121.39 285,119.5C 283.96,115.467 284.626,111.801 287,108.5C 290.852,110.23 295.018,111.063 299.5,111C 302.333,112.5 304.5,114.667 306,117.5C 306.781,116.271 307.281,114.938 307.5,113.5C 306.673,110.217 306.34,106.884 306.5,103.5C 307.833,103.5 309.167,103.5 310.5,103.5C 310.522,107.593 311.189,111.593 312.5,115.5C 310.01,121.067 311.677,124.4 317.5,125.5C 317.67,124.178 317.337,123.011 316.5,122C 318.167,121.333 319.833,121.333 321.5,122C 318.833,123.667 318.833,125.333 321.5,127C 320.001,128.797 318.501,130.631 317,132.5C 316.219,133.944 316.386,135.277 317.5,136.5C 321.111,137.262 324.778,137.762 328.5,138C 329.91,138.368 330.91,139.201 331.5,140.5C 329.54,142.291 328.207,144.457 327.5,147C 325.302,147.373 323.135,147.873 321,148.5C 309.693,147.189 298.526,147.189 287.5,148.5 Z"/></g>
<g><path style="opacity:1" fill="#627c86" d="M 287.5,148.5 C 300.994,149.331 314.661,149.831 328.5,150C 327.944,150.383 327.611,150.883 327.5,151.5C 293.171,150.797 258.838,150.13 224.5,149.5C 212.157,149.767 199.824,150.267 187.5,151C 176.657,154.75 165.99,159.084 155.5,164C 137.716,183.088 123.05,204.255 111.5,227.5C 111.714,221.123 114.047,215.456 118.5,210.5C 119.766,205.472 121.599,200.806 124,196.5C 125.712,194.247 127.879,192.58 130.5,191.5C 138.139,179.684 147.139,169.184 157.5,160C 159.167,159.667 160.833,159.333 162.5,159C 169.546,155.866 176.546,152.533 183.5,149C 218.165,148.5 252.832,148.333 287.5,148.5 Z"/></g>
<g><path style="opacity:1" fill="#020202" d="M 327.5,151.5 C 329.5,151.833 331.5,152.167 333.5,152.5C 336.845,154.217 340.511,154.884 344.5,154.5C 355.297,162.056 363.797,171.722 370,183.5C 373.825,191.819 378.158,199.819 383,207.5C 395.61,245.022 408.443,282.356 421.5,319.5C 424.151,331.39 426.151,343.39 427.5,355.5C 427.245,362.954 426.245,370.287 424.5,377.5C 414.828,401.675 404.661,425.675 394,449.5C 387.204,458.969 378.371,465.636 367.5,469.5C 358.816,469.632 350.149,469.299 341.5,468.5C 337.26,468.54 333.26,469.206 329.5,470.5C 319.379,470.828 309.379,470.162 299.5,468.5C 292.961,467.269 286.295,467.436 279.5,469C 276.698,471.105 275.365,473.939 275.5,477.5C 275.672,478.492 275.338,479.158 274.5,479.5C 273.325,480.974 272.325,482.64 271.5,484.5C 269.271,482.901 268.938,480.901 270.5,478.5C 269.764,476.459 268.931,474.459 268,472.5C 267.827,466.984 267.327,461.651 266.5,456.5C 266.5,455.833 266.167,455.5 265.5,455.5C 264.5,454.833 263.5,454.167 262.5,453.5C 256.665,452.063 250.998,450.396 245.5,448.5C 246.568,447.566 247.901,447.232 249.5,447.5C 262.196,448.915 274.863,448.748 287.5,447C 294.654,445.242 300.987,442.075 306.5,437.5C 315.089,431.084 323.255,424.084 331,416.5C 333.038,413.757 334.538,410.757 335.5,407.5C 338.535,403.409 340.369,398.742 341,393.5C 341.5,375.503 341.667,357.503 341.5,339.5C 343.38,309.845 343.714,280.178 342.5,250.5C 340.274,249.441 337.941,249.608 335.5,251C 326.324,251.17 317.324,251.67 308.5,252.5C 308.167,252.5 307.833,252.5 307.5,252.5C 305.533,252.739 303.699,252.406 302,251.5C 300.801,248.274 300.301,244.941 300.5,241.5C 303.232,240.134 305.899,238.801 308.5,237.5C 314.833,237.5 321.167,237.5 327.5,237.5C 332.029,238.77 336.529,240.436 341,242.5C 341.772,242.355 342.439,242.022 343,241.5C 343.498,238.518 343.665,235.518 343.5,232.5C 343.5,230.5 343.5,228.5 343.5,226.5C 338.797,228.072 334.13,229.406 329.5,230.5C 320.655,230.811 311.988,232.144 303.5,234.5C 301.5,234.5 299.5,234.5 297.5,234.5C 296.769,229.927 297.769,225.927 300.5,222.5C 301.058,221.21 302.058,220.377 303.5,220C 308.752,218.187 314.085,216.687 319.5,215.5C 324.287,215.652 328.954,214.985 333.5,213.5C 332.91,212.201 331.91,211.368 330.5,211C 325.385,210.154 320.385,208.987 315.5,207.5C 315.082,206.778 314.416,206.278 313.5,206C 292.083,207.275 270.75,206.441 249.5,203.5C 241.971,204.382 234.305,205.049 226.5,205.5C 222.295,205.453 218.129,205.12 214,204.5C 211.073,206.676 207.74,208.01 204,208.5C 203.202,210.259 203.369,211.926 204.5,213.5C 206.453,214.761 208.453,215.927 210.5,217C 206.728,218.389 206.728,219.389 210.5,220C 203.651,219.999 196.818,219.499 190,218.5C 187.552,218.699 185.719,219.699 184.5,221.5C 181.527,223.147 178.86,225.147 176.5,227.5C 174.674,229.147 173.34,231.147 172.5,233.5C 171.566,234.568 171.232,235.901 171.5,237.5C 183.635,234.51 195.635,234.843 207.5,238.5C 197,238.201 186.333,238.534 175.5,239.5C 175.5,240.833 175.5,242.167 175.5,243.5C 171.596,244.235 170.762,246.235 173,249.5C 173.333,249.167 173.667,248.833 174,248.5C 176.785,249.895 179.618,251.228 182.5,252.5C 186.912,251.137 190.579,252.303 193.5,256C 192.62,257.356 192.286,258.856 192.5,260.5C 190.621,261.341 188.621,261.675 186.5,261.5C 182.015,258.26 177.015,256.094 171.5,255C 170.295,253.624 168.962,252.458 167.5,251.5C 163.925,248.492 162.258,249.492 162.5,254.5C 162.5,259.167 162.5,263.833 162.5,268.5C 162.5,269.5 162.5,270.5 162.5,271.5C 161.834,275.82 161.501,280.32 161.5,285C 161.414,293.047 162.081,300.88 163.5,308.5C 163.185,312.371 163.518,316.038 164.5,319.5C 166.238,330.249 167.572,340.916 168.5,351.5C 168.094,359.079 168.761,366.412 170.5,373.5C 170.5,374.833 170.5,376.167 170.5,377.5C 170.678,382.133 171.678,386.467 173.5,390.5C 173.41,393.152 174.076,395.485 175.5,397.5C 175.755,400.016 176.589,402.35 178,404.5C 181.67,409.002 185.503,413.335 189.5,417.5C 189.181,422.363 189.514,427.03 190.5,431.5C 191.492,439.316 191.826,447.316 191.5,455.5C 191.5,466.167 191.5,476.833 191.5,487.5C 191.5,495.5 191.5,503.5 191.5,511.5C 182.167,511.5 172.833,511.5 163.5,511.5C 165.423,508.397 167.59,505.397 170,502.5C 170.985,500.634 171.485,498.634 171.5,496.5C 169.172,487.682 166.338,479.015 163,470.5C 161.014,468.258 158.514,467.258 155.5,467.5C 147.868,469.19 140.368,471.19 133,473.5C 131.833,473.333 130.667,473.167 129.5,473C 127.248,470.113 124.248,468.78 120.5,469C 119.449,467.615 118.116,466.615 116.5,466C 104.216,450.993 96.8831,433.826 94.5,414.5C 93.8505,407.198 92.0172,400.198 89,393.5C 86.8217,380.91 86.155,368.243 87,355.5C 92.4687,334.097 98.1354,312.764 104,291.5C 105.9,279.576 106.733,267.576 106.5,255.5C 107.381,245.993 109.048,236.66 111.5,227.5C 123.05,204.255 137.716,183.088 155.5,164C 165.99,159.084 176.657,154.75 187.5,151C 199.824,150.267 212.157,149.767 224.5,149.5C 258.838,150.13 293.171,150.797 327.5,151.5 Z"/></g>
<g><path style="opacity:1" fill="#222f37" d="M 333.5,152.5 C 336.518,152.335 339.518,152.502 342.5,153C 343.416,153.278 344.082,153.778 344.5,154.5C 340.511,154.884 336.845,154.217 333.5,152.5 Z"/></g>
<g><path style="opacity:1" fill="#444d5a" d="M 233.5,208.5 C 252.203,208.412 270.87,209.079 289.5,210.5C 289.082,211.222 288.416,211.722 287.5,212C 278.69,213.029 270.023,212.363 261.5,210C 254.842,209.5 248.175,209.334 241.5,209.5C 232.651,209.174 223.984,209.507 215.5,210.5C 211.84,210.159 208.507,210.825 205.5,212.5C 204.115,211.698 204.282,211.031 206,210.5C 215.072,208.754 224.238,208.088 233.5,208.5 Z"/></g>
<g><path style="opacity:1" fill="#111a25" d="M 233.5,208.5 C 255.327,207.503 277.327,207.169 299.5,207.5C 297.371,208.203 295.371,209.203 293.5,210.5C 292.167,210.5 290.833,210.5 289.5,210.5C 270.87,209.079 252.203,208.412 233.5,208.5 Z"/></g>
<g><path style="opacity:1" fill="#3b464f" d="M 299.5,207.5 C 304.833,207.5 310.167,207.5 315.5,207.5C 320.385,208.987 325.385,210.154 330.5,211C 331.91,211.368 332.91,212.201 333.5,213.5C 328.954,214.985 324.287,215.652 319.5,215.5C 320.568,214.566 321.901,214.232 323.5,214.5C 325.308,214.509 326.975,214.009 328.5,213C 327.672,212.085 326.672,211.419 325.5,211C 314.842,209.363 304.175,209.196 293.5,210.5C 295.371,209.203 297.371,208.203 299.5,207.5 Z"/></g>
<g><path style="opacity:1" fill="#60707d" d="M 241.5,209.5 C 248.175,209.334 254.842,209.5 261.5,210C 270.023,212.363 278.69,213.029 287.5,212C 288.416,211.722 289.082,211.222 289.5,210.5C 290.833,210.5 292.167,210.5 293.5,210.5C 304.175,209.196 314.842,209.363 325.5,211C 326.672,211.419 327.672,212.085 328.5,213C 326.975,214.009 325.308,214.509 323.5,214.5C 323.586,213.504 323.252,212.671 322.5,212C 313.688,210.648 305.355,211.982 297.5,216C 290.297,216.218 283.13,216.718 276,217.5C 264.561,213.929 253.061,211.263 241.5,209.5 Z"/></g>
<g><path style="opacity:1" fill="#727c88" d="M 215.5,210.5 C 223.984,209.507 232.651,209.174 241.5,209.5C 253.061,211.263 264.561,213.929 276,217.5C 283.13,216.718 290.297,216.218 297.5,216C 305.355,211.982 313.688,210.648 322.5,212C 323.252,212.671 323.586,213.504 323.5,214.5C 321.901,214.232 320.568,214.566 319.5,215.5C 314.085,216.687 308.752,218.187 303.5,220C 302.058,220.377 301.058,221.21 300.5,222.5C 295.353,224.324 293.02,227.991 293.5,233.5C 292.034,230.405 292.368,227.405 294.5,224.5C 293.675,223.614 292.675,223.281 291.5,223.5C 291.082,222.778 290.416,222.278 289.5,222C 291.878,221.026 291.544,220.359 288.5,220C 290.833,219.667 293.167,219.333 295.5,219C 293.567,218.749 291.734,218.249 290,217.5C 281.939,219.068 273.772,219.568 265.5,219C 257.549,217.405 249.549,216.071 241.5,215C 239.947,213.903 238.614,212.57 237.5,211C 230.174,210.5 222.841,210.334 215.5,210.5 Z"/></g>
<g><path style="opacity:1" fill="#04080e" d="M 315.5,207.5 C 310.167,207.5 304.833,207.5 299.5,207.5C 277.327,207.169 255.327,207.503 233.5,208.5C 224.238,208.088 215.072,208.754 206,210.5C 204.282,211.031 204.115,211.698 205.5,212.5C 209.718,214.441 214.051,216.108 218.5,217.5C 221.541,219.362 224.208,221.695 226.5,224.5C 226.719,225.675 226.386,226.675 225.5,227.5C 223.591,228.348 221.591,228.682 219.5,228.5C 213.943,226.76 208.276,225.427 202.5,224.5C 196.871,222.062 190.871,221.062 184.5,221.5C 185.719,219.699 187.552,218.699 190,218.5C 196.818,219.499 203.651,219.999 210.5,220C 206.728,219.389 206.728,218.389 210.5,217C 208.453,215.927 206.453,214.761 204.5,213.5C 203.369,211.926 203.202,210.259 204,208.5C 207.74,208.01 211.073,206.676 214,204.5C 218.129,205.12 222.295,205.453 226.5,205.5C 234.305,205.049 241.971,204.382 249.5,203.5C 270.75,206.441 292.083,207.275 313.5,206C 314.416,206.278 315.082,206.778 315.5,207.5 Z"/></g>
<g><path style="opacity:1" fill="#828590" d="M 215.5,210.5 C 222.841,210.334 230.174,210.5 237.5,211C 238.614,212.57 239.947,213.903 241.5,215C 249.549,216.071 257.549,217.405 265.5,219C 273.772,219.568 281.939,219.068 290,217.5C 291.734,218.249 293.567,218.749 295.5,219C 293.167,219.333 290.833,219.667 288.5,220C 291.544,220.359 291.878,221.026 289.5,222C 290.416,222.278 291.082,222.778 291.5,223.5C 288.881,223.232 286.381,223.565 284,224.5C 270.938,222.282 257.771,220.448 244.5,219C 238.308,217.828 232.642,215.495 227.5,212C 222.833,211.333 218.167,211.333 213.5,212C 215.686,213.412 217.352,215.245 218.5,217.5C 214.051,216.108 209.718,214.441 205.5,212.5C 208.507,210.825 211.84,210.159 215.5,210.5 Z"/></g>
<g><path style="opacity:1" fill="#8e8e96" d="M 291.5,223.5 C 292.675,223.281 293.675,223.614 294.5,224.5C 292.368,227.405 292.034,230.405 293.5,233.5C 295.229,235.727 297.562,236.727 300.5,236.5C 298.735,237.461 296.735,237.795 294.5,237.5C 292.615,235.947 291.615,233.947 291.5,231.5C 291.703,229.61 291.037,228.11 289.5,227C 273.255,225.475 257.089,223.309 241,220.5C 238.969,221.435 237.136,220.935 235.5,219C 232.178,217.608 228.845,217.441 225.5,218.5C 227.104,220.179 227.771,222.179 227.5,224.5C 227.167,224.5 226.833,224.5 226.5,224.5C 224.208,221.695 221.541,219.362 218.5,217.5C 217.352,215.245 215.686,213.412 213.5,212C 218.167,211.333 222.833,211.333 227.5,212C 232.642,215.495 238.308,217.828 244.5,219C 257.771,220.448 270.938,222.282 284,224.5C 286.381,223.565 288.881,223.232 291.5,223.5 Z"/></g>
<g><path style="opacity:1" fill="#70727a" d="M 184.5,221.5 C 190.871,221.062 196.871,222.062 202.5,224.5C 195.915,225.031 189.415,225.031 183,224.5C 181.491,226.919 179.325,227.919 176.5,227.5C 178.86,225.147 181.527,223.147 184.5,221.5 Z"/></g>
<g><path style="opacity:1" fill="#9d9599" d="M 291.5,231.5 C 288.831,229.913 285.831,229.079 282.5,229C 266.481,227.566 250.481,226.066 234.5,224.5C 234.616,221.09 232.95,219.756 229.5,220.5C 229.38,222.734 229.713,224.901 230.5,227C 230.252,228.749 229.252,229.582 227.5,229.5C 228.72,227.716 228.72,226.05 227.5,224.5C 227.771,222.179 227.104,220.179 225.5,218.5C 228.845,217.441 232.178,217.608 235.5,219C 237.136,220.935 238.969,221.435 241,220.5C 257.089,223.309 273.255,225.475 289.5,227C 291.037,228.11 291.703,229.61 291.5,231.5 Z"/></g>
<g><path style="opacity:1" fill="#ae9e98" d="M 291.5,231.5 C 291.615,233.947 292.615,235.947 294.5,237.5C 290.446,237.013 288.446,234.68 288.5,230.5C 287.672,231.415 286.672,232.081 285.5,232.5C 268.924,232.399 252.591,230.399 236.5,226.5C 233.236,227.479 230.236,228.813 227.5,230.5C 224.941,230.802 222.607,230.468 220.5,229.5C 222.833,229.5 225.167,229.5 227.5,229.5C 229.252,229.582 230.252,228.749 230.5,227C 229.713,224.901 229.38,222.734 229.5,220.5C 232.95,219.756 234.616,221.09 234.5,224.5C 250.481,226.066 266.481,227.566 282.5,229C 285.831,229.079 288.831,229.913 291.5,231.5 Z"/></g>
<g><path style="opacity:1" fill="#908e91" d="M 202.5,224.5 C 208.276,225.427 213.943,226.76 219.5,228.5C 219.5,228.833 219.5,229.167 219.5,229.5C 215.829,229.278 212.163,228.944 208.5,228.5C 204.678,228.846 201.344,230.18 198.5,232.5C 189.683,232.976 181.017,233.31 172.5,233.5C 173.34,231.147 174.674,229.147 176.5,227.5C 179.325,227.919 181.491,226.919 183,224.5C 189.415,225.031 195.915,225.031 202.5,224.5 Z"/></g>
<g><path style="opacity:1" fill="#3c4048" d="M 226.5,224.5 C 226.833,224.5 227.167,224.5 227.5,224.5C 228.72,226.05 228.72,227.716 227.5,229.5C 225.167,229.5 222.833,229.5 220.5,229.5C 220.167,229.5 219.833,229.5 219.5,229.5C 219.5,229.167 219.5,228.833 219.5,228.5C 221.591,228.682 223.591,228.348 225.5,227.5C 226.386,226.675 226.719,225.675 226.5,224.5 Z"/></g>
<g><path style="opacity:1" fill="#18262e" d="M 300.5,222.5 C 297.769,225.927 296.769,229.927 297.5,234.5C 299.5,234.5 301.5,234.5 303.5,234.5C 302.71,235.401 301.71,236.068 300.5,236.5C 297.562,236.727 295.229,235.727 293.5,233.5C 293.02,227.991 295.353,224.324 300.5,222.5 Z"/></g>
<g><path style="opacity:1" fill="#b7aea7" d="M 219.5,229.5 C 219.833,229.5 220.167,229.5 220.5,229.5C 222.607,230.468 224.941,230.802 227.5,230.5C 227.5,230.833 227.5,231.167 227.5,231.5C 222.851,232.065 218.184,232.565 213.5,233C 211.676,233.66 210.343,234.827 209.5,236.5C 207.518,236.005 205.518,235.505 203.5,235C 202.167,234.333 202.167,233.667 203.5,233C 201.866,232.506 200.199,232.34 198.5,232.5C 201.344,230.18 204.678,228.846 208.5,228.5C 212.163,228.944 215.829,229.278 219.5,229.5 Z"/></g>
<g><path style="opacity:1" fill="#73756e" d="M 343.5,232.5 C 343.167,232.5 342.833,232.5 342.5,232.5C 342.582,230.748 341.749,229.748 340,229.5C 336.559,230.382 333.059,230.716 329.5,230.5C 334.13,229.406 338.797,228.072 343.5,226.5C 343.5,228.5 343.5,230.5 343.5,232.5 Z"/></g>
<g><path style="opacity:1" fill="#a59489" d="M 198.5,232.5 C 200.199,232.34 201.866,232.506 203.5,233C 202.167,233.667 202.167,234.333 203.5,235C 205.518,235.505 207.518,236.005 209.5,236.5C 211.664,236.721 213.33,237.721 214.5,239.5C 214.5,239.833 214.5,240.167 214.5,240.5C 212.167,239.833 209.833,239.167 207.5,238.5C 195.635,234.843 183.635,234.51 171.5,237.5C 171.232,235.901 171.566,234.568 172.5,233.5C 181.017,233.31 189.683,232.976 198.5,232.5 Z"/></g>
<g><path style="opacity:1" fill="#d2b6a2" d="M 278.5,239.5 C 270.283,237.518 261.95,235.851 253.5,234.5C 247.449,234.876 241.115,235.043 234.5,235C 233.579,236.756 232.412,236.923 231,235.5C 228.804,236.09 226.638,236.757 224.5,237.5C 222.991,235.085 221.324,234.919 219.5,237C 220.672,237.419 221.672,238.085 222.5,239C 219.854,239.497 217.187,239.664 214.5,239.5C 213.33,237.721 211.664,236.721 209.5,236.5C 210.343,234.827 211.676,233.66 213.5,233C 218.184,232.565 222.851,232.065 227.5,231.5C 234.149,230.62 240.816,230.454 247.5,231C 256.804,232.551 266.137,233.884 275.5,235C 274.5,235.333 273.5,235.667 272.5,236C 274.878,236.511 277.212,237.178 279.5,238C 278.944,238.383 278.611,238.883 278.5,239.5 Z"/></g>
<g><path style="opacity:1" fill="#bcb198" d="M 342.5,232.5 C 342.5,235.167 342.5,237.833 342.5,240.5C 337.879,237.98 332.879,236.98 327.5,237.5C 321.167,237.5 314.833,237.5 308.5,237.5C 307.624,237.631 306.957,237.298 306.5,236.5C 307.5,235.667 308.5,234.833 309.5,234C 314.5,233.5 319.5,233 324.5,232.5C 326.64,232.444 328.306,231.777 329.5,230.5C 333.059,230.716 336.559,230.382 340,229.5C 341.749,229.748 342.582,230.748 342.5,232.5 Z"/></g>
<g><path style="opacity:1" fill="#c4ad99" d="M 294.5,237.5 C 295.833,238.833 297.167,240.167 298.5,241.5C 298.334,245.674 299,249.674 300.5,253.5C 299.833,253.5 299.167,253.5 298.5,253.5C 297.833,250.167 297.167,246.833 296.5,243.5C 293.829,244.269 291.329,244.602 289,244.5C 286.78,240.308 283.28,238.641 278.5,239.5C 278.611,238.883 278.944,238.383 279.5,238C 277.212,237.178 274.878,236.511 272.5,236C 273.5,235.667 274.5,235.333 275.5,235C 266.137,233.884 256.804,232.551 247.5,231C 240.816,230.454 234.149,230.62 227.5,231.5C 227.5,231.167 227.5,230.833 227.5,230.5C 230.236,228.813 233.236,227.479 236.5,226.5C 252.591,230.399 268.924,232.399 285.5,232.5C 286.672,232.081 287.672,231.415 288.5,230.5C 288.446,234.68 290.446,237.013 294.5,237.5 Z"/></g>
<g><path style="opacity:1" fill="#9f968d" d="M 329.5,230.5 C 328.306,231.777 326.64,232.444 324.5,232.5C 319.5,233 314.5,233.5 309.5,234C 308.5,234.833 307.5,235.667 306.5,236.5C 306.957,237.298 307.624,237.631 308.5,237.5C 305.899,238.801 303.232,240.134 300.5,241.5C 299.833,241.5 299.167,241.5 298.5,241.5C 297.167,240.167 295.833,238.833 294.5,237.5C 296.735,237.795 298.735,237.461 300.5,236.5C 301.71,236.068 302.71,235.401 303.5,234.5C 311.988,232.144 320.655,230.811 329.5,230.5 Z"/></g>
<g><path style="opacity:1" fill="#daba9c" d="M 278.5,239.5 C 283.28,238.641 286.78,240.308 289,244.5C 291.329,244.602 293.829,244.269 296.5,243.5C 297.167,246.833 297.833,250.167 298.5,253.5C 297.082,255.308 295.082,255.975 292.5,255.5C 289.647,252.31 287.647,248.643 286.5,244.5C 285.914,244.709 285.414,245.043 285,245.5C 282.75,244.292 280.583,242.959 278.5,241.5C 276.218,242.223 273.884,242.557 271.5,242.5C 271.5,241.5 271.5,240.5 271.5,239.5C 266.167,239.5 260.833,239.5 255.5,239.5C 255.561,241.592 256.561,243.092 258.5,244C 257.551,244.617 256.718,244.451 256,243.5C 255.692,244.308 255.192,244.975 254.5,245.5C 252.17,243.333 249.503,241.666 246.5,240.5C 245.186,241.313 244.019,242.313 243,243.5C 241.989,242.663 240.822,242.33 239.5,242.5C 239.906,244.109 239.906,245.443 239.5,246.5C 238.05,245.345 237.05,243.845 236.5,242C 235.035,241.399 234.035,241.899 233.5,243.5C 235.46,245.291 236.793,247.457 237.5,250C 235.193,250.271 234.026,249.105 234,246.5C 233.667,247.167 233.333,247.833 233,248.5C 230.838,244.632 227.672,243.132 223.5,244C 224.252,244.671 224.586,245.504 224.5,246.5C 221.167,244.5 217.833,242.5 214.5,240.5C 214.5,240.167 214.5,239.833 214.5,239.5C 217.187,239.664 219.854,239.497 222.5,239C 221.672,238.085 220.672,237.419 219.5,237C 221.324,234.919 222.991,235.085 224.5,237.5C 226.638,236.757 228.804,236.09 231,235.5C 232.412,236.923 233.579,236.756 234.5,235C 241.115,235.043 247.449,234.876 253.5,234.5C 261.95,235.851 270.283,237.518 278.5,239.5 Z"/></g>
<g><path style="opacity:1" fill="#8f8971" d="M 342.5,232.5 C 342.833,232.5 343.167,232.5 343.5,232.5C 343.665,235.518 343.498,238.518 343,241.5C 342.439,242.022 341.772,242.355 341,242.5C 336.529,240.436 332.029,238.77 327.5,237.5C 332.879,236.98 337.879,237.98 342.5,240.5C 342.5,237.833 342.5,235.167 342.5,232.5 Z"/></g>
<g><path style="opacity:1" fill="#ddbe97" d="M 292.5,255.5 C 292.281,256.675 292.614,257.675 293.5,258.5C 296.127,259.058 298.46,260.058 300.5,261.5C 299.836,263.487 298.669,265.154 297,266.5C 296.505,268.473 296.338,270.473 296.5,272.5C 294.952,272.821 294.285,273.821 294.5,275.5C 292.536,275.977 291.202,277.144 290.5,279C 292.68,282.544 294.18,286.377 295,290.5C 299.925,295.713 305.759,299.546 312.5,302C 313.893,303.171 314.727,304.671 315,306.5C 315.414,306.043 315.914,305.709 316.5,305.5C 317.429,308.001 318.929,308.667 321,307.5C 323.248,307.895 325.082,308.895 326.5,310.5C 327.263,311.268 328.263,311.768 329.5,312C 326.813,312.537 324.313,312.037 322,310.5C 320.796,311.471 320.296,312.471 320.5,313.5C 317.659,312.025 314.659,310.859 311.5,310C 310.953,309.075 310.287,308.242 309.5,307.5C 308.232,308.428 306.899,308.595 305.5,308C 302.342,304.42 298.342,302.587 293.5,302.5C 298.811,300.11 298.644,298.11 293,296.5C 290.577,298.994 288.244,298.994 286,296.5C 283.96,298.041 281.793,299.374 279.5,300.5C 281.544,301.065 283.21,302.065 284.5,303.5C 282.076,303.808 279.743,303.474 277.5,302.5C 276.412,300.035 274.579,298.369 272,297.5C 266.803,299.42 261.303,300.087 255.5,299.5C 255.665,302.518 255.498,305.518 255,308.5C 250.237,310.463 245.403,312.296 240.5,314C 239.594,315.699 239.261,317.533 239.5,319.5C 235.684,320.401 232.017,321.901 228.5,324C 226.866,324.494 225.199,324.66 223.5,324.5C 223.66,326.199 223.494,327.866 223,329.5C 219.979,331.039 217.479,333.039 215.5,335.5C 212.433,334.805 209.433,333.805 206.5,332.5C 202.906,334.017 199.906,333.184 197.5,330C 195.564,329.187 193.564,328.687 191.5,328.5C 191.808,330.924 191.474,333.257 190.5,335.5C 189.225,331.343 187.558,327.343 185.5,323.5C 185.043,322.702 184.376,322.369 183.5,322.5C 183.5,321.5 183.5,320.5 183.5,319.5C 186.408,318.287 189.408,317.121 192.5,316C 186.843,315.501 181.176,315.334 175.5,315.5C 175.649,314.448 175.483,313.448 175,312.5C 174.667,312.833 174.333,313.167 174,313.5C 173.667,316.833 173.333,320.167 173,323.5C 171.672,318.437 170.672,318.771 170,324.5C 169.667,317.833 169.333,311.167 169,304.5C 168.667,307.833 168.333,311.167 168,314.5C 166.563,310.582 165.063,306.915 163.5,303.5C 163.528,298.138 163.194,292.805 162.5,287.5C 164.167,287.5 165.833,287.5 167.5,287.5C 167.149,282.022 167.816,276.688 169.5,271.5C 170.425,270.359 171.259,270.359 172,271.5C 172.831,266.851 173.331,262.184 173.5,257.5C 173.56,256.957 173.893,256.624 174.5,256.5C 176.2,257.61 177.534,258.943 178.5,260.5C 177.5,260.5 176.5,260.5 175.5,260.5C 176.599,264.32 178.932,267.32 182.5,269.5C 181.45,270.429 181.45,271.095 182.5,271.5C 182.709,272.922 183.209,274.255 184,275.5C 184.333,275.167 184.667,274.833 185,274.5C 186.182,276.235 187.849,277.235 190,277.5C 195.54,277.398 201.04,277.398 206.5,277.5C 207.521,278.002 207.688,278.668 207,279.5C 204.966,281.032 202.799,282.365 200.5,283.5C 199.571,284.689 199.238,286.022 199.5,287.5C 196.833,287.5 194.167,287.5 191.5,287.5C 191.334,291.846 191.501,296.179 192,300.5C 194.849,302.744 197.683,305.078 200.5,307.5C 203.613,306.286 206.613,304.786 209.5,303C 212.412,297.747 216.745,294.414 222.5,293C 223.406,291.301 223.739,289.467 223.5,287.5C 225.5,287.5 227.5,287.5 229.5,287.5C 228.934,284.417 228.934,281.417 229.5,278.5C 231.173,276.914 233.173,276.247 235.5,276.5C 235.329,274.007 236.329,272.174 238.5,271C 237.792,268.232 236.292,267.399 234,268.5C 232.684,265.972 231.517,265.972 230.5,268.5C 229.893,268.376 229.56,268.043 229.5,267.5C 229.5,266.833 229.5,266.167 229.5,265.5C 230.117,265.389 230.617,265.056 231,264.5C 231.805,261.304 231.638,258.304 230.5,255.5C 229.244,251.984 227.244,248.984 224.5,246.5C 224.586,245.504 224.252,244.671 223.5,244C 227.672,243.132 230.838,244.632 233,248.5C 233.333,247.833 233.667,247.167 234,246.5C 234.026,249.105 235.193,250.271 237.5,250C 236.793,247.457 235.46,245.291 233.5,243.5C 234.035,241.899 235.035,241.399 236.5,242C 237.05,243.845 238.05,245.345 239.5,246.5C 239.906,245.443 239.906,244.109 239.5,242.5C 240.822,242.33 241.989,242.663 243,243.5C 244.019,242.313 245.186,241.313 246.5,240.5C 249.503,241.666 252.17,243.333 254.5,245.5C 255.192,244.975 255.692,244.308 256,243.5C 256.718,244.451 257.551,244.617 258.5,244C 256.561,243.092 255.561,241.592 255.5,239.5C 260.833,239.5 266.167,239.5 271.5,239.5C 271.5,240.5 271.5,241.5 271.5,242.5C 273.884,242.557 276.218,242.223 278.5,241.5C 280.583,242.959 282.75,244.292 285,245.5C 285.414,245.043 285.914,244.709 286.5,244.5C 287.647,248.643 289.647,252.31 292.5,255.5 Z"/></g>
<g><path style="opacity:1" fill="#7d7669" d="M 298.5,241.5 C 299.167,241.5 299.833,241.5 300.5,241.5C 300.301,244.941 300.801,248.274 302,251.5C 303.699,252.406 305.533,252.739 307.5,252.5C 305.393,253.468 303.059,253.802 300.5,253.5C 299,249.674 298.334,245.674 298.5,241.5 Z"/></g>
<g><path style="opacity:1" fill="#0e0a05" d="M 207.5,238.5 C 209.833,239.167 212.167,239.833 214.5,240.5C 217.833,242.5 221.167,244.5 224.5,246.5C 227.244,248.984 229.244,251.984 230.5,255.5C 230.978,259.338 229.978,262.671 227.5,265.5C 225.801,265.66 224.134,265.494 222.5,265C 218.454,262.92 214.454,260.92 210.5,259C 208.208,257.71 206.208,256.043 204.5,254C 201.833,253.333 199.167,253.333 196.5,254C 195.588,256.251 194.588,258.417 193.5,260.5C 193.167,260.5 192.833,260.5 192.5,260.5C 192.286,258.856 192.62,257.356 193.5,256C 190.579,252.303 186.912,251.137 182.5,252.5C 179.618,251.228 176.785,249.895 174,248.5C 173.667,248.833 173.333,249.167 173,249.5C 170.762,246.235 171.596,244.235 175.5,243.5C 175.5,242.167 175.5,240.833 175.5,239.5C 186.333,238.534 197,238.201 207.5,238.5 Z"/></g>
<g><path style="opacity:1" fill="#594f4a" d="M 167.5,251.5 C 166.167,251.5 164.833,251.5 163.5,251.5C 163.737,252.791 163.404,253.791 162.5,254.5C 162.258,249.492 163.925,248.492 167.5,251.5 Z"/></g>
<g><path style="opacity:1" fill="#dcd0ab" d="M 307.5,252.5 C 307.833,252.5 308.167,252.5 308.5,252.5C 315.167,252.5 321.833,252.5 328.5,252.5C 327.599,254.727 325.933,255.727 323.5,255.5C 318.156,255.334 312.823,255.501 307.5,256C 305.162,257.162 303.828,258.996 303.5,261.5C 302.5,261.5 301.5,261.5 300.5,261.5C 298.46,260.058 296.127,259.058 293.5,258.5C 292.614,257.675 292.281,256.675 292.5,255.5C 295.082,255.975 297.082,255.308 298.5,253.5C 299.167,253.5 299.833,253.5 300.5,253.5C 303.059,253.802 305.393,253.468 307.5,252.5 Z"/></g>
<g><path style="opacity:1" fill="#c6ca9d" d="M 323.5,255.5 C 321.647,257.446 319.314,258.946 316.5,260C 311.319,261.282 306.319,262.949 301.5,265C 299.596,267.877 298.596,271.044 298.5,274.5C 297.167,274.5 296.5,273.833 296.5,272.5C 296.338,270.473 296.505,268.473 297,266.5C 298.669,265.154 299.836,263.487 300.5,261.5C 301.5,261.5 302.5,261.5 303.5,261.5C 303.828,258.996 305.162,257.162 307.5,256C 312.823,255.501 318.156,255.334 323.5,255.5 Z"/></g>
<g><path style="opacity:1" fill="#ac9986" d="M 167.5,251.5 C 168.962,252.458 170.295,253.624 171.5,255C 177.015,256.094 182.015,258.26 186.5,261.5C 183.873,260.908 181.206,260.575 178.5,260.5C 177.534,258.943 176.2,257.61 174.5,256.5C 173.893,256.624 173.56,256.957 173.5,257.5C 170.67,257.306 168.004,256.639 165.5,255.5C 164.254,259.881 163.254,264.214 162.5,268.5C 162.5,263.833 162.5,259.167 162.5,254.5C 163.404,253.791 163.737,252.791 163.5,251.5C 164.833,251.5 166.167,251.5 167.5,251.5 Z"/></g>
<g><path style="opacity:1" fill="#858275" d="M 192.5,260.5 C 192.833,260.5 193.167,260.5 193.5,260.5C 192.082,262.308 190.082,262.975 187.5,262.5C 186.833,262.5 186.5,262.167 186.5,261.5C 188.621,261.675 190.621,261.341 192.5,260.5 Z"/></g>
<g><path style="opacity:1" fill="#b3c9a3" d="M 328.5,252.5 C 330.833,252.5 333.167,252.5 335.5,252.5C 335.5,253.5 335.5,254.5 335.5,255.5C 333.167,255.5 330.833,255.5 328.5,255.5C 328.838,258.325 327.838,260.492 325.5,262C 320.436,263.548 315.436,264.882 310.5,266C 308.384,267.171 307.718,268.671 308.5,270.5C 307.147,271.524 306.48,272.857 306.5,274.5C 304.81,274.856 303.81,275.856 303.5,277.5C 302.222,277.782 301.222,278.449 300.5,279.5C 300.229,278.448 300.062,277.115 300,275.5C 298.893,276.712 298.393,276.379 298.5,274.5C 298.596,271.044 299.596,267.877 301.5,265C 306.319,262.949 311.319,261.282 316.5,260C 319.314,258.946 321.647,257.446 323.5,255.5C 325.933,255.727 327.599,254.727 328.5,252.5 Z"/></g>
<g><path style="opacity:1" fill="#90b9a0" d="M 335.5,255.5 C 337.167,255.5 338.833,255.5 340.5,255.5C 340.5,260.833 340.5,266.167 340.5,271.5C 339.167,271.5 337.833,271.5 336.5,271.5C 336.649,270.448 336.483,269.448 336,268.5C 334.281,271.05 332.781,273.717 331.5,276.5C 330.85,276.804 330.183,277.137 329.5,277.5C 321.633,276.658 313.967,275.658 306.5,274.5C 306.48,272.857 307.147,271.524 308.5,270.5C 307.718,268.671 308.384,267.171 310.5,266C 315.436,264.882 320.436,263.548 325.5,262C 327.838,260.492 328.838,258.325 328.5,255.5C 330.833,255.5 333.167,255.5 335.5,255.5 Z"/></g>
<g><path style="opacity:1" fill="#b29986" d="M 230.5,255.5 C 231.638,258.304 231.805,261.304 231,264.5C 230.617,265.056 230.117,265.389 229.5,265.5C 228.833,265.5 228.167,265.5 227.5,265.5C 229.978,262.671 230.978,259.338 230.5,255.5 Z"/></g>
<g><path style="opacity:1" fill="#d4d0b5" d="M 227.5,265.5 C 228.167,265.5 228.833,265.5 229.5,265.5C 229.5,266.167 229.5,266.833 229.5,267.5C 226.167,267.5 222.833,267.5 219.5,267.5C 214.96,264.704 209.96,263.871 204.5,265C 206.035,267.139 207.701,269.139 209.5,271C 202.036,271.854 194.703,271.354 187.5,269.5C 187.769,267.571 187.269,265.905 186,264.5C 184.556,266.155 182.722,266.822 180.5,266.5C 180.5,265.5 180.5,264.5 180.5,263.5C 183.059,263.802 185.393,263.468 187.5,262.5C 190.082,262.975 192.082,262.308 193.5,260.5C 194.588,258.417 195.588,256.251 196.5,254C 199.167,253.333 201.833,253.333 204.5,254C 206.208,256.043 208.208,257.71 210.5,259C 214.454,260.92 218.454,262.92 222.5,265C 224.134,265.494 225.801,265.66 227.5,265.5 Z"/></g>
<g><path style="opacity:1" fill="#95a98f" d="M 342.5,250.5 C 342.83,267.342 342.497,284.008 341.5,300.5C 341.882,296.024 340.715,292.024 338,288.5C 337.329,287.748 336.496,287.414 335.5,287.5C 334.245,287.499 332.912,287.166 331.5,286.5C 332.818,282.792 332.818,279.458 331.5,276.5C 332.781,273.717 334.281,271.05 336,268.5C 336.483,269.448 336.649,270.448 336.5,271.5C 337.833,271.5 339.167,271.5 340.5,271.5C 340.5,266.167 340.5,260.833 340.5,255.5C 338.833,255.5 337.167,255.5 335.5,255.5C 335.5,254.5 335.5,253.5 335.5,252.5C 333.167,252.5 330.833,252.5 328.5,252.5C 321.833,252.5 315.167,252.5 308.5,252.5C 317.324,251.67 326.324,251.17 335.5,251C 337.941,249.608 340.274,249.441 342.5,250.5 Z"/></g>
<g><path style="opacity:1" fill="#e2ccad" d="M 173.5,257.5 C 173.331,262.184 172.831,266.851 172,271.5C 171.259,270.359 170.425,270.359 169.5,271.5C 167.816,276.688 167.149,282.022 167.5,287.5C 165.833,287.5 164.167,287.5 162.5,287.5C 162.5,282.167 162.5,276.833 162.5,271.5C 162.5,270.5 162.5,269.5 162.5,268.5C 163.254,264.214 164.254,259.881 165.5,255.5C 168.004,256.639 170.67,257.306 173.5,257.5 Z"/></g>
<g><path style="opacity:1" fill="#d4c7a4" d="M 178.5,260.5 C 181.206,260.575 183.873,260.908 186.5,261.5C 186.5,262.167 186.833,262.5 187.5,262.5C 185.393,263.468 183.059,263.802 180.5,263.5C 180.5,264.5 180.5,265.5 180.5,266.5C 182.722,266.822 184.556,266.155 186,264.5C 187.269,265.905 187.769,267.571 187.5,269.5C 194.703,271.354 202.036,271.854 209.5,271C 207.701,269.139 206.035,267.139 204.5,265C 209.96,263.871 214.96,264.704 219.5,267.5C 219.5,268.833 219.5,270.167 219.5,271.5C 213.456,273.357 207.289,274.69 201,275.5C 196.701,275.542 192.201,275.375 187.5,275C 186.672,274.085 185.672,273.419 184.5,273C 184.833,272.667 185.167,272.333 185.5,272C 184.552,271.517 183.552,271.351 182.5,271.5C 181.45,271.095 181.45,270.429 182.5,269.5C 178.932,267.32 176.599,264.32 175.5,260.5C 176.5,260.5 177.5,260.5 178.5,260.5 Z"/></g>
<g><path style="opacity:1" fill="#dcc19e" d="M 182.5,271.5 C 183.552,271.351 184.552,271.517 185.5,272C 185.167,272.333 184.833,272.667 184.5,273C 185.672,273.419 186.672,274.085 187.5,275C 192.201,275.375 196.701,275.542 201,275.5C 207.289,274.69 213.456,273.357 219.5,271.5C 219.5,270.167 219.5,268.833 219.5,267.5C 222.833,267.5 226.167,267.5 229.5,267.5C 229.56,268.043 229.893,268.376 230.5,268.5C 231.517,265.972 232.684,265.972 234,268.5C 236.292,267.399 237.792,268.232 238.5,271C 236.329,272.174 235.329,274.007 235.5,276.5C 233.173,276.247 231.173,276.914 229.5,278.5C 228.934,281.417 228.934,284.417 229.5,287.5C 227.5,287.5 225.5,287.5 223.5,287.5C 223.739,289.467 223.406,291.301 222.5,293C 216.745,294.414 212.412,297.747 209.5,303C 206.613,304.786 203.613,306.286 200.5,307.5C 197.683,305.078 194.849,302.744 192,300.5C 191.501,296.179 191.334,291.846 191.5,287.5C 194.167,287.5 196.833,287.5 199.5,287.5C 199.238,286.022 199.571,284.689 200.5,283.5C 202.799,282.365 204.966,281.032 207,279.5C 207.688,278.668 207.521,278.002 206.5,277.5C 201.04,277.398 195.54,277.398 190,277.5C 187.849,277.235 186.182,276.235 185,274.5C 184.667,274.833 184.333,275.167 184,275.5C 183.209,274.255 182.709,272.922 182.5,271.5 Z"/></g>
<g><path style="opacity:1" fill="#a1ada1" d="M 306.5,274.5 C 313.967,275.658 321.633,276.658 329.5,277.5C 330.183,277.137 330.85,276.804 331.5,276.5C 332.818,279.458 332.818,282.792 331.5,286.5C 324.202,287.559 316.869,287.726 309.5,287C 307.983,285.315 306.316,283.815 304.5,282.5C 303.548,280.955 303.215,279.288 303.5,277.5C 303.81,275.856 304.81,274.856 306.5,274.5 Z"/></g>
<g><path style="opacity:1" fill="#b6b2a0" d="M 303.5,277.5 C 303.215,279.288 303.548,280.955 304.5,282.5C 306.316,283.815 307.983,285.315 309.5,287C 316.869,287.726 324.202,287.559 331.5,286.5C 332.912,287.166 334.245,287.499 335.5,287.5C 335.67,288.822 335.337,289.989 334.5,291C 331.845,292.441 329.012,293.274 326,293.5C 318.398,293.032 310.898,292.032 303.5,290.5C 303.008,288.159 301.841,286.159 300,284.5C 299.36,282.735 299.527,281.068 300.5,279.5C 301.222,278.449 302.222,277.782 303.5,277.5 Z"/></g>
<g><path style="opacity:1" fill="#b8937e" d="M 162.5,271.5 C 162.5,276.833 162.5,282.167 162.5,287.5C 163.194,292.805 163.528,298.138 163.5,303.5C 163.5,305.167 163.5,306.833 163.5,308.5C 162.081,300.88 161.414,293.047 161.5,285C 161.501,280.32 161.834,275.82 162.5,271.5 Z"/></g>
<g><path style="opacity:1" fill="#c7b99e" d="M 296.5,272.5 C 296.5,273.833 297.167,274.5 298.5,274.5C 298.393,276.379 298.893,276.712 300,275.5C 300.062,277.115 300.229,278.448 300.5,279.5C 299.527,281.068 299.36,282.735 300,284.5C 301.841,286.159 303.008,288.159 303.5,290.5C 310.898,292.032 318.398,293.032 326,293.5C 329.012,293.274 331.845,292.441 334.5,291C 335.337,289.989 335.67,288.822 335.5,287.5C 336.496,287.414 337.329,287.748 338,288.5C 340.715,292.024 341.882,296.024 341.5,300.5C 341.5,301.5 341.5,302.5 341.5,303.5C 341.167,303.5 340.833,303.5 340.5,303.5C 340.167,303.5 339.833,303.5 339.5,303.5C 338.596,302.791 338.263,301.791 338.5,300.5C 325.092,301.479 312.425,298.979 300.5,293C 294.992,288.477 292.992,282.644 294.5,275.5C 294.285,273.821 294.952,272.821 296.5,272.5 Z"/></g>
<g><path style="opacity:1" fill="#deba94" d="M 326.5,310.5 C 331.138,310.609 334.305,308.609 336,304.5C 337.669,314.94 338.836,314.606 339.5,303.5C 339.833,303.5 340.167,303.5 340.5,303.5C 340.5,314.167 340.5,324.833 340.5,335.5C 338.841,352.481 337.841,369.814 337.5,387.5C 336.02,367.775 335.52,348.108 336,328.5C 335.794,331.623 335.127,334.623 334,337.5C 329.333,342.167 324.667,346.833 320,351.5C 319.798,349.744 319.298,348.078 318.5,346.5C 311.208,348.887 303.875,350.887 296.5,352.5C 295.949,355.056 294.949,357.389 293.5,359.5C 294.336,362.539 294.002,365.539 292.5,368.5C 293.833,373.833 295.167,373.833 296.5,368.5C 297.325,367.614 298.325,367.281 299.5,367.5C 299.662,369.527 299.495,371.527 299,373.5C 297.108,374.617 296.275,376.284 296.5,378.5C 295.363,377.211 294.03,376.211 292.5,375.5C 292.422,372.169 291.755,369.502 290.5,367.5C 289.5,367.5 288.5,367.5 287.5,367.5C 287.96,362.756 286.46,358.756 283,355.5C 282.35,351.361 280.683,347.694 278,344.5C 276.729,343.117 275.229,342.117 273.5,341.5C 273.25,340.078 272.417,339.078 271,338.5C 269.87,339.114 268.537,339.114 267,338.5C 263.812,339.765 261.146,341.765 259,344.5C 258.601,344.272 258.435,343.938 258.5,343.5C 259.417,337.257 263.084,334.257 269.5,334.5C 267.382,332.561 267.049,330.394 268.5,328C 272.108,327.974 275.442,327.141 278.5,325.5C 279.348,323.591 279.682,321.591 279.5,319.5C 288.743,317.19 298.077,315.19 307.5,313.5C 307.209,309.786 305.376,308.453 302,309.5C 296.031,307.721 290.198,305.721 284.5,303.5C 283.21,302.065 281.544,301.065 279.5,300.5C 281.793,299.374 283.96,298.041 286,296.5C 288.244,298.994 290.577,298.994 293,296.5C 298.644,298.11 298.811,300.11 293.5,302.5C 298.342,302.587 302.342,304.42 305.5,308C 306.899,308.595 308.232,308.428 309.5,307.5C 310.287,308.242 310.953,309.075 311.5,310C 314.659,310.859 317.659,312.025 320.5,313.5C 320.296,312.471 320.796,311.471 322,310.5C 324.313,312.037 326.813,312.537 329.5,312C 328.263,311.768 327.263,311.268 326.5,310.5 Z"/></g>
<g><path style="opacity:1" fill="#debc93" d="M 284.5,303.5 C 290.198,305.721 296.031,307.721 302,309.5C 305.376,308.453 307.209,309.786 307.5,313.5C 298.077,315.19 288.743,317.19 279.5,319.5C 279.682,321.591 279.348,323.591 278.5,325.5C 275.442,327.141 272.108,327.974 268.5,328C 267.049,330.394 267.382,332.561 269.5,334.5C 263.084,334.257 259.417,337.257 258.5,343.5C 257.833,343.5 257.5,343.833 257.5,344.5C 253.45,347.475 249.283,351.142 245,355.5C 244.05,354.978 243.216,354.311 242.5,353.5C 240.423,354.988 239.423,356.988 239.5,359.5C 237.774,359.185 236.107,359.019 234.5,359C 234.833,359.333 235.167,359.667 235.5,360C 234.421,360.956 233.255,361.789 232,362.5C 231.527,364.779 230.527,366.779 229,368.5C 228.586,368.043 228.086,367.709 227.5,367.5C 226.476,368.853 225.143,369.52 223.5,369.5C 223.5,366.167 223.5,362.833 223.5,359.5C 224.822,359.33 225.989,359.663 227,360.5C 228.238,357.074 227.071,355.408 223.5,355.5C 223.5,354.167 223.5,352.833 223.5,351.5C 224.873,351.657 226.207,351.49 227.5,351C 229.257,348.154 231.257,345.488 233.5,343C 231.24,342.956 229.24,343.789 227.5,345.5C 223.164,342.491 219.164,339.157 215.5,335.5C 217.479,333.039 219.979,331.039 223,329.5C 223.494,327.866 223.66,326.199 223.5,324.5C 225.199,324.66 226.866,324.494 228.5,324C 232.017,321.901 235.684,320.401 239.5,319.5C 239.261,317.533 239.594,315.699 240.5,314C 245.403,312.296 250.237,310.463 255,308.5C 255.498,305.518 255.665,302.518 255.5,299.5C 261.303,300.087 266.803,299.42 272,297.5C 274.579,298.369 276.412,300.035 277.5,302.5C 279.743,303.474 282.076,303.808 284.5,303.5 Z"/></g>
<g><path style="opacity:1" fill="#d2ba9a" d="M 294.5,275.5 C 292.992,282.644 294.992,288.477 300.5,293C 312.425,298.979 325.092,301.479 338.5,300.5C 338.263,301.791 338.596,302.791 339.5,303.5C 338.836,314.606 337.669,314.94 336,304.5C 334.305,308.609 331.138,310.609 326.5,310.5C 325.082,308.895 323.248,307.895 321,307.5C 318.929,308.667 317.429,308.001 316.5,305.5C 315.914,305.709 315.414,306.043 315,306.5C 314.727,304.671 313.893,303.171 312.5,302C 305.759,299.546 299.925,295.713 295,290.5C 294.18,286.377 292.68,282.544 290.5,279C 291.202,277.144 292.536,275.977 294.5,275.5 Z"/></g>
<g><path style="opacity:1" fill="#807361" d="M 342.5,250.5 C 343.714,280.178 343.38,309.845 341.5,339.5C 341.5,327.5 341.5,315.5 341.5,303.5C 341.5,302.5 341.5,301.5 341.5,300.5C 342.497,284.008 342.83,267.342 342.5,250.5 Z"/></g>
<g><path style="opacity:1" fill="#deb892" d="M 183.5,322.5 C 184.376,322.369 185.043,322.702 185.5,323.5C 187.558,327.343 189.225,331.343 190.5,335.5C 191.474,333.257 191.808,330.924 191.5,328.5C 193.564,328.687 195.564,329.187 197.5,330C 199.906,333.184 202.906,334.017 206.5,332.5C 209.433,333.805 212.433,334.805 215.5,335.5C 219.164,339.157 223.164,342.491 227.5,345.5C 229.24,343.789 231.24,342.956 233.5,343C 231.257,345.488 229.257,348.154 227.5,351C 226.207,351.49 224.873,351.657 223.5,351.5C 223.5,352.833 223.5,354.167 223.5,355.5C 227.071,355.408 228.238,357.074 227,360.5C 225.989,359.663 224.822,359.33 223.5,359.5C 223.5,362.833 223.5,366.167 223.5,369.5C 225.143,369.52 226.476,368.853 227.5,367.5C 228.086,367.709 228.586,368.043 229,368.5C 230.527,366.779 231.527,364.779 232,362.5C 233.255,361.789 234.421,360.956 235.5,360C 235.167,359.667 234.833,359.333 234.5,359C 236.107,359.019 237.774,359.185 239.5,359.5C 239.423,356.988 240.423,354.988 242.5,353.5C 243.216,354.311 244.05,354.978 245,355.5C 249.283,351.142 253.45,347.475 257.5,344.5C 257.414,345.496 257.748,346.329 258.5,347C 256.561,347.908 255.561,349.408 255.5,351.5C 251.71,351.008 251.044,351.841 253.5,354C 250.412,355.875 247.079,357.208 243.5,358C 240.909,360.966 237.909,363.466 234.5,365.5C 232.872,369.111 230.538,372.111 227.5,374.5C 228.747,376.042 228.747,377.542 227.5,379C 230.228,380.431 230.895,382.431 229.5,385C 230.562,389.595 232.229,393.928 234.5,398C 233.675,400.122 234.341,401.955 236.5,403.5C 239.855,404.516 243.188,405.516 246.5,406.5C 250.126,409.831 254.459,411.497 259.5,411.5C 262.695,413.03 266.195,413.696 270,413.5C 272.5,413.167 275,412.833 277.5,412.5C 277.291,411.914 276.957,411.414 276.5,411C 279.5,410.667 282.5,410.333 285.5,410C 288.023,408.64 290.023,406.807 291.5,404.5C 289.709,407.064 290.376,408.731 293.5,409.5C 294.614,410.723 294.781,412.056 294,413.5C 292.414,416.338 290.581,419.005 288.5,421.5C 283.596,423.189 278.93,425.355 274.5,428C 277.854,431.579 278.187,435.412 275.5,439.5C 276.936,440.934 278.602,442.1 280.5,443C 281.833,443.667 283.167,443.667 284.5,443C 283.304,442.346 283.304,441.846 284.5,441.5C 285.478,441.977 286.311,442.643 287,443.5C 287.333,442.5 287.667,441.5 288,440.5C 289.131,441.604 289.965,441.271 290.5,439.5C 289.737,438.281 288.737,437.281 287.5,436.5C 289.132,436.762 290.299,435.762 291,433.5C 294.832,433.22 298.832,433.553 303,434.5C 304.908,434.715 306.074,435.715 306.5,437.5C 300.987,442.075 294.654,445.242 287.5,447C 274.863,448.748 262.196,448.915 249.5,447.5C 234.291,445.571 220.291,440.238 207.5,431.5C 201.238,427.246 195.238,422.58 189.5,417.5C 185.503,413.335 181.67,409.002 178,404.5C 176.589,402.35 175.755,400.016 175.5,397.5C 173.103,383.084 171.436,368.75 170.5,354.5C 172.067,355.681 172.901,357.347 173,359.5C 173.651,371.014 176.151,382.014 180.5,392.5C 180.291,393.086 179.957,393.586 179.5,394C 181.235,395.182 182.235,396.849 182.5,399C 180.818,400.895 180.318,403.062 181,405.5C 181.718,406.451 182.551,406.617 183.5,406C 184.227,404.601 184.727,403.101 185,401.5C 186.833,402.667 188.333,404.167 189.5,406C 189.101,408.602 189.101,411.102 189.5,413.5C 190.086,413.291 190.586,412.957 191,412.5C 191.497,409.854 191.664,407.187 191.5,404.5C 194.448,404.777 197.281,404.444 200,403.5C 202.459,406.1 204.959,406.1 207.5,403.5C 205.739,400.559 203.072,398.892 199.5,398.5C 198.469,397.3 197.635,395.966 197,394.5C 196.739,397.916 195.239,400.583 192.5,402.5C 190.163,399.262 189.829,395.762 191.5,392C 191.473,389.637 190.306,388.137 188,387.5C 188.044,376.184 186.877,365.018 184.5,354C 185.391,350.126 185.058,346.293 183.5,342.5C 184.687,339.012 185.687,335.512 186.5,332C 184.998,328.995 183.998,325.829 183.5,322.5 Z"/></g>
<g><path style="opacity:1" fill="#dfb88e" d="M 340.5,335.5 C 340.667,353.836 340.5,372.17 340,390.5C 338.913,396.282 337.413,401.948 335.5,407.5C 334.538,410.757 333.038,413.757 331,416.5C 323.255,424.084 315.089,431.084 306.5,437.5C 306.074,435.715 304.908,434.715 303,434.5C 298.832,433.553 294.832,433.22 291,433.5C 290.299,435.762 289.132,436.762 287.5,436.5C 288.737,437.281 289.737,438.281 290.5,439.5C 289.965,441.271 289.131,441.604 288,440.5C 287.667,441.5 287.333,442.5 287,443.5C 286.311,442.643 285.478,441.977 284.5,441.5C 283.304,441.846 283.304,442.346 284.5,443C 283.167,443.667 281.833,443.667 280.5,443C 278.602,442.1 276.936,440.934 275.5,439.5C 278.187,435.412 277.854,431.579 274.5,428C 278.93,425.355 283.596,423.189 288.5,421.5C 290.581,419.005 292.414,416.338 294,413.5C 294.781,412.056 294.614,410.723 293.5,409.5C 290.376,408.731 289.709,407.064 291.5,404.5C 293.64,402.3 295.14,399.633 296,396.5C 296.499,390.509 296.666,384.509 296.5,378.5C 296.275,376.284 297.108,374.617 299,373.5C 299.495,371.527 299.662,369.527 299.5,367.5C 298.325,367.281 297.325,367.614 296.5,368.5C 295.167,373.833 293.833,373.833 292.5,368.5C 294.002,365.539 294.336,362.539 293.5,359.5C 294.949,357.389 295.949,355.056 296.5,352.5C 303.875,350.887 311.208,348.887 318.5,346.5C 319.298,348.078 319.798,349.744 320,351.5C 324.667,346.833 329.333,342.167 334,337.5C 335.127,334.623 335.794,331.623 336,328.5C 335.52,348.108 336.02,367.775 337.5,387.5C 337.841,369.814 338.841,352.481 340.5,335.5 Z"/></g>
<g><path style="opacity:1" fill="#dfbb90" d="M 163.5,303.5 C 165.063,306.915 166.563,310.582 168,314.5C 168.333,311.167 168.667,307.833 169,304.5C 169.333,311.167 169.667,317.833 170,324.5C 170.672,318.771 171.672,318.437 173,323.5C 173.333,320.167 173.667,316.833 174,313.5C 174.333,313.167 174.667,312.833 175,312.5C 175.483,313.448 175.649,314.448 175.5,315.5C 181.176,315.334 186.843,315.501 192.5,316C 189.408,317.121 186.408,318.287 183.5,319.5C 183.5,320.5 183.5,321.5 183.5,322.5C 183.998,325.829 184.998,328.995 186.5,332C 185.687,335.512 184.687,339.012 183.5,342.5C 185.058,346.293 185.391,350.126 184.5,354C 186.877,365.018 188.044,376.184 188,387.5C 190.306,388.137 191.473,389.637 191.5,392C 189.829,395.762 190.163,399.262 192.5,402.5C 195.239,400.583 196.739,397.916 197,394.5C 197.635,395.966 198.469,397.3 199.5,398.5C 203.072,398.892 205.739,400.559 207.5,403.5C 204.959,406.1 202.459,406.1 200,403.5C 197.281,404.444 194.448,404.777 191.5,404.5C 191.664,407.187 191.497,409.854 191,412.5C 190.586,412.957 190.086,413.291 189.5,413.5C 189.101,411.102 189.101,408.602 189.5,406C 188.333,404.167 186.833,402.667 185,401.5C 184.727,403.101 184.227,404.601 183.5,406C 182.551,406.617 181.718,406.451 181,405.5C 180.318,403.062 180.818,400.895 182.5,399C 182.235,396.849 181.235,395.182 179.5,394C 179.957,393.586 180.291,393.086 180.5,392.5C 176.151,382.014 173.651,371.014 173,359.5C 172.901,357.347 172.067,355.681 170.5,354.5C 170.552,347.794 170.052,341.128 169,334.5C 168.722,333.584 168.222,332.918 167.5,332.5C 167.575,327.808 166.575,323.474 164.5,319.5C 163.518,316.038 163.185,312.371 163.5,308.5C 163.5,306.833 163.5,305.167 163.5,303.5 Z"/></g>
<g><path style="opacity:1" fill="#627d88" d="M 105.5,255.5 C 105.833,255.5 106.167,255.5 106.5,255.5C 106.733,267.576 105.9,279.576 104,291.5C 98.1354,312.764 92.4687,334.097 87,355.5C 86.155,368.243 86.8217,380.91 89,393.5C 92.0172,400.198 93.8505,407.198 94.5,414.5C 93.6851,413.571 92.8518,412.571 92,411.5C 91.1626,407.486 90.3292,403.486 89.5,399.5C 88.5,399.5 87.5,399.5 86.5,399.5C 85.2877,394.898 84.2877,390.232 83.5,385.5C 83.0049,373.17 83.5049,360.837 85,348.5C 84.9715,344.315 86.3048,340.648 89,337.5C 90.4843,326.783 93.6509,316.283 98.5,306C 100.508,298.287 102.341,290.454 104,282.5C 104.17,273.324 104.67,264.324 105.5,255.5 Z"/></g>
<g><path style="opacity:1" fill="#dcaf94" d="M 273.5,341.5 C 270.928,340.292 268.594,340.625 266.5,342.5C 264.31,343.802 262.31,345.469 260.5,347.5C 259.571,348.689 259.238,350.022 259.5,351.5C 254.167,355.833 248.833,360.167 243.5,364.5C 242.448,364.351 241.448,364.517 240.5,365C 239.252,366.959 237.585,368.459 235.5,369.5C 234.194,370.912 233.36,372.579 233,374.5C 232.547,377.84 232.047,381.174 231.5,384.5C 231.759,388.185 232.759,391.518 234.5,394.5C 236.213,395.635 236.88,397.302 236.5,399.5C 237.5,399.5 238.5,399.5 239.5,399.5C 240.534,402.858 242.867,404.858 246.5,405.5C 246.5,405.833 246.5,406.167 246.5,406.5C 243.188,405.516 239.855,404.516 236.5,403.5C 234.341,401.955 233.675,400.122 234.5,398C 232.229,393.928 230.562,389.595 229.5,385C 230.895,382.431 230.228,380.431 227.5,379C 228.747,377.542 228.747,376.042 227.5,374.5C 230.538,372.111 232.872,369.111 234.5,365.5C 237.909,363.466 240.909,360.966 243.5,358C 247.079,357.208 250.412,355.875 253.5,354C 251.044,351.841 251.71,351.008 255.5,351.5C 255.561,349.408 256.561,347.908 258.5,347C 257.748,346.329 257.414,345.496 257.5,344.5C 257.5,343.833 257.833,343.5 258.5,343.5C 258.435,343.938 258.601,344.272 259,344.5C 261.146,341.765 263.812,339.765 267,338.5C 268.537,339.114 269.87,339.114 271,338.5C 272.417,339.078 273.25,340.078 273.5,341.5 Z"/></g>
<g><path style="opacity:1" fill="#907261" d="M 266.5,342.5 C 268.099,342.232 269.432,342.566 270.5,343.5C 266.187,342.487 263.854,344.154 263.5,348.5C 262.738,350.262 261.404,351.262 259.5,351.5C 259.238,350.022 259.571,348.689 260.5,347.5C 262.31,345.469 264.31,343.802 266.5,342.5 Z"/></g>
<g><path style="opacity:1" fill="#5e4a44" d="M 270.5,343.5 C 272.749,344.08 274.415,345.413 275.5,347.5C 273.448,346.29 271.282,345.29 269,344.5C 268.167,344.667 267.333,344.833 266.5,345C 265.837,346.518 264.837,347.685 263.5,348.5C 263.854,344.154 266.187,342.487 270.5,343.5 Z"/></g>
<g><path style="opacity:1" fill="#8f6754" d="M 164.5,319.5 C 166.575,323.474 167.575,327.808 167.5,332.5C 168.372,338.789 168.705,345.122 168.5,351.5C 167.572,340.916 166.238,330.249 164.5,319.5 Z"/></g>
<g><path style="opacity:1" fill="#b49277" d="M 340.5,303.5 C 340.833,303.5 341.167,303.5 341.5,303.5C 341.5,315.5 341.5,327.5 341.5,339.5C 341.667,357.503 341.5,375.503 341,393.5C 340.369,398.742 338.535,403.409 335.5,407.5C 337.413,401.948 338.913,396.282 340,390.5C 340.5,372.17 340.667,353.836 340.5,335.5C 340.5,324.833 340.5,314.167 340.5,303.5 Z"/></g>
<g><path style="opacity:1" fill="#cea593" d="M 273.5,341.5 C 275.229,342.117 276.729,343.117 278,344.5C 280.683,347.694 282.35,351.361 283,355.5C 286.46,358.756 287.96,362.756 287.5,367.5C 288.5,367.5 289.5,367.5 290.5,367.5C 291.755,369.502 292.422,372.169 292.5,375.5C 291.778,374.449 290.778,373.782 289.5,373.5C 287.175,368.853 284.341,364.52 281,360.5C 279.257,357.043 278.257,353.377 278,349.5C 277.292,348.619 276.458,347.953 275.5,347.5C 274.415,345.413 272.749,344.08 270.5,343.5C 269.432,342.566 268.099,342.232 266.5,342.5C 268.594,340.625 270.928,340.292 273.5,341.5 Z"/></g>
<g><path style="opacity:1" fill="#8f6756" d="M 168.5,351.5 C 169.538,358.653 170.204,365.986 170.5,373.5C 168.761,366.412 168.094,359.079 168.5,351.5 Z"/></g>
<g><path style="opacity:1" fill="#d6a283" d="M 167.5,332.5 C 168.222,332.918 168.722,333.584 169,334.5C 170.052,341.128 170.552,347.794 170.5,354.5C 171.436,368.75 173.103,383.084 175.5,397.5C 174.076,395.485 173.41,393.152 173.5,390.5C 173.876,385.727 172.876,381.393 170.5,377.5C 170.5,376.167 170.5,374.833 170.5,373.5C 170.204,365.986 169.538,358.653 168.5,351.5C 168.705,345.122 168.372,338.789 167.5,332.5 Z"/></g>
<g><path style="opacity:1" fill="#627584" d="M 421.5,319.5 C 428.941,337.889 430.441,356.889 426,376.5C 425.617,377.056 425.117,377.389 424.5,377.5C 426.245,370.287 427.245,362.954 427.5,355.5C 426.151,343.39 424.151,331.39 421.5,319.5 Z"/></g>
<g><path style="opacity:1" fill="#130c08" d="M 275.5,347.5 C 276.458,347.953 277.292,348.619 278,349.5C 278.257,353.377 279.257,357.043 281,360.5C 284.341,364.52 287.175,368.853 289.5,373.5C 290.167,375.833 290.833,378.167 291.5,380.5C 291.5,381.167 291.167,381.5 290.5,381.5C 278.803,381.746 267.136,381.413 255.5,380.5C 249.253,379.776 242.92,378.776 236.5,377.5C 235.833,377.5 235.5,377.167 235.5,376.5C 235.343,375.127 235.51,373.793 236,372.5C 238.705,369.964 241.205,367.297 243.5,364.5C 248.833,360.167 254.167,355.833 259.5,351.5C 261.404,351.262 262.738,350.262 263.5,348.5C 264.837,347.685 265.837,346.518 266.5,345C 267.333,344.833 268.167,344.667 269,344.5C 271.282,345.29 273.448,346.29 275.5,347.5 Z"/></g>
<g><path style="opacity:1" fill="#65124a" d="M 236.5,378.5 C 236.5,378.167 236.5,377.833 236.5,377.5C 242.92,378.776 249.253,379.776 255.5,380.5C 252.833,380.5 250.167,380.5 247.5,380.5C 245.5,380.5 243.5,380.5 241.5,380.5C 240.791,379.596 239.791,379.263 238.5,379.5C 238.158,378.662 237.492,378.328 236.5,378.5 Z"/></g>
<g><path style="opacity:1" fill="#4d0332" d="M 255.5,380.5 C 267.136,381.413 278.803,381.746 290.5,381.5C 290.167,382.167 289.833,382.833 289.5,383.5C 279.159,383.215 268.826,382.715 258.5,382C 257.263,381.768 256.263,381.268 255.5,380.5 Z"/></g>
<g><path style="opacity:1" fill="#976e5f" d="M 170.5,377.5 C 172.876,381.393 173.876,385.727 173.5,390.5C 171.678,386.467 170.678,382.133 170.5,377.5 Z"/></g>
<g><path style="opacity:1" fill="#da82a0" d="M 289.5,373.5 C 290.778,373.782 291.778,374.449 292.5,375.5C 294.478,381.659 294.978,387.993 294,394.5C 293.617,395.056 293.117,395.389 292.5,395.5C 293.167,390.84 293.333,386.174 293,381.5C 292.617,380.944 292.117,380.611 291.5,380.5C 290.833,378.167 290.167,375.833 289.5,373.5 Z"/></g>
<g><path style="opacity:1" fill="#e578c4" d="M 236.5,378.5 C 237.492,378.328 238.158,378.662 238.5,379.5C 236.577,383.029 235.911,387.029 236.5,391.5C 233.991,387.186 233.991,382.852 236.5,378.5 Z"/></g>
<g><path style="opacity:1" fill="#dd56cf" d="M 238.5,379.5 C 239.791,379.263 240.791,379.596 241.5,380.5C 240.624,380.369 239.957,380.702 239.5,381.5C 240.376,382.251 241.376,382.751 242.5,383C 241.759,388.516 242.092,394.016 243.5,399.5C 242.167,399.5 240.833,399.5 239.5,399.5C 239.507,396.355 238.507,393.689 236.5,391.5C 235.911,387.029 236.577,383.029 238.5,379.5 Z"/></g>
<g><path style="opacity:1" fill="#c215c7" d="M 251.5,382.5 C 254.216,382.678 256.883,383.178 259.5,384C 258.167,384.667 258.167,385.333 259.5,386C 264.833,386.333 270.167,386.667 275.5,387C 275.833,387.333 276.167,387.667 276.5,388C 275.635,389.359 274.635,390.526 273.5,391.5C 265.655,391.778 257.655,391.445 249.5,390.5C 244.675,393.236 242.841,391.57 244,385.5C 245.848,382.959 248.348,381.959 251.5,382.5 Z"/></g>
<g><path style="opacity:1" fill="#c711aa" d="M 247.5,380.5 C 250.167,380.5 252.833,380.5 255.5,380.5C 256.263,381.268 257.263,381.768 258.5,382C 268.826,382.715 279.159,383.215 289.5,383.5C 287.774,385.82 287.107,388.487 287.5,391.5C 286.298,392.405 284.964,392.405 283.5,391.5C 280.543,393.229 277.543,395.063 274.5,397C 268.143,397.346 261.81,397.846 255.5,398.5C 255.5,400.167 255.5,401.833 255.5,403.5C 253.442,402.067 251.108,401.4 248.5,401.5C 248.279,400.265 247.612,399.265 246.5,398.5C 249.037,398.273 251.704,397.44 254.5,396C 260.196,395.83 265.862,395.33 271.5,394.5C 272.612,393.735 273.279,392.735 273.5,391.5C 274.635,390.526 275.635,389.359 276.5,388C 276.167,387.667 275.833,387.333 275.5,387C 270.167,386.667 264.833,386.333 259.5,386C 258.167,385.333 258.167,384.667 259.5,384C 256.883,383.178 254.216,382.678 251.5,382.5C 250.167,381.833 248.833,381.167 247.5,380.5 Z"/></g>
<g><path style="opacity:1" fill="#e16fc0" d="M 291.5,380.5 C 292.117,380.611 292.617,380.944 293,381.5C 293.333,386.174 293.167,390.84 292.5,395.5C 291.566,396.568 291.232,397.901 291.5,399.5C 290.167,399.5 288.833,399.5 287.5,399.5C 287.5,397.833 287.5,396.167 287.5,394.5C 288.79,393.942 289.623,392.942 290,391.5C 290.5,389.5 291,387.5 291.5,385.5C 291.253,384.287 290.586,383.62 289.5,383.5C 289.833,382.833 290.167,382.167 290.5,381.5C 291.167,381.5 291.5,381.167 291.5,380.5 Z"/></g>
<g><path style="opacity:1" fill="#de50d0" d="M 289.5,383.5 C 290.586,383.62 291.253,384.287 291.5,385.5C 291,387.5 290.5,389.5 290,391.5C 289.623,392.942 288.79,393.942 287.5,394.5C 287.5,393.5 287.5,392.5 287.5,391.5C 287.107,388.487 287.774,385.82 289.5,383.5 Z"/></g>
<g><path style="opacity:1" fill="#db989b" d="M 243.5,364.5 C 241.205,367.297 238.705,369.964 236,372.5C 235.51,373.793 235.343,375.127 235.5,376.5C 233.205,382.26 232.872,388.26 234.5,394.5C 232.759,391.518 231.759,388.185 231.5,384.5C 232.047,381.174 232.547,377.84 233,374.5C 233.36,372.579 234.194,370.912 235.5,369.5C 237.585,368.459 239.252,366.959 240.5,365C 241.448,364.517 242.448,364.351 243.5,364.5 Z"/></g>
<g><path style="opacity:1" fill="#d41ac9" d="M 241.5,380.5 C 243.5,380.5 245.5,380.5 247.5,380.5C 248.833,381.167 250.167,381.833 251.5,382.5C 248.348,381.959 245.848,382.959 244,385.5C 242.841,391.57 244.675,393.236 249.5,390.5C 257.655,391.445 265.655,391.778 273.5,391.5C 273.279,392.735 272.612,393.735 271.5,394.5C 265.862,395.33 260.196,395.83 254.5,396C 251.704,397.44 249.037,398.273 246.5,398.5C 247.612,399.265 248.279,400.265 248.5,401.5C 246.678,401.169 245.011,400.502 243.5,399.5C 242.092,394.016 241.759,388.516 242.5,383C 241.376,382.751 240.376,382.251 239.5,381.5C 239.957,380.702 240.624,380.369 241.5,380.5 Z"/></g>
<g><path style="opacity:1" fill="#e386b2" d="M 235.5,376.5 C 235.5,377.167 235.833,377.5 236.5,377.5C 236.5,377.833 236.5,378.167 236.5,378.5C 233.991,382.852 233.991,387.186 236.5,391.5C 238.507,393.689 239.507,396.355 239.5,399.5C 238.5,399.5 237.5,399.5 236.5,399.5C 236.88,397.302 236.213,395.635 234.5,394.5C 232.872,388.26 233.205,382.26 235.5,376.5 Z"/></g>
<g><path style="opacity:1" fill="#c2038c" d="M 283.5,391.5 C 283.371,393.216 283.038,394.883 282.5,396.5C 275.258,398.199 267.591,399.199 259.5,399.5C 260.289,402.434 262.289,404.268 265.5,405C 267.473,405.495 269.473,405.662 271.5,405.5C 266.001,406.962 260.667,406.295 255.5,403.5C 255.5,401.833 255.5,400.167 255.5,398.5C 261.81,397.846 268.143,397.346 274.5,397C 277.543,395.063 280.543,393.229 283.5,391.5 Z"/></g>
<g><path style="opacity:1" fill="#e33db3" d="M 283.5,391.5 C 284.964,392.405 286.298,392.405 287.5,391.5C 287.5,392.5 287.5,393.5 287.5,394.5C 287.5,396.167 287.5,397.833 287.5,399.5C 284.911,401.902 282.078,404.236 279,406.5C 277.56,407.148 276.06,407.481 274.5,407.5C 266.282,408.01 258.282,407.01 250.5,404.5C 246.763,404.759 244.43,403.093 243.5,399.5C 245.011,400.502 246.678,401.169 248.5,401.5C 251.108,401.4 253.442,402.067 255.5,403.5C 260.667,406.295 266.001,406.962 271.5,405.5C 275.925,404.756 279.759,402.756 283,399.5C 283.74,398.251 283.573,397.251 282.5,396.5C 283.038,394.883 283.371,393.216 283.5,391.5 Z"/></g>
<g><path style="opacity:1" fill="#e089af" d="M 239.5,399.5 C 240.833,399.5 242.167,399.5 243.5,399.5C 244.43,403.093 246.763,404.759 250.5,404.5C 250.833,405.167 251.167,405.833 251.5,406.5C 249.883,405.962 248.216,405.629 246.5,405.5C 242.867,404.858 240.534,402.858 239.5,399.5 Z"/></g>
<g><path style="opacity:1" fill="#b70170" d="M 282.5,396.5 C 283.573,397.251 283.74,398.251 283,399.5C 279.759,402.756 275.925,404.756 271.5,405.5C 269.473,405.662 267.473,405.495 265.5,405C 262.289,404.268 260.289,402.434 259.5,399.5C 267.591,399.199 275.258,398.199 282.5,396.5 Z"/></g>
<g><path style="opacity:1" fill="#e374bb" d="M 250.5,404.5 C 258.282,407.01 266.282,408.01 274.5,407.5C 274.5,407.833 274.5,408.167 274.5,408.5C 268.322,409.817 261.988,409.817 255.5,408.5C 254.051,407.828 252.718,407.161 251.5,406.5C 251.167,405.833 250.833,405.167 250.5,404.5 Z"/></g>
<g><path style="opacity:1" fill="#e087ad" d="M 287.5,399.5 C 288.833,399.5 290.167,399.5 291.5,399.5C 291.631,400.239 291.464,400.906 291,401.5C 287.151,404.733 282.984,407.066 278.5,408.5C 277.167,408.5 275.833,408.5 274.5,408.5C 274.5,408.167 274.5,407.833 274.5,407.5C 276.06,407.481 277.56,407.148 279,406.5C 282.078,404.236 284.911,401.902 287.5,399.5 Z"/></g>
<g><path style="opacity:1" fill="#dea2a0" d="M 246.5,406.5 C 246.5,406.167 246.5,405.833 246.5,405.5C 248.216,405.629 249.883,405.962 251.5,406.5C 252.718,407.161 254.051,407.828 255.5,408.5C 261.988,409.817 268.322,409.817 274.5,408.5C 275.833,408.5 277.167,408.5 278.5,408.5C 272.556,411.089 266.222,412.089 259.5,411.5C 254.459,411.497 250.126,409.831 246.5,406.5 Z"/></g>
<g><path style="opacity:1" fill="#e1ae98" d="M 292.5,375.5 C 294.03,376.211 295.363,377.211 296.5,378.5C 296.666,384.509 296.499,390.509 296,396.5C 295.14,399.633 293.64,402.3 291.5,404.5C 290.023,406.807 288.023,408.64 285.5,410C 282.5,410.333 279.5,410.667 276.5,411C 276.957,411.414 277.291,411.914 277.5,412.5C 275,412.833 272.5,413.167 270,413.5C 266.195,413.696 262.695,413.03 259.5,411.5C 266.222,412.089 272.556,411.089 278.5,408.5C 282.984,407.066 287.151,404.733 291,401.5C 291.464,400.906 291.631,400.239 291.5,399.5C 291.232,397.901 291.566,396.568 292.5,395.5C 293.117,395.389 293.617,395.056 294,394.5C 294.978,387.993 294.478,381.659 292.5,375.5 Z"/></g>
<g><path style="opacity:1" fill="#8b6845" d="M 189.5,417.5 C 195.238,422.58 201.238,427.246 207.5,431.5C 207.5,432.167 207.5,432.833 207.5,433.5C 201.076,430.955 195.743,426.955 191.5,421.5C 190.513,424.768 190.18,428.102 190.5,431.5C 189.514,427.03 189.181,422.363 189.5,417.5 Z"/></g>
<g><path style="opacity:1" fill="#55483b" d="M 207.5,431.5 C 220.291,440.238 234.291,445.571 249.5,447.5C 247.901,447.232 246.568,447.566 245.5,448.5C 244.833,448.5 244.167,448.5 243.5,448.5C 242.167,448.5 240.833,448.5 239.5,448.5C 232.408,446.301 225.408,443.634 218.5,440.5C 214.543,438.527 210.876,436.194 207.5,433.5C 207.5,432.833 207.5,432.167 207.5,431.5 Z"/></g>
<g><path style="opacity:1" fill="#d8ac7b" d="M 207.5,433.5 C 210.876,436.194 214.543,438.527 218.5,440.5C 216.672,442.161 214.672,443.828 212.5,445.5C 223.817,447.657 233.15,453.157 240.5,462C 239.62,463.356 239.286,464.856 239.5,466.5C 241.861,466.674 244.194,467.007 246.5,467.5C 247.126,470.315 248.46,472.815 250.5,475C 249.434,476.159 249.767,476.992 251.5,477.5C 252.869,480.131 252.202,480.798 249.5,479.5C 248.262,483.311 247.596,483.311 247.5,479.5C 246.022,479.238 244.689,479.571 243.5,480.5C 243.119,482.741 242.952,485.074 243,487.5C 241.493,483.764 240.66,483.764 240.5,487.5C 233.159,487.666 225.826,487.5 218.5,487C 215.18,486.257 212.013,485.09 209,483.5C 206.467,486.054 204.8,485.387 204,481.5C 203.655,486.262 202.822,490.929 201.5,495.5C 200.803,491.623 200.136,487.79 199.5,484C 202.207,480.65 201.207,478.983 196.5,479C 195.978,478.439 195.645,477.772 195.5,477C 194.404,465.919 194.404,454.752 195.5,443.5C 199.5,444.167 201.167,442.5 200.5,438.5C 197.358,438.201 195.191,436.534 194,433.5C 192.941,440.935 192.108,448.268 191.5,455.5C 191.826,447.316 191.492,439.316 190.5,431.5C 190.18,428.102 190.513,424.768 191.5,421.5C 195.743,426.955 201.076,430.955 207.5,433.5 Z"/></g>
<g><path style="opacity:1" fill="#988571" d="M 239.5,448.5 C 240.833,448.5 242.167,448.5 243.5,448.5C 244.574,449.885 245.907,451.051 247.5,452C 246.756,453.815 246.089,455.648 245.5,457.5C 244.761,457.369 244.094,457.536 243.5,458C 244.823,458.816 245.489,459.983 245.5,461.5C 242.494,460.363 240.494,458.197 239.5,455C 239.439,453.289 240.106,451.956 241.5,451C 240.619,450.292 239.953,449.458 239.5,448.5 Z"/></g>
<g><path style="opacity:1" fill="#6c645a" d="M 243.5,448.5 C 244.167,448.5 244.833,448.5 245.5,448.5C 250.998,450.396 256.665,452.063 262.5,453.5C 262.539,454.583 262.873,455.583 263.5,456.5C 259.673,458.554 255.673,460.221 251.5,461.5C 249.322,460.343 247.322,459.01 245.5,457.5C 246.089,455.648 246.756,453.815 247.5,452C 245.907,451.051 244.574,449.885 243.5,448.5 Z"/></g>
<g><path style="opacity:1" fill="#2a2a28" d="M 265.5,455.5 C 266.167,455.5 266.5,455.833 266.5,456.5C 265.541,460.767 264.874,465.1 264.5,469.5C 265.431,477.155 265.598,484.822 265,492.5C 265.03,495.361 264.197,497.695 262.5,499.5C 262.5,498.167 262.5,496.833 262.5,495.5C 263.434,494.432 263.768,493.099 263.5,491.5C 264.65,486.684 264.816,481.684 264,476.5C 262.346,473.036 261.179,469.369 260.5,465.5C 262.155,462.173 263.822,458.84 265.5,455.5 Z"/></g>
<g><path style="opacity:1" fill="#50453c" d="M 262.5,453.5 C 263.5,454.167 264.5,454.833 265.5,455.5C 263.822,458.84 262.155,462.173 260.5,465.5C 261.179,469.369 262.346,473.036 264,476.5C 264.816,481.684 264.65,486.684 263.5,491.5C 264.119,483.543 262.286,476.21 258,469.5C 254.562,467.739 252.396,465.073 251.5,461.5C 255.673,460.221 259.673,458.554 263.5,456.5C 262.873,455.583 262.539,454.583 262.5,453.5 Z"/></g>
<g><path style="opacity:1" fill="#586873" d="M 367.5,469.5 C 367.389,470.117 367.056,470.617 366.5,471C 354.187,470.715 341.854,470.549 329.5,470.5C 333.26,469.206 337.26,468.54 341.5,468.5C 350.149,469.299 358.816,469.632 367.5,469.5 Z"/></g>
<g><path style="opacity:1" fill="#826851" d="M 245.5,457.5 C 247.322,459.01 249.322,460.343 251.5,461.5C 252.396,465.073 254.562,467.739 258,469.5C 262.286,476.21 264.119,483.543 263.5,491.5C 263.768,493.099 263.434,494.432 262.5,495.5C 263.404,487.66 261.904,480.327 258,473.5C 253.305,469.97 249.138,465.97 245.5,461.5C 245.489,459.983 244.823,458.816 243.5,458C 244.094,457.536 244.761,457.369 245.5,457.5 Z"/></g>
<g><path style="opacity:1" fill="#3b4750" d="M 299.5,468.5 C 293.445,468.338 287.445,468.838 281.5,470C 278.8,471.857 277.134,474.357 276.5,477.5C 276.167,477.5 275.833,477.5 275.5,477.5C 275.365,473.939 276.698,471.105 279.5,469C 286.295,467.436 292.961,467.269 299.5,468.5 Z"/></g>
<g><path style="opacity:1" fill="#c69f7b" d="M 218.5,440.5 C 225.408,443.634 232.408,446.301 239.5,448.5C 239.953,449.458 240.619,450.292 241.5,451C 240.106,451.956 239.439,453.289 239.5,455C 240.494,458.197 242.494,460.363 245.5,461.5C 249.138,465.97 253.305,469.97 258,473.5C 261.904,480.327 263.404,487.66 262.5,495.5C 261.857,497.076 260.857,498.41 259.5,499.5C 260.474,493.528 260.641,487.528 260,481.5C 259.274,478.715 257.774,478.048 255.5,479.5C 254.533,478.194 253.199,477.527 251.5,477.5C 249.767,476.992 249.434,476.159 250.5,475C 248.46,472.815 247.126,470.315 246.5,467.5C 244.194,467.007 241.861,466.674 239.5,466.5C 239.286,464.856 239.62,463.356 240.5,462C 233.15,453.157 223.817,447.657 212.5,445.5C 214.672,443.828 216.672,442.161 218.5,440.5 Z"/></g>
<g><path style="opacity:1" fill="#0d1316" d="M 266.5,456.5 C 267.327,461.651 267.827,466.984 268,472.5C 268.931,474.459 269.764,476.459 270.5,478.5C 268.938,480.901 269.271,482.901 271.5,484.5C 272.325,482.64 273.325,480.974 274.5,479.5C 273.881,486.38 272.881,493.213 271.5,500C 271.528,501.07 271.861,501.903 272.5,502.5C 275.833,505.5 279.167,508.5 282.5,511.5C 275.833,511.5 269.167,511.5 262.5,511.5C 261.38,507.528 261.38,503.528 262.5,499.5C 264.197,497.695 265.03,495.361 265,492.5C 265.598,484.822 265.431,477.155 264.5,469.5C 264.874,465.1 265.541,460.767 266.5,456.5 Z"/></g>
<g><path style="opacity:1" fill="#d7af80" d="M 251.5,477.5 C 253.199,477.527 254.533,478.194 255.5,479.5C 258.483,485.745 259.316,492.411 258,499.5C 256.325,502.028 254.992,504.694 254,507.5C 246.691,506.566 239.358,506.899 232,508.5C 221.003,508.068 210.17,507.068 199.5,505.5C 198.85,505.196 198.183,504.863 197.5,504.5C 197.031,500.965 195.531,497.965 193,495.5C 192.817,492.635 192.317,489.969 191.5,487.5C 191.5,476.833 191.5,466.167 191.5,455.5C 192.108,448.268 192.941,440.935 194,433.5C 195.191,436.534 197.358,438.201 200.5,438.5C 201.167,442.5 199.5,444.167 195.5,443.5C 194.404,454.752 194.404,465.919 195.5,477C 195.645,477.772 195.978,478.439 196.5,479C 201.207,478.983 202.207,480.65 199.5,484C 200.136,487.79 200.803,491.623 201.5,495.5C 202.822,490.929 203.655,486.262 204,481.5C 204.8,485.387 206.467,486.054 209,483.5C 212.013,485.09 215.18,486.257 218.5,487C 225.826,487.5 233.159,487.666 240.5,487.5C 240.66,483.764 241.493,483.764 243,487.5C 242.952,485.074 243.119,482.741 243.5,480.5C 244.689,479.571 246.022,479.238 247.5,479.5C 247.596,483.311 248.262,483.311 249.5,479.5C 252.202,480.798 252.869,480.131 251.5,477.5 Z"/></g>
<g><path style="opacity:1" fill="#5f707d" d="M 275.5,477.5 C 275.833,477.5 276.167,477.5 276.5,477.5C 277.193,486.229 275.86,494.563 272.5,502.5C 271.861,501.903 271.528,501.07 271.5,500C 272.881,493.213 273.881,486.38 274.5,479.5C 275.338,479.158 275.672,478.492 275.5,477.5 Z"/></g>
<g><path style="opacity:1" fill="#7a695b" d="M 262.5,495.5 C 262.5,496.833 262.5,498.167 262.5,499.5C 260.75,503.183 260.083,507.183 260.5,511.5C 259.833,511.5 259.167,511.5 258.5,511.5C 258.237,507.4 258.57,503.4 259.5,499.5C 260.857,498.41 261.857,497.076 262.5,495.5 Z"/></g>
<g><path style="opacity:1" fill="#d7a486" d="M 191.5,487.5 C 192.317,489.969 192.817,492.635 193,495.5C 195.531,497.965 197.031,500.965 197.5,504.5C 198.183,504.863 198.85,505.196 199.5,505.5C 201.326,506.148 203.326,507.314 205.5,509C 201.57,509.242 197.903,510.075 194.5,511.5C 193.5,511.5 192.5,511.5 191.5,511.5C 191.5,503.5 191.5,495.5 191.5,487.5 Z"/></g>
<g><path style="opacity:1" fill="#3e3b37" d="M 262.5,499.5 C 261.38,503.528 261.38,507.528 262.5,511.5C 261.833,511.5 261.167,511.5 260.5,511.5C 260.083,507.183 260.75,503.183 262.5,499.5 Z"/></g>
<g><path style="opacity:1" fill="#d3ae8b" d="M 259.5,499.5 C 258.57,503.4 258.237,507.4 258.5,511.5C 237.167,511.5 215.833,511.5 194.5,511.5C 197.903,510.075 201.57,509.242 205.5,509C 203.326,507.314 201.326,506.148 199.5,505.5C 210.17,507.068 221.003,508.068 232,508.5C 239.358,506.899 246.691,506.566 254,507.5C 254.992,504.694 256.325,502.028 258,499.5C 259.316,492.411 258.483,485.745 255.5,479.5C 257.774,478.048 259.274,478.715 260,481.5C 260.641,487.528 260.474,493.528 259.5,499.5 Z"/></g>
</svg>
