<?xml version="1.0" encoding="UTF-8"?>
<!DOCTYPE svg PUBLIC "-//W3C//DTD SVG 1.1//EN" "http://www.w3.org/Graphics/SVG/1.1/DTD/svg11.dtd">
<svg xmlns="http://www.w3.org/2000/svg" version="1.1" width="512px" height="512px" style="shape-rendering:geometricPrecision; text-rendering:geometricPrecision; image-rendering:optimizeQuality; fill-rule:evenodd; clip-rule:evenodd" xmlns:xlink="http://www.w3.org/1999/xlink">
<g><path style="opacity:1" fill="#95544e" d="M -0.5,-0.5 C 170.167,-0.5 340.833,-0.5 511.5,-0.5C 511.5,170.167 511.5,340.833 511.5,511.5C 435.167,511.5 358.833,511.5 282.5,511.5C 279.908,507.317 277.575,502.984 275.5,498.5C 275.295,488.736 276.129,479.069 278,469.5C 280.116,467.208 282.282,465.208 284.5,463.5C 290.855,461.682 297.188,459.682 303.5,457.5C 307.167,454.5 310.5,451.167 313.5,447.5C 314.529,444.109 316.529,441.443 319.5,439.5C 325.231,433.693 331.731,428.693 339,424.5C 342.101,420.67 344.268,416.337 345.5,411.5C 348.687,409.656 350.687,406.989 351.5,403.5C 354.785,402.598 358.119,401.598 361.5,400.5C 364.47,401.826 367.47,403.16 370.5,404.5C 371.5,404.333 372.5,404.167 373.5,404C 374.974,401.256 375.807,398.423 376,395.5C 379.955,393.241 382.122,389.908 382.5,385.5C 384.467,385.739 386.301,385.406 388,384.5C 389.466,386.325 391.299,386.825 393.5,386C 395.282,382.039 396.282,377.872 396.5,373.5C 398.481,363.571 400.147,353.571 401.5,343.5C 403.001,335.722 403.668,327.722 403.5,319.5C 403.499,313.989 403.166,308.656 402.5,303.5C 401.665,292.815 400.498,282.149 399,271.5C 390.725,233.357 382.058,195.357 373,157.5C 365.585,130.418 350.085,109.251 326.5,94C 321.4,91.7765 316.4,89.6098 311.5,87.5C 309.123,86.1127 306.457,85.2794 303.5,85C 273.5,84.3333 243.5,84.3333 213.5,85C 206.74,86.2546 200.074,87.4212 193.5,88.5C 193.047,87.5416 192.381,86.7083 191.5,86C 196.834,85.4332 202.167,84.9332 207.5,84.5C 207.5,83.5 207.5,82.5 207.5,81.5C 203.563,81.2065 199.73,81.5399 196,82.5C 191.901,80.8679 190.734,78.0346 192.5,74C 197.643,72.2586 202.643,70.2586 207.5,68C 212.823,67.5006 218.156,67.334 223.5,67.5C 223.5,66.1667 223.5,64.8333 223.5,63.5C 222.167,63.5 220.833,63.5 219.5,63.5C 219.5,58.1667 219.5,52.8333 219.5,47.5C 220.833,47.5 222.167,47.5 223.5,47.5C 223.5,50.1667 223.5,52.8333 223.5,55.5C 234.59,54.8703 245.423,55.5369 256,57.5C 260.864,55.8093 263.697,52.476 264.5,47.5C 267.045,47.8495 269.045,47.0162 270.5,45C 268.93,43.1636 267.43,43.3303 266,45.5C 265.5,45.1667 265,44.8333 264.5,44.5C 265.833,43.1667 265.833,41.8333 264.5,40.5C 259.501,39.2691 254.501,39.2691 249.5,40.5C 246.379,42.4277 243.046,43.761 239.5,44.5C 239.234,40.9206 237.901,40.5873 235.5,43.5C 233.585,42.2913 231.752,40.958 230,39.5C 229.127,39.7355 228.293,40.0688 227.5,40.5C 222.407,40.1841 217.574,39.1841 213,37.5C 211.622,39.2134 209.955,40.5467 208,41.5C 208.423,39.6133 208.256,37.6133 207.5,35.5C 212.023,36.0232 213.023,34.6899 210.5,31.5C 209.522,31.9767 208.689,32.6433 208,33.5C 207.591,31.0087 206.424,29.0087 204.5,27.5C 204.833,26.5 205.5,25.8333 206.5,25.5C 208.169,26.6709 209.669,28.0042 211,29.5C 213.167,28.6667 214.667,27.1667 215.5,25C 215.172,22.9754 215.006,20.8088 215,18.5C 213.867,20.2112 212.367,20.7112 210.5,20C 208.013,18.208 205.346,16.708 202.5,15.5C 201.757,14.0921 200.923,12.7588 200,11.5C 190.881,11.3037 181.715,11.3037 172.5,11.5C 172.657,10.1266 172.49,8.79323 172,7.5C 168.17,11.4734 164.67,11.3068 161.5,7C 162.345,5.44185 161.679,4.44185 159.5,4C 159.833,3.66667 160.167,3.33333 160.5,3C 147.744,2.3012 144.744,2.46787 151.5,3.5C 151.5,4.5 151.5,5.5 151.5,6.5C 154.187,6.33591 156.854,6.50258 159.5,7C 157.616,7.21631 155.949,7.88298 154.5,9C 150.628,8.36952 146.795,8.53618 143,9.5C 139.06,7.84998 134.893,7.01665 130.5,7C 131.833,6.66667 133.167,6.33333 134.5,6C 132.1,5.81416 129.766,5.31416 127.5,4.5C 128.025,3.80762 128.692,3.30762 129.5,3C 126.167,2.33333 122.833,2.33333 119.5,3C 121.788,3.82214 124.122,4.4888 126.5,5C 125.167,5.33333 123.833,5.66667 122.5,6C 122.833,6.33333 123.167,6.66667 123.5,7C 119.167,7.66667 114.833,7.66667 110.5,7C 110.833,6.66667 111.167,6.33333 111.5,6C 108.774,5.81844 106.107,5.31844 103.5,4.5C 105.078,3.7022 106.744,3.2022 108.5,3C 102.833,2.33333 97.1667,2.33333 91.5,3C 92.5,3.33333 93.5,3.66667 94.5,4C 92.1218,4.5112 89.7885,5.17786 87.5,6C 90.9374,6.6493 91.104,7.1493 88,7.5C 86.4265,7.15537 85.2598,6.4887 84.5,5.5C 83.9316,7.04214 82.2649,7.87548 79.5,8C 62.9818,8.86477 46.4818,9.69811 30,10.5C 28.1284,9.93176 26.2951,9.26509 24.5,8.5C 19.8362,11.3311 16.0029,14.9978 13,19.5C 12.5403,22.3044 13.0403,24.9711 14.5,27.5C 13.6721,28.4147 12.6721,29.0814 11.5,29.5C 10.927,36.9869 11.927,44.3202 14.5,51.5C 14.1761,54.3288 12.8428,54.9955 10.5,53.5C 9.83333,54.1667 9.16667,54.8333 8.5,55.5C 7.19362,54.0878 6.36029,52.4211 6,50.5C 5.33333,57.1667 4.66667,57.1667 4,50.5C 3.33333,45.1667 3.33333,39.8333 4,34.5C 4.33333,36.1667 4.66667,37.8333 5,39.5C 6.296,29.1319 6.296,18.7986 5,8.5C 4.66667,10.8333 4.33333,13.1667 4,15.5C 3.75083,14.376 3.25083,13.376 2.5,12.5C 2.16667,13 1.83333,13.5 1.5,14C 1.40145,23.8068 1.73478,33.6402 2.5,43.5C 1.96344,47.8291 1.46344,52.1624 1,56.5C 0.831087,42.6605 0.331087,28.9939 -0.5,15.5C -0.5,10.1667 -0.5,4.83333 -0.5,-0.5 Z"/></g>
<g><path style="opacity:1" fill="#94534d" d="M 193.5,88.5 C 191.811,89.9307 189.811,90.7641 187.5,91C 185.602,92.417 183.936,93.917 182.5,95.5C 178.094,96.6914 173.76,98.1914 169.5,100C 162.357,106.073 154.69,111.406 146.5,116C 139.636,121.698 133.303,127.865 127.5,134.5C 125.272,135.713 123.272,137.38 121.5,139.5C 120.077,144.441 118.077,149.108 115.5,153.5C 113.922,154.298 112.256,154.798 110.5,155C 109.636,157.562 107.969,159.395 105.5,160.5C 105.624,161.107 105.957,161.44 106.5,161.5C 105.852,163.086 105.352,164.753 105,166.5C 104.503,164.19 104.337,161.857 104.5,159.5C 103.178,159.33 102.011,159.663 101,160.5C 100.775,164.811 99.9419,168.978 98.5,173C 100.958,176.385 101.124,179.885 99,183.5C 97.4379,181.043 96.4379,178.376 96,175.5C 95.6592,178.187 94.3258,180.187 92,181.5C 91.6931,185.047 90.8597,188.38 89.5,191.5C 88.1667,191.5 86.8333,191.5 85.5,191.5C 85.7899,195.936 85.2899,200.27 84,204.5C 81.9637,205.102 80.1303,206.102 78.5,207.5C 77.3861,206.277 77.2195,204.944 78,203.5C 79.0733,201.639 80.24,199.806 81.5,198C 78.5358,193.03 78.8691,188.363 82.5,184C 78.6759,181.404 75.1759,182.237 72,186.5C 70.9914,188.025 70.4914,189.692 70.5,191.5C 67.8127,191.336 65.146,191.503 62.5,192C 63.2329,202.57 63.5662,213.07 63.5,223.5C 66.1667,223.5 68.8333,223.5 71.5,223.5C 70.8333,234.167 70.1667,244.833 69.5,255.5C 67.5,255.5 65.5,255.5 63.5,255.5C 63.5,266.167 63.5,276.833 63.5,287.5C 62.1667,287.5 60.8333,287.5 59.5,287.5C 59.5,292.833 59.5,298.167 59.5,303.5C 60.8333,303.5 62.1667,303.5 63.5,303.5C 63.5,306.167 63.5,308.833 63.5,311.5C 70.5724,311.14 72.9057,314.306 70.5,321C 71.9871,325.154 74.8204,327.987 79,329.5C 79.3333,327.167 79.6667,324.833 80,322.5C 80.923,324.034 81.423,325.701 81.5,327.5C 80.8246,330.178 80.158,332.844 79.5,335.5C 80.5,335.5 81.5,335.5 82.5,335.5C 84.2808,344.633 85.6142,344.633 86.5,335.5C 85.5,335.5 84.5,335.5 83.5,335.5C 83.7143,331.908 84.3809,328.408 85.5,325C 84.186,315.937 82.186,307.104 79.5,298.5C 79.3996,295.935 79.8996,293.268 81,290.5C 81.1725,294.871 81.6725,299.204 82.5,303.5C 83.2458,295.666 83.9125,287.833 84.5,280C 82.0738,277.753 81.0738,274.92 81.5,271.5C 82.5,271.5 83.5,271.5 84.5,271.5C 84.3874,268.951 85.0541,266.618 86.5,264.5C 84.3239,261.712 84.4906,259.379 87,257.5C 88.0793,259.394 89.4126,259.727 91,258.5C 91.3457,255.424 92.0124,252.424 93,249.5C 94.3834,252.076 95.2167,251.742 95.5,248.5C 96.6733,244.98 96.6733,241.48 95.5,238C 95.6107,236.278 96.1107,236.112 97,237.5C 97.5382,234.655 98.5382,231.988 100,229.5C 100.98,221.926 102.48,214.593 104.5,207.5C 103.927,213.511 103.26,219.511 102.5,225.5C 102.5,226.833 102.5,228.167 102.5,229.5C 99.2759,237.752 97.1092,246.418 96,255.5C 92.881,265.068 89.2144,274.401 85,283.5C 84.1794,290.346 84.346,297.013 85.5,303.5C 85.7769,310.735 87.2769,317.735 90,324.5C 90.3333,327.833 90.6667,331.167 91,334.5C 92.2985,337.006 93.2985,339.673 94,342.5C 95.0391,343.71 96.2058,344.71 97.5,345.5C 99.0075,347.181 100.008,349.181 100.5,351.5C 101.958,357.074 103.958,362.407 106.5,367.5C 107.768,369.905 108.435,372.572 108.5,375.5C 108.579,376.93 108.246,378.264 107.5,379.5C 109.514,381.183 111.18,383.183 112.5,385.5C 113.293,385.069 114.127,384.735 115,384.5C 119.623,387.507 123.79,387.007 127.5,383C 132.528,382.412 137.528,382.578 142.5,383.5C 143.167,383.5 143.5,383.833 143.5,384.5C 143.281,385.675 143.614,386.675 144.5,387.5C 146.413,388.373 148.247,389.373 150,390.5C 150.05,392.744 150.883,394.411 152.5,395.5C 154.732,400.628 158.732,403.295 164.5,403.5C 165.925,404.922 166.925,406.589 167.5,408.5C 166.038,407.542 164.705,406.376 163.5,405C 160.044,404.82 156.711,404.153 153.5,403C 152.897,401.175 152.23,399.341 151.5,397.5C 150.914,397.709 150.414,398.043 150,398.5C 149.059,394.008 146.559,392.342 142.5,393.5C 140.575,393.41 139.408,392.41 139,390.5C 136.936,391.591 134.769,391.758 132.5,391C 133.34,389.334 132.84,389.167 131,390.5C 130.51,391.793 130.343,393.127 130.5,394.5C 127.187,395.045 123.854,395.545 120.5,396C 122.891,396.691 122.891,397.691 120.5,399C 122.81,399.497 125.143,399.663 127.5,399.5C 127.334,406.841 127.5,414.174 128,421.5C 130.944,422.723 133.444,424.556 135.5,427C 133.963,428.11 133.297,429.61 133.5,431.5C 131.5,431.5 129.5,431.5 127.5,431.5C 127.5,434.167 127.5,436.833 127.5,439.5C 121.5,438.833 118.833,441.5 119.5,447.5C 116.833,447.5 114.167,447.5 111.5,447.5C 111.5,450.167 111.5,452.833 111.5,455.5C 105.5,454.833 102.833,457.5 103.5,463.5C 100.833,463.5 98.1667,463.5 95.5,463.5C 95.6621,465.527 95.4955,467.527 95,469.5C 93.9563,468.377 93.2896,467.044 93,465.5C 92.1627,467.007 90.9961,467.507 89.5,467C 84.3816,462.266 81.2149,456.432 80,449.5C 79.6667,451.5 79.3333,453.5 79,455.5C 78.6258,454.584 78.1258,453.75 77.5,453C 78.5481,451.244 78.5481,449.41 77.5,447.5C 78.8936,445.354 79.5603,443.021 79.5,440.5C 77.1944,440.007 74.861,439.674 72.5,439.5C 71.8456,435.414 73.0122,432.081 76,429.5C 76.4363,427.064 75.603,425.064 73.5,423.5C 73.7384,425.565 73.2384,427.565 72,429.5C 70.3005,428.594 68.4672,428.261 66.5,428.5C 66.5,429.5 66.5,430.5 66.5,431.5C 68.1667,431.5 69.8333,431.5 71.5,431.5C 71.7852,433.288 71.4519,434.955 70.5,436.5C 68.9095,434.367 66.9095,432.701 64.5,431.5C 62.2593,431.881 59.926,432.048 57.5,432C 55.8624,434.133 55.029,436.633 55,439.5C 54.1834,436.036 54.5167,432.702 56,429.5C 57,430.833 58,430.833 59,429.5C 59.4962,427.965 59.3295,426.465 58.5,425C 59.672,423.161 61.172,421.661 63,420.5C 63.658,422.108 63.158,423.275 61.5,424C 62.0974,425.889 62.4307,427.722 62.5,429.5C 65.2096,426.325 66.5429,422.658 66.5,418.5C 65.5,418.5 64.5,418.5 63.5,418.5C 63.5,414.833 63.5,411.167 63.5,407.5C 62.1667,407.5 60.8333,407.5 59.5,407.5C 59.607,405.097 58.607,403.264 56.5,402C 58.9769,401.76 61.1435,402.594 63,404.5C 63.7216,402.339 63.0549,400.672 61,399.5C 60.51,398.207 60.3433,396.873 60.5,395.5C 62.2895,396.013 63.9562,396.513 65.5,397C 66.6469,394.915 65.9803,393.415 63.5,392.5C 64.6888,391.571 66.0222,391.238 67.5,391.5C 68.3967,387.947 69.8967,384.614 72,381.5C 73.2408,383.421 74.7408,383.754 76.5,382.5C 74.8333,380.5 73.1667,378.5 71.5,376.5C 72.7287,375.719 74.062,375.219 75.5,375C 74.6921,373.294 73.3588,372.461 71.5,372.5C 71.1532,367.921 71.8198,363.588 73.5,359.5C 71.4727,359.662 69.4727,359.495 67.5,359C 64.6287,355.469 61.7953,351.969 59,348.5C 58.8685,346.593 59.7018,345.093 61.5,344C 61.1947,341.373 59.8614,339.54 57.5,338.5C 54.5399,340.492 51.5399,342.492 48.5,344.5C 50.1174,346.632 50.6174,348.965 50,351.5C 47.6369,349.06 45.1369,346.727 42.5,344.5C 43.1667,343.833 43.8333,343.167 44.5,342.5C 43.6906,340.929 43.3573,339.262 43.5,337.5C 45.4918,337.672 47.1585,337.005 48.5,335.5C 49.2779,333.2 50.2779,331.034 51.5,329C 50.3273,327.495 49.1607,325.995 48,324.5C 47.0922,326.439 45.5922,327.439 43.5,327.5C 43.3205,325.046 43.9872,322.879 45.5,321C 44.8734,317.483 44.2068,313.983 43.5,310.5C 44.8498,309.05 46.5165,308.383 48.5,308.5C 48.5,309.5 48.5,310.5 48.5,311.5C 49.5,311.5 50.5,311.5 51.5,311.5C 51.7683,308.881 51.435,306.381 50.5,304C 51.448,303.517 52.448,303.351 53.5,303.5C 53.0893,300.447 52.4226,297.447 51.5,294.5C 52.3829,293.452 53.0496,292.285 53.5,291C 51.9779,287.338 51.1445,283.505 51,279.5C 50.3605,276.888 49.1938,274.554 47.5,272.5C 48.4147,271.672 49.0814,270.672 49.5,269.5C 48.0297,266.918 47.3631,264.085 47.5,261C 50.0889,253.112 48.5889,246.279 43,240.5C 42.187,238.564 41.687,236.564 41.5,234.5C 40.0695,234.579 38.7362,234.246 37.5,233.5C 36.513,230.232 36.1796,226.898 36.5,223.5C 37.5,223.5 38.5,223.5 39.5,223.5C 39.5,220.833 39.5,218.167 39.5,215.5C 35.4161,215.957 31.5828,215.29 28,213.5C 26.9252,210.469 27.9252,208.469 31,207.5C 31.3333,209.167 31.6667,210.833 32,212.5C 35.5881,209.124 36.7548,205.124 35.5,200.5C 30.5153,198.674 30.682,196.674 36,194.5C 36.4017,193.128 36.9017,191.795 37.5,190.5C 35.5434,187.941 33.8767,188.274 32.5,191.5C 30.3284,191.324 27.9951,191.157 25.5,191C 23.6751,189.534 23.1751,187.701 24,185.5C 25.3848,186.551 26.3848,187.884 27,189.5C 28.0414,187.415 29.5414,185.748 31.5,184.5C 30.9747,183.808 30.3081,183.308 29.5,183C 31.5104,180.483 34.1771,178.983 37.5,178.5C 35.5485,176.467 33.3818,176.134 31,177.5C 29.513,176.747 29.3463,175.914 30.5,175C 28.9651,174.504 27.4651,174.67 26,175.5C 23.7995,174.038 23.1328,172.038 24,169.5C 24.2896,171.044 24.9563,172.377 26,173.5C 27.093,171.028 28.7597,169.028 31,167.5C 32.2227,169.985 33.7227,170.152 35.5,168C 34.0798,166.47 33.0798,164.637 32.5,162.5C 31.8076,163.025 31.3076,163.692 31,164.5C 29.5773,162.496 27.744,160.996 25.5,160C 26.9308,159.535 28.0975,158.701 29,157.5C 29.3076,158.308 29.8076,158.975 30.5,159.5C 31.641,157.579 31.8077,155.579 31,153.5C 29.9116,156.993 28.745,157.159 27.5,154C 26.2161,153.316 25.0495,153.483 24,154.5C 23.3802,150.779 22.5468,147.112 21.5,143.5C 20.6816,146.107 20.1816,148.774 20,151.5C 18.6313,148.072 17.9646,144.739 18,141.5C 15.9646,139.088 14.9646,139.755 15,143.5C 13.3499,137.181 11.6832,130.848 10,124.5C 9.36453,123.034 8.53119,121.7 7.5,120.5C 9.26034,117.788 9.92701,114.788 9.5,111.5C 8.5,111.5 7.5,111.5 6.5,111.5C 6.30678,115.449 5.80678,115.449 5,111.5C 3.8267,118.437 3.16003,125.437 3,132.5C 2.52434,122.647 2.02434,112.98 1.5,103.5C 0.83329,111.657 0.166623,119.657 -0.5,127.5C -0.5,90.1667 -0.5,52.8333 -0.5,15.5C 0.331087,28.9939 0.831087,42.6605 1,56.5C 1.46344,52.1624 1.96344,47.8291 2.5,43.5C 1.73478,33.6402 1.40145,23.8068 1.5,14C 1.83333,13.5 2.16667,13 2.5,12.5C 3.25083,13.376 3.75083,14.376 4,15.5C 4.33333,13.1667 4.66667,10.8333 5,8.5C 6.296,18.7986 6.296,29.1319 5,39.5C 4.66667,37.8333 4.33333,36.1667 4,34.5C 3.33333,39.8333 3.33333,45.1667 4,50.5C 4.66667,57.1667 5.33333,57.1667 6,50.5C 6.36029,52.4211 7.19362,54.0878 8.5,55.5C 9.16667,54.8333 9.83333,54.1667 10.5,53.5C 12.8428,54.9955 14.1761,54.3288 14.5,51.5C 11.927,44.3202 10.927,36.9869 11.5,29.5C 12.6721,29.0814 13.6721,28.4147 14.5,27.5C 13.0403,24.9711 12.5403,22.3044 13,19.5C 16.0029,14.9978 19.8362,11.3311 24.5,8.5C 26.2951,9.26509 28.1284,9.93176 30,10.5C 46.4818,9.69811 62.9818,8.86477 79.5,8C 82.2649,7.87548 83.9316,7.04214 84.5,5.5C 85.2598,6.4887 86.4265,7.15537 88,7.5C 91.104,7.1493 90.9374,6.6493 87.5,6C 89.7885,5.17786 92.1218,4.5112 94.5,4C 93.5,3.66667 92.5,3.33333 91.5,3C 97.1667,2.33333 102.833,2.33333 108.5,3C 106.744,3.2022 105.078,3.7022 103.5,4.5C 106.107,5.31844 108.774,5.81844 111.5,6C 111.167,6.33333 110.833,6.66667 110.5,7C 114.833,7.66667 119.167,7.66667 123.5,7C 123.167,6.66667 122.833,6.33333 122.5,6C 123.833,5.66667 125.167,5.33333 126.5,5C 124.122,4.4888 121.788,3.82214 119.5,3C 122.833,2.33333 126.167,2.33333 129.5,3C 128.692,3.30762 128.025,3.80762 127.5,4.5C 129.766,5.31416 132.1,5.81416 134.5,6C 133.167,6.33333 131.833,6.66667 130.5,7C 134.893,7.01665 139.06,7.84998 143,9.5C 146.795,8.53618 150.628,8.36952 154.5,9C 155.949,7.88298 157.616,7.21631 159.5,7C 156.854,6.50258 154.187,6.33591 151.5,6.5C 151.5,5.5 151.5,4.5 151.5,3.5C 144.744,2.46787 147.744,2.3012 160.5,3C 160.167,3.33333 159.833,3.66667 159.5,4C 161.679,4.44185 162.345,5.44185 161.5,7C 164.67,11.3068 168.17,11.4734 172,7.5C 172.49,8.79323 172.657,10.1266 172.5,11.5C 181.715,11.3037 190.881,11.3037 200,11.5C 200.923,12.7588 201.757,14.0921 202.5,15.5C 205.346,16.708 208.013,18.208 210.5,20C 212.367,20.7112 213.867,20.2112 215,18.5C 215.006,20.8088 215.172,22.9754 215.5,25C 214.667,27.1667 213.167,28.6667 211,29.5C 209.669,28.0042 208.169,26.6709 206.5,25.5C 205.5,25.8333 204.833,26.5 204.5,27.5C 206.424,29.0087 207.591,31.0087 208,33.5C 208.689,32.6433 209.522,31.9767 210.5,31.5C 213.023,34.6899 212.023,36.0232 207.5,35.5C 208.256,37.6133 208.423,39.6133 208,41.5C 209.955,40.5467 211.622,39.2134 213,37.5C 217.574,39.1841 222.407,40.1841 227.5,40.5C 228.293,40.0688 229.127,39.7355 230,39.5C 231.752,40.958 233.585,42.2913 235.5,43.5C 237.901,40.5873 239.234,40.9206 239.5,44.5C 243.046,43.761 246.379,42.4277 249.5,40.5C 254.501,39.2691 259.501,39.2691 264.5,40.5C 265.833,41.8333 265.833,43.1667 264.5,44.5C 265,44.8333 265.5,45.1667 266,45.5C 267.43,43.3303 268.93,43.1636 270.5,45C 269.045,47.0162 267.045,47.8495 264.5,47.5C 263.697,52.476 260.864,55.8093 256,57.5C 245.423,55.5369 234.59,54.8703 223.5,55.5C 223.5,52.8333 223.5,50.1667 223.5,47.5C 222.167,47.5 220.833,47.5 219.5,47.5C 219.5,52.8333 219.5,58.1667 219.5,63.5C 220.833,63.5 222.167,63.5 223.5,63.5C 223.5,64.8333 223.5,66.1667 223.5,67.5C 218.156,67.334 212.823,67.5006 207.5,68C 202.643,70.2586 197.643,72.2586 192.5,74C 190.734,78.0346 191.901,80.8679 196,82.5C 199.73,81.5399 203.563,81.2065 207.5,81.5C 207.5,82.5 207.5,83.5 207.5,84.5C 202.167,84.9332 196.834,85.4332 191.5,86C 192.381,86.7083 193.047,87.5416 193.5,88.5 Z"/></g>
<g><path style="opacity:1" fill="#7b5149" d="M 311.5,87.5 C 278.179,86.3915 244.846,86.2248 211.5,87C 201.415,88.7792 191.749,91.6126 182.5,95.5C 183.936,93.917 185.602,92.417 187.5,91C 189.811,90.7641 191.811,89.9307 193.5,88.5C 200.074,87.4212 206.74,86.2546 213.5,85C 243.5,84.3333 273.5,84.3333 303.5,85C 306.457,85.2794 309.123,86.1127 311.5,87.5 Z"/></g>
<g><path style="opacity:1" fill="#020101" d="M 311.5,87.5 C 316.4,89.6098 321.4,91.7765 326.5,94C 350.085,109.251 365.585,130.418 373,157.5C 382.058,195.357 390.725,233.357 399,271.5C 400.498,282.149 401.665,292.815 402.5,303.5C 402.167,316.833 401.833,330.167 401.5,343.5C 400.147,353.571 398.481,363.571 396.5,373.5C 395.252,376.484 393.585,379.318 391.5,382C 388.767,382.758 386.267,382.258 384,380.5C 382.251,380.748 381.418,381.748 381.5,383.5C 378.836,387.492 376.17,391.492 373.5,395.5C 372.143,396.685 370.643,397.685 369,398.5C 366.073,396.668 363.573,394.335 361.5,391.5C 357.821,394.842 354.488,398.508 351.5,402.5C 349.255,405.32 347.255,408.32 345.5,411.5C 342.194,417.001 338.194,422.168 333.5,427C 331.167,427.333 328.833,427.667 326.5,428C 324.724,430.71 322.724,433.21 320.5,435.5C 320.096,434.244 319.429,433.077 318.5,432C 319.185,429.205 319.685,426.372 320,423.5C 320.308,424.308 320.808,424.975 321.5,425.5C 324.712,423.017 327.878,423.017 331,425.5C 332.726,424.352 332.559,423.185 330.5,422C 332.251,418.58 334.918,416.246 338.5,415C 337.926,412.294 336.76,409.461 335,406.5C 333.989,407.337 332.822,407.67 331.5,407.5C 331.511,405.453 331.844,403.453 332.5,401.5C 332.182,400.353 331.516,399.519 330.5,399C 331.79,396.19 332.957,393.357 334,390.5C 334.497,388.19 334.663,385.857 334.5,383.5C 336.484,375.394 338.651,367.394 341,359.5C 341.497,356.854 341.664,354.187 341.5,351.5C 342.345,340.857 342.679,330.19 342.5,319.5C 342.334,309.494 342.5,299.494 343,289.5C 343.29,303.852 343.956,318.186 345,332.5C 345.333,332.833 345.667,333.167 346,333.5C 347.214,330.811 347.381,328.144 346.5,325.5C 347.141,315.813 347.808,306.147 348.5,296.5C 347.408,292.204 347.408,287.87 348.5,283.5C 347.459,277.334 346.459,271.167 345.5,265C 345.833,264 346.167,263 346.5,262C 345.741,256.872 345.241,251.705 345,246.5C 344.108,242.827 342.608,242.66 340.5,246C 341.731,247.183 341.731,248.349 340.5,249.5C 338.2,247.977 336.367,245.977 335,243.5C 332.248,245.973 329.414,245.973 326.5,243.5C 324.291,244.106 322.124,244.773 320,245.5C 315.552,244.629 311.052,243.796 306.5,243C 304.939,242.682 303.772,241.849 303,240.5C 300.786,240.846 299.286,242.012 298.5,244C 296.19,244.497 293.857,244.663 291.5,244.5C 291.649,245.552 291.483,246.552 291,247.5C 290.667,247.167 290.333,246.833 290,246.5C 288.562,247.9 287.729,249.567 287.5,251.5C 283.977,252.685 280.977,254.685 278.5,257.5C 276.897,257.688 275.563,257.188 274.5,256C 276.044,255.71 277.377,255.044 278.5,254C 276.699,253.683 276.366,253.016 277.5,252C 274.62,251.316 271.787,251.483 269,252.5C 267.278,252.389 267.112,251.889 268.5,251C 266.866,250.506 265.199,250.34 263.5,250.5C 263.719,251.675 263.386,252.675 262.5,253.5C 260.253,252.626 257.92,252.292 255.5,252.5C 255.64,254.124 254.973,255.29 253.5,256C 250.808,256.43 248.141,256.263 245.5,255.5C 245.813,252.753 245.48,250.086 244.5,247.5C 239.764,245.512 238.764,242.512 241.5,238.5C 240.258,236.21 238.592,234.377 236.5,233C 237.167,231.333 237.833,229.667 238.5,228C 238,227.5 237.5,227 237,226.5C 235.085,231.788 234.418,231.788 235,226.5C 233.883,227.949 233.216,229.616 233,231.5C 232.505,229.527 232.338,227.527 232.5,225.5C 232.5,224.833 232.5,224.167 232.5,223.5C 233.614,220.823 233.614,218.156 232.5,215.5C 228.18,214.546 223.847,214.713 219.5,216C 216.894,216.792 214.894,218.292 213.5,220.5C 206.864,223.62 201.198,228.12 196.5,234C 192.858,234.914 189.192,235.748 185.5,236.5C 188.195,238.178 190.861,239.844 193.5,241.5C 194.167,242.833 195.167,243.833 196.5,244.5C 197.471,246.483 198.471,248.483 199.5,250.5C 198.9,251.9 197.9,252.9 196.5,253.5C 187.651,253.174 178.984,253.507 170.5,254.5C 169.503,276.66 169.169,298.994 169.5,321.5C 169.5,338.833 169.5,356.167 169.5,373.5C 168.679,376.641 168.179,379.975 168,383.5C 167.859,373.784 167.193,364.117 166,354.5C 165,362.5 164,370.5 163,378.5C 162.333,379.833 161.667,379.833 161,378.5C 160.506,380.134 160.34,381.801 160.5,383.5C 161.5,383.5 162.5,383.5 163.5,383.5C 163.63,387.868 163.297,392.202 162.5,396.5C 163.478,398.777 164.145,401.11 164.5,403.5C 158.732,403.295 154.732,400.628 152.5,395.5C 152.981,388.728 149.981,385.062 143.5,384.5C 143.5,383.833 143.167,383.5 142.5,383.5C 142.082,382.778 141.416,382.278 140.5,382C 133.86,381.105 127.36,381.605 121,383.5C 118.144,383.129 115.311,382.629 112.5,382C 111.267,379.686 109.933,377.519 108.5,375.5C 108.435,372.572 107.768,369.905 106.5,367.5C 106.133,361.454 104.133,356.12 100.5,351.5C 100.008,349.181 99.0075,347.181 97.5,345.5C 92.8962,331.752 89.2296,317.752 86.5,303.5C 86.3337,296.825 86.5004,290.158 87,283.5C 90.8831,275.063 94.2164,266.397 97,257.5C 98.7828,248.204 100.616,238.871 102.5,229.5C 102.5,228.167 102.5,226.833 102.5,225.5C 104.561,219.804 105.561,213.804 105.5,207.5C 106.687,204.054 107.354,200.387 107.5,196.5C 109.039,187.698 110.206,178.698 111,169.5C 112.179,164.518 114.012,159.852 116.5,155.5C 119.592,148.244 123.259,141.244 127.5,134.5C 133.303,127.865 139.636,121.698 146.5,116C 154.69,111.406 162.357,106.073 169.5,100C 173.76,98.1914 178.094,96.6914 182.5,95.5C 191.749,91.6126 201.415,88.7792 211.5,87C 244.846,86.2248 278.179,86.3915 311.5,87.5 Z"/></g>
<g><path style="opacity:1" fill="#96544f" d="M 167.5,408.5 C 168.674,409.514 169.34,410.847 169.5,412.5C 171.855,419.96 172.855,427.627 172.5,435.5C 171.75,450.158 171.417,464.824 171.5,479.5C 171.5,490.167 171.5,500.833 171.5,511.5C 114.167,511.5 56.8333,511.5 -0.5,511.5C -0.5,383.5 -0.5,255.5 -0.5,127.5C 0.166623,119.657 0.83329,111.657 1.5,103.5C 2.02434,112.98 2.52434,122.647 3,132.5C 3.16003,125.437 3.8267,118.437 5,111.5C 5.80678,115.449 6.30678,115.449 6.5,111.5C 7.5,111.5 8.5,111.5 9.5,111.5C 9.92701,114.788 9.26034,117.788 7.5,120.5C 8.53119,121.7 9.36453,123.034 10,124.5C 11.6832,130.848 13.3499,137.181 15,143.5C 14.9646,139.755 15.9646,139.088 18,141.5C 17.9646,144.739 18.6313,148.072 20,151.5C 20.1816,148.774 20.6816,146.107 21.5,143.5C 22.5468,147.112 23.3802,150.779 24,154.5C 25.0495,153.483 26.2161,153.316 27.5,154C 28.745,157.159 29.9116,156.993 31,153.5C 31.8077,155.579 31.641,157.579 30.5,159.5C 29.8076,158.975 29.3076,158.308 29,157.5C 28.0975,158.701 26.9308,159.535 25.5,160C 27.744,160.996 29.5773,162.496 31,164.5C 31.3076,163.692 31.8076,163.025 32.5,162.5C 33.0798,164.637 34.0798,166.47 35.5,168C 33.7227,170.152 32.2227,169.985 31,167.5C 28.7597,169.028 27.093,171.028 26,173.5C 24.9563,172.377 24.2896,171.044 24,169.5C 23.1328,172.038 23.7995,174.038 26,175.5C 27.4651,174.67 28.9651,174.504 30.5,175C 29.3463,175.914 29.513,176.747 31,177.5C 33.3818,176.134 35.5485,176.467 37.5,178.5C 34.1771,178.983 31.5104,180.483 29.5,183C 30.3081,183.308 30.9747,183.808 31.5,184.5C 29.5414,185.748 28.0414,187.415 27,189.5C 26.3848,187.884 25.3848,186.551 24,185.5C 23.1751,187.701 23.6751,189.534 25.5,191C 27.9951,191.157 30.3284,191.324 32.5,191.5C 33.8767,188.274 35.5434,187.941 37.5,190.5C 36.9017,191.795 36.4017,193.128 36,194.5C 30.682,196.674 30.5153,198.674 35.5,200.5C 36.7548,205.124 35.5881,209.124 32,212.5C 31.6667,210.833 31.3333,209.167 31,207.5C 27.9252,208.469 26.9252,210.469 28,213.5C 31.5828,215.29 35.4161,215.957 39.5,215.5C 39.5,218.167 39.5,220.833 39.5,223.5C 38.5,223.5 37.5,223.5 36.5,223.5C 36.1796,226.898 36.513,230.232 37.5,233.5C 38.7362,234.246 40.0695,234.579 41.5,234.5C 41.687,236.564 42.187,238.564 43,240.5C 48.5889,246.279 50.0889,253.112 47.5,261C 47.3631,264.085 48.0297,266.918 49.5,269.5C 49.0814,270.672 48.4147,271.672 47.5,272.5C 49.1938,274.554 50.3605,276.888 51,279.5C 51.1445,283.505 51.9779,287.338 53.5,291C 53.0496,292.285 52.3829,293.452 51.5,294.5C 52.4226,297.447 53.0893,300.447 53.5,303.5C 52.448,303.351 51.448,303.517 50.5,304C 51.435,306.381 51.7683,308.881 51.5,311.5C 50.5,311.5 49.5,311.5 48.5,311.5C 48.5,310.5 48.5,309.5 48.5,308.5C 46.5165,308.383 44.8498,309.05 43.5,310.5C 44.2068,313.983 44.8734,317.483 45.5,321C 43.9872,322.879 43.3205,325.046 43.5,327.5C 45.5922,327.439 47.0922,326.439 48,324.5C 49.1607,325.995 50.3273,327.495 51.5,329C 50.2779,331.034 49.2779,333.2 48.5,335.5C 47.1585,337.005 45.4918,337.672 43.5,337.5C 43.3573,339.262 43.6906,340.929 44.5,342.5C 43.8333,343.167 43.1667,343.833 42.5,344.5C 45.1369,346.727 47.6369,349.06 50,351.5C 50.6174,348.965 50.1174,346.632 48.5,344.5C 51.5399,342.492 54.5399,340.492 57.5,338.5C 59.8614,339.54 61.1947,341.373 61.5,344C 59.7018,345.093 58.8685,346.593 59,348.5C 61.7953,351.969 64.6287,355.469 67.5,359C 69.4727,359.495 71.4727,359.662 73.5,359.5C 71.8198,363.588 71.1532,367.921 71.5,372.5C 73.3588,372.461 74.6921,373.294 75.5,375C 74.062,375.219 72.7287,375.719 71.5,376.5C 73.1667,378.5 74.8333,380.5 76.5,382.5C 74.7408,383.754 73.2408,383.421 72,381.5C 69.8967,384.614 68.3967,387.947 67.5,391.5C 66.0222,391.238 64.6888,391.571 63.5,392.5C 65.9803,393.415 66.6469,394.915 65.5,397C 63.9562,396.513 62.2895,396.013 60.5,395.5C 60.3433,396.873 60.51,398.207 61,399.5C 63.0549,400.672 63.7216,402.339 63,404.5C 61.1435,402.594 58.9769,401.76 56.5,402C 58.607,403.264 59.607,405.097 59.5,407.5C 60.8333,407.5 62.1667,407.5 63.5,407.5C 63.5,411.167 63.5,414.833 63.5,418.5C 64.5,418.5 65.5,418.5 66.5,418.5C 66.5429,422.658 65.2096,426.325 62.5,429.5C 62.4307,427.722 62.0974,425.889 61.5,424C 63.158,423.275 63.658,422.108 63,420.5C 61.172,421.661 59.672,423.161 58.5,425C 59.3295,426.465 59.4962,427.965 59,429.5C 58,430.833 57,430.833 56,429.5C 54.5167,432.702 54.1834,436.036 55,439.5C 55.029,436.633 55.8624,434.133 57.5,432C 59.926,432.048 62.2593,431.881 64.5,431.5C 66.9095,432.701 68.9095,434.367 70.5,436.5C 71.4519,434.955 71.7852,433.288 71.5,431.5C 69.8333,431.5 68.1667,431.5 66.5,431.5C 66.5,430.5 66.5,429.5 66.5,428.5C 68.4672,428.261 70.3005,428.594 72,429.5C 73.2384,427.565 73.7384,425.565 73.5,423.5C 75.603,425.064 76.4363,427.064 76,429.5C 73.0122,432.081 71.8456,435.414 72.5,439.5C 74.861,439.674 77.1944,440.007 79.5,440.5C 79.5603,443.021 78.8936,445.354 77.5,447.5C 78.5481,449.41 78.5481,451.244 77.5,453C 78.1258,453.75 78.6258,454.584 79,455.5C 79.3333,453.5 79.6667,451.5 80,449.5C 81.2149,456.432 84.3816,462.266 89.5,467C 90.9961,467.507 92.1627,467.007 93,465.5C 93.2896,467.044 93.9563,468.377 95,469.5C 95.4955,467.527 95.6621,465.527 95.5,463.5C 98.1667,463.5 100.833,463.5 103.5,463.5C 102.833,457.5 105.5,454.833 111.5,455.5C 111.5,452.833 111.5,450.167 111.5,447.5C 114.167,447.5 116.833,447.5 119.5,447.5C 118.833,441.5 121.5,438.833 127.5,439.5C 127.5,436.833 127.5,434.167 127.5,431.5C 129.5,431.5 131.5,431.5 133.5,431.5C 133.297,429.61 133.963,428.11 135.5,427C 133.444,424.556 130.944,422.723 128,421.5C 127.5,414.174 127.334,406.841 127.5,399.5C 125.143,399.663 122.81,399.497 120.5,399C 122.891,397.691 122.891,396.691 120.5,396C 123.854,395.545 127.187,395.045 130.5,394.5C 130.343,393.127 130.51,391.793 131,390.5C 132.84,389.167 133.34,389.334 132.5,391C 134.769,391.758 136.936,391.591 139,390.5C 139.408,392.41 140.575,393.41 142.5,393.5C 146.559,392.342 149.059,394.008 150,398.5C 150.414,398.043 150.914,397.709 151.5,397.5C 152.23,399.341 152.897,401.175 153.5,403C 156.711,404.153 160.044,404.82 163.5,405C 164.705,406.376 166.038,407.542 167.5,408.5 Z"/></g>
<g><path style="opacity:1" fill="#824b46" d="M 127.5,134.5 C 123.259,141.244 119.592,148.244 116.5,155.5C 114.855,156.479 113.521,157.812 112.5,159.5C 108.9,171.523 107.233,183.857 107.5,196.5C 107.354,200.387 106.687,204.054 105.5,207.5C 106.516,191.946 107.516,176.446 108.5,161C 107.563,160.308 106.897,160.475 106.5,161.5C 105.957,161.44 105.624,161.107 105.5,160.5C 107.969,159.395 109.636,157.562 110.5,155C 112.256,154.798 113.922,154.298 115.5,153.5C 118.077,149.108 120.077,144.441 121.5,139.5C 123.272,137.38 125.272,135.713 127.5,134.5 Z"/></g>
<g><path style="opacity:1" fill="#503333" d="M 116.5,155.5 C 114.012,159.852 112.179,164.518 111,169.5C 110.206,178.698 109.039,187.698 107.5,196.5C 107.233,183.857 108.9,171.523 112.5,159.5C 113.521,157.812 114.855,156.479 116.5,155.5 Z"/></g>
<g><path style="opacity:1" fill="#96534c" d="M 106.5,161.5 C 106.897,160.475 107.563,160.308 108.5,161C 107.516,176.446 106.516,191.946 105.5,207.5C 105.167,207.5 104.833,207.5 104.5,207.5C 102.48,214.593 100.98,221.926 100,229.5C 98.5382,231.988 97.5382,234.655 97,237.5C 96.1107,236.112 95.6107,236.278 95.5,238C 96.6733,241.48 96.6733,244.98 95.5,248.5C 95.2167,251.742 94.3834,252.076 93,249.5C 92.0124,252.424 91.3457,255.424 91,258.5C 89.4126,259.727 88.0793,259.394 87,257.5C 84.4906,259.379 84.3239,261.712 86.5,264.5C 85.0541,266.618 84.3874,268.951 84.5,271.5C 83.5,271.5 82.5,271.5 81.5,271.5C 81.0738,274.92 82.0738,277.753 84.5,280C 83.9125,287.833 83.2458,295.666 82.5,303.5C 81.6725,299.204 81.1725,294.871 81,290.5C 79.8996,293.268 79.3996,295.935 79.5,298.5C 82.186,307.104 84.186,315.937 85.5,325C 84.3809,328.408 83.7143,331.908 83.5,335.5C 84.5,335.5 85.5,335.5 86.5,335.5C 85.6142,344.633 84.2808,344.633 82.5,335.5C 81.5,335.5 80.5,335.5 79.5,335.5C 80.158,332.844 80.8246,330.178 81.5,327.5C 81.423,325.701 80.923,324.034 80,322.5C 79.6667,324.833 79.3333,327.167 79,329.5C 74.8204,327.987 71.9871,325.154 70.5,321C 72.9057,314.306 70.5724,311.14 63.5,311.5C 63.5,308.833 63.5,306.167 63.5,303.5C 62.1667,303.5 60.8333,303.5 59.5,303.5C 59.5,298.167 59.5,292.833 59.5,287.5C 60.8333,287.5 62.1667,287.5 63.5,287.5C 63.5,276.833 63.5,266.167 63.5,255.5C 65.5,255.5 67.5,255.5 69.5,255.5C 70.1667,244.833 70.8333,234.167 71.5,223.5C 68.8333,223.5 66.1667,223.5 63.5,223.5C 63.5662,213.07 63.2329,202.57 62.5,192C 65.146,191.503 67.8127,191.336 70.5,191.5C 70.4914,189.692 70.9914,188.025 72,186.5C 75.1759,182.237 78.6759,181.404 82.5,184C 78.8691,188.363 78.5358,193.03 81.5,198C 80.24,199.806 79.0733,201.639 78,203.5C 77.2195,204.944 77.3861,206.277 78.5,207.5C 80.1303,206.102 81.9637,205.102 84,204.5C 85.2899,200.27 85.7899,195.936 85.5,191.5C 86.8333,191.5 88.1667,191.5 89.5,191.5C 90.8597,188.38 91.6931,185.047 92,181.5C 94.3258,180.187 95.6592,178.187 96,175.5C 96.4379,178.376 97.4379,181.043 99,183.5C 101.124,179.885 100.958,176.385 98.5,173C 99.9419,168.978 100.775,164.811 101,160.5C 102.011,159.663 103.178,159.33 104.5,159.5C 104.337,161.857 104.503,164.19 105,166.5C 105.352,164.753 105.852,163.086 106.5,161.5 Z"/></g>
<g><path style="opacity:1" fill="#46292b" d="M 104.5,207.5 C 104.833,207.5 105.167,207.5 105.5,207.5C 105.561,213.804 104.561,219.804 102.5,225.5C 103.26,219.511 103.927,213.511 104.5,207.5 Z"/></g>
<g><path style="opacity:1" fill="#73553a" d="M 232.5,223.5 C 232.167,223.5 231.833,223.5 231.5,223.5C 231.5,221.167 231.5,218.833 231.5,216.5C 228.15,216.335 224.817,216.502 221.5,217C 220.058,217.377 219.058,218.21 218.5,219.5C 216.784,219.629 215.117,219.962 213.5,220.5C 214.894,218.292 216.894,216.792 219.5,216C 223.847,214.713 228.18,214.546 232.5,215.5C 233.614,218.156 233.614,220.823 232.5,223.5 Z"/></g>
<g><path style="opacity:1" fill="#cbaa84" d="M 210.5,271.5 C 210.167,271.5 209.833,271.5 209.5,271.5C 207.571,271.769 205.905,271.269 204.5,270C 204.833,269.667 205.167,269.333 205.5,269C 201.333,259.58 194,256.246 183.5,259C 182.944,259.383 182.611,259.883 182.5,260.5C 177.586,263.769 174.752,268.435 174,274.5C 172.118,300.132 171.284,325.798 171.5,351.5C 171.5,362.167 171.5,372.833 171.5,383.5C 170.833,362.833 170.167,342.167 169.5,321.5C 169.169,298.994 169.503,276.66 170.5,254.5C 178.984,253.507 187.651,253.174 196.5,253.5C 198.167,253.5 199.833,253.5 201.5,253.5C 201.5,252.5 201.5,251.5 201.5,250.5C 206.648,252.005 208.315,250.172 206.5,245C 210.192,244.477 212.192,242.31 212.5,238.5C 211.846,236.885 211.346,235.218 211,233.5C 210.667,233.833 210.333,234.167 210,234.5C 209.814,231.601 209.648,228.934 209.5,226.5C 210.5,225.167 211.5,223.833 212.5,222.5C 213.338,222.158 213.672,221.492 213.5,220.5C 215.117,219.962 216.784,219.629 218.5,219.5C 220.117,218.962 221.784,218.629 223.5,218.5C 223.2,226.23 221.367,233.564 218,240.5C 216.907,246.484 215.907,252.484 215,258.5C 213.19,262.706 211.69,267.039 210.5,271.5 Z"/></g>
<g><path style="opacity:1" fill="#050903" d="M 232.5,225.5 C 232.338,227.527 232.505,229.527 233,231.5C 233.216,229.616 233.883,227.949 235,226.5C 234.418,231.788 235.085,231.788 237,226.5C 237.5,227 238,227.5 238.5,228C 237.833,229.667 237.167,231.333 236.5,233C 238.592,234.377 240.258,236.21 241.5,238.5C 238.764,242.512 239.764,245.512 244.5,247.5C 245.48,250.086 245.813,252.753 245.5,255.5C 248.141,256.263 250.808,256.43 253.5,256C 254.973,255.29 255.64,254.124 255.5,252.5C 257.92,252.292 260.253,252.626 262.5,253.5C 263.386,252.675 263.719,251.675 263.5,250.5C 265.199,250.34 266.866,250.506 268.5,251C 267.112,251.889 267.278,252.389 269,252.5C 271.787,251.483 274.62,251.316 277.5,252C 276.366,253.016 276.699,253.683 278.5,254C 277.377,255.044 276.044,255.71 274.5,256C 275.563,257.188 276.897,257.688 278.5,257.5C 276.861,258.473 275.527,259.806 274.5,261.5C 270.837,261.952 267.17,262.452 263.5,263C 261.19,264.637 259.69,266.804 259,269.5C 258.329,270.252 257.496,270.586 256.5,270.5C 255.844,265.67 253.177,263.837 248.5,265C 246.297,267.372 243.963,269.539 241.5,271.5C 240.624,271.631 239.957,271.298 239.5,270.5C 240.311,269.784 240.978,268.95 241.5,268C 235.317,261.457 232.484,253.623 233,244.5C 230.266,245.362 230.099,246.195 232.5,247C 231.464,248.617 230.297,248.784 229,247.5C 228.661,244.12 228.161,240.787 227.5,237.5C 228.571,233.17 230.238,229.17 232.5,225.5 Z"/></g>
<g><path style="opacity:1" fill="#c39970" d="M 231.5,223.5 C 230.833,224.167 230.167,224.833 229.5,225.5C 226.811,227.694 224.644,230.361 223,233.5C 219.22,245.956 216.053,258.623 213.5,271.5C 212.5,271.5 211.5,271.5 210.5,271.5C 211.69,267.039 213.19,262.706 215,258.5C 215.907,252.484 216.907,246.484 218,240.5C 221.367,233.564 223.2,226.23 223.5,218.5C 221.784,218.629 220.117,218.962 218.5,219.5C 219.058,218.21 220.058,217.377 221.5,217C 224.817,216.502 228.15,216.335 231.5,216.5C 231.5,218.833 231.5,221.167 231.5,223.5 Z"/></g>
<g><path style="opacity:1" fill="#564639" d="M 213.5,220.5 C 213.672,221.492 213.338,222.158 212.5,222.5C 205.635,226.854 199.468,232.187 194,238.5C 193.517,239.448 193.351,240.448 193.5,241.5C 190.861,239.844 188.195,238.178 185.5,236.5C 189.192,235.748 192.858,234.914 196.5,234C 201.198,228.12 206.864,223.62 213.5,220.5 Z"/></g>
<g><path style="opacity:1" fill="#43301d" d="M 231.5,223.5 C 231.833,223.5 232.167,223.5 232.5,223.5C 232.5,224.167 232.5,224.833 232.5,225.5C 230.238,229.17 228.571,233.17 227.5,237.5C 227.167,237.5 226.833,237.5 226.5,237.5C 227.488,233.516 228.488,229.516 229.5,225.5C 230.167,224.833 230.833,224.167 231.5,223.5 Z"/></g>
<g><path style="opacity:1" fill="#9a846b" d="M 212.5,222.5 C 211.5,223.833 210.5,225.167 209.5,226.5C 204.594,229.898 200.094,233.898 196,238.5C 195.51,240.545 195.677,242.545 196.5,244.5C 195.167,243.833 194.167,242.833 193.5,241.5C 193.351,240.448 193.517,239.448 194,238.5C 199.468,232.187 205.635,226.854 212.5,222.5 Z"/></g>
<g><path style="opacity:1" fill="#d9bf9d" d="M 209.5,226.5 C 209.648,228.934 209.814,231.601 210,234.5C 210.333,234.167 210.667,233.833 211,233.5C 211.346,235.218 211.846,236.885 212.5,238.5C 212.192,242.31 210.192,244.477 206.5,245C 208.315,250.172 206.648,252.005 201.5,250.5C 200.833,250.5 200.167,250.5 199.5,250.5C 198.471,248.483 197.471,246.483 196.5,244.5C 195.677,242.545 195.51,240.545 196,238.5C 200.094,233.898 204.594,229.898 209.5,226.5 Z"/></g>
<g><path style="opacity:1" fill="#a98158" d="M 229.5,225.5 C 228.488,229.516 227.488,233.516 226.5,237.5C 225.833,238.167 225.167,238.833 224.5,239.5C 220.999,246.679 218.666,254.346 217.5,262.5C 217.405,264.786 216.738,266.786 215.5,268.5C 214.833,269.5 214.167,270.5 213.5,271.5C 216.053,258.623 219.22,245.956 223,233.5C 224.644,230.361 226.811,227.694 229.5,225.5 Z"/></g>
<g><path style="opacity:1" fill="#644b2f" d="M 224.5,239.5 C 223.777,244.84 222.943,250.173 222,255.5C 221.76,257.852 220.927,259.852 219.5,261.5C 218.833,261.833 218.167,262.167 217.5,262.5C 218.666,254.346 220.999,246.679 224.5,239.5 Z"/></g>
<g><path style="opacity:1" fill="#867058" d="M 294.5,246.5 C 295.884,245.199 297.384,245.199 299,246.5C 299.499,251.489 299.666,256.489 299.5,261.5C 299.5,263.5 299.5,265.5 299.5,267.5C 298.596,266.791 298.263,265.791 298.5,264.5C 298.167,258.5 297.833,252.5 297.5,246.5C 296.5,246.5 295.5,246.5 294.5,246.5 Z"/></g>
<g><path style="opacity:1" fill="#4d4635" d="M 199.5,250.5 C 200.167,250.5 200.833,250.5 201.5,250.5C 201.5,251.5 201.5,252.5 201.5,253.5C 199.833,253.5 198.167,253.5 196.5,253.5C 197.9,252.9 198.9,251.9 199.5,250.5 Z"/></g>
<g><path style="opacity:1" fill="#796148" d="M 290.5,250.5 C 289.025,252.41 287.025,253.576 284.5,254C 282.627,255.704 280.96,257.537 279.5,259.5C 277.833,260.167 276.167,260.833 274.5,261.5C 275.527,259.806 276.861,258.473 278.5,257.5C 280.977,254.685 283.977,252.685 287.5,251.5C 288.391,250.89 289.391,250.557 290.5,250.5 Z"/></g>
<g><path style="opacity:1" fill="#091402" d="M 301.5,273.5 C 300.833,271.5 300.167,269.5 299.5,267.5C 299.5,265.5 299.5,263.5 299.5,261.5C 300.468,259.393 300.802,257.059 300.5,254.5C 301.416,254.018 302.416,253.685 303.5,253.5C 308.207,255.38 313.041,257.047 318,258.5C 318.772,258.355 319.439,258.022 320,257.5C 322.844,258.926 325.678,260.426 328.5,262C 328.682,265.154 330.682,266.82 334.5,267C 333.743,268.512 332.743,269.846 331.5,271C 332.5,271.333 333.5,271.667 334.5,272C 329.388,274.448 324.054,275.281 318.5,274.5C 316.142,275.999 315.976,277.666 318,279.5C 318.333,279.167 318.667,278.833 319,278.5C 320.067,279.191 321.234,279.691 322.5,280C 319.092,280.94 315.758,282.107 312.5,283.5C 308.366,280.819 305.033,276.819 302.5,271.5C 301.702,271.957 301.369,272.624 301.5,273.5 Z"/></g>
<g><path style="opacity:1" fill="#050f02" d="M 306.5,286.5 C 303.866,282.605 302.199,278.272 301.5,273.5C 301.369,272.624 301.702,271.957 302.5,271.5C 305.033,276.819 308.366,280.819 312.5,283.5C 315.758,282.107 319.092,280.94 322.5,280C 321.234,279.691 320.067,279.191 319,278.5C 318.667,278.833 318.333,279.167 318,279.5C 315.976,277.666 316.142,275.999 318.5,274.5C 324.054,275.281 329.388,274.448 334.5,272C 333.5,271.667 332.5,271.333 331.5,271C 332.743,269.846 333.743,268.512 334.5,267C 330.682,266.82 328.682,265.154 328.5,262C 325.678,260.426 322.844,258.926 320,257.5C 319.439,258.022 318.772,258.355 318,258.5C 313.041,257.047 308.207,255.38 303.5,253.5C 302.416,253.685 301.416,254.018 300.5,254.5C 301.523,252.154 302.523,249.821 303.5,247.5C 306.13,248.428 308.796,249.428 311.5,250.5C 318.922,248.021 325.588,249.521 331.5,255C 332.793,255.49 334.127,255.657 335.5,255.5C 336.367,258.227 338.201,260.227 341,261.5C 341.333,261.167 341.667,260.833 342,260.5C 344.715,266.548 345.715,272.881 345,279.5C 342.797,277.331 341.964,274.665 342.5,271.5C 341.167,271.5 339.833,271.5 338.5,271.5C 338.866,276.311 336.866,279.811 332.5,282C 328.27,283.044 324.103,284.211 320,285.5C 316.155,285.777 312.155,285.444 308,284.5C 306.97,284.836 306.47,285.503 306.5,286.5 Z"/></g>
<g><path style="opacity:1" fill="#c9a884" d="M 294.5,246.5 C 295.5,246.5 296.5,246.5 297.5,246.5C 297.833,252.5 298.167,258.5 298.5,264.5C 296.539,263.54 294.873,262.207 293.5,260.5C 290.405,261.414 287.238,262.08 284,262.5C 283.505,259.259 282.005,258.259 279.5,259.5C 280.96,257.537 282.627,255.704 284.5,254C 287.025,253.576 289.025,252.41 290.5,250.5C 291.5,248.833 292.833,247.5 294.5,246.5 Z"/></g>
<g><path style="opacity:1" fill="#e0cca7" d="M 170.5,254.5 C 181.853,254.168 193.186,254.501 204.5,255.5C 203.652,256.991 202.319,257.658 200.5,257.5C 192.133,256.435 183.8,256.769 175.5,258.5C 170.771,264.939 169.104,263.606 170.5,254.5 Z"/></g>
<g><path style="opacity:1" fill="#c3996d" d="M 209.5,271.5 C 209.234,275.571 209.567,279.571 210.5,283.5C 207.827,287.53 206.16,291.863 205.5,296.5C 207.735,296.205 209.735,296.539 211.5,297.5C 209.143,297.337 206.81,297.503 204.5,298C 203.027,298.71 202.36,299.876 202.5,301.5C 203.833,301.5 205.167,301.5 206.5,301.5C 206.421,302.93 206.754,304.264 207.5,305.5C 203.643,307.26 199.976,309.26 196.5,311.5C 194.856,311.714 193.356,311.38 192,310.5C 191.506,312.134 191.34,313.801 191.5,315.5C 189.486,315.392 187.82,316.058 186.5,317.5C 186.292,315.08 186.626,312.747 187.5,310.5C 184.445,309.695 182.778,307.695 182.5,304.5C 184.909,300.094 187.409,295.761 190,291.5C 190.49,290.207 190.657,288.873 190.5,287.5C 191.675,287.281 192.675,287.614 193.5,288.5C 191.914,290.173 191.247,292.173 191.5,294.5C 194.676,294.67 196.676,296.337 197.5,299.5C 198.842,298.098 199.676,298.431 200,300.5C 200.575,296.026 200.075,291.693 198.5,287.5C 197.5,287.5 196.5,287.5 195.5,287.5C 196.974,284.673 196.64,282.173 194.5,280C 195.449,279.383 196.282,279.549 197,280.5C 197.664,277.647 197.164,274.981 195.5,272.5C 198.215,260.882 193.882,256.882 182.5,260.5C 182.611,259.883 182.944,259.383 183.5,259C 194,256.246 201.333,259.58 205.5,269C 205.167,269.333 204.833,269.667 204.5,270C 205.905,271.269 207.571,271.769 209.5,271.5 Z"/></g>
<g><path style="opacity:1" fill="#060a03" d="M 342.5,319.5 C 341.539,317.735 341.205,315.735 341.5,313.5C 341.666,304.161 341.5,294.827 341,285.5C 338.075,284.88 336.242,286.214 335.5,289.5C 327.471,292.781 319.137,293.781 310.5,292.5C 309.833,291.167 308.833,290.167 307.5,289.5C 307.443,288.391 307.11,287.391 306.5,286.5C 306.47,285.503 306.97,284.836 308,284.5C 312.155,285.444 316.155,285.777 320,285.5C 324.103,284.211 328.27,283.044 332.5,282C 336.866,279.811 338.866,276.311 338.5,271.5C 339.833,271.5 341.167,271.5 342.5,271.5C 341.964,274.665 342.797,277.331 345,279.5C 345.715,272.881 344.715,266.548 342,260.5C 341.667,260.833 341.333,261.167 341,261.5C 338.201,260.227 336.367,258.227 335.5,255.5C 334.127,255.657 332.793,255.49 331.5,255C 325.588,249.521 318.922,248.021 311.5,250.5C 308.796,249.428 306.13,248.428 303.5,247.5C 302.523,249.821 301.523,252.154 300.5,254.5C 300.802,257.059 300.468,259.393 299.5,261.5C 299.666,256.489 299.499,251.489 299,246.5C 297.384,245.199 295.884,245.199 294.5,246.5C 292.833,247.5 291.5,248.833 290.5,250.5C 289.391,250.557 288.391,250.89 287.5,251.5C 287.729,249.567 288.562,247.9 290,246.5C 290.333,246.833 290.667,247.167 291,247.5C 291.483,246.552 291.649,245.552 291.5,244.5C 293.857,244.663 296.19,244.497 298.5,244C 299.286,242.012 300.786,240.846 303,240.5C 303.772,241.849 304.939,242.682 306.5,243C 311.052,243.796 315.552,244.629 320,245.5C 322.124,244.773 324.291,244.106 326.5,243.5C 329.414,245.973 332.248,245.973 335,243.5C 336.367,245.977 338.2,247.977 340.5,249.5C 341.731,248.349 341.731,247.183 340.5,246C 342.608,242.66 344.108,242.827 345,246.5C 345.241,251.705 345.741,256.872 346.5,262C 346.167,263 345.833,264 345.5,265C 346.459,271.167 347.459,277.334 348.5,283.5C 347.408,287.87 347.408,292.204 348.5,296.5C 347.808,306.147 347.141,315.813 346.5,325.5C 347.381,328.144 347.214,330.811 346,333.5C 345.667,333.167 345.333,332.833 345,332.5C 343.956,318.186 343.29,303.852 343,289.5C 342.5,299.494 342.334,309.494 342.5,319.5 Z"/></g>
<g><path style="opacity:1" fill="#c59866" d="M 340.5,335.5 C 339.275,334.848 338.608,333.681 338.5,332C 339.519,328.023 339.353,323.856 338,319.5C 337.346,335.561 336.18,351.561 334.5,367.5C 332.876,367.36 331.71,368.027 331,369.5C 329.768,366.77 328.935,366.937 328.5,370C 328.954,371.939 329.621,373.772 330.5,375.5C 327.545,377.392 325.545,380.058 324.5,383.5C 323.667,382.5 322.833,381.5 322,380.5C 321.667,380.833 321.333,381.167 321,381.5C 320.313,379.432 320.48,377.432 321.5,375.5C 321.192,374.692 320.692,374.025 320,373.5C 319.502,376.817 319.335,380.15 319.5,383.5C 315.5,383.5 311.5,383.5 307.5,383.5C 306.003,393.23 303.336,393.73 299.5,385C 296.833,384.667 294.167,384.333 291.5,384C 295.723,383.812 299.723,382.979 303.5,381.5C 303.5,380.167 303.5,378.833 303.5,377.5C 297.068,377.053 297.068,375.886 303.5,374C 292.833,373.333 292.833,372.667 303.5,372C 298.863,371.694 294.363,370.86 290,369.5C 289.944,360.711 286.277,354.045 279,349.5C 277.989,350.337 276.822,350.67 275.5,350.5C 275.541,355.126 273.208,357.459 268.5,357.5C 270.4,353.268 273.067,349.601 276.5,346.5C 278.344,344.721 279.01,342.388 278.5,339.5C 272.804,339.447 267.138,339.78 261.5,340.5C 261.5,341.5 261.5,342.5 261.5,343.5C 260.167,343.5 258.833,343.5 257.5,343.5C 257.62,351.86 257.62,360.193 257.5,368.5C 253.241,367.066 251.074,364.066 251,359.5C 250.333,358.167 249.667,358.167 249,359.5C 248.255,356.455 246.922,353.789 245,351.5C 244.5,351.667 244,351.833 243.5,352C 244.833,352.667 244.833,353.333 243.5,354C 241.5,354.333 239.5,354.667 237.5,355C 238.357,355.689 239.023,356.522 239.5,357.5C 234.706,359.127 231.373,362.293 229.5,367C 231.134,367.494 232.801,367.66 234.5,367.5C 234.23,372.145 235.897,375.812 239.5,378.5C 236.621,381.267 234.121,380.933 232,377.5C 230.273,377.646 230.106,378.313 231.5,379.5C 226.726,381.053 222.06,382.886 217.5,385C 218.815,386.395 218.481,387.395 216.5,388C 218.041,389.579 219.208,391.413 220,393.5C 221.677,394.516 223.343,395.516 225,396.5C 229.677,396.069 234.511,395.736 239.5,395.5C 243.538,395.958 247.538,396.624 251.5,397.5C 252.995,397.989 254.329,398.655 255.5,399.5C 256.655,401.825 258.655,402.992 261.5,403C 258.937,403.763 258.937,404.263 261.5,404.5C 262.647,404.182 263.481,403.516 264,402.5C 264.333,403.5 264.667,404.5 265,405.5C 267.071,404.475 269.238,403.642 271.5,403C 267.205,402.088 262.872,401.421 258.5,401C 268.192,400.726 277.859,400.226 287.5,399.5C 286.95,404.229 284.45,405.896 280,404.5C 277.942,405.109 277.109,406.109 277.5,407.5C 270.174,407.335 262.84,407.335 255.5,407.5C 255.541,403.757 254.874,403.59 253.5,407C 250.774,407.182 248.107,407.682 245.5,408.5C 246.715,411.457 248.715,413.624 251.5,415C 250.692,415.308 250.025,415.808 249.5,416.5C 251.893,418.89 253.893,421.557 255.5,424.5C 261.052,425.188 266.552,425.854 272,426.5C 272.92,424.686 274.42,423.686 276.5,423.5C 280.679,424.913 284.179,423.913 287,420.5C 288.167,421.667 289.333,422.833 290.5,424C 289.551,424.617 288.718,424.451 288,423.5C 287.506,425.134 287.34,426.801 287.5,428.5C 281.579,430.868 276.413,434.534 272,439.5C 266.803,437.58 261.303,436.913 255.5,437.5C 255.657,438.873 255.49,440.207 255,441.5C 249.601,440.378 246.768,437.045 246.5,431.5C 244.833,431.5 243.167,431.5 241.5,431.5C 239.396,431.799 237.396,431.466 235.5,430.5C 240.218,428.074 240.551,425.241 236.5,422C 234.975,420.991 233.308,420.491 231.5,420.5C 232.04,415.515 231.207,410.849 229,406.5C 227.829,405.107 226.329,404.273 224.5,404C 226.797,402.84 226.464,401.84 223.5,401C 220.833,400.667 218.167,400.333 215.5,400C 216.833,399.667 218.167,399.333 219.5,399C 217.557,397.445 215.39,396.278 213,395.5C 211.848,397.512 210.682,397.678 209.5,396C 209.957,395.586 210.291,395.086 210.5,394.5C 206.622,393.115 206.622,391.949 210.5,391C 209.584,390.626 208.75,390.126 208,389.5C 206.91,384.908 204.076,382.241 199.5,381.5C 198.95,377.671 198.283,373.838 197.5,370C 197.591,365.74 198.924,361.906 201.5,358.5C 200.24,357.618 199.074,356.618 198,355.5C 197.667,350.5 197.333,345.5 197,340.5C 196.293,338.919 195.46,337.419 194.5,336C 195.167,334.667 195.833,333.333 196.5,332C 198.871,331.265 201.205,330.432 203.5,329.5C 205.893,330.095 207.727,331.428 209,333.5C 211.324,336.48 212.824,339.813 213.5,343.5C 215.167,343.5 216.833,343.5 218.5,343.5C 219.556,339.832 220.722,336.165 222,332.5C 224.696,331.81 226.863,330.31 228.5,328C 221.508,327.5 214.508,327.334 207.5,327.5C 207.666,321.491 207.499,315.491 207,309.5C 202.842,310.329 199.342,312.329 196.5,315.5C 196.094,314.443 196.094,313.109 196.5,311.5C 199.976,309.26 203.643,307.26 207.5,305.5C 206.754,304.264 206.421,302.93 206.5,301.5C 205.167,301.5 203.833,301.5 202.5,301.5C 202.36,299.876 203.027,298.71 204.5,298C 206.81,297.503 209.143,297.337 211.5,297.5C 217.172,298.899 222.839,298.732 228.5,297C 229.333,296.167 230.167,295.333 231,294.5C 232.063,290.495 233.563,286.828 235.5,283.5C 238.845,279.3 242.511,275.3 246.5,271.5C 248.474,271.88 250.474,272.213 252.5,272.5C 253.851,277.031 256.185,281.031 259.5,284.5C 260.799,283.91 261.632,282.91 262,281.5C 262.427,274.635 265.594,272.968 271.5,276.5C 273.504,274.995 275.337,273.328 277,271.5C 277.5,271.667 278,271.833 278.5,272C 276.464,273.819 276.297,275.653 278,277.5C 279.663,275.842 280.496,273.842 280.5,271.5C 282.277,271.214 283.944,270.547 285.5,269.5C 286.647,269.818 287.481,270.484 288,271.5C 289.343,262.318 290.51,262.318 291.5,271.5C 293.138,272.705 293.471,274.038 292.5,275.5C 293.833,278.5 295.167,281.5 296.5,284.5C 296.64,286.256 296.14,287.922 295,289.5C 294.667,288.833 294.333,288.167 294,287.5C 292.951,288.517 291.784,288.684 290.5,288C 288.349,286.226 286.016,284.726 283.5,283.5C 282.41,284.391 282.41,285.391 283.5,286.5C 281.993,287.739 280.826,287.405 280,285.5C 279.964,292.493 283.464,296.993 290.5,299C 291.583,301.056 293.25,302.389 295.5,303C 300.141,303.317 304.641,303.484 309,303.5C 309.333,302.833 309.667,302.167 310,301.5C 311.353,302.704 313.019,303.371 315,303.5C 319.147,302.877 323.314,302.544 327.5,302.5C 327.351,303.552 327.517,304.552 328,305.5C 329.821,302.009 332.654,300.843 336.5,302C 337.293,305.411 337.793,308.911 338,312.5C 338.333,310.167 338.667,307.833 339,305.5C 340.112,315.47 340.612,325.47 340.5,335.5 Z"/></g>
<g><path style="opacity:1" fill="#53452b" d="M 274.5,261.5 C 271.512,263.14 268.179,263.974 264.5,264C 262.153,267.349 259.987,270.849 258,274.5C 256.812,273.437 256.312,272.103 256.5,270.5C 257.496,270.586 258.329,270.252 259,269.5C 259.69,266.804 261.19,264.637 263.5,263C 267.17,262.452 270.837,261.952 274.5,261.5 Z"/></g>
<g><path style="opacity:1" fill="#0d1205" d="M 226.5,237.5 C 226.833,237.5 227.167,237.5 227.5,237.5C 228.161,240.787 228.661,244.12 229,247.5C 230.297,248.784 231.464,248.617 232.5,247C 230.099,246.195 230.266,245.362 233,244.5C 232.484,253.623 235.317,261.457 241.5,268C 240.978,268.95 240.311,269.784 239.5,270.5C 239.957,271.298 240.624,271.631 241.5,271.5C 239.096,275.255 237.096,279.255 235.5,283.5C 232.643,287.869 229.31,291.869 225.5,295.5C 220.184,297.676 215.684,296.676 212,292.5C 211.616,290.803 211.782,289.137 212.5,287.5C 212.833,286.833 213.167,286.167 213.5,285.5C 214.167,285.5 214.5,285.167 214.5,284.5C 215.117,284.389 215.617,284.056 216,283.5C 215.895,275.924 217.062,268.591 219.5,261.5C 220.927,259.852 221.76,257.852 222,255.5C 222.943,250.173 223.777,244.84 224.5,239.5C 225.167,238.833 225.833,238.167 226.5,237.5 Z"/></g>
<g><path style="opacity:1" fill="#342e1a" d="M 219.5,261.5 C 217.062,268.591 215.895,275.924 216,283.5C 215.617,284.056 215.117,284.389 214.5,284.5C 214.472,279.138 214.806,273.805 215.5,268.5C 216.738,266.786 217.405,264.786 217.5,262.5C 218.167,262.167 218.833,261.833 219.5,261.5 Z"/></g>
<g><path style="opacity:1" fill="#523635" d="M 102.5,229.5 C 100.616,238.871 98.7828,248.204 97,257.5C 94.2164,266.397 90.8831,275.063 87,283.5C 86.5004,290.158 86.3337,296.825 86.5,303.5C 86.1667,303.5 85.8333,303.5 85.5,303.5C 84.346,297.013 84.1794,290.346 85,283.5C 89.2144,274.401 92.881,265.068 96,255.5C 97.1092,246.418 99.2759,237.752 102.5,229.5 Z"/></g>
<g><path style="opacity:1" fill="#b18d5f" d="M 209.5,271.5 C 209.833,271.5 210.167,271.5 210.5,271.5C 211.5,271.5 212.5,271.5 213.5,271.5C 213.5,276.167 213.5,280.833 213.5,285.5C 213.167,286.167 212.833,286.833 212.5,287.5C 209.318,289.193 207.652,291.859 207.5,295.5C 211.162,296.156 214.828,296.823 218.5,297.5C 221.205,297.684 223.538,297.017 225.5,295.5C 229.31,291.869 232.643,287.869 235.5,283.5C 233.563,286.828 232.063,290.495 231,294.5C 230.167,295.333 229.333,296.167 228.5,297C 222.839,298.732 217.172,298.899 211.5,297.5C 209.735,296.539 207.735,296.205 205.5,296.5C 206.16,291.863 207.827,287.53 210.5,283.5C 209.567,279.571 209.234,275.571 209.5,271.5 Z"/></g>
<g><path style="opacity:1" fill="#6d5838" d="M 215.5,268.5 C 214.806,273.805 214.472,279.138 214.5,284.5C 214.5,285.167 214.167,285.5 213.5,285.5C 213.5,280.833 213.5,276.167 213.5,271.5C 214.167,270.5 214.833,269.5 215.5,268.5 Z"/></g>
<g><path style="opacity:1" fill="#8d8361" d="M 299.5,267.5 C 300.167,269.5 300.833,271.5 301.5,273.5C 302.199,278.272 303.866,282.605 306.5,286.5C 307.11,287.391 307.443,288.391 307.5,289.5C 306.518,288.859 305.518,288.193 304.5,287.5C 303.53,284.226 302.03,281.226 300,278.5C 299.501,274.848 299.335,271.182 299.5,267.5 Z"/></g>
<g><path style="opacity:1" fill="#755f36" d="M 212.5,287.5 C 211.782,289.137 211.616,290.803 212,292.5C 215.684,296.676 220.184,297.676 225.5,295.5C 223.538,297.017 221.205,297.684 218.5,297.5C 214.828,296.823 211.162,296.156 207.5,295.5C 207.652,291.859 209.318,289.193 212.5,287.5 Z"/></g>
<g><path style="opacity:1" fill="#7b6147" d="M 341.5,313.5 C 340.508,305.684 340.174,297.684 340.5,289.5C 338.486,289.392 336.82,290.058 335.5,291.5C 335.5,290.833 335.5,290.167 335.5,289.5C 336.242,286.214 338.075,284.88 341,285.5C 341.5,294.827 341.666,304.161 341.5,313.5 Z"/></g>
<g><path style="opacity:1" fill="#bd996c" d="M 298.5,264.5 C 298.263,265.791 298.596,266.791 299.5,267.5C 299.335,271.182 299.501,274.848 300,278.5C 302.03,281.226 303.53,284.226 304.5,287.5C 305.518,288.193 306.518,288.859 307.5,289.5C 308.435,291.861 309.768,294.028 311.5,296C 315.167,296.667 318.833,296.667 322.5,296C 323.737,295.768 324.737,295.268 325.5,294.5C 328.886,293.865 332.22,292.865 335.5,291.5C 336.82,290.058 338.486,289.392 340.5,289.5C 340.174,297.684 340.508,305.684 341.5,313.5C 341.205,315.735 341.539,317.735 342.5,319.5C 342.679,330.19 342.345,340.857 341.5,351.5C 341.167,351.5 340.833,351.5 340.5,351.5C 340.5,346.167 340.5,340.833 340.5,335.5C 340.612,325.47 340.112,315.47 339,305.5C 338.667,307.833 338.333,310.167 338,312.5C 337.793,308.911 337.293,305.411 336.5,302C 332.654,300.843 329.821,302.009 328,305.5C 327.517,304.552 327.351,303.552 327.5,302.5C 323.314,302.544 319.147,302.877 315,303.5C 313.019,303.371 311.353,302.704 310,301.5C 309.667,302.167 309.333,302.833 309,303.5C 304.641,303.484 300.141,303.317 295.5,303C 293.25,302.389 291.583,301.056 290.5,299C 283.464,296.993 279.964,292.493 280,285.5C 280.826,287.405 281.993,287.739 283.5,286.5C 282.41,285.391 282.41,284.391 283.5,283.5C 286.016,284.726 288.349,286.226 290.5,288C 291.784,288.684 292.951,288.517 294,287.5C 294.333,288.167 294.667,288.833 295,289.5C 296.14,287.922 296.64,286.256 296.5,284.5C 295.167,281.5 293.833,278.5 292.5,275.5C 293.471,274.038 293.138,272.705 291.5,271.5C 290.51,262.318 289.343,262.318 288,271.5C 287.481,270.484 286.647,269.818 285.5,269.5C 283.944,270.547 282.277,271.214 280.5,271.5C 280.496,273.842 279.663,275.842 278,277.5C 276.297,275.653 276.464,273.819 278.5,272C 278,271.833 277.5,271.667 277,271.5C 275.337,273.328 273.504,274.995 271.5,276.5C 265.594,272.968 262.427,274.635 262,281.5C 261.632,282.91 260.799,283.91 259.5,284.5C 256.185,281.031 253.851,277.031 252.5,272.5C 250.474,272.213 248.474,271.88 246.5,271.5C 242.511,275.3 238.845,279.3 235.5,283.5C 237.096,279.255 239.096,275.255 241.5,271.5C 243.963,269.539 246.297,267.372 248.5,265C 253.177,263.837 255.844,265.67 256.5,270.5C 256.312,272.103 256.812,273.437 258,274.5C 259.987,270.849 262.153,267.349 264.5,264C 268.179,263.974 271.512,263.14 274.5,261.5C 276.167,260.833 277.833,260.167 279.5,259.5C 282.005,258.259 283.505,259.259 284,262.5C 287.238,262.08 290.405,261.414 293.5,260.5C 294.873,262.207 296.539,263.54 298.5,264.5 Z"/></g>
<g><path style="opacity:1" fill="#9f9671" d="M 307.5,289.5 C 308.833,290.167 309.833,291.167 310.5,292.5C 310.611,293.117 310.944,293.617 311.5,294C 316.155,294.499 320.821,294.666 325.5,294.5C 324.737,295.268 323.737,295.768 322.5,296C 318.833,296.667 315.167,296.667 311.5,296C 309.768,294.028 308.435,291.861 307.5,289.5 Z"/></g>
<g><path style="opacity:1" fill="#4d4d38" d="M 335.5,289.5 C 335.5,290.167 335.5,290.833 335.5,291.5C 332.22,292.865 328.886,293.865 325.5,294.5C 320.821,294.666 316.155,294.499 311.5,294C 310.944,293.617 310.611,293.117 310.5,292.5C 319.137,293.781 327.471,292.781 335.5,289.5 Z"/></g>
<g><path style="opacity:1" fill="#c89b69" d="M 241.5,431.5 C 241.574,435.161 240.574,435.828 238.5,433.5C 237.571,434.689 237.238,436.022 237.5,437.5C 232.902,438.184 228.235,438.017 223.5,437C 223.406,435.578 223.072,434.078 222.5,432.5C 216.98,435.724 212.313,434.724 208.5,429.5C 207.389,430.611 206.055,431.278 204.5,431.5C 202.708,428.836 200.041,426.503 196.5,424.5C 192.924,424.287 190.424,422.62 189,419.5C 185.608,416.267 182.108,413.267 178.5,410.5C 175.45,408.451 173.117,405.784 171.5,402.5C 171.5,396.167 171.5,389.833 171.5,383.5C 171.5,372.833 171.5,362.167 171.5,351.5C 172.5,351.5 173.5,351.5 174.5,351.5C 174.833,330.167 175.167,330.167 175.5,351.5C 178.167,351.5 180.833,351.5 183.5,351.5C 182.833,340.833 182.167,330.167 181.5,319.5C 183.781,319.923 185.448,319.256 186.5,317.5C 187.82,316.058 189.486,315.392 191.5,315.5C 191.34,313.801 191.506,312.134 192,310.5C 193.356,311.38 194.856,311.714 196.5,311.5C 196.094,313.109 196.094,314.443 196.5,315.5C 199.342,312.329 202.842,310.329 207,309.5C 207.499,315.491 207.666,321.491 207.5,327.5C 214.508,327.334 221.508,327.5 228.5,328C 226.863,330.31 224.696,331.81 222,332.5C 220.722,336.165 219.556,339.832 218.5,343.5C 216.833,343.5 215.167,343.5 213.5,343.5C 212.824,339.813 211.324,336.48 209,333.5C 207.727,331.428 205.893,330.095 203.5,329.5C 201.205,330.432 198.871,331.265 196.5,332C 195.833,333.333 195.167,334.667 194.5,336C 195.46,337.419 196.293,338.919 197,340.5C 197.333,345.5 197.667,350.5 198,355.5C 199.074,356.618 200.24,357.618 201.5,358.5C 198.924,361.906 197.591,365.74 197.5,370C 198.283,373.838 198.95,377.671 199.5,381.5C 204.076,382.241 206.91,384.908 208,389.5C 208.75,390.126 209.584,390.626 210.5,391C 206.622,391.949 206.622,393.115 210.5,394.5C 210.291,395.086 209.957,395.586 209.5,396C 210.682,397.678 211.848,397.512 213,395.5C 215.39,396.278 217.557,397.445 219.5,399C 218.167,399.333 216.833,399.667 215.5,400C 218.167,400.333 220.833,400.667 223.5,401C 226.464,401.84 226.797,402.84 224.5,404C 226.329,404.273 227.829,405.107 229,406.5C 231.207,410.849 232.04,415.515 231.5,420.5C 233.308,420.491 234.975,420.991 236.5,422C 240.551,425.241 240.218,428.074 235.5,430.5C 237.396,431.466 239.396,431.799 241.5,431.5 Z"/></g>
<g><path style="opacity:1" fill="#c8996b" d="M 186.5,317.5 C 185.448,319.256 183.781,319.923 181.5,319.5C 182.167,330.167 182.833,340.833 183.5,351.5C 180.833,351.5 178.167,351.5 175.5,351.5C 175.167,330.167 174.833,330.167 174.5,351.5C 173.5,351.5 172.5,351.5 171.5,351.5C 171.284,325.798 172.118,300.132 174,274.5C 174.752,268.435 177.586,263.769 182.5,260.5C 193.882,256.882 198.215,260.882 195.5,272.5C 197.164,274.981 197.664,277.647 197,280.5C 196.282,279.549 195.449,279.383 194.5,280C 196.64,282.173 196.974,284.673 195.5,287.5C 196.5,287.5 197.5,287.5 198.5,287.5C 200.075,291.693 200.575,296.026 200,300.5C 199.676,298.431 198.842,298.098 197.5,299.5C 196.676,296.337 194.676,294.67 191.5,294.5C 191.247,292.173 191.914,290.173 193.5,288.5C 192.675,287.614 191.675,287.281 190.5,287.5C 190.657,288.873 190.49,290.207 190,291.5C 187.409,295.761 184.909,300.094 182.5,304.5C 182.778,307.695 184.445,309.695 187.5,310.5C 186.626,312.747 186.292,315.08 186.5,317.5 Z"/></g>
<g><path style="opacity:1" fill="#643f3c" d="M 402.5,303.5 C 403.166,308.656 403.499,313.989 403.5,319.5C 403.668,327.722 403.001,335.722 401.5,343.5C 401.833,330.167 402.167,316.833 402.5,303.5 Z"/></g>
<g><path style="opacity:1" fill="#6f4944" d="M 85.5,303.5 C 85.8333,303.5 86.1667,303.5 86.5,303.5C 89.2296,317.752 92.8962,331.752 97.5,345.5C 96.2058,344.71 95.0391,343.71 94,342.5C 93.2985,339.673 92.2985,337.006 91,334.5C 90.6667,331.167 90.3333,327.833 90,324.5C 87.2769,317.735 85.7769,310.735 85.5,303.5 Z"/></g>
<g><path style="opacity:1" fill="#0d0f04" d="M 276.5,346.5 C 273.067,349.601 270.4,353.268 268.5,357.5C 266.796,360.256 265.463,363.256 264.5,366.5C 263.395,367.6 262.062,368.267 260.5,368.5C 261.001,362.161 260.335,355.994 258.5,350C 262.251,341.874 268.417,339.041 277,341.5C 277.64,343.265 277.473,344.932 276.5,346.5 Z"/></g>
<g><path style="opacity:1" fill="#080c09" d="M 169.5,373.5 C 169.334,382.506 169.5,391.506 170,400.5C 170.278,401.416 170.778,402.082 171.5,402.5C 173.117,405.784 175.45,408.451 178.5,410.5C 179.925,411.922 180.925,413.589 181.5,415.5C 181.179,417.048 180.179,417.715 178.5,417.5C 178.5,420.167 178.5,422.833 178.5,425.5C 178.5,443.5 178.5,461.5 178.5,479.5C 177.5,490.003 177.5,500.67 178.5,511.5C 176.167,511.5 173.833,511.5 171.5,511.5C 171.5,500.833 171.5,490.167 171.5,479.5C 173.276,459.688 173.776,439.688 173,419.5C 172.861,416.555 171.694,414.221 169.5,412.5C 169.34,410.847 168.674,409.514 167.5,408.5C 166.925,406.589 165.925,404.922 164.5,403.5C 164.145,401.11 163.478,398.777 162.5,396.5C 163.297,392.202 163.63,387.868 163.5,383.5C 162.5,383.5 161.5,383.5 160.5,383.5C 160.34,381.801 160.506,380.134 161,378.5C 161.667,379.833 162.333,379.833 163,378.5C 164,370.5 165,362.5 166,354.5C 167.193,364.117 167.859,373.784 168,383.5C 168.179,379.975 168.679,376.641 169.5,373.5 Z"/></g>
<g><path style="opacity:1" fill="#573c3a" d="M 100.5,351.5 C 104.133,356.12 106.133,361.454 106.5,367.5C 103.958,362.407 101.958,357.074 100.5,351.5 Z"/></g>
<g><path style="opacity:1" fill="#af8b65" d="M 276.5,346.5 C 277.473,344.932 277.64,343.265 277,341.5C 268.417,339.041 262.251,341.874 258.5,350C 260.335,355.994 261.001,362.161 260.5,368.5C 260.369,369.376 260.702,370.043 261.5,370.5C 263.288,369.717 264.288,368.384 264.5,366.5C 265.463,363.256 266.796,360.256 268.5,357.5C 268.489,359.547 268.156,361.547 267.5,363.5C 268.634,365.469 269.967,367.302 271.5,369C 270.872,371.526 269.539,372.359 267.5,371.5C 264.721,374.289 261.554,374.955 258,373.5C 257.506,371.866 257.34,370.199 257.5,368.5C 257.62,360.193 257.62,351.86 257.5,343.5C 258.833,343.5 260.167,343.5 261.5,343.5C 261.5,342.5 261.5,341.5 261.5,340.5C 267.138,339.78 272.804,339.447 278.5,339.5C 279.01,342.388 278.344,344.721 276.5,346.5 Z"/></g>
<g><path style="opacity:1" fill="#8e6e50" d="M 340.5,351.5 C 340.833,351.5 341.167,351.5 341.5,351.5C 341.664,354.187 341.497,356.854 341,359.5C 338.651,367.394 336.484,375.394 334.5,383.5C 333.715,386.404 332.381,389.07 330.5,391.5C 333.026,377.831 336.36,364.497 340.5,351.5 Z"/></g>
<g><path style="opacity:1" fill="#774945" d="M 108.5,375.5 C 109.933,377.519 111.267,379.686 112.5,382C 115.311,382.629 118.144,383.129 121,383.5C 127.36,381.605 133.86,381.105 140.5,382C 141.416,382.278 142.082,382.778 142.5,383.5C 137.528,382.578 132.528,382.412 127.5,383C 123.79,387.007 119.623,387.507 115,384.5C 114.127,384.735 113.293,385.069 112.5,385.5C 111.18,383.183 109.514,381.183 107.5,379.5C 108.246,378.264 108.579,376.93 108.5,375.5 Z"/></g>
<g><path style="opacity:1" fill="#764e46" d="M 143.5,384.5 C 149.981,385.062 152.981,388.728 152.5,395.5C 150.883,394.411 150.05,392.744 150,390.5C 148.247,389.373 146.413,388.373 144.5,387.5C 143.614,386.675 143.281,385.675 143.5,384.5 Z"/></g>
<g><path style="opacity:1" fill="#583c37" d="M 381.5,383.5 C 380.851,388.786 378.184,392.786 373.5,395.5C 376.17,391.492 378.836,387.492 381.5,383.5 Z"/></g>
<g><path style="opacity:1" fill="#855637" d="M 227.5,392.5 C 229.833,392.5 232.167,392.5 234.5,392.5C 236.167,392.5 237.833,392.5 239.5,392.5C 243.691,393.75 247.691,395.417 251.5,397.5C 247.538,396.624 243.538,395.958 239.5,395.5C 235.601,394.068 231.601,393.068 227.5,392.5 Z"/></g>
<g><path style="opacity:1" fill="#3e2726" d="M 373.5,395.5 C 372.551,400.14 369.884,401.807 365.5,400.5C 364.253,398.677 363.586,396.677 363.5,394.5C 359.805,397.511 355.805,400.177 351.5,402.5C 354.488,398.508 357.821,394.842 361.5,391.5C 363.573,394.335 366.073,396.668 369,398.5C 370.643,397.685 372.143,396.685 373.5,395.5 Z"/></g>
<g><path style="opacity:1" fill="#c49567" d="M 330.5,375.5 C 330.663,377.857 330.497,380.19 330,382.5C 325.244,384.596 322.911,388.262 323,393.5C 322.057,396.4 320.39,398.733 318,400.5C 317.016,403.959 315.85,407.292 314.5,410.5C 314.5,411.167 314.5,411.833 314.5,412.5C 313.279,411.972 312.113,411.305 311,410.5C 308.95,412.893 307.283,415.559 306,418.5C 304.017,419.492 301.85,420.992 299.5,423C 300.167,423.333 300.833,423.667 301.5,424C 300,424.833 298.833,426 298,427.5C 297.683,425.699 297.016,425.366 296,426.5C 295.362,427.609 294.862,428.775 294.5,430C 297.039,431.645 297.039,433.145 294.5,434.5C 293.614,433.675 293.281,432.675 293.5,431.5C 292.167,431.5 290.833,431.5 289.5,431.5C 288.634,434.167 287.634,436.833 286.5,439.5C 281.945,440.379 279.612,443.046 279.5,447.5C 277.143,447.337 274.81,447.503 272.5,448C 276.603,451.584 276.269,452.917 271.5,452C 271.966,453.299 271.966,454.799 271.5,456.5C 266.18,457.239 260.846,457.906 255.5,458.5C 255.5,459.5 255.5,460.5 255.5,461.5C 250.787,460.404 246.121,459.404 241.5,458.5C 235.243,456.967 229.243,454.634 223.5,451.5C 207.414,442.092 193.414,430.092 181.5,415.5C 180.925,413.589 179.925,411.922 178.5,410.5C 182.108,413.267 185.608,416.267 189,419.5C 190.424,422.62 192.924,424.287 196.5,424.5C 200.041,426.503 202.708,428.836 204.5,431.5C 206.055,431.278 207.389,430.611 208.5,429.5C 212.313,434.724 216.98,435.724 222.5,432.5C 223.072,434.078 223.406,435.578 223.5,437C 228.235,438.017 232.902,438.184 237.5,437.5C 237.238,436.022 237.571,434.689 238.5,433.5C 240.574,435.828 241.574,435.161 241.5,431.5C 243.167,431.5 244.833,431.5 246.5,431.5C 246.768,437.045 249.601,440.378 255,441.5C 255.49,440.207 255.657,438.873 255.5,437.5C 261.303,436.913 266.803,437.58 272,439.5C 276.413,434.534 281.579,430.868 287.5,428.5C 287.34,426.801 287.506,425.134 288,423.5C 288.718,424.451 289.551,424.617 290.5,424C 289.333,422.833 288.167,421.667 287,420.5C 284.179,423.913 280.679,424.913 276.5,423.5C 274.42,423.686 272.92,424.686 272,426.5C 266.552,425.854 261.052,425.188 255.5,424.5C 253.893,421.557 251.893,418.89 249.5,416.5C 250.025,415.808 250.692,415.308 251.5,415C 248.715,413.624 246.715,411.457 245.5,408.5C 248.107,407.682 250.774,407.182 253.5,407C 254.874,403.59 255.541,403.757 255.5,407.5C 262.84,407.335 270.174,407.335 277.5,407.5C 277.109,406.109 277.942,405.109 280,404.5C 284.45,405.896 286.95,404.229 287.5,399.5C 277.859,400.226 268.192,400.726 258.5,401C 262.872,401.421 267.205,402.088 271.5,403C 269.238,403.642 267.071,404.475 265,405.5C 264.667,404.5 264.333,403.5 264,402.5C 263.481,403.516 262.647,404.182 261.5,404.5C 258.937,404.263 258.937,403.763 261.5,403C 258.655,402.992 256.655,401.825 255.5,399.5C 262.841,399.666 270.174,399.5 277.5,399C 281.179,398.974 284.512,398.14 287.5,396.5C 289.553,396.598 291.22,395.931 292.5,394.5C 296.241,392.691 298.241,389.691 298.5,385.5C 294.833,385.5 291.167,385.5 287.5,385.5C 274.482,385.661 261.482,385.327 248.5,384.5C 242.158,384.334 235.825,384.5 229.5,385C 227.942,385.21 226.609,385.71 225.5,386.5C 222.155,386.864 221.155,388.531 222.5,391.5C 224.071,392.309 225.738,392.643 227.5,392.5C 231.601,393.068 235.601,394.068 239.5,395.5C 234.511,395.736 229.677,396.069 225,396.5C 223.343,395.516 221.677,394.516 220,393.5C 219.208,391.413 218.041,389.579 216.5,388C 218.481,387.395 218.815,386.395 217.5,385C 222.06,382.886 226.726,381.053 231.5,379.5C 230.106,378.313 230.273,377.646 232,377.5C 234.121,380.933 236.621,381.267 239.5,378.5C 235.897,375.812 234.23,372.145 234.5,367.5C 232.801,367.66 231.134,367.494 229.5,367C 231.373,362.293 234.706,359.127 239.5,357.5C 239.023,356.522 238.357,355.689 237.5,355C 239.5,354.667 241.5,354.333 243.5,354C 244.833,353.333 244.833,352.667 243.5,352C 244,351.833 244.5,351.667 245,351.5C 246.922,353.789 248.255,356.455 249,359.5C 249.667,358.167 250.333,358.167 251,359.5C 251.074,364.066 253.241,367.066 257.5,368.5C 257.34,370.199 257.506,371.866 258,373.5C 261.554,374.955 264.721,374.289 267.5,371.5C 269.539,372.359 270.872,371.526 271.5,369C 269.967,367.302 268.634,365.469 267.5,363.5C 268.156,361.547 268.489,359.547 268.5,357.5C 273.208,357.459 275.541,355.126 275.5,350.5C 276.822,350.67 277.989,350.337 279,349.5C 286.277,354.045 289.944,360.711 290,369.5C 294.363,370.86 298.863,371.694 303.5,372C 292.833,372.667 292.833,373.333 303.5,374C 297.068,375.886 297.068,377.053 303.5,377.5C 303.5,378.833 303.5,380.167 303.5,381.5C 299.723,382.979 295.723,383.812 291.5,384C 294.167,384.333 296.833,384.667 299.5,385C 303.336,393.73 306.003,393.23 307.5,383.5C 311.5,383.5 315.5,383.5 319.5,383.5C 319.335,380.15 319.502,376.817 320,373.5C 320.692,374.025 321.192,374.692 321.5,375.5C 320.48,377.432 320.313,379.432 321,381.5C 321.333,381.167 321.667,380.833 322,380.5C 322.833,381.5 323.667,382.5 324.5,383.5C 325.545,380.058 327.545,377.392 330.5,375.5 Z"/></g>
<g><path style="opacity:1" fill="#28190d" d="M 287.5,385.5 C 291.167,385.5 294.833,385.5 298.5,385.5C 298.241,389.691 296.241,392.691 292.5,394.5C 282.196,395.742 271.863,396.242 261.5,396C 256.953,394.785 252.62,393.118 248.5,391C 242.843,390.501 237.176,390.334 231.5,390.5C 229.409,390.682 227.409,390.348 225.5,389.5C 224.438,388.575 224.438,387.575 225.5,386.5C 246.334,387.329 267.001,387.329 287.5,386.5C 287.5,386.167 287.5,385.833 287.5,385.5 Z"/></g>
<g><path style="opacity:1" fill="#49321a" d="M 225.5,386.5 C 224.438,387.575 224.438,388.575 225.5,389.5C 227.409,390.348 229.409,390.682 231.5,390.5C 232.5,391.167 233.5,391.833 234.5,392.5C 232.167,392.5 229.833,392.5 227.5,392.5C 225.738,392.643 224.071,392.309 222.5,391.5C 221.155,388.531 222.155,386.864 225.5,386.5 Z"/></g>
<g><path style="opacity:1" fill="#815b3a" d="M 248.5,384.5 C 261.482,385.327 274.482,385.661 287.5,385.5C 287.5,385.833 287.5,386.167 287.5,386.5C 276.828,386.667 266.161,386.5 255.5,386C 252.964,385.814 250.631,385.314 248.5,384.5 Z"/></g>
<g><path style="opacity:1" fill="#3e2711" d="M 248.5,384.5 C 250.631,385.314 252.964,385.814 255.5,386C 266.161,386.5 276.828,386.667 287.5,386.5C 267.001,387.329 246.334,387.329 225.5,386.5C 226.609,385.71 227.942,385.21 229.5,385C 235.825,384.5 242.158,384.334 248.5,384.5 Z"/></g>
<g><path style="opacity:1" fill="#614c28" d="M 264.5,366.5 C 264.288,368.384 263.288,369.717 261.5,370.5C 260.702,370.043 260.369,369.376 260.5,368.5C 262.062,368.267 263.395,367.6 264.5,366.5 Z"/></g>
<g><path style="opacity:1" fill="#78654c" d="M 169.5,321.5 C 170.167,342.167 170.833,362.833 171.5,383.5C 171.5,389.833 171.5,396.167 171.5,402.5C 170.778,402.082 170.278,401.416 170,400.5C 169.5,391.506 169.334,382.506 169.5,373.5C 169.5,356.167 169.5,338.833 169.5,321.5 Z"/></g>
<g><path style="opacity:1" fill="#402116" d="M 231.5,390.5 C 237.176,390.334 242.843,390.501 248.5,391C 252.62,393.118 256.953,394.785 261.5,396C 271.863,396.242 282.196,395.742 292.5,394.5C 291.22,395.931 289.553,396.598 287.5,396.5C 279.338,398.13 271.005,398.63 262.5,398C 257.701,396.543 253.034,394.877 248.5,393C 245.518,392.502 242.518,392.335 239.5,392.5C 237.833,392.5 236.167,392.5 234.5,392.5C 233.5,391.833 232.5,391.167 231.5,390.5 Z"/></g>
<g><path style="opacity:1" fill="#623726" d="M 239.5,392.5 C 242.518,392.335 245.518,392.502 248.5,393C 253.034,394.877 257.701,396.543 262.5,398C 271.005,398.63 279.338,398.13 287.5,396.5C 284.512,398.14 281.179,398.974 277.5,399C 270.174,399.5 262.841,399.666 255.5,399.5C 254.329,398.655 252.995,397.989 251.5,397.5C 247.691,395.417 243.691,393.75 239.5,392.5 Z"/></g>
<g><path style="opacity:1" fill="#bc9068" d="M 340.5,335.5 C 340.5,340.833 340.5,346.167 340.5,351.5C 336.36,364.497 333.026,377.831 330.5,391.5C 330.5,392.167 330.167,392.5 329.5,392.5C 328.504,392.414 327.671,392.748 327,393.5C 325.637,398.558 323.471,403.224 320.5,407.5C 318.757,409.038 316.757,410.038 314.5,410.5C 315.85,407.292 317.016,403.959 318,400.5C 320.39,398.733 322.057,396.4 323,393.5C 322.911,388.262 325.244,384.596 330,382.5C 330.497,380.19 330.663,377.857 330.5,375.5C 329.621,373.772 328.954,371.939 328.5,370C 328.935,366.937 329.768,366.77 331,369.5C 331.71,368.027 332.876,367.36 334.5,367.5C 336.18,351.561 337.346,335.561 338,319.5C 339.353,323.856 339.519,328.023 338.5,332C 338.608,333.681 339.275,334.848 340.5,335.5 Z"/></g>
<g><path style="opacity:1" fill="#090907" d="M 334.5,383.5 C 334.663,385.857 334.497,388.19 334,390.5C 332.957,393.357 331.79,396.19 330.5,399C 331.516,399.519 332.182,400.353 332.5,401.5C 331.844,403.453 331.511,405.453 331.5,407.5C 332.822,407.67 333.989,407.337 335,406.5C 336.76,409.461 337.926,412.294 338.5,415C 334.918,416.246 332.251,418.58 330.5,422C 332.559,423.185 332.726,424.352 331,425.5C 327.878,423.017 324.712,423.017 321.5,425.5C 320.808,424.975 320.308,424.308 320,423.5C 319.685,426.372 319.185,429.205 318.5,432C 319.429,433.077 320.096,434.244 320.5,435.5C 319.766,436.708 319.433,438.041 319.5,439.5C 316.529,441.443 314.529,444.109 313.5,447.5C 309.167,449.833 305.833,453.167 303.5,457.5C 297.188,459.682 290.855,461.682 284.5,463.5C 280.638,464.524 277.805,466.857 276,470.5C 274.582,479.981 274.416,489.314 275.5,498.5C 277.575,502.984 279.908,507.317 282.5,511.5C 272.5,511.5 262.5,511.5 252.5,511.5C 252.616,508.14 252.949,504.807 253.5,501.5C 254.5,501.5 255.5,501.5 256.5,501.5C 257.461,492.529 259.627,483.862 263,475.5C 266.232,472.252 268.398,468.919 269.5,465.5C 270.167,465.5 270.5,465.167 270.5,464.5C 280.571,460.81 289.238,455.143 296.5,447.5C 303.425,437.973 310.092,428.307 316.5,418.5C 318.25,417.341 319.25,415.674 319.5,413.5C 321.5,409.833 323.5,406.167 325.5,402.5C 327.245,400.967 328.245,398.967 328.5,396.5C 328.833,395.167 329.167,393.833 329.5,392.5C 330.167,392.5 330.5,392.167 330.5,391.5C 332.381,389.07 333.715,386.404 334.5,383.5 Z"/></g>
<g><path style="opacity:1" fill="#7b4742" d="M 396.5,373.5 C 396.282,377.872 395.282,382.039 393.5,386C 391.299,386.825 389.466,386.325 388,384.5C 386.301,385.406 384.467,385.739 382.5,385.5C 382.122,389.908 379.955,393.241 376,395.5C 375.807,398.423 374.974,401.256 373.5,404C 372.5,404.167 371.5,404.333 370.5,404.5C 367.47,403.16 364.47,401.826 361.5,400.5C 358.119,401.598 354.785,402.598 351.5,403.5C 350.687,406.989 348.687,409.656 345.5,411.5C 347.255,408.32 349.255,405.32 351.5,402.5C 355.805,400.177 359.805,397.511 363.5,394.5C 363.586,396.677 364.253,398.677 365.5,400.5C 369.884,401.807 372.551,400.14 373.5,395.5C 378.184,392.786 380.851,388.786 381.5,383.5C 381.418,381.748 382.251,380.748 384,380.5C 386.267,382.258 388.767,382.758 391.5,382C 393.585,379.318 395.252,376.484 396.5,373.5 Z"/></g>
<g><path style="opacity:1" fill="#534636" d="M 328.5,396.5 C 328.245,398.967 327.245,400.967 325.5,402.5C 325.755,400.033 326.755,398.033 328.5,396.5 Z"/></g>
<g><path style="opacity:1" fill="#ae8767" d="M 329.5,392.5 C 329.167,393.833 328.833,395.167 328.5,396.5C 326.755,398.033 325.755,400.033 325.5,402.5C 323.5,406.167 321.5,409.833 319.5,413.5C 317.592,414.486 316.592,416.152 316.5,418.5C 310.092,428.307 303.425,437.973 296.5,447.5C 296.201,445.396 296.534,443.396 297.5,441.5C 298.72,441.113 299.387,440.28 299.5,439C 298.678,436.566 298.344,434.066 298.5,431.5C 300.124,431.36 301.29,432.027 302,433.5C 304.303,430.206 305.803,426.539 306.5,422.5C 309.16,419.172 311.827,415.839 314.5,412.5C 314.5,411.833 314.5,411.167 314.5,410.5C 316.757,410.038 318.757,409.038 320.5,407.5C 323.471,403.224 325.637,398.558 327,393.5C 327.671,392.748 328.504,392.414 329.5,392.5 Z"/></g>
<g><path style="opacity:1" fill="#4d3c2c" d="M 319.5,413.5 C 319.25,415.674 318.25,417.341 316.5,418.5C 316.592,416.152 317.592,414.486 319.5,413.5 Z"/></g>
<g><path style="opacity:1" fill="#734d48" d="M 169.5,412.5 C 171.694,414.221 172.861,416.555 173,419.5C 173.776,439.688 173.276,459.688 171.5,479.5C 171.417,464.824 171.75,450.158 172.5,435.5C 172.855,427.627 171.855,419.96 169.5,412.5 Z"/></g>
<g><path style="opacity:1" fill="#5f3736" d="M 345.5,411.5 C 344.268,416.337 342.101,420.67 339,424.5C 331.731,428.693 325.231,433.693 319.5,439.5C 319.433,438.041 319.766,436.708 320.5,435.5C 322.724,433.21 324.724,430.71 326.5,428C 328.833,427.667 331.167,427.333 333.5,427C 338.194,422.168 342.194,417.001 345.5,411.5 Z"/></g>
<g><path style="opacity:1" fill="#b78d62" d="M 223.5,453.5 C 230.805,458.485 238.805,461.819 247.5,463.5C 248.907,466.065 251.074,467.731 254,468.5C 255.656,477.489 255.822,486.489 254.5,495.5C 253.85,497.435 253.517,499.435 253.5,501.5C 250.976,504.239 249.976,507.572 250.5,511.5C 249.833,511.5 249.167,511.5 248.5,511.5C 248.579,510.07 248.246,508.736 247.5,507.5C 249.026,504.915 250.36,502.248 251.5,499.5C 251.167,498.833 250.833,498.167 250.5,497.5C 247.959,500.308 246.626,503.641 246.5,507.5C 245.178,507.67 244.011,507.337 243,506.5C 243.257,503.624 242.257,500.957 240,498.5C 239.517,499.448 239.351,500.448 239.5,501.5C 231.204,501.195 223.037,501.861 215,503.5C 212.599,502.398 210.099,502.231 207.5,503C 209.167,503.333 210.833,503.667 212.5,504C 211.333,504.167 210.167,504.333 209,504.5C 204.565,504.374 200.065,504.208 195.5,504C 190.649,497.209 186.316,490.042 182.5,482.5C 183.624,476.552 183.79,470.552 183,464.5C 182.329,463.748 181.496,463.414 180.5,463.5C 180.795,450.784 180.462,438.117 179.5,425.5C 179.5,423.5 179.5,421.5 179.5,419.5C 180.552,419.351 181.552,419.517 182.5,420C 194.539,433.211 208.206,444.377 223.5,453.5 Z"/></g>
<g><path style="opacity:1" fill="#8a613f" d="M 181.5,415.5 C 193.414,430.092 207.414,442.092 223.5,451.5C 223.5,452.167 223.5,452.833 223.5,453.5C 208.206,444.377 194.539,433.211 182.5,420C 181.552,419.517 180.552,419.351 179.5,419.5C 179.5,421.5 179.5,423.5 179.5,425.5C 179.167,425.5 178.833,425.5 178.5,425.5C 178.5,422.833 178.5,420.167 178.5,417.5C 180.179,417.715 181.179,417.048 181.5,415.5 Z"/></g>
<g><path style="opacity:1" fill="#bd926b" d="M 314.5,412.5 C 311.827,415.839 309.16,419.172 306.5,422.5C 305.803,426.539 304.303,430.206 302,433.5C 301.29,432.027 300.124,431.36 298.5,431.5C 298.344,434.066 298.678,436.566 299.5,439C 299.387,440.28 298.72,441.113 297.5,441.5C 296.534,443.396 296.201,445.396 296.5,447.5C 289.238,455.143 280.571,460.81 270.5,464.5C 263.375,464.716 256.375,463.883 249.5,462C 246.499,461.262 243.832,460.096 241.5,458.5C 246.121,459.404 250.787,460.404 255.5,461.5C 255.5,460.5 255.5,459.5 255.5,458.5C 260.846,457.906 266.18,457.239 271.5,456.5C 271.966,454.799 271.966,453.299 271.5,452C 276.269,452.917 276.603,451.584 272.5,448C 274.81,447.503 277.143,447.337 279.5,447.5C 279.612,443.046 281.945,440.379 286.5,439.5C 287.634,436.833 288.634,434.167 289.5,431.5C 290.833,431.5 292.167,431.5 293.5,431.5C 293.281,432.675 293.614,433.675 294.5,434.5C 297.039,433.145 297.039,431.645 294.5,430C 294.862,428.775 295.362,427.609 296,426.5C 297.016,425.366 297.683,425.699 298,427.5C 298.833,426 300,424.833 301.5,424C 300.833,423.667 300.167,423.333 299.5,423C 301.85,420.992 304.017,419.492 306,418.5C 307.283,415.559 308.95,412.893 311,410.5C 312.113,411.305 313.279,411.972 314.5,412.5 Z"/></g>
<g><path style="opacity:1" fill="#4c302d" d="M 313.5,447.5 C 310.5,451.167 307.167,454.5 303.5,457.5C 305.833,453.167 309.167,449.833 313.5,447.5 Z"/></g>
<g><path style="opacity:1" fill="#604b36" d="M 223.5,451.5 C 229.243,454.634 235.243,456.967 241.5,458.5C 243.832,460.096 246.499,461.262 249.5,462C 256.375,463.883 263.375,464.716 270.5,464.5C 270.5,465.167 270.167,465.5 269.5,465.5C 267.83,465.751 266.33,466.418 265,467.5C 262.365,473.289 259.865,478.955 257.5,484.5C 258.371,479.228 259.371,473.895 260.5,468.5C 260.182,467.353 259.516,466.519 258.5,466C 254.93,464.69 251.263,463.857 247.5,463.5C 238.805,461.819 230.805,458.485 223.5,453.5C 223.5,452.833 223.5,452.167 223.5,451.5 Z"/></g>
<g><path style="opacity:1" fill="#946e4d" d="M 247.5,463.5 C 251.263,463.857 254.93,464.69 258.5,466C 259.516,466.519 260.182,467.353 260.5,468.5C 259.371,473.895 258.371,479.228 257.5,484.5C 257.118,488.446 256.118,492.112 254.5,495.5C 255.822,486.489 255.656,477.489 254,468.5C 251.074,467.731 248.907,466.065 247.5,463.5 Z"/></g>
<g><path style="opacity:1" fill="#332b23" d="M 269.5,465.5 C 268.398,468.919 266.232,472.252 263,475.5C 259.627,483.862 257.461,492.529 256.5,501.5C 255.5,501.5 254.5,501.5 253.5,501.5C 253.517,499.435 253.85,497.435 254.5,495.5C 256.118,492.112 257.118,488.446 257.5,484.5C 259.865,478.955 262.365,473.289 265,467.5C 266.33,466.418 267.83,465.751 269.5,465.5 Z"/></g>
<g><path style="opacity:1" fill="#6d533f" d="M 178.5,425.5 C 178.833,425.5 179.167,425.5 179.5,425.5C 180.462,438.117 180.795,450.784 180.5,463.5C 180.5,479.509 180.834,495.509 181.5,511.5C 180.833,511.5 180.167,511.5 179.5,511.5C 178.901,500.844 178.567,490.177 178.5,479.5C 178.5,461.5 178.5,443.5 178.5,425.5 Z"/></g>
<g><path style="opacity:1" fill="#4c362f" d="M 284.5,463.5 C 282.282,465.208 280.116,467.208 278,469.5C 276.129,479.069 275.295,488.736 275.5,498.5C 274.416,489.314 274.582,479.981 276,470.5C 277.805,466.857 280.638,464.524 284.5,463.5 Z"/></g>
<g><path style="opacity:1" fill="#44362a" d="M 178.5,479.5 C 178.567,490.177 178.901,500.844 179.5,511.5C 179.167,511.5 178.833,511.5 178.5,511.5C 177.5,500.67 177.5,490.003 178.5,479.5 Z"/></g>
<g><path style="opacity:1" fill="#b68963" d="M 180.5,463.5 C 181.496,463.414 182.329,463.748 183,464.5C 183.79,470.552 183.624,476.552 182.5,482.5C 186.316,490.042 190.649,497.209 195.5,504C 200.065,504.208 204.565,504.374 209,504.5C 210.167,504.333 211.333,504.167 212.5,504C 210.833,503.667 209.167,503.333 207.5,503C 210.099,502.231 212.599,502.398 215,503.5C 223.037,501.861 231.204,501.195 239.5,501.5C 239.351,500.448 239.517,499.448 240,498.5C 242.257,500.957 243.257,503.624 243,506.5C 244.011,507.337 245.178,507.67 246.5,507.5C 246.626,503.641 247.959,500.308 250.5,497.5C 250.833,498.167 251.167,498.833 251.5,499.5C 250.36,502.248 249.026,504.915 247.5,507.5C 248.246,508.736 248.579,510.07 248.5,511.5C 226.167,511.5 203.833,511.5 181.5,511.5C 180.834,495.509 180.5,479.509 180.5,463.5 Z"/></g>
<g><path style="opacity:1" fill="#684c3b" d="M 253.5,501.5 C 252.949,504.807 252.616,508.14 252.5,511.5C 251.833,511.5 251.167,511.5 250.5,511.5C 249.976,507.572 250.976,504.239 253.5,501.5 Z"/></g>
</svg>
