<?xml version="1.0" encoding="UTF-8"?>
<!DOCTYPE svg PUBLIC "-//W3C//DTD SVG 1.1//EN" "http://www.w3.org/Graphics/SVG/1.1/DTD/svg11.dtd">
<svg xmlns="http://www.w3.org/2000/svg" version="1.1" width="512px" height="512px" style="shape-rendering:geometricPrecision; text-rendering:geometricPrecision; image-rendering:optimizeQuality; fill-rule:evenodd; clip-rule:evenodd" xmlns:xlink="http://www.w3.org/1999/xlink">
<g><path style="opacity:1" fill="#658697" d="M -0.5,-0.5 C 170.167,-0.5 340.833,-0.5 511.5,-0.5C 511.5,170.167 511.5,340.833 511.5,511.5C 457.833,511.5 404.167,511.5 350.5,511.5C 348.672,510.717 347.339,509.384 346.5,507.5C 344.913,503.977 344.413,500.31 345,496.5C 345.274,499.715 346.607,502.381 349,504.5C 350,504.167 351,503.833 352,503.5C 352.691,505.891 353.691,505.891 355,503.5C 355.617,504.449 355.451,505.282 354.5,506C 355.025,506.692 355.692,507.192 356.5,507.5C 356.669,506.603 357.002,505.603 357.5,504.5C 360.308,507.041 363.641,508.374 367.5,508.5C 367.5,507.5 367.5,506.5 367.5,505.5C 375.5,505.5 383.5,505.5 391.5,505.5C 391.351,504.448 391.517,503.448 392,502.5C 394.303,500.607 396.47,498.607 398.5,496.5C 397.675,495.614 396.675,495.281 395.5,495.5C 395.5,490.167 395.5,484.833 395.5,479.5C 396.833,479.5 398.167,479.5 399.5,479.5C 399.5,476.833 399.5,474.167 399.5,471.5C 394.167,471.5 388.833,471.5 383.5,471.5C 383.5,473.167 383.5,474.833 383.5,476.5C 381.335,476.884 379.668,476.217 378.5,474.5C 380.364,471.668 381.697,468.668 382.5,465.5C 384.103,465.688 385.437,465.188 386.5,464C 386.167,463.667 385.833,463.333 385.5,463C 388.167,462 388.167,461 385.5,460C 387.55,459.584 388.884,458.417 389.5,456.5C 393.183,454.659 396.516,452.326 399.5,449.5C 403.086,447.42 406.253,444.754 409,441.5C 413.294,435.27 418.294,429.604 424,424.5C 433.395,412.342 439.729,398.675 443,383.5C 445.045,372.898 446.545,362.231 447.5,351.5C 447.5,344.833 447.5,338.167 447.5,331.5C 447.346,311.871 443.346,293.204 435.5,275.5C 431.268,262.352 426.435,249.352 421,236.5C 420.623,235.058 419.79,234.058 418.5,233.5C 411.401,212.776 401.734,193.443 389.5,175.5C 379.444,158.06 367.444,142.06 353.5,127.5C 343.808,115.65 332.808,105.15 320.5,96C 298.896,78.6219 274.23,68.1219 246.5,64.5C 240.082,65.954 233.748,67.2873 227.5,68.5C 219.058,69.2667 211.724,72.4333 205.5,78C 195.282,82.941 185.282,88.1077 175.5,93.5C 174.078,93.7086 172.745,94.2086 171.5,95C 168.066,99.1896 164.4,103.19 160.5,107C 149.19,115.646 138.524,124.979 128.5,135C 120.959,143.037 113.626,151.204 106.5,159.5C 103.599,162.312 100.932,165.312 98.5,168.5C 96.9557,168.703 95.6223,169.37 94.5,170.5C 94.1667,170.167 93.8333,169.833 93.5,169.5C 94.2634,168.281 95.2634,167.281 96.5,166.5C 95.6744,165.549 95.5078,164.549 96,163.5C 96.3333,163.833 96.6667,164.167 97,164.5C 97.3333,163.5 97.6667,162.5 98,161.5C 98.3333,161.833 98.6667,162.167 99,162.5C 99.3742,161.584 99.8742,160.75 100.5,160C 99.175,160.148 98.0084,159.982 97,159.5C 96.1932,163.449 95.6932,163.449 95.5,159.5C 93.5,159.5 91.5,159.5 89.5,159.5C 89.6567,160.873 89.49,162.207 89,163.5C 83.9819,166.119 80.8152,170.119 79.5,175.5C 77.5,175.5 75.5,175.5 73.5,175.5C 72.9208,179.848 70.5875,182.681 66.5,184C 64.3069,186.025 63.3069,188.525 63.5,191.5C 66.5,191.5 69.5,191.5 72.5,191.5C 71.697,196.476 68.8636,199.809 64,201.5C 63.8313,208.856 63.3313,216.189 62.5,223.5C 60.3448,223.162 58.0115,223.162 55.5,223.5C 55.5,234.167 55.5,244.833 55.5,255.5C 54.1667,255.5 52.8333,255.5 51.5,255.5C 51.6641,258.187 51.4974,260.854 51,263.5C 50.3109,264.357 49.4776,265.023 48.5,265.5C 47.6735,269.459 47.1735,273.459 47,277.5C 44.7137,280.365 43.8803,283.698 44.5,287.5C 43.5,287.5 42.5,287.5 41.5,287.5C 40.0347,301.564 39.368,315.731 39.5,330C 39.5191,339.366 39.8525,348.699 40.5,358C 39.9977,361.197 38.9977,364.197 37.5,367C 38.448,367.483 39.448,367.649 40.5,367.5C 40.7991,369.973 41.7991,372.14 43.5,374C 42.3109,376.798 42.6442,379.464 44.5,382C 43.5656,387.785 43.2323,393.618 43.5,399.5C 44.5,399.5 45.5,399.5 46.5,399.5C 47.3662,415.483 47.6995,431.483 47.5,447.5C 48.5,447.5 49.5,447.5 50.5,447.5C 49.9513,454.786 50.9513,461.786 53.5,468.5C 53.5,477.5 53.5,486.5 53.5,495.5C 54.552,495.351 55.552,495.517 56.5,496C 54.5,498.333 52.5,500.667 50.5,503C 54.3264,504.733 58.3264,505.899 62.5,506.5C 68.1723,504.911 73.6723,502.911 79,500.5C 79.3333,502.167 79.6667,503.833 80,505.5C 81.2217,501.985 82.7217,498.652 84.5,495.5C 84.5,500.833 84.5,506.167 84.5,511.5C 56.1667,511.5 27.8333,511.5 -0.5,511.5C -0.5,340.833 -0.5,170.167 -0.5,-0.5 Z"/></g>
<g><path style="opacity:1" fill="#151515" d="M 295.5,84.5 C 299.342,87.081 303.342,89.581 307.5,92C 306.207,92.49 304.873,92.6567 303.5,92.5C 303.5,93.5 303.5,94.5 303.5,95.5C 305.288,95.2148 306.955,95.5481 308.5,96.5C 309.791,98.9592 311.791,100.459 314.5,101C 315.622,103.124 317.122,104.957 319,106.5C 319.494,108.134 319.66,109.801 319.5,111.5C 320.833,111.5 322.167,111.5 323.5,111.5C 323.33,112.822 323.663,113.989 324.5,115C 326.18,115.034 327.68,115.201 329,115.5C 330.795,124.951 335.461,132.618 343,138.5C 345.333,143.5 347.667,148.5 350,153.5C 353.695,156.216 355.861,159.883 356.5,164.5C 358.673,167.072 360.84,169.739 363,172.5C 364.079,175.063 364.579,177.729 364.5,180.5C 365.5,180.5 366.5,180.5 367.5,180.5C 367.255,183.865 367.922,187.032 369.5,190C 368.115,191.597 367.449,193.43 367.5,195.5C 361.825,195.244 356.491,193.911 351.5,191.5C 351.5,190.167 351.5,188.833 351.5,187.5C 348.583,186.709 345.75,186.709 343,187.5C 341.294,186.692 340.461,185.359 340.5,183.5C 335.254,182.283 330.087,180.949 325,179.5C 323.167,179.667 321.333,179.833 319.5,180C 322.167,180.333 324.833,180.667 327.5,181C 324.333,181.167 321.167,181.333 318,181.5C 300.883,180.546 283.716,180.546 266.5,181.5C 262.966,180.941 259.466,179.941 256,178.5C 255.29,179.973 254.124,180.64 252.5,180.5C 252.5,179.5 252.5,178.5 252.5,177.5C 243.21,175.573 233.877,173.74 224.5,172C 210.141,171.368 195.975,171.534 182,172.5C 178.147,171.287 174.647,169.621 171.5,167.5C 171.426,165.589 170.426,164.422 168.5,164C 165.487,163.498 162.487,162.998 159.5,162.5C 158.066,159.302 157.566,155.968 158,152.5C 159.036,147.286 161.87,143.286 166.5,140.5C 170.095,133.324 173.095,125.99 175.5,118.5C 174.833,117.833 174.167,117.167 173.5,116.5C 174.592,115.169 175.926,114.336 177.5,114C 176.572,113.612 175.905,112.945 175.5,112C 177.662,109.672 179.995,107.506 182.5,105.5C 183.917,102.33 185.584,99.3297 187.5,96.5C 192.233,95.5912 196.067,93.2578 199,89.5C 203.047,87.9563 207.213,86.7896 211.5,86C 213.754,85.3763 215.421,84.043 216.5,82C 218.769,81.2419 220.936,81.4086 223,82.5C 227.809,79.1679 232.976,78.1679 238.5,79.5C 241.429,79.2067 244.263,78.5401 247,77.5C 251.523,79.82 256.023,79.9866 260.5,78C 258.754,77.5291 257.087,76.8624 255.5,76C 258.763,75.9355 261.763,75.1022 264.5,73.5C 265.478,73.9767 266.311,74.6433 267,75.5C 269.738,75.1997 272.571,74.6997 275.5,74C 276.167,74.3333 276.833,74.6667 277.5,75C 275.275,75.8759 273.275,77.0426 271.5,78.5C 273.353,79.7596 275.186,79.7596 277,78.5C 279.909,82.3105 283.576,83.3105 288,81.5C 290.41,82.7476 292.91,83.7476 295.5,84.5 Z"/></g>
<g><path style="opacity:1" fill="#0f1318" d="M 353.5,127.5 C 350.144,127.85 347.144,127.017 344.5,125C 345.956,124.577 346.456,123.744 346,122.5C 343.067,119.275 340.233,115.942 337.5,112.5C 334.634,111.111 331.967,110.111 329.5,109.5C 327.827,111.086 325.827,111.753 323.5,111.5C 322.167,111.5 320.833,111.5 319.5,111.5C 319.66,109.801 319.494,108.134 319,106.5C 317.122,104.957 315.622,103.124 314.5,101C 311.791,100.459 309.791,98.9592 308.5,96.5C 306.955,95.5481 305.288,95.2148 303.5,95.5C 303.5,94.5 303.5,93.5 303.5,92.5C 304.873,92.6567 306.207,92.49 307.5,92C 303.342,89.581 299.342,87.081 295.5,84.5C 294.181,81.1812 291.848,78.8479 288.5,77.5C 284.165,76.83 280.165,75.33 276.5,73C 271.877,72.0418 267.21,71.3751 262.5,71C 261.328,70.5814 260.328,69.9147 259.5,69C 255.033,68.7348 250.699,67.9015 246.5,66.5C 240.383,69.0182 234.05,69.6849 227.5,68.5C 233.748,67.2873 240.082,65.954 246.5,64.5C 274.23,68.1219 298.896,78.6219 320.5,96C 332.808,105.15 343.808,115.65 353.5,127.5 Z"/></g>
<g><path style="opacity:1" fill="#0f0f10" d="M 353.5,127.5 C 367.444,142.06 379.444,158.06 389.5,175.5C 389.5,177.5 389.5,179.5 389.5,181.5C 394.672,196.686 401.005,211.353 408.5,225.5C 408.291,226.086 407.957,226.586 407.5,227C 412.957,229.859 414.623,233.859 412.5,239C 414.291,239.415 415.624,240.415 416.5,242C 416.597,244.585 416.264,247.251 415.5,250C 415.944,251.762 416.444,251.595 417,249.5C 418.02,250.891 418.853,252.391 419.5,254C 418.833,254.333 418.167,254.667 417.5,255C 418.12,257.473 418.786,259.973 419.5,262.5C 420.904,261.001 421.57,261.334 421.5,263.5C 419.951,265.902 419.284,268.568 419.5,271.5C 424.529,272.178 426.196,274.845 424.5,279.5C 421.737,279.256 419.571,277.923 418,275.5C 416.707,264.216 410.707,256.883 400,253.5C 398.751,255.992 397.584,255.825 396.5,253C 395.552,252.517 394.552,252.351 393.5,252.5C 393.937,249.193 393.27,246.193 391.5,243.5C 389.01,240.845 386.344,238.345 383.5,236C 381.721,236.979 380.055,236.646 378.5,235C 373.167,229.667 367.833,224.333 362.5,219C 361.552,218.517 360.552,218.351 359.5,218.5C 358.836,216.133 357.503,214.133 355.5,212.5C 347.652,207.811 339.486,203.811 331,200.5C 330.667,200.833 330.333,201.167 330,201.5C 329.5,200.333 328.667,199.5 327.5,199C 329.901,198.195 329.734,197.362 327,196.5C 326.667,196.833 326.333,197.167 326,197.5C 323.132,195.809 320.465,193.809 318,191.5C 317.5,191.833 317,192.167 316.5,192.5C 317.263,193.719 318.263,194.719 319.5,195.5C 318.007,196.141 317.007,197.141 316.5,198.5C 312.721,196.438 309.054,194.104 305.5,191.5C 293.894,189.706 282.561,188.039 271.5,186.5C 271.631,185.624 271.298,184.957 270.5,184.5C 268.205,183.568 265.871,182.735 263.5,182C 264.448,181.517 265.448,181.351 266.5,181.5C 283.716,180.546 300.883,180.546 318,181.5C 321.167,181.333 324.333,181.167 327.5,181C 324.833,180.667 322.167,180.333 319.5,180C 321.333,179.833 323.167,179.667 325,179.5C 330.087,180.949 335.254,182.283 340.5,183.5C 340.461,185.359 341.294,186.692 343,187.5C 345.75,186.709 348.583,186.709 351.5,187.5C 351.5,188.833 351.5,190.167 351.5,191.5C 356.491,193.911 361.825,195.244 367.5,195.5C 367.449,193.43 368.115,191.597 369.5,190C 367.922,187.032 367.255,183.865 367.5,180.5C 366.5,180.5 365.5,180.5 364.5,180.5C 364.579,177.729 364.079,175.063 363,172.5C 360.84,169.739 358.673,167.072 356.5,164.5C 355.861,159.883 353.695,156.216 350,153.5C 347.667,148.5 345.333,143.5 343,138.5C 335.461,132.618 330.795,124.951 329,115.5C 327.68,115.201 326.18,115.034 324.5,115C 323.663,113.989 323.33,112.822 323.5,111.5C 325.827,111.753 327.827,111.086 329.5,109.5C 331.967,110.111 334.634,111.111 337.5,112.5C 340.233,115.942 343.067,119.275 346,122.5C 346.456,123.744 345.956,124.577 344.5,125C 347.144,127.017 350.144,127.85 353.5,127.5 Z"/></g>
<g><path style="opacity:1" fill="#0a151c" d="M 175.5,93.5 C 175.103,97.5647 173.103,100.565 169.5,102.5C 167.433,105.714 164.433,107.714 160.5,108.5C 159.614,109.325 159.281,110.325 159.5,111.5C 158.448,111.351 157.448,111.517 156.5,112C 155.167,112.667 155.167,113.333 156.5,114C 152.93,115.781 150.263,118.448 148.5,122C 146.975,123.009 145.308,123.509 143.5,123.5C 141.692,125.881 140.192,128.548 139,131.5C 136.635,132.289 134.468,133.456 132.5,135C 127.968,140.399 123.301,145.566 118.5,150.5C 117.504,150.414 116.671,150.748 116,151.5C 115.64,153.421 114.806,155.088 113.5,156.5C 112.914,156.291 112.414,155.957 112,155.5C 110.838,157.838 109.004,159.172 106.5,159.5C 113.626,151.204 120.959,143.037 128.5,135C 138.524,124.979 149.19,115.646 160.5,107C 164.4,103.19 168.066,99.1896 171.5,95C 172.745,94.2086 174.078,93.7086 175.5,93.5 Z"/></g>
<g><path style="opacity:1" fill="#101113" d="M 295.5,84.5 C 292.91,83.7476 290.41,82.7476 288,81.5C 283.576,83.3105 279.909,82.3105 277,78.5C 275.186,79.7596 273.353,79.7596 271.5,78.5C 273.275,77.0426 275.275,75.8759 277.5,75C 276.833,74.6667 276.167,74.3333 275.5,74C 272.571,74.6997 269.738,75.1997 267,75.5C 266.311,74.6433 265.478,73.9767 264.5,73.5C 261.763,75.1022 258.763,75.9355 255.5,76C 257.087,76.8624 258.754,77.5291 260.5,78C 256.023,79.9866 251.523,79.82 247,77.5C 244.263,78.5401 241.429,79.2067 238.5,79.5C 232.976,78.1679 227.809,79.1679 223,82.5C 220.936,81.4086 218.769,81.2419 216.5,82C 215.421,84.043 213.754,85.3763 211.5,86C 207.213,86.7896 203.047,87.9563 199,89.5C 196.067,93.2578 192.233,95.5912 187.5,96.5C 185.584,99.3297 183.917,102.33 182.5,105.5C 179.995,107.506 177.662,109.672 175.5,112C 175.905,112.945 176.572,113.612 177.5,114C 175.926,114.336 174.592,115.169 173.5,116.5C 174.167,117.167 174.833,117.833 175.5,118.5C 173.095,125.99 170.095,133.324 166.5,140.5C 161.87,143.286 159.036,147.286 158,152.5C 157.566,155.968 158.066,159.302 159.5,162.5C 162.487,162.998 165.487,163.498 168.5,164C 170.426,164.422 171.426,165.589 171.5,167.5C 167.33,167.333 163.33,168 159.5,169.5C 159.785,171.288 159.452,172.955 158.5,174.5C 155.579,175.407 152.579,175.74 149.5,175.5C 149.822,177.722 149.155,179.556 147.5,181C 143.722,182.344 140.055,183.844 136.5,185.5C 135.652,187.409 135.318,189.409 135.5,191.5C 132.833,191.5 130.167,191.5 127.5,191.5C 127.5,196.833 127.5,202.167 127.5,207.5C 122.167,207.5 116.833,207.5 111.5,207.5C 111.5,206.5 111.5,205.5 111.5,204.5C 110.167,204.5 108.833,204.5 107.5,204.5C 108.709,198.006 110.376,191.673 112.5,185.5C 115.185,182.81 117.518,179.81 119.5,176.5C 121.647,174.263 123.98,172.263 126.5,170.5C 127.466,168.604 127.799,166.604 127.5,164.5C 130.005,164.02 132.338,163.02 134.5,161.5C 137.402,158.836 140.402,156.336 143.5,154C 138.72,154.108 134.386,153.275 130.5,151.5C 131.552,151.649 132.552,151.483 133.5,151C 135.155,148.347 137.155,146.014 139.5,144C 140.793,143.51 142.127,143.343 143.5,143.5C 143.694,140.67 144.361,138.004 145.5,135.5C 150.772,134.737 152.439,131.903 150.5,127C 152.725,126.439 154.725,125.439 156.5,124C 160.326,119.341 164.326,114.841 168.5,110.5C 168.167,109.833 167.833,109.167 167.5,108.5C 168.372,106.55 169.039,104.55 169.5,102.5C 173.103,100.565 175.103,97.5647 175.5,93.5C 185.282,88.1077 195.282,82.941 205.5,78C 211.724,72.4333 219.058,69.2667 227.5,68.5C 234.05,69.6849 240.383,69.0182 246.5,66.5C 250.699,67.9015 255.033,68.7348 259.5,69C 260.328,69.9147 261.328,70.5814 262.5,71C 267.21,71.3751 271.877,72.0418 276.5,73C 280.165,75.33 284.165,76.83 288.5,77.5C 291.848,78.8479 294.181,81.1812 295.5,84.5 Z"/></g>
<g><path style="opacity:1" fill="#171919" d="M 223.5,121.5 C 226.193,122.552 228.86,123.552 231.5,124.5C 231.281,125.675 231.614,126.675 232.5,127.5C 234.599,125.48 236.933,125.146 239.5,126.5C 237.833,127.167 236.167,127.833 234.5,128.5C 236.006,129.747 237.506,129.747 239,128.5C 241.456,130.321 244.289,130.988 247.5,130.5C 247.5,129.5 247.5,128.5 247.5,127.5C 250.167,127.5 252.833,127.5 255.5,127.5C 256.055,131.997 255.389,136.164 253.5,140C 254.755,142.46 256.755,143.627 259.5,143.5C 259.5,148.833 259.5,154.167 259.5,159.5C 260.978,159.238 262.311,159.571 263.5,160.5C 262.653,162.061 262.986,163.561 264.5,165C 262.173,166.815 259.673,166.982 257,165.5C 256.5,165.833 256,166.167 255.5,166.5C 264.592,168.518 264.592,169.685 255.5,170C 258.167,170.333 260.833,170.667 263.5,171C 254.643,171.237 245.81,171.737 237,172.5C 232.92,170.926 228.753,169.592 224.5,168.5C 223.554,168.987 222.554,169.32 221.5,169.5C 214.135,167.144 206.801,165.811 199.5,165.5C 199.167,161.833 197.167,159.833 193.5,159.5C 192.316,156.625 190.649,153.958 188.5,151.5C 187.129,145.11 187.296,138.776 189,132.5C 190.398,131.949 191.732,131.616 193,131.5C 193.49,130.207 193.657,128.873 193.5,127.5C 195.527,127.338 197.527,127.505 199.5,128C 198.798,131.113 199.965,133.613 203,135.5C 204.11,133.963 205.61,133.297 207.5,133.5C 207.5,132.5 207.5,131.5 207.5,130.5C 210.01,129.217 212.677,128.217 215.5,127.5C 215.351,126.448 215.517,125.448 216,124.5C 220.03,128.386 222.53,127.386 223.5,121.5 Z"/></g>
<g><path style="opacity:1" fill="#090c0e" d="M 169.5,102.5 C 169.039,104.55 168.372,106.55 167.5,108.5C 167.833,109.167 168.167,109.833 168.5,110.5C 164.326,114.841 160.326,119.341 156.5,124C 154.725,125.439 152.725,126.439 150.5,127C 152.439,131.903 150.772,134.737 145.5,135.5C 144.361,138.004 143.694,140.67 143.5,143.5C 142.127,143.343 140.793,143.51 139.5,144C 137.155,146.014 135.155,148.347 133.5,151C 132.552,151.483 131.552,151.649 130.5,151.5C 129.5,151.5 128.5,151.5 127.5,151.5C 126.5,155.833 123.833,158.5 119.5,159.5C 118.833,162.167 118.167,164.833 117.5,167.5C 114.041,169.084 111.041,171.417 108.5,174.5C 109.82,177.057 108.987,178.724 106,179.5C 104.264,183.707 102.931,188.041 102,192.5C 99.5935,197.004 96.7601,201.337 93.5,205.5C 94.565,207.853 94.3983,210.186 93,212.5C 92.5005,218.825 92.3338,225.158 92.5,231.5C 93.5,231.5 94.5,231.5 95.5,231.5C 95.5,234.833 95.5,238.167 95.5,241.5C 95.5,246.167 95.5,250.833 95.5,255.5C 94.1667,255.5 92.8333,255.5 91.5,255.5C 91.8269,263.612 91.1603,271.612 89.5,279.5C 88.5,279.5 87.5,279.5 86.5,279.5C 87.1828,285.034 85.8495,290.034 82.5,294.5C 82.8333,295.167 83.1667,295.833 83.5,296.5C 80.7195,303.955 78.7195,311.622 77.5,319.5C 76.5,319.5 75.5,319.5 74.5,319.5C 74.3336,310.494 74.5002,301.494 75,292.5C 75.4017,291.128 75.9017,289.795 76.5,288.5C 74.9223,287.702 73.2556,287.202 71.5,287C 72.2066,284.48 73.04,281.98 74,279.5C 75.1628,281.285 75.8295,283.285 76,285.5C 76.3333,284.833 76.6667,284.167 77,283.5C 77.2189,284.938 77.7189,286.271 78.5,287.5C 78.7223,276.028 79.7223,264.528 81.5,253C 79.971,246.938 80.6376,241.105 83.5,235.5C 83.3333,234.167 83.1667,232.833 83,231.5C 79.7441,233.087 77.5774,235.587 76.5,239C 75.9056,239.464 75.2389,239.631 74.5,239.5C 75.0991,236.037 76.0991,232.704 77.5,229.5C 79.2199,228.249 79.5532,226.749 78.5,225C 79.5634,223.812 80.8967,223.312 82.5,223.5C 82.5668,221.599 82.2335,219.766 81.5,218C 85.0061,212.602 86.6728,206.769 86.5,200.5C 89.5468,198.283 91.0468,195.283 91,191.5C 92.0084,191.018 93.175,190.852 94.5,191C 93.5419,189.853 93.8753,188.853 95.5,188C 92.9622,186.829 92.4622,185.329 94,183.5C 94.3333,184.167 94.6667,184.833 95,185.5C 97.8762,177.861 102.376,171.361 108.5,166C 107.269,164.817 107.269,163.651 108.5,162.5C 114.092,160.422 117.425,156.422 118.5,150.5C 123.301,145.566 127.968,140.399 132.5,135C 134.468,133.456 136.635,132.289 139,131.5C 140.192,128.548 141.692,125.881 143.5,123.5C 145.308,123.509 146.975,123.009 148.5,122C 150.263,118.448 152.93,115.781 156.5,114C 155.167,113.333 155.167,112.667 156.5,112C 157.448,111.517 158.448,111.351 159.5,111.5C 159.281,110.325 159.614,109.325 160.5,108.5C 164.433,107.714 167.433,105.714 169.5,102.5 Z"/></g>
<g><path style="opacity:1" fill="#0e0f0f" d="M 130.5,151.5 C 134.386,153.275 138.72,154.108 143.5,154C 140.402,156.336 137.402,158.836 134.5,161.5C 132.338,163.02 130.005,164.02 127.5,164.5C 127.799,166.604 127.466,168.604 126.5,170.5C 123.98,172.263 121.647,174.263 119.5,176.5C 117.518,179.81 115.185,182.81 112.5,185.5C 110.376,191.673 108.709,198.006 107.5,204.5C 108.833,204.5 110.167,204.5 111.5,204.5C 111.5,205.5 111.5,206.5 111.5,207.5C 116.833,207.5 122.167,207.5 127.5,207.5C 127.5,202.167 127.5,196.833 127.5,191.5C 130.167,191.5 132.833,191.5 135.5,191.5C 135.318,189.409 135.652,187.409 136.5,185.5C 140.055,183.844 143.722,182.344 147.5,181C 149.155,179.556 149.822,177.722 149.5,175.5C 152.579,175.74 155.579,175.407 158.5,174.5C 159.452,172.955 159.785,171.288 159.5,169.5C 163.33,168 167.33,167.333 171.5,167.5C 174.647,169.621 178.147,171.287 182,172.5C 195.975,171.534 210.141,171.368 224.5,172C 233.877,173.74 243.21,175.573 252.5,177.5C 252.5,178.5 252.5,179.5 252.5,180.5C 246.73,180.259 241.063,180.926 235.5,182.5C 230.969,182.246 226.636,181.246 222.5,179.5C 212.216,181.124 201.883,182.458 191.5,183.5C 191.5,182.5 191.5,181.5 191.5,180.5C 187.358,180.968 183.358,181.301 179.5,181.5C 178.833,181.833 178.167,182.167 177.5,182.5C 178.276,184.356 179.609,185.689 181.5,186.5C 179.604,187.466 177.604,187.799 175.5,187.5C 169.575,185.142 164.909,186.475 161.5,191.5C 159.922,190.934 158.588,189.934 157.5,188.5C 159.534,186.401 159.868,184.068 158.5,181.5C 156.063,182.803 153.896,184.47 152,186.5C 151.647,187.672 151.813,188.838 152.5,190C 151.978,190.95 151.311,191.784 150.5,192.5C 151.629,194.529 151.129,194.863 149,193.5C 143.349,202.991 138.183,212.658 133.5,222.5C 132.675,223.386 131.675,223.719 130.5,223.5C 129.217,226.01 128.217,228.677 127.5,231.5C 123.995,230.891 121.328,232.058 119.5,235C 108.833,235.667 108.833,236.333 119.5,237C 116.854,237.497 114.187,237.664 111.5,237.5C 111.5,240.167 111.5,242.833 111.5,245.5C 107.985,245.288 104.652,245.288 101.5,245.5C 99.736,243.722 97.736,242.389 95.5,241.5C 95.5,238.167 95.5,234.833 95.5,231.5C 94.5,231.5 93.5,231.5 92.5,231.5C 92.3338,225.158 92.5005,218.825 93,212.5C 94.3983,210.186 94.565,207.853 93.5,205.5C 96.7601,201.337 99.5935,197.004 102,192.5C 102.931,188.041 104.264,183.707 106,179.5C 108.987,178.724 109.82,177.057 108.5,174.5C 111.041,171.417 114.041,169.084 117.5,167.5C 118.167,164.833 118.833,162.167 119.5,159.5C 123.833,158.5 126.5,155.833 127.5,151.5C 128.5,151.5 129.5,151.5 130.5,151.5 Z"/></g>
<g><path style="opacity:1" fill="#618495" d="M 98.5,168.5 C 88.4154,185.635 81.082,203.968 76.5,223.5C 71.6082,237.062 67.9415,251.062 65.5,265.5C 64.7784,265.918 64.2784,266.584 64,267.5C 63.4971,272.19 62.8304,276.857 62,281.5C 61.6667,280.833 61.3333,280.167 61,279.5C 59.9326,280.191 58.7659,280.691 57.5,281C 58.5897,283.279 58.2563,285.446 56.5,287.5C 56.1667,287 55.8333,286.5 55.5,286C 56.3491,281.191 57.0158,276.357 57.5,271.5C 59.1238,271.36 60.2904,272.027 61,273.5C 61.6387,268.276 62.1387,263.276 62.5,258.5C 59.405,258.626 57.5717,260.293 57,263.5C 55.6647,266.224 55.498,268.89 56.5,271.5C 54.8333,271.5 53.1667,271.5 51.5,271.5C 50.8379,275.466 50.5045,279.466 50.5,283.5C 51.5,283.5 52.5,283.5 53.5,283.5C 52.7863,291.688 52.7863,299.855 53.5,308C 53.3097,311.428 52.643,314.761 51.5,318C 52.1348,323.798 52.4681,329.631 52.5,335.5C 52.4325,341.468 51.7658,347.301 50.5,353C 51.6094,355.047 52.2761,357.213 52.5,359.5C 51.5,359.5 50.5,359.5 49.5,359.5C 50.4278,362.13 51.4278,364.796 52.5,367.5C 53.4909,371.445 53.8242,375.445 53.5,379.5C 51.5,379.5 49.5,379.5 47.5,379.5C 47.5,380.833 47.5,382.167 47.5,383.5C 49.5,383.5 51.5,383.5 53.5,383.5C 53.5,385.167 53.5,386.833 53.5,388.5C 50.6399,413.531 50.9732,438.531 54.5,463.5C 57.0232,465.666 56.6898,467.333 53.5,468.5C 50.9513,461.786 49.9513,454.786 50.5,447.5C 49.5,447.5 48.5,447.5 47.5,447.5C 47.6995,431.483 47.3662,415.483 46.5,399.5C 45.5,399.5 44.5,399.5 43.5,399.5C 43.2323,393.618 43.5656,387.785 44.5,382C 42.6442,379.464 42.3109,376.798 43.5,374C 41.7991,372.14 40.7991,369.973 40.5,367.5C 39.448,367.649 38.448,367.483 37.5,367C 38.9977,364.197 39.9977,361.197 40.5,358C 39.8525,348.699 39.5191,339.366 39.5,330C 39.368,315.731 40.0347,301.564 41.5,287.5C 42.5,287.5 43.5,287.5 44.5,287.5C 43.8803,283.698 44.7137,280.365 47,277.5C 47.1735,273.459 47.6735,269.459 48.5,265.5C 49.4776,265.023 50.3109,264.357 51,263.5C 51.4974,260.854 51.6641,258.187 51.5,255.5C 52.8333,255.5 54.1667,255.5 55.5,255.5C 55.5,244.833 55.5,234.167 55.5,223.5C 58.0115,223.162 60.3448,223.162 62.5,223.5C 63.3313,216.189 63.8313,208.856 64,201.5C 68.8636,199.809 71.697,196.476 72.5,191.5C 69.5,191.5 66.5,191.5 63.5,191.5C 63.3069,188.525 64.3069,186.025 66.5,184C 70.5875,182.681 72.9208,179.848 73.5,175.5C 75.5,175.5 77.5,175.5 79.5,175.5C 80.8152,170.119 83.9819,166.119 89,163.5C 89.49,162.207 89.6567,160.873 89.5,159.5C 91.5,159.5 93.5,159.5 95.5,159.5C 95.6932,163.449 96.1932,163.449 97,159.5C 98.0084,159.982 99.175,160.148 100.5,160C 99.8742,160.75 99.3742,161.584 99,162.5C 98.6667,162.167 98.3333,161.833 98,161.5C 97.6667,162.5 97.3333,163.5 97,164.5C 96.6667,164.167 96.3333,163.833 96,163.5C 95.5078,164.549 95.6744,165.549 96.5,166.5C 95.2634,167.281 94.2634,168.281 93.5,169.5C 93.8333,169.833 94.1667,170.167 94.5,170.5C 95.6223,169.37 96.9557,168.703 98.5,168.5 Z"/></g>
<g><path style="opacity:1" fill="#110c09" d="M 266.5,181.5 C 265.448,181.351 264.448,181.517 263.5,182C 265.871,182.735 268.205,183.568 270.5,184.5C 271.298,184.957 271.631,185.624 271.5,186.5C 263.059,184.599 254.559,182.932 246,181.5C 243.118,181.765 243.118,182.765 246,184.5C 246.667,185.5 246.667,186.5 246,187.5C 243.435,188.47 241.268,189.804 239.5,191.5C 228.833,191.5 218.167,191.5 207.5,191.5C 197.01,190.44 186.344,189.774 175.5,189.5C 175.5,188.833 175.5,188.167 175.5,187.5C 177.604,187.799 179.604,187.466 181.5,186.5C 179.609,185.689 178.276,184.356 177.5,182.5C 178.167,182.167 178.833,181.833 179.5,181.5C 183.358,181.301 187.358,180.968 191.5,180.5C 191.5,181.5 191.5,182.5 191.5,183.5C 201.883,182.458 212.216,181.124 222.5,179.5C 226.636,181.246 230.969,182.246 235.5,182.5C 241.063,180.926 246.73,180.259 252.5,180.5C 254.124,180.64 255.29,179.973 256,178.5C 259.466,179.941 262.966,180.941 266.5,181.5 Z"/></g>
<g><path style="opacity:1" fill="#080809" d="M 161.5,191.5 C 164.073,193.132 164.739,195.298 163.5,198C 164.357,198.689 165.023,199.522 165.5,200.5C 164.943,203.36 164.609,206.193 164.5,209C 164.862,210.225 165.362,211.391 166,212.5C 168.567,214.305 171.401,215.638 174.5,216.5C 201.447,215.063 228.447,214.396 255.5,214.5C 279.02,214.654 302.353,214.987 325.5,215.5C 329.557,212.445 330.224,208.779 327.5,204.5C 325.684,203.185 324.017,201.685 322.5,200C 321.207,199.51 319.873,199.343 318.5,199.5C 317.508,199.672 316.842,199.338 316.5,198.5C 317.007,197.141 318.007,196.141 319.5,195.5C 318.263,194.719 317.263,193.719 316.5,192.5C 317,192.167 317.5,191.833 318,191.5C 320.465,193.809 323.132,195.809 326,197.5C 326.333,197.167 326.667,196.833 327,196.5C 329.734,197.362 329.901,198.195 327.5,199C 328.667,199.5 329.5,200.333 330,201.5C 330.333,201.167 330.667,200.833 331,200.5C 339.486,203.811 347.652,207.811 355.5,212.5C 357.503,214.133 358.836,216.133 359.5,218.5C 360.552,218.351 361.552,218.517 362.5,219C 367.833,224.333 373.167,229.667 378.5,235C 380.055,236.646 381.721,236.979 383.5,236C 386.344,238.345 389.01,240.845 391.5,243.5C 393.27,246.193 393.937,249.193 393.5,252.5C 394.552,252.351 395.552,252.517 396.5,253C 397.584,255.825 398.751,255.992 400,253.5C 410.707,256.883 416.707,264.216 418,275.5C 419.571,277.923 421.737,279.256 424.5,279.5C 426.196,274.845 424.529,272.178 419.5,271.5C 419.284,268.568 419.951,265.902 421.5,263.5C 421.57,261.334 420.904,261.001 419.5,262.5C 418.786,259.973 418.12,257.473 417.5,255C 418.167,254.667 418.833,254.333 419.5,254C 418.853,252.391 418.02,250.891 417,249.5C 416.444,251.595 415.944,251.762 415.5,250C 416.264,247.251 416.597,244.585 416.5,242C 415.624,240.415 414.291,239.415 412.5,239C 414.623,233.859 412.957,229.859 407.5,227C 407.957,226.586 408.291,226.086 408.5,225.5C 401.005,211.353 394.672,196.686 389.5,181.5C 390.643,181.908 391.643,182.575 392.5,183.5C 394.126,187.384 396.126,191.051 398.5,194.5C 399.1,198.468 400.433,202.135 402.5,205.5C 401.391,207.214 402.058,207.881 404.5,207.5C 404.69,213.378 406.69,218.544 410.5,223C 409.167,224.84 409.334,225.34 411,224.5C 411.903,225.701 413.069,226.535 414.5,227C 414.892,229.853 416.226,232.02 418.5,233.5C 418.715,235.774 419.382,237.941 420.5,240C 420.561,241.711 419.894,243.044 418.5,244C 423.668,252.502 427.001,261.669 428.5,271.5C 429.833,271.5 431.167,271.5 432.5,271.5C 432.491,273.308 432.991,274.975 434,276.5C 434.383,275.944 434.883,275.611 435.5,275.5C 435.322,276.695 434.989,277.862 434.5,279C 435.921,282.596 437.588,286.096 439.5,289.5C 439.392,290.442 439.059,291.275 438.5,292C 440.668,301.002 442.002,310.169 442.5,319.5C 443.675,319.281 444.675,319.614 445.5,320.5C 444.425,323.438 444.259,326.438 445,329.5C 445.417,330.756 446.25,331.423 447.5,331.5C 447.5,338.167 447.5,344.833 447.5,351.5C 446.5,351.5 445.5,351.5 444.5,351.5C 444.38,354.48 443.713,357.313 442.5,360C 444.365,363.34 444.365,366.507 442.5,369.5C 443.396,371.801 443.562,374.134 443,376.5C 442.667,376.167 442.333,375.833 442,375.5C 441.459,383.564 438.959,390.898 434.5,397.5C 433.914,397.291 433.414,396.957 433,396.5C 432.667,394.5 432.333,392.5 432,390.5C 431.104,394.214 431.604,397.714 433.5,401C 432.025,404.35 431.358,407.85 431.5,411.5C 426.297,410.984 424.964,412.65 427.5,416.5C 424.322,418.184 422.655,420.851 422.5,424.5C 420.139,424.326 417.806,423.993 415.5,423.5C 413.043,427.732 410.543,432.065 408,436.5C 403.38,440.175 400.546,444.508 399.5,449.5C 394.986,448.501 391.486,450.168 389,454.5C 388.667,454.167 388.333,453.833 388,453.5C 383.412,454.731 379.245,456.897 375.5,460C 372.899,460.92 370.232,461.587 367.5,462C 368.623,463.044 369.956,463.71 371.5,464C 368.961,466.941 367.628,466.774 367.5,463.5C 361.274,463.799 355.274,463.299 349.5,462C 346.272,465.619 343.772,469.786 342,474.5C 341.768,476.507 342.102,477.84 343,478.5C 341.644,479.38 340.144,479.714 338.5,479.5C 338.5,480.5 338.5,481.5 338.5,482.5C 337.5,482.5 336.5,482.5 335.5,482.5C 336.313,487.461 335.147,491.794 332,495.5C 331.631,499.863 331.131,504.196 330.5,508.5C 327.927,508.148 325.594,508.648 323.5,510C 325.058,510.21 326.391,510.71 327.5,511.5C 289.833,511.5 252.167,511.5 214.5,511.5C 214.069,496.226 215.069,481.059 217.5,466C 217.635,462.958 216.969,460.125 215.5,457.5C 217.973,455.758 217.973,453.925 215.5,452C 227.933,450.862 240.433,450.362 253,450.5C 265.518,450.529 278.018,450.862 290.5,451.5C 293.11,450.535 295.444,449.202 297.5,447.5C 306.113,446.389 314.446,444.223 322.5,441C 324.696,439.301 326.696,437.467 328.5,435.5C 333.683,430.993 337.683,425.66 340.5,419.5C 341.5,419.5 342.5,419.5 343.5,419.5C 344.065,414.851 344.565,410.184 345,405.5C 345.333,406.833 345.667,408.167 346,409.5C 346.1,406.563 346.933,403.896 348.5,401.5C 346.36,399.86 345.36,397.693 345.5,395C 346.472,385.904 346.472,376.57 345.5,367C 345.897,361.797 346.564,356.63 347.5,351.5C 348.167,367.5 348.833,383.5 349.5,399.5C 350.167,393.167 350.833,386.833 351.5,380.5C 354.039,381.855 354.039,383.355 351.5,385C 351.611,386.722 352.111,386.888 353,385.5C 353.671,390.2 354.504,394.866 355.5,399.5C 358.09,394.651 360.424,389.651 362.5,384.5C 361.675,383.614 360.675,383.281 359.5,383.5C 359.334,373.494 359.5,363.494 360,353.5C 362.333,354.833 364.667,356.167 367,357.5C 367.495,355.527 367.662,353.527 367.5,351.5C 369.833,351.5 372.167,351.5 374.5,351.5C 375.303,356.476 378.136,359.809 383,361.5C 383.333,356.167 383.667,350.833 384,345.5C 388.18,343.987 391.013,341.154 392.5,337C 391.699,329.628 390.032,322.461 387.5,315.5C 386.836,311.524 386.503,307.524 386.5,303.5C 385.5,303.5 384.5,303.5 383.5,303.5C 383.666,296.159 383.5,288.826 383,281.5C 380.922,279.319 381.089,277.319 383.5,275.5C 382.833,274.5 382.167,273.5 381.5,272.5C 376.88,271.507 372.214,271.173 367.5,271.5C 367.662,273.527 367.495,275.527 367,277.5C 362.136,279.191 359.303,282.524 358.5,287.5C 356.167,287.5 353.833,287.5 351.5,287.5C 351.5,288.5 351.5,289.5 351.5,290.5C 349.61,290.297 348.11,290.963 347,292.5C 345.853,295.618 344.52,298.618 343,301.5C 342.831,313.007 342.331,324.341 341.5,335.5C 341.822,322.587 341.489,309.754 340.5,297C 328.158,296.492 315.825,295.825 303.5,295C 301.372,294.345 299.372,293.511 297.5,292.5C 294.579,291.806 291.579,290.973 288.5,290C 289.244,288.961 290.244,288.461 291.5,288.5C 293.283,287.886 294.616,286.72 295.5,285C 297.154,284.392 298.821,283.892 300.5,283.5C 313.615,285.971 326.948,287.471 340.5,288C 341.473,282.593 341.807,277.093 341.5,271.5C 341.667,260.828 341.5,250.161 341,239.5C 340.265,237.129 339.432,234.795 338.5,232.5C 329.466,231.454 320.466,231.788 311.5,233.5C 302.477,233.535 293.477,234.035 284.5,235C 281.129,236.03 277.962,237.53 275,239.5C 273.697,239.022 272.531,238.355 271.5,237.5C 265.315,235.942 259.315,236.609 253.5,239.5C 251.83,239.751 250.33,240.418 249,241.5C 248.667,240.833 248.333,240.167 248,239.5C 245.457,242.114 243.457,245.114 242,248.5C 241.798,246.744 241.298,245.078 240.5,243.5C 239.686,245.766 239.186,248.1 239,250.5C 237.883,249.051 237.216,247.384 237,245.5C 236.667,245.833 236.333,246.167 236,246.5C 236.102,242.044 235.268,238.044 233.5,234.5C 232.833,234.167 232.167,233.833 231.5,233.5C 224.345,232.345 217.012,232.178 209.5,233C 207.179,236.49 205.012,239.99 203,243.5C 198.43,247.511 196.264,246.178 196.5,239.5C 194.833,239.5 193.167,239.5 191.5,239.5C 191.5,238.5 191.5,237.5 191.5,236.5C 189.94,236.519 188.44,236.852 187,237.5C 185.526,235.084 183.36,234.084 180.5,234.5C 177.512,233.839 174.512,233.172 171.5,232.5C 170.075,232.623 168.742,232.957 167.5,233.5C 166.683,235.831 166.016,238.331 165.5,241C 165.95,242.285 166.617,243.452 167.5,244.5C 164.936,246.316 164.936,248.149 167.5,250C 166.584,250.374 165.75,250.874 165,251.5C 164.047,249.545 162.713,247.878 161,246.5C 159.956,244.285 159.29,241.952 159,239.5C 158.108,245.388 156.608,245.722 154.5,240.5C 151.68,239.764 149.68,238.098 148.5,235.5C 147.817,235.863 147.15,236.196 146.5,236.5C 144.947,234.615 142.947,233.615 140.5,233.5C 140.5,235.5 140.5,237.5 140.5,239.5C 139.778,239.918 139.278,240.584 139,241.5C 137.203,240.001 135.369,238.501 133.5,237C 132.5,236.333 131.5,236.333 130.5,237C 128.387,239.955 126.72,243.122 125.5,246.5C 126.025,247.192 126.692,247.692 127.5,248C 125.667,248.5 124.5,249.667 124,251.5C 123.333,263.5 123.333,275.5 124,287.5C 126.101,281.093 127.101,274.426 127,267.5C 127.333,266.833 127.667,266.167 128,265.5C 129.122,267.42 129.956,269.42 130.5,271.5C 129.5,271.5 128.5,271.5 127.5,271.5C 127.462,280.79 127.795,290.123 128.5,299.5C 128.333,300.833 128.167,302.167 128,303.5C 123.952,308.438 123.452,313.771 126.5,319.5C 127.167,317.167 127.833,314.833 128.5,312.5C 133.465,316.723 134.465,321.723 131.5,327.5C 130.264,328.246 128.93,328.579 127.5,328.5C 127.5,330.833 127.5,333.167 127.5,335.5C 126.167,335.5 124.833,335.5 123.5,335.5C 120.844,343.648 117.844,351.648 114.5,359.5C 113.5,359.5 112.5,359.5 111.5,359.5C 110.772,365.078 110.772,370.578 111.5,376C 109.504,380.65 107.504,385.316 105.5,390C 108.03,401.716 110.197,413.55 112,425.5C 115.09,432.871 118.423,440.204 122,447.5C 122.499,452.823 122.666,458.156 122.5,463.5C 124.167,463.5 125.833,463.5 127.5,463.5C 127.5,467.5 127.5,471.5 127.5,475.5C 128.822,475.33 129.989,475.663 131,476.5C 131.022,480.439 132.189,483.939 134.5,487C 133.465,488.507 133.632,490.007 135,491.5C 135.333,496.5 135.667,501.5 136,506.5C 137.509,505.91 139.009,505.244 140.5,504.5C 139.84,501.235 140.674,498.235 143,495.5C 143.499,500.155 143.666,504.821 143.5,509.5C 139.37,509.466 135.37,508.799 131.5,507.5C 131.5,508.833 131.5,510.167 131.5,511.5C 118.833,511.5 106.167,511.5 93.5,511.5C 93.5394,510.417 93.8728,509.417 94.5,508.5C 93.4814,504.006 92.1481,499.673 90.5,495.5C 91.0056,492.609 92.0056,489.942 93.5,487.5C 87.5866,464.188 83.92,440.188 82.5,415.5C 80.7931,411.864 79.6264,411.864 79,415.5C 78.0875,407.52 76.5875,399.687 74.5,392C 76.3137,389.519 76.9804,386.685 76.5,383.5C 75.5,383.5 74.5,383.5 73.5,383.5C 73.8333,378.167 74.1667,372.833 74.5,367.5C 73.5,367.5 72.5,367.5 71.5,367.5C 70.9249,361.759 69.9249,355.759 68.5,349.5C 69.5526,344.867 69.7193,340.201 69,335.5C 68.6667,337.5 68.3333,339.5 68,341.5C 67.8333,337.833 67.6667,334.167 67.5,330.5C 69.5787,315.364 69.912,300.198 68.5,285C 68.6004,282.698 69.267,280.698 70.5,279C 69.9781,278.439 69.6448,277.772 69.5,277C 70.2037,273.872 70.7037,270.706 71,267.5C 71.49,268.793 71.6567,270.127 71.5,271.5C 73.1667,271.5 74.8333,271.5 76.5,271.5C 76.9942,263.441 77.9942,255.441 79.5,247.5C 79.1667,244.833 78.8333,242.167 78.5,239.5C 77.7696,241.341 77.1029,243.175 76.5,245C 77.2797,246.073 77.113,247.24 76,248.5C 74.6081,245.722 74.1081,242.722 74.5,239.5C 75.2389,239.631 75.9056,239.464 76.5,239C 77.5774,235.587 79.7441,233.087 83,231.5C 83.1667,232.833 83.3333,234.167 83.5,235.5C 80.6376,241.105 79.971,246.938 81.5,253C 79.7223,264.528 78.7223,276.028 78.5,287.5C 77.7189,286.271 77.2189,284.938 77,283.5C 76.6667,284.167 76.3333,284.833 76,285.5C 75.8295,283.285 75.1628,281.285 74,279.5C 73.04,281.98 72.2066,284.48 71.5,287C 73.2556,287.202 74.9223,287.702 76.5,288.5C 75.9017,289.795 75.4017,291.128 75,292.5C 74.5002,301.494 74.3336,310.494 74.5,319.5C 75.5,319.5 76.5,319.5 77.5,319.5C 78.7195,311.622 80.7195,303.955 83.5,296.5C 83.1667,295.833 82.8333,295.167 82.5,294.5C 85.8495,290.034 87.1828,285.034 86.5,279.5C 87.5,279.5 88.5,279.5 89.5,279.5C 91.1603,271.612 91.8269,263.612 91.5,255.5C 92.8333,255.5 94.1667,255.5 95.5,255.5C 95.5,250.833 95.5,246.167 95.5,241.5C 97.736,242.389 99.736,243.722 101.5,245.5C 104.652,245.288 107.985,245.288 111.5,245.5C 111.5,242.833 111.5,240.167 111.5,237.5C 114.187,237.664 116.854,237.497 119.5,237C 108.833,236.333 108.833,235.667 119.5,235C 121.328,232.058 123.995,230.891 127.5,231.5C 128.217,228.677 129.217,226.01 130.5,223.5C 131.675,223.719 132.675,223.386 133.5,222.5C 138.183,212.658 143.349,202.991 149,193.5C 151.129,194.863 151.629,194.529 150.5,192.5C 151.311,191.784 151.978,190.95 152.5,190C 151.813,188.838 151.647,187.672 152,186.5C 153.896,184.47 156.063,182.803 158.5,181.5C 159.868,184.068 159.534,186.401 157.5,188.5C 158.588,189.934 159.922,190.934 161.5,191.5 Z"/></g>
<g><path style="opacity:1" fill="#453227" d="M 175.5,189.5 C 186.344,189.774 197.01,190.44 207.5,191.5C 196.436,191.094 185.436,191.594 174.5,193C 172.235,194.758 170.568,196.925 169.5,199.5C 169.167,199.5 168.833,199.5 168.5,199.5C 168.336,196.813 168.503,194.146 169,191.5C 170.789,189.771 172.956,189.104 175.5,189.5 Z"/></g>
<g><path style="opacity:1" fill="#542b16" d="M 275.5,189.5 C 276.568,190.434 277.901,190.768 279.5,190.5C 279.608,192.783 280.441,194.783 282,196.5C 285.604,198.05 288.771,200.217 291.5,203C 288.754,204.75 285.754,205.75 282.5,206C 283.949,207.117 285.616,207.784 287.5,208C 275.242,208.329 263.075,209.162 251,210.5C 247.879,208.567 244.546,208.567 241,210.5C 236.539,210.115 232.372,209.115 228.5,207.5C 233.506,207.434 233.506,206.434 228.5,204.5C 227.758,202.892 227.591,201.225 228,199.5C 225.821,200.84 225.321,200.507 226.5,198.5C 228.628,197.371 230.961,197.204 233.5,198C 235.094,199.8 236.761,201.633 238.5,203.5C 239.452,201.955 239.785,200.288 239.5,198.5C 241.199,198.66 242.866,198.494 244.5,198C 243.833,197.667 243.167,197.333 242.5,197C 245.424,196.317 247.758,194.817 249.5,192.5C 249.291,191.914 248.957,191.414 248.5,191C 250.433,190.749 252.266,190.249 254,189.5C 254.333,189.833 254.667,190.167 255,190.5C 255.483,189.552 255.649,188.552 255.5,187.5C 256.274,186.853 257.274,186.52 258.5,186.5C 261.336,187.831 264.003,188.831 266.5,189.5C 269.383,189.128 272.383,189.128 275.5,189.5 Z"/></g>
<g><path style="opacity:1" fill="#3e2619" d="M 271.5,186.5 C 282.561,188.039 293.894,189.706 305.5,191.5C 309.054,194.104 312.721,196.438 316.5,198.5C 316.842,199.338 317.508,199.672 318.5,199.5C 320.795,202.297 323.295,204.964 326,207.5C 326.49,208.793 326.657,210.127 326.5,211.5C 302.866,212.47 279.199,212.803 255.5,212.5C 255.5,212.167 255.5,211.833 255.5,211.5C 277.66,210.503 299.994,210.169 322.5,210.5C 322.657,209.127 322.49,207.793 322,206.5C 314.171,198.992 305.004,194.992 294.5,194.5C 294.5,193.5 294.5,192.5 294.5,191.5C 288.167,190.833 281.833,190.167 275.5,189.5C 272.383,189.128 269.383,189.128 266.5,189.5C 264.003,188.831 261.336,187.831 258.5,186.5C 257.274,186.52 256.274,186.853 255.5,187.5C 252.35,184.764 250.683,185.264 250.5,189C 247.166,191.075 243.499,191.909 239.5,191.5C 241.268,189.804 243.435,188.47 246,187.5C 246.667,186.5 246.667,185.5 246,184.5C 243.118,182.765 243.118,181.765 246,181.5C 254.559,182.932 263.059,184.599 271.5,186.5 Z"/></g>
<g><path style="opacity:1" fill="#4d2916" d="M 255.5,187.5 C 255.649,188.552 255.483,189.552 255,190.5C 254.667,190.167 254.333,189.833 254,189.5C 252.266,190.249 250.433,190.749 248.5,191C 248.957,191.414 249.291,191.914 249.5,192.5C 247.758,194.817 245.424,196.317 242.5,197C 243.167,197.333 243.833,197.667 244.5,198C 242.866,198.494 241.199,198.66 239.5,198.5C 239.785,200.288 239.452,201.955 238.5,203.5C 236.761,201.633 235.094,199.8 233.5,198C 230.961,197.204 228.628,197.371 226.5,198.5C 219.077,197.547 211.577,196.547 204,195.5C 199.099,195.678 194.265,196.345 189.5,197.5C 187.5,196.263 185.666,196.597 184,198.5C 182.441,200.217 181.608,202.217 181.5,204.5C 178.921,204.917 176.754,204.25 175,202.5C 171.302,208.954 172.802,210.954 179.5,208.5C 191.025,209.123 202.525,209.456 214,209.5C 218.91,209.142 223.743,208.476 228.5,207.5C 232.372,209.115 236.539,210.115 241,210.5C 244.546,208.567 247.879,208.567 251,210.5C 263.075,209.162 275.242,208.329 287.5,208C 285.616,207.784 283.949,207.117 282.5,206C 285.754,205.75 288.754,204.75 291.5,203C 288.771,200.217 285.604,198.05 282,196.5C 280.441,194.783 279.608,192.783 279.5,190.5C 277.901,190.768 276.568,190.434 275.5,189.5C 281.833,190.167 288.167,190.833 294.5,191.5C 294.5,192.5 294.5,193.5 294.5,194.5C 305.004,194.992 314.171,198.992 322,206.5C 322.49,207.793 322.657,209.127 322.5,210.5C 299.994,210.169 277.66,210.503 255.5,211.5C 227.817,210.622 200.15,210.289 172.5,210.5C 171.656,207.869 171.323,205.369 171.5,203C 174.659,199.376 178.659,197.042 183.5,196C 188.681,194.218 194.015,193.385 199.5,193.5C 210.097,194.288 221.097,194.788 232.5,195C 232.167,194.667 231.833,194.333 231.5,194C 234.057,192.881 236.557,192.715 239,193.5C 239.464,192.906 239.631,192.239 239.5,191.5C 243.499,191.909 247.166,191.075 250.5,189C 250.683,185.264 252.35,184.764 255.5,187.5 Z"/></g>
<g><path style="opacity:1" fill="#50270f" d="M 226.5,198.5 C 225.321,200.507 225.821,200.84 228,199.5C 227.591,201.225 227.758,202.892 228.5,204.5C 233.506,206.434 233.506,207.434 228.5,207.5C 223.743,208.476 218.91,209.142 214,209.5C 202.525,209.456 191.025,209.123 179.5,208.5C 172.802,210.954 171.302,208.954 175,202.5C 176.754,204.25 178.921,204.917 181.5,204.5C 181.608,202.217 182.441,200.217 184,198.5C 185.666,196.597 187.5,196.263 189.5,197.5C 194.265,196.345 199.099,195.678 204,195.5C 211.577,196.547 219.077,197.547 226.5,198.5 Z"/></g>
<g><path style="opacity:1" fill="#462919" d="M 207.5,191.5 C 218.167,191.5 228.833,191.5 239.5,191.5C 239.631,192.239 239.464,192.906 239,193.5C 236.557,192.715 234.057,192.881 231.5,194C 231.833,194.333 232.167,194.667 232.5,195C 221.097,194.788 210.097,194.288 199.5,193.5C 194.015,193.385 188.681,194.218 183.5,196C 178.659,197.042 174.659,199.376 171.5,203C 171.323,205.369 171.656,207.869 172.5,210.5C 200.15,210.289 227.817,210.622 255.5,211.5C 255.5,211.833 255.5,212.167 255.5,212.5C 227.498,212.667 199.498,212.5 171.5,212C 169.688,208.078 169.021,203.911 169.5,199.5C 170.568,196.925 172.235,194.758 174.5,193C 185.436,191.594 196.436,191.094 207.5,191.5 Z"/></g>
<g><path style="opacity:1" fill="#170f09" d="M 175.5,187.5 C 175.5,188.167 175.5,188.833 175.5,189.5C 172.956,189.104 170.789,189.771 169,191.5C 168.503,194.146 168.336,196.813 168.5,199.5C 168.334,203.514 168.501,207.514 169,211.5C 169.5,212 170,212.5 170.5,213C 199.003,213.83 227.336,213.664 255.5,212.5C 279.199,212.803 302.866,212.47 326.5,211.5C 326.657,210.127 326.49,208.793 326,207.5C 323.295,204.964 320.795,202.297 318.5,199.5C 319.873,199.343 321.207,199.51 322.5,200C 324.017,201.685 325.684,203.185 327.5,204.5C 330.224,208.779 329.557,212.445 325.5,215.5C 302.353,214.987 279.02,214.654 255.5,214.5C 228.447,214.396 201.447,215.063 174.5,216.5C 171.401,215.638 168.567,214.305 166,212.5C 165.362,211.391 164.862,210.225 164.5,209C 164.609,206.193 164.943,203.36 165.5,200.5C 165.023,199.522 164.357,198.689 163.5,198C 164.739,195.298 164.073,193.132 161.5,191.5C 164.909,186.475 169.575,185.142 175.5,187.5 Z"/></g>
<g><path style="opacity:1" fill="#2e1b11" d="M 168.5,199.5 C 168.833,199.5 169.167,199.5 169.5,199.5C 169.021,203.911 169.688,208.078 171.5,212C 199.498,212.5 227.498,212.667 255.5,212.5C 227.336,213.664 199.003,213.83 170.5,213C 170,212.5 169.5,212 169,211.5C 168.501,207.514 168.334,203.514 168.5,199.5 Z"/></g>
<g><path style="opacity:1" fill="#0c131a" d="M 389.5,175.5 C 401.734,193.443 411.401,212.776 418.5,233.5C 416.226,232.02 414.892,229.853 414.5,227C 413.069,226.535 411.903,225.701 411,224.5C 409.334,225.34 409.167,224.84 410.5,223C 406.69,218.544 404.69,213.378 404.5,207.5C 402.058,207.881 401.391,207.214 402.5,205.5C 400.433,202.135 399.1,198.468 398.5,194.5C 396.126,191.051 394.126,187.384 392.5,183.5C 391.643,182.575 390.643,181.908 389.5,181.5C 389.5,179.5 389.5,177.5 389.5,175.5 Z"/></g>
<g><path style="opacity:1" fill="#071115" d="M 118.5,150.5 C 117.425,156.422 114.092,160.422 108.5,162.5C 107.269,163.651 107.269,164.817 108.5,166C 102.376,171.361 97.8762,177.861 95,185.5C 94.6667,184.833 94.3333,184.167 94,183.5C 92.4622,185.329 92.9622,186.829 95.5,188C 93.8753,188.853 93.5419,189.853 94.5,191C 93.175,190.852 92.0084,191.018 91,191.5C 91.0468,195.283 89.5468,198.283 86.5,200.5C 86.6728,206.769 85.0061,212.602 81.5,218C 82.2335,219.766 82.5668,221.599 82.5,223.5C 80.8967,223.312 79.5634,223.812 78.5,225C 79.5532,226.749 79.2199,228.249 77.5,229.5C 76.5386,227.735 76.2053,225.735 76.5,223.5C 81.082,203.968 88.4154,185.635 98.5,168.5C 100.932,165.312 103.599,162.312 106.5,159.5C 109.004,159.172 110.838,157.838 112,155.5C 112.414,155.957 112.914,156.291 113.5,156.5C 114.806,155.088 115.64,153.421 116,151.5C 116.671,150.748 117.504,150.414 118.5,150.5 Z"/></g>
<g><path style="opacity:1" fill="#402e25" d="M 341.5,271.5 C 340.99,264.508 339.823,257.508 338,250.5C 337.255,249.01 336.088,248.01 334.5,247.5C 332.403,248.549 330.403,249.549 328.5,250.5C 327.833,251.167 327.167,251.833 326.5,252.5C 327.298,247.285 325.964,242.785 322.5,239C 319.779,238.398 317.113,238.565 314.5,239.5C 312.248,239.916 310.748,241.249 310,243.5C 306.907,240.262 303.073,238.929 298.5,239.5C 295.15,238.622 294.817,237.122 297.5,235C 302.351,234.826 307.018,234.326 311.5,233.5C 320.466,231.788 329.466,231.454 338.5,232.5C 339.432,234.795 340.265,237.129 341,239.5C 341.5,250.161 341.667,260.828 341.5,271.5 Z"/></g>
<g><path style="opacity:1" fill="#453c37" d="M 231.5,233.5 C 232.167,233.833 232.833,234.167 233.5,234.5C 233.5,234.833 233.5,235.167 233.5,235.5C 233.5,240.5 233.5,245.5 233.5,250.5C 232.874,248.374 231.541,246.707 229.5,245.5C 228.702,243.922 228.202,242.256 228,240.5C 227.667,242.833 227.333,245.167 227,247.5C 224.886,250.093 223.053,252.76 221.5,255.5C 222.597,250.865 224.264,246.532 226.5,242.5C 225.249,239.342 223.082,237.009 220,235.5C 218.274,235.946 216.774,236.779 215.5,238C 216.998,240.417 217.665,243.083 217.5,246C 217.494,248.033 217.161,249.866 216.5,251.5C 216.664,248.813 216.497,246.146 216,243.5C 214.086,240.702 213.086,237.702 213,234.5C 219.076,233.524 225.242,233.19 231.5,233.5 Z"/></g>
<g><path style="opacity:1" fill="#2e1d15" d="M 271.5,237.5 C 270.382,242.804 270.382,248.138 271.5,253.5C 271.5,254.167 271.5,254.833 271.5,255.5C 270.5,255.5 269.5,255.5 268.5,255.5C 268.666,250.156 268.499,244.823 268,239.5C 267.044,238.106 265.711,237.439 264,237.5C 261.202,238.599 258.369,239.599 255.5,240.5C 254.725,242.396 253.725,244.063 252.5,245.5C 252.517,243.435 252.85,241.435 253.5,239.5C 259.315,236.609 265.315,235.942 271.5,237.5 Z"/></g>
<g><path style="opacity:1" fill="#171416" d="M 231.5,233.5 C 225.242,233.19 219.076,233.524 213,234.5C 213.086,237.702 214.086,240.702 216,243.5C 216.497,246.146 216.664,248.813 216.5,251.5C 215.032,252.806 213.699,254.306 212.5,256C 207.347,258.754 202.347,261.587 197.5,264.5C 194.813,264.664 192.146,264.497 189.5,264C 187.302,260.977 184.969,258.144 182.5,255.5C 181.629,252.888 180.963,250.221 180.5,247.5C 180.943,243.06 180.943,238.726 180.5,234.5C 183.36,234.084 185.526,235.084 187,237.5C 188.44,236.852 189.94,236.519 191.5,236.5C 191.5,237.5 191.5,238.5 191.5,239.5C 193.167,239.5 194.833,239.5 196.5,239.5C 196.264,246.178 198.43,247.511 203,243.5C 205.012,239.99 207.179,236.49 209.5,233C 217.012,232.178 224.345,232.345 231.5,233.5 Z"/></g>
<g><path style="opacity:1" fill="#131012" d="M 311.5,233.5 C 307.018,234.326 302.351,234.826 297.5,235C 294.817,237.122 295.15,238.622 298.5,239.5C 299.082,251.316 299.749,262.983 300.5,274.5C 300.5,277.5 300.5,280.5 300.5,283.5C 298.821,283.892 297.154,284.392 295.5,285C 294.616,286.72 293.283,287.886 291.5,288.5C 296.88,281.039 296.713,273.705 291,266.5C 290.785,263.144 290.785,259.811 291,256.5C 290.667,256.167 290.333,255.833 290,255.5C 288.981,257.269 288.814,258.936 289.5,260.5C 288.726,261.711 287.893,261.711 287,260.5C 286.667,261.167 286.333,261.833 286,262.5C 284.742,260.236 283.575,257.902 282.5,255.5C 281.573,257.113 280.739,258.779 280,260.5C 278.383,259.149 277.216,257.482 276.5,255.5C 275.15,254.05 273.484,253.383 271.5,253.5C 270.382,248.138 270.382,242.804 271.5,237.5C 272.531,238.355 273.697,239.022 275,239.5C 277.962,237.53 281.129,236.03 284.5,235C 293.477,234.035 302.477,233.535 311.5,233.5 Z"/></g>
<g><path style="opacity:1" fill="#1a1515" d="M 326.5,252.5 C 322.365,256.806 318.365,261.306 314.5,266C 312.527,266.495 310.527,266.662 308.5,266.5C 308.535,259.017 309.368,251.683 311,244.5C 311.997,242.677 313.164,241.01 314.5,239.5C 317.113,238.565 319.779,238.398 322.5,239C 325.964,242.785 327.298,247.285 326.5,252.5 Z"/></g>
<g><path style="opacity:1" fill="#110907" d="M 167.5,233.5 C 170.853,243.224 172.52,253.224 172.5,263.5C 172.672,264.492 172.338,265.158 171.5,265.5C 168.552,271.591 166.052,277.924 164,284.5C 161.472,280.917 160.139,276.917 160,272.5C 159.51,273.793 159.343,275.127 159.5,276.5C 158.325,276.719 157.325,276.386 156.5,275.5C 155.862,271.557 154.195,268.223 151.5,265.5C 150.627,259.377 149.294,253.377 147.5,247.5C 146.886,243.865 146.552,240.198 146.5,236.5C 147.15,236.196 147.817,235.863 148.5,235.5C 149.68,238.098 151.68,239.764 154.5,240.5C 156.608,245.722 158.108,245.388 159,239.5C 159.29,241.952 159.956,244.285 161,246.5C 162.713,247.878 164.047,249.545 165,251.5C 165.75,250.874 166.584,250.374 167.5,250C 164.936,248.149 164.936,246.316 167.5,244.5C 166.617,243.452 165.95,242.285 165.5,241C 166.016,238.331 166.683,235.831 167.5,233.5 Z"/></g>
<g><path style="opacity:1" fill="#3c3735" d="M 180.5,234.5 C 180.943,238.726 180.943,243.06 180.5,247.5C 179.527,245.052 179.194,242.385 179.5,239.5C 178.167,239.5 176.833,239.5 175.5,239.5C 175.5,243.5 175.5,247.5 175.5,251.5C 173.979,255.36 172.979,259.36 172.5,263.5C 172.52,253.224 170.853,243.224 167.5,233.5C 168.742,232.957 170.075,232.623 171.5,232.5C 174.512,233.172 177.512,233.839 180.5,234.5 Z"/></g>
<g><path style="opacity:1" fill="#424346" d="M 180.5,247.5 C 180.963,250.221 181.629,252.888 182.5,255.5C 180.167,255.5 177.833,255.5 175.5,255.5C 175.5,254.167 175.5,252.833 175.5,251.5C 175.5,247.5 175.5,243.5 175.5,239.5C 176.833,239.5 178.167,239.5 179.5,239.5C 179.194,242.385 179.527,245.052 180.5,247.5 Z"/></g>
<g><path style="opacity:1" fill="#382d27" d="M 146.5,236.5 C 146.552,240.198 146.886,243.865 147.5,247.5C 146.883,247.611 146.383,247.944 146,248.5C 145.502,245.518 145.335,242.518 145.5,239.5C 144.5,239.5 143.5,239.5 142.5,239.5C 142.5,243.5 142.5,247.5 142.5,251.5C 141.383,247.705 140.717,243.705 140.5,239.5C 140.5,237.5 140.5,235.5 140.5,233.5C 142.947,233.615 144.947,234.615 146.5,236.5 Z"/></g>
<g><path style="opacity:1" fill="#4a4547" d="M 221.5,255.5 C 220.833,255.5 220.167,255.5 219.5,255.5C 216.775,256.713 214.441,258.546 212.5,261C 208.841,262.28 205.341,263.78 202,265.5C 200.644,264.62 199.144,264.286 197.5,264.5C 202.347,261.587 207.347,258.754 212.5,256C 213.699,254.306 215.032,252.806 216.5,251.5C 217.161,249.866 217.494,248.033 217.5,246C 217.665,243.083 216.998,240.417 215.5,238C 216.774,236.779 218.274,235.946 220,235.5C 223.082,237.009 225.249,239.342 226.5,242.5C 224.264,246.532 222.597,250.865 221.5,255.5 Z"/></g>
<g><path style="opacity:1" fill="#423632" d="M 298.5,239.5 C 303.073,238.929 306.907,240.262 310,243.5C 310.748,241.249 312.248,239.916 314.5,239.5C 313.164,241.01 311.997,242.677 311,244.5C 309.368,251.683 308.535,259.017 308.5,266.5C 307.679,263.359 307.179,260.025 307,256.5C 302.354,261.485 300.187,267.485 300.5,274.5C 299.749,262.983 299.082,251.316 298.5,239.5 Z"/></g>
<g><path style="opacity:1" fill="#4b4241" d="M 328.5,250.5 C 336.004,249.798 338.504,253.132 336,260.5C 332.135,266.021 326.968,268.021 320.5,266.5C 317.466,267.008 314.466,267.675 311.5,268.5C 309.962,268.547 308.962,267.88 308.5,266.5C 310.527,266.662 312.527,266.495 314.5,266C 318.365,261.306 322.365,256.806 326.5,252.5C 327.167,251.833 327.833,251.167 328.5,250.5 Z"/></g>
<g><path style="opacity:1" fill="#0d0805" d="M 140.5,239.5 C 140.717,243.705 141.383,247.705 142.5,251.5C 142.736,261.217 144.403,270.55 147.5,279.5C 148.155,298.265 148.821,316.931 149.5,335.5C 149.5,356.833 149.5,378.167 149.5,399.5C 149.5,436.833 149.5,474.167 149.5,511.5C 148.833,511.5 148.167,511.5 147.5,511.5C 147.5,506.167 147.5,500.833 147.5,495.5C 146.5,495.5 145.5,495.5 144.5,495.5C 144.247,493.173 144.914,491.173 146.5,489.5C 146.291,488.914 145.957,488.414 145.5,488C 147.049,477.283 147.715,466.45 147.5,455.5C 147.167,447.5 146.833,439.5 146.5,431.5C 145.749,438.846 144.916,446.18 144,453.5C 144.361,430.173 144.361,406.839 144,383.5C 143.832,391.521 143.332,399.521 142.5,407.5C 141.219,395.992 141.219,384.492 142.5,373C 142.216,367.84 140.716,367.34 138,371.5C 138.965,362.152 138.631,352.819 137,343.5C 136.311,340.592 135.145,337.925 133.5,335.5C 132.172,338.824 130.339,341.824 128,344.5C 127.502,341.518 127.335,338.518 127.5,335.5C 127.5,333.167 127.5,330.833 127.5,328.5C 128.93,328.579 130.264,328.246 131.5,327.5C 134.465,321.723 133.465,316.723 128.5,312.5C 127.833,314.833 127.167,317.167 126.5,319.5C 123.452,313.771 123.952,308.438 128,303.5C 128.167,302.167 128.333,300.833 128.5,299.5C 127.795,290.123 127.462,280.79 127.5,271.5C 128.5,271.5 129.5,271.5 130.5,271.5C 129.956,269.42 129.122,267.42 128,265.5C 127.667,266.167 127.333,266.833 127,267.5C 127.101,274.426 126.101,281.093 124,287.5C 123.333,275.5 123.333,263.5 124,251.5C 124.5,249.667 125.667,248.5 127.5,248C 126.692,247.692 126.025,247.192 125.5,246.5C 126.72,243.122 128.387,239.955 130.5,237C 131.5,236.333 132.5,236.333 133.5,237C 135.369,238.501 137.203,240.001 139,241.5C 139.278,240.584 139.778,239.918 140.5,239.5 Z"/></g>
<g><path style="opacity:1" fill="#170f0f" d="M 271.5,253.5 C 273.484,253.383 275.15,254.05 276.5,255.5C 277.216,257.482 278.383,259.149 280,260.5C 280.739,258.779 281.573,257.113 282.5,255.5C 283.575,257.902 284.742,260.236 286,262.5C 286.333,261.833 286.667,261.167 287,260.5C 287.893,261.711 288.726,261.711 289.5,260.5C 288.814,258.936 288.981,257.269 290,255.5C 290.333,255.833 290.667,256.167 291,256.5C 290.785,259.811 290.785,263.144 291,266.5C 296.713,273.705 296.88,281.039 291.5,288.5C 290.244,288.461 289.244,288.961 288.5,290C 291.579,290.973 294.579,291.806 297.5,292.5C 294.781,292.397 292.115,292.731 289.5,293.5C 287.971,293.471 286.804,292.804 286,291.5C 281.669,282.203 277.336,272.87 273,263.5C 271.921,260.937 271.421,258.271 271.5,255.5C 271.5,254.833 271.5,254.167 271.5,253.5 Z"/></g>
<g><path style="opacity:1" fill="#40281d" d="M 147.5,247.5 C 149.294,253.377 150.627,259.377 151.5,265.5C 152.645,269.416 153.478,273.416 154,277.5C 156.324,280.48 157.824,283.813 158.5,287.5C 154.216,284.83 151.882,280.83 151.5,275.5C 150.3,267.367 148.467,259.367 146,251.5C 145.774,254.095 145.274,256.595 144.5,259C 146.13,265.698 147.13,272.531 147.5,279.5C 144.403,270.55 142.736,261.217 142.5,251.5C 142.5,247.5 142.5,243.5 142.5,239.5C 143.5,239.5 144.5,239.5 145.5,239.5C 145.335,242.518 145.502,245.518 146,248.5C 146.383,247.944 146.883,247.611 147.5,247.5 Z"/></g>
<g><path style="opacity:1" fill="#482819" d="M 151.5,275.5 C 150.609,276.261 149.942,277.261 149.5,278.5C 149.628,297.439 149.628,316.439 149.5,335.5C 148.821,316.931 148.155,298.265 147.5,279.5C 147.13,272.531 146.13,265.698 144.5,259C 145.274,256.595 145.774,254.095 146,251.5C 148.467,259.367 150.3,267.367 151.5,275.5 Z"/></g>
<g><path style="opacity:1" fill="#563d35" d="M 233.5,250.5 C 233.526,260.889 232.859,271.223 231.5,281.5C 230.142,282.626 228.808,282.626 227.5,281.5C 227.12,279.979 226.954,278.313 227,276.5C 224.448,273.806 223.281,274.473 223.5,278.5C 221.073,278.477 218.74,277.977 216.5,277C 215.105,273.543 213.438,270.209 211.5,267C 215.612,264.073 218.279,260.24 219.5,255.5C 220.167,255.5 220.833,255.5 221.5,255.5C 223.053,252.76 224.886,250.093 227,247.5C 227.333,245.167 227.667,242.833 228,240.5C 228.202,242.256 228.702,243.922 229.5,245.5C 231.541,246.707 232.874,248.374 233.5,250.5 Z"/></g>
<g><path style="opacity:1" fill="#091118" d="M 418.5,233.5 C 419.79,234.058 420.623,235.058 421,236.5C 426.435,249.352 431.268,262.352 435.5,275.5C 434.883,275.611 434.383,275.944 434,276.5C 432.991,274.975 432.491,273.308 432.5,271.5C 431.167,271.5 429.833,271.5 428.5,271.5C 427.001,261.669 423.668,252.502 418.5,244C 419.894,243.044 420.561,241.711 420.5,240C 419.382,237.941 418.715,235.774 418.5,233.5 Z"/></g>
<g><path style="opacity:1" fill="#564743" d="M 175.5,251.5 C 175.5,252.833 175.5,254.167 175.5,255.5C 177.833,255.5 180.167,255.5 182.5,255.5C 184.969,258.144 187.302,260.977 189.5,264C 192.146,264.497 194.813,264.664 197.5,264.5C 199.144,264.286 200.644,264.62 202,265.5C 205.341,263.78 208.841,262.28 212.5,261C 214.441,258.546 216.775,256.713 219.5,255.5C 218.279,260.24 215.612,264.073 211.5,267C 213.438,270.209 215.105,273.543 216.5,277C 218.74,277.977 221.073,278.477 223.5,278.5C 223.281,274.473 224.448,273.806 227,276.5C 226.954,278.313 227.12,279.979 227.5,281.5C 228.808,282.626 230.142,282.626 231.5,281.5C 231.5,282.833 231.5,284.167 231.5,285.5C 210.616,282.58 189.616,281.247 168.5,281.5C 170.135,276.292 171.135,270.958 171.5,265.5C 172.338,265.158 172.672,264.492 172.5,263.5C 172.979,259.36 173.979,255.36 175.5,251.5 Z"/></g>
<g><path style="opacity:1" fill="#0c1a20" d="M 76.5,223.5 C 76.2053,225.735 76.5386,227.735 77.5,229.5C 76.0991,232.704 75.0991,236.037 74.5,239.5C 72.6495,240.866 72.3162,242.533 73.5,244.5C 69.4271,255.461 66.9271,266.794 66,278.5C 65.7996,280.32 64.9663,281.653 63.5,282.5C 63.9211,276.798 64.5878,271.131 65.5,265.5C 67.9415,251.062 71.6082,237.062 76.5,223.5 Z"/></g>
<g><path style="opacity:1" fill="#130807" d="M 233.5,235.5 C 233.5,235.167 233.5,234.833 233.5,234.5C 235.268,238.044 236.102,242.044 236,246.5C 236.333,246.167 236.667,245.833 237,245.5C 237.216,247.384 237.883,249.051 239,250.5C 239.186,248.1 239.686,245.766 240.5,243.5C 241.298,245.078 241.798,246.744 242,248.5C 243.457,245.114 245.457,242.114 248,239.5C 248.333,240.167 248.667,240.833 249,241.5C 250.33,240.418 251.83,239.751 253.5,239.5C 252.85,241.435 252.517,243.435 252.5,245.5C 251.128,254.303 249.462,262.969 247.5,271.5C 244.261,276.082 240.595,280.416 236.5,284.5C 235.335,268.267 234.335,251.934 233.5,235.5 Z"/></g>
<g><path style="opacity:1" fill="#090805" d="M 340.5,419.5 C 340.5,418.167 340.5,416.833 340.5,415.5C 341.498,389.005 341.831,362.339 341.5,335.5C 342.331,324.341 342.831,313.007 343,301.5C 344.52,298.618 345.853,295.618 347,292.5C 348.11,290.963 349.61,290.297 351.5,290.5C 351.5,289.5 351.5,288.5 351.5,287.5C 353.833,287.5 356.167,287.5 358.5,287.5C 359.303,282.524 362.136,279.191 367,277.5C 367.495,275.527 367.662,273.527 367.5,271.5C 372.214,271.173 376.88,271.507 381.5,272.5C 382.167,273.5 382.833,274.5 383.5,275.5C 381.089,277.319 380.922,279.319 383,281.5C 383.5,288.826 383.666,296.159 383.5,303.5C 384.5,303.5 385.5,303.5 386.5,303.5C 386.503,307.524 386.836,311.524 387.5,315.5C 390.032,322.461 391.699,329.628 392.5,337C 391.013,341.154 388.18,343.987 384,345.5C 383.667,350.833 383.333,356.167 383,361.5C 378.136,359.809 375.303,356.476 374.5,351.5C 372.167,351.5 369.833,351.5 367.5,351.5C 367.662,353.527 367.495,355.527 367,357.5C 364.667,356.167 362.333,354.833 360,353.5C 359.5,363.494 359.334,373.494 359.5,383.5C 360.675,383.281 361.675,383.614 362.5,384.5C 360.424,389.651 358.09,394.651 355.5,399.5C 354.504,394.866 353.671,390.2 353,385.5C 352.111,386.888 351.611,386.722 351.5,385C 354.039,383.355 354.039,381.855 351.5,380.5C 350.833,386.833 350.167,393.167 349.5,399.5C 348.833,383.5 348.167,367.5 347.5,351.5C 346.564,356.63 345.897,361.797 345.5,367C 346.472,376.57 346.472,385.904 345.5,395C 345.36,397.693 346.36,399.86 348.5,401.5C 346.933,403.896 346.1,406.563 346,409.5C 345.667,408.167 345.333,406.833 345,405.5C 344.565,410.184 344.065,414.851 343.5,419.5C 342.5,419.5 341.5,419.5 340.5,419.5 Z"/></g>
<g><path style="opacity:1" fill="#54433e" d="M 341.5,271.5 C 341.807,277.093 341.473,282.593 340.5,288C 326.948,287.471 313.615,285.971 300.5,283.5C 300.5,280.5 300.5,277.5 300.5,274.5C 300.187,267.485 302.354,261.485 307,256.5C 307.179,260.025 307.679,263.359 308.5,266.5C 308.962,267.88 309.962,268.547 311.5,268.5C 314.466,267.675 317.466,267.008 320.5,266.5C 326.968,268.021 332.135,266.021 336,260.5C 338.504,253.132 336.004,249.798 328.5,250.5C 330.403,249.549 332.403,248.549 334.5,247.5C 336.088,248.01 337.255,249.01 338,250.5C 339.823,257.508 340.99,264.508 341.5,271.5 Z"/></g>
<g><path style="opacity:1" fill="#5e8092" d="M 65.5,265.5 C 64.5878,271.131 63.9211,276.798 63.5,282.5C 62.1448,288.979 61.1448,295.646 60.5,302.5C 59.3555,319.346 59.5222,336.346 61,353.5C 62.1292,358.969 63.2959,364.302 64.5,369.5C 64.3618,374.414 65.0285,379.081 66.5,383.5C 66.2549,389.084 66.9216,394.417 68.5,399.5C 70.9253,410.716 72.9253,422.049 74.5,433.5C 74.9518,437.163 75.4518,440.83 76,444.5C 76.3826,445.056 76.8826,445.389 77.5,445.5C 77.5,445.833 77.5,446.167 77.5,446.5C 77.4366,452.264 78.1033,457.93 79.5,463.5C 78.5,463.5 77.5,463.5 76.5,463.5C 76.915,460.632 75.915,458.465 73.5,457C 74.3917,453.557 73.5583,453.057 71,455.5C 69.8744,451.251 69.2077,446.918 69,442.5C 68.6667,444.167 68.3333,445.833 68,447.5C 67.8485,444.881 67.0152,442.547 65.5,440.5C 66.1667,439.833 66.8333,439.167 67.5,438.5C 66.6628,436.156 65.3294,434.156 63.5,432.5C 65.6323,429.386 65.9656,426.053 64.5,422.5C 63.8333,422.833 63.1667,423.167 62.5,423.5C 59.1657,411.733 56.1657,400.066 53.5,388.5C 53.5,386.833 53.5,385.167 53.5,383.5C 51.5,383.5 49.5,383.5 47.5,383.5C 47.5,382.167 47.5,380.833 47.5,379.5C 49.5,379.5 51.5,379.5 53.5,379.5C 53.8242,375.445 53.4909,371.445 52.5,367.5C 51.4278,364.796 50.4278,362.13 49.5,359.5C 50.5,359.5 51.5,359.5 52.5,359.5C 52.2761,357.213 51.6094,355.047 50.5,353C 51.7658,347.301 52.4325,341.468 52.5,335.5C 52.4681,329.631 52.1348,323.798 51.5,318C 52.643,314.761 53.3097,311.428 53.5,308C 52.7863,299.855 52.7863,291.688 53.5,283.5C 52.5,283.5 51.5,283.5 50.5,283.5C 50.5045,279.466 50.8379,275.466 51.5,271.5C 53.1667,271.5 54.8333,271.5 56.5,271.5C 55.498,268.89 55.6647,266.224 57,263.5C 57.5717,260.293 59.405,258.626 62.5,258.5C 62.1387,263.276 61.6387,268.276 61,273.5C 60.2904,272.027 59.1238,271.36 57.5,271.5C 57.0158,276.357 56.3491,281.191 55.5,286C 55.8333,286.5 56.1667,287 56.5,287.5C 58.2563,285.446 58.5897,283.279 57.5,281C 58.7659,280.691 59.9326,280.191 61,279.5C 61.3333,280.167 61.6667,280.833 62,281.5C 62.8304,276.857 63.4971,272.19 64,267.5C 64.2784,266.584 64.7784,265.918 65.5,265.5 Z"/></g>
<g><path style="opacity:1" fill="#040b0e" d="M 74.5,239.5 C 74.1081,242.722 74.6081,245.722 76,248.5C 77.113,247.24 77.2797,246.073 76.5,245C 77.1029,243.175 77.7696,241.341 78.5,239.5C 78.8333,242.167 79.1667,244.833 79.5,247.5C 77.9942,255.441 76.9942,263.441 76.5,271.5C 74.8333,271.5 73.1667,271.5 71.5,271.5C 71.6567,270.127 71.49,268.793 71,267.5C 70.7037,270.706 70.2037,273.872 69.5,277C 69.6448,277.772 69.9781,278.439 70.5,279C 69.267,280.698 68.6004,282.698 68.5,285C 69.912,300.198 69.5787,315.364 67.5,330.5C 67.6667,334.167 67.8333,337.833 68,341.5C 68.3333,339.5 68.6667,337.5 69,335.5C 69.7193,340.201 69.5526,344.867 68.5,349.5C 69.9249,355.759 70.9249,361.759 71.5,367.5C 72.5,367.5 73.5,367.5 74.5,367.5C 74.1667,372.833 73.8333,378.167 73.5,383.5C 74.5,383.5 75.5,383.5 76.5,383.5C 76.9804,386.685 76.3137,389.519 74.5,392C 76.5875,399.687 78.0875,407.52 79,415.5C 79.6264,411.864 80.7931,411.864 82.5,415.5C 83.92,440.188 87.5866,464.188 93.5,487.5C 92.0056,489.942 91.0056,492.609 90.5,495.5C 92.1481,499.673 93.4814,504.006 94.5,508.5C 93.8728,509.417 93.5394,510.417 93.5,511.5C 91.1667,511.5 88.8333,511.5 86.5,511.5C 87.0827,500.461 85.7494,489.795 82.5,479.5C 82.6382,474.586 81.9715,469.919 80.5,465.5C 80.4527,458.889 79.4527,452.556 77.5,446.5C 77.5,446.167 77.5,445.833 77.5,445.5C 77.2453,441.2 76.2453,437.2 74.5,433.5C 72.9253,422.049 70.9253,410.716 68.5,399.5C 68.473,393.949 67.8063,388.616 66.5,383.5C 66.6382,378.586 65.9715,373.919 64.5,369.5C 61.6003,347.268 60.267,324.934 60.5,302.5C 61.1448,295.646 62.1448,288.979 63.5,282.5C 64.9663,281.653 65.7996,280.32 66,278.5C 66.9271,266.794 69.4271,255.461 73.5,244.5C 72.3162,242.533 72.6495,240.866 74.5,239.5 Z"/></g>
<g><path style="opacity:1" fill="#1a100e" d="M 233.5,235.5 C 234.335,251.934 235.335,268.267 236.5,284.5C 235.839,287.787 235.339,291.12 235,294.5C 233.933,295.191 232.766,295.691 231.5,296C 211.507,295.909 191.507,295.576 171.5,295C 168.236,294.362 165.236,293.196 162.5,291.5C 161.598,289.659 160.264,288.326 158.5,287.5C 157.824,283.813 156.324,280.48 154,277.5C 153.478,273.416 152.645,269.416 151.5,265.5C 154.195,268.223 155.862,271.557 156.5,275.5C 157.325,276.386 158.325,276.719 159.5,276.5C 159.343,275.127 159.51,273.793 160,272.5C 160.139,276.917 161.472,280.917 164,284.5C 166.052,277.924 168.552,271.591 171.5,265.5C 171.135,270.958 170.135,276.292 168.5,281.5C 189.616,281.247 210.616,282.58 231.5,285.5C 231.5,284.167 231.5,282.833 231.5,281.5C 232.859,271.223 233.526,260.889 233.5,250.5C 233.5,245.5 233.5,240.5 233.5,235.5 Z"/></g>
<g><path style="opacity:1" fill="#572c16" d="M 287.5,295.5 C 287.5,297.5 287.5,299.5 287.5,301.5C 285.322,300.796 283.322,300.463 281.5,300.5C 280.167,301.5 280.167,302.5 281.5,303.5C 283.122,305.439 284.956,305.772 287,304.5C 287.264,307.706 288.931,309.706 292,310.5C 295.035,308.958 298.202,308.458 301.5,309C 300.541,311.238 300.541,313.738 301.5,316.5C 301.483,318.028 300.816,318.528 299.5,318C 295.914,311.675 291.247,310.509 285.5,314.5C 282.393,313.9 279.393,313.733 276.5,314C 275.789,315.255 274.956,316.421 274,317.5C 273.586,317.043 273.086,316.709 272.5,316.5C 268.65,317.1 264.983,318.267 261.5,320C 262.167,320.667 262.833,321.333 263.5,322C 260.408,322.736 257.408,322.569 254.5,321.5C 254.714,317.855 255.047,314.189 255.5,310.5C 253.051,308.224 251.218,305.558 250,302.5C 247.148,299.98 244.981,300.647 243.5,304.5C 242.264,303.754 240.93,303.421 239.5,303.5C 239.813,306.247 239.48,308.914 238.5,311.5C 237.784,310.689 236.95,310.022 236,309.5C 234.2,310.32 232.366,310.986 230.5,311.5C 232.032,308.943 233.699,306.443 235.5,304C 233.744,303.798 232.078,303.298 230.5,302.5C 232.244,301.682 234.244,301.349 236.5,301.5C 237.641,300.575 237.641,299.741 236.5,299C 237.167,298.333 237.833,297.667 238.5,297C 237.748,296.329 237.414,295.496 237.5,294.5C 239.766,292.807 240.1,290.64 238.5,288C 242.226,286.061 244.06,282.895 244,278.5C 246.741,276.933 247.908,274.599 247.5,271.5C 251.08,262.261 254.247,252.594 257,242.5C 257.739,241.426 258.739,240.759 260,240.5C 261.964,241.852 264.131,242.686 266.5,243C 267.307,248.083 267.807,253.25 268,258.5C 270.887,260.752 272.22,263.752 272,267.5C 275.92,275.746 279.754,284.08 283.5,292.5C 285.261,293.035 286.594,294.035 287.5,295.5 Z"/></g>
<g><path style="opacity:1" fill="#5a2e14" d="M 230.5,311.5 C 232.366,310.986 234.2,310.32 236,309.5C 236.95,310.022 237.784,310.689 238.5,311.5C 239.48,308.914 239.813,306.247 239.5,303.5C 240.93,303.421 242.264,303.754 243.5,304.5C 244.981,300.647 247.148,299.98 250,302.5C 251.218,305.558 253.051,308.224 255.5,310.5C 255.047,314.189 254.714,317.855 254.5,321.5C 252.73,323.113 251.564,325.113 251,327.5C 249.625,325.063 249.125,322.397 249.5,319.5C 247.876,319.36 246.71,320.027 246,321.5C 245.006,326.118 244.506,330.785 244.5,335.5C 245.5,335.5 246.5,335.5 247.5,335.5C 247.372,333.345 247.872,331.345 249,329.5C 249.667,328.167 250.333,328.167 251,329.5C 251.789,332.8 250.956,335.633 248.5,338C 249.5,339.667 250.5,341.333 251.5,343C 248.629,343.131 246.295,344.297 244.5,346.5C 245.311,347.216 245.978,348.05 246.5,349C 245.591,350.789 245.424,352.623 246,354.5C 248.934,356.193 252.101,357.193 255.5,357.5C 255.5,358.833 255.5,360.167 255.5,361.5C 251.01,361.527 247.343,363.194 244.5,366.5C 243.311,367.429 241.978,367.762 240.5,367.5C 240.33,368.822 240.663,369.989 241.5,371C 239.487,371.875 239.487,373.209 241.5,375C 240.643,375.689 239.977,376.522 239.5,377.5C 241.997,378.578 243.663,380.411 244.5,383C 249.684,383.174 254.684,383.674 259.5,384.5C 251.107,384.17 242.773,384.67 234.5,386C 232.415,388.081 230.415,390.248 228.5,392.5C 227.717,394.343 227.05,396.343 226.5,398.5C 227.744,400.133 227.244,401.133 225,401.5C 223.189,400.576 223.355,399.743 225.5,399C 224.638,396.266 223.805,396.099 223,398.5C 221.731,397.095 221.231,395.429 221.5,393.5C 218.737,393.204 216.237,392.204 214,390.5C 212.418,388.376 212.251,386.21 213.5,384C 211.527,383.505 209.527,383.338 207.5,383.5C 207.5,382.167 207.5,380.833 207.5,379.5C 196.593,378.803 185.759,378.803 175,379.5C 169.833,377 166,373.167 163.5,368C 162.207,367.51 160.873,367.343 159.5,367.5C 159.666,362.156 159.499,356.823 159,351.5C 158.333,362.167 157.667,372.833 157,383.5C 155.554,378.355 155.054,373.021 155.5,367.5C 154.167,367.5 152.833,367.5 151.5,367.5C 151.827,358.318 151.493,349.318 150.5,340.5C 150.5,328.167 150.5,315.833 150.5,303.5C 151.5,303.5 152.5,303.5 153.5,303.5C 153.11,299.606 153.777,295.94 155.5,292.5C 156.971,293.381 157.804,294.714 158,296.5C 158.333,298.833 158.667,301.167 159,303.5C 159.333,300.5 159.667,297.5 160,294.5C 161.657,296.561 163.157,298.727 164.5,301C 163.391,302.813 164.058,303.646 166.5,303.5C 165.741,299.76 167.241,298.093 171,298.5C 177.658,300.171 184.492,301.338 191.5,302C 189.833,302.333 188.167,302.667 186.5,303C 188.577,303.192 190.577,303.692 192.5,304.5C 197.333,309.5 202.167,314.5 207,319.5C 207.49,318.207 207.657,316.873 207.5,315.5C 213.176,315.666 218.843,315.499 224.5,315C 226.727,314.059 228.727,312.892 230.5,311.5 Z"/></g>
<g><path style="opacity:1" fill="#120c0c" d="M 189.5,287.5 C 199.774,287.538 210.107,287.205 220.5,286.5C 221.167,286.667 221.833,286.833 222.5,287C 221.376,287.249 220.376,287.749 219.5,288.5C 221.078,289.298 222.744,289.798 224.5,290C 225.636,291.53 226.636,292.863 227.5,294C 226.892,294.87 226.059,295.37 225,295.5C 208.532,294.688 192.032,294.188 175.5,294C 171.217,293.197 167.551,291.363 164.5,288.5C 165.167,288.167 165.833,287.833 166.5,287.5C 168.833,288.167 171.167,288.833 173.5,289.5C 180.208,289.003 185.542,288.336 189.5,287.5 Z"/></g>
<g><path style="opacity:1" fill="#4b2d20" d="M 247.5,271.5 C 247.908,274.599 246.741,276.933 244,278.5C 244.06,282.895 242.226,286.061 238.5,288C 240.1,290.64 239.766,292.807 237.5,294.5C 233.907,298.205 229.407,299.872 224,299.5C 206.152,298.567 188.318,297.4 170.5,296C 167.032,295.77 164.366,294.27 162.5,291.5C 165.236,293.196 168.236,294.362 171.5,295C 191.507,295.576 211.507,295.909 231.5,296C 232.766,295.691 233.933,295.191 235,294.5C 235.339,291.12 235.839,287.787 236.5,284.5C 240.595,280.416 244.261,276.082 247.5,271.5 Z"/></g>
<g><path style="opacity:1" fill="#482b1d" d="M 271.5,255.5 C 271.421,258.271 271.921,260.937 273,263.5C 277.336,272.87 281.669,282.203 286,291.5C 286.804,292.804 287.971,293.471 289.5,293.5C 292.115,292.731 294.781,292.397 297.5,292.5C 299.372,293.511 301.372,294.345 303.5,295C 315.825,295.825 328.158,296.492 340.5,297C 341.489,309.754 341.822,322.587 341.5,335.5C 341.831,362.339 341.498,389.005 340.5,415.5C 340.833,378.161 340.5,340.827 339.5,303.5C 338.937,301.291 337.604,299.791 335.5,299C 328.65,298.355 321.817,298.522 315,299.5C 305.696,298.665 296.53,297.331 287.5,295.5C 286.594,294.035 285.261,293.035 283.5,292.5C 279.754,284.08 275.92,275.746 272,267.5C 272.22,263.752 270.887,260.752 268,258.5C 267.807,253.25 267.307,248.083 266.5,243C 264.131,242.686 261.964,241.852 260,240.5C 258.739,240.759 257.739,241.426 257,242.5C 254.247,252.594 251.08,262.261 247.5,271.5C 249.462,262.969 251.128,254.303 252.5,245.5C 253.725,244.063 254.725,242.396 255.5,240.5C 258.369,239.599 261.202,238.599 264,237.5C 265.711,237.439 267.044,238.106 268,239.5C 268.499,244.823 268.666,250.156 268.5,255.5C 269.5,255.5 270.5,255.5 271.5,255.5 Z"/></g>
<g><path style="opacity:1" fill="#542e1a" d="M 151.5,275.5 C 151.882,280.83 154.216,284.83 158.5,287.5C 160.264,288.326 161.598,289.659 162.5,291.5C 164.366,294.27 167.032,295.77 170.5,296C 188.318,297.4 206.152,298.567 224,299.5C 229.407,299.872 233.907,298.205 237.5,294.5C 237.414,295.496 237.748,296.329 238.5,297C 237.833,297.667 237.167,298.333 236.5,299C 237.641,299.741 237.641,300.575 236.5,301.5C 234.244,301.349 232.244,301.682 230.5,302.5C 232.078,303.298 233.744,303.798 235.5,304C 233.699,306.443 232.032,308.943 230.5,311.5C 228.727,312.892 226.727,314.059 224.5,315C 218.843,315.499 213.176,315.666 207.5,315.5C 207.657,316.873 207.49,318.207 207,319.5C 202.167,314.5 197.333,309.5 192.5,304.5C 190.577,303.692 188.577,303.192 186.5,303C 188.167,302.667 189.833,302.333 191.5,302C 184.492,301.338 177.658,300.171 171,298.5C 167.241,298.093 165.741,299.76 166.5,303.5C 164.058,303.646 163.391,302.813 164.5,301C 163.157,298.727 161.657,296.561 160,294.5C 159.667,297.5 159.333,300.5 159,303.5C 158.667,301.167 158.333,298.833 158,296.5C 157.804,294.714 156.971,293.381 155.5,292.5C 153.777,295.94 153.11,299.606 153.5,303.5C 152.5,303.5 151.5,303.5 150.5,303.5C 150.5,315.833 150.5,328.167 150.5,340.5C 150.83,360.34 150.497,380.007 149.5,399.5C 149.5,378.167 149.5,356.833 149.5,335.5C 149.628,316.439 149.628,297.439 149.5,278.5C 149.942,277.261 150.609,276.261 151.5,275.5 Z"/></g>
<g><path style="opacity:1" fill="#532c15" d="M 328.5,435.5 C 326.696,437.467 324.696,439.301 322.5,441C 314.446,444.223 306.113,446.389 297.5,447.5C 296.167,447.5 294.833,447.5 293.5,447.5C 272.524,447.859 251.524,447.859 230.5,447.5C 231.299,442.527 234.133,439.194 239,437.5C 239.5,430.174 239.666,422.841 239.5,415.5C 242.187,415.664 244.854,415.497 247.5,415C 243.558,414.007 239.558,413.34 235.5,413C 235.043,412.586 234.709,412.086 234.5,411.5C 236.846,408.067 240.179,406.567 244.5,407C 240.075,406.583 235.742,405.749 231.5,404.5C 230.548,402.955 230.215,401.288 230.5,399.5C 231.167,399.5 231.833,399.5 232.5,399.5C 232.574,401.411 233.574,402.578 235.5,403C 255.481,404.444 275.481,404.777 295.5,404C 297.119,403.764 298.119,402.931 298.5,401.5C 301.244,400.928 302.077,399.262 301,396.5C 299.417,394.089 298.417,391.422 298,388.5C 296.25,386.576 294.417,384.909 292.5,383.5C 285.5,383.5 278.5,383.5 271.5,383.5C 267.466,383.505 263.466,383.838 259.5,384.5C 254.684,383.674 249.684,383.174 244.5,383C 243.663,380.411 241.997,378.578 239.5,377.5C 239.977,376.522 240.643,375.689 241.5,375C 239.487,373.209 239.487,371.875 241.5,371C 240.663,369.989 240.33,368.822 240.5,367.5C 241.978,367.762 243.311,367.429 244.5,366.5C 247.343,363.194 251.01,361.527 255.5,361.5C 255.5,360.167 255.5,358.833 255.5,357.5C 252.101,357.193 248.934,356.193 246,354.5C 245.424,352.623 245.591,350.789 246.5,349C 245.978,348.05 245.311,347.216 244.5,346.5C 246.295,344.297 248.629,343.131 251.5,343C 250.5,341.333 249.5,339.667 248.5,338C 250.956,335.633 251.789,332.8 251,329.5C 250.333,328.167 249.667,328.167 249,329.5C 247.872,331.345 247.372,333.345 247.5,335.5C 246.5,335.5 245.5,335.5 244.5,335.5C 244.506,330.785 245.006,326.118 246,321.5C 246.71,320.027 247.876,319.36 249.5,319.5C 249.125,322.397 249.625,325.063 251,327.5C 251.564,325.113 252.73,323.113 254.5,321.5C 257.408,322.569 260.408,322.736 263.5,322C 262.833,321.333 262.167,320.667 261.5,320C 264.983,318.267 268.65,317.1 272.5,316.5C 273.086,316.709 273.586,317.043 274,317.5C 274.956,316.421 275.789,315.255 276.5,314C 279.393,313.733 282.393,313.9 285.5,314.5C 291.247,310.509 295.914,311.675 299.5,318C 300.816,318.528 301.483,318.028 301.5,316.5C 302.117,316.611 302.617,316.944 303,317.5C 303.192,315.423 303.692,313.423 304.5,311.5C 306.086,313.67 307.42,316.004 308.5,318.5C 311.774,321.069 315.441,321.902 319.5,321C 313.721,320.682 313.387,319.848 318.5,318.5C 320.009,316.344 321.009,314.01 321.5,311.5C 322.978,311.762 324.311,311.429 325.5,310.5C 324.5,308.5 323.5,306.5 322.5,304.5C 326.783,303.508 331.116,303.174 335.5,303.5C 336.73,341.201 336.73,378.868 335.5,416.5C 337.301,419.216 337.467,422.216 336,425.5C 333.136,427.706 330.303,429.872 327.5,432C 328.337,433.011 328.67,434.178 328.5,435.5 Z"/></g>
<g><path style="opacity:1" fill="#658594" d="M 502.5,307.5 C 503.496,307.414 504.329,307.748 505,308.5C 505.333,314.833 505.667,321.167 506,327.5C 506.333,322.833 506.667,318.167 507,313.5C 507.495,315.473 507.662,317.473 507.5,319.5C 508.5,319.5 509.5,319.5 510.5,319.5C 510.5,374.167 510.5,428.833 510.5,483.5C 505.5,483.5 500.5,483.5 495.5,483.5C 495.5,482.167 495.5,480.833 495.5,479.5C 496.833,479.5 498.167,479.5 499.5,479.5C 499.5,474.167 499.5,468.833 499.5,463.5C 495.833,463.5 492.167,463.5 488.5,463.5C 487.697,458.524 484.864,455.191 480,453.5C 479.501,448.845 479.334,444.179 479.5,439.5C 485.5,440.167 488.167,437.5 487.5,431.5C 491.5,431.5 495.5,431.5 499.5,431.5C 499.5,426.167 499.5,420.833 499.5,415.5C 498.167,415.5 496.833,415.5 495.5,415.5C 495.5,410.167 495.5,404.833 495.5,399.5C 496.833,399.5 498.167,399.5 499.5,399.5C 499.333,370.831 499.5,342.165 500,313.5C 500.573,311.359 501.406,309.359 502.5,307.5 Z"/></g>
<g><path style="opacity:1" fill="#512c17" d="M 287.5,295.5 C 296.53,297.331 305.696,298.665 315,299.5C 321.817,298.522 328.65,298.355 335.5,299C 337.604,299.791 338.937,301.291 339.5,303.5C 340.5,340.827 340.833,378.161 340.5,415.5C 340.5,416.833 340.5,418.167 340.5,419.5C 337.683,425.66 333.683,430.993 328.5,435.5C 328.67,434.178 328.337,433.011 327.5,432C 330.303,429.872 333.136,427.706 336,425.5C 337.467,422.216 337.301,419.216 335.5,416.5C 336.73,378.868 336.73,341.201 335.5,303.5C 331.116,303.174 326.783,303.508 322.5,304.5C 323.5,306.5 324.5,308.5 325.5,310.5C 324.311,311.429 322.978,311.762 321.5,311.5C 321.009,314.01 320.009,316.344 318.5,318.5C 313.387,319.848 313.721,320.682 319.5,321C 315.441,321.902 311.774,321.069 308.5,318.5C 307.42,316.004 306.086,313.67 304.5,311.5C 303.692,313.423 303.192,315.423 303,317.5C 302.617,316.944 302.117,316.611 301.5,316.5C 300.541,313.738 300.541,311.238 301.5,309C 298.202,308.458 295.035,308.958 292,310.5C 288.931,309.706 287.264,307.706 287,304.5C 284.956,305.772 283.122,305.439 281.5,303.5C 280.167,302.5 280.167,301.5 281.5,300.5C 283.322,300.463 285.322,300.796 287.5,301.5C 287.5,299.5 287.5,297.5 287.5,295.5 Z"/></g>
<g><path style="opacity:1" fill="#0a1219" d="M 435.5,275.5 C 443.346,293.204 447.346,311.871 447.5,331.5C 446.25,331.423 445.417,330.756 445,329.5C 444.259,326.438 444.425,323.438 445.5,320.5C 444.675,319.614 443.675,319.281 442.5,319.5C 442.002,310.169 440.668,301.002 438.5,292C 439.059,291.275 439.392,290.442 439.5,289.5C 437.588,286.096 435.921,282.596 434.5,279C 434.989,277.862 435.322,276.695 435.5,275.5 Z"/></g>
<g><path style="opacity:1" fill="#140f0a" d="M 289.5,316.5 C 291.467,316.261 293.301,316.594 295,317.5C 296.969,323.222 296.802,328.889 294.5,334.5C 289.101,338.198 284.101,342.365 279.5,347C 276.986,348.252 274.32,348.752 271.5,348.5C 271.096,347.244 270.429,346.077 269.5,345C 274.431,339.962 277.931,334.129 280,327.5C 282.828,325.508 284.661,322.841 285.5,319.5C 286.833,318.5 288.167,317.5 289.5,316.5 Z"/></g>
<g><path style="opacity:1" fill="#22160c" d="M 255.5,326.5 C 260.689,325.298 266.023,325.298 271.5,326.5C 270.993,337.684 265.66,341.017 255.5,336.5C 255.5,336.167 255.5,335.833 255.5,335.5C 259.5,335.5 263.5,335.5 267.5,335.5C 267.955,333.633 268.622,331.8 269.5,330C 269.167,329.167 268.833,328.333 268.5,327.5C 264.235,326.561 259.902,326.228 255.5,326.5 Z"/></g>
<g><path style="opacity:1" fill="#472a1c" d="M 285.5,319.5 C 284.661,322.841 282.828,325.508 280,327.5C 277.931,334.129 274.431,339.962 269.5,345C 270.429,346.077 271.096,347.244 271.5,348.5C 270.504,348.586 269.671,348.252 269,347.5C 268.949,344.723 268.782,342.057 268.5,339.5C 267.914,339.709 267.414,340.043 267,340.5C 263.924,339.712 260.758,339.212 257.5,339C 256.244,338.583 255.577,337.75 255.5,336.5C 265.66,341.017 270.993,337.684 271.5,326.5C 266.023,325.298 260.689,325.298 255.5,326.5C 254.883,326.611 254.383,326.944 254,327.5C 253.503,330.146 253.336,332.813 253.5,335.5C 252.842,334.207 252.508,332.707 252.5,331C 252.305,328.648 252.972,326.648 254.5,325C 262.045,323.948 269.378,324.448 276.5,326.5C 280.232,324.836 283.232,322.503 285.5,319.5 Z"/></g>
<g><path style="opacity:1" fill="#160e09" d="M 255.5,326.5 C 259.902,326.228 264.235,326.561 268.5,327.5C 268.833,328.333 269.167,329.167 269.5,330C 268.622,331.8 267.955,333.633 267.5,335.5C 263.5,335.5 259.5,335.5 255.5,335.5C 254.833,335.5 254.167,335.5 253.5,335.5C 253.336,332.813 253.503,330.146 254,327.5C 254.383,326.944 254.883,326.611 255.5,326.5 Z"/></g>
<g><path style="opacity:1" fill="#452716" d="M 271.5,348.5 C 274.32,348.752 276.986,348.252 279.5,347C 284.101,342.365 289.101,338.198 294.5,334.5C 296.802,328.889 296.969,323.222 295,317.5C 293.301,316.594 291.467,316.261 289.5,316.5C 290.659,314.623 292.326,314.123 294.5,315C 299.139,321.701 299.805,328.868 296.5,336.5C 294.478,339.356 291.978,341.689 289,343.5C 288.667,343.167 288.333,342.833 288,342.5C 287.215,344.286 286.049,345.786 284.5,347C 284.833,347.333 285.167,347.667 285.5,348C 282.819,348.458 280.319,349.291 278,350.5C 275.6,350.198 273.434,349.532 271.5,348.5 Z"/></g>
<g><path style="opacity:1" fill="#506a77" d="M 60.5,302.5 C 60.267,324.934 61.6003,347.268 64.5,369.5C 63.2959,364.302 62.1292,358.969 61,353.5C 59.5222,336.346 59.3555,319.346 60.5,302.5 Z"/></g>
<g><path style="opacity:1" fill="#532c12" d="M 228.5,392.5 C 228.41,395.152 229.076,397.485 230.5,399.5C 230.215,401.288 230.548,402.955 231.5,404.5C 235.742,405.749 240.075,406.583 244.5,407C 240.179,406.567 236.846,408.067 234.5,411.5C 234.709,412.086 235.043,412.586 235.5,413C 239.558,413.34 243.558,414.007 247.5,415C 244.854,415.497 242.187,415.664 239.5,415.5C 239.666,422.841 239.5,430.174 239,437.5C 234.133,439.194 231.299,442.527 230.5,447.5C 228.167,447.5 225.833,447.5 223.5,447.5C 223.5,446.167 223.5,444.833 223.5,443.5C 213.279,445.412 207.279,441.412 205.5,431.5C 204.167,431.5 202.833,431.5 201.5,431.5C 201.02,428.995 200.02,426.662 198.5,424.5C 192.139,423.171 186.472,420.504 181.5,416.5C 179.41,419.009 177.577,418.675 176,415.5C 175.503,418.146 175.336,420.813 175.5,423.5C 174.167,423.5 172.833,423.5 171.5,423.5C 171.67,422.178 171.337,421.011 170.5,420C 166.833,419.667 163.167,419.333 159.5,419C 162.167,418.667 164.833,418.333 167.5,418C 164.574,417.782 161.74,417.282 159,416.5C 158.83,410.804 158.33,405.138 157.5,399.5C 156.931,410.222 156.097,420.889 155,431.5C 152.856,410.24 151.689,388.907 151.5,367.5C 152.833,367.5 154.167,367.5 155.5,367.5C 155.054,373.021 155.554,378.355 157,383.5C 157.667,372.833 158.333,362.167 159,351.5C 159.499,356.823 159.666,362.156 159.5,367.5C 160.873,367.343 162.207,367.51 163.5,368C 166,373.167 169.833,377 175,379.5C 185.759,378.803 196.593,378.803 207.5,379.5C 207.5,380.833 207.5,382.167 207.5,383.5C 209.527,383.338 211.527,383.505 213.5,384C 212.251,386.21 212.418,388.376 214,390.5C 216.237,392.204 218.737,393.204 221.5,393.5C 221.231,395.429 221.731,397.095 223,398.5C 223.805,396.099 224.638,396.266 225.5,399C 223.355,399.743 223.189,400.576 225,401.5C 227.244,401.133 227.744,400.133 226.5,398.5C 227.05,396.343 227.717,394.343 228.5,392.5 Z"/></g>
<g><path style="opacity:1" fill="#060506" d="M 127.5,335.5 C 127.335,338.518 127.502,341.518 128,344.5C 130.339,341.824 132.172,338.824 133.5,335.5C 135.145,337.925 136.311,340.592 137,343.5C 138.631,352.819 138.965,362.152 138,371.5C 140.716,367.34 142.216,367.84 142.5,373C 141.219,384.492 141.219,395.992 142.5,407.5C 143.332,399.521 143.832,391.521 144,383.5C 144.361,406.839 144.361,430.173 144,453.5C 144.916,446.18 145.749,438.846 146.5,431.5C 146.833,439.5 147.167,447.5 147.5,455.5C 147.715,466.45 147.049,477.283 145.5,488C 145.957,488.414 146.291,488.914 146.5,489.5C 144.914,491.173 144.247,493.173 144.5,495.5C 145.5,495.5 146.5,495.5 147.5,495.5C 147.5,500.833 147.5,506.167 147.5,511.5C 142.167,511.5 136.833,511.5 131.5,511.5C 131.5,510.167 131.5,508.833 131.5,507.5C 135.37,508.799 139.37,509.466 143.5,509.5C 143.666,504.821 143.499,500.155 143,495.5C 140.674,498.235 139.84,501.235 140.5,504.5C 139.009,505.244 137.509,505.91 136,506.5C 135.667,501.5 135.333,496.5 135,491.5C 133.632,490.007 133.465,488.507 134.5,487C 132.189,483.939 131.022,480.439 131,476.5C 129.989,475.663 128.822,475.33 127.5,475.5C 127.5,471.5 127.5,467.5 127.5,463.5C 125.833,463.5 124.167,463.5 122.5,463.5C 122.666,458.156 122.499,452.823 122,447.5C 118.423,440.204 115.09,432.871 112,425.5C 110.197,413.55 108.03,401.716 105.5,390C 107.504,385.316 109.504,380.65 111.5,376C 110.772,370.578 110.772,365.078 111.5,359.5C 112.5,359.5 113.5,359.5 114.5,359.5C 117.844,351.648 120.844,343.648 123.5,335.5C 124.833,335.5 126.167,335.5 127.5,335.5 Z"/></g>
<g><path style="opacity:1" fill="#3f5864" d="M 64.5,369.5 C 65.9715,373.919 66.6382,378.586 66.5,383.5C 65.0285,379.081 64.3618,374.414 64.5,369.5 Z"/></g>
<g><path style="opacity:1" fill="#3a2415" d="M 292.5,383.5 C 294.417,384.909 296.25,386.576 298,388.5C 298.417,391.422 299.417,394.089 301,396.5C 302.077,399.262 301.244,400.928 298.5,401.5C 299.24,397.475 298.74,393.475 297,389.5C 294.873,387.886 293.373,385.886 292.5,383.5 Z"/></g>
<g><path style="opacity:1" fill="#0d0a07" d="M 271.5,383.5 C 278.5,383.5 285.5,383.5 292.5,383.5C 293.373,385.886 294.873,387.886 297,389.5C 298.74,393.475 299.24,397.475 298.5,401.5C 293.127,402.972 287.627,403.639 282,403.5C 266.838,402.867 251.671,402.367 236.5,402C 235.307,400.905 233.973,400.072 232.5,399.5C 231.833,399.5 231.167,399.5 230.5,399.5C 229.956,394.089 231.956,389.922 236.5,387C 248.426,386.932 260.093,385.765 271.5,383.5 Z"/></g>
<g><path style="opacity:1" fill="#485f6b" d="M 66.5,383.5 C 67.8063,388.616 68.473,393.949 68.5,399.5C 66.9216,394.417 66.2549,389.084 66.5,383.5 Z"/></g>
<g><path style="opacity:1" fill="#523420" d="M 271.5,383.5 C 260.093,385.765 248.426,386.932 236.5,387C 231.956,389.922 229.956,394.089 230.5,399.5C 229.076,397.485 228.41,395.152 228.5,392.5C 230.415,390.248 232.415,388.081 234.5,386C 242.773,384.67 251.107,384.17 259.5,384.5C 263.466,383.838 267.466,383.505 271.5,383.5 Z"/></g>
<g><path style="opacity:1" fill="#070b13" d="M 447.5,351.5 C 446.545,362.231 445.045,372.898 443,383.5C 439.729,398.675 433.395,412.342 424,424.5C 418.294,429.604 413.294,435.27 409,441.5C 406.253,444.754 403.086,447.42 399.5,449.5C 400.546,444.508 403.38,440.175 408,436.5C 410.543,432.065 413.043,427.732 415.5,423.5C 417.806,423.993 420.139,424.326 422.5,424.5C 422.655,420.851 424.322,418.184 427.5,416.5C 424.964,412.65 426.297,410.984 431.5,411.5C 431.358,407.85 432.025,404.35 433.5,401C 431.604,397.714 431.104,394.214 432,390.5C 432.333,392.5 432.667,394.5 433,396.5C 433.414,396.957 433.914,397.291 434.5,397.5C 438.959,390.898 441.459,383.564 442,375.5C 442.333,375.833 442.667,376.167 443,376.5C 443.562,374.134 443.396,371.801 442.5,369.5C 444.365,366.507 444.365,363.34 442.5,360C 443.713,357.313 444.38,354.48 444.5,351.5C 445.5,351.5 446.5,351.5 447.5,351.5 Z"/></g>
<g><path style="opacity:1" fill="#402b1e" d="M 232.5,399.5 C 233.973,400.072 235.307,400.905 236.5,402C 251.671,402.367 266.838,402.867 282,403.5C 287.627,403.639 293.127,402.972 298.5,401.5C 298.119,402.931 297.119,403.764 295.5,404C 275.481,404.777 255.481,404.444 235.5,403C 233.574,402.578 232.574,401.411 232.5,399.5 Z"/></g>
<g><path style="opacity:1" fill="#608396" d="M 53.5,388.5 C 56.1657,400.066 59.1657,411.733 62.5,423.5C 63.1667,423.167 63.8333,422.833 64.5,422.5C 65.9656,426.053 65.6323,429.386 63.5,432.5C 65.3294,434.156 66.6628,436.156 67.5,438.5C 66.8333,439.167 66.1667,439.833 65.5,440.5C 67.0152,442.547 67.8485,444.881 68,447.5C 68.3333,445.833 68.6667,444.167 69,442.5C 69.2077,446.918 69.8744,451.251 71,455.5C 73.5583,453.057 74.3917,453.557 73.5,457C 75.915,458.465 76.915,460.632 76.5,463.5C 77.5,463.5 78.5,463.5 79.5,463.5C 79.3284,464.492 79.6618,465.158 80.5,465.5C 80.2291,470.434 80.8958,475.1 82.5,479.5C 82.5185,484.923 83.1851,490.256 84.5,495.5C 82.7217,498.652 81.2217,501.985 80,505.5C 79.6667,503.833 79.3333,502.167 79,500.5C 73.6723,502.911 68.1723,504.911 62.5,506.5C 58.3264,505.899 54.3264,504.733 50.5,503C 52.5,500.667 54.5,498.333 56.5,496C 55.552,495.517 54.552,495.351 53.5,495.5C 53.5,486.5 53.5,477.5 53.5,468.5C 56.6898,467.333 57.0232,465.666 54.5,463.5C 50.9732,438.531 50.6399,413.531 53.5,388.5 Z"/></g>
<g><path style="opacity:1" fill="#502811" d="M 150.5,340.5 C 151.493,349.318 151.827,358.318 151.5,367.5C 151.689,388.907 152.856,410.24 155,431.5C 156.097,420.889 156.931,410.222 157.5,399.5C 158.33,405.138 158.83,410.804 159,416.5C 161.74,417.282 164.574,417.782 167.5,418C 164.833,418.333 162.167,418.667 159.5,419C 163.167,419.333 166.833,419.667 170.5,420C 171.337,421.011 171.67,422.178 171.5,423.5C 172.833,423.5 174.167,423.5 175.5,423.5C 175.336,420.813 175.503,418.146 176,415.5C 177.577,418.675 179.41,419.009 181.5,416.5C 186.472,420.504 192.139,423.171 198.5,424.5C 200.02,426.662 201.02,428.995 201.5,431.5C 202.833,431.5 204.167,431.5 205.5,431.5C 207.279,441.412 213.279,445.412 223.5,443.5C 223.5,444.833 223.5,446.167 223.5,447.5C 218.533,446.962 213.866,447.629 209.5,449.5C 206.389,448.056 203.056,447.222 199.5,447C 197.811,444.493 195.478,442.993 192.5,442.5C 191.882,458.011 191.715,473.677 192,489.5C 198.554,493.594 201.054,499.594 199.5,507.5C 198.07,507.421 196.736,507.754 195.5,508.5C 192.078,505.71 191.411,505.877 193.5,509C 192.748,509.671 192.414,510.504 192.5,511.5C 178.167,511.5 163.833,511.5 149.5,511.5C 149.5,474.167 149.5,436.833 149.5,399.5C 150.497,380.007 150.83,360.34 150.5,340.5 Z"/></g>
<g><path style="opacity:1" fill="#435a66" d="M 74.5,433.5 C 76.2453,437.2 77.2453,441.2 77.5,445.5C 76.8826,445.389 76.3826,445.056 76,444.5C 75.4518,440.83 74.9518,437.163 74.5,433.5 Z"/></g>
<g><path style="opacity:1" fill="#4d2814" d="M 209.5,449.5 C 211.873,470.083 212.873,490.75 212.5,511.5C 205.833,511.5 199.167,511.5 192.5,511.5C 192.414,510.504 192.748,509.671 193.5,509C 191.411,505.877 192.078,505.71 195.5,508.5C 196.736,507.754 198.07,507.421 199.5,507.5C 201.054,499.594 198.554,493.594 192,489.5C 191.715,473.677 191.882,458.011 192.5,442.5C 195.478,442.993 197.811,444.493 199.5,447C 203.056,447.222 206.389,448.056 209.5,449.5 Z"/></g>
<g><path style="opacity:1" fill="#140e09" d="M 293.5,447.5 C 294.833,447.5 296.167,447.5 297.5,447.5C 295.444,449.202 293.11,450.535 290.5,451.5C 278.018,450.862 265.518,450.529 253,450.5C 240.433,450.362 227.933,450.862 215.5,452C 217.973,453.925 217.973,455.758 215.5,457.5C 216.969,460.125 217.635,462.958 217.5,466C 215.069,481.059 214.069,496.226 214.5,511.5C 214.167,511.5 213.833,511.5 213.5,511.5C 213.27,496.485 213.603,481.485 214.5,466.5C 214.458,461.454 213.458,456.621 211.5,452C 211.645,451.228 211.978,450.561 212.5,450C 221.763,448.874 231.096,448.374 240.5,448.5C 257.503,449.026 274.503,449.193 291.5,449C 292.416,448.722 293.082,448.222 293.5,447.5 Z"/></g>
<g><path style="opacity:1" fill="#415965" d="M 77.5,446.5 C 79.4527,452.556 80.4527,458.889 80.5,465.5C 79.6618,465.158 79.3284,464.492 79.5,463.5C 78.1033,457.93 77.4366,452.264 77.5,446.5 Z"/></g>
<g><path style="opacity:1" fill="#392619" d="M 223.5,447.5 C 225.833,447.5 228.167,447.5 230.5,447.5C 251.524,447.859 272.524,447.859 293.5,447.5C 293.082,448.222 292.416,448.722 291.5,449C 274.503,449.193 257.503,449.026 240.5,448.5C 231.096,448.374 221.763,448.874 212.5,450C 211.978,450.561 211.645,451.228 211.5,452C 213.458,456.621 214.458,461.454 214.5,466.5C 213.603,481.485 213.27,496.485 213.5,511.5C 213.167,511.5 212.833,511.5 212.5,511.5C 212.873,490.75 211.873,470.083 209.5,449.5C 213.866,447.629 218.533,446.962 223.5,447.5 Z"/></g>
<g><path style="opacity:1" fill="#050a0f" d="M 399.5,449.5 C 396.516,452.326 393.183,454.659 389.5,456.5C 385.052,458.227 381.052,460.727 377.5,464C 369.534,472.809 360.868,480.642 351.5,487.5C 348.602,488.118 345.935,489.285 343.5,491C 342.663,492.011 342.33,493.178 342.5,494.5C 341.145,499.504 342.478,503.837 346.5,507.5C 347.339,509.384 348.672,510.717 350.5,511.5C 342.833,511.5 335.167,511.5 327.5,511.5C 326.391,510.71 325.058,510.21 323.5,510C 325.594,508.648 327.927,508.148 330.5,508.5C 331.131,504.196 331.631,499.863 332,495.5C 335.147,491.794 336.313,487.461 335.5,482.5C 336.5,482.5 337.5,482.5 338.5,482.5C 338.5,481.5 338.5,480.5 338.5,479.5C 340.144,479.714 341.644,479.38 343,478.5C 342.102,477.84 341.768,476.507 342,474.5C 343.772,469.786 346.272,465.619 349.5,462C 355.274,463.299 361.274,463.799 367.5,463.5C 367.628,466.774 368.961,466.941 371.5,464C 369.956,463.71 368.623,463.044 367.5,462C 370.232,461.587 372.899,460.92 375.5,460C 379.245,456.897 383.412,454.731 388,453.5C 388.333,453.833 388.667,454.167 389,454.5C 391.486,450.168 394.986,448.501 399.5,449.5 Z"/></g>
<g><path style="opacity:1" fill="#618396" d="M 389.5,456.5 C 388.884,458.417 387.55,459.584 385.5,460C 388.167,461 388.167,462 385.5,463C 385.833,463.333 386.167,463.667 386.5,464C 385.437,465.188 384.103,465.688 382.5,465.5C 381.697,468.668 380.364,471.668 378.5,474.5C 379.668,476.217 381.335,476.884 383.5,476.5C 383.5,474.833 383.5,473.167 383.5,471.5C 388.833,471.5 394.167,471.5 399.5,471.5C 399.5,474.167 399.5,476.833 399.5,479.5C 398.167,479.5 396.833,479.5 395.5,479.5C 395.5,484.833 395.5,490.167 395.5,495.5C 396.675,495.281 397.675,495.614 398.5,496.5C 396.47,498.607 394.303,500.607 392,502.5C 391.517,503.448 391.351,504.448 391.5,505.5C 383.5,505.5 375.5,505.5 367.5,505.5C 367.5,506.5 367.5,507.5 367.5,508.5C 363.641,508.374 360.308,507.041 357.5,504.5C 357.002,505.603 356.669,506.603 356.5,507.5C 355.692,507.192 355.025,506.692 354.5,506C 355.451,505.282 355.617,504.449 355,503.5C 353.691,505.891 352.691,505.891 352,503.5C 351,503.833 350,504.167 349,504.5C 346.607,502.381 345.274,499.715 345,496.5C 344.413,500.31 344.913,503.977 346.5,507.5C 342.478,503.837 341.145,499.504 342.5,494.5C 345.687,492.341 348.687,490.007 351.5,487.5C 360.868,480.642 369.534,472.809 377.5,464C 381.052,460.727 385.052,458.227 389.5,456.5 Z"/></g>
<g><path style="opacity:1" fill="#465e6b" d="M 80.5,465.5 C 81.9715,469.919 82.6382,474.586 82.5,479.5C 80.8958,475.1 80.2291,470.434 80.5,465.5 Z"/></g>
<g><path style="opacity:1" fill="#374956" d="M 351.5,487.5 C 348.687,490.007 345.687,492.341 342.5,494.5C 342.33,493.178 342.663,492.011 343.5,491C 345.935,489.285 348.602,488.118 351.5,487.5 Z"/></g>
<g><path style="opacity:1" fill="#4d6370" d="M 82.5,479.5 C 85.7494,489.795 87.0827,500.461 86.5,511.5C 85.8333,511.5 85.1667,511.5 84.5,511.5C 84.5,506.167 84.5,500.833 84.5,495.5C 83.1851,490.256 82.5185,484.923 82.5,479.5 Z"/></g>
</svg>
