<?xml version="1.0" encoding="UTF-8"?>
<!DOCTYPE svg PUBLIC "-//W3C//DTD SVG 1.1//EN" "http://www.w3.org/Graphics/SVG/1.1/DTD/svg11.dtd">
<svg xmlns="http://www.w3.org/2000/svg" version="1.1" width="512px" height="512px" style="shape-rendering:geometricPrecision; text-rendering:geometricPrecision; image-rendering:optimizeQuality; fill-rule:evenodd; clip-rule:evenodd" xmlns:xlink="http://www.w3.org/1999/xlink">
<g><path style="opacity:1" fill="#5f8192" d="M -0.5,-0.5 C 170.167,-0.5 340.833,-0.5 511.5,-0.5C 511.5,170.167 511.5,340.833 511.5,511.5C 429.167,511.5 346.833,511.5 264.5,511.5C 269.045,500.072 273.879,488.739 279,477.5C 279.977,475.26 280.477,472.927 280.5,470.5C 281.11,469.609 281.443,468.609 281.5,467.5C 283.401,465.204 285.734,463.371 288.5,462C 294.748,459.543 300.748,456.543 306.5,453C 311.377,448.613 316.044,443.946 320.5,439C 325.661,435.334 330.661,431.501 335.5,427.5C 337.048,427.179 337.715,426.179 337.5,424.5C 338.5,424.5 339.5,424.5 340.5,424.5C 340.965,420.601 341.632,416.767 342.5,413C 348.295,413.71 353.962,413.543 359.5,412.5C 360.167,412.5 360.5,412.167 360.5,411.5C 362.925,409.881 364.925,410.214 366.5,412.5C 368.733,414.217 368.733,416.217 366.5,418.5C 365.312,417.16 363.812,416.493 362,416.5C 356.59,416.899 351.423,418.065 346.5,420C 350.513,420.953 354.846,421.453 359.5,421.5C 364.919,421.467 369.919,418.967 374.5,414C 377.478,413.304 380.478,412.804 383.5,412.5C 383.483,409.009 384.983,406.342 388,404.5C 388.333,401.167 388.667,397.833 389,394.5C 391.114,391.494 392.447,388.16 393,384.5C 396.524,383.291 400.024,381.958 403.5,380.5C 408.358,381.715 413.192,381.715 418,380.5C 418.923,379.241 419.757,377.908 420.5,376.5C 422.156,378.022 423.323,377.689 424,375.5C 425.517,380.129 426.684,380.296 427.5,376C 426.972,373.119 426.306,370.285 425.5,367.5C 423.473,367.662 421.473,367.495 419.5,367C 419.081,363.725 417.747,360.891 415.5,358.5C 419.5,356.5 419.5,354.5 415.5,352.5C 416.689,351.571 418.022,351.238 419.5,351.5C 419.5,348.167 419.5,344.833 419.5,341.5C 423.099,341.738 423.433,340.738 420.5,338.5C 422.087,336.915 422.92,335.248 423,333.5C 423.414,333.957 423.914,334.291 424.5,334.5C 433.833,333.167 433.833,331.833 424.5,330.5C 424.167,330 423.833,329.5 423.5,329C 426.844,326.434 427.01,323.934 424,321.5C 423.667,321.833 423.333,322.167 423,322.5C 422.805,320.793 422.805,319.126 423,317.5C 422,316.167 421,316.167 420,317.5C 418.98,316.109 418.147,314.609 417.5,313C 420.907,311.261 423.24,308.594 424.5,305C 423.869,299.196 423.702,293.363 424,287.5C 420.489,283.515 421.323,280.848 426.5,279.5C 426.351,278.448 426.517,277.448 427,276.5C 428.512,275.743 429.846,274.743 431,273.5C 431.49,274.793 431.657,276.127 431.5,277.5C 434.167,277.5 436.833,277.5 439.5,277.5C 439.432,280.085 438.932,282.418 438,284.5C 438.333,284.833 438.667,285.167 439,285.5C 439.197,283.139 440.364,281.472 442.5,280.5C 441.799,277.679 440.799,275.012 439.5,272.5C 439.465,270.263 440.298,269.93 442,271.5C 445.29,269.866 445.29,268.199 442,266.5C 438.77,268.691 435.27,269.024 431.5,267.5C 434.086,266.52 436.753,266.187 439.5,266.5C 439.626,264.8 440.293,263.3 441.5,262C 440.677,259.04 439.344,258.873 437.5,261.5C 436.833,261.167 436.167,260.833 435.5,260.5C 436.5,259.833 437.5,259.167 438.5,258.5C 436.45,257.337 434.45,257.504 432.5,259C 433.696,259.654 433.696,260.154 432.5,260.5C 427.991,260.212 423.991,258.712 420.5,256C 421.448,255.517 422.448,255.351 423.5,255.5C 423.5,250.167 423.5,244.833 423.5,239.5C 421.799,239.034 420.299,239.034 419,239.5C 418.667,238.833 418.333,238.167 418,237.5C 415.692,238.877 414.192,240.877 413.5,243.5C 415.991,244.541 415.991,245.374 413.5,246C 414.731,247.183 414.731,248.349 413.5,249.5C 413.167,248.833 412.833,248.167 412.5,247.5C 411.667,248.5 410.833,249.5 410,250.5C 408.779,256.836 409.613,262.836 412.5,268.5C 412.137,269.183 411.804,269.85 411.5,270.5C 404.273,259.334 404.939,248.667 413.5,238.5C 414.643,238.092 415.643,237.425 416.5,236.5C 417.167,234.167 417.833,231.833 418.5,229.5C 418.154,228.304 417.654,228.304 417,229.5C 417.085,211.475 417.918,193.475 419.5,175.5C 420.747,169.37 421.414,163.037 421.5,156.5C 425.407,134.006 422.24,112.673 412,92.5C 406.5,87 401,81.5 395.5,76C 393.783,74.4412 391.783,73.6079 389.5,73.5C 389.759,75.9893 388.759,77.656 386.5,78.5C 383.15,78.665 379.817,78.4983 376.5,78C 376.833,77.6667 377.167,77.3333 377.5,77C 368.642,74.2616 359.642,72.095 350.5,70.5C 349.583,71.1272 348.583,71.4606 347.5,71.5C 344.193,70.9492 340.86,70.6159 337.5,70.5C 337.859,72.7659 337.192,74.5993 335.5,76C 321.5,76.3333 307.5,76.6667 293.5,77C 289.943,78.4079 286.276,79.4079 282.5,80C 273.074,80.5755 263.74,81.7422 254.5,83.5C 245.771,83.033 237.105,82.1996 228.5,81C 222.147,77.1566 216.147,72.8232 210.5,68C 207.029,65.9281 203.362,64.4281 199.5,63.5C 198.732,64.2625 198.232,65.2625 198,66.5C 195.737,63.3463 196.237,60.6796 199.5,58.5C 196.914,57.52 194.247,57.1866 191.5,57.5C 189.399,63.5489 186.066,64.0489 181.5,59C 177.591,59.3423 173.757,58.509 170,56.5C 168.513,57.2529 168.346,58.0862 169.5,59C 168.584,59.3742 167.75,59.8742 167,60.5C 162.847,57.5564 159.347,58.2231 156.5,62.5C 152.321,63.8713 148.321,64.8713 144.5,65.5C 141.794,64.1897 138.961,63.1897 136,62.5C 135.501,58.1794 135.334,53.8461 135.5,49.5C 133.08,49.7076 130.747,49.3742 128.5,48.5C 127.614,49.325 127.281,50.325 127.5,51.5C 130.957,51.6672 131.29,52.6672 128.5,54.5C 127.513,57.7683 127.18,61.1016 127.5,64.5C 118.612,66.6072 110.945,70.7739 104.5,77C 101.79,78.7468 98.7896,79.7468 95.5,80C 96.7932,80.49 98.1266,80.6567 99.5,80.5C 98.1667,84.1667 98.1667,87.8333 99.5,91.5C 98.1667,91.5 96.8333,91.5 95.5,91.5C 94.9013,96.7715 92.2347,99.4382 87.5,99.5C 88.7287,100.281 90.062,100.781 91.5,101C 89.1281,100.974 86.7947,101.808 84.5,103.5C 84.1021,106.731 83.1021,109.731 81.5,112.5C 82.9538,114.263 82.6204,115.597 80.5,116.5C 79.6816,113.893 79.1816,111.226 79,108.5C 75.8348,114.411 74.6681,120.745 75.5,127.5C 73.8333,127.5 72.1667,127.5 70.5,127.5C 69.3682,133.402 67.3682,138.902 64.5,144C 67.0515,145.516 66.7181,146.349 63.5,146.5C 63.188,150.675 63.8547,154.675 65.5,158.5C 64.3687,159.604 63.5354,159.271 63,157.5C 62.1729,158.662 61.3396,159.829 60.5,161C 59.9764,164.652 58.9764,168.152 57.5,171.5C 58.3691,174.997 57.8691,178.331 56,181.5C 56.1449,178.077 54.6449,176.077 51.5,175.5C 51.4301,180.608 52.0967,185.608 53.5,190.5C 52.9573,203.51 51.9573,216.51 50.5,229.5C 51.3025,237.029 52.4692,236.696 54,228.5C 54.3333,228.167 54.6667,227.833 55,227.5C 55.49,228.793 55.6567,230.127 55.5,231.5C 49.5742,252.245 54.4075,270.245 70,285.5C 77.9185,302.341 85.5852,319.341 93,336.5C 100.678,349.861 109.345,362.528 119,374.5C 123.5,378.333 128,382.167 132.5,386C 135.327,387.664 138.327,388.83 141.5,389.5C 144.928,390.424 148.261,391.758 151.5,393.5C 157.493,395.391 163.16,398.058 168.5,401.5C 169.209,402.404 170.209,402.737 171.5,402.5C 171.649,403.552 171.483,404.552 171,405.5C 169.414,404.624 167.914,403.624 166.5,402.5C 163.984,409.089 164.317,415.255 167.5,421C 167.366,441.211 166.366,461.545 164.5,482C 165.116,487.681 165.783,493.348 166.5,499C 164.894,503.012 164.228,507.179 164.5,511.5C 109.5,511.5 54.5,511.5 -0.5,511.5C -0.5,340.833 -0.5,170.167 -0.5,-0.5 Z"/></g>
<g><path style="opacity:1" fill="#5b7b8d" d="M 199.5,63.5 C 201.092,67.0286 202.426,70.6953 203.5,74.5C 195.214,71.3631 186.881,68.1964 178.5,65C 175.854,64.5026 173.187,64.3359 170.5,64.5C 171.085,72.9733 167.085,76.1399 158.5,74C 153.393,71.4645 148.06,69.6312 142.5,68.5C 142.756,70.7925 142.423,72.9592 141.5,75C 134.378,76.5309 127.378,78.5309 120.5,81C 115.5,84 110.5,87 105.5,90C 102.386,93.0598 99.8865,96.5598 98,100.5C 95,103.5 92,106.5 89,109.5C 85.14,119.553 80.4733,129.22 75,138.5C 70.4031,150.949 65.4031,163.282 60,175.5C 59.3333,178.833 58.6667,182.167 58,185.5C 57.6667,200.167 57.3333,214.833 57,229.5C 56.7216,230.416 56.2216,231.082 55.5,231.5C 55.6567,230.127 55.49,228.793 55,227.5C 54.6667,227.833 54.3333,228.167 54,228.5C 52.4692,236.696 51.3025,237.029 50.5,229.5C 51.9573,216.51 52.9573,203.51 53.5,190.5C 52.0967,185.608 51.4301,180.608 51.5,175.5C 54.6449,176.077 56.1449,178.077 56,181.5C 57.8691,178.331 58.3691,174.997 57.5,171.5C 58.9764,168.152 59.9764,164.652 60.5,161C 61.3396,159.829 62.1729,158.662 63,157.5C 63.5354,159.271 64.3687,159.604 65.5,158.5C 63.8547,154.675 63.188,150.675 63.5,146.5C 66.7181,146.349 67.0515,145.516 64.5,144C 67.3682,138.902 69.3682,133.402 70.5,127.5C 72.1667,127.5 73.8333,127.5 75.5,127.5C 74.6681,120.745 75.8348,114.411 79,108.5C 79.1816,111.226 79.6816,113.893 80.5,116.5C 82.6204,115.597 82.9538,114.263 81.5,112.5C 83.1021,109.731 84.1021,106.731 84.5,103.5C 86.7947,101.808 89.1281,100.974 91.5,101C 90.062,100.781 88.7287,100.281 87.5,99.5C 92.2347,99.4382 94.9013,96.7715 95.5,91.5C 96.8333,91.5 98.1667,91.5 99.5,91.5C 98.1667,87.8333 98.1667,84.1667 99.5,80.5C 98.1266,80.6567 96.7932,80.49 95.5,80C 98.7896,79.7468 101.79,78.7468 104.5,77C 110.945,70.7739 118.612,66.6072 127.5,64.5C 127.18,61.1016 127.513,57.7683 128.5,54.5C 131.29,52.6672 130.957,51.6672 127.5,51.5C 127.281,50.325 127.614,49.325 128.5,48.5C 130.747,49.3742 133.08,49.7076 135.5,49.5C 135.334,53.8461 135.501,58.1794 136,62.5C 138.961,63.1897 141.794,64.1897 144.5,65.5C 148.321,64.8713 152.321,63.8713 156.5,62.5C 159.347,58.2231 162.847,57.5564 167,60.5C 167.75,59.8742 168.584,59.3742 169.5,59C 168.346,58.0862 168.513,57.2529 170,56.5C 173.757,58.509 177.591,59.3423 181.5,59C 186.066,64.0489 189.399,63.5489 191.5,57.5C 194.247,57.1866 196.914,57.52 199.5,58.5C 196.237,60.6796 195.737,63.3463 198,66.5C 198.232,65.2625 198.732,64.2625 199.5,63.5 Z"/></g>
<g><path style="opacity:1" fill="#536d7c" d="M 386.5,78.5 C 386.389,79.1174 386.056,79.6174 385.5,80C 383.167,80.6667 380.833,80.6667 378.5,80C 367.889,77.7601 357.556,74.9267 347.5,71.5C 348.583,71.4606 349.583,71.1272 350.5,70.5C 359.642,72.095 368.642,74.2616 377.5,77C 377.167,77.3333 376.833,77.6667 376.5,78C 379.817,78.4983 383.15,78.665 386.5,78.5 Z"/></g>
<g><path style="opacity:1" fill="#02070b" d="M 199.5,63.5 C 203.362,64.4281 207.029,65.9281 210.5,68C 216.147,72.8232 222.147,77.1566 228.5,81C 237.105,82.1996 245.771,83.033 254.5,83.5C 263.74,81.7422 273.074,80.5755 282.5,80C 286.276,79.4079 289.943,78.4079 293.5,77C 307.5,76.6667 321.5,76.3333 335.5,76C 337.192,74.5993 337.859,72.7659 337.5,70.5C 340.86,70.6159 344.193,70.9492 347.5,71.5C 357.556,74.9267 367.889,77.7601 378.5,80C 380.833,80.6667 383.167,80.6667 385.5,80C 386.056,79.6174 386.389,79.1174 386.5,78.5C 388.759,77.656 389.759,75.9893 389.5,73.5C 391.783,73.6079 393.783,74.4412 395.5,76C 401,81.5 406.5,87 412,92.5C 422.24,112.673 425.407,134.006 421.5,156.5C 420.004,162.605 419.337,168.938 419.5,175.5C 417.362,184.583 416.029,193.916 415.5,203.5C 414.199,206.791 413.199,210.291 412.5,214C 413.312,219.574 413.479,225.074 413,230.5C 410.69,233.075 409.857,235.909 410.5,239C 409.5,239.333 408.5,239.667 407.5,240C 407.833,240.333 408.167,240.667 408.5,241C 406.578,242.46 405.911,244.127 406.5,246C 403.427,252.031 401.927,258.531 402,265.5C 401.333,264.833 400.667,264.167 400,263.5C 399.163,268.146 399.663,272.646 401.5,277C 399.7,280.264 399.2,283.764 400,287.5C 400.915,286.672 401.581,285.672 402,284.5C 401.821,291.26 400.821,297.927 399,304.5C 396.393,309.549 393.893,314.716 391.5,320C 392.249,321.734 392.749,323.567 393,325.5C 393.654,324.304 394.154,324.304 394.5,325.5C 393.902,326.795 393.402,328.128 393,329.5C 391.334,328.66 391.167,329.16 392.5,331C 390.251,331.863 388.418,331.363 387,329.5C 387.582,336.834 387.415,344.167 386.5,351.5C 386.188,347.256 386.021,342.589 386,337.5C 385.667,336.5 385.333,335.5 385,334.5C 384.333,335.833 383.667,335.833 383,334.5C 382.605,336.179 382.772,337.845 383.5,339.5C 380.023,345.824 379.356,352.324 381.5,359C 378.566,365.521 376.733,372.354 376,379.5C 375.333,378.167 374.667,378.167 374,379.5C 373.299,382.928 373.632,386.262 375,389.5C 375.75,390.126 376.584,390.626 377.5,391C 376.289,392.113 376.289,393.28 377.5,394.5C 376.349,395.731 375.183,395.731 374,394.5C 372.933,395.943 371.766,397.276 370.5,398.5C 371.5,399.167 372.5,399.833 373.5,400.5C 372.423,402.729 371.756,405.063 371.5,407.5C 369.279,408.292 367.279,408.626 365.5,408.5C 363.067,408.273 361.401,409.273 360.5,411.5C 360.5,412.167 360.167,412.5 359.5,412.5C 355.531,411.485 351.531,411.485 347.5,412.5C 348.176,408.486 346.843,405.486 343.5,403.5C 342.914,403.709 342.414,404.043 342,404.5C 340.611,412.426 338.444,420.092 335.5,427.5C 330.661,431.501 325.661,435.334 320.5,439C 316.044,443.946 311.377,448.613 306.5,453C 300.748,456.543 294.748,459.543 288.5,462C 285.734,463.371 283.401,465.204 281.5,467.5C 280.292,466.766 278.959,466.433 277.5,466.5C 276.571,465.685 275.571,464.852 274.5,464C 277.731,462.773 280.731,461.106 283.5,459C 287.462,459.126 290.795,457.792 293.5,455C 300.281,454.871 304.781,451.705 307,445.5C 313.73,438.024 320.897,431.024 328.5,424.5C 329.452,422.955 329.785,421.288 329.5,419.5C 329.833,418.167 330.167,416.833 330.5,415.5C 332.156,410.182 333.822,404.849 335.5,399.5C 336.978,398.03 338.311,396.363 339.5,394.5C 340.489,390.893 340.823,387.226 340.5,383.5C 340.877,372.493 341.877,361.493 343.5,350.5C 342.425,347.562 342.259,344.562 343,341.5C 344.044,349.488 345.044,357.488 346,365.5C 347.637,358.691 347.804,351.858 346.5,345C 346.796,343.112 347.296,341.278 348,339.5C 348.651,341.235 348.485,342.902 347.5,344.5C 349.728,351.982 350.894,359.648 351,367.5C 351.499,362.177 351.666,356.844 351.5,351.5C 354.167,351.5 356.833,351.5 359.5,351.5C 359.71,357.966 360.377,357.966 361.5,351.5C 363.5,351.5 365.5,351.5 367.5,351.5C 367.343,350.127 367.51,348.793 368,347.5C 370.97,348.574 372.803,347.407 373.5,344C 372.439,342.151 371.773,340.151 371.5,338C 371.151,334.535 371.651,331.035 373,327.5C 373.667,328.167 374.333,328.833 375,329.5C 375.71,328.027 376.876,327.36 378.5,327.5C 378.16,324.856 378.827,322.523 380.5,320.5C 379.546,314.896 379.212,309.229 379.5,303.5C 380.833,303.5 382.167,303.5 383.5,303.5C 383.172,298.125 383.505,292.792 384.5,287.5C 385.541,289.991 386.374,289.991 387,287.5C 387.499,282.177 387.666,276.844 387.5,271.5C 388.833,271.5 390.167,271.5 391.5,271.5C 391.395,267.313 392.228,263.313 394,259.5C 394.5,252.842 394.666,246.175 394.5,239.5C 396.167,239.5 397.833,239.5 399.5,239.5C 399.159,234.372 400.159,229.539 402.5,225C 402.006,223.538 401.673,222.038 401.5,220.5C 402.199,214.52 402.699,208.52 403,202.5C 403.202,204.256 403.702,205.922 404.5,207.5C 404.833,206.667 405.167,205.833 405.5,205C 404.614,202.192 404.447,199.359 405,196.5C 407.684,192.263 408.85,187.763 408.5,183C 411.762,174.526 413.595,165.693 414,156.5C 414.986,144.019 414.152,131.685 411.5,119.5C 410.5,119.5 409.5,119.5 408.5,119.5C 408.657,118.127 408.49,116.793 408,115.5C 407.667,115.833 407.333,116.167 407,116.5C 406.193,114.423 405.026,112.589 403.5,111C 404.328,110.085 405.328,109.419 406.5,109C 404.231,108.242 402.064,108.409 400,109.5C 399.667,108.167 399.333,106.833 399,105.5C 394.237,103.738 391.237,100.404 390,95.5C 388.088,94.3081 386.088,93.3081 384,92.5C 383.51,91.2068 383.343,89.8734 383.5,88.5C 380.215,88.1073 377.382,86.7739 375,84.5C 369.165,87.262 369.332,88.762 375.5,89C 372.854,89.4974 370.187,89.6641 367.5,89.5C 367.67,88.1779 367.337,87.0113 366.5,86C 363.833,85.8333 361.167,85.6667 358.5,85.5C 339.845,86.3743 321.179,86.3743 302.5,85.5C 298.167,86.6667 293.833,87.8333 289.5,89C 288.23,89.8996 287.23,91.0663 286.5,92.5C 283.436,91.8788 280.436,91.0454 277.5,90C 278.328,89.0853 279.328,88.4186 280.5,88C 280,87.5 279.5,87 279,86.5C 276.619,87.435 274.119,87.7683 271.5,87.5C 271.5,88.5 271.5,89.5 271.5,90.5C 266.13,90.6079 260.797,90.2745 255.5,89.5C 255.5,90.5 255.5,91.5 255.5,92.5C 249.292,93.2604 243.126,94.2604 237,95.5C 235.167,95.3333 233.333,95.1667 231.5,95C 234.053,94.2389 236.553,93.4056 239,92.5C 239.167,92.1667 239.333,91.8333 239.5,91.5C 238.271,90.7189 236.938,90.2189 235.5,90C 229.075,89.9589 222.742,90.7922 216.5,92.5C 212.257,89.9996 207.924,89.9996 203.5,92.5C 203.977,93.4776 204.643,94.3109 205.5,95C 205,95.1667 204.5,95.3333 204,95.5C 202.674,94.2011 201.34,92.8678 200,91.5C 197.282,92.0126 194.449,92.0126 191.5,91.5C 191.5,92.8333 191.5,94.1667 191.5,95.5C 188.5,95.5 185.5,95.5 182.5,95.5C 182.703,93.6096 182.037,92.1096 180.5,91C 178.616,90.7837 176.949,90.117 175.5,89C 164.924,88.9644 154.258,88.7977 143.5,88.5C 143.5,90.8333 143.5,93.1667 143.5,95.5C 138.167,95.5 132.833,95.5 127.5,95.5C 127.719,96.675 127.386,97.675 126.5,98.5C 123.204,99.7653 119.871,100.932 116.5,102C 112.284,102.382 108.451,101.882 105,100.5C 103.702,102.265 102.536,104.099 101.5,106C 102.996,107.331 104.329,108.831 105.5,110.5C 104.726,111.711 103.893,111.711 103,110.5C 101.667,113.833 99.3333,116.167 96,117.5C 96.1649,122.384 94.8316,126.718 92,130.5C 91.2801,128.745 90.1134,127.911 88.5,128C 87.898,130.036 86.898,131.87 85.5,133.5C 88.1306,135.005 87.7973,135.671 84.5,135.5C 84.3433,136.873 84.51,138.207 85,139.5C 86.4866,140.155 87.6533,141.155 88.5,142.5C 81.4045,144.252 76.4045,148.586 73.5,155.5C 74.9814,156.48 76.3147,157.647 77.5,159C 76.4844,159.519 75.8178,160.353 75.5,161.5C 76.668,166.161 76.668,170.828 75.5,175.5C 74.1667,175.5 72.8333,175.5 71.5,175.5C 71.6053,179.687 70.772,183.687 69,187.5C 67.1674,210.187 67.5007,232.854 70,255.5C 70.7465,259.132 72.5799,261.966 75.5,264C 75.0426,264.414 74.7093,264.914 74.5,265.5C 75.7472,267.323 76.4139,269.323 76.5,271.5C 78.5,271.5 80.5,271.5 82.5,271.5C 83.7018,281.246 85.3684,290.912 87.5,300.5C 87.2908,301.994 86.6241,303.161 85.5,304C 87.2175,308.746 88.2175,308.579 88.5,303.5C 89.5,303.5 90.5,303.5 91.5,303.5C 93.897,310.123 95.5636,317.123 96.5,324.5C 99.5043,327.166 101.504,330.499 102.5,334.5C 103.689,335.429 105.022,335.762 106.5,335.5C 106.726,340.584 109.226,344.251 114,346.5C 115.96,349.585 117.793,352.752 119.5,356C 125.433,360.133 131.766,363.466 138.5,366C 138.833,367 139.167,368 139.5,369C 144.236,369.684 148.903,370.684 153.5,372C 156.967,373.654 160.467,375.154 164,376.5C 165,375.833 166,375.167 167,374.5C 167.696,377.478 168.196,380.478 168.5,383.5C 167.5,383.5 166.5,383.5 165.5,383.5C 165.491,385.308 165.991,386.975 167,388.5C 167.902,386.569 169.069,384.903 170.5,383.5C 171.219,385.764 171.552,388.097 171.5,390.5C 171.5,394.167 171.5,397.833 171.5,401.5C 170.5,401.5 169.5,401.5 168.5,401.5C 163.16,398.058 157.493,395.391 151.5,393.5C 149.291,389.396 145.957,388.063 141.5,389.5C 138.327,388.83 135.327,387.664 132.5,386C 128,382.167 123.5,378.333 119,374.5C 109.345,362.528 100.678,349.861 93,336.5C 85.5852,319.341 77.9185,302.341 70,285.5C 54.4075,270.245 49.5742,252.245 55.5,231.5C 56.2216,231.082 56.7216,230.416 57,229.5C 57.3333,214.833 57.6667,200.167 58,185.5C 58.6667,182.167 59.3333,178.833 60,175.5C 65.4031,163.282 70.4031,150.949 75,138.5C 80.4733,129.22 85.14,119.553 89,109.5C 92,106.5 95,103.5 98,100.5C 99.8865,96.5598 102.386,93.0598 105.5,90C 110.5,87 115.5,84 120.5,81C 127.378,78.5309 134.378,76.5309 141.5,75C 142.423,72.9592 142.756,70.7925 142.5,68.5C 148.06,69.6312 153.393,71.4645 158.5,74C 167.085,76.1399 171.085,72.9733 170.5,64.5C 173.187,64.3359 175.854,64.5026 178.5,65C 186.881,68.1964 195.214,71.3631 203.5,74.5C 202.426,70.6953 201.092,67.0286 199.5,63.5 Z"/></g>
<g><path style="opacity:1" fill="#010101" d="M 340.5,383.5 C 340.5,367.5 340.5,351.5 340.5,335.5C 341.737,318.322 341.737,300.989 340.5,283.5C 340.5,281.167 340.5,278.833 340.5,276.5C 338.486,276.392 336.82,277.058 335.5,278.5C 334.5,278.5 333.5,278.5 332.5,278.5C 331.961,275.305 332.961,272.805 335.5,271C 333.109,270.309 333.109,269.309 335.5,268C 333.642,265.976 331.975,263.809 330.5,261.5C 332.287,260.684 333.954,259.684 335.5,258.5C 338.816,260.171 340.816,259.171 341.5,255.5C 341.5,249.5 341.5,243.5 341.5,237.5C 342.912,235.396 343.912,233.063 344.5,230.5C 341.892,230.4 339.558,231.067 337.5,232.5C 333.167,232.5 328.833,232.5 324.5,232.5C 324.663,230.143 324.497,227.81 324,225.5C 323.292,224.619 322.458,223.953 321.5,223.5C 320.375,220.872 318.375,220.039 315.5,221C 311.91,222.53 308.243,223.864 304.5,225C 298.998,228.585 293.331,231.919 287.5,235C 285.527,235.495 283.527,235.662 281.5,235.5C 279.709,234.609 277.876,233.609 276,232.5C 275.51,231.207 275.343,229.873 275.5,228.5C 283.208,221.457 291.208,214.79 299.5,208.5C 305.212,205.046 304.545,203.712 297.5,204.5C 291.795,204.402 286.795,206.068 282.5,209.5C 279.518,209.963 276.518,210.296 273.5,210.5C 266.49,210.332 259.49,209.999 252.5,209.5C 251.5,209.5 250.5,209.5 249.5,209.5C 247.485,208.076 245.152,207.41 242.5,207.5C 241.5,207.5 240.5,207.5 239.5,207.5C 237.898,205.926 235.898,205.259 233.5,205.5C 233.157,207.483 233.824,208.817 235.5,209.5C 236.032,215.152 236.365,220.819 236.5,226.5C 230.834,224.474 225.167,222.14 219.5,219.5C 216.627,217.087 213.294,215.42 209.5,214.5C 205.781,212.702 201.781,212.202 197.5,213C 191.323,216.654 187.323,221.821 185.5,228.5C 187.5,228.833 189.5,229.167 191.5,229.5C 196.799,230.992 202.132,232.492 207.5,234C 211.323,235.641 213.323,238.474 213.5,242.5C 209.5,242.5 205.5,242.5 201.5,242.5C 200.167,242.5 198.833,242.5 197.5,242.5C 192.833,242.5 188.167,242.5 183.5,242.5C 181.052,241.527 178.385,241.194 175.5,241.5C 174.817,239.824 173.483,239.157 171.5,239.5C 170.791,238.596 169.791,238.263 168.5,238.5C 168.907,244.161 169.24,249.828 169.5,255.5C 168.952,279.694 168.618,303.527 168.5,327C 169.983,342.082 170.983,357.248 171.5,372.5C 171.318,376.27 170.984,379.936 170.5,383.5C 169.069,384.903 167.902,386.569 167,388.5C 165.991,386.975 165.491,385.308 165.5,383.5C 166.5,383.5 167.5,383.5 168.5,383.5C 168.196,380.478 167.696,377.478 167,374.5C 166,375.167 165,375.833 164,376.5C 160.467,375.154 156.967,373.654 153.5,372C 148.903,370.684 144.236,369.684 139.5,369C 139.167,368 138.833,367 138.5,366C 131.766,363.466 125.433,360.133 119.5,356C 117.793,352.752 115.96,349.585 114,346.5C 109.226,344.251 106.726,340.584 106.5,335.5C 105.022,335.762 103.689,335.429 102.5,334.5C 101.504,330.499 99.5043,327.166 96.5,324.5C 95.5636,317.123 93.897,310.123 91.5,303.5C 90.5,303.5 89.5,303.5 88.5,303.5C 88.2175,308.579 87.2175,308.746 85.5,304C 86.6241,303.161 87.2908,301.994 87.5,300.5C 85.3684,290.912 83.7018,281.246 82.5,271.5C 80.5,271.5 78.5,271.5 76.5,271.5C 76.4139,269.323 75.7472,267.323 74.5,265.5C 74.7093,264.914 75.0426,264.414 75.5,264C 72.5799,261.966 70.7465,259.132 70,255.5C 67.5007,232.854 67.1674,210.187 69,187.5C 70.772,183.687 71.6053,179.687 71.5,175.5C 72.8333,175.5 74.1667,175.5 75.5,175.5C 76.668,170.828 76.668,166.161 75.5,161.5C 75.8178,160.353 76.4844,159.519 77.5,159C 76.3147,157.647 74.9814,156.48 73.5,155.5C 76.4045,148.586 81.4045,144.252 88.5,142.5C 87.6533,141.155 86.4866,140.155 85,139.5C 84.51,138.207 84.3433,136.873 84.5,135.5C 87.7973,135.671 88.1306,135.005 85.5,133.5C 86.898,131.87 87.898,130.036 88.5,128C 90.1134,127.911 91.2801,128.745 92,130.5C 94.8316,126.718 96.1649,122.384 96,117.5C 99.3333,116.167 101.667,113.833 103,110.5C 103.893,111.711 104.726,111.711 105.5,110.5C 104.329,108.831 102.996,107.331 101.5,106C 102.536,104.099 103.702,102.265 105,100.5C 108.451,101.882 112.284,102.382 116.5,102C 119.871,100.932 123.204,99.7653 126.5,98.5C 127.386,97.675 127.719,96.675 127.5,95.5C 132.833,95.5 138.167,95.5 143.5,95.5C 143.5,93.1667 143.5,90.8333 143.5,88.5C 154.258,88.7977 164.924,88.9644 175.5,89C 176.949,90.117 178.616,90.7837 180.5,91C 182.037,92.1096 182.703,93.6096 182.5,95.5C 185.5,95.5 188.5,95.5 191.5,95.5C 191.5,94.1667 191.5,92.8333 191.5,91.5C 194.449,92.0126 197.282,92.0126 200,91.5C 201.34,92.8678 202.674,94.2011 204,95.5C 204.5,95.3333 205,95.1667 205.5,95C 204.643,94.3109 203.977,93.4776 203.5,92.5C 207.924,89.9996 212.257,89.9996 216.5,92.5C 222.742,90.7922 229.075,89.9589 235.5,90C 236.938,90.2189 238.271,90.7189 239.5,91.5C 239.333,91.8333 239.167,92.1667 239,92.5C 236.553,93.4056 234.053,94.2389 231.5,95C 233.333,95.1667 235.167,95.3333 237,95.5C 243.126,94.2604 249.292,93.2604 255.5,92.5C 255.5,91.5 255.5,90.5 255.5,89.5C 260.797,90.2745 266.13,90.6079 271.5,90.5C 271.5,89.5 271.5,88.5 271.5,87.5C 274.119,87.7683 276.619,87.435 279,86.5C 279.5,87 280,87.5 280.5,88C 279.328,88.4186 278.328,89.0853 277.5,90C 280.436,91.0454 283.436,91.8788 286.5,92.5C 287.23,91.0663 288.23,89.8996 289.5,89C 293.833,87.8333 298.167,86.6667 302.5,85.5C 321.179,86.3743 339.845,86.3743 358.5,85.5C 361.167,85.6667 363.833,85.8333 366.5,86C 367.337,87.0113 367.67,88.1779 367.5,89.5C 370.187,89.6641 372.854,89.4974 375.5,89C 369.332,88.762 369.165,87.262 375,84.5C 377.382,86.7739 380.215,88.1073 383.5,88.5C 383.343,89.8734 383.51,91.2068 384,92.5C 386.088,93.3081 388.088,94.3081 390,95.5C 391.237,100.404 394.237,103.738 399,105.5C 399.333,106.833 399.667,108.167 400,109.5C 402.064,108.409 404.231,108.242 406.5,109C 405.328,109.419 404.328,110.085 403.5,111C 405.026,112.589 406.193,114.423 407,116.5C 407.333,116.167 407.667,115.833 408,115.5C 408.49,116.793 408.657,118.127 408.5,119.5C 409.5,119.5 410.5,119.5 411.5,119.5C 414.152,131.685 414.986,144.019 414,156.5C 413.595,165.693 411.762,174.526 408.5,183C 408.85,187.763 407.684,192.263 405,196.5C 404.447,199.359 404.614,202.192 405.5,205C 405.167,205.833 404.833,206.667 404.5,207.5C 403.702,205.922 403.202,204.256 403,202.5C 402.699,208.52 402.199,214.52 401.5,220.5C 401.673,222.038 402.006,223.538 402.5,225C 400.159,229.539 399.159,234.372 399.5,239.5C 397.833,239.5 396.167,239.5 394.5,239.5C 394.666,246.175 394.5,252.842 394,259.5C 392.228,263.313 391.395,267.313 391.5,271.5C 390.167,271.5 388.833,271.5 387.5,271.5C 387.666,276.844 387.499,282.177 387,287.5C 386.374,289.991 385.541,289.991 384.5,287.5C 383.505,292.792 383.172,298.125 383.5,303.5C 382.167,303.5 380.833,303.5 379.5,303.5C 379.212,309.229 379.546,314.896 380.5,320.5C 378.827,322.523 378.16,324.856 378.5,327.5C 376.876,327.36 375.71,328.027 375,329.5C 374.333,328.833 373.667,328.167 373,327.5C 371.651,331.035 371.151,334.535 371.5,338C 371.773,340.151 372.439,342.151 373.5,344C 372.803,347.407 370.97,348.574 368,347.5C 367.51,348.793 367.343,350.127 367.5,351.5C 365.5,351.5 363.5,351.5 361.5,351.5C 360.377,357.966 359.71,357.966 359.5,351.5C 356.833,351.5 354.167,351.5 351.5,351.5C 351.666,356.844 351.499,362.177 351,367.5C 350.894,359.648 349.728,351.982 347.5,344.5C 348.485,342.902 348.651,341.235 348,339.5C 347.296,341.278 346.796,343.112 346.5,345C 347.804,351.858 347.637,358.691 346,365.5C 345.044,357.488 344.044,349.488 343,341.5C 342.259,344.562 342.425,347.562 343.5,350.5C 341.877,361.493 340.877,372.493 340.5,383.5 Z"/></g>
<g><path style="opacity:1" fill="#3d5867" d="M 421.5,156.5 C 421.414,163.037 420.747,169.37 419.5,175.5C 419.337,168.938 420.004,162.605 421.5,156.5 Z"/></g>
<g><path style="opacity:1" fill="#4d6c7f" d="M 419.5,175.5 C 417.918,193.475 417.085,211.475 417,229.5C 417.654,228.304 418.154,228.304 418.5,229.5C 417.833,231.833 417.167,234.167 416.5,236.5C 415.643,237.425 414.643,238.092 413.5,238.5C 413.892,236.821 414.392,235.154 415,233.5C 415.5,223.506 415.666,213.506 415.5,203.5C 416.029,193.916 417.362,184.583 419.5,175.5 Z"/></g>
<g><path style="opacity:1" fill="#452d18" d="M 297.5,204.5 C 304.545,203.712 305.212,205.046 299.5,208.5C 299.473,206.801 298.806,205.467 297.5,204.5 Z"/></g>
<g><path style="opacity:1" fill="#3a2114" d="M 242.5,207.5 C 245.152,207.41 247.485,208.076 249.5,209.5C 246.848,209.59 244.515,208.924 242.5,207.5 Z"/></g>
<g><path style="opacity:1" fill="#82532a" d="M 239.5,207.5 C 240.5,207.5 241.5,207.5 242.5,207.5C 244.515,208.924 246.848,209.59 249.5,209.5C 250.5,209.5 251.5,209.5 252.5,209.5C 259.27,211.075 266.27,211.741 273.5,211.5C 275.288,211.215 276.955,211.548 278.5,212.5C 272.246,213.965 265.913,214.965 259.5,215.5C 253.118,214.06 246.785,213.393 240.5,213.5C 239.719,214.729 239.219,216.062 239,217.5C 238.744,214.443 238.244,211.443 237.5,208.5C 237.957,207.702 238.624,207.369 239.5,207.5 Z"/></g>
<g><path style="opacity:1" fill="#784d28" d="M 297.5,204.5 C 298.806,205.467 299.473,206.801 299.5,208.5C 291.208,214.79 283.208,221.457 275.5,228.5C 274.141,229.007 273.141,230.007 272.5,231.5C 271.52,228.914 271.187,226.247 271.5,223.5C 276.992,224.178 277.659,223.011 273.5,220C 274.709,216.899 276.375,216.732 278.5,219.5C 280.526,218.63 281.859,217.13 282.5,215C 284.025,213.991 285.692,213.491 287.5,213.5C 287.798,210.664 287.131,210.164 285.5,212C 283.597,212.774 281.93,212.44 280.5,211C 281.416,210.722 282.082,210.222 282.5,209.5C 286.795,206.068 291.795,204.402 297.5,204.5 Z"/></g>
<g><path style="opacity:1" fill="#50392b" d="M 209.5,214.5 C 208.127,214.343 206.793,214.51 205.5,215C 207.56,216.493 207.893,218.326 206.5,220.5C 202.499,221.875 198.832,223.709 195.5,226C 194.207,226.49 192.873,226.657 191.5,226.5C 191.5,225.5 191.5,224.5 191.5,223.5C 190.5,223.5 189.5,223.5 188.5,223.5C 188.028,226.358 189.028,228.358 191.5,229.5C 189.5,229.167 187.5,228.833 185.5,228.5C 187.323,221.821 191.323,216.654 197.5,213C 201.781,212.202 205.781,212.702 209.5,214.5 Z"/></g>
<g><path style="opacity:1" fill="#6a4727" d="M 239.5,207.5 C 238.624,207.369 237.957,207.702 237.5,208.5C 238.244,211.443 238.744,214.443 239,217.5C 239.219,216.062 239.719,214.729 240.5,213.5C 246.785,213.393 253.118,214.06 259.5,215.5C 265.913,214.965 272.246,213.965 278.5,212.5C 276.955,211.548 275.288,211.215 273.5,211.5C 273.5,211.167 273.5,210.833 273.5,210.5C 276.518,210.296 279.518,209.963 282.5,209.5C 282.082,210.222 281.416,210.722 280.5,211C 281.93,212.44 283.597,212.774 285.5,212C 287.131,210.164 287.798,210.664 287.5,213.5C 285.692,213.491 284.025,213.991 282.5,215C 281.859,217.13 280.526,218.63 278.5,219.5C 276.375,216.732 274.709,216.899 273.5,220C 277.659,223.011 276.992,224.178 271.5,223.5C 271.187,226.247 271.52,228.914 272.5,231.5C 273.141,230.007 274.141,229.007 275.5,228.5C 275.343,229.873 275.51,231.207 276,232.5C 277.876,233.609 279.709,234.609 281.5,235.5C 281.97,236.693 282.97,237.36 284.5,237.5C 286.338,236.888 288.005,236.888 289.5,237.5C 287.827,239.086 285.827,239.753 283.5,239.5C 280.936,239.021 278.436,238.355 276,237.5C 275.667,238.167 275.333,238.833 275,239.5C 273.926,238.382 272.76,237.382 271.5,236.5C 271.709,235.914 272.043,235.414 272.5,235C 271.167,234 269.833,233 268.5,232C 257.776,231.634 248.276,228.801 240,223.5C 239.667,224.167 239.333,224.833 239,225.5C 238.042,220.877 237.375,216.21 237,211.5C 236.722,210.584 236.222,209.918 235.5,209.5C 233.824,208.817 233.157,207.483 233.5,205.5C 235.898,205.259 237.898,205.926 239.5,207.5 Z"/></g>
<g><path style="opacity:1" fill="#2b180c" d="M 252.5,209.5 C 259.49,209.999 266.49,210.332 273.5,210.5C 273.5,210.833 273.5,211.167 273.5,211.5C 266.27,211.741 259.27,211.075 252.5,209.5 Z"/></g>
<g><path style="opacity:1" fill="#614226" d="M 235.5,209.5 C 236.222,209.918 236.722,210.584 237,211.5C 237.375,216.21 238.042,220.877 239,225.5C 239.333,224.833 239.667,224.167 240,223.5C 248.276,228.801 257.776,231.634 268.5,232C 269.833,233 271.167,234 272.5,235C 272.043,235.414 271.709,235.914 271.5,236.5C 272.76,237.382 273.926,238.382 275,239.5C 275.333,238.833 275.667,238.167 276,237.5C 278.436,238.355 280.936,239.021 283.5,239.5C 283.739,241.467 283.406,243.301 282.5,245C 286.955,246.063 288.621,248.896 287.5,253.5C 285.058,253.646 284.391,252.813 285.5,251C 284.975,250.308 284.308,249.808 283.5,249.5C 282.769,251.401 282.769,253.401 283.5,255.5C 282.5,255.5 281.5,255.5 280.5,255.5C 280.224,258.719 278.891,261.385 276.5,263.5C 275.5,263.5 274.5,263.5 273.5,263.5C 273.719,262.325 273.386,261.325 272.5,260.5C 270.224,259.787 267.891,259.287 265.5,259C 262.955,254.954 259.622,251.787 255.5,249.5C 253.614,250.361 251.78,251.361 250,252.5C 247.538,247.743 245.705,242.743 244.5,237.5C 238.623,234.624 233.29,230.957 228.5,226.5C 222.73,224.116 217.064,221.449 211.5,218.5C 212.167,218.167 212.833,217.833 213.5,217.5C 215.516,218.178 217.516,218.844 219.5,219.5C 225.167,222.14 230.834,224.474 236.5,226.5C 236.365,220.819 236.032,215.152 235.5,209.5 Z"/></g>
<g><path style="opacity:1" fill="#392e27" d="M 321.5,223.5 C 322.458,223.953 323.292,224.619 324,225.5C 324.497,227.81 324.663,230.143 324.5,232.5C 328.833,232.5 333.167,232.5 337.5,232.5C 334.61,233.245 331.61,233.912 328.5,234.5C 326.516,234.484 325.516,235.484 325.5,237.5C 326.302,240.449 326.636,243.449 326.5,246.5C 324.167,246.5 321.833,246.5 319.5,246.5C 319.5,245.167 319.5,243.833 319.5,242.5C 317.5,242.5 315.5,242.5 313.5,242.5C 314.997,241.694 316.664,241.028 318.5,240.5C 319.429,239.311 319.762,237.978 319.5,236.5C 316.031,236.547 312.698,237.213 309.5,238.5C 313.063,235.902 316.897,233.568 321,231.5C 322.813,228.922 322.98,226.255 321.5,223.5 Z"/></g>
<g><path style="opacity:1" fill="#594029" d="M 228.5,226.5 C 233.29,230.957 238.623,234.624 244.5,237.5C 245.705,242.743 247.538,247.743 250,252.5C 251.78,251.361 253.614,250.361 255.5,249.5C 255.5,250.833 255.5,252.167 255.5,253.5C 252.428,253.183 249.428,253.516 246.5,254.5C 249.871,254.923 252.705,256.257 255,258.5C 255.157,261.516 253.657,263.183 250.5,263.5C 249.58,265.881 249.58,268.214 250.5,270.5C 249.311,271.429 247.978,271.762 246.5,271.5C 247.171,277.505 250.505,280.172 256.5,279.5C 256.253,285.541 256.586,291.541 257.5,297.5C 256.349,299.325 255.682,301.325 255.5,303.5C 251.154,303.334 246.821,303.501 242.5,304C 242.844,308.352 243.178,312.685 243.5,317C 243.293,319.924 241.96,322.09 239.5,323.5C 240.774,317.492 240.774,311.492 239.5,305.5C 239.5,303.833 239.5,302.167 239.5,300.5C 234.056,300.539 228.723,299.873 223.5,298.5C 223.5,297.5 223.5,296.5 223.5,295.5C 225.929,295.415 227.929,294.415 229.5,292.5C 227.766,290.766 225.766,289.432 223.5,288.5C 228.853,282.472 231.353,275.472 231,267.5C 229.647,268.685 228.48,270.019 227.5,271.5C 227.167,271 226.833,270.5 226.5,270C 227.419,265.219 227.752,260.385 227.5,255.5C 225.167,255.5 222.833,255.5 220.5,255.5C 220.701,252.235 219.534,249.569 217,247.5C 216.803,242.914 216.303,238.414 215.5,234C 218.181,235.113 220.847,236.613 223.5,238.5C 224.167,238.167 224.833,237.833 225.5,237.5C 227.087,235.049 229.087,233.049 231.5,231.5C 230.048,230.06 229.048,228.394 228.5,226.5 Z"/></g>
<g><path style="opacity:1" fill="#5e432e" d="M 321.5,223.5 C 322.98,226.255 322.813,228.922 321,231.5C 316.897,233.568 313.063,235.902 309.5,238.5C 308.391,238.557 307.391,238.89 306.5,239.5C 303.786,239.25 301.119,239.083 298.5,239C 299.022,239.561 299.355,240.228 299.5,241C 298.745,242.875 297.745,244.875 296.5,247C 296.833,247.333 297.167,247.667 297.5,248C 294.933,253.554 294.933,259.054 297.5,264.5C 297.547,266.038 296.88,267.038 295.5,267.5C 296.407,264.79 295.407,262.623 292.5,261C 290.874,261.195 289.207,261.195 287.5,261C 288.623,259.956 289.956,259.29 291.5,259C 290.359,258.259 290.359,257.425 291.5,256.5C 289.668,255.943 288.335,254.943 287.5,253.5C 288.621,248.896 286.955,246.063 282.5,245C 283.406,243.301 283.739,241.467 283.5,239.5C 285.827,239.753 287.827,239.086 289.5,237.5C 288.005,236.888 286.338,236.888 284.5,237.5C 282.97,237.36 281.97,236.693 281.5,235.5C 283.527,235.662 285.527,235.495 287.5,235C 293.331,231.919 298.998,228.585 304.5,225C 308.243,223.864 311.91,222.53 315.5,221C 318.375,220.039 320.375,220.872 321.5,223.5 Z"/></g>
<g><path style="opacity:1" fill="#17140f" d="M 313.5,242.5 C 310.314,242.895 307.314,243.895 304.5,245.5C 304.167,244.833 303.833,244.167 303.5,243.5C 304.286,241.959 305.286,240.626 306.5,239.5C 307.391,238.89 308.391,238.557 309.5,238.5C 312.698,237.213 316.031,236.547 319.5,236.5C 319.762,237.978 319.429,239.311 318.5,240.5C 316.664,241.028 314.997,241.694 313.5,242.5 Z"/></g>
<g><path style="opacity:1" fill="#5c4534" d="M 306.5,239.5 C 305.286,240.626 304.286,241.959 303.5,243.5C 303.833,244.167 304.167,244.833 304.5,245.5C 307.314,243.895 310.314,242.895 313.5,242.5C 315.5,242.5 317.5,242.5 319.5,242.5C 319.5,243.833 319.5,245.167 319.5,246.5C 321.833,246.5 324.167,246.5 326.5,246.5C 325.688,247.993 324.355,248.66 322.5,248.5C 319.669,248.672 318.002,247.339 317.5,244.5C 315.579,243.359 313.579,243.192 311.5,244C 309.329,246.094 307.329,248.428 305.5,251C 304.167,251.333 302.833,251.667 301.5,252C 300.994,254.044 300.661,256.044 300.5,258C 301.408,262.41 304.075,264.243 308.5,263.5C 306.833,264.167 305.167,264.833 303.5,265.5C 302.127,265.343 300.793,265.51 299.5,266C 297.27,268.118 295.603,270.618 294.5,273.5C 292.386,274.36 291.22,276.027 291,278.5C 290.502,281.482 290.335,284.482 290.5,287.5C 289.799,284.437 289.132,281.27 288.5,278C 291.681,275.112 291.681,272.778 288.5,271C 290.953,270.041 293.286,268.874 295.5,267.5C 296.88,267.038 297.547,266.038 297.5,264.5C 294.933,259.054 294.933,253.554 297.5,248C 297.167,247.667 296.833,247.333 296.5,247C 297.745,244.875 298.745,242.875 299.5,241C 299.355,240.228 299.022,239.561 298.5,239C 301.119,239.083 303.786,239.25 306.5,239.5 Z"/></g>
<g><path style="opacity:1" fill="#867569" d="M 183.5,242.5 C 188.167,242.5 192.833,242.5 197.5,242.5C 198.429,243.315 199.429,244.148 200.5,245C 198.021,247.67 195.021,249.17 191.5,249.5C 191.5,248.5 191.5,247.5 191.5,246.5C 187.74,247.226 185.073,245.893 183.5,242.5 Z"/></g>
<g><path style="opacity:1" fill="#6c5f55" d="M 197.5,242.5 C 198.833,242.5 200.167,242.5 201.5,242.5C 208.461,243.136 210.127,246.469 206.5,252.5C 205.354,253.145 204.354,253.978 203.5,255C 205.132,256.31 206.799,256.81 208.5,256.5C 209.386,257.325 209.719,258.325 209.5,259.5C 203.5,259.167 197.5,258.833 191.5,258.5C 190.5,258.5 189.5,258.5 188.5,258.5C 188.5,258.167 188.5,257.833 188.5,257.5C 189.5,257.5 190.5,257.5 191.5,257.5C 191.5,256.167 191.5,254.833 191.5,253.5C 181.139,251.172 181.139,249.839 191.5,249.5C 195.021,249.17 198.021,247.67 200.5,245C 199.429,244.148 198.429,243.315 197.5,242.5 Z"/></g>
<g><path style="opacity:1" fill="#885c3a" d="M 171.5,239.5 C 173.483,239.157 174.817,239.824 175.5,241.5C 176.635,242.474 177.635,243.641 178.5,245C 177.552,245.483 176.552,245.649 175.5,245.5C 175.5,247.5 175.5,249.5 175.5,251.5C 180.629,252.614 180.629,253.281 175.5,253.5C 175.5,254.5 175.5,255.5 175.5,256.5C 175.631,257.376 175.298,258.043 174.5,258.5C 173.289,257.726 173.289,256.893 174.5,256C 173.552,255.517 172.552,255.351 171.5,255.5C 171.167,255.5 170.833,255.5 170.5,255.5C 170.678,250.961 170.345,246.461 169.5,242C 169.684,240.624 170.351,239.791 171.5,239.5 Z"/></g>
<g><path style="opacity:1" fill="#695548" d="M 328.5,234.5 C 327.418,236.979 328.418,238.479 331.5,239C 329.901,240.786 329.067,242.953 329,245.5C 326.495,248.505 323.661,251.172 320.5,253.5C 323.467,256.543 327.133,257.876 331.5,257.5C 331.5,258.167 331.167,258.5 330.5,258.5C 323.313,260.797 315.98,262.463 308.5,263.5C 304.075,264.243 301.408,262.41 300.5,258C 300.661,256.044 300.994,254.044 301.5,252C 302.833,251.667 304.167,251.333 305.5,251C 307.329,248.428 309.329,246.094 311.5,244C 313.579,243.192 315.579,243.359 317.5,244.5C 318.002,247.339 319.669,248.672 322.5,248.5C 324.355,248.66 325.688,247.993 326.5,246.5C 326.636,243.449 326.302,240.449 325.5,237.5C 325.516,235.484 326.516,234.484 328.5,234.5 Z"/></g>
<g><path style="opacity:1" fill="#81634c" d="M 175.5,241.5 C 178.385,241.194 181.052,241.527 183.5,242.5C 185.073,245.893 187.74,247.226 191.5,246.5C 191.5,247.5 191.5,248.5 191.5,249.5C 181.139,249.839 181.139,251.172 191.5,253.5C 191.5,254.833 191.5,256.167 191.5,257.5C 190.5,257.5 189.5,257.5 188.5,257.5C 185.5,257.5 182.5,257.5 179.5,257.5C 178.432,256.566 177.099,256.232 175.5,256.5C 175.5,255.5 175.5,254.5 175.5,253.5C 180.629,253.281 180.629,252.614 175.5,251.5C 175.5,249.5 175.5,247.5 175.5,245.5C 176.552,245.649 177.552,245.483 178.5,245C 177.635,243.641 176.635,242.474 175.5,241.5 Z"/></g>
<g><path style="opacity:1" fill="#845e40" d="M 341.5,237.5 C 341.5,243.5 341.5,249.5 341.5,255.5C 340.5,255.5 339.5,255.5 338.5,255.5C 338.747,249.459 338.414,243.459 337.5,237.5C 337.719,235.085 339.052,234.085 341.5,234.5C 341.5,235.5 341.5,236.5 341.5,237.5 Z"/></g>
<g><path style="opacity:1" fill="#372010" d="M 171.5,239.5 C 170.351,239.791 169.684,240.624 169.5,242C 170.345,246.461 170.678,250.961 170.5,255.5C 170.167,255.5 169.833,255.5 169.5,255.5C 169.24,249.828 168.907,244.161 168.5,238.5C 169.791,238.263 170.791,238.596 171.5,239.5 Z"/></g>
<g><path style="opacity:1" fill="#775f4d" d="M 341.5,237.5 C 341.5,236.5 341.5,235.5 341.5,234.5C 339.052,234.085 337.719,235.085 337.5,237.5C 338.414,243.459 338.747,249.459 338.5,255.5C 336.079,255.878 333.746,256.545 331.5,257.5C 327.133,257.876 323.467,256.543 320.5,253.5C 323.661,251.172 326.495,248.505 329,245.5C 329.067,242.953 329.901,240.786 331.5,239C 328.418,238.479 327.418,236.979 328.5,234.5C 331.61,233.912 334.61,233.245 337.5,232.5C 339.558,231.067 341.892,230.4 344.5,230.5C 343.912,233.063 342.912,235.396 341.5,237.5 Z"/></g>
<g><path style="opacity:1" fill="#030a12" d="M 415.5,203.5 C 415.666,213.506 415.5,223.506 415,233.5C 414.392,235.154 413.892,236.821 413.5,238.5C 404.939,248.667 404.273,259.334 411.5,270.5C 412.265,273.096 412.599,275.763 412.5,278.5C 410.156,279.347 408.656,281.014 408,283.5C 408.164,292.836 408.664,302.169 409.5,311.5C 408.651,317.443 408.818,323.443 410,329.5C 411.707,331.909 412.54,334.575 412.5,337.5C 409.984,337.245 407.65,336.411 405.5,335C 405.221,328.905 402.221,325.072 396.5,323.5C 396.949,327.048 397.949,330.381 399.5,333.5C 396.193,334.051 392.86,334.384 389.5,334.5C 388.912,342.366 389.745,350.032 392,357.5C 394.765,361.37 397.265,365.37 399.5,369.5C 399.167,370.167 398.833,370.833 398.5,371.5C 395.062,369.565 392.062,367.065 389.5,364C 388.207,363.51 386.873,363.343 385.5,363.5C 385.666,371.507 385.5,379.507 385,387.5C 383.667,388.167 382.667,389.167 382,390.5C 381.667,393.167 381.333,395.833 381,398.5C 379.301,399.406 377.467,399.739 375.5,399.5C 376.076,403.112 375.076,406.112 372.5,408.5C 370.606,409.048 368.94,410.048 367.5,411.5C 366.575,410.643 365.908,409.643 365.5,408.5C 367.279,408.626 369.279,408.292 371.5,407.5C 371.756,405.063 372.423,402.729 373.5,400.5C 372.5,399.833 371.5,399.167 370.5,398.5C 371.766,397.276 372.933,395.943 374,394.5C 375.183,395.731 376.349,395.731 377.5,394.5C 376.289,393.28 376.289,392.113 377.5,391C 376.584,390.626 375.75,390.126 375,389.5C 373.632,386.262 373.299,382.928 374,379.5C 374.667,378.167 375.333,378.167 376,379.5C 376.733,372.354 378.566,365.521 381.5,359C 379.356,352.324 380.023,345.824 383.5,339.5C 382.772,337.845 382.605,336.179 383,334.5C 383.667,335.833 384.333,335.833 385,334.5C 385.333,335.5 385.667,336.5 386,337.5C 386.021,342.589 386.188,347.256 386.5,351.5C 387.415,344.167 387.582,336.834 387,329.5C 388.418,331.363 390.251,331.863 392.5,331C 391.167,329.16 391.334,328.66 393,329.5C 393.402,328.128 393.902,326.795 394.5,325.5C 394.154,324.304 393.654,324.304 393,325.5C 392.749,323.567 392.249,321.734 391.5,320C 393.893,314.716 396.393,309.549 399,304.5C 400.821,297.927 401.821,291.26 402,284.5C 401.581,285.672 400.915,286.672 400,287.5C 399.2,283.764 399.7,280.264 401.5,277C 399.663,272.646 399.163,268.146 400,263.5C 400.667,264.167 401.333,264.833 402,265.5C 401.927,258.531 403.427,252.031 406.5,246C 405.911,244.127 406.578,242.46 408.5,241C 408.167,240.667 407.833,240.333 407.5,240C 408.5,239.667 409.5,239.333 410.5,239C 409.857,235.909 410.69,233.075 413,230.5C 413.479,225.074 413.312,219.574 412.5,214C 413.199,210.291 414.199,206.791 415.5,203.5 Z"/></g>
<g><path style="opacity:1" fill="#61534a" d="M 201.5,242.5 C 205.5,242.5 209.5,242.5 213.5,242.5C 212.562,245.531 213.395,248.198 216,250.5C 216.311,252.556 216.811,254.556 217.5,256.5C 216.329,258.169 214.996,259.669 213.5,261C 213.743,261.902 214.077,262.735 214.5,263.5C 206.828,262.164 199.162,260.831 191.5,259.5C 191.5,259.167 191.5,258.833 191.5,258.5C 197.5,258.833 203.5,259.167 209.5,259.5C 209.719,258.325 209.386,257.325 208.5,256.5C 206.799,256.81 205.132,256.31 203.5,255C 204.354,253.978 205.354,253.145 206.5,252.5C 210.127,246.469 208.461,243.136 201.5,242.5 Z"/></g>
<g><path style="opacity:1" fill="#5a3e23" d="M 255.5,249.5 C 259.622,251.787 262.955,254.954 265.5,259C 267.891,259.287 270.224,259.787 272.5,260.5C 273.386,261.325 273.719,262.325 273.5,263.5C 274.5,263.5 275.5,263.5 276.5,263.5C 277.727,265.32 278.727,267.32 279.5,269.5C 277.643,272.945 277.31,276.445 278.5,280C 278,280.167 277.5,280.333 277,280.5C 274.75,276.957 271.583,275.457 267.5,276C 266.525,282.336 266.525,288.836 267.5,295.5C 271.094,294.112 272.427,291.445 271.5,287.5C 272.5,287.5 273.5,287.5 274.5,287.5C 276.204,292.581 278.204,297.581 280.5,302.5C 279.167,303.167 277.833,303.833 276.5,304.5C 278.5,309.167 280.5,313.833 282.5,318.5C 284.045,319.452 285.712,319.785 287.5,319.5C 287.5,320.5 287.5,321.5 287.5,322.5C 290.167,323.833 292.833,323.833 295.5,322.5C 295.354,320.058 296.187,319.391 298,320.5C 298.606,323.713 299.773,326.713 301.5,329.5C 300.128,331.62 300.795,332.62 303.5,332.5C 303.5,333.5 303.5,334.5 303.5,335.5C 309.519,336.018 315.352,335.351 321,333.5C 322.285,333.95 323.452,334.617 324.5,335.5C 325.833,334.5 327.167,333.5 328.5,332.5C 329.251,333.376 329.751,334.376 330,335.5C 330.399,335.272 330.565,334.938 330.5,334.5C 332.394,337.609 333.061,340.943 332.5,344.5C 328.701,347.146 326.867,350.813 327,355.5C 325.171,357.156 323.837,359.156 323,361.5C 320.054,364.543 318.888,363.876 319.5,359.5C 315.154,359.334 310.821,359.501 306.5,360C 305.667,360.833 304.833,361.667 304,362.5C 303.751,361.376 303.251,360.376 302.5,359.5C 298.442,363.382 298.609,367.048 303,370.5C 303.494,372.134 303.66,373.801 303.5,375.5C 304.675,375.281 305.675,375.614 306.5,376.5C 308.369,383.631 307.369,390.297 303.5,396.5C 303.574,394.688 303.241,392.688 302.5,390.5C 301.05,391.655 300.05,393.155 299.5,395C 299.833,395.333 300.167,395.667 300.5,396C 296.805,396.318 293.138,396.818 289.5,397.5C 283.809,396.887 278.142,397.387 272.5,399C 271.391,400.813 272.058,401.646 274.5,401.5C 267.774,402.486 260.941,402.152 254,400.5C 252.527,400.903 251.194,401.57 250,402.5C 244.255,401.946 238.421,400.946 232.5,399.5C 231.697,404.476 228.864,407.809 224,409.5C 223.505,411.473 223.338,413.473 223.5,415.5C 225.833,415.5 228.167,415.5 230.5,415.5C 232.073,418.373 231.74,421.039 229.5,423.5C 228.808,422.975 228.308,422.308 228,421.5C 225.062,424.47 222.562,427.803 220.5,431.5C 219.5,430.167 218.5,428.833 217.5,427.5C 215.249,428.865 213.249,428.531 211.5,426.5C 210.42,428.505 209.087,430.838 207.5,433.5C 205.956,433.297 204.622,432.63 203.5,431.5C 201.958,428.248 200.291,425.081 198.5,422C 199.721,417.945 202.388,415.445 206.5,414.5C 205.478,411.88 205.478,409.213 206.5,406.5C 205.818,404.159 205.151,401.826 204.5,399.5C 206.527,399.662 208.527,399.495 210.5,399C 210.002,397.842 209.169,397.009 208,396.5C 205.468,397.119 203.135,398.119 201,399.5C 198.87,397.411 197.37,394.911 196.5,392C 198.536,391.546 200.37,390.713 202,389.5C 204.453,390.493 206.953,390.66 209.5,390C 210.711,388.887 210.711,387.72 209.5,386.5C 209.846,385.304 210.346,385.304 211,386.5C 211.464,385.906 211.631,385.239 211.5,384.5C 212.5,384.833 213.167,385.5 213.5,386.5C 240.752,386.328 268.085,387.995 295.5,391.5C 296.833,391.333 298.167,391.167 299.5,391C 300.056,390.617 300.389,390.117 300.5,389.5C 301.434,388.432 301.768,387.099 301.5,385.5C 290.943,385.373 280.943,382.873 271.5,378C 267.205,377.088 262.872,376.421 258.5,376C 244.81,375.753 231.143,376.253 217.5,377.5C 214.638,376.868 211.804,375.868 209,374.5C 208.667,374.833 208.333,375.167 208,375.5C 207.51,374.207 207.343,372.873 207.5,371.5C 205.345,371.372 203.345,371.872 201.5,373C 201.619,374.281 201.119,375.448 200,376.5C 198.566,374.864 196.733,373.864 194.5,373.5C 192.448,371.204 191.448,368.537 191.5,365.5C 189.856,365.286 188.356,365.62 187,366.5C 185.895,373.522 184.729,380.522 183.5,387.5C 180.635,387.945 178.135,387.278 176,385.5C 175.617,386.056 175.117,386.389 174.5,386.5C 174.5,385.5 174.5,384.5 174.5,383.5C 176.2,383.626 177.7,384.293 179,385.5C 180.261,385.241 181.261,384.574 182,383.5C 183.65,377.568 184.983,371.568 186,365.5C 187.723,362.756 190.223,361.422 193.5,361.5C 195.652,359.015 198.319,357.349 201.5,356.5C 203.296,355.207 204.963,353.707 206.5,352C 217.214,351.592 227.881,351.925 238.5,353C 239.708,348.853 238.874,345.02 236,341.5C 235.833,339.667 235.667,337.833 235.5,336C 236.292,331.65 237.625,327.484 239.5,323.5C 241.96,322.09 243.293,319.924 243.5,317C 243.178,312.685 242.844,308.352 242.5,304C 246.821,303.501 251.154,303.334 255.5,303.5C 255.682,301.325 256.349,299.325 257.5,297.5C 256.586,291.541 256.253,285.541 256.5,279.5C 250.505,280.172 247.171,277.505 246.5,271.5C 247.978,271.762 249.311,271.429 250.5,270.5C 249.58,268.214 249.58,265.881 250.5,263.5C 253.657,263.183 255.157,261.516 255,258.5C 252.705,256.257 249.871,254.923 246.5,254.5C 249.428,253.516 252.428,253.183 255.5,253.5C 255.5,252.167 255.5,250.833 255.5,249.5 Z"/></g>
<g><path style="opacity:1" fill="#29221d" d="M 191.5,259.5 C 199.162,260.831 206.828,262.164 214.5,263.5C 220.606,270.668 219.273,276.168 210.5,280C 207.854,280.497 205.187,280.664 202.5,280.5C 198.877,279.344 195.211,278.344 191.5,277.5C 190.59,274.589 188.59,272.589 185.5,271.5C 184.289,268.124 184.456,264.791 186,261.5C 187.584,260.139 189.418,259.472 191.5,259.5 Z"/></g>
<g><path style="opacity:1" fill="#171615" d="M 330.5,258.5 C 329.426,259.885 328.093,261.051 326.5,262C 319.002,263.45 311.669,265.45 304.5,268C 309.901,267.613 315.235,268.446 320.5,270.5C 319.833,273.167 319.167,275.833 318.5,278.5C 319.668,279.906 319.335,281.072 317.5,282C 318.691,282.698 319.691,283.531 320.5,284.5C 318.351,285.736 316.018,286.736 313.5,287.5C 310.544,289.59 307.544,290.924 304.5,291.5C 303.571,290.311 303.238,288.978 303.5,287.5C 302.448,287.649 301.448,287.483 300.5,287C 303.453,284.066 302.953,281.899 299,280.5C 297.686,281.313 296.519,282.313 295.5,283.5C 295.167,282.833 294.833,282.167 294.5,281.5C 296.829,277.009 298.663,272.343 300,267.5C 301.302,266.915 302.469,266.249 303.5,265.5C 305.167,264.833 306.833,264.167 308.5,263.5C 315.98,262.463 323.313,260.797 330.5,258.5 Z"/></g>
<g><path style="opacity:1" fill="#38281e" d="M 188.5,258.5 C 189.5,258.5 190.5,258.5 191.5,258.5C 191.5,258.833 191.5,259.167 191.5,259.5C 189.418,259.472 187.584,260.139 186,261.5C 184.456,264.791 184.289,268.124 185.5,271.5C 188.59,272.589 190.59,274.589 191.5,277.5C 187.894,277.789 184.394,277.456 181,276.5C 180.333,271.5 180.333,266.5 181,261.5C 181.374,260.584 181.874,259.75 182.5,259C 184.473,258.505 186.473,258.338 188.5,258.5 Z"/></g>
<g><path style="opacity:1" fill="#6e462a" d="M 171.5,255.5 C 172.552,255.351 173.552,255.517 174.5,256C 173.289,256.893 173.289,257.726 174.5,258.5C 175.298,258.043 175.631,257.376 175.5,256.5C 177.099,256.232 178.432,256.566 179.5,257.5C 179.642,261.15 178.975,264.65 177.5,268C 177.911,269.144 178.244,270.311 178.5,271.5C 177.642,274.269 176.642,276.935 175.5,279.5C 174.5,279.5 173.5,279.5 172.5,279.5C 172.823,273.31 172.49,267.31 171.5,261.5C 171.5,259.5 171.5,257.5 171.5,255.5 Z"/></g>
<g><path style="opacity:1" fill="#0c0d10" d="M 338.5,255.5 C 339.5,255.5 340.5,255.5 341.5,255.5C 340.816,259.171 338.816,260.171 335.5,258.5C 333.954,259.684 332.287,260.684 330.5,261.5C 331.975,263.809 333.642,265.976 335.5,268C 333.109,269.309 333.109,270.309 335.5,271C 332.961,272.805 331.961,275.305 332.5,278.5C 333.5,278.5 334.5,278.5 335.5,278.5C 334.878,280.335 333.544,281.502 331.5,282C 327.888,283.15 324.222,283.983 320.5,284.5C 319.691,283.531 318.691,282.698 317.5,282C 319.335,281.072 319.668,279.906 318.5,278.5C 319.167,275.833 319.833,273.167 320.5,270.5C 315.235,268.446 309.901,267.613 304.5,268C 311.669,265.45 319.002,263.45 326.5,262C 328.093,261.051 329.426,259.885 330.5,258.5C 331.167,258.5 331.5,258.167 331.5,257.5C 333.746,256.545 336.079,255.878 338.5,255.5 Z"/></g>
<g><path style="opacity:1" fill="#61432f" d="M 179.5,257.5 C 182.5,257.5 185.5,257.5 188.5,257.5C 188.5,257.833 188.5,258.167 188.5,258.5C 186.473,258.338 184.473,258.505 182.5,259C 181.874,259.75 181.374,260.584 181,261.5C 180.333,266.5 180.333,271.5 181,276.5C 184.394,277.456 187.894,277.789 191.5,277.5C 195.211,278.344 198.877,279.344 202.5,280.5C 205.305,281.319 208.305,281.819 211.5,282C 210.207,282.49 208.873,282.657 207.5,282.5C 207.649,283.552 207.483,284.552 207,285.5C 201.745,285.662 196.579,284.662 191.5,282.5C 191.5,283.5 191.5,284.5 191.5,285.5C 192.93,285.579 194.264,285.246 195.5,284.5C 196.7,285.531 198.034,286.365 199.5,287C 195.928,289.999 194.928,293.666 196.5,298C 197.793,298.49 199.127,298.657 200.5,298.5C 200.5,300.167 200.5,301.833 200.5,303.5C 199.5,303.5 198.5,303.5 197.5,303.5C 193.431,300.413 189.264,297.413 185,294.5C 182.315,290.292 180.148,285.792 178.5,281C 176.536,280.376 174.869,280.876 173.5,282.5C 172.817,282.137 172.15,281.804 171.5,281.5C 171.5,274.833 171.5,268.167 171.5,261.5C 172.49,267.31 172.823,273.31 172.5,279.5C 173.5,279.5 174.5,279.5 175.5,279.5C 176.642,276.935 177.642,274.269 178.5,271.5C 178.244,270.311 177.911,269.144 177.5,268C 178.975,264.65 179.642,261.15 179.5,257.5 Z"/></g>
<g><path style="opacity:1" fill="#211b16" d="M 303.5,265.5 C 302.469,266.249 301.302,266.915 300,267.5C 298.663,272.343 296.829,277.009 294.5,281.5C 294.833,282.167 295.167,282.833 295.5,283.5C 296.519,282.313 297.686,281.313 299,280.5C 302.953,281.899 303.453,284.066 300.5,287C 301.448,287.483 302.448,287.649 303.5,287.5C 303.238,288.978 303.571,290.311 304.5,291.5C 307.544,290.924 310.544,289.59 313.5,287.5C 311.5,289.833 309.5,292.167 307.5,294.5C 305.772,295.379 303.939,296.046 302,296.5C 295.322,294.405 292.156,289.738 292.5,282.5C 292.449,279.308 293.116,276.308 294.5,273.5C 295.603,270.618 297.27,268.118 299.5,266C 300.793,265.51 302.127,265.343 303.5,265.5 Z"/></g>
<g><path style="opacity:1" fill="#5b4331" d="M 209.5,214.5 C 213.294,215.42 216.627,217.087 219.5,219.5C 217.516,218.844 215.516,218.178 213.5,217.5C 212.833,217.833 212.167,218.167 211.5,218.5C 217.064,221.449 222.73,224.116 228.5,226.5C 229.048,228.394 230.048,230.06 231.5,231.5C 229.087,233.049 227.087,235.049 225.5,237.5C 224.833,237.833 224.167,238.167 223.5,238.5C 220.847,236.613 218.181,235.113 215.5,234C 216.303,238.414 216.803,242.914 217,247.5C 219.534,249.569 220.701,252.235 220.5,255.5C 222.833,255.5 225.167,255.5 227.5,255.5C 227.752,260.385 227.419,265.219 226.5,270C 226.833,270.5 227.167,271 227.5,271.5C 228.48,270.019 229.647,268.685 231,267.5C 231.353,275.472 228.853,282.472 223.5,288.5C 225.766,289.432 227.766,290.766 229.5,292.5C 227.929,294.415 225.929,295.415 223.5,295.5C 223.5,296.5 223.5,297.5 223.5,298.5C 228.723,299.873 234.056,300.539 239.5,300.5C 239.5,302.167 239.5,303.833 239.5,305.5C 238.167,305.5 237.5,304.833 237.5,303.5C 237.389,302.883 237.056,302.383 236.5,302C 231.5,301.667 226.5,301.333 221.5,301C 219.671,300.727 218.171,299.893 217,298.5C 211.289,300.023 205.956,302.357 201,305.5C 199.541,305.192 198.374,304.525 197.5,303.5C 198.5,303.5 199.5,303.5 200.5,303.5C 200.5,301.833 200.5,300.167 200.5,298.5C 199.127,298.657 197.793,298.49 196.5,298C 194.928,293.666 195.928,289.999 199.5,287C 198.034,286.365 196.7,285.531 195.5,284.5C 194.264,285.246 192.93,285.579 191.5,285.5C 191.5,284.5 191.5,283.5 191.5,282.5C 196.579,284.662 201.745,285.662 207,285.5C 207.483,284.552 207.649,283.552 207.5,282.5C 208.873,282.657 210.207,282.49 211.5,282C 208.305,281.819 205.305,281.319 202.5,280.5C 205.187,280.664 207.854,280.497 210.5,280C 219.273,276.168 220.606,270.668 214.5,263.5C 214.077,262.735 213.743,261.902 213.5,261C 214.996,259.669 216.329,258.169 217.5,256.5C 216.811,254.556 216.311,252.556 216,250.5C 213.395,248.198 212.562,245.531 213.5,242.5C 213.323,238.474 211.323,235.641 207.5,234C 202.132,232.492 196.799,230.992 191.5,229.5C 189.028,228.358 188.028,226.358 188.5,223.5C 189.5,223.5 190.5,223.5 191.5,223.5C 191.5,224.5 191.5,225.5 191.5,226.5C 192.873,226.657 194.207,226.49 195.5,226C 198.832,223.709 202.499,221.875 206.5,220.5C 207.893,218.326 207.56,216.493 205.5,215C 206.793,214.51 208.127,214.343 209.5,214.5 Z"/></g>
<g><path style="opacity:1" fill="#516e80" d="M 412.5,278.5 C 412.539,279.756 412.039,280.756 411,281.5C 410.83,291.675 410.33,301.675 409.5,311.5C 408.664,302.169 408.164,292.836 408,283.5C 408.656,281.014 410.156,279.347 412.5,278.5 Z"/></g>
<g><path style="opacity:1" fill="#523c2b" d="M 340.5,283.5 C 339.596,282.791 339.263,281.791 339.5,280.5C 338.5,280.5 337.5,280.5 336.5,280.5C 336.5,281.833 336.5,283.167 336.5,284.5C 335.292,285.234 333.959,285.567 332.5,285.5C 330.496,299.501 322.496,305.501 308.5,303.5C 308.5,302.5 308.5,301.5 308.5,300.5C 302.326,303.108 297.992,301.441 295.5,295.5C 299.848,299.632 303.848,299.299 307.5,294.5C 309.5,292.167 311.5,289.833 313.5,287.5C 316.018,286.736 318.351,285.736 320.5,284.5C 324.222,283.983 327.888,283.15 331.5,282C 333.544,281.502 334.878,280.335 335.5,278.5C 336.82,277.058 338.486,276.392 340.5,276.5C 340.5,278.833 340.5,281.167 340.5,283.5 Z"/></g>
<g><path style="opacity:1" fill="#312317" d="M 294.5,273.5 C 293.116,276.308 292.449,279.308 292.5,282.5C 292.156,289.738 295.322,294.405 302,296.5C 303.939,296.046 305.772,295.379 307.5,294.5C 303.848,299.299 299.848,299.632 295.5,295.5C 293.306,293.1 291.639,290.434 290.5,287.5C 290.335,284.482 290.502,281.482 291,278.5C 291.22,276.027 292.386,274.36 294.5,273.5 Z"/></g>
<g><path style="opacity:1" fill="#513928" d="M 197.5,303.5 C 198.374,304.525 199.541,305.192 201,305.5C 205.956,302.357 211.289,300.023 217,298.5C 218.171,299.893 219.671,300.727 221.5,301C 226.5,301.333 231.5,301.667 236.5,302C 237.056,302.383 237.389,302.883 237.5,303.5C 232.218,302.433 226.885,302.267 221.5,303C 215.299,304.531 209.299,306.698 203.5,309.5C 198.809,309.308 194.809,307.642 191.5,304.5C 188.851,299.687 185.018,296.02 180,293.5C 179.108,290.048 177.442,287.048 175,284.5C 173.989,285.337 172.822,285.67 171.5,285.5C 171.5,284.167 171.5,282.833 171.5,281.5C 172.15,281.804 172.817,282.137 173.5,282.5C 174.869,280.876 176.536,280.376 178.5,281C 180.148,285.792 182.315,290.292 185,294.5C 189.264,297.413 193.431,300.413 197.5,303.5 Z"/></g>
<g><path style="opacity:1" fill="#312215" d="M 170.5,255.5 C 170.833,255.5 171.167,255.5 171.5,255.5C 171.5,257.5 171.5,259.5 171.5,261.5C 171.5,268.167 171.5,274.833 171.5,281.5C 171.5,282.833 171.5,284.167 171.5,285.5C 172.822,285.67 173.989,285.337 175,284.5C 177.442,287.048 179.108,290.048 180,293.5C 185.018,296.02 188.851,299.687 191.5,304.5C 191.423,307.509 192.756,309.676 195.5,311C 194.833,311.333 194.167,311.667 193.5,312C 195.619,312.098 197.286,312.931 198.5,314.5C 196.697,316.205 196.031,318.038 196.5,320C 197.211,321.255 198.044,322.421 199,323.5C 199.499,327.486 199.666,331.486 199.5,335.5C 198.167,335.5 196.833,335.5 195.5,335.5C 195,340.346 196,344.846 198.5,349C 197.506,351.918 198.006,352.084 200,349.5C 200.87,350.108 201.37,350.941 201.5,352C 198.296,354.705 195.63,357.871 193.5,361.5C 190.223,361.422 187.723,362.756 186,365.5C 184.983,371.568 183.65,377.568 182,383.5C 181.261,384.574 180.261,385.241 179,385.5C 177.7,384.293 176.2,383.626 174.5,383.5C 174.5,384.5 174.5,385.5 174.5,386.5C 174.672,387.492 174.338,388.158 173.5,388.5C 173.5,385.833 173.5,383.167 173.5,380.5C 174.158,379.602 174.824,378.602 175.5,377.5C 176.623,379.289 177.956,379.622 179.5,378.5C 180.863,377.107 181.696,375.441 182,373.5C 182.102,359.65 181.602,345.816 180.5,332C 180.667,331.167 180.833,330.333 181,329.5C 184.879,327.334 186.379,324.001 185.5,319.5C 184.167,319.5 182.833,319.5 181.5,319.5C 181.657,314.097 179.99,309.43 176.5,305.5C 176.818,304.353 177.484,303.519 178.5,303C 175.465,297.528 172.798,292.028 170.5,286.5C 170.5,276.167 170.5,265.833 170.5,255.5 Z"/></g>
<g><path style="opacity:1" fill="#5a3e28" d="M 287.5,253.5 C 288.335,254.943 289.668,255.943 291.5,256.5C 290.359,257.425 290.359,258.259 291.5,259C 289.956,259.29 288.623,259.956 287.5,261C 289.207,261.195 290.874,261.195 292.5,261C 295.407,262.623 296.407,264.79 295.5,267.5C 293.286,268.874 290.953,270.041 288.5,271C 291.681,272.778 291.681,275.112 288.5,278C 289.132,281.27 289.799,284.437 290.5,287.5C 291.639,290.434 293.306,293.1 295.5,295.5C 297.992,301.441 302.326,303.108 308.5,300.5C 308.5,301.5 308.5,302.5 308.5,303.5C 322.496,305.501 330.496,299.501 332.5,285.5C 333.959,285.567 335.292,285.234 336.5,284.5C 336.003,288.49 334.67,292.156 332.5,295.5C 332.818,296.647 333.484,297.481 334.5,298C 334.167,298.333 333.833,298.667 333.5,299C 334.549,299.492 335.549,299.326 336.5,298.5C 338.171,302.364 338.671,306.364 338,310.5C 334.329,310.677 330.829,312.011 327.5,314.5C 328.758,313.984 329.758,314.65 330.5,316.5C 329.359,317.425 329.359,318.259 330.5,319C 329.572,319.388 328.905,320.055 328.5,321C 330.297,325.497 330.964,329.997 330.5,334.5C 330.565,334.938 330.399,335.272 330,335.5C 329.751,334.376 329.251,333.376 328.5,332.5C 327.167,333.5 325.833,334.5 324.5,335.5C 323.452,334.617 322.285,333.95 321,333.5C 315.352,335.351 309.519,336.018 303.5,335.5C 303.5,334.5 303.5,333.5 303.5,332.5C 300.795,332.62 300.128,331.62 301.5,329.5C 299.773,326.713 298.606,323.713 298,320.5C 296.187,319.391 295.354,320.058 295.5,322.5C 292.833,323.833 290.167,323.833 287.5,322.5C 287.5,321.5 287.5,320.5 287.5,319.5C 285.712,319.785 284.045,319.452 282.5,318.5C 280.5,313.833 278.5,309.167 276.5,304.5C 277.833,303.833 279.167,303.167 280.5,302.5C 278.204,297.581 276.204,292.581 274.5,287.5C 273.5,287.5 272.5,287.5 271.5,287.5C 272.427,291.445 271.094,294.112 267.5,295.5C 266.525,288.836 266.525,282.336 267.5,276C 271.583,275.457 274.75,276.957 277,280.5C 277.5,280.333 278,280.167 278.5,280C 277.31,276.445 277.643,272.945 279.5,269.5C 278.727,267.32 277.727,265.32 276.5,263.5C 278.891,261.385 280.224,258.719 280.5,255.5C 281.5,255.5 282.5,255.5 283.5,255.5C 282.769,253.401 282.769,251.401 283.5,249.5C 284.308,249.808 284.975,250.308 285.5,251C 284.391,252.813 285.058,253.646 287.5,253.5 Z"/></g>
<g><path style="opacity:1" fill="#352717" d="M 237.5,303.5 C 237.5,304.833 238.167,305.5 239.5,305.5C 240.774,311.492 240.774,317.492 239.5,323.5C 236.322,326.207 234.655,329.707 234.5,334C 232.53,339.117 233.196,343.783 236.5,348C 235.663,349.011 235.33,350.178 235.5,351.5C 234.127,351.657 232.793,351.49 231.5,351C 231.188,349.336 230.355,347.503 229,345.5C 227.933,344.809 226.766,344.309 225.5,344C 225.833,343.667 226.167,343.333 226.5,343C 223.349,342.667 220.016,343.334 216.5,345C 217.938,345.219 219.271,345.719 220.5,346.5C 220,346.833 219.5,347.167 219,347.5C 215.692,345.615 212.192,344.781 208.5,345C 205.088,348.231 202.755,352.064 201.5,356.5C 198.319,357.349 195.652,359.015 193.5,361.5C 195.63,357.871 198.296,354.705 201.5,352C 201.37,350.941 200.87,350.108 200,349.5C 198.006,352.084 197.506,351.918 198.5,349C 196,344.846 195,340.346 195.5,335.5C 196.833,335.5 198.167,335.5 199.5,335.5C 199.666,331.486 199.499,327.486 199,323.5C 198.044,322.421 197.211,321.255 196.5,320C 196.031,318.038 196.697,316.205 198.5,314.5C 197.286,312.931 195.619,312.098 193.5,312C 194.167,311.667 194.833,311.333 195.5,311C 192.756,309.676 191.423,307.509 191.5,304.5C 194.809,307.642 198.809,309.308 203.5,309.5C 209.299,306.698 215.299,304.531 221.5,303C 226.885,302.267 232.218,302.433 237.5,303.5 Z"/></g>
<g><path style="opacity:1" fill="#251a11" d="M 170.5,286.5 C 172.798,292.028 175.465,297.528 178.5,303C 177.484,303.519 176.818,304.353 176.5,305.5C 179.99,309.43 181.657,314.097 181.5,319.5C 182.833,319.5 184.167,319.5 185.5,319.5C 186.379,324.001 184.879,327.334 181,329.5C 180.833,330.333 180.667,331.167 180.5,332C 181.602,345.816 182.102,359.65 182,373.5C 181.696,375.441 180.863,377.107 179.5,378.5C 177.956,379.622 176.623,379.289 175.5,377.5C 174.824,378.602 174.158,379.602 173.5,380.5C 172.819,349.149 171.819,317.816 170.5,286.5 Z"/></g>
<g><path style="opacity:1" fill="#100c07" d="M 169.5,255.5 C 169.833,255.5 170.167,255.5 170.5,255.5C 170.5,265.833 170.5,276.167 170.5,286.5C 171.819,317.816 172.819,349.149 173.5,380.5C 173.5,383.167 173.5,385.833 173.5,388.5C 172.833,389.167 172.167,389.833 171.5,390.5C 171.552,388.097 171.219,385.764 170.5,383.5C 170.984,379.936 171.318,376.27 171.5,372.5C 170.983,357.248 169.983,342.082 168.5,327C 168.618,303.527 168.952,279.694 169.5,255.5 Z"/></g>
<g><path style="opacity:1" fill="#5f8296" d="M 366.5,412.5 C 369.292,412.378 371.292,411.044 372.5,408.5C 375.076,406.112 376.076,403.112 375.5,399.5C 377.467,399.739 379.301,399.406 381,398.5C 381.333,395.833 381.667,393.167 382,390.5C 382.667,389.167 383.667,388.167 385,387.5C 385.5,379.507 385.666,371.507 385.5,363.5C 386.873,363.343 388.207,363.51 389.5,364C 392.062,367.065 395.062,369.565 398.5,371.5C 398.833,370.833 399.167,370.167 399.5,369.5C 397.265,365.37 394.765,361.37 392,357.5C 389.745,350.032 388.912,342.366 389.5,334.5C 392.86,334.384 396.193,334.051 399.5,333.5C 397.949,330.381 396.949,327.048 396.5,323.5C 402.221,325.072 405.221,328.905 405.5,335C 407.65,336.411 409.984,337.245 412.5,337.5C 412.54,334.575 411.707,331.909 410,329.5C 408.818,323.443 408.651,317.443 409.5,311.5C 410.33,301.675 410.83,291.675 411,281.5C 412.039,280.756 412.539,279.756 412.5,278.5C 412.599,275.763 412.265,273.096 411.5,270.5C 411.804,269.85 412.137,269.183 412.5,268.5C 409.613,262.836 408.779,256.836 410,250.5C 410.833,249.5 411.667,248.5 412.5,247.5C 412.833,248.167 413.167,248.833 413.5,249.5C 414.731,248.349 414.731,247.183 413.5,246C 415.991,245.374 415.991,244.541 413.5,243.5C 414.192,240.877 415.692,238.877 418,237.5C 418.333,238.167 418.667,238.833 419,239.5C 420.299,239.034 421.799,239.034 423.5,239.5C 423.5,244.833 423.5,250.167 423.5,255.5C 422.448,255.351 421.448,255.517 420.5,256C 423.991,258.712 427.991,260.212 432.5,260.5C 433.696,260.154 433.696,259.654 432.5,259C 434.45,257.504 436.45,257.337 438.5,258.5C 437.5,259.167 436.5,259.833 435.5,260.5C 436.167,260.833 436.833,261.167 437.5,261.5C 439.344,258.873 440.677,259.04 441.5,262C 440.293,263.3 439.626,264.8 439.5,266.5C 436.753,266.187 434.086,266.52 431.5,267.5C 435.27,269.024 438.77,268.691 442,266.5C 445.29,268.199 445.29,269.866 442,271.5C 440.298,269.93 439.465,270.263 439.5,272.5C 440.799,275.012 441.799,277.679 442.5,280.5C 440.364,281.472 439.197,283.139 439,285.5C 438.667,285.167 438.333,284.833 438,284.5C 438.932,282.418 439.432,280.085 439.5,277.5C 436.833,277.5 434.167,277.5 431.5,277.5C 431.657,276.127 431.49,274.793 431,273.5C 429.846,274.743 428.512,275.743 427,276.5C 426.517,277.448 426.351,278.448 426.5,279.5C 421.323,280.848 420.489,283.515 424,287.5C 423.702,293.363 423.869,299.196 424.5,305C 423.24,308.594 420.907,311.261 417.5,313C 418.147,314.609 418.98,316.109 420,317.5C 421,316.167 422,316.167 423,317.5C 422.805,319.126 422.805,320.793 423,322.5C 423.333,322.167 423.667,321.833 424,321.5C 427.01,323.934 426.844,326.434 423.5,329C 423.833,329.5 424.167,330 424.5,330.5C 433.833,331.833 433.833,333.167 424.5,334.5C 423.914,334.291 423.414,333.957 423,333.5C 422.92,335.248 422.087,336.915 420.5,338.5C 423.433,340.738 423.099,341.738 419.5,341.5C 419.5,344.833 419.5,348.167 419.5,351.5C 418.022,351.238 416.689,351.571 415.5,352.5C 419.5,354.5 419.5,356.5 415.5,358.5C 417.747,360.891 419.081,363.725 419.5,367C 421.473,367.495 423.473,367.662 425.5,367.5C 426.306,370.285 426.972,373.119 427.5,376C 426.684,380.296 425.517,380.129 424,375.5C 423.323,377.689 422.156,378.022 420.5,376.5C 419.757,377.908 418.923,379.241 418,380.5C 413.192,381.715 408.358,381.715 403.5,380.5C 400.024,381.958 396.524,383.291 393,384.5C 392.447,388.16 391.114,391.494 389,394.5C 388.667,397.833 388.333,401.167 388,404.5C 384.983,406.342 383.483,409.009 383.5,412.5C 380.478,412.804 377.478,413.304 374.5,414C 369.919,418.967 364.919,421.467 359.5,421.5C 354.846,421.453 350.513,420.953 346.5,420C 351.423,418.065 356.59,416.899 362,416.5C 363.812,416.493 365.312,417.16 366.5,418.5C 368.733,416.217 368.733,414.217 366.5,412.5 Z"/></g>
<g><path style="opacity:1" fill="#291a0b" d="M 271.5,335.5 C 279.181,336.446 279.514,338.946 272.5,343C 270.26,343.977 267.927,344.477 265.5,344.5C 265.351,343.448 265.517,342.448 266,341.5C 267.626,339.195 269.46,337.195 271.5,335.5 Z"/></g>
<g><path style="opacity:1" fill="#5b3e25" d="M 340.5,335.5 C 340.5,351.5 340.5,367.5 340.5,383.5C 339.5,383.5 338.5,383.5 337.5,383.5C 337.311,388.963 336.645,394.296 335.5,399.5C 333.822,404.849 332.156,410.182 330.5,415.5C 329.167,416.833 327.833,418.167 326.5,419.5C 324.076,419.192 321.743,419.526 319.5,420.5C 313.072,426.275 306.406,431.608 299.5,436.5C 299.281,435.325 299.614,434.325 300.5,433.5C 302.333,431.33 304.333,429.33 306.5,427.5C 307.072,425.083 308.072,422.916 309.5,421C 314.826,419.315 319.326,416.481 323,412.5C 322.923,413.738 323.089,414.738 323.5,415.5C 324.5,414.167 325.5,414.167 326.5,415.5C 327.731,414.349 327.731,413.183 326.5,412C 328.394,410.921 328.727,409.587 327.5,408C 331.016,402.687 329.683,399.853 323.5,399.5C 323.335,395.818 323.501,392.152 324,388.5C 324.915,389.328 325.581,390.328 326,391.5C 326.497,388.854 326.664,386.187 326.5,383.5C 329.5,383.5 332.5,383.5 335.5,383.5C 335.5,381.5 335.5,379.5 335.5,377.5C 333.61,377.703 332.11,377.037 331,375.5C 330.218,372.743 330.718,370.243 332.5,368C 331.552,367.517 330.552,367.351 329.5,367.5C 329.72,361.738 329.72,356.071 329.5,350.5C 332.604,347.282 334.604,343.448 335.5,339C 335.245,337.674 334.578,336.674 333.5,336C 335.81,335.503 338.143,335.337 340.5,335.5 Z"/></g>
<g><path style="opacity:1" fill="#3b2a16" d="M 239.5,323.5 C 237.625,327.484 236.292,331.65 235.5,336C 235.667,337.833 235.833,339.667 236,341.5C 238.874,345.02 239.708,348.853 238.5,353C 227.881,351.925 217.214,351.592 206.5,352C 204.963,353.707 203.296,355.207 201.5,356.5C 202.755,352.064 205.088,348.231 208.5,345C 212.192,344.781 215.692,345.615 219,347.5C 219.5,347.167 220,346.833 220.5,346.5C 219.271,345.719 217.938,345.219 216.5,345C 220.016,343.334 223.349,342.667 226.5,343C 226.167,343.333 225.833,343.667 225.5,344C 226.766,344.309 227.933,344.809 229,345.5C 230.355,347.503 231.188,349.336 231.5,351C 232.793,351.49 234.127,351.657 235.5,351.5C 235.33,350.178 235.663,349.011 236.5,348C 233.196,343.783 232.53,339.117 234.5,334C 234.655,329.707 236.322,326.207 239.5,323.5 Z"/></g>
<g><path style="opacity:1" fill="#5f4024" d="M 340.5,283.5 C 341.737,300.989 341.737,318.322 340.5,335.5C 338.143,335.337 335.81,335.503 333.5,336C 334.578,336.674 335.245,337.674 335.5,339C 334.604,343.448 332.604,347.282 329.5,350.5C 329.72,356.071 329.72,361.738 329.5,367.5C 330.552,367.351 331.552,367.517 332.5,368C 330.718,370.243 330.218,372.743 331,375.5C 332.11,377.037 333.61,377.703 335.5,377.5C 335.5,379.5 335.5,381.5 335.5,383.5C 332.5,383.5 329.5,383.5 326.5,383.5C 326.664,386.187 326.497,388.854 326,391.5C 325.581,390.328 324.915,389.328 324,388.5C 323.501,392.152 323.335,395.818 323.5,399.5C 329.683,399.853 331.016,402.687 327.5,408C 328.727,409.587 328.394,410.921 326.5,412C 327.731,413.183 327.731,414.349 326.5,415.5C 325.5,414.167 324.5,414.167 323.5,415.5C 323.089,414.738 322.923,413.738 323,412.5C 319.326,416.481 314.826,419.315 309.5,421C 308.072,422.916 307.072,425.083 306.5,427.5C 304.333,429.33 302.333,431.33 300.5,433.5C 299.614,434.325 299.281,435.325 299.5,436.5C 299.5,437.167 299.167,437.5 298.5,437.5C 294.99,441.944 290.323,444.944 284.5,446.5C 283.5,446.167 282.5,445.833 281.5,445.5C 282.59,444.391 282.59,443.391 281.5,442.5C 279.885,441.846 278.218,441.346 276.5,441C 277.448,440.517 278.448,440.351 279.5,440.5C 279.104,437.956 279.771,435.789 281.5,434C 280.257,432.846 279.257,431.512 278.5,430C 280.521,429.487 282.021,428.32 283,426.5C 284.085,427.293 285.252,427.96 286.5,428.5C 287.72,425.376 288.387,422.376 288.5,419.5C 290.413,420.373 292.247,421.373 294,422.5C 295.893,417.692 296.727,412.692 296.5,407.5C 297.675,407.719 298.675,407.386 299.5,406.5C 300.214,404.189 301.214,402.022 302.5,400C 300.899,399.727 299.399,399.227 298,398.5C 293.425,399.182 288.925,400.182 284.5,401.5C 281.167,401.5 277.833,401.5 274.5,401.5C 272.058,401.646 271.391,400.813 272.5,399C 278.142,397.387 283.809,396.887 289.5,397.5C 293.138,396.818 296.805,396.318 300.5,396C 300.167,395.667 299.833,395.333 299.5,395C 300.05,393.155 301.05,391.655 302.5,390.5C 303.241,392.688 303.574,394.688 303.5,396.5C 307.369,390.297 308.369,383.631 306.5,376.5C 305.675,375.614 304.675,375.281 303.5,375.5C 303.66,373.801 303.494,372.134 303,370.5C 298.609,367.048 298.442,363.382 302.5,359.5C 303.251,360.376 303.751,361.376 304,362.5C 304.833,361.667 305.667,360.833 306.5,360C 310.821,359.501 315.154,359.334 319.5,359.5C 318.888,363.876 320.054,364.543 323,361.5C 323.837,359.156 325.171,357.156 327,355.5C 326.867,350.813 328.701,347.146 332.5,344.5C 333.061,340.943 332.394,337.609 330.5,334.5C 330.964,329.997 330.297,325.497 328.5,321C 328.905,320.055 329.572,319.388 330.5,319C 329.359,318.259 329.359,317.425 330.5,316.5C 329.758,314.65 328.758,313.984 327.5,314.5C 330.829,312.011 334.329,310.677 338,310.5C 338.671,306.364 338.171,302.364 336.5,298.5C 335.549,299.326 334.549,299.492 333.5,299C 333.833,298.667 334.167,298.333 334.5,298C 333.484,297.481 332.818,296.647 332.5,295.5C 334.67,292.156 336.003,288.49 336.5,284.5C 336.5,283.167 336.5,281.833 336.5,280.5C 337.5,280.5 338.5,280.5 339.5,280.5C 339.263,281.791 339.596,282.791 340.5,283.5 Z"/></g>
<g><path style="opacity:1" fill="#231609" d="M 266.5,353.5 C 269.5,353.5 272.5,353.5 275.5,353.5C 276.125,356.97 275.125,359.804 272.5,362C 266.772,362.32 261.105,361.82 255.5,360.5C 255.5,358.5 255.5,356.5 255.5,354.5C 258.962,353.518 262.629,353.185 266.5,353.5 Z"/></g>
<g><path style="opacity:1" fill="#372313" d="M 255.5,354.5 C 255.5,356.5 255.5,358.5 255.5,360.5C 261.105,361.82 266.772,362.32 272.5,362C 275.125,359.804 276.125,356.97 275.5,353.5C 272.5,353.5 269.5,353.5 266.5,353.5C 269.845,351.783 273.511,351.116 277.5,351.5C 278.043,356.039 276.71,359.873 273.5,363C 266.388,364.007 259.555,363.173 253,360.5C 252.333,358.833 252.333,357.167 253,355.5C 253.671,354.748 254.504,354.414 255.5,354.5 Z"/></g>
<g><path style="opacity:1" fill="#5f4127" d="M 217.5,377.5 C 216.167,378.167 214.833,378.833 213.5,379.5C 211.744,380.552 211.077,382.219 211.5,384.5C 211.631,385.239 211.464,385.906 211,386.5C 210.346,385.304 209.846,385.304 209.5,386.5C 210.711,387.72 210.711,388.887 209.5,390C 206.953,390.66 204.453,390.493 202,389.5C 200.37,390.713 198.536,391.546 196.5,392C 197.37,394.911 198.87,397.411 201,399.5C 203.135,398.119 205.468,397.119 208,396.5C 209.169,397.009 210.002,397.842 210.5,399C 208.527,399.495 206.527,399.662 204.5,399.5C 205.151,401.826 205.818,404.159 206.5,406.5C 205.478,409.213 205.478,411.88 206.5,414.5C 202.388,415.445 199.721,417.945 198.5,422C 200.291,425.081 201.958,428.248 203.5,431.5C 204.622,432.63 205.956,433.297 207.5,433.5C 207.238,434.978 207.571,436.311 208.5,437.5C 210.833,438.5 212.5,440.167 213.5,442.5C 212.311,443.429 210.978,443.762 209.5,443.5C 208.508,443.672 207.842,443.338 207.5,442.5C 204.57,437.06 201.404,431.727 198,426.5C 197.667,426.833 197.333,427.167 197,427.5C 196.535,426.069 195.701,424.903 194.5,424C 194.833,423.667 195.167,423.333 195.5,423C 192.343,421.179 191.009,418.679 191.5,415.5C 190.575,416.641 189.741,416.641 189,415.5C 187.837,410.509 185.17,406.509 181,403.5C 180.51,402.207 180.343,400.873 180.5,399.5C 178.167,399.5 175.833,399.5 173.5,399.5C 173.5,395.833 173.5,392.167 173.5,388.5C 174.338,388.158 174.672,387.492 174.5,386.5C 175.117,386.389 175.617,386.056 176,385.5C 178.135,387.278 180.635,387.945 183.5,387.5C 184.729,380.522 185.895,373.522 187,366.5C 188.356,365.62 189.856,365.286 191.5,365.5C 191.448,368.537 192.448,371.204 194.5,373.5C 196.733,373.864 198.566,374.864 200,376.5C 201.119,375.448 201.619,374.281 201.5,373C 203.345,371.872 205.345,371.372 207.5,371.5C 207.343,372.873 207.51,374.207 208,375.5C 208.333,375.167 208.667,374.833 209,374.5C 211.804,375.868 214.638,376.868 217.5,377.5 Z"/></g>
<g><path style="opacity:1" fill="#332211" d="M 300.5,389.5 C 300.586,388.504 300.252,387.671 299.5,387C 290.107,386.44 280.773,385.44 271.5,384C 273.5,383.667 275.5,383.333 277.5,383C 272.883,382.264 268.549,380.764 264.5,378.5C 257.189,377.335 249.856,377.169 242.5,378C 232.967,380.782 223.301,381.282 213.5,379.5C 214.833,378.833 216.167,378.167 217.5,377.5C 231.143,376.253 244.81,375.753 258.5,376C 262.872,376.421 267.205,377.088 271.5,378C 280.943,382.873 290.943,385.373 301.5,385.5C 301.768,387.099 301.434,388.432 300.5,389.5 Z"/></g>
<g><path style="opacity:1" fill="#281c0e" d="M 300.5,389.5 C 293.711,390.644 287.211,389.644 281,386.5C 279.431,387.122 277.764,387.456 276,387.5C 269.795,384.753 263.628,384.42 257.5,386.5C 250.182,385.751 242.849,385.084 235.5,384.5C 228.178,385.347 220.844,386.014 213.5,386.5C 213.167,385.5 212.5,384.833 211.5,384.5C 211.077,382.219 211.744,380.552 213.5,379.5C 223.301,381.282 232.967,380.782 242.5,378C 249.856,377.169 257.189,377.335 264.5,378.5C 268.549,380.764 272.883,382.264 277.5,383C 275.5,383.333 273.5,383.667 271.5,384C 280.773,385.44 290.107,386.44 299.5,387C 300.252,387.671 300.586,388.504 300.5,389.5 Z"/></g>
<g><path style="opacity:1" fill="#322011" d="M 300.5,389.5 C 300.389,390.117 300.056,390.617 299.5,391C 298.167,391.167 296.833,391.333 295.5,391.5C 268.085,387.995 240.752,386.328 213.5,386.5C 220.844,386.014 228.178,385.347 235.5,384.5C 242.849,385.084 250.182,385.751 257.5,386.5C 263.628,384.42 269.795,384.753 276,387.5C 277.764,387.456 279.431,387.122 281,386.5C 287.211,389.644 293.711,390.644 300.5,389.5 Z"/></g>
<g><path style="opacity:1" fill="#30414a" d="M 151.5,393.5 C 148.261,391.758 144.928,390.424 141.5,389.5C 145.957,388.063 149.291,389.396 151.5,393.5 Z"/></g>
<g><path style="opacity:1" fill="#2e231a" d="M 340.5,383.5 C 340.823,387.226 340.489,390.893 339.5,394.5C 338.311,396.363 336.978,398.03 335.5,399.5C 336.645,394.296 337.311,388.963 337.5,383.5C 338.5,383.5 339.5,383.5 340.5,383.5 Z"/></g>
<g><path style="opacity:1" fill="#593d23" d="M 298.5,437.5 C 298.291,438.922 297.791,440.255 297,441.5C 294.555,442.977 292.388,444.81 290.5,447C 286.848,447.499 283.182,447.665 279.5,447.5C 279.03,446.307 278.03,445.64 276.5,445.5C 273.86,446.095 271.193,446.428 268.5,446.5C 268.298,441.65 268.132,436.65 268,431.5C 266.667,430.167 265.333,428.833 264,427.5C 263.667,428.167 263.333,428.833 263,429.5C 262.366,426.445 262.532,423.445 263.5,420.5C 268.452,419.102 273.452,417.436 278.5,415.5C 280.889,412.034 283.722,409.034 287,406.5C 287.483,405.552 287.649,404.552 287.5,403.5C 285.167,403.5 282.833,403.5 280.5,403.5C 281.833,402.833 283.167,402.167 284.5,401.5C 288.925,400.182 293.425,399.182 298,398.5C 299.399,399.227 300.899,399.727 302.5,400C 301.214,402.022 300.214,404.189 299.5,406.5C 298.675,407.386 297.675,407.719 296.5,407.5C 296.727,412.692 295.893,417.692 294,422.5C 292.247,421.373 290.413,420.373 288.5,419.5C 288.387,422.376 287.72,425.376 286.5,428.5C 285.252,427.96 284.085,427.293 283,426.5C 282.021,428.32 280.521,429.487 278.5,430C 279.257,431.512 280.257,432.846 281.5,434C 279.771,435.789 279.104,437.956 279.5,440.5C 278.448,440.351 277.448,440.517 276.5,441C 278.218,441.346 279.885,441.846 281.5,442.5C 282.59,443.391 282.59,444.391 281.5,445.5C 282.5,445.833 283.5,446.167 284.5,446.5C 290.323,444.944 294.99,441.944 298.5,437.5 Z"/></g>
<g><path style="opacity:1" fill="#2f2212" d="M 280.5,403.5 C 282.833,403.5 285.167,403.5 287.5,403.5C 287.649,404.552 287.483,405.552 287,406.5C 283.722,409.034 280.889,412.034 278.5,415.5C 273.452,417.436 268.452,419.102 263.5,420.5C 255.023,420.262 248.356,416.929 243.5,410.5C 243.464,407.699 244.797,405.865 247.5,405C 258.533,404.766 269.533,404.266 280.5,403.5 Z"/></g>
<g><path style="opacity:1" fill="#543b23" d="M 274.5,401.5 C 277.833,401.5 281.167,401.5 284.5,401.5C 283.167,402.167 281.833,402.833 280.5,403.5C 269.533,404.266 258.533,404.766 247.5,405C 244.797,405.865 243.464,407.699 243.5,410.5C 248.356,416.929 255.023,420.262 263.5,420.5C 262.532,423.445 262.366,426.445 263,429.5C 263.333,428.833 263.667,428.167 264,427.5C 265.333,428.833 266.667,430.167 268,431.5C 268.132,436.65 268.298,441.65 268.5,446.5C 271.193,446.428 273.86,446.095 276.5,445.5C 278.03,445.64 279.03,446.307 279.5,447.5C 272.5,447.5 265.5,447.5 258.5,447.5C 258.321,442.849 258.321,438.349 258.5,434C 257.953,433.075 257.287,432.242 256.5,431.5C 255.065,432.929 254.065,434.595 253.5,436.5C 256.497,440.671 256.163,444.505 252.5,448C 248.167,448.667 243.833,448.667 239.5,448C 237.36,447.027 235.693,445.527 234.5,443.5C 231.553,442.679 228.553,442.179 225.5,442C 224.327,438.472 221.994,437.139 218.5,438C 217.02,440.235 217.353,442.068 219.5,443.5C 224.522,450.877 231.189,455.877 239.5,458.5C 238.432,459.434 237.099,459.768 235.5,459.5C 225.485,456.111 216.819,450.777 209.5,443.5C 210.978,443.762 212.311,443.429 213.5,442.5C 212.5,440.167 210.833,438.5 208.5,437.5C 207.571,436.311 207.238,434.978 207.5,433.5C 209.087,430.838 210.42,428.505 211.5,426.5C 213.249,428.531 215.249,428.865 217.5,427.5C 218.5,428.833 219.5,430.167 220.5,431.5C 222.562,427.803 225.062,424.47 228,421.5C 228.308,422.308 228.808,422.975 229.5,423.5C 231.74,421.039 232.073,418.373 230.5,415.5C 228.167,415.5 225.833,415.5 223.5,415.5C 223.338,413.473 223.505,411.473 224,409.5C 228.864,407.809 231.697,404.476 232.5,399.5C 238.421,400.946 244.255,401.946 250,402.5C 251.194,401.57 252.527,400.903 254,400.5C 260.941,402.152 267.774,402.486 274.5,401.5 Z"/></g>
<g><path style="opacity:1" fill="#334c5d" d="M 365.5,408.5 C 365.908,409.643 366.575,410.643 367.5,411.5C 368.94,410.048 370.606,409.048 372.5,408.5C 371.292,411.044 369.292,412.378 366.5,412.5C 364.925,410.214 362.925,409.881 360.5,411.5C 361.401,409.273 363.067,408.273 365.5,408.5 Z"/></g>
<g><path style="opacity:1" fill="#546d7c" d="M 359.5,412.5 C 353.962,413.543 348.295,413.71 342.5,413C 341.632,416.767 340.965,420.601 340.5,424.5C 339.5,424.5 338.5,424.5 337.5,424.5C 337.715,426.179 337.048,427.179 335.5,427.5C 338.444,420.092 340.611,412.426 342,404.5C 342.414,404.043 342.914,403.709 343.5,403.5C 346.843,405.486 348.176,408.486 347.5,412.5C 351.531,411.485 355.531,411.485 359.5,412.5 Z"/></g>
<g><path style="opacity:1" fill="#241d16" d="M 174.5,403.5 C 176.973,405.143 178.973,407.31 180.5,410C 180.496,415.316 180.496,420.649 180.5,426C 182.215,435.705 183.381,445.538 184,455.5C 184.221,452.057 185.221,451.724 187,454.5C 187.106,461.628 187.94,468.628 189.5,475.5C 189.015,483.457 188.849,491.457 189,499.5C 187.649,501.019 186.149,502.352 184.5,503.5C 183.056,500.945 181.889,498.279 181,495.5C 180.744,498.557 180.244,501.557 179.5,504.5C 180.343,508.405 182.676,510.738 186.5,511.5C 183.833,511.5 181.167,511.5 178.5,511.5C 177.656,507.79 176.656,504.124 175.5,500.5C 177.661,492.46 177.995,484.46 176.5,476.5C 176.343,462.155 176.677,447.822 177.5,433.5C 177.29,424.929 176.29,416.596 174.5,408.5C 174.5,406.833 174.5,405.167 174.5,403.5 Z"/></g>
<g><path style="opacity:1" fill="#2e2114" d="M 181.5,407.5 C 186.867,415.875 192.033,424.542 197,433.5C 198.171,434.893 199.671,435.727 201.5,436C 203.4,438.335 205.4,440.502 207.5,442.5C 207.842,443.338 208.508,443.672 209.5,443.5C 216.819,450.777 225.485,456.111 235.5,459.5C 244.472,462.175 253.806,463.175 263.5,462.5C 256.679,463.329 249.679,463.829 242.5,464C 243.527,464.513 244.527,465.013 245.5,465.5C 246.619,468.843 247.952,472.177 249.5,475.5C 247.008,479.491 243.842,482.825 240,485.5C 239.804,489.291 238.638,492.625 236.5,495.5C 236.799,497.815 237.632,497.815 239,495.5C 239.961,500.443 239.795,503.11 238.5,503.5C 234.154,503.334 229.821,503.501 225.5,504C 225.957,504.414 226.291,504.914 226.5,505.5C 223.216,506.657 219.882,506.824 216.5,506C 215.62,504.644 215.286,503.144 215.5,501.5C 212.833,501.5 210.167,501.5 207.5,501.5C 207.5,500.5 207.5,499.5 207.5,498.5C 204.351,498.789 201.351,498.289 198.5,497C 199.654,494.241 199.321,491.575 197.5,489C 198.424,487.189 199.257,487.355 200,489.5C 200.5,488.5 201,487.5 201.5,486.5C 199.169,484.34 196.669,482.34 194,480.5C 194.598,472.121 193.431,463.954 190.5,456C 191.116,454.6 191.449,453.1 191.5,451.5C 189.349,442.973 188.182,434.307 188,425.5C 187.467,421.305 185.634,417.805 182.5,415C 182.957,414.586 183.291,414.086 183.5,413.5C 181.914,411.827 181.247,409.827 181.5,407.5 Z"/></g>
<g><path style="opacity:1" fill="#583d2a" d="M 173.5,388.5 C 173.5,392.167 173.5,395.833 173.5,399.5C 175.833,399.5 178.167,399.5 180.5,399.5C 180.343,400.873 180.51,402.207 181,403.5C 185.17,406.509 187.837,410.509 189,415.5C 189.741,416.641 190.575,416.641 191.5,415.5C 191.009,418.679 192.343,421.179 195.5,423C 195.167,423.333 194.833,423.667 194.5,424C 195.701,424.903 196.535,426.069 197,427.5C 197.333,427.167 197.667,426.833 198,426.5C 201.404,431.727 204.57,437.06 207.5,442.5C 205.4,440.502 203.4,438.335 201.5,436C 199.671,435.727 198.171,434.893 197,433.5C 192.033,424.542 186.867,415.875 181.5,407.5C 179.704,406.207 178.037,404.707 176.5,403C 175.563,402.308 174.897,402.475 174.5,403.5C 174.5,405.167 174.5,406.833 174.5,408.5C 174.768,410.099 174.434,411.432 173.5,412.5C 174.08,408.351 173.414,404.684 171.5,401.5C 171.5,397.833 171.5,394.167 171.5,390.5C 172.167,389.833 172.833,389.167 173.5,388.5 Z"/></g>
<g><path style="opacity:1" fill="#141414" d="M 174.5,408.5 C 176.29,416.596 177.29,424.929 177.5,433.5C 176.677,447.822 176.343,462.155 176.5,476.5C 175.551,468.695 174.551,459.028 173.5,447.5C 173.5,435.833 173.5,424.167 173.5,412.5C 174.434,411.432 174.768,410.099 174.5,408.5 Z"/></g>
<g><path style="opacity:1" fill="#342414" d="M 326.5,419.5 C 322.813,424.179 318.48,428.179 313.5,431.5C 304.363,436.618 296.363,443.118 289.5,451C 284.248,453.462 278.915,455.629 273.5,457.5C 273.5,456.5 273.5,455.5 273.5,454.5C 262.209,455.034 250.875,454.867 239.5,454C 237.167,453 235.5,451.333 234.5,449C 231.048,447.774 227.715,446.274 224.5,444.5C 223.571,443.311 223.238,441.978 223.5,440.5C 222.167,440.5 220.833,440.5 219.5,440.5C 219.5,441.5 219.5,442.5 219.5,443.5C 217.353,442.068 217.02,440.235 218.5,438C 221.994,437.139 224.327,438.472 225.5,442C 228.553,442.179 231.553,442.679 234.5,443.5C 235.693,445.527 237.36,447.027 239.5,448C 243.833,448.667 248.167,448.667 252.5,448C 256.163,444.505 256.497,440.671 253.5,436.5C 254.065,434.595 255.065,432.929 256.5,431.5C 257.287,432.242 257.953,433.075 258.5,434C 258.321,438.349 258.321,442.849 258.5,447.5C 265.5,447.5 272.5,447.5 279.5,447.5C 283.182,447.665 286.848,447.499 290.5,447C 292.388,444.81 294.555,442.977 297,441.5C 297.791,440.255 298.291,438.922 298.5,437.5C 299.167,437.5 299.5,437.167 299.5,436.5C 306.406,431.608 313.072,426.275 319.5,420.5C 321.743,419.526 324.076,419.192 326.5,419.5 Z"/></g>
<g><path style="opacity:1" fill="#171410" d="M 329.5,419.5 C 329.785,421.288 329.452,422.955 328.5,424.5C 320.897,431.024 313.73,438.024 307,445.5C 304.781,451.705 300.281,454.871 293.5,455C 290.795,457.792 287.462,459.126 283.5,459C 280.731,461.106 277.731,462.773 274.5,464C 275.571,464.852 276.571,465.685 277.5,466.5C 276.167,466.5 274.833,466.5 273.5,466.5C 271.614,465.935 269.947,464.935 268.5,463.5C 275.754,461.773 282.254,458.439 288,453.5C 288.333,453.833 288.667,454.167 289,454.5C 291.921,452.936 294.421,450.936 296.5,448.5C 298.833,447.833 301.167,447.167 303.5,446.5C 307.204,443.294 310.704,439.96 314,436.5C 318.224,429.843 323.391,424.176 329.5,419.5 Z"/></g>
<g><path style="opacity:1" fill="#251a10" d="M 330.5,415.5 C 330.167,416.833 329.833,418.167 329.5,419.5C 323.391,424.176 318.224,429.843 314,436.5C 310.704,439.96 307.204,443.294 303.5,446.5C 301.167,447.167 298.833,447.833 296.5,448.5C 294.421,450.936 291.921,452.936 289,454.5C 288.667,454.167 288.333,453.833 288,453.5C 282.254,458.439 275.754,461.773 268.5,463.5C 269.947,464.935 271.614,465.935 273.5,466.5C 273.167,466.5 272.833,466.5 272.5,466.5C 263.467,466.716 254.467,466.383 245.5,465.5C 244.527,465.013 243.527,464.513 242.5,464C 249.679,463.829 256.679,463.329 263.5,462.5C 264.766,461.91 266.099,461.41 267.5,461C 258.083,460.731 248.75,459.898 239.5,458.5C 231.189,455.877 224.522,450.877 219.5,443.5C 219.5,442.5 219.5,441.5 219.5,440.5C 220.833,440.5 222.167,440.5 223.5,440.5C 223.238,441.978 223.571,443.311 224.5,444.5C 227.715,446.274 231.048,447.774 234.5,449C 235.5,451.333 237.167,453 239.5,454C 250.875,454.867 262.209,455.034 273.5,454.5C 273.5,455.5 273.5,456.5 273.5,457.5C 278.915,455.629 284.248,453.462 289.5,451C 296.363,443.118 304.363,436.618 313.5,431.5C 318.48,428.179 322.813,424.179 326.5,419.5C 327.833,418.167 329.167,416.833 330.5,415.5 Z"/></g>
<g><path style="opacity:1" fill="#463223" d="M 239.5,458.5 C 248.75,459.898 258.083,460.731 267.5,461C 266.099,461.41 264.766,461.91 263.5,462.5C 253.806,463.175 244.472,462.175 235.5,459.5C 237.099,459.768 238.432,459.434 239.5,458.5 Z"/></g>
<g><path style="opacity:1" fill="#5e7887" d="M 168.5,401.5 C 169.5,401.5 170.5,401.5 171.5,401.5C 173.414,404.684 174.08,408.351 173.5,412.5C 173.5,424.167 173.5,435.833 173.5,447.5C 173.5,468.833 173.5,490.167 173.5,511.5C 170.5,511.5 167.5,511.5 164.5,511.5C 164.228,507.179 164.894,503.012 166.5,499C 165.783,493.348 165.116,487.681 164.5,482C 166.366,461.545 167.366,441.211 167.5,421C 164.317,415.255 163.984,409.089 166.5,402.5C 167.914,403.624 169.414,404.624 171,405.5C 171.483,404.552 171.649,403.552 171.5,402.5C 170.209,402.737 169.209,402.404 168.5,401.5 Z"/></g>
<g><path style="opacity:1" fill="#1e2022" d="M 173.5,447.5 C 174.551,459.028 175.551,468.695 176.5,476.5C 177.995,484.46 177.661,492.46 175.5,500.5C 176.656,504.124 177.656,507.79 178.5,511.5C 176.833,511.5 175.167,511.5 173.5,511.5C 173.5,490.167 173.5,468.833 173.5,447.5 Z"/></g>
<g><path style="opacity:1" fill="#0d181f" d="M 280.5,470.5 C 280.477,472.927 279.977,475.26 279,477.5C 273.879,488.739 269.045,500.072 264.5,511.5C 263.5,511.5 262.5,511.5 261.5,511.5C 261.34,509.801 261.506,508.134 262,506.5C 268.445,494.61 274.612,482.61 280.5,470.5 Z"/></g>
<g><path style="opacity:1" fill="#201f1b" d="M 272.5,466.5 C 272.833,466.5 273.167,466.5 273.5,466.5C 274.833,466.5 276.167,466.5 277.5,466.5C 278.959,466.433 280.292,466.766 281.5,467.5C 281.443,468.609 281.11,469.609 280.5,470.5C 274.612,482.61 268.445,494.61 262,506.5C 261.506,508.134 261.34,509.801 261.5,511.5C 257.833,511.5 254.167,511.5 250.5,511.5C 251.848,510.399 253.348,509.399 255,508.5C 255.937,503.71 257.771,498.877 260.5,494C 259.141,490.589 259.641,487.422 262,484.5C 262.811,485.96 263.645,486.293 264.5,485.5C 263.752,483.668 262.752,482.001 261.5,480.5C 262.689,479.571 264.022,479.238 265.5,479.5C 265.427,475.28 267.427,472.946 271.5,472.5C 271.5,471.5 271.5,470.5 271.5,469.5C 272.552,469.649 273.552,469.483 274.5,469C 273.619,468.292 272.953,467.458 272.5,466.5 Z"/></g>
<g><path style="opacity:1" fill="#2b2118" d="M 174.5,403.5 C 174.897,402.475 175.563,402.308 176.5,403C 178.037,404.707 179.704,406.207 181.5,407.5C 181.247,409.827 181.914,411.827 183.5,413.5C 183.291,414.086 182.957,414.586 182.5,415C 185.634,417.805 187.467,421.305 188,425.5C 188.182,434.307 189.349,442.973 191.5,451.5C 191.449,453.1 191.116,454.6 190.5,456C 193.431,463.954 194.598,472.121 194,480.5C 196.669,482.34 199.169,484.34 201.5,486.5C 201,487.5 200.5,488.5 200,489.5C 199.257,487.355 198.424,487.189 197.5,489C 199.321,491.575 199.654,494.241 198.5,497C 201.351,498.289 204.351,498.789 207.5,498.5C 207.5,499.5 207.5,500.5 207.5,501.5C 210.167,501.5 212.833,501.5 215.5,501.5C 215.286,503.144 215.62,504.644 216.5,506C 219.882,506.824 223.216,506.657 226.5,505.5C 226.291,504.914 225.957,504.414 225.5,504C 229.821,503.501 234.154,503.334 238.5,503.5C 239.795,503.11 239.961,500.443 239,495.5C 237.632,497.815 236.799,497.815 236.5,495.5C 238.638,492.625 239.804,489.291 240,485.5C 243.842,482.825 247.008,479.491 249.5,475.5C 247.952,472.177 246.619,468.843 245.5,465.5C 254.467,466.383 263.467,466.716 272.5,466.5C 272.953,467.458 273.619,468.292 274.5,469C 273.552,469.483 272.552,469.649 271.5,469.5C 271.5,470.5 271.5,471.5 271.5,472.5C 267.427,472.946 265.427,475.28 265.5,479.5C 264.022,479.238 262.689,479.571 261.5,480.5C 262.752,482.001 263.752,483.668 264.5,485.5C 263.645,486.293 262.811,485.96 262,484.5C 259.641,487.422 259.141,490.589 260.5,494C 257.771,498.877 255.937,503.71 255,508.5C 253.348,509.399 251.848,510.399 250.5,511.5C 229.167,511.5 207.833,511.5 186.5,511.5C 182.676,510.738 180.343,508.405 179.5,504.5C 180.244,501.557 180.744,498.557 181,495.5C 181.889,498.279 183.056,500.945 184.5,503.5C 186.149,502.352 187.649,501.019 189,499.5C 188.849,491.457 189.015,483.457 189.5,475.5C 187.94,468.628 187.106,461.628 187,454.5C 185.221,451.724 184.221,452.057 184,455.5C 183.381,445.538 182.215,435.705 180.5,426C 180.496,420.649 180.496,415.316 180.5,410C 178.973,407.31 176.973,405.143 174.5,403.5 Z"/></g>
</svg>
