<?xml version="1.0" encoding="UTF-8"?>
<!DOCTYPE svg PUBLIC "-//W3C//DTD SVG 1.1//EN" "http://www.w3.org/Graphics/SVG/1.1/DTD/svg11.dtd">
<svg xmlns="http://www.w3.org/2000/svg" version="1.1" width="512px" height="512px" style="shape-rendering:geometricPrecision; text-rendering:geometricPrecision; image-rendering:optimizeQuality; fill-rule:evenodd; clip-rule:evenodd" xmlns:xlink="http://www.w3.org/1999/xlink">
<g><path style="opacity:1" fill="#628697" d="M -0.5,-0.5 C 7.5,-0.5 15.5,-0.5 23.5,-0.5C 23.3379,1.5273 23.5045,3.5273 24,5.5C 27.3319,6.49685 29.8319,8.49685 31.5,11.5C 29.8595,14.7224 27.1928,16.0557 23.5,15.5C 22.7057,17.8728 21.7057,20.2062 20.5,22.5C 21.0521,24.3334 21.8855,26.0001 23,27.5C 23.4996,34.1583 23.6663,40.825 23.5,47.5C 20.001,47.741 19.6677,46.9076 22.5,45C 20.1667,43 17.8333,43 15.5,45C 16.5505,46.3848 17.8839,47.3848 19.5,48C 16.8039,49.0751 14.8039,50.9084 13.5,53.5C 13.7093,54.086 14.0426,54.586 14.5,55C 13.9211,58.1386 12.9211,61.1386 11.5,64C 12.5634,65.1882 13.8967,65.6882 15.5,65.5C 15.3433,66.8734 15.51,68.2068 16,69.5C 23.2474,72.529 23.0807,73.8624 15.5,73.5C 15.5,74.5 15.5,75.5 15.5,76.5C 17.9372,76.2437 20.2706,75.5771 22.5,74.5C 23.3567,75.7357 24.0234,77.069 24.5,78.5C 22.8442,80.3294 20.8442,81.6628 18.5,82.5C 23.0229,87.051 22.0229,89.7177 15.5,90.5C 15.8333,90.8333 16.1667,91.1667 16.5,91.5C 19.291,89.9602 21.791,90.2936 24,92.5C 25.827,90.7601 25.6603,89.0935 23.5,87.5C 25.1875,86.432 26.8541,86.5986 28.5,88C 27.6433,88.6891 26.9767,89.5224 26.5,90.5C 27.7468,92.0421 27.7468,93.5421 26.5,95C 31.1548,95.4992 35.8215,95.6658 40.5,95.5C 39.6683,100.501 36.835,103.834 32,105.5C 31.8371,107.676 31.0037,109.509 29.5,111C 32.7196,115.304 31.7196,118.304 26.5,120C 24.9512,121.214 23.7845,122.714 23,124.5C 23.5649,127.518 23.3982,130.518 22.5,133.5C 20.4902,135.171 18.1569,135.838 15.5,135.5C 15.5,143.5 15.5,151.5 15.5,159.5C 12.8333,159.5 10.1667,159.5 7.5,159.5C 6.83333,165.5 9.5,168.167 15.5,167.5C 15.5,175.5 15.5,183.5 15.5,191.5C 12.9885,191.162 10.6552,191.162 8.5,191.5C 7.77112,197.34 7.10445,203.174 6.5,209C 7.98705,213.154 10.8204,215.987 15,217.5C 15.6667,219.167 15.6667,220.833 15,222.5C 12.6194,223.435 10.1194,223.768 7.5,223.5C 7.76773,229.382 7.4344,235.215 6.5,241C 7.98705,245.154 10.8204,247.987 15,249.5C 15.9181,252.063 15.4181,254.23 13.5,256C 14.8111,262.093 15.4778,268.426 15.5,275C 15.3333,281.167 15.1667,287.333 15,293.5C 10.8204,295.013 7.98705,297.846 6.5,302C 7.1624,328.846 7.82907,355.679 8.5,382.5C 6.95934,386.173 7.29267,389.673 9.5,393C 6.86742,397.514 6.86742,402.014 9.5,406.5C 11.4086,407.348 13.4086,407.682 15.5,407.5C 15.3335,417.506 15.5002,427.506 16,437.5C 20.8636,439.191 23.697,442.524 24.5,447.5C 21.5,447.5 18.5,447.5 15.5,447.5C 15.5,458.167 15.5,468.833 15.5,479.5C 18.1667,479.5 20.8333,479.5 23.5,479.5C 22.9607,482.695 23.9607,485.195 26.5,487C 33.4921,487.5 40.4921,487.666 47.5,487.5C 47.5,484.833 47.5,482.167 47.5,479.5C 58.1667,479.5 68.8333,479.5 79.5,479.5C 81.9236,481.241 84.5902,482.575 87.5,483.5C 87.6399,485.124 86.9733,486.29 85.5,487C 87.1667,487.333 88.8333,487.667 90.5,488C 89.552,488.483 88.552,488.649 87.5,488.5C 87.3537,490.942 88.187,491.609 90,490.5C 92.046,492.376 93.8793,494.376 95.5,496.5C 94.8333,498.167 94.1667,499.833 93.5,501.5C 94.4228,502.836 94.9228,504.17 95,505.5C 90.6056,503.94 87.7723,500.94 86.5,496.5C 57.5077,495.5 28.5077,495.167 -0.5,495.5C -0.5,330.167 -0.5,164.833 -0.5,-0.5 Z"/></g>
<g><path style="opacity:1" fill="#648596" d="M 23.5,-0.5 C 186.167,-0.5 348.833,-0.5 511.5,-0.5C 511.5,170.167 511.5,340.833 511.5,511.5C 448.167,511.5 384.833,511.5 321.5,511.5C 322.145,510.188 323.145,509.188 324.5,508.5C 326.833,508.667 329.167,508.833 331.5,509C 332.337,507.989 332.67,506.822 332.5,505.5C 331.325,505.719 330.325,505.386 329.5,504.5C 330.54,502.477 331.54,500.477 332.5,498.5C 332.278,496.945 331.611,495.611 330.5,494.5C 335.018,492.148 338.351,488.648 340.5,484C 342.035,483.504 343.535,483.67 345,484.5C 349.461,481.842 354.295,480.342 359.5,480C 358.027,479.29 357.36,478.124 357.5,476.5C 360.973,476.424 364.306,475.758 367.5,474.5C 367.5,472.833 367.5,471.167 367.5,469.5C 370.084,469.569 372.084,470.735 373.5,473C 376.833,473.333 380.167,473.667 383.5,474C 380.833,474.333 378.167,474.667 375.5,475C 383.827,476.315 391.827,475.315 399.5,472C 397.842,471.275 397.342,470.108 398,468.5C 399.333,467.167 400.667,467.167 402,468.5C 403,467.833 404,467.167 405,466.5C 405.148,464.095 404.648,461.761 403.5,459.5C 403.833,457.167 404.833,456.833 406.5,458.5C 407.48,455.914 407.813,453.247 407.5,450.5C 411.17,450.673 413.67,449.007 415,445.5C 415.825,443.299 415.325,441.466 413.5,440C 415.134,439.506 416.801,439.34 418.5,439.5C 418.327,436.821 417.327,434.487 415.5,432.5C 418.317,428.028 422.317,425.028 427.5,423.5C 428.995,420.355 428.662,417.522 426.5,415C 429.167,412.667 429.167,410.333 426.5,408C 428.048,403.004 429.381,397.837 430.5,392.5C 429.624,391.749 428.624,391.249 427.5,391C 429.294,388.546 430.628,385.879 431.5,383C 431.055,380.41 430.389,377.91 429.5,375.5C 431.167,375.5 432.833,375.5 434.5,375.5C 434.389,368.725 434.722,362.225 435.5,356C 434.929,354.795 434.262,353.628 433.5,352.5C 431.995,355.131 431.329,354.797 431.5,351.5C 430.5,351.5 429.5,351.5 428.5,351.5C 427.778,347.494 426.945,343.494 426,339.5C 424.594,338.332 423.428,338.665 422.5,340.5C 421.355,339.224 421.355,337.891 422.5,336.5C 421.675,335.614 420.675,335.281 419.5,335.5C 419.277,331.375 417.777,330.709 415,333.5C 412.667,332.167 410.333,332.167 408,333.5C 404.208,330.475 402.042,331.475 401.5,336.5C 402.982,338.71 402.482,340.376 400,341.5C 399.517,340.552 399.351,339.552 399.5,338.5C 395.762,339.209 392.429,340.876 389.5,343.5C 388.52,346.086 388.187,348.753 388.5,351.5C 387.5,351.5 386.5,351.5 385.5,351.5C 385.392,353.783 384.559,355.783 383,357.5C 381.12,356.07 379.62,356.404 378.5,358.5C 379.5,359.167 380.5,359.833 381.5,360.5C 381.291,361.086 380.957,361.586 380.5,362C 378.331,362.429 376.331,361.929 374.5,360.5C 371.098,363.195 368.264,362.862 366,359.5C 364.599,346.101 363.599,332.767 363,319.5C 362.167,287.495 362.333,255.495 363.5,223.5C 365.457,220.983 368.124,219.816 371.5,220C 372.931,219.535 374.097,218.701 375,217.5C 376.667,212.797 378.333,208.13 380,203.5C 380.495,201.527 380.662,199.527 380.5,197.5C 381.838,186.447 383.505,175.447 385.5,164.5C 384.06,151.073 380.893,138.073 376,125.5C 365.979,111.139 354.145,98.3061 340.5,87C 329.082,82.914 318.082,77.914 307.5,72C 299.999,69.5831 292.333,67.9164 284.5,67C 256.833,66.3333 229.167,66.3333 201.5,67C 189.771,69.0768 178.438,72.4102 167.5,77C 153.176,85.8339 138.509,94.0006 123.5,101.5C 122.756,104.443 122.256,107.443 122,110.5C 117.897,115.705 114.563,121.372 112,127.5C 110.949,133.038 109.283,138.372 107,143.5C 106.5,171.165 106.333,198.831 106.5,226.5C 106.48,259.815 106.48,292.982 106.5,326C 105.365,326.749 104.365,326.583 103.5,325.5C 103.088,323.113 102.088,321.113 100.5,319.5C 99.6253,311.172 98.7919,302.838 98,294.5C 97.1922,296.423 96.6922,298.423 96.5,300.5C 97.7711,310.056 97.7711,319.556 96.5,329C 98.2396,330.694 100.24,331.861 102.5,332.5C 102.5,333.5 102.5,334.5 102.5,335.5C 101.167,335.5 99.8333,335.5 98.5,335.5C 98.5,334.167 98.5,332.833 98.5,331.5C 97.5,331.5 96.5,331.5 95.5,331.5C 95.8441,328.38 95.1775,325.547 93.5,323C 94.9619,320.748 94.2952,319.248 91.5,318.5C 92.1901,315.932 92.5234,313.432 92.5,311C 91.9747,310.308 91.3081,309.808 90.5,309.5C 88.5,310.833 86.5,310.833 84.5,309.5C 83.513,312.768 83.1796,316.102 83.5,319.5C 80.5095,319.33 78.5095,320.663 77.5,323.5C 79.2535,327.246 79.9201,331.246 79.5,335.5C 80.8333,335.5 82.1667,335.5 83.5,335.5C 83.5,340.833 83.5,346.167 83.5,351.5C 80.865,352.142 78.1984,352.809 75.5,353.5C 73.5136,353.213 71.6803,352.547 70,351.5C 69.228,351.645 68.5613,351.978 68,352.5C 67.3581,354.762 66.5248,356.929 65.5,359C 66.5,359.333 67.5,359.667 68.5,360C 66.0777,362.112 66.0777,364.112 68.5,366C 72.7017,365.022 74.7017,366.855 74.5,371.5C 73.5,371.5 72.5,371.5 71.5,371.5C 71.5,372.833 71.5,374.167 71.5,375.5C 67.7002,375.819 67.5335,376.819 71,378.5C 73.0435,376.792 74.7101,374.792 76,372.5C 76.8333,373.333 77.6667,374.167 78.5,375C 74.6135,378.045 73.6135,381.878 75.5,386.5C 74.1779,386.67 73.0113,386.337 72,385.5C 71.3647,387.618 70.5314,389.618 69.5,391.5C 70.0222,394.892 71.1889,395.226 73,392.5C 75.8894,395.031 79.056,397.198 82.5,399C 81.3892,401.624 79.3892,403.124 76.5,403.5C 77.325,404.386 78.325,404.719 79.5,404.5C 78.1832,412.209 79.8498,419.043 84.5,425C 86.1346,425.54 87.4679,425.04 88.5,423.5C 88.8333,424 89.1667,424.5 89.5,425C 86.8841,428.516 86.8841,432.016 89.5,435.5C 88.3887,436.611 87.722,437.945 87.5,439.5C 88.8141,440.986 89.8141,442.653 90.5,444.5C 89.9272,447.085 88.2605,448.085 85.5,447.5C 85.372,449.655 85.872,451.655 87,453.5C 87.3333,452.5 87.6667,451.5 88,450.5C 92.1955,452.8 92.3622,455.133 88.5,457.5C 87.0602,461.669 85.3935,465.669 83.5,469.5C 84.8333,469.5 86.1667,469.5 87.5,469.5C 87.6837,473.079 87.017,476.413 85.5,479.5C 83.5,479.5 81.5,479.5 79.5,479.5C 68.8333,479.5 58.1667,479.5 47.5,479.5C 47.5,482.167 47.5,484.833 47.5,487.5C 40.4921,487.666 33.4921,487.5 26.5,487C 23.9607,485.195 22.9607,482.695 23.5,479.5C 20.8333,479.5 18.1667,479.5 15.5,479.5C 15.5,468.833 15.5,458.167 15.5,447.5C 18.5,447.5 21.5,447.5 24.5,447.5C 23.697,442.524 20.8636,439.191 16,437.5C 15.5002,427.506 15.3335,417.506 15.5,407.5C 13.4086,407.682 11.4086,407.348 9.5,406.5C 6.86742,402.014 6.86742,397.514 9.5,393C 7.29267,389.673 6.95934,386.173 8.5,382.5C 7.82907,355.679 7.1624,328.846 6.5,302C 7.98705,297.846 10.8204,295.013 15,293.5C 15.1667,287.333 15.3333,281.167 15.5,275C 15.4778,268.426 14.8111,262.093 13.5,256C 15.4181,254.23 15.9181,252.063 15,249.5C 10.8204,247.987 7.98705,245.154 6.5,241C 7.4344,235.215 7.76773,229.382 7.5,223.5C 10.1194,223.768 12.6194,223.435 15,222.5C 15.6667,220.833 15.6667,219.167 15,217.5C 10.8204,215.987 7.98705,213.154 6.5,209C 7.10445,203.174 7.77112,197.34 8.5,191.5C 10.6552,191.162 12.9885,191.162 15.5,191.5C 15.5,183.5 15.5,175.5 15.5,167.5C 9.5,168.167 6.83333,165.5 7.5,159.5C 10.1667,159.5 12.8333,159.5 15.5,159.5C 15.5,151.5 15.5,143.5 15.5,135.5C 18.1569,135.838 20.4902,135.171 22.5,133.5C 23.3982,130.518 23.5649,127.518 23,124.5C 23.7845,122.714 24.9512,121.214 26.5,120C 31.7196,118.304 32.7196,115.304 29.5,111C 31.0037,109.509 31.8371,107.676 32,105.5C 36.835,103.834 39.6683,100.501 40.5,95.5C 35.8215,95.6658 31.1548,95.4992 26.5,95C 27.7468,93.5421 27.7468,92.0421 26.5,90.5C 26.9767,89.5224 27.6433,88.6891 28.5,88C 26.8541,86.5986 25.1875,86.432 23.5,87.5C 25.6603,89.0935 25.827,90.7601 24,92.5C 21.791,90.2936 19.291,89.9602 16.5,91.5C 16.1667,91.1667 15.8333,90.8333 15.5,90.5C 22.0229,89.7177 23.0229,87.051 18.5,82.5C 20.8442,81.6628 22.8442,80.3294 24.5,78.5C 24.0234,77.069 23.3567,75.7357 22.5,74.5C 20.2706,75.5771 17.9372,76.2437 15.5,76.5C 15.5,75.5 15.5,74.5 15.5,73.5C 23.0807,73.8624 23.2474,72.529 16,69.5C 15.51,68.2068 15.3433,66.8734 15.5,65.5C 13.8967,65.6882 12.5634,65.1882 11.5,64C 12.9211,61.1386 13.9211,58.1386 14.5,55C 14.0426,54.586 13.7093,54.086 13.5,53.5C 14.8039,50.9084 16.8039,49.0751 19.5,48C 17.8839,47.3848 16.5505,46.3848 15.5,45C 17.8333,43 20.1667,43 22.5,45C 19.6677,46.9076 20.001,47.741 23.5,47.5C 23.6663,40.825 23.4996,34.1583 23,27.5C 21.8855,26.0001 21.0521,24.3334 20.5,22.5C 21.7057,20.2062 22.7057,17.8728 23.5,15.5C 27.1928,16.0557 29.8595,14.7224 31.5,11.5C 29.8319,8.49685 27.3319,6.49685 24,5.5C 23.5045,3.5273 23.3379,1.5273 23.5,-0.5 Z"/></g>
<g><path style="opacity:1" fill="#010202" d="M 380.5,197.5 C 378.007,203.436 375.507,209.436 373,215.5C 372.167,216.333 371.333,217.167 370.5,218C 367.313,218.001 364.48,218.834 362,220.5C 360.789,276.151 359.956,331.817 359.5,387.5C 359.517,394.577 359.851,401.577 360.5,408.5C 359.593,416.141 358.927,423.807 358.5,431.5C 356.5,431.5 354.5,431.5 352.5,431.5C 352.322,434.216 351.822,436.883 351,439.5C 349.198,440.789 348.031,442.456 347.5,444.5C 345.896,445.287 345.229,446.62 345.5,448.5C 342.122,447.891 340.122,449.224 339.5,452.5C 339.5,453.167 339.5,453.833 339.5,454.5C 337.39,455.453 336.223,457.119 336,459.5C 334.122,460.053 332.622,461.053 331.5,462.5C 322.932,469.643 315.765,477.977 310,487.5C 307.443,490.192 304.609,492.525 301.5,494.5C 300.696,495.941 300.029,497.441 299.5,499C 299.639,500.301 300.305,501.134 301.5,501.5C 304.547,504.545 307.213,507.878 309.5,511.5C 308.167,511.5 306.833,511.5 305.5,511.5C 303.561,507.064 300.228,504.231 295.5,503C 295.833,502.667 296.167,502.333 296.5,502C 277.57,499.417 258.57,497.084 239.5,495C 224.648,491.403 210.315,486.403 196.5,480C 184.605,476.796 173.605,471.463 163.5,464C 162.552,463.517 161.552,463.351 160.5,463.5C 160.167,463.5 159.833,463.5 159.5,463.5C 157.817,458.645 154.484,455.145 149.5,453C 147.393,451.736 146.393,449.903 146.5,447.5C 145.167,447.5 143.833,447.5 142.5,447.5C 143.172,444.092 142.172,441.425 139.5,439.5C 139.09,435.001 137.757,430.834 135.5,427C 135.474,420.295 135.474,413.795 135.5,407.5C 134.667,405.833 133.833,404.167 133,402.5C 132.814,395.792 131.314,389.459 128.5,383.5C 127.394,385.284 127.394,387.118 128.5,389C 128,390.5 127.5,392 127,393.5C 126.768,392.263 126.268,391.263 125.5,390.5C 122.906,370.748 119.739,351.082 116,331.5C 115.208,328.894 113.708,326.894 111.5,325.5C 110.62,322.738 109.454,320.071 108,317.5C 107.832,286.997 107.332,256.664 106.5,226.5C 106.333,198.831 106.5,171.165 107,143.5C 109.283,138.372 110.949,133.038 112,127.5C 114.563,121.372 117.897,115.705 122,110.5C 122.256,107.443 122.756,104.443 123.5,101.5C 138.509,94.0006 153.176,85.8339 167.5,77C 178.438,72.4102 189.771,69.0768 201.5,67C 229.167,66.3333 256.833,66.3333 284.5,67C 292.333,67.9164 299.999,69.5831 307.5,72C 318.082,77.914 329.082,82.914 340.5,87C 354.145,98.3061 365.979,111.139 376,125.5C 380.893,138.073 384.06,151.073 385.5,164.5C 383.505,175.447 381.838,186.447 380.5,197.5 Z"/></g>
<g><path style="opacity:1" fill="#192315" d="M 335.5,241.5 C 335.5,240.833 335.5,240.167 335.5,239.5C 336.622,237.712 336.789,235.712 336,233.5C 334.154,230.796 332.987,227.796 332.5,224.5C 329.656,222.155 326.99,219.655 324.5,217C 320.846,214.86 317.346,215.027 314,217.5C 313.667,217.167 313.333,216.833 313,216.5C 310.406,220.099 307.406,223.433 304,226.5C 304.35,230.506 302.85,233.506 299.5,235.5C 297.957,239.461 296.624,243.461 295.5,247.5C 296.5,247.5 297.5,247.5 298.5,247.5C 295.267,248.895 292.767,251.228 291,254.5C 290.297,256.929 290.463,259.262 291.5,261.5C 287.411,261.412 284.744,259.412 283.5,255.5C 284.847,256.171 286.014,256.171 287,255.5C 288.74,252.091 289.74,248.424 290,244.5C 290.333,244.833 290.667,245.167 291,245.5C 291.645,244.354 292.478,243.354 293.5,242.5C 294.226,239.379 295.726,236.713 298,234.5C 298.817,228.713 300.817,223.38 304,218.5C 309.337,215.911 314.504,212.911 319.5,209.5C 326.009,207.171 331.342,208.671 335.5,214C 337.935,222.747 338.935,231.58 338.5,240.5C 337.675,241.386 336.675,241.719 335.5,241.5 Z"/></g>
<g><path style="opacity:1" fill="#1e2b1b" d="M 261.5,247.5 C 254.253,245.802 246.92,245.302 239.5,246C 235.872,248.452 233.206,251.619 231.5,255.5C 230.833,255.5 230.167,255.5 229.5,255.5C 229.414,253.323 228.747,251.323 227.5,249.5C 223.054,248.439 218.721,247.106 214.5,245.5C 206.673,241.902 198.34,239.902 189.5,239.5C 189.047,238.542 188.381,237.708 187.5,237C 189.768,229.683 193.434,223.183 198.5,217.5C 205.904,213.805 212.904,214.638 219.5,220C 225.626,225.916 231.293,232.249 236.5,239C 245.115,241.24 253.448,244.074 261.5,247.5 Z"/></g>
<g><path style="opacity:1" fill="#25331c" d="M 335.5,239.5 C 335.739,237.533 335.406,235.699 334.5,234C 331.956,232.245 329.623,230.245 327.5,228C 320.122,224.67 313.788,226.17 308.5,232.5C 306.615,233.609 304.615,234.443 302.5,235C 300.448,238.272 298.782,241.772 297.5,245.5C 297.957,246.298 298.624,246.631 299.5,246.5C 299.5,246.833 299.5,247.167 299.5,247.5C 299.167,247.5 298.833,247.5 298.5,247.5C 297.5,247.5 296.5,247.5 295.5,247.5C 296.624,243.461 297.957,239.461 299.5,235.5C 302.85,233.506 304.35,230.506 304,226.5C 307.406,223.433 310.406,220.099 313,216.5C 313.333,216.833 313.667,217.167 314,217.5C 317.346,215.027 320.846,214.86 324.5,217C 326.99,219.655 329.656,222.155 332.5,224.5C 332.987,227.796 334.154,230.796 336,233.5C 336.789,235.712 336.622,237.712 335.5,239.5 Z"/></g>
<g><path style="opacity:1" fill="#303f22" d="M 335.5,239.5 C 335.5,240.167 335.5,240.833 335.5,241.5C 330.255,242.794 330.255,244.127 335.5,245.5C 327.349,245.672 319.016,245.839 310.5,246C 309.4,247.023 308.067,247.523 306.5,247.5C 304.182,247.003 301.848,246.67 299.5,246.5C 298.624,246.631 297.957,246.298 297.5,245.5C 298.782,241.772 300.448,238.272 302.5,235C 304.615,234.443 306.615,233.609 308.5,232.5C 313.788,226.17 320.122,224.67 327.5,228C 329.623,230.245 331.956,232.245 334.5,234C 335.406,235.699 335.739,237.533 335.5,239.5 Z"/></g>
<g><path style="opacity:1" fill="#080f09" d="M 336.5,245.5 C 336.167,245.5 335.833,245.5 335.5,245.5C 330.255,244.127 330.255,242.794 335.5,241.5C 336.675,241.719 337.675,241.386 338.5,240.5C 338.935,231.58 337.935,222.747 335.5,214C 331.342,208.671 326.009,207.171 319.5,209.5C 314.504,212.911 309.337,215.911 304,218.5C 300.817,223.38 298.817,228.713 298,234.5C 295.726,236.713 294.226,239.379 293.5,242.5C 292.478,243.354 291.645,244.354 291,245.5C 290.667,245.167 290.333,244.833 290,244.5C 289.74,248.424 288.74,252.091 287,255.5C 286.014,256.171 284.847,256.171 283.5,255.5C 283.747,252.061 283.414,248.728 282.5,245.5C 282.586,244.504 282.252,243.671 281.5,243C 278.084,242.107 274.917,242.607 272,244.5C 269.421,242.185 266.588,241.852 263.5,243.5C 256.626,241.152 249.626,238.985 242.5,237C 234.581,230.02 226.581,223.02 218.5,216C 202.211,208.73 191.377,213.563 186,230.5C 185.713,232.891 185.213,235.224 184.5,237.5C 185.668,239.217 187.335,239.884 189.5,239.5C 198.34,239.902 206.673,241.902 214.5,245.5C 213.07,245.579 211.736,245.246 210.5,244.5C 208.715,245.663 206.715,246.33 204.5,246.5C 200.804,246.217 197.137,245.717 193.5,245C 192.833,244.333 192.167,243.667 191.5,243C 186.177,242.501 180.844,242.334 175.5,242.5C 174.742,237.085 176.575,232.752 181,229.5C 183.318,224.864 185.651,220.198 188,215.5C 193.863,210.324 200.696,208.157 208.5,209C 221.484,213.823 232.817,221.156 242.5,231C 248.308,231.252 253.475,232.418 258,234.5C 259.261,234.241 260.261,233.574 261,232.5C 262.667,233.833 264.333,233.833 266,232.5C 266.667,233.167 267.333,233.833 268,234.5C 271.079,233.752 274.245,232.419 277.5,230.5C 278.894,230.621 280.228,230.954 281.5,231.5C 282.833,233.5 284.167,235.5 285.5,237.5C 289.693,230.96 294.026,224.46 298.5,218C 331.843,196.025 345.51,204.525 339.5,243.5C 337.821,243.285 336.821,243.952 336.5,245.5 Z"/></g>
<g><path style="opacity:1" fill="#4a6137" d="M 315.5,233.5 C 321.324,233.277 326.99,234.11 332.5,236C 333.86,237.938 333.527,239.604 331.5,241C 322.205,242.329 312.871,243.162 303.5,243.5C 303.238,242.022 303.571,240.689 304.5,239.5C 308.067,237.107 311.734,235.107 315.5,233.5 Z"/></g>
<g><path style="opacity:1" fill="#142014" d="M 282.5,245.5 C 278.927,244.113 275.594,244.613 272.5,247C 268.848,247.499 265.182,247.665 261.5,247.5C 253.448,244.074 245.115,241.24 236.5,239C 231.293,232.249 225.626,225.916 219.5,220C 212.904,214.638 205.904,213.805 198.5,217.5C 193.434,223.183 189.768,229.683 187.5,237C 188.381,237.708 189.047,238.542 189.5,239.5C 187.335,239.884 185.668,239.217 184.5,237.5C 185.213,235.224 185.713,232.891 186,230.5C 191.377,213.563 202.211,208.73 218.5,216C 226.581,223.02 234.581,230.02 242.5,237C 249.626,238.985 256.626,241.152 263.5,243.5C 266.588,241.852 269.421,242.185 272,244.5C 274.917,242.607 278.084,242.107 281.5,243C 282.252,243.671 282.586,244.504 282.5,245.5 Z"/></g>
<g><path style="opacity:1" fill="#273b1f" d="M 207.5,217.5 C 209.461,219.312 211.794,220.312 214.5,220.5C 214.5,221.5 214.5,222.5 214.5,223.5C 215.978,223.238 217.311,223.571 218.5,224.5C 219.093,226.382 219.76,228.215 220.5,230C 218.78,230.807 218.446,232.307 219.5,234.5C 219.21,236.044 218.544,237.377 217.5,238.5C 210.244,240.232 202.911,239.732 195.5,237C 194.426,236.261 193.759,235.261 193.5,234C 195.565,228.101 198.899,223.101 203.5,219C 205.058,218.79 206.391,218.29 207.5,217.5 Z"/></g>
<g><path style="opacity:1" fill="#202413" d="M 335.5,245.5 C 335.833,245.5 336.167,245.5 336.5,245.5C 337.043,245.56 337.376,245.893 337.5,246.5C 325.785,247.14 314.118,248.14 302.5,249.5C 301.5,248.833 300.5,248.167 299.5,247.5C 299.5,247.167 299.5,246.833 299.5,246.5C 301.848,246.67 304.182,247.003 306.5,247.5C 308.067,247.523 309.4,247.023 310.5,246C 319.016,245.839 327.349,245.672 335.5,245.5 Z"/></g>
<g><path style="opacity:1" fill="#25381f" d="M 282.5,245.5 C 283.414,248.728 283.747,252.061 283.5,255.5C 284.744,259.412 287.411,261.412 291.5,261.5C 292.492,261.328 293.158,261.662 293.5,262.5C 296.863,264.839 300.03,267.506 303,270.5C 303.624,272.464 303.124,274.131 301.5,275.5C 301.833,275.833 302.167,276.167 302.5,276.5C 305.758,277.417 309.091,277.751 312.5,277.5C 318.5,277.5 324.5,277.5 330.5,277.5C 330.5,277.833 330.5,278.167 330.5,278.5C 320.833,278.5 311.167,278.5 301.5,278.5C 298.257,277.163 295.59,274.996 293.5,272C 294.406,270.301 294.739,268.467 294.5,266.5C 291.345,264.926 288.178,263.26 285,261.5C 282.918,257.848 281.918,253.848 282,249.5C 281.592,247.59 280.425,246.59 278.5,246.5C 275.323,247.965 271.99,249.132 268.5,250C 260.5,250.333 252.5,250.667 244.5,251C 243.057,253.953 240.723,255.453 237.5,255.5C 237.405,258.358 236.238,260.691 234,262.5C 233.505,264.473 233.338,266.473 233.5,268.5C 233.5,269.167 233.167,269.5 232.5,269.5C 232.137,266.437 231.47,263.437 230.5,260.5C 230.728,258.793 231.062,257.126 231.5,255.5C 233.206,251.619 235.872,248.452 239.5,246C 246.92,245.302 254.253,245.802 261.5,247.5C 265.182,247.665 268.848,247.499 272.5,247C 275.594,244.613 278.927,244.113 282.5,245.5 Z"/></g>
<g><path style="opacity:1" fill="#3f592f" d="M 301.5,278.5 C 296.887,278.067 293.054,276.067 290,272.5C 287.364,268.521 284.697,264.521 282,260.5C 280.964,257.247 280.297,253.914 280,250.5C 278.938,249.903 277.772,249.57 276.5,249.5C 266.92,251.118 257.253,251.951 247.5,252C 243.322,258.004 238.655,263.504 233.5,268.5C 233.338,266.473 233.505,264.473 234,262.5C 236.238,260.691 237.405,258.358 237.5,255.5C 240.723,255.453 243.057,253.953 244.5,251C 252.5,250.667 260.5,250.333 268.5,250C 271.99,249.132 275.323,247.965 278.5,246.5C 280.425,246.59 281.592,247.59 282,249.5C 281.918,253.848 282.918,257.848 285,261.5C 288.178,263.26 291.345,264.926 294.5,266.5C 294.739,268.467 294.406,270.301 293.5,272C 295.59,274.996 298.257,277.163 301.5,278.5 Z"/></g>
<g><path style="opacity:1" fill="#a7aea5" d="M 213.5,256.5 C 210.193,257.051 206.86,257.384 203.5,257.5C 202.115,256.698 202.282,256.031 204,255.5C 207.435,253.208 210.935,253.041 214.5,255C 213.944,255.383 213.611,255.883 213.5,256.5 Z"/></g>
<g><path style="opacity:1" fill="#c5cfb3" d="M 312.5,260.5 C 307.489,260.666 302.489,260.499 297.5,260C 297.043,259.586 296.709,259.086 296.5,258.5C 297.949,257.828 299.282,257.161 300.5,256.5C 305.37,254.705 310.37,253.872 315.5,254C 317.555,254.687 319.221,255.854 320.5,257.5C 318.353,259.663 315.686,260.663 312.5,260.5 Z"/></g>
<g><path style="opacity:1" fill="#15200d" d="M 229.5,255.5 C 230.167,255.5 230.833,255.5 231.5,255.5C 231.062,257.126 230.728,258.793 230.5,260.5C 231.47,263.437 232.137,266.437 232.5,269.5C 227.204,276.272 220.204,279.606 211.5,279.5C 203.167,279.5 194.833,279.5 186.5,279.5C 185.833,279.5 185.167,279.5 184.5,279.5C 196.834,278.981 209.168,277.981 221.5,276.5C 221.36,274.876 222.027,273.71 223.5,273C 213.911,271.492 204.244,270.492 194.5,270C 191.316,268.194 190.983,266.194 193.5,264C 205.527,264.542 217.193,262.876 228.5,259C 229.337,257.989 229.67,256.822 229.5,255.5 Z"/></g>
<g><path style="opacity:1" fill="#080f05" d="M 298.5,247.5 C 298.833,247.5 299.167,247.5 299.5,247.5C 300.5,248.167 301.5,248.833 302.5,249.5C 300.237,251.383 297.57,252.716 294.5,253.5C 293.614,254.325 293.281,255.325 293.5,256.5C 295.833,256.5 298.167,256.5 300.5,256.5C 299.282,257.161 297.949,257.828 296.5,258.5C 296.709,259.086 297.043,259.586 297.5,260C 302.489,260.499 307.489,260.666 312.5,260.5C 309.023,261.323 305.356,261.823 301.5,262C 304.372,262.315 307.205,262.815 310,263.5C 312.767,262.939 315.601,263.273 318.5,264.5C 321.402,262.197 322.236,263.197 321,267.5C 319.836,269.649 318.67,271.815 317.5,274C 319.22,275.434 321.22,276.267 323.5,276.5C 325.975,275.881 328.308,275.881 330.5,276.5C 330.5,276.833 330.5,277.167 330.5,277.5C 324.5,277.5 318.5,277.5 312.5,277.5C 310.347,274.938 310.014,272.104 311.5,269C 309.884,268.385 308.551,267.385 307.5,266C 302.724,264.901 298.057,263.734 293.5,262.5C 293.158,261.662 292.492,261.328 291.5,261.5C 290.463,259.262 290.297,256.929 291,254.5C 292.767,251.228 295.267,248.895 298.5,247.5 Z"/></g>
<g><path style="opacity:1" fill="#16200f" d="M 293.5,262.5 C 298.057,263.734 302.724,264.901 307.5,266C 308.551,267.385 309.884,268.385 311.5,269C 310.014,272.104 310.347,274.938 312.5,277.5C 309.091,277.751 305.758,277.417 302.5,276.5C 302.167,276.167 301.833,275.833 301.5,275.5C 303.124,274.131 303.624,272.464 303,270.5C 300.03,267.506 296.863,264.839 293.5,262.5 Z"/></g>
<g><path style="opacity:1" fill="#748e55" d="M 301.5,278.5 C 311.167,278.5 320.833,278.5 330.5,278.5C 332.167,278.5 333.833,278.5 335.5,278.5C 335.5,279.5 335.5,280.5 335.5,281.5C 332.393,281.351 329.393,281.851 326.5,283C 327.833,283.667 327.833,284.333 326.5,285C 323.136,288.116 319.636,288.283 316,285.5C 310.225,285.13 304.391,285.796 298.5,287.5C 297.614,289.722 297.614,291.888 298.5,294C 298.025,295.763 297.358,297.43 296.5,299C 298.816,301.152 299.15,303.652 297.5,306.5C 297.918,312.014 299.085,317.348 301,322.5C 303.746,327.251 307.246,331.417 311.5,335C 315.96,336.968 320.627,338.302 325.5,339C 326.252,339.671 326.586,340.504 326.5,341.5C 324.901,341.232 323.568,341.566 322.5,342.5C 321.167,342.5 319.833,342.5 318.5,342.5C 317.833,342.5 317.167,342.5 316.5,342.5C 317.952,341.698 319.618,341.198 321.5,341C 316.961,340.747 312.461,340.247 308,339.5C 305.879,338.042 304.546,336.042 304,333.5C 303.878,335.437 303.045,336.77 301.5,337.5C 301.725,335.284 300.892,333.617 299,332.5C 298.505,330.527 298.338,328.527 298.5,326.5C 297.5,326.5 296.5,326.5 295.5,326.5C 292.175,326.43 291.175,325.096 292.5,322.5C 292.5,322.167 292.5,321.833 292.5,321.5C 293.468,319.393 293.802,317.059 293.5,314.5C 289.989,314.899 286.656,315.566 283.5,316.5C 274.198,316.982 264.864,317.982 255.5,319.5C 256.981,317.753 258.981,316.586 261.5,316C 253.475,313.505 253.808,311.839 262.5,311C 260.608,310.027 258.608,309.36 256.5,309C 260.651,307.399 264.984,306.232 269.5,305.5C 272.756,304.041 275.423,301.874 277.5,299C 276.524,296.853 276.691,294.686 278,292.5C 280.493,295.246 283.66,296.579 287.5,296.5C 287.586,294.323 288.253,292.323 289.5,290.5C 284.721,285.538 280.554,285.872 277,291.5C 277.498,289.473 277.331,287.473 276.5,285.5C 274.096,284.992 273.429,283.825 274.5,282C 273.552,281.517 272.552,281.351 271.5,281.5C 271.808,279.076 271.474,276.743 270.5,274.5C 266.273,272.51 262.106,270.844 258,269.5C 253.602,270.406 249.435,269.739 245.5,267.5C 245.167,267.667 244.833,267.833 244.5,268C 245.344,270.7 246.344,273.367 247.5,276C 244.477,279.506 240.81,282.006 236.5,283.5C 236.5,282.167 236.5,280.833 236.5,279.5C 234.708,279.366 233.042,279.699 231.5,280.5C 229.544,279.199 227.877,279.699 226.5,282C 217.114,282.681 208.114,285.015 199.5,289C 197.527,289.495 195.527,289.662 193.5,289.5C 192.224,286.664 191.558,283.664 191.5,280.5C 198.354,280.824 205.021,280.491 211.5,279.5C 220.204,279.606 227.204,276.272 232.5,269.5C 233.167,269.5 233.5,269.167 233.5,268.5C 238.655,263.504 243.322,258.004 247.5,252C 257.253,251.951 266.92,251.118 276.5,249.5C 277.772,249.57 278.938,249.903 280,250.5C 280.297,253.914 280.964,257.247 282,260.5C 284.697,264.521 287.364,268.521 290,272.5C 293.054,276.067 296.887,278.067 301.5,278.5 Z"/></g>
<g><path style="opacity:1" fill="#060f05" d="M 214.5,245.5 C 218.721,247.106 223.054,248.439 227.5,249.5C 228.747,251.323 229.414,253.323 229.5,255.5C 229.67,256.822 229.337,257.989 228.5,259C 217.193,262.876 205.527,264.542 193.5,264C 190.983,266.194 191.316,268.194 194.5,270C 204.244,270.492 213.911,271.492 223.5,273C 222.027,273.71 221.36,274.876 221.5,276.5C 209.168,277.981 196.834,278.981 184.5,279.5C 179.156,279.334 173.823,279.501 168.5,280C 167.944,280.383 167.611,280.883 167.5,281.5C 166.504,281.414 165.671,281.748 165,282.5C 163.821,288.801 163.487,295.135 164,301.5C 165.748,303.401 167.248,305.401 168.5,307.5C 168.5,308.167 168.5,308.833 168.5,309.5C 170.653,315.698 172.486,322.031 174,328.5C 177.833,333 181.667,337.5 185.5,342C 190.883,345.135 196.049,348.635 201,352.5C 202.252,355.014 202.752,357.68 202.5,360.5C 191.495,351.826 180.495,343.16 169.5,334.5C 166.535,327.458 164.702,320.125 164,312.5C 157.516,303.748 155.516,294.082 158,283.5C 159.875,280.813 162.375,278.979 165.5,278C 170.837,277.166 176.17,276.333 181.5,275.5C 183.5,274.833 184.833,273.5 185.5,271.5C 184.891,266.861 182.891,263.028 179.5,260C 186.027,259.266 192.527,259.433 199,260.5C 200.888,260.204 202.722,259.704 204.5,259C 203.944,258.617 203.611,258.117 203.5,257.5C 206.86,257.384 210.193,257.051 213.5,256.5C 218.297,258.995 222.63,258.495 226.5,255C 222.976,251.091 218.976,247.924 214.5,245.5 Z"/></g>
<g><path style="opacity:1" fill="#3e4930" d="M 330.5,277.5 C 330.5,277.167 330.5,276.833 330.5,276.5C 333.85,276.335 337.183,276.502 340.5,277C 341.056,277.383 341.389,277.883 341.5,278.5C 341.783,279.289 342.283,279.956 343,280.5C 343.894,294.704 343.394,308.704 341.5,322.5C 342.091,308.834 342.258,295.167 342,281.5C 341.617,280.944 341.117,280.611 340.5,280.5C 340.586,279.504 340.252,278.671 339.5,278C 336.518,277.502 333.518,277.335 330.5,277.5 Z"/></g>
<g><path style="opacity:1" fill="#6a854d" d="M 186.5,279.5 C 194.833,279.5 203.167,279.5 211.5,279.5C 205.021,280.491 198.354,280.824 191.5,280.5C 191.558,283.664 192.224,286.664 193.5,289.5C 195.527,289.662 197.527,289.495 199.5,289C 208.114,285.015 217.114,282.681 226.5,282C 227.877,279.699 229.544,279.199 231.5,280.5C 230.713,282.104 229.38,282.771 227.5,282.5C 227.5,283.5 227.5,284.5 227.5,285.5C 231.63,285.534 235.63,286.201 239.5,287.5C 239.5,289.5 239.5,291.5 239.5,293.5C 233.513,294.329 227.513,295.162 221.5,296C 220.965,298.109 219.965,298.609 218.5,297.5C 217.167,298.167 215.833,298.833 214.5,299.5C 211.899,296.999 209.399,296.999 207,299.5C 204.206,298.154 201.706,298.654 199.5,301C 201.037,302.11 201.703,303.61 201.5,305.5C 199.534,304.2 197.368,303.2 195,302.5C 190.602,304.454 187.602,303.12 186,298.5C 185.798,300.256 185.298,301.922 184.5,303.5C 182.329,299.984 179.329,297.651 175.5,296.5C 176.703,293.827 176.703,291.16 175.5,288.5C 176.706,286.206 177.706,283.873 178.5,281.5C 179.791,281.737 180.791,281.404 181.5,280.5C 183.415,280.784 185.081,280.451 186.5,279.5 Z"/></g>
<g><path style="opacity:1" fill="#698948" d="M 255.5,319.5 C 254.167,319.5 252.833,319.5 251.5,319.5C 251.784,316.223 251.451,313.057 250.5,310C 246.479,309.202 243.813,310.702 242.5,314.5C 235.397,320.166 229.063,326.666 223.5,334C 222.234,334.309 221.067,334.809 220,335.5C 219.04,333.02 218.207,330.52 217.5,328C 218.5,327.667 219.5,327.333 220.5,327C 218.899,326.727 217.399,326.227 216,325.5C 215.444,320.916 213.611,316.916 210.5,313.5C 211.833,312.38 212.333,311.047 212,309.5C 211.333,310.833 210.667,310.833 210,309.5C 209.333,307.5 208.667,305.5 208,303.5C 206.246,305.25 204.079,305.917 201.5,305.5C 201.703,303.61 201.037,302.11 199.5,301C 201.706,298.654 204.206,298.154 207,299.5C 209.399,296.999 211.899,296.999 214.5,299.5C 215.833,298.833 217.167,298.167 218.5,297.5C 219.965,298.609 220.965,298.109 221.5,296C 227.513,295.162 233.513,294.329 239.5,293.5C 239.5,291.5 239.5,289.5 239.5,287.5C 235.63,286.201 231.63,285.534 227.5,285.5C 227.5,284.5 227.5,283.5 227.5,282.5C 229.38,282.771 230.713,282.104 231.5,280.5C 233.042,279.699 234.708,279.366 236.5,279.5C 236.5,280.833 236.5,282.167 236.5,283.5C 240.81,282.006 244.477,279.506 247.5,276C 246.344,273.367 245.344,270.7 244.5,268C 244.833,267.833 245.167,267.667 245.5,267.5C 249.435,269.739 253.602,270.406 258,269.5C 262.106,270.844 266.273,272.51 270.5,274.5C 271.474,276.743 271.808,279.076 271.5,281.5C 272.552,281.351 273.552,281.517 274.5,282C 273.429,283.825 274.096,284.992 276.5,285.5C 277.331,287.473 277.498,289.473 277,291.5C 280.554,285.872 284.721,285.538 289.5,290.5C 288.253,292.323 287.586,294.323 287.5,296.5C 283.66,296.579 280.493,295.246 278,292.5C 276.691,294.686 276.524,296.853 277.5,299C 275.423,301.874 272.756,304.041 269.5,305.5C 264.984,306.232 260.651,307.399 256.5,309C 258.608,309.36 260.608,310.027 262.5,311C 253.808,311.839 253.475,313.505 261.5,316C 258.981,316.586 256.981,317.753 255.5,319.5 Z"/></g>
<g><path style="opacity:1" fill="#6b8452" d="M 330.5,278.5 C 330.5,278.167 330.5,277.833 330.5,277.5C 333.518,277.335 336.518,277.502 339.5,278C 340.252,278.671 340.586,279.504 340.5,280.5C 338.33,286.673 336.664,293.173 335.5,300C 335.667,301.167 335.833,302.333 336,303.5C 336.667,300.833 337.333,300.833 338,303.5C 338.2,309.507 337.867,315.507 337,321.5C 334.71,327.745 332.71,334.079 331,340.5C 329.644,341.38 328.144,341.714 326.5,341.5C 326.586,340.504 326.252,339.671 325.5,339C 320.627,338.302 315.96,336.968 311.5,335C 307.246,331.417 303.746,327.251 301,322.5C 299.085,317.348 297.918,312.014 297.5,306.5C 299.15,303.652 298.816,301.152 296.5,299C 297.358,297.43 298.025,295.763 298.5,294C 297.614,291.888 297.614,289.722 298.5,287.5C 304.391,285.796 310.225,285.13 316,285.5C 319.636,288.283 323.136,288.116 326.5,285C 327.833,284.333 327.833,283.667 326.5,283C 329.393,281.851 332.393,281.351 335.5,281.5C 335.5,280.5 335.5,279.5 335.5,278.5C 333.833,278.5 332.167,278.5 330.5,278.5 Z"/></g>
<g><path style="opacity:1" fill="#23331f" d="M 167.5,281.5 C 166.672,286.261 166.005,291.094 165.5,296C 166.654,299.804 167.654,303.637 168.5,307.5C 167.248,305.401 165.748,303.401 164,301.5C 163.487,295.135 163.821,288.801 165,282.5C 165.671,281.748 166.504,281.414 167.5,281.5 Z"/></g>
<g><path style="opacity:1" fill="#5f7d43" d="M 175.5,296.5 C 179.329,297.651 182.329,299.984 184.5,303.5C 185.298,301.922 185.798,300.256 186,298.5C 187.602,303.12 190.602,304.454 195,302.5C 197.368,303.2 199.534,304.2 201.5,305.5C 204.079,305.917 206.246,305.25 208,303.5C 208.667,305.5 209.333,307.5 210,309.5C 210.667,310.833 211.333,310.833 212,309.5C 212.333,311.047 211.833,312.38 210.5,313.5C 213.611,316.916 215.444,320.916 216,325.5C 217.399,326.227 218.899,326.727 220.5,327C 219.5,327.333 218.5,327.667 217.5,328C 218.207,330.52 219.04,333.02 220,335.5C 221.067,334.809 222.234,334.309 223.5,334C 229.063,326.666 235.397,320.166 242.5,314.5C 241.155,316.697 239.989,319.03 239,321.5C 237.989,322.337 236.822,322.67 235.5,322.5C 233.683,327.337 233.183,332.337 234,337.5C 235.699,338.406 237.533,338.739 239.5,338.5C 240.492,338.328 241.158,338.662 241.5,339.5C 237.154,339.334 232.821,339.501 228.5,340C 225.693,341.397 225.193,343.231 227,345.5C 231.233,344.712 235.4,344.379 239.5,344.5C 245.946,346.246 245.946,347.58 239.5,348.5C 245.081,349.859 250.748,350.692 256.5,351C 250.472,351.17 244.472,351.67 238.5,352.5C 239.154,354.115 239.654,355.782 240,357.5C 244.902,359.624 250.069,360.624 255.5,360.5C 263.684,360.174 271.684,360.508 279.5,361.5C 271.5,361.5 263.5,361.5 255.5,361.5C 245.06,361.969 234.727,361.302 224.5,359.5C 224.579,358.07 224.246,356.736 223.5,355.5C 220.614,353.995 217.947,352.995 215.5,352.5C 216.5,350.833 217.833,349.5 219.5,348.5C 220.76,346.647 220.76,344.814 219.5,343C 212.833,342 206.167,341 199.5,340C 197.716,337.119 195.382,335.786 192.5,336C 191.587,333.667 190.087,331.834 188,330.5C 187.117,327.898 185.617,325.731 183.5,324C 184.349,318.442 182.016,314.442 176.5,312C 176.833,311.667 177.167,311.333 177.5,311C 175.697,309.129 174.364,306.962 173.5,304.5C 175.223,302.132 175.89,299.466 175.5,296.5 Z"/></g>
<g><path style="opacity:1" fill="#628394" d="M 106.5,226.5 C 107.332,256.664 107.832,286.997 108,317.5C 109.454,320.071 110.62,322.738 111.5,325.5C 114.306,332.841 116.473,340.508 118,348.5C 118.199,356.216 118.699,363.882 119.5,371.5C 118.416,382.118 119.416,392.784 122.5,403.5C 121.189,407.407 120.522,411.407 120.5,415.5C 122.167,415.5 123.833,415.5 125.5,415.5C 127.625,428.292 129.125,441.292 130,454.5C 133.502,463.154 135.835,472.154 137,481.5C 137.608,483.066 138.442,484.4 139.5,485.5C 139.189,490.766 139.855,495.766 141.5,500.5C 141.5,504.167 141.5,507.833 141.5,511.5C 94.1667,511.5 46.8333,511.5 -0.5,511.5C -0.5,506.167 -0.5,500.833 -0.5,495.5C 28.5077,495.167 57.5077,495.5 86.5,496.5C 87.7723,500.94 90.6056,503.94 95,505.5C 94.9228,504.17 94.4228,502.836 93.5,501.5C 94.1667,499.833 94.8333,498.167 95.5,496.5C 93.8793,494.376 92.046,492.376 90,490.5C 88.187,491.609 87.3537,490.942 87.5,488.5C 88.552,488.649 89.552,488.483 90.5,488C 88.8333,487.667 87.1667,487.333 85.5,487C 86.9733,486.29 87.6399,485.124 87.5,483.5C 84.5902,482.575 81.9236,481.241 79.5,479.5C 81.5,479.5 83.5,479.5 85.5,479.5C 87.017,476.413 87.6837,473.079 87.5,469.5C 86.1667,469.5 84.8333,469.5 83.5,469.5C 85.3935,465.669 87.0602,461.669 88.5,457.5C 92.3622,455.133 92.1955,452.8 88,450.5C 87.6667,451.5 87.3333,452.5 87,453.5C 85.872,451.655 85.372,449.655 85.5,447.5C 88.2605,448.085 89.9272,447.085 90.5,444.5C 89.8141,442.653 88.8141,440.986 87.5,439.5C 87.722,437.945 88.3887,436.611 89.5,435.5C 86.8841,432.016 86.8841,428.516 89.5,425C 89.1667,424.5 88.8333,424 88.5,423.5C 87.4679,425.04 86.1346,425.54 84.5,425C 79.8498,419.043 78.1832,412.209 79.5,404.5C 78.325,404.719 77.325,404.386 76.5,403.5C 79.3892,403.124 81.3892,401.624 82.5,399C 79.056,397.198 75.8894,395.031 73,392.5C 71.1889,395.226 70.0222,394.892 69.5,391.5C 70.5314,389.618 71.3647,387.618 72,385.5C 73.0113,386.337 74.1779,386.67 75.5,386.5C 73.6135,381.878 74.6135,378.045 78.5,375C 77.6667,374.167 76.8333,373.333 76,372.5C 74.7101,374.792 73.0435,376.792 71,378.5C 67.5335,376.819 67.7002,375.819 71.5,375.5C 71.5,374.167 71.5,372.833 71.5,371.5C 72.5,371.5 73.5,371.5 74.5,371.5C 74.7017,366.855 72.7017,365.022 68.5,366C 66.0777,364.112 66.0777,362.112 68.5,360C 67.5,359.667 66.5,359.333 65.5,359C 66.5248,356.929 67.3581,354.762 68,352.5C 68.5613,351.978 69.228,351.645 70,351.5C 71.6803,352.547 73.5136,353.213 75.5,353.5C 78.1984,352.809 80.865,352.142 83.5,351.5C 83.5,346.167 83.5,340.833 83.5,335.5C 82.1667,335.5 80.8333,335.5 79.5,335.5C 79.9201,331.246 79.2535,327.246 77.5,323.5C 78.5095,320.663 80.5095,319.33 83.5,319.5C 83.1796,316.102 83.513,312.768 84.5,309.5C 86.5,310.833 88.5,310.833 90.5,309.5C 91.3081,309.808 91.9747,310.308 92.5,311C 92.5234,313.432 92.1901,315.932 91.5,318.5C 94.2952,319.248 94.9619,320.748 93.5,323C 95.1775,325.547 95.8441,328.38 95.5,331.5C 96.5,331.5 97.5,331.5 98.5,331.5C 98.5,332.833 98.5,334.167 98.5,335.5C 99.8333,335.5 101.167,335.5 102.5,335.5C 102.5,334.5 102.5,333.5 102.5,332.5C 100.24,331.861 98.2396,330.694 96.5,329C 97.7711,319.556 97.7711,310.056 96.5,300.5C 96.6922,298.423 97.1922,296.423 98,294.5C 98.7919,302.838 99.6253,311.172 100.5,319.5C 102.088,321.113 103.088,323.113 103.5,325.5C 104.365,326.583 105.365,326.749 106.5,326C 106.48,292.982 106.48,259.815 106.5,226.5 Z"/></g>
<g><path style="opacity:1" fill="#556f41" d="M 181.5,280.5 C 180.791,281.404 179.791,281.737 178.5,281.5C 177.706,283.873 176.706,286.206 175.5,288.5C 176.703,291.16 176.703,293.827 175.5,296.5C 175.89,299.466 175.223,302.132 173.5,304.5C 174.364,306.962 175.697,309.129 177.5,311C 177.167,311.333 176.833,311.667 176.5,312C 182.016,314.442 184.349,318.442 183.5,324C 185.617,325.731 187.117,327.898 188,330.5C 190.087,331.834 191.587,333.667 192.5,336C 195.382,335.786 197.716,337.119 199.5,340C 206.167,341 212.833,342 219.5,343C 220.76,344.814 220.76,346.647 219.5,348.5C 217.833,349.5 216.5,350.833 215.5,352.5C 217.947,352.995 220.614,353.995 223.5,355.5C 224.246,356.736 224.579,358.07 224.5,359.5C 234.727,361.302 245.06,361.969 255.5,361.5C 254.432,362.434 253.099,362.768 251.5,362.5C 241.115,362.786 230.782,362.452 220.5,361.5C 208.766,360.029 207.599,355.696 217,348.5C 217.667,347.167 217.667,345.833 217,344.5C 211.733,343.855 206.567,343.188 201.5,342.5C 190.775,338.594 183.942,330.927 181,319.5C 179.104,317.47 176.937,315.803 174.5,314.5C 171.878,309.645 169.711,304.645 168,299.5C 167.772,293.444 168.272,287.444 169.5,281.5C 173.445,280.509 177.445,280.176 181.5,280.5 Z"/></g>
<g><path style="opacity:1" fill="#394b26" d="M 292.5,321.5 C 292.5,319.833 292.5,318.167 292.5,316.5C 289.5,316.5 286.5,316.5 283.5,316.5C 286.656,315.566 289.989,314.899 293.5,314.5C 293.802,317.059 293.468,319.393 292.5,321.5 Z"/></g>
<g><path style="opacity:1" fill="#061106" d="M 283.5,316.5 C 286.5,316.5 289.5,316.5 292.5,316.5C 292.5,318.167 292.5,319.833 292.5,321.5C 292.5,321.833 292.5,322.167 292.5,322.5C 291.078,323.925 289.411,324.925 287.5,325.5C 284.269,326.098 283.936,327.264 286.5,329C 285.167,329.667 283.833,330.333 282.5,331C 277.546,331.267 272.879,332.434 268.5,334.5C 267.106,334.379 265.772,334.046 264.5,333.5C 260.712,335.256 256.712,335.922 252.5,335.5C 252.33,333.152 251.997,330.818 251.5,328.5C 251.467,325.898 252.467,323.898 254.5,322.5C 254.5,322.167 254.5,321.833 254.5,321.5C 255.338,321.158 255.672,320.492 255.5,319.5C 264.864,317.982 274.198,316.982 283.5,316.5 Z"/></g>
<g><path style="opacity:1" fill="#5c7047" d="M 340.5,280.5 C 341.117,280.611 341.617,280.944 342,281.5C 342.258,295.167 342.091,308.834 341.5,322.5C 339.542,328.918 337.208,335.251 334.5,341.5C 330.571,342.433 326.571,342.766 322.5,342.5C 323.568,341.566 324.901,341.232 326.5,341.5C 328.144,341.714 329.644,341.38 331,340.5C 332.71,334.079 334.71,327.745 337,321.5C 337.867,315.507 338.2,309.507 338,303.5C 337.333,300.833 336.667,300.833 336,303.5C 335.833,302.333 335.667,301.167 335.5,300C 336.664,293.173 338.33,286.673 340.5,280.5 Z"/></g>
<g><path style="opacity:1" fill="#415a33" d="M 184.5,279.5 C 185.167,279.5 185.833,279.5 186.5,279.5C 185.081,280.451 183.415,280.784 181.5,280.5C 177.445,280.176 173.445,280.509 169.5,281.5C 168.272,287.444 167.772,293.444 168,299.5C 169.711,304.645 171.878,309.645 174.5,314.5C 176.937,315.803 179.104,317.47 181,319.5C 183.942,330.927 190.775,338.594 201.5,342.5C 197.837,342.048 194.17,341.548 190.5,341C 184.601,334.651 179.601,327.818 175.5,320.5C 173.916,317.609 172.416,314.609 171,311.5C 170.292,310.619 169.458,309.953 168.5,309.5C 168.5,308.833 168.5,308.167 168.5,307.5C 167.654,303.637 166.654,299.804 165.5,296C 166.005,291.094 166.672,286.261 167.5,281.5C 167.611,280.883 167.944,280.383 168.5,280C 173.823,279.501 179.156,279.334 184.5,279.5 Z"/></g>
<g><path style="opacity:1" fill="#3f5c2d" d="M 251.5,319.5 C 250.835,317.631 250.169,315.631 249.5,313.5C 247.582,315.416 245.748,317.416 244,319.5C 243.058,322.993 241.725,326.326 240,329.5C 239.502,332.482 239.335,335.482 239.5,338.5C 237.533,338.739 235.699,338.406 234,337.5C 233.183,332.337 233.683,327.337 235.5,322.5C 236.822,322.67 237.989,322.337 239,321.5C 239.989,319.03 241.155,316.697 242.5,314.5C 243.813,310.702 246.479,309.202 250.5,310C 251.451,313.057 251.784,316.223 251.5,319.5 Z"/></g>
<g><path style="opacity:1" fill="#36432d" d="M 341.5,322.5 C 341.388,329.148 340.055,335.482 337.5,341.5C 336.692,341.808 336.025,342.308 335.5,343C 329.843,343.499 324.176,343.666 318.5,343.5C 318.5,343.167 318.5,342.833 318.5,342.5C 319.833,342.5 321.167,342.5 322.5,342.5C 326.571,342.766 330.571,342.433 334.5,341.5C 337.208,335.251 339.542,328.918 341.5,322.5 Z"/></g>
<g><path style="opacity:1" fill="#324a28" d="M 251.5,319.5 C 252.833,319.5 254.167,319.5 255.5,319.5C 255.672,320.492 255.338,321.158 254.5,321.5C 252.488,320.986 250.488,320.82 248.5,321C 243.475,325.409 241.642,330.909 243,337.5C 245.939,338.128 248.772,338.795 251.5,339.5C 248.167,339.5 244.833,339.5 241.5,339.5C 241.158,338.662 240.492,338.328 239.5,338.5C 239.335,335.482 239.502,332.482 240,329.5C 241.725,326.326 243.058,322.993 244,319.5C 245.748,317.416 247.582,315.416 249.5,313.5C 250.169,315.631 250.835,317.631 251.5,319.5 Z"/></g>
<g><path style="opacity:1" fill="#628293" d="M 380.5,197.5 C 380.662,199.527 380.495,201.527 380,203.5C 378.333,208.13 376.667,212.797 375,217.5C 374.097,218.701 372.931,219.535 371.5,220C 368.124,219.816 365.457,220.983 363.5,223.5C 362.333,255.495 362.167,287.495 363,319.5C 363.599,332.767 364.599,346.101 366,359.5C 368.264,362.862 371.098,363.195 374.5,360.5C 376.331,361.929 378.331,362.429 380.5,362C 380.957,361.586 381.291,361.086 381.5,360.5C 380.5,359.833 379.5,359.167 378.5,358.5C 379.62,356.404 381.12,356.07 383,357.5C 384.559,355.783 385.392,353.783 385.5,351.5C 386.5,351.5 387.5,351.5 388.5,351.5C 388.187,348.753 388.52,346.086 389.5,343.5C 392.429,340.876 395.762,339.209 399.5,338.5C 399.351,339.552 399.517,340.552 400,341.5C 402.482,340.376 402.982,338.71 401.5,336.5C 402.042,331.475 404.208,330.475 408,333.5C 410.333,332.167 412.667,332.167 415,333.5C 417.777,330.709 419.277,331.375 419.5,335.5C 420.675,335.281 421.675,335.614 422.5,336.5C 421.355,337.891 421.355,339.224 422.5,340.5C 423.428,338.665 424.594,338.332 426,339.5C 426.945,343.494 427.778,347.494 428.5,351.5C 429.5,351.5 430.5,351.5 431.5,351.5C 431.329,354.797 431.995,355.131 433.5,352.5C 434.262,353.628 434.929,354.795 435.5,356C 434.722,362.225 434.389,368.725 434.5,375.5C 432.833,375.5 431.167,375.5 429.5,375.5C 430.389,377.91 431.055,380.41 431.5,383C 430.628,385.879 429.294,388.546 427.5,391C 428.624,391.249 429.624,391.749 430.5,392.5C 429.381,397.837 428.048,403.004 426.5,408C 429.167,410.333 429.167,412.667 426.5,415C 428.662,417.522 428.995,420.355 427.5,423.5C 422.317,425.028 418.317,428.028 415.5,432.5C 417.327,434.487 418.327,436.821 418.5,439.5C 416.801,439.34 415.134,439.506 413.5,440C 415.325,441.466 415.825,443.299 415,445.5C 413.67,449.007 411.17,450.673 407.5,450.5C 407.813,453.247 407.48,455.914 406.5,458.5C 404.833,456.833 403.833,457.167 403.5,459.5C 404.648,461.761 405.148,464.095 405,466.5C 404,467.167 403,467.833 402,468.5C 400.667,467.167 399.333,467.167 398,468.5C 397.342,470.108 397.842,471.275 399.5,472C 391.827,475.315 383.827,476.315 375.5,475C 378.167,474.667 380.833,474.333 383.5,474C 380.167,473.667 376.833,473.333 373.5,473C 372.084,470.735 370.084,469.569 367.5,469.5C 367.5,471.167 367.5,472.833 367.5,474.5C 364.306,475.758 360.973,476.424 357.5,476.5C 357.36,478.124 358.027,479.29 359.5,480C 354.295,480.342 349.461,481.842 345,484.5C 343.535,483.67 342.035,483.504 340.5,484C 338.351,488.648 335.018,492.148 330.5,494.5C 331.611,495.611 332.278,496.945 332.5,498.5C 331.54,500.477 330.54,502.477 329.5,504.5C 330.325,505.386 331.325,505.719 332.5,505.5C 332.67,506.822 332.337,507.989 331.5,509C 329.167,508.833 326.833,508.667 324.5,508.5C 323.145,509.188 322.145,510.188 321.5,511.5C 317.5,511.5 313.5,511.5 309.5,511.5C 307.213,507.878 304.547,504.545 301.5,501.5C 301.328,499.508 301.995,497.842 303.5,496.5C 310.277,493.515 315.444,489.181 319,483.5C 319.49,482.207 319.657,480.873 319.5,479.5C 323.453,478.985 325.619,476.652 326,472.5C 328.673,469.998 331.673,467.998 335,466.5C 335.873,466.735 336.707,467.069 337.5,467.5C 337.476,461.792 339.476,456.959 343.5,453C 348.634,452.6 350.801,449.767 350,444.5C 351.2,442.588 352.867,441.255 355,440.5C 355.494,438.866 355.66,437.199 355.5,435.5C 356.5,435.5 357.5,435.5 358.5,435.5C 358.312,433.897 358.812,432.563 360,431.5C 360.26,424.643 360.76,417.809 361.5,411C 361.472,409.93 361.139,409.097 360.5,408.5C 359.851,401.577 359.517,394.577 359.5,387.5C 359.956,331.817 360.789,276.151 362,220.5C 364.48,218.834 367.313,218.001 370.5,218C 371.333,217.167 372.167,216.333 373,215.5C 375.507,209.436 378.007,203.436 380.5,197.5 Z"/></g>
<g><path style="opacity:1" fill="#253720" d="M 254.5,321.5 C 254.5,321.833 254.5,322.167 254.5,322.5C 248.871,321.487 246.538,323.821 247.5,329.5C 246.982,333.748 248.649,336.582 252.5,338C 262.377,339.975 271.377,338.308 279.5,333C 284.142,332.956 288.142,331.456 291.5,328.5C 289.922,327.702 288.256,327.202 286.5,327C 287.056,326.617 287.389,326.117 287.5,325.5C 289.411,324.925 291.078,323.925 292.5,322.5C 291.175,325.096 292.175,326.43 295.5,326.5C 295.793,330.437 295.46,334.27 294.5,338C 286.656,338.171 278.989,338.671 271.5,339.5C 269.565,340.15 267.565,340.483 265.5,340.5C 260.737,340.774 256.07,340.441 251.5,339.5C 248.772,338.795 245.939,338.128 243,337.5C 241.642,330.909 243.475,325.409 248.5,321C 250.488,320.82 252.488,320.986 254.5,321.5 Z"/></g>
<g><path style="opacity:1" fill="#172414" d="M 254.5,322.5 C 252.467,323.898 251.467,325.898 251.5,328.5C 251.997,330.818 252.33,333.152 252.5,335.5C 256.712,335.922 260.712,335.256 264.5,333.5C 265.772,334.046 267.106,334.379 268.5,334.5C 272.879,332.434 277.546,331.267 282.5,331C 283.833,330.333 285.167,329.667 286.5,329C 283.936,327.264 284.269,326.098 287.5,325.5C 287.389,326.117 287.056,326.617 286.5,327C 288.256,327.202 289.922,327.702 291.5,328.5C 288.142,331.456 284.142,332.956 279.5,333C 271.377,338.308 262.377,339.975 252.5,338C 248.649,336.582 246.982,333.748 247.5,329.5C 246.538,323.821 248.871,321.487 254.5,322.5 Z"/></g>
<g><path style="opacity:1" fill="#4d6437" d="M 295.5,326.5 C 296.5,326.5 297.5,326.5 298.5,326.5C 298.338,328.527 298.505,330.527 299,332.5C 300.892,333.617 301.725,335.284 301.5,337.5C 300.391,338.29 299.058,338.79 297.5,339C 288.84,339.5 280.173,339.666 271.5,339.5C 278.989,338.671 286.656,338.171 294.5,338C 295.46,334.27 295.793,330.437 295.5,326.5 Z"/></g>
<g><path style="opacity:1" fill="#6f8d54" d="M 241.5,339.5 C 244.833,339.5 248.167,339.5 251.5,339.5C 256.07,340.441 260.737,340.774 265.5,340.5C 262.311,341.166 258.977,341.833 255.5,342.5C 255.667,342.833 255.833,343.167 256,343.5C 260.692,343.501 265.525,343.668 270.5,344C 271.328,344.915 272.328,345.581 273.5,346C 270.833,347 270.833,348 273.5,349C 267.014,352.367 261.014,356.201 255.5,360.5C 250.069,360.624 244.902,359.624 240,357.5C 239.654,355.782 239.154,354.115 238.5,352.5C 244.472,351.67 250.472,351.17 256.5,351C 250.748,350.692 245.081,349.859 239.5,348.5C 245.946,347.58 245.946,346.246 239.5,344.5C 235.4,344.379 231.233,344.712 227,345.5C 225.193,343.231 225.693,341.397 228.5,340C 232.821,339.501 237.154,339.334 241.5,339.5 Z"/></g>
<g><path style="opacity:1" fill="#162415" d="M 168.5,309.5 C 169.458,309.953 170.292,310.619 171,311.5C 172.416,314.609 173.916,317.609 175.5,320.5C 177.372,330.244 182.705,337.744 191.5,343C 197.801,344.041 203.967,345.541 210,347.5C 209.617,350.811 208.783,354.145 207.5,357.5C 208.225,358.867 208.892,360.2 209.5,361.5C 207.097,361.552 204.764,361.219 202.5,360.5C 202.752,357.68 202.252,355.014 201,352.5C 196.049,348.635 190.883,345.135 185.5,342C 181.667,337.5 177.833,333 174,328.5C 172.486,322.031 170.653,315.698 168.5,309.5 Z"/></g>
<g><path style="opacity:1" fill="#10170f" d="M 341.5,278.5 C 343.017,278.511 344.184,279.177 345,280.5C 347.328,296.892 346.994,313.225 344,329.5C 342.545,334.539 340.712,339.373 338.5,344C 334.833,344.333 331.167,344.667 327.5,345C 324.542,345.229 322.042,346.396 320,348.5C 320.588,351.975 320.421,355.308 319.5,358.5C 317.782,354.733 315.782,351.067 313.5,347.5C 313.981,344.686 315.648,343.352 318.5,343.5C 324.176,343.666 329.843,343.499 335.5,343C 336.025,342.308 336.692,341.808 337.5,341.5C 340.055,335.482 341.388,329.148 341.5,322.5C 343.394,308.704 343.894,294.704 343,280.5C 342.283,279.956 341.783,279.289 341.5,278.5 Z"/></g>
<g><path style="opacity:1" fill="#304525" d="M 175.5,320.5 C 179.601,327.818 184.601,334.651 190.5,341C 194.17,341.548 197.837,342.048 201.5,342.5C 206.567,343.188 211.733,343.855 217,344.5C 217.667,345.833 217.667,347.167 217,348.5C 207.599,355.696 208.766,360.029 220.5,361.5C 217.167,361.5 213.833,361.5 210.5,361.5C 210.167,361.5 209.833,361.5 209.5,361.5C 208.892,360.2 208.225,358.867 207.5,357.5C 208.783,354.145 209.617,350.811 210,347.5C 203.967,345.541 197.801,344.041 191.5,343C 182.705,337.744 177.372,330.244 175.5,320.5 Z"/></g>
<g><path style="opacity:1" fill="#556942" d="M 316.5,342.5 C 317.167,342.5 317.833,342.5 318.5,342.5C 318.5,342.833 318.5,343.167 318.5,343.5C 315.648,343.352 313.981,344.686 313.5,347.5C 315.782,351.067 317.782,354.733 319.5,358.5C 319.167,359.5 318.5,360.167 317.5,360.5C 316.507,357.927 315.674,355.26 315,352.5C 310.057,348.282 310.557,344.949 316.5,342.5 Z"/></g>
<g><path style="opacity:1" fill="#7d965c" d="M 316.5,342.5 C 310.557,344.949 310.057,348.282 315,352.5C 315.674,355.26 316.507,357.927 317.5,360.5C 314.777,362.573 311.61,363.573 308,363.5C 298.498,362.778 288.998,362.111 279.5,361.5C 271.684,360.508 263.684,360.174 255.5,360.5C 261.014,356.201 267.014,352.367 273.5,349C 270.833,348 270.833,347 273.5,346C 272.328,345.581 271.328,344.915 270.5,344C 265.525,343.668 260.692,343.501 256,343.5C 255.833,343.167 255.667,342.833 255.5,342.5C 258.977,341.833 262.311,341.166 265.5,340.5C 267.565,340.483 269.565,340.15 271.5,339.5C 280.173,339.666 288.84,339.5 297.5,339C 299.058,338.79 300.391,338.29 301.5,337.5C 303.045,336.77 303.878,335.437 304,333.5C 304.546,336.042 305.879,338.042 308,339.5C 312.461,340.247 316.961,340.747 321.5,341C 319.618,341.198 317.952,341.698 316.5,342.5 Z"/></g>
<g><path style="opacity:1" fill="#182110" d="M 210.5,361.5 C 213.833,361.5 217.167,361.5 220.5,361.5C 230.782,362.452 241.115,362.786 251.5,362.5C 246.01,363.166 240.343,363.499 234.5,363.5C 226.274,363.698 218.274,363.031 210.5,361.5 Z"/></g>
<g><path style="opacity:1" fill="#181911" d="M 287.5,383.5 C 272.818,383.167 258.152,383.501 243.5,384.5C 244.729,385.281 246.062,385.781 247.5,386C 259.341,386.169 271.007,386.669 282.5,387.5C 268.03,388.06 253.697,387.393 239.5,385.5C 239.5,384.5 239.5,383.5 239.5,382.5C 252.514,382.687 265.514,382.354 278.5,381.5C 280.833,381.667 283.167,381.833 285.5,382C 286.416,382.278 287.082,382.778 287.5,383.5 Z"/></g>
<g><path style="opacity:1" fill="#3f4227" d="M 287.5,383.5 C 294.508,383.334 301.508,383.5 308.5,384C 300.09,386.802 291.423,387.968 282.5,387.5C 271.007,386.669 259.341,386.169 247.5,386C 246.062,385.781 244.729,385.281 243.5,384.5C 258.152,383.501 272.818,383.167 287.5,383.5 Z"/></g>
<g><path style="opacity:1" fill="#617c8c" d="M 111.5,325.5 C 113.708,326.894 115.208,328.894 116,331.5C 119.739,351.082 122.906,370.748 125.5,390.5C 126.887,400.502 128.387,410.502 130,420.5C 130.459,429.516 131.126,438.516 132,447.5C 134.183,460.269 136.683,472.936 139.5,485.5C 138.442,484.4 137.608,483.066 137,481.5C 135.835,472.154 133.502,463.154 130,454.5C 129.125,441.292 127.625,428.292 125.5,415.5C 123.833,415.5 122.167,415.5 120.5,415.5C 120.522,411.407 121.189,407.407 122.5,403.5C 119.416,392.784 118.416,382.118 119.5,371.5C 118.699,363.882 118.199,356.216 118,348.5C 116.473,340.508 114.306,332.841 111.5,325.5 Z"/></g>
<g><path style="opacity:1" fill="#030c0c" d="M 159.5,463.5 C 149.849,458.349 142.349,451.016 137,441.5C 136.231,449.058 136.731,456.391 138.5,463.5C 141.92,476.287 144.92,489.287 147.5,502.5C 147.632,505.57 147.299,508.57 146.5,511.5C 144.833,511.5 143.167,511.5 141.5,511.5C 141.5,507.833 141.5,504.167 141.5,500.5C 141.698,495.25 141.031,490.25 139.5,485.5C 136.683,472.936 134.183,460.269 132,447.5C 131.126,438.516 130.459,429.516 130,420.5C 128.387,410.502 126.887,400.502 125.5,390.5C 126.268,391.263 126.768,392.263 127,393.5C 127.5,392 128,390.5 128.5,389C 127.394,387.118 127.394,385.284 128.5,383.5C 131.314,389.459 132.814,395.792 133,402.5C 133.833,404.167 134.667,405.833 135.5,407.5C 135.474,413.795 135.474,420.295 135.5,427C 137.757,430.834 139.09,435.001 139.5,439.5C 142.172,441.425 143.172,444.092 142.5,447.5C 143.833,447.5 145.167,447.5 146.5,447.5C 146.393,449.903 147.393,451.736 149.5,453C 154.484,455.145 157.817,458.645 159.5,463.5 Z"/></g>
<g><path style="opacity:1" fill="#28373e" d="M 347.5,444.5 C 347.108,446.179 346.608,447.846 346,449.5C 343.625,450.129 341.459,451.129 339.5,452.5C 340.122,449.224 342.122,447.891 345.5,448.5C 345.229,446.62 345.896,445.287 347.5,444.5 Z"/></g>
<g><path style="opacity:1" fill="#2b3d46" d="M 339.5,454.5 C 338.096,457.97 337.096,461.637 336.5,465.5C 335.614,464.675 335.281,463.675 335.5,462.5C 334.167,462.5 332.833,462.5 331.5,462.5C 332.622,461.053 334.122,460.053 336,459.5C 336.223,457.119 337.39,455.453 339.5,454.5 Z"/></g>
<g><path style="opacity:1" fill="#022816" d="M 150.5,463.5 C 150.971,464.901 151.638,466.234 152.5,467.5C 159.781,471.811 164.281,478.145 166,486.5C 166.654,485.304 167.154,485.304 167.5,486.5C 167.167,487.167 166.833,487.833 166.5,488.5C 167.268,492.445 167.768,496.445 168,500.5C 169,501.833 170,501.833 171,500.5C 172.11,502.243 173.61,503.576 175.5,504.5C 174.833,505.833 173.833,506.833 172.5,507.5C 171.135,506.193 169.802,506.193 168.5,507.5C 163.131,508.02 158.131,507.02 153.5,504.5C 155.128,502.681 157.128,501.347 159.5,500.5C 157.294,498.915 154.961,497.415 152.5,496C 153.428,495.612 154.095,494.945 154.5,494C 153.168,489.002 151.835,484.002 150.5,479C 153.362,473.129 152.695,468.129 148.5,464C 149.094,463.536 149.761,463.369 150.5,463.5 Z"/></g>
<g><path style="opacity:1" fill="#031d11" d="M 159.5,463.5 C 159.833,463.5 160.167,463.5 160.5,463.5C 165.095,468.902 170.762,473.068 177.5,476C 186.655,482.978 196.655,488.478 207.5,492.5C 210.677,495.178 213.677,498.012 216.5,501C 220.881,502.326 224.548,504.659 227.5,508C 226.269,509.405 224.936,510.571 223.5,511.5C 197.833,511.5 172.167,511.5 146.5,511.5C 147.299,508.57 147.632,505.57 147.5,502.5C 148.384,505.023 149.218,507.69 150,510.5C 152.67,507.611 155.504,507.277 158.5,509.5C 162.032,509.676 165.366,509.343 168.5,508.5C 178.29,508.092 187.957,508.759 197.5,510.5C 200.295,510.547 202.961,510.047 205.5,509C 203.655,507.872 201.655,507.372 199.5,507.5C 199.657,506.127 199.49,504.793 199,503.5C 196.78,500.979 194.28,498.812 191.5,497C 191.833,496.667 192.167,496.333 192.5,496C 191.167,495.667 189.833,495.333 188.5,495C 187.126,492.417 185.626,489.917 184,487.5C 183.667,487.833 183.333,488.167 183,488.5C 182.092,486.561 180.592,485.561 178.5,485.5C 178.5,484.5 178.5,483.5 178.5,482.5C 177.325,482.719 176.325,482.386 175.5,481.5C 172.99,477.892 169.657,474.392 165.5,471C 158.432,465.812 151.432,460.646 144.5,455.5C 142.686,453.725 141.02,451.725 139.5,449.5C 138.507,454.12 138.173,458.786 138.5,463.5C 136.731,456.391 136.231,449.058 137,441.5C 142.349,451.016 149.849,458.349 159.5,463.5 Z"/></g>
<g><path style="opacity:1" fill="#042a1d" d="M 144.5,455.5 C 145.385,459.046 147.385,461.712 150.5,463.5C 149.761,463.369 149.094,463.536 148.5,464C 152.695,468.129 153.362,473.129 150.5,479C 151.835,484.002 153.168,489.002 154.5,494C 154.095,494.945 153.428,495.612 152.5,496C 154.961,497.415 157.294,498.915 159.5,500.5C 157.128,501.347 155.128,502.681 153.5,504.5C 158.131,507.02 163.131,508.02 168.5,507.5C 168.5,507.833 168.5,508.167 168.5,508.5C 165.366,509.343 162.032,509.676 158.5,509.5C 155.504,507.277 152.67,507.611 150,510.5C 149.218,507.69 148.384,505.023 147.5,502.5C 144.92,489.287 141.92,476.287 138.5,463.5C 138.173,458.786 138.507,454.12 139.5,449.5C 141.02,451.725 142.686,453.725 144.5,455.5 Z"/></g>
<g><path style="opacity:1" fill="#022212" d="M 144.5,455.5 C 151.432,460.646 158.432,465.812 165.5,471C 169.657,474.392 172.99,477.892 175.5,481.5C 176.325,482.386 177.325,482.719 178.5,482.5C 178.5,483.5 178.5,484.5 178.5,485.5C 180.592,485.561 182.092,486.561 183,488.5C 183.333,488.167 183.667,487.833 184,487.5C 185.626,489.917 187.126,492.417 188.5,495C 189.833,495.333 191.167,495.667 192.5,496C 192.167,496.333 191.833,496.667 191.5,497C 194.28,498.812 196.78,500.979 199,503.5C 199.49,504.793 199.657,506.127 199.5,507.5C 201.655,507.372 203.655,507.872 205.5,509C 202.961,510.047 200.295,510.547 197.5,510.5C 187.957,508.759 178.29,508.092 168.5,508.5C 168.5,508.167 168.5,507.833 168.5,507.5C 169.802,506.193 171.135,506.193 172.5,507.5C 173.833,506.833 174.833,505.833 175.5,504.5C 173.61,503.576 172.11,502.243 171,500.5C 170,501.833 169,501.833 168,500.5C 167.768,496.445 167.268,492.445 166.5,488.5C 166.833,487.833 167.167,487.167 167.5,486.5C 167.154,485.304 166.654,485.304 166,486.5C 164.281,478.145 159.781,471.811 152.5,467.5C 151.638,466.234 150.971,464.901 150.5,463.5C 147.385,461.712 145.385,459.046 144.5,455.5 Z"/></g>
<g><path style="opacity:1" fill="#01130a" d="M 160.5,463.5 C 161.552,463.351 162.552,463.517 163.5,464C 173.605,471.463 184.605,476.796 196.5,480C 210.315,486.403 224.648,491.403 239.5,495C 258.57,497.084 277.57,499.417 296.5,502C 296.167,502.333 295.833,502.667 295.5,503C 300.228,504.231 303.561,507.064 305.5,511.5C 304.833,511.5 304.167,511.5 303.5,511.5C 301.24,508.365 298.24,506.198 294.5,505C 287.472,503.427 280.472,503.76 273.5,506C 269.368,508.714 265.035,510.547 260.5,511.5C 248.167,511.5 235.833,511.5 223.5,511.5C 224.936,510.571 226.269,509.405 227.5,508C 224.548,504.659 220.881,502.326 216.5,501C 213.677,498.012 210.677,495.178 207.5,492.5C 196.655,488.478 186.655,482.978 177.5,476C 170.762,473.068 165.095,468.902 160.5,463.5 Z"/></g>
<g><path style="opacity:1" fill="#5c747e" d="M 360.5,408.5 C 361.139,409.097 361.472,409.93 361.5,411C 360.76,417.809 360.26,424.643 360,431.5C 358.812,432.563 358.312,433.897 358.5,435.5C 357.5,435.5 356.5,435.5 355.5,435.5C 355.66,437.199 355.494,438.866 355,440.5C 352.867,441.255 351.2,442.588 350,444.5C 350.801,449.767 348.634,452.6 343.5,453C 339.476,456.959 337.476,461.792 337.5,467.5C 336.707,467.069 335.873,466.735 335,466.5C 331.673,467.998 328.673,469.998 326,472.5C 325.619,476.652 323.453,478.985 319.5,479.5C 319.657,480.873 319.49,482.207 319,483.5C 315.444,489.181 310.277,493.515 303.5,496.5C 301.995,497.842 301.328,499.508 301.5,501.5C 300.305,501.134 299.639,500.301 299.5,499C 300.029,497.441 300.696,495.941 301.5,494.5C 304.609,492.525 307.443,490.192 310,487.5C 315.765,477.977 322.932,469.643 331.5,462.5C 332.833,462.5 334.167,462.5 335.5,462.5C 335.281,463.675 335.614,464.675 336.5,465.5C 337.096,461.637 338.096,457.97 339.5,454.5C 339.5,453.833 339.5,453.167 339.5,452.5C 341.459,451.129 343.625,450.129 346,449.5C 346.608,447.846 347.108,446.179 347.5,444.5C 348.031,442.456 349.198,440.789 351,439.5C 351.822,436.883 352.322,434.216 352.5,431.5C 354.5,431.5 356.5,431.5 358.5,431.5C 358.927,423.807 359.593,416.141 360.5,408.5 Z"/></g>
<g><path style="opacity:1" fill="#34464d" d="M 139.5,485.5 C 141.031,490.25 141.698,495.25 141.5,500.5C 139.855,495.766 139.189,490.766 139.5,485.5 Z"/></g>
<g><path style="opacity:1" fill="#041f16" d="M 303.5,511.5 C 289.167,511.5 274.833,511.5 260.5,511.5C 265.035,510.547 269.368,508.714 273.5,506C 280.472,503.76 287.472,503.427 294.5,505C 298.24,506.198 301.24,508.365 303.5,511.5 Z"/></g>
</svg>
