<?xml version="1.0" encoding="UTF-8"?>
<!DOCTYPE svg PUBLIC "-//W3C//DTD SVG 1.1//EN" "http://www.w3.org/Graphics/SVG/1.1/DTD/svg11.dtd">
<svg xmlns="http://www.w3.org/2000/svg" version="1.1" width="512px" height="512px" style="shape-rendering:geometricPrecision; text-rendering:geometricPrecision; image-rendering:optimizeQuality; fill-rule:evenodd; clip-rule:evenodd" xmlns:xlink="http://www.w3.org/1999/xlink">
<g><path style="opacity:1" fill="#608293" d="M -0.5,-0.5 C 90.1667,-0.5 180.833,-0.5 271.5,-0.5C 271.5,0.5 271.5,1.5 271.5,2.5C 276.385,2.24769 281.219,2.58103 286,3.5C 288.935,1.8084 292.102,1.14174 295.5,1.5C 295.433,2.95875 295.766,4.29208 296.5,5.5C 292.938,6.43753 289.438,6.77086 286,6.5C 283.923,5.98279 281.923,5.31612 280,4.5C 279.506,6.13414 279.34,7.80081 279.5,9.5C 282.85,9.33499 286.183,9.50166 289.5,10C 292.431,12.5145 295.764,14.1812 299.5,15C 296.209,17.2879 293.209,19.9545 290.5,23C 289.167,23.6667 287.833,23.6667 286.5,23C 283.476,19.8016 279.809,18.8016 275.5,20C 276.337,21.0113 276.67,22.1779 276.5,23.5C 265.202,19.0549 253.535,16.8882 241.5,17C 234.73,14.4704 228.063,11.637 221.5,8.5C 219.651,10.326 217.651,10.6593 215.5,9.5C 211.307,12.2262 207.473,15.5596 204,19.5C 202.16,18.1669 201.66,18.3335 202.5,20C 197.722,22.6656 194.388,26.4989 192.5,31.5C 191.56,33.6125 190.394,35.6125 189,37.5C 177.502,46.4894 167.835,57.1561 160,69.5C 153.733,83.4714 147.566,97.4714 141.5,111.5C 140.504,111.414 139.671,111.748 139,112.5C 135.427,122.468 133.261,132.802 132.5,143.5C 128.947,168.363 127.614,193.363 128.5,218.5C 127.217,227.976 126.383,237.643 126,247.5C 124.895,251.754 122.061,253.42 117.5,252.5C 114.15,252.335 110.817,252.502 107.5,253C 103.922,257.51 102.588,262.676 103.5,268.5C 102.989,282.532 103.656,296.532 105.5,310.5C 104.359,311.425 104.359,312.259 105.5,313C 103.354,313.479 102.354,314.812 102.5,317C 103.394,323.131 103.727,329.298 103.5,335.5C 102.167,335.5 100.833,335.5 99.5,335.5C 99.3345,339.514 99.5012,343.514 100,347.5C 102.122,350.137 103.455,353.137 104,356.5C 105.981,358.657 108.314,360.324 111,361.5C 111.168,352.814 111.668,344.148 112.5,335.5C 112.956,348.819 112.623,362.152 111.5,375.5C 106.866,374.641 104.199,376.474 103.5,381C 103.025,393.166 103.525,405.333 105,417.5C 105.689,421.292 107.856,423.292 111.5,423.5C 111.5,420.833 111.5,418.167 111.5,415.5C 112.833,415.5 114.167,415.5 115.5,415.5C 116.67,425.529 118.004,435.529 119.5,445.5C 116.225,446.019 114.892,448.019 115.5,451.5C 115.667,452.833 115.833,454.167 116,455.5C 120.286,457.856 120.453,460.356 116.5,463C 117.448,463.483 118.448,463.649 119.5,463.5C 119.334,470.841 119.5,478.174 120,485.5C 120.333,484.833 120.667,484.167 121,483.5C 121.333,487.167 121.667,490.833 122,494.5C 122.333,493.5 122.667,492.5 123,491.5C 123.564,493.562 123.064,495.395 121.5,497C 121.611,498.722 122.111,498.888 123,497.5C 123.607,500.202 123.44,502.868 122.5,505.5C 122.818,506.647 123.484,507.481 124.5,508C 123.829,508.986 123.829,510.153 124.5,511.5C 82.8333,511.5 41.1667,511.5 -0.5,511.5C -0.5,340.833 -0.5,170.167 -0.5,-0.5 Z"/></g>
<g><path style="opacity:1" fill="#608293" d="M 271.5,-0.5 C 351.5,-0.5 431.5,-0.5 511.5,-0.5C 511.5,170.167 511.5,340.833 511.5,511.5C 422.5,511.5 333.5,511.5 244.5,511.5C 244.65,503.518 244.984,495.518 245.5,487.5C 247.39,487.297 248.89,487.963 250,489.5C 250.678,486.697 251.844,484.197 253.5,482C 253.043,481.586 252.709,481.086 252.5,480.5C 256.531,479.183 260.531,478.683 264.5,479C 264.167,478.667 263.833,478.333 263.5,478C 264.943,476.933 266.276,475.766 267.5,474.5C 268.812,475.46 270.146,475.294 271.5,474C 282.543,474.129 293.376,472.962 304,470.5C 309.441,471.364 313.608,469.364 316.5,464.5C 319.661,461.843 323.161,459.843 327,458.5C 327.333,458.833 327.667,459.167 328,459.5C 329.987,458.782 331.821,457.782 333.5,456.5C 343.869,453.657 354.202,450.657 364.5,447.5C 365.978,447.762 367.311,447.429 368.5,446.5C 373.167,441.833 377.833,437.167 382.5,432.5C 388.128,431.505 393.794,431.171 399.5,431.5C 399.335,434.85 399.502,438.183 400,441.5C 402.137,440.521 403.971,439.188 405.5,437.5C 404.164,435.625 404.664,434.292 407,433.5C 406.936,429.394 408.103,425.727 410.5,422.5C 407.923,420.08 406.923,417.08 407.5,413.5C 411.833,412.5 414.5,409.833 415.5,405.5C 411.087,406.015 408.754,404.015 408.5,399.5C 404.851,398.242 403.518,395.909 404.5,392.5C 401.711,389.721 401.045,386.554 402.5,383C 399.317,379.548 395.651,376.715 391.5,374.5C 394.865,371.234 395.365,367.567 393,363.5C 389.13,360.94 385.13,360.94 381,363.5C 380.167,363.167 379.333,362.833 378.5,362.5C 379.708,358.878 380.708,355.211 381.5,351.5C 379.167,351.5 376.833,351.5 374.5,351.5C 375.052,349.669 375.052,348.003 374.5,346.5C 372.678,347.429 371.345,346.762 370.5,344.5C 369.009,345.348 368.342,346.681 368.5,348.5C 368.958,352.379 370.291,355.879 372.5,359C 370.423,360.076 369.09,361.743 368.5,364C 369.775,368.045 369.775,372.045 368.5,376C 370.668,377.965 372.002,380.465 372.5,383.5C 373.635,384.103 374.635,384.436 375.5,384.5C 374.674,387.62 374.007,390.787 373.5,394C 374.285,395.79 374.285,397.457 373.5,399C 376.066,400.879 376.066,402.712 373.5,404.5C 372.683,402.031 372.183,399.365 372,396.5C 371.329,395.748 370.496,395.414 369.5,395.5C 367.409,392.155 366.076,388.488 365.5,384.5C 365.484,372.422 365.484,360.089 365.5,347.5C 367.136,343.79 367.802,339.79 367.5,335.5C 372.833,335.5 378.167,335.5 383.5,335.5C 383.5,305.833 383.5,276.167 383.5,246.5C 382.325,246.719 381.325,246.386 380.5,245.5C 382.63,244.223 384.296,244.723 385.5,247C 384.217,249.795 384.217,252.628 385.5,255.5C 387.452,257.228 388.785,259.395 389.5,262C 388.633,265.105 388.299,268.272 388.5,271.5C 389.5,271.5 390.5,271.5 391.5,271.5C 391.556,277.115 392.223,282.615 393.5,288C 392.196,288.804 391.529,289.971 391.5,291.5C 392.651,293.325 393.318,295.325 393.5,297.5C 396.33,297.306 398.996,296.639 401.5,295.5C 401.322,298.216 400.822,300.883 400,303.5C 399.395,301.519 398.395,301.185 397,302.5C 395.451,305.312 394.618,308.312 394.5,311.5C 396.912,311.331 399.079,311.997 401,313.5C 402.285,313.05 403.452,312.383 404.5,311.5C 404.629,308.197 404.963,304.863 405.5,301.5C 408.167,302.5 408.167,303.5 405.5,304.5C 406.792,306.667 407.625,309 408,311.5C 409.148,304.742 410.981,298.242 413.5,292C 413.11,289.541 411.776,287.874 409.5,287C 410.978,284.961 412.978,284.128 415.5,284.5C 415.281,285.675 415.614,286.675 416.5,287.5C 416.171,282.855 417.837,278.855 421.5,275.5C 420.102,273.102 418.102,271.435 415.5,270.5C 418.702,269.765 421.702,268.598 424.5,267C 423.306,264.556 423.806,262.389 426,260.5C 426.494,258.866 426.66,257.199 426.5,255.5C 427.5,255.5 428.5,255.5 429.5,255.5C 429.306,258.33 428.639,260.996 427.5,263.5C 428.833,263.5 430.167,263.5 431.5,263.5C 431.5,260.833 431.5,258.167 431.5,255.5C 432.833,255.5 434.167,255.5 435.5,255.5C 435.5,250.167 435.5,244.833 435.5,239.5C 434.167,239.5 432.833,239.5 431.5,239.5C 431.5,238.167 431.5,236.833 431.5,235.5C 428.833,235.5 426.167,235.5 423.5,235.5C 423.333,224.495 423.5,213.495 424,202.5C 425.805,199.961 428.305,198.961 431.5,199.5C 431.5,202.167 431.5,204.833 431.5,207.5C 434.167,207.5 436.833,207.5 439.5,207.5C 438.963,201.551 439.796,195.884 442,190.5C 443.011,189.663 444.178,189.33 445.5,189.5C 445.101,186.837 445.101,184.337 445.5,182C 444.764,179.861 443.764,177.861 442.5,176C 443.299,171.504 442.466,171.337 440,175.5C 439.501,171.848 439.335,168.182 439.5,164.5C 438.178,164.33 437.011,164.663 436,165.5C 435.313,167.568 435.48,169.568 436.5,171.5C 435.846,173.115 435.346,174.782 435,176.5C 433.817,177.731 432.651,177.731 431.5,176.5C 433.856,175.346 434.023,174.013 432,172.5C 431.667,166.167 431.333,159.833 431,153.5C 426.136,151.809 423.303,148.476 422.5,143.5C 420.167,143.5 417.833,143.5 415.5,143.5C 415.5,140.833 415.5,138.167 415.5,135.5C 412.305,136.039 409.805,135.039 408,132.5C 407.762,128.778 407.262,125.111 406.5,121.5C 404.49,119.829 402.157,119.162 399.5,119.5C 399.5,116.833 399.5,114.167 399.5,111.5C 397.5,111.5 395.5,111.5 393.5,111.5C 394.012,104.969 393.178,98.6361 391,92.5C 390,93.8333 389,93.8333 388,92.5C 387.506,90.8659 387.34,89.1992 387.5,87.5C 388.552,87.6495 389.552,87.4828 390.5,87C 389.167,86.3333 388.167,85.3333 387.5,84C 385.555,84.1282 383.722,83.9615 382,83.5C 381.941,80.1586 380.774,77.3253 378.5,75C 379.33,73.5349 379.496,72.0349 379,70.5C 377.084,70.6445 375.251,70.1445 373.5,69C 375.283,67.9335 375.783,66.4335 375,64.5C 371.368,62.2676 367.535,60.4343 363.5,59C 363.28,55.2346 363.613,51.4012 364.5,47.5C 363.167,47.5 361.833,47.5 360.5,47.5C 360.281,52.6294 359.614,52.6294 358.5,47.5C 356.61,47.2965 355.11,47.9632 354,49.5C 354.226,46.6715 353.226,44.0049 351,41.5C 348.91,40.2092 347.576,40.8758 347,43.5C 345.806,41.3766 345.14,39.0432 345,36.5C 342.899,35.0755 340.733,33.7422 338.5,32.5C 339.454,26.8955 339.788,21.2289 339.5,15.5C 338.167,15.5 336.833,15.5 335.5,15.5C 335.5,14.1667 335.5,12.8333 335.5,11.5C 330.167,11.5 324.833,11.5 319.5,11.5C 319.5,10.1667 319.5,8.83333 319.5,7.5C 311.752,7.57256 304.086,6.90589 296.5,5.5C 295.766,4.29208 295.433,2.95875 295.5,1.5C 292.102,1.14174 288.935,1.8084 286,3.5C 281.219,2.58103 276.385,2.24769 271.5,2.5C 271.5,1.5 271.5,0.5 271.5,-0.5 Z"/></g>
<g><path style="opacity:1" fill="#5f8396" d="M 296.5,5.5 C 304.086,6.90589 311.752,7.57256 319.5,7.5C 319.5,8.83333 319.5,10.1667 319.5,11.5C 324.833,11.5 330.167,11.5 335.5,11.5C 335.5,12.8333 335.5,14.1667 335.5,15.5C 336.833,15.5 338.167,15.5 339.5,15.5C 339.788,21.2289 339.454,26.8955 338.5,32.5C 340.733,33.7422 342.899,35.0755 345,36.5C 345.14,39.0432 345.806,41.3766 347,43.5C 347.576,40.8758 348.91,40.2092 351,41.5C 353.226,44.0049 354.226,46.6715 354,49.5C 355.11,47.9632 356.61,47.2965 358.5,47.5C 359.614,52.6294 360.281,52.6294 360.5,47.5C 361.833,47.5 363.167,47.5 364.5,47.5C 363.613,51.4012 363.28,55.2346 363.5,59C 367.535,60.4343 371.368,62.2676 375,64.5C 375.783,66.4335 375.283,67.9335 373.5,69C 375.251,70.1445 377.084,70.6445 379,70.5C 379.496,72.0349 379.33,73.5349 378.5,75C 380.774,77.3253 381.941,80.1586 382,83.5C 383.722,83.9615 385.555,84.1282 387.5,84C 388.167,85.3333 389.167,86.3333 390.5,87C 389.552,87.4828 388.552,87.6495 387.5,87.5C 387.34,89.1992 387.506,90.8659 388,92.5C 389,93.8333 390,93.8333 391,92.5C 393.178,98.6361 394.012,104.969 393.5,111.5C 395.5,111.5 397.5,111.5 399.5,111.5C 399.5,114.167 399.5,116.833 399.5,119.5C 399.5,122.167 399.5,124.833 399.5,127.5C 396.833,127.5 394.167,127.5 391.5,127.5C 392.831,143.465 393.498,159.465 393.5,175.5C 395.5,175.5 397.5,175.5 399.5,175.5C 399.5,186.167 399.5,196.833 399.5,207.5C 401.288,207.215 402.955,207.548 404.5,208.5C 406.667,213.5 408.833,218.5 411,223.5C 411.499,228.823 411.666,234.156 411.5,239.5C 412.833,239.5 414.167,239.5 415.5,239.5C 415.5,238.167 415.5,236.833 415.5,235.5C 418.167,235.5 420.833,235.5 423.5,235.5C 426.167,235.5 428.833,235.5 431.5,235.5C 431.5,236.833 431.5,238.167 431.5,239.5C 432.833,239.5 434.167,239.5 435.5,239.5C 435.5,244.833 435.5,250.167 435.5,255.5C 434.167,255.5 432.833,255.5 431.5,255.5C 431.5,258.167 431.5,260.833 431.5,263.5C 430.167,263.5 428.833,263.5 427.5,263.5C 428.639,260.996 429.306,258.33 429.5,255.5C 428.5,255.5 427.5,255.5 426.5,255.5C 426.66,257.199 426.494,258.866 426,260.5C 423.806,262.389 423.306,264.556 424.5,267C 421.702,268.598 418.702,269.765 415.5,270.5C 418.102,271.435 420.102,273.102 421.5,275.5C 417.837,278.855 416.171,282.855 416.5,287.5C 415.614,286.675 415.281,285.675 415.5,284.5C 412.978,284.128 410.978,284.961 409.5,287C 411.776,287.874 413.11,289.541 413.5,292C 410.981,298.242 409.148,304.742 408,311.5C 407.625,309 406.792,306.667 405.5,304.5C 408.167,303.5 408.167,302.5 405.5,301.5C 404.963,304.863 404.629,308.197 404.5,311.5C 403.452,312.383 402.285,313.05 401,313.5C 399.079,311.997 396.912,311.331 394.5,311.5C 394.618,308.312 395.451,305.312 397,302.5C 398.395,301.185 399.395,301.519 400,303.5C 400.822,300.883 401.322,298.216 401.5,295.5C 398.996,296.639 396.33,297.306 393.5,297.5C 393.318,295.325 392.651,293.325 391.5,291.5C 391.529,289.971 392.196,288.804 393.5,288C 392.223,282.615 391.556,277.115 391.5,271.5C 390.5,271.5 389.5,271.5 388.5,271.5C 388.299,268.272 388.633,265.105 389.5,262C 388.785,259.395 387.452,257.228 385.5,255.5C 384.217,252.628 384.217,249.795 385.5,247C 384.296,244.723 382.63,244.223 380.5,245.5C 381.325,246.386 382.325,246.719 383.5,246.5C 383.5,276.167 383.5,305.833 383.5,335.5C 378.167,335.5 372.833,335.5 367.5,335.5C 367.802,339.79 367.136,343.79 365.5,347.5C 363.629,288.25 362.629,228.917 362.5,169.5C 363.38,162.851 363.546,156.184 363,149.5C 362.434,147.277 361.6,145.277 360.5,143.5C 359.674,139.864 359.008,136.197 358.5,132.5C 358.427,127.873 357.26,123.54 355,119.5C 354.503,116.854 354.336,114.187 354.5,111.5C 353.5,111.5 352.5,111.5 351.5,111.5C 351.657,110.127 351.49,108.793 351,107.5C 347.836,103.72 345.336,99.7196 343.5,95.5C 339.541,86.2477 335.041,77.2477 330,68.5C 328.188,66.6997 326.355,65.0331 324.5,63.5C 324.66,61.8008 324.494,60.1341 324,58.5C 318.338,51.87 312.505,45.37 306.5,39C 305.5,38.6667 304.5,38.3333 303.5,38C 302.377,36.1246 302.377,33.9579 303.5,31.5C 300.518,31.1727 297.685,31.1727 295,31.5C 293.355,29.3382 291.188,28.0049 288.5,27.5C 287.749,26.624 287.249,25.624 287,24.5C 283.335,25.5302 279.835,25.1969 276.5,23.5C 276.67,22.1779 276.337,21.0113 275.5,20C 279.809,18.8016 283.476,19.8016 286.5,23C 287.833,23.6667 289.167,23.6667 290.5,23C 293.209,19.9545 296.209,17.2879 299.5,15C 295.764,14.1812 292.431,12.5145 289.5,10C 286.183,9.50166 282.85,9.33499 279.5,9.5C 279.34,7.80081 279.506,6.13414 280,4.5C 281.923,5.31612 283.923,5.98279 286,6.5C 289.438,6.77086 292.938,6.43753 296.5,5.5 Z"/></g>
<g><path style="opacity:1" fill="#627d8a" d="M 276.5,23.5 C 279.835,25.1969 283.335,25.5302 287,24.5C 287.249,25.624 287.749,26.624 288.5,27.5C 291.188,28.0049 293.355,29.3382 295,31.5C 297.685,31.1727 300.518,31.1727 303.5,31.5C 302.377,33.9579 302.377,36.1246 303.5,38C 304.5,38.3333 305.5,38.6667 306.5,39C 312.505,45.37 318.338,51.87 324,58.5C 324.494,60.1341 324.66,61.8008 324.5,63.5C 317.368,56.8693 310.368,50.0359 303.5,43C 284.371,28.1235 262.704,20.9569 238.5,21.5C 233.511,17.5066 227.844,14.8399 221.5,13.5C 218.353,13.7366 215.353,14.5699 212.5,16C 211.058,16.3768 210.058,17.2101 209.5,18.5C 205.203,20.8039 201.536,23.8039 198.5,27.5C 196.754,29.2516 194.754,30.5849 192.5,31.5C 194.388,26.4989 197.722,22.6656 202.5,20C 201.66,18.3335 202.16,18.1669 204,19.5C 207.473,15.5596 211.307,12.2262 215.5,9.5C 217.651,10.6593 219.651,10.326 221.5,8.5C 228.063,11.637 234.73,14.4704 241.5,17C 253.535,16.8882 265.202,19.0549 276.5,23.5 Z"/></g>
<g><path style="opacity:1" fill="#354d59" d="M 221.5,13.5 C 217.797,15.6787 213.797,17.3454 209.5,18.5C 210.058,17.2101 211.058,16.3768 212.5,16C 215.353,14.5699 218.353,13.7366 221.5,13.5 Z"/></g>
<g><path style="opacity:1" fill="#070c13" d="M 221.5,13.5 C 227.844,14.8399 233.511,17.5066 238.5,21.5C 237.761,21.369 237.094,21.5357 236.5,22C 237.696,22.6543 237.696,23.1543 236.5,23.5C 234.267,23.1355 232.434,22.1355 231,20.5C 230.667,21.1667 230.333,21.8333 230,22.5C 228.292,20.4565 226.292,18.7899 224,17.5C 223.667,18.8333 223.333,20.1667 223,21.5C 219.149,20.5904 215.482,20.5904 212,21.5C 209.974,22.8576 207.807,23.6909 205.5,24C 204.197,27.044 201.864,28.2107 198.5,27.5C 201.536,23.8039 205.203,20.8039 209.5,18.5C 213.797,17.3454 217.797,15.6787 221.5,13.5 Z"/></g>
<g><path style="opacity:1" fill="#000101" d="M 238.5,21.5 C 262.704,20.9569 284.371,28.1235 303.5,43C 310.368,50.0359 317.368,56.8693 324.5,63.5C 326.355,65.0331 328.188,66.6997 330,68.5C 335.041,77.2477 339.541,86.2477 343.5,95.5C 346.368,103.438 349.035,111.438 351.5,119.5C 352.337,124.175 353.67,128.675 355.5,133C 356.404,135.919 356.404,139.086 355.5,142.5C 357.821,145.383 358.988,148.717 359,152.5C 359.721,180.172 359.554,207.839 358.5,235.5C 358.969,253.002 359.635,270.335 360.5,287.5C 360.169,318.005 360.502,348.338 361.5,378.5C 361.5,378.833 361.5,379.167 361.5,379.5C 362.548,386.629 364.548,393.296 367.5,399.5C 366.5,399.5 365.5,399.5 364.5,399.5C 364.813,405.104 363.48,410.104 360.5,414.5C 358.485,416.676 356.818,419.176 355.5,422C 353.866,422.494 352.199,422.66 350.5,422.5C 350.6,428.65 347.933,432.983 342.5,435.5C 341.259,434.963 340.092,434.296 339,433.5C 336.702,434.727 334.535,436.06 332.5,437.5C 331.527,439.948 331.194,442.615 331.5,445.5C 329.167,445.5 326.833,445.5 324.5,445.5C 324.445,448.614 323.112,450.948 320.5,452.5C 316.583,451.391 314.583,453.057 314.5,457.5C 312.516,457.383 310.85,458.05 309.5,459.5C 307.936,458.814 306.269,458.981 304.5,460C 305.167,460.333 305.833,460.667 306.5,461C 301.946,461.517 297.779,463.017 294,465.5C 293.127,465.265 292.293,464.931 291.5,464.5C 290.304,464.846 290.304,465.346 291.5,466C 290.167,466.667 288.833,466.667 287.5,466C 288.167,465.667 288.833,465.333 289.5,465C 288.271,464.219 286.938,463.719 285.5,463.5C 278.676,465.695 272.009,466.361 265.5,465.5C 265.891,466.718 265.224,467.552 263.5,468C 264.167,468.333 264.833,468.667 265.5,469C 262.49,469.841 259.49,470.674 256.5,471.5C 251.339,469.447 246.006,467.781 240.5,466.5C 239.167,467.5 239.167,468.5 240.5,469.5C 242.586,470.489 244.253,471.822 245.5,473.5C 242.934,473.344 240.434,473.678 238,474.5C 235.029,473.021 232.196,471.355 229.5,469.5C 227.5,467.5 225.5,465.5 223.5,463.5C 223.762,462.022 223.429,460.689 222.5,459.5C 209.964,453.464 200.13,444.464 193,432.5C 184.721,426.225 177.888,418.725 172.5,410C 170.392,409.64 168.392,408.973 166.5,408C 162.844,404.837 158.844,402.171 154.5,400C 152.071,399.297 149.738,399.463 147.5,400.5C 145.141,399.663 143.141,398.163 141.5,396C 140.552,395.517 139.552,395.351 138.5,395.5C 138.567,393.599 138.233,391.766 137.5,390C 139.003,388.079 139.669,385.912 139.5,383.5C 137.801,383.66 136.134,383.494 134.5,383C 135.022,382.439 135.355,381.772 135.5,381C 133.215,372.919 132.881,364.753 134.5,356.5C 134.695,351.68 134.028,347.013 132.5,342.5C 134.183,336.491 133.35,330.824 130,325.5C 127.651,325.165 125.985,323.499 125,320.5C 124.667,320.833 124.333,321.167 124,321.5C 124.333,319.833 124.667,318.167 125,316.5C 124.23,317.598 123.397,317.598 122.5,316.5C 121.086,314.862 121.42,313.528 123.5,312.5C 121.946,310.102 120.612,307.602 119.5,305C 120.71,303.132 120.21,301.632 118,300.5C 116.471,287.282 114.638,274.115 112.5,261C 114.007,259.333 113.673,258.166 111.5,257.5C 115.573,255.865 119.906,254.865 124.5,254.5C 125.6,252.723 126.434,250.723 127,248.5C 127.989,238.522 128.489,228.522 128.5,218.5C 127.614,193.363 128.947,168.363 132.5,143.5C 134.146,139.384 135.479,135.05 136.5,130.5C 138.057,129.534 139.39,128.2 140.5,126.5C 140.167,125.833 139.833,125.167 139.5,124.5C 140.936,121.527 142.269,118.527 143.5,115.5C 142.079,112.572 143.079,111.238 146.5,111.5C 147.248,109.416 147.248,107.416 146.5,105.5C 149.522,101.259 152.022,96.5925 154,91.5C 154.833,90 156,88.8333 157.5,88C 157.043,87.586 156.709,87.086 156.5,86.5C 158.854,84.7539 159.854,82.4206 159.5,79.5C 162.487,79.5777 163.153,78.411 161.5,76C 162.579,73.8448 163.913,71.8448 165.5,70C 165.167,69.6667 164.833,69.3333 164.5,69C 166.025,67.9914 167.692,67.4914 169.5,67.5C 169.33,66.1779 169.663,65.0113 170.5,64C 169.833,63.6667 169.167,63.3333 168.5,63C 169.931,62.5348 171.097,61.7014 172,60.5C 172.419,61.6721 173.085,62.6721 174,63.5C 175.651,61.5979 175.984,59.5979 175,57.5C 175.333,57.8333 175.667,58.1667 176,58.5C 177.529,57.2713 178.696,55.7713 179.5,54C 178.833,53.6667 178.167,53.3333 177.5,53C 179.622,51.9191 181.622,51.2524 183.5,51C 180.73,48.2372 181.23,46.0705 185,44.5C 186.066,46.0995 187.566,47.0995 189.5,47.5C 191.62,46.5967 191.954,45.2633 190.5,43.5C 192.453,42.2393 194.453,41.0726 196.5,40C 196.167,39.6667 195.833,39.3333 195.5,39C 197.167,38 198.5,36.6667 199.5,35C 198.672,34.0853 197.672,33.4186 196.5,33C 197.464,31.2745 198.131,29.4412 198.5,27.5C 201.864,28.2107 204.197,27.044 205.5,24C 207.807,23.6909 209.974,22.8576 212,21.5C 215.482,20.5904 219.149,20.5904 223,21.5C 223.333,20.1667 223.667,18.8333 224,17.5C 226.292,18.7899 228.292,20.4565 230,22.5C 230.333,21.8333 230.667,21.1667 231,20.5C 232.434,22.1355 234.267,23.1355 236.5,23.5C 237.696,23.1543 237.696,22.6543 236.5,22C 237.094,21.5357 237.761,21.369 238.5,21.5 Z"/></g>
<g><path style="opacity:1" fill="#060911" d="M 198.5,27.5 C 198.131,29.4412 197.464,31.2745 196.5,33C 197.672,33.4186 198.672,34.0853 199.5,35C 198.5,36.6667 197.167,38 195.5,39C 195.833,39.3333 196.167,39.6667 196.5,40C 194.453,41.0726 192.453,42.2393 190.5,43.5C 191.954,45.2633 191.62,46.5967 189.5,47.5C 187.566,47.0995 186.066,46.0995 185,44.5C 181.23,46.0705 180.73,48.2372 183.5,51C 181.622,51.2524 179.622,51.9191 177.5,53C 178.167,53.3333 178.833,53.6667 179.5,54C 178.696,55.7713 177.529,57.2713 176,58.5C 175.667,58.1667 175.333,57.8333 175,57.5C 175.984,59.5979 175.651,61.5979 174,63.5C 173.085,62.6721 172.419,61.6721 172,60.5C 171.097,61.7014 169.931,62.5348 168.5,63C 169.167,63.3333 169.833,63.6667 170.5,64C 169.663,65.0113 169.33,66.1779 169.5,67.5C 167.692,67.4914 166.025,67.9914 164.5,69C 164.833,69.3333 165.167,69.6667 165.5,70C 163.913,71.8448 162.579,73.8448 161.5,76C 163.153,78.411 162.487,79.5777 159.5,79.5C 159.854,82.4206 158.854,84.7539 156.5,86.5C 156.709,87.086 157.043,87.586 157.5,88C 156,88.8333 154.833,90 154,91.5C 152.022,96.5925 149.522,101.259 146.5,105.5C 147.248,107.416 147.248,109.416 146.5,111.5C 143.079,111.238 142.079,112.572 143.5,115.5C 142.269,118.527 140.936,121.527 139.5,124.5C 139.833,125.167 140.167,125.833 140.5,126.5C 139.39,128.2 138.057,129.534 136.5,130.5C 137.554,124.004 139.221,117.671 141.5,111.5C 147.566,97.4714 153.733,83.4714 160,69.5C 167.835,57.1561 177.502,46.4894 189,37.5C 190.394,35.6125 191.56,33.6125 192.5,31.5C 194.754,30.5849 196.754,29.2516 198.5,27.5 Z"/></g>
<g><path style="opacity:1" fill="#58727f" d="M 141.5,111.5 C 139.221,117.671 137.554,124.004 136.5,130.5C 135.479,135.05 134.146,139.384 132.5,143.5C 133.261,132.802 135.427,122.468 139,112.5C 139.671,111.748 140.504,111.414 141.5,111.5 Z"/></g>
<g><path style="opacity:1" fill="#608494" d="M 399.5,119.5 C 402.157,119.162 404.49,119.829 406.5,121.5C 407.262,125.111 407.762,128.778 408,132.5C 409.805,135.039 412.305,136.039 415.5,135.5C 415.5,138.167 415.5,140.833 415.5,143.5C 417.833,143.5 420.167,143.5 422.5,143.5C 423.303,148.476 426.136,151.809 431,153.5C 431.333,159.833 431.667,166.167 432,172.5C 434.023,174.013 433.856,175.346 431.5,176.5C 432.651,177.731 433.817,177.731 435,176.5C 435.346,174.782 435.846,173.115 436.5,171.5C 435.48,169.568 435.313,167.568 436,165.5C 437.011,164.663 438.178,164.33 439.5,164.5C 439.335,168.182 439.501,171.848 440,175.5C 442.466,171.337 443.299,171.504 442.5,176C 443.764,177.861 444.764,179.861 445.5,182C 445.101,184.337 445.101,186.837 445.5,189.5C 444.178,189.33 443.011,189.663 442,190.5C 439.796,195.884 438.963,201.551 439.5,207.5C 436.833,207.5 434.167,207.5 431.5,207.5C 431.5,204.833 431.5,202.167 431.5,199.5C 428.305,198.961 425.805,199.961 424,202.5C 423.5,213.495 423.333,224.495 423.5,235.5C 420.833,235.5 418.167,235.5 415.5,235.5C 415.5,236.833 415.5,238.167 415.5,239.5C 414.167,239.5 412.833,239.5 411.5,239.5C 411.666,234.156 411.499,228.823 411,223.5C 408.833,218.5 406.667,213.5 404.5,208.5C 402.955,207.548 401.288,207.215 399.5,207.5C 399.5,196.833 399.5,186.167 399.5,175.5C 397.5,175.5 395.5,175.5 393.5,175.5C 393.498,159.465 392.831,143.465 391.5,127.5C 394.167,127.5 396.833,127.5 399.5,127.5C 399.5,124.833 399.5,122.167 399.5,119.5 Z"/></g>
<g><path style="opacity:1" fill="#5c7381" d="M 343.5,95.5 C 345.336,99.7196 347.836,103.72 351,107.5C 351.49,108.793 351.657,110.127 351.5,111.5C 352.5,111.5 353.5,111.5 354.5,111.5C 354.336,114.187 354.503,116.854 355,119.5C 357.26,123.54 358.427,127.873 358.5,132.5C 356.019,128.227 353.686,123.893 351.5,119.5C 349.035,111.438 346.368,103.438 343.5,95.5 Z"/></g>
<g><path style="opacity:1" fill="#293329" d="M 319.5,127.5 C 323.555,127.176 327.555,127.509 331.5,128.5C 333.803,132.464 336.47,136.131 339.5,139.5C 340.489,143.107 340.823,146.774 340.5,150.5C 339.686,148.369 339.186,146.036 339,143.5C 335.78,138.253 331.947,133.42 327.5,129C 321.463,128.906 315.463,129.406 309.5,130.5C 312.583,128.975 315.916,127.975 319.5,127.5 Z"/></g>
<g><path style="opacity:1" fill="#121712" d="M 343.5,227.5 C 342.833,204.833 342.167,182.167 341.5,159.5C 341.736,156.391 341.403,153.391 340.5,150.5C 340.823,146.774 340.489,143.107 339.5,139.5C 336.47,136.131 333.803,132.464 331.5,128.5C 327.555,127.509 323.555,127.176 319.5,127.5C 322.14,126.579 324.973,125.912 328,125.5C 334.99,125.907 340.823,128.573 345.5,133.5C 346.452,135.045 346.785,136.712 346.5,138.5C 345.5,138.5 344.5,138.5 343.5,138.5C 343.318,168.129 343.318,197.795 343.5,227.5 Z"/></g>
<g><path style="opacity:1" fill="#070b13" d="M 351.5,119.5 C 353.686,123.893 356.019,128.227 358.5,132.5C 359.008,136.197 359.674,139.864 360.5,143.5C 360.645,177.134 360.645,210.8 360.5,244.5C 360.5,258.833 360.5,273.167 360.5,287.5C 359.635,270.335 358.969,253.002 358.5,235.5C 359.554,207.839 359.721,180.172 359,152.5C 358.988,148.717 357.821,145.383 355.5,142.5C 356.404,139.086 356.404,135.919 355.5,133C 353.67,128.675 352.337,124.175 351.5,119.5 Z"/></g>
<g><path style="opacity:1" fill="#546d53" d="M 336.5,175.5 C 336.854,178.421 335.854,180.754 333.5,182.5C 334.325,183.386 335.325,183.719 336.5,183.5C 336.664,186.187 336.497,188.854 336,191.5C 335.389,187.728 334.389,187.728 333,191.5C 332.235,188.804 331.068,186.304 329.5,184C 329.833,183.667 330.167,183.333 330.5,183C 328.498,180.29 326.498,177.623 324.5,175C 325.448,174.517 326.448,174.351 327.5,174.5C 327.21,169.543 324.543,166.877 319.5,166.5C 319.664,163.813 319.497,161.146 319,158.5C 316.905,156.95 314.738,156.617 312.5,157.5C 313.584,161.311 312.084,163.645 308,164.5C 307.517,165.448 307.351,166.448 307.5,167.5C 299.368,167.886 291.368,167.219 283.5,165.5C 283.853,163.365 283.02,162.032 281,161.5C 278.182,163.581 275.182,163.915 272,162.5C 267.113,165.89 261.613,167.223 255.5,166.5C 255.5,167.833 255.5,169.167 255.5,170.5C 254.448,170.351 253.448,170.517 252.5,171C 253.458,172.147 253.125,173.147 251.5,174C 249.801,174.958 247.967,175.458 246,175.5C 241.18,174.88 236.347,174.38 231.5,174C 234.226,173.818 236.893,173.318 239.5,172.5C 234.836,171.277 230.169,171.277 225.5,172.5C 220.889,171.398 216.222,170.731 211.5,170.5C 209.044,168.132 206.044,167.132 202.5,167.5C 201.167,163.177 198.167,160.51 193.5,159.5C 190.304,161.724 187.637,160.891 185.5,157C 182.833,156.333 180.167,156.333 177.5,157C 178.167,157.333 178.833,157.667 179.5,158C 175.525,159.528 171.525,160.694 167.5,161.5C 167.351,160.448 167.517,159.448 168,158.5C 172.754,156.328 172.587,154.661 167.5,153.5C 164.497,154.839 161.497,156.173 158.5,157.5C 158.709,158.086 159.043,158.586 159.5,159C 158.316,160.18 157.649,161.68 157.5,163.5C 157.892,166.849 158.392,170.183 159,173.5C 159.333,172.833 159.667,172.167 160,171.5C 161,172.833 162,174.167 163,175.5C 163.998,180.661 165.498,185.661 167.5,190.5C 166.811,192.444 166.311,194.444 166,196.5C 165.241,198.063 164.074,199.063 162.5,199.5C 162.048,195.837 161.548,192.17 161,188.5C 159.172,185.708 157.338,183.041 155.5,180.5C 155.5,180.167 155.5,179.833 155.5,179.5C 155.486,170.917 156.153,162.25 157.5,153.5C 163.031,149.241 168.698,145.241 174.5,141.5C 173.975,140.808 173.308,140.308 172.5,140C 174.289,139.086 176.123,138.253 178,137.5C 182.224,139.513 186.724,140.513 191.5,140.5C 191.5,141.5 191.5,142.5 191.5,143.5C 194.953,142.424 198.12,143.091 201,145.5C 201.333,145.167 201.667,144.833 202,144.5C 202.483,145.448 202.649,146.448 202.5,147.5C 206.772,147.807 210.772,148.973 214.5,151C 213.833,151.333 213.167,151.667 212.5,152C 215.082,153.776 217.915,154.943 221,155.5C 226.445,151.873 232.112,151.539 238,154.5C 247.466,153.705 256.966,153.205 266.5,153C 269.319,152.088 271.986,150.922 274.5,149.5C 276.029,149.529 277.196,150.196 278,151.5C 280.405,150.726 282.905,150.226 285.5,150C 288.937,146.426 292.937,144.926 297.5,145.5C 301.822,144.392 306.155,143.392 310.5,142.5C 311.854,144.184 313.521,144.684 315.5,144C 315.167,143.667 314.833,143.333 314.5,143C 316.076,142.56 317.41,141.727 318.5,140.5C 321.255,142.211 323.589,144.378 325.5,147C 326.448,147.483 327.448,147.649 328.5,147.5C 331.178,151.003 333.511,154.837 335.5,159C 334.833,159.333 334.167,159.667 333.5,160C 336.78,164.287 337.946,169.12 337,174.5C 336.667,173.167 336.333,171.833 336,170.5C 335.22,172.387 335.387,174.054 336.5,175.5 Z"/></g>
<g><path style="opacity:1" fill="#506450" d="M 341.5,186.5 C 341.667,202.17 341.5,217.837 341,233.5C 339.333,234.733 337.833,236.067 336.5,237.5C 336.167,237.5 335.833,237.5 335.5,237.5C 336.392,234.843 337.726,232.343 339.5,230C 338.833,228.333 338.167,226.667 337.5,225C 338.763,219.469 339.43,213.802 339.5,208C 339.102,201.835 339.102,195.835 339.5,190C 338.968,184.941 337.968,180.107 336.5,175.5C 335.387,174.054 335.22,172.387 336,170.5C 336.333,171.833 336.667,173.167 337,174.5C 337.946,169.12 336.78,164.287 333.5,160C 334.167,159.667 334.833,159.333 335.5,159C 333.511,154.837 331.178,151.003 328.5,147.5C 327.448,147.649 326.448,147.483 325.5,147C 323.589,144.378 321.255,142.211 318.5,140.5C 317.41,141.727 316.076,142.56 314.5,143C 314.833,143.333 315.167,143.667 315.5,144C 313.521,144.684 311.854,144.184 310.5,142.5C 306.155,143.392 301.822,144.392 297.5,145.5C 292.937,144.926 288.937,146.426 285.5,150C 282.905,150.226 280.405,150.726 278,151.5C 277.196,150.196 276.029,149.529 274.5,149.5C 271.986,150.922 269.319,152.088 266.5,153C 256.966,153.205 247.466,153.705 238,154.5C 232.112,151.539 226.445,151.873 221,155.5C 217.915,154.943 215.082,153.776 212.5,152C 213.167,151.667 213.833,151.333 214.5,151C 210.772,148.973 206.772,147.807 202.5,147.5C 202.649,146.448 202.483,145.448 202,144.5C 201.667,144.833 201.333,145.167 201,145.5C 198.12,143.091 194.953,142.424 191.5,143.5C 191.5,142.5 191.5,141.5 191.5,140.5C 186.724,140.513 182.224,139.513 178,137.5C 176.123,138.253 174.289,139.086 172.5,140C 173.308,140.308 173.975,140.808 174.5,141.5C 168.698,145.241 163.031,149.241 157.5,153.5C 156.153,162.25 155.486,170.917 155.5,179.5C 154.849,178.909 154.182,178.243 153.5,177.5C 151.941,167.85 153.107,158.517 157,149.5C 160.333,147.5 163.667,145.5 167,143.5C 168.411,141.35 169.245,139.016 169.5,136.5C 175.455,135.637 181.455,135.303 187.5,135.5C 196.373,138.92 205.04,142.753 213.5,147C 220.152,148.07 226.819,148.903 233.5,149.5C 247.773,151.077 262.106,150.577 276.5,148C 281.108,146.696 285.108,144.363 288.5,141C 293.352,140.287 298.019,138.954 302.5,137C 303.696,136.346 303.696,135.846 302.5,135.5C 298.633,136.487 298.633,135.987 302.5,134C 306.689,133.664 310.856,133.164 315,132.5C 318.532,132.351 322.032,132.851 325.5,134C 327.184,135.74 329.018,136.906 331,137.5C 333.496,143.245 336.163,148.911 339,154.5C 340.042,165.294 340.875,175.96 341.5,186.5 Z"/></g>
<g><path style="opacity:1" fill="#597353" d="M 211.5,170.5 C 210.178,170.67 209.011,170.337 208,169.5C 207.517,170.448 207.351,171.448 207.5,172.5C 206.07,172.579 204.736,172.246 203.5,171.5C 202.618,172.76 201.618,173.926 200.5,175C 203.126,177.146 206.126,178.479 209.5,179C 213.529,179.303 217.529,179.803 221.5,180.5C 232.801,179.543 244.135,179.209 255.5,179.5C 255.5,178.167 255.5,176.833 255.5,175.5C 268.5,175.5 281.5,175.5 294.5,175.5C 294.491,177.308 294.991,178.975 296,180.5C 304.483,188.515 314.65,192.182 326.5,191.5C 326.5,192.833 326.5,194.167 326.5,195.5C 325.711,195.217 325.044,194.717 324.5,194C 318.811,193.627 313.145,193.127 307.5,192.5C 307.5,194.5 307.5,196.5 307.5,198.5C 306.167,198.5 304.833,198.5 303.5,198.5C 303.434,203.506 302.434,203.506 300.5,198.5C 298.739,196.32 296.573,194.654 294,193.5C 292.331,191.831 291.498,189.831 291.5,187.5C 290.167,187.5 288.833,187.5 287.5,187.5C 287.5,186.167 287.5,184.833 287.5,183.5C 268.788,183.057 250.121,183.724 231.5,185.5C 224.088,184.615 216.755,182.948 209.5,180.5C 205.662,182.034 201.662,182.868 197.5,183C 201.373,182.849 204.706,184.016 207.5,186.5C 202.544,187.494 197.544,187.827 192.5,187.5C 191.539,189.265 191.205,191.265 191.5,193.5C 186.167,194.833 180.833,196.167 175.5,197.5C 175.702,199.989 175.202,202.323 174,204.5C 168.215,207.336 165.881,212.002 167,218.5C 165.814,216.323 163.981,215.323 161.5,215.5C 160.305,220.096 158.638,224.43 156.5,228.5C 156.594,230.923 157.094,233.256 158,235.5C 159.626,235.146 161.459,235.146 163.5,235.5C 160.523,237.467 157.523,239.467 154.5,241.5C 153.033,242.292 151.7,242.292 150.5,241.5C 148.658,230.028 150.658,219.361 156.5,209.5C 158.527,206.149 160.527,202.816 162.5,199.5C 164.074,199.063 165.241,198.063 166,196.5C 166.311,194.444 166.811,192.444 167.5,190.5C 165.498,185.661 163.998,180.661 163,175.5C 162,174.167 161,172.833 160,171.5C 159.667,172.167 159.333,172.833 159,173.5C 158.392,170.183 157.892,166.849 157.5,163.5C 157.649,161.68 158.316,160.18 159.5,159C 159.043,158.586 158.709,158.086 158.5,157.5C 161.497,156.173 164.497,154.839 167.5,153.5C 172.587,154.661 172.754,156.328 168,158.5C 167.517,159.448 167.351,160.448 167.5,161.5C 171.525,160.694 175.525,159.528 179.5,158C 178.833,157.667 178.167,157.333 177.5,157C 180.167,156.333 182.833,156.333 185.5,157C 187.637,160.891 190.304,161.724 193.5,159.5C 198.167,160.51 201.167,163.177 202.5,167.5C 206.044,167.132 209.044,168.132 211.5,170.5 Z"/></g>
<g><path style="opacity:1" fill="#3d4b3c" d="M 340.5,150.5 C 341.403,153.391 341.736,156.391 341.5,159.5C 341.5,168.5 341.5,177.5 341.5,186.5C 340.875,175.96 340.042,165.294 339,154.5C 336.163,148.911 333.496,143.245 331,137.5C 329.018,136.906 327.184,135.74 325.5,134C 322.032,132.851 318.532,132.351 315,132.5C 310.856,133.164 306.689,133.664 302.5,134C 298.633,135.987 298.633,136.487 302.5,135.5C 303.696,135.846 303.696,136.346 302.5,137C 298.019,138.954 293.352,140.287 288.5,141C 285.108,144.363 281.108,146.696 276.5,148C 262.106,150.577 247.773,151.077 233.5,149.5C 244.544,149.819 255.544,149.319 266.5,148C 278.576,144.494 289.909,139.494 300.5,133C 303.353,131.57 306.353,130.737 309.5,130.5C 315.463,129.406 321.463,128.906 327.5,129C 331.947,133.42 335.78,138.253 339,143.5C 339.186,146.036 339.686,148.369 340.5,150.5 Z"/></g>
<g><path style="opacity:1" fill="#577052" d="M 336.5,175.5 C 337.968,180.107 338.968,184.941 339.5,190C 339.102,195.835 339.102,201.835 339.5,208C 339.43,213.802 338.763,219.469 337.5,225C 338.167,226.667 338.833,228.333 339.5,230C 337.726,232.343 336.392,234.843 335.5,237.5C 328.845,240.165 322.178,242.832 315.5,245.5C 314.833,245.5 314.167,245.5 313.5,245.5C 317.905,243.22 322.238,240.553 326.5,237.5C 324.217,237.901 321.884,237.401 319.5,236C 322.443,234.541 322.776,232.874 320.5,231C 322.361,229.972 323.695,228.472 324.5,226.5C 323.738,226.089 322.738,225.923 321.5,226C 320.934,225.005 320.267,224.172 319.5,223.5C 319.389,221.352 320.056,221.019 321.5,222.5C 322.97,219.293 324.137,215.959 325,212.5C 325.333,212.167 325.667,211.833 326,211.5C 326.333,212.5 326.667,213.5 327,214.5C 328.518,211.464 330.018,208.464 331.5,205.5C 329.816,202.131 328.149,198.798 326.5,195.5C 326.5,194.167 326.5,192.833 326.5,191.5C 314.65,192.182 304.483,188.515 296,180.5C 294.991,178.975 294.491,177.308 294.5,175.5C 281.5,175.5 268.5,175.5 255.5,175.5C 255.5,176.833 255.5,178.167 255.5,179.5C 244.135,179.209 232.801,179.543 221.5,180.5C 217.529,179.803 213.529,179.303 209.5,179C 206.126,178.479 203.126,177.146 200.5,175C 201.618,173.926 202.618,172.76 203.5,171.5C 204.736,172.246 206.07,172.579 207.5,172.5C 207.351,171.448 207.517,170.448 208,169.5C 209.011,170.337 210.178,170.67 211.5,170.5C 216.222,170.731 220.889,171.398 225.5,172.5C 230.169,171.277 234.836,171.277 239.5,172.5C 236.893,173.318 234.226,173.818 231.5,174C 236.347,174.38 241.18,174.88 246,175.5C 247.967,175.458 249.801,174.958 251.5,174C 253.125,173.147 253.458,172.147 252.5,171C 253.448,170.517 254.448,170.351 255.5,170.5C 255.5,169.167 255.5,167.833 255.5,166.5C 261.613,167.223 267.113,165.89 272,162.5C 275.182,163.915 278.182,163.581 281,161.5C 283.02,162.032 283.853,163.365 283.5,165.5C 291.368,167.219 299.368,167.886 307.5,167.5C 307.351,166.448 307.517,165.448 308,164.5C 312.084,163.645 313.584,161.311 312.5,157.5C 314.738,156.617 316.905,156.95 319,158.5C 319.497,161.146 319.664,163.813 319.5,166.5C 324.543,166.877 327.21,169.543 327.5,174.5C 326.448,174.351 325.448,174.517 324.5,175C 326.498,177.623 328.498,180.29 330.5,183C 330.167,183.333 329.833,183.667 329.5,184C 331.068,186.304 332.235,188.804 333,191.5C 334.389,187.728 335.389,187.728 336,191.5C 336.497,188.854 336.664,186.187 336.5,183.5C 335.325,183.719 334.325,183.386 333.5,182.5C 335.854,180.754 336.854,178.421 336.5,175.5 Z"/></g>
<g><path style="opacity:1" fill="#50606c" d="M 360.5,143.5 C 361.6,145.277 362.434,147.277 363,149.5C 363.546,156.184 363.38,162.851 362.5,169.5C 361.502,194.328 361.169,219.328 361.5,244.5C 361.167,244.5 360.833,244.5 360.5,244.5C 360.645,210.8 360.645,177.134 360.5,143.5 Z"/></g>
<g><path style="opacity:1" fill="#070f07" d="M 149.5,156.5 C 149.296,159.518 148.963,162.518 148.5,165.5C 147.504,180.324 147.171,195.324 147.5,210.5C 145.882,220.04 145.049,229.707 145,239.5C 144.768,240.737 144.268,241.737 143.5,242.5C 144.806,216.86 145.639,191.193 146,165.5C 146.505,162.135 147.672,159.135 149.5,156.5 Z"/></g>
<g><path style="opacity:1" fill="#59744f" d="M 326.5,195.5 C 328.149,198.798 329.816,202.131 331.5,205.5C 330.018,208.464 328.518,211.464 327,214.5C 326.667,213.5 326.333,212.5 326,211.5C 325.667,211.833 325.333,212.167 325,212.5C 324.137,215.959 322.97,219.293 321.5,222.5C 320.056,221.019 319.389,221.352 319.5,223.5C 316.102,223.18 312.768,223.513 309.5,224.5C 309.081,225.672 308.415,226.672 307.5,227.5C 301.017,229.227 296.35,233.06 293.5,239C 294.167,239.333 294.833,239.667 295.5,240C 293.028,242.084 290.695,241.917 288.5,239.5C 287.833,239.833 287.167,240.167 286.5,240.5C 281.833,245.167 277.167,249.833 272.5,254.5C 275.086,255.48 277.753,255.813 280.5,255.5C 279.697,260.476 276.864,263.809 272,265.5C 271.505,267.473 271.338,269.473 271.5,271.5C 272.5,271.5 273.5,271.5 274.5,271.5C 274.737,275.273 274.237,278.94 273,282.5C 271.601,283.227 270.101,283.727 268.5,284C 267.572,285.976 266.405,287.809 265,289.5C 263.951,287.893 262.451,287.227 260.5,287.5C 261.167,289.819 261.334,292.153 261,294.5C 256.387,294.384 254.554,292.051 255.5,287.5C 254.167,287.5 252.833,287.5 251.5,287.5C 251.575,284.794 251.908,282.127 252.5,279.5C 253.5,279.5 254.5,279.5 255.5,279.5C 255.5,277.5 255.5,275.5 255.5,273.5C 257.103,273.688 258.437,273.188 259.5,272C 256.914,269.238 254.914,266.072 253.5,262.5C 255.618,260.561 255.951,258.394 254.5,256C 258.464,253.167 261.797,249.667 264.5,245.5C 263.359,240.189 260.526,236.189 256,233.5C 255.5,224.84 255.334,216.173 255.5,207.5C 250.167,207.5 244.833,207.5 239.5,207.5C 239.739,205.533 239.406,203.699 238.5,202C 235.009,201.078 231.675,199.911 228.5,198.5C 228.67,197.178 228.337,196.011 227.5,195C 219.879,195.074 212.879,193.24 206.5,189.5C 203.968,189.914 201.468,190.248 199,190.5C 196.834,189.269 194.667,188.269 192.5,187.5C 197.544,187.827 202.544,187.494 207.5,186.5C 204.706,184.016 201.373,182.849 197.5,183C 201.662,182.868 205.662,182.034 209.5,180.5C 216.755,182.948 224.088,184.615 231.5,185.5C 250.121,183.724 268.788,183.057 287.5,183.5C 287.5,184.833 287.5,186.167 287.5,187.5C 288.833,187.5 290.167,187.5 291.5,187.5C 291.498,189.831 292.331,191.831 294,193.5C 296.573,194.654 298.739,196.32 300.5,198.5C 302.434,203.506 303.434,203.506 303.5,198.5C 304.833,198.5 306.167,198.5 307.5,198.5C 307.5,196.5 307.5,194.5 307.5,192.5C 313.145,193.127 318.811,193.627 324.5,194C 325.044,194.717 325.711,195.217 326.5,195.5 Z"/></g>
<g><path style="opacity:1" fill="#121c10" d="M 148.5,165.5 C 148.782,173.832 149.115,182.166 149.5,190.5C 149.61,197.392 148.944,204.058 147.5,210.5C 147.171,195.324 147.504,180.324 148.5,165.5 Z"/></g>
<g><path style="opacity:1" fill="#5a7850" d="M 192.5,187.5 C 194.667,188.269 196.834,189.269 199,190.5C 201.468,190.248 203.968,189.914 206.5,189.5C 212.879,193.24 219.879,195.074 227.5,195C 228.337,196.011 228.67,197.178 228.5,198.5C 231.675,199.911 235.009,201.078 238.5,202C 239.406,203.699 239.739,205.533 239.5,207.5C 244.833,207.5 250.167,207.5 255.5,207.5C 255.334,216.173 255.5,224.84 256,233.5C 260.526,236.189 263.359,240.189 264.5,245.5C 261.797,249.667 258.464,253.167 254.5,256C 255.951,258.394 255.618,260.561 253.5,262.5C 254.914,266.072 256.914,269.238 259.5,272C 258.437,273.188 257.103,273.688 255.5,273.5C 255.5,275.5 255.5,277.5 255.5,279.5C 254.5,279.5 253.5,279.5 252.5,279.5C 251.908,282.127 251.575,284.794 251.5,287.5C 252.833,287.5 254.167,287.5 255.5,287.5C 254.554,292.051 256.387,294.384 261,294.5C 261.334,292.153 261.167,289.819 260.5,287.5C 262.451,287.227 263.951,287.893 265,289.5C 266.405,287.809 267.572,285.976 268.5,284C 270.101,283.727 271.601,283.227 273,282.5C 274.237,278.94 274.737,275.273 274.5,271.5C 278.439,271.178 279.272,272.511 277,275.5C 276.501,281.157 276.334,286.824 276.5,292.5C 272.416,291.875 269.416,293.375 267.5,297C 270.918,297.489 272.251,299.489 271.5,303C 271.167,304.5 270.833,306 270.5,307.5C 267.283,310.732 263.283,312.232 258.5,312C 257.914,314.28 257.08,316.447 256,318.5C 254.776,315.527 252.776,314.86 250,316.5C 248.957,320.226 248.457,319.893 248.5,315.5C 245.753,315.813 243.086,315.48 240.5,314.5C 242.207,310.737 241.207,309.237 237.5,310C 239.229,308.211 239.896,306.044 239.5,303.5C 238.167,303.5 236.833,303.5 235.5,303.5C 235.649,304.552 235.483,305.552 235,306.5C 234.215,304.751 233.382,303.084 232.5,301.5C 231.504,294.095 232.837,287.261 236.5,281C 235.598,273.527 235.265,265.694 235.5,257.5C 237.032,256.63 238.532,256.964 240,258.5C 240.471,256.754 241.138,255.087 242,253.5C 242.308,254.308 242.808,254.975 243.5,255.5C 244.425,254.359 245.259,254.359 246,255.5C 247.393,251.714 249.059,248.048 251,244.5C 251.249,245.624 251.749,246.624 252.5,247.5C 253.754,245.741 253.421,244.241 251.5,243C 252.591,240.936 252.758,238.769 252,236.5C 250.059,232.952 248.393,229.286 247,225.5C 245.582,227.363 243.749,227.863 241.5,227C 241.08,224.723 240.413,222.223 239.5,219.5C 220.792,219.769 202.126,219.769 183.5,219.5C 183.5,220.833 183.5,222.167 183.5,223.5C 186.788,223.073 189.788,223.74 192.5,225.5C 194.581,223.554 196.914,223.554 199.5,225.5C 196.262,227.245 192.928,228.745 189.5,230C 196.898,232.354 204.232,235.021 211.5,238C 211.167,238.333 210.833,238.667 210.5,239C 213.362,240.735 215.696,242.902 217.5,245.5C 215.716,245.107 214.05,244.441 212.5,243.5C 197.409,233.704 181.076,231.037 163.5,235.5C 161.459,235.146 159.626,235.146 158,235.5C 157.094,233.256 156.594,230.923 156.5,228.5C 158.638,224.43 160.305,220.096 161.5,215.5C 163.981,215.323 165.814,216.323 167,218.5C 165.881,212.002 168.215,207.336 174,204.5C 175.202,202.323 175.702,199.989 175.5,197.5C 180.833,196.167 186.167,194.833 191.5,193.5C 191.205,191.265 191.539,189.265 192.5,187.5 Z"/></g>
<g><path style="opacity:1" fill="#3b5336" d="M 155.5,180.5 C 157.338,183.041 159.172,185.708 161,188.5C 161.548,192.17 162.048,195.837 162.5,199.5C 160.527,202.816 158.527,206.149 156.5,209.5C 155.5,210.167 154.5,210.833 153.5,211.5C 154.994,209.15 156.327,206.65 157.5,204C 157.167,203 156.833,202 156.5,201C 157.895,199.279 158.561,197.279 158.5,195C 156.454,190.399 155.454,185.565 155.5,180.5 Z"/></g>
<g><path style="opacity:1" fill="#31422e" d="M 187.5,135.5 C 181.455,135.303 175.455,135.637 169.5,136.5C 169.245,139.016 168.411,141.35 167,143.5C 163.667,145.5 160.333,147.5 157,149.5C 153.107,158.517 151.941,167.85 153.5,177.5C 154.182,178.243 154.849,178.909 155.5,179.5C 155.5,179.833 155.5,180.167 155.5,180.5C 155.454,185.565 156.454,190.399 158.5,195C 158.561,197.279 157.895,199.279 156.5,201C 156.833,202 157.167,203 157.5,204C 156.327,206.65 154.994,209.15 153.5,211.5C 151.81,215.382 150.31,219.382 149,223.5C 148.667,228.833 148.333,234.167 148,239.5C 147.722,240.416 147.222,241.082 146.5,241.5C 145.32,228.174 147.654,215.674 153.5,204C 151.894,192.072 150.894,180.072 150.5,168C 151.399,162.474 152.399,156.974 153.5,151.5C 153.357,149.738 153.691,148.071 154.5,146.5C 156.167,144.5 157.833,142.5 159.5,140.5C 162.862,139.648 165.529,137.814 167.5,135C 171.5,134.5 175.5,134 179.5,133.5C 182.438,133.568 185.105,134.234 187.5,135.5 Z"/></g>
<g><path style="opacity:1" fill="#222f20" d="M 153.5,151.5 C 152.399,156.974 151.399,162.474 150.5,168C 150.894,180.072 151.894,192.072 153.5,204C 147.654,215.674 145.32,228.174 146.5,241.5C 144.828,247.388 143.328,253.388 142,259.5C 139.716,261.736 138.216,264.402 137.5,267.5C 135.871,268.625 134.371,269.959 133,271.5C 132.333,279.5 132.333,287.5 133,295.5C 134.636,297.55 136.802,298.55 139.5,298.5C 140.492,298.328 141.158,298.662 141.5,299.5C 138.482,299.665 135.482,299.498 132.5,299C 131.874,298.25 131.374,297.416 131,296.5C 130.5,289.842 130.334,283.175 130.5,276.5C 130.34,274.801 130.506,273.134 131,271.5C 133.667,267.5 136.333,263.5 139,259.5C 140.822,253.874 142.322,248.208 143.5,242.5C 144.268,241.737 144.768,240.737 145,239.5C 145.049,229.707 145.882,220.04 147.5,210.5C 148.944,204.058 149.61,197.392 149.5,190.5C 149.115,182.166 148.782,173.832 148.5,165.5C 148.963,162.518 149.296,159.518 149.5,156.5C 150.128,154.338 151.461,152.672 153.5,151.5 Z"/></g>
<g><path style="opacity:1" fill="#2e372a" d="M 341.5,159.5 C 342.167,182.167 342.833,204.833 343.5,227.5C 344.104,232.976 341.771,236.309 336.5,237.5C 337.833,236.067 339.333,234.733 341,233.5C 341.5,217.837 341.667,202.17 341.5,186.5C 341.5,177.5 341.5,168.5 341.5,159.5 Z"/></g>
<g><path style="opacity:1" fill="#587c51" d="M 235.5,257.5 C 235.768,255.901 235.434,254.568 234.5,253.5C 233.609,252.89 232.609,252.557 231.5,252.5C 227.036,249.873 222.369,247.54 217.5,245.5C 215.696,242.902 213.362,240.735 210.5,239C 210.833,238.667 211.167,238.333 211.5,238C 204.232,235.021 196.898,232.354 189.5,230C 192.928,228.745 196.262,227.245 199.5,225.5C 196.914,223.554 194.581,223.554 192.5,225.5C 189.788,223.74 186.788,223.073 183.5,223.5C 183.5,222.167 183.5,220.833 183.5,219.5C 202.126,219.769 220.792,219.769 239.5,219.5C 240.413,222.223 241.08,224.723 241.5,227C 243.749,227.863 245.582,227.363 247,225.5C 248.393,229.286 250.059,232.952 252,236.5C 252.758,238.769 252.591,240.936 251.5,243C 253.421,244.241 253.754,245.741 252.5,247.5C 251.749,246.624 251.249,245.624 251,244.5C 249.059,248.048 247.393,251.714 246,255.5C 245.259,254.359 244.425,254.359 243.5,255.5C 242.808,254.975 242.308,254.308 242,253.5C 241.138,255.087 240.471,256.754 240,258.5C 238.532,256.964 237.032,256.63 235.5,257.5 Z"/></g>
<g><path style="opacity:1" fill="#030f02" d="M 212.5,243.5 C 213.689,246.349 215.689,248.516 218.5,250C 223.184,251.352 227.518,253.185 231.5,255.5C 225.953,255.153 220.62,255.82 215.5,257.5C 214.167,257.167 212.833,256.833 211.5,256.5C 208.384,253.768 205.051,251.268 201.5,249C 199.231,248.242 197.064,248.409 195,249.5C 190.136,246.104 185.136,246.104 180,249.5C 176.848,248.78 173.681,248.113 170.5,247.5C 169.045,248.39 167.711,248.39 166.5,247.5C 165.065,249.401 163.398,249.734 161.5,248.5C 160.707,249.355 161.04,250.189 162.5,251C 161.328,251.419 160.328,252.085 159.5,253C 160.756,253.417 161.423,254.25 161.5,255.5C 159.833,255.5 158.167,255.5 156.5,255.5C 155.833,255.5 155.167,255.5 154.5,255.5C 151.841,250.865 151.841,246.198 154.5,241.5C 157.523,239.467 160.523,237.467 163.5,235.5C 181.076,231.037 197.409,233.704 212.5,243.5 Z"/></g>
<g><path style="opacity:1" fill="#010501" d="M 231.5,255.5 C 232.49,261.31 232.823,267.31 232.5,273.5C 229.229,275.026 225.729,275.692 222,275.5C 209.836,274.042 197.67,272.542 185.5,271C 182.795,268.208 179.462,266.874 175.5,267C 174.695,265.028 173.361,263.528 171.5,262.5C 170.691,260.929 170.357,259.262 170.5,257.5C 173.167,257.5 175.833,257.5 178.5,257.5C 182.819,258.249 187.152,258.415 191.5,258C 187.23,256.925 182.897,256.425 178.5,256.5C 177.609,255.89 176.609,255.557 175.5,255.5C 170.833,255.5 166.167,255.5 161.5,255.5C 161.423,254.25 160.756,253.417 159.5,253C 160.328,252.085 161.328,251.419 162.5,251C 161.04,250.189 160.707,249.355 161.5,248.5C 163.398,249.734 165.065,249.401 166.5,247.5C 167.711,248.39 169.045,248.39 170.5,247.5C 173.681,248.113 176.848,248.78 180,249.5C 185.136,246.104 190.136,246.104 195,249.5C 197.064,248.409 199.231,248.242 201.5,249C 205.051,251.268 208.384,253.768 211.5,256.5C 212.833,256.833 214.167,257.167 215.5,257.5C 220.62,255.82 225.953,255.153 231.5,255.5 Z"/></g>
<g><path style="opacity:1" fill="#0f210f" d="M 212.5,243.5 C 214.05,244.441 215.716,245.107 217.5,245.5C 222.369,247.54 227.036,249.873 231.5,252.5C 231.783,253.289 232.283,253.956 233,254.5C 233.82,261.014 233.653,267.347 232.5,273.5C 232.823,267.31 232.49,261.31 231.5,255.5C 227.518,253.185 223.184,251.352 218.5,250C 215.689,248.516 213.689,246.349 212.5,243.5 Z"/></g>
<g><path style="opacity:1" fill="#071308" d="M 313.5,245.5 C 314.167,245.5 314.833,245.5 315.5,245.5C 314.158,246.793 312.491,247.626 310.5,248C 310.833,248.333 311.167,248.667 311.5,249C 308.728,249.526 306.062,250.359 303.5,251.5C 305.045,253.44 307.045,254.606 309.5,255C 306.431,261.502 304.431,268.335 303.5,275.5C 309.026,275.179 314.36,275.512 319.5,276.5C 313.833,276.5 308.167,276.5 302.5,276.5C 302.167,275.833 301.833,275.167 301.5,274.5C 302.073,268.489 302.74,262.489 303.5,256.5C 297.822,256.133 297.155,254.133 301.5,250.5C 305.07,248.097 309.07,246.43 313.5,245.5 Z"/></g>
<g><path style="opacity:1" fill="#4d5b65" d="M 128.5,218.5 C 128.489,228.522 127.989,238.522 127,248.5C 126.434,250.723 125.6,252.723 124.5,254.5C 121.933,254.279 119.599,253.612 117.5,252.5C 122.061,253.42 124.895,251.754 126,247.5C 126.383,237.643 127.217,227.976 128.5,218.5 Z"/></g>
<g><path style="opacity:1" fill="#546c53" d="M 156.5,209.5 C 150.658,219.361 148.658,230.028 150.5,241.5C 151.7,242.292 153.033,242.292 154.5,241.5C 151.841,246.198 151.841,250.865 154.5,255.5C 153.226,256.189 153.226,257.023 154.5,258C 151.456,258.359 151.122,259.026 153.5,260C 152.675,261.688 151.675,261.855 150.5,260.5C 148.774,262.228 147.441,264.228 146.5,266.5C 147.5,268.5 148.5,270.5 149.5,272.5C 148.141,274.692 146.308,276.359 144,277.5C 143.667,279.167 143.333,280.833 143,282.5C 142,280.167 141,277.833 140,275.5C 136.061,283.041 136.728,290.041 142,296.5C 142.85,295.576 143.85,295.576 145,296.5C 146.313,298.617 148.147,300.117 150.5,301C 150.335,302.117 150.002,303.284 149.5,304.5C 151.2,306.068 152.534,307.901 153.5,310C 159.125,312.524 163.792,316.19 167.5,321C 169.995,321.157 172.328,321.324 174.5,321.5C 175.429,322.689 175.762,324.022 175.5,325.5C 179.684,325.592 183.017,327.259 185.5,330.5C 185.611,331.117 185.944,331.617 186.5,332C 185.027,332.71 184.36,333.876 184.5,335.5C 186.167,335.5 187.833,335.5 189.5,335.5C 189.338,337.527 189.505,339.527 190,341.5C 190.333,340.833 190.667,340.167 191,339.5C 195.328,344.444 200.662,346.444 207,345.5C 207.495,347.473 207.662,349.473 207.5,351.5C 213.215,351.173 213.881,352.673 209.5,356C 211.247,356.352 212.914,356.852 214.5,357.5C 206.994,356.661 199.328,356.661 191.5,357.5C 191.738,353.901 190.738,353.567 188.5,356.5C 188.863,357.183 189.196,357.85 189.5,358.5C 188.671,359.332 187.838,358.999 187,357.5C 185.826,352.25 185.159,346.916 185,341.5C 184.617,340.944 184.117,340.611 183.5,340.5C 183.155,337.802 181.822,335.802 179.5,334.5C 177.706,332.203 175.706,330.037 173.5,328C 165.954,322.399 158.621,316.565 151.5,310.5C 148.848,306.183 145.515,302.516 141.5,299.5C 141.158,298.662 140.492,298.328 139.5,298.5C 138.156,296.832 136.823,295.165 135.5,293.5C 134.908,288.278 134.242,283.112 133.5,278C 134.547,274.354 135.881,270.854 137.5,267.5C 138.216,264.402 139.716,261.736 142,259.5C 143.328,253.388 144.828,247.388 146.5,241.5C 147.222,241.082 147.722,240.416 148,239.5C 148.333,234.167 148.667,228.833 149,223.5C 150.31,219.382 151.81,215.382 153.5,211.5C 154.5,210.833 155.5,210.167 156.5,209.5 Z"/></g>
<g><path style="opacity:1" fill="#23361d" d="M 156.5,255.5 C 158.167,255.5 159.833,255.5 161.5,255.5C 166.167,255.5 170.833,255.5 175.5,255.5C 173.393,256.468 171.059,256.802 168.5,256.5C 168.5,258.167 168.5,259.833 168.5,261.5C 166.787,260.365 166.12,258.698 166.5,256.5C 162.958,256.813 159.625,256.479 156.5,255.5 Z"/></g>
<g><path style="opacity:1" fill="#2c322a" d="M 178.5,257.5 C 178.5,257.167 178.5,256.833 178.5,256.5C 182.897,256.425 187.23,256.925 191.5,258C 187.152,258.415 182.819,258.249 178.5,257.5 Z"/></g>
<g><path style="opacity:1" fill="#2e4530" d="M 301.5,250.5 C 297.155,254.133 297.822,256.133 303.5,256.5C 302.74,262.489 302.073,268.489 301.5,274.5C 300.39,270.497 300.39,266.33 301.5,262C 299.952,259.28 298.619,256.447 297.5,253.5C 297.5,253.167 297.5,252.833 297.5,252.5C 298.514,251.326 299.847,250.66 301.5,250.5 Z"/></g>
<g><path style="opacity:1" fill="#101b0f" d="M 175.5,255.5 C 176.609,255.557 177.609,255.89 178.5,256.5C 178.5,256.833 178.5,257.167 178.5,257.5C 175.833,257.5 173.167,257.5 170.5,257.5C 170.357,259.262 170.691,260.929 171.5,262.5C 173.361,263.528 174.695,265.028 175.5,267C 179.462,266.874 182.795,268.208 185.5,271C 197.67,272.542 209.836,274.042 222,275.5C 225.729,275.692 229.229,275.026 232.5,273.5C 232.423,274.75 231.756,275.583 230.5,276C 226.848,276.499 223.182,276.665 219.5,276.5C 213.848,275.968 208.181,275.635 202.5,275.5C 199.023,274.677 195.356,274.177 191.5,274C 186.002,271.708 180.336,269.874 174.5,268.5C 171.753,266.757 169.753,264.424 168.5,261.5C 168.5,259.833 168.5,258.167 168.5,256.5C 171.059,256.802 173.393,256.468 175.5,255.5 Z"/></g>
<g><path style="opacity:1" fill="#5c7456" d="M 297.5,252.5 C 297.5,252.833 297.5,253.167 297.5,253.5C 296.522,253.811 295.855,254.478 295.5,255.5C 301.272,262.526 300.439,268.526 293,273.5C 292.692,272.692 292.192,272.025 291.5,271.5C 290.345,274.818 289.012,277.318 287.5,279C 290.804,285.38 292.638,292.213 293,299.5C 295.891,303.45 295.724,307.45 292.5,311.5C 291.397,311.998 290.397,312.331 289.5,312.5C 291.472,314.415 292.472,316.749 292.5,319.5C 286.642,319.178 280.975,319.511 275.5,320.5C 274.167,320.5 272.833,320.5 271.5,320.5C 275.729,319.152 280.062,317.985 284.5,317C 284.374,312.647 284.374,308.314 284.5,304C 283.229,301.446 282.562,298.613 282.5,295.5C 283.166,287.512 283.499,279.512 283.5,271.5C 284.833,271.5 286.167,271.5 287.5,271.5C 288.45,266.366 289.283,261.366 290,256.5C 290.333,256.167 290.667,255.833 291,255.5C 291.333,256.833 291.667,258.167 292,259.5C 292.718,260.451 293.551,260.617 294.5,260C 293.426,259.261 292.759,258.261 292.5,257C 293.653,254.791 295.319,253.291 297.5,252.5 Z"/></g>
<g><path style="opacity:1" fill="#5b795a" d="M 174.5,268.5 C 180.336,269.874 186.002,271.708 191.5,274C 195.356,274.177 199.023,274.677 202.5,275.5C 198.356,275.33 194.356,275.997 190.5,277.5C 186.439,276.471 182.773,276.804 179.5,278.5C 178.264,277.754 176.93,277.421 175.5,277.5C 174.733,273.881 172.567,271.214 169,269.5C 167.287,270.137 167.121,271.137 168.5,272.5C 167.966,274.614 166.966,276.448 165.5,278C 167.125,278.853 167.458,279.853 166.5,281C 171.415,284.29 176.748,286.79 182.5,288.5C 180.587,289.051 178.587,289.218 176.5,289C 181.076,291.659 185.91,292.159 191,290.5C 193.069,291.264 195.236,291.764 197.5,292C 198.583,294.056 200.25,295.389 202.5,296C 201.833,296.333 201.167,296.667 200.5,297C 208.17,298.701 215.837,300.201 223.5,301.5C 223.67,300.178 223.337,299.011 222.5,298C 220.392,297.64 218.392,296.973 216.5,296C 218.847,295.666 221.181,295.833 223.5,296.5C 223.34,294.801 223.506,293.134 224,291.5C 225.011,292.337 226.178,292.67 227.5,292.5C 227.187,296.042 227.521,299.375 228.5,302.5C 227.722,303.156 227.056,303.989 226.5,305C 228.035,309.077 227.201,309.577 224,306.5C 223.667,307.5 223.333,308.5 223,309.5C 218.812,312.866 213.979,314.366 208.5,314C 207.944,314.383 207.611,314.883 207.5,315.5C 201.523,316.381 196.189,315.047 191.5,311.5C 191.586,310.504 191.252,309.671 190.5,309C 186.762,307.978 183.595,308.811 181,311.5C 178.416,311.04 176.083,310.04 174,308.5C 172.711,310.085 171.211,311.419 169.5,312.5C 166.328,310.748 163.328,308.748 160.5,306.5C 159.353,303.473 158.019,300.139 156.5,296.5C 157.465,294.671 158.465,292.838 159.5,291C 158.693,287.014 159.359,283.181 161.5,279.5C 159.609,277.151 159.276,274.485 160.5,271.5C 161.5,271.5 162.5,271.5 163.5,271.5C 163.258,268.319 163.258,265.319 163.5,262.5C 166.864,265.029 170.364,267.363 174,269.5C 174.399,269.272 174.565,268.938 174.5,268.5 Z"/></g>
<g><path style="opacity:1" fill="#4b654c" d="M 231.5,252.5 C 232.609,252.557 233.609,252.89 234.5,253.5C 234.666,261.174 234.5,268.841 234,276.5C 229.067,277.824 224.234,277.824 219.5,276.5C 223.182,276.665 226.848,276.499 230.5,276C 231.756,275.583 232.423,274.75 232.5,273.5C 233.653,267.347 233.82,261.014 233,254.5C 232.283,253.956 231.783,253.289 231.5,252.5 Z"/></g>
<g><path style="opacity:1" fill="#58715b" d="M 297.5,253.5 C 298.619,256.447 299.952,259.28 301.5,262C 300.39,266.33 300.39,270.497 301.5,274.5C 301.833,275.167 302.167,275.833 302.5,276.5C 312.325,277.33 322.325,277.83 332.5,278C 333.737,278.232 334.737,278.732 335.5,279.5C 336.117,281.229 337.117,282.729 338.5,284C 336.324,285.677 334.324,287.511 332.5,289.5C 334.772,291.053 336.105,293.219 336.5,296C 332.956,297.253 332.623,299.087 335.5,301.5C 335.167,301.833 334.833,302.167 334.5,302.5C 325.904,301.441 317.237,301.274 308.5,302C 305.99,303.09 303.49,304.257 301,305.5C 298.861,309.94 296.694,314.273 294.5,318.5C 294.5,318.833 294.5,319.167 294.5,319.5C 288.256,320.458 281.923,320.791 275.5,320.5C 280.975,319.511 286.642,319.178 292.5,319.5C 292.472,316.749 291.472,314.415 289.5,312.5C 290.397,312.331 291.397,311.998 292.5,311.5C 295.724,307.45 295.891,303.45 293,299.5C 292.638,292.213 290.804,285.38 287.5,279C 289.012,277.318 290.345,274.818 291.5,271.5C 292.192,272.025 292.692,272.692 293,273.5C 300.439,268.526 301.272,262.526 295.5,255.5C 295.855,254.478 296.522,253.811 297.5,253.5 Z"/></g>
<g><path style="opacity:1" fill="#475544" d="M 137.5,267.5 C 135.881,270.854 134.547,274.354 133.5,278C 134.242,283.112 134.908,288.278 135.5,293.5C 136.823,295.165 138.156,296.832 139.5,298.5C 136.802,298.55 134.636,297.55 133,295.5C 132.333,287.5 132.333,279.5 133,271.5C 134.371,269.959 135.871,268.625 137.5,267.5 Z"/></g>
<g><path style="opacity:1" fill="#60805f" d="M 234.5,253.5 C 235.434,254.568 235.768,255.901 235.5,257.5C 235.265,265.694 235.598,273.527 236.5,281C 232.837,287.261 231.504,294.095 232.5,301.5C 230.737,300.046 229.403,300.38 228.5,302.5C 227.521,299.375 227.187,296.042 227.5,292.5C 226.178,292.67 225.011,292.337 224,291.5C 223.506,293.134 223.34,294.801 223.5,296.5C 221.181,295.833 218.847,295.666 216.5,296C 218.392,296.973 220.392,297.64 222.5,298C 223.337,299.011 223.67,300.178 223.5,301.5C 215.837,300.201 208.17,298.701 200.5,297C 201.167,296.667 201.833,296.333 202.5,296C 200.25,295.389 198.583,294.056 197.5,292C 195.236,291.764 193.069,291.264 191,290.5C 185.91,292.159 181.076,291.659 176.5,289C 178.587,289.218 180.587,289.051 182.5,288.5C 176.748,286.79 171.415,284.29 166.5,281C 167.458,279.853 167.125,278.853 165.5,278C 166.966,276.448 167.966,274.614 168.5,272.5C 167.121,271.137 167.287,270.137 169,269.5C 172.567,271.214 174.733,273.881 175.5,277.5C 176.93,277.421 178.264,277.754 179.5,278.5C 182.773,276.804 186.439,276.471 190.5,277.5C 194.356,275.997 198.356,275.33 202.5,275.5C 208.181,275.635 213.848,275.968 219.5,276.5C 224.234,277.824 229.067,277.824 234,276.5C 234.5,268.841 234.666,261.174 234.5,253.5 Z"/></g>
<g><path style="opacity:1" fill="#050a05" d="M 111.5,257.5 C 113.673,258.166 114.007,259.333 112.5,261C 114.638,274.115 116.471,287.282 118,300.5C 120.21,301.632 120.71,303.132 119.5,305C 120.612,307.602 121.946,310.102 123.5,312.5C 121.42,313.528 121.086,314.862 122.5,316.5C 120.097,316.607 118.264,315.607 117,313.5C 114.594,307.027 113.094,300.36 112.5,293.5C 113.167,293.167 113.833,292.833 114.5,292.5C 113.179,288.216 112.012,283.883 111,279.5C 110.333,278.833 109.667,278.167 109,277.5C 108.295,272.976 107.462,268.476 106.5,264C 106.645,262.774 106.978,261.607 107.5,260.5C 109.332,259.943 110.665,258.943 111.5,257.5 Z"/></g>
<g><path style="opacity:1" fill="#050d05" d="M 130.5,276.5 C 130.334,283.175 130.5,289.842 131,296.5C 131.374,297.416 131.874,298.25 132.5,299C 135.482,299.498 138.482,299.665 141.5,299.5C 145.515,302.516 148.848,306.183 151.5,310.5C 150.25,310.423 149.417,309.756 149,308.5C 148.667,308.833 148.333,309.167 148,309.5C 144.098,302.544 142.764,302.877 144,310.5C 142.413,309.273 141.079,309.606 140,311.5C 137.915,309.727 137.415,307.727 138.5,305.5C 138.132,304.09 137.299,303.09 136,302.5C 134.903,304.053 133.57,305.386 132,306.5C 129.42,303.672 128.254,300.338 128.5,296.5C 128.622,289.828 129.289,283.161 130.5,276.5 Z"/></g>
<g><path style="opacity:1" fill="#5d7784" d="M 362.5,169.5 C 362.629,228.917 363.629,288.25 365.5,347.5C 365.484,360.089 365.484,372.422 365.5,384.5C 364.167,382.833 362.833,381.167 361.5,379.5C 361.5,379.167 361.5,378.833 361.5,378.5C 361.784,333.846 361.784,289.179 361.5,244.5C 361.169,219.328 361.502,194.328 362.5,169.5 Z"/></g>
<g><path style="opacity:1" fill="#546956" d="M 335.5,279.5 C 336.5,279.5 337.5,279.5 338.5,279.5C 339.601,290.8 339.767,302.133 339,313.5C 337.199,327.145 335.699,340.812 334.5,354.5C 333.596,355.209 333.263,356.209 333.5,357.5C 331.716,357.893 330.05,358.559 328.5,359.5C 328.343,358.127 328.51,356.793 329,355.5C 331.91,353.376 332.743,350.709 331.5,347.5C 332.304,346.059 332.971,344.559 333.5,343C 332.483,340.527 332.483,338.027 333.5,335.5C 332.5,335.5 331.5,335.5 330.5,335.5C 329.272,331.803 330.106,328.47 333,325.5C 333.667,324.5 333.667,323.5 333,322.5C 329.335,323.985 327.502,326.651 327.5,330.5C 326.127,330.657 324.793,330.49 323.5,330C 322.167,329.333 322.167,328.667 323.5,328C 316.306,327.257 309.306,325.924 302.5,324C 303.059,324.725 303.392,325.558 303.5,326.5C 302.331,331.345 300.997,336.012 299.5,340.5C 299.666,332.493 299.5,324.493 299,316.5C 298.586,316.043 298.086,315.709 297.5,315.5C 296.265,316.34 295.265,317.34 294.5,318.5C 296.694,314.273 298.861,309.94 301,305.5C 303.49,304.257 305.99,303.09 308.5,302C 317.237,301.274 325.904,301.441 334.5,302.5C 334.833,302.167 335.167,301.833 335.5,301.5C 332.623,299.087 332.956,297.253 336.5,296C 336.105,293.219 334.772,291.053 332.5,289.5C 334.324,287.511 336.324,285.677 338.5,284C 337.117,282.729 336.117,281.229 335.5,279.5 Z"/></g>
<g><path style="opacity:1" fill="#597356" d="M 154.5,255.5 C 155.167,255.5 155.833,255.5 156.5,255.5C 159.625,256.479 162.958,256.813 166.5,256.5C 166.12,258.698 166.787,260.365 168.5,261.5C 169.753,264.424 171.753,266.757 174.5,268.5C 174.565,268.938 174.399,269.272 174,269.5C 170.364,267.363 166.864,265.029 163.5,262.5C 163.258,265.319 163.258,268.319 163.5,271.5C 162.5,271.5 161.5,271.5 160.5,271.5C 159.276,274.485 159.609,277.151 161.5,279.5C 159.359,283.181 158.693,287.014 159.5,291C 158.465,292.838 157.465,294.671 156.5,296.5C 158.019,300.139 159.353,303.473 160.5,306.5C 163.328,308.748 166.328,310.748 169.5,312.5C 171.211,311.419 172.711,310.085 174,308.5C 176.083,310.04 178.416,311.04 181,311.5C 183.595,308.811 186.762,307.978 190.5,309C 191.252,309.671 191.586,310.504 191.5,311.5C 191.5,312.833 191.5,314.167 191.5,315.5C 188.579,315.146 186.246,316.146 184.5,318.5C 183.914,318.291 183.414,317.957 183,317.5C 180.828,318.509 179.662,320.176 179.5,322.5C 181.547,322.489 183.547,322.156 185.5,321.5C 190.545,324.175 190.545,327.175 185.5,330.5C 183.017,327.259 179.684,325.592 175.5,325.5C 175.762,324.022 175.429,322.689 174.5,321.5C 172.328,321.324 169.995,321.157 167.5,321C 163.792,316.19 159.125,312.524 153.5,310C 152.534,307.901 151.2,306.068 149.5,304.5C 150.002,303.284 150.335,302.117 150.5,301C 148.147,300.117 146.313,298.617 145,296.5C 143.85,295.576 142.85,295.576 142,296.5C 136.728,290.041 136.061,283.041 140,275.5C 141,277.833 142,280.167 143,282.5C 143.333,280.833 143.667,279.167 144,277.5C 146.308,276.359 148.141,274.692 149.5,272.5C 148.5,270.5 147.5,268.5 146.5,266.5C 147.441,264.228 148.774,262.228 150.5,260.5C 151.675,261.855 152.675,261.688 153.5,260C 151.122,259.026 151.456,258.359 154.5,258C 153.226,257.023 153.226,256.189 154.5,255.5 Z"/></g>
<g><path style="opacity:1" fill="#567353" d="M 191.5,311.5 C 196.189,315.047 201.523,316.381 207.5,315.5C 205.031,316.317 202.365,316.817 199.5,317C 203.833,317.333 208.167,317.667 212.5,318C 213.818,318.694 214.651,319.527 215,320.5C 217.521,319.327 220.021,319.327 222.5,320.5C 221.141,322.306 221.475,323.806 223.5,325C 219.154,326.68 216.154,329.68 214.5,334C 214.905,334.945 215.572,335.612 216.5,336C 216.167,336.333 215.833,336.667 215.5,337C 213.284,336.313 210.951,335.48 208.5,334.5C 207.017,337.885 207.851,340.552 211,342.5C 212.741,345.309 213.908,348.309 214.5,351.5C 215.833,351.5 217.167,351.5 218.5,351.5C 218.6,348.333 217.933,345.333 216.5,342.5C 216.833,342.167 217.167,341.833 217.5,341.5C 220.749,344.184 222.916,347.517 224,351.5C 224.402,350.128 224.902,348.795 225.5,347.5C 231.767,346.424 233.1,346.424 229.5,347.5C 229.22,350.388 230.553,351.888 233.5,352C 231.545,352.953 229.878,354.287 228.5,356C 230.491,356.374 232.158,357.207 233.5,358.5C 229.5,358.5 225.5,358.5 221.5,358.5C 219.393,357.532 217.059,357.198 214.5,357.5C 212.914,356.852 211.247,356.352 209.5,356C 213.881,352.673 213.215,351.173 207.5,351.5C 207.662,349.473 207.495,347.473 207,345.5C 200.662,346.444 195.328,344.444 191,339.5C 190.667,340.167 190.333,340.833 190,341.5C 189.505,339.527 189.338,337.527 189.5,335.5C 187.833,335.5 186.167,335.5 184.5,335.5C 184.36,333.876 185.027,332.71 186.5,332C 185.944,331.617 185.611,331.117 185.5,330.5C 190.545,327.175 190.545,324.175 185.5,321.5C 183.547,322.156 181.547,322.489 179.5,322.5C 179.662,320.176 180.828,318.509 183,317.5C 183.414,317.957 183.914,318.291 184.5,318.5C 186.246,316.146 188.579,315.146 191.5,315.5C 191.5,314.167 191.5,312.833 191.5,311.5 Z"/></g>
<g><path style="opacity:1" fill="#2f4031" d="M 299.5,340.5 C 295.462,345.819 291.462,345.819 287.5,340.5C 290.319,342.097 293.319,342.597 296.5,342C 297.423,339.959 297.756,337.792 297.5,335.5C 298.4,330.228 298.733,324.895 298.5,319.5C 297.167,319.5 295.833,319.5 294.5,319.5C 294.5,319.167 294.5,318.833 294.5,318.5C 295.265,317.34 296.265,316.34 297.5,315.5C 298.086,315.709 298.586,316.043 299,316.5C 299.5,324.493 299.666,332.493 299.5,340.5 Z"/></g>
<g><path style="opacity:1" fill="#5a7753" d="M 319.5,223.5 C 320.267,224.172 320.934,225.005 321.5,226C 322.738,225.923 323.738,226.089 324.5,226.5C 323.695,228.472 322.361,229.972 320.5,231C 322.776,232.874 322.443,234.541 319.5,236C 321.884,237.401 324.217,237.901 326.5,237.5C 322.238,240.553 317.905,243.22 313.5,245.5C 309.07,246.43 305.07,248.097 301.5,250.5C 299.847,250.66 298.514,251.326 297.5,252.5C 295.319,253.291 293.653,254.791 292.5,257C 292.759,258.261 293.426,259.261 294.5,260C 293.551,260.617 292.718,260.451 292,259.5C 291.667,258.167 291.333,256.833 291,255.5C 290.667,255.833 290.333,256.167 290,256.5C 289.283,261.366 288.45,266.366 287.5,271.5C 286.167,271.5 284.833,271.5 283.5,271.5C 283.499,279.512 283.166,287.512 282.5,295.5C 282.562,298.613 283.229,301.446 284.5,304C 284.374,308.314 284.374,312.647 284.5,317C 280.062,317.985 275.729,319.152 271.5,320.5C 266.55,322.308 261.883,324.642 257.5,327.5C 251.57,326.999 248.903,329.666 249.5,335.5C 247.712,335.785 246.045,335.452 244.5,334.5C 244.977,333.522 245.643,332.689 246.5,332C 246.167,331.667 245.833,331.333 245.5,331C 248.323,327.291 248.157,323.791 245,320.5C 241.427,328.116 242.094,335.449 247,342.5C 247.667,341.833 248.333,341.167 249,340.5C 250.875,341.742 252.709,343.076 254.5,344.5C 255.731,345.651 255.731,346.817 254.5,348C 258.719,348.756 262.719,349.922 266.5,351.5C 266.611,352.117 266.944,352.617 267.5,353C 259.081,355.55 250.415,357.217 241.5,358C 248.013,358.172 254.347,358.672 260.5,359.5C 251.447,359.778 242.447,359.444 233.5,358.5C 232.158,357.207 230.491,356.374 228.5,356C 229.878,354.287 231.545,352.953 233.5,352C 230.553,351.888 229.22,350.388 229.5,347.5C 233.1,346.424 231.767,346.424 225.5,347.5C 224.902,348.795 224.402,350.128 224,351.5C 222.916,347.517 220.749,344.184 217.5,341.5C 217.167,341.833 216.833,342.167 216.5,342.5C 217.933,345.333 218.6,348.333 218.5,351.5C 217.167,351.5 215.833,351.5 214.5,351.5C 213.908,348.309 212.741,345.309 211,342.5C 207.851,340.552 207.017,337.885 208.5,334.5C 210.951,335.48 213.284,336.313 215.5,337C 215.833,336.667 216.167,336.333 216.5,336C 215.572,335.612 214.905,334.945 214.5,334C 216.154,329.68 219.154,326.68 223.5,325C 221.475,323.806 221.141,322.306 222.5,320.5C 220.021,319.327 217.521,319.327 215,320.5C 214.651,319.527 213.818,318.694 212.5,318C 208.167,317.667 203.833,317.333 199.5,317C 202.365,316.817 205.031,316.317 207.5,315.5C 207.611,314.883 207.944,314.383 208.5,314C 213.979,314.366 218.812,312.866 223,309.5C 223.333,308.5 223.667,307.5 224,306.5C 227.201,309.577 228.035,309.077 226.5,305C 227.056,303.989 227.722,303.156 228.5,302.5C 229.403,300.38 230.737,300.046 232.5,301.5C 233.382,303.084 234.215,304.751 235,306.5C 235.483,305.552 235.649,304.552 235.5,303.5C 236.833,303.5 238.167,303.5 239.5,303.5C 239.896,306.044 239.229,308.211 237.5,310C 241.207,309.237 242.207,310.737 240.5,314.5C 243.086,315.48 245.753,315.813 248.5,315.5C 248.457,319.893 248.957,320.226 250,316.5C 252.776,314.86 254.776,315.527 256,318.5C 257.08,316.447 257.914,314.28 258.5,312C 263.283,312.232 267.283,310.732 270.5,307.5C 270.833,306 271.167,304.5 271.5,303C 272.251,299.489 270.918,297.489 267.5,297C 269.416,293.375 272.416,291.875 276.5,292.5C 276.334,286.824 276.501,281.157 277,275.5C 279.272,272.511 278.439,271.178 274.5,271.5C 273.5,271.5 272.5,271.5 271.5,271.5C 271.338,269.473 271.505,267.473 272,265.5C 276.864,263.809 279.697,260.476 280.5,255.5C 277.753,255.813 275.086,255.48 272.5,254.5C 277.167,249.833 281.833,245.167 286.5,240.5C 287.167,240.167 287.833,239.833 288.5,239.5C 290.695,241.917 293.028,242.084 295.5,240C 294.833,239.667 294.167,239.333 293.5,239C 296.35,233.06 301.017,229.227 307.5,227.5C 308.415,226.672 309.081,225.672 309.5,224.5C 312.768,223.513 316.102,223.18 319.5,223.5 Z"/></g>
<g><path style="opacity:1" fill="#020602" d="M 294.5,319.5 C 295.833,319.5 297.167,319.5 298.5,319.5C 298.733,324.895 298.4,330.228 297.5,335.5C 295.866,336.207 294.532,337.373 293.5,339C 286.842,339.5 280.175,339.666 273.5,339.5C 267.894,338.593 262.227,338.26 256.5,338.5C 254.46,337.454 253.127,335.787 252.5,333.5C 254.16,331.506 255.827,329.506 257.5,327.5C 261.883,324.642 266.55,322.308 271.5,320.5C 272.833,320.5 274.167,320.5 275.5,320.5C 281.923,320.791 288.256,320.458 294.5,319.5 Z"/></g>
<g><path style="opacity:1" fill="#495b4b" d="M 302.5,276.5 C 308.167,276.5 313.833,276.5 319.5,276.5C 326.255,276.207 332.922,276.54 339.5,277.5C 340.496,299.486 340.329,321.486 339,343.5C 338.333,346.167 337.667,348.833 337,351.5C 336.623,352.942 335.79,353.942 334.5,354.5C 335.699,340.812 337.199,327.145 339,313.5C 339.767,302.133 339.601,290.8 338.5,279.5C 337.5,279.5 336.5,279.5 335.5,279.5C 334.737,278.732 333.737,278.232 332.5,278C 322.325,277.83 312.325,277.33 302.5,276.5 Z"/></g>
<g><path style="opacity:1" fill="#546c55" d="M 328.5,359.5 C 326.146,360.013 324.146,361.179 322.5,363C 320.19,363.497 317.857,363.663 315.5,363.5C 315.196,362.85 314.863,362.183 314.5,361.5C 312,360.641 309.667,359.641 307.5,358.5C 310.692,358.133 313.359,356.633 315.5,354C 313.567,353.749 311.734,353.249 310,352.5C 308.903,347.946 307.737,343.446 306.5,339C 302.247,338.907 299.747,341.074 299,345.5C 297.915,346.293 296.748,346.96 295.5,347.5C 287.35,344.526 279.017,343.526 270.5,344.5C 265.57,342.849 260.903,340.849 256.5,338.5C 262.227,338.26 267.894,338.593 273.5,339.5C 277.97,340.486 282.637,340.819 287.5,340.5C 291.462,345.819 295.462,345.819 299.5,340.5C 300.997,336.012 302.331,331.345 303.5,326.5C 303.392,325.558 303.059,324.725 302.5,324C 309.306,325.924 316.306,327.257 323.5,328C 322.167,328.667 322.167,329.333 323.5,330C 324.793,330.49 326.127,330.657 327.5,330.5C 327.502,326.651 329.335,323.985 333,322.5C 333.667,323.5 333.667,324.5 333,325.5C 330.106,328.47 329.272,331.803 330.5,335.5C 331.5,335.5 332.5,335.5 333.5,335.5C 332.483,338.027 332.483,340.527 333.5,343C 332.971,344.559 332.304,346.059 331.5,347.5C 332.743,350.709 331.91,353.376 329,355.5C 328.51,356.793 328.343,358.127 328.5,359.5 Z"/></g>
<g><path style="opacity:1" fill="#03060c" d="M 117.5,252.5 C 119.599,253.612 121.933,254.279 124.5,254.5C 119.906,254.865 115.573,255.865 111.5,257.5C 110.665,258.943 109.332,259.943 107.5,260.5C 106.978,261.607 106.645,262.774 106.5,264C 107.462,268.476 108.295,272.976 109,277.5C 109.667,278.167 110.333,278.833 111,279.5C 112.012,283.883 113.179,288.216 114.5,292.5C 113.833,292.833 113.167,293.167 112.5,293.5C 113.094,300.36 114.594,307.027 117,313.5C 118.264,315.607 120.097,316.607 122.5,316.5C 123.397,317.598 124.23,317.598 125,316.5C 124.667,318.167 124.333,319.833 124,321.5C 124.333,321.167 124.667,320.833 125,320.5C 125.985,323.499 127.651,325.165 130,325.5C 133.35,330.824 134.183,336.491 132.5,342.5C 134.028,347.013 134.695,351.68 134.5,356.5C 132.881,364.753 133.215,372.919 135.5,381C 135.355,381.772 135.022,382.439 134.5,383C 136.134,383.494 137.801,383.66 139.5,383.5C 139.669,385.912 139.003,388.079 137.5,390C 138.233,391.766 138.567,393.599 138.5,395.5C 139.552,395.351 140.552,395.517 141.5,396C 143.141,398.163 145.141,399.663 147.5,400.5C 147.265,401.097 146.765,401.43 146,401.5C 144.433,400.144 142.6,399.477 140.5,399.5C 140.372,402.774 139.039,402.941 136.5,400C 135.207,399.51 133.873,399.343 132.5,399.5C 132.263,400.791 132.596,401.791 133.5,402.5C 133.5,403.167 133.5,403.833 133.5,404.5C 132.833,404.5 132.5,404.833 132.5,405.5C 131.833,400.5 131.167,395.5 130.5,390.5C 130.296,387.482 129.963,384.482 129.5,381.5C 127.875,362.552 126.875,343.552 126.5,324.5C 124.5,324.5 122.5,324.5 120.5,324.5C 113.489,322.988 109.323,318.655 108,311.5C 107.667,302.167 107.333,292.833 107,283.5C 106.386,278.242 105.219,273.242 103.5,268.5C 102.588,262.676 103.922,257.51 107.5,253C 110.817,252.502 114.15,252.335 117.5,252.5 Z"/></g>
<g><path style="opacity:1" fill="#394439" d="M 339.5,277.5 C 339.833,277.5 340.167,277.5 340.5,277.5C 341.667,302.83 341.167,328.163 339,353.5C 338.125,356.215 336.292,357.548 333.5,357.5C 333.263,356.209 333.596,355.209 334.5,354.5C 335.79,353.942 336.623,352.942 337,351.5C 337.667,348.833 338.333,346.167 339,343.5C 340.329,321.486 340.496,299.486 339.5,277.5 Z"/></g>
<g><path style="opacity:1" fill="#1a291c" d="M 297.5,335.5 C 297.756,337.792 297.423,339.959 296.5,342C 293.319,342.597 290.319,342.097 287.5,340.5C 282.637,340.819 277.97,340.486 273.5,339.5C 280.175,339.666 286.842,339.5 293.5,339C 294.532,337.373 295.866,336.207 297.5,335.5 Z"/></g>
<g><path style="opacity:1" fill="#5c8091" d="M 364.5,447.5 C 366.525,443.104 367.525,438.438 367.5,433.5C 368.978,433.762 370.311,433.429 371.5,432.5C 371.291,431.914 370.957,431.414 370.5,431C 374.855,428.539 376.521,424.706 375.5,419.5C 373.5,419.5 371.5,419.5 369.5,419.5C 368.634,413.731 370.634,409.231 375.5,406C 374.584,405.722 373.918,405.222 373.5,404.5C 376.066,402.712 376.066,400.879 373.5,399C 374.285,397.457 374.285,395.79 373.5,394C 374.007,390.787 374.674,387.62 375.5,384.5C 374.635,384.436 373.635,384.103 372.5,383.5C 372.002,380.465 370.668,377.965 368.5,376C 369.775,372.045 369.775,368.045 368.5,364C 369.09,361.743 370.423,360.076 372.5,359C 370.291,355.879 368.958,352.379 368.5,348.5C 368.342,346.681 369.009,345.348 370.5,344.5C 371.345,346.762 372.678,347.429 374.5,346.5C 375.052,348.003 375.052,349.669 374.5,351.5C 376.833,351.5 379.167,351.5 381.5,351.5C 380.708,355.211 379.708,358.878 378.5,362.5C 379.333,362.833 380.167,363.167 381,363.5C 385.13,360.94 389.13,360.94 393,363.5C 395.365,367.567 394.865,371.234 391.5,374.5C 395.651,376.715 399.317,379.548 402.5,383C 401.045,386.554 401.711,389.721 404.5,392.5C 403.518,395.909 404.851,398.242 408.5,399.5C 408.754,404.015 411.087,406.015 415.5,405.5C 414.5,409.833 411.833,412.5 407.5,413.5C 406.923,417.08 407.923,420.08 410.5,422.5C 408.103,425.727 406.936,429.394 407,433.5C 404.664,434.292 404.164,435.625 405.5,437.5C 403.971,439.188 402.137,440.521 400,441.5C 399.502,438.183 399.335,434.85 399.5,431.5C 393.794,431.171 388.128,431.505 382.5,432.5C 377.833,437.167 373.167,441.833 368.5,446.5C 367.311,447.429 365.978,447.762 364.5,447.5 Z"/></g>
<g><path style="opacity:1" fill="#5a7658" d="M 257.5,327.5 C 255.827,329.506 254.16,331.506 252.5,333.5C 253.127,335.787 254.46,337.454 256.5,338.5C 260.903,340.849 265.57,342.849 270.5,344.5C 279.017,343.526 287.35,344.526 295.5,347.5C 296.748,346.96 297.915,346.293 299,345.5C 299.747,341.074 302.247,338.907 306.5,339C 307.737,343.446 308.903,347.946 310,352.5C 311.734,353.249 313.567,353.749 315.5,354C 313.359,356.633 310.692,358.133 307.5,358.5C 306.167,358.5 304.833,358.5 303.5,358.5C 301.611,357.678 299.611,356.845 297.5,356C 299.5,355.167 301.5,354.333 303.5,353.5C 300.057,354.066 297.057,352.9 294.5,350C 294.833,349.667 295.167,349.333 295.5,349C 294.128,348.598 292.795,348.098 291.5,347.5C 290.396,348.631 290.729,349.465 292.5,350C 291.391,350.638 290.225,351.138 289,351.5C 281.456,348.864 273.956,348.864 266.5,351.5C 262.719,349.922 258.719,348.756 254.5,348C 255.731,346.817 255.731,345.651 254.5,344.5C 252.709,343.076 250.875,341.742 249,340.5C 248.333,341.167 247.667,341.833 247,342.5C 242.094,335.449 241.427,328.116 245,320.5C 248.157,323.791 248.323,327.291 245.5,331C 245.833,331.333 246.167,331.667 246.5,332C 245.643,332.689 244.977,333.522 244.5,334.5C 246.045,335.452 247.712,335.785 249.5,335.5C 248.903,329.666 251.57,326.999 257.5,327.5 Z"/></g>
<g><path style="opacity:1" fill="#5d7f5c" d="M 303.5,358.5 C 296.876,359.386 290.209,360.052 283.5,360.5C 275.828,360.194 268.162,359.861 260.5,359.5C 254.347,358.672 248.013,358.172 241.5,358C 250.415,357.217 259.081,355.55 267.5,353C 266.944,352.617 266.611,352.117 266.5,351.5C 273.956,348.864 281.456,348.864 289,351.5C 290.225,351.138 291.391,350.638 292.5,350C 290.729,349.465 290.396,348.631 291.5,347.5C 292.795,348.098 294.128,348.598 295.5,349C 295.167,349.333 294.833,349.667 294.5,350C 297.057,352.9 300.057,354.066 303.5,353.5C 301.5,354.333 299.5,355.167 297.5,356C 299.611,356.845 301.611,357.678 303.5,358.5 Z"/></g>
<g><path style="opacity:1" fill="#556c78" d="M 120.5,324.5 C 122.5,324.5 124.5,324.5 126.5,324.5C 126.875,343.552 127.875,362.552 129.5,381.5C 126.762,377.635 124.762,373.301 123.5,368.5C 124.224,354.17 124.557,339.836 124.5,325.5C 122.901,325.768 121.568,325.434 120.5,324.5 Z"/></g>
<g><path style="opacity:1" fill="#121921" d="M 360.5,244.5 C 360.833,244.5 361.167,244.5 361.5,244.5C 361.784,289.179 361.784,333.846 361.5,378.5C 360.502,348.338 360.169,318.005 360.5,287.5C 360.5,273.167 360.5,258.833 360.5,244.5 Z"/></g>
<g><path style="opacity:1" fill="#243327" d="M 179.5,334.5 C 181.822,335.802 183.155,337.802 183.5,340.5C 183.334,345.511 183.501,350.511 184,355.5C 186.093,360.116 189.593,362.449 194.5,362.5C 192.712,363.622 190.712,363.789 188.5,363C 186.667,361.167 184.833,359.333 183,357.5C 181.788,350.913 181.121,344.246 181,337.5C 179.961,336.756 179.461,335.756 179.5,334.5 Z"/></g>
<g><path style="opacity:1" fill="#191f18" d="M 340.5,277.5 C 341.832,288.313 342.499,299.479 342.5,311C 342.333,322.167 342.167,333.333 342,344.5C 341.824,347.882 341.324,351.215 340.5,354.5C 338.327,357.172 335.827,359.506 333,361.5C 332.517,362.448 332.351,363.448 332.5,364.5C 328.215,365.295 323.881,365.628 319.5,365.5C 322.675,364.571 326.009,363.738 329.5,363C 331.439,361.568 332.772,359.735 333.5,357.5C 336.292,357.548 338.125,356.215 339,353.5C 341.167,328.163 341.667,302.83 340.5,277.5 Z"/></g>
<g><path style="opacity:1" fill="#576a4a" d="M 214.5,357.5 C 217.059,357.198 219.393,357.532 221.5,358.5C 235.469,359.957 249.469,360.957 263.5,361.5C 238.74,362.018 214.074,361.018 189.5,358.5C 189.196,357.85 188.863,357.183 188.5,356.5C 190.738,353.567 191.738,353.901 191.5,357.5C 199.328,356.661 206.994,356.661 214.5,357.5 Z"/></g>
<g><path style="opacity:1" fill="#47543c" d="M 333.5,357.5 C 332.772,359.735 331.439,361.568 329.5,363C 326.009,363.738 322.675,364.571 319.5,365.5C 316.15,365.665 312.817,365.498 309.5,365C 307.509,364.626 305.842,363.793 304.5,362.5C 308.154,362.942 311.821,363.276 315.5,363.5C 317.857,363.663 320.19,363.497 322.5,363C 324.146,361.179 326.146,360.013 328.5,359.5C 330.05,358.559 331.716,357.893 333.5,357.5 Z"/></g>
<g><path style="opacity:1" fill="#404e38" d="M 183.5,340.5 C 184.117,340.611 184.617,340.944 185,341.5C 185.159,346.916 185.826,352.25 187,357.5C 187.838,358.999 188.671,359.332 189.5,358.5C 214.074,361.018 238.74,362.018 263.5,361.5C 266.385,361.194 269.052,361.527 271.5,362.5C 245.833,362.5 220.167,362.5 194.5,362.5C 189.593,362.449 186.093,360.116 184,355.5C 183.501,350.511 183.334,345.511 183.5,340.5 Z"/></g>
<g><path style="opacity:1" fill="#566f46" d="M 221.5,358.5 C 225.5,358.5 229.5,358.5 233.5,358.5C 242.447,359.444 251.447,359.778 260.5,359.5C 268.162,359.861 275.828,360.194 283.5,360.5C 290.209,360.052 296.876,359.386 303.5,358.5C 304.833,358.5 306.167,358.5 307.5,358.5C 309.667,359.641 312,360.641 314.5,361.5C 314.863,362.183 315.196,362.85 315.5,363.5C 311.821,363.276 308.154,362.942 304.5,362.5C 304.167,362.5 303.833,362.5 303.5,362.5C 293.022,362.262 282.355,362.262 271.5,362.5C 269.052,361.527 266.385,361.194 263.5,361.5C 249.469,360.957 235.469,359.957 221.5,358.5 Z"/></g>
<g><path style="opacity:1" fill="#182314" d="M 303.5,362.5 C 292.749,364.49 282.082,364.49 271.5,362.5C 282.355,362.262 293.022,362.262 303.5,362.5 Z"/></g>
<g><path style="opacity:1" fill="#0d141d" d="M 361.5,379.5 C 362.833,381.167 364.167,382.833 365.5,384.5C 366.076,388.488 367.409,392.155 369.5,395.5C 369.5,396.167 369.5,396.833 369.5,397.5C 369.5,399.167 369.5,400.833 369.5,402.5C 368.167,402.5 366.833,402.5 365.5,402.5C 365.5,405.5 365.5,408.5 365.5,411.5C 364.341,413.25 362.674,414.25 360.5,414.5C 363.48,410.104 364.813,405.104 364.5,399.5C 365.5,399.5 366.5,399.5 367.5,399.5C 364.548,393.296 362.548,386.629 361.5,379.5 Z"/></g>
<g><path style="opacity:1" fill="#36321a" d="M 239.5,399.5 C 239.5,400.833 239.5,402.167 239.5,403.5C 241.5,403.5 243.5,403.5 245.5,403.5C 245.5,403.833 245.5,404.167 245.5,404.5C 242.813,404.664 240.146,404.497 237.5,404C 235.944,401.499 236.611,399.999 239.5,399.5 Z"/></g>
<g><path style="opacity:1" fill="#78693c" d="M 239.5,399.5 C 254.5,399.5 269.5,399.5 284.5,399.5C 288.167,399.5 291.833,399.5 295.5,399.5C 295.863,401.911 294.863,403.411 292.5,404C 283.506,404.5 274.506,404.666 265.5,404.5C 264.833,404.5 264.167,404.5 263.5,404.5C 257.69,403.51 251.69,403.177 245.5,403.5C 243.5,403.5 241.5,403.5 239.5,403.5C 239.5,402.167 239.5,400.833 239.5,399.5 Z"/></g>
<g><path style="opacity:1" fill="#534d26" d="M 245.5,403.5 C 251.69,403.177 257.69,403.51 263.5,404.5C 257.349,405.664 251.349,405.664 245.5,404.5C 245.5,404.167 245.5,403.833 245.5,403.5 Z"/></g>
<g><path style="opacity:1" fill="#423f27" d="M 284.5,399.5 C 288.634,398.515 292.968,398.182 297.5,398.5C 297.556,401.561 296.222,403.728 293.5,405C 283.991,405.824 274.657,405.658 265.5,404.5C 274.506,404.666 283.506,404.5 292.5,404C 294.863,403.411 295.863,401.911 295.5,399.5C 291.833,399.5 288.167,399.5 284.5,399.5 Z"/></g>
<g><path style="opacity:1" fill="#5c7e8d" d="M 103.5,268.5 C 105.219,273.242 106.386,278.242 107,283.5C 107.333,292.833 107.667,302.167 108,311.5C 109.323,318.655 113.489,322.988 120.5,324.5C 121.568,325.434 122.901,325.768 124.5,325.5C 124.557,339.836 124.224,354.17 123.5,368.5C 124.762,373.301 126.762,377.635 129.5,381.5C 129.963,384.482 130.296,387.482 130.5,390.5C 129.194,430.824 128.194,471.158 127.5,511.5C 126.5,511.5 125.5,511.5 124.5,511.5C 123.829,510.153 123.829,508.986 124.5,508C 123.484,507.481 122.818,506.647 122.5,505.5C 123.44,502.868 123.607,500.202 123,497.5C 122.111,498.888 121.611,498.722 121.5,497C 123.064,495.395 123.564,493.562 123,491.5C 122.667,492.5 122.333,493.5 122,494.5C 121.667,490.833 121.333,487.167 121,483.5C 120.667,484.167 120.333,484.833 120,485.5C 119.5,478.174 119.334,470.841 119.5,463.5C 118.448,463.649 117.448,463.483 116.5,463C 120.453,460.356 120.286,457.856 116,455.5C 115.833,454.167 115.667,452.833 115.5,451.5C 114.892,448.019 116.225,446.019 119.5,445.5C 118.004,435.529 116.67,425.529 115.5,415.5C 114.167,415.5 112.833,415.5 111.5,415.5C 111.5,418.167 111.5,420.833 111.5,423.5C 107.856,423.292 105.689,421.292 105,417.5C 103.525,405.333 103.025,393.166 103.5,381C 104.199,376.474 106.866,374.641 111.5,375.5C 112.623,362.152 112.956,348.819 112.5,335.5C 111.668,344.148 111.168,352.814 111,361.5C 108.314,360.324 105.981,358.657 104,356.5C 103.455,353.137 102.122,350.137 100,347.5C 99.5012,343.514 99.3345,339.514 99.5,335.5C 100.833,335.5 102.167,335.5 103.5,335.5C 103.727,329.298 103.394,323.131 102.5,317C 102.354,314.812 103.354,313.479 105.5,313C 104.359,312.259 104.359,311.425 105.5,310.5C 103.656,296.532 102.989,282.532 103.5,268.5 Z"/></g>
<g><path style="opacity:1" fill="#526a78" d="M 369.5,397.5 C 370.972,399.117 371.639,401.117 371.5,403.5C 368.932,408.872 367.599,414.539 367.5,420.5C 362.882,419.949 360.049,421.949 359,426.5C 355.295,428.199 353.128,431.033 352.5,435C 347.705,437.033 342.705,437.866 337.5,437.5C 344.979,437.541 349.812,433.875 352,426.5C 356.61,424.726 359.11,421.393 359.5,416.5C 361.5,416.5 363.5,416.5 365.5,416.5C 365.5,414.833 365.5,413.167 365.5,411.5C 365.5,408.5 365.5,405.5 365.5,402.5C 366.833,402.5 368.167,402.5 369.5,402.5C 369.5,400.833 369.5,399.167 369.5,397.5 Z"/></g>
<g><path style="opacity:1" fill="#5b7c8b" d="M 369.5,395.5 C 370.496,395.414 371.329,395.748 372,396.5C 372.183,399.365 372.683,402.031 373.5,404.5C 373.918,405.222 374.584,405.722 375.5,406C 370.634,409.231 368.634,413.731 369.5,419.5C 371.5,419.5 373.5,419.5 375.5,419.5C 376.521,424.706 374.855,428.539 370.5,431C 370.957,431.414 371.291,431.914 371.5,432.5C 370.311,433.429 368.978,433.762 367.5,433.5C 367.525,438.438 366.525,443.104 364.5,447.5C 354.202,450.657 343.869,453.657 333.5,456.5C 331.821,457.782 329.987,458.782 328,459.5C 327.667,459.167 327.333,458.833 327,458.5C 323.161,459.843 319.661,461.843 316.5,464.5C 313.608,469.364 309.441,471.364 304,470.5C 293.376,472.962 282.543,474.129 271.5,474C 270.146,475.294 268.812,475.46 267.5,474.5C 266.276,475.766 264.943,476.933 263.5,478C 263.833,478.333 264.167,478.667 264.5,479C 260.531,478.683 256.531,479.183 252.5,480.5C 252.709,481.086 253.043,481.586 253.5,482C 251.844,484.197 250.678,486.697 250,489.5C 248.89,487.963 247.39,487.297 245.5,487.5C 244.984,495.518 244.65,503.518 244.5,511.5C 243.833,511.5 243.167,511.5 242.5,511.5C 242.666,501.494 242.5,491.494 242,481.5C 241.689,479.444 241.189,477.444 240.5,475.5C 246.073,475.444 251.74,475.277 257.5,475C 261.157,473.178 264.824,471.678 268.5,470.5C 274.842,470.666 281.175,470.5 287.5,470C 294.726,468.05 301.726,465.55 308.5,462.5C 309.873,462.657 311.207,462.49 312.5,462C 317.64,459.043 322.473,455.543 327,451.5C 327.49,450.207 327.657,448.873 327.5,447.5C 329.144,447.714 330.644,447.38 332,446.5C 332.498,443.518 332.665,440.518 332.5,437.5C 334.167,437.5 335.833,437.5 337.5,437.5C 342.705,437.866 347.705,437.033 352.5,435C 353.128,431.033 355.295,428.199 359,426.5C 360.049,421.949 362.882,419.949 367.5,420.5C 367.599,414.539 368.932,408.872 371.5,403.5C 371.639,401.117 370.972,399.117 369.5,397.5C 369.5,396.833 369.5,396.167 369.5,395.5 Z"/></g>
<g><path style="opacity:1" fill="#05180c" d="M 234.5,504.5 C 235.973,505.072 237.307,505.905 238.5,507C 235.215,507.824 231.882,508.324 228.5,508.5C 205.135,507.875 181.802,507.208 158.5,506.5C 155.462,507.731 152.462,507.564 149.5,506C 148.748,504.242 147.914,502.075 147,499.5C 144.192,496.502 142.859,497.169 143,501.5C 142.439,499.275 141.439,497.275 140,495.5C 138.423,483.783 136.923,472.116 135.5,460.5C 136.302,459.048 136.802,457.382 137,455.5C 137.333,455.833 137.667,456.167 138,456.5C 138.198,449.297 139.198,448.964 141,455.5C 141.333,448.833 141.667,442.167 142,435.5C 142.333,435.833 142.667,436.167 143,436.5C 143.494,434.866 143.66,433.199 143.5,431.5C 144.5,431.5 145.5,431.5 146.5,431.5C 146.652,426.164 149.318,423.164 154.5,422.5C 152.322,419.823 149.989,417.323 147.5,415C 148.451,414.282 148.617,413.449 148,412.5C 143.211,412.379 141.544,410.046 143,405.5C 144.44,407.046 146.273,407.879 148.5,408C 151.431,409.924 154.097,412.257 156.5,415C 157.448,415.483 158.448,415.649 159.5,415.5C 159.5,416.833 159.5,418.167 159.5,419.5C 160.552,419.351 161.552,419.517 162.5,420C 161.167,421.667 161.167,423.333 162.5,425C 164.433,425.251 166.266,425.751 168,426.5C 169.587,425.273 170.921,425.606 172,427.5C 172.507,428.996 172.007,430.163 170.5,431C 174.152,431.499 177.818,431.665 181.5,431.5C 181.292,433.92 181.626,436.253 182.5,438.5C 180.123,440.252 179.956,442.252 182,444.5C 184.654,446.714 187.487,448.714 190.5,450.5C 191.167,452.167 191.833,453.833 192.5,455.5C 193.281,454.271 193.781,452.938 194,451.5C 195.399,452.227 196.899,452.727 198.5,453C 199.126,453.75 199.626,454.584 200,455.5C 200.333,455.167 200.667,454.833 201,454.5C 202.302,457.375 203.135,460.375 203.5,463.5C 209.733,466.532 215.9,469.865 222,473.5C 222.945,473.095 223.612,472.428 224,471.5C 224.498,473.527 224.331,475.527 223.5,477.5C 225.458,481.663 226.958,485.996 228,490.5C 229.899,487.124 230.732,483.457 230.5,479.5C 229.448,479.649 228.448,479.483 227.5,479C 230.038,478.133 232.038,478.799 233.5,481C 233.984,485.316 234.151,489.816 234,494.5C 230.589,495.293 227.089,495.793 223.5,496C 226.095,496.226 228.595,496.726 231,497.5C 232.793,496.619 233.46,497.286 233,499.5C 229.616,502.321 226.45,502.154 223.5,499C 221.833,498.333 220.167,498.333 218.5,499C 222.648,503.704 227.981,505.537 234.5,504.5 Z"/></g>
<g><path style="opacity:1" fill="#0a222a" d="M 130.5,390.5 C 131.167,395.5 131.833,400.5 132.5,405.5C 133.095,409.283 133.428,413.117 133.5,417C 131.804,432.44 131.137,447.94 131.5,463.5C 130.97,477.143 130.637,490.81 130.5,504.5C 131.023,507.1 132.023,509.434 133.5,511.5C 131.5,511.5 129.5,511.5 127.5,511.5C 128.194,471.158 129.194,430.824 130.5,390.5 Z"/></g>
<g><path style="opacity:1" fill="#051916" d="M 133.5,404.5 C 135.048,408.034 135.714,411.867 135.5,416C 134.447,424.181 134.447,432.348 135.5,440.5C 135.331,442.839 134.664,445.006 133.5,447C 134.471,448.204 135.471,448.704 136.5,448.5C 134.579,452.415 134.245,456.415 135.5,460.5C 136.923,472.116 138.423,483.783 140,495.5C 141.439,497.275 142.439,499.275 143,501.5C 142.859,497.169 144.192,496.502 147,499.5C 147.914,502.075 148.748,504.242 149.5,506C 152.462,507.564 155.462,507.731 158.5,506.5C 181.802,507.208 205.135,507.875 228.5,508.5C 231.882,508.324 235.215,507.824 238.5,507C 237.307,505.905 235.973,505.072 234.5,504.5C 234.389,503.883 234.056,503.383 233.5,503C 235.589,501.829 237.589,500.496 239.5,499C 238.333,498.5 237.5,497.667 237,496.5C 236.501,490.843 236.334,485.176 236.5,479.5C 237.649,479.791 238.316,480.624 238.5,482C 239.479,485.102 240.145,488.269 240.5,491.5C 239.4,494.385 239.4,497.218 240.5,500C 240.325,501.658 239.658,502.991 238.5,504C 239.406,505.699 239.739,507.533 239.5,509.5C 215.709,510.578 191.709,510.745 167.5,510C 156.105,509.661 144.771,508.661 133.5,507C 133.673,498.879 133.007,490.712 131.5,482.5C 132.167,481.833 132.833,481.167 133.5,480.5C 131.612,475.062 130.946,469.395 131.5,463.5C 131.137,447.94 131.804,432.44 133.5,417C 133.428,413.117 133.095,409.283 132.5,405.5C 132.5,404.833 132.833,404.5 133.5,404.5 Z"/></g>
<g><path style="opacity:1" fill="#04160e" d="M 223.5,463.5 C 225.5,465.5 227.5,467.5 229.5,469.5C 229.343,470.873 229.51,472.207 230,473.5C 232.744,475.085 234.911,477.085 236.5,479.5C 236.334,485.176 236.501,490.843 237,496.5C 237.5,497.667 238.333,498.5 239.5,499C 237.589,500.496 235.589,501.829 233.5,503C 234.056,503.383 234.389,503.883 234.5,504.5C 227.981,505.537 222.648,503.704 218.5,499C 220.167,498.333 221.833,498.333 223.5,499C 226.45,502.154 229.616,502.321 233,499.5C 233.46,497.286 232.793,496.619 231,497.5C 228.595,496.726 226.095,496.226 223.5,496C 227.089,495.793 230.589,495.293 234,494.5C 234.151,489.816 233.984,485.316 233.5,481C 232.038,478.799 230.038,478.133 227.5,479C 228.448,479.483 229.448,479.649 230.5,479.5C 230.732,483.457 229.899,487.124 228,490.5C 226.958,485.996 225.458,481.663 223.5,477.5C 224.331,475.527 224.498,473.527 224,471.5C 223.612,472.428 222.945,473.095 222,473.5C 215.9,469.865 209.733,466.532 203.5,463.5C 203.135,460.375 202.302,457.375 201,454.5C 200.667,454.833 200.333,455.167 200,455.5C 199.626,454.584 199.126,453.75 198.5,453C 196.899,452.727 195.399,452.227 194,451.5C 193.781,452.938 193.281,454.271 192.5,455.5C 191.833,453.833 191.167,452.167 190.5,450.5C 187.487,448.714 184.654,446.714 182,444.5C 179.956,442.252 180.123,440.252 182.5,438.5C 181.626,436.253 181.292,433.92 181.5,431.5C 177.818,431.665 174.152,431.499 170.5,431C 172.007,430.163 172.507,428.996 172,427.5C 170.921,425.606 169.587,425.273 168,426.5C 166.266,425.751 164.433,425.251 162.5,425C 161.167,423.333 161.167,421.667 162.5,420C 161.552,419.517 160.552,419.351 159.5,419.5C 159.5,418.167 159.5,416.833 159.5,415.5C 158.448,415.649 157.448,415.483 156.5,415C 154.097,412.257 151.431,409.924 148.5,408C 146.273,407.879 144.44,407.046 143,405.5C 141.544,410.046 143.211,412.379 148,412.5C 148.617,413.449 148.451,414.282 147.5,415C 149.989,417.323 152.322,419.823 154.5,422.5C 149.318,423.164 146.652,426.164 146.5,431.5C 145.5,431.5 144.5,431.5 143.5,431.5C 143.66,433.199 143.494,434.866 143,436.5C 142.667,436.167 142.333,435.833 142,435.5C 141.667,442.167 141.333,448.833 141,455.5C 139.198,448.964 138.198,449.297 138,456.5C 137.667,456.167 137.333,455.833 137,455.5C 136.802,457.382 136.302,459.048 135.5,460.5C 134.245,456.415 134.579,452.415 136.5,448.5C 135.471,448.704 134.471,448.204 133.5,447C 134.664,445.006 135.331,442.839 135.5,440.5C 134.447,432.348 134.447,424.181 135.5,416C 135.714,411.867 135.048,408.034 133.5,404.5C 133.5,403.833 133.5,403.167 133.5,402.5C 135.716,403.203 137.549,404.536 139,406.5C 140.574,405.016 141.907,403.349 143,401.5C 150.44,406.943 157.94,411.943 165.5,416.5C 167.494,420.824 170.827,422.491 175.5,421.5C 175.281,422.675 175.614,423.675 176.5,424.5C 178.642,425.601 180.808,426.601 183,427.5C 185.805,432.91 188.972,438.077 192.5,443C 197.202,445.37 201.202,448.704 204.5,453C 207.915,453.406 210.582,455.072 212.5,458C 216.231,459.865 219.897,461.699 223.5,463.5 Z"/></g>
<g><path style="opacity:1" fill="#34424b" d="M 365.5,411.5 C 365.5,413.167 365.5,414.833 365.5,416.5C 363.5,416.5 361.5,416.5 359.5,416.5C 359.11,421.393 356.61,424.726 352,426.5C 349.812,433.875 344.979,437.541 337.5,437.5C 335.833,437.5 334.167,437.5 332.5,437.5C 334.535,436.06 336.702,434.727 339,433.5C 340.092,434.296 341.259,434.963 342.5,435.5C 347.933,432.983 350.6,428.65 350.5,422.5C 352.199,422.66 353.866,422.494 355.5,422C 356.818,419.176 358.485,416.676 360.5,414.5C 362.674,414.25 364.341,413.25 365.5,411.5 Z"/></g>
<g><path style="opacity:1" fill="#060e07" d="M 147.5,400.5 C 149.738,399.463 152.071,399.297 154.5,400C 158.844,402.171 162.844,404.837 166.5,408C 168.392,408.973 170.392,409.64 172.5,410C 177.888,418.725 184.721,426.225 193,432.5C 200.13,444.464 209.964,453.464 222.5,459.5C 223.429,460.689 223.762,462.022 223.5,463.5C 219.897,461.699 216.231,459.865 212.5,458C 210.582,455.072 207.915,453.406 204.5,453C 201.202,448.704 197.202,445.37 192.5,443C 188.972,438.077 185.805,432.91 183,427.5C 180.808,426.601 178.642,425.601 176.5,424.5C 175.614,423.675 175.281,422.675 175.5,421.5C 170.827,422.491 167.494,420.824 165.5,416.5C 157.94,411.943 150.44,406.943 143,401.5C 141.907,403.349 140.574,405.016 139,406.5C 137.549,404.536 135.716,403.203 133.5,402.5C 132.596,401.791 132.263,400.791 132.5,399.5C 133.873,399.343 135.207,399.51 136.5,400C 139.039,402.941 140.372,402.774 140.5,399.5C 142.6,399.477 144.433,400.144 146,401.5C 146.765,401.43 147.265,401.097 147.5,400.5 Z"/></g>
<g><path style="opacity:1" fill="#051a0b" d="M 169.5,442.5 C 170.965,443.406 171.965,444.739 172.5,446.5C 173.325,447.386 174.325,447.719 175.5,447.5C 175.5,446.5 175.5,445.5 175.5,444.5C 177.681,444.284 179.347,445.117 180.5,447C 180.167,447.333 179.833,447.667 179.5,448C 182.951,454.475 188.118,458.975 195,461.5C 197.5,467.167 200,472.833 202.5,478.5C 204.045,479.452 205.712,479.785 207.5,479.5C 207.5,484.833 207.5,490.167 207.5,495.5C 196.833,495.5 186.167,495.5 175.5,495.5C 175.5,494.5 175.5,493.5 175.5,492.5C 170.521,490.54 165.521,488.54 160.5,486.5C 159.692,488.423 159.192,490.423 159,492.5C 158.333,491.833 157.667,491.167 157,490.5C 154.482,484.711 152.649,478.711 151.5,472.5C 154.086,471.52 156.753,471.187 159.5,471.5C 159.5,466.167 159.5,460.833 159.5,455.5C 162.157,455.838 164.49,455.171 166.5,453.5C 167.043,449.669 168.043,446.002 169.5,442.5 Z"/></g>
<g><path style="opacity:1" fill="#04070e" d="M 320.5,452.5 C 317.242,456.786 313.242,460.119 308.5,462.5C 301.726,465.55 294.726,468.05 287.5,470C 281.175,470.5 274.842,470.666 268.5,470.5C 264.164,470.778 259.997,471.778 256,473.5C 252.474,472.214 248.974,472.214 245.5,473.5C 244.253,471.822 242.586,470.489 240.5,469.5C 239.167,468.5 239.167,467.5 240.5,466.5C 246.006,467.781 251.339,469.447 256.5,471.5C 259.49,470.674 262.49,469.841 265.5,469C 264.833,468.667 264.167,468.333 263.5,468C 265.224,467.552 265.891,466.718 265.5,465.5C 272.009,466.361 278.676,465.695 285.5,463.5C 286.938,463.719 288.271,464.219 289.5,465C 288.833,465.333 288.167,465.667 287.5,466C 288.833,466.667 290.167,466.667 291.5,466C 290.304,465.346 290.304,464.846 291.5,464.5C 292.293,464.931 293.127,465.265 294,465.5C 297.779,463.017 301.946,461.517 306.5,461C 305.833,460.667 305.167,460.333 304.5,460C 306.269,458.981 307.936,458.814 309.5,459.5C 310.85,458.05 312.516,457.383 314.5,457.5C 314.583,453.057 316.583,451.391 320.5,452.5 Z"/></g>
<g><path style="opacity:1" fill="#4f626a" d="M 332.5,437.5 C 332.665,440.518 332.498,443.518 332,446.5C 330.644,447.38 329.144,447.714 327.5,447.5C 327.657,448.873 327.49,450.207 327,451.5C 322.473,455.543 317.64,459.043 312.5,462C 311.207,462.49 309.873,462.657 308.5,462.5C 313.242,460.119 317.242,456.786 320.5,452.5C 323.112,450.948 324.445,448.614 324.5,445.5C 326.833,445.5 329.167,445.5 331.5,445.5C 331.194,442.615 331.527,439.948 332.5,437.5 Z"/></g>
<g><path style="opacity:1" fill="#06191a" d="M 131.5,463.5 C 130.946,469.395 131.612,475.062 133.5,480.5C 132.833,481.167 132.167,481.833 131.5,482.5C 133.007,490.712 133.673,498.879 133.5,507C 144.771,508.661 156.105,509.661 167.5,510C 191.709,510.745 215.709,510.578 239.5,509.5C 239.739,507.533 239.406,505.699 238.5,504C 239.658,502.991 240.325,501.658 240.5,500C 239.4,497.218 239.4,494.385 240.5,491.5C 240.145,488.269 239.479,485.102 238.5,482C 238.316,480.624 237.649,479.791 236.5,479.5C 234.911,477.085 232.744,475.085 230,473.5C 229.51,472.207 229.343,470.873 229.5,469.5C 232.196,471.355 235.029,473.021 238,474.5C 240.434,473.678 242.934,473.344 245.5,473.5C 248.974,472.214 252.474,472.214 256,473.5C 259.997,471.778 264.164,470.778 268.5,470.5C 264.824,471.678 261.157,473.178 257.5,475C 251.74,475.277 246.073,475.444 240.5,475.5C 241.189,477.444 241.689,479.444 242,481.5C 242.5,491.494 242.666,501.494 242.5,511.5C 206.167,511.5 169.833,511.5 133.5,511.5C 132.023,509.434 131.023,507.1 130.5,504.5C 130.637,490.81 130.97,477.143 131.5,463.5 Z"/></g>
</svg>
