<?xml version="1.0" encoding="UTF-8"?>
<!DOCTYPE svg PUBLIC "-//W3C//DTD SVG 1.1//EN" "http://www.w3.org/Graphics/SVG/1.1/DTD/svg11.dtd">
<svg xmlns="http://www.w3.org/2000/svg" version="1.1" width="512px" height="512px" style="shape-rendering:geometricPrecision; text-rendering:geometricPrecision; image-rendering:optimizeQuality; fill-rule:evenodd; clip-rule:evenodd" xmlns:xlink="http://www.w3.org/1999/xlink">
<g><path style="opacity:1" fill="#648596" d="M -0.5,-0.5 C 58.5,-0.5 117.5,-0.5 176.5,-0.5C 179.917,3.09556 183.25,6.9289 186.5,11C 183.853,14.7563 180.187,16.2563 175.5,15.5C 175.662,17.5273 175.495,19.5273 175,21.5C 170.136,23.1907 167.303,26.524 166.5,31.5C 164.396,31.2011 162.396,31.5344 160.5,32.5C 160.667,32.8333 160.833,33.1667 161,33.5C 165.667,38.1667 170.333,42.8333 175,47.5C 175.49,46.2068 175.657,44.8734 175.5,43.5C 180.833,43.5 186.167,43.5 191.5,43.5C 191.5,44.8333 191.5,46.1667 191.5,47.5C 194.167,47.5 196.833,47.5 199.5,47.5C 198.826,41.5074 201.493,38.8407 207.5,39.5C 213.507,38.8407 216.174,41.5074 215.5,47.5C 222.327,47.9916 228.993,47.325 235.5,45.5C 238.44,46.3035 241.107,47.6369 243.5,49.5C 244.5,48.8333 245.5,48.1667 246.5,47.5C 247.749,49.4755 249.249,49.8088 251,48.5C 251.333,46.8333 251.667,45.1667 252,43.5C 253.011,42.6634 254.178,42.33 255.5,42.5C 255.5,41.5 255.5,40.5 255.5,39.5C 260.833,39.5 266.167,39.5 271.5,39.5C 271.5,36.8333 271.5,34.1667 271.5,31.5C 274.167,31.5 276.833,31.5 279.5,31.5C 279.34,33.1992 279.506,34.8659 280,36.5C 282.237,38.2036 284.737,39.2036 287.5,39.5C 287.5,35.5 287.5,31.5 287.5,27.5C 292.833,27.5 298.167,27.5 303.5,27.5C 303.5,28.8333 303.5,30.1667 303.5,31.5C 306.5,31.5 309.5,31.5 312.5,31.5C 311.697,36.476 308.864,39.8093 304,41.5C 303.427,44.8439 302.594,47.6772 301.5,50C 297.049,51.9736 292.382,52.807 287.5,52.5C 287.5,53.8333 287.5,55.1667 287.5,56.5C 292.833,56.5 298.167,56.5 303.5,56.5C 303.631,57.2389 303.464,57.9056 303,58.5C 293.038,57.8026 283.038,57.4693 273,57.5C 261.919,59.0669 250.752,59.9002 239.5,60C 244.833,60.3333 250.167,60.6667 255.5,61C 247.479,61.1684 239.479,61.6684 231.5,62.5C 230,64.1667 228.5,65.8333 227,67.5C 225.989,66.6634 224.822,66.33 223.5,66.5C 223.5,67.5 223.5,68.5 223.5,69.5C 221.897,69.3118 220.563,69.8118 219.5,71C 209.167,71.3333 198.833,71.6667 188.5,72C 188.833,72.3333 189.167,72.6667 189.5,73C 177.473,73.1313 165.473,72.4647 153.5,71C 151.956,70.7104 150.623,70.0437 149.5,69C 152.98,68.6988 156.313,67.8655 159.5,66.5C 154.162,65.3213 148.828,65.3213 143.5,66.5C 143.5,67.5 143.5,68.5 143.5,69.5C 139.493,69.8257 135.493,70.159 131.5,70.5C 129.392,70.1401 127.392,69.4734 125.5,68.5C 121.5,69.8333 117.5,69.8333 113.5,68.5C 106.093,71.3605 98.4262,72.1939 90.5,71C 94.8333,70.6667 99.1667,70.3333 103.5,70C 95.5,69.3333 87.5,69.3333 79.5,70C 82.1667,70.3333 84.8333,70.6667 87.5,71C 83.1794,71.499 78.8461,71.6657 74.5,71.5C 74.5,72.5 74.5,73.5 74.5,74.5C 73.0695,74.5792 71.7362,74.2458 70.5,73.5C 68.1376,75.3625 65.4709,76.5291 62.5,77C 60.3699,78.8323 58.2033,80.6657 56,82.5C 54.602,86.8495 52.7687,91.0161 50.5,95C 51.0585,95.7247 51.3918,96.5581 51.5,97.5C 50.6596,102.734 48.9929,107.567 46.5,112C 47.751,114.953 47.751,117.953 46.5,121C 46.6667,121.5 46.8333,122 47,122.5C 49.2897,121.59 50.4563,122.59 50.5,125.5C 49.2126,131.014 47.8792,136.514 46.5,142C 48.6377,145.195 48.971,148.529 47.5,152C 50.409,156.796 50.7423,161.629 48.5,166.5C 49.8163,180.17 49.6496,193.837 48,207.5C 47.6667,202.833 47.3333,198.167 47,193.5C 44.8296,196.728 44.3296,200.062 45.5,203.5C 45.2132,205.486 44.5465,207.32 43.5,209C 44.6886,210.895 45.6886,212.895 46.5,215C 45.2068,215.49 43.8734,215.657 42.5,215.5C 44.6076,224.634 45.9409,233.967 46.5,243.5C 46.3298,245.529 45.9965,247.529 45.5,249.5C 45.8333,250.167 46.1667,250.833 46.5,251.5C 47.1667,247.5 47.8333,243.5 48.5,239.5C 48.8333,240.667 49.1667,241.833 49.5,243C 48.7625,247.137 48.4292,251.303 48.5,255.5C 50.451,255.227 51.951,255.893 53,257.5C 53.2734,259.101 53.7734,260.601 54.5,262C 53.552,262.483 52.552,262.649 51.5,262.5C 51.5,264.833 51.5,267.167 51.5,269.5C 53.8056,269.007 56.139,268.674 58.5,268.5C 57.4301,264.982 57.2635,261.648 58,258.5C 58.8333,259.333 59.6667,260.167 60.5,261C 64.0557,261.131 67.0557,262.298 69.5,264.5C 72.1356,267.31 74.6356,270.31 77,273.5C 85.3333,288.5 93.6667,303.5 102,318.5C 104.733,321.062 107.233,323.729 109.5,326.5C 114.325,332.135 119.159,337.802 124,343.5C 126.234,348.64 127.901,353.973 129,359.5C 130.11,361.037 131.61,361.703 133.5,361.5C 133.5,354.5 133.5,347.5 133.5,340.5C 137.042,340.813 140.375,340.479 143.5,339.5C 143.328,338.508 143.662,337.842 144.5,337.5C 143.957,365.869 143.29,394.202 142.5,422.5C 144.086,452.181 144.752,481.848 144.5,511.5C 96.1667,511.5 47.8333,511.5 -0.5,511.5C -0.5,340.833 -0.5,170.167 -0.5,-0.5 Z"/></g>
<g><path style="opacity:1" fill="#648596" d="M 176.5,-0.5 C 288.167,-0.5 399.833,-0.5 511.5,-0.5C 511.5,170.167 511.5,340.833 511.5,511.5C 426.167,511.5 340.833,511.5 255.5,511.5C 254.411,509.883 252.744,509.05 250.5,509C 247.847,504.964 246.513,500.464 246.5,495.5C 247.833,495.5 249.167,495.5 250.5,495.5C 250.662,493.473 250.495,491.473 250,489.5C 249.08,489.07 248.247,488.736 247.5,488.5C 247.833,487.833 248.167,487.167 248.5,486.5C 247.873,483.298 247.206,480.131 246.5,477C 252.324,476.085 252.657,474.751 247.5,473C 248.833,472.667 250.167,472.333 251.5,472C 251.167,471.667 250.833,471.333 250.5,471C 252.433,470.749 254.266,470.249 256,469.5C 260.468,470.194 264.968,470.86 269.5,471.5C 276.987,470.817 284.487,470.15 292,469.5C 292.772,469.645 293.439,469.978 294,470.5C 298.691,468.396 303.524,466.73 308.5,465.5C 310.549,465.706 310.883,466.539 309.5,468C 307.721,467.021 306.055,467.354 304.5,469C 308.211,469.825 311.878,469.659 315.5,468.5C 315.291,467.914 314.957,467.414 314.5,467C 316.134,466.506 317.801,466.34 319.5,466.5C 319.714,464.856 319.38,463.356 318.5,462C 322.58,461.101 325.913,459.101 328.5,456C 330.568,455.313 332.568,455.48 334.5,456.5C 336.141,451.083 338.641,446.083 342,441.5C 343.441,443.305 343.608,445.305 342.5,447.5C 344.833,447.5 347.167,447.5 349.5,447.5C 350.167,444.833 350.833,442.167 351.5,439.5C 357.5,438.833 360.167,441.5 359.5,447.5C 362.167,447.5 364.833,447.5 367.5,447.5C 367.662,449.527 367.495,451.527 367,453.5C 364.863,454.479 363.029,455.812 361.5,457.5C 363.829,458.998 365.663,460.998 367,463.5C 367.497,460.854 367.664,458.187 367.5,455.5C 378.167,455.5 388.833,455.5 399.5,455.5C 399.334,450.821 399.501,446.155 400,441.5C 404.18,439.987 407.013,437.154 408.5,433C 407.566,427.215 407.232,421.382 407.5,415.5C 410.167,415.5 412.833,415.5 415.5,415.5C 414.38,410.942 416.047,408.109 420.5,407C 422.049,405.786 423.215,404.286 424,402.5C 423.762,398.891 423.595,395.225 423.5,391.5C 426.167,391.5 428.833,391.5 431.5,391.5C 431.5,388.833 431.5,386.167 431.5,383.5C 434.167,383.5 436.833,383.5 439.5,383.5C 439.5,372.833 439.5,362.167 439.5,351.5C 439.5,348.833 439.5,346.167 439.5,343.5C 435.154,343.666 430.821,343.499 426.5,343C 423.976,341.117 422.642,338.617 422.5,335.5C 425.5,335.5 428.5,335.5 431.5,335.5C 431.338,333.473 431.505,331.473 432,329.5C 437.554,328.448 440.387,325.115 440.5,319.5C 439.167,319.5 437.833,319.5 436.5,319.5C 436.64,317.876 435.973,316.71 434.5,316C 438.315,311.855 442.481,308.022 447,304.5C 447.498,301.518 447.665,298.518 447.5,295.5C 453.5,296.167 456.167,293.5 455.5,287.5C 452.833,287.5 450.167,287.5 447.5,287.5C 447.829,281.794 447.495,276.128 446.5,270.5C 436.219,271.476 425.886,271.809 415.5,271.5C 415.5,268.833 415.5,266.167 415.5,263.5C 417.591,263.682 419.591,263.348 421.5,262.5C 422.975,259.659 424.141,256.659 425,253.5C 425.75,252.874 426.584,252.374 427.5,252C 424.608,248.367 421.608,244.867 418.5,241.5C 419.414,235.541 419.747,229.541 419.5,223.5C 417.5,223.5 415.5,223.5 413.5,223.5C 414.109,227.005 412.942,229.672 410,231.5C 407.656,227.569 408.489,224.402 412.5,222C 411.833,220 411.167,218 410.5,216C 410.923,211.647 410.923,207.147 410.5,202.5C 410.301,195.667 409.301,189.167 407.5,183C 407.667,180.5 407.833,178 408,175.5C 410.614,173.261 411.114,170.595 409.5,167.5C 410.884,162.951 412.717,158.618 415,154.5C 414.9,147.36 416.067,140.527 418.5,134C 417.352,130.462 417.352,126.962 418.5,123.5C 418.5,122.5 418.5,121.5 418.5,120.5C 420.975,117.339 420.642,114.339 417.5,111.5C 410.735,98.9649 402.735,87.2982 393.5,76.5C 392.645,75.4693 391.978,74.3026 391.5,73C 392.187,71.8382 392.353,70.6716 392,69.5C 388.938,66.8855 385.438,65.2188 381.5,64.5C 359.647,63.8833 337.313,63.0499 314.5,62C 316.167,61.6667 317.833,61.3333 319.5,61C 318.167,60.3333 318.167,59.6667 319.5,59C 315.298,57.9642 311.132,57.7975 307,58.5C 306.167,58.3333 305.333,58.1667 304.5,58C 309.541,56.9924 309.208,56.4924 303.5,56.5C 298.167,56.5 292.833,56.5 287.5,56.5C 287.5,55.1667 287.5,53.8333 287.5,52.5C 292.382,52.807 297.049,51.9736 301.5,50C 302.594,47.6772 303.427,44.8439 304,41.5C 308.864,39.8093 311.697,36.476 312.5,31.5C 309.5,31.5 306.5,31.5 303.5,31.5C 303.5,30.1667 303.5,28.8333 303.5,27.5C 298.167,27.5 292.833,27.5 287.5,27.5C 287.5,31.5 287.5,35.5 287.5,39.5C 284.737,39.2036 282.237,38.2036 280,36.5C 279.506,34.8659 279.34,33.1992 279.5,31.5C 276.833,31.5 274.167,31.5 271.5,31.5C 271.5,34.1667 271.5,36.8333 271.5,39.5C 266.167,39.5 260.833,39.5 255.5,39.5C 255.5,40.5 255.5,41.5 255.5,42.5C 254.178,42.33 253.011,42.6634 252,43.5C 251.667,45.1667 251.333,46.8333 251,48.5C 249.249,49.8088 247.749,49.4755 246.5,47.5C 245.5,48.1667 244.5,48.8333 243.5,49.5C 241.107,47.6369 238.44,46.3035 235.5,45.5C 228.993,47.325 222.327,47.9916 215.5,47.5C 216.174,41.5074 213.507,38.8407 207.5,39.5C 201.493,38.8407 198.826,41.5074 199.5,47.5C 196.833,47.5 194.167,47.5 191.5,47.5C 191.5,46.1667 191.5,44.8333 191.5,43.5C 186.167,43.5 180.833,43.5 175.5,43.5C 175.657,44.8734 175.49,46.2068 175,47.5C 170.333,42.8333 165.667,38.1667 161,33.5C 160.833,33.1667 160.667,32.8333 160.5,32.5C 162.396,31.5344 164.396,31.2011 166.5,31.5C 167.303,26.524 170.136,23.1907 175,21.5C 175.495,19.5273 175.662,17.5273 175.5,15.5C 180.187,16.2563 183.853,14.7563 186.5,11C 183.25,6.9289 179.917,3.09556 176.5,-0.5 Z"/></g>
<g><path style="opacity:1" fill="#020202" d="M 375.5,67.5 C 381.702,70.1212 387.702,73.1212 393.5,76.5C 402.735,87.2982 410.735,98.9649 417.5,111.5C 418.007,115.67 416.341,118.67 412.5,120.5C 412.709,121.086 413.043,121.586 413.5,122C 409.2,124.833 408.533,128.499 411.5,133C 410.985,135.829 410.985,138.496 411.5,141C 407.944,150.119 405.278,159.953 403.5,170.5C 403.621,171.894 403.954,173.228 404.5,174.5C 404.11,180.792 403.11,186.958 401.5,193C 401.914,200.324 401.914,207.657 401.5,215C 401.417,219.536 402.084,223.869 403.5,228C 403.167,229.5 402.833,231 402.5,232.5C 400.509,233.82 398.509,235.154 396.5,236.5C 396.833,237.167 397.167,237.833 397.5,238.5C 396.502,240.665 395.502,242.832 394.5,245C 395.732,247.027 395.398,248.36 393.5,249C 394.337,250.011 394.67,251.178 394.5,252.5C 394.489,254.017 393.823,255.184 392.5,256C 388.83,256.279 385.163,256.112 381.5,255.5C 379.861,264.384 379.027,273.384 379,282.5C 377.076,284.822 375.743,287.489 375,290.5C 374.5,297.158 374.334,303.825 374.5,310.5C 374.213,312.121 373.213,313.121 371.5,313.5C 370.526,315.743 370.192,318.076 370.5,320.5C 364.515,319.783 359.015,317.783 354,314.5C 352.56,315.148 351.06,315.481 349.5,315.5C 349.817,311.298 349.483,307.298 348.5,303.5C 348.069,295.056 347.069,286.723 345.5,278.5C 345.3,275.37 344.634,272.37 343.5,269.5C 343.443,268.391 343.11,267.391 342.5,266.5C 342.5,264.5 342.5,262.5 342.5,260.5C 343.801,259.116 343.801,257.616 342.5,256C 343.833,255.667 345.167,255.333 346.5,255C 345.751,253.266 345.251,251.433 345,249.5C 344.667,251.167 344.333,252.833 344,254.5C 343.722,253.584 343.222,252.918 342.5,252.5C 341.833,250.833 341.167,249.167 340.5,247.5C 342.173,245.444 342.839,243.277 342.5,241C 341.833,239.667 340.833,238.667 339.5,238C 340.737,237.768 341.737,237.268 342.5,236.5C 342.5,236.167 342.5,235.833 342.5,235.5C 343.468,233.393 343.802,231.059 343.5,228.5C 344.463,224.204 344.629,219.871 344,215.5C 343.28,213.944 342.113,212.944 340.5,212.5C 333.345,211.345 326.012,211.178 318.5,212C 317.584,212.278 316.918,212.778 316.5,213.5C 314.147,214.34 312.147,215.674 310.5,217.5C 308.833,218.167 307.167,218.833 305.5,219.5C 302.833,219.5 300.167,219.5 297.5,219.5C 297.34,217.801 297.506,216.134 298,214.5C 300.04,212.63 301.873,210.63 303.5,208.5C 308.137,205.154 312.47,201.321 316.5,197C 318.078,195.906 319.745,195.072 321.5,194.5C 326.564,192.042 325.897,190.709 319.5,190.5C 305.343,189.403 291.009,188.736 276.5,188.5C 264.792,186.918 253.125,187.418 241.5,190C 230.659,190.17 219.992,190.67 209.5,191.5C 206.287,191.19 203.287,191.523 200.5,192.5C 198.052,192.01 196.385,192.843 195.5,195C 196.356,196.595 197.689,197.428 199.5,197.5C 200.391,198.11 201.391,198.443 202.5,198.5C 203.514,199.674 204.847,200.34 206.5,200.5C 207.795,201.488 209.128,202.488 210.5,203.5C 211.455,205.746 212.122,208.079 212.5,210.5C 209.833,210.5 207.167,210.5 204.5,210.5C 195.919,208.691 187.253,208.191 178.5,209C 173.537,210.764 170.87,214.264 170.5,219.5C 169.019,225.726 168.019,231.892 167.5,238C 168.949,239.117 170.616,239.784 172.5,240C 170.366,242.889 168.699,246.056 167.5,249.5C 166.398,254.789 166.398,260.289 167.5,266C 167.358,269.633 166.024,272.633 163.5,275C 164.337,276.011 164.67,277.178 164.5,278.5C 164.579,280.666 165.246,282.666 166.5,284.5C 166.154,285.849 165.821,287.183 165.5,288.5C 165.5,288.833 165.5,289.167 165.5,289.5C 160.068,293.368 157.568,298.701 158,305.5C 155.937,307.734 153.771,309.734 151.5,311.5C 147.778,310.68 145.445,312.013 144.5,315.5C 144.092,322.647 144.092,329.98 144.5,337.5C 143.662,337.842 143.328,338.508 143.5,339.5C 139.466,339.495 135.466,339.162 131.5,338.5C 131.5,337.5 131.5,336.5 131.5,335.5C 133.924,335.808 136.257,335.474 138.5,334.5C 138.465,332.557 138.798,330.557 139.5,328.5C 141.71,323.221 140.377,319.221 135.5,316.5C 135.5,315.833 135.167,315.5 134.5,315.5C 133.739,314.609 132.739,313.942 131.5,313.5C 129.803,316.89 129.47,320.223 130.5,323.5C 130.5,324.167 130.5,324.833 130.5,325.5C 129.85,328.554 128.016,330.554 125,331.5C 124.106,333.979 123.773,336.312 124,338.5C 122.494,336.826 120.661,335.826 118.5,335.5C 118.33,334.178 118.663,333.011 119.5,332C 117.171,328.41 113.837,326.577 109.5,326.5C 107.233,323.729 104.733,321.062 102,318.5C 93.6667,303.5 85.3333,288.5 77,273.5C 74.6356,270.31 72.1356,267.31 69.5,264.5C 67.8979,259.74 64.5646,257.573 59.5,258C 58.7734,256.601 58.2734,255.101 58,253.5C 57.3202,240.79 57.8202,228.123 59.5,215.5C 58.7095,207.01 58.0428,198.51 57.5,190C 60.236,166.469 63.0694,142.969 66,119.5C 68.5094,109.496 71.8427,99.8293 76,90.5C 77.8734,88.2911 80.04,86.4578 82.5,85C 93.7053,83.2338 104.705,80.5671 115.5,77C 119.789,76.1222 124.122,75.6222 128.5,75.5C 139.569,76.8804 150.569,78.7137 161.5,81C 182.949,82.7777 204.282,85.2777 225.5,88.5C 229.646,89.647 233.98,89.8136 238.5,89C 240.119,88.7645 241.119,87.9311 241.5,86.5C 242.833,86.5 244.167,86.5 245.5,86.5C 249.571,86.7662 253.571,86.4328 257.5,85.5C 259.379,80.1914 261.046,74.858 262.5,69.5C 268.593,67.5616 274.927,66.0616 281.5,65C 312.985,62.485 344.318,63.3183 375.5,67.5 Z"/></g>
<g><path style="opacity:1" fill="#374e59" d="M 381.5,64.5 C 385.438,65.2188 388.938,66.8855 392,69.5C 392.353,70.6716 392.187,71.8382 391.5,73C 391.978,74.3026 392.645,75.4693 393.5,76.5C 387.702,73.1212 381.702,70.1212 375.5,67.5C 377.262,67.3573 378.929,67.6906 380.5,68.5C 381.088,66.9884 381.422,65.6551 381.5,64.5 Z"/></g>
<g><path style="opacity:1" fill="#618090" d="M 303.5,56.5 C 309.208,56.4924 309.541,56.9924 304.5,58C 305.333,58.1667 306.167,58.3333 307,58.5C 311.132,57.7975 315.298,57.9642 319.5,59C 318.167,59.6667 318.167,60.3333 319.5,61C 317.833,61.3333 316.167,61.6667 314.5,62C 337.313,63.0499 359.647,63.8833 381.5,64.5C 381.422,65.6551 381.088,66.9884 380.5,68.5C 378.929,67.6906 377.262,67.3573 375.5,67.5C 344.318,63.3183 312.985,62.485 281.5,65C 274.927,66.0616 268.593,67.5616 262.5,69.5C 260.983,69.5106 259.816,70.1772 259,71.5C 259.271,76.116 257.937,80.116 255,83.5C 251.949,85.019 248.782,86.019 245.5,86.5C 244.167,86.5 242.833,86.5 241.5,86.5C 236.308,88.0307 230.974,88.6974 225.5,88.5C 204.282,85.2777 182.949,82.7777 161.5,81C 150.569,78.7137 139.569,76.8804 128.5,75.5C 124.122,75.6222 119.789,76.1222 115.5,77C 104.705,80.5671 93.7053,83.2338 82.5,85C 80.04,86.4578 77.8734,88.2911 76,90.5C 71.8427,99.8293 68.5094,109.496 66,119.5C 63.0694,142.969 60.236,166.469 57.5,190C 58.0428,198.51 58.7095,207.01 59.5,215.5C 57.8202,228.123 57.3202,240.79 58,253.5C 58.2734,255.101 58.7734,256.601 59.5,258C 64.5646,257.573 67.8979,259.74 69.5,264.5C 67.0557,262.298 64.0557,261.131 60.5,261C 59.6667,260.167 58.8333,259.333 58,258.5C 57.2635,261.648 57.4301,264.982 58.5,268.5C 56.139,268.674 53.8056,269.007 51.5,269.5C 51.5,267.167 51.5,264.833 51.5,262.5C 52.552,262.649 53.552,262.483 54.5,262C 53.7734,260.601 53.2734,259.101 53,257.5C 51.951,255.893 50.451,255.227 48.5,255.5C 48.4292,251.303 48.7625,247.137 49.5,243C 49.1667,241.833 48.8333,240.667 48.5,239.5C 47.8333,243.5 47.1667,247.5 46.5,251.5C 46.1667,250.833 45.8333,250.167 45.5,249.5C 45.9965,247.529 46.3298,245.529 46.5,243.5C 45.9409,233.967 44.6076,224.634 42.5,215.5C 43.8734,215.657 45.2068,215.49 46.5,215C 45.6886,212.895 44.6886,210.895 43.5,209C 44.5465,207.32 45.2132,205.486 45.5,203.5C 44.3296,200.062 44.8296,196.728 47,193.5C 47.3333,198.167 47.6667,202.833 48,207.5C 49.6496,193.837 49.8163,180.17 48.5,166.5C 50.7423,161.629 50.409,156.796 47.5,152C 48.971,148.529 48.6377,145.195 46.5,142C 47.8792,136.514 49.2126,131.014 50.5,125.5C 50.4563,122.59 49.2897,121.59 47,122.5C 46.8333,122 46.6667,121.5 46.5,121C 47.751,117.953 47.751,114.953 46.5,112C 48.9929,107.567 50.6596,102.734 51.5,97.5C 51.3918,96.5581 51.0585,95.7247 50.5,95C 52.7687,91.0161 54.602,86.8495 56,82.5C 58.2033,80.6657 60.3699,78.8323 62.5,77C 65.4709,76.5291 68.1376,75.3625 70.5,73.5C 71.7362,74.2458 73.0695,74.5792 74.5,74.5C 74.5,73.5 74.5,72.5 74.5,71.5C 78.8461,71.6657 83.1794,71.499 87.5,71C 84.8333,70.6667 82.1667,70.3333 79.5,70C 87.5,69.3333 95.5,69.3333 103.5,70C 99.1667,70.3333 94.8333,70.6667 90.5,71C 98.4262,72.1939 106.093,71.3605 113.5,68.5C 117.5,69.8333 121.5,69.8333 125.5,68.5C 127.392,69.4734 129.392,70.1401 131.5,70.5C 135.493,70.159 139.493,69.8257 143.5,69.5C 143.5,68.5 143.5,67.5 143.5,66.5C 148.828,65.3213 154.162,65.3213 159.5,66.5C 156.313,67.8655 152.98,68.6988 149.5,69C 150.623,70.0437 151.956,70.7104 153.5,71C 165.473,72.4647 177.473,73.1313 189.5,73C 189.167,72.6667 188.833,72.3333 188.5,72C 198.833,71.6667 209.167,71.3333 219.5,71C 220.563,69.8118 221.897,69.3118 223.5,69.5C 223.5,68.5 223.5,67.5 223.5,66.5C 224.822,66.33 225.989,66.6634 227,67.5C 228.5,65.8333 230,64.1667 231.5,62.5C 239.479,61.6684 247.479,61.1684 255.5,61C 250.167,60.6667 244.833,60.3333 239.5,60C 250.752,59.9002 261.919,59.0669 273,57.5C 283.038,57.4693 293.038,57.8026 303,58.5C 303.464,57.9056 303.631,57.2389 303.5,56.5 Z"/></g>
<g><path style="opacity:1" fill="#213137" d="M 262.5,69.5 C 261.046,74.858 259.379,80.1914 257.5,85.5C 253.571,86.4328 249.571,86.7662 245.5,86.5C 248.782,86.019 251.949,85.019 255,83.5C 257.937,80.116 259.271,76.116 259,71.5C 259.816,70.1772 260.983,69.5106 262.5,69.5 Z"/></g>
<g><path style="opacity:1" fill="#2f3f49" d="M 241.5,86.5 C 241.119,87.9311 240.119,88.7645 238.5,89C 233.98,89.8136 229.646,89.647 225.5,88.5C 230.974,88.6974 236.308,88.0307 241.5,86.5 Z"/></g>
<g><path style="opacity:1" fill="#3e5465" d="M 418.5,120.5 C 418.5,121.5 418.5,122.5 418.5,123.5C 417.034,124.347 416.2,125.68 416,127.5C 415.667,131.5 415.333,135.5 415,139.5C 414.722,140.416 414.222,141.082 413.5,141.5C 413.243,135.102 413.743,128.769 415,122.5C 415.816,121.177 416.983,120.511 418.5,120.5 Z"/></g>
<g><path style="opacity:1" fill="#040910" d="M 417.5,111.5 C 420.642,114.339 420.975,117.339 418.5,120.5C 416.983,120.511 415.816,121.177 415,122.5C 413.743,128.769 413.243,135.102 413.5,141.5C 412.778,141.918 412.278,142.584 412,143.5C 410.515,154.261 408.515,164.927 406,175.5C 406.892,189.457 407.392,203.457 407.5,217.5C 405.995,224.634 404.995,231.967 404.5,239.5C 402.833,239.5 401.167,239.5 399.5,239.5C 399.5,241.167 399.5,242.833 399.5,244.5C 398.617,247.704 396.95,250.371 394.5,252.5C 394.67,251.178 394.337,250.011 393.5,249C 395.398,248.36 395.732,247.027 394.5,245C 395.502,242.832 396.502,240.665 397.5,238.5C 397.167,237.833 396.833,237.167 396.5,236.5C 398.509,235.154 400.509,233.82 402.5,232.5C 402.833,231 403.167,229.5 403.5,228C 402.084,223.869 401.417,219.536 401.5,215C 401.914,207.657 401.914,200.324 401.5,193C 403.11,186.958 404.11,180.792 404.5,174.5C 403.954,173.228 403.621,171.894 403.5,170.5C 405.278,159.953 407.944,150.119 411.5,141C 410.985,138.496 410.985,135.829 411.5,133C 408.533,128.499 409.2,124.833 413.5,122C 413.043,121.586 412.709,121.086 412.5,120.5C 416.341,118.67 418.007,115.67 417.5,111.5 Z"/></g>
<g><path style="opacity:1" fill="#3e373a" d="M 276.5,189.5 C 276.5,189.167 276.5,188.833 276.5,188.5C 291.009,188.736 305.343,189.403 319.5,190.5C 311.5,190.5 303.5,190.5 295.5,190.5C 289.196,189.74 282.863,189.407 276.5,189.5 Z"/></g>
<g><path style="opacity:1" fill="#a09699" d="M 276.5,188.5 C 276.5,188.833 276.5,189.167 276.5,189.5C 267.494,189.334 258.494,189.5 249.5,190C 240.978,193.743 232.145,194.577 223,192.5C 217.127,192.557 211.293,193.057 205.5,194C 204.328,194.419 203.328,195.085 202.5,196C 204.192,197.307 205.525,198.807 206.5,200.5C 204.847,200.34 203.514,199.674 202.5,198.5C 201.2,197.399 200.7,196.066 201,194.5C 203.87,193.307 206.704,192.307 209.5,191.5C 219.992,190.67 230.659,190.17 241.5,190C 253.125,187.418 264.792,186.918 276.5,188.5 Z"/></g>
<g><path style="opacity:1" fill="#aca5a8" d="M 295.5,190.5 C 303.5,190.5 311.5,190.5 319.5,190.5C 325.897,190.709 326.564,192.042 321.5,194.5C 321.586,193.504 321.252,192.671 320.5,192C 311.99,191.829 303.657,191.329 295.5,190.5 Z"/></g>
<g><path style="opacity:1" fill="#4d3f41" d="M 200.5,192.5 C 198.599,193.935 198.266,195.602 199.5,197.5C 197.689,197.428 196.356,196.595 195.5,195C 196.385,192.843 198.052,192.01 200.5,192.5 Z"/></g>
<g><path style="opacity:1" fill="#8b7d7e" d="M 209.5,191.5 C 206.704,192.307 203.87,193.307 201,194.5C 200.7,196.066 201.2,197.399 202.5,198.5C 201.391,198.443 200.391,198.11 199.5,197.5C 198.266,195.602 198.599,193.935 200.5,192.5C 203.287,191.523 206.287,191.19 209.5,191.5 Z"/></g>
<g><path style="opacity:1" fill="#ead9d9" d="M 276.5,189.5 C 282.863,189.407 289.196,189.74 295.5,190.5C 303.657,191.329 311.99,191.829 320.5,192C 321.252,192.671 321.586,193.504 321.5,194.5C 319.745,195.072 318.078,195.906 316.5,197C 312.47,201.321 308.137,205.154 303.5,208.5C 297.349,210.677 295.016,215.01 296.5,221.5C 299.781,221.58 302.781,220.913 305.5,219.5C 307.167,218.833 308.833,218.167 310.5,217.5C 313.518,217.494 316.184,216.494 318.5,214.5C 318.833,215.667 319.167,216.833 319.5,218C 318.069,222.551 316.069,226.718 313.5,230.5C 316.167,230.5 318.833,230.5 321.5,230.5C 321.611,231.117 321.944,231.617 322.5,232C 320.277,232.566 318.277,233.4 316.5,234.5C 313.072,234.547 310.072,235.713 307.5,238C 302.638,241.697 298.304,245.864 294.5,250.5C 294.157,246.562 292.157,245.562 288.5,247.5C 286.011,238.428 281.177,237.095 274,243.5C 273.054,245.956 273.554,247.956 275.5,249.5C 276.934,248.064 278.1,246.398 279,244.5C 279.175,248.211 279.675,251.878 280.5,255.5C 283.227,253.774 285.227,251.441 286.5,248.5C 287.793,251.206 287.459,253.706 285.5,256C 286.104,258.584 286.937,261.084 288,263.5C 293.675,266.541 299.508,269.208 305.5,271.5C 306.167,271.167 306.833,270.833 307.5,270.5C 311.113,271.523 314.779,272.356 318.5,273C 319.337,274.011 319.67,275.178 319.5,276.5C 325.875,275.465 328.209,277.965 326.5,284C 317.011,286.884 317.344,288.051 327.5,287.5C 327.666,294.508 327.5,301.508 327,308.5C 325.195,311.039 322.695,312.039 319.5,311.5C 319.5,316.5 319.5,321.5 319.5,326.5C 324.917,326.971 327.25,329.971 326.5,335.5C 324.042,333.722 321.376,332.056 318.5,330.5C 317.692,330.808 317.025,331.308 316.5,332C 317.517,333.049 317.684,334.216 317,335.5C 315.375,336.881 314.208,338.548 313.5,340.5C 312.488,346.546 312.488,352.879 313.5,359.5C 316.284,363.04 316.951,366.873 315.5,371C 318.477,373.932 319.644,377.432 319,381.5C 318.311,382.357 317.478,383.023 316.5,383.5C 315.65,381.096 314.65,378.763 313.5,376.5C 311.885,375.846 310.218,375.346 308.5,375C 311.024,373.117 312.358,370.617 312.5,367.5C 307.489,367.334 302.489,367.501 297.5,368C 296.672,368.915 295.672,369.581 294.5,370C 295.517,371.049 295.684,372.216 295,373.5C 291.859,370.705 288.359,370.038 284.5,371.5C 280.47,369.904 276.304,368.571 272,367.5C 269.476,368.178 267.309,369.512 265.5,371.5C 264.312,370.16 262.812,369.493 261,369.5C 256.992,370.61 252.992,371.61 249,372.5C 248.667,372.167 248.333,371.833 248,371.5C 244.388,377.82 239.388,379.154 233,375.5C 231.232,376.131 230.065,375.298 229.5,373C 230.233,371.234 230.567,369.401 230.5,367.5C 228.167,367.5 225.833,367.5 223.5,367.5C 223.5,366.167 223.5,364.833 223.5,363.5C 220.813,363.664 218.146,363.497 215.5,363C 216,362.5 216.5,362 217,361.5C 217.498,358.183 217.665,354.85 217.5,351.5C 214.167,351.5 210.833,351.5 207.5,351.5C 207.5,350.167 207.5,348.833 207.5,347.5C 211.182,347.665 214.848,347.499 218.5,347C 217.285,335.087 218.951,323.587 223.5,312.5C 226.167,312.5 228.833,312.5 231.5,312.5C 231.5,313.5 231.5,314.5 231.5,315.5C 232.822,315.67 233.989,315.337 235,314.5C 235.494,316.134 235.66,317.801 235.5,319.5C 236.833,319.5 238.167,319.5 239.5,319.5C 239.169,327.86 239.502,336.193 240.5,344.5C 242.642,345.601 244.808,346.601 247,347.5C 247.507,346.004 247.007,344.837 245.5,344C 245.833,343.667 246.167,343.333 246.5,343C 248.727,342.879 250.56,342.046 252,340.5C 252.333,341.167 252.667,341.833 253,342.5C 253.689,341.643 254.522,340.977 255.5,340.5C 256.967,341.695 258.467,341.695 260,340.5C 262.846,340.854 265.68,342.02 268.5,344C 267.5,344.833 266.5,345.667 265.5,346.5C 267.396,347.466 269.396,347.799 271.5,347.5C 271.662,345.473 271.495,343.473 271,341.5C 270.667,342.167 270.333,342.833 270,343.5C 268.902,342.033 267.402,341.199 265.5,341C 266.833,340.667 268.167,340.333 269.5,340C 267.236,339.764 265.069,339.264 263,338.5C 261.215,339.354 260.049,338.687 259.5,336.5C 265.13,337.292 270.797,337.625 276.5,337.5C 278.255,338.072 279.922,338.906 281.5,340C 286.02,340.814 290.354,340.647 294.5,339.5C 295.609,339.443 296.609,339.11 297.5,338.5C 298.117,338.389 298.617,338.056 299,337.5C 299.337,334.139 299.837,330.806 300.5,327.5C 300.363,325.893 299.696,324.559 298.5,323.5C 290.556,324.469 282.556,324.802 274.5,324.5C 270.5,324.5 266.5,324.5 262.5,324.5C 262.918,323.778 263.584,323.278 264.5,323C 270.143,322.136 275.81,321.469 281.5,321C 280.833,320.667 280.167,320.333 279.5,320C 281.167,319.667 282.833,319.333 284.5,319C 285.517,317.951 285.684,316.784 285,315.5C 282.34,314.166 279.506,313.332 276.5,313C 281.1,310.669 285.434,308.836 289.5,307.5C 287.885,304.55 285.885,301.884 283.5,299.5C 282.585,300.328 281.919,301.328 281.5,302.5C 278.286,303.044 275.286,304.044 272.5,305.5C 272.167,304.833 271.833,304.167 271.5,303.5C 273.238,301.079 274.571,298.412 275.5,295.5C 281.956,290.41 282.123,285.076 276,279.5C 273.833,283 271.667,286.5 269.5,290C 271.192,291.401 271.859,293.234 271.5,295.5C 270.167,295.5 268.833,295.5 267.5,295.5C 267.5,297.167 267.5,298.833 267.5,300.5C 263.181,299.965 258.848,299.465 254.5,299C 253.663,297.989 253.33,296.822 253.5,295.5C 252.5,295.5 251.5,295.5 250.5,295.5C 250.182,291.56 250.182,287.727 250.5,284C 248.484,280.745 247.484,280.911 247.5,284.5C 243.812,284.781 240.145,285.281 236.5,286C 234.496,287.423 232.996,289.256 232,291.5C 231.586,291.043 231.086,290.709 230.5,290.5C 229.027,293.28 227.693,296.113 226.5,299C 222.201,299.737 218.201,298.903 214.5,296.5C 211.081,298.436 207.581,298.769 204,297.5C 200.778,299.674 197.278,301.174 193.5,302C 194.167,302.333 194.833,302.667 195.5,303C 194.563,305.707 193.23,308.207 191.5,310.5C 193.26,313.212 193.927,316.212 193.5,319.5C 197.5,319.5 201.5,319.5 205.5,319.5C 205.357,321.262 205.691,322.929 206.5,324.5C 209.596,326.131 212.43,328.131 215,330.5C 217.852,337.8 215.519,342.8 208,345.5C 207.667,344.167 207.333,342.833 207,341.5C 203.394,342.774 200.727,345.107 199,348.5C 198.607,350.199 199.107,351.699 200.5,353C 199.437,355.898 197.77,358.398 195.5,360.5C 203.289,364.29 203.456,368.29 196,372.5C 194.491,377.177 191.658,380.844 187.5,383.5C 183.484,391.637 180.984,400.304 180,409.5C 178.667,410.833 177.333,410.833 176,409.5C 173.85,413.657 171.684,417.823 169.5,422C 170.662,425.147 171.662,428.314 172.5,431.5C 175.247,431.187 177.914,431.52 180.5,432.5C 182.5,437.167 184.5,441.833 186.5,446.5C 185.675,447.386 184.675,447.719 183.5,447.5C 183.5,449.167 183.5,450.833 183.5,452.5C 181.833,452.5 180.167,452.5 178.5,452.5C 180.355,456.058 182.022,459.725 183.5,463.5C 186.167,463.5 188.833,463.5 191.5,463.5C 191.5,466.167 191.5,468.833 191.5,471.5C 193.78,471.254 195.78,471.254 197.5,471.5C 195.924,473.979 194.924,476.646 194.5,479.5C 193.5,479.5 192.5,479.5 191.5,479.5C 192.63,472.91 190.963,471.91 186.5,476.5C 187.5,477.333 188.5,478.167 189.5,479C 187.417,486.931 183.084,493.431 176.5,498.5C 174.884,497.885 173.551,496.885 172.5,495.5C 171.176,497.828 169.843,500.161 168.5,502.5C 169.127,503.417 169.461,504.417 169.5,505.5C 166.213,504.839 162.88,504.339 159.5,504C 161.134,503.506 162.801,503.34 164.5,503.5C 164.327,500.821 163.327,498.487 161.5,496.5C 161.709,495.914 162.043,495.414 162.5,495C 159.931,492.521 157.598,489.854 155.5,487C 156.574,486.261 157.241,485.261 157.5,484C 156.82,474.909 155.487,465.909 153.5,457C 153.972,450.831 154.472,444.664 155,438.5C 156.954,436.215 156.787,434.048 154.5,432C 155.761,428.712 155.761,425.379 154.5,422C 157.548,414.747 158.215,407.247 156.5,399.5C 154.816,404.688 154.149,410.022 154.5,415.5C 153.5,415.5 152.5,415.5 151.5,415.5C 151.5,404.833 151.5,394.167 151.5,383.5C 150.5,383.5 149.5,383.5 148.5,383.5C 148.151,375.574 148.818,367.74 150.5,360C 149.779,356.176 149.113,352.343 148.5,348.5C 149.857,343.697 150.857,338.863 151.5,334C 151.353,332.026 151.019,330.026 150.5,328C 152.188,325.175 153.021,322.009 153,318.5C 154.494,319.747 155.994,319.747 157.5,318.5C 155.78,317.066 153.78,316.233 151.5,316C 154.257,315.218 156.757,315.718 159,317.5C 159.617,316.551 159.451,315.718 158.5,315C 160.657,313.088 162.991,311.421 165.5,310C 165.167,309.667 164.833,309.333 164.5,309C 167.293,307.455 167.96,305.288 166.5,302.5C 169.612,299.72 171.945,296.386 173.5,292.5C 176.729,290.058 179.729,287.392 182.5,284.5C 182.948,280.898 184.282,277.731 186.5,275C 185.516,273.343 184.516,271.677 183.5,270C 184.833,269.333 186.167,268.667 187.5,268C 185.351,267.421 183.185,266.921 181,266.5C 178.411,267.986 175.577,268.653 172.5,268.5C 172.271,270.433 171.438,272.1 170,273.5C 169.641,278.859 169.641,284.193 170,289.5C 168.721,292.836 166.887,295.836 164.5,298.5C 165.511,301.502 165.344,304.502 164,307.5C 159.971,311.431 155.137,313.597 149.5,314C 148.833,315 148.167,316 147.5,317C 148.956,317.423 149.456,318.256 149,319.5C 147.989,318.663 146.822,318.33 145.5,318.5C 145.5,319.833 145.5,321.167 145.5,322.5C 144.532,320.393 144.198,318.059 144.5,315.5C 145.445,312.013 147.778,310.68 151.5,311.5C 158.675,309.17 161.841,304.17 161,296.5C 163.02,294.449 164.52,292.116 165.5,289.5C 165.5,289.167 165.5,288.833 165.5,288.5C 166.79,287.942 167.623,286.942 168,285.5C 168.173,278.392 169.006,271.392 170.5,264.5C 170.5,263.833 170.5,263.167 170.5,262.5C 171.321,259.359 171.821,256.025 172,252.5C 174.542,250.162 177.375,249.828 180.5,251.5C 185.211,255.426 190.545,256.426 196.5,254.5C 198.882,252.954 201.549,252.287 204.5,252.5C 207.009,253.921 209.343,255.588 211.5,257.5C 211.672,258.492 211.338,259.158 210.5,259.5C 203.492,259.334 196.492,259.5 189.5,260C 187.109,260.691 187.109,261.691 189.5,263C 201.047,265.229 212.714,266.063 224.5,265.5C 226.857,265.663 229.19,265.497 231.5,265C 232.576,263.274 232.743,261.441 232,259.5C 222.614,249.892 211.78,242.392 199.5,237C 192.239,235.652 184.906,235.152 177.5,235.5C 175.5,235.5 173.5,235.5 171.5,235.5C 172.055,229.846 172.555,224.18 173,218.5C 173.979,215.375 175.813,212.875 178.5,211C 188.262,210.092 197.928,210.592 207.5,212.5C 207.833,212.5 208.167,212.5 208.5,212.5C 212.183,214.25 216.183,214.917 220.5,214.5C 220.727,212.067 219.727,210.401 217.5,209.5C 215.167,207.5 212.833,205.5 210.5,203.5C 209.128,202.488 207.795,201.488 206.5,200.5C 205.525,198.807 204.192,197.307 202.5,196C 203.328,195.085 204.328,194.419 205.5,194C 211.293,193.057 217.127,192.557 223,192.5C 232.145,194.577 240.978,193.743 249.5,190C 258.494,189.5 267.494,189.334 276.5,189.5 Z"/></g>
<g><path style="opacity:1" fill="#837576" d="M 204.5,210.5 C 205.5,211.167 206.5,211.833 207.5,212.5C 197.928,210.592 188.262,210.092 178.5,211C 175.813,212.875 173.979,215.375 173,218.5C 172.555,224.18 172.055,229.846 171.5,235.5C 173.5,235.5 175.5,235.5 177.5,235.5C 175.393,236.468 173.059,236.802 170.5,236.5C 170.5,230.833 170.5,225.167 170.5,219.5C 170.87,214.264 173.537,210.764 178.5,209C 187.253,208.191 195.919,208.691 204.5,210.5 Z"/></g>
<g><path style="opacity:1" fill="#4c3638" d="M 210.5,203.5 C 212.833,205.5 215.167,207.5 217.5,209.5C 217.5,210.5 217.5,211.5 217.5,212.5C 214.5,212.5 211.5,212.5 208.5,212.5C 208.167,212.5 207.833,212.5 207.5,212.5C 206.5,211.833 205.5,211.167 204.5,210.5C 207.167,210.5 209.833,210.5 212.5,210.5C 212.122,208.079 211.455,205.746 210.5,203.5 Z"/></g>
<g><path style="opacity:1" fill="#806e6a" d="M 340.5,212.5 C 332.466,212.302 324.466,212.635 316.5,213.5C 316.918,212.778 317.584,212.278 318.5,212C 326.012,211.178 333.345,211.345 340.5,212.5 Z"/></g>
<g><path style="opacity:1" fill="#a68f91" d="M 217.5,209.5 C 219.727,210.401 220.727,212.067 220.5,214.5C 216.183,214.917 212.183,214.25 208.5,212.5C 211.5,212.5 214.5,212.5 217.5,212.5C 217.5,211.5 217.5,210.5 217.5,209.5 Z"/></g>
<g><path style="opacity:1" fill="#d7c5bf" d="M 340.5,212.5 C 342.113,212.944 343.28,213.944 344,215.5C 344.629,219.871 344.463,224.204 343.5,228.5C 342.549,229.919 342.216,231.585 342.5,233.5C 339.753,233.813 337.086,233.48 334.5,232.5C 335.325,231.614 336.325,231.281 337.5,231.5C 337.762,230.022 337.429,228.689 336.5,227.5C 332.994,225.335 329.494,223.335 326,221.5C 321.694,222.242 318.194,224.409 315.5,228C 317.502,229.019 319.502,229.852 321.5,230.5C 318.833,230.5 316.167,230.5 313.5,230.5C 316.069,226.718 318.069,222.551 319.5,218C 319.167,216.833 318.833,215.667 318.5,214.5C 316.184,216.494 313.518,217.494 310.5,217.5C 312.147,215.674 314.147,214.34 316.5,213.5C 324.466,212.635 332.466,212.302 340.5,212.5 Z"/></g>
<g><path style="opacity:1" fill="#463738" d="M 303.5,208.5 C 301.873,210.63 300.04,212.63 298,214.5C 297.506,216.134 297.34,217.801 297.5,219.5C 300.167,219.5 302.833,219.5 305.5,219.5C 302.781,220.913 299.781,221.58 296.5,221.5C 295.016,215.01 297.349,210.677 303.5,208.5 Z"/></g>
<g><path style="opacity:1" fill="#b5a39e" d="M 343.5,228.5 C 343.802,231.059 343.468,233.393 342.5,235.5C 337.223,234.507 331.89,233.84 326.5,233.5C 323.14,233.616 319.807,233.949 316.5,234.5C 318.277,233.4 320.277,232.566 322.5,232C 321.944,231.617 321.611,231.117 321.5,230.5C 319.502,229.852 317.502,229.019 315.5,228C 318.194,224.409 321.694,222.242 326,221.5C 329.494,223.335 332.994,225.335 336.5,227.5C 337.429,228.689 337.762,230.022 337.5,231.5C 336.325,231.281 335.325,231.614 334.5,232.5C 337.086,233.48 339.753,233.813 342.5,233.5C 342.216,231.585 342.549,229.919 343.5,228.5 Z"/></g>
<g><path style="opacity:1" fill="#7e6a66" d="M 321.5,225.5 C 324.518,225.335 327.518,225.502 330.5,226C 331.973,226.71 332.64,227.876 332.5,229.5C 329.15,229.665 325.817,229.498 322.5,229C 321.663,227.989 321.33,226.822 321.5,225.5 Z"/></g>
<g><path style="opacity:1" fill="#5b4f4c" d="M 326.5,233.5 C 331.89,233.84 337.223,234.507 342.5,235.5C 342.5,235.833 342.5,236.167 342.5,236.5C 336.953,235.981 331.62,234.981 326.5,233.5 Z"/></g>
<g><path style="opacity:1" fill="#0e0a0e" d="M 326.5,233.5 C 331.62,234.981 336.953,235.981 342.5,236.5C 341.737,237.268 340.737,237.768 339.5,238C 340.833,238.667 341.833,239.667 342.5,241C 342.839,243.277 342.173,245.444 340.5,247.5C 338.787,245.15 336.453,244.15 333.5,244.5C 333.302,249.262 331.635,253.428 328.5,257C 333.148,257.883 337.481,257.05 341.5,254.5C 342.298,254.043 342.631,253.376 342.5,252.5C 343.222,252.918 343.722,253.584 344,254.5C 344.333,252.833 344.667,251.167 345,249.5C 345.251,251.433 345.751,253.266 346.5,255C 345.167,255.333 343.833,255.667 342.5,256C 343.801,257.616 343.801,259.116 342.5,260.5C 333.851,261.203 325.185,261.536 316.5,261.5C 317.084,258.715 316.084,257.048 313.5,256.5C 310.128,254.629 308.128,251.796 307.5,248C 305.648,247.227 304.314,247.727 303.5,249.5C 300.808,251.862 298.141,254.196 295.5,256.5C 293.121,257.567 292.121,256.567 292.5,253.5C 293.167,252.5 293.833,251.5 294.5,250.5C 298.304,245.864 302.638,241.697 307.5,238C 310.072,235.713 313.072,234.547 316.5,234.5C 319.807,233.949 323.14,233.616 326.5,233.5 Z"/></g>
<g><path style="opacity:1" fill="#455b69" d="M 407.5,217.5 C 407.077,224.5 406.577,231.5 406,238.5C 403.665,240.4 401.498,242.4 399.5,244.5C 399.5,242.833 399.5,241.167 399.5,239.5C 401.167,239.5 402.833,239.5 404.5,239.5C 404.995,231.967 405.995,224.634 407.5,217.5 Z"/></g>
<g><path style="opacity:1" fill="#0e080e" d="M 170.5,219.5 C 170.5,225.167 170.5,230.833 170.5,236.5C 173.059,236.802 175.393,236.468 177.5,235.5C 184.906,235.152 192.239,235.652 199.5,237C 211.78,242.392 222.614,249.892 232,259.5C 232.743,261.441 232.576,263.274 231.5,265C 229.19,265.497 226.857,265.663 224.5,265.5C 222.393,264.532 220.059,264.198 217.5,264.5C 216.535,261.227 214.535,258.894 211.5,257.5C 209.343,255.588 207.009,253.921 204.5,252.5C 201.208,249.654 198.541,250.321 196.5,254.5C 190.545,256.426 185.211,255.426 180.5,251.5C 179.713,249.896 178.38,249.229 176.5,249.5C 174.183,248.058 172.016,248.392 170,250.5C 169.627,256.189 169.127,261.855 168.5,267.5C 167.671,270.815 166.838,274.148 166,277.5C 165.617,278.056 165.117,278.389 164.5,278.5C 164.67,277.178 164.337,276.011 163.5,275C 166.024,272.633 167.358,269.633 167.5,266C 166.398,260.289 166.398,254.789 167.5,249.5C 168.699,246.056 170.366,242.889 172.5,240C 170.616,239.784 168.949,239.117 167.5,238C 168.019,231.892 169.019,225.726 170.5,219.5 Z"/></g>
<g><path style="opacity:1" fill="#847b84" d="M 204.5,252.5 C 201.549,252.287 198.882,252.954 196.5,254.5C 198.541,250.321 201.208,249.654 204.5,252.5 Z"/></g>
<g><path style="opacity:1" fill="#cbc8cb" d="M 340.5,247.5 C 341.167,249.167 341.833,250.833 342.5,252.5C 342.631,253.376 342.298,254.043 341.5,254.5C 337.481,257.05 333.148,257.883 328.5,257C 331.635,253.428 333.302,249.262 333.5,244.5C 336.453,244.15 338.787,245.15 340.5,247.5 Z"/></g>
<g><path style="opacity:1" fill="#e7ddde" d="M 303.5,249.5 C 304.822,249.33 305.989,249.663 307,250.5C 308.161,253.267 309.327,255.933 310.5,258.5C 308.585,258.216 306.919,258.549 305.5,259.5C 302.167,259.5 298.833,259.5 295.5,259.5C 295.5,258.5 295.5,257.5 295.5,256.5C 298.141,254.196 300.808,251.862 303.5,249.5 Z"/></g>
<g><path style="opacity:1" fill="#b3a8af" d="M 313.5,256.5 C 314.914,258.598 314.248,259.598 311.5,259.5C 309.5,259.5 307.5,259.5 305.5,259.5C 306.919,258.549 308.585,258.216 310.5,258.5C 309.327,255.933 308.161,253.267 307,250.5C 305.989,249.663 304.822,249.33 303.5,249.5C 304.314,247.727 305.648,247.227 307.5,248C 308.128,251.796 310.128,254.629 313.5,256.5 Z"/></g>
<g><path style="opacity:1" fill="#50484e" d="M 176.5,249.5 C 174.278,249.178 172.444,249.845 171,251.5C 170.501,255.152 170.335,258.818 170.5,262.5C 170.5,263.167 170.5,263.833 170.5,264.5C 169.833,265.5 169.167,266.5 168.5,267.5C 169.127,261.855 169.627,256.189 170,250.5C 172.016,248.392 174.183,248.058 176.5,249.5 Z"/></g>
<g><path style="opacity:1" fill="#867c83" d="M 176.5,249.5 C 178.38,249.229 179.713,249.896 180.5,251.5C 177.375,249.828 174.542,250.162 172,252.5C 171.821,256.025 171.321,259.359 170.5,262.5C 170.335,258.818 170.501,255.152 171,251.5C 172.444,249.845 174.278,249.178 176.5,249.5 Z"/></g>
<g><path style="opacity:1" fill="#78717b" d="M 292.5,253.5 C 292.121,256.567 293.121,257.567 295.5,256.5C 295.5,257.5 295.5,258.5 295.5,259.5C 298.833,259.5 302.167,259.5 305.5,259.5C 307.5,259.5 309.5,259.5 311.5,259.5C 308.642,260.166 305.642,260.833 302.5,261.5C 313.146,262.499 323.813,262.832 334.5,262.5C 321.98,263.764 309.314,263.764 296.5,262.5C 291.951,260.906 290.618,257.906 292.5,253.5 Z"/></g>
<g><path style="opacity:1" fill="#857c87" d="M 211.5,257.5 C 214.535,258.894 216.535,261.227 217.5,264.5C 210.142,264.582 202.809,264.248 195.5,263.5C 195.5,262.5 195.5,261.5 195.5,260.5C 200.695,260.821 205.695,260.487 210.5,259.5C 211.338,259.158 211.672,258.492 211.5,257.5 Z"/></g>
<g><path style="opacity:1" fill="#eadcdb" d="M 294.5,250.5 C 293.833,251.5 293.167,252.5 292.5,253.5C 290.618,257.906 291.951,260.906 296.5,262.5C 296.973,263.906 297.973,264.573 299.5,264.5C 311.864,269.895 324.864,271.562 338.5,269.5C 339.776,274.425 340.776,279.425 341.5,284.5C 341.818,285.647 342.484,286.481 343.5,287C 342.376,287.839 341.709,289.006 341.5,290.5C 341.615,296.961 341.615,303.461 341.5,310C 341.667,310.833 341.833,311.667 342,312.5C 342.914,311.346 343.747,311.513 344.5,313C 342.719,322.587 340.886,332.421 339,342.5C 338.231,339.901 338.398,337.401 339.5,335C 336.618,330.253 335.285,330.92 335.5,337C 336.204,341.439 337.537,345.772 339.5,350C 338.528,353.579 338.528,356.912 339.5,360C 337.715,361.593 337.548,363.093 339,364.5C 339.638,367.536 339.472,370.536 338.5,373.5C 338.887,375.274 339.553,376.941 340.5,378.5C 340.864,383.844 340.364,389.51 339,395.5C 337.989,396.337 336.822,396.67 335.5,396.5C 336.818,400.925 337.818,405.425 338.5,410C 335.635,416.814 334.968,423.814 336.5,431C 335.256,431.456 334.423,430.956 334,429.5C 331.688,432.646 329.188,435.646 326.5,438.5C 326.331,437.603 325.998,436.603 325.5,435.5C 323.404,436.62 323.07,438.12 324.5,440C 323.833,440.333 323.167,440.667 322.5,441C 324.085,441.085 325.418,441.251 326.5,441.5C 323.406,443.492 321.239,446.158 320,449.5C 317.908,449.929 315.908,451.262 314,453.5C 313.517,454.448 313.351,455.448 313.5,456.5C 312.833,456.833 312.167,457.167 311.5,457.5C 304.21,459.803 296.877,462.136 289.5,464.5C 283.091,461.968 276.424,460.135 269.5,459C 265.11,458.228 260.777,458.394 256.5,459.5C 250.455,457.476 244.288,457.476 238,459.5C 233.551,458.592 229.051,457.592 224.5,456.5C 222.556,457.189 220.556,457.689 218.5,458C 216.862,464.187 214.362,470.354 211,476.5C 210.867,473.475 209.867,470.808 208,468.5C 206.796,472.573 204.796,476.239 202,479.5C 201.501,484.823 201.334,490.156 201.5,495.5C 198.102,495.18 194.768,495.513 191.5,496.5C 192.945,498.063 194.611,499.396 196.5,500.5C 195.176,501.935 193.51,502.935 191.5,503.5C 184.184,504.415 176.85,505.082 169.5,505.5C 169.461,504.417 169.127,503.417 168.5,502.5C 169.843,500.161 171.176,497.828 172.5,495.5C 173.551,496.885 174.884,497.885 176.5,498.5C 183.084,493.431 187.417,486.931 189.5,479C 188.5,478.167 187.5,477.333 186.5,476.5C 190.963,471.91 192.63,472.91 191.5,479.5C 192.5,479.5 193.5,479.5 194.5,479.5C 194.924,476.646 195.924,473.979 197.5,471.5C 195.78,471.254 193.78,471.254 191.5,471.5C 191.5,468.833 191.5,466.167 191.5,463.5C 188.833,463.5 186.167,463.5 183.5,463.5C 182.022,459.725 180.355,456.058 178.5,452.5C 180.167,452.5 181.833,452.5 183.5,452.5C 183.5,450.833 183.5,449.167 183.5,447.5C 184.675,447.719 185.675,447.386 186.5,446.5C 184.5,441.833 182.5,437.167 180.5,432.5C 177.914,431.52 175.247,431.187 172.5,431.5C 171.662,428.314 170.662,425.147 169.5,422C 171.684,417.823 173.85,413.657 176,409.5C 177.333,410.833 178.667,410.833 180,409.5C 180.984,400.304 183.484,391.637 187.5,383.5C 191.658,380.844 194.491,377.177 196,372.5C 203.456,368.29 203.289,364.29 195.5,360.5C 197.77,358.398 199.437,355.898 200.5,353C 199.107,351.699 198.607,350.199 199,348.5C 200.727,345.107 203.394,342.774 207,341.5C 207.333,342.833 207.667,344.167 208,345.5C 215.519,342.8 217.852,337.8 215,330.5C 212.43,328.131 209.596,326.131 206.5,324.5C 205.691,322.929 205.357,321.262 205.5,319.5C 201.5,319.5 197.5,319.5 193.5,319.5C 193.927,316.212 193.26,313.212 191.5,310.5C 193.23,308.207 194.563,305.707 195.5,303C 194.833,302.667 194.167,302.333 193.5,302C 197.278,301.174 200.778,299.674 204,297.5C 207.581,298.769 211.081,298.436 214.5,296.5C 218.201,298.903 222.201,299.737 226.5,299C 227.693,296.113 229.027,293.28 230.5,290.5C 231.086,290.709 231.586,291.043 232,291.5C 232.996,289.256 234.496,287.423 236.5,286C 240.145,285.281 243.812,284.781 247.5,284.5C 247.484,280.911 248.484,280.745 250.5,284C 250.182,287.727 250.182,291.56 250.5,295.5C 251.5,295.5 252.5,295.5 253.5,295.5C 253.33,296.822 253.663,297.989 254.5,299C 258.848,299.465 263.181,299.965 267.5,300.5C 267.5,298.833 267.5,297.167 267.5,295.5C 268.833,295.5 270.167,295.5 271.5,295.5C 271.859,293.234 271.192,291.401 269.5,290C 271.667,286.5 273.833,283 276,279.5C 282.123,285.076 281.956,290.41 275.5,295.5C 274.571,298.412 273.238,301.079 271.5,303.5C 271.833,304.167 272.167,304.833 272.5,305.5C 275.286,304.044 278.286,303.044 281.5,302.5C 281.919,301.328 282.585,300.328 283.5,299.5C 285.885,301.884 287.885,304.55 289.5,307.5C 285.434,308.836 281.1,310.669 276.5,313C 279.506,313.332 282.34,314.166 285,315.5C 285.684,316.784 285.517,317.951 284.5,319C 282.833,319.333 281.167,319.667 279.5,320C 280.167,320.333 280.833,320.667 281.5,321C 275.81,321.469 270.143,322.136 264.5,323C 263.584,323.278 262.918,323.778 262.5,324.5C 257.155,326.832 254.155,330.832 253.5,336.5C 255.5,336.5 257.5,336.5 259.5,336.5C 260.049,338.687 261.215,339.354 263,338.5C 265.069,339.264 267.236,339.764 269.5,340C 268.167,340.333 266.833,340.667 265.5,341C 267.402,341.199 268.902,342.033 270,343.5C 270.333,342.833 270.667,342.167 271,341.5C 271.495,343.473 271.662,345.473 271.5,347.5C 269.396,347.799 267.396,347.466 265.5,346.5C 266.5,345.667 267.5,344.833 268.5,344C 265.68,342.02 262.846,340.854 260,340.5C 258.467,341.695 256.967,341.695 255.5,340.5C 254.522,340.977 253.689,341.643 253,342.5C 252.667,341.833 252.333,341.167 252,340.5C 250.56,342.046 248.727,342.879 246.5,343C 246.167,343.333 245.833,343.667 245.5,344C 247.007,344.837 247.507,346.004 247,347.5C 244.808,346.601 242.642,345.601 240.5,344.5C 239.502,336.193 239.169,327.86 239.5,319.5C 238.167,319.5 236.833,319.5 235.5,319.5C 235.66,317.801 235.494,316.134 235,314.5C 233.989,315.337 232.822,315.67 231.5,315.5C 231.5,314.5 231.5,313.5 231.5,312.5C 228.833,312.5 226.167,312.5 223.5,312.5C 218.951,323.587 217.285,335.087 218.5,347C 214.848,347.499 211.182,347.665 207.5,347.5C 207.5,348.833 207.5,350.167 207.5,351.5C 210.833,351.5 214.167,351.5 217.5,351.5C 217.665,354.85 217.498,358.183 217,361.5C 216.5,362 216,362.5 215.5,363C 218.146,363.497 220.813,363.664 223.5,363.5C 223.5,364.833 223.5,366.167 223.5,367.5C 225.833,367.5 228.167,367.5 230.5,367.5C 230.567,369.401 230.233,371.234 229.5,373C 230.065,375.298 231.232,376.131 233,375.5C 239.388,379.154 244.388,377.82 248,371.5C 248.333,371.833 248.667,372.167 249,372.5C 252.992,371.61 256.992,370.61 261,369.5C 262.812,369.493 264.312,370.16 265.5,371.5C 267.309,369.512 269.476,368.178 272,367.5C 276.304,368.571 280.47,369.904 284.5,371.5C 288.359,370.038 291.859,370.705 295,373.5C 295.684,372.216 295.517,371.049 294.5,370C 295.672,369.581 296.672,368.915 297.5,368C 302.489,367.501 307.489,367.334 312.5,367.5C 312.358,370.617 311.024,373.117 308.5,375C 310.218,375.346 311.885,375.846 313.5,376.5C 314.65,378.763 315.65,381.096 316.5,383.5C 317.478,383.023 318.311,382.357 319,381.5C 319.644,377.432 318.477,373.932 315.5,371C 316.951,366.873 316.284,363.04 313.5,359.5C 312.488,352.879 312.488,346.546 313.5,340.5C 314.208,338.548 315.375,336.881 317,335.5C 317.684,334.216 317.517,333.049 316.5,332C 317.025,331.308 317.692,330.808 318.5,330.5C 321.376,332.056 324.042,333.722 326.5,335.5C 327.25,329.971 324.917,326.971 319.5,326.5C 319.5,321.5 319.5,316.5 319.5,311.5C 322.695,312.039 325.195,311.039 327,308.5C 327.5,301.508 327.666,294.508 327.5,287.5C 317.344,288.051 317.011,286.884 326.5,284C 328.209,277.965 325.875,275.465 319.5,276.5C 319.67,275.178 319.337,274.011 318.5,273C 314.779,272.356 311.113,271.523 307.5,270.5C 306.833,270.833 306.167,271.167 305.5,271.5C 299.508,269.208 293.675,266.541 288,263.5C 286.937,261.084 286.104,258.584 285.5,256C 287.459,253.706 287.793,251.206 286.5,248.5C 285.227,251.441 283.227,253.774 280.5,255.5C 279.675,251.878 279.175,248.211 279,244.5C 278.1,246.398 276.934,248.064 275.5,249.5C 273.554,247.956 273.054,245.956 274,243.5C 281.177,237.095 286.011,238.428 288.5,247.5C 292.157,245.562 294.157,246.562 294.5,250.5 Z"/></g>
<g><path style="opacity:1" fill="#36323c" d="M 313.5,256.5 C 316.084,257.048 317.084,258.715 316.5,261.5C 325.185,261.536 333.851,261.203 342.5,260.5C 342.5,262.5 342.5,264.5 342.5,266.5C 341.549,265.081 341.216,263.415 341.5,261.5C 339.05,261.298 336.717,261.631 334.5,262.5C 323.813,262.832 313.146,262.499 302.5,261.5C 305.642,260.833 308.642,260.166 311.5,259.5C 314.248,259.598 314.914,258.598 313.5,256.5 Z"/></g>
<g><path style="opacity:1" fill="#c1b7bf" d="M 210.5,259.5 C 205.695,260.487 200.695,260.821 195.5,260.5C 195.5,261.5 195.5,262.5 195.5,263.5C 202.809,264.248 210.142,264.582 217.5,264.5C 220.059,264.198 222.393,264.532 224.5,265.5C 212.714,266.063 201.047,265.229 189.5,263C 187.109,261.691 187.109,260.691 189.5,260C 196.492,259.5 203.492,259.334 210.5,259.5 Z"/></g>
<g><path style="opacity:1" fill="#8e878a" d="M 342.5,266.5 C 343.11,267.391 343.443,268.391 343.5,269.5C 337.089,268.24 330.755,266.74 324.5,265C 316.173,264.5 307.84,264.334 299.5,264.5C 297.973,264.573 296.973,263.906 296.5,262.5C 309.314,263.764 321.98,263.764 334.5,262.5C 336.717,261.631 339.05,261.298 341.5,261.5C 341.216,263.415 341.549,265.081 342.5,266.5 Z"/></g>
<g><path style="opacity:1" fill="#bab1b5" d="M 299.5,264.5 C 307.84,264.334 316.173,264.5 324.5,265C 330.755,266.74 337.089,268.24 343.5,269.5C 344.634,272.37 345.3,275.37 345.5,278.5C 342.47,276.409 341.136,273.409 341.5,269.5C 340.5,269.5 339.5,269.5 338.5,269.5C 324.864,271.562 311.864,269.895 299.5,264.5 Z"/></g>
<g><path style="opacity:1" fill="#638294" d="M 418.5,123.5 C 417.352,126.962 417.352,130.462 418.5,134C 416.067,140.527 414.9,147.36 415,154.5C 412.717,158.618 410.884,162.951 409.5,167.5C 411.114,170.595 410.614,173.261 408,175.5C 407.833,178 407.667,180.5 407.5,183C 409.301,189.167 410.301,195.667 410.5,202.5C 410.923,207.147 410.923,211.647 410.5,216C 411.167,218 411.833,220 412.5,222C 408.489,224.402 407.656,227.569 410,231.5C 412.942,229.672 414.109,227.005 413.5,223.5C 415.5,223.5 417.5,223.5 419.5,223.5C 419.747,229.541 419.414,235.541 418.5,241.5C 421.608,244.867 424.608,248.367 427.5,252C 426.584,252.374 425.75,252.874 425,253.5C 424.141,256.659 422.975,259.659 421.5,262.5C 419.591,263.348 417.591,263.682 415.5,263.5C 415.5,266.167 415.5,268.833 415.5,271.5C 425.886,271.809 436.219,271.476 446.5,270.5C 447.495,276.128 447.829,281.794 447.5,287.5C 450.167,287.5 452.833,287.5 455.5,287.5C 456.167,293.5 453.5,296.167 447.5,295.5C 447.665,298.518 447.498,301.518 447,304.5C 442.481,308.022 438.315,311.855 434.5,316C 435.973,316.71 436.64,317.876 436.5,319.5C 437.833,319.5 439.167,319.5 440.5,319.5C 440.387,325.115 437.554,328.448 432,329.5C 431.505,331.473 431.338,333.473 431.5,335.5C 428.5,335.5 425.5,335.5 422.5,335.5C 422.642,338.617 423.976,341.117 426.5,343C 430.821,343.499 435.154,343.666 439.5,343.5C 439.5,346.167 439.5,348.833 439.5,351.5C 431.5,351.5 423.5,351.5 415.5,351.5C 415.5,343.5 415.5,335.5 415.5,327.5C 420.833,327.5 426.167,327.5 431.5,327.5C 431.5,322.167 431.5,316.833 431.5,311.5C 434.695,312.039 437.195,311.039 439,308.5C 439.5,301.508 439.666,294.508 439.5,287.5C 431.5,287.5 423.5,287.5 415.5,287.5C 415.5,295.5 415.5,303.5 415.5,311.5C 409.5,310.833 406.833,313.5 407.5,319.5C 410.167,319.5 412.833,319.5 415.5,319.5C 415.662,321.527 415.495,323.527 415,325.5C 410.136,327.191 407.303,330.524 406.5,335.5C 398.391,336.114 390.558,335.447 383,333.5C 380.865,335.278 378.365,335.945 375.5,335.5C 375.649,336.552 375.483,337.552 375,338.5C 373.195,336.68 371.028,335.514 368.5,335C 369.641,334.259 369.641,333.425 368.5,332.5C 363.602,331.763 359.935,329.263 357.5,325C 358.704,322.723 360.37,322.223 362.5,323.5C 361.371,325.529 361.871,325.863 364,324.5C 366.157,327.078 367.323,327.078 367.5,324.5C 368.167,324.833 368.833,325.167 369.5,325.5C 371.22,324.066 373.22,323.233 375.5,323C 377.688,318.168 379.521,318.335 381,323.5C 384.16,321.99 384.327,320.157 381.5,318C 384.223,311.444 383.89,304.944 380.5,298.5C 381.594,294.425 383.428,290.758 386,287.5C 386.167,284.333 386.333,281.167 386.5,278C 381.71,268.597 384.71,263.597 395.5,263C 398.412,260.256 398.578,257.756 396,255.5C 392.078,257.312 387.911,257.979 383.5,257.5C 382.651,261.438 381.984,265.438 381.5,269.5C 381.343,273.2 382.009,276.7 383.5,280C 382.237,282.386 380.403,284.219 378,285.5C 377.86,288.043 377.194,290.377 376,292.5C 375.828,298.681 375.328,304.681 374.5,310.5C 374.334,303.825 374.5,297.158 375,290.5C 375.743,287.489 377.076,284.822 379,282.5C 379.027,273.384 379.861,264.384 381.5,255.5C 385.163,256.112 388.83,256.279 392.5,256C 393.823,255.184 394.489,254.017 394.5,252.5C 396.95,250.371 398.617,247.704 399.5,244.5C 401.498,242.4 403.665,240.4 406,238.5C 406.577,231.5 407.077,224.5 407.5,217.5C 407.392,203.457 406.892,189.457 406,175.5C 408.515,164.927 410.515,154.261 412,143.5C 412.278,142.584 412.778,141.918 413.5,141.5C 414.222,141.082 414.722,140.416 415,139.5C 415.333,135.5 415.667,131.5 416,127.5C 416.2,125.68 417.034,124.347 418.5,123.5 Z"/></g>
<g><path style="opacity:1" fill="#70636f" d="M 170.5,264.5 C 169.006,271.392 168.173,278.392 168,285.5C 167.623,286.942 166.79,287.942 165.5,288.5C 165.821,287.183 166.154,285.849 166.5,284.5C 165.246,282.666 164.579,280.666 164.5,278.5C 165.117,278.389 165.617,278.056 166,277.5C 166.838,274.148 167.671,270.815 168.5,267.5C 169.167,266.5 169.833,265.5 170.5,264.5 Z"/></g>
<g><path style="opacity:1" fill="#648493" d="M 439.5,351.5 C 439.5,362.167 439.5,372.833 439.5,383.5C 436.833,383.5 434.167,383.5 431.5,383.5C 431.5,386.167 431.5,388.833 431.5,391.5C 428.833,391.5 426.167,391.5 423.5,391.5C 423.595,395.225 423.762,398.891 424,402.5C 423.215,404.286 422.049,405.786 420.5,407C 416.047,408.109 414.38,410.942 415.5,415.5C 412.833,415.5 410.167,415.5 407.5,415.5C 407.232,421.382 407.566,427.215 408.5,433C 407.013,437.154 404.18,439.987 400,441.5C 399.501,446.155 399.334,450.821 399.5,455.5C 388.833,455.5 378.167,455.5 367.5,455.5C 367.664,458.187 367.497,460.854 367,463.5C 365.663,460.998 363.829,458.998 361.5,457.5C 363.029,455.812 364.863,454.479 367,453.5C 367.495,451.527 367.662,449.527 367.5,447.5C 364.833,447.5 362.167,447.5 359.5,447.5C 360.167,441.5 357.5,438.833 351.5,439.5C 350.833,442.167 350.167,444.833 349.5,447.5C 347.167,447.5 344.833,447.5 342.5,447.5C 343.608,445.305 343.441,443.305 342,441.5C 338.641,446.083 336.141,451.083 334.5,456.5C 332.568,455.48 330.568,455.313 328.5,456C 325.913,459.101 322.58,461.101 318.5,462C 319.38,463.356 319.714,464.856 319.5,466.5C 317.801,466.34 316.134,466.506 314.5,467C 314.957,467.414 315.291,467.914 315.5,468.5C 311.878,469.659 308.211,469.825 304.5,469C 306.055,467.354 307.721,467.021 309.5,468C 310.883,466.539 310.549,465.706 308.5,465.5C 311.873,464.386 314.54,462.386 316.5,459.5C 319.977,457.663 323.643,455.996 327.5,454.5C 330.123,450.209 333.456,446.543 337.5,443.5C 344.329,431.688 347.662,418.854 347.5,405C 344.407,378.413 344.907,351.913 349,325.5C 349.5,324.5 350,323.5 350.5,322.5C 348.777,320.132 348.11,317.466 348.5,314.5C 348.5,310.833 348.5,307.167 348.5,303.5C 349.483,307.298 349.817,311.298 349.5,315.5C 351.06,315.481 352.56,315.148 354,314.5C 359.015,317.783 364.515,319.783 370.5,320.5C 370.192,318.076 370.526,315.743 371.5,313.5C 373.213,313.121 374.213,312.121 374.5,310.5C 375.328,304.681 375.828,298.681 376,292.5C 377.194,290.377 377.86,288.043 378,285.5C 380.403,284.219 382.237,282.386 383.5,280C 382.009,276.7 381.343,273.2 381.5,269.5C 381.984,265.438 382.651,261.438 383.5,257.5C 387.911,257.979 392.078,257.312 396,255.5C 398.578,257.756 398.412,260.256 395.5,263C 384.71,263.597 381.71,268.597 386.5,278C 386.333,281.167 386.167,284.333 386,287.5C 383.428,290.758 381.594,294.425 380.5,298.5C 383.89,304.944 384.223,311.444 381.5,318C 384.327,320.157 384.16,321.99 381,323.5C 379.521,318.335 377.688,318.168 375.5,323C 373.22,323.233 371.22,324.066 369.5,325.5C 368.833,325.167 368.167,324.833 367.5,324.5C 367.323,327.078 366.157,327.078 364,324.5C 361.871,325.863 361.371,325.529 362.5,323.5C 360.37,322.223 358.704,322.723 357.5,325C 359.935,329.263 363.602,331.763 368.5,332.5C 369.641,333.425 369.641,334.259 368.5,335C 371.028,335.514 373.195,336.68 375,338.5C 375.483,337.552 375.649,336.552 375.5,335.5C 378.365,335.945 380.865,335.278 383,333.5C 390.558,335.447 398.391,336.114 406.5,335.5C 407.303,330.524 410.136,327.191 415,325.5C 415.495,323.527 415.662,321.527 415.5,319.5C 412.833,319.5 410.167,319.5 407.5,319.5C 406.833,313.5 409.5,310.833 415.5,311.5C 415.5,303.5 415.5,295.5 415.5,287.5C 423.5,287.5 431.5,287.5 439.5,287.5C 439.666,294.508 439.5,301.508 439,308.5C 437.195,311.039 434.695,312.039 431.5,311.5C 431.5,316.833 431.5,322.167 431.5,327.5C 426.167,327.5 420.833,327.5 415.5,327.5C 415.5,335.5 415.5,343.5 415.5,351.5C 423.5,351.5 431.5,351.5 439.5,351.5 Z"/></g>
<g><path style="opacity:1" fill="#675962" d="M 165.5,289.5 C 164.52,292.116 163.02,294.449 161,296.5C 161.841,304.17 158.675,309.17 151.5,311.5C 153.771,309.734 155.937,307.734 158,305.5C 157.568,298.701 160.068,293.368 165.5,289.5 Z"/></g>
<g><path style="opacity:1" fill="#7e797c" d="M 134.5,315.5 C 133.5,315.5 132.5,315.5 131.5,315.5C 131.425,318.206 131.092,320.873 130.5,323.5C 129.47,320.223 129.803,316.89 131.5,313.5C 132.739,313.942 133.739,314.609 134.5,315.5 Z"/></g>
<g><path style="opacity:1" fill="#494348" d="M 135.5,316.5 C 140.377,319.221 141.71,323.221 139.5,328.5C 139.167,328.5 138.833,328.5 138.5,328.5C 138.72,324.047 137.72,320.047 135.5,316.5 Z"/></g>
<g><path style="opacity:1" fill="#584f53" d="M 262.5,324.5 C 266.5,324.5 270.5,324.5 274.5,324.5C 274.5,324.833 274.5,325.167 274.5,325.5C 266.323,323.597 259.823,325.93 255,332.5C 254.517,333.448 254.351,334.448 254.5,335.5C 261.175,335.334 267.842,335.5 274.5,336C 275.416,336.278 276.082,336.778 276.5,337.5C 270.797,337.625 265.13,337.292 259.5,336.5C 257.5,336.5 255.5,336.5 253.5,336.5C 254.155,330.832 257.155,326.832 262.5,324.5 Z"/></g>
<g><path style="opacity:1" fill="#9c9196" d="M 297.5,338.5 C 298.659,334.286 298.659,330.119 297.5,326C 291.509,325.501 285.509,325.334 279.5,325.5C 277.833,325.5 276.167,325.5 274.5,325.5C 274.5,325.167 274.5,324.833 274.5,324.5C 282.556,324.802 290.556,324.469 298.5,323.5C 299.696,324.559 300.363,325.893 300.5,327.5C 299.837,330.806 299.337,334.139 299,337.5C 298.617,338.056 298.117,338.389 297.5,338.5 Z"/></g>
<g><path style="opacity:1" fill="#99979c" d="M 134.5,315.5 C 135.167,315.5 135.5,315.833 135.5,316.5C 137.72,320.047 138.72,324.047 138.5,328.5C 137.833,328.833 137.167,329.167 136.5,329.5C 135.024,325.041 134.358,320.374 134.5,315.5 Z"/></g>
<g><path style="opacity:1" fill="#0c0509" d="M 274.5,325.5 C 276.167,325.5 277.833,325.5 279.5,325.5C 284.985,326.327 290.652,326.827 296.5,327C 297.602,329.401 297.769,331.901 297,334.5C 295.562,335.9 294.729,337.567 294.5,339.5C 290.354,340.647 286.02,340.814 281.5,340C 279.922,338.906 278.255,338.072 276.5,337.5C 276.082,336.778 275.416,336.278 274.5,336C 267.842,335.5 261.175,335.334 254.5,335.5C 254.351,334.448 254.517,333.448 255,332.5C 259.823,325.93 266.323,323.597 274.5,325.5 Z"/></g>
<g><path style="opacity:1" fill="#e0dfe3" d="M 134.5,315.5 C 134.358,320.374 135.024,325.041 136.5,329.5C 135.363,330.789 134.03,331.789 132.5,332.5C 132.59,329.848 131.924,327.515 130.5,325.5C 130.5,324.833 130.5,324.167 130.5,323.5C 131.092,320.873 131.425,318.206 131.5,315.5C 132.5,315.5 133.5,315.5 134.5,315.5 Z"/></g>
<g><path style="opacity:1" fill="#382d36" d="M 279.5,325.5 C 285.509,325.334 291.509,325.501 297.5,326C 298.659,330.119 298.659,334.286 297.5,338.5C 296.609,339.11 295.609,339.443 294.5,339.5C 294.729,337.567 295.562,335.9 297,334.5C 297.769,331.901 297.602,329.401 296.5,327C 290.652,326.827 284.985,326.327 279.5,325.5 Z"/></g>
<g><path style="opacity:1" fill="#0c1214" d="M 130.5,325.5 C 131.924,327.515 132.59,329.848 132.5,332.5C 135.33,334.035 136.663,333.035 136.5,329.5C 137.167,329.167 137.833,328.833 138.5,328.5C 138.833,328.5 139.167,328.5 139.5,328.5C 138.798,330.557 138.465,332.557 138.5,334.5C 136.257,335.474 133.924,335.808 131.5,335.5C 131.5,336.5 131.5,337.5 131.5,338.5C 135.466,339.162 139.466,339.495 143.5,339.5C 140.375,340.479 137.042,340.813 133.5,340.5C 133.5,347.5 133.5,354.5 133.5,361.5C 131.61,361.703 130.11,361.037 129,359.5C 127.901,353.973 126.234,348.64 124,343.5C 119.159,337.802 114.325,332.135 109.5,326.5C 113.837,326.577 117.171,328.41 119.5,332C 118.663,333.011 118.33,334.178 118.5,335.5C 120.661,335.826 122.494,336.826 124,338.5C 123.773,336.312 124.106,333.979 125,331.5C 128.016,330.554 129.85,328.554 130.5,325.5 Z"/></g>
<g><path style="opacity:1" fill="#96979b" d="M 136.5,329.5 C 136.663,333.035 135.33,334.035 132.5,332.5C 134.03,331.789 135.363,330.789 136.5,329.5 Z"/></g>
<g><path style="opacity:1" fill="#130f11" d="M 263.5,390.5 C 259.833,390.5 256.167,390.5 252.5,390.5C 246.833,390.5 241.167,390.5 235.5,390.5C 235.196,389.85 234.863,389.183 234.5,388.5C 237.306,387.832 239.972,387.166 242.5,386.5C 254.751,384.289 267.084,383.122 279.5,383C 286.913,384.675 294.246,386.342 301.5,388C 302.833,388.667 302.833,389.333 301.5,390C 288.838,390.5 276.171,390.667 263.5,390.5 Z"/></g>
<g><path style="opacity:1" fill="#5a5256" d="M 242.5,386.5 C 239.972,387.166 237.306,387.832 234.5,388.5C 234.863,389.183 235.196,389.85 235.5,390.5C 233.824,389.817 233.157,388.483 233.5,386.5C 236.5,386.5 239.5,386.5 242.5,386.5 Z"/></g>
<g><path style="opacity:1" fill="#e3ddd9" d="M 338.5,269.5 C 339.5,269.5 340.5,269.5 341.5,269.5C 341.136,273.409 342.47,276.409 345.5,278.5C 347.069,286.723 348.069,295.056 348.5,303.5C 348.5,307.167 348.5,310.833 348.5,314.5C 346.253,322.61 344.419,330.944 343,339.5C 342.604,358.855 343.104,378.188 344.5,397.5C 344.666,403.509 344.499,409.509 344,415.5C 342.775,420.938 341.275,426.271 339.5,431.5C 334.828,436.318 330.495,441.485 326.5,447C 322.569,450.771 318.236,453.938 313.5,456.5C 313.351,455.448 313.517,454.448 314,453.5C 315.908,451.262 317.908,449.929 320,449.5C 321.239,446.158 323.406,443.492 326.5,441.5C 325.418,441.251 324.085,441.085 322.5,441C 323.167,440.667 323.833,440.333 324.5,440C 323.07,438.12 323.404,436.62 325.5,435.5C 325.998,436.603 326.331,437.603 326.5,438.5C 329.188,435.646 331.688,432.646 334,429.5C 334.423,430.956 335.256,431.456 336.5,431C 334.968,423.814 335.635,416.814 338.5,410C 337.818,405.425 336.818,400.925 335.5,396.5C 336.822,396.67 337.989,396.337 339,395.5C 340.364,389.51 340.864,383.844 340.5,378.5C 339.553,376.941 338.887,375.274 338.5,373.5C 339.472,370.536 339.638,367.536 339,364.5C 337.548,363.093 337.715,361.593 339.5,360C 338.528,356.912 338.528,353.579 339.5,350C 337.537,345.772 336.204,341.439 335.5,337C 335.285,330.92 336.618,330.253 339.5,335C 338.398,337.401 338.231,339.901 339,342.5C 340.886,332.421 342.719,322.587 344.5,313C 343.747,311.513 342.914,311.346 342,312.5C 341.833,311.667 341.667,310.833 341.5,310C 341.615,303.461 341.615,296.961 341.5,290.5C 341.709,289.006 342.376,287.839 343.5,287C 342.484,286.481 341.818,285.647 341.5,284.5C 340.776,279.425 339.776,274.425 338.5,269.5 Z"/></g>
<g><path style="opacity:1" fill="#e7e2de" d="M 252.5,390.5 C 256.167,390.5 259.833,390.5 263.5,390.5C 275.706,391.105 288.04,391.939 300.5,393C 298.749,395.319 296.083,397.319 292.5,399C 287.217,398.976 282.55,400.643 278.5,404C 276.26,404.977 273.927,405.477 271.5,405.5C 271.5,404.167 271.5,402.833 271.5,401.5C 268.821,401.673 266.487,402.673 264.5,404.5C 263.376,403.086 262.376,401.586 261.5,400C 257.167,399.667 252.833,399.333 248.5,399C 249.328,398.085 250.328,397.419 251.5,397C 247.619,395.81 243.619,395.143 239.5,395C 247.834,394.479 248.167,393.813 240.5,393C 245.5,392.667 250.5,392.333 255.5,392C 254.263,391.768 253.263,391.268 252.5,390.5 Z"/></g>
<g><path style="opacity:1" fill="#5a5f65" d="M 339.5,431.5 C 341.275,426.271 342.775,420.938 344,415.5C 344.499,409.509 344.666,403.509 344.5,397.5C 345.222,397.082 345.722,396.416 346,395.5C 347.411,407.959 345.744,419.959 341,431.5C 340.31,432.738 339.81,432.738 339.5,431.5 Z"/></g>
<g><path style="opacity:1" fill="#a2a8b0" d="M 145.5,345.5 C 146.251,400.676 147.251,456.009 148.5,511.5C 148.167,511.5 147.833,511.5 147.5,511.5C 145.813,456.197 145.146,400.863 145.5,345.5 Z"/></g>
<g><path style="opacity:1" fill="#81919b" d="M 348.5,314.5 C 348.11,317.466 348.777,320.132 350.5,322.5C 350,323.5 349.5,324.5 349,325.5C 344.907,351.913 344.407,378.413 347.5,405C 347.662,418.854 344.329,431.688 337.5,443.5C 333.456,446.543 330.123,450.209 327.5,454.5C 323.643,455.996 319.977,457.663 316.5,459.5C 312.461,461.892 308.127,463.225 303.5,463.5C 303.5,463.167 303.5,462.833 303.5,462.5C 306.167,460.833 308.833,459.167 311.5,457.5C 312.167,457.167 312.833,456.833 313.5,456.5C 318.236,453.938 322.569,450.771 326.5,447C 330.495,441.485 334.828,436.318 339.5,431.5C 339.81,432.738 340.31,432.738 341,431.5C 345.744,419.959 347.411,407.959 346,395.5C 345.722,396.416 345.222,397.082 344.5,397.5C 343.104,378.188 342.604,358.855 343,339.5C 344.419,330.944 346.253,322.61 348.5,314.5 Z"/></g>
<g><path style="opacity:1" fill="#9da8b0" d="M 303.5,462.5 C 303.5,462.833 303.5,463.167 303.5,463.5C 289.464,468.918 275.131,469.918 260.5,466.5C 270.839,466.666 281.172,466.5 291.5,466C 295.423,464.537 299.423,463.37 303.5,462.5 Z"/></g>
<g><path style="opacity:1" fill="#e6dcda" d="M 169.5,505.5 C 176.85,505.082 184.184,504.415 191.5,503.5C 193.51,502.935 195.176,501.935 196.5,500.5C 194.611,499.396 192.945,498.063 191.5,496.5C 194.768,495.513 198.102,495.18 201.5,495.5C 201.334,490.156 201.501,484.823 202,479.5C 204.796,476.239 206.796,472.573 208,468.5C 209.867,470.808 210.867,473.475 211,476.5C 214.362,470.354 216.862,464.187 218.5,458C 220.556,457.689 222.556,457.189 224.5,456.5C 229.051,457.592 233.551,458.592 238,459.5C 244.288,457.476 250.455,457.476 256.5,459.5C 260.777,458.394 265.11,458.228 269.5,459C 276.424,460.135 283.091,461.968 289.5,464.5C 296.877,462.136 304.21,459.803 311.5,457.5C 308.833,459.167 306.167,460.833 303.5,462.5C 299.423,463.37 295.423,464.537 291.5,466C 281.172,466.5 270.839,466.666 260.5,466.5C 253.687,465.509 246.687,465.175 239.5,465.5C 236.429,471.751 234.262,478.418 233,485.5C 232.587,494.178 232.087,502.844 231.5,511.5C 203.833,511.5 176.167,511.5 148.5,511.5C 147.251,456.009 146.251,400.676 145.5,345.5C 145.5,337.833 145.5,330.167 145.5,322.5C 145.5,321.167 145.5,319.833 145.5,318.5C 146.822,318.33 147.989,318.663 149,319.5C 149.456,318.256 148.956,317.423 147.5,317C 148.167,316 148.833,315 149.5,314C 155.137,313.597 159.971,311.431 164,307.5C 165.344,304.502 165.511,301.502 164.5,298.5C 166.887,295.836 168.721,292.836 170,289.5C 169.641,284.193 169.641,278.859 170,273.5C 171.438,272.1 172.271,270.433 172.5,268.5C 175.577,268.653 178.411,267.986 181,266.5C 183.185,266.921 185.351,267.421 187.5,268C 186.167,268.667 184.833,269.333 183.5,270C 184.516,271.677 185.516,273.343 186.5,275C 184.282,277.731 182.948,280.898 182.5,284.5C 179.729,287.392 176.729,290.058 173.5,292.5C 171.945,296.386 169.612,299.72 166.5,302.5C 167.96,305.288 167.293,307.455 164.5,309C 164.833,309.333 165.167,309.667 165.5,310C 162.991,311.421 160.657,313.088 158.5,315C 159.451,315.718 159.617,316.551 159,317.5C 156.757,315.718 154.257,315.218 151.5,316C 153.78,316.233 155.78,317.066 157.5,318.5C 155.994,319.747 154.494,319.747 153,318.5C 153.021,322.009 152.188,325.175 150.5,328C 151.019,330.026 151.353,332.026 151.5,334C 150.857,338.863 149.857,343.697 148.5,348.5C 149.113,352.343 149.779,356.176 150.5,360C 148.818,367.74 148.151,375.574 148.5,383.5C 149.5,383.5 150.5,383.5 151.5,383.5C 151.5,394.167 151.5,404.833 151.5,415.5C 152.5,415.5 153.5,415.5 154.5,415.5C 154.149,410.022 154.816,404.688 156.5,399.5C 158.215,407.247 157.548,414.747 154.5,422C 155.761,425.379 155.761,428.712 154.5,432C 156.787,434.048 156.954,436.215 155,438.5C 154.472,444.664 153.972,450.831 153.5,457C 155.487,465.909 156.82,474.909 157.5,484C 157.241,485.261 156.574,486.261 155.5,487C 157.598,489.854 159.931,492.521 162.5,495C 162.043,495.414 161.709,495.914 161.5,496.5C 163.327,498.487 164.327,500.821 164.5,503.5C 162.801,503.34 161.134,503.506 159.5,504C 162.88,504.339 166.213,504.839 169.5,505.5 Z"/></g>
<g><path style="opacity:1" fill="#718c9a" d="M 316.5,459.5 C 314.54,462.386 311.873,464.386 308.5,465.5C 303.524,466.73 298.691,468.396 294,470.5C 293.439,469.978 292.772,469.645 292,469.5C 284.487,470.15 276.987,470.817 269.5,471.5C 264.968,470.86 260.468,470.194 256,469.5C 254.266,470.249 252.433,470.749 250.5,471C 250.833,471.333 251.167,471.667 251.5,472C 250.167,472.333 248.833,472.667 247.5,473C 252.657,474.751 252.324,476.085 246.5,477C 247.206,480.131 247.873,483.298 248.5,486.5C 248.167,487.167 247.833,487.833 247.5,488.5C 248.247,488.736 249.08,489.07 250,489.5C 250.495,491.473 250.662,493.473 250.5,495.5C 249.167,495.5 247.833,495.5 246.5,495.5C 246.513,500.464 247.847,504.964 250.5,509C 252.744,509.05 254.411,509.883 255.5,511.5C 249.833,511.5 244.167,511.5 238.5,511.5C 237.538,497.857 238.371,484.19 241,470.5C 242.022,469.646 242.855,468.646 243.5,467.5C 249.128,466.505 254.794,466.171 260.5,466.5C 275.131,469.918 289.464,468.918 303.5,463.5C 308.127,463.225 312.461,461.892 316.5,459.5 Z"/></g>
<g><path style="opacity:1" fill="#788b99" d="M 144.5,315.5 C 144.198,318.059 144.532,320.393 145.5,322.5C 145.5,330.167 145.5,337.833 145.5,345.5C 145.146,400.863 145.813,456.197 147.5,511.5C 146.5,511.5 145.5,511.5 144.5,511.5C 144.752,481.848 144.086,452.181 142.5,422.5C 143.29,394.202 143.957,365.869 144.5,337.5C 144.092,329.98 144.092,322.647 144.5,315.5 Z"/></g>
<g><path style="opacity:1" fill="#8e9da9" d="M 260.5,466.5 C 254.794,466.171 249.128,466.505 243.5,467.5C 242.855,468.646 242.022,469.646 241,470.5C 238.371,484.19 237.538,497.857 238.5,511.5C 236.167,511.5 233.833,511.5 231.5,511.5C 232.087,502.844 232.587,494.178 233,485.5C 234.262,478.418 236.429,471.751 239.5,465.5C 246.687,465.175 253.687,465.509 260.5,466.5 Z"/></g>
</svg>
