<?xml version="1.0" encoding="UTF-8"?>
<!DOCTYPE svg PUBLIC "-//W3C//DTD SVG 1.1//EN" "http://www.w3.org/Graphics/SVG/1.1/DTD/svg11.dtd">
<svg xmlns="http://www.w3.org/2000/svg" version="1.1" width="512px" height="512px" style="shape-rendering:geometricPrecision; text-rendering:geometricPrecision; image-rendering:optimizeQuality; fill-rule:evenodd; clip-rule:evenodd" xmlns:xlink="http://www.w3.org/1999/xlink">
<g><path style="opacity:1" fill="#638294" d="M -0.5,-0.5 C 117.5,-0.5 235.5,-0.5 353.5,-0.5C 353.773,1.45101 353.107,2.95101 351.5,4C 347.5,4.16667 343.5,4.33333 339.5,4.5C 334.858,4.40842 330.358,3.74176 326,2.5C 320.848,5.12838 315.681,5.12838 310.5,2.5C 309.554,2.98672 308.554,3.32006 307.5,3.5C 300.873,2.43732 294.206,1.77065 287.5,1.5C 287.5,2.5 287.5,3.5 287.5,4.5C 275.156,3.62372 262.823,3.62372 250.5,4.5C 247.869,4.67934 245.535,4.01267 243.5,2.5C 242.5,3.16667 241.5,3.83333 240.5,4.5C 166.884,3.95697 93.217,3.79031 19.5,4C 16.5015,5.04652 15.0015,7.21318 15,10.5C 13.3375,8.84206 12.5041,6.84206 12.5,4.5C 11.1266,4.34332 9.79323,4.50999 8.5,5C 7.06213,6.56861 5.56213,8.06861 4,9.5C 4.13937,32.809 3.63937,56.1423 2.5,79.5C 1.48224,80.1925 0.482236,80.8592 -0.5,81.5C -0.5,54.1667 -0.5,26.8333 -0.5,-0.5 Z"/></g>
<g><path style="opacity:1" fill="#628495" d="M 353.5,-0.5 C 406.167,-0.5 458.833,-0.5 511.5,-0.5C 511.5,170.167 511.5,340.833 511.5,511.5C 484.833,511.5 458.167,511.5 431.5,511.5C 431.5,510.167 431.5,508.833 431.5,507.5C 404.352,506.463 377.518,506.463 351,507.5C 347.75,505.795 347.916,504.295 351.5,503C 349.842,501.337 347.842,500.504 345.5,500.5C 345.5,498.833 345.5,497.167 345.5,495.5C 342.167,495.5 338.833,495.5 335.5,495.5C 334.277,489.463 334.777,483.463 337,477.5C 339.133,476.745 340.8,475.412 342,473.5C 342.333,475.5 342.667,477.5 343,479.5C 344.45,475.56 347.284,473.893 351.5,474.5C 351.579,475.93 351.246,477.264 350.5,478.5C 356.128,479.495 361.794,479.829 367.5,479.5C 367.335,476.15 367.502,472.817 368,469.5C 369.667,470.5 371.333,471.5 373,472.5C 376.394,471.544 379.894,471.211 383.5,471.5C 383.34,469.801 383.506,468.134 384,466.5C 386.28,465.914 388.447,465.08 390.5,464C 388.519,463.395 388.185,462.395 389.5,461C 388.027,460.29 387.36,459.124 387.5,457.5C 395.082,455.746 399.582,451.413 401,444.5C 406.732,442.91 407.565,444.076 403.5,448C 404.793,448.49 406.127,448.657 407.5,448.5C 407.338,446.473 407.505,444.473 408,442.5C 409.444,444.155 411.278,444.822 413.5,444.5C 413.439,442.408 412.439,440.908 410.5,440C 411.448,439.517 412.448,439.351 413.5,439.5C 413.187,436.753 413.52,434.086 414.5,431.5C 415.088,433.911 416.255,435.911 418,437.5C 417.953,432.49 417.453,427.49 416.5,422.5C 417.098,421.205 417.598,419.872 418,418.5C 418.603,421.629 419.436,424.629 420.5,427.5C 422.219,424.952 423.552,425.285 424.5,428.5C 424.833,427.833 425.167,427.167 425.5,426.5C 424.638,424.913 423.971,423.246 423.5,421.5C 425.243,414.285 425.91,406.952 425.5,399.5C 424.5,399.5 423.5,399.5 422.5,399.5C 423.694,391.311 422.694,383.311 419.5,375.5C 418.833,377.167 418.167,378.833 417.5,380.5C 416.708,378.535 416.041,376.535 415.5,374.5C 413.433,373.866 411.6,372.866 410,371.5C 408.766,368.58 407.766,365.58 407,362.5C 406.333,361.167 405.333,360.167 404,359.5C 403.013,356.303 403.513,353.47 405.5,351C 403.655,349.872 401.655,349.372 399.5,349.5C 399.107,344.855 397.774,340.522 395.5,336.5C 396.931,332.032 398.264,327.532 399.5,323C 397.887,322.911 396.72,323.745 396,325.5C 395.71,327.952 395.044,330.285 394,332.5C 390.945,329.578 390.778,326.411 393.5,323C 393.37,321.941 392.87,321.108 392,320.5C 391.308,327.008 388.308,328.675 383,325.5C 382.005,326.066 381.172,326.733 380.5,327.5C 376.635,326.294 374.635,323.627 374.5,319.5C 375.5,319.5 376.5,319.5 377.5,319.5C 377.5,314.167 377.5,308.833 377.5,303.5C 379.5,303.5 381.5,303.5 383.5,303.5C 383.5,295.5 383.5,287.5 383.5,279.5C 388.833,279.5 394.167,279.5 399.5,279.5C 399.184,276.022 399.684,272.688 401,269.5C 405.5,265.167 410,260.833 414.5,256.5C 412.955,255.548 411.288,255.215 409.5,255.5C 409.5,250.167 409.5,244.833 409.5,239.5C 411.288,239.785 412.955,239.452 414.5,238.5C 410,234.167 405.5,229.833 401,225.5C 399.684,222.312 399.184,218.978 399.5,215.5C 393.5,216.167 390.833,213.5 391.5,207.5C 388.833,207.5 386.167,207.5 383.5,207.5C 383.5,202.167 383.5,196.833 383.5,191.5C 380.833,191.5 378.167,191.5 375.5,191.5C 375.5,186.167 375.5,180.833 375.5,175.5C 372.833,175.5 370.167,175.5 367.5,175.5C 367.718,170.789 367.385,166.122 366.5,161.5C 367.108,158.855 367.608,156.188 368,153.5C 372.864,151.809 375.697,148.476 376.5,143.5C 378.604,143.799 380.604,143.466 382.5,142.5C 372.5,132.5 362.5,122.5 352.5,112.5C 348.878,111.341 345.211,111.175 341.5,112C 343.422,113.46 344.089,115.127 343.5,117C 345.014,118.439 345.347,119.939 344.5,121.5C 343.334,119.261 342.001,119.261 340.5,121.5C 338.852,120.19 337.186,118.857 335.5,117.5C 333.257,116.526 330.924,116.192 328.5,116.5C 327.457,112.486 324.791,110.82 320.5,111.5C 324.92,106.374 329.587,101.374 334.5,96.5C 332.257,95.5258 329.924,95.1924 327.5,95.5C 328.167,89.5 325.5,86.8333 319.5,87.5C 319.5,84.8333 319.5,82.1667 319.5,79.5C 314.167,79.5 308.833,79.5 303.5,79.5C 303.5,78.1667 303.5,76.8333 303.5,75.5C 292.833,75.5 282.167,75.5 271.5,75.5C 271.5,76.8333 271.5,78.1667 271.5,79.5C 266.167,79.5 260.833,79.5 255.5,79.5C 255.5,78.1667 255.5,76.8333 255.5,75.5C 239.5,75.5 223.5,75.5 207.5,75.5C 207.5,76.8333 207.5,78.1667 207.5,79.5C 205.049,78.0979 202.716,76.4312 200.5,74.5C 197.223,75.2537 193.89,75.7537 190.5,76C 189.333,77.1667 188.167,78.3333 187,79.5C 184.814,77.2223 183.98,74.5556 184.5,71.5C 183.833,73.1667 183.167,74.8333 182.5,76.5C 181.253,73.0087 179.753,69.6753 178,66.5C 177.668,70.6947 176.835,74.6947 175.5,78.5C 172.833,78.8333 170.167,79.1667 167.5,79.5C 167.663,77.1432 167.497,74.8098 167,72.5C 165.989,71.6634 164.822,71.33 163.5,71.5C 162.572,74.1296 161.572,76.7963 160.5,79.5C 159.749,78.624 159.249,77.624 159,76.5C 155.179,78.7329 151.345,81.0663 147.5,83.5C 145.724,81.5532 143.724,81.2199 141.5,82.5C 143.401,83.935 143.734,85.6017 142.5,87.5C 140.476,85.6419 138.309,83.9752 136,82.5C 135.517,83.448 135.351,84.448 135.5,85.5C 132.525,85.6931 130.025,84.6931 128,82.5C 127.506,84.1341 127.34,85.8008 127.5,87.5C 129.942,87.3537 130.609,88.187 129.5,90C 123.629,89.3984 118.629,91.0651 114.5,95C 113.552,95.4828 112.552,95.6495 111.5,95.5C 111.649,96.552 111.483,97.552 111,98.5C 110,97.1667 109,97.1667 108,98.5C 107.506,100.134 107.34,101.801 107.5,103.5C 104.833,103.5 102.167,103.5 99.5,103.5C 99.9215,106.657 98.7548,108.99 96,110.5C 95.6667,109.5 95.3333,108.5 95,107.5C 94.6667,107.833 94.3333,108.167 94,108.5C 94.4382,111.199 94.2716,113.865 93.5,116.5C 92.8333,114.833 92.1667,113.167 91.5,111.5C 90.52,114.086 90.1866,116.753 90.5,119.5C 86.7852,119.577 83.1185,119.244 79.5,118.5C 79.8333,121.5 78.5,122.833 75.5,122.5C 75.4802,120.857 76.1468,119.524 77.5,118.5C 75.2459,115.783 73.9125,116.283 73.5,120C 73.9335,121.928 74.6002,123.761 75.5,125.5C 72.966,129.241 72.966,132.908 75.5,136.5C 74.3112,137.429 72.9778,137.762 71.5,137.5C 71.665,134.15 71.4983,130.817 71,127.5C 70.9355,130.763 70.1022,133.763 68.5,136.5C 70.7207,142.613 70.7207,148.78 68.5,155C 68.9624,157.677 69.7957,160.177 71,162.5C 71.3333,161.5 71.6667,160.5 72,159.5C 72.7589,161.635 74.2589,162.968 76.5,163.5C 77.4287,164.689 77.762,166.022 77.5,167.5C 79.5922,167.439 81.0922,166.439 82,164.5C 83.927,166.593 83.7603,168.593 81.5,170.5C 82.6888,171.429 84.0222,171.762 85.5,171.5C 85.96,174.177 86.1267,176.843 86,179.5C 85.3333,180.833 84.6667,180.833 84,179.5C 83.7978,177.744 83.2978,176.078 82.5,174.5C 81.2327,177.239 81.3994,179.906 83,182.5C 85.6215,184.951 87.1215,187.951 87.5,191.5C 90.5719,191.817 93.5719,191.484 96.5,190.5C 100.05,186.785 104.05,183.618 108.5,181C 110.736,175.926 112.903,170.759 115,165.5C 115.308,166.308 115.808,166.975 116.5,167.5C 117.347,165.128 118.681,163.128 120.5,161.5C 121.971,162.381 122.804,163.714 123,165.5C 123.891,175.178 124.891,184.845 126,194.5C 126.232,193.263 126.732,192.263 127.5,191.5C 127.833,209.512 127.5,227.512 126.5,245.5C 125.05,246.655 124.05,248.155 123.5,250C 120.518,250.498 117.518,250.665 114.5,250.5C 112.167,250.5 109.833,250.5 107.5,250.5C 106.432,249.566 105.099,249.232 103.5,249.5C 102.96,253.132 102.627,256.799 102.5,260.5C 104.471,267.848 106.138,275.348 107.5,283C 106.855,289.822 106.355,296.655 106,303.5C 103.984,307.014 103.151,310.681 103.5,314.5C 105.477,317.465 107.311,320.465 109,323.5C 113.374,326.08 117.874,327.08 122.5,326.5C 123.38,339.221 123.38,351.888 122.5,364.5C 120.898,363.45 120.065,364.117 120,366.5C 119.667,365.167 119.333,363.833 119,362.5C 115.534,364.35 113.701,363.35 113.5,359.5C 112.167,359.5 110.833,359.5 109.5,359.5C 110.268,355.17 108.935,351.837 105.5,349.5C 104.117,352.076 103.283,351.742 103,348.5C 101.529,349.381 100.696,350.714 100.5,352.5C 101.478,354.777 102.145,357.11 102.5,359.5C 101.5,359.5 100.5,359.5 99.5,359.5C 99.6495,358.448 99.4828,357.448 99,356.5C 99.1257,360.462 97.7924,363.795 95,366.5C 91.3475,365.005 89.3475,366.339 89,370.5C 88,371.167 87,371.833 86,372.5C 87.0922,379.597 86.5922,386.597 84.5,393.5C 84.7298,395.626 85.7298,397.293 87.5,398.5C 85.838,399.327 84.5046,400.493 83.5,402C 81.6362,403.406 79.8029,403.906 78,403.5C 78.3755,406.762 78.8755,410.095 79.5,413.5C 79.6007,417.073 78.934,420.406 77.5,423.5C 75.5,423.5 73.5,423.5 71.5,423.5C 71.8651,418.579 70.8651,418.245 68.5,422.5C 69.6879,426.088 69.3545,429.588 67.5,433C 67.8333,433.5 68.1667,434 68.5,434.5C 69.2508,433.624 69.7508,432.624 70,431.5C 70.4978,433.527 70.3311,435.527 69.5,437.5C 71.2036,439.514 73.2036,441.181 75.5,442.5C 74.3112,443.429 72.9778,443.762 71.5,443.5C 72.4112,446.914 73.0779,450.414 73.5,454C 73.2774,456.956 72.6107,459.79 71.5,462.5C 71.8333,463.167 72.1667,463.833 72.5,464.5C 74.6525,460.733 75.9859,461.233 76.5,466C 76.5066,467.812 75.84,469.312 74.5,470.5C 75.325,471.386 76.325,471.719 77.5,471.5C 77.9153,473.747 78.5819,475.914 79.5,478C 78.3901,482.614 77.0568,487.114 75.5,491.5C 74.325,491.281 73.325,491.614 72.5,492.5C 73.5896,493.609 73.5896,494.609 72.5,495.5C 71.7189,494.271 71.2189,492.938 71,491.5C 70.6667,491.833 70.3333,492.167 70,492.5C 69.8142,494.9 69.3142,497.234 68.5,499.5C 67.5713,498.311 67.238,496.978 67.5,495.5C 64.2391,495.1 63.5724,496.267 65.5,499C 65.4907,500.404 64.9907,501.57 64,502.5C 61.2809,501.556 58.4475,501.223 55.5,501.5C 55.5,503.167 55.5,504.833 55.5,506.5C 50.4496,506.876 45.4496,507.542 40.5,508.5C 39.8076,507.975 39.3076,507.308 39,506.5C 35.2546,507.297 31.4213,507.797 27.5,508C 33.377,509.753 39.2103,510.253 45,509.5C 48.76,509.486 52.26,510.153 55.5,511.5C 36.8333,511.5 18.1667,511.5 -0.5,511.5C -0.5,468.833 -0.5,426.167 -0.5,383.5C 1.22001,385.658 2.05334,388.325 2,391.5C 2.49742,388.854 2.66409,386.187 2.5,383.5C 3.83333,383.5 5.16667,383.5 6.5,383.5C 6.59578,387.311 7.26245,387.311 8.5,383.5C 9.49979,356.842 9.83313,330.175 9.5,303.5C 10.8734,303.657 12.2068,303.49 13.5,303C 11.9668,298.012 10.9668,292.846 10.5,287.5C 9.50021,260.842 9.16687,234.175 9.5,207.5C 11.288,207.785 12.9547,207.452 14.5,206.5C 14.3333,206.167 14.1667,205.833 14,205.5C 9.29791,200.63 4.46458,195.963 -0.5,191.5C -0.5,154.833 -0.5,118.167 -0.5,81.5C 0.482236,80.8592 1.48224,80.1925 2.5,79.5C 3.63937,56.1423 4.13937,32.809 4,9.5C 5.56213,8.06861 7.06213,6.56861 8.5,5C 9.79323,4.50999 11.1266,4.34332 12.5,4.5C 12.5041,6.84206 13.3375,8.84206 15,10.5C 15.0015,7.21318 16.5015,5.04652 19.5,4C 93.217,3.79031 166.884,3.95697 240.5,4.5C 241.5,3.83333 242.5,3.16667 243.5,2.5C 245.535,4.01267 247.869,4.67934 250.5,4.5C 262.823,3.62372 275.156,3.62372 287.5,4.5C 287.5,3.5 287.5,2.5 287.5,1.5C 294.206,1.77065 300.873,2.43732 307.5,3.5C 308.554,3.32006 309.554,2.98672 310.5,2.5C 315.681,5.12838 320.848,5.12838 326,2.5C 330.358,3.74176 334.858,4.40842 339.5,4.5C 343.5,4.33333 347.5,4.16667 351.5,4C 353.107,2.95101 353.773,1.45101 353.5,-0.5 Z"/></g>
<g><path style="opacity:1" fill="#618293" d="M 207.5,79.5 C 207.211,83.1064 207.544,86.6064 208.5,90C 210.769,90.7581 212.936,90.5914 215,89.5C 221.735,91.3959 228.569,93.0626 235.5,94.5C 237.839,93.5823 239.339,91.9156 240,89.5C 243.167,90 245,91.8333 245.5,95C 250.508,95.5008 255.508,96.0008 260.5,96.5C 260.504,94.1579 261.337,92.1579 263,90.5C 265.666,91.8925 268.166,93.5592 270.5,95.5C 271.251,94.624 271.751,93.624 272,92.5C 274.303,96.0501 276.97,96.3834 280,93.5C 281.762,94.5909 283.596,95.5909 285.5,96.5C 280.88,97.4933 276.214,97.8266 271.5,97.5C 271.5,98.5 271.5,99.5 271.5,100.5C 276.833,100.5 282.167,100.5 287.5,100.5C 287.238,101.978 287.571,103.311 288.5,104.5C 292.196,106.054 295.863,106.387 299.5,105.5C 306.177,106.502 312.843,107.502 319.5,108.5C 319.5,109.5 319.5,110.5 319.5,111.5C 300.88,110.181 282.38,108.181 264,105.5C 245.255,105.456 226.422,105.623 207.5,106C 201.659,107.296 195.826,107.463 190,106.5C 188.5,107 187,107.5 185.5,108C 186.167,108.333 186.833,108.667 187.5,109C 185.844,110.829 183.844,112.163 181.5,113C 174.237,115.253 166.904,117.419 159.5,119.5C 159.5,120.5 159.5,121.5 159.5,122.5C 158.772,124.735 157.439,126.568 155.5,128C 142.771,133.064 134.605,142.231 131,155.5C 128.957,162.012 128.124,168.678 128.5,175.5C 127.512,180.64 127.179,185.974 127.5,191.5C 126.732,192.263 126.232,193.263 126,194.5C 124.891,184.845 123.891,175.178 123,165.5C 122.804,163.714 121.971,162.381 120.5,161.5C 118.681,163.128 117.347,165.128 116.5,167.5C 115.808,166.975 115.308,166.308 115,165.5C 112.903,170.759 110.736,175.926 108.5,181C 104.05,183.618 100.05,186.785 96.5,190.5C 93.5719,191.484 90.5719,191.817 87.5,191.5C 87.1215,187.951 85.6215,184.951 83,182.5C 81.3994,179.906 81.2327,177.239 82.5,174.5C 83.2978,176.078 83.7978,177.744 84,179.5C 84.6667,180.833 85.3333,180.833 86,179.5C 86.1267,176.843 85.96,174.177 85.5,171.5C 84.0222,171.762 82.6888,171.429 81.5,170.5C 83.7603,168.593 83.927,166.593 82,164.5C 81.0922,166.439 79.5922,167.439 77.5,167.5C 77.762,166.022 77.4287,164.689 76.5,163.5C 74.2589,162.968 72.7589,161.635 72,159.5C 71.6667,160.5 71.3333,161.5 71,162.5C 69.7957,160.177 68.9624,157.677 68.5,155C 70.7207,148.78 70.7207,142.613 68.5,136.5C 70.1022,133.763 70.9355,130.763 71,127.5C 71.4983,130.817 71.665,134.15 71.5,137.5C 72.9778,137.762 74.3112,137.429 75.5,136.5C 72.966,132.908 72.966,129.241 75.5,125.5C 74.6002,123.761 73.9335,121.928 73.5,120C 73.9125,116.283 75.2459,115.783 77.5,118.5C 76.1468,119.524 75.4802,120.857 75.5,122.5C 78.5,122.833 79.8333,121.5 79.5,118.5C 83.1185,119.244 86.7852,119.577 90.5,119.5C 90.1866,116.753 90.52,114.086 91.5,111.5C 92.1667,113.167 92.8333,114.833 93.5,116.5C 94.2716,113.865 94.4382,111.199 94,108.5C 94.3333,108.167 94.6667,107.833 95,107.5C 95.3333,108.5 95.6667,109.5 96,110.5C 98.7548,108.99 99.9215,106.657 99.5,103.5C 102.167,103.5 104.833,103.5 107.5,103.5C 107.34,101.801 107.506,100.134 108,98.5C 109,97.1667 110,97.1667 111,98.5C 111.483,97.552 111.649,96.552 111.5,95.5C 112.552,95.6495 113.552,95.4828 114.5,95C 118.629,91.0651 123.629,89.3984 129.5,90C 130.609,88.187 129.942,87.3537 127.5,87.5C 127.34,85.8008 127.506,84.1341 128,82.5C 130.025,84.6931 132.525,85.6931 135.5,85.5C 135.351,84.448 135.517,83.448 136,82.5C 138.309,83.9752 140.476,85.6419 142.5,87.5C 143.734,85.6017 143.401,83.935 141.5,82.5C 143.724,81.2199 145.724,81.5532 147.5,83.5C 151.345,81.0663 155.179,78.7329 159,76.5C 159.249,77.624 159.749,78.624 160.5,79.5C 161.572,76.7963 162.572,74.1296 163.5,71.5C 164.822,71.33 165.989,71.6634 167,72.5C 167.497,74.8098 167.663,77.1432 167.5,79.5C 170.167,79.1667 172.833,78.8333 175.5,78.5C 176.835,74.6947 177.668,70.6947 178,66.5C 179.753,69.6753 181.253,73.0087 182.5,76.5C 183.167,74.8333 183.833,73.1667 184.5,71.5C 183.98,74.5556 184.814,77.2223 187,79.5C 188.167,78.3333 189.333,77.1667 190.5,76C 193.89,75.7537 197.223,75.2537 200.5,74.5C 202.716,76.4312 205.049,78.0979 207.5,79.5 Z"/></g>
<g><path style="opacity:1" fill="#628396" d="M 320.5,111.5 C 320.167,111.5 319.833,111.5 319.5,111.5C 319.5,110.5 319.5,109.5 319.5,108.5C 312.843,107.502 306.177,106.502 299.5,105.5C 295.863,106.387 292.196,106.054 288.5,104.5C 287.571,103.311 287.238,101.978 287.5,100.5C 282.167,100.5 276.833,100.5 271.5,100.5C 271.5,99.5 271.5,98.5 271.5,97.5C 276.214,97.8266 280.88,97.4933 285.5,96.5C 283.596,95.5909 281.762,94.5909 280,93.5C 276.97,96.3834 274.303,96.0501 272,92.5C 271.751,93.624 271.251,94.624 270.5,95.5C 268.166,93.5592 265.666,91.8925 263,90.5C 261.337,92.1579 260.504,94.1579 260.5,96.5C 255.508,96.0008 250.508,95.5008 245.5,95C 245,91.8333 243.167,90 240,89.5C 239.339,91.9156 237.839,93.5823 235.5,94.5C 228.569,93.0626 221.735,91.3959 215,89.5C 212.936,90.5914 210.769,90.7581 208.5,90C 207.544,86.6064 207.211,83.1064 207.5,79.5C 207.5,78.1667 207.5,76.8333 207.5,75.5C 223.5,75.5 239.5,75.5 255.5,75.5C 255.5,76.8333 255.5,78.1667 255.5,79.5C 260.833,79.5 266.167,79.5 271.5,79.5C 271.5,78.1667 271.5,76.8333 271.5,75.5C 282.167,75.5 292.833,75.5 303.5,75.5C 303.5,76.8333 303.5,78.1667 303.5,79.5C 308.833,79.5 314.167,79.5 319.5,79.5C 319.5,82.1667 319.5,84.8333 319.5,87.5C 325.5,86.8333 328.167,89.5 327.5,95.5C 329.924,95.1924 332.257,95.5258 334.5,96.5C 329.587,101.374 324.92,106.374 320.5,111.5 Z"/></g>
<g><path style="opacity:1" fill="#596f7a" d="M 319.5,111.5 C 319.833,111.5 320.167,111.5 320.5,111.5C 324.791,110.82 327.457,112.486 328.5,116.5C 325.42,115.483 322.42,114.316 319.5,113C 281.232,109.497 242.899,107.83 204.5,108C 199.5,109 194.5,110 189.5,111C 179.162,114.004 169.162,117.838 159.5,122.5C 159.5,121.5 159.5,120.5 159.5,119.5C 166.904,117.419 174.237,115.253 181.5,113C 183.844,112.163 185.844,110.829 187.5,109C 186.833,108.667 186.167,108.333 185.5,108C 187,107.5 188.5,107 190,106.5C 195.826,107.463 201.659,107.296 207.5,106C 226.422,105.623 245.255,105.456 264,105.5C 282.38,108.181 300.88,110.181 319.5,111.5 Z"/></g>
<g><path style="opacity:1" fill="#618396" d="M 380.5,327.5 C 381.172,328.267 382.005,328.934 383,329.5C 383.5,336.826 383.666,344.159 383.5,351.5C 382.167,351.5 380.833,351.5 379.5,351.5C 379.5,356.833 379.5,362.167 379.5,367.5C 377.396,367.201 375.396,367.534 373.5,368.5C 374.993,370.364 375.66,372.53 375.5,375C 374.896,377.887 374.229,380.72 373.5,383.5C 374.833,383.5 376.167,383.5 377.5,383.5C 377.628,385.655 377.128,387.655 376,389.5C 374.886,385.701 373.553,385.701 372,389.5C 370.859,396.234 369.026,402.734 366.5,409C 367.28,410.073 367.113,411.24 366,412.5C 365.5,412 365,411.5 364.5,411C 365.24,409.215 365.907,407.382 366.5,405.5C 366.058,396.451 365.725,387.284 365.5,378C 365.667,372.5 365.833,367 366,361.5C 366.333,363.5 366.667,365.5 367,367.5C 367.822,355.312 366.822,343.312 364,331.5C 363.832,311.329 363.332,291.329 362.5,271.5C 362.785,248.658 362.785,225.991 362.5,203.5C 357.134,191.044 353.467,178.044 351.5,164.5C 350.267,154.291 349.1,143.957 348,133.5C 346.059,129.952 344.393,126.286 343,122.5C 342.329,121.748 341.496,121.414 340.5,121.5C 342.001,119.261 343.334,119.261 344.5,121.5C 345.347,119.939 345.014,118.439 343.5,117C 344.089,115.127 343.422,113.46 341.5,112C 345.211,111.175 348.878,111.341 352.5,112.5C 362.5,122.5 372.5,132.5 382.5,142.5C 380.604,143.466 378.604,143.799 376.5,143.5C 375.697,148.476 372.864,151.809 368,153.5C 367.608,156.188 367.108,158.855 366.5,161.5C 367.385,166.122 367.718,170.789 367.5,175.5C 370.167,175.5 372.833,175.5 375.5,175.5C 375.5,180.833 375.5,186.167 375.5,191.5C 378.167,191.5 380.833,191.5 383.5,191.5C 383.5,196.833 383.5,202.167 383.5,207.5C 386.167,207.5 388.833,207.5 391.5,207.5C 390.833,213.5 393.5,216.167 399.5,215.5C 399.184,218.978 399.684,222.312 401,225.5C 405.5,229.833 410,234.167 414.5,238.5C 412.955,239.452 411.288,239.785 409.5,239.5C 409.5,244.833 409.5,250.167 409.5,255.5C 411.288,255.215 412.955,255.548 414.5,256.5C 410,260.833 405.5,265.167 401,269.5C 399.684,272.688 399.184,276.022 399.5,279.5C 394.167,279.5 388.833,279.5 383.5,279.5C 383.5,287.5 383.5,295.5 383.5,303.5C 381.5,303.5 379.5,303.5 377.5,303.5C 377.5,308.833 377.5,314.167 377.5,319.5C 376.5,319.5 375.5,319.5 374.5,319.5C 374.635,323.627 376.635,326.294 380.5,327.5 Z"/></g>
<g><path style="opacity:1" fill="#617884" d="M 328.5,116.5 C 330.924,116.192 333.257,116.526 335.5,117.5C 337.186,118.857 338.852,120.19 340.5,121.5C 341.496,121.414 342.329,121.748 343,122.5C 344.393,126.286 346.059,129.952 348,133.5C 349.1,143.957 350.267,154.291 351.5,164.5C 349.733,153.453 347.233,142.453 344,131.5C 340.259,124.924 335.093,119.924 328.5,116.5 Z"/></g>
<g><path style="opacity:1" fill="#040302" d="M 328.5,116.5 C 335.093,119.924 340.259,124.924 344,131.5C 347.233,142.453 349.733,153.453 351.5,164.5C 353.467,178.044 357.134,191.044 362.5,203.5C 361.592,242.158 361.258,280.824 361.5,319.5C 360.987,332.894 359.987,346.394 358.5,360C 359.12,369.508 359.453,379.008 359.5,388.5C 358.613,392.15 357.947,395.817 357.5,399.5C 354.167,399.5 350.833,399.5 347.5,399.5C 347.265,403.97 345.432,407.637 342,410.5C 341.055,414.114 340.388,417.781 340,421.5C 339.411,423.863 337.911,424.863 335.5,424.5C 335.11,427.466 335.777,430.132 337.5,432.5C 337.192,433.308 336.692,433.975 336,434.5C 335.501,438.821 335.334,443.154 335.5,447.5C 334.448,447.351 333.448,447.517 332.5,448C 333.516,448.519 334.182,449.353 334.5,450.5C 333.594,454.164 332.094,457.498 330,460.5C 329.506,462.134 329.34,463.801 329.5,465.5C 324.563,475.04 319.897,484.707 315.5,494.5C 311.828,499.524 309.495,505.19 308.5,511.5C 248.5,511.5 188.5,511.5 128.5,511.5C 130.024,448.997 129.691,386.663 127.5,324.5C 127.5,323.5 127.5,322.5 127.5,321.5C 125.784,321.629 124.117,321.962 122.5,322.5C 116.796,323.564 112.629,321.564 110,316.5C 109.831,303.327 109.331,290.327 108.5,277.5C 107.17,270.843 105.836,264.176 104.5,257.5C 104.667,256.167 104.833,254.833 105,253.5C 106.045,252.627 106.878,251.627 107.5,250.5C 109.833,250.5 112.167,250.5 114.5,250.5C 118.2,252.245 122.2,253.245 126.5,253.5C 126.687,251.436 127.187,249.436 128,247.5C 128.5,223.502 128.667,199.502 128.5,175.5C 128.124,168.678 128.957,162.012 131,155.5C 134.605,142.231 142.771,133.064 155.5,128C 157.439,126.568 158.772,124.735 159.5,122.5C 169.162,117.838 179.162,114.004 189.5,111C 194.5,110 199.5,109 204.5,108C 242.899,107.83 281.232,109.497 319.5,113C 322.42,114.316 325.42,115.483 328.5,116.5 Z"/></g>
<g><path style="opacity:1" fill="#0a0904" d="M 337.5,160.5 C 334.191,156.691 330.191,153.858 325.5,152C 316.208,150.769 306.874,150.269 297.5,150.5C 292.797,150.563 288.13,150.229 283.5,149.5C 280.14,149.384 276.807,149.051 273.5,148.5C 269.03,147.514 264.363,147.181 259.5,147.5C 247.654,146.29 235.654,146.29 223.5,147.5C 218.167,147.5 212.833,147.5 207.5,147.5C 201.69,146.51 195.69,146.177 189.5,146.5C 189.5,145.5 189.5,144.5 189.5,143.5C 185.173,143.488 180.84,143.488 176.5,143.5C 174.505,141.89 172.339,140.557 170,139.5C 169.5,140 169,140.5 168.5,141C 165.518,141.498 162.518,141.665 159.5,141.5C 160.07,137.579 158.403,135.412 154.5,135C 156.183,132.79 158.183,132.29 160.5,133.5C 162.002,132.917 163.335,132.084 164.5,131C 172.22,129.744 179.886,128.244 187.5,126.5C 195.81,127.372 204.143,127.705 212.5,127.5C 212.5,125.5 212.5,123.5 212.5,121.5C 218.382,121.768 224.215,121.434 230,120.5C 238.311,123.581 246.811,124.248 255.5,122.5C 255.5,121.5 255.5,120.5 255.5,119.5C 260.973,119.074 264.639,120.908 266.5,125C 269.377,125.956 272.044,127.289 274.5,129C 278.74,128.736 283.074,129.236 287.5,130.5C 281.516,132.02 275.683,131.687 270,129.5C 268.08,129.938 266.246,130.605 264.5,131.5C 272.138,132.497 279.804,132.831 287.5,132.5C 287.5,133.5 287.5,134.5 287.5,135.5C 294.98,135.703 302.314,136.869 309.5,139C 310.981,139.98 312.315,141.147 313.5,142.5C 312.975,143.192 312.308,143.692 311.5,144C 316.833,144.667 316.833,145.333 311.5,146C 313.433,146.251 315.266,146.751 317,147.5C 317.414,147.043 317.914,146.709 318.5,146.5C 323.599,148.948 328.932,150.781 334.5,152C 335.506,154.847 336.506,157.681 337.5,160.5 Z"/></g>
<g><path style="opacity:1" fill="#858c93" d="M 259.5,147.5 C 245.455,147.335 231.455,148.002 217.5,149.5C 212.968,149.818 208.634,149.485 204.5,148.5C 211.022,148.823 217.355,148.49 223.5,147.5C 235.654,146.29 247.654,146.29 259.5,147.5 Z"/></g>
<g><path style="opacity:1" fill="#363b3f" d="M 207.5,147.5 C 212.833,147.5 218.167,147.5 223.5,147.5C 217.355,148.49 211.022,148.823 204.5,148.5C 197.443,148.24 190.443,148.573 183.5,149.5C 183.611,148.883 183.944,148.383 184.5,148C 192.159,147.5 199.826,147.334 207.5,147.5 Z"/></g>
<g><path style="opacity:1" fill="#bdcbdc" d="M 259.5,147.5 C 264.363,147.181 269.03,147.514 273.5,148.5C 276.17,151.421 279.336,152.421 283,151.5C 288.417,152.95 293.917,154.117 299.5,155C 298.944,155.383 298.611,155.883 298.5,156.5C 294.114,156.09 289.781,156.09 285.5,156.5C 283.5,156 281.5,155.5 279.5,155C 280.167,154.667 280.833,154.333 281.5,154C 261.406,150.046 241.24,149.546 221,152.5C 214.16,151.956 207.327,152.456 200.5,154C 197.594,155.847 194.427,157.014 191,157.5C 190.586,157.043 190.086,156.709 189.5,156.5C 185.442,159.884 180.776,161.884 175.5,162.5C 175.5,164.167 175.5,165.833 175.5,167.5C 169.336,168.582 164.003,171.249 159.5,175.5C 158.909,174.849 158.243,174.182 157.5,173.5C 158.95,172.15 159.617,170.484 159.5,168.5C 160.701,166.091 162.367,164.091 164.5,162.5C 167.245,161.263 169.578,159.43 171.5,157C 176.167,157.333 180.833,157.667 185.5,158C 185.818,155.958 185.985,153.791 186,151.5C 187.067,150.809 188.234,150.309 189.5,150C 198.998,150.356 208.332,150.19 217.5,149.5C 231.455,148.002 245.455,147.335 259.5,147.5 Z"/></g>
<g><path style="opacity:1" fill="#6d7276" d="M 283.5,149.5 C 288.13,150.229 292.797,150.563 297.5,150.5C 297.5,150.833 297.5,151.167 297.5,151.5C 293.818,151.665 290.152,151.499 286.5,151C 285.263,150.768 284.263,150.268 283.5,149.5 Z"/></g>
<g><path style="opacity:1" fill="#343332" d="M 297.5,151.5 C 297.5,151.167 297.5,150.833 297.5,150.5C 306.874,150.269 316.208,150.769 325.5,152C 330.191,153.858 334.191,156.691 337.5,160.5C 337.5,161.833 337.5,163.167 337.5,164.5C 333.274,160.64 328.941,156.974 324.5,153.5C 315.722,151.843 306.722,151.176 297.5,151.5 Z"/></g>
<g><path style="opacity:1" fill="#868e98" d="M 182.5,150.5 C 178.614,152.325 174.614,154.158 170.5,156C 168.244,158.083 166.244,160.25 164.5,162.5C 162.367,164.091 160.701,166.091 159.5,168.5C 157.983,168.511 156.816,169.177 156,170.5C 155.1,173.718 153.933,176.718 152.5,179.5C 152.756,176.402 153.422,173.402 154.5,170.5C 157.52,168.477 159.854,165.81 161.5,162.5C 165.307,158.865 169.307,155.365 173.5,152C 176.432,151.047 179.432,150.547 182.5,150.5 Z"/></g>
<g><path style="opacity:1" fill="#63686e" d="M 297.5,151.5 C 306.722,151.176 315.722,151.843 324.5,153.5C 324.5,154.167 324.5,154.833 324.5,155.5C 320.917,155.768 317.584,155.101 314.5,153.5C 309.695,152.513 304.695,152.179 299.5,152.5C 298.508,152.672 297.842,152.338 297.5,151.5 Z"/></g>
<g><path style="opacity:1" fill="#4f5056" d="M 183.5,149.5 C 183.5,150.167 183.167,150.5 182.5,150.5C 179.432,150.547 176.432,151.047 173.5,152C 169.307,155.365 165.307,158.865 161.5,162.5C 161.5,161.5 161.5,160.5 161.5,159.5C 163.625,155.112 166.959,152.112 171.5,150.5C 175.481,149.979 179.481,149.646 183.5,149.5 Z"/></g>
<g><path style="opacity:1" fill="#b4c7df" d="M 298.5,156.5 C 299.344,158.759 301.011,159.759 303.5,159.5C 303.414,160.496 303.748,161.329 304.5,162C 303.5,162.167 302.5,162.333 301.5,162.5C 296.868,161.685 292.201,161.352 287.5,161.5C 287.719,160.325 287.386,159.325 286.5,158.5C 282.349,157.863 278.349,156.697 274.5,155C 252.145,154.146 229.811,154.479 207.5,156C 195.855,162.649 183.688,167.482 171,170.5C 169.806,172.024 168.306,173.19 166.5,174C 167.056,174.383 167.389,174.883 167.5,175.5C 166.167,175.5 165.5,176.167 165.5,177.5C 161.035,181.569 159.035,180.902 159.5,175.5C 164.003,171.249 169.336,168.582 175.5,167.5C 175.5,165.833 175.5,164.167 175.5,162.5C 180.776,161.884 185.442,159.884 189.5,156.5C 190.086,156.709 190.586,157.043 191,157.5C 194.427,157.014 197.594,155.847 200.5,154C 207.327,152.456 214.16,151.956 221,152.5C 241.24,149.546 261.406,150.046 281.5,154C 280.833,154.333 280.167,154.667 279.5,155C 281.5,155.5 283.5,156 285.5,156.5C 289.781,156.09 294.114,156.09 298.5,156.5 Z"/></g>
<g><path style="opacity:1" fill="#919da9" d="M 299.5,152.5 C 304.695,152.179 309.695,152.513 314.5,153.5C 315.11,154.391 315.443,155.391 315.5,156.5C 311.585,155.733 307.585,155.233 303.5,155C 302.142,154.066 300.808,153.232 299.5,152.5 Z"/></g>
<g><path style="opacity:1" fill="#727e8a" d="M 314.5,153.5 C 317.584,155.101 320.917,155.768 324.5,155.5C 328.833,160.5 333.5,165.167 338.5,169.5C 338.025,172.885 339.358,175.218 342.5,176.5C 343.543,179.455 344.877,182.122 346.5,184.5C 346.5,185.5 346.5,186.5 346.5,187.5C 345.5,187.5 344.5,187.5 343.5,187.5C 343.819,181.833 341.652,177.5 337,174.5C 335.652,171.313 333.986,168.313 332,165.5C 329.205,163.707 326.705,161.54 324.5,159C 321.582,157.85 318.582,157.017 315.5,156.5C 315.443,155.391 315.11,154.391 314.5,153.5 Z"/></g>
<g><path style="opacity:1" fill="#acb7c4" d="M 204.5,148.5 C 208.634,149.485 212.968,149.818 217.5,149.5C 208.332,150.19 198.998,150.356 189.5,150C 188.234,150.309 187.067,150.809 186,151.5C 185.985,153.791 185.818,155.958 185.5,158C 180.833,157.667 176.167,157.333 171.5,157C 169.578,159.43 167.245,161.263 164.5,162.5C 166.244,160.25 168.244,158.083 170.5,156C 174.614,154.158 178.614,152.325 182.5,150.5C 183.167,150.5 183.5,150.167 183.5,149.5C 190.443,148.573 197.443,148.24 204.5,148.5 Z"/></g>
<g><path style="opacity:1" fill="#b3c0d0" d="M 273.5,148.5 C 276.807,149.051 280.14,149.384 283.5,149.5C 284.263,150.268 285.263,150.768 286.5,151C 290.152,151.499 293.818,151.665 297.5,151.5C 297.842,152.338 298.508,152.672 299.5,152.5C 300.808,153.232 302.142,154.066 303.5,155C 307.585,155.233 311.585,155.733 315.5,156.5C 316.11,157.391 316.443,158.391 316.5,159.5C 312.331,158.492 307.998,158.492 303.5,159.5C 301.011,159.759 299.344,158.759 298.5,156.5C 298.611,155.883 298.944,155.383 299.5,155C 293.917,154.117 288.417,152.95 283,151.5C 279.336,152.421 276.17,151.421 273.5,148.5 Z"/></g>
<g><path style="opacity:1" fill="#2e2a28" d="M 171.5,150.5 C 166.959,152.112 163.625,155.112 161.5,159.5C 160.833,159.5 160.167,159.5 159.5,159.5C 160.679,152.646 164.679,149.646 171.5,150.5 Z"/></g>
<g><path style="opacity:1" fill="#9db9d7" d="M 323.5,164.5 C 323.414,165.496 323.748,166.329 324.5,167C 319.198,168.06 313.865,169.06 308.5,170C 307.167,171 307.167,172 308.5,173C 306.256,173.05 304.589,173.883 303.5,175.5C 298.264,174.347 292.93,173.513 287.5,173C 281.338,170.53 275.004,168.697 268.5,167.5C 266.407,167.486 264.574,168.152 263,169.5C 258.021,166.785 252.687,166.118 247,167.5C 239.006,166.947 231.173,165.947 223.5,164.5C 223.5,166.167 223.5,167.833 223.5,169.5C 216.116,169.84 208.783,170.673 201.5,172C 200.166,173.166 198.5,173.333 196.5,172.5C 192.891,173.204 189.391,174.204 186,175.5C 184.149,174.463 182.983,175.13 182.5,177.5C 179.688,177.767 177.355,178.767 175.5,180.5C 169.515,180.987 164.182,182.987 159.5,186.5C 159.5,185.5 159.5,184.5 159.5,183.5C 162.683,183.071 165.016,181.404 166.5,178.5C 166.376,177.893 166.043,177.56 165.5,177.5C 165.5,176.167 166.167,175.5 167.5,175.5C 168.552,175.649 169.552,175.483 170.5,175C 170.167,174.667 169.833,174.333 169.5,174C 171.305,173.028 172.972,171.861 174.5,170.5C 176.098,171.485 177.765,171.651 179.5,171C 190.935,167.41 202.269,163.41 213.5,159C 218.476,158.253 223.476,157.753 228.5,157.5C 236.476,158.449 244.476,159.116 252.5,159.5C 259.031,159.191 265.365,158.857 271.5,158.5C 276.909,161.371 282.576,163.204 288.5,164C 295.611,164.106 302.611,164.939 309.5,166.5C 314.361,166.415 319.027,165.748 323.5,164.5 Z"/></g>
<g><path style="opacity:1" fill="#4a4e53" d="M 324.5,153.5 C 328.941,156.974 333.274,160.64 337.5,164.5C 337.629,166.216 337.962,167.883 338.5,169.5C 333.5,165.167 328.833,160.5 324.5,155.5C 324.5,154.833 324.5,154.167 324.5,153.5 Z"/></g>
<g><path style="opacity:1" fill="#a8c0db" d="M 303.5,159.5 C 307.998,158.492 312.331,158.492 316.5,159.5C 319.241,159.707 321.574,160.707 323.5,162.5C 322.761,162.369 322.094,162.536 321.5,163C 322.416,163.278 323.082,163.778 323.5,164.5C 319.027,165.748 314.361,166.415 309.5,166.5C 302.611,164.939 295.611,164.106 288.5,164C 282.576,163.204 276.909,161.371 271.5,158.5C 265.365,158.857 259.031,159.191 252.5,159.5C 244.476,159.116 236.476,158.449 228.5,157.5C 223.476,157.753 218.476,158.253 213.5,159C 202.269,163.41 190.935,167.41 179.5,171C 177.765,171.651 176.098,171.485 174.5,170.5C 172.972,171.861 171.305,173.028 169.5,174C 169.833,174.333 170.167,174.667 170.5,175C 169.552,175.483 168.552,175.649 167.5,175.5C 167.389,174.883 167.056,174.383 166.5,174C 168.306,173.19 169.806,172.024 171,170.5C 183.688,167.482 195.855,162.649 207.5,156C 229.811,154.479 252.145,154.146 274.5,155C 278.349,156.697 282.349,157.863 286.5,158.5C 287.386,159.325 287.719,160.325 287.5,161.5C 292.201,161.352 296.868,161.685 301.5,162.5C 302.5,162.333 303.5,162.167 304.5,162C 303.748,161.329 303.414,160.496 303.5,159.5 Z"/></g>
<g><path style="opacity:1" fill="#92b3d5" d="M 303.5,175.5 C 304.085,178.622 305.752,179.289 308.5,177.5C 310.197,177.899 311.863,178.399 313.5,179C 312.227,181.758 310.56,182.091 308.5,180C 304.167,179.333 299.833,179.333 295.5,180C 296.5,180.333 297.5,180.667 298.5,181C 294.771,182.788 290.938,182.954 287,181.5C 285.829,182.893 284.329,183.727 282.5,184C 283.833,184.333 285.167,184.667 286.5,185C 283.318,185.407 280.151,185.907 277,186.5C 273.593,185.308 270.093,184.641 266.5,184.5C 267.585,182.418 269.085,182.084 271,183.5C 271.483,182.552 271.649,181.552 271.5,180.5C 266.2,179.6 260.867,179.6 255.5,180.5C 255.5,179.167 255.5,177.833 255.5,176.5C 260.844,176.666 266.177,176.499 271.5,176C 241.671,173.957 212.005,174.457 182.5,177.5C 182.983,175.13 184.149,174.463 186,175.5C 189.391,174.204 192.891,173.204 196.5,172.5C 198.5,173.333 200.166,173.166 201.5,172C 208.783,170.673 216.116,169.84 223.5,169.5C 223.5,167.833 223.5,166.167 223.5,164.5C 231.173,165.947 239.006,166.947 247,167.5C 252.687,166.118 258.021,166.785 263,169.5C 264.574,168.152 266.407,167.486 268.5,167.5C 275.004,168.697 281.338,170.53 287.5,173C 292.93,173.513 298.264,174.347 303.5,175.5 Z"/></g>
<g><path style="opacity:1" fill="#3a3b3c" d="M 159.5,159.5 C 160.167,159.5 160.833,159.5 161.5,159.5C 161.5,160.5 161.5,161.5 161.5,162.5C 159.854,165.81 157.52,168.477 154.5,170.5C 153.094,172.474 151.594,174.474 150,176.5C 149.333,182.167 149.333,187.833 150,193.5C 151.356,194.38 152.856,194.714 154.5,194.5C 154.5,194.833 154.5,195.167 154.5,195.5C 154.167,195.5 153.833,195.5 153.5,195.5C 151.302,195.88 149.635,195.213 148.5,193.5C 147.916,188.996 147.25,184.496 146.5,180C 146.171,173.489 149.004,168.989 155,166.5C 156.75,164.266 158.25,161.932 159.5,159.5 Z"/></g>
<g><path style="opacity:1" fill="#94b1ce" d="M 323.5,162.5 C 329.257,165.595 333.257,170.262 335.5,176.5C 334.127,176.343 332.793,176.51 331.5,177C 329.865,178.748 327.865,179.915 325.5,180.5C 324.45,183.003 325.45,184.503 328.5,185C 327.263,185.232 326.263,185.732 325.5,186.5C 323.5,186.5 321.5,186.5 319.5,186.5C 299.999,186.915 280.666,187.582 261.5,188.5C 234.5,188.5 207.5,188.5 180.5,188.5C 171.96,188.13 163.626,189.13 155.5,191.5C 155.773,189.549 155.107,188.049 153.5,187C 154,186.5 154.5,186 155,185.5C 156.356,186.38 157.856,186.714 159.5,186.5C 185.889,187.607 212.556,187.774 239.5,187C 248.334,187.09 257.001,186.257 265.5,184.5C 265.833,184.5 266.167,184.5 266.5,184.5C 270.093,184.641 273.593,185.308 277,186.5C 280.151,185.907 283.318,185.407 286.5,185C 285.167,184.667 283.833,184.333 282.5,184C 284.329,183.727 285.829,182.893 287,181.5C 290.938,182.954 294.771,182.788 298.5,181C 297.5,180.667 296.5,180.333 295.5,180C 299.833,179.333 304.167,179.333 308.5,180C 310.56,182.091 312.227,181.758 313.5,179C 311.863,178.399 310.197,177.899 308.5,177.5C 305.752,179.289 304.085,178.622 303.5,175.5C 304.589,173.883 306.256,173.05 308.5,173C 307.167,172 307.167,171 308.5,170C 313.865,169.06 319.198,168.06 324.5,167C 323.748,166.329 323.414,165.496 323.5,164.5C 323.082,163.778 322.416,163.278 321.5,163C 322.094,162.536 322.761,162.369 323.5,162.5 Z"/></g>
<g><path style="opacity:1" fill="#2f3034" d="M 337.5,164.5 C 339.621,166.894 341.454,169.561 343,172.5C 344.881,176.307 346.047,180.307 346.5,184.5C 344.877,182.122 343.543,179.455 342.5,176.5C 339.358,175.218 338.025,172.885 338.5,169.5C 337.962,167.883 337.629,166.216 337.5,164.5 Z"/></g>
<g><path style="opacity:1" fill="#8aacd1" d="M 266.5,184.5 C 266.167,184.5 265.833,184.5 265.5,184.5C 262.375,184.646 259.375,184.313 256.5,183.5C 254.941,184.074 253.441,184.74 252,185.5C 248,184.833 244,184.167 240,183.5C 237.694,185.888 234.861,186.888 231.5,186.5C 228.991,185.998 226.658,185.998 224.5,186.5C 222.444,184.981 220.11,184.147 217.5,184C 207.137,183.537 196.804,183.204 186.5,183C 185.167,183.667 185.167,184.333 186.5,185C 185.833,185.333 185.167,185.667 184.5,186C 182.034,185.93 179.7,186.096 177.5,186.5C 176.833,186.167 176.167,185.833 175.5,185.5C 177.396,184.534 179.396,184.201 181.5,184.5C 181.5,183.167 181.5,181.833 181.5,180.5C 179.5,180.5 177.5,180.5 175.5,180.5C 177.355,178.767 179.688,177.767 182.5,177.5C 212.005,174.457 241.671,173.957 271.5,176C 266.177,176.499 260.844,176.666 255.5,176.5C 255.5,177.833 255.5,179.167 255.5,180.5C 260.867,179.6 266.2,179.6 271.5,180.5C 271.649,181.552 271.483,182.552 271,183.5C 269.085,182.084 267.585,182.418 266.5,184.5 Z"/></g>
<g><path style="opacity:1" fill="#8aa2bc" d="M 315.5,156.5 C 318.582,157.017 321.582,157.85 324.5,159C 326.705,161.54 329.205,163.707 332,165.5C 333.986,168.313 335.652,171.313 337,174.5C 341.652,177.5 343.819,181.833 343.5,187.5C 342.833,187.5 342.167,187.5 341.5,187.5C 336.36,186.512 331.026,186.179 325.5,186.5C 326.263,185.732 327.263,185.232 328.5,185C 325.45,184.503 324.45,183.003 325.5,180.5C 327.865,179.915 329.865,178.748 331.5,177C 332.793,176.51 334.127,176.343 335.5,176.5C 333.257,170.262 329.257,165.595 323.5,162.5C 321.574,160.707 319.241,159.707 316.5,159.5C 316.443,158.391 316.11,157.391 315.5,156.5 Z"/></g>
<g><path style="opacity:1" fill="#585f66" d="M 154.5,170.5 C 153.422,173.402 152.756,176.402 152.5,179.5C 151.514,183.97 151.181,188.637 151.5,193.5C 153.5,193.5 155.5,193.5 157.5,193.5C 156.791,194.404 155.791,194.737 154.5,194.5C 152.856,194.714 151.356,194.38 150,193.5C 149.333,187.833 149.333,182.167 150,176.5C 151.594,174.474 153.094,172.474 154.5,170.5 Z"/></g>
<g><path style="opacity:1" fill="#89a7c7" d="M 175.5,180.5 C 177.5,180.5 179.5,180.5 181.5,180.5C 181.5,181.833 181.5,183.167 181.5,184.5C 179.396,184.201 177.396,184.534 175.5,185.5C 176.167,185.833 176.833,186.167 177.5,186.5C 179.7,186.096 182.034,185.93 184.5,186C 185.167,185.667 185.833,185.333 186.5,185C 185.167,184.333 185.167,183.667 186.5,183C 196.804,183.204 207.137,183.537 217.5,184C 220.11,184.147 222.444,184.981 224.5,186.5C 226.658,185.998 228.991,185.998 231.5,186.5C 234.861,186.888 237.694,185.888 240,183.5C 244,184.167 248,184.833 252,185.5C 253.441,184.74 254.941,184.074 256.5,183.5C 259.375,184.313 262.375,184.646 265.5,184.5C 257.001,186.257 248.334,187.09 239.5,187C 212.556,187.774 185.889,187.607 159.5,186.5C 164.182,182.987 169.515,180.987 175.5,180.5 Z"/></g>
<g><path style="opacity:1" fill="#1e1e1d" d="M 159.5,159.5 C 158.25,161.932 156.75,164.266 155,166.5C 149.004,168.989 146.171,173.489 146.5,180C 147.25,184.496 147.916,188.996 148.5,193.5C 146.856,193.714 145.356,193.38 144,192.5C 143.333,188.167 143.333,183.833 144,179.5C 145.341,176.978 146.174,174.311 146.5,171.5C 151.486,168.179 155.82,164.179 159.5,159.5 Z"/></g>
<g><path style="opacity:1" fill="#acb9cd" d="M 319.5,186.5 C 316.359,187.321 313.025,187.821 309.5,188C 293.503,188.5 277.503,188.667 261.5,188.5C 280.666,187.582 299.999,186.915 319.5,186.5 Z"/></g>
<g><path style="opacity:1" fill="#3d3f41" d="M 346.5,184.5 C 347.434,185.568 347.768,186.901 347.5,188.5C 344.833,188.5 342.167,188.5 339.5,188.5C 339.842,187.662 340.508,187.328 341.5,187.5C 342.167,187.5 342.833,187.5 343.5,187.5C 344.5,187.5 345.5,187.5 346.5,187.5C 346.5,186.5 346.5,185.5 346.5,184.5 Z"/></g>
<g><path style="opacity:1" fill="#8d8f98" d="M 319.5,186.5 C 321.5,186.5 323.5,186.5 325.5,186.5C 331.026,186.179 336.36,186.512 341.5,187.5C 340.508,187.328 339.842,187.662 339.5,188.5C 327.446,188.369 315.446,189.036 303.5,190.5C 259.495,190.371 215.495,190.705 171.5,191.5C 171.611,190.883 171.944,190.383 172.5,190C 175.365,189.817 178.031,189.317 180.5,188.5C 207.5,188.5 234.5,188.5 261.5,188.5C 277.503,188.667 293.503,188.5 309.5,188C 313.025,187.821 316.359,187.321 319.5,186.5 Z"/></g>
<g><path style="opacity:1" fill="#a1b0c2" d="M 159.5,168.5 C 159.617,170.484 158.95,172.15 157.5,173.5C 158.243,174.182 158.909,174.849 159.5,175.5C 159.035,180.902 161.035,181.569 165.5,177.5C 166.043,177.56 166.376,177.893 166.5,178.5C 165.016,181.404 162.683,183.071 159.5,183.5C 159.5,184.5 159.5,185.5 159.5,186.5C 157.856,186.714 156.356,186.38 155,185.5C 154.5,186 154,186.5 153.5,187C 155.107,188.049 155.773,189.549 155.5,191.5C 163.626,189.13 171.96,188.13 180.5,188.5C 178.031,189.317 175.365,189.817 172.5,190C 171.944,190.383 171.611,190.883 171.5,191.5C 166.971,192.273 162.305,192.94 157.5,193.5C 155.5,193.5 153.5,193.5 151.5,193.5C 151.181,188.637 151.514,183.97 152.5,179.5C 153.933,176.718 155.1,173.718 156,170.5C 156.816,169.177 157.983,168.511 159.5,168.5 Z"/></g>
<g><path style="opacity:1" fill="#0e0905" d="M 146.5,171.5 C 146.174,174.311 145.341,176.978 144,179.5C 143.333,183.833 143.333,188.167 144,192.5C 145.356,193.38 146.856,193.714 148.5,193.5C 149.635,195.213 151.302,195.88 153.5,195.5C 152.737,196.268 151.737,196.768 150.5,197C 159.75,200.821 169.417,202.821 179.5,203C 183.388,204.378 187.388,205.378 191.5,206C 192.167,207.333 193.167,208.333 194.5,209C 201.495,209.577 208.495,210.077 215.5,210.5C 237.977,208.428 260.477,208.094 283,209.5C 296.609,208.692 310.109,206.692 323.5,203.5C 325.003,201.578 327.003,200.412 329.5,200C 326.401,198.156 325.068,195.656 325.5,192.5C 330.518,191.786 335.518,191.119 340.5,190.5C 341.167,190.833 341.833,191.167 342.5,191.5C 343.622,190.37 344.956,189.703 346.5,189.5C 345.091,191.417 343.424,193.25 341.5,195C 342.927,200.31 340.927,203.477 335.5,204.5C 335.5,205.5 335.5,206.5 335.5,207.5C 303.888,214.33 271.888,216.496 239.5,214C 232.5,214.333 225.5,214.667 218.5,215C 217,215.5 215.5,216 214,216.5C 199.424,214.184 184.757,212.518 170,211.5C 163.212,211.867 157.379,213.201 152.5,215.5C 150.971,215.471 149.804,214.804 149,213.5C 148.311,214.357 147.478,215.023 146.5,215.5C 144.221,210.435 143.221,205.102 143.5,199.5C 141.876,199.64 140.71,198.973 140,197.5C 137.668,190.029 138.168,182.862 141.5,176C 140.269,174.817 140.269,173.651 141.5,172.5C 142.192,173.025 142.692,173.692 143,174.5C 143.72,172.944 144.887,171.944 146.5,171.5 Z"/></g>
<g><path style="opacity:1" fill="#1b130a" d="M 303.5,190.5 C 297.681,191.328 291.681,191.828 285.5,192C 284.833,192.333 284.167,192.667 283.5,193C 285.392,193.973 287.392,194.64 289.5,195C 285.74,194.806 282.574,195.973 280,198.5C 267.942,196.258 255.775,195.924 243.5,197.5C 236.825,196.95 230.158,196.284 223.5,195.5C 225.078,194.702 226.744,194.202 228.5,194C 209.846,192.683 191.179,192.849 172.5,194.5C 170.962,194.327 169.462,193.994 168,193.5C 163.627,195.026 159.127,195.692 154.5,195.5C 154.5,195.167 154.5,194.833 154.5,194.5C 155.791,194.737 156.791,194.404 157.5,193.5C 162.305,192.94 166.971,192.273 171.5,191.5C 215.495,190.705 259.495,190.371 303.5,190.5 Z"/></g>
<g><path style="opacity:1" fill="#150d04" d="M 339.5,188.5 C 342.167,188.5 344.833,188.5 347.5,188.5C 347.5,189.167 347.167,189.5 346.5,189.5C 344.956,189.703 343.622,190.37 342.5,191.5C 341.833,191.167 341.167,190.833 340.5,190.5C 335.518,191.119 330.518,191.786 325.5,192.5C 325.068,195.656 326.401,198.156 329.5,200C 327.003,200.412 325.003,201.578 323.5,203.5C 310.109,206.692 296.609,208.692 283,209.5C 260.477,208.094 237.977,208.428 215.5,210.5C 208.495,210.077 201.495,209.577 194.5,209C 193.167,208.333 192.167,207.333 191.5,206C 187.388,205.378 183.388,204.378 179.5,203C 169.417,202.821 159.75,200.821 150.5,197C 151.737,196.768 152.737,196.268 153.5,195.5C 153.833,195.5 154.167,195.5 154.5,195.5C 159.127,195.692 163.627,195.026 168,193.5C 169.462,193.994 170.962,194.327 172.5,194.5C 191.179,192.849 209.846,192.683 228.5,194C 226.744,194.202 225.078,194.702 223.5,195.5C 230.158,196.284 236.825,196.95 243.5,197.5C 255.775,195.924 267.942,196.258 280,198.5C 282.574,195.973 285.74,194.806 289.5,195C 287.392,194.64 285.392,193.973 283.5,193C 284.167,192.667 284.833,192.333 285.5,192C 291.681,191.828 297.681,191.328 303.5,190.5C 315.446,189.036 327.446,188.369 339.5,188.5 Z"/></g>
<g><path style="opacity:1" fill="#618497" d="M -0.5,191.5 C 4.46458,195.963 9.29791,200.63 14,205.5C 14.1667,205.833 14.3333,206.167 14.5,206.5C 12.9547,207.452 11.288,207.785 9.5,207.5C 9.16687,234.175 9.50021,260.842 10.5,287.5C 10.9668,292.846 11.9668,298.012 13.5,303C 12.2068,303.49 10.8734,303.657 9.5,303.5C 9.83313,330.175 9.49979,356.842 8.5,383.5C 7.26245,387.311 6.59578,387.311 6.5,383.5C 5.16667,383.5 3.83333,383.5 2.5,383.5C 2.66409,386.187 2.49742,388.854 2,391.5C 2.05334,388.325 1.22001,385.658 -0.5,383.5C -0.5,319.5 -0.5,255.5 -0.5,191.5 Z"/></g>
<g><path style="opacity:1" fill="#576672" d="M 128.5,175.5 C 128.667,199.502 128.5,223.502 128,247.5C 127.187,249.436 126.687,251.436 126.5,253.5C 122.2,253.245 118.2,252.245 114.5,250.5C 117.518,250.665 120.518,250.498 123.5,250C 124.05,248.155 125.05,246.655 126.5,245.5C 127.5,227.512 127.833,209.512 127.5,191.5C 127.179,185.974 127.512,180.64 128.5,175.5 Z"/></g>
<g><path style="opacity:1" fill="#090502" d="M 218.5,255.5 C 221.062,256.371 223.728,256.371 226.5,255.5C 227.134,258.937 228.467,262.104 230.5,265C 229.39,267.737 229.223,270.571 230,273.5C 233.729,280.464 237.562,287.297 241.5,294C 245.552,295.544 249.718,296.711 254,297.5C 258.353,296.022 262.853,295.022 267.5,294.5C 271.536,292.51 275.536,290.344 279.5,288C 285.157,287.501 290.824,287.334 296.5,287.5C 295.494,282.813 292.494,280.813 287.5,281.5C 287.192,279.076 287.526,276.743 288.5,274.5C 290.258,273.872 291.758,272.872 293,271.5C 294.156,266.648 293.323,262.314 290.5,258.5C 290.64,256.97 291.307,255.97 292.5,255.5C 292.216,257.415 292.549,259.081 293.5,260.5C 294.167,261.167 294.833,261.833 295.5,262.5C 296.08,264.749 297.413,266.415 299.5,267.5C 299.539,268.583 299.873,269.583 300.5,270.5C 305.148,274.81 310.314,277.143 316,277.5C 321.132,277.3 325.299,275.3 328.5,271.5C 329.086,271.709 329.586,272.043 330,272.5C 331.411,270.35 332.245,268.016 332.5,265.5C 329.15,265.665 325.817,265.498 322.5,265C 321.101,261.168 318.768,258.168 315.5,256C 310.898,254.878 306.232,254.378 301.5,254.5C 299.167,254.5 296.833,254.5 294.5,254.5C 296.698,253.835 299.031,253.168 301.5,252.5C 299.446,250.541 297.113,249.041 294.5,248C 295.833,248 297.167,248 298.5,248C 297.167,246.667 297.167,245.333 298.5,244C 304.615,240.34 311.282,238.507 318.5,238.5C 324.5,239 330.5,239.5 336.5,240C 338.527,241.879 340.86,243.046 343.5,243.5C 343.03,246.346 343.863,248.679 346,250.5C 346.667,254.5 346.667,258.5 346,262.5C 343.952,265.813 342.952,269.479 343,273.5C 340.941,277.668 338.441,281.334 335.5,284.5C 330.022,284.149 324.688,284.816 319.5,286.5C 322.167,287.167 324.833,287.833 327.5,288.5C 329.555,290.555 331.888,292.221 334.5,293.5C 335.429,294.689 335.762,296.022 335.5,297.5C 332.081,295.588 329.081,293.088 326.5,290C 324.19,289.503 321.857,289.337 319.5,289.5C 319.657,290.873 319.49,292.207 319,293.5C 315.756,293.823 312.59,293.156 309.5,291.5C 307.519,291.437 305.852,292.104 304.5,293.5C 303.513,296.768 303.18,300.102 303.5,303.5C 301.658,303.723 299.825,304.057 298,304.5C 294.246,303.36 290.746,301.86 287.5,300C 275.105,297.566 262.938,298.066 251,301.5C 243.13,300.755 235.296,299.755 227.5,298.5C 224.549,294.094 220.549,292.761 215.5,294.5C 212.914,296.043 210.414,297.709 208,299.5C 207.667,299.167 207.333,298.833 207,298.5C 206.626,299.416 206.126,300.25 205.5,301C 203.392,301.36 201.392,302.027 199.5,303C 200.114,304.13 200.114,305.463 199.5,307C 201.333,310.167 203.167,313.333 205,316.5C 205.597,319.958 206.597,323.291 208,326.5C 209.934,328.943 212.434,330.276 215.5,330.5C 215.646,332.942 214.813,333.609 213,332.5C 212.5,333 212,333.5 211.5,334C 213.72,339.957 215.22,346.123 216,352.5C 218.034,354.032 220.201,355.365 222.5,356.5C 223.386,355.675 223.719,354.675 223.5,353.5C 224.5,353.5 225.5,353.5 226.5,353.5C 226.33,354.822 226.663,355.989 227.5,357C 231.491,357.642 235.491,358.142 239.5,358.5C 239.5,359.5 239.5,360.5 239.5,361.5C 249.564,363.008 259.564,363.675 269.5,363.5C 283.023,361.942 296.523,360.275 310,358.5C 310.873,358.735 311.707,359.069 312.5,359.5C 315.579,356.966 318.579,354.3 321.5,351.5C 320.443,349.151 318.943,347.151 317,345.5C 316.517,344.552 316.351,343.552 316.5,342.5C 317.822,342.33 318.989,342.663 320,343.5C 325.093,341.957 330.26,340.29 335.5,338.5C 335.751,334.751 336.417,331.085 337.5,327.5C 338.167,327.5 338.5,327.167 338.5,326.5C 340.648,326.389 340.981,327.056 339.5,328.5C 343.924,337.987 340.924,342.987 330.5,343.5C 330.762,344.978 330.429,346.311 329.5,347.5C 328.313,346.106 327.646,346.273 327.5,348C 328.619,350.308 328.286,352.474 326.5,354.5C 325.508,358.783 325.174,363.116 325.5,367.5C 324.167,367.5 322.833,367.5 321.5,367.5C 321.617,369.484 320.95,371.15 319.5,372.5C 319.709,373.086 320.043,373.586 320.5,374C 315.97,377.362 311.303,380.529 306.5,383.5C 304.969,387.254 302.969,390.754 300.5,394C 297.326,394.506 294.493,393.672 292,391.5C 291.175,393.701 291.675,395.534 293.5,397C 291.924,398.577 290.091,399.744 288,400.5C 281.98,398.835 276.146,399.168 270.5,401.5C 268.809,399.744 266.809,399.244 264.5,400C 265.841,403.006 268.175,404.506 271.5,404.5C 271.5,405.5 271.5,406.5 271.5,407.5C 268.482,407.665 265.482,407.498 262.5,407C 260.175,404.709 257.842,402.376 255.5,400C 249.39,399.912 243.39,399.245 237.5,398C 236.167,396.667 234.833,395.333 233.5,394C 234.396,390.572 235.062,387.072 235.5,383.5C 231.279,382.808 227.613,383.808 224.5,386.5C 223.509,382.555 223.176,378.555 223.5,374.5C 228.019,374.857 230.852,377.19 232,381.5C 234.381,380.565 236.881,380.232 239.5,380.5C 239.5,381.5 239.5,382.5 239.5,383.5C 244.833,383.5 250.167,383.5 255.5,383.5C 255.5,384.833 255.5,386.167 255.5,387.5C 265.849,387.374 276.182,386.874 286.5,386C 287.887,384.317 289.553,383.15 291.5,382.5C 292.167,381.833 292.833,381.167 293.5,380.5C 295.674,380.25 297.341,379.25 298.5,377.5C 301.921,376.461 304.588,374.461 306.5,371.5C 308.698,369.902 311.031,368.569 313.5,367.5C 315.048,367.179 315.715,366.179 315.5,364.5C 318.764,364.274 319.764,362.774 318.5,360C 317.175,360.148 316.008,359.982 315,359.5C 312.409,360.155 309.742,361.155 307,362.5C 305.85,361.576 304.85,361.576 304,362.5C 303.667,361.833 303.333,361.167 303,360.5C 300.389,361.071 297.889,361.904 295.5,363C 286.051,363.882 276.718,365.382 267.5,367.5C 266.692,367.192 266.025,366.692 265.5,366C 256.665,365.167 247.832,364.333 239,363.5C 235.112,363.538 234.612,364.704 237.5,367C 236.354,367.645 235.354,368.478 234.5,369.5C 231.123,367.675 227.457,367.008 223.5,367.5C 223.5,366.5 223.5,365.5 223.5,364.5C 218.343,362.892 213.343,360.892 208.5,358.5C 206.714,355.37 205.381,352.036 204.5,348.5C 204.833,347.833 205.167,347.167 205.5,346.5C 201.722,345.179 198.055,344.179 194.5,343.5C 192.092,344.328 189.758,345.328 187.5,346.5C 183.511,345.893 179.511,345.227 175.5,344.5C 173.74,341.788 173.073,338.788 173.5,335.5C 170.951,335.441 168.951,336.441 167.5,338.5C 163.583,336.952 163.749,335.619 168,334.5C 168.667,333.167 168.667,331.833 168,330.5C 165.748,332.927 162.914,333.927 159.5,333.5C 159.649,332.448 159.483,331.448 159,330.5C 155.455,328.134 152.122,325.468 149,322.5C 147.108,323.617 146.275,325.284 146.5,327.5C 145.5,327.5 144.5,327.5 143.5,327.5C 143.665,324.482 143.498,321.482 143,318.5C 140.121,317.091 138.455,314.757 138,311.5C 136.65,306.227 137.65,301.561 141,297.5C 143.968,288.972 146.634,280.306 149,271.5C 150.34,270.132 151.674,268.799 153,267.5C 156.174,270.152 158.008,273.652 158.5,278C 156.8,281.232 154.966,284.399 153,287.5C 152.259,290.562 152.425,293.562 153.5,296.5C 152.167,297.5 150.833,298.5 149.5,299.5C 151.821,302.394 152.988,305.727 153,309.5C 155.75,312.609 157.25,316.276 157.5,320.5C 159.833,322.667 162.167,324.833 164.5,327C 166.759,326.561 169.092,326.061 171.5,325.5C 169.944,328.449 170.278,331.116 172.5,333.5C 173.752,331.999 174.752,330.332 175.5,328.5C 177.045,327.548 178.712,327.215 180.5,327.5C 181.584,322.858 179.917,319.858 175.5,318.5C 179.462,318.058 183.129,316.891 186.5,315C 180.911,311.804 174.911,309.804 168.5,309C 167.594,307.301 167.261,305.467 167.5,303.5C 160.98,301.257 159.98,297.424 164.5,292C 168.441,289.913 172.441,289.079 176.5,289.5C 180.593,287.946 184.26,287.28 187.5,287.5C 183.907,285.929 180.241,284.596 176.5,283.5C 175.513,280.232 175.18,276.898 175.5,273.5C 179.5,272.833 179.5,272.167 175.5,271.5C 175.886,268.263 177.386,265.597 180,263.5C 180.256,260.443 180.756,257.443 181.5,254.5C 180.278,252.022 178.278,251.022 175.5,251.5C 175.089,248.724 175.922,248.057 178,249.5C 178.945,249.095 179.612,248.428 180,247.5C 180.497,244.854 180.664,242.187 180.5,239.5C 184.162,239.997 187.162,238.831 189.5,236C 183.116,235.758 176.782,235.092 170.5,234C 166.5,232.333 166.5,230.667 170.5,229C 182.785,227.439 195.118,227.106 207.5,228C 202.167,228.333 196.833,228.667 191.5,229C 223.5,229.667 223.5,230.333 191.5,231C 194.167,231.333 196.833,231.667 199.5,232C 202.689,232.981 203.022,234.314 200.5,236C 197.5,236.333 194.5,236.667 191.5,237C 196.739,238.606 202.072,239.273 207.5,239C 207.957,238.586 208.291,238.086 208.5,237.5C 207.167,236.5 205.833,235.5 204.5,234.5C 204.919,233.328 205.585,232.328 206.5,231.5C 213.355,232.377 219.022,235.377 223.5,240.5C 222.675,241.386 221.675,241.719 220.5,241.5C 220.351,244.607 220.851,247.607 222,250.5C 222.556,248.405 223.056,248.238 223.5,250C 223.355,250.772 223.022,251.439 222.5,252C 220.5,252.333 218.5,252.667 216.5,253C 217.381,253.708 218.047,254.542 218.5,255.5 Z"/></g>
<g><path style="opacity:1" fill="#aaafb9" d="M 207.5,252.5 C 208.492,252.328 209.158,252.662 209.5,253.5C 206.5,253.5 203.5,253.5 200.5,253.5C 200.663,255.857 200.497,258.19 200,260.5C 199.252,262.751 197.752,264.084 195.5,264.5C 198.231,261.073 199.231,257.073 198.5,252.5C 201.5,252.5 204.5,252.5 207.5,252.5 Z"/></g>
<g><path style="opacity:1" fill="#5b5756" d="M 294.5,254.5 C 296.833,254.5 299.167,254.5 301.5,254.5C 301.5,254.833 301.5,255.167 301.5,255.5C 298.833,255.5 296.167,255.5 293.5,255.5C 293.5,257.167 293.5,258.833 293.5,260.5C 292.549,259.081 292.216,257.415 292.5,255.5C 292.842,254.662 293.508,254.328 294.5,254.5 Z"/></g>
<g><path style="opacity:1" fill="#a7acb4" d="M 301.5,255.5 C 302.492,255.328 303.158,255.662 303.5,256.5C 300.833,256.5 298.167,256.5 295.5,256.5C 295.5,258.5 295.5,260.5 295.5,262.5C 294.833,261.833 294.167,261.167 293.5,260.5C 293.5,258.833 293.5,257.167 293.5,255.5C 296.167,255.5 298.833,255.5 301.5,255.5 Z"/></g>
<g><path style="opacity:1" fill="#d2d9e7" d="M 209.5,253.5 C 212.598,253.756 215.598,254.422 218.5,255.5C 218.5,255.833 218.5,256.167 218.5,256.5C 218.608,258.514 217.942,260.18 216.5,261.5C 214.046,262.227 211.713,263.227 209.5,264.5C 207.421,264.971 205.421,265.637 203.5,266.5C 200.934,266.344 198.434,266.678 196,267.5C 194.317,266.824 194.15,265.824 195.5,264.5C 197.752,264.084 199.252,262.751 200,260.5C 200.497,258.19 200.663,255.857 200.5,253.5C 203.5,253.5 206.5,253.5 209.5,253.5 Z"/></g>
<g><path style="opacity:1" fill="#585455" d="M 218.5,256.5 C 219.598,257.601 219.765,258.934 219,260.5C 218.329,261.252 217.496,261.586 216.5,261.5C 217.942,260.18 218.608,258.514 218.5,256.5 Z"/></g>
<g><path style="opacity:1" fill="#69605c" d="M 311.5,258.5 C 315.589,258.588 318.256,260.588 319.5,264.5C 318.5,263.833 317.5,263.167 316.5,262.5C 315.016,260.926 313.349,259.593 311.5,258.5 Z"/></g>
<g><path style="opacity:1" fill="#b3b3b8" d="M 305.5,256.5 C 307.579,256.971 309.579,257.637 311.5,258.5C 313.349,259.593 315.016,260.926 316.5,262.5C 314.738,262.643 313.071,262.309 311.5,261.5C 309.716,259.483 307.716,257.816 305.5,256.5 Z"/></g>
<g><path style="opacity:1" fill="#665f5e" d="M 295.5,262.5 C 297.5,263.833 299.167,265.5 300.5,267.5C 300.167,267.5 299.833,267.5 299.5,267.5C 297.413,266.415 296.08,264.749 295.5,262.5 Z"/></g>
<g><path style="opacity:1" fill="#5d595a" d="M 207.5,252.5 C 204.5,252.5 201.5,252.5 198.5,252.5C 199.231,257.073 198.231,261.073 195.5,264.5C 192.821,264.525 191.488,265.858 191.5,268.5C 193.5,268.5 195.5,268.5 197.5,268.5C 194.375,269.479 191.042,269.813 187.5,269.5C 187.527,267.801 188.194,266.467 189.5,265.5C 191.519,264.067 193.686,262.733 196,261.5C 196.498,258.183 196.665,254.85 196.5,251.5C 200.371,251.185 204.038,251.518 207.5,252.5 Z"/></g>
<g><path style="opacity:1" fill="#615658" d="M 209.5,264.5 C 207.967,266.245 205.967,267.245 203.5,267.5C 203.5,267.167 203.5,266.833 203.5,266.5C 205.421,265.637 207.421,264.971 209.5,264.5 Z"/></g>
<g><path style="opacity:1" fill="#bbbcc2" d="M 316.5,262.5 C 317.5,263.167 318.5,263.833 319.5,264.5C 319.511,266.017 320.177,267.184 321.5,268C 323.708,268.191 325.708,268.691 327.5,269.5C 326.713,271.104 325.38,271.771 323.5,271.5C 322.5,271.5 321.5,271.5 320.5,271.5C 320.338,269.176 319.172,267.509 317,266.5C 316.51,265.207 316.343,263.873 316.5,262.5 Z"/></g>
<g><path style="opacity:1" fill="#ecebf2" d="M 303.5,256.5 C 304.167,256.5 304.833,256.5 305.5,256.5C 307.716,257.816 309.716,259.483 311.5,261.5C 313.071,262.309 314.738,262.643 316.5,262.5C 316.343,263.873 316.51,265.207 317,266.5C 319.172,267.509 320.338,269.176 320.5,271.5C 315.843,272.741 311.177,272.741 306.5,271.5C 306.027,270.094 305.027,269.427 303.5,269.5C 303.027,268.094 302.027,267.427 300.5,267.5C 299.167,265.5 297.5,263.833 295.5,262.5C 295.5,260.5 295.5,258.5 295.5,256.5C 298.167,256.5 300.833,256.5 303.5,256.5 Z"/></g>
<g><path style="opacity:1" fill="#342b26" d="M 189.5,265.5 C 188.194,266.467 187.527,267.801 187.5,269.5C 191.042,269.813 194.375,269.479 197.5,268.5C 199.216,268.371 200.883,268.038 202.5,267.5C 201.653,268.966 200.32,269.8 198.5,270C 194.167,270.667 189.833,270.667 185.5,270C 184.692,269.692 184.025,269.192 183.5,268.5C 185.071,266.585 187.071,265.585 189.5,265.5 Z"/></g>
<g><path style="opacity:1" fill="#a2a7b1" d="M 195.5,264.5 C 194.15,265.824 194.317,266.824 196,267.5C 198.434,266.678 200.934,266.344 203.5,266.5C 203.5,266.833 203.5,267.167 203.5,267.5C 203.167,267.5 202.833,267.5 202.5,267.5C 200.883,268.038 199.216,268.371 197.5,268.5C 195.5,268.5 193.5,268.5 191.5,268.5C 191.488,265.858 192.821,264.525 195.5,264.5 Z"/></g>
<g><path style="opacity:1" fill="#817777" d="M 319.5,264.5 C 323.205,266.183 327.205,267.016 331.5,267C 330.529,268.481 329.196,269.315 327.5,269.5C 325.708,268.691 323.708,268.191 321.5,268C 320.177,267.184 319.511,266.017 319.5,264.5 Z"/></g>
<g><path style="opacity:1" fill="#211610" d="M 301.5,255.5 C 301.5,255.167 301.5,254.833 301.5,254.5C 306.232,254.378 310.898,254.878 315.5,256C 318.768,258.168 321.101,261.168 322.5,265C 325.817,265.498 329.15,265.665 332.5,265.5C 332.245,268.016 331.411,270.35 330,272.5C 329.586,272.043 329.086,271.709 328.5,271.5C 325.299,275.3 321.132,277.3 316,277.5C 310.314,277.143 305.148,274.81 300.5,270.5C 299.873,269.583 299.539,268.583 299.5,267.5C 299.833,267.5 300.167,267.5 300.5,267.5C 300.973,268.906 301.973,269.573 303.5,269.5C 303.973,270.906 304.973,271.573 306.5,271.5C 308.634,273.033 311.134,273.7 314,273.5C 317.451,273.579 320.618,272.913 323.5,271.5C 325.38,271.771 326.713,271.104 327.5,269.5C 329.196,269.315 330.529,268.481 331.5,267C 327.205,267.016 323.205,266.183 319.5,264.5C 318.256,260.588 315.589,258.588 311.5,258.5C 309.579,257.637 307.579,256.971 305.5,256.5C 304.833,256.5 304.167,256.5 303.5,256.5C 303.158,255.662 302.492,255.328 301.5,255.5 Z"/></g>
<g><path style="opacity:1" fill="#94878b" d="M 303.5,269.5 C 305.027,269.427 306.027,270.094 306.5,271.5C 304.973,271.573 303.973,270.906 303.5,269.5 Z"/></g>
<g><path style="opacity:1" fill="#928688" d="M 300.5,267.5 C 302.027,267.427 303.027,268.094 303.5,269.5C 301.973,269.573 300.973,268.906 300.5,267.5 Z"/></g>
<g><path style="opacity:1" fill="#93827e" d="M 306.5,271.5 C 311.177,272.741 315.843,272.741 320.5,271.5C 321.5,271.5 322.5,271.5 323.5,271.5C 320.618,272.913 317.451,273.579 314,273.5C 311.134,273.7 308.634,273.033 306.5,271.5 Z"/></g>
<g><path style="opacity:1" fill="#628496" d="M 35.5,279.5 C 37.8475,281.527 39.1808,284.194 39.5,287.5C 42.1667,287.5 44.8333,287.5 47.5,287.5C 47.6633,289.857 47.4966,292.19 47,294.5C 46.5,294 46,293.5 45.5,293C 46.8963,288.874 46.2296,288.541 43.5,292C 44.8333,293 44.8333,294 43.5,295C 44.8333,295.333 46.1667,295.667 47.5,296C 46.1328,298.301 45.4661,300.801 45.5,303.5C 46.5,303.5 47.5,303.5 48.5,303.5C 49.0035,307.335 50.0035,307.335 51.5,303.5C 51.8333,304.167 52.1667,304.833 52.5,305.5C 51.0817,307.836 50.0817,310.336 49.5,313C 51.3067,316.314 51.8067,319.814 51,323.5C 50.3333,324.833 49.6667,324.833 49,323.5C 48.6667,319.833 48.3333,316.167 48,312.5C 47.3345,316.77 45.5012,317.77 42.5,315.5C 41.5224,315.977 40.6891,316.643 40,317.5C 39.2904,316.027 38.1238,315.36 36.5,315.5C 36.5,316.833 36.5,318.167 36.5,319.5C 40.1667,319.5 43.8333,319.5 47.5,319.5C 47.1718,324.875 47.5052,330.208 48.5,335.5C 49.316,333.713 50.316,332.046 51.5,330.5C 53.4357,333.208 53.9357,336.208 53,339.5C 51.6932,340.772 50.1932,341.772 48.5,342.5C 49.8587,344.306 49.5254,345.806 47.5,347C 42.2702,348.255 36.9369,348.421 31.5,347.5C 31.5,348.833 31.5,350.167 31.5,351.5C 40.1667,351.5 48.8333,351.5 57.5,351.5C 57.178,349.278 57.8446,347.444 59.5,346C 61.4405,345.696 63.1072,344.863 64.5,343.5C 68.5889,343.621 71.2556,341.454 72.5,337C 71.1068,335.699 70.6068,334.199 71,332.5C 73.0491,329.45 75.7157,327.117 79,325.5C 81.9722,325.73 84.9722,326.73 88,328.5C 89.3961,336.08 89.8961,343.747 89.5,351.5C 85.774,351.177 82.1073,351.511 78.5,352.5C 74,356.833 69.5,361.167 65,365.5C 64.8119,367.061 65.6453,367.728 67.5,367.5C 67.5,372.833 67.5,378.167 67.5,383.5C 54.1667,383.5 40.8333,383.5 27.5,383.5C 27.5,372.833 27.5,362.167 27.5,351.5C 26.1667,351.5 24.8333,351.5 23.5,351.5C 23.5,346.167 23.5,340.833 23.5,335.5C 27.5,335.5 31.5,335.5 35.5,335.5C 36.1504,331.393 35.1504,327.893 32.5,325C 34.4386,324.092 35.4386,322.592 35.5,320.5C 31.9438,320.725 31.6105,319.892 34.5,318C 33.763,315.201 32.9297,315.034 32,317.5C 31.5045,315.527 31.3379,313.527 31.5,311.5C 27.7002,311.181 27.5335,310.181 31,308.5C 31.4935,306.866 31.6602,305.199 31.5,303.5C 26.7966,302.717 22.9633,304.05 20,307.5C 17.3623,304.706 16.8623,301.539 18.5,298C 19.9506,298.263 21.2839,298.096 22.5,297.5C 24.1079,294.618 25.4413,291.618 26.5,288.5C 28.0453,287.548 29.712,287.215 31.5,287.5C 31.5,286.167 31.5,284.833 31.5,283.5C 32.8333,283.5 34.1667,283.5 35.5,283.5C 35.5,282.167 35.5,280.833 35.5,279.5 Z"/></g>
<g><path style="opacity:1" fill="#495b65" d="M 108.5,277.5 C 109.331,290.327 109.831,303.327 110,316.5C 112.629,321.564 116.796,323.564 122.5,322.5C 119.038,323.482 115.371,323.815 111.5,323.5C 111.778,321.654 111.111,320.32 109.5,319.5C 108.501,305.516 108.167,291.516 108.5,277.5 Z"/></g>
<g><path style="opacity:1" fill="#100903" d="M 335.5,297.5 C 339.353,305.184 340.353,313.184 338.5,321.5C 338.608,316.13 338.275,310.797 337.5,305.5C 334.551,303.944 331.884,304.278 329.5,306.5C 328.614,305.675 328.281,304.675 328.5,303.5C 325.5,303.5 322.5,303.5 319.5,303.5C 319.334,309.842 319.5,316.175 320,322.5C 321.851,324.781 323.518,324.781 325,322.5C 325.97,326.163 327.637,329.496 330,332.5C 331.292,333.791 332.458,333.791 333.5,332.5C 334.338,332.158 334.672,331.492 334.5,330.5C 335.728,329.694 336.728,328.694 337.5,327.5C 336.417,331.085 335.751,334.751 335.5,338.5C 330.26,340.29 325.093,341.957 320,343.5C 318.989,342.663 317.822,342.33 316.5,342.5C 316.351,343.552 316.517,344.552 317,345.5C 318.943,347.151 320.443,349.151 321.5,351.5C 318.579,354.3 315.579,356.966 312.5,359.5C 311.707,359.069 310.873,358.735 310,358.5C 296.523,360.275 283.023,361.942 269.5,363.5C 259.564,363.675 249.564,363.008 239.5,361.5C 239.5,360.5 239.5,359.5 239.5,358.5C 235.491,358.142 231.491,357.642 227.5,357C 226.663,355.989 226.33,354.822 226.5,353.5C 225.5,353.5 224.5,353.5 223.5,353.5C 223.719,354.675 223.386,355.675 222.5,356.5C 220.201,355.365 218.034,354.032 216,352.5C 215.22,346.123 213.72,339.957 211.5,334C 212,333.5 212.5,333 213,332.5C 214.813,333.609 215.646,332.942 215.5,330.5C 212.434,330.276 209.934,328.943 208,326.5C 206.597,323.291 205.597,319.958 205,316.5C 203.167,313.333 201.333,310.167 199.5,307C 200.114,305.463 200.114,304.13 199.5,303C 201.392,302.027 203.392,301.36 205.5,301C 206.126,300.25 206.626,299.416 207,298.5C 207.333,298.833 207.667,299.167 208,299.5C 210.414,297.709 212.914,296.043 215.5,294.5C 220.549,292.761 224.549,294.094 227.5,298.5C 235.296,299.755 243.13,300.755 251,301.5C 262.938,298.066 275.105,297.566 287.5,300C 290.746,301.86 294.246,303.36 298,304.5C 299.825,304.057 301.658,303.723 303.5,303.5C 303.18,300.102 303.513,296.768 304.5,293.5C 305.852,292.104 307.519,291.437 309.5,291.5C 312.59,293.156 315.756,293.823 319,293.5C 319.49,292.207 319.657,290.873 319.5,289.5C 321.857,289.337 324.19,289.503 326.5,290C 329.081,293.088 332.081,295.588 335.5,297.5 Z"/></g>
<g><path style="opacity:1" fill="#5e7b8c" d="M 107.5,250.5 C 106.878,251.627 106.045,252.627 105,253.5C 104.833,254.833 104.667,256.167 104.5,257.5C 105.836,264.176 107.17,270.843 108.5,277.5C 108.167,291.516 108.501,305.516 109.5,319.5C 111.111,320.32 111.778,321.654 111.5,323.5C 115.371,323.815 119.038,323.482 122.5,322.5C 124.117,321.962 125.784,321.629 127.5,321.5C 127.5,322.5 127.5,323.5 127.5,324.5C 127.5,386.833 127.5,449.167 127.5,511.5C 126.833,511.5 126.167,511.5 125.5,511.5C 125.781,506.435 125.448,501.435 124.5,496.5C 125.825,469.313 126.492,441.979 126.5,414.5C 126.333,387.5 126.167,360.5 126,333.5C 124.418,331.376 124.251,329.21 125.5,327C 124.552,326.517 123.552,326.351 122.5,326.5C 117.874,327.08 113.374,326.08 109,323.5C 107.311,320.465 105.477,317.465 103.5,314.5C 103.151,310.681 103.984,307.014 106,303.5C 106.355,296.655 106.855,289.822 107.5,283C 106.138,275.348 104.471,267.848 102.5,260.5C 102.627,256.799 102.96,253.132 103.5,249.5C 105.099,249.232 106.432,249.566 107.5,250.5 Z"/></g>
<g><path style="opacity:1" fill="#383639" d="M 174.5,292.5 C 173.122,295.639 174.289,296.973 178,296.5C 181.293,296.954 183.126,295.62 183.5,292.5C 184.5,292.5 185.5,292.5 186.5,292.5C 186.67,293.822 186.337,294.989 185.5,296C 181.348,298.843 177.181,299.01 173,296.5C 172.156,294.537 172.656,293.204 174.5,292.5 Z"/></g>
<g><path style="opacity:1" fill="#4f525b" d="M 174.5,292.5 C 177.5,292.5 180.5,292.5 183.5,292.5C 183.126,295.62 181.293,296.954 178,296.5C 174.289,296.973 173.122,295.639 174.5,292.5 Z"/></g>
<g><path style="opacity:1" fill="#191510" d="M 338.5,321.5 C 338.5,323.167 338.5,324.833 338.5,326.5C 338.5,327.167 338.167,327.5 337.5,327.5C 336.728,328.694 335.728,329.694 334.5,330.5C 336.931,323.239 337.098,315.906 335,308.5C 334.586,308.043 334.086,307.709 333.5,307.5C 331.442,312.863 329.442,318.196 327.5,323.5C 328.935,326.986 330.935,329.986 333.5,332.5C 332.458,333.791 331.292,333.791 330,332.5C 327.637,329.496 325.97,326.163 325,322.5C 323.518,324.781 321.851,324.781 320,322.5C 319.5,316.175 319.334,309.842 319.5,303.5C 322.5,303.5 325.5,303.5 328.5,303.5C 328.281,304.675 328.614,305.675 329.5,306.5C 331.884,304.278 334.551,303.944 337.5,305.5C 338.275,310.797 338.608,316.13 338.5,321.5 Z"/></g>
<g><path style="opacity:1" fill="#618293" d="M 362.5,271.5 C 363.332,291.329 363.832,311.329 364,331.5C 366.822,343.312 367.822,355.312 367,367.5C 366.667,365.5 366.333,363.5 366,361.5C 365.833,367 365.667,372.5 365.5,378C 365.725,387.284 366.058,396.451 366.5,405.5C 365.907,407.382 365.24,409.215 364.5,411C 365,411.5 365.5,412 366,412.5C 367.113,411.24 367.28,410.073 366.5,409C 369.026,402.734 370.859,396.234 372,389.5C 373.553,385.701 374.886,385.701 376,389.5C 377.128,387.655 377.628,385.655 377.5,383.5C 376.167,383.5 374.833,383.5 373.5,383.5C 374.229,380.72 374.896,377.887 375.5,375C 375.66,372.53 374.993,370.364 373.5,368.5C 375.396,367.534 377.396,367.201 379.5,367.5C 379.5,362.167 379.5,356.833 379.5,351.5C 380.833,351.5 382.167,351.5 383.5,351.5C 383.666,344.159 383.5,336.826 383,329.5C 382.005,328.934 381.172,328.267 380.5,327.5C 381.172,326.733 382.005,326.066 383,325.5C 388.308,328.675 391.308,327.008 392,320.5C 392.87,321.108 393.37,321.941 393.5,323C 390.778,326.411 390.945,329.578 394,332.5C 395.044,330.285 395.71,327.952 396,325.5C 396.72,323.745 397.887,322.911 399.5,323C 398.264,327.532 396.931,332.032 395.5,336.5C 397.774,340.522 399.107,344.855 399.5,349.5C 401.655,349.372 403.655,349.872 405.5,351C 403.513,353.47 403.013,356.303 404,359.5C 405.333,360.167 406.333,361.167 407,362.5C 407.766,365.58 408.766,368.58 410,371.5C 411.6,372.866 413.433,373.866 415.5,374.5C 416.041,376.535 416.708,378.535 417.5,380.5C 418.167,378.833 418.833,377.167 419.5,375.5C 422.694,383.311 423.694,391.311 422.5,399.5C 423.5,399.5 424.5,399.5 425.5,399.5C 425.91,406.952 425.243,414.285 423.5,421.5C 423.971,423.246 424.638,424.913 425.5,426.5C 425.167,427.167 424.833,427.833 424.5,428.5C 423.552,425.285 422.219,424.952 420.5,427.5C 419.436,424.629 418.603,421.629 418,418.5C 417.598,419.872 417.098,421.205 416.5,422.5C 417.453,427.49 417.953,432.49 418,437.5C 416.255,435.911 415.088,433.911 414.5,431.5C 413.52,434.086 413.187,436.753 413.5,439.5C 412.448,439.351 411.448,439.517 410.5,440C 412.439,440.908 413.439,442.408 413.5,444.5C 411.278,444.822 409.444,444.155 408,442.5C 407.505,444.473 407.338,446.473 407.5,448.5C 406.127,448.657 404.793,448.49 403.5,448C 407.565,444.076 406.732,442.91 401,444.5C 399.582,451.413 395.082,455.746 387.5,457.5C 387.36,459.124 388.027,460.29 389.5,461C 388.185,462.395 388.519,463.395 390.5,464C 388.447,465.08 386.28,465.914 384,466.5C 383.506,468.134 383.34,469.801 383.5,471.5C 379.894,471.211 376.394,471.544 373,472.5C 371.333,471.5 369.667,470.5 368,469.5C 367.502,472.817 367.335,476.15 367.5,479.5C 361.794,479.829 356.128,479.495 350.5,478.5C 351.246,477.264 351.579,475.93 351.5,474.5C 347.284,473.893 344.45,475.56 343,479.5C 342.667,477.5 342.333,475.5 342,473.5C 340.8,475.412 339.133,476.745 337,477.5C 334.777,483.463 334.277,489.463 335.5,495.5C 338.833,495.5 342.167,495.5 345.5,495.5C 345.5,497.167 345.5,498.833 345.5,500.5C 347.842,500.504 349.842,501.337 351.5,503C 347.916,504.295 347.75,505.795 351,507.5C 377.518,506.463 404.352,506.463 431.5,507.5C 431.5,508.833 431.5,510.167 431.5,511.5C 391.833,511.5 352.167,511.5 312.5,511.5C 312.871,505.72 313.871,500.054 315.5,494.5C 318.776,491.992 321.109,488.659 322.5,484.5C 323.325,483.614 324.325,483.281 325.5,483.5C 326.472,477.367 328.638,471.7 332,466.5C 332.49,465.207 332.657,463.873 332.5,462.5C 335.195,462.067 337.362,460.734 339,458.5C 341.603,453.09 343.436,447.423 344.5,441.5C 345.496,441.586 346.329,441.252 347,440.5C 348.333,437.833 349.667,435.167 351,432.5C 352.011,431.663 353.178,431.33 354.5,431.5C 356.511,424.818 358.511,418.151 360.5,411.5C 361.558,410.4 362.392,409.066 363,407.5C 363.011,362.169 362.844,316.835 362.5,271.5 Z"/></g>
<g><path style="opacity:1" fill="#150f05" d="M 306.5,333.5 C 307.847,334.028 309.181,334.195 310.5,334C 307.431,327.926 303.931,322.092 300,316.5C 296.166,312.007 291.333,309.174 285.5,308C 283.953,306.151 282.119,304.651 280,303.5C 278.604,305.527 276.938,305.86 275,304.5C 272.389,305.071 269.889,305.904 267.5,307C 269.595,307.556 269.762,308.056 268,308.5C 263.539,308.088 259.206,308.088 255,308.5C 254.517,309.448 254.351,310.448 254.5,311.5C 250.385,312.095 246.385,313.095 242.5,314.5C 242.286,316.144 242.62,317.644 243.5,319C 242.5,319.333 241.5,319.667 240.5,320C 241.833,321.333 241.833,322.667 240.5,324C 242.728,324.82 244.728,324.487 246.5,323C 255.346,322.146 264.179,321.312 273,320.5C 277.213,321.752 281.38,322.086 285.5,321.5C 292.238,324.036 298.571,327.369 304.5,331.5C 304.5,331.833 304.5,332.167 304.5,332.5C 303.504,332.586 302.671,332.252 302,331.5C 299.409,332.766 297.575,334.766 296.5,337.5C 294.939,336.653 293.439,336.986 292,338.5C 284.203,333.987 276.036,333.32 267.5,336.5C 265.693,336.028 263.86,335.694 262,335.5C 259.328,335.254 257.828,335.921 257.5,337.5C 255.432,337.033 253.432,336.366 251.5,335.5C 249.047,337.92 246.047,339.086 242.5,339C 243.167,339.333 243.833,339.667 244.5,340C 242.731,341.064 241.064,342.231 239.5,343.5C 237.123,342.905 234.79,342.572 232.5,342.5C 230.146,340.754 229.146,338.421 229.5,335.5C 225.205,335.721 224.538,334.388 227.5,331.5C 227.291,330.914 226.957,330.414 226.5,330C 222.106,329.547 217.939,328.381 214,326.5C 213.697,324.112 212.863,321.945 211.5,320C 212.448,319.517 213.448,319.351 214.5,319.5C 214.283,313.768 214.783,308.101 216,302.5C 218.544,299.92 221.044,299.92 223.5,302.5C 232.682,303.205 241.849,303.872 251,304.5C 254.522,303.578 258.022,302.578 261.5,301.5C 268.471,302.262 275.471,302.762 282.5,303C 285.956,304.986 289.622,306.486 293.5,307.5C 294.853,308.524 295.52,309.857 295.5,311.5C 299.741,312.739 302.741,315.406 304.5,319.5C 305.833,319.5 307.167,319.5 308.5,319.5C 308.491,321.308 308.991,322.975 310,324.5C 312.732,327.616 315.232,330.949 317.5,334.5C 318.729,335.281 320.062,335.781 321.5,336C 320.151,336.772 319.318,337.939 319,339.5C 314.861,337.13 310.694,335.13 306.5,333.5 Z"/></g>
<g><path style="opacity:1" fill="#6e6c6a" d="M 278.5,317.5 C 279.622,316.844 280.955,316.511 282.5,316.5C 285.109,316.441 287.443,317.108 289.5,318.5C 294.477,322.658 299.811,326.324 305.5,329.5C 307.031,330.925 306.698,331.591 304.5,331.5C 298.571,327.369 292.238,324.036 285.5,321.5C 283.071,320.449 280.738,319.116 278.5,317.5 Z"/></g>
<g><path style="opacity:1" fill="#271910" d="M 305.5,329.5 C 299.811,326.324 294.477,322.658 289.5,318.5C 289.047,317.542 288.381,316.708 287.5,316C 282.22,314.905 276.887,314.405 271.5,314.5C 269.952,314.821 269.285,315.821 269.5,317.5C 266.715,318.306 263.881,318.972 261,319.5C 259.833,319.333 258.667,319.167 257.5,319C 258.167,318.667 258.833,318.333 259.5,318C 254.372,316.895 254.372,315.562 259.5,314C 263.405,312.641 267.405,311.808 271.5,311.5C 271.5,310.5 271.5,309.5 271.5,308.5C 278.28,309.014 284.946,310.181 291.5,312C 294.328,314.417 296.661,317.25 298.5,320.5C 297.45,322.102 298.117,322.935 300.5,323C 302.075,325.356 303.741,327.522 305.5,329.5 Z"/></g>
<g><path style="opacity:1" fill="#1c150c" d="M 306.5,333.5 C 306.158,332.662 305.492,332.328 304.5,332.5C 304.5,332.167 304.5,331.833 304.5,331.5C 306.698,331.591 307.031,330.925 305.5,329.5C 303.741,327.522 302.075,325.356 300.5,323C 298.117,322.935 297.45,322.102 298.5,320.5C 296.661,317.25 294.328,314.417 291.5,312C 284.946,310.181 278.28,309.014 271.5,308.5C 271.5,309.5 271.5,310.5 271.5,311.5C 267.405,311.808 263.405,312.641 259.5,314C 254.372,315.562 254.372,316.895 259.5,318C 258.833,318.333 258.167,318.667 257.5,319C 258.667,319.167 259.833,319.333 261,319.5C 263.881,318.972 266.715,318.306 269.5,317.5C 269.285,315.821 269.952,314.821 271.5,314.5C 271.389,315.117 271.056,315.617 270.5,316C 273.168,316.567 275.834,317.067 278.5,317.5C 280.738,319.116 283.071,320.449 285.5,321.5C 281.38,322.086 277.213,321.752 273,320.5C 264.179,321.312 255.346,322.146 246.5,323C 244.728,324.487 242.728,324.82 240.5,324C 241.833,322.667 241.833,321.333 240.5,320C 241.5,319.667 242.5,319.333 243.5,319C 242.62,317.644 242.286,316.144 242.5,314.5C 246.385,313.095 250.385,312.095 254.5,311.5C 254.351,310.448 254.517,309.448 255,308.5C 259.206,308.088 263.539,308.088 268,308.5C 269.762,308.056 269.595,307.556 267.5,307C 269.889,305.904 272.389,305.071 275,304.5C 276.938,305.86 278.604,305.527 280,303.5C 282.119,304.651 283.953,306.151 285.5,308C 291.333,309.174 296.166,312.007 300,316.5C 303.931,322.092 307.431,327.926 310.5,334C 309.181,334.195 307.847,334.028 306.5,333.5 Z"/></g>
<g><path style="opacity:1" fill="#554b43" d="M 271.5,314.5 C 276.887,314.405 282.22,314.905 287.5,316C 288.381,316.708 289.047,317.542 289.5,318.5C 287.443,317.108 285.109,316.441 282.5,316.5C 280.955,316.511 279.622,316.844 278.5,317.5C 275.834,317.067 273.168,316.567 270.5,316C 271.056,315.617 271.389,315.117 271.5,314.5 Z"/></g>
<g><path style="opacity:1" fill="#618293" d="M 122.5,326.5 C 123.552,326.351 124.552,326.517 125.5,327C 124.251,329.21 124.418,331.376 126,333.5C 126.167,360.5 126.333,387.5 126.5,414.5C 126.492,441.979 125.825,469.313 124.5,496.5C 125.448,501.435 125.781,506.435 125.5,511.5C 102.167,511.5 78.8333,511.5 55.5,511.5C 52.26,510.153 48.76,509.486 45,509.5C 39.2103,510.253 33.377,509.753 27.5,508C 31.4213,507.797 35.2546,507.297 39,506.5C 39.3076,507.308 39.8076,507.975 40.5,508.5C 45.4496,507.542 50.4496,506.876 55.5,506.5C 55.5,504.833 55.5,503.167 55.5,501.5C 58.4475,501.223 61.2809,501.556 64,502.5C 64.9907,501.57 65.4907,500.404 65.5,499C 63.5724,496.267 64.2391,495.1 67.5,495.5C 67.238,496.978 67.5713,498.311 68.5,499.5C 69.3142,497.234 69.8142,494.9 70,492.5C 70.3333,492.167 70.6667,491.833 71,491.5C 71.2189,492.938 71.7189,494.271 72.5,495.5C 73.5896,494.609 73.5896,493.609 72.5,492.5C 73.325,491.614 74.325,491.281 75.5,491.5C 77.0568,487.114 78.3901,482.614 79.5,478C 78.5819,475.914 77.9153,473.747 77.5,471.5C 76.325,471.719 75.325,471.386 74.5,470.5C 75.84,469.312 76.5066,467.812 76.5,466C 75.9859,461.233 74.6525,460.733 72.5,464.5C 72.1667,463.833 71.8333,463.167 71.5,462.5C 72.6107,459.79 73.2774,456.956 73.5,454C 73.0779,450.414 72.4112,446.914 71.5,443.5C 72.9778,443.762 74.3112,443.429 75.5,442.5C 73.2036,441.181 71.2036,439.514 69.5,437.5C 70.3311,435.527 70.4978,433.527 70,431.5C 69.7508,432.624 69.2508,433.624 68.5,434.5C 68.1667,434 67.8333,433.5 67.5,433C 69.3545,429.588 69.6879,426.088 68.5,422.5C 70.8651,418.245 71.8651,418.579 71.5,423.5C 73.5,423.5 75.5,423.5 77.5,423.5C 78.934,420.406 79.6007,417.073 79.5,413.5C 78.8755,410.095 78.3755,406.762 78,403.5C 79.8029,403.906 81.6362,403.406 83.5,402C 84.5046,400.493 85.838,399.327 87.5,398.5C 85.7298,397.293 84.7298,395.626 84.5,393.5C 86.5922,386.597 87.0922,379.597 86,372.5C 87,371.833 88,371.167 89,370.5C 89.3475,366.339 91.3475,365.005 95,366.5C 97.7924,363.795 99.1257,360.462 99,356.5C 99.4828,357.448 99.6495,358.448 99.5,359.5C 100.5,359.5 101.5,359.5 102.5,359.5C 102.145,357.11 101.478,354.777 100.5,352.5C 100.696,350.714 101.529,349.381 103,348.5C 103.283,351.742 104.117,352.076 105.5,349.5C 108.935,351.837 110.268,355.17 109.5,359.5C 110.833,359.5 112.167,359.5 113.5,359.5C 113.701,363.35 115.534,364.35 119,362.5C 119.333,363.833 119.667,365.167 120,366.5C 120.065,364.117 120.898,363.45 122.5,364.5C 123.38,351.888 123.38,339.221 122.5,326.5 Z"/></g>
<g><path style="opacity:1" fill="#445560" d="M 362.5,203.5 C 362.785,225.991 362.785,248.658 362.5,271.5C 362.844,316.835 363.011,362.169 363,407.5C 362.392,409.066 361.558,410.4 360.5,411.5C 361.926,406.815 362.593,401.982 362.5,397C 361.582,371.176 361.249,345.343 361.5,319.5C 361.258,280.824 361.592,242.158 362.5,203.5 Z"/></g>
<g><path style="opacity:1" fill="#231e1a" d="M 334.5,330.5 C 334.672,331.492 334.338,332.158 333.5,332.5C 330.935,329.986 328.935,326.986 327.5,323.5C 329.442,318.196 331.442,312.863 333.5,307.5C 334.086,307.709 334.586,308.043 335,308.5C 337.098,315.906 336.931,323.239 334.5,330.5 Z"/></g>
<g><path style="opacity:1" fill="#3b414a" d="M 315.5,364.5 C 315.715,366.179 315.048,367.179 313.5,367.5C 313.5,366.5 313.5,365.5 313.5,364.5C 309.622,364.024 306.288,365.024 303.5,367.5C 299.113,368.891 296.447,371.891 295.5,376.5C 296.325,377.386 297.325,377.719 298.5,377.5C 297.341,379.25 295.674,380.25 293.5,380.5C 292.127,380.657 290.793,380.49 289.5,380C 292.317,375.357 295.651,371.19 299.5,367.5C 304.384,363.739 309.717,362.739 315.5,364.5 Z"/></g>
<g><path style="opacity:1" fill="#72808d" d="M 313.5,367.5 C 311.031,368.569 308.698,369.902 306.5,371.5C 304.5,372.167 302.5,372.833 300.5,373.5C 300.615,371.053 301.615,369.053 303.5,367.5C 306.288,365.024 309.622,364.024 313.5,364.5C 313.5,365.5 313.5,366.5 313.5,367.5 Z"/></g>
<g><path style="opacity:1" fill="#55626f" d="M 303.5,367.5 C 301.615,369.053 300.615,371.053 300.5,373.5C 302.5,372.833 304.5,372.167 306.5,371.5C 304.588,374.461 301.921,376.461 298.5,377.5C 297.325,377.719 296.325,377.386 295.5,376.5C 296.447,371.891 299.113,368.891 303.5,367.5 Z"/></g>
<g><path style="opacity:1" fill="#171a1f" d="M 299.5,367.5 C 295.651,371.19 292.317,375.357 289.5,380C 290.793,380.49 292.127,380.657 293.5,380.5C 292.833,381.167 292.167,381.833 291.5,382.5C 287.818,382.665 284.152,382.499 280.5,382C 279.619,380.529 278.286,379.696 276.5,379.5C 271.088,378.87 265.755,377.87 260.5,376.5C 259.758,375.713 258.925,375.047 258,374.5C 257.312,373.668 257.479,373.002 258.5,372.5C 261.421,371.593 264.421,371.26 267.5,371.5C 267.5,372.167 267.167,372.5 266.5,372.5C 261.534,372.95 261.368,374.283 266,376.5C 271.321,377.729 276.488,377.729 281.5,376.5C 283.315,375.37 285.315,374.704 287.5,374.5C 287.5,373.5 287.5,372.5 287.5,371.5C 281.167,371.5 274.833,371.5 268.5,371.5C 275.321,370.345 282.321,370.179 289.5,371C 290.5,371.5 291.5,372 292.5,372.5C 294.29,370.039 296.623,368.373 299.5,367.5 Z"/></g>
<g><path style="opacity:1" fill="#2a333d" d="M 266.5,372.5 C 266.574,374.411 267.574,375.578 269.5,376C 273.486,376.499 277.486,376.666 281.5,376.5C 276.488,377.729 271.321,377.729 266,376.5C 261.368,374.283 261.534,372.95 266.5,372.5 Z"/></g>
<g><path style="opacity:1" fill="#485a6b" d="M 267.5,371.5 C 267.833,371.5 268.167,371.5 268.5,371.5C 274.833,371.5 281.167,371.5 287.5,371.5C 287.5,372.5 287.5,373.5 287.5,374.5C 285.315,374.704 283.315,375.37 281.5,376.5C 277.486,376.666 273.486,376.499 269.5,376C 267.574,375.578 266.574,374.411 266.5,372.5C 267.167,372.5 267.5,372.167 267.5,371.5 Z"/></g>
<g><path style="opacity:1" fill="#67849a" d="M 268.5,372.5 C 271.85,372.335 275.183,372.502 278.5,373C 276.162,375.769 273.328,376.269 270,374.5C 268.97,374.164 268.47,373.497 268.5,372.5 Z"/></g>
<g><path style="opacity:1" fill="#03060b" d="M 361.5,319.5 C 361.249,345.343 361.582,371.176 362.5,397C 362.593,401.982 361.926,406.815 360.5,411.5C 354.887,421.176 349.554,431.176 344.5,441.5C 340.264,448.297 336.264,455.297 332.5,462.5C 331.272,463.306 330.272,464.306 329.5,465.5C 329.34,463.801 329.506,462.134 330,460.5C 332.094,457.498 333.594,454.164 334.5,450.5C 334.182,449.353 333.516,448.519 332.5,448C 333.448,447.517 334.448,447.351 335.5,447.5C 335.334,443.154 335.501,438.821 336,434.5C 336.692,433.975 337.192,433.308 337.5,432.5C 335.777,430.132 335.11,427.466 335.5,424.5C 337.911,424.863 339.411,423.863 340,421.5C 340.388,417.781 341.055,414.114 342,410.5C 345.432,407.637 347.265,403.97 347.5,399.5C 350.833,399.5 354.167,399.5 357.5,399.5C 357.947,395.817 358.613,392.15 359.5,388.5C 359.453,379.008 359.12,369.508 358.5,360C 359.987,346.394 360.987,332.894 361.5,319.5 Z"/></g>
<g><path style="opacity:1" fill="#485c66" d="M 360.5,411.5 C 358.511,418.151 356.511,424.818 354.5,431.5C 353.178,431.33 352.011,431.663 351,432.5C 349.667,435.167 348.333,437.833 347,440.5C 346.329,441.252 345.496,441.586 344.5,441.5C 349.554,431.176 354.887,421.176 360.5,411.5 Z"/></g>
<g><path style="opacity:1" fill="#475963" d="M 127.5,324.5 C 129.691,386.663 130.024,448.997 128.5,511.5C 128.167,511.5 127.833,511.5 127.5,511.5C 127.5,449.167 127.5,386.833 127.5,324.5 Z"/></g>
<g><path style="opacity:1" fill="#546d7a" d="M 344.5,441.5 C 343.436,447.423 341.603,453.09 339,458.5C 337.362,460.734 335.195,462.067 332.5,462.5C 336.264,455.297 340.264,448.297 344.5,441.5 Z"/></g>
<g><path style="opacity:1" fill="#506873" d="M 332.5,462.5 C 332.657,463.873 332.49,465.207 332,466.5C 328.638,471.7 326.472,477.367 325.5,483.5C 324.325,483.281 323.325,483.614 322.5,484.5C 321.109,488.659 318.776,491.992 315.5,494.5C 319.897,484.707 324.563,475.04 329.5,465.5C 330.272,464.306 331.272,463.306 332.5,462.5 Z"/></g>
<g><path style="opacity:1" fill="#4e656e" d="M 315.5,494.5 C 313.871,500.054 312.871,505.72 312.5,511.5C 311.167,511.5 309.833,511.5 308.5,511.5C 309.495,505.19 311.828,499.524 315.5,494.5 Z"/></g>
</svg>
