<?xml version="1.0" encoding="UTF-8"?>
<!DOCTYPE svg PUBLIC "-//W3C//DTD SVG 1.1//EN" "http://www.w3.org/Graphics/SVG/1.1/DTD/svg11.dtd">
<svg xmlns="http://www.w3.org/2000/svg" version="1.1" width="512px" height="512px" style="shape-rendering:geometricPrecision; text-rendering:geometricPrecision; image-rendering:optimizeQuality; fill-rule:evenodd; clip-rule:evenodd" xmlns:xlink="http://www.w3.org/1999/xlink">
<g><path style="opacity:1" fill="#658697" d="M -0.5,-0.5 C 170.167,-0.5 340.833,-0.5 511.5,-0.5C 511.5,158.5 511.5,317.5 511.5,476.5C 510.778,476.082 510.278,475.416 510,474.5C 509.797,470.579 509.297,466.745 508.5,463C 510.077,460.043 509.744,457.376 507.5,455C 508.487,451.265 509.154,447.432 509.5,443.5C 508.46,411.927 508.46,380.261 509.5,348.5C 509.33,346.285 508.663,344.285 507.5,342.5C 508.233,330.865 508.9,319.198 509.5,307.5C 508.257,289.698 508.257,272.032 509.5,254.5C 508.617,253.452 507.95,252.285 507.5,251C 506.878,244.767 507.544,238.6 509.5,232.5C 508.383,231.051 507.716,229.384 507.5,227.5C 507.421,216.965 507.754,206.465 508.5,196C 507.953,195.075 507.287,194.242 506.5,193.5C 505.823,197.599 504.823,201.599 503.5,205.5C 504.34,211.474 504.34,217.474 503.5,223.5C 501.833,223.5 500.167,223.5 498.5,223.5C 500.087,229.682 500.921,236.015 501,242.5C 502.389,246.272 503.389,246.272 504,242.5C 504.251,244.433 504.751,246.266 505.5,248C 504.324,249.914 503.324,249.748 502.5,247.5C 500.448,249.796 499.448,252.463 499.5,255.5C 501.167,255.5 502.833,255.5 504.5,255.5C 504.65,258.926 503.484,259.259 501,256.5C 499.784,258.962 499.118,261.629 499,264.5C 497.989,265.337 496.822,265.67 495.5,265.5C 495.657,264.127 495.49,262.793 495,261.5C 493.829,262.893 492.329,263.727 490.5,264C 488.904,267.048 486.737,269.548 484,271.5C 482.608,275.22 483.775,277.22 487.5,277.5C 487.784,280.777 487.451,283.943 486.5,287C 485.668,287.688 485.002,287.521 484.5,286.5C 483.317,283.998 482.651,281.665 482.5,279.5C 481.702,281.078 481.202,282.744 481,284.5C 475.335,285.987 474.169,289.154 477.5,294C 477.167,294.5 476.833,295 476.5,295.5C 475.858,292.203 474.691,291.869 473,294.5C 472.667,297.5 472.333,300.5 472,303.5C 471.667,301.833 471.333,300.167 471,298.5C 469.093,301.104 466.593,302.771 463.5,303.5C 463.5,304.5 463.5,305.5 463.5,306.5C 466.733,305.391 470.066,304.558 473.5,304C 474.401,296.872 475.735,296.872 477.5,304C 474.96,305.04 473.293,306.874 472.5,309.5C 468.98,310.464 465.647,311.797 462.5,313.5C 460.263,311.353 458.263,309.02 456.5,306.5C 457.328,305.585 458.328,304.919 459.5,304.5C 460.041,301.266 461.374,298.433 463.5,296C 462.207,295.51 460.873,295.343 459.5,295.5C 459.833,292.5 458.5,291.167 455.5,291.5C 455.5,292.833 455.5,294.167 455.5,295.5C 454.167,295.5 452.833,295.5 451.5,295.5C 451.637,298.812 450.637,301.646 448.5,304C 450.645,304.743 450.811,305.576 449,306.5C 447.7,305.293 446.2,304.626 444.5,304.5C 444.513,301.639 445.679,300.639 448,301.5C 448.781,300.271 449.281,298.938 449.5,297.5C 448.058,294.972 447.558,292.305 448,289.5C 450.091,288.5 451.757,289.167 453,291.5C 453.87,290.892 454.37,290.059 454.5,289C 452.604,285.367 450.604,281.867 448.5,278.5C 445.552,278.916 444.885,280.249 446.5,282.5C 446.444,283.737 445.944,284.737 445,285.5C 443.885,284 443.052,282.333 442.5,280.5C 441.726,279.289 440.893,279.289 440,280.5C 438.092,277.572 436.592,274.406 435.5,271C 433.581,269.066 432.081,269.233 431,271.5C 429.562,266.204 428.395,266.204 427.5,271.5C 426.5,271.5 425.5,271.5 424.5,271.5C 424.671,268.203 424.005,267.869 422.5,270.5C 420.705,269.735 418.872,269.068 417,268.5C 413.895,269.367 410.728,269.701 407.5,269.5C 407.663,267.143 407.497,264.81 407,262.5C 404.667,264.167 402.333,265.833 400,267.5C 399.517,268.448 399.351,269.448 399.5,270.5C 395.5,270.833 395.5,271.167 399.5,271.5C 399.5,272.5 399.5,273.5 399.5,274.5C 395.591,273.737 394.258,275.07 395.5,278.5C 396.689,279.429 398.022,279.762 399.5,279.5C 399.5,280.833 399.5,282.167 399.5,283.5C 397.856,283.286 396.356,283.62 395,284.5C 393.986,288.099 393.153,291.765 392.5,295.5C 391.268,294.855 389.935,294.689 388.5,295C 391.254,293.42 391.088,292.254 388,291.5C 384.712,293.129 383.212,295.796 383.5,299.5C 381.063,299.756 378.729,300.423 376.5,301.5C 376.167,299.167 375.833,296.833 375.5,294.5C 377.455,286.043 377.788,277.543 376.5,269C 377.702,263.05 379.869,257.55 383,252.5C 383.499,248.179 383.666,243.846 383.5,239.5C 378.425,239.758 374.092,238.091 370.5,234.5C 369.692,234.808 369.025,235.308 368.5,236C 371.08,239.459 371.08,242.959 368.5,246.5C 368.931,247.293 369.265,248.127 369.5,249C 368.218,253.752 367.385,258.585 367,263.5C 366.667,263.167 366.333,262.833 366,262.5C 365.667,266.167 365.333,269.833 365,273.5C 364.583,272.244 363.75,271.577 362.5,271.5C 361.833,266.167 361.167,260.833 360.5,255.5C 360.5,253.5 360.5,251.5 360.5,249.5C 359.361,240.935 360.861,232.935 365,225.5C 366.11,223.963 367.61,223.297 369.5,223.5C 369.15,220.547 370.15,218.213 372.5,216.5C 372.783,215.711 373.283,215.044 374,214.5C 374.333,207.833 374.667,201.167 375,194.5C 375.232,193.263 375.732,192.263 376.5,191.5C 377.496,191.586 378.329,191.252 379,190.5C 382.235,186.028 383.735,181.028 383.5,175.5C 385.144,175.714 386.644,175.38 388,174.5C 391.826,168.913 391.826,163.58 388,158.5C 387,153.833 386,149.167 385,144.5C 384.617,143.944 384.117,143.611 383.5,143.5C 378.179,125.027 368.846,108.86 355.5,95C 347.445,91.8269 339.445,88.6602 331.5,85.5C 330.167,84.5 328.833,83.5 327.5,82.5C 327.5,81.5 327.5,80.5 327.5,79.5C 326.5,79.5 325.5,79.5 324.5,79.5C 324.714,77.8561 324.38,76.3561 323.5,75C 319.833,74.6667 316.167,74.3333 312.5,74C 302.605,69.9293 292.272,67.2626 281.5,66C 250.676,64.4253 220.009,64.2586 189.5,65.5C 186.09,65.4571 182.757,65.9571 179.5,67C 175.598,69.1189 171.598,70.9523 167.5,72.5C 163.666,74.242 159.666,75.742 155.5,77C 151.856,80.6053 146.856,82.6053 140.5,83C 138.292,83.9356 136.958,85.6023 136.5,88C 134.048,88.2895 131.715,88.9562 129.5,90C 129.676,91.6597 129.009,93.3264 127.5,95C 121.545,96.8746 116.378,100.041 112,104.5C 111.503,106.81 111.337,109.143 111.5,111.5C 108.708,111.452 106.875,112.785 106,115.5C 104.812,114.437 104.312,113.103 104.5,111.5C 102.5,111.5 100.5,111.5 98.5,111.5C 98.5117,116.117 97.5117,120.451 95.5,124.5C 96.5134,127.116 97.3467,129.782 98,132.5C 99.1131,133.711 100.28,133.711 101.5,132.5C 101.833,133.5 102.167,134.5 102.5,135.5C 101.905,138.14 101.572,140.807 101.5,143.5C 100.5,143.5 99.5,143.5 98.5,143.5C 98.2886,148.059 97.622,152.559 96.5,157C 97.2156,159.792 97.5489,162.626 97.5,165.5C 95.839,171.376 94.339,177.376 93,183.5C 91.9207,180.937 91.4207,178.271 91.5,175.5C 90.1667,175.5 88.8333,175.5 87.5,175.5C 87.5581,170.375 85.0581,167.042 80,165.5C 79.6667,163.5 79.3333,161.5 79,159.5C 78.0467,161.455 76.7134,163.122 75,164.5C 74.5172,165.448 74.3505,166.448 74.5,167.5C 73.5,167.5 72.5,167.5 71.5,167.5C 71.3059,170.33 70.6392,172.996 69.5,175.5C 67.0194,175.323 65.1861,176.323 64,178.5C 63.501,182.821 63.3343,187.154 63.5,191.5C 62.1667,191.5 60.8333,191.5 59.5,191.5C 59.2924,193.92 59.6258,196.253 60.5,198.5C 58.7163,202.943 57.7163,207.609 57.5,212.5C 53.2105,212.744 52.5439,214.411 55.5,217.5C 52.9859,220.532 52.9859,223.532 55.5,226.5C 52.9135,227.48 50.2469,227.813 47.5,227.5C 47.5,228.833 47.5,230.167 47.5,231.5C 48.675,231.281 49.675,231.614 50.5,232.5C 49.065,233.929 48.065,235.595 47.5,237.5C 48.5471,239.056 49.2137,240.723 49.5,242.5C 47.027,242.201 44.8603,241.201 43,239.5C 42.5,239.833 42,240.167 41.5,240.5C 43.2255,242.228 44.5589,244.228 45.5,246.5C 44.5036,249.332 42.5036,250.665 39.5,250.5C 39.5608,253.05 40.8941,254.55 43.5,255C 42.8333,255.333 42.1667,255.667 41.5,256C 43.0843,258.825 42.4176,260.992 39.5,262.5C 40.7994,265.699 40.7994,268.865 39.5,272C 43.1189,274.024 43.2856,276.191 40,278.5C 39.51,279.793 39.3433,281.127 39.5,282.5C 35.5,283.167 35.5,283.833 39.5,284.5C 39.3601,286.124 40.0267,287.29 41.5,288C 35.1887,289.218 34.8554,291.385 40.5,294.5C 42.5443,293.02 43.8776,293.52 44.5,296C 43.494,299.942 41.6607,300.775 39,298.5C 38.8425,300.995 38.6759,303.328 38.5,305.5C 37.1502,304.05 35.4835,303.383 33.5,303.5C 33.7593,307.068 35.7593,308.401 39.5,307.5C 39.6602,309.199 39.4935,310.866 39,312.5C 36.7646,310.798 34.2646,309.798 31.5,309.5C 31.2934,312.239 30.2934,314.573 28.5,316.5C 28.7282,318.397 29.7282,319.73 31.5,320.5C 30.5637,321.974 29.2303,322.974 27.5,323.5C 26.2528,325.006 26.2528,326.506 27.5,328C 26.0443,329.745 24.711,331.578 23.5,333.5C 25.415,335.071 26.415,337.071 26.5,339.5C 22.1784,339.749 21.1784,341.416 23.5,344.5C 21.7701,346.793 20.4367,349.293 19.5,352C 21.4083,353.935 23.2416,353.769 25,351.5C 25.5,351.833 26,352.167 26.5,352.5C 25.8291,354.507 24.8291,356.34 23.5,358C 25.7688,359.758 25.9354,361.592 24,363.5C 22.8086,368.209 23.642,372.376 26.5,376C 25.7589,378.806 24.7589,381.473 23.5,384C 28.249,390.585 27.249,395.918 20.5,400C 23.4429,400.942 26.2762,402.108 29,403.5C 29.6514,405.235 29.4847,406.902 28.5,408.5C 29.8651,409.941 31.3651,411.274 33,412.5C 33.6667,414.5 33.6667,416.5 33,418.5C 31.4345,417.939 30.1011,418.606 29,420.5C 28.3162,421.784 28.4829,422.951 29.5,424C 28.2986,424.903 27.4652,426.069 27,427.5C 24.7452,428.042 22.9119,429.209 21.5,431C 32.1497,433.726 31.8164,435.393 20.5,436C 18.6145,439.967 18.1145,444.134 19,448.5C 21.4905,451.465 22.8238,454.798 23,458.5C 17.6326,456.863 16.466,458.363 19.5,463C 23.3624,463.765 24.3624,465.932 22.5,469.5C 21.2807,468.737 20.2807,467.737 19.5,466.5C 19.1667,466.833 18.8333,467.167 18.5,467.5C 19.9812,470.407 21.3145,473.407 22.5,476.5C 26.6762,477.847 27.0095,478.847 23.5,479.5C 23.1667,483.5 22.8333,483.5 22.5,479.5C 21.1667,479.5 19.8333,479.5 18.5,479.5C 18.3505,480.552 18.5172,481.552 19,482.5C 23.3094,484.411 23.4761,486.578 19.5,489C 18.1667,489.333 16.8333,489.667 15.5,490C 24.8333,491.667 24.8333,493.333 15.5,495C 16.9561,495.423 17.4561,496.256 17,497.5C 15.9916,497.982 14.825,498.148 13.5,498C 11.9889,500.782 12.8223,502.615 16,503.5C 17.5671,502.144 19.4004,501.477 21.5,501.5C 22.6427,504.684 23.3094,508.017 23.5,511.5C 15.5,511.5 7.5,511.5 -0.5,511.5C -0.5,340.833 -0.5,170.167 -0.5,-0.5 Z"/></g>
<g><path style="opacity:1" fill="#607883" d="M 189.5,65.5 C 220.009,64.2586 250.676,64.4253 281.5,66C 292.272,67.2626 302.605,69.9293 312.5,74C 316.167,74.3333 319.833,74.6667 323.5,75C 324.38,76.3561 324.714,77.8561 324.5,79.5C 325.5,79.5 326.5,79.5 327.5,79.5C 327.5,80.5 327.5,81.5 327.5,82.5C 313.032,75.2144 297.699,70.7144 281.5,69C 250.899,66.2333 220.232,65.0667 189.5,65.5 Z"/></g>
<g><path style="opacity:1" fill="#010101" d="M 189.5,65.5 C 220.232,65.0667 250.899,66.2333 281.5,69C 297.699,70.7144 313.032,75.2144 327.5,82.5C 328.833,83.5 330.167,84.5 331.5,85.5C 330.027,87.5929 330.527,89.2595 333,90.5C 334.364,89.7417 335.531,90.2417 336.5,92C 338.101,92.2734 339.601,92.7734 341,93.5C 341.451,91.0712 342.285,90.9045 343.5,93C 342.62,94.3561 342.286,95.8561 342.5,97.5C 344.5,97.1667 346.5,96.8333 348.5,96.5C 348.5,97.8333 348.5,99.1667 348.5,100.5C 349.5,100.5 350.5,100.5 351.5,100.5C 351.238,101.978 351.571,103.311 352.5,104.5C 353.192,103.975 353.692,103.308 354,102.5C 357.178,104.337 359.345,106.504 360.5,109C 364.189,114.344 368.189,119.344 372.5,124C 372.043,124.414 371.709,124.914 371.5,125.5C 375.608,133.056 378.608,141.056 380.5,149.5C 380.204,155.979 379.871,162.646 379.5,169.5C 383.315,169.712 383.315,170.378 379.5,171.5C 378.558,171.392 377.725,171.059 377,170.5C 376.812,172.061 377.645,172.728 379.5,172.5C 378.044,176.373 376.877,180.373 376,184.5C 375.667,183.5 375.333,182.5 375,181.5C 373.073,185.064 372.573,188.731 373.5,192.5C 372.273,193.59 371.44,194.924 371,196.5C 370.667,195.833 370.333,195.167 370,194.5C 369.691,195.766 369.191,196.933 368.5,198C 369.451,201.057 369.784,204.223 369.5,207.5C 368.022,207.238 366.689,207.571 365.5,208.5C 367.264,211.215 368.264,214.215 368.5,217.5C 364.74,218.926 362.407,221.593 361.5,225.5C 359.926,227.102 359.259,229.102 359.5,231.5C 358.276,236.284 357.609,241.284 357.5,246.5C 359.673,262.07 360.006,277.737 358.5,293.5C 357.808,292.975 357.308,292.308 357,291.5C 355.934,293.099 354.434,294.099 352.5,294.5C 347.627,289.534 341.96,287.867 335.5,289.5C 330.818,291.474 325.818,292.641 320.5,293C 310.806,293.974 301.139,294.141 291.5,293.5C 288.55,291.885 285.884,289.885 283.5,287.5C 280.778,282.332 278.444,276.999 276.5,271.5C 275.336,267.341 274.003,263.341 272.5,259.5C 272.669,253.42 269.669,250.753 263.5,251.5C 260.774,251.682 258.107,252.182 255.5,253C 253.56,259.655 252.227,266.488 251.5,273.5C 248.987,275.887 247.487,278.887 247,282.5C 244.398,285.383 241.232,287.05 237.5,287.5C 234.833,288.833 232.167,290.167 229.5,291.5C 205.235,293.683 180.902,294.85 156.5,295C 155.584,295.278 154.918,295.778 154.5,296.5C 148.671,296.968 143.004,297.635 137.5,298.5C 135.901,298.232 134.568,298.566 133.5,299.5C 133.253,310.21 131.753,320.876 129,331.5C 128.034,325.87 127.367,320.204 127,314.5C 126.617,313.944 126.117,313.611 125.5,313.5C 124.046,309.764 121.713,306.764 118.5,304.5C 118.5,303.833 118.167,303.5 117.5,303.5C 117.5,303.167 117.5,302.833 117.5,302.5C 115.369,301.686 113.036,301.186 110.5,301C 109.244,300.583 108.577,299.75 108.5,298.5C 111.852,299.553 115.185,299.553 118.5,298.5C 116.257,297.526 113.924,297.192 111.5,297.5C 111.5,296.167 111.5,294.833 111.5,293.5C 120.645,292.011 120.645,290.344 111.5,288.5C 112.081,285.244 111.415,282.077 109.5,279C 111.943,266.877 111.943,254.71 109.5,242.5C 111.617,238.324 111.951,233.991 110.5,229.5C 109.808,230.025 109.308,230.692 109,231.5C 108.833,229.833 108.667,228.167 108.5,226.5C 108.61,220.332 108.61,214.165 108.5,208C 108.959,205.645 109.792,203.479 111,201.5C 111.264,186.258 112.43,171.091 114.5,156C 113.773,148.513 113.773,141.18 114.5,134C 115.112,131.942 116.112,130.109 117.5,128.5C 116.098,127.158 116.431,126.324 118.5,126C 117.282,124.562 116.615,122.895 116.5,121C 118.257,118.282 119.591,115.282 120.5,112C 119.226,107.051 121.06,103.551 126,101.5C 126.945,101.905 127.612,102.572 128,103.5C 132.11,98.9167 137.277,96.9167 143.5,97.5C 143.83,94.8906 145.33,93.2239 148,92.5C 148.406,89.5056 149.906,87.339 152.5,86C 152.167,85.6667 151.833,85.3333 151.5,85C 152.823,84.1841 153.489,83.0174 153.5,81.5C 158.506,78.9987 163.173,75.9987 167.5,72.5C 171.598,70.9523 175.598,69.1189 179.5,67C 182.757,65.9571 186.09,65.4571 189.5,65.5 Z"/></g>
<g><path style="opacity:1" fill="#64818d" d="M 167.5,72.5 C 163.173,75.9987 158.506,78.9987 153.5,81.5C 144.914,85.2444 137.247,90.4111 130.5,97C 125.256,99.2029 120.422,102.036 116,105.5C 112.397,115.31 109.397,125.31 107,135.5C 106.714,161.838 106.214,188.172 105.5,214.5C 106.191,241.502 106.858,268.502 107.5,295.5C 107.5,296.5 107.5,297.5 107.5,298.5C 103.995,299.864 102.162,302.531 102,306.5C 101.333,310.833 101.333,315.167 102,319.5C 102.24,321.852 103.073,323.852 104.5,325.5C 106.543,328.543 109.21,330.876 112.5,332.5C 112.5,332.833 112.5,333.167 112.5,333.5C 109.383,333.358 106.883,332.024 105,329.5C 98.9725,323.377 96.9725,316.043 99,307.5C 103.442,295.981 105.275,283.981 104.5,271.5C 104.474,265.754 103.807,260.254 102.5,255C 103.327,251.406 103.993,247.739 104.5,244C 104.104,234.095 104.104,224.095 104.5,214C 104.167,194.163 103.667,174.329 103,154.5C 102.667,153.833 102.333,153.167 102,152.5C 101.667,162.5 101.333,172.5 101,182.5C 100.971,179.633 100.138,177.133 98.5,175C 99.9827,171.562 99.6494,168.395 97.5,165.5C 97.5489,162.626 97.2156,159.792 96.5,157C 97.622,152.559 98.2886,148.059 98.5,143.5C 99.5,143.5 100.5,143.5 101.5,143.5C 101.572,140.807 101.905,138.14 102.5,135.5C 102.167,134.5 101.833,133.5 101.5,132.5C 100.28,133.711 99.1131,133.711 98,132.5C 97.3467,129.782 96.5134,127.116 95.5,124.5C 97.5117,120.451 98.5117,116.117 98.5,111.5C 100.5,111.5 102.5,111.5 104.5,111.5C 104.312,113.103 104.812,114.437 106,115.5C 106.875,112.785 108.708,111.452 111.5,111.5C 111.337,109.143 111.503,106.81 112,104.5C 116.378,100.041 121.545,96.8746 127.5,95C 129.009,93.3264 129.676,91.6597 129.5,90C 131.715,88.9562 134.048,88.2895 136.5,88C 136.958,85.6023 138.292,83.9356 140.5,83C 146.856,82.6053 151.856,80.6053 155.5,77C 159.666,75.742 163.666,74.242 167.5,72.5 Z"/></g>
<g><path style="opacity:1" fill="#040d10" d="M 331.5,85.5 C 339.445,88.6602 347.445,91.8269 355.5,95C 368.846,108.86 378.179,125.027 383.5,143.5C 385.966,152.003 386.8,160.669 386,169.5C 381.382,176.183 378.215,183.516 376.5,191.5C 375.732,192.263 375.232,193.263 375,194.5C 374.667,201.167 374.333,207.833 374,214.5C 373.283,215.044 372.783,215.711 372.5,216.5C 371.391,216.557 370.391,216.89 369.5,217.5C 369.167,217.5 368.833,217.5 368.5,217.5C 368.264,214.215 367.264,211.215 365.5,208.5C 366.689,207.571 368.022,207.238 369.5,207.5C 369.784,204.223 369.451,201.057 368.5,198C 369.191,196.933 369.691,195.766 370,194.5C 370.333,195.167 370.667,195.833 371,196.5C 371.44,194.924 372.273,193.59 373.5,192.5C 372.573,188.731 373.073,185.064 375,181.5C 375.333,182.5 375.667,183.5 376,184.5C 376.877,180.373 378.044,176.373 379.5,172.5C 377.645,172.728 376.812,172.061 377,170.5C 377.725,171.059 378.558,171.392 379.5,171.5C 383.315,170.378 383.315,169.712 379.5,169.5C 379.871,162.646 380.204,155.979 380.5,149.5C 378.608,141.056 375.608,133.056 371.5,125.5C 371.709,124.914 372.043,124.414 372.5,124C 368.189,119.344 364.189,114.344 360.5,109C 359.345,106.504 357.178,104.337 354,102.5C 353.692,103.308 353.192,103.975 352.5,104.5C 351.571,103.311 351.238,101.978 351.5,100.5C 350.5,100.5 349.5,100.5 348.5,100.5C 348.5,99.1667 348.5,97.8333 348.5,96.5C 346.5,96.8333 344.5,97.1667 342.5,97.5C 342.286,95.8561 342.62,94.3561 343.5,93C 342.285,90.9045 341.451,91.0712 341,93.5C 339.601,92.7734 338.101,92.2734 336.5,92C 335.531,90.2417 334.364,89.7417 333,90.5C 330.527,89.2595 330.027,87.5929 331.5,85.5 Z"/></g>
<g><path style="opacity:1" fill="#5e7883" d="M 383.5,143.5 C 384.117,143.611 384.617,143.944 385,144.5C 386,149.167 387,153.833 388,158.5C 391.826,163.58 391.826,168.913 388,174.5C 386.644,175.38 385.144,175.714 383.5,175.5C 383.735,181.028 382.235,186.028 379,190.5C 378.329,191.252 377.496,191.586 376.5,191.5C 378.215,183.516 381.382,176.183 386,169.5C 386.8,160.669 385.966,152.003 383.5,143.5 Z"/></g>
<g><path style="opacity:1" fill="#638495" d="M 511.5,476.5 C 511.5,488.167 511.5,499.833 511.5,511.5C 491.5,511.5 471.5,511.5 451.5,511.5C 451.25,510.078 450.417,509.078 449,508.5C 448.506,506.866 448.34,505.199 448.5,503.5C 449.5,503.5 450.5,503.5 451.5,503.5C 451.819,507.3 452.819,507.466 454.5,504C 458.362,503.384 462.029,503.051 465.5,503C 464.104,500.292 462.437,497.792 460.5,495.5C 459.667,497.5 458.833,499.5 458,501.5C 456.51,497.649 457.677,494.482 461.5,492C 460.315,490.647 458.981,489.48 457.5,488.5C 458.376,487.749 459.376,487.249 460.5,487C 458.727,483.616 459.727,481.449 463.5,480.5C 462.271,479.719 460.938,479.219 459.5,479C 460.993,477.632 462.493,477.465 464,478.5C 465.578,477.289 465.745,475.955 464.5,474.5C 462.894,475.077 461.228,475.41 459.5,475.5C 455.529,474.62 451.529,473.953 447.5,473.5C 447.67,472.178 447.337,471.011 446.5,470C 443.83,469.457 441.33,469.957 439,471.5C 436.474,470.872 435.641,469.539 436.5,467.5C 438.225,466.985 439.892,466.318 441.5,465.5C 437.965,464.779 434.465,465.112 431,466.5C 429.89,464.757 428.39,463.424 426.5,462.5C 427.567,459.566 429.234,457.066 431.5,455C 428.998,453.585 426.332,453.419 423.5,454.5C 423.762,455.978 423.429,457.311 422.5,458.5C 421.359,456.579 421.192,454.579 422,452.5C 424.941,451.941 427.775,451.107 430.5,450C 425.383,446.712 424.05,442.212 426.5,436.5C 425.657,430.798 424.657,425.131 423.5,419.5C 421.027,419.736 419.36,421.069 418.5,423.5C 417.126,420.637 416.126,417.637 415.5,414.5C 418.418,412.992 419.084,410.825 417.5,408C 418.218,405.539 418.885,403.039 419.5,400.5C 418.065,398.626 416.898,396.626 416,394.5C 415.506,396.134 415.34,397.801 415.5,399.5C 414.5,399.5 413.5,399.5 412.5,399.5C 411.783,396.677 410.783,394.01 409.5,391.5C 410.552,391.649 411.552,391.483 412.5,391C 410.727,387.616 411.727,385.449 415.5,384.5C 414.184,383.193 413.184,381.693 412.5,380C 409.167,379.667 405.833,379.333 402.5,379C 401.929,376.389 401.096,373.889 400,371.5C 397.772,373.725 395.939,376.225 394.5,379C 391.093,380.935 387.426,381.768 383.5,381.5C 383.5,379.5 383.5,377.5 383.5,375.5C 378.843,373.771 374.176,372.604 369.5,372C 369,371.5 368.5,371 368,370.5C 367.667,367.833 367.333,365.167 367,362.5C 366.506,364.134 366.34,365.801 366.5,367.5C 364.801,367.527 363.467,368.194 362.5,369.5C 362.5,336.833 362.5,304.167 362.5,271.5C 363.75,271.577 364.583,272.244 365,273.5C 365.333,269.833 365.667,266.167 366,262.5C 366.333,262.833 366.667,263.167 367,263.5C 367.385,258.585 368.218,253.752 369.5,249C 369.265,248.127 368.931,247.293 368.5,246.5C 371.08,242.959 371.08,239.459 368.5,236C 369.025,235.308 369.692,234.808 370.5,234.5C 374.092,238.091 378.425,239.758 383.5,239.5C 383.666,243.846 383.499,248.179 383,252.5C 379.869,257.55 377.702,263.05 376.5,269C 377.788,277.543 377.455,286.043 375.5,294.5C 375.833,296.833 376.167,299.167 376.5,301.5C 378.729,300.423 381.063,299.756 383.5,299.5C 383.212,295.796 384.712,293.129 388,291.5C 391.088,292.254 391.254,293.42 388.5,295C 389.935,294.689 391.268,294.855 392.5,295.5C 393.153,291.765 393.986,288.099 395,284.5C 396.356,283.62 397.856,283.286 399.5,283.5C 399.5,282.167 399.5,280.833 399.5,279.5C 398.022,279.762 396.689,279.429 395.5,278.5C 394.258,275.07 395.591,273.737 399.5,274.5C 399.5,273.5 399.5,272.5 399.5,271.5C 395.5,271.167 395.5,270.833 399.5,270.5C 399.351,269.448 399.517,268.448 400,267.5C 402.333,265.833 404.667,264.167 407,262.5C 407.497,264.81 407.663,267.143 407.5,269.5C 410.728,269.701 413.895,269.367 417,268.5C 418.872,269.068 420.705,269.735 422.5,270.5C 424.005,267.869 424.671,268.203 424.5,271.5C 425.5,271.5 426.5,271.5 427.5,271.5C 428.395,266.204 429.562,266.204 431,271.5C 432.081,269.233 433.581,269.066 435.5,271C 436.592,274.406 438.092,277.572 440,280.5C 440.893,279.289 441.726,279.289 442.5,280.5C 443.052,282.333 443.885,284 445,285.5C 445.944,284.737 446.444,283.737 446.5,282.5C 444.885,280.249 445.552,278.916 448.5,278.5C 450.604,281.867 452.604,285.367 454.5,289C 454.37,290.059 453.87,290.892 453,291.5C 451.757,289.167 450.091,288.5 448,289.5C 447.558,292.305 448.058,294.972 449.5,297.5C 449.281,298.938 448.781,300.271 448,301.5C 445.679,300.639 444.513,301.639 444.5,304.5C 446.2,304.626 447.7,305.293 449,306.5C 450.811,305.576 450.645,304.743 448.5,304C 450.637,301.646 451.637,298.812 451.5,295.5C 452.833,295.5 454.167,295.5 455.5,295.5C 455.5,294.167 455.5,292.833 455.5,291.5C 458.5,291.167 459.833,292.5 459.5,295.5C 460.873,295.343 462.207,295.51 463.5,296C 461.374,298.433 460.041,301.266 459.5,304.5C 458.328,304.919 457.328,305.585 456.5,306.5C 458.263,309.02 460.263,311.353 462.5,313.5C 465.647,311.797 468.98,310.464 472.5,309.5C 473.293,306.874 474.96,305.04 477.5,304C 475.735,296.872 474.401,296.872 473.5,304C 470.066,304.558 466.733,305.391 463.5,306.5C 463.5,305.5 463.5,304.5 463.5,303.5C 466.593,302.771 469.093,301.104 471,298.5C 471.333,300.167 471.667,301.833 472,303.5C 472.333,300.5 472.667,297.5 473,294.5C 474.691,291.869 475.858,292.203 476.5,295.5C 476.833,295 477.167,294.5 477.5,294C 474.169,289.154 475.335,285.987 481,284.5C 481.202,282.744 481.702,281.078 482.5,279.5C 482.651,281.665 483.317,283.998 484.5,286.5C 485.002,287.521 485.668,287.688 486.5,287C 487.451,283.943 487.784,280.777 487.5,277.5C 483.775,277.22 482.608,275.22 484,271.5C 486.737,269.548 488.904,267.048 490.5,264C 492.329,263.727 493.829,262.893 495,261.5C 495.49,262.793 495.657,264.127 495.5,265.5C 496.822,265.67 497.989,265.337 499,264.5C 499.118,261.629 499.784,258.962 501,256.5C 503.484,259.259 504.65,258.926 504.5,255.5C 502.833,255.5 501.167,255.5 499.5,255.5C 499.448,252.463 500.448,249.796 502.5,247.5C 503.324,249.748 504.324,249.914 505.5,248C 504.751,246.266 504.251,244.433 504,242.5C 503.389,246.272 502.389,246.272 501,242.5C 500.921,236.015 500.087,229.682 498.5,223.5C 500.167,223.5 501.833,223.5 503.5,223.5C 504.34,217.474 504.34,211.474 503.5,205.5C 504.823,201.599 505.823,197.599 506.5,193.5C 507.287,194.242 507.953,195.075 508.5,196C 507.754,206.465 507.421,216.965 507.5,227.5C 507.716,229.384 508.383,231.051 509.5,232.5C 507.544,238.6 506.878,244.767 507.5,251C 507.95,252.285 508.617,253.452 509.5,254.5C 508.257,272.032 508.257,289.698 509.5,307.5C 508.9,319.198 508.233,330.865 507.5,342.5C 508.663,344.285 509.33,346.285 509.5,348.5C 508.46,380.261 508.46,411.927 509.5,443.5C 509.154,447.432 508.487,451.265 507.5,455C 509.744,457.376 510.077,460.043 508.5,463C 509.297,466.745 509.797,470.579 510,474.5C 510.278,475.416 510.778,476.082 511.5,476.5 Z"/></g>
<g><path style="opacity:1" fill="#233139" d="M 368.5,217.5 C 368.833,217.5 369.167,217.5 369.5,217.5C 366.5,219.833 363.833,222.5 361.5,225.5C 362.407,221.593 364.74,218.926 368.5,217.5 Z"/></g>
<g><path style="opacity:1" fill="#4f646f" d="M 372.5,216.5 C 370.15,218.213 369.15,220.547 369.5,223.5C 367.61,223.297 366.11,223.963 365,225.5C 360.861,232.935 359.361,240.935 360.5,249.5C 359.51,243.69 359.177,237.69 359.5,231.5C 359.259,229.102 359.926,227.102 361.5,225.5C 363.833,222.5 366.5,219.833 369.5,217.5C 370.391,216.89 371.391,216.557 372.5,216.5 Z"/></g>
<g><path style="opacity:1" fill="#7a938f" d="M 223.5,231.5 C 225.027,231.427 226.027,232.094 226.5,233.5C 223.792,232.551 221.126,232.551 218.5,233.5C 220.552,236.536 222.552,239.536 224.5,242.5C 221.474,239.805 218.474,237.138 215.5,234.5C 215.196,233.85 214.863,233.183 214.5,232.5C 217.428,231.516 220.428,231.183 223.5,231.5 Z"/></g>
<g><path style="opacity:1" fill="#c3e0dc" d="M 226.5,233.5 C 227.172,234.267 228.005,234.934 229,235.5C 229.497,238.146 229.664,240.813 229.5,243.5C 227.708,243.634 226.042,243.301 224.5,242.5C 222.552,239.536 220.552,236.536 218.5,233.5C 221.126,232.551 223.792,232.551 226.5,233.5 Z"/></g>
<g><path style="opacity:1" fill="#04190d" d="M 195.5,237.5 C 197.675,237.682 199.675,238.349 201.5,239.5C 203.187,239.24 204.687,238.573 206,237.5C 206.928,239.335 208.094,239.668 209.5,238.5C 209.736,239.247 210.07,240.08 210.5,241C 212.824,242.374 215.157,242.707 217.5,242C 217.043,242.414 216.709,242.914 216.5,243.5C 217.687,244.519 218.687,245.686 219.5,247C 219.336,249.699 219.17,252.532 219,255.5C 217.471,258.516 214.971,259.849 211.5,259.5C 208.624,258.975 205.957,258.642 203.5,258.5C 202.246,260.259 202.579,261.759 204.5,263C 206.5,263.333 208.5,263.667 210.5,264C 214.417,266.994 213.75,268.828 208.5,269.5C 205.86,268.905 203.193,268.572 200.5,268.5C 198.914,267.852 197.247,267.352 195.5,267C 193.617,264.744 191.283,263.077 188.5,262C 186.829,260.157 185.829,257.991 185.5,255.5C 185.833,255.5 186.167,255.5 186.5,255.5C 187.167,256.833 188.167,257.833 189.5,258.5C 189.833,259.5 190.5,260.167 191.5,260.5C 195.821,265.332 201.155,267.332 207.5,266.5C 202.878,263.546 198.878,259.879 195.5,255.5C 195.5,254.833 195.5,254.167 195.5,253.5C 195.5,248.167 195.5,242.833 195.5,237.5 Z"/></g>
<g><path style="opacity:1" fill="#03120c" d="M 231.5,235.5 C 230.18,234.058 228.514,233.392 226.5,233.5C 226.027,232.094 225.027,231.427 223.5,231.5C 220.038,230.518 216.371,230.185 212.5,230.5C 212.088,232.973 213.088,234.306 215.5,234.5C 218.474,237.138 221.474,239.805 224.5,242.5C 224.328,243.492 224.662,244.158 225.5,244.5C 225.557,245.609 225.89,246.609 226.5,247.5C 226.5,250.167 226.5,252.833 226.5,255.5C 228.5,255.5 230.5,255.5 232.5,255.5C 232.579,256.93 232.246,258.264 231.5,259.5C 228.737,261.011 225.904,262.344 223,263.5C 219.639,261.082 216.139,260.915 212.5,263C 214.75,263.611 216.417,264.944 217.5,267C 216.027,267.71 215.36,268.876 215.5,270.5C 210.104,272.149 205.104,271.483 200.5,268.5C 203.193,268.572 205.86,268.905 208.5,269.5C 213.75,268.828 214.417,266.994 210.5,264C 208.5,263.667 206.5,263.333 204.5,263C 202.579,261.759 202.246,260.259 203.5,258.5C 205.957,258.642 208.624,258.975 211.5,259.5C 214.971,259.849 217.471,258.516 219,255.5C 219.17,252.532 219.336,249.699 219.5,247C 218.687,245.686 217.687,244.519 216.5,243.5C 216.709,242.914 217.043,242.414 217.5,242C 215.157,242.707 212.824,242.374 210.5,241C 210.07,240.08 209.736,239.247 209.5,238.5C 208.094,239.668 206.928,239.335 206,237.5C 204.687,238.573 203.187,239.24 201.5,239.5C 199.675,238.349 197.675,237.682 195.5,237.5C 194.5,237.5 193.5,237.5 192.5,237.5C 197.049,236.292 201.715,235.125 206.5,234C 207.227,232.601 207.727,231.101 208,229.5C 208.333,229.833 208.667,230.167 209,230.5C 214.69,228.069 220.523,227.902 226.5,230C 228.59,231.588 230.257,233.422 231.5,235.5 Z"/></g>
<g><path style="opacity:1" fill="#4f625f" d="M 223.5,231.5 C 220.428,231.183 217.428,231.516 214.5,232.5C 214.863,233.183 215.196,233.85 215.5,234.5C 213.088,234.306 212.088,232.973 212.5,230.5C 216.371,230.185 220.038,230.518 223.5,231.5 Z"/></g>
<g><path style="opacity:1" fill="#03150b" d="M 339.5,231.5 C 336.5,231.5 333.5,231.5 330.5,231.5C 330.259,235.019 331.593,237.685 334.5,239.5C 336.008,241.181 337.008,243.181 337.5,245.5C 337.182,250.032 337.515,254.366 338.5,258.5C 338.585,259.995 337.919,260.995 336.5,261.5C 335.686,259.234 335.186,256.9 335,254.5C 331.559,256.276 328.392,258.443 325.5,261C 320.902,262.024 316.568,261.524 312.5,259.5C 312.167,259.833 311.833,260.167 311.5,260.5C 314.401,262.852 316.401,265.852 317.5,269.5C 316.652,270.991 315.319,271.658 313.5,271.5C 311.201,271.401 309.201,270.734 307.5,269.5C 309.5,269.5 311.5,269.5 313.5,269.5C 313.039,266.697 311.705,264.363 309.5,262.5C 307.702,259.655 306.702,256.489 306.5,253C 307.275,248.177 307.942,243.343 308.5,238.5C 306.833,238.5 305.167,238.5 303.5,238.5C 303.5,237.5 303.5,236.5 303.5,235.5C 309.268,235.124 314.601,233.457 319.5,230.5C 325.807,229.336 332.141,229.169 338.5,230C 339.056,230.383 339.389,230.883 339.5,231.5 Z"/></g>
<g><path style="opacity:1" fill="#adcbc8" d="M 341.5,233.5 C 342.901,237.543 342.734,241.543 341,245.5C 340.329,246.252 339.496,246.586 338.5,246.5C 338.5,245.833 338.167,245.5 337.5,245.5C 337.008,243.181 336.008,241.181 334.5,239.5C 334.08,237.906 333.414,236.406 332.5,235C 332.645,234.228 332.978,233.561 333.5,233C 336.221,232.398 338.887,232.565 341.5,233.5 Z"/></g>
<g><path style="opacity:1" fill="#748c80" d="M 303.5,239.5 C 304.5,239.5 305.5,239.5 306.5,239.5C 305.693,245.464 305.36,251.464 305.5,257.5C 304.512,252.36 304.179,247.026 304.5,241.5C 302.486,241.392 300.82,242.058 299.5,243.5C 299.833,241.167 301.167,239.833 303.5,239.5 Z"/></g>
<g><path style="opacity:1" fill="#162c21" d="M 303.5,239.5 C 303.5,239.167 303.5,238.833 303.5,238.5C 305.167,238.5 306.833,238.5 308.5,238.5C 307.942,243.343 307.275,248.177 306.5,253C 306.702,256.489 307.702,259.655 309.5,262.5C 308.833,262.167 308.167,261.833 307.5,261.5C 306.326,260.486 305.66,259.153 305.5,257.5C 305.36,251.464 305.693,245.464 306.5,239.5C 305.5,239.5 304.5,239.5 303.5,239.5 Z"/></g>
<g><path style="opacity:1" fill="#88a4a1" d="M 226.5,233.5 C 228.514,233.392 230.18,234.058 231.5,235.5C 231.665,239.182 231.499,242.848 231,246.5C 230.667,246.833 230.333,247.167 230,247.5C 228.385,246.614 226.885,245.614 225.5,244.5C 224.662,244.158 224.328,243.492 224.5,242.5C 226.042,243.301 227.708,243.634 229.5,243.5C 229.664,240.813 229.497,238.146 229,235.5C 228.005,234.934 227.172,234.267 226.5,233.5 Z"/></g>
<g><path style="opacity:1" fill="#2b453a" d="M 191.5,238.5 C 191.5,237.833 191.833,237.5 192.5,237.5C 193.5,237.5 194.5,237.5 195.5,237.5C 195.5,242.833 195.5,248.167 195.5,253.5C 194.662,253.158 194.328,252.492 194.5,251.5C 194.5,247.167 194.5,242.833 194.5,238.5C 193.5,238.5 192.5,238.5 191.5,238.5 Z"/></g>
<g><path style="opacity:1" fill="#668483" d="M 341.5,233.5 C 342.117,233.611 342.617,233.944 343,234.5C 343.91,239.658 343.41,244.658 341.5,249.5C 340.675,250.386 339.675,250.719 338.5,250.5C 338.5,249.167 338.5,247.833 338.5,246.5C 339.496,246.586 340.329,246.252 341,245.5C 342.734,241.543 342.901,237.543 341.5,233.5 Z"/></g>
<g><path style="opacity:1" fill="#c7e6db" d="M 305.5,257.5 C 305.66,259.153 306.326,260.486 307.5,261.5C 307.5,262.167 307.5,262.833 307.5,263.5C 306.172,265.745 304.339,266.078 302,264.5C 301.537,257.144 300.704,250.144 299.5,243.5C 300.82,242.058 302.486,241.392 304.5,241.5C 304.179,247.026 304.512,252.36 305.5,257.5 Z"/></g>
<g><path style="opacity:1" fill="#4b6663" d="M 231.5,235.5 C 232.344,238.345 233.01,241.345 233.5,244.5C 233.5,246.5 233.5,248.5 233.5,250.5C 230.509,250.834 228.176,249.834 226.5,247.5C 225.89,246.609 225.557,245.609 225.5,244.5C 226.885,245.614 228.385,246.614 230,247.5C 230.333,247.167 230.667,246.833 231,246.5C 231.499,242.848 231.665,239.182 231.5,235.5 Z"/></g>
<g><path style="opacity:1" fill="#3e504d" d="M 185.5,246.5 C 185.368,249.57 185.701,252.57 186.5,255.5C 186.167,255.5 185.833,255.5 185.5,255.5C 184.06,254.054 183.393,252.221 183.5,250C 183.608,248.319 184.275,247.152 185.5,246.5 Z"/></g>
<g><path style="opacity:1" fill="#2e4745" d="M 339.5,231.5 C 342.367,231.369 344.033,232.703 344.5,235.5C 345.684,244.093 343.684,251.76 338.5,258.5C 337.515,254.366 337.182,250.032 337.5,245.5C 338.167,245.5 338.5,245.833 338.5,246.5C 338.5,247.833 338.5,249.167 338.5,250.5C 339.675,250.719 340.675,250.386 341.5,249.5C 343.41,244.658 343.91,239.658 343,234.5C 342.617,233.944 342.117,233.611 341.5,233.5C 338.887,232.565 336.221,232.398 333.5,233C 332.978,233.561 332.645,234.228 332.5,235C 333.414,236.406 334.08,237.906 334.5,239.5C 331.593,237.685 330.259,235.019 330.5,231.5C 333.5,231.5 336.5,231.5 339.5,231.5 Z"/></g>
<g><path style="opacity:1" fill="#67817c" d="M 191.5,238.5 C 192.5,238.5 193.5,238.5 194.5,238.5C 194.5,242.833 194.5,247.167 194.5,251.5C 193.518,248.038 193.185,244.371 193.5,240.5C 190.27,240.561 188.437,242.228 188,245.5C 187.271,250.009 187.771,254.342 189.5,258.5C 188.167,257.833 187.167,256.833 186.5,255.5C 185.701,252.57 185.368,249.57 185.5,246.5C 186.348,242.983 188.348,240.316 191.5,238.5 Z"/></g>
<g><path style="opacity:1" fill="#8fb4ad" d="M 194.5,251.5 C 194.328,252.492 194.662,253.158 195.5,253.5C 195.5,254.167 195.5,254.833 195.5,255.5C 196.15,257.435 196.483,259.435 196.5,261.5C 194.784,261.371 193.117,261.038 191.5,260.5C 190.5,260.167 189.833,259.5 189.5,258.5C 187.771,254.342 187.271,250.009 188,245.5C 188.437,242.228 190.27,240.561 193.5,240.5C 193.185,244.371 193.518,248.038 194.5,251.5 Z"/></g>
<g><path style="opacity:1" fill="#142c27" d="M 233.5,244.5 C 234.791,248.177 234.458,251.844 232.5,255.5C 230.5,255.5 228.5,255.5 226.5,255.5C 226.5,252.833 226.5,250.167 226.5,247.5C 228.176,249.834 230.509,250.834 233.5,250.5C 233.5,248.5 233.5,246.5 233.5,244.5 Z"/></g>
<g><path style="opacity:1" fill="#060e0f" d="M 153.5,81.5 C 153.489,83.0174 152.823,84.1841 151.5,85C 151.833,85.3333 152.167,85.6667 152.5,86C 149.906,87.339 148.406,89.5056 148,92.5C 145.33,93.2239 143.83,94.8906 143.5,97.5C 137.277,96.9167 132.11,98.9167 128,103.5C 127.612,102.572 126.945,101.905 126,101.5C 121.06,103.551 119.226,107.051 120.5,112C 119.591,115.282 118.257,118.282 116.5,121C 116.615,122.895 117.282,124.562 118.5,126C 116.431,126.324 116.098,127.158 117.5,128.5C 116.112,130.109 115.112,131.942 114.5,134C 113.773,141.18 113.773,148.513 114.5,156C 112.43,171.091 111.264,186.258 111,201.5C 109.792,203.479 108.959,205.645 108.5,208C 108.61,214.165 108.61,220.332 108.5,226.5C 108.667,228.167 108.833,229.833 109,231.5C 109.308,230.692 109.808,230.025 110.5,229.5C 111.951,233.991 111.617,238.324 109.5,242.5C 111.943,254.71 111.943,266.877 109.5,279C 111.415,282.077 112.081,285.244 111.5,288.5C 120.645,290.344 120.645,292.011 111.5,293.5C 111.5,294.833 111.5,296.167 111.5,297.5C 113.924,297.192 116.257,297.526 118.5,298.5C 115.185,299.553 111.852,299.553 108.5,298.5C 108.737,297.209 108.404,296.209 107.5,295.5C 106.858,268.502 106.191,241.502 105.5,214.5C 106.214,188.172 106.714,161.838 107,135.5C 109.397,125.31 112.397,115.31 116,105.5C 120.422,102.036 125.256,99.2029 130.5,97C 137.247,90.4111 144.914,85.2444 153.5,81.5 Z"/></g>
<g><path style="opacity:1" fill="#708680" d="M 297.5,246.5 C 296.013,252.605 296.347,258.605 298.5,264.5C 297.21,263.942 296.377,262.942 296,261.5C 295.333,257.167 295.333,252.833 296,248.5C 296.278,247.584 296.778,246.918 297.5,246.5 Z"/></g>
<g><path style="opacity:1" fill="#967d61" d="M 267.5,255.5 C 265.473,255.338 263.473,255.505 261.5,256C 257.149,260.161 254.816,265.327 254.5,271.5C 254.167,271.5 253.833,271.5 253.5,271.5C 252.702,264.59 255.035,259.09 260.5,255C 263.039,254.204 265.372,254.371 267.5,255.5 Z"/></g>
<g><path style="opacity:1" fill="#accbc3" d="M 299.5,243.5 C 300.704,250.144 301.537,257.144 302,264.5C 304.339,266.078 306.172,265.745 307.5,263.5C 308.812,264.145 309.812,265.145 310.5,266.5C 307.502,267.643 304.502,267.643 301.5,266.5C 299.973,266.573 298.973,265.906 298.5,264.5C 296.347,258.605 296.013,252.605 297.5,246.5C 297.427,244.973 298.094,243.973 299.5,243.5 Z"/></g>
<g><path style="opacity:1" fill="#010c07" d="M 344.5,235.5 C 346.026,236.105 347.026,237.271 347.5,239C 348.083,240.619 348.083,242.452 347.5,244.5C 348.415,245.328 349.081,246.328 349.5,247.5C 348.892,250.145 348.392,252.812 348,255.5C 347.586,255.043 347.086,254.709 346.5,254.5C 344.782,262.284 340.116,268.284 332.5,272.5C 330.671,271.718 329.171,272.384 328,274.5C 327.667,273.5 327.333,272.5 327,271.5C 326.581,272.672 325.915,273.672 325,274.5C 323.372,273.99 321.539,273.99 319.5,274.5C 315.827,274.047 312.16,273.547 308.5,273C 306.973,271.968 305.64,270.801 304.5,269.5C 305.5,269.5 306.5,269.5 307.5,269.5C 309.201,270.734 311.201,271.401 313.5,271.5C 315.319,271.658 316.652,270.991 317.5,269.5C 316.401,265.852 314.401,262.852 311.5,260.5C 311.833,260.167 312.167,259.833 312.5,259.5C 316.568,261.524 320.902,262.024 325.5,261C 328.392,258.443 331.559,256.276 335,254.5C 335.186,256.9 335.686,259.234 336.5,261.5C 337.919,260.995 338.585,259.995 338.5,258.5C 343.684,251.76 345.684,244.093 344.5,235.5 Z"/></g>
<g><path style="opacity:1" fill="#496a60" d="M 195.5,255.5 C 198.878,259.879 202.878,263.546 207.5,266.5C 201.155,267.332 195.821,265.332 191.5,260.5C 193.117,261.038 194.784,261.371 196.5,261.5C 196.483,259.435 196.15,257.435 195.5,255.5 Z"/></g>
<g><path style="opacity:1" fill="#c0a079" d="M 267.5,255.5 C 269.172,256.87 270.839,258.203 272.5,259.5C 274.003,263.341 275.336,267.341 276.5,271.5C 276.5,272.167 276.5,272.833 276.5,273.5C 275.542,273.047 274.708,272.381 274,271.5C 273.474,268.728 272.641,266.062 271.5,263.5C 268.996,262.01 266.662,260.343 264.5,258.5C 262.595,259.065 260.929,260.065 259.5,261.5C 257.82,264.902 256.154,268.235 254.5,271.5C 254.816,265.327 257.149,260.161 261.5,256C 263.473,255.505 265.473,255.338 267.5,255.5 Z"/></g>
<g><path style="opacity:1" fill="#5e7a73" d="M 307.5,261.5 C 308.167,261.833 308.833,262.167 309.5,262.5C 311.705,264.363 313.039,266.697 313.5,269.5C 311.5,269.5 309.5,269.5 307.5,269.5C 306.5,269.5 305.5,269.5 304.5,269.5C 303.306,268.728 302.306,267.728 301.5,266.5C 304.502,267.643 307.502,267.643 310.5,266.5C 309.812,265.145 308.812,264.145 307.5,263.5C 307.5,262.833 307.5,262.167 307.5,261.5 Z"/></g>
<g><path style="opacity:1" fill="#deb88b" d="M 276.5,273.5 C 278.07,279.891 280.404,285.891 283.5,291.5C 283.5,292.167 283.5,292.833 283.5,293.5C 283.511,295.017 284.177,296.184 285.5,297C 287.623,297.815 289.623,298.815 291.5,300C 307.163,299.827 322.83,299.827 338.5,300C 340.063,300.759 341.063,301.926 341.5,303.5C 339.685,302.37 337.685,301.704 335.5,301.5C 335.649,302.552 335.483,303.552 335,304.5C 329.689,302.718 324.855,303.552 320.5,307C 319.544,310.813 319.544,314.813 320.5,319C 317.531,319.138 315.865,320.638 315.5,323.5C 315.858,327.401 315.858,331.401 315.5,335.5C 316.833,335.5 318.167,335.5 319.5,335.5C 319.739,337.467 319.406,339.301 318.5,341C 315.911,342.314 313.244,342.981 310.5,343C 314.57,339.178 314.403,336.678 310,335.5C 309.333,330.167 308.667,324.833 308,319.5C 307.667,321.833 307.333,324.167 307,326.5C 306.617,325.944 306.117,325.611 305.5,325.5C 305.427,320.85 303.427,317.35 299.5,315C 297.5,314.833 295.5,314.667 293.5,314.5C 291.048,314.539 289.048,315.206 287.5,316.5C 287.5,316.833 287.5,317.167 287.5,317.5C 285.562,319.163 283.228,319.829 280.5,319.5C 277.273,319.676 274.273,320.343 271.5,321.5C 268.369,320.908 266.036,321.908 264.5,324.5C 261.573,325.757 259.239,327.757 257.5,330.5C 256.883,330.611 256.383,330.944 256,331.5C 255.505,333.473 255.338,335.473 255.5,337.5C 254.504,337.414 253.671,337.748 253,338.5C 252.383,337.551 252.549,336.718 253.5,336C 252.207,335.51 250.873,335.343 249.5,335.5C 250.581,338.332 250.415,340.998 249,343.5C 248.676,341.431 247.842,341.098 246.5,342.5C 245.443,340.997 244.776,339.33 244.5,337.5C 246.158,332.259 245.658,327.259 243,322.5C 240.516,319.741 239.35,320.074 239.5,323.5C 234.264,323.919 228.931,323.919 223.5,323.5C 223.5,322.167 223.5,320.833 223.5,319.5C 224.833,319.5 226.167,319.5 227.5,319.5C 227.5,315.167 227.5,310.833 227.5,306.5C 225.334,306.421 223.334,305.754 221.5,304.5C 218.034,304.811 214.534,304.811 211,304.5C 196.984,307.523 182.817,308.69 168.5,308C 166.963,306.89 166.297,305.39 166.5,303.5C 165.167,303.5 163.833,303.5 162.5,303.5C 154.361,302.494 146.361,301.494 138.5,300.5C 158.836,300.667 179.169,300.5 199.5,300C 209.542,299.832 219.542,299.165 229.5,298C 234.001,296.083 238.668,294.749 243.5,294C 252.15,289.121 255.817,281.621 254.5,271.5C 256.154,268.235 257.82,264.902 259.5,261.5C 260.929,260.065 262.595,259.065 264.5,258.5C 266.662,260.343 268.996,262.01 271.5,263.5C 272.641,266.062 273.474,268.728 274,271.5C 274.708,272.381 275.542,273.047 276.5,273.5 Z"/></g>
<g><path style="opacity:1" fill="#584b3c" d="M 272.5,259.5 C 270.839,258.203 269.172,256.87 267.5,255.5C 265.372,254.371 263.039,254.204 260.5,255C 255.035,259.09 252.702,264.59 253.5,271.5C 252.833,272.167 252.167,272.833 251.5,273.5C 252.227,266.488 253.56,259.655 255.5,253C 258.107,252.182 260.774,251.682 263.5,251.5C 269.669,250.753 272.669,253.42 272.5,259.5 Z"/></g>
<g><path style="opacity:1" fill="#6a4c2f" d="M 276.5,271.5 C 278.444,276.999 280.778,282.332 283.5,287.5C 284.415,289.754 285.748,291.754 287.5,293.5C 285.938,293.267 284.605,292.6 283.5,291.5C 280.404,285.891 278.07,279.891 276.5,273.5C 276.5,272.833 276.5,272.167 276.5,271.5 Z"/></g>
<g><path style="opacity:1" fill="#2b1d14" d="M 283.5,287.5 C 285.884,289.885 288.55,291.885 291.5,293.5C 290.167,293.5 288.833,293.5 287.5,293.5C 285.748,291.754 284.415,289.754 283.5,287.5 Z"/></g>
<g><path style="opacity:1" fill="#93704e" d="M 253.5,271.5 C 254.19,282.173 249.523,288.84 239.5,291.5C 242.463,288.209 245.797,285.209 249.5,282.5C 251.129,279.734 251.795,276.734 251.5,273.5C 252.167,272.833 252.833,272.167 253.5,271.5 Z"/></g>
<g><path style="opacity:1" fill="#211b13" d="M 229.5,291.5 C 226.797,292.963 223.797,293.796 220.5,294C 198.478,294.834 176.478,295.667 154.5,296.5C 154.918,295.778 155.584,295.278 156.5,295C 180.902,294.85 205.235,293.683 229.5,291.5 Z"/></g>
<g><path style="opacity:1" fill="#584a39" d="M 343.5,292.5 C 345.167,295.167 346.833,297.833 348.5,300.5C 348.5,301.5 348.5,302.5 348.5,303.5C 345.767,295.75 340.434,292.75 332.5,294.5C 321.89,295.942 311.223,296.942 300.5,297.5C 298.955,297.489 297.622,297.156 296.5,296.5C 310.293,295.768 323.96,294.101 337.5,291.5C 339.548,291.672 341.548,292.005 343.5,292.5 Z"/></g>
<g><path style="opacity:1" fill="#675037" d="M 251.5,273.5 C 251.795,276.734 251.129,279.734 249.5,282.5C 245.797,285.209 242.463,288.209 239.5,291.5C 234.31,293.283 228.976,294.783 223.5,296C 215.841,296.5 208.174,296.666 200.5,296.5C 209.365,295.809 218.365,294.976 227.5,294C 231.74,293.117 235.073,290.951 237.5,287.5C 241.232,287.05 244.398,285.383 247,282.5C 247.487,278.887 248.987,275.887 251.5,273.5 Z"/></g>
<g><path style="opacity:1" fill="#252019" d="M 335.5,289.5 C 337.527,289.338 339.527,289.505 341.5,290C 342.756,290.417 343.423,291.25 343.5,292.5C 341.548,292.005 339.548,291.672 337.5,291.5C 323.96,294.101 310.293,295.768 296.5,296.5C 294.336,296.279 292.67,295.279 291.5,293.5C 301.139,294.141 310.806,293.974 320.5,293C 325.818,292.641 330.818,291.474 335.5,289.5 Z"/></g>
<g><path style="opacity:1" fill="#866647" d="M 283.5,291.5 C 284.605,292.6 285.938,293.267 287.5,293.5C 288.833,293.5 290.167,293.5 291.5,293.5C 292.67,295.279 294.336,296.279 296.5,296.5C 297.622,297.156 298.955,297.489 300.5,297.5C 311.223,296.942 321.89,295.942 332.5,294.5C 332.5,294.833 332.5,295.167 332.5,295.5C 321.377,296.742 310.211,298.075 299,299.5C 293.405,298.772 288.238,296.772 283.5,293.5C 283.5,292.833 283.5,292.167 283.5,291.5 Z"/></g>
<g><path style="opacity:1" fill="#4f3d2d" d="M 237.5,287.5 C 235.073,290.951 231.74,293.117 227.5,294C 218.365,294.976 209.365,295.809 200.5,296.5C 179.51,297.316 158.51,297.983 137.5,298.5C 143.004,297.635 148.671,296.968 154.5,296.5C 176.478,295.667 198.478,294.834 220.5,294C 223.797,293.796 226.797,292.963 229.5,291.5C 232.167,290.167 234.833,288.833 237.5,287.5 Z"/></g>
<g><path style="opacity:1" fill="#bb9168" d="M 253.5,271.5 C 253.833,271.5 254.167,271.5 254.5,271.5C 255.817,281.621 252.15,289.121 243.5,294C 238.668,294.749 234.001,296.083 229.5,298C 219.542,299.165 209.542,299.832 199.5,300C 179.169,300.5 158.836,300.667 138.5,300.5C 137.167,300.5 135.833,300.5 134.5,300.5C 134.5,301.5 134.5,302.5 134.5,303.5C 134.167,303.5 133.833,303.5 133.5,303.5C 133.5,302.167 133.5,300.833 133.5,299.5C 164.873,299.919 196.206,299.086 227.5,297C 231.97,295.928 235.97,294.094 239.5,291.5C 249.523,288.84 254.19,282.173 253.5,271.5 Z"/></g>
<g><path style="opacity:1" fill="#4a443f" d="M 107.5,295.5 C 108.404,296.209 108.737,297.209 108.5,298.5C 108.577,299.75 109.244,300.583 110.5,301C 113.036,301.186 115.369,301.686 117.5,302.5C 114.482,302.665 111.482,302.498 108.5,302C 107.663,300.989 107.33,299.822 107.5,298.5C 107.5,297.5 107.5,296.5 107.5,295.5 Z"/></g>
<g><path style="opacity:1" fill="#977452" d="M 239.5,291.5 C 235.97,294.094 231.97,295.928 227.5,297C 196.206,299.086 164.873,299.919 133.5,299.5C 134.568,298.566 135.901,298.232 137.5,298.5C 158.51,297.983 179.51,297.316 200.5,296.5C 208.174,296.666 215.841,296.5 223.5,296C 228.976,294.783 234.31,293.283 239.5,291.5 Z"/></g>
<g><path style="opacity:1" fill="#dfbc91" d="M 138.5,300.5 C 146.361,301.494 154.361,302.494 162.5,303.5C 161.678,305.728 160.345,306.395 158.5,305.5C 157.167,307.167 157.167,308.833 158.5,310.5C 159.532,308.96 160.865,308.46 162.5,309C 162.043,309.414 161.709,309.914 161.5,310.5C 172.38,312.595 183.38,313.762 194.5,314C 196.087,314.862 197.754,315.529 199.5,316C 196.854,316.497 194.187,316.664 191.5,316.5C 191.5,317.5 191.5,318.5 191.5,319.5C 190.167,319.5 188.833,319.5 187.5,319.5C 187.5,324.833 187.5,330.167 187.5,335.5C 186.167,335.5 184.833,335.5 183.5,335.5C 183.5,340.833 183.5,346.167 183.5,351.5C 184.833,351.5 186.167,351.5 187.5,351.5C 187.5,356.833 187.5,362.167 187.5,367.5C 188.833,367.5 190.167,367.5 191.5,367.5C 191.5,372.833 191.5,378.167 191.5,383.5C 193.833,383.5 196.167,383.5 198.5,383.5C 199.303,388.476 202.136,391.809 207,393.5C 207.494,391.866 207.66,390.199 207.5,388.5C 210.518,388.335 213.518,388.502 216.5,389C 219.003,391.084 221.669,392.917 224.5,394.5C 226.111,393.68 226.778,392.346 226.5,390.5C 228.592,390.439 230.092,389.439 231,387.5C 231.671,388.252 232.504,388.586 233.5,388.5C 234.391,389.11 235.391,389.443 236.5,389.5C 249.705,390.201 263.038,390.868 276.5,391.5C 277.209,392.404 278.209,392.737 279.5,392.5C 274.098,393.268 268.598,394.268 263,395.5C 256.226,400.327 256.726,404.827 264.5,409C 268.333,410.167 272.167,411.333 276,412.5C 277.388,411.446 278.888,411.28 280.5,412C 272.649,414.048 272.982,415.548 281.5,416.5C 282.291,418.961 283.958,420.294 286.5,420.5C 290.244,424.274 294.577,425.274 299.5,423.5C 299.223,426.448 299.556,429.281 300.5,432C 296.179,432.499 291.846,432.666 287.5,432.5C 287.5,434.167 287.5,435.833 287.5,437.5C 286.167,437.5 284.833,437.5 283.5,437.5C 283.762,438.978 283.429,440.311 282.5,441.5C 281.033,440.305 279.533,440.305 278,441.5C 274.465,440.125 270.965,438.791 267.5,437.5C 264.936,439.019 264.936,440.519 267.5,442C 267,442.5 266.5,443 266,443.5C 260.69,442.202 255.523,440.535 250.5,438.5C 250.709,437.914 251.043,437.414 251.5,437C 247.514,436.501 243.514,436.334 239.5,436.5C 239.67,437.822 239.337,438.989 238.5,440C 235.294,440.296 232.128,440.796 229,441.5C 223.383,443.755 217.883,446.088 212.5,448.5C 212.137,449.183 211.804,449.85 211.5,450.5C 210.448,450.351 209.448,450.517 208.5,451C 207.631,453.368 205.965,454.868 203.5,455.5C 203.011,460.282 201.678,464.782 199.5,469C 197.833,469.667 196.167,469.667 194.5,469C 192.293,466.439 190.46,463.606 189,460.5C 186.667,459.167 184.333,457.833 182,456.5C 181.405,455.101 181.572,453.768 182.5,452.5C 179.183,449.87 176.85,446.537 175.5,442.5C 168.473,437.857 166.806,431.69 170.5,424C 171.872,423.598 173.205,423.098 174.5,422.5C 176.768,423.544 179.101,423.711 181.5,423C 182.022,422.439 182.355,421.772 182.5,421C 181.195,417.541 180.362,414.041 180,410.5C 178.89,408.963 177.39,408.297 175.5,408.5C 175.5,403.167 175.5,397.833 175.5,392.5C 176.93,392.579 178.264,392.246 179.5,391.5C 180.874,388.637 181.874,385.637 182.5,382.5C 181.439,378.148 180.272,373.815 179,369.5C 178.29,368.027 177.124,367.36 175.5,367.5C 174.905,356.185 175.572,345.019 177.5,334C 177.138,332.775 176.638,331.609 176,330.5C 175.667,330.833 175.333,331.167 175,331.5C 169.833,329 166,325.167 163.5,320C 162,319.833 160.5,319.667 159,319.5C 155.192,320.469 151.359,321.302 147.5,322C 147.207,325.094 145.541,326.594 142.5,326.5C 142.5,325.5 142.5,324.5 142.5,323.5C 140.089,323.137 138.589,324.137 138,326.5C 135.124,319.172 133.957,311.506 134.5,303.5C 134.5,302.5 134.5,301.5 134.5,300.5C 135.833,300.5 137.167,300.5 138.5,300.5 Z"/></g>
<g><path style="opacity:1" fill="#e0bb8d" d="M 162.5,303.5 C 163.833,303.5 165.167,303.5 166.5,303.5C 166.297,305.39 166.963,306.89 168.5,308C 182.817,308.69 196.984,307.523 211,304.5C 214.534,304.811 218.034,304.811 221.5,304.5C 223.334,305.754 225.334,306.421 227.5,306.5C 227.5,310.833 227.5,315.167 227.5,319.5C 226.167,319.5 224.833,319.5 223.5,319.5C 223.5,320.833 223.5,322.167 223.5,323.5C 228.931,323.919 234.264,323.919 239.5,323.5C 239.35,320.074 240.516,319.741 243,322.5C 245.658,327.259 246.158,332.259 244.5,337.5C 244.776,339.33 245.443,340.997 246.5,342.5C 247.842,341.098 248.676,341.431 249,343.5C 250.415,340.998 250.581,338.332 249.5,335.5C 250.873,335.343 252.207,335.51 253.5,336C 252.549,336.718 252.383,337.551 253,338.5C 253.671,337.748 254.504,337.414 255.5,337.5C 255.833,337.5 256.167,337.5 256.5,337.5C 258.811,339.068 261.478,339.902 264.5,340C 264.167,341 263.833,342 263.5,343C 264.5,343.333 265.5,343.667 266.5,344C 265.59,346.29 266.59,347.456 269.5,347.5C 271.104,347.061 272.604,346.394 274,345.5C 275.635,345.878 277.135,346.544 278.5,347.5C 279.641,348.425 279.641,349.259 278.5,350C 283.784,351.572 289.118,351.572 294.5,350C 294.057,348.482 294.724,347.315 296.5,346.5C 297.382,347.76 298.382,348.926 299.5,350C 297.998,350.583 296.665,351.416 295.5,352.5C 296.75,356.408 299.083,359.408 302.5,361.5C 302.444,367.34 304.777,371.84 309.5,375C 309.272,375.399 308.938,375.565 308.5,375.5C 307.5,375.5 306.5,375.5 305.5,375.5C 305.773,377.451 305.107,378.951 303.5,380C 305.286,380.196 306.619,381.029 307.5,382.5C 306.145,384.929 304.478,386.262 302.5,386.5C 301.614,385.675 301.281,384.675 301.5,383.5C 299.833,383.5 298.167,383.5 296.5,383.5C 295.571,382.685 294.571,381.852 293.5,381C 287.159,379.845 281.159,378.011 275.5,375.5C 275.5,376.833 275.5,378.167 275.5,379.5C 263.08,379.132 251.08,380.799 239.5,384.5C 239.5,384.833 239.5,385.167 239.5,385.5C 238.167,385.5 236.833,385.5 235.5,385.5C 233.952,385.821 233.285,386.821 233.5,388.5C 232.504,388.586 231.671,388.252 231,387.5C 230.092,389.439 228.592,390.439 226.5,390.5C 226.778,392.346 226.111,393.68 224.5,394.5C 221.669,392.917 219.003,391.084 216.5,389C 213.518,388.502 210.518,388.335 207.5,388.5C 207.66,390.199 207.494,391.866 207,393.5C 202.136,391.809 199.303,388.476 198.5,383.5C 196.167,383.5 193.833,383.5 191.5,383.5C 191.5,378.167 191.5,372.833 191.5,367.5C 190.167,367.5 188.833,367.5 187.5,367.5C 187.5,362.167 187.5,356.833 187.5,351.5C 186.167,351.5 184.833,351.5 183.5,351.5C 183.5,346.167 183.5,340.833 183.5,335.5C 184.833,335.5 186.167,335.5 187.5,335.5C 187.5,330.167 187.5,324.833 187.5,319.5C 188.833,319.5 190.167,319.5 191.5,319.5C 191.5,318.5 191.5,317.5 191.5,316.5C 194.187,316.664 196.854,316.497 199.5,316C 197.754,315.529 196.087,314.862 194.5,314C 183.38,313.762 172.38,312.595 161.5,310.5C 161.709,309.914 162.043,309.414 162.5,309C 160.865,308.46 159.532,308.96 158.5,310.5C 157.167,308.833 157.167,307.167 158.5,305.5C 160.345,306.395 161.678,305.728 162.5,303.5 Z"/></g>
<g><path style="opacity:1" fill="#43362a" d="M 118.5,304.5 C 121.713,306.764 124.046,309.764 125.5,313.5C 125.815,317.371 125.482,321.038 124.5,324.5C 124.656,320.418 124.156,316.418 123,312.5C 121.223,309.941 119.723,307.274 118.5,304.5 Z"/></g>
<g><path style="opacity:1" fill="#919089" d="M 107.5,298.5 C 107.33,299.822 107.663,300.989 108.5,302C 111.482,302.498 114.482,302.665 117.5,302.5C 117.5,302.833 117.5,303.167 117.5,303.5C 114.15,303.335 110.817,303.502 107.5,304C 107,304.5 106.5,305 106,305.5C 105.501,309.486 105.334,313.486 105.5,317.5C 104.681,314.695 104.181,311.695 104,308.5C 103.374,314.195 103.541,319.862 104.5,325.5C 103.073,323.852 102.24,321.852 102,319.5C 101.333,315.167 101.333,310.833 102,306.5C 102.162,302.531 103.995,299.864 107.5,298.5 Z"/></g>
<g><path style="opacity:1" fill="#e1c3a1" d="M 117.5,303.5 C 118.167,303.5 118.5,303.833 118.5,304.5C 119.723,307.274 121.223,309.941 123,312.5C 124.156,316.418 124.656,320.418 124.5,324.5C 124.288,327.712 122.621,329.712 119.5,330.5C 110.331,330.998 105.665,326.664 105.5,317.5C 105.334,313.486 105.501,309.486 106,305.5C 106.5,305 107,304.5 107.5,304C 110.817,303.502 114.15,303.335 117.5,303.5 Z"/></g>
<g><path style="opacity:1" fill="#deba91" d="M 341.5,303.5 C 342.936,313.853 342.769,324.186 341,334.5C 338.977,337.504 337.477,340.837 336.5,344.5C 336.709,345.086 337.043,345.586 337.5,346C 335.879,348.166 335.045,350.666 335,353.5C 334.29,352.027 333.124,351.36 331.5,351.5C 331.073,354.788 331.74,357.788 333.5,360.5C 331.583,363.915 330.25,367.581 329.5,371.5C 330.164,375.476 330.497,379.476 330.5,383.5C 324.5,383.5 318.5,383.5 312.5,383.5C 312.621,379.893 310.955,377.727 307.5,377C 308.056,376.617 308.389,376.117 308.5,375.5C 308.938,375.565 309.272,375.399 309.5,375C 304.777,371.84 302.444,367.34 302.5,361.5C 299.083,359.408 296.75,356.408 295.5,352.5C 296.665,351.416 297.998,350.583 299.5,350C 298.382,348.926 297.382,347.76 296.5,346.5C 294.724,347.315 294.057,348.482 294.5,350C 289.118,351.572 283.784,351.572 278.5,350C 279.641,349.259 279.641,348.425 278.5,347.5C 277.135,346.544 275.635,345.878 274,345.5C 272.604,346.394 271.104,347.061 269.5,347.5C 266.59,347.456 265.59,346.29 266.5,344C 265.5,343.667 264.5,343.333 263.5,343C 263.833,342 264.167,341 264.5,340C 261.478,339.902 258.811,339.068 256.5,337.5C 261.854,337.529 267.187,337.195 272.5,336.5C 276.78,337.471 281.113,338.137 285.5,338.5C 287.948,339.473 290.615,339.806 293.5,339.5C 294.29,340.794 295.29,341.961 296.5,343C 299.537,342.934 302.37,342.767 305,342.5C 306.112,340.61 306.946,338.61 307.5,336.5C 306.831,332.815 306.165,329.148 305.5,325.5C 306.117,325.611 306.617,325.944 307,326.5C 307.333,324.167 307.667,321.833 308,319.5C 308.667,324.833 309.333,330.167 310,335.5C 314.403,336.678 314.57,339.178 310.5,343C 313.244,342.981 315.911,342.314 318.5,341C 319.406,339.301 319.739,337.467 319.5,335.5C 318.167,335.5 316.833,335.5 315.5,335.5C 315.858,331.401 315.858,327.401 315.5,323.5C 315.865,320.638 317.531,319.138 320.5,319C 319.544,314.813 319.544,310.813 320.5,307C 324.855,303.552 329.689,302.718 335,304.5C 335.483,303.552 335.649,302.552 335.5,301.5C 337.685,301.704 339.685,302.37 341.5,303.5 Z"/></g>
<g><path style="opacity:1" fill="#6e6356" d="M 105.5,317.5 C 105.665,326.664 110.331,330.998 119.5,330.5C 117.167,331.167 114.833,331.833 112.5,332.5C 109.21,330.876 106.543,328.543 104.5,325.5C 103.541,319.862 103.374,314.195 104,308.5C 104.181,311.695 104.681,314.695 105.5,317.5 Z"/></g>
<g><path style="opacity:1" fill="#080404" d="M 287.5,317.5 C 290.417,317.365 293.084,318.032 295.5,319.5C 296.022,325.748 295.355,331.748 293.5,337.5C 290.904,338.265 288.237,338.599 285.5,338.5C 281.113,338.137 276.78,337.471 272.5,336.5C 267.187,337.195 261.854,337.529 256.5,337.5C 256.167,337.5 255.833,337.5 255.5,337.5C 255.338,335.473 255.505,333.473 256,331.5C 256.383,330.944 256.883,330.611 257.5,330.5C 260.427,329.243 262.761,327.243 264.5,324.5C 267.272,324.241 269.605,323.241 271.5,321.5C 274.829,321.785 277.829,321.118 280.5,319.5C 283.228,319.829 285.562,319.163 287.5,317.5 Z"/></g>
<g><path style="opacity:1" fill="#dfbc97" d="M 133.5,303.5 C 133.833,303.5 134.167,303.5 134.5,303.5C 133.957,311.506 135.124,319.172 138,326.5C 138.589,324.137 140.089,323.137 142.5,323.5C 142.5,324.5 142.5,325.5 142.5,326.5C 145.541,326.594 147.207,325.094 147.5,322C 151.359,321.302 155.192,320.469 159,319.5C 160.5,319.667 162,319.833 163.5,320C 166,325.167 169.833,329 175,331.5C 175.333,331.167 175.667,330.833 176,330.5C 176.638,331.609 177.138,332.775 177.5,334C 175.572,345.019 174.905,356.185 175.5,367.5C 177.124,367.36 178.29,368.027 179,369.5C 180.272,373.815 181.439,378.148 182.5,382.5C 181.874,385.637 180.874,388.637 179.5,391.5C 178.264,392.246 176.93,392.579 175.5,392.5C 175.5,397.833 175.5,403.167 175.5,408.5C 177.39,408.297 178.89,408.963 180,410.5C 180.362,414.041 181.195,417.541 182.5,421C 182.355,421.772 182.022,422.439 181.5,423C 179.101,423.711 176.768,423.544 174.5,422.5C 173.205,423.098 171.872,423.598 170.5,424C 166.806,431.69 168.473,437.857 175.5,442.5C 176.85,446.537 179.183,449.87 182.5,452.5C 181.572,453.768 181.405,455.101 182,456.5C 184.333,457.833 186.667,459.167 189,460.5C 190.46,463.606 192.293,466.439 194.5,469C 196.167,469.667 197.833,469.667 199.5,469C 201.678,464.782 203.011,460.282 203.5,455.5C 205.965,454.868 207.631,453.368 208.5,451C 209.448,450.517 210.448,450.351 211.5,450.5C 213.186,470.76 214.186,491.094 214.5,511.5C 214.167,511.5 213.833,511.5 213.5,511.5C 212.859,510.518 212.193,509.518 211.5,508.5C 212.585,507.216 213.252,505.716 213.5,504C 212.34,496.706 210.673,489.539 208.5,482.5C 210.325,476.321 210.991,469.988 210.5,463.5C 209.022,463.238 207.689,463.571 206.5,464.5C 205.15,468.537 202.817,471.87 199.5,474.5C 198.646,473.478 197.646,472.645 196.5,472C 189.508,471.5 182.508,471.334 175.5,471.5C 175.5,468.833 175.5,466.167 175.5,463.5C 173.712,463.785 172.045,463.452 170.5,462.5C 167.539,455.77 165.539,456.103 164.5,463.5C 163.5,463.5 162.5,463.5 161.5,463.5C 161.798,466.265 162.798,468.765 164.5,471C 162.697,471.637 161.364,472.803 160.5,474.5C 158.96,470.787 156.793,467.453 154,464.5C 153.935,459.982 153.269,455.649 152,451.5C 151.5,444.842 151.334,438.175 151.5,431.5C 150.167,431.5 148.833,431.5 147.5,431.5C 147.21,427.673 147.21,424.006 147.5,420.5C 147.253,419.287 146.586,418.62 145.5,418.5C 144.099,414.326 143.266,409.993 143,405.5C 142.667,406.833 142.333,408.167 142,409.5C 141.333,408.167 140.667,408.167 140,409.5C 138.338,418.923 136.671,428.256 135,437.5C 133.569,419.547 133.069,401.547 133.5,383.5C 133.333,371.829 133.5,360.162 134,348.5C 134.333,349.5 134.667,350.5 135,351.5C 135.167,349.167 135.333,346.833 135.5,344.5C 134.056,337.952 133.389,331.285 133.5,324.5C 133.5,317.5 133.5,310.5 133.5,303.5 Z"/></g>
<g><path style="opacity:1" fill="#d9ab81" d="M 305.5,325.5 C 306.165,329.148 306.831,332.815 307.5,336.5C 306.946,338.61 306.112,340.61 305,342.5C 302.37,342.767 299.537,342.934 296.5,343C 295.29,341.961 294.29,340.794 293.5,339.5C 295.39,339.703 296.89,339.037 298,337.5C 298.667,331.5 298.667,325.5 298,319.5C 297.626,318.584 297.126,317.75 296.5,317C 293.518,316.502 290.518,316.335 287.5,316.5C 289.048,315.206 291.048,314.539 293.5,314.5C 295.5,314.667 297.5,314.833 299.5,315C 303.427,317.35 305.427,320.85 305.5,325.5 Z"/></g>
<g><path style="opacity:1" fill="#774a2a" d="M 280.5,319.5 C 277.829,321.118 274.829,321.785 271.5,321.5C 274.273,320.343 277.273,319.676 280.5,319.5 Z"/></g>
<g><path style="opacity:1" fill="#7b4a2e" d="M 271.5,321.5 C 269.605,323.241 267.272,324.241 264.5,324.5C 266.036,321.908 268.369,320.908 271.5,321.5 Z"/></g>
<g><path style="opacity:1" fill="#26221e" d="M 133.5,299.5 C 133.5,300.833 133.5,302.167 133.5,303.5C 133.5,310.5 133.5,317.5 133.5,324.5C 132.833,324.5 132.5,324.833 132.5,325.5C 131.734,327.684 131.067,330.018 130.5,332.5C 128.955,333.452 127.288,333.785 125.5,333.5C 122.167,333.5 118.833,333.5 115.5,333.5C 114.5,333.5 113.5,333.5 112.5,333.5C 112.5,333.167 112.5,332.833 112.5,332.5C 114.833,331.833 117.167,331.167 119.5,330.5C 122.621,329.712 124.288,327.712 124.5,324.5C 125.482,321.038 125.815,317.371 125.5,313.5C 126.117,313.611 126.617,313.944 127,314.5C 127.367,320.204 128.034,325.87 129,331.5C 131.753,320.876 133.253,310.21 133.5,299.5 Z"/></g>
<g><path style="opacity:1" fill="#482b1c" d="M 264.5,324.5 C 262.761,327.243 260.427,329.243 257.5,330.5C 259.239,327.757 261.573,325.757 264.5,324.5 Z"/></g>
<g><path style="opacity:1" fill="#625a4e" d="M 132.5,325.5 C 131.709,338.15 131.709,350.816 132.5,363.5C 132.167,363.5 131.833,363.5 131.5,363.5C 131.817,359.298 131.483,355.298 130.5,351.5C 129.863,346.147 129.03,340.814 128,335.5C 127.005,334.934 126.172,334.267 125.5,333.5C 127.288,333.785 128.955,333.452 130.5,332.5C 131.067,330.018 131.734,327.684 132.5,325.5 Z"/></g>
<g><path style="opacity:1" fill="#4b3629" d="M 295.5,319.5 C 296.651,324.65 296.817,329.984 296,335.5C 295.292,336.381 294.458,337.047 293.5,337.5C 295.355,331.748 296.022,325.748 295.5,319.5 Z"/></g>
<g><path style="opacity:1" fill="#9b7457" d="M 287.5,317.5 C 287.5,317.167 287.5,316.833 287.5,316.5C 290.518,316.335 293.518,316.502 296.5,317C 297.126,317.75 297.626,318.584 298,319.5C 298.667,325.5 298.667,331.5 298,337.5C 296.89,339.037 295.39,339.703 293.5,339.5C 290.615,339.806 287.948,339.473 285.5,338.5C 288.237,338.599 290.904,338.265 293.5,337.5C 294.458,337.047 295.292,336.381 296,335.5C 296.817,329.984 296.651,324.65 295.5,319.5C 293.084,318.032 290.417,317.365 287.5,317.5 Z"/></g>
<g><path style="opacity:1" fill="#ba9d7e" d="M 133.5,324.5 C 133.389,331.285 134.056,337.952 135.5,344.5C 135.333,346.833 135.167,349.167 135,351.5C 134.667,350.5 134.333,349.5 134,348.5C 133.5,360.162 133.333,371.829 133.5,383.5C 133.167,383.5 132.833,383.5 132.5,383.5C 132.5,376.833 132.5,370.167 132.5,363.5C 131.709,350.816 131.709,338.15 132.5,325.5C 132.5,324.833 132.833,324.5 133.5,324.5 Z"/></g>
<g><path style="opacity:1" fill="#628394" d="M 112.5,333.5 C 113.5,333.5 114.5,333.5 115.5,333.5C 115.611,334.117 115.944,334.617 116.5,335C 118.5,335.333 120.5,335.667 122.5,336C 122.167,336.333 121.833,336.667 121.5,337C 127.5,348.343 129.5,360.343 127.5,373C 129.253,387.795 129.753,402.628 129,417.5C 127.109,430.996 125.943,444.663 125.5,458.5C 125.54,460.429 125.873,462.262 126.5,464C 125.094,472.057 124.261,480.224 124,488.5C 123.5,489 123,489.5 122.5,490C 123.352,492.417 124.019,494.917 124.5,497.5C 123.533,500.486 123.199,503.32 123.5,506C 124.332,506.688 124.998,506.521 125.5,505.5C 125.994,503.974 126.661,502.641 127.5,501.5C 127.5,504.833 127.5,508.167 127.5,511.5C 92.8333,511.5 58.1667,511.5 23.5,511.5C 23.3094,508.017 22.6427,504.684 21.5,501.5C 19.4004,501.477 17.5671,502.144 16,503.5C 12.8223,502.615 11.9889,500.782 13.5,498C 14.825,498.148 15.9916,497.982 17,497.5C 17.4561,496.256 16.9561,495.423 15.5,495C 24.8333,493.333 24.8333,491.667 15.5,490C 16.8333,489.667 18.1667,489.333 19.5,489C 23.4761,486.578 23.3094,484.411 19,482.5C 18.5172,481.552 18.3505,480.552 18.5,479.5C 19.8333,479.5 21.1667,479.5 22.5,479.5C 22.8333,483.5 23.1667,483.5 23.5,479.5C 27.0095,478.847 26.6762,477.847 22.5,476.5C 21.3145,473.407 19.9812,470.407 18.5,467.5C 18.8333,467.167 19.1667,466.833 19.5,466.5C 20.2807,467.737 21.2807,468.737 22.5,469.5C 24.3624,465.932 23.3624,463.765 19.5,463C 16.466,458.363 17.6326,456.863 23,458.5C 22.8238,454.798 21.4905,451.465 19,448.5C 18.1145,444.134 18.6145,439.967 20.5,436C 31.8164,435.393 32.1497,433.726 21.5,431C 22.9119,429.209 24.7452,428.042 27,427.5C 27.4652,426.069 28.2986,424.903 29.5,424C 28.4829,422.951 28.3162,421.784 29,420.5C 30.1011,418.606 31.4345,417.939 33,418.5C 33.6667,416.5 33.6667,414.5 33,412.5C 31.3651,411.274 29.8651,409.941 28.5,408.5C 29.4847,406.902 29.6514,405.235 29,403.5C 26.2762,402.108 23.4429,400.942 20.5,400C 27.249,395.918 28.249,390.585 23.5,384C 24.7589,381.473 25.7589,378.806 26.5,376C 23.642,372.376 22.8086,368.209 24,363.5C 25.9354,361.592 25.7688,359.758 23.5,358C 24.8291,356.34 25.8291,354.507 26.5,352.5C 26,352.167 25.5,351.833 25,351.5C 23.2416,353.769 21.4083,353.935 19.5,352C 20.4367,349.293 21.7701,346.793 23.5,344.5C 21.1784,341.416 22.1784,339.749 26.5,339.5C 26.415,337.071 25.415,335.071 23.5,333.5C 24.711,331.578 26.0443,329.745 27.5,328C 26.2528,326.506 26.2528,325.006 27.5,323.5C 29.2303,322.974 30.5637,321.974 31.5,320.5C 29.7282,319.73 28.7282,318.397 28.5,316.5C 30.2934,314.573 31.2934,312.239 31.5,309.5C 34.2646,309.798 36.7646,310.798 39,312.5C 39.4935,310.866 39.6602,309.199 39.5,307.5C 35.7593,308.401 33.7593,307.068 33.5,303.5C 35.4835,303.383 37.1502,304.05 38.5,305.5C 38.6759,303.328 38.8425,300.995 39,298.5C 41.6607,300.775 43.494,299.942 44.5,296C 43.8776,293.52 42.5443,293.02 40.5,294.5C 34.8554,291.385 35.1887,289.218 41.5,288C 40.0267,287.29 39.3601,286.124 39.5,284.5C 35.5,283.833 35.5,283.167 39.5,282.5C 39.3433,281.127 39.51,279.793 40,278.5C 43.2856,276.191 43.1189,274.024 39.5,272C 40.7994,268.865 40.7994,265.699 39.5,262.5C 42.4176,260.992 43.0843,258.825 41.5,256C 42.1667,255.667 42.8333,255.333 43.5,255C 40.8941,254.55 39.5608,253.05 39.5,250.5C 42.5036,250.665 44.5036,249.332 45.5,246.5C 44.5589,244.228 43.2255,242.228 41.5,240.5C 42,240.167 42.5,239.833 43,239.5C 44.8603,241.201 47.027,242.201 49.5,242.5C 49.2137,240.723 48.5471,239.056 47.5,237.5C 48.065,235.595 49.065,233.929 50.5,232.5C 49.675,231.614 48.675,231.281 47.5,231.5C 47.5,230.167 47.5,228.833 47.5,227.5C 50.2469,227.813 52.9135,227.48 55.5,226.5C 52.9859,223.532 52.9859,220.532 55.5,217.5C 52.5439,214.411 53.2105,212.744 57.5,212.5C 57.7163,207.609 58.7163,202.943 60.5,198.5C 59.6258,196.253 59.2924,193.92 59.5,191.5C 60.8333,191.5 62.1667,191.5 63.5,191.5C 63.3343,187.154 63.501,182.821 64,178.5C 65.1861,176.323 67.0194,175.323 69.5,175.5C 70.6392,172.996 71.3059,170.33 71.5,167.5C 72.5,167.5 73.5,167.5 74.5,167.5C 74.3505,166.448 74.5172,165.448 75,164.5C 76.7134,163.122 78.0467,161.455 79,159.5C 79.3333,161.5 79.6667,163.5 80,165.5C 85.0581,167.042 87.5581,170.375 87.5,175.5C 88.8333,175.5 90.1667,175.5 91.5,175.5C 91.4207,178.271 91.9207,180.937 93,183.5C 94.339,177.376 95.839,171.376 97.5,165.5C 99.6494,168.395 99.9827,171.562 98.5,175C 100.138,177.133 100.971,179.633 101,182.5C 101.333,172.5 101.667,162.5 102,152.5C 102.333,153.167 102.667,153.833 103,154.5C 103.667,174.329 104.167,194.163 104.5,214C 104.104,224.095 104.104,234.095 104.5,244C 103.993,247.739 103.327,251.406 102.5,255C 103.807,260.254 104.474,265.754 104.5,271.5C 105.275,283.981 103.442,295.981 99,307.5C 96.9725,316.043 98.9725,323.377 105,329.5C 106.883,332.024 109.383,333.358 112.5,333.5 Z"/></g>
<g><path style="opacity:1" fill="#0e0a08" d="M 356.5,415.5 C 356.402,413.118 356.402,410.618 356.5,408C 355.842,406.095 354.675,404.595 353,403.5C 352.83,394.657 352.33,385.99 351.5,377.5C 351.442,369.479 351.776,361.479 352.5,353.5C 353.151,352.909 353.818,352.243 354.5,351.5C 355.588,345.875 356.421,340.208 357,334.5C 358.744,333.351 358.911,332.017 357.5,330.5C 358.262,326.889 358.762,323.222 359,319.5C 359.667,343.167 359.667,366.833 359,390.5C 358.005,395.728 357.838,400.895 358.5,406C 358.345,409.292 357.678,412.459 356.5,415.5 Z"/></g>
<g><path style="opacity:1" fill="#655346" d="M 349.5,305.5 C 350.117,305.611 350.617,305.944 351,306.5C 351.167,312.667 351.333,318.833 351.5,325C 349.749,351.829 349.082,378.662 349.5,405.5C 348.878,413.186 347.545,420.853 345.5,428.5C 340.649,434.184 335.316,439.351 329.5,444C 326.439,446.035 323.105,447.201 319.5,447.5C 322.16,445.503 325.16,444.003 328.5,443C 330.373,441.296 332.04,439.463 333.5,437.5C 341.85,432.626 346.35,425.293 347,415.5C 346.86,378.823 347.694,342.156 349.5,305.5 Z"/></g>
<g><path style="opacity:1" fill="#342a26" d="M 348.5,300.5 C 350.451,301.282 351.951,302.616 353,304.5C 353.662,320.845 353.495,337.178 352.5,353.5C 351.776,361.479 351.442,369.479 351.5,377.5C 350.98,394.163 350.48,410.83 350,427.5C 349.009,430.64 347.176,432.974 344.5,434.5C 345.723,431.726 347.223,429.059 349,426.5C 349.5,419.508 349.666,412.508 349.5,405.5C 349.082,378.662 349.749,351.829 351.5,325C 351.333,318.833 351.167,312.667 351,306.5C 350.617,305.944 350.117,305.611 349.5,305.5C 349.672,304.508 349.338,303.842 348.5,303.5C 348.5,302.5 348.5,301.5 348.5,300.5 Z"/></g>
<g><path style="opacity:1" fill="#618193" d="M 451.5,511.5 C 385.833,511.5 320.167,511.5 254.5,511.5C 255.234,510.292 255.567,508.959 255.5,507.5C 260.833,507.5 266.167,507.5 271.5,507.5C 271.5,506.167 271.5,504.833 271.5,503.5C 274.187,503.664 276.854,503.497 279.5,503C 282.291,501.211 285.291,499.878 288.5,499C 289.357,498.311 290.023,497.478 290.5,496.5C 288.257,495.526 285.924,495.192 283.5,495.5C 283.67,496.822 283.337,497.989 282.5,499C 279.711,499.241 277.044,499.908 274.5,501C 269.051,501.896 263.718,501.563 258.5,500C 262.821,499.501 267.154,499.334 271.5,499.5C 271.5,498.167 271.5,496.833 271.5,495.5C 274.005,495.02 276.338,494.02 278.5,492.5C 279.167,492.833 279.833,493.167 280.5,493.5C 280.878,489.15 283.211,487.483 287.5,488.5C 287.5,485.5 287.5,482.5 287.5,479.5C 289.451,479.227 290.951,479.893 292,481.5C 292.167,481 292.333,480.5 292.5,480C 291.623,478.133 290.123,476.966 288,476.5C 287.517,475.552 287.351,474.552 287.5,473.5C 293.247,473.641 298.581,472.975 303.5,471.5C 298.167,470.833 292.833,470.167 287.5,469.5C 288.025,468.808 288.692,468.308 289.5,468C 286.956,466.908 284.289,466.241 281.5,466C 275.826,465.232 270.16,464.399 264.5,463.5C 262.167,463.667 259.833,463.833 257.5,464C 259.5,464.333 261.5,464.667 263.5,465C 253.86,465.459 250.194,470.292 252.5,479.5C 250.833,479.5 249.167,479.5 247.5,479.5C 247.241,483.24 247.574,486.906 248.5,490.5C 247.738,494.111 247.238,497.778 247,501.5C 245.989,500.663 244.822,500.33 243.5,500.5C 243.5,502.167 243.5,503.833 243.5,505.5C 242.167,505.5 240.833,505.5 239.5,505.5C 239.5,507.5 239.5,509.5 239.5,511.5C 235.167,511.5 230.833,511.5 226.5,511.5C 230.673,500.582 234.006,489.249 236.5,477.5C 240.407,474.038 243.073,469.704 244.5,464.5C 246.028,463.139 247.695,461.972 249.5,461C 257.167,460.333 264.833,460.333 272.5,461C 285.334,463.889 298.334,464.223 311.5,462C 314.616,460.713 317.616,459.213 320.5,457.5C 332.676,455.642 342.842,450.975 351,443.5C 354.937,439.291 356.937,434.291 357,428.5C 359,427.833 360.333,426.5 361,424.5C 361.802,417.986 363.302,411.653 365.5,405.5C 365.444,404.263 364.944,403.263 364,402.5C 363.342,391.504 362.842,380.504 362.5,369.5C 363.467,368.194 364.801,367.527 366.5,367.5C 366.34,365.801 366.506,364.134 367,362.5C 367.333,365.167 367.667,367.833 368,370.5C 368.5,371 369,371.5 369.5,372C 374.176,372.604 378.843,373.771 383.5,375.5C 383.5,377.5 383.5,379.5 383.5,381.5C 387.426,381.768 391.093,380.935 394.5,379C 395.939,376.225 397.772,373.725 400,371.5C 401.096,373.889 401.929,376.389 402.5,379C 405.833,379.333 409.167,379.667 412.5,380C 413.184,381.693 414.184,383.193 415.5,384.5C 411.727,385.449 410.727,387.616 412.5,391C 411.552,391.483 410.552,391.649 409.5,391.5C 410.783,394.01 411.783,396.677 412.5,399.5C 413.5,399.5 414.5,399.5 415.5,399.5C 415.34,397.801 415.506,396.134 416,394.5C 416.898,396.626 418.065,398.626 419.5,400.5C 418.885,403.039 418.218,405.539 417.5,408C 419.084,410.825 418.418,412.992 415.5,414.5C 416.126,417.637 417.126,420.637 418.5,423.5C 419.36,421.069 421.027,419.736 423.5,419.5C 424.657,425.131 425.657,430.798 426.5,436.5C 424.05,442.212 425.383,446.712 430.5,450C 427.775,451.107 424.941,451.941 422,452.5C 421.192,454.579 421.359,456.579 422.5,458.5C 423.429,457.311 423.762,455.978 423.5,454.5C 426.332,453.419 428.998,453.585 431.5,455C 429.234,457.066 427.567,459.566 426.5,462.5C 428.39,463.424 429.89,464.757 431,466.5C 434.465,465.112 437.965,464.779 441.5,465.5C 439.892,466.318 438.225,466.985 436.5,467.5C 435.641,469.539 436.474,470.872 439,471.5C 441.33,469.957 443.83,469.457 446.5,470C 447.337,471.011 447.67,472.178 447.5,473.5C 451.529,473.953 455.529,474.62 459.5,475.5C 461.228,475.41 462.894,475.077 464.5,474.5C 465.745,475.955 465.578,477.289 464,478.5C 462.493,477.465 460.993,477.632 459.5,479C 460.938,479.219 462.271,479.719 463.5,480.5C 459.727,481.449 458.727,483.616 460.5,487C 459.376,487.249 458.376,487.749 457.5,488.5C 458.981,489.48 460.315,490.647 461.5,492C 457.677,494.482 456.51,497.649 458,501.5C 458.833,499.5 459.667,497.5 460.5,495.5C 462.437,497.792 464.104,500.292 465.5,503C 462.029,503.051 458.362,503.384 454.5,504C 452.819,507.466 451.819,507.3 451.5,503.5C 450.5,503.5 449.5,503.5 448.5,503.5C 448.34,505.199 448.506,506.866 449,508.5C 450.417,509.078 451.25,510.078 451.5,511.5 Z"/></g>
<g><path style="opacity:1" fill="#7c8382" d="M 130.5,351.5 C 131.483,355.298 131.817,359.298 131.5,363.5C 131.375,412.843 130.708,462.176 129.5,511.5C 128.833,511.5 128.167,511.5 127.5,511.5C 127.5,508.167 127.5,504.833 127.5,501.5C 129.85,451.541 130.85,401.541 130.5,351.5 Z"/></g>
<g><path style="opacity:1" fill="#e0b88d" d="M 341.5,303.5 C 343.045,304.23 343.878,305.563 344,307.5C 344.167,311.833 344.333,316.167 344.5,320.5C 343.138,331.678 342.305,343.012 342,354.5C 341.034,361.632 339.867,368.632 338.5,375.5C 339.298,384.716 340.298,393.882 341.5,403C 341.882,409.205 340.882,415.039 338.5,420.5C 339.002,415.162 339.169,409.828 339,404.5C 338.667,403.833 338.333,403.167 338,402.5C 337.86,405.043 337.194,407.377 336,409.5C 335.505,407.527 335.338,405.527 335.5,403.5C 333.5,403.5 331.5,403.5 329.5,403.5C 329.5,404.5 329.5,405.5 329.5,406.5C 332.797,406.329 333.131,406.995 330.5,408.5C 331.859,410.306 331.525,411.806 329.5,413C 326.798,414.34 324.131,415.673 321.5,417C 323.515,418.555 323.848,420.389 322.5,422.5C 318.953,422.78 315.287,422.78 311.5,422.5C 311.5,421.167 311.5,419.833 311.5,418.5C 308.833,418.5 306.167,418.5 303.5,418.5C 303.5,419.833 303.5,421.167 303.5,422.5C 300.813,422.664 298.146,422.497 295.5,422C 292.834,419.416 289.834,418.916 286.5,420.5C 283.958,420.294 282.291,418.961 281.5,416.5C 272.982,415.548 272.649,414.048 280.5,412C 278.888,411.28 277.388,411.446 276,412.5C 272.167,411.333 268.333,410.167 264.5,409C 256.726,404.827 256.226,400.327 263,395.5C 268.598,394.268 274.098,393.268 279.5,392.5C 281.953,393.817 284.62,394.65 287.5,395C 280.564,396.921 273.564,398.587 266.5,400C 263.21,402.108 262.877,404.441 265.5,407C 272.515,407.927 279.182,407.094 285.5,404.5C 285.842,403.662 286.508,403.328 287.5,403.5C 291.899,402.722 293.899,400.056 293.5,395.5C 297.042,395.813 300.375,395.479 303.5,394.5C 303.443,393.391 303.11,392.391 302.5,391.5C 303.602,389.908 302.935,389.075 300.5,389C 298.561,387.568 297.228,385.735 296.5,383.5C 298.167,383.5 299.833,383.5 301.5,383.5C 301.281,384.675 301.614,385.675 302.5,386.5C 304.478,386.262 306.145,384.929 307.5,382.5C 306.619,381.029 305.286,380.196 303.5,380C 305.107,378.951 305.773,377.451 305.5,375.5C 306.5,375.5 307.5,375.5 308.5,375.5C 308.389,376.117 308.056,376.617 307.5,377C 310.955,377.727 312.621,379.893 312.5,383.5C 318.5,383.5 324.5,383.5 330.5,383.5C 330.497,379.476 330.164,375.476 329.5,371.5C 330.25,367.581 331.583,363.915 333.5,360.5C 331.74,357.788 331.073,354.788 331.5,351.5C 333.124,351.36 334.29,352.027 335,353.5C 335.045,350.666 335.879,348.166 337.5,346C 337.043,345.586 336.709,345.086 336.5,344.5C 337.477,340.837 338.977,337.504 341,334.5C 342.769,324.186 342.936,313.853 341.5,303.5 Z"/></g>
<g><path style="opacity:1" fill="#8b7056" d="M 348.5,303.5 C 349.338,303.842 349.672,304.508 349.5,305.5C 347.694,342.156 346.86,378.823 347,415.5C 346.35,425.293 341.85,432.626 333.5,437.5C 335.909,435.098 337.909,432.431 339.5,429.5C 340.63,427.685 341.296,425.685 341.5,423.5C 344.056,419.65 345.556,415.316 346,410.5C 346.592,394.161 346.426,377.828 345.5,361.5C 347.088,342.859 347.588,324.192 347,305.5C 346.208,302.894 344.708,300.894 342.5,299.5C 342.426,297.589 341.426,296.422 339.5,296C 337.19,295.503 334.857,295.337 332.5,295.5C 332.5,295.167 332.5,294.833 332.5,294.5C 340.434,292.75 345.767,295.75 348.5,303.5 Z"/></g>
<g><path style="opacity:1" fill="#c99f7b" d="M 296.5,383.5 C 297.228,385.735 298.561,387.568 300.5,389C 302.935,389.075 303.602,389.908 302.5,391.5C 299.482,389.474 296.482,387.474 293.5,385.5C 292.093,383.386 290.093,381.886 287.5,381C 285.256,380.094 282.923,379.594 280.5,379.5C 270.017,380.754 259.683,382.087 249.5,383.5C 246.236,384.324 242.902,384.658 239.5,384.5C 251.08,380.799 263.08,379.132 275.5,379.5C 275.5,378.167 275.5,376.833 275.5,375.5C 281.159,378.011 287.159,379.845 293.5,381C 294.571,381.852 295.571,382.685 296.5,383.5 Z"/></g>
<g><path style="opacity:1" fill="#a37b5d" d="M 293.5,385.5 C 287.984,382.547 282.318,381.88 276.5,383.5C 275.833,383.5 275.167,383.5 274.5,383.5C 266.167,383.5 257.833,383.5 249.5,383.5C 259.683,382.087 270.017,380.754 280.5,379.5C 282.923,379.594 285.256,380.094 287.5,381C 290.093,381.886 292.093,383.386 293.5,385.5 Z"/></g>
<g><path style="opacity:1" fill="#a78462" d="M 342.5,299.5 C 344.708,300.894 346.208,302.894 347,305.5C 347.588,324.192 347.088,342.859 345.5,361.5C 346.426,377.828 346.592,394.161 346,410.5C 345.556,415.316 344.056,419.65 341.5,423.5C 343.126,416.25 344.126,408.917 344.5,401.5C 344.047,392.445 343.047,383.445 341.5,374.5C 343.09,356.442 344.757,338.442 346.5,320.5C 347.291,312.985 345.957,305.985 342.5,299.5 Z"/></g>
<g><path style="opacity:1" fill="#6f4f3c" d="M 276.5,383.5 C 282.318,381.88 287.984,382.547 293.5,385.5C 296.482,387.474 299.482,389.474 302.5,391.5C 303.11,392.391 303.443,393.391 303.5,394.5C 302.833,394.5 302.167,394.5 301.5,394.5C 301.586,393.504 301.252,392.671 300.5,392C 297.71,391.439 295.377,390.106 293.5,388C 288.112,385.298 282.445,383.798 276.5,383.5 Z"/></g>
<g><path style="opacity:1" fill="#745744" d="M 249.5,383.5 C 257.833,383.5 266.167,383.5 274.5,383.5C 263.042,385.145 251.375,385.812 239.5,385.5C 239.5,385.167 239.5,384.833 239.5,384.5C 242.902,384.658 246.236,384.324 249.5,383.5 Z"/></g>
<g><path style="opacity:1" fill="#0f0805" d="M 274.5,383.5 C 275.167,383.5 275.833,383.5 276.5,383.5C 282.445,383.798 288.112,385.298 293.5,388C 295.377,390.106 297.71,391.439 300.5,392C 301.252,392.671 301.586,393.504 301.5,394.5C 293.113,393.889 284.78,392.889 276.5,391.5C 263.038,390.868 249.705,390.201 236.5,389.5C 235.766,388.292 235.433,386.959 235.5,385.5C 236.833,385.5 238.167,385.5 239.5,385.5C 251.375,385.812 263.042,385.145 274.5,383.5 Z"/></g>
<g><path style="opacity:1" fill="#715b3c" d="M 235.5,385.5 C 235.433,386.959 235.766,388.292 236.5,389.5C 235.391,389.443 234.391,389.11 233.5,388.5C 233.285,386.821 233.952,385.821 235.5,385.5 Z"/></g>
<g><path style="opacity:1" fill="#131316" d="M 359.5,231.5 C 359.177,237.69 359.51,243.69 360.5,249.5C 360.5,251.5 360.5,253.5 360.5,255.5C 360.244,299.006 360.577,342.506 361.5,386C 362.273,402.197 359.44,417.697 353,432.5C 344.729,443.219 334.229,450.886 321.5,455.5C 303.15,461.104 284.483,462.104 265.5,458.5C 257.01,457.67 248.343,457.17 239.5,457C 238.833,456.667 238.167,456.333 237.5,456C 238.416,455.722 239.082,455.222 239.5,454.5C 255.488,453.723 271.488,453.389 287.5,453.5C 299.941,453.509 312.275,452.342 324.5,450C 336.929,446.241 346.429,438.741 353,427.5C 353.314,423.218 354.48,419.218 356.5,415.5C 357.678,412.459 358.345,409.292 358.5,406C 357.838,400.895 358.005,395.728 359,390.5C 359.667,366.833 359.667,343.167 359,319.5C 358.762,323.222 358.262,326.889 357.5,330.5C 358.911,332.017 358.744,333.351 357,334.5C 356.421,340.208 355.588,345.875 354.5,351.5C 353.818,352.243 353.151,352.909 352.5,353.5C 353.495,337.178 353.662,320.845 353,304.5C 351.951,302.616 350.451,301.282 348.5,300.5C 346.833,297.833 345.167,295.167 343.5,292.5C 343.423,291.25 342.756,290.417 341.5,290C 339.527,289.505 337.527,289.338 335.5,289.5C 341.96,287.867 347.627,289.534 352.5,294.5C 354.434,294.099 355.934,293.099 357,291.5C 357.308,292.308 357.808,292.975 358.5,293.5C 360.006,277.737 359.673,262.07 357.5,246.5C 357.609,241.284 358.276,236.284 359.5,231.5 Z"/></g>
<g><path style="opacity:1" fill="#aa8160" d="M 287.5,403.5 C 286.508,403.328 285.842,403.662 285.5,404.5C 279.178,405.014 272.845,405.347 266.5,405.5C 266.286,403.856 266.62,402.356 267.5,401C 274.128,399.948 280.794,399.448 287.5,399.5C 287.5,400.833 287.5,402.167 287.5,403.5 Z"/></g>
<g><path style="opacity:1" fill="#e1ba92" d="M 338.5,420.5 C 337.792,425.575 335.292,429.575 331,432.5C 330.667,433.5 330.333,434.5 330,435.5C 327.33,438.25 324.164,440.083 320.5,441C 315.491,441.41 310.491,441.91 305.5,442.5C 298.993,444.683 292.327,446.183 285.5,447C 275.506,447.5 265.506,447.666 255.5,447.5C 240.847,448.566 226.18,449.566 211.5,450.5C 211.804,449.85 212.137,449.183 212.5,448.5C 217.883,446.088 223.383,443.755 229,441.5C 232.128,440.796 235.294,440.296 238.5,440C 239.337,438.989 239.67,437.822 239.5,436.5C 243.514,436.334 247.514,436.501 251.5,437C 251.043,437.414 250.709,437.914 250.5,438.5C 255.523,440.535 260.69,442.202 266,443.5C 266.5,443 267,442.5 267.5,442C 264.936,440.519 264.936,439.019 267.5,437.5C 270.965,438.791 274.465,440.125 278,441.5C 279.533,440.305 281.033,440.305 282.5,441.5C 283.429,440.311 283.762,438.978 283.5,437.5C 284.833,437.5 286.167,437.5 287.5,437.5C 287.5,435.833 287.5,434.167 287.5,432.5C 291.846,432.666 296.179,432.499 300.5,432C 299.556,429.281 299.223,426.448 299.5,423.5C 294.577,425.274 290.244,424.274 286.5,420.5C 289.834,418.916 292.834,419.416 295.5,422C 298.146,422.497 300.813,422.664 303.5,422.5C 303.5,421.167 303.5,419.833 303.5,418.5C 306.167,418.5 308.833,418.5 311.5,418.5C 311.5,419.833 311.5,421.167 311.5,422.5C 315.287,422.78 318.953,422.78 322.5,422.5C 323.848,420.389 323.515,418.555 321.5,417C 324.131,415.673 326.798,414.34 329.5,413C 331.525,411.806 331.859,410.306 330.5,408.5C 333.131,406.995 332.797,406.329 329.5,406.5C 329.5,405.5 329.5,404.5 329.5,403.5C 331.5,403.5 333.5,403.5 335.5,403.5C 335.338,405.527 335.505,407.527 336,409.5C 337.194,407.377 337.86,405.043 338,402.5C 338.333,403.167 338.667,403.833 339,404.5C 339.169,409.828 339.002,415.162 338.5,420.5 Z"/></g>
<g><path style="opacity:1" fill="#c29972" d="M 276.5,391.5 C 284.78,392.889 293.113,393.889 301.5,394.5C 302.167,394.5 302.833,394.5 303.5,394.5C 300.375,395.479 297.042,395.813 293.5,395.5C 293.899,400.056 291.899,402.722 287.5,403.5C 287.5,402.167 287.5,400.833 287.5,399.5C 280.794,399.448 274.128,399.948 267.5,401C 266.62,402.356 266.286,403.856 266.5,405.5C 272.845,405.347 279.178,405.014 285.5,404.5C 279.182,407.094 272.515,407.927 265.5,407C 262.877,404.441 263.21,402.108 266.5,400C 273.564,398.587 280.564,396.921 287.5,395C 284.62,394.65 281.953,393.817 279.5,392.5C 278.209,392.737 277.209,392.404 276.5,391.5 Z"/></g>
<g><path style="opacity:1" fill="#e2bd9a" d="M 145.5,418.5 C 146.586,418.62 147.253,419.287 147.5,420.5C 147.21,424.006 147.21,427.673 147.5,431.5C 148.833,431.5 150.167,431.5 151.5,431.5C 151.334,438.175 151.5,444.842 152,451.5C 153.269,455.649 153.935,459.982 154,464.5C 156.793,467.453 158.96,470.787 160.5,474.5C 161.364,472.803 162.697,471.637 164.5,471C 162.798,468.765 161.798,466.265 161.5,463.5C 162.5,463.5 163.5,463.5 164.5,463.5C 165.539,456.103 167.539,455.77 170.5,462.5C 172.045,463.452 173.712,463.785 175.5,463.5C 175.5,466.167 175.5,468.833 175.5,471.5C 182.508,471.334 189.508,471.5 196.5,472C 197.646,472.645 198.646,473.478 199.5,474.5C 202.817,471.87 205.15,468.537 206.5,464.5C 207.689,463.571 209.022,463.238 210.5,463.5C 210.991,469.988 210.325,476.321 208.5,482.5C 210.673,489.539 212.34,496.706 213.5,504C 213.252,505.716 212.585,507.216 211.5,508.5C 212.193,509.518 212.859,510.518 213.5,511.5C 186.833,511.5 160.167,511.5 133.5,511.5C 134,503.505 134.5,495.505 135,487.5C 135.471,485.754 136.138,484.087 137,482.5C 136.802,492.042 137.802,501.376 140,510.5C 140.75,509.874 141.584,509.374 142.5,509C 140.637,507.582 140.137,505.749 141,503.5C 141.333,504.167 141.667,504.833 142,505.5C 142.498,502.183 142.665,498.85 142.5,495.5C 143.5,495.5 144.5,495.5 145.5,495.5C 145.838,492.843 145.171,490.51 143.5,488.5C 146.199,486.102 147.533,483.102 147.5,479.5C 146.5,479.5 145.5,479.5 144.5,479.5C 143.502,476.907 143.002,471.573 143,463.5C 142.458,458.279 141.624,458.279 140.5,463.5C 139.167,458.167 139.167,452.833 140.5,447.5C 141.167,450.167 141.833,452.833 142.5,455.5C 143.67,452.182 143.67,448.849 142.5,445.5C 142.788,440.288 143.788,435.288 145.5,430.5C 143.476,426.432 142.976,422.098 144,417.5C 144.383,418.056 144.883,418.389 145.5,418.5 Z"/></g>
<g><path style="opacity:1" fill="#241f1e" d="M 351.5,377.5 C 352.33,385.99 352.83,394.657 353,403.5C 354.675,404.595 355.842,406.095 356.5,408C 356.402,410.618 356.402,413.118 356.5,415.5C 354.48,419.218 353.314,423.218 353,427.5C 346.429,438.741 336.929,446.241 324.5,450C 312.275,452.342 299.941,453.509 287.5,453.5C 300.042,451.861 312.709,450.027 325.5,448C 330.659,445.588 335.659,442.921 340.5,440C 342.439,438.568 343.772,436.735 344.5,434.5C 347.176,432.974 349.009,430.64 350,427.5C 350.48,410.83 350.98,394.163 351.5,377.5 Z"/></g>
<g><path style="opacity:1" fill="#637d8b" d="M 115.5,333.5 C 118.833,333.5 122.167,333.5 125.5,333.5C 126.172,334.267 127.005,334.934 128,335.5C 129.03,340.814 129.863,346.147 130.5,351.5C 130.85,401.541 129.85,451.541 127.5,501.5C 126.661,502.641 125.994,503.974 125.5,505.5C 124.998,506.521 124.332,506.688 123.5,506C 123.199,503.32 123.533,500.486 124.5,497.5C 124.019,494.917 123.352,492.417 122.5,490C 123,489.5 123.5,489 124,488.5C 124.261,480.224 125.094,472.057 126.5,464C 125.873,462.262 125.54,460.429 125.5,458.5C 125.943,444.663 127.109,430.996 129,417.5C 129.753,402.628 129.253,387.795 127.5,373C 129.5,360.343 127.5,348.343 121.5,337C 121.833,336.667 122.167,336.333 122.5,336C 120.5,335.667 118.5,335.333 116.5,335C 115.944,334.617 115.611,334.117 115.5,333.5 Z"/></g>
<g><path style="opacity:1" fill="#e1ba98" d="M 132.5,383.5 C 132.833,383.5 133.167,383.5 133.5,383.5C 133.069,401.547 133.569,419.547 135,437.5C 136.671,428.256 138.338,418.923 140,409.5C 140.667,408.167 141.333,408.167 142,409.5C 142.333,408.167 142.667,406.833 143,405.5C 143.266,409.993 144.099,414.326 145.5,418.5C 144.883,418.389 144.383,418.056 144,417.5C 142.976,422.098 143.476,426.432 145.5,430.5C 143.788,435.288 142.788,440.288 142.5,445.5C 143.67,448.849 143.67,452.182 142.5,455.5C 141.833,452.833 141.167,450.167 140.5,447.5C 139.167,452.833 139.167,458.167 140.5,463.5C 141.624,458.279 142.458,458.279 143,463.5C 143.002,471.573 143.502,476.907 144.5,479.5C 145.5,479.5 146.5,479.5 147.5,479.5C 147.533,483.102 146.199,486.102 143.5,488.5C 145.171,490.51 145.838,492.843 145.5,495.5C 144.5,495.5 143.5,495.5 142.5,495.5C 142.665,498.85 142.498,502.183 142,505.5C 141.667,504.833 141.333,504.167 141,503.5C 140.137,505.749 140.637,507.582 142.5,509C 141.584,509.374 140.75,509.874 140,510.5C 137.802,501.376 136.802,492.042 137,482.5C 136.138,484.087 135.471,485.754 135,487.5C 134.5,495.505 134,503.505 133.5,511.5C 132.833,511.5 132.167,511.5 131.5,511.5C 132.443,468.845 132.777,426.178 132.5,383.5 Z"/></g>
<g><path style="opacity:1" fill="#c59d78" d="M 283.5,293.5 C 288.238,296.772 293.405,298.772 299,299.5C 310.211,298.075 321.377,296.742 332.5,295.5C 334.857,295.337 337.19,295.503 339.5,296C 341.426,296.422 342.426,297.589 342.5,299.5C 345.957,305.985 347.291,312.985 346.5,320.5C 344.757,338.442 343.09,356.442 341.5,374.5C 343.047,383.445 344.047,392.445 344.5,401.5C 344.126,408.917 343.126,416.25 341.5,423.5C 341.296,425.685 340.63,427.685 339.5,429.5C 335.417,432.74 331.417,436.24 327.5,440C 321.596,442.309 315.596,444.309 309.5,446C 296.983,448.372 284.317,449.538 271.5,449.5C 266.36,448.512 261.026,448.179 255.5,448.5C 255.5,448.167 255.5,447.833 255.5,447.5C 265.506,447.666 275.506,447.5 285.5,447C 292.327,446.183 298.993,444.683 305.5,442.5C 310.491,441.91 315.491,441.41 320.5,441C 324.164,440.083 327.33,438.25 330,435.5C 330.333,434.5 330.667,433.5 331,432.5C 335.292,429.575 337.792,425.575 338.5,420.5C 340.882,415.039 341.882,409.205 341.5,403C 340.298,393.882 339.298,384.716 338.5,375.5C 339.867,368.632 341.034,361.632 342,354.5C 342.305,343.012 343.138,331.678 344.5,320.5C 344.333,316.167 344.167,311.833 344,307.5C 343.878,305.563 343.045,304.23 341.5,303.5C 341.063,301.926 340.063,300.759 338.5,300C 322.83,299.827 307.163,299.827 291.5,300C 289.623,298.815 287.623,297.815 285.5,297C 284.177,296.184 283.511,295.017 283.5,293.5 Z"/></g>
<g><path style="opacity:1" fill="#9f7c63" d="M 339.5,429.5 C 337.909,432.431 335.909,435.098 333.5,437.5C 331.114,438.373 329.114,439.873 327.5,442C 322.789,443.695 318.123,445.362 313.5,447C 305.283,447.65 297.283,448.817 289.5,450.5C 288.833,450.5 288.167,450.5 287.5,450.5C 274.833,450.5 262.167,450.5 249.5,450.5C 256.648,449.508 263.981,449.175 271.5,449.5C 284.317,449.538 296.983,448.372 309.5,446C 315.596,444.309 321.596,442.309 327.5,440C 331.417,436.24 335.417,432.74 339.5,429.5 Z"/></g>
<g><path style="opacity:1" fill="#5d727d" d="M 360.5,255.5 C 361.167,260.833 361.833,266.167 362.5,271.5C 362.5,304.167 362.5,336.833 362.5,369.5C 362.842,380.504 363.342,391.504 364,402.5C 364.944,403.263 365.444,404.263 365.5,405.5C 363.302,411.653 361.802,417.986 361,424.5C 360.333,426.5 359,427.833 357,428.5C 356.937,434.291 354.937,439.291 351,443.5C 342.842,450.975 332.676,455.642 320.5,457.5C 320.833,456.833 321.167,456.167 321.5,455.5C 334.229,450.886 344.729,443.219 353,432.5C 359.44,417.697 362.273,402.197 361.5,386C 360.577,342.506 360.244,299.006 360.5,255.5 Z"/></g>
<g><path style="opacity:1" fill="#473e3b" d="M 349.5,405.5 C 349.666,412.508 349.5,419.508 349,426.5C 347.223,429.059 345.723,431.726 344.5,434.5C 343.772,436.735 342.439,438.568 340.5,440C 335.659,442.921 330.659,445.588 325.5,448C 312.709,450.027 300.042,451.861 287.5,453.5C 271.488,453.389 255.488,453.723 239.5,454.5C 237.833,454.5 236.167,454.5 234.5,454.5C 231.192,453.974 229.026,455.307 228,458.5C 226.127,463.366 224.794,468.366 224,473.5C 222.463,481.736 223.796,489.403 228,496.5C 228.383,495.944 228.883,495.611 229.5,495.5C 228.192,498.486 226.859,501.486 225.5,504.5C 225.043,505.298 224.376,505.631 223.5,505.5C 222.188,496.235 221.521,486.901 221.5,477.5C 221.667,472.833 221.833,468.167 222,463.5C 222.093,460.993 222.926,458.826 224.5,457C 226.332,456.252 227.999,455.252 229.5,454C 248.964,452.375 268.297,451.209 287.5,450.5C 288.167,450.5 288.833,450.5 289.5,450.5C 299.616,450.591 309.616,449.591 319.5,447.5C 323.105,447.201 326.439,446.035 329.5,444C 335.316,439.351 340.649,434.184 345.5,428.5C 347.545,420.853 348.878,413.186 349.5,405.5 Z"/></g>
<g><path style="opacity:1" fill="#7d6152" d="M 333.5,437.5 C 332.04,439.463 330.373,441.296 328.5,443C 325.16,444.003 322.16,445.503 319.5,447.5C 309.616,449.591 299.616,450.591 289.5,450.5C 297.283,448.817 305.283,447.65 313.5,447C 318.123,445.362 322.789,443.695 327.5,442C 329.114,439.873 331.114,438.373 333.5,437.5 Z"/></g>
<g><path style="opacity:1" fill="#b19d88" d="M 131.5,363.5 C 131.833,363.5 132.167,363.5 132.5,363.5C 132.5,370.167 132.5,376.833 132.5,383.5C 132.777,426.178 132.443,468.845 131.5,511.5C 130.833,511.5 130.167,511.5 129.5,511.5C 130.708,462.176 131.375,412.843 131.5,363.5 Z"/></g>
<g><path style="opacity:1" fill="#8e7c67" d="M 239.5,451.5 C 235.702,452.483 231.702,452.817 227.5,452.5C 224.495,452.253 221.995,453.253 220,455.5C 219.333,471.833 219.333,488.167 220,504.5C 220.977,506.74 221.477,509.073 221.5,511.5C 220.5,511.5 219.5,511.5 218.5,511.5C 218.5,509.833 218.5,508.167 218.5,506.5C 218.52,489.813 218.353,473.146 218,456.5C 218.785,454.714 219.951,453.214 221.5,452C 227.491,451.501 233.491,451.334 239.5,451.5 Z"/></g>
<g><path style="opacity:1" fill="#cbaa89" d="M 255.5,447.5 C 255.5,447.833 255.5,448.167 255.5,448.5C 243.843,449.388 232.176,450.221 220.5,451C 218.671,451.273 217.171,452.107 216,453.5C 215.971,464.322 216.138,475.155 216.5,486C 216.503,493.201 217.17,500.034 218.5,506.5C 218.5,508.167 218.5,509.833 218.5,511.5C 217.167,511.5 215.833,511.5 214.5,511.5C 214.186,491.094 213.186,470.76 211.5,450.5C 226.18,449.566 240.847,448.566 255.5,447.5 Z"/></g>
<g><path style="opacity:1" fill="#566b78" d="M 321.5,455.5 C 321.167,456.167 320.833,456.833 320.5,457.5C 317.616,459.213 314.616,460.713 311.5,462C 298.334,464.223 285.334,463.889 272.5,461C 264.833,460.333 257.167,460.333 249.5,461C 247.695,461.972 246.028,463.139 244.5,464.5C 243.073,469.704 240.407,474.038 236.5,477.5C 237.568,473.557 239.402,469.89 242,466.5C 242.151,463.881 242.985,461.547 244.5,459.5C 251.468,458.503 258.468,458.17 265.5,458.5C 284.483,462.104 303.15,461.104 321.5,455.5 Z"/></g>
<g><path style="opacity:1" fill="#608497" d="M 254.5,511.5 C 249.5,511.5 244.5,511.5 239.5,511.5C 239.5,509.5 239.5,507.5 239.5,505.5C 240.833,505.5 242.167,505.5 243.5,505.5C 243.5,503.833 243.5,502.167 243.5,500.5C 244.822,500.33 245.989,500.663 247,501.5C 247.238,497.778 247.738,494.111 248.5,490.5C 247.574,486.906 247.241,483.24 247.5,479.5C 249.167,479.5 250.833,479.5 252.5,479.5C 250.194,470.292 253.86,465.459 263.5,465C 261.5,464.667 259.5,464.333 257.5,464C 259.833,463.833 262.167,463.667 264.5,463.5C 270.16,464.399 275.826,465.232 281.5,466C 284.289,466.241 286.956,466.908 289.5,468C 288.692,468.308 288.025,468.808 287.5,469.5C 292.833,470.167 298.167,470.833 303.5,471.5C 298.581,472.975 293.247,473.641 287.5,473.5C 287.351,474.552 287.517,475.552 288,476.5C 290.123,476.966 291.623,478.133 292.5,480C 292.333,480.5 292.167,481 292,481.5C 290.951,479.893 289.451,479.227 287.5,479.5C 287.5,482.5 287.5,485.5 287.5,488.5C 283.211,487.483 280.878,489.15 280.5,493.5C 279.833,493.167 279.167,492.833 278.5,492.5C 276.338,494.02 274.005,495.02 271.5,495.5C 271.5,496.833 271.5,498.167 271.5,499.5C 267.154,499.334 262.821,499.501 258.5,500C 263.718,501.563 269.051,501.896 274.5,501C 277.044,499.908 279.711,499.241 282.5,499C 283.337,497.989 283.67,496.822 283.5,495.5C 285.924,495.192 288.257,495.526 290.5,496.5C 290.023,497.478 289.357,498.311 288.5,499C 285.291,499.878 282.291,501.211 279.5,503C 276.854,503.497 274.187,503.664 271.5,503.5C 271.5,504.833 271.5,506.167 271.5,507.5C 266.167,507.5 260.833,507.5 255.5,507.5C 255.567,508.959 255.234,510.292 254.5,511.5 Z"/></g>
<g><path style="opacity:1" fill="#1a2225" d="M 234.5,454.5 C 236.167,454.5 237.833,454.5 239.5,454.5C 239.082,455.222 238.416,455.722 237.5,456C 238.167,456.333 238.833,456.667 239.5,457C 248.343,457.17 257.01,457.67 265.5,458.5C 258.468,458.17 251.468,458.503 244.5,459.5C 242.985,461.547 242.151,463.881 242,466.5C 239.402,469.89 237.568,473.557 236.5,477.5C 236.167,477.5 235.833,477.5 235.5,477.5C 233.127,479.579 231.794,482.246 231.5,485.5C 230.178,485.33 229.011,485.663 228,486.5C 226.98,485.109 226.147,483.609 225.5,482C 226.758,477.891 228.592,474.058 231,470.5C 232.098,464.807 233.265,459.474 234.5,454.5 Z"/></g>
<g><path style="opacity:1" fill="#62564c" d="M 249.5,450.5 C 262.167,450.5 274.833,450.5 287.5,450.5C 268.297,451.209 248.964,452.375 229.5,454C 227.999,455.252 226.332,456.252 224.5,457C 222.926,458.826 222.093,460.993 222,463.5C 221.833,468.167 221.667,472.833 221.5,477.5C 221.521,486.901 222.188,496.235 223.5,505.5C 223.5,505.833 223.5,506.167 223.5,506.5C 222.778,506.082 222.278,505.416 222,504.5C 220.488,488.53 220.155,472.53 221,456.5C 223.173,455.067 225.34,453.734 227.5,452.5C 231.702,452.817 235.702,452.483 239.5,451.5C 242.728,450.586 246.061,450.253 249.5,450.5 Z"/></g>
<g><path style="opacity:1" fill="#76695b" d="M 227.5,452.5 C 225.34,453.734 223.173,455.067 221,456.5C 220.155,472.53 220.488,488.53 222,504.5C 222.278,505.416 222.778,506.082 223.5,506.5C 223.5,508.167 223.5,509.833 223.5,511.5C 222.833,511.5 222.167,511.5 221.5,511.5C 221.477,509.073 220.977,506.74 220,504.5C 219.333,488.167 219.333,471.833 220,455.5C 221.995,453.253 224.495,452.253 227.5,452.5 Z"/></g>
<g><path style="opacity:1" fill="#ab9176" d="M 255.5,448.5 C 261.026,448.179 266.36,448.512 271.5,449.5C 263.981,449.175 256.648,449.508 249.5,450.5C 246.061,450.253 242.728,450.586 239.5,451.5C 233.491,451.334 227.491,451.501 221.5,452C 219.951,453.214 218.785,454.714 218,456.5C 218.353,473.146 218.52,489.813 218.5,506.5C 217.17,500.034 216.503,493.201 216.5,486C 216.138,475.155 215.971,464.322 216,453.5C 217.171,452.107 218.671,451.273 220.5,451C 232.176,450.221 243.843,449.388 255.5,448.5 Z"/></g>
<g><path style="opacity:1" fill="#2e3030" d="M 234.5,454.5 C 233.265,459.474 232.098,464.807 231,470.5C 228.592,474.058 226.758,477.891 225.5,482C 226.147,483.609 226.98,485.109 228,486.5C 229.011,485.663 230.178,485.33 231.5,485.5C 231.794,482.246 233.127,479.579 235.5,477.5C 233.5,483.5 231.5,489.5 229.5,495.5C 228.883,495.611 228.383,495.944 228,496.5C 223.796,489.403 222.463,481.736 224,473.5C 224.794,468.366 226.127,463.366 228,458.5C 229.026,455.307 231.192,453.974 234.5,454.5 Z"/></g>
<g><path style="opacity:1" fill="#59656c" d="M 235.5,477.5 C 235.833,477.5 236.167,477.5 236.5,477.5C 234.006,489.249 230.673,500.582 226.5,511.5C 225.5,511.5 224.5,511.5 223.5,511.5C 223.5,509.833 223.5,508.167 223.5,506.5C 223.5,506.167 223.5,505.833 223.5,505.5C 224.376,505.631 225.043,505.298 225.5,504.5C 226.859,501.486 228.192,498.486 229.5,495.5C 231.5,489.5 233.5,483.5 235.5,477.5 Z"/></g>
</svg>
