<?xml version="1.0" encoding="UTF-8"?>
<!DOCTYPE svg PUBLIC "-//W3C//DTD SVG 1.1//EN" "http://www.w3.org/Graphics/SVG/1.1/DTD/svg11.dtd">
<svg xmlns="http://www.w3.org/2000/svg" version="1.1" width="512px" height="512px" style="shape-rendering:geometricPrecision; text-rendering:geometricPrecision; image-rendering:optimizeQuality; fill-rule:evenodd; clip-rule:evenodd" xmlns:xlink="http://www.w3.org/1999/xlink">
<g><path style="opacity:1" fill="#648596" d="M -0.5,-0.5 C 170.167,-0.5 340.833,-0.5 511.5,-0.5C 511.5,114.167 511.5,228.833 511.5,343.5C 510.751,339.946 509.918,336.28 509,332.5C 508.517,333.448 508.351,334.448 508.5,335.5C 506.833,335.5 505.167,335.5 503.5,335.5C 502.955,345.192 502.955,354.859 503.5,364.5C 503.044,368.3 502.044,371.966 500.5,375.5C 500.679,378.191 501.679,380.525 503.5,382.5C 502.311,383.429 500.978,383.762 499.5,383.5C 498.795,388.776 498.795,394.109 499.5,399.5C 496.833,399.5 494.167,399.5 491.5,399.5C 489.876,395.295 488.542,391.295 487.5,387.5C 487.529,385.971 488.196,384.804 489.5,384C 488.874,383.25 488.374,382.416 488,381.5C 487.5,371.506 487.334,361.506 487.5,351.5C 486.167,351.5 484.833,351.5 483.5,351.5C 482.167,351.5 480.833,351.5 479.5,351.5C 479.5,340.833 479.5,330.167 479.5,319.5C 476.833,319.5 474.167,319.5 471.5,319.5C 470.833,308.833 470.167,298.167 469.5,287.5C 467.5,287.5 465.5,287.5 463.5,287.5C 463.5,282.167 463.5,276.833 463.5,271.5C 460.833,271.5 458.167,271.5 455.5,271.5C 455.381,264.328 455.215,257.328 455,250.5C 453.195,247.961 450.695,246.961 447.5,247.5C 447.5,244.833 447.5,242.167 447.5,239.5C 445.167,239.5 442.833,239.5 440.5,239.5C 439.697,234.524 436.864,231.191 432,229.5C 431.505,227.527 431.338,225.527 431.5,223.5C 430.167,223.5 428.833,223.5 427.5,223.5C 427.5,218.167 427.5,212.833 427.5,207.5C 426.167,207.5 424.833,207.5 423.5,207.5C 423.768,201.618 423.434,195.785 422.5,190C 423.987,185.846 426.82,183.013 431,181.5C 431.5,171.506 431.666,161.506 431.5,151.5C 426.167,151.5 420.833,151.5 415.5,151.5C 415.5,148.833 415.5,146.167 415.5,143.5C 407.5,143.5 399.5,143.5 391.5,143.5C 391.5,138.167 391.5,132.833 391.5,127.5C 388.833,127.5 386.167,127.5 383.5,127.5C 383.5,124.833 383.5,122.167 383.5,119.5C 376.428,119.14 374.094,122.306 376.5,129C 375.013,133.154 372.18,135.987 368,137.5C 367.333,144.833 367.333,152.167 368,159.5C 372.667,164.167 377.333,168.833 382,173.5C 384.498,176.101 383.998,177.435 380.5,177.5C 382.715,182.868 383.882,188.534 384,194.5C 387.606,197.769 389.939,201.769 391,206.5C 392.011,207.337 393.178,207.67 394.5,207.5C 394.808,209.924 394.474,212.257 393.5,214.5C 391.717,215.348 391.217,216.681 392,218.5C 392.915,217.672 393.581,216.672 394,215.5C 394.333,216.167 394.667,216.833 395,217.5C 396.935,214.448 398.268,211.115 399,207.5C 399.978,211.9 399.478,216.067 397.5,220C 398.834,222.66 399.668,225.494 400,228.5C 402.216,230.674 404.549,232.674 407,234.5C 409.174,243.052 410.84,251.719 412,260.5C 412.333,260.833 412.667,261.167 413,261.5C 413.192,259.423 413.692,257.423 414.5,255.5C 415.755,260.34 415.755,265.173 414.5,270C 416.227,272.621 417.56,275.455 418.5,278.5C 417.046,280.263 417.38,281.597 419.5,282.5C 420.719,281.737 421.719,280.737 422.5,279.5C 423.59,280.727 424.924,281.56 426.5,282C 427.406,283.699 427.739,285.533 427.5,287.5C 426.022,287.238 424.689,287.571 423.5,288.5C 426.967,292.547 429.3,297.213 430.5,302.5C 431.325,303.386 432.325,303.719 433.5,303.5C 433.607,305.903 432.607,307.736 430.5,309C 431.5,311.091 430.833,312.757 428.5,314C 429,320.088 430,326.254 431.5,332.5C 430.46,338.81 430.293,345.143 431,351.5C 431.333,348.167 431.667,344.833 432,341.5C 432.5,342 433,342.5 433.5,343C 432.197,346.468 432.197,349.968 433.5,353.5C 432.03,356.308 431.197,359.308 431,362.5C 430.092,356.081 428.925,349.747 427.5,343.5C 427.606,339.974 427.939,336.474 428.5,333C 426.975,328.63 426.308,324.13 426.5,319.5C 425.5,319.5 424.5,319.5 423.5,319.5C 423.5,321.167 423.5,322.833 423.5,324.5C 413.09,283.557 399.59,243.557 383,204.5C 376.992,193.143 370.492,182.143 363.5,171.5C 364.508,169.054 363.508,167.554 360.5,167C 360.833,166.667 361.167,166.333 361.5,166C 357.167,163 353.5,159.333 350.5,155C 345.675,152.83 340.675,150.83 335.5,149C 308.512,147.194 281.512,147.027 254.5,148.5C 242.806,148.29 231.139,147.623 219.5,146.5C 213.788,147.397 208.122,147.73 202.5,147.5C 199.957,146.953 197.957,145.62 196.5,143.5C 194.872,144.535 193.205,144.535 191.5,143.5C 189.775,143.157 189.275,142.157 190,140.5C 190.667,139.167 191.333,139.167 192,140.5C 194.477,139.125 195.311,137.291 194.5,135C 195.5,134 196.5,133 197.5,132C 195.833,130.5 194.167,129 192.5,127.5C 191.534,125.604 191.201,123.604 191.5,121.5C 187.359,122.464 183.359,122.631 179.5,122C 179.182,119.958 179.015,117.791 179,115.5C 175.67,112.754 173.004,113.42 171,117.5C 168.856,117.246 166.856,117.246 165,117.5C 162.732,118.472 160.732,119.805 159,121.5C 158.125,118.785 156.292,117.452 153.5,117.5C 153.67,118.822 153.337,119.989 152.5,121C 149.5,121.333 146.5,121.667 143.5,122C 138.94,123.567 134.607,125.4 130.5,127.5C 130.636,123.809 128.97,121.975 125.5,122C 123.152,124.562 121.318,127.395 120,130.5C 119,129.167 118,129.167 117,130.5C 116.798,132.256 116.298,133.922 115.5,135.5C 114.713,134.758 114.047,133.925 113.5,133C 112.175,133.148 111.008,132.982 110,132.5C 109.695,130.443 109.695,128.443 110,126.5C 108.817,125.269 107.651,125.269 106.5,126.5C 107.167,127.833 107.833,129.167 108.5,130.5C 105.164,136.453 102.497,142.62 100.5,149C 101.33,150.465 101.496,151.965 101,153.5C 99.951,151.893 98.451,151.227 96.5,151.5C 96.7399,154.579 96.4066,157.579 95.5,160.5C 92.5662,161.799 90.0662,161.132 88,158.5C 87.51,159.793 87.3433,161.127 87.5,162.5C 84.7531,162.187 82.0865,162.52 79.5,163.5C 81.5,164.167 83.5,164.833 85.5,165.5C 85.2907,166.086 84.9574,166.586 84.5,167C 87.033,168.916 87.033,170.916 84.5,173C 81.8165,174.954 79.1499,176.788 76.5,178.5C 74.4365,177.761 72.7699,176.428 71.5,174.5C 73.2562,172.809 73.7562,170.809 73,168.5C 71.9703,164.07 70.4703,159.737 68.5,155.5C 67.5713,156.689 67.238,158.022 67.5,159.5C 64.5133,159.578 63.8466,158.411 65.5,156C 64.0452,153.752 63.2118,151.252 63,148.5C 62.4899,150.545 61.6566,152.379 60.5,154C 61.448,154.483 62.448,154.649 63.5,154.5C 63.7852,156.288 63.4519,157.955 62.5,159.5C 60.9017,158.515 59.235,158.349 57.5,159C 55.928,163.885 52.7613,167.385 48,169.5C 47.2984,173.733 44.7984,175.9 40.5,176C 39.7491,181.254 36.7491,183.754 31.5,183.5C 31.5,186.167 31.5,188.833 31.5,191.5C 30.5,191.5 29.5,191.5 28.5,191.5C 28.8132,198.463 29.8132,205.296 31.5,212C 31.3333,212.833 31.1667,213.667 31,214.5C 27.4059,211.756 26.2393,212.589 27.5,217C 26.3333,219.167 25.1667,221.333 24,223.5C 23.5836,218.166 22.0836,213.166 19.5,208.5C 20.4066,205.579 20.7399,202.579 20.5,199.5C 21.5,199.5 22.5,199.5 23.5,199.5C 23.3874,202.049 24.0541,204.382 25.5,206.5C 23.7751,208.957 23.2751,211.623 24,214.5C 26.6008,209.861 28.1008,204.861 28.5,199.5C 23.4242,198.942 22.4242,196.609 25.5,192.5C 24.8333,192.167 24.1667,191.833 23.5,191.5C 21.5956,193.945 19.2622,195.945 16.5,197.5C 15.6735,193.541 15.1735,189.541 15,185.5C 11.7627,181.369 8.76272,177.035 6,172.5C 5.08529,173.328 4.41862,174.328 4,175.5C 3.50016,186.161 3.3335,196.828 3.5,207.5C 4.83333,207.5 6.16667,207.5 7.5,207.5C 7.5,212.833 7.5,218.167 7.5,223.5C 6.16667,223.5 4.83333,223.5 3.5,223.5C 3.3335,234.172 3.50016,244.839 4,255.5C 4.0006,258.687 4.83393,261.52 6.5,264C 6.37378,269.087 5.70711,274.254 4.5,279.5C 4.67169,284.202 5.17169,288.868 6,293.5C 8.82627,291.66 11.9929,290.994 15.5,291.5C 14.4101,295.86 14.4101,300.193 15.5,304.5C 14.0541,306.618 13.3874,308.951 13.5,311.5C 14.8333,311.5 16.1667,311.5 17.5,311.5C 17.7163,313.681 16.883,315.347 15,316.5C 12.2152,314.289 9.88191,311.623 8,308.5C 7.50137,312.152 7.3347,315.818 7.5,319.5C 6.16667,319.5 4.83333,319.5 3.5,319.5C 3.83329,377.171 3.49996,434.837 2.5,492.5C 1.71237,493.77 0.712371,494.77 -0.5,495.5C -0.5,330.167 -0.5,164.833 -0.5,-0.5 Z"/></g>
<g><path style="opacity:1" fill="#628696" d="M 39.5,31.5 C 42.8984,31.1796 46.2317,31.513 49.5,32.5C 47.876,33.8689 47.376,35.5355 48,37.5C 52.8636,39.1907 55.697,42.524 56.5,47.5C 55.0222,47.238 53.6888,47.5713 52.5,48.5C 54.5,53.1667 56.5,57.8333 58.5,62.5C 61.2988,63.0041 63.7988,64.0041 66,65.5C 67.7702,63.5819 69.9369,63.0819 72.5,64C 73.8741,67.4101 74.5408,67.2434 74.5,63.5C 81.5,63.5 88.5,63.5 95.5,63.5C 95.6621,65.5273 95.4955,67.5273 95,69.5C 90.1364,71.1907 87.303,74.524 86.5,79.5C 84.1667,79.5 81.8333,79.5 79.5,79.5C 79.6621,81.5273 79.4955,83.5273 79,85.5C 74.1364,87.1907 71.303,90.524 70.5,95.5C 57.15,95.8325 43.8167,95.4992 30.5,94.5C 25.8333,89.8333 21.1667,85.1667 16.5,80.5C 13.5719,79.5159 10.5719,79.1826 7.5,79.5C 7.33346,67.1622 7.50012,54.8288 8,42.5C 9.80504,39.9607 12.305,38.9607 15.5,39.5C 15.5,42.1667 15.5,44.8333 15.5,47.5C 23.6497,47.1479 31.6497,47.1479 39.5,47.5C 39.5,42.1667 39.5,36.8333 39.5,31.5 Z"/></g>
<g><path style="opacity:1" fill="#628494" d="M 191.5,143.5 C 187.416,146.005 183.249,146.005 179,143.5C 178.5,144 178,144.5 177.5,145C 178.833,145.333 180.167,145.667 181.5,146C 178.346,147.416 175.513,147.25 173,145.5C 172.075,146.047 171.242,146.713 170.5,147.5C 172.586,148.489 174.253,149.822 175.5,151.5C 172.572,152.817 169.572,154.15 166.5,155.5C 164.973,155.427 163.973,156.094 163.5,157.5C 161.95,158.441 160.284,159.107 158.5,159.5C 156.738,159.357 155.071,159.691 153.5,160.5C 151.976,159.473 151.309,157.973 151.5,156C 152.073,153.994 152.073,152.16 151.5,150.5C 152.815,148.684 154.315,147.017 156,145.5C 156.557,143.385 157.391,141.385 158.5,139.5C 158.113,138.28 157.28,137.613 156,137.5C 153.223,140.108 150.057,142.108 146.5,143.5C 145.851,145.624 145.017,147.624 144,149.5C 141.099,146.688 138.432,143.688 136,140.5C 137.33,147.649 134.497,151.315 127.5,151.5C 126.996,155.335 125.996,155.335 124.5,151.5C 124.167,151.833 123.833,152.167 123.5,152.5C 124.246,153.736 124.579,155.07 124.5,156.5C 123.5,156.5 122.5,156.5 121.5,156.5C 120.69,158.798 119.856,161.132 119,163.5C 118,162.167 117,160.833 116,159.5C 115.503,162.146 115.336,164.813 115.5,167.5C 113.876,167.64 112.71,166.973 112,165.5C 110.957,168.112 109.457,170.445 107.5,172.5C 108.833,173.833 108.833,175.167 107.5,176.5C 105.207,178.23 102.707,179.563 100,180.5C 98.0715,184.934 97.0715,189.601 97,194.5C 94.9349,197.955 92.1016,200.622 88.5,202.5C 89.7822,205.133 91.1156,205.133 92.5,202.5C 95.5657,204.709 96.2323,207.543 94.5,211C 94.1667,211.167 93.8333,211.333 93.5,211.5C 91.9218,206.846 89.9218,206.513 87.5,210.5C 89.6838,212.88 92.1838,214.214 95,214.5C 95.4996,221.492 95.6663,228.492 95.5,235.5C 93.8008,235.34 92.1341,235.506 90.5,236C 89.7256,238.405 89.2256,240.905 89,243.5C 87.4173,243.493 85.7506,243.826 84,244.5C 83.3647,246.618 82.5314,248.618 81.5,250.5C 81.9252,252.38 82.9252,253.88 84.5,255C 82.0058,258.333 80.8392,262.166 81,266.5C 79.4708,267.729 78.3041,269.229 77.5,271C 81.8711,271.172 86.2044,271.672 90.5,272.5C 91.2421,273.287 92.0754,273.953 93,274.5C 93.0056,276.809 93.1723,278.975 93.5,281C 91.2415,285.559 90.0748,290.393 90,295.5C 89.5291,297.246 88.8624,298.913 88,300.5C 86.6416,296.402 83.8082,294.735 79.5,295.5C 79.6641,292.813 79.4974,290.146 79,287.5C 74.3333,292.167 69.6667,296.833 65,301.5C 64.8333,301.833 64.6667,302.167 64.5,302.5C 66.0453,303.452 67.712,303.785 69.5,303.5C 69.5,308.833 69.5,314.167 69.5,319.5C 72.2469,319.187 74.9135,319.52 77.5,320.5C 75.5103,324.664 72.5103,327.831 68.5,330C 69.5,330.833 70.5,331.667 71.5,332.5C 69.6587,333.23 67.8254,333.897 66,334.5C 63.6522,345.269 62.8189,356.269 63.5,367.5C 58.1667,367.5 52.8333,367.5 47.5,367.5C 47.5,370.167 47.5,372.833 47.5,375.5C 45.2195,375.254 43.2195,375.254 41.5,375.5C 42.2798,378.762 42.6131,381.929 42.5,385C 41.053,388.905 39.8864,389.072 39,385.5C 36.8708,387.952 37.0375,390.286 39.5,392.5C 39.0688,393.293 38.7355,394.127 38.5,395C 39.6133,396.394 40.9466,397.561 42.5,398.5C 41.675,399.386 40.675,399.719 39.5,399.5C 39.4386,401.592 38.4386,403.092 36.5,404C 37.7282,404.779 38.7282,405.779 39.5,407C 38.5,408.667 37.5,410.333 36.5,412C 38.9609,417.129 37.2943,420.629 31.5,422.5C 32.5,423.833 33.5,425.167 34.5,426.5C 35.7202,425.289 36.8869,425.289 38,426.5C 38.7562,428.809 38.2562,430.809 36.5,432.5C 38.0049,433.842 38.6715,435.508 38.5,437.5C 37.5,437.5 36.5,437.5 35.5,437.5C 35.719,436.325 35.3857,435.325 34.5,434.5C 33.246,436.259 33.5794,437.759 35.5,439C 34.5076,442.07 34.8409,445.07 36.5,448C 35.1667,448.667 33.8333,449.333 32.5,450C 42.0168,453.067 41.6835,454.733 31.5,455C 32.7932,455.49 34.1266,455.657 35.5,455.5C 35.8134,458.247 35.48,460.914 34.5,463.5C 33.4164,462.335 32.5831,461.002 32,459.5C 31.567,463.102 32.4003,466.435 34.5,469.5C 34.1667,470.167 33.8333,470.833 33.5,471.5C 32.7492,470.624 32.2492,469.624 32,468.5C 29.4536,469.191 27.2869,470.524 25.5,472.5C 26.1667,473.5 26.8333,474.5 27.5,475.5C 26.1468,476.524 25.4802,477.857 25.5,479.5C 28.9397,479.337 30.9397,481.004 31.5,484.5C 34.1667,485.167 36.8333,485.833 39.5,486.5C 41.6911,488.208 42.0244,490.208 40.5,492.5C 41.325,493.386 42.325,493.719 43.5,493.5C 43.5,492.167 43.5,490.833 43.5,489.5C 44.9778,489.238 46.3112,489.571 47.5,490.5C 46.2532,492.042 46.2532,493.542 47.5,495C 45.2464,496.054 44.913,497.554 46.5,499.5C 46,500.5 45.5,501.5 45,502.5C 43.8333,500.833 42.6667,499.167 41.5,497.5C 40.4385,500.116 40.7718,502.616 42.5,505C 39.972,506.316 39.972,507.483 42.5,508.5C 43.3081,508.192 43.9747,507.692 44.5,507C 43.306,504.342 44.306,503.176 47.5,503.5C 47.6399,505.124 46.9733,506.29 45.5,507C 46.1667,507.333 46.8333,507.667 47.5,508C 55.5207,508.168 63.5207,508.668 71.5,509.5C 60.6742,510.167 50.0076,510.833 39.5,511.5C 26.1667,511.5 12.8333,511.5 -0.5,511.5C -0.5,506.167 -0.5,500.833 -0.5,495.5C 0.712371,494.77 1.71237,493.77 2.5,492.5C 3.49996,434.837 3.83329,377.171 3.5,319.5C 4.83333,319.5 6.16667,319.5 7.5,319.5C 7.3347,315.818 7.50137,312.152 8,308.5C 9.88191,311.623 12.2152,314.289 15,316.5C 16.883,315.347 17.7163,313.681 17.5,311.5C 16.1667,311.5 14.8333,311.5 13.5,311.5C 13.3874,308.951 14.0541,306.618 15.5,304.5C 14.4101,300.193 14.4101,295.86 15.5,291.5C 11.9929,290.994 8.82627,291.66 6,293.5C 5.17169,288.868 4.67169,284.202 4.5,279.5C 5.70711,274.254 6.37378,269.087 6.5,264C 4.83393,261.52 4.0006,258.687 4,255.5C 3.50016,244.839 3.3335,234.172 3.5,223.5C 4.83333,223.5 6.16667,223.5 7.5,223.5C 7.5,218.167 7.5,212.833 7.5,207.5C 6.16667,207.5 4.83333,207.5 3.5,207.5C 3.3335,196.828 3.50016,186.161 4,175.5C 4.41862,174.328 5.08529,173.328 6,172.5C 8.76272,177.035 11.7627,181.369 15,185.5C 15.1735,189.541 15.6735,193.541 16.5,197.5C 19.2622,195.945 21.5956,193.945 23.5,191.5C 24.1667,191.833 24.8333,192.167 25.5,192.5C 22.4242,196.609 23.4242,198.942 28.5,199.5C 28.1008,204.861 26.6008,209.861 24,214.5C 23.2751,211.623 23.7751,208.957 25.5,206.5C 24.0541,204.382 23.3874,202.049 23.5,199.5C 22.5,199.5 21.5,199.5 20.5,199.5C 20.7399,202.579 20.4066,205.579 19.5,208.5C 22.0836,213.166 23.5836,218.166 24,223.5C 25.1667,221.333 26.3333,219.167 27.5,217C 26.2393,212.589 27.4059,211.756 31,214.5C 31.1667,213.667 31.3333,212.833 31.5,212C 29.8132,205.296 28.8132,198.463 28.5,191.5C 29.5,191.5 30.5,191.5 31.5,191.5C 31.5,188.833 31.5,186.167 31.5,183.5C 36.7491,183.754 39.7491,181.254 40.5,176C 44.7984,175.9 47.2984,173.733 48,169.5C 52.7613,167.385 55.928,163.885 57.5,159C 59.235,158.349 60.9017,158.515 62.5,159.5C 63.4519,157.955 63.7852,156.288 63.5,154.5C 62.448,154.649 61.448,154.483 60.5,154C 61.6566,152.379 62.4899,150.545 63,148.5C 63.2118,151.252 64.0452,153.752 65.5,156C 63.8466,158.411 64.5133,159.578 67.5,159.5C 67.238,158.022 67.5713,156.689 68.5,155.5C 70.4703,159.737 71.9703,164.07 73,168.5C 73.7562,170.809 73.2562,172.809 71.5,174.5C 72.7699,176.428 74.4365,177.761 76.5,178.5C 79.1499,176.788 81.8165,174.954 84.5,173C 87.033,170.916 87.033,168.916 84.5,167C 84.9574,166.586 85.2907,166.086 85.5,165.5C 83.5,164.833 81.5,164.167 79.5,163.5C 82.0865,162.52 84.7531,162.187 87.5,162.5C 87.3433,161.127 87.51,159.793 88,158.5C 90.0662,161.132 92.5662,161.799 95.5,160.5C 96.4066,157.579 96.7399,154.579 96.5,151.5C 98.451,151.227 99.951,151.893 101,153.5C 101.496,151.965 101.33,150.465 100.5,149C 102.497,142.62 105.164,136.453 108.5,130.5C 107.833,129.167 107.167,127.833 106.5,126.5C 107.651,125.269 108.817,125.269 110,126.5C 109.695,128.443 109.695,130.443 110,132.5C 111.008,132.982 112.175,133.148 113.5,133C 114.047,133.925 114.713,134.758 115.5,135.5C 116.298,133.922 116.798,132.256 117,130.5C 118,129.167 119,129.167 120,130.5C 121.318,127.395 123.152,124.562 125.5,122C 128.97,121.975 130.636,123.809 130.5,127.5C 134.607,125.4 138.94,123.567 143.5,122C 146.5,121.667 149.5,121.333 152.5,121C 153.337,119.989 153.67,118.822 153.5,117.5C 156.292,117.452 158.125,118.785 159,121.5C 160.732,119.805 162.732,118.472 165,117.5C 166.856,117.246 168.856,117.246 171,117.5C 173.004,113.42 175.67,112.754 179,115.5C 179.015,117.791 179.182,119.958 179.5,122C 183.359,122.631 187.359,122.464 191.5,121.5C 191.201,123.604 191.534,125.604 192.5,127.5C 194.167,129 195.833,130.5 197.5,132C 196.5,133 195.5,134 194.5,135C 195.311,137.291 194.477,139.125 192,140.5C 191.333,139.167 190.667,139.167 190,140.5C 189.275,142.157 189.775,143.157 191.5,143.5 Z"/></g>
<g><path style="opacity:1" fill="#628597" d="M 483.5,351.5 C 483.5,356.833 483.5,362.167 483.5,367.5C 482.167,367.5 480.833,367.5 479.5,367.5C 479.5,372.833 479.5,378.167 479.5,383.5C 480.833,383.5 482.167,383.5 483.5,383.5C 483.021,387.434 483.688,391.101 485.5,394.5C 483.389,397.353 483.389,400.019 485.5,402.5C 484.223,407.153 483.557,411.987 483.5,417C 483.833,421.5 484.167,426 484.5,430.5C 486.016,429.196 486.682,429.696 486.5,432C 486.167,432.833 485.833,433.667 485.5,434.5C 484.335,433.509 483.168,432.509 482,431.5C 481.228,431.645 480.561,431.978 480,432.5C 479.501,437.489 479.334,442.489 479.5,447.5C 478.5,447.5 477.5,447.5 476.5,447.5C 475.833,451.5 475.167,451.5 474.5,447.5C 470.445,447.176 466.445,447.509 462.5,448.5C 460.208,450.657 457.875,452.824 455.5,455C 456.641,455.741 456.641,456.575 455.5,457.5C 456.167,457.833 456.833,458.167 457.5,458.5C 459.048,456.624 461.048,455.624 463.5,455.5C 463.5,456.833 463.5,458.167 463.5,459.5C 459.722,460.193 459.722,461.36 463.5,463C 462.034,463.635 460.7,464.469 459.5,465.5C 458.5,464.833 457.5,464.167 456.5,463.5C 455.167,464.833 453.833,464.833 452.5,463.5C 452.255,458.272 450.755,458.272 448,463.5C 447.503,460.854 447.336,458.187 447.5,455.5C 442.167,455.5 436.833,455.5 431.5,455.5C 431.666,460.179 431.499,464.845 431,469.5C 426.136,471.191 423.303,474.524 422.5,479.5C 417.833,479.5 413.167,479.5 408.5,479.5C 407.697,474.524 404.864,471.191 400,469.5C 399.505,471.473 399.338,473.473 399.5,475.5C 392.889,475.861 386.389,475.194 380,473.5C 376.767,473.7 373.933,474.867 371.5,477C 372.5,477.5 373.5,478 374.5,478.5C 377.333,477.067 380.333,476.4 383.5,476.5C 383.5,477.5 383.5,478.5 383.5,479.5C 372.833,479.5 362.167,479.5 351.5,479.5C 351.5,478.167 351.5,476.833 351.5,475.5C 337.948,476.691 324.448,476.691 311,475.5C 308.5,475.167 306,474.833 303.5,474.5C 308.802,473.671 314.136,473.171 319.5,473C 317.833,472.667 316.167,472.333 314.5,472C 320.167,471.667 325.833,471.333 331.5,471C 325.509,470.501 319.509,470.334 313.5,470.5C 331.329,469.429 349.329,468.596 367.5,468C 383.334,466.172 393.834,457.672 399,442.5C 407.727,421.32 415.06,399.654 421,377.5C 423.201,367.259 424.701,356.926 425.5,346.5C 424.962,339.149 424.296,331.815 423.5,324.5C 423.5,322.833 423.5,321.167 423.5,319.5C 424.5,319.5 425.5,319.5 426.5,319.5C 426.308,324.13 426.975,328.63 428.5,333C 427.939,336.474 427.606,339.974 427.5,343.5C 428.925,349.747 430.092,356.081 431,362.5C 431.197,359.308 432.03,356.308 433.5,353.5C 432.197,349.968 432.197,346.468 433.5,343C 433,342.5 432.5,342 432,341.5C 431.667,344.833 431.333,348.167 431,351.5C 430.293,345.143 430.46,338.81 431.5,332.5C 430,326.254 429,320.088 428.5,314C 430.833,312.757 431.5,311.091 430.5,309C 432.607,307.736 433.607,305.903 433.5,303.5C 432.325,303.719 431.325,303.386 430.5,302.5C 429.3,297.213 426.967,292.547 423.5,288.5C 424.689,287.571 426.022,287.238 427.5,287.5C 427.739,285.533 427.406,283.699 426.5,282C 424.924,281.56 423.59,280.727 422.5,279.5C 421.719,280.737 420.719,281.737 419.5,282.5C 417.38,281.597 417.046,280.263 418.5,278.5C 417.56,275.455 416.227,272.621 414.5,270C 415.755,265.173 415.755,260.34 414.5,255.5C 413.692,257.423 413.192,259.423 413,261.5C 412.667,261.167 412.333,260.833 412,260.5C 410.84,251.719 409.174,243.052 407,234.5C 404.549,232.674 402.216,230.674 400,228.5C 399.668,225.494 398.834,222.66 397.5,220C 399.478,216.067 399.978,211.9 399,207.5C 398.268,211.115 396.935,214.448 395,217.5C 394.667,216.833 394.333,216.167 394,215.5C 393.581,216.672 392.915,217.672 392,218.5C 391.217,216.681 391.717,215.348 393.5,214.5C 394.474,212.257 394.808,209.924 394.5,207.5C 393.178,207.67 392.011,207.337 391,206.5C 389.939,201.769 387.606,197.769 384,194.5C 383.882,188.534 382.715,182.868 380.5,177.5C 383.998,177.435 384.498,176.101 382,173.5C 377.333,168.833 372.667,164.167 368,159.5C 367.333,152.167 367.333,144.833 368,137.5C 372.18,135.987 375.013,133.154 376.5,129C 374.094,122.306 376.428,119.14 383.5,119.5C 383.5,122.167 383.5,124.833 383.5,127.5C 386.167,127.5 388.833,127.5 391.5,127.5C 391.5,132.833 391.5,138.167 391.5,143.5C 399.5,143.5 407.5,143.5 415.5,143.5C 415.5,146.167 415.5,148.833 415.5,151.5C 420.833,151.5 426.167,151.5 431.5,151.5C 431.666,161.506 431.5,171.506 431,181.5C 426.82,183.013 423.987,185.846 422.5,190C 423.434,195.785 423.768,201.618 423.5,207.5C 424.833,207.5 426.167,207.5 427.5,207.5C 427.5,212.833 427.5,218.167 427.5,223.5C 428.833,223.5 430.167,223.5 431.5,223.5C 431.338,225.527 431.505,227.527 432,229.5C 436.864,231.191 439.697,234.524 440.5,239.5C 442.833,239.5 445.167,239.5 447.5,239.5C 447.5,242.167 447.5,244.833 447.5,247.5C 450.695,246.961 453.195,247.961 455,250.5C 455.215,257.328 455.381,264.328 455.5,271.5C 458.167,271.5 460.833,271.5 463.5,271.5C 463.5,276.833 463.5,282.167 463.5,287.5C 465.5,287.5 467.5,287.5 469.5,287.5C 470.167,298.167 470.833,308.833 471.5,319.5C 474.167,319.5 476.833,319.5 479.5,319.5C 479.5,330.167 479.5,340.833 479.5,351.5C 480.833,351.5 482.167,351.5 483.5,351.5 Z"/></g>
<g><path style="opacity:1" fill="#627f8b" d="M 191.5,143.5 C 193.205,144.535 194.872,144.535 196.5,143.5C 197.957,145.62 199.957,146.953 202.5,147.5C 208.122,147.73 213.788,147.397 219.5,146.5C 231.139,147.623 242.806,148.29 254.5,148.5C 281.512,147.027 308.512,147.194 335.5,149C 340.675,150.83 345.675,152.83 350.5,155C 353.5,159.333 357.167,163 361.5,166C 361.167,166.333 360.833,166.667 360.5,167C 363.508,167.554 364.508,169.054 363.5,171.5C 356.036,162.215 346.703,155.382 335.5,151C 285.66,150.798 235.826,150.298 186,149.5C 182.271,149.308 178.771,149.974 175.5,151.5C 174.253,149.822 172.586,148.489 170.5,147.5C 171.242,146.713 172.075,146.047 173,145.5C 175.513,147.25 178.346,147.416 181.5,146C 180.167,145.667 178.833,145.333 177.5,145C 178,144.5 178.5,144 179,143.5C 183.249,146.005 187.416,146.005 191.5,143.5 Z"/></g>
<g><path style="opacity:1" fill="#020202" d="M 363.5,171.5 C 370.492,182.143 376.992,193.143 383,204.5C 399.59,243.557 413.09,283.557 423.5,324.5C 424.296,331.815 424.962,339.149 425.5,346.5C 424.701,356.926 423.201,367.259 421,377.5C 415.06,399.654 407.727,421.32 399,442.5C 393.834,457.672 383.334,466.172 367.5,468C 349.329,468.596 331.329,469.429 313.5,470.5C 302.813,470.52 292.146,471.02 281.5,472C 272.938,475.289 269.771,481.455 272,490.5C 275.441,497.736 279.607,504.402 284.5,510.5C 284.5,510.833 284.5,511.167 284.5,511.5C 275.5,511.5 266.5,511.5 257.5,511.5C 257.635,497.656 257.302,483.822 256.5,470C 256.667,466.833 256.833,463.667 257,460.5C 259.899,459.126 260.066,457.626 257.5,456C 259.665,454.661 261.665,453.161 263.5,451.5C 273.033,451.089 282.366,449.589 291.5,447C 296.167,445 300.833,443 305.5,441C 310.531,438.018 315.198,434.685 319.5,431C 320.823,430.184 321.489,429.017 321.5,427.5C 322.085,425.078 323.585,423.411 326,422.5C 326.847,420.146 327.68,417.812 328.5,415.5C 329.497,415.53 330.164,415.03 330.5,414C 332.878,408.907 335.211,404.073 337.5,399.5C 340.074,392.196 341.408,384.53 341.5,376.5C 342.37,364.183 342.704,351.849 342.5,339.5C 343.427,322.001 343.427,304.668 342.5,287.5C 342.577,283.785 342.244,280.119 341.5,276.5C 341.415,270.673 339.415,265.673 335.5,261.5C 336.035,259.729 336.869,259.396 338,260.5C 339.009,258.975 339.509,257.308 339.5,255.5C 336.891,255.17 335.224,253.67 334.5,251C 336.266,246.965 335.099,244.132 331,242.5C 330.517,241.552 330.351,240.552 330.5,239.5C 328.176,239.338 326.509,238.172 325.5,236C 324.207,235.51 322.873,235.343 321.5,235.5C 321.167,235.5 320.833,235.5 320.5,235.5C 319.609,234.89 318.609,234.557 317.5,234.5C 308.268,233.071 298.935,231.404 289.5,229.5C 284.683,231.792 280.017,231.458 275.5,228.5C 279.5,228.5 283.5,228.5 287.5,228.5C 287.5,227.5 287.5,226.5 287.5,225.5C 291.673,226.044 295.673,227.21 299.5,229C 299.167,229.333 298.833,229.667 298.5,230C 301.5,230.667 304.5,230.667 307.5,230C 306.167,229.667 304.833,229.333 303.5,229C 304.167,228.667 304.833,228.333 305.5,228C 304.5,227 303.5,226 302.5,225C 297.455,224.411 292.455,223.578 287.5,222.5C 282.938,220.482 278.271,218.649 273.5,217C 272.733,214.051 273.9,211.884 277,210.5C 277.483,209.552 277.649,208.552 277.5,207.5C 270.167,207.5 262.833,207.5 255.5,207.5C 255.5,206.167 255.5,204.833 255.5,203.5C 244.833,203.5 234.167,203.5 223.5,203.5C 223.5,205.167 223.5,206.833 223.5,208.5C 218.167,208.5 212.833,208.5 207.5,208.5C 207.5,209.5 207.5,210.5 207.5,211.5C 202.431,211.85 197.431,212.683 192.5,214C 191.253,215.494 191.253,216.994 192.5,218.5C 196.038,218.964 199.038,220.464 201.5,223C 203.134,223.494 204.801,223.66 206.5,223.5C 206.611,224.117 206.944,224.617 207.5,225C 201.74,224.878 196.407,225.711 191.5,227.5C 179.967,227.522 172.133,232.855 168,243.5C 164.176,246.324 161.509,249.991 160,254.5C 157.147,253.353 156.314,254.186 157.5,257C 156.924,258.714 155.757,259.881 154,260.5C 152.874,264.749 152.208,269.082 152,273.5C 150.984,272.366 150.317,272.699 150,274.5C 149.333,276.833 149.333,279.167 150,281.5C 154.211,302.833 158.878,324.167 164,345.5C 164.758,347.769 164.591,349.936 163.5,352C 165.961,362.34 167.628,372.84 168.5,383.5C 169.5,383.5 170.5,383.5 171.5,383.5C 172.991,387.991 174.325,392.658 175.5,397.5C 177.755,402.084 180.755,406.084 184.5,409.5C 187.771,414.501 189.938,419.834 191,425.5C 191.5,454.165 191.667,482.831 191.5,511.5C 180.5,511.5 169.5,511.5 158.5,511.5C 162.596,502.972 166.429,494.306 170,485.5C 170.671,478.353 167.505,473.853 160.5,472C 147.5,471.667 134.5,471.333 121.5,471C 118.339,469.587 115.339,467.92 112.5,466C 108.636,460.648 104.636,455.481 100.5,450.5C 98.5107,446.367 97.0107,442.033 96,437.5C 94.4722,427.555 93.4722,417.555 93,407.5C 91.0888,398.632 88.9221,389.965 86.5,381.5C 84.7747,374.762 83.4414,367.928 82.5,361C 83.4626,348.854 85.9626,337.021 90,325.5C 95.1965,312.244 100.197,298.911 105,285.5C 107.792,266.945 109.126,248.278 109,229.5C 111.988,216.192 117.655,204.192 126,193.5C 136.052,181.397 146.885,170.064 158.5,159.5C 160.284,159.107 161.95,158.441 163.5,157.5C 165.027,157.573 166.027,156.906 166.5,155.5C 169.572,154.15 172.572,152.817 175.5,151.5C 178.771,149.974 182.271,149.308 186,149.5C 235.826,150.298 285.66,150.798 335.5,151C 346.703,155.382 356.036,162.215 363.5,171.5 Z"/></g>
<g><path style="opacity:1" fill="#2e3e46" d="M 166.5,155.5 C 166.027,156.906 165.027,157.573 163.5,157.5C 163.973,156.094 164.973,155.427 166.5,155.5 Z"/></g>
<g><path style="opacity:1" fill="#010207" d="M 275.5,228.5 C 271.038,226.718 266.371,225.551 261.5,225C 262.696,224.346 262.696,223.846 261.5,223.5C 259.439,223.543 257.272,224.209 255,225.5C 252.931,224.736 250.764,224.236 248.5,224C 234.355,223.719 220.355,223.553 206.5,223.5C 204.801,223.66 203.134,223.494 201.5,223C 199.038,220.464 196.038,218.964 192.5,218.5C 191.253,216.994 191.253,215.494 192.5,214C 197.431,212.683 202.431,211.85 207.5,211.5C 207.5,210.5 207.5,209.5 207.5,208.5C 212.833,208.5 218.167,208.5 223.5,208.5C 223.5,206.833 223.5,205.167 223.5,203.5C 234.167,203.5 244.833,203.5 255.5,203.5C 255.5,204.833 255.5,206.167 255.5,207.5C 262.833,207.5 270.167,207.5 277.5,207.5C 277.649,208.552 277.483,209.552 277,210.5C 273.9,211.884 272.733,214.051 273.5,217C 278.271,218.649 282.938,220.482 287.5,222.5C 292.455,223.578 297.455,224.411 302.5,225C 303.5,226 304.5,227 305.5,228C 304.833,228.333 304.167,228.667 303.5,229C 304.833,229.333 306.167,229.667 307.5,230C 304.5,230.667 301.5,230.667 298.5,230C 298.833,229.667 299.167,229.333 299.5,229C 295.673,227.21 291.673,226.044 287.5,225.5C 287.5,226.5 287.5,227.5 287.5,228.5C 283.5,228.5 279.5,228.5 275.5,228.5 Z"/></g>
<g><path style="opacity:1" fill="#0e0907" d="M 206.5,223.5 C 220.355,223.553 234.355,223.719 248.5,224C 250.764,224.236 252.931,224.736 255,225.5C 257.272,224.209 259.439,223.543 261.5,223.5C 262.696,223.846 262.696,224.346 261.5,225C 266.371,225.551 271.038,226.718 275.5,228.5C 280.017,231.458 284.683,231.792 289.5,229.5C 298.935,231.404 308.268,233.071 317.5,234.5C 310.167,234.5 302.833,234.5 295.5,234.5C 293.031,233.683 290.365,233.183 287.5,233C 273.5,232.667 259.5,232.333 245.5,232C 227.727,227.707 209.727,226.207 191.5,227.5C 196.407,225.711 201.74,224.878 207.5,225C 206.944,224.617 206.611,224.117 206.5,223.5 Z"/></g>
<g><path style="opacity:1" fill="#4e2f22" d="M 276.5,234.5 C 277.209,235.404 278.209,235.737 279.5,235.5C 280.833,236.833 280.833,238.167 279.5,239.5C 270.958,239.79 262.458,239.457 254,238.5C 249.229,240.115 244.396,241.448 239.5,242.5C 239.5,241.5 239.5,240.5 239.5,239.5C 235.15,239.746 231.15,238.746 227.5,236.5C 225.334,236.43 225.001,237.096 226.5,238.5C 226,238.833 225.5,239.167 225,239.5C 221.227,237.176 217.56,237.509 214,240.5C 212.273,240.354 212.106,239.687 213.5,238.5C 208.059,236.033 202.726,236.033 197.5,238.5C 201.337,239.379 204.67,241.046 207.5,243.5C 203.142,241.291 198.476,239.957 193.5,239.5C 191.238,238.177 188.904,236.843 186.5,235.5C 185.799,233.808 186.133,232.142 187.5,230.5C 195.907,227.496 204.073,227.829 212,231.5C 213.667,230.833 215.333,230.167 217,229.5C 224.191,232.339 231.691,233.839 239.5,234C 240.725,236.449 242.392,236.949 244.5,235.5C 245.647,235.818 246.481,236.484 247,237.5C 256.582,234.877 266.415,233.877 276.5,234.5 Z"/></g>
<g><path style="opacity:1" fill="#48322a" d="M 295.5,234.5 C 294.398,236.092 295.065,236.925 297.5,237C 293.843,237.051 290.177,236.718 286.5,236C 286,235.5 285.5,235 285,234.5C 282.379,234.704 279.545,234.704 276.5,234.5C 266.415,233.877 256.582,234.877 247,237.5C 246.481,236.484 245.647,235.818 244.5,235.5C 242.392,236.949 240.725,236.449 239.5,234C 231.691,233.839 224.191,232.339 217,229.5C 215.333,230.167 213.667,230.833 212,231.5C 204.073,227.829 195.907,227.496 187.5,230.5C 187.5,230.167 187.5,229.833 187.5,229.5C 188.995,229.011 190.329,228.345 191.5,227.5C 209.727,226.207 227.727,227.707 245.5,232C 259.5,232.333 273.5,232.667 287.5,233C 290.365,233.183 293.031,233.683 295.5,234.5 Z"/></g>
<g><path style="opacity:1" fill="#512e1b" d="M 279.5,239.5 C 280.5,239.5 281.5,239.5 282.5,239.5C 282.5,240.5 282.5,241.5 282.5,242.5C 284.39,242.297 285.89,242.963 287,244.5C 288.388,243.446 289.888,243.28 291.5,244C 289.205,244.984 289.539,245.817 292.5,246.5C 295.717,245.91 299.051,245.91 302.5,246.5C 302.047,247.458 301.381,248.292 300.5,249C 300.833,249.333 301.167,249.667 301.5,250C 299.845,251.444 299.178,253.278 299.5,255.5C 298.662,255.842 298.328,256.508 298.5,257.5C 297.609,256.89 296.609,256.557 295.5,256.5C 295.483,253.477 294.483,250.81 292.5,248.5C 291.522,248.977 290.689,249.643 290,250.5C 288.883,248.876 287.383,247.876 285.5,247.5C 281.809,250.485 277.142,252.819 271.5,254.5C 260.181,255.666 248.848,255.832 237.5,255C 235.244,253.132 232.744,251.632 230,250.5C 229.667,250.833 229.333,251.167 229,251.5C 228.51,250.207 228.343,248.873 228.5,247.5C 225.306,247.176 224.306,248.342 225.5,251C 222.277,251.938 220.944,254.105 221.5,257.5C 220.589,255.249 219.256,253.249 217.5,251.5C 214.461,248.46 211.127,245.794 207.5,243.5C 204.67,241.046 201.337,239.379 197.5,238.5C 202.726,236.033 208.059,236.033 213.5,238.5C 212.106,239.687 212.273,240.354 214,240.5C 217.56,237.509 221.227,237.176 225,239.5C 225.5,239.167 226,238.833 226.5,238.5C 225.001,237.096 225.334,236.43 227.5,236.5C 231.15,238.746 235.15,239.746 239.5,239.5C 239.5,240.5 239.5,241.5 239.5,242.5C 244.396,241.448 249.229,240.115 254,238.5C 262.458,239.457 270.958,239.79 279.5,239.5 Z"/></g>
<g><path style="opacity:1" fill="#543c2c" d="M 276.5,234.5 C 279.545,234.704 282.379,234.704 285,234.5C 285.5,235 286,235.5 286.5,236C 290.177,236.718 293.843,237.051 297.5,237C 295.065,236.925 294.398,236.092 295.5,234.5C 302.833,234.5 310.167,234.5 317.5,234.5C 318.609,234.557 319.609,234.89 320.5,235.5C 320.539,236.583 320.873,237.583 321.5,238.5C 321.043,239.298 320.376,239.631 319.5,239.5C 319.315,237.11 317.982,236.11 315.5,236.5C 313.645,236.34 312.312,237.007 311.5,238.5C 308.938,237.892 306.271,238.058 303.5,239C 304.448,239.483 305.448,239.649 306.5,239.5C 306.649,240.552 306.483,241.552 306,242.5C 305.333,241.167 304.667,241.167 304,242.5C 303.21,240.21 301.876,239.877 300,241.5C 294.235,240.044 288.401,238.877 282.5,238C 281.922,236.583 280.922,235.75 279.5,235.5C 278.209,235.737 277.209,235.404 276.5,234.5 Z"/></g>
<g><path style="opacity:1" fill="#160500" d="M 187.5,229.5 C 187.5,229.833 187.5,230.167 187.5,230.5C 185.097,230.695 183.43,231.862 182.5,234C 183.097,236.537 184.43,238.537 186.5,240C 185.397,241.68 185.73,243.18 187.5,244.5C 193.847,246.744 193.514,248.577 186.5,250C 187.167,250.333 187.833,250.667 188.5,251C 182.411,252.578 176.744,254.911 171.5,258C 172.5,258.333 173.5,258.667 174.5,259C 172.833,259.333 171.167,259.667 169.5,260C 170.094,260.464 170.761,260.631 171.5,260.5C 168.5,261.167 165.5,261.833 162.5,262.5C 161.833,262.5 161.5,262.833 161.5,263.5C 160.833,263.833 160.167,264.167 159.5,264.5C 162.556,257.976 167.556,253.809 174.5,252C 174.167,251.667 173.833,251.333 173.5,251C 175.167,250.667 176.833,250.333 178.5,250C 177.5,249.667 176.5,249.333 175.5,249C 177.888,248.697 180.055,247.863 182,246.5C 181.281,242.351 180.447,238.184 179.5,234C 181.152,230.674 183.819,229.174 187.5,229.5 Z"/></g>
<g><path style="opacity:1" fill="#0d0201" d="M 321.5,235.5 C 322.873,235.343 324.207,235.51 325.5,236C 326.509,238.172 328.176,239.338 330.5,239.5C 330.351,240.552 330.517,241.552 331,242.5C 335.099,244.132 336.266,246.965 334.5,251C 335.224,253.67 336.891,255.17 339.5,255.5C 339.509,257.308 339.009,258.975 338,260.5C 336.869,259.396 336.035,259.729 335.5,261.5C 339.415,265.673 341.415,270.673 341.5,276.5C 340.833,275.5 340.167,274.5 339.5,273.5C 338.921,270.669 337.588,268.336 335.5,266.5C 334.258,262.345 332.258,258.678 329.5,255.5C 329.141,253.629 328.141,252.129 326.5,251C 323.5,250.333 320.5,250.333 317.5,251C 316.944,251.383 316.611,251.883 316.5,252.5C 310.054,253.75 308.388,251.75 311.5,246.5C 315.46,244.788 319.293,242.788 323,240.5C 323.64,238.457 323.14,236.79 321.5,235.5 Z"/></g>
<g><path style="opacity:1" fill="#321e11" d="M 320.5,235.5 C 320.833,235.5 321.167,235.5 321.5,235.5C 323.14,236.79 323.64,238.457 323,240.5C 319.293,242.788 315.46,244.788 311.5,246.5C 314.239,244.149 316.905,241.816 319.5,239.5C 320.376,239.631 321.043,239.298 321.5,238.5C 320.873,237.583 320.539,236.583 320.5,235.5 Z"/></g>
<g><path style="opacity:1" fill="#523622" d="M 279.5,235.5 C 280.922,235.75 281.922,236.583 282.5,238C 288.401,238.877 294.235,240.044 300,241.5C 301.876,239.877 303.21,240.21 304,242.5C 304.667,241.167 305.333,241.167 306,242.5C 306.483,241.552 306.649,240.552 306.5,239.5C 305.448,239.649 304.448,239.483 303.5,239C 306.271,238.058 308.938,237.892 311.5,238.5C 311.141,240.371 310.141,241.871 308.5,243C 306.09,243.6 304.09,244.766 302.5,246.5C 299.051,245.91 295.717,245.91 292.5,246.5C 289.539,245.817 289.205,244.984 291.5,244C 289.888,243.28 288.388,243.446 287,244.5C 285.89,242.963 284.39,242.297 282.5,242.5C 282.5,241.5 282.5,240.5 282.5,239.5C 281.5,239.5 280.5,239.5 279.5,239.5C 280.833,238.167 280.833,236.833 279.5,235.5 Z"/></g>
<g><path style="opacity:1" fill="#1b0401" d="M 187.5,230.5 C 186.133,232.142 185.799,233.808 186.5,235.5C 188.904,236.843 191.238,238.177 193.5,239.5C 193.918,240.222 194.584,240.722 195.5,241C 194.833,241.333 194.167,241.667 193.5,242C 196.881,243.047 200.047,244.547 203,246.5C 203.49,247.793 203.657,249.127 203.5,250.5C 205.582,250.472 207.416,251.139 209,252.5C 209.519,251.484 210.353,250.818 211.5,250.5C 212.863,251.198 214.029,251.198 215,250.5C 215.342,252.619 216.175,252.953 217.5,251.5C 219.256,253.249 220.589,255.249 221.5,257.5C 221.5,258.5 221.5,259.5 221.5,260.5C 216.833,260.5 212.167,260.5 207.5,260.5C 199.634,258.594 191.634,256.927 183.5,255.5C 182.289,256.274 182.289,257.107 183.5,258C 179.506,258.945 175.506,259.778 171.5,260.5C 170.761,260.631 170.094,260.464 169.5,260C 171.167,259.667 172.833,259.333 174.5,259C 173.5,258.667 172.5,258.333 171.5,258C 176.744,254.911 182.411,252.578 188.5,251C 187.833,250.667 187.167,250.333 186.5,250C 193.514,248.577 193.847,246.744 187.5,244.5C 185.73,243.18 185.397,241.68 186.5,240C 184.43,238.537 183.097,236.537 182.5,234C 183.43,231.862 185.097,230.695 187.5,230.5 Z"/></g>
<g><path style="opacity:1" fill="#240902" d="M 193.5,239.5 C 198.476,239.957 203.142,241.291 207.5,243.5C 211.127,245.794 214.461,248.46 217.5,251.5C 216.175,252.953 215.342,252.619 215,250.5C 214.029,251.198 212.863,251.198 211.5,250.5C 210.353,250.818 209.519,251.484 209,252.5C 207.416,251.139 205.582,250.472 203.5,250.5C 203.657,249.127 203.49,247.793 203,246.5C 200.047,244.547 196.881,243.047 193.5,242C 194.167,241.667 194.833,241.333 195.5,241C 194.584,240.722 193.918,240.222 193.5,239.5 Z"/></g>
<g><path style="opacity:1" fill="#552c14" d="M 295.5,256.5 C 294.38,260.739 293.047,261.072 291.5,257.5C 285.021,259.969 280.021,264.303 276.5,270.5C 278.628,272.658 277.962,274.324 274.5,275.5C 273.833,275.167 273.167,274.833 272.5,274.5C 271.376,275.914 270.376,277.414 269.5,279C 270.523,284.295 271.856,289.129 273.5,293.5C 273.182,294.647 272.516,295.481 271.5,296C 272.91,296.368 273.91,297.201 274.5,298.5C 272.611,299.604 270.945,300.937 269.5,302.5C 270.93,302.306 272.43,302.306 274,302.5C 274.265,304.163 273.765,305.663 272.5,307C 277.5,307.333 282.5,307.667 287.5,308C 290.379,310.808 293.379,313.475 296.5,316C 299.099,316.769 301.599,316.602 304,315.5C 305.678,317.553 307.511,317.887 309.5,316.5C 311.303,317.046 312.97,317.88 314.5,319C 312.369,323.798 308.869,327.298 304,329.5C 301.638,327.984 299.138,326.65 296.5,325.5C 295.652,323.591 295.318,321.591 295.5,319.5C 292.833,319.5 290.167,319.5 287.5,319.5C 287.5,320.833 287.5,322.167 287.5,323.5C 284.813,323.664 282.146,323.497 279.5,323C 280.337,321.989 280.67,320.822 280.5,319.5C 276.445,319.176 272.445,319.509 268.5,320.5C 270.297,321.695 271.297,323.362 271.5,325.5C 269.801,325.34 268.134,325.506 266.5,326C 266.07,326.92 265.736,327.753 265.5,328.5C 262.627,327.125 259.627,326.125 256.5,325.5C 255.808,326.025 255.308,326.692 255,327.5C 254.047,325.545 252.713,323.878 251,322.5C 250.517,321.552 250.351,320.552 250.5,319.5C 248.5,319.5 246.5,319.5 244.5,319.5C 244.69,325.38 244.19,330.38 243,334.5C 243.333,333.833 243.667,333.167 244,332.5C 245.294,334.962 246.794,337.295 248.5,339.5C 251.217,339.999 253.551,341.165 255.5,343C 252.866,345.293 252.866,347.46 255.5,349.5C 255.973,350.906 256.973,351.573 258.5,351.5C 259.23,352.712 260.23,353.712 261.5,354.5C 259.955,356.44 257.955,357.606 255.5,358C 256.167,358.333 256.833,358.667 257.5,359C 251.903,360.515 246.236,361.181 240.5,361C 238.538,359.379 236.871,357.546 235.5,355.5C 232.12,357.74 228.454,359.407 224.5,360.5C 223.167,363.167 223.167,365.833 224.5,368.5C 226.604,369.519 228.604,370.519 230.5,371.5C 229.167,371.5 228.5,372.167 228.5,373.5C 224.681,372.59 220.848,371.59 217,370.5C 213.814,370.744 210.647,371.077 207.5,371.5C 207.5,374.167 207.5,376.833 207.5,379.5C 202.167,379.5 196.833,379.5 191.5,379.5C 191.762,378.022 191.429,376.689 190.5,375.5C 188.035,374.868 186.369,373.368 185.5,371C 188.201,369.036 190.701,366.869 193,364.5C 195.624,359.623 197.791,354.623 199.5,349.5C 200.822,349.33 201.989,349.663 203,350.5C 203.497,347.854 203.664,345.187 203.5,342.5C 199.323,342.929 195.323,343.929 191.5,345.5C 190.666,350.321 188.666,354.654 185.5,358.5C 184.349,359.731 183.183,359.731 182,358.5C 180.74,354.716 178.74,351.383 176,348.5C 175.503,351.146 175.336,353.813 175.5,356.5C 174.683,354.031 174.183,351.365 174,348.5C 173.764,350.119 172.931,351.119 171.5,351.5C 170.833,351.5 170.5,351.167 170.5,350.5C 170.357,348.738 170.691,347.071 171.5,345.5C 168.739,336.981 167.739,328.314 168.5,319.5C 169.833,319.5 171.167,319.5 172.5,319.5C 172.805,326.911 172.972,334.244 173,341.5C 173.667,342.167 174.333,342.833 175,343.5C 175.167,339.5 175.333,335.5 175.5,331.5C 174.658,322.13 173.491,312.796 172,303.5C 171.333,308.833 170.667,308.833 170,303.5C 169.74,307.424 168.74,311.091 167,314.5C 166.434,312.277 165.6,310.277 164.5,308.5C 165.853,297.299 165.519,286.133 163.5,275C 165.508,272.472 165.508,270.139 163.5,268C 164.167,266.667 165.167,265.667 166.5,265C 171.489,264.501 176.489,264.334 181.5,264.5C 178.242,265.171 174.909,266.004 171.5,267C 172.308,267.308 172.975,267.808 173.5,268.5C 172.359,269.425 172.359,270.259 173.5,271C 174.793,271.49 176.127,271.657 177.5,271.5C 175.819,275.324 175.319,279.324 176,283.5C 177.351,281.981 178.851,280.648 180.5,279.5C 181.711,280.274 181.711,281.107 180.5,282C 181.167,282.667 181.833,283.333 182.5,284C 180.497,285.819 179.164,287.985 178.5,290.5C 177.659,291.009 177.159,290.343 177,288.5C 176.088,293.464 175.588,298.464 175.5,303.5C 174.503,303.47 173.836,303.97 173.5,305C 174.322,307.434 174.656,309.934 174.5,312.5C 177.887,312.716 179.887,314.55 180.5,318C 179.507,320.453 179.34,322.953 180,325.5C 180.71,326.973 181.876,327.64 183.5,327.5C 183.335,330.518 183.502,333.518 184,336.5C 185.259,332.777 187.592,331.777 191,333.5C 191.483,332.552 191.649,331.552 191.5,330.5C 196.839,330.555 198.172,328.555 195.5,324.5C 196.873,318.241 198.373,318.574 200,325.5C 200.414,325.043 200.914,324.709 201.5,324.5C 202.194,318.08 202.194,312.247 201.5,307C 204.843,302.522 208.843,301.355 213.5,303.5C 214.982,301.517 216.649,299.684 218.5,298C 222.506,297.888 226.173,296.722 229.5,294.5C 232.523,289.984 234.856,285.15 236.5,280C 236.167,279.167 235.833,278.333 235.5,277.5C 233.111,276.82 230.778,275.986 228.5,275C 228.017,271.538 226.85,271.038 225,273.5C 224.487,272.473 223.987,271.473 223.5,270.5C 224.29,269.206 225.29,268.039 226.5,267C 224.557,267.305 222.557,267.305 220.5,267C 224.914,266.252 226.414,263.752 225,259.5C 224.667,260.833 224.333,262.167 224,263.5C 210.656,260.98 197.156,260.98 183.5,263.5C 185.371,262.203 187.371,261.203 189.5,260.5C 195.5,260.5 201.5,260.5 207.5,260.5C 212.167,260.5 216.833,260.5 221.5,260.5C 221.5,259.5 221.5,258.5 221.5,257.5C 220.944,254.105 222.277,251.938 225.5,251C 224.306,248.342 225.306,247.176 228.5,247.5C 228.343,248.873 228.51,250.207 229,251.5C 229.333,251.167 229.667,250.833 230,250.5C 232.744,251.632 235.244,253.132 237.5,255C 248.848,255.832 260.181,255.666 271.5,254.5C 277.142,252.819 281.809,250.485 285.5,247.5C 287.383,247.876 288.883,248.876 290,250.5C 290.689,249.643 291.522,248.977 292.5,248.5C 294.483,250.81 295.483,253.477 295.5,256.5 Z"/></g>
<g><path style="opacity:1" fill="#38200f" d="M 311.5,246.5 C 308.388,251.75 310.054,253.75 316.5,252.5C 313.77,253.817 310.937,253.817 308,252.5C 306.878,249.128 308.045,247.128 311.5,246.5 Z"/></g>
<g><path style="opacity:1" fill="#5e3e27" d="M 319.5,239.5 C 316.905,241.816 314.239,244.149 311.5,246.5C 308.045,247.128 306.878,249.128 308,252.5C 310.937,253.817 313.77,253.817 316.5,252.5C 316.611,251.883 316.944,251.383 317.5,251C 320.5,250.333 323.5,250.333 326.5,251C 328.141,252.129 329.141,253.629 329.5,255.5C 319.025,255.309 309.025,255.309 299.5,255.5C 299.178,253.278 299.845,251.444 301.5,250C 301.167,249.667 300.833,249.333 300.5,249C 301.381,248.292 302.047,247.458 302.5,246.5C 304.09,244.766 306.09,243.6 308.5,243C 310.141,241.871 311.141,240.371 311.5,238.5C 312.312,237.007 313.645,236.34 315.5,236.5C 317.982,236.11 319.315,237.11 319.5,239.5 Z"/></g>
<g><path style="opacity:1" fill="#250801" d="M 207.5,260.5 C 201.5,260.5 195.5,260.5 189.5,260.5C 180.61,262.214 171.61,262.881 162.5,262.5C 165.5,261.833 168.5,261.167 171.5,260.5C 175.506,259.778 179.506,258.945 183.5,258C 182.289,257.107 182.289,256.274 183.5,255.5C 191.634,256.927 199.634,258.594 207.5,260.5 Z"/></g>
<g><path style="opacity:1" fill="#562b11" d="M 295.5,256.5 C 296.609,256.557 297.609,256.89 298.5,257.5C 299.172,258.267 300.005,258.934 301,259.5C 301.718,258.549 302.551,258.383 303.5,259C 302.619,259.708 301.953,260.542 301.5,261.5C 300.761,261.369 300.094,261.536 299.5,262C 300.833,262.333 302.167,262.667 303.5,263C 301.58,264.122 299.58,264.956 297.5,265.5C 297.504,267.842 298.337,269.842 300,271.5C 302.24,268.833 303.74,269.333 304.5,273C 302.259,274.739 300.592,276.906 299.5,279.5C 300.025,280.192 300.692,280.692 301.5,281C 296.977,288.008 297.644,294.342 303.5,300C 304.167,300.667 304.833,300.667 305.5,300C 304.024,296.868 303.357,293.535 303.5,290C 303.504,287.639 303.837,285.473 304.5,283.5C 304.368,286.57 304.701,289.57 305.5,292.5C 305.796,296.789 307.796,299.789 311.5,301.5C 314.167,302.833 316.833,302.833 319.5,301.5C 318.152,303.48 316.152,304.647 313.5,305C 314.108,305.87 314.941,306.37 316,306.5C 319.803,305.156 323.636,304.156 327.5,303.5C 324.94,306.22 321.94,308.386 318.5,310C 321.016,311.765 323.516,313.598 326,315.5C 326.393,317.716 325.893,319.716 324.5,321.5C 323.22,322.931 321.553,323.598 319.5,323.5C 319.777,320.552 319.444,317.719 318.5,315C 314.528,314.652 310.861,313.485 307.5,311.5C 306.833,311.833 306.167,312.167 305.5,312.5C 307.375,313.409 308.708,314.743 309.5,316.5C 307.511,317.887 305.678,317.553 304,315.5C 301.599,316.602 299.099,316.769 296.5,316C 293.379,313.475 290.379,310.808 287.5,308C 282.5,307.667 277.5,307.333 272.5,307C 273.765,305.663 274.265,304.163 274,302.5C 272.43,302.306 270.93,302.306 269.5,302.5C 270.945,300.937 272.611,299.604 274.5,298.5C 273.91,297.201 272.91,296.368 271.5,296C 272.516,295.481 273.182,294.647 273.5,293.5C 271.856,289.129 270.523,284.295 269.5,279C 270.376,277.414 271.376,275.914 272.5,274.5C 273.167,274.833 273.833,275.167 274.5,275.5C 277.962,274.324 278.628,272.658 276.5,270.5C 280.021,264.303 285.021,259.969 291.5,257.5C 293.047,261.072 294.38,260.739 295.5,256.5 Z"/></g>
<g><path style="opacity:1" fill="#341403" d="M 189.5,260.5 C 187.371,261.203 185.371,262.203 183.5,263.5C 182.833,263.5 182.167,263.5 181.5,263.5C 174.833,263.5 168.167,263.5 161.5,263.5C 161.5,262.833 161.833,262.5 162.5,262.5C 171.61,262.881 180.61,262.214 189.5,260.5 Z"/></g>
<g><path style="opacity:1" fill="#5e300e" d="M 329.5,269.5 C 327.505,274.313 326.505,274.313 326.5,269.5C 324.821,269.285 323.821,269.952 323.5,271.5C 317.951,271.56 312.284,271.727 306.5,272C 305.62,273.356 305.286,274.856 305.5,276.5C 307.367,276.045 309.2,275.378 311,274.5C 312.07,274.528 312.903,274.861 313.5,275.5C 309.249,276.751 306.249,279.418 304.5,283.5C 303.837,285.473 303.504,287.639 303.5,290C 303.357,293.535 304.024,296.868 305.5,300C 304.833,300.667 304.167,300.667 303.5,300C 297.644,294.342 296.977,288.008 301.5,281C 300.692,280.692 300.025,280.192 299.5,279.5C 300.592,276.906 302.259,274.739 304.5,273C 303.74,269.333 302.24,268.833 300,271.5C 298.337,269.842 297.504,267.842 297.5,265.5C 299.58,264.956 301.58,264.122 303.5,263C 302.167,262.667 300.833,262.333 299.5,262C 300.094,261.536 300.761,261.369 301.5,261.5C 307.581,260.006 313.747,259.006 320,258.5C 321.188,259.563 321.688,260.897 321.5,262.5C 322.873,262.343 324.207,262.51 325.5,263C 326.568,265.438 327.902,267.605 329.5,269.5 Z"/></g>
<g><path style="opacity:1" fill="#673c1e" d="M 329.5,255.5 C 332.258,258.678 334.258,262.345 335.5,266.5C 335.468,272.58 334.302,272.913 332,267.5C 331.283,268.044 330.783,268.711 330.5,269.5C 330.167,269.5 329.833,269.5 329.5,269.5C 327.902,267.605 326.568,265.438 325.5,263C 324.207,262.51 322.873,262.343 321.5,262.5C 321.688,260.897 321.188,259.563 320,258.5C 313.747,259.006 307.581,260.006 301.5,261.5C 301.953,260.542 302.619,259.708 303.5,259C 302.551,258.383 301.718,258.549 301,259.5C 300.005,258.934 299.172,258.267 298.5,257.5C 298.328,256.508 298.662,255.842 299.5,255.5C 309.025,255.309 319.025,255.309 329.5,255.5 Z"/></g>
<g><path style="opacity:1" fill="#5f3111" d="M 223.5,270.5 C 219.077,271.987 218.077,274.487 220.5,278C 222.869,278.536 224.869,279.703 226.5,281.5C 223.473,282.006 220.139,282.506 216.5,283C 215.944,283.383 215.611,283.883 215.5,284.5C 212.823,286.058 210.323,288.058 208,290.5C 207.392,288.846 206.892,287.179 206.5,285.5C 207.935,280.988 207.602,276.488 205.5,272C 200.243,270.574 195.743,271.741 192,275.5C 191.51,276.793 191.343,278.127 191.5,279.5C 190.55,283.413 188.217,286.08 184.5,287.5C 182.328,288.206 180.328,289.206 178.5,290.5C 179.164,287.985 180.497,285.819 182.5,284C 181.833,283.333 181.167,282.667 180.5,282C 181.711,281.107 181.711,280.274 180.5,279.5C 178.851,280.648 177.351,281.981 176,283.5C 175.319,279.324 175.819,275.324 177.5,271.5C 176.127,271.657 174.793,271.49 173.5,271C 172.359,270.259 172.359,269.425 173.5,268.5C 172.975,267.808 172.308,267.308 171.5,267C 174.909,266.004 178.242,265.171 181.5,264.5C 181.5,264.167 181.5,263.833 181.5,263.5C 182.167,263.5 182.833,263.5 183.5,263.5C 197.156,260.98 210.656,260.98 224,263.5C 224.333,262.167 224.667,260.833 225,259.5C 226.414,263.752 224.914,266.252 220.5,267C 222.557,267.305 224.557,267.305 226.5,267C 225.29,268.039 224.29,269.206 223.5,270.5 Z"/></g>
<g><path style="opacity:1" fill="#4a2716" d="M 161.5,263.5 C 168.167,263.5 174.833,263.5 181.5,263.5C 181.5,263.833 181.5,264.167 181.5,264.5C 176.489,264.334 171.489,264.501 166.5,265C 165.167,265.667 164.167,266.667 163.5,268C 165.508,270.139 165.508,272.472 163.5,275C 165.519,286.133 165.853,297.299 164.5,308.5C 164.217,309.216 163.884,310.049 163.5,311C 165.008,319.064 166.008,327.231 166.5,335.5C 164.291,328.81 163.124,321.81 163,314.5C 162.315,310.461 161.148,306.795 159.5,303.5C 157.984,296.92 156.984,290.254 156.5,283.5C 156.894,277.036 157.894,270.703 159.5,264.5C 160.167,264.167 160.833,263.833 161.5,263.5 Z"/></g>
<g><path style="opacity:1" fill="#492208" d="M 206.5,285.5 C 206.922,281.278 206.255,277.278 204.5,273.5C 202.485,275.648 200.818,277.981 199.5,280.5C 197.173,280.753 195.173,280.086 193.5,278.5C 192.817,278.863 192.15,279.196 191.5,279.5C 191.343,278.127 191.51,276.793 192,275.5C 195.743,271.741 200.243,270.574 205.5,272C 207.602,276.488 207.935,280.988 206.5,285.5 Z"/></g>
<g><path style="opacity:1" fill="#5d331c" d="M 335.5,266.5 C 337.588,268.336 338.921,270.669 339.5,273.5C 340.903,278.716 341.569,284.049 341.5,289.5C 341.718,293.722 341.051,297.722 339.5,301.5C 338.883,301.611 338.383,301.944 338,302.5C 338.799,298.127 338.299,293.961 336.5,290C 337.883,288.539 337.549,287.706 335.5,287.5C 335.808,285.076 335.474,282.743 334.5,280.5C 333.858,283.797 332.691,284.131 331,281.5C 330.064,278.208 330.564,275.208 332.5,272.5C 331.388,271.735 330.721,270.735 330.5,269.5C 330.783,268.711 331.283,268.044 332,267.5C 334.302,272.913 335.468,272.58 335.5,266.5 Z"/></g>
<g><path style="opacity:1" fill="#1e0201" d="M 313.5,275.5 C 316.109,276.443 318.109,278.11 319.5,280.5C 320.508,282.339 322.008,283.672 324,284.5C 324.168,289.172 323.834,293.839 323,298.5C 321.482,299.163 320.315,300.163 319.5,301.5C 316.833,302.833 314.167,302.833 311.5,301.5C 309.496,298.458 307.496,295.458 305.5,292.5C 304.701,289.57 304.368,286.57 304.5,283.5C 306.249,279.418 309.249,276.751 313.5,275.5 Z"/></g>
<g><path style="opacity:1" fill="#6d3b18" d="M 323.5,271.5 C 326.234,273.957 328.234,276.957 329.5,280.5C 328.546,285.559 327.38,290.559 326,295.5C 325.833,294.167 325.667,292.833 325.5,291.5C 325.778,288.679 326.278,286.012 327,283.5C 324.55,282.358 322.05,281.358 319.5,280.5C 318.109,278.11 316.109,276.443 313.5,275.5C 312.903,274.861 312.07,274.528 311,274.5C 309.2,275.378 307.367,276.045 305.5,276.5C 305.286,274.856 305.62,273.356 306.5,272C 312.284,271.727 317.951,271.56 323.5,271.5 Z"/></g>
<g><path style="opacity:1" fill="#623418" d="M 329.5,269.5 C 329.833,269.5 330.167,269.5 330.5,269.5C 330.721,270.735 331.388,271.735 332.5,272.5C 330.564,275.208 330.064,278.208 331,281.5C 332.691,284.131 333.858,283.797 334.5,280.5C 335.474,282.743 335.808,285.076 335.5,287.5C 333.43,287.583 333.097,288.583 334.5,290.5C 333.936,292.819 333.436,295.153 333,297.5C 331.865,297.727 330.698,298.06 329.5,298.5C 328.826,300.195 328.159,301.862 327.5,303.5C 323.636,304.156 319.803,305.156 316,306.5C 314.941,306.37 314.108,305.87 313.5,305C 316.152,304.647 318.152,303.48 319.5,301.5C 320.315,300.163 321.482,299.163 323,298.5C 323.834,293.839 324.168,289.172 324,284.5C 322.008,283.672 320.508,282.339 319.5,280.5C 322.05,281.358 324.55,282.358 327,283.5C 326.278,286.012 325.778,288.679 325.5,291.5C 325.667,292.833 325.833,294.167 326,295.5C 327.38,290.559 328.546,285.559 329.5,280.5C 328.234,276.957 326.234,273.957 323.5,271.5C 323.821,269.952 324.821,269.285 326.5,269.5C 326.505,274.313 327.505,274.313 329.5,269.5 Z"/></g>
<g><path style="opacity:1" fill="#290a01" d="M 223.5,289.5 C 220.887,290.435 218.221,290.602 215.5,290C 214.248,288.172 214.248,286.339 215.5,284.5C 218.177,283.386 220.844,283.386 223.5,284.5C 224.815,286.199 224.815,287.865 223.5,289.5 Z"/></g>
<g><path style="opacity:1" fill="#2b0a01" d="M 206.5,285.5 C 205.599,286.29 204.932,287.29 204.5,288.5C 202.59,289.975 201.424,291.975 201,294.5C 196.146,298.12 190.646,299.453 184.5,298.5C 184.5,295.833 184.5,293.167 184.5,290.5C 184.5,289.5 184.5,288.5 184.5,287.5C 188.217,286.08 190.55,283.413 191.5,279.5C 192.15,279.196 192.817,278.863 193.5,278.5C 195.173,280.086 197.173,280.753 199.5,280.5C 200.818,277.981 202.485,275.648 204.5,273.5C 206.255,277.278 206.922,281.278 206.5,285.5 Z"/></g>
<g><path style="opacity:1" fill="#220201" d="M 199.5,280.5 C 200.815,279.524 202.148,278.524 203.5,277.5C 204.652,280.106 204.818,282.773 204,285.5C 202.599,287.192 200.766,287.859 198.5,287.5C 199.101,295.07 195.768,298.237 188.5,297C 187.941,296.275 187.608,295.442 187.5,294.5C 190.051,292.043 191.551,289.043 192,285.5C 193.916,285.645 195.749,285.145 197.5,284C 198.823,283.184 199.489,282.017 199.5,280.5 Z"/></g>
<g><path style="opacity:1" fill="#5f361b" d="M 215.5,284.5 C 214.248,286.339 214.248,288.172 215.5,290C 218.221,290.602 220.887,290.435 223.5,289.5C 225.842,289.775 225.842,290.608 223.5,292C 219.532,292.942 215.532,293.775 211.5,294.5C 210.316,296.046 209.316,297.713 208.5,299.5C 204.671,301.792 200.671,303.959 196.5,306C 191.039,306.147 185.706,306.98 180.5,308.5C 179.145,306.479 177.479,304.812 175.5,303.5C 175.588,298.464 176.088,293.464 177,288.5C 177.159,290.343 177.659,291.009 178.5,290.5C 180.328,289.206 182.328,288.206 184.5,287.5C 184.5,288.5 184.5,289.5 184.5,290.5C 181.86,293.553 181.86,296.72 184.5,300C 191.95,302.053 198.116,300.22 203,294.5C 203.505,292.482 204.005,290.482 204.5,288.5C 204.932,287.29 205.599,286.29 206.5,285.5C 206.892,287.179 207.392,288.846 208,290.5C 210.323,288.058 212.823,286.058 215.5,284.5 Z"/></g>
<g><path style="opacity:1" fill="#381406" d="M 305.5,292.5 C 307.496,295.458 309.496,298.458 311.5,301.5C 307.796,299.789 305.796,296.789 305.5,292.5 Z"/></g>
<g><path style="opacity:1" fill="#401d0c" d="M 204.5,288.5 C 204.005,290.482 203.505,292.482 203,294.5C 198.116,300.22 191.95,302.053 184.5,300C 181.86,296.72 181.86,293.553 184.5,290.5C 184.5,293.167 184.5,295.833 184.5,298.5C 190.646,299.453 196.146,298.12 201,294.5C 201.424,291.975 202.59,289.975 204.5,288.5 Z"/></g>
<g><path style="opacity:1" fill="#0e0602" d="M 191.5,227.5 C 190.329,228.345 188.995,229.011 187.5,229.5C 183.819,229.174 181.152,230.674 179.5,234C 180.447,238.184 181.281,242.351 182,246.5C 180.055,247.863 177.888,248.697 175.5,249C 176.5,249.333 177.5,249.667 178.5,250C 176.833,250.333 175.167,250.667 173.5,251C 173.833,251.333 174.167,251.667 174.5,252C 167.556,253.809 162.556,257.976 159.5,264.5C 157.894,270.703 156.894,277.036 156.5,283.5C 156.984,290.254 157.984,296.92 159.5,303.5C 158.72,312.901 160.053,321.901 163.5,330.5C 164.286,337.174 165.12,343.841 166,350.5C 166.383,351.056 166.883,351.389 167.5,351.5C 169.478,361.948 170.811,372.615 171.5,383.5C 170.5,383.5 169.5,383.5 168.5,383.5C 167.628,372.84 165.961,362.34 163.5,352C 164.591,349.936 164.758,347.769 164,345.5C 158.878,324.167 154.211,302.833 150,281.5C 149.333,279.167 149.333,276.833 150,274.5C 150.317,272.699 150.984,272.366 152,273.5C 152.208,269.082 152.874,264.749 154,260.5C 155.757,259.881 156.924,258.714 157.5,257C 156.314,254.186 157.147,253.353 160,254.5C 161.509,249.991 164.176,246.324 168,243.5C 172.133,232.855 179.967,227.522 191.5,227.5 Z"/></g>
<g><path style="opacity:1" fill="#592e15" d="M 223.5,270.5 C 223.987,271.473 224.487,272.473 225,273.5C 226.85,271.038 228.017,271.538 228.5,275C 230.778,275.986 233.111,276.82 235.5,277.5C 235.833,278.333 236.167,279.167 236.5,280C 234.856,285.15 232.523,289.984 229.5,294.5C 226.173,296.722 222.506,297.888 218.5,298C 216.649,299.684 214.982,301.517 213.5,303.5C 208.843,301.355 204.843,302.522 201.5,307C 202.194,312.247 202.194,318.08 201.5,324.5C 200.914,324.709 200.414,325.043 200,325.5C 198.373,318.574 196.873,318.241 195.5,324.5C 198.172,328.555 196.839,330.555 191.5,330.5C 191.649,331.552 191.483,332.552 191,333.5C 187.592,331.777 185.259,332.777 184,336.5C 183.502,333.518 183.335,330.518 183.5,327.5C 181.876,327.64 180.71,326.973 180,325.5C 179.34,322.953 179.507,320.453 180.5,318C 179.887,314.55 177.887,312.716 174.5,312.5C 174.656,309.934 174.322,307.434 173.5,305C 173.836,303.97 174.503,303.47 175.5,303.5C 177.479,304.812 179.145,306.479 180.5,308.5C 185.706,306.98 191.039,306.147 196.5,306C 200.671,303.959 204.671,301.792 208.5,299.5C 209.316,297.713 210.316,296.046 211.5,294.5C 215.532,293.775 219.532,292.942 223.5,292C 225.842,290.608 225.842,289.775 223.5,289.5C 224.815,287.865 224.815,286.199 223.5,284.5C 220.844,283.386 218.177,283.386 215.5,284.5C 215.611,283.883 215.944,283.383 216.5,283C 220.139,282.506 223.473,282.006 226.5,281.5C 224.869,279.703 222.869,278.536 220.5,278C 218.077,274.487 219.077,271.987 223.5,270.5 Z"/></g>
<g><path style="opacity:1" fill="#542d1a" d="M 170.5,350.5 C 169.324,345.464 167.991,340.464 166.5,335.5C 166.008,327.231 165.008,319.064 163.5,311C 163.884,310.049 164.217,309.216 164.5,308.5C 165.6,310.277 166.434,312.277 167,314.5C 168.74,311.091 169.74,307.424 170,303.5C 170.667,308.833 171.333,308.833 172,303.5C 173.491,312.796 174.658,322.13 175.5,331.5C 175.333,335.5 175.167,339.5 175,343.5C 174.333,342.833 173.667,342.167 173,341.5C 172.972,334.244 172.805,326.911 172.5,319.5C 171.167,319.5 169.833,319.5 168.5,319.5C 167.739,328.314 168.739,336.981 171.5,345.5C 170.691,347.071 170.357,348.738 170.5,350.5 Z"/></g>
<g><path style="opacity:1" fill="#261004" d="M 342.5,287.5 C 343.427,304.668 343.427,322.001 342.5,339.5C 342.167,339.5 341.833,339.5 341.5,339.5C 341.928,322.169 342.262,304.836 342.5,287.5 Z"/></g>
<g><path style="opacity:1" fill="#1b0c03" d="M 159.5,303.5 C 161.148,306.795 162.315,310.461 163,314.5C 163.124,321.81 164.291,328.81 166.5,335.5C 166.833,340.833 167.167,346.167 167.5,351.5C 166.883,351.389 166.383,351.056 166,350.5C 165.12,343.841 164.286,337.174 163.5,330.5C 160.053,321.901 158.72,312.901 159.5,303.5 Z"/></g>
<g><path style="opacity:1" fill="#562a12" d="M 335.5,287.5 C 337.549,287.706 337.883,288.539 336.5,290C 338.299,293.961 338.799,298.127 338,302.5C 338.383,301.944 338.883,301.611 339.5,301.5C 340.434,302.568 340.768,303.901 340.5,305.5C 339.429,312.673 338.429,320.007 337.5,327.5C 337.524,330.421 337.857,333.254 338.5,336C 337.261,340.665 336.428,340.498 336,335.5C 335.667,340.833 335.333,346.167 335,351.5C 334.085,352.328 333.419,353.328 333,354.5C 331.523,359.688 330.523,365.021 330,370.5C 329.83,368.285 329.163,366.285 328,364.5C 328.014,370.974 327.847,377.307 327.5,383.5C 324.728,384.371 322.062,384.371 319.5,383.5C 319.5,386.167 319.5,388.833 319.5,391.5C 314.833,391.5 310.167,391.5 305.5,391.5C 304.956,389.42 304.122,387.42 303,385.5C 300.985,387.478 301.152,389.312 303.5,391C 302.177,391.816 301.511,392.983 301.5,394.5C 299.105,391.048 299.105,387.548 301.5,384C 298.658,383.652 296.991,382.152 296.5,379.5C 295.928,377.745 295.094,376.078 294,374.5C 293.242,372.231 293.409,370.064 294.5,368C 292.996,366.509 292.163,364.676 292,362.5C 290.829,361.107 289.329,360.273 287.5,360C 288.967,358.902 289.801,357.402 290,355.5C 292.804,354.431 295.471,353.098 298,351.5C 300.888,351.977 303.721,352.644 306.5,353.5C 308.637,352.132 310.97,351.132 313.5,350.5C 313.488,346.298 315.322,343.298 319,341.5C 322.211,344.234 324.711,347.568 326.5,351.5C 326.955,346.334 327.289,341 327.5,335.5C 328.833,335.5 330.167,335.5 331.5,335.5C 331.154,330.784 330.487,326.117 329.5,321.5C 327.833,321.5 326.167,321.5 324.5,321.5C 325.893,319.716 326.393,317.716 326,315.5C 323.516,313.598 321.016,311.765 318.5,310C 321.94,308.386 324.94,306.22 327.5,303.5C 328.159,301.862 328.826,300.195 329.5,298.5C 330.698,298.06 331.865,297.727 333,297.5C 333.436,295.153 333.936,292.819 334.5,290.5C 333.097,288.583 333.43,287.583 335.5,287.5 Z"/></g>
<g><path style="opacity:1" fill="#608192" d="M 158.5,159.5 C 146.885,170.064 136.052,181.397 126,193.5C 117.655,204.192 111.988,216.192 109,229.5C 109.126,248.278 107.792,266.945 105,285.5C 100.197,298.911 95.1965,312.244 90,325.5C 85.9626,337.021 83.4626,348.854 82.5,361C 83.4414,367.928 84.7747,374.762 86.5,381.5C 88.5778,391.309 89.9111,401.309 90.5,411.5C 91.086,411.709 91.586,412.043 92,412.5C 92.8112,419.414 92.6445,426.248 91.5,433C 94.5821,438.53 96.5821,444.363 97.5,450.5C 98.5,450.5 99.5,450.5 100.5,450.5C 104.636,455.481 108.636,460.648 112.5,466C 115.339,467.92 118.339,469.587 121.5,471C 134.5,471.333 147.5,471.667 160.5,472C 167.505,473.853 170.671,478.353 170,485.5C 166.429,494.306 162.596,502.972 158.5,511.5C 118.833,511.5 79.1667,511.5 39.5,511.5C 50.0076,510.833 60.6742,510.167 71.5,509.5C 63.5207,508.668 55.5207,508.168 47.5,508C 46.8333,507.667 46.1667,507.333 45.5,507C 46.9733,506.29 47.6399,505.124 47.5,503.5C 44.306,503.176 43.306,504.342 44.5,507C 43.9747,507.692 43.3081,508.192 42.5,508.5C 39.972,507.483 39.972,506.316 42.5,505C 40.7718,502.616 40.4385,500.116 41.5,497.5C 42.6667,499.167 43.8333,500.833 45,502.5C 45.5,501.5 46,500.5 46.5,499.5C 44.913,497.554 45.2464,496.054 47.5,495C 46.2532,493.542 46.2532,492.042 47.5,490.5C 46.3112,489.571 44.9778,489.238 43.5,489.5C 43.5,490.833 43.5,492.167 43.5,493.5C 42.325,493.719 41.325,493.386 40.5,492.5C 42.0244,490.208 41.6911,488.208 39.5,486.5C 36.8333,485.833 34.1667,485.167 31.5,484.5C 30.9397,481.004 28.9397,479.337 25.5,479.5C 25.4802,477.857 26.1468,476.524 27.5,475.5C 26.8333,474.5 26.1667,473.5 25.5,472.5C 27.2869,470.524 29.4536,469.191 32,468.5C 32.2492,469.624 32.7492,470.624 33.5,471.5C 33.8333,470.833 34.1667,470.167 34.5,469.5C 32.4003,466.435 31.567,463.102 32,459.5C 32.5831,461.002 33.4164,462.335 34.5,463.5C 35.48,460.914 35.8134,458.247 35.5,455.5C 34.1266,455.657 32.7932,455.49 31.5,455C 41.6835,454.733 42.0168,453.067 32.5,450C 33.8333,449.333 35.1667,448.667 36.5,448C 34.8409,445.07 34.5076,442.07 35.5,439C 33.5794,437.759 33.246,436.259 34.5,434.5C 35.3857,435.325 35.719,436.325 35.5,437.5C 36.5,437.5 37.5,437.5 38.5,437.5C 38.6715,435.508 38.0049,433.842 36.5,432.5C 38.2562,430.809 38.7562,428.809 38,426.5C 36.8869,425.289 35.7202,425.289 34.5,426.5C 33.5,425.167 32.5,423.833 31.5,422.5C 37.2943,420.629 38.9609,417.129 36.5,412C 37.5,410.333 38.5,408.667 39.5,407C 38.7282,405.779 37.7282,404.779 36.5,404C 38.4386,403.092 39.4386,401.592 39.5,399.5C 40.675,399.719 41.675,399.386 42.5,398.5C 40.9466,397.561 39.6133,396.394 38.5,395C 38.7355,394.127 39.0688,393.293 39.5,392.5C 37.0375,390.286 36.8708,387.952 39,385.5C 39.8864,389.072 41.053,388.905 42.5,385C 42.6131,381.929 42.2798,378.762 41.5,375.5C 43.2195,375.254 45.2195,375.254 47.5,375.5C 47.5,372.833 47.5,370.167 47.5,367.5C 52.8333,367.5 58.1667,367.5 63.5,367.5C 62.8189,356.269 63.6522,345.269 66,334.5C 67.8254,333.897 69.6587,333.23 71.5,332.5C 70.5,331.667 69.5,330.833 68.5,330C 72.5103,327.831 75.5103,324.664 77.5,320.5C 74.9135,319.52 72.2469,319.187 69.5,319.5C 69.5,314.167 69.5,308.833 69.5,303.5C 67.712,303.785 66.0453,303.452 64.5,302.5C 64.6667,302.167 64.8333,301.833 65,301.5C 69.6667,296.833 74.3333,292.167 79,287.5C 79.4974,290.146 79.6641,292.813 79.5,295.5C 83.8082,294.735 86.6416,296.402 88,300.5C 88.8624,298.913 89.5291,297.246 90,295.5C 90.0748,290.393 91.2415,285.559 93.5,281C 93.1723,278.975 93.0056,276.809 93,274.5C 92.0754,273.953 91.2421,273.287 90.5,272.5C 86.2044,271.672 81.8711,271.172 77.5,271C 78.3041,269.229 79.4708,267.729 81,266.5C 80.8392,262.166 82.0058,258.333 84.5,255C 82.9252,253.88 81.9252,252.38 81.5,250.5C 82.5314,248.618 83.3647,246.618 84,244.5C 85.7506,243.826 87.4173,243.493 89,243.5C 89.2256,240.905 89.7256,238.405 90.5,236C 92.1341,235.506 93.8008,235.34 95.5,235.5C 95.6663,228.492 95.4996,221.492 95,214.5C 92.1838,214.214 89.6838,212.88 87.5,210.5C 89.9218,206.513 91.9218,206.846 93.5,211.5C 93.8333,211.333 94.1667,211.167 94.5,211C 96.2323,207.543 95.5657,204.709 92.5,202.5C 91.1156,205.133 89.7822,205.133 88.5,202.5C 92.1016,200.622 94.9349,197.955 97,194.5C 97.0715,189.601 98.0715,184.934 100,180.5C 102.707,179.563 105.207,178.23 107.5,176.5C 108.833,175.167 108.833,173.833 107.5,172.5C 109.457,170.445 110.957,168.112 112,165.5C 112.71,166.973 113.876,167.64 115.5,167.5C 115.336,164.813 115.503,162.146 116,159.5C 117,160.833 118,162.167 119,163.5C 119.856,161.132 120.69,158.798 121.5,156.5C 122.5,156.5 123.5,156.5 124.5,156.5C 124.579,155.07 124.246,153.736 123.5,152.5C 123.833,152.167 124.167,151.833 124.5,151.5C 125.996,155.335 126.996,155.335 127.5,151.5C 134.497,151.315 137.33,147.649 136,140.5C 138.432,143.688 141.099,146.688 144,149.5C 145.017,147.624 145.851,145.624 146.5,143.5C 150.057,142.108 153.223,140.108 156,137.5C 157.28,137.613 158.113,138.28 158.5,139.5C 157.391,141.385 156.557,143.385 156,145.5C 154.315,147.017 152.815,148.684 151.5,150.5C 152.073,152.16 152.073,153.994 151.5,156C 151.309,157.973 151.976,159.473 153.5,160.5C 155.071,159.691 156.738,159.357 158.5,159.5 Z"/></g>
<g><path style="opacity:1" fill="#552a13" d="M 324.5,321.5 C 326.167,321.5 327.833,321.5 329.5,321.5C 330.487,326.117 331.154,330.784 331.5,335.5C 330.167,335.5 328.833,335.5 327.5,335.5C 327.289,341 326.955,346.334 326.5,351.5C 324.711,347.568 322.211,344.234 319,341.5C 315.322,343.298 313.488,346.298 313.5,350.5C 310.97,351.132 308.637,352.132 306.5,353.5C 303.721,352.644 300.888,351.977 298,351.5C 295.471,353.098 292.804,354.431 290,355.5C 289.801,357.402 288.967,358.902 287.5,360C 289.329,360.273 290.829,361.107 292,362.5C 292.163,364.676 292.996,366.509 294.5,368C 293.409,370.064 293.242,372.231 294,374.5C 295.094,376.078 295.928,377.745 296.5,379.5C 294.037,377.539 291.703,375.372 289.5,373C 287.866,372.506 286.199,372.34 284.5,372.5C 281.583,370.643 278.583,368.976 275.5,367.5C 275.423,366.25 274.756,365.417 273.5,365C 270.087,364.028 266.753,363.862 263.5,364.5C 258.953,363.066 254.286,362.066 249.5,361.5C 246.156,362.167 243.489,363.834 241.5,366.5C 241.709,367.086 242.043,367.586 242.5,368C 238.56,369.476 234.56,370.643 230.5,371.5C 228.604,370.519 226.604,369.519 224.5,368.5C 223.167,365.833 223.167,363.167 224.5,360.5C 228.454,359.407 232.12,357.74 235.5,355.5C 236.871,357.546 238.538,359.379 240.5,361C 246.236,361.181 251.903,360.515 257.5,359C 256.833,358.667 256.167,358.333 255.5,358C 257.955,357.606 259.955,356.44 261.5,354.5C 260.23,353.712 259.23,352.712 258.5,351.5C 263.844,351.666 269.177,351.499 274.5,351C 277.608,349.06 278.275,346.394 276.5,343C 273.5,342.333 270.5,342.333 267.5,343C 263.493,345.497 259.493,347.664 255.5,349.5C 252.866,347.46 252.866,345.293 255.5,343C 253.551,341.165 251.217,339.999 248.5,339.5C 246.794,337.295 245.294,334.962 244,332.5C 243.667,333.167 243.333,333.833 243,334.5C 244.19,330.38 244.69,325.38 244.5,319.5C 246.5,319.5 248.5,319.5 250.5,319.5C 250.351,320.552 250.517,321.552 251,322.5C 252.713,323.878 254.047,325.545 255,327.5C 255.308,326.692 255.808,326.025 256.5,325.5C 259.627,326.125 262.627,327.125 265.5,328.5C 265.736,327.753 266.07,326.92 266.5,326C 268.134,325.506 269.801,325.34 271.5,325.5C 271.297,323.362 270.297,321.695 268.5,320.5C 272.445,319.509 276.445,319.176 280.5,319.5C 280.67,320.822 280.337,321.989 279.5,323C 282.146,323.497 284.813,323.664 287.5,323.5C 287.5,322.167 287.5,320.833 287.5,319.5C 290.167,319.5 292.833,319.5 295.5,319.5C 295.318,321.591 295.652,323.591 296.5,325.5C 299.138,326.65 301.638,327.984 304,329.5C 308.869,327.298 312.369,323.798 314.5,319C 312.97,317.88 311.303,317.046 309.5,316.5C 308.708,314.743 307.375,313.409 305.5,312.5C 306.167,312.167 306.833,311.833 307.5,311.5C 310.861,313.485 314.528,314.652 318.5,315C 319.444,317.719 319.777,320.552 319.5,323.5C 321.553,323.598 323.22,322.931 324.5,321.5 Z"/></g>
<g><path style="opacity:1" fill="#618495" d="M 511.5,343.5 C 511.5,399.5 511.5,455.5 511.5,511.5C 454.833,511.5 398.167,511.5 341.5,511.5C 340.089,509.461 338.089,508.461 335.5,508.5C 335.5,505.167 335.5,501.833 335.5,498.5C 343.996,496.823 346.663,492.156 343.5,484.5C 343.613,482.359 344.28,480.525 345.5,479C 344.833,478.667 344.167,478.333 343.5,478C 334.566,478.066 325.899,477.899 317.5,477.5C 309.475,478.28 301.475,479.28 293.5,480.5C 292.412,482.965 290.579,484.631 288,485.5C 287.667,484.5 287.333,483.5 287,482.5C 286.667,482.833 286.333,483.167 286,483.5C 285.667,487.833 285.333,492.167 285,496.5C 283.833,497.667 282.667,498.833 281.5,500C 282.443,503.569 283.443,507.069 284.5,510.5C 279.607,504.402 275.441,497.736 272,490.5C 269.771,481.455 272.938,475.289 281.5,472C 292.146,471.02 302.813,470.52 313.5,470.5C 319.509,470.334 325.509,470.501 331.5,471C 325.833,471.333 320.167,471.667 314.5,472C 316.167,472.333 317.833,472.667 319.5,473C 314.136,473.171 308.802,473.671 303.5,474.5C 306,474.833 308.5,475.167 311,475.5C 324.448,476.691 337.948,476.691 351.5,475.5C 351.5,476.833 351.5,478.167 351.5,479.5C 362.167,479.5 372.833,479.5 383.5,479.5C 383.5,478.5 383.5,477.5 383.5,476.5C 380.333,476.4 377.333,477.067 374.5,478.5C 373.5,478 372.5,477.5 371.5,477C 373.933,474.867 376.767,473.7 380,473.5C 386.389,475.194 392.889,475.861 399.5,475.5C 399.338,473.473 399.505,471.473 400,469.5C 404.864,471.191 407.697,474.524 408.5,479.5C 413.167,479.5 417.833,479.5 422.5,479.5C 423.303,474.524 426.136,471.191 431,469.5C 431.499,464.845 431.666,460.179 431.5,455.5C 436.833,455.5 442.167,455.5 447.5,455.5C 447.336,458.187 447.503,460.854 448,463.5C 450.755,458.272 452.255,458.272 452.5,463.5C 453.833,464.833 455.167,464.833 456.5,463.5C 457.5,464.167 458.5,464.833 459.5,465.5C 460.7,464.469 462.034,463.635 463.5,463C 459.722,461.36 459.722,460.193 463.5,459.5C 463.5,458.167 463.5,456.833 463.5,455.5C 461.048,455.624 459.048,456.624 457.5,458.5C 456.833,458.167 456.167,457.833 455.5,457.5C 456.641,456.575 456.641,455.741 455.5,455C 457.875,452.824 460.208,450.657 462.5,448.5C 466.445,447.509 470.445,447.176 474.5,447.5C 475.167,451.5 475.833,451.5 476.5,447.5C 477.5,447.5 478.5,447.5 479.5,447.5C 479.334,442.489 479.501,437.489 480,432.5C 480.561,431.978 481.228,431.645 482,431.5C 483.168,432.509 484.335,433.509 485.5,434.5C 485.833,433.667 486.167,432.833 486.5,432C 486.682,429.696 486.016,429.196 484.5,430.5C 484.167,426 483.833,421.5 483.5,417C 483.557,411.987 484.223,407.153 485.5,402.5C 483.389,400.019 483.389,397.353 485.5,394.5C 483.688,391.101 483.021,387.434 483.5,383.5C 482.167,383.5 480.833,383.5 479.5,383.5C 479.5,378.167 479.5,372.833 479.5,367.5C 480.833,367.5 482.167,367.5 483.5,367.5C 483.5,362.167 483.5,356.833 483.5,351.5C 484.833,351.5 486.167,351.5 487.5,351.5C 487.334,361.506 487.5,371.506 488,381.5C 488.374,382.416 488.874,383.25 489.5,384C 488.196,384.804 487.529,385.971 487.5,387.5C 488.542,391.295 489.876,395.295 491.5,399.5C 494.167,399.5 496.833,399.5 499.5,399.5C 498.795,394.109 498.795,388.776 499.5,383.5C 500.978,383.762 502.311,383.429 503.5,382.5C 501.679,380.525 500.679,378.191 500.5,375.5C 502.044,371.966 503.044,368.3 503.5,364.5C 502.955,354.859 502.955,345.192 503.5,335.5C 505.167,335.5 506.833,335.5 508.5,335.5C 508.351,334.448 508.517,333.448 509,332.5C 509.918,336.28 510.751,339.946 511.5,343.5 Z"/></g>
<g><path style="opacity:1" fill="#562d15" d="M 340.5,305.5 C 340.577,321.85 340.077,338.184 339,354.5C 338.529,358.805 337.362,362.139 335.5,364.5C 336.167,366.5 336.833,368.5 337.5,370.5C 337.443,375.642 337.443,380.809 337.5,386C 336.169,388.628 335.336,391.462 335,394.5C 333.851,397.136 332.017,399.136 329.5,400.5C 331.379,403.247 330.879,405.914 328,408.5C 327.421,404.614 326.588,404.614 325.5,408.5C 327.335,409.428 327.668,410.594 326.5,412C 327.973,412.71 328.64,413.876 328.5,415.5C 324.981,416.013 322.647,418.013 321.5,421.5C 316.462,423.352 311.796,425.685 307.5,428.5C 297.544,431.328 287.711,433.995 278,436.5C 274.659,435.914 271.826,434.414 269.5,432C 273.833,431 278.167,430 282.5,429C 283.82,426.785 283.153,425.285 280.5,424.5C 278.991,426.915 277.324,427.081 275.5,425C 275.833,424.667 276.167,424.333 276.5,424C 274.833,423.667 273.167,423.333 271.5,423C 276.823,422.501 282.156,422.334 287.5,422.5C 288.371,419.728 288.371,417.062 287.5,414.5C 284.99,414.946 282.99,414.28 281.5,412.5C 283.215,410.449 285.215,408.782 287.5,407.5C 289.308,407.509 290.975,407.009 292.5,406C 296.193,403.627 299.859,401.294 303.5,399C 301.893,397.951 301.227,396.451 301.5,394.5C 301.511,392.983 302.177,391.816 303.5,391C 301.152,389.312 300.985,387.478 303,385.5C 304.122,387.42 304.956,389.42 305.5,391.5C 310.167,391.5 314.833,391.5 319.5,391.5C 319.5,388.833 319.5,386.167 319.5,383.5C 322.062,384.371 324.728,384.371 327.5,383.5C 327.847,377.307 328.014,370.974 328,364.5C 329.163,366.285 329.83,368.285 330,370.5C 330.523,365.021 331.523,359.688 333,354.5C 333.419,353.328 334.085,352.328 335,351.5C 335.333,346.167 335.667,340.833 336,335.5C 336.428,340.498 337.261,340.665 338.5,336C 337.857,333.254 337.524,330.421 337.5,327.5C 338.429,320.007 339.429,312.673 340.5,305.5 Z"/></g>
<g><path style="opacity:1" fill="#4d2a19" d="M 339.5,273.5 C 340.167,274.5 340.833,275.5 341.5,276.5C 342.244,280.119 342.577,283.785 342.5,287.5C 342.262,304.836 341.928,322.169 341.5,339.5C 341.336,359.616 340.003,379.616 337.5,399.5C 335.211,404.073 332.878,408.907 330.5,414C 330.164,415.03 329.497,415.53 328.5,415.5C 328.64,413.876 327.973,412.71 326.5,412C 327.668,410.594 327.335,409.428 325.5,408.5C 326.588,404.614 327.421,404.614 328,408.5C 330.879,405.914 331.379,403.247 329.5,400.5C 332.017,399.136 333.851,397.136 335,394.5C 335.336,391.462 336.169,388.628 337.5,386C 337.443,380.809 337.443,375.642 337.5,370.5C 336.833,368.5 336.167,366.5 335.5,364.5C 337.362,362.139 338.529,358.805 339,354.5C 340.077,338.184 340.577,321.85 340.5,305.5C 340.768,303.901 340.434,302.568 339.5,301.5C 341.051,297.722 341.718,293.722 341.5,289.5C 341.569,284.049 340.903,278.716 339.5,273.5 Z"/></g>
<g><path style="opacity:1" fill="#542a15" d="M 228.5,373.5 C 229.492,373.328 230.158,373.662 230.5,374.5C 229.833,374.5 229.5,374.833 229.5,375.5C 227.901,375.232 226.568,375.566 225.5,376.5C 224.235,378.357 224.568,380.024 226.5,381.5C 226.5,381.833 226.5,382.167 226.5,382.5C 225.85,382.196 225.183,381.863 224.5,381.5C 223.341,385.122 223.175,388.789 224,392.5C 224.333,392.167 224.667,391.833 225,391.5C 225.504,395.02 227.337,397.52 230.5,399C 230.167,399.333 229.833,399.667 229.5,400C 230.833,401.333 232.167,402.667 233.5,404C 237.47,406.312 241.137,408.978 244.5,412C 248.042,412.851 251.375,412.351 254.5,410.5C 262.715,412.284 271.048,412.951 279.5,412.5C 280.167,412.5 280.833,412.5 281.5,412.5C 282.99,414.28 284.99,414.946 287.5,414.5C 288.371,417.062 288.371,419.728 287.5,422.5C 282.156,422.334 276.823,422.501 271.5,423C 273.167,423.333 274.833,423.667 276.5,424C 276.167,424.333 275.833,424.667 275.5,425C 277.324,427.081 278.991,426.915 280.5,424.5C 283.153,425.285 283.82,426.785 282.5,429C 278.167,430 273.833,431 269.5,432C 271.826,434.414 274.659,435.914 278,436.5C 287.711,433.995 297.544,431.328 307.5,428.5C 308.774,429.189 308.774,430.023 307.5,431C 302.148,433.339 297.148,436.172 292.5,439.5C 291.448,437.744 289.781,437.077 287.5,437.5C 287.5,438.5 287.5,439.5 287.5,440.5C 283.989,441.058 280.489,441.724 277,442.5C 274.384,441.553 271.884,441.219 269.5,441.5C 267.374,441.73 265.707,442.73 264.5,444.5C 261.404,442.869 258.57,440.869 256,438.5C 255.517,439.448 255.351,440.448 255.5,441.5C 252.813,441.664 250.146,441.497 247.5,441C 246.167,440 246.167,439 247.5,438C 246.584,437.626 245.75,437.126 245,436.5C 241.02,436.962 237.02,437.295 233,437.5C 231.829,435.384 230.329,434.718 228.5,435.5C 227.571,434.311 227.238,432.978 227.5,431.5C 225.508,431.328 223.842,431.995 222.5,433.5C 220.382,432.054 218.049,431.387 215.5,431.5C 214.833,431.5 214.167,431.5 213.5,431.5C 212.699,429.958 212.366,428.292 212.5,426.5C 210.833,426.5 209.167,426.5 207.5,426.5C 207.5,423.833 207.5,421.167 207.5,418.5C 205.146,418.162 202.813,417.662 200.5,417C 200.586,411.368 197.752,407.535 192,405.5C 189.811,400.378 186.645,396.045 182.5,392.5C 182.833,391.833 183.167,391.167 183.5,390.5C 182.5,389.167 181.5,387.833 180.5,386.5C 181.118,384.169 180.284,382.169 178,380.5C 177.581,381.672 176.915,382.672 176,383.5C 175.141,380.052 174.641,376.552 174.5,373C 175.165,367.518 175.498,362.018 175.5,356.5C 175.336,353.813 175.503,351.146 176,348.5C 178.74,351.383 180.74,354.716 182,358.5C 183.183,359.731 184.349,359.731 185.5,358.5C 188.666,354.654 190.666,350.321 191.5,345.5C 195.323,343.929 199.323,342.929 203.5,342.5C 203.664,345.187 203.497,347.854 203,350.5C 201.989,349.663 200.822,349.33 199.5,349.5C 197.791,354.623 195.624,359.623 193,364.5C 190.701,366.869 188.201,369.036 185.5,371C 186.369,373.368 188.035,374.868 190.5,375.5C 191.429,376.689 191.762,378.022 191.5,379.5C 196.833,379.5 202.167,379.5 207.5,379.5C 207.5,376.833 207.5,374.167 207.5,371.5C 210.647,371.077 213.814,370.744 217,370.5C 220.848,371.59 224.681,372.59 228.5,373.5 Z"/></g>
<g><path style="opacity:1" fill="#290c02" d="M 258.5,351.5 C 256.973,351.573 255.973,350.906 255.5,349.5C 259.493,347.664 263.493,345.497 267.5,343C 270.5,342.333 273.5,342.333 276.5,343C 278.275,346.394 277.608,349.06 274.5,351C 269.177,351.499 263.844,351.666 258.5,351.5 Z"/></g>
<g><path style="opacity:1" fill="#452517" d="M 166.5,335.5 C 167.991,340.464 169.324,345.464 170.5,350.5C 170.5,351.167 170.833,351.5 171.5,351.5C 171.856,364.343 173.356,377.01 176,389.5C 178,390.167 179.333,391.5 180,393.5C 180.32,396.54 180.32,399.54 180,402.5C 182.21,405.714 185.21,407.714 189,408.5C 190.903,410.441 191.736,412.774 191.5,415.5C 189.211,413.552 186.878,411.552 184.5,409.5C 180.755,406.084 177.755,402.084 175.5,397.5C 174.325,392.658 172.991,387.991 171.5,383.5C 170.811,372.615 169.478,361.948 167.5,351.5C 167.167,346.167 166.833,340.833 166.5,335.5 Z"/></g>
<g><path style="opacity:1" fill="#5b2715" d="M 263.5,364.5 C 264.167,365.5 264.833,366.5 265.5,367.5C 252.828,365.693 241.162,368.026 230.5,374.5C 230.158,373.662 229.492,373.328 228.5,373.5C 228.5,372.167 229.167,371.5 230.5,371.5C 234.56,370.643 238.56,369.476 242.5,368C 242.043,367.586 241.709,367.086 241.5,366.5C 243.489,363.834 246.156,362.167 249.5,361.5C 254.286,362.066 258.953,363.066 263.5,364.5 Z"/></g>
<g><path style="opacity:1" fill="#411407" d="M 275.5,367.5 C 272.167,367.5 268.833,367.5 265.5,367.5C 264.833,366.5 264.167,365.5 263.5,364.5C 266.753,363.862 270.087,364.028 273.5,365C 274.756,365.417 275.423,366.25 275.5,367.5 Z"/></g>
<g><path style="opacity:1" fill="#1a0801" d="M 341.5,339.5 C 341.833,339.5 342.167,339.5 342.5,339.5C 342.704,351.849 342.37,364.183 341.5,376.5C 341.408,384.53 340.074,392.196 337.5,399.5C 340.003,379.616 341.336,359.616 341.5,339.5 Z"/></g>
<g><path style="opacity:1" fill="#630e11" d="M 265.5,367.5 C 268.833,367.5 272.167,367.5 275.5,367.5C 278.583,368.976 281.583,370.643 284.5,372.5C 286.536,375.136 289.202,376.969 292.5,378C 293.639,379.78 294.639,381.614 295.5,383.5C 292.056,381.401 288.389,379.734 284.5,378.5C 284.162,381.157 284.829,383.49 286.5,385.5C 286.167,385.833 285.833,386.167 285.5,386.5C 284.712,385.23 283.712,384.23 282.5,383.5C 282.607,378.031 279.94,374.031 274.5,371.5C 273.325,372.855 272.325,372.688 271.5,371C 264.167,370.333 256.833,370.333 249.5,371C 248.619,371.708 247.953,372.542 247.5,373.5C 241.609,374.956 235.609,375.623 229.5,375.5C 229.5,374.833 229.833,374.5 230.5,374.5C 241.162,368.026 252.828,365.693 265.5,367.5 Z"/></g>
<g><path style="opacity:1" fill="#5a0111" d="M 282.5,383.5 C 281.833,383.5 281.167,383.5 280.5,383.5C 279.732,382.737 279.232,381.737 279,380.5C 278.329,379.748 277.496,379.414 276.5,379.5C 276.047,378.542 275.381,377.708 274.5,377C 269.619,376.215 264.953,374.882 260.5,373C 256.141,372.466 251.808,372.632 247.5,373.5C 247.953,372.542 248.619,371.708 249.5,371C 256.833,370.333 264.167,370.333 271.5,371C 272.325,372.688 273.325,372.855 274.5,371.5C 279.94,374.031 282.607,378.031 282.5,383.5 Z"/></g>
<g><path style="opacity:1" fill="#490411" d="M 276.5,379.5 C 273.888,378.629 271.221,377.963 268.5,377.5C 266.735,376.539 264.735,376.205 262.5,376.5C 251.483,375.724 240.483,375.724 229.5,376.5C 228.167,376.5 226.833,376.5 225.5,376.5C 226.568,375.566 227.901,375.232 229.5,375.5C 235.609,375.623 241.609,374.956 247.5,373.5C 251.808,372.632 256.141,372.466 260.5,373C 264.953,374.882 269.619,376.215 274.5,377C 275.381,377.708 276.047,378.542 276.5,379.5 Z"/></g>
<g><path style="opacity:1" fill="#260603" d="M 225.5,376.5 C 226.833,376.5 228.167,376.5 229.5,376.5C 232.484,380.189 231.484,381.856 226.5,381.5C 224.568,380.024 224.235,378.357 225.5,376.5 Z"/></g>
<g><path style="opacity:1" fill="#3a020e" d="M 262.5,376.5 C 257.448,376.45 252.448,376.95 247.5,378C 246.244,378.417 245.577,379.25 245.5,380.5C 241.445,380.176 237.445,380.509 233.5,381.5C 232.757,382.182 232.091,382.849 231.5,383.5C 230.167,383.5 228.833,383.5 227.5,383.5C 227.5,382.833 227.167,382.5 226.5,382.5C 226.5,382.167 226.5,381.833 226.5,381.5C 231.484,381.856 232.484,380.189 229.5,376.5C 240.483,375.724 251.483,375.724 262.5,376.5 Z"/></g>
<g><path style="opacity:1" fill="#695a5f" d="M 268.5,377.5 C 271.221,377.963 273.888,378.629 276.5,379.5C 278.424,381.09 278.757,382.924 277.5,385C 273.181,385.076 268.848,384.909 264.5,384.5C 262.109,381.809 259.109,379.809 255.5,378.5C 259.783,377.508 264.116,377.174 268.5,377.5 Z"/></g>
<g><path style="opacity:1" fill="#502917" d="M 175.5,356.5 C 175.498,362.018 175.165,367.518 174.5,373C 174.641,376.552 175.141,380.052 176,383.5C 176.915,382.672 177.581,381.672 178,380.5C 180.284,382.169 181.118,384.169 180.5,386.5C 181.5,387.833 182.5,389.167 183.5,390.5C 183.167,391.167 182.833,391.833 182.5,392.5C 186.645,396.045 189.811,400.378 192,405.5C 197.752,407.535 200.586,411.368 200.5,417C 202.813,417.662 205.146,418.162 207.5,418.5C 207.5,421.167 207.5,423.833 207.5,426.5C 209.167,426.5 210.833,426.5 212.5,426.5C 212.366,428.292 212.699,429.958 213.5,431.5C 207.517,427.86 201.517,424.194 195.5,420.5C 194.136,418.809 192.803,417.142 191.5,415.5C 191.736,412.774 190.903,410.441 189,408.5C 185.21,407.714 182.21,405.714 180,402.5C 180.32,399.54 180.32,396.54 180,393.5C 179.333,391.5 178,390.167 176,389.5C 173.356,377.01 171.856,364.343 171.5,351.5C 172.931,351.119 173.764,350.119 174,348.5C 174.183,351.365 174.683,354.031 175.5,356.5 Z"/></g>
<g><path style="opacity:1" fill="#4b0415" d="M 245.5,380.5 C 249.214,380.59 252.548,381.59 255.5,383.5C 247.5,383.5 239.5,383.5 231.5,383.5C 232.091,382.849 232.757,382.182 233.5,381.5C 237.445,380.509 241.445,380.176 245.5,380.5 Z"/></g>
<g><path style="opacity:1" fill="#68494e" d="M 262.5,376.5 C 264.735,376.205 266.735,376.539 268.5,377.5C 264.116,377.174 259.783,377.508 255.5,378.5C 259.109,379.809 262.109,381.809 264.5,384.5C 263.167,384.5 261.833,384.5 260.5,384.5C 258.958,383.699 257.292,383.366 255.5,383.5C 252.548,381.59 249.214,380.59 245.5,380.5C 245.577,379.25 246.244,378.417 247.5,378C 252.448,376.95 257.448,376.45 262.5,376.5 Z"/></g>
<g><path style="opacity:1" fill="#662c1d" d="M 284.5,372.5 C 286.199,372.34 287.866,372.506 289.5,373C 291.703,375.372 294.037,377.539 296.5,379.5C 296.991,382.152 298.658,383.652 301.5,384C 299.105,387.548 299.105,391.048 301.5,394.5C 301.227,396.451 301.893,397.951 303.5,399C 299.859,401.294 296.193,403.627 292.5,406C 290.975,407.009 289.308,407.509 287.5,407.5C 291.108,403.39 294.942,399.39 299,395.5C 299.652,392.291 298.818,389.625 296.5,387.5C 296.167,386.167 295.833,384.833 295.5,383.5C 294.639,381.614 293.639,379.78 292.5,378C 289.202,376.969 286.536,375.136 284.5,372.5 Z"/></g>
<g><path style="opacity:1" fill="#793e49" d="M 276.5,379.5 C 277.496,379.414 278.329,379.748 279,380.5C 279.232,381.737 279.732,382.737 280.5,383.5C 280.586,384.496 280.252,385.329 279.5,386C 272.944,386.66 266.61,386.16 260.5,384.5C 261.833,384.5 263.167,384.5 264.5,384.5C 268.848,384.909 273.181,385.076 277.5,385C 278.757,382.924 278.424,381.09 276.5,379.5 Z"/></g>
<g><path style="opacity:1" fill="#60291b" d="M 226.5,382.5 C 227.167,382.5 227.5,382.833 227.5,383.5C 227.5,383.833 227.5,384.167 227.5,384.5C 229.144,396.487 235.811,403.82 247.5,406.5C 255.133,409.258 263.133,410.591 271.5,410.5C 274.167,411.167 276.833,411.833 279.5,412.5C 271.048,412.951 262.715,412.284 254.5,410.5C 251.375,412.351 248.042,412.851 244.5,412C 241.137,408.978 237.47,406.312 233.5,404C 232.167,402.667 230.833,401.333 229.5,400C 229.833,399.667 230.167,399.333 230.5,399C 227.337,397.52 225.504,395.02 225,391.5C 224.667,391.833 224.333,392.167 224,392.5C 223.175,388.789 223.341,385.122 224.5,381.5C 225.183,381.863 225.85,382.196 226.5,382.5 Z"/></g>
<g><path style="opacity:1" fill="#732523" d="M 227.5,384.5 C 229.539,385.672 230.872,387.338 231.5,389.5C 232.904,393.009 234.571,396.342 236.5,399.5C 240.447,401.457 244.113,403.791 247.5,406.5C 235.811,403.82 229.144,396.487 227.5,384.5 Z"/></g>
<g><path style="opacity:1" fill="#6e021c" d="M 295.5,383.5 C 295.833,384.833 296.167,386.167 296.5,387.5C 295.176,386.15 294.176,386.317 293.5,388C 294.628,389.468 295.294,391.135 295.5,393C 293.819,394.989 292.486,397.156 291.5,399.5C 289.5,399.5 287.5,399.5 285.5,399.5C 283.425,397.281 281.091,395.281 278.5,393.5C 277.925,390.644 276.259,388.977 273.5,388.5C 269.765,390.596 265.931,390.929 262,389.5C 260.667,390.167 259.667,391.167 259,392.5C 253.679,389.875 248.845,390.542 244.5,394.5C 243.221,393.032 241.554,392.365 239.5,392.5C 239.762,391.022 239.429,389.689 238.5,388.5C 235.375,385.821 233.041,386.154 231.5,389.5C 230.872,387.338 229.539,385.672 227.5,384.5C 227.5,384.167 227.5,383.833 227.5,383.5C 228.833,383.5 230.167,383.5 231.5,383.5C 239.5,383.5 247.5,383.5 255.5,383.5C 257.292,383.366 258.958,383.699 260.5,384.5C 266.61,386.16 272.944,386.66 279.5,386C 280.252,385.329 280.586,384.496 280.5,383.5C 281.167,383.5 281.833,383.5 282.5,383.5C 283.712,384.23 284.712,385.23 285.5,386.5C 285.833,386.167 286.167,385.833 286.5,385.5C 284.829,383.49 284.162,381.157 284.5,378.5C 288.389,379.734 292.056,381.401 295.5,383.5 Z"/></g>
<g><path style="opacity:1" fill="#82001f" d="M 285.5,399.5 C 283.019,399.677 281.186,398.677 280,396.5C 271.925,396.404 263.758,396.738 255.5,397.5C 259.218,397.887 262.218,399.553 264.5,402.5C 263.738,402.911 262.738,403.077 261.5,403C 263.141,405.163 265.141,406.663 267.5,407.5C 267.167,407.5 266.833,407.5 266.5,407.5C 258.453,406.978 250.786,405.145 243.5,402C 244.818,401.306 245.651,400.473 246,399.5C 246.945,399.905 247.612,400.572 248,401.5C 250.57,401.461 253.07,401.461 255.5,401.5C 252.887,398.622 249.22,396.288 244.5,394.5C 248.845,390.542 253.679,389.875 259,392.5C 259.667,391.167 260.667,390.167 262,389.5C 265.931,390.929 269.765,390.596 273.5,388.5C 276.259,388.977 277.925,390.644 278.5,393.5C 281.091,395.281 283.425,397.281 285.5,399.5 Z"/></g>
<g><path style="opacity:1" fill="#770318" d="M 244.5,394.5 C 249.22,396.288 252.887,398.622 255.5,401.5C 253.07,401.461 250.57,401.461 248,401.5C 247.612,400.572 246.945,399.905 246,399.5C 245.651,400.473 244.818,401.306 243.5,402C 250.786,405.145 258.453,406.978 266.5,407.5C 266.611,408.117 266.944,408.617 267.5,409C 270.817,409.498 274.15,409.665 277.5,409.5C 275.735,410.461 273.735,410.795 271.5,410.5C 263.133,410.591 255.133,409.258 247.5,406.5C 244.113,403.791 240.447,401.457 236.5,399.5C 234.571,396.342 232.904,393.009 231.5,389.5C 233.041,386.154 235.375,385.821 238.5,388.5C 239.429,389.689 239.762,391.022 239.5,392.5C 241.554,392.365 243.221,393.032 244.5,394.5 Z"/></g>
<g><path style="opacity:1" fill="#8b001d" d="M 285.5,399.5 C 285.577,400.75 286.244,401.583 287.5,402C 281.633,406.303 274.967,408.136 267.5,407.5C 265.141,406.663 263.141,405.163 261.5,403C 262.738,403.077 263.738,402.911 264.5,402.5C 262.218,399.553 259.218,397.887 255.5,397.5C 263.758,396.738 271.925,396.404 280,396.5C 281.186,398.677 283.019,399.677 285.5,399.5 Z"/></g>
<g><path style="opacity:1" fill="#7d0815" d="M 296.5,387.5 C 298.818,389.625 299.652,392.291 299,395.5C 294.942,399.39 291.108,403.39 287.5,407.5C 283.968,407.31 280.635,407.977 277.5,409.5C 274.15,409.665 270.817,409.498 267.5,409C 266.944,408.617 266.611,408.117 266.5,407.5C 266.833,407.5 267.167,407.5 267.5,407.5C 274.967,408.136 281.633,406.303 287.5,402C 286.244,401.583 285.577,400.75 285.5,399.5C 287.5,399.5 289.5,399.5 291.5,399.5C 292.486,397.156 293.819,394.989 295.5,393C 295.294,391.135 294.628,389.468 293.5,388C 294.176,386.317 295.176,386.15 296.5,387.5 Z"/></g>
<g><path style="opacity:1" fill="#732620" d="M 287.5,407.5 C 285.215,408.782 283.215,410.449 281.5,412.5C 280.833,412.5 280.167,412.5 279.5,412.5C 276.833,411.833 274.167,411.167 271.5,410.5C 273.735,410.795 275.735,410.461 277.5,409.5C 280.635,407.977 283.968,407.31 287.5,407.5 Z"/></g>
<g><path style="opacity:1" fill="#150903" d="M 184.5,409.5 C 186.878,411.552 189.211,413.552 191.5,415.5C 192.803,417.142 194.136,418.809 195.5,420.5C 195.414,421.496 195.748,422.329 196.5,423C 194.98,425.596 194.147,428.429 194,431.5C 192.859,458.155 192.359,484.821 192.5,511.5C 192.167,511.5 191.833,511.5 191.5,511.5C 191.667,482.831 191.5,454.165 191,425.5C 189.938,419.834 187.771,414.501 184.5,409.5 Z"/></g>
<g><path style="opacity:1" fill="#597381" d="M 86.5,381.5 C 88.9221,389.965 91.0888,398.632 93,407.5C 93.4722,417.555 94.4722,427.555 96,437.5C 97.0107,442.033 98.5107,446.367 100.5,450.5C 99.5,450.5 98.5,450.5 97.5,450.5C 96.5821,444.363 94.5821,438.53 91.5,433C 92.6445,426.248 92.8112,419.414 92,412.5C 91.586,412.043 91.086,411.709 90.5,411.5C 89.9111,401.309 88.5778,391.309 86.5,381.5 Z"/></g>
<g><path style="opacity:1" fill="#271509" d="M 195.5,420.5 C 201.517,424.194 207.517,427.86 213.5,431.5C 214.167,431.5 214.833,431.5 215.5,431.5C 217.578,434.051 220.244,435.884 223.5,437C 234.613,440.767 245.28,444.933 255.5,449.5C 254.365,450.474 253.365,451.641 252.5,453C 253.973,472.419 254.973,491.919 255.5,511.5C 254.5,511.5 253.5,511.5 252.5,511.5C 253.315,506.796 253.648,502.129 253.5,497.5C 251.33,486.005 250.664,474.505 251.5,463C 249.996,459.656 247.996,456.656 245.5,454C 243.527,453.505 241.527,453.338 239.5,453.5C 239.67,452.178 239.337,451.011 238.5,450C 232.989,448.053 227.323,446.72 221.5,446C 222.167,445.667 222.833,445.333 223.5,445C 220.043,443.257 216.377,442.257 212.5,442C 210.651,438.442 207.651,436.442 203.5,436C 201.622,434.457 200.122,432.624 199,430.5C 197.245,431.67 196.245,433.337 196,435.5C 195.334,444.828 194.834,454.161 194.5,463.5C 193.505,475.322 193.172,487.322 193.5,499.5C 193.5,503.5 193.5,507.5 193.5,511.5C 193.167,511.5 192.833,511.5 192.5,511.5C 192.359,484.821 192.859,458.155 194,431.5C 194.147,428.429 194.98,425.596 196.5,423C 195.748,422.329 195.414,421.496 195.5,420.5 Z"/></g>
<g><path style="opacity:1" fill="#442212" d="M 328.5,415.5 C 327.68,417.812 326.847,420.146 326,422.5C 323.585,423.411 322.085,425.078 321.5,427.5C 318.705,428.063 316.372,429.396 314.5,431.5C 308.274,434.613 301.941,437.78 295.5,441C 292.207,441.826 288.874,442.326 285.5,442.5C 287.812,441.659 290.145,440.659 292.5,439.5C 297.148,436.172 302.148,433.339 307.5,431C 308.774,430.023 308.774,429.189 307.5,428.5C 311.796,425.685 316.462,423.352 321.5,421.5C 322.647,418.013 324.981,416.013 328.5,415.5 Z"/></g>
<g><path style="opacity:1" fill="#34180a" d="M 250.5,511.5 C 247.5,511.5 244.5,511.5 241.5,511.5C 244.211,510.806 247.044,509.473 250,507.5C 250.965,504.637 250.298,502.304 248,500.5C 243.478,502.321 240.311,500.988 238.5,496.5C 237.264,495.754 235.93,495.421 234.5,495.5C 234.719,494.325 234.386,493.325 233.5,492.5C 230.397,490.688 227.064,489.688 223.5,489.5C 223.5,491.5 223.5,493.5 223.5,495.5C 219.579,494.943 216.245,493.11 213.5,490C 211.564,489.187 209.564,488.687 207.5,488.5C 207.66,490.199 207.494,491.866 207,493.5C 205.814,487.915 205.148,482.249 205,476.5C 204.577,475.044 203.744,474.544 202.5,475C 201.693,480.083 201.193,485.25 201,490.5C 200.333,489.167 199.667,489.167 199,490.5C 198.667,488.833 198.333,487.167 198,485.5C 197.333,484.167 196.667,484.167 196,485.5C 195.971,490.458 195.138,495.124 193.5,499.5C 193.172,487.322 193.505,475.322 194.5,463.5C 195.732,454.632 196.899,445.632 198,436.5C 198.333,436.167 198.667,435.833 199,435.5C 201.016,437.684 203.183,439.684 205.5,441.5C 204.627,443.413 203.627,445.247 202.5,447C 204.134,447.494 205.801,447.66 207.5,447.5C 207.252,453.044 207.919,458.377 209.5,463.5C 212.079,463.083 214.246,463.75 216,465.5C 217.067,463.717 218.567,463.217 220.5,464C 225.833,466.667 231.167,469.333 236.5,472C 239.153,475.39 238.486,478.057 234.5,480C 237.027,483.106 238.86,482.939 240,479.5C 240.574,482.319 241.907,484.652 244,486.5C 245.338,485.494 246.671,484.494 248,483.5C 249.889,489.951 251.389,496.451 252.5,503C 252.902,505.905 252.235,508.739 250.5,511.5 Z"/></g>
<g><path style="opacity:1" fill="#512919" d="M 215.5,431.5 C 218.049,431.387 220.382,432.054 222.5,433.5C 223.842,431.995 225.508,431.328 227.5,431.5C 227.238,432.978 227.571,434.311 228.5,435.5C 230.329,434.718 231.829,435.384 233,437.5C 237.02,437.295 241.02,436.962 245,436.5C 245.75,437.126 246.584,437.626 247.5,438C 246.167,439 246.167,440 247.5,441C 250.146,441.497 252.813,441.664 255.5,441.5C 255.351,440.448 255.517,439.448 256,438.5C 258.57,440.869 261.404,442.869 264.5,444.5C 265.707,442.73 267.374,441.73 269.5,441.5C 271.884,441.219 274.384,441.553 277,442.5C 280.489,441.724 283.989,441.058 287.5,440.5C 287.5,439.5 287.5,438.5 287.5,437.5C 289.781,437.077 291.448,437.744 292.5,439.5C 290.145,440.659 287.812,441.659 285.5,442.5C 281.583,443.637 277.583,444.47 273.5,445C 272.027,445.71 271.36,446.876 271.5,448.5C 266.36,449.488 261.026,449.821 255.5,449.5C 245.28,444.933 234.613,440.767 223.5,437C 220.244,435.884 217.578,434.051 215.5,431.5 Z"/></g>
<g><path style="opacity:1" fill="#3a1e14" d="M 314.5,431.5 C 313.71,432.794 312.71,433.961 311.5,435C 301.513,440.993 290.847,445.326 279.5,448C 276.854,448.497 274.187,448.664 271.5,448.5C 271.36,446.876 272.027,445.71 273.5,445C 277.583,444.47 281.583,443.637 285.5,442.5C 288.874,442.326 292.207,441.826 295.5,441C 301.941,437.78 308.274,434.613 314.5,431.5 Z"/></g>
<g><path style="opacity:1" fill="#2f170a" d="M 252.5,511.5 C 251.833,511.5 251.167,511.5 250.5,511.5C 252.235,508.739 252.902,505.905 252.5,503C 251.389,496.451 249.889,489.951 248,483.5C 246.671,484.494 245.338,485.494 244,486.5C 241.907,484.652 240.574,482.319 240,479.5C 238.86,482.939 237.027,483.106 234.5,480C 238.486,478.057 239.153,475.39 236.5,472C 231.167,469.333 225.833,466.667 220.5,464C 218.567,463.217 217.067,463.717 216,465.5C 214.246,463.75 212.079,463.083 209.5,463.5C 207.919,458.377 207.252,453.044 207.5,447.5C 205.801,447.66 204.134,447.494 202.5,447C 203.627,445.247 204.627,443.413 205.5,441.5C 203.183,439.684 201.016,437.684 199,435.5C 198.667,435.833 198.333,436.167 198,436.5C 196.899,445.632 195.732,454.632 194.5,463.5C 194.834,454.161 195.334,444.828 196,435.5C 196.245,433.337 197.245,431.67 199,430.5C 200.122,432.624 201.622,434.457 203.5,436C 207.651,436.442 210.651,438.442 212.5,442C 216.377,442.257 220.043,443.257 223.5,445C 222.833,445.333 222.167,445.667 221.5,446C 227.323,446.72 232.989,448.053 238.5,450C 239.337,451.011 239.67,452.178 239.5,453.5C 241.527,453.338 243.527,453.505 245.5,454C 247.996,456.656 249.996,459.656 251.5,463C 250.664,474.505 251.33,486.005 253.5,497.5C 253.648,502.129 253.315,506.796 252.5,511.5 Z"/></g>
<g><path style="opacity:1" fill="#120704" d="M 321.5,427.5 C 321.489,429.017 320.823,430.184 319.5,431C 315.198,434.685 310.531,438.018 305.5,441C 300.833,443 296.167,445 291.5,447C 282.366,449.589 273.033,451.089 263.5,451.5C 261.665,453.161 259.665,454.661 257.5,456C 260.066,457.626 259.899,459.126 257,460.5C 256.833,463.667 256.667,466.833 256.5,470C 257.302,483.822 257.635,497.656 257.5,511.5C 256.833,511.5 256.167,511.5 255.5,511.5C 254.973,491.919 253.973,472.419 252.5,453C 253.365,451.641 254.365,450.474 255.5,449.5C 261.026,449.821 266.36,449.488 271.5,448.5C 274.187,448.664 276.854,448.497 279.5,448C 290.847,445.326 301.513,440.993 311.5,435C 312.71,433.961 313.71,432.794 314.5,431.5C 316.372,429.396 318.705,428.063 321.5,427.5 Z"/></g>
<g><path style="opacity:1" fill="#628497" d="M 341.5,511.5 C 322.5,511.5 303.5,511.5 284.5,511.5C 284.5,511.167 284.5,510.833 284.5,510.5C 283.443,507.069 282.443,503.569 281.5,500C 282.667,498.833 283.833,497.667 285,496.5C 285.333,492.167 285.667,487.833 286,483.5C 286.333,483.167 286.667,482.833 287,482.5C 287.333,483.5 287.667,484.5 288,485.5C 290.579,484.631 292.412,482.965 293.5,480.5C 301.475,479.28 309.475,478.28 317.5,477.5C 325.899,477.899 334.566,478.066 343.5,478C 344.167,478.333 344.833,478.667 345.5,479C 344.28,480.525 343.613,482.359 343.5,484.5C 346.663,492.156 343.996,496.823 335.5,498.5C 335.5,501.833 335.5,505.167 335.5,508.5C 338.089,508.461 340.089,509.461 341.5,511.5 Z"/></g>
<g><path style="opacity:1" fill="#3b1b0e" d="M 241.5,511.5 C 225.5,511.5 209.5,511.5 193.5,511.5C 193.5,507.5 193.5,503.5 193.5,499.5C 195.138,495.124 195.971,490.458 196,485.5C 196.667,484.167 197.333,484.167 198,485.5C 198.333,487.167 198.667,488.833 199,490.5C 199.667,489.167 200.333,489.167 201,490.5C 201.193,485.25 201.693,480.083 202.5,475C 203.744,474.544 204.577,475.044 205,476.5C 205.148,482.249 205.814,487.915 207,493.5C 207.494,491.866 207.66,490.199 207.5,488.5C 209.564,488.687 211.564,489.187 213.5,490C 216.245,493.11 219.579,494.943 223.5,495.5C 223.5,493.5 223.5,491.5 223.5,489.5C 227.064,489.688 230.397,490.688 233.5,492.5C 234.386,493.325 234.719,494.325 234.5,495.5C 235.93,495.421 237.264,495.754 238.5,496.5C 240.311,500.988 243.478,502.321 248,500.5C 250.298,502.304 250.965,504.637 250,507.5C 247.044,509.473 244.211,510.806 241.5,511.5 Z"/></g>
</svg>
