<?xml version="1.0" encoding="UTF-8"?>
<!DOCTYPE svg PUBLIC "-//W3C//DTD SVG 1.1//EN" "http://www.w3.org/Graphics/SVG/1.1/DTD/svg11.dtd">
<svg xmlns="http://www.w3.org/2000/svg" version="1.1" width="512px" height="512px" style="shape-rendering:geometricPrecision; text-rendering:geometricPrecision; image-rendering:optimizeQuality; fill-rule:evenodd; clip-rule:evenodd" xmlns:xlink="http://www.w3.org/1999/xlink">
<g><path style="opacity:1" fill="#638496" d="M -0.5,-0.5 C 170.167,-0.5 340.833,-0.5 511.5,-0.5C 511.5,170.167 511.5,340.833 511.5,511.5C 433.833,511.5 356.167,511.5 278.5,511.5C 277.978,503.914 278.978,496.58 281.5,489.5C 283.713,480.283 285.88,470.949 288,461.5C 288.667,462.833 289.333,462.833 290,461.5C 291.312,459.045 292.478,456.545 293.5,454C 296.595,453.286 299.595,452.286 302.5,451C 303.337,449.989 303.67,448.822 303.5,447.5C 304.873,447.657 306.207,447.49 307.5,447C 311.709,443.063 316.709,441.063 322.5,441C 329.017,438.215 335.684,435.715 342.5,433.5C 345.566,431.437 347.899,428.77 349.5,425.5C 351.394,424.952 353.06,423.952 354.5,422.5C 359.303,415.636 361.803,407.969 362,399.5C 361.736,353.037 362.236,306.703 363.5,260.5C 363.629,258.784 363.962,257.117 364.5,255.5C 365.232,254.192 366.066,252.858 367,251.5C 367.499,255.821 367.666,260.154 367.5,264.5C 371.358,264.86 373.358,267.027 373.5,271C 371.744,271.202 370.078,271.702 368.5,272.5C 370.792,274.657 373.125,276.824 375.5,279C 374.712,282.076 374.212,285.242 374,288.5C 372.019,290.359 371.019,292.692 371,295.5C 370,296.167 369,296.833 368,297.5C 367.5,304.826 367.334,312.159 367.5,319.5C 370.797,319.329 371.131,319.995 368.5,321.5C 367.501,336.819 367.167,352.152 367.5,367.5C 375.167,367.5 382.833,367.5 390.5,367.5C 391.303,362.524 394.136,359.191 399,357.5C 399.498,354.183 399.665,350.85 399.5,347.5C 405.303,346.913 410.803,347.58 416,349.5C 417.744,348.351 417.911,347.017 416.5,345.5C 419.805,344.028 422.305,341.695 424,338.5C 424.393,336.801 423.893,335.301 422.5,334C 422.862,332.775 423.362,331.609 424,330.5C 427.417,327.539 431.25,325.206 435.5,323.5C 437.373,319.374 439.706,315.541 442.5,312C 445.246,310.25 448.246,309.25 451.5,309C 453.155,307.556 453.822,305.722 453.5,303.5C 451.5,303.5 449.5,303.5 447.5,303.5C 447.5,296.833 447.5,290.167 447.5,283.5C 442.167,283.5 436.833,283.5 431.5,283.5C 431.5,280.833 431.5,278.167 431.5,275.5C 426.167,275.5 420.833,275.5 415.5,275.5C 415.5,274.167 415.5,272.833 415.5,271.5C 420.544,271.827 425.544,271.494 430.5,270.5C 425.667,265.5 420.833,260.5 416,255.5C 415.333,248.167 415.333,240.833 416,233.5C 417.255,232.789 418.421,231.956 419.5,231C 417.487,229.226 415.487,229.393 413.5,231.5C 412.833,231.167 412.167,230.833 411.5,230.5C 413.507,229.092 415.507,227.592 417.5,226C 416.551,225.383 415.718,225.549 415,226.5C 414.751,225.376 414.251,224.376 413.5,223.5C 412.335,224.491 411.168,225.491 410,226.5C 409.055,226.095 408.388,225.428 408,224.5C 406.913,226.932 406.413,226.598 406.5,223.5C 405.5,223.5 404.5,223.5 403.5,223.5C 403.5,218.167 403.5,212.833 403.5,207.5C 402.167,207.5 400.833,207.5 399.5,207.5C 399.5,204.833 399.5,202.167 399.5,199.5C 395.5,199.5 391.5,199.5 387.5,199.5C 387.719,198.325 387.386,197.325 386.5,196.5C 383.681,202.163 380.181,202.163 376,196.5C 374.991,194.975 374.491,193.308 374.5,191.5C 371.5,191.5 368.5,191.5 365.5,191.5C 365.629,193.216 365.962,194.883 366.5,196.5C 366.662,198.527 366.495,200.527 366,202.5C 364.461,201.454 364.295,200.121 365.5,198.5C 363.308,195.224 361.642,191.224 360.5,186.5C 359.069,186.023 357.736,185.357 356.5,184.5C 355.079,181.221 352.912,178.554 350,176.5C 349.64,174.392 348.973,172.392 348,170.5C 344.87,168.372 342.037,165.872 339.5,163C 331.037,161.621 323.87,157.788 318,151.5C 312.025,148.924 305.858,147.09 299.5,146C 300.793,145.51 302.127,145.343 303.5,145.5C 303.5,142.167 303.5,138.833 303.5,135.5C 305.833,135.5 308.167,135.5 310.5,135.5C 310.39,127.475 310.724,119.475 311.5,111.5C 308.833,111.5 306.167,111.5 303.5,111.5C 303.5,108.833 303.5,106.167 303.5,103.5C 298.167,103.5 292.833,103.5 287.5,103.5C 287.5,104.833 287.5,106.167 287.5,107.5C 282.167,107.5 276.833,107.5 271.5,107.5C 271.5,103.5 271.5,99.5 271.5,95.5C 266.167,95.5 260.833,95.5 255.5,95.5C 255.386,101.764 254.386,101.764 252.5,95.5C 251.167,95.5 249.833,95.5 248.5,95.5C 248.276,99.5616 246.276,102.395 242.5,104C 243.905,105.269 245.571,105.769 247.5,105.5C 247.357,107.262 247.691,108.929 248.5,110.5C 245.572,111.484 242.572,111.817 239.5,111.5C 239.5,110.167 239.5,108.833 239.5,107.5C 234.167,107.5 228.833,107.5 223.5,107.5C 223.5,106.167 223.5,104.833 223.5,103.5C 219.367,104.898 215.034,105.731 210.5,106C 209.531,107.758 208.364,108.258 207,107.5C 206.51,108.793 206.343,110.127 206.5,111.5C 205.5,111.5 204.5,111.5 203.5,111.5C 203.5,110.167 203.5,108.833 203.5,107.5C 200.991,108.675 198.491,108.675 196,107.5C 194.289,107.439 192.956,108.106 192,109.5C 191.501,115.491 191.334,121.491 191.5,127.5C 188.833,127.5 186.167,127.5 183.5,127.5C 183.682,125.409 183.348,123.409 182.5,121.5C 179.862,120.35 177.362,119.016 175,117.5C 170.136,119.191 167.303,122.524 166.5,127.5C 164.167,127.5 161.833,127.5 159.5,127.5C 159.662,129.527 159.495,131.527 159,133.5C 154.136,135.191 151.303,138.524 150.5,143.5C 148.167,143.5 145.833,143.5 143.5,143.5C 143.5,146.167 143.5,148.833 143.5,151.5C 140.305,150.961 137.805,151.961 136,154.5C 135.501,159.823 135.334,165.156 135.5,170.5C 135.265,177.615 135.932,184.615 137.5,191.5C 139.981,191.677 141.814,190.677 143,188.5C 144.726,190.591 145.893,192.924 146.5,195.5C 145.5,195.5 144.5,195.5 143.5,195.5C 143.585,201.045 144.585,206.378 146.5,211.5C 145.5,211.5 144.5,211.5 143.5,211.5C 145.201,214.683 146.201,220.683 146.5,229.5C 145.5,229.5 144.5,229.5 143.5,229.5C 143.869,235.513 144.036,241.513 144,247.5C 142.178,249.825 140.011,250.158 137.5,248.5C 135.5,249 133.5,249.5 131.5,250C 134.167,251 136.833,252 139.5,253C 134.57,252.955 129.903,253.955 125.5,256C 123.996,257.491 123.163,259.324 123,261.5C 123.903,277.478 124.903,293.478 126,309.5C 126.833,311.5 127.667,313.5 128.5,315.5C 129.527,316.791 130.527,316.791 131.5,315.5C 133.756,316.923 136.256,317.59 139,317.5C 141.857,317.032 144.691,316.866 147.5,317C 148.282,319.672 149.282,322.172 150.5,324.5C 151.241,344.666 153.407,364.666 157,384.5C 157.725,387.79 158.892,390.79 160.5,393.5C 161.441,395.772 162.774,397.772 164.5,399.5C 162.943,402.163 163.61,404.163 166.5,405.5C 167.923,407.843 168.923,410.343 169.5,413C 166.834,434.659 166.834,456.326 169.5,478C 169.364,485.136 169.031,492.302 168.5,499.5C 168.893,503.592 169.56,507.592 170.5,511.5C 113.5,511.5 56.5,511.5 -0.5,511.5C -0.5,340.833 -0.5,170.167 -0.5,-0.5 Z"/></g>
<g><path style="opacity:1" fill="#648294" d="M 366.5,196.5 C 367.659,207.659 367.826,218.992 367,230.5C 364.3,238.808 363.467,247.141 364.5,255.5C 363.962,257.117 363.629,258.784 363.5,260.5C 362.835,257.183 362.501,253.683 362.5,250C 363.146,237.832 363.813,225.666 364.5,213.5C 364.464,208.12 363.964,202.786 363,197.5C 358.901,190.302 354.068,183.636 348.5,177.5C 347.893,177.624 347.56,177.957 347.5,178.5C 346.833,178.5 346.5,178.167 346.5,177.5C 334.096,164.133 319.096,155.133 301.5,150.5C 301.389,149.883 301.056,149.383 300.5,149C 294.446,148.064 288.446,146.898 282.5,145.5C 278.868,146.246 275.202,146.579 271.5,146.5C 271.5,145.5 271.5,144.5 271.5,143.5C 282.869,144.742 286.535,140.075 282.5,129.5C 278.468,126.981 274.135,125.315 269.5,124.5C 268.508,124.672 267.842,124.338 267.5,123.5C 268.873,123.657 270.207,123.49 271.5,123C 269.618,122.802 267.952,122.302 266.5,121.5C 255.978,119.714 245.311,117.881 234.5,116C 234.043,115.586 233.709,115.086 233.5,114.5C 234.5,113.833 235.5,113.167 236.5,112.5C 232.217,111.508 227.884,111.174 223.5,111.5C 223.5,112.5 223.5,113.5 223.5,114.5C 221.088,114.756 219.421,113.756 218.5,111.5C 215.816,114.039 213.149,114.039 210.5,111.5C 209.738,112.628 209.071,113.795 208.5,115C 211.318,117.115 211.151,118.948 208,120.5C 207.27,125.028 208.437,129.028 211.5,132.5C 210.635,132.564 209.635,132.897 208.5,133.5C 207.534,135.396 207.201,137.396 207.5,139.5C 202.933,141.3 198.266,142.8 193.5,144C 192.648,146.229 191.481,148.729 190,151.5C 189.013,147.233 188.179,146.9 187.5,150.5C 185.857,150.48 184.524,151.147 183.5,152.5C 182.994,155.5 181.494,157.833 179,159.5C 177.85,158.576 176.85,158.576 176,159.5C 175.667,158.833 175.333,158.167 175,157.5C 170.313,160.675 165.146,162.675 159.5,163.5C 159.5,160.833 159.5,158.167 159.5,155.5C 164.833,155.5 170.167,155.5 175.5,155.5C 175.5,152.833 175.5,150.167 175.5,147.5C 170.167,147.5 164.833,147.5 159.5,147.5C 159.5,148.833 159.5,150.167 159.5,151.5C 153.5,150.833 150.833,153.5 151.5,159.5C 148.833,159.5 146.167,159.5 143.5,159.5C 143.662,161.527 143.495,163.527 143,165.5C 140.213,166.805 137.713,168.472 135.5,170.5C 135.334,165.156 135.501,159.823 136,154.5C 137.805,151.961 140.305,150.961 143.5,151.5C 143.5,148.833 143.5,146.167 143.5,143.5C 145.833,143.5 148.167,143.5 150.5,143.5C 151.303,138.524 154.136,135.191 159,133.5C 159.495,131.527 159.662,129.527 159.5,127.5C 161.833,127.5 164.167,127.5 166.5,127.5C 167.303,122.524 170.136,119.191 175,117.5C 177.362,119.016 179.862,120.35 182.5,121.5C 183.348,123.409 183.682,125.409 183.5,127.5C 186.167,127.5 188.833,127.5 191.5,127.5C 191.334,121.491 191.501,115.491 192,109.5C 192.956,108.106 194.289,107.439 196,107.5C 198.491,108.675 200.991,108.675 203.5,107.5C 203.5,108.833 203.5,110.167 203.5,111.5C 204.5,111.5 205.5,111.5 206.5,111.5C 206.343,110.127 206.51,108.793 207,107.5C 208.364,108.258 209.531,107.758 210.5,106C 215.034,105.731 219.367,104.898 223.5,103.5C 223.5,104.833 223.5,106.167 223.5,107.5C 228.833,107.5 234.167,107.5 239.5,107.5C 239.5,108.833 239.5,110.167 239.5,111.5C 242.572,111.817 245.572,111.484 248.5,110.5C 247.691,108.929 247.357,107.262 247.5,105.5C 245.571,105.769 243.905,105.269 242.5,104C 246.276,102.395 248.276,99.5616 248.5,95.5C 249.833,95.5 251.167,95.5 252.5,95.5C 254.386,101.764 255.386,101.764 255.5,95.5C 260.833,95.5 266.167,95.5 271.5,95.5C 271.5,99.5 271.5,103.5 271.5,107.5C 276.833,107.5 282.167,107.5 287.5,107.5C 287.5,106.167 287.5,104.833 287.5,103.5C 292.833,103.5 298.167,103.5 303.5,103.5C 303.5,106.167 303.5,108.833 303.5,111.5C 306.167,111.5 308.833,111.5 311.5,111.5C 310.724,119.475 310.39,127.475 310.5,135.5C 308.167,135.5 305.833,135.5 303.5,135.5C 303.5,138.833 303.5,142.167 303.5,145.5C 302.127,145.343 300.793,145.51 299.5,146C 305.858,147.09 312.025,148.924 318,151.5C 323.87,157.788 331.037,161.621 339.5,163C 342.037,165.872 344.87,168.372 348,170.5C 348.973,172.392 349.64,174.392 350,176.5C 352.912,178.554 355.079,181.221 356.5,184.5C 357.736,185.357 359.069,186.023 360.5,186.5C 361.642,191.224 363.308,195.224 365.5,198.5C 364.295,200.121 364.461,201.454 366,202.5C 366.495,200.527 366.662,198.527 366.5,196.5 Z"/></g>
<g><path style="opacity:1" fill="#84919d" d="M 266.5,121.5 C 267.952,122.302 269.618,122.802 271.5,123C 270.207,123.49 268.873,123.657 267.5,123.5C 257.312,123.241 247.312,121.908 237.5,119.5C 235.031,118.683 232.365,118.183 229.5,118C 237.032,117.38 244.365,118.38 251.5,121C 256.489,121.499 261.489,121.666 266.5,121.5 Z"/></g>
<g><path style="opacity:1" fill="#29303a" d="M 227.5,119.5 C 230.833,119.5 234.167,119.5 237.5,119.5C 247.312,121.908 257.312,123.241 267.5,123.5C 267.842,124.338 268.508,124.672 269.5,124.5C 270.602,126.092 269.935,126.925 267.5,127C 266.941,127.725 266.608,128.558 266.5,129.5C 267.963,131.289 268.963,133.289 269.5,135.5C 269.662,137.527 269.495,139.527 269,141.5C 267.989,142.337 266.822,142.67 265.5,142.5C 265.119,138.976 264.119,135.642 262.5,132.5C 261.509,136.445 261.176,140.445 261.5,144.5C 254.832,151.111 246.832,153.611 237.5,152C 232.912,150.516 228.245,149.349 223.5,148.5C 222.942,147.21 221.942,146.377 220.5,146C 224.819,145.038 228.819,145.705 232.5,148C 240.003,149.298 247.003,148.298 253.5,145C 250.656,141.503 247.322,140.669 243.5,142.5C 238.021,140.677 233.021,138.011 228.5,134.5C 226.016,135.319 223.682,135.652 221.5,135.5C 221.167,135.167 220.833,134.833 220.5,134.5C 221.193,133.482 221.859,132.482 222.5,131.5C 225.645,129.809 228.979,129.309 232.5,130C 235.463,131.961 238.129,134.294 240.5,137C 244.311,138.739 248.311,139.572 252.5,139.5C 252.863,137.089 251.863,135.589 249.5,135C 244.025,137.011 240.692,135.178 239.5,129.5C 242.956,128.198 246.456,128.198 250,129.5C 251.713,128.863 251.879,127.863 250.5,126.5C 243.148,122.713 235.481,120.379 227.5,119.5 Z"/></g>
<g><path style="opacity:1" fill="#27353b" d="M 227.5,119.5 C 235.481,120.379 243.148,122.713 250.5,126.5C 251.879,127.863 251.713,128.863 250,129.5C 246.456,128.198 242.956,128.198 239.5,129.5C 233.233,127.203 226.733,126.87 220,128.5C 217.815,128.302 216.315,127.302 215.5,125.5C 218.735,122.186 222.735,120.186 227.5,119.5 Z"/></g>
<g><path style="opacity:1" fill="#668391" d="M 266.5,121.5 C 261.489,121.666 256.489,121.499 251.5,121C 244.365,118.38 237.032,117.38 229.5,118C 232.365,118.183 235.031,118.683 237.5,119.5C 234.167,119.5 230.833,119.5 227.5,119.5C 222.735,120.186 218.735,122.186 215.5,125.5C 212.07,128.606 211.737,132.106 214.5,136C 214.05,137.285 213.383,138.452 212.5,139.5C 212.709,140.086 213.043,140.586 213.5,141C 212.167,142.667 210.833,144.333 209.5,146C 204.467,146.171 199.467,146.671 194.5,147.5C 194.857,151.407 194.857,155.407 194.5,159.5C 194.167,160.167 193.833,160.833 193.5,161.5C 190.813,161.336 188.146,161.503 185.5,162C 179.779,165.527 173.779,168.527 167.5,171C 160.756,175.236 156.09,181.07 153.5,188.5C 152.833,188.5 152.5,188.833 152.5,189.5C 151.833,189.5 151.5,189.833 151.5,190.5C 150.883,190.611 150.383,190.944 150,191.5C 149.5,208.163 149.333,224.83 149.5,241.5C 149.5,242.833 149.5,244.167 149.5,245.5C 147.429,249.303 145.096,252.97 142.5,256.5C 137.156,256.334 131.823,256.501 126.5,257C 126,257.5 125.5,258 125,258.5C 125.509,275.51 126.509,292.51 128,309.5C 128.926,311.692 130.093,313.692 131.5,315.5C 130.527,316.791 129.527,316.791 128.5,315.5C 127.667,313.5 126.833,311.5 126,309.5C 124.903,293.478 123.903,277.478 123,261.5C 123.163,259.324 123.996,257.491 125.5,256C 129.903,253.955 134.57,252.955 139.5,253C 136.833,252 134.167,251 131.5,250C 133.5,249.5 135.5,249 137.5,248.5C 140.011,250.158 142.178,249.825 144,247.5C 144.036,241.513 143.869,235.513 143.5,229.5C 144.5,229.5 145.5,229.5 146.5,229.5C 146.201,220.683 145.201,214.683 143.5,211.5C 144.5,211.5 145.5,211.5 146.5,211.5C 144.585,206.378 143.585,201.045 143.5,195.5C 144.5,195.5 145.5,195.5 146.5,195.5C 145.893,192.924 144.726,190.591 143,188.5C 141.814,190.677 139.981,191.677 137.5,191.5C 135.932,184.615 135.265,177.615 135.5,170.5C 137.713,168.472 140.213,166.805 143,165.5C 143.495,163.527 143.662,161.527 143.5,159.5C 146.167,159.5 148.833,159.5 151.5,159.5C 150.833,153.5 153.5,150.833 159.5,151.5C 159.5,150.167 159.5,148.833 159.5,147.5C 164.833,147.5 170.167,147.5 175.5,147.5C 175.5,150.167 175.5,152.833 175.5,155.5C 170.167,155.5 164.833,155.5 159.5,155.5C 159.5,158.167 159.5,160.833 159.5,163.5C 165.146,162.675 170.313,160.675 175,157.5C 175.333,158.167 175.667,158.833 176,159.5C 176.85,158.576 177.85,158.576 179,159.5C 181.494,157.833 182.994,155.5 183.5,152.5C 184.524,151.147 185.857,150.48 187.5,150.5C 188.179,146.9 189.013,147.233 190,151.5C 191.481,148.729 192.648,146.229 193.5,144C 198.266,142.8 202.933,141.3 207.5,139.5C 207.201,137.396 207.534,135.396 208.5,133.5C 209.635,132.897 210.635,132.564 211.5,132.5C 208.437,129.028 207.27,125.028 208,120.5C 211.151,118.948 211.318,117.115 208.5,115C 209.071,113.795 209.738,112.628 210.5,111.5C 213.149,114.039 215.816,114.039 218.5,111.5C 219.421,113.756 221.088,114.756 223.5,114.5C 223.5,113.5 223.5,112.5 223.5,111.5C 227.884,111.174 232.217,111.508 236.5,112.5C 235.5,113.167 234.5,113.833 233.5,114.5C 233.709,115.086 234.043,115.586 234.5,116C 245.311,117.881 255.978,119.714 266.5,121.5 Z"/></g>
<g><path style="opacity:1" fill="#2c363e" d="M 212.5,152.5 C 218.923,153.919 225.256,155.252 231.5,156.5C 230.127,156.343 228.793,156.51 227.5,157C 234.746,161.709 242.746,163.376 251.5,162C 252.833,159.333 254.833,157.333 257.5,156C 256.552,155.517 255.552,155.351 254.5,155.5C 257.737,154.208 260.737,152.374 263.5,150C 276.214,147.837 288.88,148.003 301.5,150.5C 319.096,155.133 334.096,164.133 346.5,177.5C 345.535,178.721 345.702,180.054 347,181.5C 352.78,185.989 352.613,186.989 346.5,184.5C 345.893,184.624 345.56,184.957 345.5,185.5C 345.167,185.5 344.833,185.5 344.5,185.5C 338.032,179.932 330.699,175.932 322.5,173.5C 323.738,173.19 323.738,172.69 322.5,172C 320.942,171.79 319.609,171.29 318.5,170.5C 325.404,172.654 332.404,174.988 339.5,177.5C 339.833,177.167 340.167,176.833 340.5,176.5C 337.153,173.62 334.153,170.453 331.5,167C 328.986,165.748 326.32,165.248 323.5,165.5C 323.5,164.5 323.5,163.5 323.5,162.5C 317.887,160.462 312.221,158.296 306.5,156C 301.534,156.045 296.868,155.045 292.5,153C 284.006,151.934 275.672,152.601 267.5,155C 266.31,157.116 264.977,159.116 263.5,161C 268.758,162.33 274.091,163.664 279.5,165C 290.199,165.237 300.866,165.737 311.5,166.5C 311.5,167.5 311.5,168.5 311.5,169.5C 301.517,168.767 291.517,168.101 281.5,167.5C 279.304,167.505 277.304,167.838 275.5,168.5C 261.217,165.596 246.883,164.929 232.5,166.5C 229.518,166.963 226.518,167.296 223.5,167.5C 224.077,164.355 226.077,162.855 229.5,163C 228.359,162.259 228.359,161.425 229.5,160.5C 228.91,159.201 227.91,158.368 226.5,158C 221.526,156.442 216.526,156.776 211.5,159C 213.167,159.333 214.833,159.667 216.5,160C 212.322,160.171 208.489,161.338 205,163.5C 203.714,162.65 203.881,161.483 205.5,160C 204.874,159.25 204.374,158.416 204,157.5C 202.355,157.693 200.521,157.86 198.5,158C 197.211,159.802 195.544,160.969 193.5,161.5C 193.833,160.833 194.167,160.167 194.5,159.5C 195.167,159.5 195.5,159.167 195.5,158.5C 199.274,156.162 202.274,152.995 204.5,149C 205.448,148.517 206.448,148.351 207.5,148.5C 207.5,150.5 207.5,152.5 207.5,154.5C 209.553,154.598 211.22,153.931 212.5,152.5 Z"/></g>
<g><path style="opacity:1" fill="#687a87" d="M 269.5,124.5 C 274.135,125.315 278.468,126.981 282.5,129.5C 286.535,140.075 282.869,144.742 271.5,143.5C 271.5,144.5 271.5,145.5 271.5,146.5C 275.202,146.579 278.868,146.246 282.5,145.5C 288.446,146.898 294.446,148.064 300.5,149C 301.056,149.383 301.389,149.883 301.5,150.5C 288.88,148.003 276.214,147.837 263.5,150C 260.737,152.374 257.737,154.208 254.5,155.5C 246.994,159.083 239.328,159.416 231.5,156.5C 225.256,155.252 218.923,153.919 212.5,152.5C 211.5,152.5 210.5,152.5 209.5,152.5C 209.5,150.833 209.5,149.167 209.5,147.5C 200.091,145.249 195.424,148.916 195.5,158.5C 195.5,159.167 195.167,159.5 194.5,159.5C 194.857,155.407 194.857,151.407 194.5,147.5C 199.467,146.671 204.467,146.171 209.5,146C 210.833,144.333 212.167,142.667 213.5,141C 213.043,140.586 212.709,140.086 212.5,139.5C 213.383,138.452 214.05,137.285 214.5,136C 211.737,132.106 212.07,128.606 215.5,125.5C 216.315,127.302 217.815,128.302 220,128.5C 226.733,126.87 233.233,127.203 239.5,129.5C 240.692,135.178 244.025,137.011 249.5,135C 251.863,135.589 252.863,137.089 252.5,139.5C 248.311,139.572 244.311,138.739 240.5,137C 238.129,134.294 235.463,131.961 232.5,130C 228.979,129.309 225.645,129.809 222.5,131.5C 215.572,134.087 213.739,138.754 217,145.5C 218.843,147.171 221.009,148.171 223.5,148.5C 228.245,149.349 232.912,150.516 237.5,152C 246.832,153.611 254.832,151.111 261.5,144.5C 264.143,144.149 266.809,143.816 269.5,143.5C 270.447,141.941 271.113,140.274 271.5,138.5C 271.547,136.962 270.88,135.962 269.5,135.5C 268.963,133.289 267.963,131.289 266.5,129.5C 266.608,128.558 266.941,127.725 267.5,127C 269.935,126.925 270.602,126.092 269.5,124.5 Z"/></g>
<g><path style="opacity:1" fill="#505c69" d="M 269.5,135.5 C 270.88,135.962 271.547,136.962 271.5,138.5C 271.113,140.274 270.447,141.941 269.5,143.5C 266.809,143.816 264.143,144.149 261.5,144.5C 261.176,140.445 261.509,136.445 262.5,132.5C 264.119,135.642 265.119,138.976 265.5,142.5C 266.822,142.67 267.989,142.337 269,141.5C 269.495,139.527 269.662,137.527 269.5,135.5 Z"/></g>
<g><path style="opacity:1" fill="#2b3f47" d="M 222.5,131.5 C 221.859,132.482 221.193,133.482 220.5,134.5C 220.833,134.833 221.167,135.167 221.5,135.5C 223.682,135.652 226.016,135.319 228.5,134.5C 233.021,138.011 238.021,140.677 243.5,142.5C 247.322,140.669 250.656,141.503 253.5,145C 247.003,148.298 240.003,149.298 232.5,148C 228.819,145.705 224.819,145.038 220.5,146C 221.942,146.377 222.942,147.21 223.5,148.5C 221.009,148.171 218.843,147.171 217,145.5C 213.739,138.754 215.572,134.087 222.5,131.5 Z"/></g>
<g><path style="opacity:1" fill="#4f5f6c" d="M 212.5,152.5 C 211.22,153.931 209.553,154.598 207.5,154.5C 207.5,152.5 207.5,150.5 207.5,148.5C 206.448,148.351 205.448,148.517 204.5,149C 202.274,152.995 199.274,156.162 195.5,158.5C 195.424,148.916 200.091,145.249 209.5,147.5C 209.5,149.167 209.5,150.833 209.5,152.5C 210.5,152.5 211.5,152.5 212.5,152.5 Z"/></g>
<g><path style="opacity:1" fill="#2e4652" d="M 318.5,170.5 C 316.236,169.781 313.903,169.448 311.5,169.5C 311.5,168.5 311.5,167.5 311.5,166.5C 300.866,165.737 290.199,165.237 279.5,165C 274.091,163.664 268.758,162.33 263.5,161C 264.977,159.116 266.31,157.116 267.5,155C 275.672,152.601 284.006,151.934 292.5,153C 296.868,155.045 301.534,156.045 306.5,156C 312.221,158.296 317.887,160.462 323.5,162.5C 323.5,163.5 323.5,164.5 323.5,165.5C 326.32,165.248 328.986,165.748 331.5,167C 334.153,170.453 337.153,173.62 340.5,176.5C 340.167,176.833 339.833,177.167 339.5,177.5C 332.404,174.988 325.404,172.654 318.5,170.5 Z"/></g>
<g><path style="opacity:1" fill="#202326" d="M 254.5,155.5 C 255.552,155.351 256.552,155.517 257.5,156C 254.833,157.333 252.833,159.333 251.5,162C 242.746,163.376 234.746,161.709 227.5,157C 228.793,156.51 230.127,156.343 231.5,156.5C 239.328,159.416 246.994,159.083 254.5,155.5 Z"/></g>
<g><path style="opacity:1" fill="#bfb6bf" d="M 232.5,166.5 C 225.18,169.094 217.514,170.428 209.5,170.5C 213.5,169.5 217.5,168.5 221.5,167.5C 222.167,167.5 222.833,167.5 223.5,167.5C 226.518,167.296 229.518,166.963 232.5,166.5 Z"/></g>
<g><path style="opacity:1" fill="#231e2c" d="M 275.5,168.5 C 277.304,167.838 279.304,167.505 281.5,167.5C 291.517,168.101 301.517,168.767 311.5,169.5C 313.903,169.448 316.236,169.781 318.5,170.5C 319.609,171.29 320.942,171.79 322.5,172C 323.738,172.69 323.738,173.19 322.5,173.5C 318.369,172.099 314.036,171.433 309.5,171.5C 300.336,170.572 291.003,169.905 281.5,169.5C 279.379,169.675 277.379,169.341 275.5,168.5 Z"/></g>
<g><path style="opacity:1" fill="#e6dcd8" d="M 275.5,168.5 C 277.379,169.341 279.379,169.675 281.5,169.5C 283.292,170.309 285.292,170.809 287.5,171C 294.826,171.5 302.159,171.666 309.5,171.5C 314.036,171.433 318.369,172.099 322.5,173.5C 330.699,175.932 338.032,179.932 344.5,185.5C 344.265,186.097 343.765,186.43 343,186.5C 341.086,185.921 339.419,184.921 338,183.5C 335.98,184.032 335.147,185.365 335.5,187.5C 331.879,186.627 328.212,185.961 324.5,185.5C 324.906,183.891 324.906,182.557 324.5,181.5C 323.833,182.167 323.167,182.833 322.5,183.5C 320.785,182.285 318.951,181.285 317,180.5C 314.487,181.73 311.987,181.73 309.5,180.5C 308.214,180.852 307.381,181.518 307,182.5C 304.632,181.283 302.132,180.449 299.5,180C 300.833,179.667 302.167,179.333 303.5,179C 301.5,178.5 299.5,178 297.5,177.5C 288.873,177.922 280.207,177.922 271.5,177.5C 271.5,176.5 271.5,175.5 271.5,174.5C 268.482,174.335 265.482,174.502 262.5,175C 264.891,175.691 264.891,176.691 262.5,178C 260.323,179.202 257.989,179.702 255.5,179.5C 255.5,180.5 255.5,181.5 255.5,182.5C 252.428,182.817 249.428,182.484 246.5,181.5C 247.348,179.591 247.682,177.591 247.5,175.5C 246.208,173.982 239.541,174.649 227.5,177.5C 221.802,179.04 216.135,180.707 210.5,182.5C 208.575,182.41 207.408,181.41 207,179.5C 202.41,181.278 197.576,182.611 192.5,183.5C 191.571,184.689 191.238,186.022 191.5,187.5C 187.748,187.584 184.248,188.584 181,190.5C 179.118,189.394 177.284,189.394 175.5,190.5C 178.428,191.484 181.428,191.817 184.5,191.5C 184.361,195.111 182.694,197.777 179.5,199.5C 178.252,198.96 177.085,198.293 176,197.5C 175.64,199.421 174.806,201.088 173.5,202.5C 172.726,203.711 171.893,203.711 171,202.5C 169.049,204.837 168.549,207.337 169.5,210C 166.721,212.794 167.388,214.461 171.5,215C 170.5,215.333 169.5,215.667 168.5,216C 169.833,216.667 171.167,217.333 172.5,218C 167.855,219.611 163.189,219.778 158.5,218.5C 156.701,211.655 155.701,204.655 155.5,197.5C 159.833,192.5 164.5,187.833 169.5,183.5C 171.167,182.167 172.833,180.833 174.5,179.5C 175.492,179.672 176.158,179.338 176.5,178.5C 179.746,177.946 182.746,176.946 185.5,175.5C 186.842,174.207 188.509,173.374 190.5,173C 196.765,171.58 203.098,170.746 209.5,170.5C 217.514,170.428 225.18,169.094 232.5,166.5C 246.883,164.929 261.217,165.596 275.5,168.5 Z"/></g>
<g><path style="opacity:1" fill="#b5aab2" d="M 281.5,169.5 C 291.003,169.905 300.336,170.572 309.5,171.5C 302.159,171.666 294.826,171.5 287.5,171C 285.292,170.809 283.292,170.309 281.5,169.5 Z"/></g>
<g><path style="opacity:1" fill="#2a3437" d="M 223.5,167.5 C 222.833,167.5 222.167,167.5 221.5,167.5C 215.824,167.334 210.157,167.501 204.5,168C 197.686,169.762 190.852,171.262 184,172.5C 183.667,172.167 183.333,171.833 183,171.5C 179.021,173.425 174.854,174.758 170.5,175.5C 170.67,176.822 170.337,177.989 169.5,179C 166.286,179.856 163.453,181.356 161,183.5C 160.055,183.095 159.388,182.428 159,181.5C 158.578,185.039 156.745,187.373 153.5,188.5C 156.09,181.07 160.756,175.236 167.5,171C 173.779,168.527 179.779,165.527 185.5,162C 188.146,161.503 190.813,161.336 193.5,161.5C 195.544,160.969 197.211,159.802 198.5,158C 200.521,157.86 202.355,157.693 204,157.5C 204.374,158.416 204.874,159.25 205.5,160C 203.881,161.483 203.714,162.65 205,163.5C 208.489,161.338 212.322,160.171 216.5,160C 214.833,159.667 213.167,159.333 211.5,159C 216.526,156.776 221.526,156.442 226.5,158C 227.91,158.368 228.91,159.201 229.5,160.5C 228.359,161.425 228.359,162.259 229.5,163C 226.077,162.855 224.077,164.355 223.5,167.5 Z"/></g>
<g><path style="opacity:1" fill="#2d2f3b" d="M 221.5,167.5 C 217.5,168.5 213.5,169.5 209.5,170.5C 203.098,170.746 196.765,171.58 190.5,173C 188.509,173.374 186.842,174.207 185.5,175.5C 182.008,175.446 179.008,176.446 176.5,178.5C 176.158,179.338 175.492,179.672 174.5,179.5C 168.052,181.293 163.052,184.959 159.5,190.5C 157.833,191.5 156.5,192.833 155.5,194.5C 154.5,194.5 153.5,194.5 152.5,194.5C 152.5,192.833 152.5,191.167 152.5,189.5C 152.5,188.833 152.833,188.5 153.5,188.5C 156.745,187.373 158.578,185.039 159,181.5C 159.388,182.428 160.055,183.095 161,183.5C 163.453,181.356 166.286,179.856 169.5,179C 170.337,177.989 170.67,176.822 170.5,175.5C 174.854,174.758 179.021,173.425 183,171.5C 183.333,171.833 183.667,172.167 184,172.5C 190.852,171.262 197.686,169.762 204.5,168C 210.157,167.501 215.824,167.334 221.5,167.5 Z"/></g>
<g><path style="opacity:1" fill="#78747c" d="M 185.5,175.5 C 182.746,176.946 179.746,177.946 176.5,178.5C 179.008,176.446 182.008,175.446 185.5,175.5 Z"/></g>
<g><path style="opacity:1" fill="#746f7a" d="M 174.5,179.5 C 172.833,180.833 171.167,182.167 169.5,183.5C 166.185,185.808 162.851,188.141 159.5,190.5C 163.052,184.959 168.052,181.293 174.5,179.5 Z"/></g>
<g><path style="opacity:1" fill="#202229" d="M 346.5,177.5 C 346.5,178.167 346.833,178.5 347.5,178.5C 353.434,184.714 358.1,191.714 361.5,199.5C 361.795,201.735 361.461,203.735 360.5,205.5C 360.5,204.833 360.167,204.5 359.5,204.5C 356.539,196.913 351.873,190.58 345.5,185.5C 345.56,184.957 345.893,184.624 346.5,184.5C 352.613,186.989 352.78,185.989 347,181.5C 345.702,180.054 345.535,178.721 346.5,177.5 Z"/></g>
<g><path style="opacity:1" fill="#618497" d="M 364.5,255.5 C 363.467,247.141 364.3,238.808 367,230.5C 367.826,218.992 367.659,207.659 366.5,196.5C 365.962,194.883 365.629,193.216 365.5,191.5C 368.5,191.5 371.5,191.5 374.5,191.5C 374.491,193.308 374.991,194.975 376,196.5C 380.181,202.163 383.681,202.163 386.5,196.5C 387.386,197.325 387.719,198.325 387.5,199.5C 391.5,199.5 395.5,199.5 399.5,199.5C 399.5,202.167 399.5,204.833 399.5,207.5C 400.833,207.5 402.167,207.5 403.5,207.5C 403.5,212.833 403.5,218.167 403.5,223.5C 404.5,223.5 405.5,223.5 406.5,223.5C 406.413,226.598 406.913,226.932 408,224.5C 408.388,225.428 409.055,226.095 410,226.5C 411.168,225.491 412.335,224.491 413.5,223.5C 414.251,224.376 414.751,225.376 415,226.5C 415.718,225.549 416.551,225.383 417.5,226C 415.507,227.592 413.507,229.092 411.5,230.5C 412.167,230.833 412.833,231.167 413.5,231.5C 415.487,229.393 417.487,229.226 419.5,231C 418.421,231.956 417.255,232.789 416,233.5C 415.333,240.833 415.333,248.167 416,255.5C 420.833,260.5 425.667,265.5 430.5,270.5C 425.544,271.494 420.544,271.827 415.5,271.5C 415.5,272.833 415.5,274.167 415.5,275.5C 420.833,275.5 426.167,275.5 431.5,275.5C 431.5,278.167 431.5,280.833 431.5,283.5C 436.833,283.5 442.167,283.5 447.5,283.5C 447.5,290.167 447.5,296.833 447.5,303.5C 449.5,303.5 451.5,303.5 453.5,303.5C 453.822,305.722 453.155,307.556 451.5,309C 448.246,309.25 445.246,310.25 442.5,312C 439.706,315.541 437.373,319.374 435.5,323.5C 431.25,325.206 427.417,327.539 424,330.5C 423.362,331.609 422.862,332.775 422.5,334C 423.893,335.301 424.393,336.801 424,338.5C 422.305,341.695 419.805,344.028 416.5,345.5C 417.911,347.017 417.744,348.351 416,349.5C 410.803,347.58 405.303,346.913 399.5,347.5C 399.665,350.85 399.498,354.183 399,357.5C 394.136,359.191 391.303,362.524 390.5,367.5C 382.833,367.5 375.167,367.5 367.5,367.5C 367.167,352.152 367.501,336.819 368.5,321.5C 371.131,319.995 370.797,319.329 367.5,319.5C 367.334,312.159 367.5,304.826 368,297.5C 369,296.833 370,296.167 371,295.5C 371.019,292.692 372.019,290.359 374,288.5C 374.212,285.242 374.712,282.076 375.5,279C 373.125,276.824 370.792,274.657 368.5,272.5C 370.078,271.702 371.744,271.202 373.5,271C 373.358,267.027 371.358,264.86 367.5,264.5C 367.666,260.154 367.499,255.821 367,251.5C 366.066,252.858 365.232,254.192 364.5,255.5 Z"/></g>
<g><path style="opacity:1" fill="#4c5865" d="M 361.5,199.5 C 362.623,211.34 362.623,223.34 361.5,235.5C 360.506,225.681 360.173,215.681 360.5,205.5C 361.461,203.735 361.795,201.735 361.5,199.5 Z"/></g>
<g><path style="opacity:1" fill="#51626e" d="M 151.5,190.5 C 151.083,207.667 150.416,224.667 149.5,241.5C 149.333,224.83 149.5,208.163 150,191.5C 150.383,190.944 150.883,190.611 151.5,190.5 Z"/></g>
<g><path style="opacity:1" fill="#628696" d="M 6.5,223.5 C 7.97782,223.238 9.31116,223.571 10.5,224.5C 12.5104,229.489 14.177,234.489 15.5,239.5C 17.8333,239.5 20.1667,239.5 22.5,239.5C 23.303,244.476 26.1364,247.809 31,249.5C 31.4992,254.155 31.6658,258.821 31.5,263.5C 37.5,262.833 40.1667,265.5 39.5,271.5C 44.8333,271.5 50.1667,271.5 55.5,271.5C 55.5,282.167 55.5,292.833 55.5,303.5C 52.8333,303.5 50.1667,303.5 47.5,303.5C 47.5,314.167 47.5,324.833 47.5,335.5C 44.8333,335.5 42.1667,335.5 39.5,335.5C 39.5,340.833 39.5,346.167 39.5,351.5C 36.8333,351.5 34.1667,351.5 31.5,351.5C 31.5,348.833 31.5,346.167 31.5,343.5C 28.305,344.039 25.805,343.039 24,340.5C 23.5001,328.171 23.3335,315.838 23.5,303.5C 20.7884,303.263 18.2884,303.263 16,303.5C 15.5001,287.503 15.3334,271.503 15.5,255.5C 12.8333,255.5 10.1667,255.5 7.5,255.5C 7.5,250.167 7.5,244.833 7.5,239.5C 6.16667,239.5 4.83333,239.5 3.5,239.5C 3.86471,234.042 4.86471,228.709 6.5,223.5 Z"/></g>
<g><path style="opacity:1" fill="#a09399" d="M 169.5,183.5 C 164.5,187.833 159.833,192.5 155.5,197.5C 154.835,200.984 154.501,204.651 154.5,208.5C 151.629,220.219 155.796,224.552 167,221.5C 170.116,221.489 172.949,222.155 175.5,223.5C 171.13,222.537 166.797,222.537 162.5,223.5C 158.622,225.565 157.622,228.565 159.5,232.5C 156.682,232.657 154.682,233.991 153.5,236.5C 152.435,223.855 152.269,211.188 153,198.5C 153.662,197.016 154.496,195.683 155.5,194.5C 156.5,192.833 157.833,191.5 159.5,190.5C 162.851,188.141 166.185,185.808 169.5,183.5 Z"/></g>
<g><path style="opacity:1" fill="#a8989d" d="M 180.5,224.5 C 183.152,224.41 185.485,225.076 187.5,226.5C 184.848,226.59 182.515,225.924 180.5,224.5 Z"/></g>
<g><path style="opacity:1" fill="#2f2431" d="M 165.5,225.5 C 168.187,225.336 170.854,225.503 173.5,226C 174.973,226.71 175.64,227.876 175.5,229.5C 177.5,229.167 179.5,228.833 181.5,228.5C 181.5,229.5 181.5,230.5 181.5,231.5C 175.5,231.5 169.5,231.5 163.5,231.5C 160.687,228.6 161.353,226.6 165.5,225.5 Z"/></g>
<g><path style="opacity:1" fill="#61525e" d="M 175.5,223.5 C 177.292,223.366 178.958,223.699 180.5,224.5C 182.515,225.924 184.848,226.59 187.5,226.5C 188.694,227.272 189.694,228.272 190.5,229.5C 185.417,228.306 180.417,226.806 175.5,225C 171.973,224.192 168.64,224.359 165.5,225.5C 161.353,226.6 160.687,228.6 163.5,231.5C 163.5,231.833 163.5,232.167 163.5,232.5C 162.167,232.5 160.833,232.5 159.5,232.5C 157.622,228.565 158.622,225.565 162.5,223.5C 166.797,222.537 171.13,222.537 175.5,223.5 Z"/></g>
<g><path style="opacity:1" fill="#524554" d="M 165.5,225.5 C 168.64,224.359 171.973,224.192 175.5,225C 180.417,226.806 185.417,228.306 190.5,229.5C 193.169,232.677 192.169,234.01 187.5,233.5C 179.445,233.77 171.445,233.437 163.5,232.5C 163.5,232.167 163.5,231.833 163.5,231.5C 169.5,231.5 175.5,231.5 181.5,231.5C 181.5,230.5 181.5,229.5 181.5,228.5C 179.5,228.833 177.5,229.167 175.5,229.5C 175.64,227.876 174.973,226.71 173.5,226C 170.854,225.503 168.187,225.336 165.5,225.5 Z"/></g>
<g><path style="opacity:1" fill="#e5e4de" d="M 352.5,231.5 C 354.46,237.36 354.293,243.027 352,248.5C 351.503,250.81 351.337,253.143 351.5,255.5C 350.167,255.5 348.833,255.5 347.5,255.5C 346.891,258.878 348.224,260.878 351.5,261.5C 351.5,264.833 351.5,268.167 351.5,271.5C 348.049,271.526 345.382,273.026 343.5,276C 339.405,278.22 335.072,278.887 330.5,278C 335.105,275.697 339.772,273.364 344.5,271C 341.525,270.956 338.525,271.123 335.5,271.5C 335.5,270.167 335.5,268.833 335.5,267.5C 343.474,266.984 343.474,266.151 335.5,265C 330.167,264.333 324.833,264.333 319.5,265C 318.366,266.016 318.699,266.683 320.5,267C 317.498,266.842 314.498,266.342 311.5,265.5C 307.154,265.334 302.821,265.501 298.5,266C 297.299,266.903 296.465,268.069 296,269.5C 295.503,266.854 295.336,264.187 295.5,261.5C 296.138,259.54 296.138,257.707 295.5,256C 297.78,255.788 299.78,254.955 301.5,253.5C 302.192,254.025 302.692,254.692 303,255.5C 303.388,254.572 304.055,253.905 305,253.5C 309.051,255.127 313.217,255.627 317.5,255C 320.105,253.024 322.772,251.857 325.5,251.5C 328.43,256.834 331.597,256.834 335,251.5C 335.333,252.167 335.667,252.833 336,253.5C 337.023,252.4 337.523,251.067 337.5,249.5C 336.163,245.821 334.829,242.154 333.5,238.5C 336.9,239.986 340.233,239.82 343.5,238C 346.379,235.615 349.379,233.448 352.5,231.5 Z"/></g>
<g><path style="opacity:1" fill="#98858c" d="M 190.5,229.5 C 193.427,230.757 195.761,232.757 197.5,235.5C 196.791,236.404 195.791,236.737 194.5,236.5C 191.843,236.065 189.509,235.065 187.5,233.5C 192.169,234.01 193.169,232.677 190.5,229.5 Z"/></g>
<g><path style="opacity:1" fill="#3a3d48" d="M 152.5,189.5 C 152.5,191.167 152.5,192.833 152.5,194.5C 153.5,194.5 154.5,194.5 155.5,194.5C 154.496,195.683 153.662,197.016 153,198.5C 152.269,211.188 152.435,223.855 153.5,236.5C 153.5,238.167 153.5,239.833 153.5,241.5C 153.448,245.198 153.114,248.865 152.5,252.5C 152.737,253.791 152.404,254.791 151.5,255.5C 152.069,251.671 151.402,248.337 149.5,245.5C 149.5,244.167 149.5,242.833 149.5,241.5C 150.416,224.667 151.083,207.667 151.5,190.5C 151.5,189.833 151.833,189.5 152.5,189.5 Z"/></g>
<g><path style="opacity:1" fill="#e9e0e1" d="M 159.5,232.5 C 160.833,232.5 162.167,232.5 163.5,232.5C 171.445,233.437 179.445,233.77 187.5,233.5C 189.509,235.065 191.843,236.065 194.5,236.5C 198.968,238.903 203.301,241.57 207.5,244.5C 207.5,246.167 207.5,247.833 207.5,249.5C 203.053,251.544 198.386,253.378 193.5,255C 187.319,255.819 181.319,255.653 175.5,254.5C 178.397,254.875 181.063,254.375 183.5,253C 174.385,253.54 169.219,249.373 168,240.5C 166.476,246.785 168.642,251.118 174.5,253.5C 172.345,253.628 170.345,253.128 168.5,252C 166.99,249.991 165.323,248.158 163.5,246.5C 162.397,250.207 163.731,252.873 167.5,254.5C 164.49,254.667 161.49,255.001 158.5,255.5C 159.183,253.824 160.517,253.157 162.5,253.5C 162.771,251.62 162.104,250.287 160.5,249.5C 158.366,246.614 156.032,243.947 153.5,241.5C 153.5,239.833 153.5,238.167 153.5,236.5C 154.682,233.991 156.682,232.657 159.5,232.5 Z"/></g>
<g><path style="opacity:1" fill="#cababa" d="M 197.5,235.5 C 198.167,235.5 198.833,235.5 199.5,235.5C 206.737,239.639 213.071,244.972 218.5,251.5C 218.267,252.932 217.6,253.432 216.5,253C 214.321,249.322 211.321,246.488 207.5,244.5C 203.301,241.57 198.968,238.903 194.5,236.5C 195.791,236.737 196.791,236.404 197.5,235.5 Z"/></g>
<g><path style="opacity:1" fill="#b09aa0" d="M 175.5,254.5 C 175.5,253.833 175.167,253.5 174.5,253.5C 168.642,251.118 166.476,246.785 168,240.5C 169.219,249.373 174.385,253.54 183.5,253C 181.063,254.375 178.397,254.875 175.5,254.5 Z"/></g>
<g><path style="opacity:1" fill="#e5ddda" d="M 223.5,315.5 C 218.604,313.554 213.271,312.887 207.5,313.5C 207.5,312.5 207.5,311.5 207.5,310.5C 197.923,309.89 188.423,309.89 179,310.5C 177.635,309.407 177.301,308.074 178,306.5C 179.734,305.751 181.567,305.251 183.5,305C 177.621,303.59 171.621,303.09 165.5,303.5C 165.202,300.735 164.202,298.235 162.5,296C 164.104,290.649 163.604,285.482 161,280.5C 160.667,280.833 160.333,281.167 160,281.5C 159.667,278.167 159.333,274.833 159,271.5C 158.141,279.171 157.308,286.838 156.5,294.5C 155.831,297.028 154.998,297.028 154,294.5C 153.667,294.833 153.333,295.167 153,295.5C 151.921,292.937 151.421,290.271 151.5,287.5C 152.5,287.5 153.5,287.5 154.5,287.5C 154.797,281.224 154.13,275.058 152.5,269C 152.865,266.739 153.531,264.573 154.5,262.5C 154.162,260.345 154.162,258.011 154.5,255.5C 155.833,255.5 157.167,255.5 158.5,255.5C 158.5,256.833 158.5,258.167 158.5,259.5C 157.5,259.5 156.5,259.5 155.5,259.5C 155.421,260.93 155.754,262.264 156.5,263.5C 154.771,265.851 154.104,268.518 154.5,271.5C 155.5,271.5 156.5,271.5 157.5,271.5C 157.177,267.774 157.511,264.107 158.5,260.5C 161.169,259.819 163.835,260.152 166.5,261.5C 171.168,264.22 175.502,267.387 179.5,271C 183.525,271.668 187.359,272.835 191,274.5C 194,273.167 197,273.167 200,274.5C 202.333,270.5 204.667,270.5 207,274.5C 207.494,276.134 207.66,277.801 207.5,279.5C 212.833,279.5 218.167,279.5 223.5,279.5C 223.5,276.833 223.5,274.167 223.5,271.5C 225.604,271.799 227.604,271.466 229.5,270.5C 228.231,265.692 226.564,261.026 224.5,256.5C 220.827,256.948 217.16,256.448 213.5,255C 211.604,252.932 209.604,251.099 207.5,249.5C 207.5,247.833 207.5,246.167 207.5,244.5C 211.321,246.488 214.321,249.322 216.5,253C 217.6,253.432 218.267,252.932 218.5,251.5C 213.071,244.972 206.737,239.639 199.5,235.5C 199.207,231.874 199.207,228.541 199.5,225.5C 201.115,226.154 202.782,226.654 204.5,227C 204.833,228 205.167,229 205.5,230C 210.146,230.596 214.146,232.43 217.5,235.5C 216.833,236.5 216.167,237.5 215.5,238.5C 217.007,239.739 218.174,239.405 219,237.5C 220.11,239.037 221.61,239.703 223.5,239.5C 223.201,241.604 223.534,243.604 224.5,245.5C 227.254,247.002 229.921,248.669 232.5,250.5C 236.816,247.292 240.983,247.959 245,252.5C 245.308,259.698 246.808,266.864 249.5,274C 248.667,278.167 247.833,282.333 247,286.5C 244.39,291.444 240.723,295.444 236,298.5C 235.328,306.434 231.162,312.1 223.5,315.5 Z"/></g>
<g><path style="opacity:1" fill="#e8dada" d="M 335.5,187.5 C 338.78,188.288 341.614,189.955 344,192.5C 344.72,194.112 344.554,195.612 343.5,197C 346.111,199.708 348.111,202.875 349.5,206.5C 347.604,207.466 345.604,207.799 343.5,207.5C 343.5,209.167 343.5,210.833 343.5,212.5C 341.358,214.662 338.691,215.662 335.5,215.5C 335.5,216.833 335.5,218.167 335.5,219.5C 330.167,219.5 324.833,219.5 319.5,219.5C 321.485,217.061 324.152,215.561 327.5,215C 330.315,212.931 332.648,210.431 334.5,207.5C 335.386,208.325 335.719,209.325 335.5,210.5C 336.833,210.5 338.167,210.5 339.5,210.5C 340.329,207.531 340.495,204.531 340,201.5C 339.363,199.697 338.197,198.364 336.5,197.5C 335.534,195.604 335.201,193.604 335.5,191.5C 332.112,191.188 329.612,192.521 328,195.5C 327.167,194 326,192.833 324.5,192C 320.571,190.772 316.737,189.272 313,187.5C 307.083,186.545 301.083,186.545 295,187.5C 293.647,186.315 292.48,184.981 291.5,183.5C 290.5,184.167 289.5,184.833 288.5,185.5C 281.789,183.901 276.122,185.735 271.5,191C 269.109,191.287 266.776,191.787 264.5,192.5C 263.325,191.145 262.325,191.312 261.5,193C 250.302,193.467 239.135,192.967 228,191.5C 224.167,191.833 220.333,192.167 216.5,192.5C 217.167,193.5 217.833,194.5 218.5,195.5C 216.441,196.951 215.441,198.951 215.5,201.5C 213.61,201.703 212.11,201.037 211,199.5C 210,200.167 209,200.833 208,201.5C 207.751,200.376 207.251,199.376 206.5,198.5C 201.479,200.54 196.479,202.54 191.5,204.5C 191.5,205.5 191.5,206.5 191.5,207.5C 199.629,206.258 201.296,209.258 196.5,216.5C 197.289,218.488 198.455,218.821 200,217.5C 203.198,218.23 204.698,220.23 204.5,223.5C 205.5,223.5 206.5,223.5 207.5,223.5C 207.5,224.5 207.5,225.5 207.5,226.5C 212.167,228.167 216.833,229.833 221.5,231.5C 221.215,229.712 221.548,228.045 222.5,226.5C 226.355,229.519 230.355,232.353 234.5,235C 235.833,236.667 237.167,238.333 238.5,240C 236.5,240 234.5,240 232.5,240C 234.243,241.11 235.576,242.61 236.5,244.5C 239.055,241.749 240.055,242.416 239.5,246.5C 241.857,246.337 244.19,246.503 246.5,247C 247.116,250.287 248.616,253.121 251,255.5C 252.11,257.037 253.61,257.703 255.5,257.5C 255.2,262.333 255.2,266.999 255.5,271.5C 254.325,271.281 253.325,271.614 252.5,272.5C 252.054,275.276 251.054,277.776 249.5,280C 250.325,282.77 250.659,285.437 250.5,288C 248.466,290.936 246.8,294.103 245.5,297.5C 245.529,299.029 246.196,300.196 247.5,301C 245.347,303.165 242.681,303.998 239.5,303.5C 239.664,306.187 239.497,308.854 239,311.5C 235.392,312.607 232.892,314.94 231.5,318.5C 228.914,319.48 226.247,319.813 223.5,319.5C 223.739,321.467 223.406,323.301 222.5,325C 217.597,326.704 212.763,328.537 208,330.5C 207.517,329.552 207.351,328.552 207.5,327.5C 206.127,327.657 204.793,327.49 203.5,327C 203.833,326.667 204.167,326.333 204.5,326C 208.167,325.667 211.833,325.333 215.5,325C 212.833,324.667 210.167,324.333 207.5,324C 211.558,323.66 215.558,322.993 219.5,322C 220.337,320.989 220.67,319.822 220.5,318.5C 221.5,318.5 222.5,318.5 223.5,318.5C 223.5,317.5 223.5,316.5 223.5,315.5C 231.162,312.1 235.328,306.434 236,298.5C 240.723,295.444 244.39,291.444 247,286.5C 247.833,282.333 248.667,278.167 249.5,274C 246.808,266.864 245.308,259.698 245,252.5C 240.983,247.959 236.816,247.292 232.5,250.5C 229.921,248.669 227.254,247.002 224.5,245.5C 223.534,243.604 223.201,241.604 223.5,239.5C 221.61,239.703 220.11,239.037 219,237.5C 218.174,239.405 217.007,239.739 215.5,238.5C 216.167,237.5 216.833,236.5 217.5,235.5C 214.146,232.43 210.146,230.596 205.5,230C 205.167,229 204.833,228 204.5,227C 202.782,226.654 201.115,226.154 199.5,225.5C 199.207,228.541 199.207,231.874 199.5,235.5C 198.833,235.5 198.167,235.5 197.5,235.5C 195.761,232.757 193.427,230.757 190.5,229.5C 189.694,228.272 188.694,227.272 187.5,226.5C 185.485,225.076 183.152,224.41 180.5,224.5C 178.958,223.699 177.292,223.366 175.5,223.5C 172.949,222.155 170.116,221.489 167,221.5C 155.796,224.552 151.629,220.219 154.5,208.5C 154.501,204.651 154.835,200.984 155.5,197.5C 155.701,204.655 156.701,211.655 158.5,218.5C 163.189,219.778 167.855,219.611 172.5,218C 171.167,217.333 169.833,216.667 168.5,216C 169.5,215.667 170.5,215.333 171.5,215C 167.388,214.461 166.721,212.794 169.5,210C 168.549,207.337 169.049,204.837 171,202.5C 171.893,203.711 172.726,203.711 173.5,202.5C 174.806,201.088 175.64,199.421 176,197.5C 177.085,198.293 178.252,198.96 179.5,199.5C 182.694,197.777 184.361,195.111 184.5,191.5C 181.428,191.817 178.428,191.484 175.5,190.5C 177.284,189.394 179.118,189.394 181,190.5C 184.248,188.584 187.748,187.584 191.5,187.5C 191.238,186.022 191.571,184.689 192.5,183.5C 197.576,182.611 202.41,181.278 207,179.5C 207.408,181.41 208.575,182.41 210.5,182.5C 216.135,180.707 221.802,179.04 227.5,177.5C 239.541,174.649 246.208,173.982 247.5,175.5C 247.682,177.591 247.348,179.591 246.5,181.5C 249.428,182.484 252.428,182.817 255.5,182.5C 255.5,181.5 255.5,180.5 255.5,179.5C 257.989,179.702 260.323,179.202 262.5,178C 264.891,176.691 264.891,175.691 262.5,175C 265.482,174.502 268.482,174.335 271.5,174.5C 271.5,175.5 271.5,176.5 271.5,177.5C 280.207,177.922 288.873,177.922 297.5,177.5C 299.5,178 301.5,178.5 303.5,179C 302.167,179.333 300.833,179.667 299.5,180C 302.132,180.449 304.632,181.283 307,182.5C 307.381,181.518 308.214,180.852 309.5,180.5C 311.987,181.73 314.487,181.73 317,180.5C 318.951,181.285 320.785,182.285 322.5,183.5C 323.167,182.833 323.833,182.167 324.5,181.5C 324.906,182.557 324.906,183.891 324.5,185.5C 328.212,185.961 331.879,186.627 335.5,187.5 Z"/></g>
<g><path style="opacity:1" fill="#c0abae" d="M 153.5,241.5 C 156.032,243.947 158.366,246.614 160.5,249.5C 158.643,250.754 156.643,250.754 154.5,249.5C 153.824,250.602 153.158,251.602 152.5,252.5C 153.114,248.865 153.448,245.198 153.5,241.5 Z"/></g>
<g><path style="opacity:1" fill="#e4e3dc" d="M 174.5,253.5 C 175.167,253.5 175.5,253.833 175.5,254.5C 181.319,255.653 187.319,255.819 193.5,255C 198.386,253.378 203.053,251.544 207.5,249.5C 209.604,251.099 211.604,252.932 213.5,255C 217.16,256.448 220.827,256.948 224.5,256.5C 226.564,261.026 228.231,265.692 229.5,270.5C 227.604,271.466 225.604,271.799 223.5,271.5C 223.5,274.167 223.5,276.833 223.5,279.5C 218.167,279.5 212.833,279.5 207.5,279.5C 207.66,277.801 207.494,276.134 207,274.5C 204.667,270.5 202.333,270.5 200,274.5C 197,273.167 194,273.167 191,274.5C 187.359,272.835 183.525,271.668 179.5,271C 175.502,267.387 171.168,264.22 166.5,261.5C 163.835,260.152 161.169,259.819 158.5,260.5C 157.511,264.107 157.177,267.774 157.5,271.5C 156.5,271.5 155.5,271.5 154.5,271.5C 154.104,268.518 154.771,265.851 156.5,263.5C 155.754,262.264 155.421,260.93 155.5,259.5C 156.5,259.5 157.5,259.5 158.5,259.5C 158.5,258.167 158.5,256.833 158.5,255.5C 161.49,255.001 164.49,254.667 167.5,254.5C 163.731,252.873 162.397,250.207 163.5,246.5C 165.323,248.158 166.99,249.991 168.5,252C 170.345,253.128 172.345,253.628 174.5,253.5 Z"/></g>
<g><path style="opacity:1" fill="#333b3e" d="M 149.5,245.5 C 148.865,252.183 148.032,258.849 147,265.5C 145.855,266.684 144.688,266.684 143.5,265.5C 142.867,262.866 141.2,261.2 138.5,260.5C 138.5,259.833 138.167,259.5 137.5,259.5C 138.802,257.972 140.469,256.972 142.5,256.5C 145.096,252.97 147.429,249.303 149.5,245.5 Z"/></g>
<g><path style="opacity:1" fill="#e6ddda" d="M 352.5,231.5 C 349.379,233.448 346.379,235.615 343.5,238C 340.233,239.82 336.9,239.986 333.5,238.5C 334.829,242.154 336.163,245.821 337.5,249.5C 337.523,251.067 337.023,252.4 336,253.5C 335.667,252.833 335.333,252.167 335,251.5C 331.597,256.834 328.43,256.834 325.5,251.5C 322.772,251.857 320.105,253.024 317.5,255C 313.217,255.627 309.051,255.127 305,253.5C 304.055,253.905 303.388,254.572 303,255.5C 302.692,254.692 302.192,254.025 301.5,253.5C 299.78,254.955 297.78,255.788 295.5,256C 296.138,257.707 296.138,259.54 295.5,261.5C 291.449,262.784 289.449,265.617 289.5,270C 292.148,277.737 294.481,285.57 296.5,293.5C 303.481,295.6 310.481,297.767 317.5,300C 318.973,300.71 319.64,301.876 319.5,303.5C 326.717,303.652 334.05,303.986 341.5,304.5C 344.766,310.703 348.766,316.369 353.5,321.5C 352.544,339.765 352.544,358.598 353.5,378C 351.637,379.418 351.137,381.251 352,383.5C 351.91,379.461 353.077,378.794 355.5,381.5C 354.975,382.192 354.308,382.692 353.5,383C 354.032,385.463 355.366,387.297 357.5,388.5C 358.193,397.837 356.86,406.837 353.5,415.5C 350.032,419.141 346.698,422.974 343.5,427C 337.322,429.921 331.322,433.088 325.5,436.5C 316.88,438.645 308.88,442.145 301.5,447C 297.291,447.881 293.291,449.047 289.5,450.5C 288.167,450.833 286.833,451.167 285.5,451.5C 284.167,451.5 282.833,451.5 281.5,451.5C 279.143,451.663 276.81,451.497 274.5,451C 275.5,450.667 276.5,450.333 277.5,450C 276.044,449.577 275.544,448.744 276,447.5C 276.333,447.833 276.667,448.167 277,448.5C 279.802,447.67 282.635,446.837 285.5,446C 285.167,445.667 284.833,445.333 284.5,445C 286.076,444.56 287.41,443.727 288.5,442.5C 289.167,442.833 289.833,443.167 290.5,443.5C 293.391,442.994 296.058,441.994 298.5,440.5C 299.246,439.264 299.579,437.93 299.5,436.5C 301.92,436.292 304.253,436.626 306.5,437.5C 307.308,437.192 307.975,436.692 308.5,436C 307.149,434.383 305.482,433.216 303.5,432.5C 307.122,431.675 310.789,431.175 314.5,431C 316.377,428.894 318.71,427.561 321.5,427C 323.361,423.599 325.695,420.599 328.5,418C 330.797,417.982 333.131,418.149 335.5,418.5C 335.5,417.5 335.5,416.5 335.5,415.5C 340.131,414.842 342.131,412.175 341.5,407.5C 344.684,407.668 345.184,406.334 343,403.5C 342.667,403.833 342.333,404.167 342,404.5C 341.333,396.5 341.333,388.5 342,380.5C 342.915,379.672 343.581,378.672 344,377.5C 344.733,366.233 345.9,355.066 347.5,344C 346.238,334.084 344.738,324.25 343,314.5C 341.392,310.957 339.058,307.957 336,305.5C 333.595,306.274 331.095,306.774 328.5,307C 330.81,307.497 333.143,307.663 335.5,307.5C 335.5,308.833 335.5,310.167 335.5,311.5C 326.224,312.579 317.891,310.079 310.5,304C 302.479,303.832 294.479,303.332 286.5,302.5C 282,298.167 277.5,293.833 273,289.5C 272.812,287.939 273.645,287.272 275.5,287.5C 275.5,285.833 275.5,284.167 275.5,282.5C 274.096,279.509 273.096,276.343 272.5,273C 273.816,268.87 274.983,264.703 276,260.5C 276.93,257.641 278.596,255.307 281,253.5C 280.827,248.98 282.827,245.98 287,244.5C 287.333,246.167 287.667,247.833 288,249.5C 289.303,245.722 291.47,242.556 294.5,240C 292.699,239.683 292.366,239.016 293.5,238C 297.941,237.442 301.941,235.942 305.5,233.5C 306.675,234.855 307.675,234.688 308.5,233C 308.032,231.178 307.699,229.011 307.5,226.5C 313.434,227.111 319.1,226.278 324.5,224C 322.866,223.506 321.199,223.34 319.5,223.5C 319.5,222.167 319.5,220.833 319.5,219.5C 324.833,219.5 330.167,219.5 335.5,219.5C 335.5,218.167 335.5,216.833 335.5,215.5C 338.691,215.662 341.358,214.662 343.5,212.5C 346.111,212.335 348.445,211.001 350.5,208.5C 351.047,214.531 352.38,214.864 354.5,209.5C 356.876,213.908 357.709,218.575 357,223.5C 355.5,225 354,226.5 352.5,228C 355.125,229.376 355.125,230.542 352.5,231.5 Z"/></g>
<g><path style="opacity:1" fill="#7b6b73" d="M 319.5,239.5 C 316.632,242.688 313.632,245.855 310.5,249C 307.833,249.667 305.167,249.667 302.5,249C 301.587,247.586 301.587,246.086 302.5,244.5C 303.585,242.413 305.251,241.08 307.5,240.5C 305.295,242.363 303.961,244.697 303.5,247.5C 304.873,247.657 306.207,247.49 307.5,247C 311.052,243.727 315.052,241.227 319.5,239.5 Z"/></g>
<g><path style="opacity:1" fill="#b9a4a6" d="M 319.5,238.5 C 320.167,238.5 320.833,238.5 321.5,238.5C 321.334,243.418 320,247.918 317.5,252C 313.551,254.273 309.884,253.94 306.5,251C 304.527,250.505 302.527,250.338 300.5,250.5C 300.054,247.99 300.72,245.99 302.5,244.5C 301.587,246.086 301.587,247.586 302.5,249C 305.167,249.667 307.833,249.667 310.5,249C 313.632,245.855 316.632,242.688 319.5,239.5C 319.5,239.167 319.5,238.833 319.5,238.5 Z"/></g>
<g><path style="opacity:1" fill="#483d45" d="M 319.5,238.5 C 319.5,238.833 319.5,239.167 319.5,239.5C 315.052,241.227 311.052,243.727 307.5,247C 306.207,247.49 304.873,247.657 303.5,247.5C 303.961,244.697 305.295,242.363 307.5,240.5C 310.922,240.472 313.589,239.139 315.5,236.5C 317.697,234.694 320.03,234.361 322.5,235.5C 321.007,236.141 320.007,237.141 319.5,238.5 Z"/></g>
<g><path style="opacity:1" fill="#685c60" d="M 327.5,228.5 C 330.187,228.336 332.854,228.503 335.5,229C 337.727,229.704 338.06,230.871 336.5,232.5C 335.209,232.263 334.209,232.596 333.5,233.5C 328.625,233.369 324.625,235.036 321.5,238.5C 320.833,238.5 320.167,238.5 319.5,238.5C 320.007,237.141 321.007,236.141 322.5,235.5C 320.03,234.361 317.697,234.694 315.5,236.5C 313.589,239.139 310.922,240.472 307.5,240.5C 309.401,238.204 311.734,236.371 314.5,235C 318.841,232.681 323.175,230.515 327.5,228.5 Z"/></g>
<g><path style="opacity:1" fill="#a59192" d="M 339.5,222.5 C 341.5,222.5 343.5,222.5 345.5,222.5C 345.325,228.343 342.325,231.677 336.5,232.5C 338.06,230.871 337.727,229.704 335.5,229C 332.854,228.503 330.187,228.336 327.5,228.5C 331.123,225.946 335.123,223.946 339.5,222.5 Z"/></g>
<g><path style="opacity:1" fill="#dac9c7" d="M 333.5,233.5 C 334.209,232.596 335.209,232.263 336.5,232.5C 342.325,231.677 345.325,228.343 345.5,222.5C 343.5,222.5 341.5,222.5 339.5,222.5C 344.661,218.919 350.328,217.586 356.5,218.5C 356.467,221.543 355.134,223.876 352.5,225.5C 351.914,225.291 351.414,224.957 351,224.5C 346.86,230.809 341.027,233.809 333.5,233.5 Z"/></g>
<g><path style="opacity:1" fill="#ebdada" d="M 319.5,219.5 C 319.5,220.833 319.5,222.167 319.5,223.5C 321.199,223.34 322.866,223.506 324.5,224C 319.1,226.278 313.434,227.111 307.5,226.5C 307.699,229.011 308.032,231.178 308.5,233C 307.675,234.688 306.675,234.855 305.5,233.5C 301.941,235.942 297.941,237.442 293.5,238C 292.366,239.016 292.699,239.683 294.5,240C 291.47,242.556 289.303,245.722 288,249.5C 287.667,247.833 287.333,246.167 287,244.5C 282.827,245.98 280.827,248.98 281,253.5C 278.596,255.307 276.93,257.641 276,260.5C 274.983,264.703 273.816,268.87 272.5,273C 273.096,276.343 274.096,279.509 275.5,282.5C 269.006,282.829 265.673,286.329 265.5,293C 266.775,295.071 268.609,296.571 271,297.5C 271.374,303.006 271.541,308.339 271.5,313.5C 270.412,316.732 269.079,319.732 267.5,322.5C 266.043,320.725 264.876,318.725 264,316.5C 263.333,322.833 263.333,329.167 264,335.5C 266.228,337.113 268.728,337.78 271.5,337.5C 271.5,338.5 271.5,339.5 271.5,340.5C 272.552,340.351 273.552,340.517 274.5,341C 268.358,341.734 264.024,344.9 261.5,350.5C 255.872,351.495 250.206,351.829 244.5,351.5C 244.36,353.124 245.027,354.29 246.5,355C 249.817,355.498 253.15,355.665 256.5,355.5C 255.081,356.451 253.415,356.784 251.5,356.5C 250.167,356.5 248.833,356.5 247.5,356.5C 247.229,358.38 247.896,359.713 249.5,360.5C 253.112,361.511 256.779,361.678 260.5,361C 266.924,358.981 273.257,356.814 279.5,354.5C 281.176,353.817 281.843,352.483 281.5,350.5C 282.75,350.577 283.583,351.244 284,352.5C 284.085,350.915 284.251,349.582 284.5,348.5C 285.425,349.641 286.259,349.641 287,348.5C 287.333,349.5 287.667,350.5 288,351.5C 288.182,348.119 289.682,347.119 292.5,348.5C 293.806,352.365 293.806,356.198 292.5,360C 293,360.167 293.5,360.333 294,360.5C 296.261,358.316 297.761,355.65 298.5,352.5C 300.045,351.548 301.712,351.215 303.5,351.5C 303.5,349.5 303.5,347.5 303.5,345.5C 308.833,345.5 314.167,345.5 319.5,345.5C 320.167,347.5 320.833,349.5 321.5,351.5C 323.167,351.5 324.833,351.5 326.5,351.5C 326.5,354.167 326.5,356.833 326.5,359.5C 327.5,359.5 328.5,359.5 329.5,359.5C 329.069,365.476 326.402,370.143 321.5,373.5C 320.692,373.192 320.025,372.692 319.5,372C 314.177,371.501 308.844,371.334 303.5,371.5C 303.5,372.833 303.5,374.167 303.5,375.5C 301.5,375.5 299.5,375.5 297.5,375.5C 296.833,379.5 296.167,379.5 295.5,375.5C 292.833,375.5 290.167,375.5 287.5,375.5C 287.292,377.92 287.626,380.253 288.5,382.5C 292.796,383.328 297.129,383.828 301.5,384C 288.852,383.337 276.185,382.504 263.5,381.5C 260.833,381.833 258.167,382.167 255.5,382.5C 254.757,383.182 254.091,383.849 253.5,384.5C 252.5,384.5 251.5,384.5 250.5,384.5C 250.167,384.5 249.833,384.5 249.5,384.5C 242.656,383.181 235.656,383.181 228.5,384.5C 229.521,386.188 230.855,387.521 232.5,388.5C 233.08,390.749 234.413,392.415 236.5,393.5C 236.94,395.844 237.94,397.844 239.5,399.5C 239.5,399.833 239.5,400.167 239.5,400.5C 249.24,408.735 260.573,411.735 273.5,409.5C 277.04,409.247 280.373,408.581 283.5,407.5C 285.735,407.205 287.735,407.539 289.5,408.5C 288.466,410.817 289.466,411.817 292.5,411.5C 292.5,410.5 292.5,409.5 292.5,408.5C 293.873,408.657 295.207,408.49 296.5,408C 298.076,405.923 300.076,404.423 302.5,403.5C 303.141,401.704 304.141,400.204 305.5,399C 305.167,398.667 304.833,398.333 304.5,398C 306.101,397.727 307.601,397.227 309,396.5C 309.414,396.957 309.914,397.291 310.5,397.5C 311.325,401.122 311.825,404.789 312,408.5C 313.827,410.302 314.994,412.468 315.5,415C 314.207,415.49 312.873,415.657 311.5,415.5C 310.577,420.969 307.41,424.302 302,425.5C 298.714,422.535 295.88,422.868 293.5,426.5C 295.94,428.806 295.274,430.14 291.5,430.5C 290.558,430.392 289.725,430.059 289,429.5C 288.667,430.833 288.333,432.167 288,433.5C 287.612,432.572 286.945,431.905 286,431.5C 284.01,432.818 282.01,434.152 280,435.5C 277.534,434.212 275.034,434.212 272.5,435.5C 271.167,436.5 271.167,437.5 272.5,438.5C 274.889,438.979 276.556,440.312 277.5,442.5C 276.5,442.833 275.5,443.167 274.5,443.5C 266.957,441.224 259.291,440.891 251.5,442.5C 244.651,442.528 238.317,440.861 232.5,437.5C 230.862,438.705 230.529,440.038 231.5,441.5C 230.386,442.776 229.386,442.776 228.5,441.5C 227.456,439.508 225.456,437.842 222.5,436.5C 210.368,427.929 198.035,419.596 185.5,411.5C 182.204,409.179 178.871,406.846 175.5,404.5C 171.961,403.079 169.294,400.745 167.5,397.5C 165.839,388.188 163.172,379.188 159.5,370.5C 159.507,363.967 160.507,357.634 162.5,351.5C 161.115,342.967 159.782,334.467 158.5,326C 159.022,325.439 159.355,324.772 159.5,324C 158.249,320.781 156.583,317.947 154.5,315.5C 150.952,302.526 149.618,289.192 150.5,275.5C 150.907,269.839 151.24,264.172 151.5,258.5C 151.5,257.5 151.5,256.5 151.5,255.5C 152.404,254.791 152.737,253.791 152.5,252.5C 153.158,251.602 153.824,250.602 154.5,249.5C 156.643,250.754 158.643,250.754 160.5,249.5C 162.104,250.287 162.771,251.62 162.5,253.5C 160.517,253.157 159.183,253.824 158.5,255.5C 157.167,255.5 155.833,255.5 154.5,255.5C 154.162,258.011 154.162,260.345 154.5,262.5C 153.531,264.573 152.865,266.739 152.5,269C 154.13,275.058 154.797,281.224 154.5,287.5C 153.5,287.5 152.5,287.5 151.5,287.5C 151.421,290.271 151.921,292.937 153,295.5C 153.333,295.167 153.667,294.833 154,294.5C 154.998,297.028 155.831,297.028 156.5,294.5C 157.308,286.838 158.141,279.171 159,271.5C 159.333,274.833 159.667,278.167 160,281.5C 160.333,281.167 160.667,280.833 161,280.5C 163.604,285.482 164.104,290.649 162.5,296C 164.202,298.235 165.202,300.735 165.5,303.5C 171.621,303.09 177.621,303.59 183.5,305C 181.567,305.251 179.734,305.751 178,306.5C 177.301,308.074 177.635,309.407 179,310.5C 188.423,309.89 197.923,309.89 207.5,310.5C 207.5,311.5 207.5,312.5 207.5,313.5C 213.271,312.887 218.604,313.554 223.5,315.5C 223.5,316.5 223.5,317.5 223.5,318.5C 222.5,318.5 221.5,318.5 220.5,318.5C 220.67,319.822 220.337,320.989 219.5,322C 215.558,322.993 211.558,323.66 207.5,324C 210.167,324.333 212.833,324.667 215.5,325C 211.833,325.333 208.167,325.667 204.5,326C 204.167,326.333 203.833,326.667 203.5,327C 204.793,327.49 206.127,327.657 207.5,327.5C 207.351,328.552 207.517,329.552 208,330.5C 212.763,328.537 217.597,326.704 222.5,325C 223.406,323.301 223.739,321.467 223.5,319.5C 226.247,319.813 228.914,319.48 231.5,318.5C 232.892,314.94 235.392,312.607 239,311.5C 239.497,308.854 239.664,306.187 239.5,303.5C 242.681,303.998 245.347,303.165 247.5,301C 246.196,300.196 245.529,299.029 245.5,297.5C 246.8,294.103 248.466,290.936 250.5,288C 250.659,285.437 250.325,282.77 249.5,280C 251.054,277.776 252.054,275.276 252.5,272.5C 253.325,271.614 254.325,271.281 255.5,271.5C 255.2,266.999 255.2,262.333 255.5,257.5C 253.61,257.703 252.11,257.037 251,255.5C 248.616,253.121 247.116,250.287 246.5,247C 244.19,246.503 241.857,246.337 239.5,246.5C 240.055,242.416 239.055,241.749 236.5,244.5C 235.576,242.61 234.243,241.11 232.5,240C 234.5,240 236.5,240 238.5,240C 237.167,238.333 235.833,236.667 234.5,235C 230.355,232.353 226.355,229.519 222.5,226.5C 221.548,228.045 221.215,229.712 221.5,231.5C 216.833,229.833 212.167,228.167 207.5,226.5C 207.5,225.5 207.5,224.5 207.5,223.5C 206.5,223.5 205.5,223.5 204.5,223.5C 204.698,220.23 203.198,218.23 200,217.5C 198.455,218.821 197.289,218.488 196.5,216.5C 201.296,209.258 199.629,206.258 191.5,207.5C 191.5,206.5 191.5,205.5 191.5,204.5C 196.479,202.54 201.479,200.54 206.5,198.5C 207.251,199.376 207.751,200.376 208,201.5C 209,200.833 210,200.167 211,199.5C 212.11,201.037 213.61,201.703 215.5,201.5C 215.441,198.951 216.441,196.951 218.5,195.5C 217.833,194.5 217.167,193.5 216.5,192.5C 220.333,192.167 224.167,191.833 228,191.5C 239.135,192.967 250.302,193.467 261.5,193C 262.325,191.312 263.325,191.145 264.5,192.5C 266.776,191.787 269.109,191.287 271.5,191C 276.122,185.735 281.789,183.901 288.5,185.5C 289.5,184.833 290.5,184.167 291.5,183.5C 292.48,184.981 293.647,186.315 295,187.5C 301.083,186.545 307.083,186.545 313,187.5C 316.737,189.272 320.571,190.772 324.5,192C 326,192.833 327.167,194 328,195.5C 329.612,192.521 332.112,191.188 335.5,191.5C 335.201,193.604 335.534,195.604 336.5,197.5C 338.197,198.364 339.363,199.697 340,201.5C 340.495,204.531 340.329,207.531 339.5,210.5C 338.167,210.5 336.833,210.5 335.5,210.5C 335.719,209.325 335.386,208.325 334.5,207.5C 332.648,210.431 330.315,212.931 327.5,215C 324.152,215.561 321.485,217.061 319.5,219.5 Z"/></g>
<g><path style="opacity:1" fill="#708694" d="M 363.5,260.5 C 362.236,306.703 361.736,353.037 362,399.5C 361.803,407.969 359.303,415.636 354.5,422.5C 353.06,423.952 351.394,424.952 349.5,425.5C 353.237,420.576 356.403,415.242 359,409.5C 360.669,398.033 360.836,386.699 359.5,375.5C 358.989,343.118 359.989,310.784 362.5,278.5C 361.63,264.18 361.297,249.847 361.5,235.5C 362.623,223.34 362.623,211.34 361.5,199.5C 358.1,191.714 353.434,184.714 347.5,178.5C 347.56,177.957 347.893,177.624 348.5,177.5C 354.068,183.636 358.901,190.302 363,197.5C 363.964,202.786 364.464,208.12 364.5,213.5C 363.813,225.666 363.146,237.832 362.5,250C 362.501,253.683 362.835,257.183 363.5,260.5 Z"/></g>
<g><path style="opacity:1" fill="#3a3235" d="M 149.5,245.5 C 151.402,248.337 152.069,251.671 151.5,255.5C 151.5,256.5 151.5,257.5 151.5,258.5C 151.167,258.5 150.833,258.5 150.5,258.5C 150.649,257.448 150.483,256.448 150,255.5C 146.608,269.638 145.108,283.971 145.5,298.5C 144.548,287.67 143.882,276.67 143.5,265.5C 144.688,266.684 145.855,266.684 147,265.5C 148.032,258.849 148.865,252.183 149.5,245.5 Z"/></g>
<g><path style="opacity:1" fill="#8f7a82" d="M 150.5,258.5 C 150.833,258.5 151.167,258.5 151.5,258.5C 151.24,264.172 150.907,269.839 150.5,275.5C 150.167,275.5 149.833,275.5 149.5,275.5C 149.76,269.828 150.093,264.161 150.5,258.5 Z"/></g>
<g><path style="opacity:1" fill="#7a878f" d="M 359.5,204.5 C 360.167,204.5 360.5,204.833 360.5,205.5C 360.173,215.681 360.506,225.681 361.5,235.5C 361.297,249.847 361.63,264.18 362.5,278.5C 359.989,310.784 358.989,343.118 359.5,375.5C 359.826,384.017 359.493,392.35 358.5,400.5C 358.609,337.832 358.942,275.165 359.5,212.5C 359.5,209.833 359.5,207.167 359.5,204.5 Z"/></g>
<g><path style="opacity:1" fill="#baacad" d="M 133.5,259.5 C 134.267,263.415 134.767,267.415 135,271.5C 135.308,270.692 135.808,270.025 136.5,269.5C 137.114,274.242 137.947,278.909 139,283.5C 139.789,285.712 139.622,287.712 138.5,289.5C 138.5,287.833 138.5,286.167 138.5,284.5C 137.07,284.421 135.736,284.754 134.5,285.5C 133.668,277.521 133.168,269.521 133,261.5C 131.644,260.62 130.144,260.286 128.5,260.5C 128.616,263.86 128.949,267.193 129.5,270.5C 127.621,267.144 127.121,263.477 128,259.5C 129.828,258.248 131.661,258.248 133.5,259.5 Z"/></g>
<g><path style="opacity:1" fill="#968a8f" d="M 133.5,259.5 C 134.833,259.5 136.167,259.5 137.5,259.5C 138.167,259.5 138.5,259.833 138.5,260.5C 137.503,260.47 136.836,260.97 136.5,262C 137.317,263.49 138.15,264.99 139,266.5C 139.429,273.006 139.929,279.506 140.5,286C 140.519,289.652 139.852,293.152 138.5,296.5C 137.18,297.942 135.514,298.608 133.5,298.5C 133.5,302.833 133.5,307.167 133.5,311.5C 132.382,305.314 131.382,298.981 130.5,292.5C 132.481,294.734 134.815,294.9 137.5,293C 138.337,291.989 138.67,290.822 138.5,289.5C 139.622,287.712 139.789,285.712 139,283.5C 137.947,278.909 137.114,274.242 136.5,269.5C 135.808,270.025 135.308,270.692 135,271.5C 134.767,267.415 134.267,263.415 133.5,259.5 Z"/></g>
<g><path style="opacity:1" fill="#eadbda" d="M 275.5,282.5 C 275.5,284.167 275.5,285.833 275.5,287.5C 273.645,287.272 272.812,287.939 273,289.5C 277.5,293.833 282,298.167 286.5,302.5C 294.479,303.332 302.479,303.832 310.5,304C 317.891,310.079 326.224,312.579 335.5,311.5C 335.5,310.167 335.5,308.833 335.5,307.5C 333.143,307.663 330.81,307.497 328.5,307C 331.095,306.774 333.595,306.274 336,305.5C 339.058,307.957 341.392,310.957 343,314.5C 344.738,324.25 346.238,334.084 347.5,344C 345.9,355.066 344.733,366.233 344,377.5C 343.581,378.672 342.915,379.672 342,380.5C 341.333,388.5 341.333,396.5 342,404.5C 342.333,404.167 342.667,403.833 343,403.5C 345.184,406.334 344.684,407.668 341.5,407.5C 342.131,412.175 340.131,414.842 335.5,415.5C 335.5,416.5 335.5,417.5 335.5,418.5C 333.131,418.149 330.797,417.982 328.5,418C 325.695,420.599 323.361,423.599 321.5,427C 318.71,427.561 316.377,428.894 314.5,431C 310.789,431.175 307.122,431.675 303.5,432.5C 305.482,433.216 307.149,434.383 308.5,436C 307.975,436.692 307.308,437.192 306.5,437.5C 304.253,436.626 301.92,436.292 299.5,436.5C 299.579,437.93 299.246,439.264 298.5,440.5C 296.058,441.994 293.391,442.994 290.5,443.5C 289.833,443.167 289.167,442.833 288.5,442.5C 287.41,443.727 286.076,444.56 284.5,445C 284.833,445.333 285.167,445.667 285.5,446C 282.635,446.837 279.802,447.67 277,448.5C 276.667,448.167 276.333,447.833 276,447.5C 275.544,448.744 276.044,449.577 277.5,450C 276.5,450.333 275.5,450.667 274.5,451C 276.81,451.497 279.143,451.663 281.5,451.5C 281.158,452.338 280.492,452.672 279.5,452.5C 276.668,453.721 273.835,453.721 271,452.5C 268.343,453.077 265.843,454.077 263.5,455.5C 261.144,453.31 258.644,451.31 256,449.5C 253.075,450.323 250.242,449.823 247.5,448C 242.833,447.667 238.167,447.333 233.5,447C 232.789,445.745 231.956,444.579 231,443.5C 230.586,443.957 230.086,444.291 229.5,444.5C 227.224,443.787 224.891,443.287 222.5,443C 217.55,439.805 212.55,437.305 207.5,435.5C 207.5,434.5 207.5,433.5 207.5,432.5C 211.683,434.757 216.016,436.757 220.5,438.5C 222.936,439.871 225.603,440.871 228.5,441.5C 229.386,442.776 230.386,442.776 231.5,441.5C 230.529,440.038 230.862,438.705 232.5,437.5C 238.317,440.861 244.651,442.528 251.5,442.5C 259.291,440.891 266.957,441.224 274.5,443.5C 275.5,443.167 276.5,442.833 277.5,442.5C 276.556,440.312 274.889,438.979 272.5,438.5C 271.167,437.5 271.167,436.5 272.5,435.5C 275.034,434.212 277.534,434.212 280,435.5C 282.01,434.152 284.01,432.818 286,431.5C 286.945,431.905 287.612,432.572 288,433.5C 288.333,432.167 288.667,430.833 289,429.5C 289.725,430.059 290.558,430.392 291.5,430.5C 295.274,430.14 295.94,428.806 293.5,426.5C 295.88,422.868 298.714,422.535 302,425.5C 307.41,424.302 310.577,420.969 311.5,415.5C 312.873,415.657 314.207,415.49 315.5,415C 314.994,412.468 313.827,410.302 312,408.5C 311.825,404.789 311.325,401.122 310.5,397.5C 309.914,397.291 309.414,396.957 309,396.5C 307.601,397.227 306.101,397.727 304.5,398C 304.833,398.333 305.167,398.667 305.5,399C 304.141,400.204 303.141,401.704 302.5,403.5C 300.076,404.423 298.076,405.923 296.5,408C 295.207,408.49 293.873,408.657 292.5,408.5C 292.5,409.5 292.5,410.5 292.5,411.5C 289.466,411.817 288.466,410.817 289.5,408.5C 290.613,407.306 291.613,405.973 292.5,404.5C 293.736,405.246 295.07,405.579 296.5,405.5C 296.5,404.5 296.5,403.5 296.5,402.5C 300.822,402.251 301.822,400.584 299.5,397.5C 300.63,396.378 301.297,395.044 301.5,393.5C 301.842,392.662 302.508,392.328 303.5,392.5C 305.985,391.26 305.985,390.26 303.5,389.5C 303.5,389.167 303.5,388.833 303.5,388.5C 303.082,387.778 302.416,387.278 301.5,387C 296.845,386.501 292.179,386.334 287.5,386.5C 286.048,385.698 284.382,385.198 282.5,385C 272.839,384.5 263.172,384.334 253.5,384.5C 254.091,383.849 254.757,383.182 255.5,382.5C 258.167,382.167 260.833,381.833 263.5,381.5C 276.185,382.504 288.852,383.337 301.5,384C 297.129,383.828 292.796,383.328 288.5,382.5C 287.626,380.253 287.292,377.92 287.5,375.5C 290.167,375.5 292.833,375.5 295.5,375.5C 296.167,379.5 296.833,379.5 297.5,375.5C 299.5,375.5 301.5,375.5 303.5,375.5C 303.5,374.167 303.5,372.833 303.5,371.5C 308.844,371.334 314.177,371.501 319.5,372C 320.025,372.692 320.692,373.192 321.5,373.5C 326.402,370.143 329.069,365.476 329.5,359.5C 328.5,359.5 327.5,359.5 326.5,359.5C 326.5,356.833 326.5,354.167 326.5,351.5C 324.833,351.5 323.167,351.5 321.5,351.5C 320.833,349.5 320.167,347.5 319.5,345.5C 314.167,345.5 308.833,345.5 303.5,345.5C 303.5,347.5 303.5,349.5 303.5,351.5C 301.712,351.215 300.045,351.548 298.5,352.5C 297.761,355.65 296.261,358.316 294,360.5C 293.5,360.333 293,360.167 292.5,360C 293.806,356.198 293.806,352.365 292.5,348.5C 289.682,347.119 288.182,348.119 288,351.5C 287.667,350.5 287.333,349.5 287,348.5C 286.259,349.641 285.425,349.641 284.5,348.5C 284.251,349.582 284.085,350.915 284,352.5C 283.583,351.244 282.75,350.577 281.5,350.5C 279.389,349.258 277.389,349.258 275.5,350.5C 269.244,352.461 262.911,354.128 256.5,355.5C 253.15,355.665 249.817,355.498 246.5,355C 245.027,354.29 244.36,353.124 244.5,351.5C 250.206,351.829 255.872,351.495 261.5,350.5C 264.024,344.9 268.358,341.734 274.5,341C 273.552,340.517 272.552,340.351 271.5,340.5C 271.5,339.5 271.5,338.5 271.5,337.5C 268.728,337.78 266.228,337.113 264,335.5C 263.333,329.167 263.333,322.833 264,316.5C 264.876,318.725 266.043,320.725 267.5,322.5C 269.079,319.732 270.412,316.732 271.5,313.5C 271.541,308.339 271.374,303.006 271,297.5C 268.609,296.571 266.775,295.071 265.5,293C 265.673,286.329 269.006,282.829 275.5,282.5 Z"/></g>
<g><path style="opacity:1" fill="#e3e0d8" d="M 344.5,185.5 C 344.833,185.5 345.167,185.5 345.5,185.5C 351.873,190.58 356.539,196.913 359.5,204.5C 359.5,207.167 359.5,209.833 359.5,212.5C 357.796,270.991 357.129,329.658 357.5,388.5C 355.366,387.297 354.032,385.463 353.5,383C 354.308,382.692 354.975,382.192 355.5,381.5C 353.077,378.794 351.91,379.461 352,383.5C 351.137,381.251 351.637,379.418 353.5,378C 352.544,358.598 352.544,339.765 353.5,321.5C 348.766,316.369 344.766,310.703 341.5,304.5C 334.05,303.986 326.717,303.652 319.5,303.5C 319.64,301.876 318.973,300.71 317.5,300C 310.481,297.767 303.481,295.6 296.5,293.5C 294.481,285.57 292.148,277.737 289.5,270C 289.449,265.617 291.449,262.784 295.5,261.5C 295.336,264.187 295.503,266.854 296,269.5C 296.465,268.069 297.299,266.903 298.5,266C 302.821,265.501 307.154,265.334 311.5,265.5C 316.214,267.691 321.214,269.358 326.5,270.5C 325.332,272.217 323.665,272.884 321.5,272.5C 321.5,273.5 321.5,274.5 321.5,275.5C 317.894,275.789 314.394,275.456 311,274.5C 310.308,275.025 309.808,275.692 309.5,276.5C 310.711,278.422 312.044,280.255 313.5,282C 318.334,285.18 322.834,288.68 327,292.5C 327.333,291.833 327.667,291.167 328,290.5C 329.019,291.687 330.186,292.687 331.5,293.5C 334.5,290.833 337.5,288.167 340.5,285.5C 342.876,287.627 343.876,290.293 343.5,293.5C 344.833,293.5 346.167,293.5 347.5,293.5C 347.739,291.533 347.406,289.699 346.5,288C 346.833,287.833 347.167,287.667 347.5,287.5C 348.584,288.665 349.417,289.998 350,291.5C 351.583,289.089 352.583,286.422 353,283.5C 353.49,284.793 353.657,286.127 353.5,287.5C 354.5,287.5 355.5,287.5 356.5,287.5C 356.831,279.14 356.498,270.807 355.5,262.5C 353.514,264.783 352.347,264.116 352,260.5C 351.601,260.728 351.435,261.062 351.5,261.5C 348.224,260.878 346.891,258.878 347.5,255.5C 348.833,255.5 350.167,255.5 351.5,255.5C 351.337,253.143 351.503,250.81 352,248.5C 354.293,243.027 354.46,237.36 352.5,231.5C 355.125,230.542 355.125,229.376 352.5,228C 354,226.5 355.5,225 357,223.5C 357.709,218.575 356.876,213.908 354.5,209.5C 352.38,214.864 351.047,214.531 350.5,208.5C 348.445,211.001 346.111,212.335 343.5,212.5C 343.5,210.833 343.5,209.167 343.5,207.5C 345.604,207.799 347.604,207.466 349.5,206.5C 348.111,202.875 346.111,199.708 343.5,197C 344.554,195.612 344.72,194.112 344,192.5C 341.614,189.955 338.78,188.288 335.5,187.5C 335.147,185.365 335.98,184.032 338,183.5C 339.419,184.921 341.086,185.921 343,186.5C 343.765,186.43 344.265,186.097 344.5,185.5 Z"/></g>
<g><path style="opacity:1" fill="#e3e3d8" d="M 311.5,265.5 C 314.498,266.342 317.498,266.842 320.5,267C 318.699,266.683 318.366,266.016 319.5,265C 324.833,264.333 330.167,264.333 335.5,265C 343.474,266.151 343.474,266.984 335.5,267.5C 335.5,268.833 335.5,270.167 335.5,271.5C 338.525,271.123 341.525,270.956 344.5,271C 339.772,273.364 335.105,275.697 330.5,278C 335.072,278.887 339.405,278.22 343.5,276C 345.382,273.026 348.049,271.526 351.5,271.5C 351.5,268.167 351.5,264.833 351.5,261.5C 351.435,261.062 351.601,260.728 352,260.5C 352.347,264.116 353.514,264.783 355.5,262.5C 356.498,270.807 356.831,279.14 356.5,287.5C 355.5,287.5 354.5,287.5 353.5,287.5C 353.657,286.127 353.49,284.793 353,283.5C 352.583,286.422 351.583,289.089 350,291.5C 349.417,289.998 348.584,288.665 347.5,287.5C 347.167,287.667 346.833,287.833 346.5,288C 347.406,289.699 347.739,291.533 347.5,293.5C 346.167,293.5 344.833,293.5 343.5,293.5C 343.876,290.293 342.876,287.627 340.5,285.5C 337.5,288.167 334.5,290.833 331.5,293.5C 330.186,292.687 329.019,291.687 328,290.5C 327.667,291.167 327.333,291.833 327,292.5C 322.834,288.68 318.334,285.18 313.5,282C 312.044,280.255 310.711,278.422 309.5,276.5C 309.808,275.692 310.308,275.025 311,274.5C 314.394,275.456 317.894,275.789 321.5,275.5C 321.5,274.5 321.5,273.5 321.5,272.5C 323.665,272.884 325.332,272.217 326.5,270.5C 321.214,269.358 316.214,267.691 311.5,265.5 Z"/></g>
<g><path style="opacity:1" fill="#d3c3c3" d="M 138.5,289.5 C 138.67,290.822 138.337,291.989 137.5,293C 134.815,294.9 132.481,294.734 130.5,292.5C 129.57,285.223 129.236,277.89 129.5,270.5C 128.949,267.193 128.616,263.86 128.5,260.5C 130.144,260.286 131.644,260.62 133,261.5C 133.168,269.521 133.668,277.521 134.5,285.5C 135.736,284.754 137.07,284.421 138.5,284.5C 138.5,286.167 138.5,287.833 138.5,289.5 Z"/></g>
<g><path style="opacity:1" fill="#d5cbc9" d="M 138.5,260.5 C 141.2,261.2 142.867,262.866 143.5,265.5C 143.882,276.67 144.548,287.67 145.5,298.5C 145.5,299.167 145.5,299.833 145.5,300.5C 146.373,306.627 143.707,309.627 137.5,309.5C 137.739,305.158 138.073,300.824 138.5,296.5C 139.852,293.152 140.519,289.652 140.5,286C 139.929,279.506 139.429,273.006 139,266.5C 138.15,264.99 137.317,263.49 136.5,262C 136.836,260.97 137.503,260.47 138.5,260.5 Z"/></g>
<g><path style="opacity:1" fill="#2b1921" d="M 150.5,258.5 C 150.093,264.161 149.76,269.828 149.5,275.5C 149.334,284.173 149.5,292.84 150,301.5C 151.347,307.095 152.18,312.762 152.5,318.5C 152.662,320.527 152.495,322.527 152,324.5C 151.802,322.618 151.302,320.952 150.5,319.5C 149.48,314.753 148.146,310.086 146.5,305.5C 146.784,303.585 146.451,301.919 145.5,300.5C 145.5,299.833 145.5,299.167 145.5,298.5C 145.108,283.971 146.608,269.638 150,255.5C 150.483,256.448 150.649,257.448 150.5,258.5 Z"/></g>
<g><path style="opacity:1" fill="#b1adb3" d="M 138.5,296.5 C 138.073,300.824 137.739,305.158 137.5,309.5C 143.707,309.627 146.373,306.627 145.5,300.5C 146.451,301.919 146.784,303.585 146.5,305.5C 148.165,311.986 145.832,314.819 139.5,314C 137.372,313.345 135.372,312.511 133.5,311.5C 133.5,307.167 133.5,302.833 133.5,298.5C 135.514,298.608 137.18,297.942 138.5,296.5 Z"/></g>
<g><path style="opacity:1" fill="#43454f" d="M 142.5,256.5 C 140.469,256.972 138.802,257.972 137.5,259.5C 136.167,259.5 134.833,259.5 133.5,259.5C 131.661,258.248 129.828,258.248 128,259.5C 127.121,263.477 127.621,267.144 129.5,270.5C 129.236,277.89 129.57,285.223 130.5,292.5C 131.382,298.981 132.382,305.314 133.5,311.5C 135.372,312.511 137.372,313.345 139.5,314C 145.832,314.819 148.165,311.986 146.5,305.5C 148.146,310.086 149.48,314.753 150.5,319.5C 150.5,321.167 150.5,322.833 150.5,324.5C 149.282,322.172 148.282,319.672 147.5,317C 144.691,316.866 141.857,317.032 139,317.5C 136.256,317.59 133.756,316.923 131.5,315.5C 130.093,313.692 128.926,311.692 128,309.5C 126.509,292.51 125.509,275.51 125,258.5C 125.5,258 126,257.5 126.5,257C 131.823,256.501 137.156,256.334 142.5,256.5 Z"/></g>
<g><path style="opacity:1" fill="#cab2b7" d="M 149.5,275.5 C 149.833,275.5 150.167,275.5 150.5,275.5C 149.618,289.192 150.952,302.526 154.5,315.5C 154.5,320.5 154.5,325.5 154.5,330.5C 153.833,326.5 153.167,322.5 152.5,318.5C 152.18,312.762 151.347,307.095 150,301.5C 149.5,292.84 149.334,284.173 149.5,275.5 Z"/></g>
<g><path style="opacity:1" fill="#32272e" d="M 152.5,318.5 C 153.167,322.5 153.833,326.5 154.5,330.5C 154.5,332.167 154.5,333.833 154.5,335.5C 154.883,347.414 156.217,359.081 158.5,370.5C 158.5,371.833 158.5,373.167 158.5,374.5C 157.414,374.62 156.747,375.287 156.5,376.5C 158.137,382.103 159.47,387.77 160.5,393.5C 158.892,390.79 157.725,387.79 157,384.5C 153.407,364.666 151.241,344.666 150.5,324.5C 150.5,322.833 150.5,321.167 150.5,319.5C 151.302,320.952 151.802,322.618 152,324.5C 152.495,322.527 152.662,320.527 152.5,318.5 Z"/></g>
<g><path style="opacity:1" fill="#9e8a8d" d="M 275.5,350.5 C 277.389,349.258 279.389,349.258 281.5,350.5C 281.843,352.483 281.176,353.817 279.5,354.5C 280.773,351.099 279.44,349.766 275.5,350.5 Z"/></g>
<g><path style="opacity:1" fill="#b6a1a8" d="M 154.5,335.5 C 155.812,337.743 156.478,340.41 156.5,343.5C 157.415,352.485 158.082,361.485 158.5,370.5C 156.217,359.081 154.883,347.414 154.5,335.5 Z"/></g>
<g><path style="opacity:1" fill="#ddc4c4" d="M 154.5,315.5 C 156.583,317.947 158.249,320.781 159.5,324C 159.355,324.772 159.022,325.439 158.5,326C 159.782,334.467 161.115,342.967 162.5,351.5C 160.507,357.634 159.507,363.967 159.5,370.5C 159.167,370.5 158.833,370.5 158.5,370.5C 158.082,361.485 157.415,352.485 156.5,343.5C 156.478,340.41 155.812,337.743 154.5,335.5C 154.5,333.833 154.5,332.167 154.5,330.5C 154.5,325.5 154.5,320.5 154.5,315.5 Z"/></g>
<g><path style="opacity:1" fill="#30131f" d="M 275.5,350.5 C 279.44,349.766 280.773,351.099 279.5,354.5C 273.257,356.814 266.924,358.981 260.5,361C 256.779,361.678 253.112,361.511 249.5,360.5C 249.527,358.801 250.194,357.467 251.5,356.5C 253.415,356.784 255.081,356.451 256.5,355.5C 262.911,354.128 269.244,352.461 275.5,350.5 Z"/></g>
<g><path style="opacity:1" fill="#95787e" d="M 251.5,356.5 C 250.194,357.467 249.527,358.801 249.5,360.5C 247.896,359.713 247.229,358.38 247.5,356.5C 248.833,356.5 250.167,356.5 251.5,356.5 Z"/></g>
<g><path style="opacity:1" fill="#b9a5aa" d="M 158.5,370.5 C 158.833,370.5 159.167,370.5 159.5,370.5C 163.172,379.188 165.839,388.188 167.5,397.5C 166.21,396.942 165.377,395.942 165,394.5C 162.525,387.895 160.358,381.229 158.5,374.5C 158.5,373.167 158.5,371.833 158.5,370.5 Z"/></g>
<g><path style="opacity:1" fill="#bfc2c1" d="M 359.5,212.5 C 358.942,275.165 358.609,337.832 358.5,400.5C 358.182,406.094 356.516,411.094 353.5,415.5C 356.86,406.837 358.193,397.837 357.5,388.5C 357.129,329.658 357.796,270.991 359.5,212.5 Z"/></g>
<g><path style="opacity:1" fill="#e59899" d="M 249.5,384.5 C 243.833,384.5 238.167,384.5 232.5,384.5C 232.5,385.833 232.5,387.167 232.5,388.5C 230.855,387.521 229.521,386.188 228.5,384.5C 235.656,383.181 242.656,383.181 249.5,384.5 Z"/></g>
<g><path style="opacity:1" fill="#fdc3b9" d="M 250.5,385.5 C 250.5,385.167 250.5,384.833 250.5,384.5C 251.5,384.5 252.5,384.5 253.5,384.5C 263.172,384.334 272.839,384.5 282.5,385C 284.382,385.198 286.048,385.698 287.5,386.5C 275.189,385.63 262.856,385.296 250.5,385.5 Z"/></g>
<g><path style="opacity:1" fill="#cd261f" d="M 249.5,384.5 C 249.833,384.5 250.167,384.5 250.5,384.5C 250.5,384.833 250.5,385.167 250.5,385.5C 246.818,385.335 243.152,385.501 239.5,386C 238.376,386.249 237.376,386.749 236.5,387.5C 238.051,391.356 239.051,395.356 239.5,399.5C 237.94,397.844 236.94,395.844 236.5,393.5C 235.92,391.251 234.587,389.585 232.5,388.5C 232.5,387.167 232.5,385.833 232.5,384.5C 238.167,384.5 243.833,384.5 249.5,384.5 Z"/></g>
<g><path style="opacity:1" fill="#fabeb6" d="M 287.5,386.5 C 292.179,386.334 296.845,386.501 301.5,387C 302.416,387.278 303.082,387.778 303.5,388.5C 300.214,387.793 296.881,387.46 293.5,387.5C 291.265,387.795 289.265,387.461 287.5,386.5 Z"/></g>
<g><path style="opacity:1" fill="#1d1821" d="M 158.5,374.5 C 160.358,381.229 162.525,387.895 165,394.5C 165.377,395.942 166.21,396.942 167.5,397.5C 169.294,400.745 171.961,403.079 175.5,404.5C 174.791,405.404 173.791,405.737 172.5,405.5C 172.5,406.5 172.5,407.5 172.5,408.5C 171.833,408.167 171.167,407.833 170.5,407.5C 168.853,404.527 166.853,401.86 164.5,399.5C 162.774,397.772 161.441,395.772 160.5,393.5C 159.47,387.77 158.137,382.103 156.5,376.5C 156.747,375.287 157.414,374.62 158.5,374.5 Z"/></g>
<g><path style="opacity:1" fill="#e9928e" d="M 232.5,388.5 C 234.587,389.585 235.92,391.251 236.5,393.5C 234.413,392.415 233.08,390.749 232.5,388.5 Z"/></g>
<g><path style="opacity:1" fill="#6b4248" d="M 303.5,389.5 C 305.985,390.26 305.985,391.26 303.5,392.5C 303.5,391.5 303.5,390.5 303.5,389.5 Z"/></g>
<g><path style="opacity:1" fill="#961610" d="M 293.5,387.5 C 296.881,387.46 300.214,387.793 303.5,388.5C 303.5,388.833 303.5,389.167 303.5,389.5C 303.5,390.5 303.5,391.5 303.5,392.5C 302.508,392.328 301.842,392.662 301.5,393.5C 300.508,393.328 299.842,393.662 299.5,394.5C 299.167,394.5 298.833,394.5 298.5,394.5C 296.525,392.91 294.192,391.743 291.5,391C 293.952,390.71 296.285,390.044 298.5,389C 297.552,388.517 296.552,388.351 295.5,388.5C 294.508,388.672 293.842,388.338 293.5,387.5 Z"/></g>
<g><path style="opacity:1" fill="#bb0202" d="M 295.5,388.5 C 296.552,388.351 297.552,388.517 298.5,389C 296.285,390.044 293.952,390.71 291.5,391C 294.192,391.743 296.525,392.91 298.5,394.5C 298.167,394.5 297.833,394.5 297.5,394.5C 287.587,393.427 277.42,393.427 267,394.5C 264.53,394.66 262.364,393.993 260.5,392.5C 261.025,391.808 261.692,391.308 262.5,391C 273.663,390.263 284.663,389.429 295.5,388.5 Z"/></g>
<g><path style="opacity:1" fill="#e96768" d="M 297.5,394.5 C 297.833,394.5 298.167,394.5 298.5,394.5C 298.833,394.5 299.167,394.5 299.5,394.5C 298.136,396.191 296.803,397.858 295.5,399.5C 295.392,397.486 296.058,395.82 297.5,394.5 Z"/></g>
<g><path style="opacity:1" fill="#dc0d06" d="M 250.5,385.5 C 262.856,385.296 275.189,385.63 287.5,386.5C 289.265,387.461 291.265,387.795 293.5,387.5C 293.842,388.338 294.508,388.672 295.5,388.5C 284.663,389.429 273.663,390.263 262.5,391C 261.692,391.308 261.025,391.808 260.5,392.5C 262.364,393.993 264.53,394.66 267,394.5C 277.42,393.427 287.587,393.427 297.5,394.5C 296.058,395.82 295.392,397.486 295.5,399.5C 293.371,401.95 290.704,403.617 287.5,404.5C 283.443,405.688 279.443,406.688 275.5,407.5C 268.159,407.666 260.826,407.5 253.5,407C 249.941,405.37 246.608,403.37 243.5,401C 242.207,400.51 240.873,400.343 239.5,400.5C 239.5,400.167 239.5,399.833 239.5,399.5C 239.051,395.356 238.051,391.356 236.5,387.5C 237.376,386.749 238.376,386.249 239.5,386C 243.152,385.501 246.818,385.335 250.5,385.5 Z"/></g>
<g><path style="opacity:1" fill="#c5312d" d="M 239.5,400.5 C 240.873,400.343 242.207,400.51 243.5,401C 246.608,403.37 249.941,405.37 253.5,407C 260.826,407.5 268.159,407.666 275.5,407.5C 274.833,408.167 274.167,408.833 273.5,409.5C 260.573,411.735 249.24,408.735 239.5,400.5 Z"/></g>
<g><path style="opacity:1" fill="#be1d1d" d="M 287.5,404.5 C 286.167,405.5 284.833,406.5 283.5,407.5C 280.833,407.5 278.167,407.5 275.5,407.5C 279.443,406.688 283.443,405.688 287.5,404.5 Z"/></g>
<g><path style="opacity:1" fill="#f2cbce" d="M 301.5,393.5 C 301.297,395.044 300.63,396.378 299.5,397.5C 301.822,400.584 300.822,402.251 296.5,402.5C 296.5,403.5 296.5,404.5 296.5,405.5C 295.07,405.579 293.736,405.246 292.5,404.5C 291.613,405.973 290.613,407.306 289.5,408.5C 287.735,407.539 285.735,407.205 283.5,407.5C 284.833,406.5 286.167,405.5 287.5,404.5C 290.704,403.617 293.371,401.95 295.5,399.5C 296.803,397.858 298.136,396.191 299.5,394.5C 299.842,393.662 300.508,393.328 301.5,393.5 Z"/></g>
<g><path style="opacity:1" fill="#d99193" d="M 275.5,407.5 C 278.167,407.5 280.833,407.5 283.5,407.5C 280.373,408.581 277.04,409.247 273.5,409.5C 274.167,408.833 274.833,408.167 275.5,407.5 Z"/></g>
<g><path style="opacity:1" fill="#412d34" d="M 175.5,404.5 C 178.871,406.846 182.204,409.179 185.5,411.5C 184.761,411.369 184.094,411.536 183.5,412C 185.65,413.192 186.317,414.692 185.5,416.5C 181.228,414.226 177.228,411.559 173.5,408.5C 173.167,408.5 172.833,408.5 172.5,408.5C 172.5,407.5 172.5,406.5 172.5,405.5C 173.791,405.737 174.791,405.404 175.5,404.5 Z"/></g>
<g><path style="opacity:1" fill="#3f4348" d="M 170.5,407.5 C 171.167,407.833 171.833,408.167 172.5,408.5C 172.833,408.5 173.167,408.5 173.5,408.5C 173.5,411.5 173.5,414.5 173.5,417.5C 173.5,421.167 173.5,424.833 173.5,428.5C 172.508,435.982 172.175,443.648 172.5,451.5C 171.833,450.167 171.167,448.833 170.5,447.5C 170.5,434.167 170.5,420.833 170.5,407.5 Z"/></g>
<g><path style="opacity:1" fill="#2c1921" d="M 185.5,411.5 C 198.035,419.596 210.368,427.929 222.5,436.5C 222.5,437.833 221.833,438.5 220.5,438.5C 216.016,436.757 211.683,434.757 207.5,432.5C 199.812,427.656 192.479,422.323 185.5,416.5C 186.317,414.692 185.65,413.192 183.5,412C 184.094,411.536 184.761,411.369 185.5,411.5 Z"/></g>
<g><path style="opacity:1" fill="#747881" d="M 359.5,375.5 C 360.836,386.699 360.669,398.033 359,409.5C 356.403,415.242 353.237,420.576 349.5,425.5C 342.957,429.976 335.957,433.809 328.5,437C 327.251,437.74 326.251,437.573 325.5,436.5C 331.322,433.088 337.322,429.921 343.5,427C 346.698,422.974 350.032,419.141 353.5,415.5C 356.516,411.094 358.182,406.094 358.5,400.5C 359.493,392.35 359.826,384.017 359.5,375.5 Z"/></g>
<g><path style="opacity:1" fill="#e5dcd6" d="M 173.5,408.5 C 177.228,411.559 181.228,414.226 185.5,416.5C 192.479,422.323 199.812,427.656 207.5,432.5C 207.5,433.5 207.5,434.5 207.5,435.5C 212.55,437.305 217.55,439.805 222.5,443C 224.891,443.287 227.224,443.787 229.5,444.5C 230.086,444.291 230.586,443.957 231,443.5C 231.956,444.579 232.789,445.745 233.5,447C 238.167,447.333 242.833,447.667 247.5,448C 250.242,449.823 253.075,450.323 256,449.5C 258.644,451.31 261.144,453.31 263.5,455.5C 265.843,454.077 268.343,453.077 271,452.5C 273.835,453.721 276.668,453.721 279.5,452.5C 279.833,453.167 280.167,453.833 280.5,454.5C 280.5,456.5 280.5,458.5 280.5,460.5C 279.5,460.5 278.5,460.5 277.5,460.5C 277.058,462.972 276.725,465.472 276.5,468C 278.222,475.364 278.888,482.864 278.5,490.5C 277.282,497.482 276.282,504.482 275.5,511.5C 242.167,511.5 208.833,511.5 175.5,511.5C 175.061,480 174.394,448.667 173.5,417.5C 173.5,414.5 173.5,411.5 173.5,408.5 Z"/></g>
<g><path style="opacity:1" fill="#b8a6a6" d="M 222.5,436.5 C 225.456,437.842 227.456,439.508 228.5,441.5C 225.603,440.871 222.936,439.871 220.5,438.5C 221.833,438.5 222.5,437.833 222.5,436.5 Z"/></g>
<g><path style="opacity:1" fill="#2a2e31" d="M 289.5,450.5 C 290.873,450.343 292.207,450.51 293.5,451C 291.593,452.122 289.593,452.955 287.5,453.5C 285.801,453.66 284.134,453.494 282.5,453C 283.737,452.768 284.737,452.268 285.5,451.5C 286.833,451.167 288.167,450.833 289.5,450.5 Z"/></g>
<g><path style="opacity:1" fill="#72848e" d="M 164.5,399.5 C 166.853,401.86 168.853,404.527 170.5,407.5C 170.5,420.833 170.5,434.167 170.5,447.5C 170.833,461.504 171.333,475.504 172,489.5C 172.5,476.838 172.667,464.171 172.5,451.5C 172.175,443.648 172.508,435.982 173.5,428.5C 173.5,456.167 173.5,483.833 173.5,511.5C 172.5,511.5 171.5,511.5 170.5,511.5C 169.56,507.592 168.893,503.592 168.5,499.5C 169.031,492.302 169.364,485.136 169.5,478C 166.834,456.326 166.834,434.659 169.5,413C 168.923,410.343 167.923,407.843 166.5,405.5C 163.61,404.163 162.943,402.163 164.5,399.5 Z"/></g>
<g><path style="opacity:1" fill="#e6d8d6" d="M 189.5,438.5 C 195.679,439.168 201.513,440.835 207,443.5C 208.481,440.936 209.981,440.936 211.5,443.5C 210.289,444.72 210.289,445.887 211.5,447C 213.568,447.687 215.568,447.52 217.5,446.5C 224.064,451.02 231.397,453.354 239.5,453.5C 239.5,455.5 239.5,457.5 239.5,459.5C 244.865,459.956 250.199,460.623 255.5,461.5C 255.5,465.5 255.5,469.5 255.5,473.5C 257.167,473.5 258.833,473.5 260.5,473.5C 260.922,477.712 260.256,481.712 258.5,485.5C 260.406,488.64 261.74,491.973 262.5,495.5C 261.127,495.343 259.793,495.51 258.5,496C 262.17,497.855 262.836,500.189 260.5,503C 260.833,503.333 261.167,503.667 261.5,504C 259.208,505.29 257.208,506.957 255.5,509C 235.789,510.232 216.123,510.232 196.5,509C 193.754,507.071 191.087,507.238 188.5,509.5C 187.328,509.081 186.328,508.415 185.5,507.5C 187.396,506.534 189.396,506.201 191.5,506.5C 191.5,505.5 191.5,504.5 191.5,503.5C 189.488,504.014 187.488,504.18 185.5,504C 185.752,501.532 186.086,499.032 186.5,496.5C 185.675,495.614 184.675,495.281 183.5,495.5C 182.582,489.021 184.248,483.354 188.5,478.5C 186.343,473.699 185.01,468.699 184.5,463.5C 186.833,463.5 189.167,463.5 191.5,463.5C 191.169,460.008 191.169,456.674 191.5,453.5C 190.494,446.895 188.327,446.228 185,451.5C 184.695,453.557 184.695,455.557 185,457.5C 182.836,454.553 182.002,451.219 182.5,447.5C 183.822,447.67 184.989,447.337 186,446.5C 186.575,443.471 187.741,440.804 189.5,438.5 Z"/></g>
<g><path style="opacity:1" fill="#585f65" d="M 170.5,447.5 C 171.167,448.833 171.833,450.167 172.5,451.5C 172.667,464.171 172.5,476.838 172,489.5C 171.333,475.504 170.833,461.504 170.5,447.5 Z"/></g>
<g><path style="opacity:1" fill="#778894" d="M 349.5,425.5 C 347.899,428.77 345.566,431.437 342.5,433.5C 335.684,435.715 329.017,438.215 322.5,441C 316.709,441.063 311.709,443.063 307.5,447C 306.207,447.49 304.873,447.657 303.5,447.5C 303.67,448.822 303.337,449.989 302.5,451C 299.595,452.286 296.595,453.286 293.5,454C 292.478,456.545 291.312,459.045 290,461.5C 289.333,462.833 288.667,462.833 288,461.5C 285.88,470.949 283.713,480.283 281.5,489.5C 282.523,477.304 284.523,465.304 287.5,453.5C 289.593,452.955 291.593,452.122 293.5,451C 292.207,450.51 290.873,450.343 289.5,450.5C 293.291,449.047 297.291,447.881 301.5,447C 308.88,442.145 316.88,438.645 325.5,436.5C 326.251,437.573 327.251,437.74 328.5,437C 335.957,433.809 342.957,429.976 349.5,425.5 Z"/></g>
<g><path style="opacity:1" fill="#bfb9b7" d="M 280.5,454.5 C 281.497,454.47 282.164,454.97 282.5,456C 281.713,463.798 281.213,471.631 281,479.5C 280.581,483.392 279.748,487.058 278.5,490.5C 278.888,482.864 278.222,475.364 276.5,468C 276.725,465.472 277.058,462.972 277.5,460.5C 278.5,460.5 279.5,460.5 280.5,460.5C 280.5,458.5 280.5,456.5 280.5,454.5 Z"/></g>
<g><path style="opacity:1" fill="#d1c6c5" d="M 173.5,417.5 C 174.394,448.667 175.061,480 175.5,511.5C 174.833,511.5 174.167,511.5 173.5,511.5C 173.5,483.833 173.5,456.167 173.5,428.5C 173.5,424.833 173.5,421.167 173.5,417.5 Z"/></g>
<g><path style="opacity:1" fill="#6a6e76" d="M 281.5,451.5 C 282.833,451.5 284.167,451.5 285.5,451.5C 284.737,452.268 283.737,452.768 282.5,453C 284.134,453.494 285.801,453.66 287.5,453.5C 284.523,465.304 282.523,477.304 281.5,489.5C 278.978,496.58 277.978,503.914 278.5,511.5C 277.5,511.5 276.5,511.5 275.5,511.5C 276.282,504.482 277.282,497.482 278.5,490.5C 279.748,487.058 280.581,483.392 281,479.5C 281.213,471.631 281.713,463.798 282.5,456C 282.164,454.97 281.497,454.47 280.5,454.5C 280.167,453.833 279.833,453.167 279.5,452.5C 280.492,452.672 281.158,452.338 281.5,451.5 Z"/></g>
</svg>
