<?xml version="1.0" encoding="UTF-8"?>
<!DOCTYPE svg PUBLIC "-//W3C//DTD SVG 1.1//EN" "http://www.w3.org/Graphics/SVG/1.1/DTD/svg11.dtd">
<svg xmlns="http://www.w3.org/2000/svg" version="1.1" width="512px" height="512px" style="shape-rendering:geometricPrecision; text-rendering:geometricPrecision; image-rendering:optimizeQuality; fill-rule:evenodd; clip-rule:evenodd" xmlns:xlink="http://www.w3.org/1999/xlink">
<g><path style="opacity:1" fill="#658597" d="M -0.5,-0.5 C 170.167,-0.5 340.833,-0.5 511.5,-0.5C 511.5,168.167 511.5,336.833 511.5,505.5C 510.814,499.766 510.148,493.933 509.5,488C 509.365,473.234 509.698,458.401 510.5,443.5C 510.581,438.418 510.081,433.418 509,428.5C 508.641,431.544 507.974,431.878 507,429.5C 506.5,430 506,430.5 505.5,431C 506.248,441.798 507.248,452.632 508.5,463.5C 507.168,473.487 506.002,483.487 505,493.5C 504.667,493.167 504.333,492.833 504,492.5C 502.414,493.376 500.914,494.376 499.5,495.5C 496.195,492.957 492.861,492.957 489.5,495.5C 488.328,495.081 487.328,494.415 486.5,493.5C 483.784,495.086 481.45,494.753 479.5,492.5C 483.136,491.064 483.303,489.397 480,487.5C 478.86,491.253 477.026,491.919 474.5,489.5C 473.522,489.977 472.689,490.643 472,491.5C 471.667,490.833 471.333,490.167 471,489.5C 469.426,490.984 468.093,492.651 467,494.5C 464.83,492.833 462.996,490.833 461.5,488.5C 466.12,487.507 470.786,487.173 475.5,487.5C 475.5,486.5 475.5,485.5 475.5,484.5C 476.822,484.33 477.989,484.663 479,485.5C 479.418,483.212 478.751,481.212 477,479.5C 473.296,486.596 471.463,486.596 471.5,479.5C 472.833,479.5 474.167,479.5 475.5,479.5C 475.12,476.255 473.953,473.255 472,470.5C 471.503,468.19 471.337,465.857 471.5,463.5C 468.67,463.306 466.004,462.639 463.5,461.5C 463.5,459.5 463.5,457.5 463.5,455.5C 462.325,455.719 461.325,455.386 460.5,454.5C 461.991,453.756 463.491,453.09 465,452.5C 465.563,451.275 465.23,450.275 464,449.5C 461.281,450.444 458.448,450.777 455.5,450.5C 455.719,449.325 455.386,448.325 454.5,447.5C 452.549,450.928 450.216,451.262 447.5,448.5C 448.689,447.571 450.022,447.238 451.5,447.5C 451.5,446.5 451.5,445.5 451.5,444.5C 456.07,445.717 456.737,444.217 453.5,440C 454.793,439.51 456.127,439.343 457.5,439.5C 457.853,437.365 457.02,436.032 455,435.5C 452.526,436.576 450.026,437.576 447.5,438.5C 452.375,439.836 452.542,441.836 448,444.5C 447.667,443.833 447.333,443.167 447,442.5C 445.325,443.595 444.158,445.095 443.5,447C 442.552,447.483 441.552,447.649 440.5,447.5C 441.217,444.677 442.217,442.01 443.5,439.5C 444.5,439.5 445.5,439.5 446.5,439.5C 445.962,435.482 443.795,434.149 440,435.5C 439.316,433.521 439.816,431.854 441.5,430.5C 438.585,427.415 435.251,424.915 431.5,423C 432.701,422.097 433.535,420.931 434,419.5C 434.066,415.749 434.899,412.249 436.5,409C 434.842,405.824 435.842,404.324 439.5,404.5C 440.812,405.967 440.812,404.3 439.5,399.5C 438.416,398.335 437.583,397.002 437,395.5C 434.131,398.62 431.465,401.953 429,405.5C 427.681,403.75 427.181,401.75 427.5,399.5C 429.167,399.5 430.833,399.5 432.5,399.5C 433.483,395.302 435.649,391.635 439,388.5C 439.254,394.211 441.421,395.377 445.5,392C 444.969,387.734 443.969,383.567 442.5,379.5C 443.012,376.649 444.679,375.316 447.5,375.5C 448.503,368.823 448.503,362.156 447.5,355.5C 447.649,353.68 448.316,352.18 449.5,351C 448.874,350.25 448.374,349.416 448,348.5C 447.501,344.848 447.335,341.182 447.5,337.5C 447.82,334.102 447.487,330.768 446.5,327.5C 444.536,330.018 443.87,332.684 444.5,335.5C 443.833,330.167 443.167,324.833 442.5,319.5C 441.833,318.5 441.167,317.5 440.5,316.5C 440.039,311.641 439.039,306.974 437.5,302.5C 438.167,301.833 438.833,301.167 439.5,300.5C 436.833,297.5 436.833,294.5 439.5,291.5C 438.147,290.476 437.48,289.143 437.5,287.5C 435.5,287.5 433.5,287.5 431.5,287.5C 431.657,286.127 431.49,284.793 431,283.5C 430,284.833 429,286.167 428,287.5C 427.501,282.177 427.334,276.844 427.5,271.5C 430.167,271.5 432.833,271.5 435.5,271.5C 435.338,269.473 435.505,267.473 436,265.5C 436.944,266.263 437.444,267.263 437.5,268.5C 436.504,271.797 436.337,275.131 437,278.5C 438.797,277.073 439.964,275.24 440.5,273C 439.932,269.158 439.265,265.325 438.5,261.5C 436.22,260.245 435.053,258.245 435,255.5C 434.501,250.177 434.334,244.844 434.5,239.5C 436.5,239.5 438.5,239.5 440.5,239.5C 440.261,235.158 439.927,230.824 439.5,226.5C 434.105,227.271 431.272,224.938 431,219.5C 429.833,218.333 428.667,217.167 427.5,216C 428.833,215.667 430.167,215.333 431.5,215C 429.376,213.878 427.543,212.378 426,210.5C 424.473,212.221 423.473,214.221 423,216.5C 421.402,226.925 420.902,237.259 421.5,247.5C 420.001,266.138 419.334,284.804 419.5,303.5C 417.856,303.714 416.356,303.38 415,302.5C 414.77,322.905 414.77,343.238 415,363.5C 413.913,357.247 413.08,350.913 412.5,344.5C 411.686,346.766 411.186,349.1 411,351.5C 410.73,348.776 410.23,346.109 409.5,343.5C 409.167,343.167 408.833,342.833 408.5,342.5C 407.824,343.602 407.158,344.602 406.5,345.5C 408.139,319.541 409.305,293.541 410,267.5C 411.185,258.02 412.352,248.687 413.5,239.5C 413.547,242.568 414.047,245.568 415,248.5C 414.249,233.905 415.416,219.239 418.5,204.5C 418.167,202.5 417.833,200.5 417.5,198.5C 418.189,192.853 418.689,187.186 419,181.5C 419.707,179.919 420.54,178.419 421.5,177C 420.02,175.701 419.354,174.034 419.5,172C 419.959,168.955 420.626,165.955 421.5,163C 420.17,154.59 420.836,146.59 423.5,139C 422.972,130.71 422.972,122.544 423.5,114.5C 421.343,110.809 419.843,106.809 419,102.5C 418.196,100.056 416.696,98.2225 414.5,97C 414.833,96.6667 415.167,96.3333 415.5,96C 413.789,94.5648 412.622,92.7314 412,90.5C 405.341,88.9757 402.175,84.6424 402.5,77.5C 401.5,77.5 400.5,77.5 399.5,77.5C 399.5,76.1667 399.5,74.8333 399.5,73.5C 397.801,73.3398 396.134,73.5065 394.5,74C 397.352,76.1526 397.852,78.6526 396,81.5C 394.89,79.9632 393.39,79.2965 391.5,79.5C 391.753,77.1727 391.086,75.1727 389.5,73.5C 393.421,73.3234 394.088,71.49 391.5,68C 388.93,67.2771 386.597,66.1104 384.5,64.5C 383.966,67.6924 382.299,70.0257 379.5,71.5C 375.547,72.3619 371.547,72.6952 367.5,72.5C 366.833,70.5 366.167,68.5 365.5,66.5C 361.305,65.7344 356.972,65.4011 352.5,65.5C 350.864,69.0975 351.864,71.5975 355.5,73C 354.906,73.4643 354.239,73.631 353.5,73.5C 346.086,71.5168 338.586,69.8501 331,68.5C 329.306,70.4292 327.139,71.4292 324.5,71.5C 321.5,71.5 318.5,71.5 315.5,71.5C 308.725,71.4853 302.225,72.8186 296,75.5C 293.721,75.5613 291.721,74.8946 290,73.5C 287.917,75.7133 285.583,76.0466 283,74.5C 281.121,76.0128 278.954,76.6795 276.5,76.5C 276.098,79.4766 275.098,82.1433 273.5,84.5C 269.245,82.0706 264.578,80.9039 259.5,81C 258.421,80.044 257.255,79.2106 256,78.5C 255.503,81.146 255.336,83.8127 255.5,86.5C 252.519,86.8176 250.185,85.8176 248.5,83.5C 241.954,82.9201 235.287,82.5867 228.5,82.5C 224.5,80.8333 220.5,79.1667 216.5,77.5C 215.791,76.596 214.791,76.2627 213.5,76.5C 213.5,77.5 213.5,78.5 213.5,79.5C 210.167,79.5 206.833,79.5 203.5,79.5C 199.51,78.8099 195.51,78.6432 191.5,79C 190.833,80 190.167,81 189.5,82C 182.656,82.9898 175.99,82.4898 169.5,80.5C 167.362,79.1919 165.362,79.5252 163.5,81.5C 161.031,80.4314 158.698,79.0981 156.5,77.5C 155.398,75.9081 156.065,75.0748 158.5,75C 157.007,73.6319 155.507,73.4652 154,74.5C 153.641,71.4557 152.974,71.1224 152,73.5C 149.973,73.0137 147.807,73.0137 145.5,73.5C 146.263,72.7321 147.263,72.2321 148.5,72C 147.833,71.6667 147.167,71.3333 146.5,71C 147.91,70.6322 148.91,69.7989 149.5,68.5C 148.061,66.4469 146.061,65.4469 143.5,65.5C 143.5,67.5 143.5,69.5 143.5,71.5C 140.417,72.0662 137.417,72.0662 134.5,71.5C 133.304,71.8457 133.304,72.3457 134.5,73C 132,73.1667 129.5,73.3333 127,73.5C 121.725,72.6412 116.559,71.3079 111.5,69.5C 113.274,68.8133 114.941,67.9799 116.5,67C 113.21,66.7468 110.21,65.7468 107.5,64C 111.48,62.6772 115.313,61.1772 119,59.5C 119.498,56.5184 119.665,53.5184 119.5,50.5C 117.516,50.6168 115.85,49.9501 114.5,48.5C 110.893,47.5108 107.226,47.1774 103.5,47.5C 102.874,41.625 105.541,38.7917 111.5,39C 106.844,37.1922 102.844,34.6922 99.5,31.5C 99.5,34.1667 99.5,36.8333 99.5,39.5C 97.0876,39.756 95.4209,38.756 94.5,36.5C 92.9984,37.0831 91.6651,37.9164 90.5,39C 90.9574,39.414 91.2907,39.914 91.5,40.5C 90.3112,41.4287 88.9778,41.762 87.5,41.5C 87.7662,45.5705 87.4328,49.5705 86.5,53.5C 84.4902,55.1713 82.1569,55.838 79.5,55.5C 79.5,63.5 79.5,71.5 79.5,79.5C 76.8333,79.5 74.1667,79.5 71.5,79.5C 71.832,90.1874 71.4987,100.854 70.5,111.5C 67.6513,119.369 64.6513,127.202 61.5,135C 62.448,135.483 63.448,135.649 64.5,135.5C 64.7845,138.254 65.4512,140.92 66.5,143.5C 67.7472,141.994 67.7472,140.494 66.5,139C 67.1078,136.498 68.4411,134.498 70.5,133C 71.2335,131.234 71.5668,129.401 71.5,127.5C 72.5,127.5 73.5,127.5 74.5,127.5C 74.5,130.833 74.5,134.167 74.5,137.5C 71.1298,144.303 69.1298,151.636 68.5,159.5C 67.5,159.5 66.5,159.5 65.5,159.5C 65.5429,156.09 65.0429,152.757 64,149.5C 63.3333,148.167 62.6667,148.167 62,149.5C 62.1744,156.124 61.0077,162.457 58.5,168.5C 59.3094,170.071 59.6427,171.738 59.5,173.5C 58.1667,173.5 56.8333,173.5 55.5,173.5C 55.3915,177.391 54.3915,181.058 52.5,184.5C 53.5301,184.554 54.6967,184.888 56,185.5C 56.4955,187.473 56.6621,189.473 56.5,191.5C 57.552,191.351 58.552,191.517 59.5,192C 59.0159,194.854 59.0159,197.854 59.5,201C 58.4755,214.098 56.4755,226.931 53.5,239.5C 52.1667,239.5 50.8333,239.5 49.5,239.5C 49.8747,236.603 49.3747,233.937 48,231.5C 47.8333,234 47.6667,236.5 47.5,239C 47.946,242.343 47.946,245.51 47.5,248.5C 49.124,249.869 49.624,251.536 49,253.5C 48.4444,251.405 47.9444,251.238 47.5,253C 48.8475,254.555 49.5142,256.389 49.5,258.5C 48.1473,261.107 47.4806,263.941 47.5,267C 47.8333,268.5 48.1667,270 48.5,271.5C 50.7223,269.116 51.0556,266.449 49.5,263.5C 50.8221,263.33 51.9887,263.663 53,264.5C 54.349,270.88 56.6824,276.88 60,282.5C 60.2277,289.378 60.2277,296.378 60,303.5C 61.5088,305.919 63.6755,306.919 66.5,306.5C 65.6297,302.373 64.7963,298.373 64,294.5C 65.5774,297.751 67.5774,300.751 70,303.5C 70.029,306.367 70.8624,308.867 72.5,311C 69.9991,313.399 69.9991,315.899 72.5,318.5C 72.0688,319.293 71.7355,320.127 71.5,321C 72.9963,325.676 75.3296,329.843 78.5,333.5C 79.7127,329.456 80.8794,325.456 82,321.5C 83.2362,322.399 84.0696,323.566 84.5,325C 83.5909,326.789 83.4242,328.623 84,330.5C 84.8096,328.694 85.9762,327.194 87.5,326C 84.2058,319.245 80.0391,313.079 75,307.5C 74.8031,303.946 73.6365,300.779 71.5,298C 71.6834,296.316 72.3501,296.15 73.5,297.5C 81.4992,309.488 88.4992,322.155 94.5,335.5C 94.631,336.239 94.4643,336.906 94,337.5C 92.1395,335.112 90.8061,332.446 90,329.5C 88.0306,332.608 86.1972,335.775 84.5,339C 88.5153,341.99 88.3487,344.823 84,347.5C 83.51,348.793 83.3433,350.127 83.5,351.5C 82.0222,351.238 80.6888,351.571 79.5,352.5C 83.5802,353.5 86.0802,351.833 87,347.5C 87.8581,352.113 88.3581,356.779 88.5,361.5C 90.8584,363.287 93.525,364.287 96.5,364.5C 96.6079,366.783 97.4412,368.783 99,370.5C 103.195,373.499 107.028,376.833 110.5,380.5C 111.496,386.798 111.83,393.132 111.5,399.5C 113.604,399.201 115.604,399.534 117.5,400.5C 116.018,402.71 116.518,404.376 119,405.5C 119.498,408.817 119.665,412.15 119.5,415.5C 120.833,415.5 122.167,415.5 123.5,415.5C 123.5,417.167 123.5,418.833 123.5,420.5C 120.14,420.384 116.807,420.051 113.5,419.5C 114.376,423.462 115.042,427.462 115.5,431.5C 113.712,431.215 112.045,431.548 110.5,432.5C 109.82,434.889 108.986,437.222 108,439.5C 106.89,441.037 105.39,441.703 103.5,441.5C 103.99,439.052 103.157,437.385 101,436.5C 99.4467,439.296 97.28,439.963 94.5,438.5C 93.4063,439.868 93.7397,441.035 95.5,442C 92.8333,443.667 92.8333,445.333 95.5,447C 93.5594,447.743 91.7261,447.576 90,446.5C 89.8295,448.715 89.1628,450.715 88,452.5C 86.7308,451.095 86.2308,449.429 86.5,447.5C 83.1116,446.835 82.1116,447.835 83.5,450.5C 83.5472,452 82.8805,453 81.5,453.5C 80.7691,451.599 80.7691,449.599 81.5,447.5C 78.8127,447.336 76.146,447.503 73.5,448C 74,448.5 74.5,449 75,449.5C 76.4936,448.253 77.9936,448.253 79.5,449.5C 77.5767,450.308 75.5767,450.808 73.5,451C 74.5,451.833 75.5,452.667 76.5,453.5C 74.7642,456.105 72.9308,456.105 71,453.5C 68.477,458.698 65.1436,463.365 61,467.5C 60.51,468.793 60.3433,470.127 60.5,471.5C 63.2646,471.798 65.7646,472.798 68,474.5C 68.7995,477.572 67.6329,479.239 64.5,479.5C 64.2317,482.119 64.565,484.619 65.5,487C 61.8154,487.741 61.1487,489.241 63.5,491.5C 61.1409,492.705 58.9743,492.372 57,490.5C 56.5,490.833 56,491.167 55.5,491.5C 59.3509,493.382 59.0176,494.715 54.5,495.5C 52.6772,494.155 50.6772,493.655 48.5,494C 46.8986,497.596 47.232,500.929 49.5,504C 44.3649,504.36 39.3649,505.36 34.5,507C 37.2889,507.241 39.9556,507.908 42.5,509C 41.6195,509.708 40.9528,510.542 40.5,511.5C 26.8333,511.5 13.1667,511.5 -0.5,511.5C -0.5,340.833 -0.5,170.167 -0.5,-0.5 Z"/></g>
<g><path style="opacity:1" fill="#658594" d="M 145.5,73.5 C 143.952,73.8212 143.285,74.8212 143.5,76.5C 139.486,76.6655 135.486,76.4988 131.5,76C 131.833,75.6667 132.167,75.3333 132.5,75C 130.251,74.1368 128.418,74.6368 127,76.5C 118.795,73.7307 110.629,73.8973 102.5,77C 100.254,81.2498 97.2538,84.9165 93.5,88C 93.8333,88.3333 94.1667,88.6667 94.5,89C 92.5,89.6667 91.1667,91 90.5,93C 89.5509,93.6172 88.7175,93.4506 88,92.5C 85.8333,96 83.6667,99.5 81.5,103C 81.8333,103.333 82.1667,103.667 82.5,104C 80.837,106.279 79.1704,108.613 77.5,111C 78.2148,114.74 77.3815,118.24 75,121.5C 74.6667,120.833 74.3333,120.167 74,119.5C 73.5604,121.076 72.727,122.41 71.5,123.5C 70.2947,124.995 70.2947,126.328 71.5,127.5C 71.5668,129.401 71.2335,131.234 70.5,133C 68.4411,134.498 67.1078,136.498 66.5,139C 67.7472,140.494 67.7472,141.994 66.5,143.5C 65.4512,140.92 64.7845,138.254 64.5,135.5C 63.448,135.649 62.448,135.483 61.5,135C 64.6513,127.202 67.6513,119.369 70.5,111.5C 71.4987,100.854 71.832,90.1874 71.5,79.5C 74.1667,79.5 76.8333,79.5 79.5,79.5C 79.5,71.5 79.5,63.5 79.5,55.5C 82.1569,55.838 84.4902,55.1713 86.5,53.5C 87.4328,49.5705 87.7662,45.5705 87.5,41.5C 88.9778,41.762 90.3112,41.4287 91.5,40.5C 91.2907,39.914 90.9574,39.414 90.5,39C 91.6651,37.9164 92.9984,37.0831 94.5,36.5C 95.4209,38.756 97.0876,39.756 99.5,39.5C 99.5,36.8333 99.5,34.1667 99.5,31.5C 102.844,34.6922 106.844,37.1922 111.5,39C 105.541,38.7917 102.874,41.625 103.5,47.5C 107.226,47.1774 110.893,47.5108 114.5,48.5C 115.85,49.9501 117.516,50.6168 119.5,50.5C 119.665,53.5184 119.498,56.5184 119,59.5C 115.313,61.1772 111.48,62.6772 107.5,64C 110.21,65.7468 113.21,66.7468 116.5,67C 114.941,67.9799 113.274,68.8133 111.5,69.5C 116.559,71.3079 121.725,72.6412 127,73.5C 129.5,73.3333 132,73.1667 134.5,73C 133.304,72.3457 133.304,71.8457 134.5,71.5C 137.417,72.0662 140.417,72.0662 143.5,71.5C 143.5,69.5 143.5,67.5 143.5,65.5C 146.061,65.4469 148.061,66.4469 149.5,68.5C 148.91,69.7989 147.91,70.6322 146.5,71C 147.167,71.3333 147.833,71.6667 148.5,72C 147.263,72.2321 146.263,72.7321 145.5,73.5 Z"/></g>
<g><path style="opacity:1" fill="#657f8e" d="M 413.5,239.5 C 413.5,234.167 413.5,228.833 413.5,223.5C 413.199,211.794 413.699,200.127 415,188.5C 415.667,164.5 415.667,140.5 415,116.5C 409.703,93.1268 395.537,78.7934 372.5,73.5C 372.5,74.8333 372.5,76.1667 372.5,77.5C 368.457,77.0024 364.623,75.6691 361,73.5C 358.347,74.7157 355.847,74.7157 353.5,73.5C 354.239,73.631 354.906,73.4643 355.5,73C 351.864,71.5975 350.864,69.0975 352.5,65.5C 356.972,65.4011 361.305,65.7344 365.5,66.5C 366.167,68.5 366.833,70.5 367.5,72.5C 371.547,72.6952 375.547,72.3619 379.5,71.5C 382.299,70.0257 383.966,67.6924 384.5,64.5C 386.597,66.1104 388.93,67.2771 391.5,68C 394.088,71.49 393.421,73.3234 389.5,73.5C 391.086,75.1727 391.753,77.1727 391.5,79.5C 393.39,79.2965 394.89,79.9632 396,81.5C 397.852,78.6526 397.352,76.1526 394.5,74C 396.134,73.5065 397.801,73.3398 399.5,73.5C 399.5,74.8333 399.5,76.1667 399.5,77.5C 400.5,77.5 401.5,77.5 402.5,77.5C 402.175,84.6424 405.341,88.9757 412,90.5C 412.622,92.7314 413.789,94.5648 415.5,96C 415.167,96.3333 414.833,96.6667 414.5,97C 416.696,98.2225 418.196,100.056 419,102.5C 419.843,106.809 421.343,110.809 423.5,114.5C 422.972,122.544 422.972,130.71 423.5,139C 420.836,146.59 420.17,154.59 421.5,163C 420.626,165.955 419.959,168.955 419.5,172C 419.354,174.034 420.02,175.701 421.5,177C 420.54,178.419 419.707,179.919 419,181.5C 418.689,187.186 418.189,192.853 417.5,198.5C 417.833,200.5 418.167,202.5 418.5,204.5C 415.416,219.239 414.249,233.905 415,248.5C 414.047,245.568 413.547,242.568 413.5,239.5 Z"/></g>
<g><path style="opacity:1" fill="#63808f" d="M 156.5,77.5 C 155.624,77.3691 154.957,77.7025 154.5,78.5C 155.246,79.7362 155.579,81.0695 155.5,82.5C 146.149,83.5501 136.816,83.5501 127.5,82.5C 118.637,78.6364 111.304,80.4697 105.5,88C 100.702,89.3623 98.0354,92.5289 97.5,97.5C 95.5372,98.9599 93.7038,100.627 92,102.5C 89.2516,107.666 86.2516,112.666 83,117.5C 79.8538,124.159 77.0205,130.825 74.5,137.5C 74.5,134.167 74.5,130.833 74.5,127.5C 73.5,127.5 72.5,127.5 71.5,127.5C 70.2947,126.328 70.2947,124.995 71.5,123.5C 72.727,122.41 73.5604,121.076 74,119.5C 74.3333,120.167 74.6667,120.833 75,121.5C 77.3815,118.24 78.2148,114.74 77.5,111C 79.1704,108.613 80.837,106.279 82.5,104C 82.1667,103.667 81.8333,103.333 81.5,103C 83.6667,99.5 85.8333,96 88,92.5C 88.7175,93.4506 89.5509,93.6172 90.5,93C 91.1667,91 92.5,89.6667 94.5,89C 94.1667,88.6667 93.8333,88.3333 93.5,88C 97.2538,84.9165 100.254,81.2498 102.5,77C 110.629,73.8973 118.795,73.7307 127,76.5C 128.418,74.6368 130.251,74.1368 132.5,75C 132.167,75.3333 131.833,75.6667 131.5,76C 135.486,76.4988 139.486,76.6655 143.5,76.5C 143.285,74.8212 143.952,73.8212 145.5,73.5C 147.807,73.0137 149.973,73.0137 152,73.5C 152.974,71.1224 153.641,71.4557 154,74.5C 155.507,73.4652 157.007,73.6319 158.5,75C 156.065,75.0748 155.398,75.9081 156.5,77.5 Z"/></g>
<g><path style="opacity:1" fill="#495b5f" d="M 216.5,77.5 C 214.824,78.1834 214.157,79.5168 214.5,81.5C 211.482,81.6646 208.482,81.498 205.5,81C 204.584,80.7216 203.918,80.2216 203.5,79.5C 206.833,79.5 210.167,79.5 213.5,79.5C 213.5,78.5 213.5,77.5 213.5,76.5C 214.791,76.2627 215.791,76.596 216.5,77.5 Z"/></g>
<g><path style="opacity:1" fill="#000101" d="M 342.5,393.5 C 342.5,392.5 342.5,391.5 342.5,390.5C 341.82,366.839 341.486,343.173 341.5,319.5C 341.83,301.326 341.497,283.326 340.5,265.5C 338.981,264.59 337.315,263.757 335.5,263C 335.689,260.705 337.023,258.705 339.5,257C 338.751,255.266 338.251,253.433 338,251.5C 333.035,249.317 328.868,246.65 325.5,243.5C 326.531,242.3 327.365,240.966 328,239.5C 330.167,238.512 332,237.179 333.5,235.5C 334.117,235.389 334.617,235.056 335,234.5C 335.498,231.518 335.665,228.518 335.5,225.5C 333.712,225.785 332.045,225.452 330.5,224.5C 328.087,220.945 325.587,217.612 323,214.5C 321.667,215.167 320.333,215.833 319,216.5C 317.291,215.43 315.791,214.097 314.5,212.5C 309.951,215.725 304.951,216.392 299.5,214.5C 298.957,213.258 298.623,211.925 298.5,210.5C 299.49,206.544 300.156,202.544 300.5,198.5C 292.151,199.627 283.818,199.794 275.5,199C 272.619,201.279 270.619,204.112 269.5,207.5C 264.5,211.833 259.833,216.5 255.5,221.5C 252.271,224.282 248.604,226.282 244.5,227.5C 244.167,222.5 241.5,219.833 236.5,219.5C 234.751,209.785 229.084,206.452 219.5,209.5C 215.098,209.308 211.098,210.308 207.5,212.5C 193.799,211.768 182.299,216.435 173,226.5C 172.338,228.813 171.838,231.146 171.5,233.5C 168.767,239.809 170.767,243.643 177.5,245C 174.833,245.667 174.833,246.333 177.5,247C 175.156,247.837 173.156,249.171 171.5,251C 172.563,252.188 173.897,252.688 175.5,252.5C 175.5,253.5 175.5,254.5 175.5,255.5C 173.533,255.261 171.699,255.594 170,256.5C 169.104,277.691 169.604,298.691 171.5,319.5C 171.017,343.164 170.683,366.831 170.5,390.5C 169.835,388.302 169.168,385.969 168.5,383.5C 167.729,385.862 166.895,388.196 166,390.5C 165.667,390.167 165.333,389.833 165,389.5C 165.679,382.324 166.512,375.157 167.5,368C 166.552,367.517 165.552,367.351 164.5,367.5C 164.664,370.187 164.497,372.854 164,375.5C 163.762,371.211 162.595,367.211 160.5,363.5C 162.914,361.454 162.747,359.454 160,357.5C 154.803,359.42 149.303,360.087 143.5,359.5C 143.813,356.753 143.48,354.086 142.5,351.5C 139.935,355.094 137.269,355.261 134.5,352C 132.432,351.313 130.432,351.48 128.5,352.5C 127.686,350.234 127.186,347.9 127,345.5C 118.953,341.82 112.286,336.487 107,329.5C 104.377,325.831 104.543,322.665 107.5,320C 106.207,319.51 104.873,319.343 103.5,319.5C 103.719,320.675 103.386,321.675 102.5,322.5C 100.711,319.758 99.0445,316.925 97.5,314C 96.2559,313.544 95.4226,314.044 95,315.5C 94.0398,309.91 91.7064,304.91 88,300.5C 85.9136,293.089 82.9136,286.089 79,279.5C 78.654,277.782 78.154,276.115 77.5,274.5C 79.9238,272.286 79.2571,271.286 75.5,271.5C 75.5,268.833 75.5,266.167 75.5,263.5C 74.325,263.719 73.325,263.386 72.5,262.5C 74.6505,259.131 74.4838,256.131 72,253.5C 69.0578,239.976 68.8911,226.476 71.5,213C 70.0529,207.067 70.3862,201.234 72.5,195.5C 71.6518,193.591 71.3184,191.591 71.5,189.5C 68.0556,188.955 66.8889,186.955 68,183.5C 68.3333,184.167 68.6667,184.833 69,185.5C 69.4894,183.184 70.1561,180.851 71,178.5C 72.117,179.949 72.7837,181.616 73,183.5C 73.4709,181.754 74.1376,180.087 75,178.5C 75.9056,181.121 76.4056,180.954 76.5,178C 76.0548,176.553 75.3881,175.22 74.5,174C 77.0141,167.113 79.6807,159.946 82.5,152.5C 82.0688,151.707 81.7355,150.873 81.5,150C 84.9845,142.895 86.9845,135.395 87.5,127.5C 88.9778,127.762 90.3112,127.429 91.5,126.5C 91.9976,124.336 93.1642,122.669 95,121.5C 95.1402,119.479 95.3068,117.645 95.5,116C 92.6936,114.695 91.8603,112.528 93,109.5C 93.3333,109.833 93.6667,110.167 94,110.5C 97.8342,108.243 102.001,106.91 106.5,106.5C 106.709,105.914 107.043,105.414 107.5,105C 106.333,104.5 105.5,103.667 105,102.5C 103.423,105.675 101.59,106.009 99.5,103.5C 100.624,102.086 101.624,100.586 102.5,99C 110.124,96.5122 117.791,94.3455 125.5,92.5C 128.538,93.3671 131.538,93.0337 134.5,91.5C 129.818,90.7321 125.151,89.8987 120.5,89C 119.376,88.7508 118.376,88.2508 117.5,87.5C 118.776,86.3554 120.109,86.3554 121.5,87.5C 122.696,87.1543 122.696,86.6543 121.5,86C 123.433,85.7489 125.266,85.2489 127,84.5C 128.313,85.5728 129.813,86.2395 131.5,86.5C 134.833,85.1667 138.167,85.1667 141.5,86.5C 143.055,86.278 144.389,85.6113 145.5,84.5C 146.833,85.1667 148.167,85.8333 149.5,86.5C 151.527,84.661 153.86,84.161 156.5,85C 155.963,88.3219 157.63,90.1553 161.5,90.5C 162.167,90.3333 162.833,90.1667 163.5,90C 159.707,89.2609 158.874,87.4276 161,84.5C 161.333,84.8333 161.667,85.1667 162,85.5C 164.938,83.1309 168.104,82.9642 171.5,85C 170.833,85.3333 170.167,85.6667 169.5,86C 171.772,87.1259 173.105,88.6259 173.5,90.5C 180.469,89.4054 187.469,89.2387 194.5,90C 195.872,91.2419 196.872,92.7419 197.5,94.5C 199.421,95.641 201.421,95.8077 203.5,95C 202.378,91.9301 200.712,89.2634 198.5,87C 201.514,87.1449 204.514,87.6449 207.5,88.5C 207.142,93.8587 209.309,94.5254 214,90.5C 216.113,88.7289 215.947,87.2289 213.5,86C 213.833,85.8333 214.167,85.6667 214.5,85.5C 215.711,86.3898 217.045,86.3898 218.5,85.5C 221.047,86.9336 223.381,88.6002 225.5,90.5C 229.032,89.5806 232.032,87.9139 234.5,85.5C 235.167,85.5 235.833,85.5 236.5,85.5C 240.67,86.4575 245.003,86.4575 249.5,85.5C 249.963,90.4682 252.629,92.6349 257.5,92C 256.833,91.6667 256.167,91.3333 255.5,91C 259.5,90.5 263.5,90 267.5,89.5C 269.32,89.3507 270.82,88.6841 272,87.5C 274.468,87.7523 276.968,88.0856 279.5,88.5C 286.992,84.6933 294.992,83.0267 303.5,83.5C 303.5,82.5 303.5,81.5 303.5,80.5C 304.552,80.6495 305.552,80.4828 306.5,80C 304.167,79.6667 301.833,79.3333 299.5,79C 302.958,77.2145 306.624,75.8811 310.5,75C 309.5,74.6667 308.5,74.3333 307.5,74C 310.379,73.454 313.046,72.6206 315.5,71.5C 318.5,71.5 321.5,71.5 324.5,71.5C 325.097,72.1386 325.93,72.472 327,72.5C 332.811,70.3738 338.644,70.5404 344.5,73C 343.929,74.2051 343.262,75.3717 342.5,76.5C 338.152,74.9654 333.986,75.2987 330,77.5C 329.5,76.3333 328.667,75.5 327.5,75C 323.044,74.1327 318.711,74.4661 314.5,76C 316.833,76.3333 319.167,76.6667 321.5,77C 318.623,78.1268 315.623,78.7935 312.5,79C 312.167,79.3333 311.833,79.6667 311.5,80C 312.609,80.6377 313.775,81.1377 315,81.5C 319.604,79.5675 324.438,78.5675 329.5,78.5C 340.274,78.946 350.441,78.946 360,78.5C 366.888,83.6666 374.721,86.3333 383.5,86.5C 383.662,88.5273 383.495,90.5273 383,92.5C 376.942,94.7146 377.109,95.7146 383.5,95.5C 383.5,96.8333 383.5,98.1667 383.5,99.5C 388.019,99.5148 390.519,101.848 391,106.5C 391.999,102.763 393.332,102.763 395,106.5C 395.494,108.134 395.66,109.801 395.5,111.5C 396.5,111.5 397.5,111.5 398.5,111.5C 398.351,112.552 398.517,113.552 399,114.5C 399.556,111.165 400.056,108.165 400.5,105.5C 402.283,107.023 402.949,109.023 402.5,111.5C 403.5,111.5 404.5,111.5 405.5,111.5C 405.5,113.5 405.5,115.5 405.5,117.5C 409.141,116.086 411.474,117.42 412.5,121.5C 411.448,123.223 411.448,124.89 412.5,126.5C 410.955,127.452 409.288,127.785 407.5,127.5C 408.248,133.57 409.248,139.57 410.5,145.5C 410.79,158.131 410.123,170.798 408.5,183.5C 407.5,183.5 406.5,183.5 405.5,183.5C 404.841,188.814 404.174,194.147 403.5,199.5C 403.833,202.167 404.167,204.833 404.5,207.5C 405.467,203.396 406.634,199.396 408,195.5C 410.243,199.131 411.077,203.131 410.5,207.5C 408.876,207.36 407.71,208.027 407,209.5C 406.828,214.202 406.328,218.868 405.5,223.5C 404.749,222.624 404.249,221.624 404,220.5C 403.138,223.949 401.972,227.283 400.5,230.5C 401.469,235.29 401.469,240.123 400.5,245C 400.363,248.085 401.03,250.918 402.5,253.5C 399.514,275.915 397.847,298.581 397.5,321.5C 396.5,321.5 395.5,321.5 394.5,321.5C 394.778,329.391 393.611,337.057 391,344.5C 389.493,347.426 387.159,349.426 384,350.5C 383.501,356.157 383.334,361.824 383.5,367.5C 381.167,367.5 378.833,367.5 376.5,367.5C 375.697,372.476 372.864,375.809 368,377.5C 366.716,376.428 366.383,375.095 367,373.5C 363.029,375.889 358.696,377.222 354,377.5C 352.674,377.245 351.674,376.578 351,375.5C 349.971,379.429 349.137,383.429 348.5,387.5C 347.194,386.088 346.36,384.421 346,382.5C 345.118,385.789 344.452,389.123 344,392.5C 343.617,393.056 343.117,393.389 342.5,393.5 Z"/></g>
<g><path style="opacity:1" fill="#4d636f" d="M 228.5,82.5 C 235.287,82.5867 241.954,82.9201 248.5,83.5C 244.477,84.0746 240.477,84.7412 236.5,85.5C 235.833,85.5 235.167,85.5 234.5,85.5C 232.5,84.5 230.5,83.5 228.5,82.5 Z"/></g>
<g><path style="opacity:1" fill="#394d52" d="M 276.5,76.5 C 276.5,79.5 276.5,82.5 276.5,85.5C 275.209,85.7373 274.209,85.404 273.5,84.5C 275.098,82.1433 276.098,79.4766 276.5,76.5 Z"/></g>
<g><path style="opacity:1" fill="#050c0f" d="M 315.5,71.5 C 313.046,72.6206 310.379,73.454 307.5,74C 308.5,74.3333 309.5,74.6667 310.5,75C 306.624,75.8811 302.958,77.2145 299.5,79C 301.833,79.3333 304.167,79.6667 306.5,80C 305.552,80.4828 304.552,80.6495 303.5,80.5C 303.5,81.5 303.5,82.5 303.5,83.5C 294.992,83.0267 286.992,84.6933 279.5,88.5C 276.968,88.0856 274.468,87.7523 272,87.5C 270.82,88.6841 269.32,89.3507 267.5,89.5C 263.5,90 259.5,90.5 255.5,91C 256.167,91.3333 256.833,91.6667 257.5,92C 252.629,92.6349 249.963,90.4682 249.5,85.5C 245.003,86.4575 240.67,86.4575 236.5,85.5C 240.477,84.7412 244.477,84.0746 248.5,83.5C 250.185,85.8176 252.519,86.8176 255.5,86.5C 255.336,83.8127 255.503,81.146 256,78.5C 257.255,79.2106 258.421,80.044 259.5,81C 264.578,80.9039 269.245,82.0706 273.5,84.5C 274.209,85.404 275.209,85.7373 276.5,85.5C 276.5,82.5 276.5,79.5 276.5,76.5C 278.954,76.6795 281.121,76.0128 283,74.5C 285.583,76.0466 287.917,75.7133 290,73.5C 291.721,74.8946 293.721,75.5613 296,75.5C 302.225,72.8186 308.725,71.4853 315.5,71.5 Z"/></g>
<g><path style="opacity:1" fill="#4f6671" d="M 127.5,82.5 C 114.896,82.3503 104.896,87.3503 97.5,97.5C 98.0354,92.5289 100.702,89.3623 105.5,88C 111.304,80.4697 118.637,78.6364 127.5,82.5 Z"/></g>
<g><path style="opacity:1" fill="#02060a" d="M 353.5,73.5 C 355.847,74.7157 358.347,74.7157 361,73.5C 364.623,75.6691 368.457,77.0024 372.5,77.5C 372.5,76.1667 372.5,74.8333 372.5,73.5C 395.537,78.7934 409.703,93.1268 415,116.5C 415.667,140.5 415.667,164.5 415,188.5C 413.699,200.127 413.199,211.794 413.5,223.5C 408.472,259.503 405.972,295.837 406,332.5C 404.992,340.198 403.825,347.864 402.5,355.5C 400.685,364.612 397.685,373.278 393.5,381.5C 387.22,389.148 379.887,395.648 371.5,401C 368.956,402.092 366.289,402.759 363.5,403C 357.06,406.554 350.393,409.554 343.5,412C 334.256,427.956 321.256,439.789 304.5,447.5C 304.297,445.61 304.963,444.11 306.5,443C 310.741,440.735 315.075,438.569 319.5,436.5C 322.385,432.105 325.885,428.105 330,424.5C 333.025,420.222 336.025,415.222 339,409.5C 340.534,404.242 341.701,398.909 342.5,393.5C 343.117,393.389 343.617,393.056 344,392.5C 344.452,389.123 345.118,385.789 346,382.5C 346.36,384.421 347.194,386.088 348.5,387.5C 349.137,383.429 349.971,379.429 351,375.5C 351.674,376.578 352.674,377.245 354,377.5C 358.696,377.222 363.029,375.889 367,373.5C 366.383,375.095 366.716,376.428 368,377.5C 372.864,375.809 375.697,372.476 376.5,367.5C 378.833,367.5 381.167,367.5 383.5,367.5C 383.334,361.824 383.501,356.157 384,350.5C 387.159,349.426 389.493,347.426 391,344.5C 393.611,337.057 394.778,329.391 394.5,321.5C 395.5,321.5 396.5,321.5 397.5,321.5C 397.847,298.581 399.514,275.915 402.5,253.5C 401.03,250.918 400.363,248.085 400.5,245C 401.469,240.123 401.469,235.29 400.5,230.5C 401.972,227.283 403.138,223.949 404,220.5C 404.249,221.624 404.749,222.624 405.5,223.5C 406.328,218.868 406.828,214.202 407,209.5C 407.71,208.027 408.876,207.36 410.5,207.5C 411.077,203.131 410.243,199.131 408,195.5C 406.634,199.396 405.467,203.396 404.5,207.5C 404.167,204.833 403.833,202.167 403.5,199.5C 404.174,194.147 404.841,188.814 405.5,183.5C 406.5,183.5 407.5,183.5 408.5,183.5C 410.123,170.798 410.79,158.131 410.5,145.5C 409.248,139.57 408.248,133.57 407.5,127.5C 409.288,127.785 410.955,127.452 412.5,126.5C 411.448,124.89 411.448,123.223 412.5,121.5C 411.474,117.42 409.141,116.086 405.5,117.5C 405.5,115.5 405.5,113.5 405.5,111.5C 404.5,111.5 403.5,111.5 402.5,111.5C 402.949,109.023 402.283,107.023 400.5,105.5C 400.056,108.165 399.556,111.165 399,114.5C 398.517,113.552 398.351,112.552 398.5,111.5C 397.5,111.5 396.5,111.5 395.5,111.5C 395.66,109.801 395.494,108.134 395,106.5C 393.332,102.763 391.999,102.763 391,106.5C 390.519,101.848 388.019,99.5148 383.5,99.5C 383.5,98.1667 383.5,96.8333 383.5,95.5C 377.109,95.7146 376.942,94.7146 383,92.5C 383.495,90.5273 383.662,88.5273 383.5,86.5C 374.721,86.3333 366.888,83.6666 360,78.5C 350.441,78.946 340.274,78.946 329.5,78.5C 324.438,78.5675 319.604,79.5675 315,81.5C 313.775,81.1377 312.609,80.6377 311.5,80C 311.833,79.6667 312.167,79.3333 312.5,79C 315.623,78.7935 318.623,78.1268 321.5,77C 319.167,76.6667 316.833,76.3333 314.5,76C 318.711,74.4661 323.044,74.1327 327.5,75C 328.667,75.5 329.5,76.3333 330,77.5C 333.986,75.2987 338.152,74.9654 342.5,76.5C 343.262,75.3717 343.929,74.2051 344.5,73C 338.644,70.5404 332.811,70.3738 327,72.5C 325.93,72.472 325.097,72.1386 324.5,71.5C 327.139,71.4292 329.306,70.4292 331,68.5C 338.586,69.8501 346.086,71.5168 353.5,73.5 Z"/></g>
<g><path style="opacity:1" fill="#608090" d="M 74.5,137.5 C 70.4392,155.518 66.2725,173.518 62,191.5C 61.3959,201.541 60.3959,211.541 59,221.5C 56.6211,230.966 54.4545,240.466 52.5,250C 55.01,267.515 60.51,284.015 69,299.5C 69.1858,297.1 69.6858,294.766 70.5,292.5C 72.2623,293.688 73.2623,295.355 73.5,297.5C 72.3501,296.15 71.6834,296.316 71.5,298C 73.6365,300.779 74.8031,303.946 75,307.5C 80.0391,313.079 84.2058,319.245 87.5,326C 85.9762,327.194 84.8096,328.694 84,330.5C 83.4242,328.623 83.5909,326.789 84.5,325C 84.0696,323.566 83.2362,322.399 82,321.5C 80.8794,325.456 79.7127,329.456 78.5,333.5C 75.3296,329.843 72.9963,325.676 71.5,321C 71.7355,320.127 72.0688,319.293 72.5,318.5C 69.9991,315.899 69.9991,313.399 72.5,311C 70.8624,308.867 70.029,306.367 70,303.5C 67.5774,300.751 65.5774,297.751 64,294.5C 64.7963,298.373 65.6297,302.373 66.5,306.5C 63.6755,306.919 61.5088,305.919 60,303.5C 60.2277,296.378 60.2277,289.378 60,282.5C 56.6824,276.88 54.349,270.88 53,264.5C 51.9887,263.663 50.8221,263.33 49.5,263.5C 51.0556,266.449 50.7223,269.116 48.5,271.5C 48.1667,270 47.8333,268.5 47.5,267C 47.4806,263.941 48.1473,261.107 49.5,258.5C 49.5142,256.389 48.8475,254.555 47.5,253C 47.9444,251.238 48.4444,251.405 49,253.5C 49.624,251.536 49.124,249.869 47.5,248.5C 47.946,245.51 47.946,242.343 47.5,239C 47.6667,236.5 47.8333,234 48,231.5C 49.3747,233.937 49.8747,236.603 49.5,239.5C 50.8333,239.5 52.1667,239.5 53.5,239.5C 56.4755,226.931 58.4755,214.098 59.5,201C 59.0159,197.854 59.0159,194.854 59.5,192C 58.552,191.517 57.552,191.351 56.5,191.5C 56.6621,189.473 56.4955,187.473 56,185.5C 54.6967,184.888 53.5301,184.554 52.5,184.5C 54.3915,181.058 55.3915,177.391 55.5,173.5C 56.8333,173.5 58.1667,173.5 59.5,173.5C 59.6427,171.738 59.3094,170.071 58.5,168.5C 61.0077,162.457 62.1744,156.124 62,149.5C 62.6667,148.167 63.3333,148.167 64,149.5C 65.0429,152.757 65.5429,156.09 65.5,159.5C 66.5,159.5 67.5,159.5 68.5,159.5C 69.1298,151.636 71.1298,144.303 74.5,137.5 Z"/></g>
<g><path style="opacity:1" fill="#02070b" d="M 156.5,77.5 C 158.698,79.0981 161.031,80.4314 163.5,81.5C 163.56,82.0431 163.893,82.3764 164.5,82.5C 165.85,81.0499 167.516,80.3832 169.5,80.5C 175.99,82.4898 182.656,82.9898 189.5,82C 190.167,81 190.833,80 191.5,79C 195.51,78.6432 199.51,78.8099 203.5,79.5C 203.918,80.2216 204.584,80.7216 205.5,81C 208.482,81.498 211.482,81.6646 214.5,81.5C 214.157,79.5168 214.824,78.1834 216.5,77.5C 220.5,79.1667 224.5,80.8333 228.5,82.5C 230.5,83.5 232.5,84.5 234.5,85.5C 232.032,87.9139 229.032,89.5806 225.5,90.5C 223.381,88.6002 221.047,86.9336 218.5,85.5C 217.045,86.3898 215.711,86.3898 214.5,85.5C 214.167,85.6667 213.833,85.8333 213.5,86C 215.947,87.2289 216.113,88.7289 214,90.5C 209.309,94.5254 207.142,93.8587 207.5,88.5C 204.514,87.6449 201.514,87.1449 198.5,87C 200.712,89.2634 202.378,91.9301 203.5,95C 201.421,95.8077 199.421,95.641 197.5,94.5C 196.872,92.7419 195.872,91.2419 194.5,90C 187.469,89.2387 180.469,89.4054 173.5,90.5C 173.105,88.6259 171.772,87.1259 169.5,86C 170.167,85.6667 170.833,85.3333 171.5,85C 168.104,82.9642 164.938,83.1309 162,85.5C 161.667,85.1667 161.333,84.8333 161,84.5C 158.874,87.4276 159.707,89.2609 163.5,90C 162.833,90.1667 162.167,90.3333 161.5,90.5C 157.63,90.1553 155.963,88.3219 156.5,85C 153.86,84.161 151.527,84.661 149.5,86.5C 148.167,85.8333 146.833,85.1667 145.5,84.5C 144.389,85.6113 143.055,86.278 141.5,86.5C 138.167,85.1667 134.833,85.1667 131.5,86.5C 129.813,86.2395 128.313,85.5728 127,84.5C 125.266,85.2489 123.433,85.7489 121.5,86C 122.696,86.6543 122.696,87.1543 121.5,87.5C 120.109,86.3554 118.776,86.3554 117.5,87.5C 118.376,88.2508 119.376,88.7508 120.5,89C 125.151,89.8987 129.818,90.7321 134.5,91.5C 131.538,93.0337 128.538,93.3671 125.5,92.5C 117.791,94.3455 110.124,96.5122 102.5,99C 101.624,100.586 100.624,102.086 99.5,103.5C 101.59,106.009 103.423,105.675 105,102.5C 105.5,103.667 106.333,104.5 107.5,105C 107.043,105.414 106.709,105.914 106.5,106.5C 102.001,106.91 97.8342,108.243 94,110.5C 93.6667,110.167 93.3333,109.833 93,109.5C 91.8603,112.528 92.6936,114.695 95.5,116C 95.3068,117.645 95.1402,119.479 95,121.5C 93.1642,122.669 91.9976,124.336 91.5,126.5C 90.3112,127.429 88.9778,127.762 87.5,127.5C 86.9845,135.395 84.9845,142.895 81.5,150C 81.7355,150.873 82.0688,151.707 82.5,152.5C 79.6807,159.946 77.0141,167.113 74.5,174C 75.3881,175.22 76.0548,176.553 76.5,178C 76.4056,180.954 75.9056,181.121 75,178.5C 74.1376,180.087 73.4709,181.754 73,183.5C 72.7837,181.616 72.117,179.949 71,178.5C 70.1561,180.851 69.4894,183.184 69,185.5C 68.6667,184.833 68.3333,184.167 68,183.5C 66.8889,186.955 68.0556,188.955 71.5,189.5C 71.3184,191.591 71.6518,193.591 72.5,195.5C 70.3862,201.234 70.0529,207.067 71.5,213C 68.8911,226.476 69.0578,239.976 72,253.5C 74.4838,256.131 74.6505,259.131 72.5,262.5C 73.325,263.386 74.325,263.719 75.5,263.5C 75.5,266.167 75.5,268.833 75.5,271.5C 79.2571,271.286 79.9238,272.286 77.5,274.5C 78.154,276.115 78.654,277.782 79,279.5C 82.9136,286.089 85.9136,293.089 88,300.5C 91.7064,304.91 94.0398,309.91 95,315.5C 95.4226,314.044 96.2559,313.544 97.5,314C 99.0445,316.925 100.711,319.758 102.5,322.5C 103.386,321.675 103.719,320.675 103.5,319.5C 104.873,319.343 106.207,319.51 107.5,320C 104.543,322.665 104.377,325.831 107,329.5C 112.286,336.487 118.953,341.82 127,345.5C 127.186,347.9 127.686,350.234 128.5,352.5C 130.432,351.48 132.432,351.313 134.5,352C 137.269,355.261 139.935,355.094 142.5,351.5C 143.48,354.086 143.813,356.753 143.5,359.5C 149.303,360.087 154.803,359.42 160,357.5C 162.747,359.454 162.914,361.454 160.5,363.5C 162.595,367.211 163.762,371.211 164,375.5C 164.497,372.854 164.664,370.187 164.5,367.5C 165.552,367.351 166.552,367.517 167.5,368C 166.512,375.157 165.679,382.324 165,389.5C 165.333,389.833 165.667,390.167 166,390.5C 166.895,388.196 167.729,385.862 168.5,383.5C 169.168,385.969 169.835,388.302 170.5,390.5C 170.218,391.778 169.551,392.778 168.5,393.5C 167.709,395.309 167.709,397.309 168.5,399.5C 167.167,399.5 165.833,399.5 164.5,399.5C 164.821,402.577 163.821,404.91 161.5,406.5C 157.878,403.278 154.712,399.612 152,395.5C 147.471,387.105 142.971,378.772 138.5,370.5C 138.025,368.216 137.025,366.216 135.5,364.5C 134.432,363.566 133.099,363.232 131.5,363.5C 131.666,370.841 131.5,378.174 131,385.5C 127.034,382.536 123.367,379.203 120,375.5C 110.227,362.949 101.727,349.616 94.5,335.5C 88.4992,322.155 81.4992,309.488 73.5,297.5C 73.2623,295.355 72.2623,293.688 70.5,292.5C 69.6858,294.766 69.1858,297.1 69,299.5C 60.51,284.015 55.01,267.515 52.5,250C 54.4545,240.466 56.6211,230.966 59,221.5C 60.3959,211.541 61.3959,201.541 62,191.5C 66.2725,173.518 70.4392,155.518 74.5,137.5C 77.0205,130.825 79.8538,124.159 83,117.5C 86.2516,112.666 89.2516,107.666 92,102.5C 93.7038,100.627 95.5372,98.9599 97.5,97.5C 104.896,87.3503 114.896,82.3503 127.5,82.5C 136.816,83.5501 146.149,83.5501 155.5,82.5C 155.579,81.0695 155.246,79.7362 154.5,78.5C 154.957,77.7025 155.624,77.3691 156.5,77.5 Z"/></g>
<g><path style="opacity:1" fill="#314446" d="M 169.5,80.5 C 167.516,80.3832 165.85,81.0499 164.5,82.5C 163.893,82.3764 163.56,82.0431 163.5,81.5C 165.362,79.5252 167.362,79.1919 169.5,80.5 Z"/></g>
<g><path style="opacity:1" fill="#3b2716" d="M 299.5,214.5 C 298.206,212.952 297.539,210.952 297.5,208.5C 297.559,206.109 297.893,203.775 298.5,201.5C 291.858,200.336 285.192,200.169 278.5,201C 275.403,203.198 272.403,205.364 269.5,207.5C 270.619,204.112 272.619,201.279 275.5,199C 283.818,199.794 292.151,199.627 300.5,198.5C 300.156,202.544 299.49,206.544 298.5,210.5C 298.623,211.925 298.957,213.258 299.5,214.5 Z"/></g>
<g><path style="opacity:1" fill="#402918" d="M 255.5,221.5 C 255.096,222.756 254.429,223.923 253.5,225C 254.022,225.95 254.689,226.784 255.5,227.5C 253.956,228.622 252.623,228.289 251.5,226.5C 248.845,227.551 246.345,228.884 244,230.5C 242.164,228.585 240.998,226.252 240.5,223.5C 239.158,221.995 237.492,221.328 235.5,221.5C 234.717,213.708 230.717,210.375 223.5,211.5C 220.813,211.664 218.146,211.497 215.5,211C 217.058,210.79 218.391,210.29 219.5,209.5C 229.084,206.452 234.751,209.785 236.5,219.5C 241.5,219.833 244.167,222.5 244.5,227.5C 248.604,226.282 252.271,224.282 255.5,221.5 Z"/></g>
<g><path style="opacity:1" fill="#618496" d="M 447.5,337.5 C 438.756,341.44 434.756,348.273 435.5,358C 435.656,361.2 435.989,364.367 436.5,367.5C 434.833,367.5 433.167,367.5 431.5,367.5C 431.321,369.954 431.987,372.121 433.5,374C 432.293,375.3 431.626,376.8 431.5,378.5C 425.459,378.747 419.459,378.414 413.5,377.5C 411.971,377.529 410.804,378.196 410,379.5C 411.146,386.033 411.646,392.7 411.5,399.5C 412.833,399.5 414.167,399.5 415.5,399.5C 415.5,403.167 415.5,406.833 415.5,410.5C 410.167,410.5 404.833,410.5 399.5,410.5C 399.66,408.801 399.494,407.134 399,405.5C 394.136,407.191 391.303,410.524 390.5,415.5C 389.5,415.5 388.5,415.5 387.5,415.5C 387.5,420.833 387.5,426.167 387.5,431.5C 385.5,431.5 383.5,431.5 381.5,431.5C 370.167,431.5 358.833,431.5 347.5,431.5C 347.461,428.19 348.794,425.524 351.5,423.5C 351.291,422.914 350.957,422.414 350.5,422C 353.603,420.275 356.936,419.108 360.5,418.5C 361.795,416.672 362.795,414.672 363.5,412.5C 366.8,413.651 370.3,413.317 374,411.5C 375.247,413.881 375.58,413.547 375,410.5C 374.25,409.874 373.416,409.374 372.5,409C 372.833,408.667 373.167,408.333 373.5,408C 371.765,407.349 370.098,407.515 368.5,408.5C 367.614,407.675 367.281,406.675 367.5,405.5C 369.564,405.313 371.564,404.813 373.5,404C 376.509,401.323 379.176,398.323 381.5,395C 383.436,394.187 385.436,393.687 387.5,393.5C 387.238,392.022 387.571,390.689 388.5,389.5C 392.631,388.37 394.298,385.703 393.5,381.5C 397.685,373.278 400.685,364.612 402.5,355.5C 403.586,355.38 404.253,354.713 404.5,353.5C 405.171,350.815 405.838,348.148 406.5,345.5C 407.158,344.602 407.824,343.602 408.5,342.5C 408.833,342.833 409.167,343.167 409.5,343.5C 410.23,346.109 410.73,348.776 411,351.5C 411.186,349.1 411.686,346.766 412.5,344.5C 413.08,350.913 413.913,357.247 415,363.5C 414.77,343.238 414.77,322.905 415,302.5C 416.356,303.38 417.856,303.714 419.5,303.5C 419.334,284.804 420.001,266.138 421.5,247.5C 420.902,237.259 421.402,226.925 423,216.5C 423.473,214.221 424.473,212.221 426,210.5C 427.543,212.378 429.376,213.878 431.5,215C 430.167,215.333 428.833,215.667 427.5,216C 428.667,217.167 429.833,218.333 431,219.5C 431.272,224.938 434.105,227.271 439.5,226.5C 439.927,230.824 440.261,235.158 440.5,239.5C 438.5,239.5 436.5,239.5 434.5,239.5C 434.334,244.844 434.501,250.177 435,255.5C 435.053,258.245 436.22,260.245 438.5,261.5C 439.265,265.325 439.932,269.158 440.5,273C 439.964,275.24 438.797,277.073 437,278.5C 436.337,275.131 436.504,271.797 437.5,268.5C 437.444,267.263 436.944,266.263 436,265.5C 435.505,267.473 435.338,269.473 435.5,271.5C 432.833,271.5 430.167,271.5 427.5,271.5C 427.334,276.844 427.501,282.177 428,287.5C 429,286.167 430,284.833 431,283.5C 431.49,284.793 431.657,286.127 431.5,287.5C 433.5,287.5 435.5,287.5 437.5,287.5C 437.48,289.143 438.147,290.476 439.5,291.5C 436.833,294.5 436.833,297.5 439.5,300.5C 438.833,301.167 438.167,301.833 437.5,302.5C 439.039,306.974 440.039,311.641 440.5,316.5C 441.167,317.5 441.833,318.5 442.5,319.5C 443.167,324.833 443.833,330.167 444.5,335.5C 443.87,332.684 444.536,330.018 446.5,327.5C 447.487,330.768 447.82,334.102 447.5,337.5 Z"/></g>
<g><path style="opacity:1" fill="#45220e" d="M 299.5,214.5 C 299.611,215.117 299.944,215.617 300.5,216C 305.592,216.793 310.592,217.127 315.5,217C 315.93,217.92 316.264,218.753 316.5,219.5C 318.409,218.652 320.409,218.318 322.5,218.5C 322.491,220.308 322.991,221.975 324,223.5C 324.333,223.167 324.667,222.833 325,222.5C 327.156,224.495 329.656,225.828 332.5,226.5C 332.5,229.167 332.5,231.833 332.5,234.5C 328.31,233.973 324.977,235.306 322.5,238.5C 314.076,241.211 306.409,245.211 299.5,250.5C 296.867,253.659 296.2,256.992 297.5,260.5C 297.158,261.338 296.492,261.672 295.5,261.5C 295.167,261.5 294.833,261.5 294.5,261.5C 295.152,257.44 293.485,255.44 289.5,255.5C 290.882,258.579 291.882,261.746 292.5,265C 291.004,266.331 289.671,267.831 288.5,269.5C 291.292,272.173 292.959,275.506 293.5,279.5C 296.486,281.935 299.819,283.602 303.5,284.5C 303.5,285.5 303.5,286.5 303.5,287.5C 298.103,288.534 292.603,289.534 287,290.5C 286.333,289.833 285.667,289.167 285,288.5C 285.417,282.393 283.75,277.06 280,272.5C 278.667,273.167 277.333,273.833 276,274.5C 275.501,278.821 275.334,283.154 275.5,287.5C 274.167,287.5 272.833,287.5 271.5,287.5C 271.663,285.143 271.497,282.81 271,280.5C 269.301,279.594 267.467,279.261 265.5,279.5C 265.305,272.887 267.139,266.887 271,261.5C 272.255,256.647 273.422,251.814 274.5,247C 273.975,246.308 273.308,245.808 272.5,245.5C 270.982,251.132 267.982,251.965 263.5,248C 264.43,246.605 264.43,245.105 263.5,243.5C 264.81,240.439 267.143,239.106 270.5,239.5C 270.649,238.448 270.483,237.448 270,236.5C 268.333,235.5 266.667,234.5 265,233.5C 264.417,235.002 263.584,236.335 262.5,237.5C 260.958,236.253 259.458,236.253 258,237.5C 256.331,239.169 255.498,241.169 255.5,243.5C 250.45,245.865 245.117,247.198 239.5,247.5C 239.5,244.833 239.5,242.167 239.5,239.5C 240.675,239.719 241.675,239.386 242.5,238.5C 240.441,237.049 239.441,235.049 239.5,232.5C 237.396,232.201 235.396,232.534 233.5,233.5C 234.09,234.799 235.09,235.632 236.5,236C 233.381,236.975 230.381,238.142 227.5,239.5C 226.228,239.43 225.062,239.097 224,238.5C 223.827,234.628 222.16,231.628 219,229.5C 215.406,230.185 211.906,231.185 208.5,232.5C 202.985,231.329 199.985,233.663 199.5,239.5C 192.509,240.256 185.509,240.423 178.5,240C 179.329,238.184 180.163,236.351 181,234.5C 183.624,232.965 186.457,231.798 189.5,231C 188.131,228.761 188.631,226.927 191,225.5C 191.333,226.167 191.667,226.833 192,227.5C 196.448,223.982 201.615,222.482 207.5,223C 204.5,222.667 201.5,222.333 198.5,222C 199.167,220.667 200.167,219.667 201.5,219C 204.94,218.351 208.273,217.518 211.5,216.5C 213.926,216.404 216.093,217.07 218,218.5C 219.793,216.194 221.96,215.861 224.5,217.5C 224.833,217.167 225.167,216.833 225.5,216.5C 224.05,215.15 223.383,213.484 223.5,211.5C 230.717,210.375 234.717,213.708 235.5,221.5C 237.492,221.328 239.158,221.995 240.5,223.5C 240.998,226.252 242.164,228.585 244,230.5C 246.345,228.884 248.845,227.551 251.5,226.5C 252.623,228.289 253.956,228.622 255.5,227.5C 254.689,226.784 254.022,225.95 253.5,225C 254.429,223.923 255.096,222.756 255.5,221.5C 259.833,216.5 264.5,211.833 269.5,207.5C 272.403,205.364 275.403,203.198 278.5,201C 285.192,200.169 291.858,200.336 298.5,201.5C 297.893,203.775 297.559,206.109 297.5,208.5C 297.539,210.952 298.206,212.952 299.5,214.5 Z"/></g>
<g><path style="opacity:1" fill="#381f11" d="M 333.5,235.5 C 329.789,236.344 326.123,237.344 322.5,238.5C 324.977,235.306 328.31,233.973 332.5,234.5C 332.5,231.833 332.5,229.167 332.5,226.5C 329.656,225.828 327.156,224.495 325,222.5C 324.667,222.833 324.333,223.167 324,223.5C 322.991,221.975 322.491,220.308 322.5,218.5C 320.409,218.318 318.409,218.652 316.5,219.5C 316.264,218.753 315.93,217.92 315.5,217C 310.592,217.127 305.592,216.793 300.5,216C 299.944,215.617 299.611,215.117 299.5,214.5C 304.951,216.392 309.951,215.725 314.5,212.5C 315.791,214.097 317.291,215.43 319,216.5C 320.333,215.833 321.667,215.167 323,214.5C 325.587,217.612 328.087,220.945 330.5,224.5C 332.045,225.452 333.712,225.785 335.5,225.5C 335.665,228.518 335.498,231.518 335,234.5C 334.617,235.056 334.117,235.389 333.5,235.5 Z"/></g>
<g><path style="opacity:1" fill="#32190b" d="M 207.5,212.5 C 202.336,213.989 197.003,215.322 191.5,216.5C 189.056,218.895 186.39,221.062 183.5,223C 180.903,226.719 177.737,229.886 174,232.5C 173.288,235.744 173.788,238.744 175.5,241.5C 174.325,241.719 173.325,241.386 172.5,240.5C 171.626,238.253 171.292,235.92 171.5,233.5C 171.838,231.146 172.338,228.813 173,226.5C 182.299,216.435 193.799,211.768 207.5,212.5 Z"/></g>
<g><path style="opacity:1" fill="#41210f" d="M 219.5,209.5 C 218.391,210.29 217.058,210.79 215.5,211C 218.146,211.497 220.813,211.664 223.5,211.5C 223.383,213.484 224.05,215.15 225.5,216.5C 225.167,216.833 224.833,217.167 224.5,217.5C 221.96,215.861 219.793,216.194 218,218.5C 216.093,217.07 213.926,216.404 211.5,216.5C 208.273,217.518 204.94,218.351 201.5,219C 200.167,219.667 199.167,220.667 198.5,222C 201.5,222.333 204.5,222.667 207.5,223C 201.615,222.482 196.448,223.982 192,227.5C 191.667,226.833 191.333,226.167 191,225.5C 188.631,226.927 188.131,228.761 189.5,231C 186.457,231.798 183.624,232.965 181,234.5C 180.163,236.351 179.329,238.184 178.5,240C 185.509,240.423 192.509,240.256 199.5,239.5C 199.985,233.663 202.985,231.329 208.5,232.5C 211.906,231.185 215.406,230.185 219,229.5C 222.16,231.628 223.827,234.628 224,238.5C 225.062,239.097 226.228,239.43 227.5,239.5C 230.381,238.142 233.381,236.975 236.5,236C 235.09,235.632 234.09,234.799 233.5,233.5C 235.396,232.534 237.396,232.201 239.5,232.5C 239.441,235.049 240.441,237.049 242.5,238.5C 241.675,239.386 240.675,239.719 239.5,239.5C 239.5,242.167 239.5,244.833 239.5,247.5C 245.117,247.198 250.45,245.865 255.5,243.5C 255.498,241.169 256.331,239.169 258,237.5C 259.458,236.253 260.958,236.253 262.5,237.5C 263.584,236.335 264.417,235.002 265,233.5C 266.667,234.5 268.333,235.5 270,236.5C 270.483,237.448 270.649,238.448 270.5,239.5C 267.143,239.106 264.81,240.439 263.5,243.5C 264.43,245.105 264.43,246.605 263.5,248C 267.982,251.965 270.982,251.132 272.5,245.5C 273.308,245.808 273.975,246.308 274.5,247C 273.422,251.814 272.255,256.647 271,261.5C 267.139,266.887 265.305,272.887 265.5,279.5C 267.467,279.261 269.301,279.594 271,280.5C 271.497,282.81 271.663,285.143 271.5,287.5C 272.833,287.5 274.167,287.5 275.5,287.5C 275.334,283.154 275.501,278.821 276,274.5C 277.333,273.833 278.667,273.167 280,272.5C 283.75,277.06 285.417,282.393 285,288.5C 285.667,289.167 286.333,289.833 287,290.5C 292.603,289.534 298.103,288.534 303.5,287.5C 307.991,290.487 312.158,293.82 316,297.5C 317.261,297.241 318.261,296.574 319,295.5C 320.698,296.733 322.698,297.4 325,297.5C 329.855,298.141 333.021,296.141 334.5,291.5C 336.317,293.416 337.484,295.749 338,298.5C 338.256,295.443 338.756,292.443 339.5,289.5C 338.708,283.551 338.208,277.551 338,271.5C 337.019,277.864 336.519,277.531 336.5,270.5C 337.791,270.737 338.791,270.404 339.5,269.5C 340.434,268.432 340.768,267.099 340.5,265.5C 341.497,283.326 341.83,301.326 341.5,319.5C 339.679,333.83 338.346,348.497 337.5,363.5C 337.027,358.355 335.694,353.355 333.5,348.5C 334.046,346.865 334.38,345.199 334.5,343.5C 333.5,343.5 332.5,343.5 331.5,343.5C 331.657,344.873 331.49,346.207 331,347.5C 329.615,348.551 328.615,349.884 328,351.5C 327.755,355.853 327.755,360.187 328,364.5C 326.305,361.305 323.805,358.972 320.5,357.5C 322.872,353.756 322.705,350.089 320,346.5C 319.309,348.891 318.309,348.891 317,346.5C 316.46,344.865 316.96,343.532 318.5,342.5C 317.758,341.713 316.925,341.047 316,340.5C 315.092,342.439 313.592,343.439 311.5,343.5C 311.5,342.167 311.5,340.833 311.5,339.5C 306.833,340.833 302.167,342.167 297.5,343.5C 296.614,345.722 296.614,347.888 297.5,350C 296.419,351.371 295.585,352.871 295,354.5C 294.333,350.15 292,347.15 288,345.5C 287.502,342.183 287.335,338.85 287.5,335.5C 285.09,335.921 283.257,337.254 282,339.5C 280.716,338.428 280.383,337.095 281,335.5C 280.667,335.833 280.333,336.167 280,336.5C 278.726,332.515 276.726,331.848 274,334.5C 269.611,330.875 264.944,330.542 260,333.5C 259.667,332.167 259.333,330.833 259,329.5C 257.294,331.705 255.794,334.038 254.5,336.5C 252.253,335.626 249.92,335.292 247.5,335.5C 247.299,331.65 245.466,330.65 242,332.5C 241.255,334.203 240.421,335.87 239.5,337.5C 240.851,340.044 241.851,342.711 242.5,345.5C 242.167,346.5 241.5,347.167 240.5,347.5C 239.742,346.189 238.742,345.689 237.5,346C 230.749,350.424 231.082,354.257 238.5,357.5C 239.354,356.478 240.354,355.645 241.5,355C 244.827,354.39 248.161,353.89 251.5,353.5C 251.649,354.552 251.483,355.552 251,356.5C 249.265,358.611 247.432,360.611 245.5,362.5C 246.391,363.59 247.391,363.59 248.5,362.5C 249.696,362.846 249.696,363.346 248.5,364C 244.813,365.052 242.146,363.885 240.5,360.5C 239.614,361.325 239.281,362.325 239.5,363.5C 237.213,363.724 235.047,364.391 233,365.5C 231.359,363.955 230.193,364.289 229.5,366.5C 230.326,367.451 230.492,368.451 230,369.5C 228.333,370.833 226.667,370.833 225,369.5C 224.193,372.973 222.027,375.14 218.5,376C 216.416,377.501 215.083,379.501 214.5,382C 216.955,386.947 220.955,389.78 226.5,390.5C 227.86,389.82 229.193,389.153 230.5,388.5C 232.184,389.662 234.517,390.329 237.5,390.5C 238.051,394.706 236.217,397.04 232,397.5C 231.751,396.376 231.251,395.376 230.5,394.5C 228.941,395.447 227.274,396.113 225.5,396.5C 219.668,397.379 213.668,397.379 207.5,396.5C 204.152,392.803 202.152,388.47 201.5,383.5C 204.29,383.222 206.79,383.889 209,385.5C 212.13,384.712 212.297,383.546 209.5,382C 211.508,378.915 212.341,375.748 212,372.5C 213.345,368.449 216.012,365.782 220,364.5C 220.892,361.716 222.058,359.05 223.5,356.5C 219.452,352.695 215.452,352.695 211.5,356.5C 207.403,353.424 202.903,352.758 198,354.5C 195.942,353.888 194.109,352.888 192.5,351.5C 191.686,353.766 191.186,356.1 191,358.5C 189.246,354.675 187.913,350.675 187,346.5C 185.984,345.366 185.317,345.699 185,347.5C 184.583,346.244 183.75,345.577 182.5,345.5C 181.892,344.2 181.225,342.867 180.5,341.5C 182.146,339.945 182.479,338.279 181.5,336.5C 183.104,335.397 184.104,333.897 184.5,332C 182.334,317.839 180.167,303.672 178,289.5C 177.692,288.692 177.192,288.025 176.5,287.5C 175.679,290.447 175.179,293.447 175,296.5C 174.177,287.99 174.343,279.656 175.5,271.5C 177.365,275.987 179.531,279.654 182,282.5C 183.507,281.465 185.007,281.632 186.5,283C 187.833,284.333 189.167,285.667 190.5,287C 187.988,288.873 188.154,290.707 191,292.5C 191.483,291.552 191.649,290.552 191.5,289.5C 193.857,289.337 196.19,289.503 198.5,290C 200.227,293.393 202.894,295.726 206.5,297C 212.157,297.499 217.824,297.666 223.5,297.5C 223.5,299.5 223.5,301.5 223.5,303.5C 225.833,303.5 228.167,303.5 230.5,303.5C 231.303,298.524 234.136,295.191 239,293.5C 239.333,291.833 239.667,290.167 240,288.5C 241.011,287.663 242.178,287.33 243.5,287.5C 243.765,276.714 244.098,266.047 244.5,255.5C 242.833,255.5 241.167,255.5 239.5,255.5C 239.5,253.5 239.5,251.5 239.5,249.5C 237.801,249.34 236.134,249.506 234.5,250C 235.451,250.718 235.617,251.551 235,252.5C 229.734,256.437 224.567,256.437 219.5,252.5C 219.5,253.5 219.5,254.5 219.5,255.5C 220.552,255.351 221.552,255.517 222.5,256C 218.873,258.112 218.873,259.779 222.5,261C 221.643,261.689 220.977,262.522 220.5,263.5C 221.754,265.643 221.754,267.643 220.5,269.5C 220.657,268.127 220.49,266.793 220,265.5C 216.274,260.772 212.941,255.772 210,250.5C 207.788,247.324 204.955,244.991 201.5,243.5C 192.703,242.888 184.036,242.221 175.5,241.5C 173.788,238.744 173.288,235.744 174,232.5C 177.737,229.886 180.903,226.719 183.5,223C 186.39,221.062 189.056,218.895 191.5,216.5C 197.003,215.322 202.336,213.989 207.5,212.5C 211.098,210.308 215.098,209.308 219.5,209.5 Z"/></g>
<g><path style="opacity:1" fill="#0b0b02" d="M 333.5,235.5 C 332,237.179 330.167,238.512 328,239.5C 327.365,240.966 326.531,242.3 325.5,243.5C 328.868,246.65 333.035,249.317 338,251.5C 338.251,253.433 338.751,255.266 339.5,257C 337.023,258.705 335.689,260.705 335.5,263C 337.315,263.757 338.981,264.59 340.5,265.5C 330.849,265.261 321.515,266.595 312.5,269.5C 304.951,268.934 304.617,267.601 311.5,265.5C 312.609,265.443 313.609,265.11 314.5,264.5C 315.482,261.038 315.815,257.371 315.5,253.5C 313.473,253.338 311.473,253.505 309.5,254C 305.845,256.827 301.845,258.993 297.5,260.5C 296.2,256.992 296.867,253.659 299.5,250.5C 306.409,245.211 314.076,241.211 322.5,238.5C 326.123,237.344 329.789,236.344 333.5,235.5 Z"/></g>
<g><path style="opacity:1" fill="#110e03" d="M 171.5,233.5 C 171.292,235.92 171.626,238.253 172.5,240.5C 173.325,241.386 174.325,241.719 175.5,241.5C 184.036,242.221 192.703,242.888 201.5,243.5C 207.324,251.137 213.158,258.803 219,266.5C 219.49,267.793 219.657,269.127 219.5,270.5C 213.94,268.948 208.274,267.948 202.5,267.5C 198.963,264.755 197.296,261.088 197.5,256.5C 191.848,255.312 186.181,255.312 180.5,256.5C 177.5,256.5 174.5,256.5 171.5,256.5C 171.5,258.833 171.5,261.167 171.5,263.5C 171.5,282.167 171.5,300.833 171.5,319.5C 169.604,298.691 169.104,277.691 170,256.5C 171.699,255.594 173.533,255.261 175.5,255.5C 175.5,254.5 175.5,253.5 175.5,252.5C 173.897,252.688 172.563,252.188 171.5,251C 173.156,249.171 175.156,247.837 177.5,247C 174.833,246.333 174.833,245.667 177.5,245C 170.767,243.643 168.767,239.809 171.5,233.5 Z"/></g>
<g><path style="opacity:1" fill="#28180a" d="M 201.5,243.5 C 204.955,244.991 207.788,247.324 210,250.5C 212.941,255.772 216.274,260.772 220,265.5C 220.49,266.793 220.657,268.127 220.5,269.5C 220.5,270.167 220.167,270.5 219.5,270.5C 219.657,269.127 219.49,267.793 219,266.5C 213.158,258.803 207.324,251.137 201.5,243.5 Z"/></g>
<g><path style="opacity:1" fill="#5f4526" d="M 202.5,267.5 C 208.154,270.143 214.154,271.976 220.5,273C 214.246,273.892 208.246,273.392 202.5,271.5C 201.365,269.787 199.698,269.12 197.5,269.5C 197.534,266.801 196.867,264.301 195.5,262C 193.801,261.607 192.301,262.107 191,263.5C 186.297,262.821 185.797,261.487 189.5,259.5C 185.893,258.511 182.226,258.177 178.5,258.5C 177.448,258.649 176.448,258.483 175.5,258C 177.382,257.802 179.048,257.302 180.5,256.5C 186.181,255.312 191.848,255.312 197.5,256.5C 197.296,261.088 198.963,264.755 202.5,267.5 Z"/></g>
<g><path style="opacity:1" fill="#503d28" d="M 314.5,264.5 C 314.664,261.813 314.497,259.146 314,256.5C 310.077,257.959 306.577,259.959 303.5,262.5C 303.565,262.062 303.399,261.728 303,261.5C 300.377,264.124 297.877,264.124 295.5,261.5C 296.492,261.672 297.158,261.338 297.5,260.5C 301.845,258.993 305.845,256.827 309.5,254C 311.473,253.505 313.473,253.338 315.5,253.5C 315.815,257.371 315.482,261.038 314.5,264.5 Z"/></g>
<g><path style="opacity:1" fill="#655030" d="M 314.5,264.5 C 313.609,265.11 312.609,265.443 311.5,265.5C 310.167,265.5 308.833,265.5 307.5,265.5C 307.611,264.883 307.944,264.383 308.5,264C 306.618,263.802 304.952,263.302 303.5,262.5C 306.577,259.959 310.077,257.959 314,256.5C 314.497,259.146 314.664,261.813 314.5,264.5 Z"/></g>
<g><path style="opacity:1" fill="#563314" d="M 294.5,261.5 C 294.833,261.5 295.167,261.5 295.5,261.5C 297.877,264.124 300.377,264.124 303,261.5C 303.399,261.728 303.565,262.062 303.5,262.5C 304.952,263.302 306.618,263.802 308.5,264C 307.944,264.383 307.611,264.883 307.5,265.5C 306.292,266.234 304.959,266.567 303.5,266.5C 303.5,267.5 303.5,268.5 303.5,269.5C 306.666,269.766 309.833,270.099 313,270.5C 319.88,268.92 326.88,267.92 334,267.5C 336.295,267.547 338.129,268.213 339.5,269.5C 331.004,270.88 322.338,271.546 313.5,271.5C 308.833,271.167 304.167,270.833 299.5,270.5C 297.267,267.785 295.6,264.785 294.5,261.5 Z"/></g>
<g><path style="opacity:1" fill="#544027" d="M 307.5,265.5 C 308.833,265.5 310.167,265.5 311.5,265.5C 304.617,267.601 304.951,268.934 312.5,269.5C 321.515,266.595 330.849,265.261 340.5,265.5C 340.768,267.099 340.434,268.432 339.5,269.5C 338.129,268.213 336.295,267.547 334,267.5C 326.88,267.92 319.88,268.92 313,270.5C 309.833,270.099 306.666,269.766 303.5,269.5C 303.5,268.5 303.5,267.5 303.5,266.5C 304.959,266.567 306.292,266.234 307.5,265.5 Z"/></g>
<g><path style="opacity:1" fill="#442812" d="M 175.5,271.5 C 176.239,271.631 176.906,271.464 177.5,271C 175.808,269.599 175.141,267.766 175.5,265.5C 173.801,265.473 172.467,264.806 171.5,263.5C 171.5,261.167 171.5,258.833 171.5,256.5C 174.5,256.5 177.5,256.5 180.5,256.5C 179.048,257.302 177.382,257.802 175.5,258C 176.448,258.483 177.448,258.649 178.5,258.5C 179.091,259.151 179.757,259.818 180.5,260.5C 179.359,261.425 179.359,262.259 180.5,263C 184.743,265.371 188.909,267.871 193,270.5C 196.105,271.367 199.272,271.701 202.5,271.5C 208.246,273.392 214.246,273.892 220.5,273C 214.154,271.976 208.154,270.143 202.5,267.5C 208.274,267.948 213.94,268.948 219.5,270.5C 220.167,270.5 220.5,270.167 220.5,269.5C 221.754,267.643 221.754,265.643 220.5,263.5C 220.977,262.522 221.643,261.689 222.5,261C 218.873,259.779 218.873,258.112 222.5,256C 221.552,255.517 220.552,255.351 219.5,255.5C 219.5,254.5 219.5,253.5 219.5,252.5C 224.567,256.437 229.734,256.437 235,252.5C 235.617,251.551 235.451,250.718 234.5,250C 236.134,249.506 237.801,249.34 239.5,249.5C 239.5,251.5 239.5,253.5 239.5,255.5C 241.167,255.5 242.833,255.5 244.5,255.5C 244.098,266.047 243.765,276.714 243.5,287.5C 242.178,287.33 241.011,287.663 240,288.5C 239.667,290.167 239.333,291.833 239,293.5C 234.136,295.191 231.303,298.524 230.5,303.5C 228.167,303.5 225.833,303.5 223.5,303.5C 223.5,301.5 223.5,299.5 223.5,297.5C 217.824,297.666 212.157,297.499 206.5,297C 202.894,295.726 200.227,293.393 198.5,290C 196.19,289.503 193.857,289.337 191.5,289.5C 191.649,290.552 191.483,291.552 191,292.5C 188.154,290.707 187.988,288.873 190.5,287C 189.167,285.667 187.833,284.333 186.5,283C 185.007,281.632 183.507,281.465 182,282.5C 179.531,279.654 177.365,275.987 175.5,271.5 Z"/></g>
<g><path style="opacity:1" fill="#5d3b19" d="M 178.5,258.5 C 182.226,258.177 185.893,258.511 189.5,259.5C 185.797,261.487 186.297,262.821 191,263.5C 192.301,262.107 193.801,261.607 195.5,262C 196.867,264.301 197.534,266.801 197.5,269.5C 199.698,269.12 201.365,269.787 202.5,271.5C 199.272,271.701 196.105,271.367 193,270.5C 188.909,267.871 184.743,265.371 180.5,263C 179.359,262.259 179.359,261.425 180.5,260.5C 179.757,259.818 179.091,259.151 178.5,258.5 Z"/></g>
<g><path style="opacity:1" fill="#647785" d="M 413.5,223.5 C 413.5,228.833 413.5,234.167 413.5,239.5C 412.352,248.687 411.185,258.02 410,267.5C 409.305,293.541 408.139,319.541 406.5,345.5C 405.838,348.148 405.171,350.815 404.5,353.5C 404.253,354.713 403.586,355.38 402.5,355.5C 403.825,347.864 404.992,340.198 406,332.5C 405.972,295.837 408.472,259.503 413.5,223.5 Z"/></g>
<g><path style="opacity:1" fill="#46200e" d="M 171.5,263.5 C 172.467,264.806 173.801,265.473 175.5,265.5C 175.141,267.766 175.808,269.599 177.5,271C 176.906,271.464 176.239,271.631 175.5,271.5C 174.343,279.656 174.177,287.99 175,296.5C 175.179,293.447 175.679,290.447 176.5,287.5C 177.192,288.025 177.692,288.692 178,289.5C 180.167,303.672 182.334,317.839 184.5,332C 184.104,333.897 183.104,335.397 181.5,336.5C 182.479,338.279 182.146,339.945 180.5,341.5C 181.225,342.867 181.892,344.2 182.5,345.5C 181.864,346.925 181.864,348.592 182.5,350.5C 180.743,353.684 179.243,357.018 178,360.5C 175.741,358.754 174.408,356.42 174,353.5C 173.83,343.658 173.33,333.991 172.5,324.5C 172.784,322.585 172.451,320.919 171.5,319.5C 171.5,300.833 171.5,282.167 171.5,263.5 Z"/></g>
<g><path style="opacity:1" fill="#452712" d="M 294.5,261.5 C 295.6,264.785 297.267,267.785 299.5,270.5C 304.167,270.833 308.833,271.167 313.5,271.5C 322.338,271.546 331.004,270.88 339.5,269.5C 338.791,270.404 337.791,270.737 336.5,270.5C 336.519,277.531 337.019,277.864 338,271.5C 338.208,277.551 338.708,283.551 339.5,289.5C 338.756,292.443 338.256,295.443 338,298.5C 337.484,295.749 336.317,293.416 334.5,291.5C 333.021,296.141 329.855,298.141 325,297.5C 322.698,297.4 320.698,296.733 319,295.5C 318.261,296.574 317.261,297.241 316,297.5C 312.158,293.82 307.991,290.487 303.5,287.5C 303.5,286.5 303.5,285.5 303.5,284.5C 299.819,283.602 296.486,281.935 293.5,279.5C 292.959,275.506 291.292,272.173 288.5,269.5C 289.671,267.831 291.004,266.331 292.5,265C 291.882,261.746 290.882,258.579 289.5,255.5C 293.485,255.44 295.152,257.44 294.5,261.5 Z"/></g>
<g><path style="opacity:1" fill="#628494" d="M 447.5,337.5 C 447.335,341.182 447.501,344.848 448,348.5C 448.374,349.416 448.874,350.25 449.5,351C 448.316,352.18 447.649,353.68 447.5,355.5C 448.503,362.156 448.503,368.823 447.5,375.5C 444.679,375.316 443.012,376.649 442.5,379.5C 443.969,383.567 444.969,387.734 445.5,392C 441.421,395.377 439.254,394.211 439,388.5C 435.649,391.635 433.483,395.302 432.5,399.5C 430.833,399.5 429.167,399.5 427.5,399.5C 427.181,401.75 427.681,403.75 429,405.5C 431.465,401.953 434.131,398.62 437,395.5C 437.583,397.002 438.416,398.335 439.5,399.5C 440.812,404.3 440.812,405.967 439.5,404.5C 435.842,404.324 434.842,405.824 436.5,409C 434.899,412.249 434.066,415.749 434,419.5C 433.535,420.931 432.701,422.097 431.5,423C 435.251,424.915 438.585,427.415 441.5,430.5C 439.816,431.854 439.316,433.521 440,435.5C 443.795,434.149 445.962,435.482 446.5,439.5C 445.5,439.5 444.5,439.5 443.5,439.5C 442.217,442.01 441.217,444.677 440.5,447.5C 441.552,447.649 442.552,447.483 443.5,447C 444.158,445.095 445.325,443.595 447,442.5C 447.333,443.167 447.667,443.833 448,444.5C 452.542,441.836 452.375,439.836 447.5,438.5C 450.026,437.576 452.526,436.576 455,435.5C 457.02,436.032 457.853,437.365 457.5,439.5C 456.127,439.343 454.793,439.51 453.5,440C 456.737,444.217 456.07,445.717 451.5,444.5C 451.5,445.5 451.5,446.5 451.5,447.5C 450.022,447.238 448.689,447.571 447.5,448.5C 450.216,451.262 452.549,450.928 454.5,447.5C 455.386,448.325 455.719,449.325 455.5,450.5C 458.448,450.777 461.281,450.444 464,449.5C 465.23,450.275 465.563,451.275 465,452.5C 463.491,453.09 461.991,453.756 460.5,454.5C 461.325,455.386 462.325,455.719 463.5,455.5C 463.5,457.5 463.5,459.5 463.5,461.5C 466.004,462.639 468.67,463.306 471.5,463.5C 471.337,465.857 471.503,468.19 472,470.5C 473.953,473.255 475.12,476.255 475.5,479.5C 474.167,479.5 472.833,479.5 471.5,479.5C 471.463,486.596 473.296,486.596 477,479.5C 478.751,481.212 479.418,483.212 479,485.5C 477.989,484.663 476.822,484.33 475.5,484.5C 475.5,485.5 475.5,486.5 475.5,487.5C 470.786,487.173 466.12,487.507 461.5,488.5C 462.996,490.833 464.83,492.833 467,494.5C 468.093,492.651 469.426,490.984 471,489.5C 471.333,490.167 471.667,490.833 472,491.5C 472.689,490.643 473.522,489.977 474.5,489.5C 477.026,491.919 478.86,491.253 480,487.5C 483.303,489.397 483.136,491.064 479.5,492.5C 481.45,494.753 483.784,495.086 486.5,493.5C 487.328,494.415 488.328,495.081 489.5,495.5C 492.861,492.957 496.195,492.957 499.5,495.5C 500.914,494.376 502.414,493.376 504,492.5C 504.333,492.833 504.667,493.167 505,493.5C 506.002,483.487 507.168,473.487 508.5,463.5C 507.248,452.632 506.248,441.798 505.5,431C 506,430.5 506.5,430 507,429.5C 507.974,431.878 508.641,431.544 509,428.5C 510.081,433.418 510.581,438.418 510.5,443.5C 509.698,458.401 509.365,473.234 509.5,488C 510.148,493.933 510.814,499.766 511.5,505.5C 511.5,507.5 511.5,509.5 511.5,511.5C 436.167,511.5 360.833,511.5 285.5,511.5C 285.724,503.492 285.724,495.659 285.5,488C 285.944,486.238 286.444,486.405 287,488.5C 287.497,490.81 287.663,493.143 287.5,495.5C 288.833,495.5 290.167,495.5 291.5,495.5C 291.5,490.167 291.5,484.833 291.5,479.5C 292.675,479.719 293.675,479.386 294.5,478.5C 296.363,473.941 298.363,469.441 300.5,465C 300.265,464.127 299.931,463.293 299.5,462.5C 301.503,460.867 302.836,458.867 303.5,456.5C 301.897,456.688 300.563,456.188 299.5,455C 301.851,454.156 304.184,453.489 306.5,453C 305.833,452.333 305.167,451.667 304.5,451C 306.5,450.333 308.5,450.333 310.5,451C 309.672,451.915 308.672,452.581 307.5,453C 308.5,453.5 309.5,454 310.5,454.5C 310.833,453.833 311.167,453.167 311.5,452.5C 312.814,453.313 313.981,454.313 315,455.5C 316.333,454.167 317.667,452.833 319,451.5C 319.388,452.428 320.055,453.095 321,453.5C 323.111,452.528 325.278,451.695 327.5,451C 326.663,449.989 326.33,448.822 326.5,447.5C 331.833,447.5 337.167,447.5 342.5,447.5C 343.303,442.524 346.136,439.191 351,437.5C 353.362,439.016 355.862,440.35 358.5,441.5C 360.222,445.201 360.389,448.868 359,452.5C 356.552,454.631 354.052,456.631 351.5,458.5C 351.833,458.833 352.167,459.167 352.5,459.5C 355.437,457.187 358.77,455.854 362.5,455.5C 362.548,461.498 364.548,462.165 368.5,457.5C 374.314,459.778 376.814,464.111 376,470.5C 378.69,468.644 380.856,466.311 382.5,463.5C 383.323,471.086 385.323,471.419 388.5,464.5C 386.596,463.591 384.762,462.591 383,461.5C 381.105,463.182 378.938,463.682 376.5,463C 377.167,462.333 377.833,461.667 378.5,461C 375.173,459.209 374.84,457.043 377.5,454.5C 376.233,450.572 375.733,446.572 376,442.5C 379.466,444.35 381.299,443.35 381.5,439.5C 380.325,439.719 379.325,439.386 378.5,438.5C 379.788,436.261 380.788,433.928 381.5,431.5C 383.5,431.5 385.5,431.5 387.5,431.5C 387.5,426.167 387.5,420.833 387.5,415.5C 388.5,415.5 389.5,415.5 390.5,415.5C 391.303,410.524 394.136,407.191 399,405.5C 399.494,407.134 399.66,408.801 399.5,410.5C 404.833,410.5 410.167,410.5 415.5,410.5C 415.5,406.833 415.5,403.167 415.5,399.5C 414.167,399.5 412.833,399.5 411.5,399.5C 411.646,392.7 411.146,386.033 410,379.5C 410.804,378.196 411.971,377.529 413.5,377.5C 419.459,378.414 425.459,378.747 431.5,378.5C 431.626,376.8 432.293,375.3 433.5,374C 431.987,372.121 431.321,369.954 431.5,367.5C 433.167,367.5 434.833,367.5 436.5,367.5C 435.989,364.367 435.656,361.2 435.5,358C 434.756,348.273 438.756,341.44 447.5,337.5 Z"/></g>
<g><path style="opacity:1" fill="#421f0c" d="M 337.5,363.5 C 337.579,365.666 338.246,367.666 339.5,369.5C 338.327,375.34 336.827,380.34 335,384.5C 334.202,387.239 332.535,389.239 330,390.5C 329.047,393.432 328.547,396.432 328.5,399.5C 327.167,399.5 325.833,399.5 324.5,399.5C 324.5,400.833 324.5,402.167 324.5,403.5C 325.552,403.649 326.552,403.483 327.5,403C 328.756,400.372 330.756,399.372 333.5,400C 332.167,401.333 330.833,402.667 329.5,404C 330.196,405.488 329.862,406.988 328.5,408.5C 325.885,408.144 324.052,406.811 323,404.5C 321.836,406.649 320.67,408.815 319.5,411C 320.167,411.667 320.833,412.333 321.5,413C 318.469,412.742 315.469,413.409 312.5,415C 313.833,415.333 315.167,415.667 316.5,416C 312.612,418.733 308.778,418.9 305,416.5C 303.812,417.563 303.312,418.897 303.5,420.5C 302.522,420.189 301.855,419.522 301.5,418.5C 301.833,416.571 302.499,414.404 303.5,412C 303.333,410.833 303.167,409.667 303,408.5C 301.097,410.441 300.264,412.774 300.5,415.5C 294.203,415.366 291.036,412.033 291,405.5C 290.5,404.333 289.667,403.5 288.5,403C 289.973,402.29 290.64,401.124 290.5,399.5C 288.857,399.48 287.524,400.147 286.5,401.5C 282.614,400.412 282.614,399.579 286.5,399C 285.747,397.513 284.914,397.346 284,398.5C 283.667,396.833 283.333,395.167 283,393.5C 280.656,391.695 277.822,390.362 274.5,389.5C 269.337,390.239 264.004,390.406 258.5,390C 262.185,389.086 261.852,388.419 257.5,388C 260.633,387.14 263.3,385.64 265.5,383.5C 274.532,383.29 283.532,382.623 292.5,381.5C 291.423,379.15 289.756,377.483 287.5,376.5C 284.441,371.932 280.774,367.765 276.5,364C 269.019,359.774 261.352,359.441 253.5,363C 249.167,365.333 244.833,367.667 240.5,370C 238.208,371.29 236.208,372.957 234.5,375C 228.281,374.386 225.948,376.886 227.5,382.5C 227.842,383.338 228.508,383.672 229.5,383.5C 229.586,384.496 229.252,385.329 228.5,386C 229.381,386.708 230.047,387.542 230.5,388.5C 229.193,389.153 227.86,389.82 226.5,390.5C 220.955,389.78 216.955,386.947 214.5,382C 215.083,379.501 216.416,377.501 218.5,376C 222.027,375.14 224.193,372.973 225,369.5C 226.667,370.833 228.333,370.833 230,369.5C 230.492,368.451 230.326,367.451 229.5,366.5C 230.193,364.289 231.359,363.955 233,365.5C 235.047,364.391 237.213,363.724 239.5,363.5C 239.281,362.325 239.614,361.325 240.5,360.5C 242.146,363.885 244.813,365.052 248.5,364C 249.696,363.346 249.696,362.846 248.5,362.5C 247.391,363.59 246.391,363.59 245.5,362.5C 247.432,360.611 249.265,358.611 251,356.5C 251.483,355.552 251.649,354.552 251.5,353.5C 248.161,353.89 244.827,354.39 241.5,355C 240.354,355.645 239.354,356.478 238.5,357.5C 231.082,354.257 230.749,350.424 237.5,346C 238.742,345.689 239.742,346.189 240.5,347.5C 241.5,347.167 242.167,346.5 242.5,345.5C 241.851,342.711 240.851,340.044 239.5,337.5C 240.421,335.87 241.255,334.203 242,332.5C 245.466,330.65 247.299,331.65 247.5,335.5C 249.92,335.292 252.253,335.626 254.5,336.5C 255.794,334.038 257.294,331.705 259,329.5C 259.333,330.833 259.667,332.167 260,333.5C 264.944,330.542 269.611,330.875 274,334.5C 276.726,331.848 278.726,332.515 280,336.5C 280.333,336.167 280.667,335.833 281,335.5C 280.383,337.095 280.716,338.428 282,339.5C 283.257,337.254 285.09,335.921 287.5,335.5C 287.335,338.85 287.502,342.183 288,345.5C 292,347.15 294.333,350.15 295,354.5C 295.585,352.871 296.419,351.371 297.5,350C 296.614,347.888 296.614,345.722 297.5,343.5C 302.167,342.167 306.833,340.833 311.5,339.5C 311.5,340.833 311.5,342.167 311.5,343.5C 313.592,343.439 315.092,342.439 316,340.5C 316.925,341.047 317.758,341.713 318.5,342.5C 316.96,343.532 316.46,344.865 317,346.5C 318.309,348.891 319.309,348.891 320,346.5C 322.705,350.089 322.872,353.756 320.5,357.5C 323.805,358.972 326.305,361.305 328,364.5C 327.755,360.187 327.755,355.853 328,351.5C 328.615,349.884 329.615,348.551 331,347.5C 331.49,346.207 331.657,344.873 331.5,343.5C 332.5,343.5 333.5,343.5 334.5,343.5C 334.38,345.199 334.046,346.865 333.5,348.5C 335.694,353.355 337.027,358.355 337.5,363.5 Z"/></g>
<g><path style="opacity:1" fill="#381a0c" d="M 263.5,335.5 C 267.484,335.469 271.317,336.136 275,337.5C 276.834,340.873 276.667,344.206 274.5,347.5C 270.38,348.151 266.546,349.484 263,351.5C 258.847,350.667 254.68,350.501 250.5,351C 249.446,349.612 249.28,348.112 250,346.5C 251.385,345.449 252.385,344.116 253,342.5C 257.22,341.09 260.72,338.757 263.5,335.5 Z"/></g>
<g><path style="opacity:1" fill="#180a02" d="M 268.5,340.5 C 270.5,340.5 272.5,340.5 274.5,340.5C 274.714,342.144 274.38,343.644 273.5,345C 270.649,346.289 267.649,346.789 264.5,346.5C 263.933,343.089 265.266,341.089 268.5,340.5 Z"/></g>
<g><path style="opacity:1" fill="#8c9fa8" d="M 135.5,364.5 C 137.025,366.216 138.025,368.216 138.5,370.5C 138.631,371.376 138.298,372.043 137.5,372.5C 136.305,370.703 134.638,369.703 132.5,369.5C 132.5,367.833 132.5,366.167 132.5,364.5C 133.5,364.5 134.5,364.5 135.5,364.5 Z"/></g>
<g><path style="opacity:1" fill="#31170a" d="M 287.5,376.5 C 281.298,374.811 276.298,371.311 272.5,366C 267.831,363.685 263.498,364.019 259.5,367C 256.833,367.667 254.167,368.333 251.5,369C 244.806,373.125 237.64,376.291 230,378.5C 228.405,379.356 227.572,380.689 227.5,382.5C 225.948,376.886 228.281,374.386 234.5,375C 236.208,372.957 238.208,371.29 240.5,370C 244.833,367.667 249.167,365.333 253.5,363C 261.352,359.441 269.019,359.774 276.5,364C 280.774,367.765 284.441,371.932 287.5,376.5 Z"/></g>
<g><path style="opacity:1" fill="#170801" d="M 287.5,376.5 C 289.756,377.483 291.423,379.15 292.5,381.5C 283.532,382.623 274.532,383.29 265.5,383.5C 253.5,383.5 241.5,383.5 229.5,383.5C 228.508,383.672 227.842,383.338 227.5,382.5C 227.572,380.689 228.405,379.356 230,378.5C 237.64,376.291 244.806,373.125 251.5,369C 254.167,368.333 256.833,367.667 259.5,367C 263.498,364.019 267.831,363.685 272.5,366C 276.298,371.311 281.298,374.811 287.5,376.5 Z"/></g>
<g><path style="opacity:1" fill="#628394" d="M 94.5,335.5 C 101.727,349.616 110.227,362.949 120,375.5C 123.367,379.203 127.034,382.536 131,385.5C 131.5,378.174 131.666,370.841 131.5,363.5C 133.099,363.232 134.432,363.566 135.5,364.5C 134.5,364.5 133.5,364.5 132.5,364.5C 132.5,366.167 132.5,367.833 132.5,369.5C 134.638,369.703 136.305,370.703 137.5,372.5C 138.298,372.043 138.631,371.376 138.5,370.5C 142.971,378.772 147.471,387.105 152,395.5C 154.712,399.612 157.878,403.278 161.5,406.5C 161.5,406.833 161.5,407.167 161.5,407.5C 162.251,411.335 164.251,414.335 167.5,416.5C 167.372,437.441 167.372,458.441 167.5,479.5C 166.5,479.5 165.5,479.5 164.5,479.5C 165.173,490.213 165.173,500.879 164.5,511.5C 123.167,511.5 81.8333,511.5 40.5,511.5C 40.9528,510.542 41.6195,509.708 42.5,509C 39.9556,507.908 37.2889,507.241 34.5,507C 39.3649,505.36 44.3649,504.36 49.5,504C 47.232,500.929 46.8986,497.596 48.5,494C 50.6772,493.655 52.6772,494.155 54.5,495.5C 59.0176,494.715 59.3509,493.382 55.5,491.5C 56,491.167 56.5,490.833 57,490.5C 58.9743,492.372 61.1409,492.705 63.5,491.5C 61.1487,489.241 61.8154,487.741 65.5,487C 64.565,484.619 64.2317,482.119 64.5,479.5C 67.6329,479.239 68.7995,477.572 68,474.5C 65.7646,472.798 63.2646,471.798 60.5,471.5C 60.3433,470.127 60.51,468.793 61,467.5C 65.1436,463.365 68.477,458.698 71,453.5C 72.9308,456.105 74.7642,456.105 76.5,453.5C 75.5,452.667 74.5,451.833 73.5,451C 75.5767,450.808 77.5767,450.308 79.5,449.5C 77.9936,448.253 76.4936,448.253 75,449.5C 74.5,449 74,448.5 73.5,448C 76.146,447.503 78.8127,447.336 81.5,447.5C 80.7691,449.599 80.7691,451.599 81.5,453.5C 82.8805,453 83.5472,452 83.5,450.5C 82.1116,447.835 83.1116,446.835 86.5,447.5C 86.2308,449.429 86.7308,451.095 88,452.5C 89.1628,450.715 89.8295,448.715 90,446.5C 91.7261,447.576 93.5594,447.743 95.5,447C 92.8333,445.333 92.8333,443.667 95.5,442C 93.7397,441.035 93.4063,439.868 94.5,438.5C 97.28,439.963 99.4467,439.296 101,436.5C 103.157,437.385 103.99,439.052 103.5,441.5C 105.39,441.703 106.89,441.037 108,439.5C 108.986,437.222 109.82,434.889 110.5,432.5C 112.045,431.548 113.712,431.215 115.5,431.5C 115.042,427.462 114.376,423.462 113.5,419.5C 116.807,420.051 120.14,420.384 123.5,420.5C 123.5,418.833 123.5,417.167 123.5,415.5C 122.167,415.5 120.833,415.5 119.5,415.5C 119.665,412.15 119.498,408.817 119,405.5C 116.518,404.376 116.018,402.71 117.5,400.5C 115.604,399.534 113.604,399.201 111.5,399.5C 111.83,393.132 111.496,386.798 110.5,380.5C 107.028,376.833 103.195,373.499 99,370.5C 97.4412,368.783 96.6079,366.783 96.5,364.5C 93.525,364.287 90.8584,363.287 88.5,361.5C 88.3581,356.779 87.8581,352.113 87,347.5C 86.0802,351.833 83.5802,353.5 79.5,352.5C 80.6888,351.571 82.0222,351.238 83.5,351.5C 83.3433,350.127 83.51,348.793 84,347.5C 88.3487,344.823 88.5153,341.99 84.5,339C 86.1972,335.775 88.0306,332.608 90,329.5C 90.8061,332.446 92.1395,335.112 94,337.5C 94.4643,336.906 94.631,336.239 94.5,335.5 Z"/></g>
<g><path style="opacity:1" fill="#3b1d0e" d="M 341.5,319.5 C 341.486,343.173 341.82,366.839 342.5,390.5C 341.558,393.655 340.224,396.655 338.5,399.5C 334.096,402.574 330.763,406.574 328.5,411.5C 327.448,411.351 326.448,411.517 325.5,412C 318.626,417.592 311.626,422.925 304.5,428C 303.663,429.011 303.33,430.178 303.5,431.5C 301.801,431.34 300.134,431.506 298.5,432C 295.71,435.657 292.21,437.157 288,436.5C 287.517,437.448 287.351,438.448 287.5,439.5C 278.221,441.204 268.888,442.038 259.5,442C 257.075,442.293 255.242,443.459 254,445.5C 252.604,443.473 250.938,443.14 249,444.5C 245.951,443.39 242.784,442.723 239.5,442.5C 236.807,441.448 234.14,440.448 231.5,439.5C 231.5,439.167 231.5,438.833 231.5,438.5C 233.167,438.5 234.833,438.5 236.5,438.5C 236.5,437.5 236.5,436.5 236.5,435.5C 233.647,434.113 230.647,432.946 227.5,432C 228.167,431.667 228.833,431.333 229.5,431C 228.809,429.933 228.309,428.766 228,427.5C 226.644,428.38 225.144,428.714 223.5,428.5C 223.5,427.167 223.5,425.833 223.5,424.5C 222.127,424.657 220.793,424.49 219.5,424C 219.833,423.667 220.167,423.333 220.5,423C 218.963,421.89 218.297,420.39 218.5,418.5C 220.167,418.5 221.833,418.5 223.5,418.5C 223.5,420.167 223.5,421.833 223.5,423.5C 224.5,423.5 225.5,423.5 226.5,423.5C 227.825,419.19 229.158,414.857 230.5,410.5C 234.159,409.899 237.826,409.233 241.5,408.5C 243.853,406.14 245.853,403.473 247.5,400.5C 250.086,399.52 252.753,399.187 255.5,399.5C 255.5,398.5 255.5,397.5 255.5,396.5C 252.022,396.816 248.688,396.316 245.5,395C 253.102,394.48 260.602,393.313 268,391.5C 270.792,392.232 273.459,393.232 276,394.5C 276.333,394.167 276.667,393.833 277,393.5C 276.225,396.78 275.725,399.946 275.5,403C 277.956,405.946 280.623,408.613 283.5,411C 285.473,413.015 287.14,412.848 288.5,410.5C 293.626,413.59 295.293,417.924 293.5,423.5C 295.484,423.617 297.15,422.95 298.5,421.5C 301.115,421.856 302.948,423.189 304,425.5C 307.196,422.987 307.03,421.321 303.5,420.5C 303.312,418.897 303.812,417.563 305,416.5C 308.778,418.9 312.612,418.733 316.5,416C 315.167,415.667 313.833,415.333 312.5,415C 315.469,413.409 318.469,412.742 321.5,413C 320.833,412.333 320.167,411.667 319.5,411C 320.67,408.815 321.836,406.649 323,404.5C 324.052,406.811 325.885,408.144 328.5,408.5C 329.862,406.988 330.196,405.488 329.5,404C 330.833,402.667 332.167,401.333 333.5,400C 330.756,399.372 328.756,400.372 327.5,403C 326.552,403.483 325.552,403.649 324.5,403.5C 324.5,402.167 324.5,400.833 324.5,399.5C 325.833,399.5 327.167,399.5 328.5,399.5C 328.547,396.432 329.047,393.432 330,390.5C 332.535,389.239 334.202,387.239 335,384.5C 336.827,380.34 338.327,375.34 339.5,369.5C 338.246,367.666 337.579,365.666 337.5,363.5C 338.346,348.497 339.679,333.83 341.5,319.5 Z"/></g>
<g><path style="opacity:1" fill="#3e1e0d" d="M 172.5,324.5 C 173.33,333.991 173.83,343.658 174,353.5C 174.408,356.42 175.741,358.754 178,360.5C 179.243,357.018 180.743,353.684 182.5,350.5C 181.864,348.592 181.864,346.925 182.5,345.5C 183.75,345.577 184.583,346.244 185,347.5C 185.317,345.699 185.984,345.366 187,346.5C 187.913,350.675 189.246,354.675 191,358.5C 191.186,356.1 191.686,353.766 192.5,351.5C 194.109,352.888 195.942,353.888 198,354.5C 202.903,352.758 207.403,353.424 211.5,356.5C 215.452,352.695 219.452,352.695 223.5,356.5C 222.058,359.05 220.892,361.716 220,364.5C 216.012,365.782 213.345,368.449 212,372.5C 212.341,375.748 211.508,378.915 209.5,382C 212.297,383.546 212.13,384.712 209,385.5C 206.79,383.889 204.29,383.222 201.5,383.5C 202.152,388.47 204.152,392.803 207.5,396.5C 213.668,397.379 219.668,397.379 225.5,396.5C 227.274,396.113 228.941,395.447 230.5,394.5C 231.251,395.376 231.751,396.376 232,397.5C 236.217,397.04 238.051,394.706 237.5,390.5C 234.517,390.329 232.184,389.662 230.5,388.5C 230.047,387.542 229.381,386.708 228.5,386C 229.252,385.329 229.586,384.496 229.5,383.5C 241.5,383.5 253.5,383.5 265.5,383.5C 263.3,385.64 260.633,387.14 257.5,388C 261.852,388.419 262.185,389.086 258.5,390C 264.004,390.406 269.337,390.239 274.5,389.5C 277.822,390.362 280.656,391.695 283,393.5C 283.333,395.167 283.667,396.833 284,398.5C 284.914,397.346 285.747,397.513 286.5,399C 282.614,399.579 282.614,400.412 286.5,401.5C 287.524,400.147 288.857,399.48 290.5,399.5C 290.64,401.124 289.973,402.29 288.5,403C 289.667,403.5 290.5,404.333 291,405.5C 291.036,412.033 294.203,415.366 300.5,415.5C 300.264,412.774 301.097,410.441 303,408.5C 303.167,409.667 303.333,410.833 303.5,412C 302.499,414.404 301.833,416.571 301.5,418.5C 301.855,419.522 302.522,420.189 303.5,420.5C 307.03,421.321 307.196,422.987 304,425.5C 302.948,423.189 301.115,421.856 298.5,421.5C 297.15,422.95 295.484,423.617 293.5,423.5C 295.293,417.924 293.626,413.59 288.5,410.5C 287.14,412.848 285.473,413.015 283.5,411C 280.623,408.613 277.956,405.946 275.5,403C 275.725,399.946 276.225,396.78 277,393.5C 276.667,393.833 276.333,394.167 276,394.5C 273.459,393.232 270.792,392.232 268,391.5C 260.602,393.313 253.102,394.48 245.5,395C 248.688,396.316 252.022,396.816 255.5,396.5C 255.5,397.5 255.5,398.5 255.5,399.5C 252.753,399.187 250.086,399.52 247.5,400.5C 245.853,403.473 243.853,406.14 241.5,408.5C 237.826,409.233 234.159,409.899 230.5,410.5C 229.158,414.857 227.825,419.19 226.5,423.5C 225.5,423.5 224.5,423.5 223.5,423.5C 223.5,421.833 223.5,420.167 223.5,418.5C 221.833,418.5 220.167,418.5 218.5,418.5C 218.297,420.39 218.963,421.89 220.5,423C 220.167,423.333 219.833,423.667 219.5,424C 220.793,424.49 222.127,424.657 223.5,424.5C 223.5,425.833 223.5,427.167 223.5,428.5C 225.144,428.714 226.644,428.38 228,427.5C 228.309,428.766 228.809,429.933 229.5,431C 228.833,431.333 228.167,431.667 227.5,432C 230.647,432.946 233.647,434.113 236.5,435.5C 236.5,436.5 236.5,437.5 236.5,438.5C 234.833,438.5 233.167,438.5 231.5,438.5C 229.156,438.325 227.489,437.158 226.5,435C 220.565,435.137 215.898,432.803 212.5,428C 210.273,427.879 208.44,427.046 207,425.5C 205.413,426.727 204.079,426.394 203,424.5C 202.075,425.047 201.242,425.713 200.5,426.5C 201.794,430.061 200.96,430.394 198,427.5C 197.814,425.1 197.314,422.766 196.5,420.5C 195.8,423.015 194.467,423.682 192.5,422.5C 191.641,420 190.641,417.667 189.5,415.5C 189.167,415.5 188.833,415.5 188.5,415.5C 184.918,409.554 181.251,403.554 177.5,397.5C 176.272,395.679 174.606,394.679 172.5,394.5C 172.5,371.167 172.5,347.833 172.5,324.5 Z"/></g>
<g><path style="opacity:1" fill="#1b100b" d="M 171.5,319.5 C 172.451,320.919 172.784,322.585 172.5,324.5C 172.5,347.833 172.5,371.167 172.5,394.5C 174.606,394.679 176.272,395.679 177.5,397.5C 181.251,403.554 184.918,409.554 188.5,415.5C 189.395,427.807 189.728,440.141 189.5,452.5C 188.67,442.341 188.17,432.008 188,421.5C 186.907,419.651 185.574,417.984 184,416.5C 183.667,416.833 183.333,417.167 183,417.5C 184.471,412.908 183.471,408.908 180,405.5C 179.167,407.5 178.333,409.5 177.5,411.5C 176.575,410.359 175.741,410.359 175,411.5C 173.738,407.687 173.071,403.687 173,399.5C 172.506,401.134 172.34,402.801 172.5,404.5C 172.167,404.5 171.833,404.5 171.5,404.5C 171.665,401.15 171.498,397.817 171,394.5C 170.329,393.748 169.496,393.414 168.5,393.5C 169.551,392.778 170.218,391.778 170.5,390.5C 170.683,366.831 171.017,343.164 171.5,319.5 Z"/></g>
<g><path style="opacity:1" fill="#628191" d="M 393.5,381.5 C 394.298,385.703 392.631,388.37 388.5,389.5C 387.571,390.689 387.238,392.022 387.5,393.5C 385.436,393.687 383.436,394.187 381.5,395C 379.176,398.323 376.509,401.323 373.5,404C 371.564,404.813 369.564,405.313 367.5,405.5C 367.281,406.675 367.614,407.675 368.5,408.5C 370.098,407.515 371.765,407.349 373.5,408C 373.167,408.333 372.833,408.667 372.5,409C 373.416,409.374 374.25,409.874 375,410.5C 375.58,413.547 375.247,413.881 374,411.5C 370.3,413.317 366.8,413.651 363.5,412.5C 362.795,414.672 361.795,416.672 360.5,418.5C 356.936,419.108 353.603,420.275 350.5,422C 350.957,422.414 351.291,422.914 351.5,423.5C 348.794,425.524 347.461,428.19 347.5,431.5C 358.833,431.5 370.167,431.5 381.5,431.5C 380.788,433.928 379.788,436.261 378.5,438.5C 379.325,439.386 380.325,439.719 381.5,439.5C 381.299,443.35 379.466,444.35 376,442.5C 375.733,446.572 376.233,450.572 377.5,454.5C 374.84,457.043 375.173,459.209 378.5,461C 377.833,461.667 377.167,462.333 376.5,463C 378.938,463.682 381.105,463.182 383,461.5C 384.762,462.591 386.596,463.591 388.5,464.5C 385.323,471.419 383.323,471.086 382.5,463.5C 380.856,466.311 378.69,468.644 376,470.5C 376.814,464.111 374.314,459.778 368.5,457.5C 364.548,462.165 362.548,461.498 362.5,455.5C 358.77,455.854 355.437,457.187 352.5,459.5C 352.167,459.167 351.833,458.833 351.5,458.5C 354.052,456.631 356.552,454.631 359,452.5C 360.389,448.868 360.222,445.201 358.5,441.5C 355.862,440.35 353.362,439.016 351,437.5C 346.136,439.191 343.303,442.524 342.5,447.5C 337.167,447.5 331.833,447.5 326.5,447.5C 326.33,448.822 326.663,449.989 327.5,451C 325.278,451.695 323.111,452.528 321,453.5C 320.055,453.095 319.388,452.428 319,451.5C 317.667,452.833 316.333,454.167 315,455.5C 313.981,454.313 312.814,453.313 311.5,452.5C 311.167,453.167 310.833,453.833 310.5,454.5C 309.5,454 308.5,453.5 307.5,453C 308.672,452.581 309.672,451.915 310.5,451C 308.5,450.333 306.5,450.333 304.5,451C 305.167,451.667 305.833,452.333 306.5,453C 304.184,453.489 301.851,454.156 299.5,455C 300.563,456.188 301.897,456.688 303.5,456.5C 302.836,458.867 301.503,460.867 299.5,462.5C 299.931,463.293 300.265,464.127 300.5,465C 298.363,469.441 296.363,473.941 294.5,478.5C 293.675,479.386 292.675,479.719 291.5,479.5C 291.5,484.833 291.5,490.167 291.5,495.5C 290.167,495.5 288.833,495.5 287.5,495.5C 287.663,493.143 287.497,490.81 287,488.5C 286.444,486.405 285.944,486.238 285.5,488C 285.724,495.659 285.724,503.492 285.5,511.5C 282.167,511.5 278.833,511.5 275.5,511.5C 279.424,492.215 283.258,472.882 287,453.5C 292.925,451.728 298.758,449.728 304.5,447.5C 321.256,439.789 334.256,427.956 343.5,412C 350.393,409.554 357.06,406.554 363.5,403C 366.289,402.759 368.956,402.092 371.5,401C 379.887,395.648 387.22,389.148 393.5,381.5 Z"/></g>
<g><path style="opacity:1" fill="#0f0a07" d="M 189.5,452.5 C 189.215,455.829 189.882,458.829 191.5,461.5C 191.5,478.167 191.5,494.833 191.5,511.5C 186.833,511.5 182.167,511.5 177.5,511.5C 177.374,509.8 176.707,508.3 175.5,507C 177.029,501.727 178.362,496.393 179.5,491C 178.875,489.159 178.708,487.326 179,485.5C 179.974,487.878 180.641,487.544 181,484.5C 182.83,490.968 183.997,490.635 184.5,483.5C 183.258,471.521 182.258,459.521 181.5,447.5C 180.501,458.146 180.168,468.813 180.5,479.5C 179.5,479.5 178.5,479.5 177.5,479.5C 177.195,460.544 178.528,441.711 181.5,423C 180.841,420.538 180.507,418.038 180.5,415.5C 179.5,415.5 178.5,415.5 177.5,415.5C 177.628,417.655 177.128,419.655 176,421.5C 174.258,415.992 173.091,410.326 172.5,404.5C 172.34,402.801 172.506,401.134 173,399.5C 173.071,403.687 173.738,407.687 175,411.5C 175.741,410.359 176.575,410.359 177.5,411.5C 178.333,409.5 179.167,407.5 180,405.5C 183.471,408.908 184.471,412.908 183,417.5C 183.333,417.167 183.667,416.833 184,416.5C 185.574,417.984 186.907,419.651 188,421.5C 188.17,432.008 188.67,442.341 189.5,452.5 Z"/></g>
<g><path style="opacity:1" fill="#09090a" d="M 171.5,404.5 C 171.833,404.5 172.167,404.5 172.5,404.5C 173.091,410.326 174.258,415.992 176,421.5C 177.128,419.655 177.628,417.655 177.5,415.5C 178.5,415.5 179.5,415.5 180.5,415.5C 180.507,418.038 180.841,420.538 181.5,423C 178.528,441.711 177.195,460.544 177.5,479.5C 178.5,479.5 179.5,479.5 180.5,479.5C 180.168,468.813 180.501,458.146 181.5,447.5C 182.258,459.521 183.258,471.521 184.5,483.5C 183.997,490.635 182.83,490.968 181,484.5C 180.641,487.544 179.974,487.878 179,485.5C 178.708,487.326 178.875,489.159 179.5,491C 178.362,496.393 177.029,501.727 175.5,507C 176.707,508.3 177.374,509.8 177.5,511.5C 175.167,511.5 172.833,511.5 170.5,511.5C 170.5,500.833 170.5,490.167 170.5,479.5C 171.498,454.672 171.831,429.672 171.5,404.5 Z"/></g>
<g><path style="opacity:1" fill="#5a7685" d="M 170.5,479.5 C 170.5,490.167 170.5,500.833 170.5,511.5C 168.5,511.5 166.5,511.5 164.5,511.5C 165.173,500.879 165.173,490.213 164.5,479.5C 165.5,479.5 166.5,479.5 167.5,479.5C 167.372,458.441 167.372,437.441 167.5,416.5C 164.251,414.335 162.251,411.335 161.5,407.5C 165.485,407.56 167.152,405.56 166.5,401.5C 167.822,401.33 168.989,401.663 170,402.5C 170.5,428.165 170.667,453.831 170.5,479.5 Z"/></g>
<g><path style="opacity:1" fill="#30444b" d="M 168.5,393.5 C 169.496,393.414 170.329,393.748 171,394.5C 171.498,397.817 171.665,401.15 171.5,404.5C 171.831,429.672 171.498,454.672 170.5,479.5C 170.667,453.831 170.5,428.165 170,402.5C 168.989,401.663 167.822,401.33 166.5,401.5C 167.152,405.56 165.485,407.56 161.5,407.5C 161.5,407.167 161.5,406.833 161.5,406.5C 163.821,404.91 164.821,402.577 164.5,399.5C 165.833,399.5 167.167,399.5 168.5,399.5C 167.709,397.309 167.709,395.309 168.5,393.5 Z"/></g>
<g><path style="opacity:1" fill="#24120e" d="M 338.5,399.5 C 337.111,404.301 334.444,408.301 330.5,411.5C 329.754,412.736 329.421,414.07 329.5,415.5C 324.26,421.795 318.26,427.295 311.5,432C 305.618,434.625 299.952,437.625 294.5,441C 292.26,441.977 289.927,442.477 287.5,442.5C 291.645,440.279 295.645,437.779 299.5,435C 302.605,433.132 305.938,431.965 309.5,431.5C 309.5,430.5 309.5,429.5 309.5,428.5C 312.852,427.992 315.852,426.658 318.5,424.5C 322.729,420.819 326.063,416.486 328.5,411.5C 330.763,406.574 334.096,402.574 338.5,399.5 Z"/></g>
<g><path style="opacity:1" fill="#371a0a" d="M 189.5,415.5 C 190.641,417.667 191.641,420 192.5,422.5C 194.467,423.682 195.8,423.015 196.5,420.5C 197.314,422.766 197.814,425.1 198,427.5C 200.96,430.394 201.794,430.061 200.5,426.5C 201.242,425.713 202.075,425.047 203,424.5C 204.079,426.394 205.413,426.727 207,425.5C 208.44,427.046 210.273,427.879 212.5,428C 215.898,432.803 220.565,435.137 226.5,435C 227.489,437.158 229.156,438.325 231.5,438.5C 231.5,438.833 231.5,439.167 231.5,439.5C 230.127,439.657 228.793,439.49 227.5,439C 220.8,436.233 214.3,433.067 208,429.5C 206.174,430.01 206.007,430.844 207.5,432C 213.163,435.968 218.496,440.134 223.5,444.5C 224.641,446.088 226.141,447.421 228,448.5C 231.305,455.12 233.472,462.12 234.5,469.5C 238.764,469.769 243.098,469.936 247.5,470C 250.234,470.21 252.734,471.044 255,472.5C 256.432,480.054 256.932,487.721 256.5,495.5C 255.512,500.64 255.179,505.974 255.5,511.5C 234.167,511.5 212.833,511.5 191.5,511.5C 191.5,494.833 191.5,478.167 191.5,461.5C 192.025,446.078 191.358,430.745 189.5,415.5 Z"/></g>
<g><path style="opacity:1" fill="#190d0c" d="M 329.5,415.5 C 326.889,419.951 324.056,424.284 321,428.5C 307.309,438.594 292.142,445.927 275.5,450.5C 272.813,450.664 270.146,450.497 267.5,450C 265.167,448.957 262.834,448.124 260.5,447.5C 266.868,447.83 273.202,447.496 279.5,446.5C 282.1,445.045 284.767,443.712 287.5,442.5C 289.927,442.477 292.26,441.977 294.5,441C 299.952,437.625 305.618,434.625 311.5,432C 318.26,427.295 324.26,421.795 329.5,415.5 Z"/></g>
<g><path style="opacity:1" fill="#2a160f" d="M 188.5,415.5 C 188.833,415.5 189.167,415.5 189.5,415.5C 191.358,430.745 192.025,446.078 191.5,461.5C 189.882,458.829 189.215,455.829 189.5,452.5C 189.728,440.141 189.395,427.807 188.5,415.5 Z"/></g>
<g><path style="opacity:1" fill="#090705" d="M 251.5,447.5 C 254.5,447.5 257.5,447.5 260.5,447.5C 262.834,448.124 265.167,448.957 267.5,450C 270.146,450.497 272.813,450.664 275.5,450.5C 275.082,451.222 274.416,451.722 273.5,452C 274.167,452.333 274.833,452.667 275.5,453C 274.167,453.667 274.167,454.333 275.5,455C 274.898,457.036 273.898,458.87 272.5,460.5C 272.709,461.086 273.043,461.586 273.5,462C 271.968,467.336 270.635,472.836 269.5,478.5C 272.01,485.755 272.01,493.089 269.5,500.5C 269.833,501.167 270.167,501.833 270.5,502.5C 268.833,503.833 267.167,505.167 265.5,506.5C 264.833,506.167 264.167,505.833 263.5,505.5C 261.585,507.071 260.585,509.071 260.5,511.5C 258.833,511.5 257.167,511.5 255.5,511.5C 255.179,505.974 255.512,500.64 256.5,495.5C 257.656,487.672 258.156,479.672 258,471.5C 256.955,470.627 256.122,469.627 255.5,468.5C 253.664,466.991 251.664,465.491 249.5,464C 246.183,463.502 242.85,463.335 239.5,463.5C 237.375,458.573 235.208,453.573 233,448.5C 231.649,446.981 230.149,445.648 228.5,444.5C 227.386,443.277 227.219,441.944 228,440.5C 231.287,441.116 234.121,442.616 236.5,445C 241.59,445.427 246.59,446.26 251.5,447.5 Z"/></g>
<g><path style="opacity:1" fill="#30170e" d="M 328.5,411.5 C 326.063,416.486 322.729,420.819 318.5,424.5C 315.852,426.658 312.852,427.992 309.5,428.5C 309.5,429.5 309.5,430.5 309.5,431.5C 305.938,431.965 302.605,433.132 299.5,435C 295.645,437.779 291.645,440.279 287.5,442.5C 284.767,443.712 282.1,445.045 279.5,446.5C 273.202,447.496 266.868,447.83 260.5,447.5C 257.5,447.5 254.5,447.5 251.5,447.5C 247.5,445.833 243.5,444.167 239.5,442.5C 242.784,442.723 245.951,443.39 249,444.5C 250.938,443.14 252.604,443.473 254,445.5C 255.242,443.459 257.075,442.293 259.5,442C 268.888,442.038 278.221,441.204 287.5,439.5C 287.351,438.448 287.517,437.448 288,436.5C 292.21,437.157 295.71,435.657 298.5,432C 300.134,431.506 301.801,431.34 303.5,431.5C 303.33,430.178 303.663,429.011 304.5,428C 311.626,422.925 318.626,417.592 325.5,412C 326.448,411.517 327.448,411.351 328.5,411.5 Z"/></g>
<g><path style="opacity:1" fill="#170f08" d="M 231.5,439.5 C 234.14,440.448 236.807,441.448 239.5,442.5C 243.5,444.167 247.5,445.833 251.5,447.5C 246.59,446.26 241.59,445.427 236.5,445C 234.121,442.616 231.287,441.116 228,440.5C 227.219,441.944 227.386,443.277 228.5,444.5C 230.149,445.648 231.649,446.981 233,448.5C 235.208,453.573 237.375,458.573 239.5,463.5C 242.85,463.335 246.183,463.502 249.5,464C 251.664,465.491 253.664,466.991 255.5,468.5C 249.126,467.62 242.792,467.453 236.5,468C 234.458,461.228 232.291,454.395 230,447.5C 228.157,445.829 225.991,444.829 223.5,444.5C 218.496,440.134 213.163,435.968 207.5,432C 206.007,430.844 206.174,430.01 208,429.5C 214.3,433.067 220.8,436.233 227.5,439C 228.793,439.49 230.127,439.657 231.5,439.5 Z"/></g>
<g><path style="opacity:1" fill="#060808" d="M 342.5,390.5 C 342.5,391.5 342.5,392.5 342.5,393.5C 341.701,398.909 340.534,404.242 339,409.5C 336.025,415.222 333.025,420.222 330,424.5C 325.885,428.105 322.385,432.105 319.5,436.5C 315.075,438.569 310.741,440.735 306.5,443C 304.963,444.11 304.297,445.61 304.5,447.5C 298.758,449.728 292.925,451.728 287,453.5C 283.258,472.882 279.424,492.215 275.5,511.5C 270.5,511.5 265.5,511.5 260.5,511.5C 260.585,509.071 261.585,507.071 263.5,505.5C 264.167,505.833 264.833,506.167 265.5,506.5C 267.167,505.167 268.833,503.833 270.5,502.5C 270.167,501.833 269.833,501.167 269.5,500.5C 272.01,493.089 272.01,485.755 269.5,478.5C 270.635,472.836 271.968,467.336 273.5,462C 273.043,461.586 272.709,461.086 272.5,460.5C 273.898,458.87 274.898,457.036 275.5,455C 274.167,454.333 274.167,453.667 275.5,453C 274.833,452.667 274.167,452.333 273.5,452C 274.416,451.722 275.082,451.222 275.5,450.5C 292.142,445.927 307.309,438.594 321,428.5C 324.056,424.284 326.889,419.951 329.5,415.5C 329.421,414.07 329.754,412.736 330.5,411.5C 334.444,408.301 337.111,404.301 338.5,399.5C 340.224,396.655 341.558,393.655 342.5,390.5 Z"/></g>
<g><path style="opacity:1" fill="#27170d" d="M 223.5,444.5 C 225.991,444.829 228.157,445.829 230,447.5C 232.291,454.395 234.458,461.228 236.5,468C 242.792,467.453 249.126,467.62 255.5,468.5C 256.122,469.627 256.955,470.627 258,471.5C 258.156,479.672 257.656,487.672 256.5,495.5C 256.932,487.721 256.432,480.054 255,472.5C 252.734,471.044 250.234,470.21 247.5,470C 243.098,469.936 238.764,469.769 234.5,469.5C 233.472,462.12 231.305,455.12 228,448.5C 226.141,447.421 224.641,446.088 223.5,444.5 Z"/></g>
</svg>
