<?xml version="1.0" encoding="UTF-8"?>
<!DOCTYPE svg PUBLIC "-//W3C//DTD SVG 1.1//EN" "http://www.w3.org/Graphics/SVG/1.1/DTD/svg11.dtd">
<svg xmlns="http://www.w3.org/2000/svg" version="1.1" width="512px" height="512px" style="shape-rendering:geometricPrecision; text-rendering:geometricPrecision; image-rendering:optimizeQuality; fill-rule:evenodd; clip-rule:evenodd" xmlns:xlink="http://www.w3.org/1999/xlink">
<g><path style="opacity:1" fill="#648596" d="M -0.5,-0.5 C 170.167,-0.5 340.833,-0.5 511.5,-0.5C 511.5,164.833 511.5,330.167 511.5,495.5C 510.19,431.482 509.69,367.482 510,303.5C 509.296,301.722 508.796,299.888 508.5,298C 509.946,289.232 510.613,280.398 510.5,271.5C 509.872,255.862 509.872,240.195 510.5,224.5C 510.167,216.167 509.833,207.833 509.5,199.5C 508.702,201.078 508.202,202.744 508,204.5C 507.333,200.167 507.333,195.833 508,191.5C 508.333,193.5 508.667,195.5 509,197.5C 510.109,195.2 510.609,192.7 510.5,190C 510.063,181.749 509.23,181.582 508,189.5C 507.829,184.136 507.329,178.802 506.5,173.5C 506.167,173.833 505.833,174.167 505.5,174.5C 506.462,184.806 506.295,195.14 505,205.5C 504.219,204.271 503.719,202.938 503.5,201.5C 504.396,199.199 504.562,196.866 504,194.5C 503.389,198.272 502.389,198.272 501,194.5C 500.207,190.577 500.374,186.744 501.5,183C 497.143,181.375 492.643,180.208 488,179.5C 485.393,185.049 483.059,190.716 481,196.5C 480.167,198 479,199.167 477.5,200C 479.068,202.058 480.402,204.225 481.5,206.5C 480.349,208.325 479.682,210.325 479.5,212.5C 481.484,212.383 483.15,213.05 484.5,214.5C 479.16,216.524 478.16,219.858 481.5,224.5C 479.779,227.908 479.112,231.575 479.5,235.5C 482.5,235.167 483.833,236.5 483.5,239.5C 482.5,239.5 481.5,239.5 480.5,239.5C 480.839,244.968 479.839,250.135 477.5,255C 478.793,255.49 480.127,255.657 481.5,255.5C 481.688,257.103 481.188,258.437 480,259.5C 478.506,258.253 477.006,258.253 475.5,259.5C 478.202,263.55 477.868,267.383 474.5,271C 476.833,271.333 479.167,271.667 481.5,272C 479.34,275.459 478.173,279.292 478,283.5C 476.926,284.618 475.76,285.618 474.5,286.5C 476.193,287.228 477.693,288.228 479,289.5C 479.725,287.842 480.892,287.342 482.5,288C 480.673,290.242 479.006,292.575 477.5,295C 477.957,295.414 478.291,295.914 478.5,296.5C 476.165,299.197 476.165,301.697 478.5,304C 477.09,304.368 476.09,305.201 475.5,306.5C 478.823,307.938 479.156,309.771 476.5,312C 476.793,315.094 478.459,316.594 481.5,316.5C 481.5,317.5 481.5,318.5 481.5,319.5C 478.881,319.768 476.381,319.435 474,318.5C 471.765,313.813 470.932,308.813 471.5,303.5C 466.637,304.168 462.304,303.168 458.5,300.5C 457.833,301.5 457.167,302.5 456.5,303.5C 455.501,314.146 455.168,324.813 455.5,335.5C 454.178,335.33 453.011,335.663 452,336.5C 451.501,341.489 451.334,346.489 451.5,351.5C 449.5,351.5 447.5,351.5 445.5,351.5C 443.195,362.016 441.529,372.683 440.5,383.5C 438.997,384.052 437.331,384.052 435.5,383.5C 436.624,388.814 436.624,394.148 435.5,399.5C 434.167,399.5 432.833,399.5 431.5,399.5C 431.5,404.833 431.5,410.167 431.5,415.5C 430.167,415.5 428.833,415.5 427.5,415.5C 427.666,420.511 427.499,425.511 427,430.5C 425.989,431.337 424.822,431.67 423.5,431.5C 424.07,436.175 423.07,440.342 420.5,444C 421.882,446.332 421.216,447.999 418.5,449C 415.959,449.318 414.292,448.152 413.5,445.5C 413.608,444.558 413.941,443.725 414.5,443C 416.618,442.74 418.284,441.74 419.5,440C 418.5,439.5 417.5,439 416.5,438.5C 415.672,434.204 415.172,429.871 415,425.5C 414.215,430.876 413.215,436.209 412,441.5C 409.29,442.559 407.457,441.559 406.5,438.5C 408.194,433.912 410.36,429.579 413,425.5C 413.697,421.465 413.53,417.465 412.5,413.5C 413.598,410.119 414.598,406.785 415.5,403.5C 416.822,403.67 417.989,403.337 419,402.5C 418.275,396.131 419.609,390.131 423,384.5C 423.333,384.833 423.667,385.167 424,385.5C 424.71,384.027 425.876,383.36 427.5,383.5C 428.077,368.994 427.41,354.66 425.5,340.5C 423.933,324.983 420.599,309.983 415.5,295.5C 407.447,269.505 399.28,243.505 391,217.5C 383.832,195.647 371.998,176.814 355.5,161C 350.369,157.101 344.702,154.268 338.5,152.5C 337.537,151.637 337.537,150.97 338.5,150.5C 340.735,151.752 343.069,152.252 345.5,152C 342.167,150.333 338.833,148.667 335.5,147C 337.931,145.368 340.431,143.868 343,142.5C 348.244,144.532 353.411,146.865 358.5,149.5C 359.086,149.291 359.586,148.957 360,148.5C 362.478,152.05 364.811,155.716 367,159.5C 367.333,158.833 367.667,158.167 368,157.5C 370.057,161.01 371.723,164.677 373,168.5C 373.273,166.671 374.107,165.171 375.5,164C 373.963,162.89 373.297,161.39 373.5,159.5C 374.5,159.5 375.5,159.5 376.5,159.5C 376.067,156.834 375.567,154.168 375,151.5C 374.667,152.167 374.333,152.833 374,153.5C 372.172,151.919 370.172,150.585 368,149.5C 367.502,146.183 367.335,142.85 367.5,139.5C 362.167,139.5 356.833,139.5 351.5,139.5C 351.5,138.167 351.5,136.833 351.5,135.5C 347.445,135.824 343.445,135.491 339.5,134.5C 334.176,131.81 328.843,129.81 323.5,128.5C 321.998,129.083 320.665,129.916 319.5,131C 314.136,131.171 308.802,131.671 303.5,132.5C 299.836,135.963 295.502,138.463 290.5,140C 286.044,140.264 281.711,141.098 277.5,142.5C 271.202,143.496 264.868,143.83 258.5,143.5C 258.06,137.599 256.727,137.266 254.5,142.5C 251.525,141.734 248.858,140.4 246.5,138.5C 244.244,139.421 243.244,141.088 243.5,143.5C 241.473,143.662 239.473,143.495 237.5,143C 238.451,142.282 238.617,141.449 238,140.5C 235.64,138.14 233.306,135.806 231,133.5C 230,134.167 229,134.833 228,135.5C 227.83,137.715 227.163,139.715 226,141.5C 224.152,138.464 222.319,135.464 220.5,132.5C 222.514,130.293 223.514,127.627 223.5,124.5C 228.961,124.71 231.961,122.043 232.5,116.5C 234.854,115.94 237.187,115.273 239.5,114.5C 240.383,112.52 240.217,110.52 239,108.5C 237.814,110.677 235.981,111.677 233.5,111.5C 233.642,108.383 234.976,105.883 237.5,104C 237.034,101.877 235.867,100.377 234,99.5C 231.98,100.032 231.147,101.365 231.5,103.5C 230.5,103.5 229.5,103.5 228.5,103.5C 227.072,100.498 227.405,97.6647 229.5,95C 228.14,93.0624 228.473,91.3957 230.5,90C 228.187,89.338 225.854,88.838 223.5,88.5C 223.227,90.451 223.893,91.951 225.5,93C 223.779,94.4371 222.279,93.9371 221,91.5C 220.667,87.5 220.333,83.5 220,79.5C 219.424,76.8758 218.09,76.2092 216,77.5C 215.376,75.5355 215.876,73.8689 217.5,72.5C 214.355,70.6871 211.022,69.3538 207.5,68.5C 207.234,72.0794 205.901,72.4127 203.5,69.5C 200.924,70.8834 201.258,71.7167 204.5,72C 203.035,74.4296 201.702,76.9296 200.5,79.5C 199.169,77.1731 197.502,75.1731 195.5,73.5C 193.744,75.5543 193.41,77.721 194.5,80C 193.708,82.3361 192.375,82.8361 190.5,81.5C 189.727,79.187 189.06,76.8537 188.5,74.5C 187.998,73.479 187.332,73.3123 186.5,74C 184.773,76.9036 184.107,80.0703 184.5,83.5C 180.815,83.8954 177.148,84.0621 173.5,84C 171.963,82.8904 171.297,81.3904 171.5,79.5C 167.775,79.7796 166.608,81.7796 168,85.5C 169.011,84.6634 170.178,84.33 171.5,84.5C 171.766,88.5705 171.433,92.5705 170.5,96.5C 169.758,97.2868 168.925,97.9535 168,98.5C 167.798,96.7444 167.298,95.0777 166.5,93.5C 166.167,93.6667 165.833,93.8333 165.5,94C 164.22,98.2486 162.553,102.415 160.5,106.5C 159.158,108.005 157.492,108.672 155.5,108.5C 155.033,110.711 154.033,112.711 152.5,114.5C 151.614,113.675 151.281,112.675 151.5,111.5C 148.794,111.575 146.127,111.908 143.5,112.5C 143.5,113.833 143.5,115.167 143.5,116.5C 145.681,116.284 147.347,117.117 148.5,119C 146.337,119.245 144.67,120.245 143.5,122C 140.854,122.497 138.187,122.664 135.5,122.5C 135.728,124.355 135.061,125.188 133.5,125C 132.139,123.416 131.472,121.582 131.5,119.5C 127.689,120.468 124.189,122.135 121,124.5C 118.772,122.109 117.272,122.776 116.5,126.5C 114.955,127.452 113.288,127.785 111.5,127.5C 111.5,130.167 111.5,132.833 111.5,135.5C 107.416,134.945 106.749,135.945 109.5,138.5C 107.865,139.681 106.198,139.681 104.5,138.5C 103.571,139.689 103.238,141.022 103.5,142.5C 105.5,142.5 107.5,142.5 109.5,142.5C 108.925,146.473 106.758,147.473 103,145.5C 100.163,146.869 99.6631,148.869 101.5,151.5C 100.455,153.205 99.1217,154.705 97.5,156C 101.619,158.574 101.452,160.74 97,162.5C 95.1178,161.394 93.2844,161.394 91.5,162.5C 90.9506,166.632 90.6173,170.965 90.5,175.5C 88.6693,176.052 87.0026,176.052 85.5,175.5C 80.473,179.551 78.473,184.885 79.5,191.5C 78.5,191.5 77.5,191.5 76.5,191.5C 75.6285,194.272 75.6285,196.938 76.5,199.5C 75.1266,199.657 73.7932,199.49 72.5,199C 75.318,196.885 75.1514,195.052 72,193.5C 71.5045,195.473 71.3379,197.473 71.5,199.5C 70.1667,199.5 68.8333,199.5 67.5,199.5C 67.9802,202.005 68.9802,204.338 70.5,206.5C 67.8694,208.005 68.2027,208.671 71.5,208.5C 73.1821,211.598 73.6821,214.931 73,218.5C 71.0748,219.88 69.2415,221.38 67.5,223C 68.0968,224.062 68.4302,225.228 68.5,226.5C 67.6743,229.49 66.841,232.49 66,235.5C 61.1175,239.179 58.1175,244.179 57,250.5C 54.3733,251.783 51.8733,253.283 49.5,255C 50.6765,256.674 52.0098,258.174 53.5,259.5C 51.3778,262.14 49.5444,261.806 48,258.5C 47.5065,260.134 47.3398,261.801 47.5,263.5C 46.5,263.5 45.5,263.5 44.5,263.5C 44.4971,266.675 43.4971,269.508 41.5,272C 42.7766,274.466 42.7766,276.966 41.5,279.5C 40.2624,275.689 39.5958,275.689 39.5,279.5C 38.448,279.351 37.448,279.517 36.5,280C 38.876,281.424 40.5426,283.424 41.5,286C 40.118,289.022 39.118,292.189 38.5,295.5C 36.4853,296.746 34.8187,298.246 33.5,300C 35.6661,303.831 35.9994,307.831 34.5,312C 35.2931,313.085 35.9598,314.252 36.5,315.5C 35.3338,318.503 33.6672,321.17 31.5,323.5C 32.3128,324.814 33.3128,325.981 34.5,327C 32.9179,329.085 30.9179,330.585 28.5,331.5C 34.3455,333.69 34.5122,335.357 29,336.5C 28.3521,340.147 29.8521,342.647 33.5,344C 32.8742,344.75 32.3742,345.584 32,346.5C 30.207,345.619 29.5403,346.286 30,348.5C 33.3213,348.571 36.488,349.571 39.5,351.5C 38.3158,354.148 36.9824,356.815 35.5,359.5C 35.722,361.055 36.3887,362.389 37.5,363.5C 35.4983,366.238 34.6649,369.238 35,372.5C 35.3333,372.833 35.6667,373.167 36,373.5C 36.6891,372.643 37.5224,371.977 38.5,371.5C 41.2765,371.946 43.7765,372.946 46,374.5C 47.1937,372.377 47.8603,370.043 48,367.5C 52.6667,372.167 57.3333,376.833 62,381.5C 62.1667,381.833 62.3333,382.167 62.5,382.5C 60.9547,383.452 59.288,383.785 57.5,383.5C 57.5,394.167 57.5,404.833 57.5,415.5C 51.5,415.5 45.5,415.5 39.5,415.5C 39.553,419.333 40.053,422.999 41,426.5C 40.6667,426.833 40.3333,427.167 40,427.5C 38.308,424.485 36.1414,423.985 33.5,426C 35.1667,427 36.8333,428 38.5,429C 36.6951,429.972 35.0284,431.139 33.5,432.5C 35.4206,436.794 37.4206,440.96 39.5,445C 39.2451,446.326 38.5784,447.326 37.5,448C 39.9475,450.804 39.9475,453.471 37.5,456C 38.787,459.874 40.1204,463.707 41.5,467.5C 40.8333,468.5 40.1667,469.5 39.5,470.5C 41.2889,473.242 42.9555,476.075 44.5,479C 43.5562,481.719 43.2229,484.552 43.5,487.5C 44.5,487.5 45.5,487.5 46.5,487.5C 47.1143,491.135 47.4476,494.802 47.5,498.5C 43.8076,498.305 41.9742,496.305 42,492.5C 40.5873,494.652 39.7539,496.986 39.5,499.5C 36.0534,499.814 32.7201,500.648 29.5,502C 28.5494,502.718 28.3828,503.551 29,504.5C 32.607,506.265 36.4404,507.598 40.5,508.5C 42.9122,507.182 45.2456,507.349 47.5,509C 46.2713,509.781 44.938,510.281 43.5,510.5C 40.5358,509.528 37.5358,509.362 34.5,510C 33.944,510.383 33.6107,510.883 33.5,511.5C 22.1667,511.5 10.8333,511.5 -0.5,511.5C -0.5,340.833 -0.5,170.167 -0.5,-0.5 Z"/></g>
<g><path style="opacity:1" fill="#628696" d="M 46.5,31.5 C 47.4731,33.9479 47.8064,36.6146 47.5,39.5C 58.5899,40.1297 69.4232,39.4631 80,37.5C 84.8636,39.1907 87.697,42.524 88.5,47.5C 96.1667,47.5 103.833,47.5 111.5,47.5C 111.662,49.5273 111.495,51.5273 111,53.5C 106.136,55.1907 103.303,58.524 102.5,63.5C 100.167,63.5 97.8333,63.5 95.5,63.5C 95.5,60.8333 95.5,58.1667 95.5,55.5C 89.5,54.8333 86.8333,57.5 87.5,63.5C 84.8333,63.5 82.1667,63.5 79.5,63.5C 79.5,66.1667 79.5,68.8333 79.5,71.5C 76.305,70.9607 73.805,71.9607 72,74.5C 71.5004,81.4921 71.3337,88.4921 71.5,95.5C 61.1667,95.5 50.8333,95.5 40.5,95.5C 39.697,100.476 36.8636,103.809 32,105.5C 31.5002,96.8397 31.3336,88.1731 31.5,79.5C 28.8333,79.5 26.1667,79.5 23.5,79.5C 23.3335,67.1622 23.5001,54.8288 24,42.5C 25.805,39.9607 28.305,38.9607 31.5,39.5C 31.3359,42.1873 31.5026,44.854 32,47.5C 37.0818,42.2919 41.9151,36.9586 46.5,31.5 Z"/></g>
<g><path style="opacity:1" fill="#628394" d="M 338.5,152.5 C 336.518,152.005 334.518,151.505 332.5,151C 290.831,150.675 249.164,150.175 207.5,149.5C 197.458,149.417 187.458,149.917 177.5,151C 163.374,156.612 151.207,165.112 141,176.5C 131.647,188.532 123.814,201.532 117.5,215.5C 116.141,216.007 115.141,217.007 114.5,218.5C 112.552,222.624 111.386,226.957 111,231.5C 110.333,232.167 109.667,232.833 109,233.5C 108.769,237.584 108.102,241.584 107,245.5C 105.371,246.565 104.204,247.899 103.5,249.5C 102.872,252.643 103.539,255.643 105.5,258.5C 104.681,264.76 103.015,270.76 100.5,276.5C 100.68,277.554 101.013,278.554 101.5,279.5C 99.4076,281.346 98.0742,283.679 97.5,286.5C 98.5,287.167 99.5,287.833 100.5,288.5C 98.4359,293.288 97.4359,298.288 97.5,303.5C 96.0014,304.678 95.0014,306.345 94.5,308.5C 93.8333,308.167 93.1667,307.833 92.5,307.5C 91.8786,315.78 89.2119,323.28 84.5,330C 85.7054,332.234 85.0387,333.901 82.5,335C 83.448,335.483 84.448,335.649 85.5,335.5C 84.4409,341.633 83.4409,347.8 82.5,354C 83.1667,357 83.8333,360 84.5,363C 83.5587,366.902 83.2254,370.735 83.5,374.5C 85.0066,379.375 86.0066,384.375 86.5,389.5C 87.6134,391.784 88.6134,394.117 89.5,396.5C 90.1411,397.993 91.1411,398.993 92.5,399.5C 92.5592,402.69 92.8926,405.857 93.5,409C 93.5463,410.728 93.0463,412.228 92,413.5C 90.513,412.747 90.3463,411.914 91.5,411C 89.8184,405.275 88.3184,399.442 87,393.5C 85.349,395.754 85.1823,398.088 86.5,400.5C 85.2393,402.453 84.0726,404.453 83,406.5C 82.3187,404.105 81.4853,401.772 80.5,399.5C 79.5041,405.463 79.1707,411.463 79.5,417.5C 72.6771,419.525 69.0104,424.192 68.5,431.5C 66.8333,431.5 65.1667,431.5 63.5,431.5C 63.3337,438.841 63.5003,446.174 64,453.5C 66.1373,454.479 67.9706,455.812 69.5,457.5C 68.1966,459.589 68.6966,461.256 71,462.5C 71.498,465.482 71.6646,468.482 71.5,471.5C 75.1928,470.944 77.8595,472.278 79.5,475.5C 80.325,476.386 81.325,476.719 82.5,476.5C 83.8711,480.621 86.7044,483.288 91,484.5C 91.4828,485.448 91.6495,486.448 91.5,487.5C 97.4053,488.56 103.072,490.394 108.5,493C 113.62,493.34 118.62,494.174 123.5,495.5C 123.67,496.822 123.337,497.989 122.5,499C 115.278,500.779 107.945,501.946 100.5,502.5C 95.715,503.514 95.715,505.18 100.5,507.5C 107.333,504.896 114.166,504.896 121,507.5C 122.667,506.833 124.333,506.167 126,505.5C 128.445,507.078 131.112,508.078 134,508.5C 139.126,507.408 144.293,507.241 149.5,508C 144.564,508.775 139.898,509.942 135.5,511.5C 101.5,511.5 67.5,511.5 33.5,511.5C 33.6107,510.883 33.944,510.383 34.5,510C 37.5358,509.362 40.5358,509.528 43.5,510.5C 44.938,510.281 46.2713,509.781 47.5,509C 45.2456,507.349 42.9122,507.182 40.5,508.5C 36.4404,507.598 32.607,506.265 29,504.5C 28.3828,503.551 28.5494,502.718 29.5,502C 32.7201,500.648 36.0534,499.814 39.5,499.5C 39.7539,496.986 40.5873,494.652 42,492.5C 41.9742,496.305 43.8076,498.305 47.5,498.5C 47.4476,494.802 47.1143,491.135 46.5,487.5C 45.5,487.5 44.5,487.5 43.5,487.5C 43.2229,484.552 43.5562,481.719 44.5,479C 42.9555,476.075 41.2889,473.242 39.5,470.5C 40.1667,469.5 40.8333,468.5 41.5,467.5C 40.1204,463.707 38.787,459.874 37.5,456C 39.9475,453.471 39.9475,450.804 37.5,448C 38.5784,447.326 39.2451,446.326 39.5,445C 37.4206,440.96 35.4206,436.794 33.5,432.5C 35.0284,431.139 36.6951,429.972 38.5,429C 36.8333,428 35.1667,427 33.5,426C 36.1414,423.985 38.308,424.485 40,427.5C 40.3333,427.167 40.6667,426.833 41,426.5C 40.053,422.999 39.553,419.333 39.5,415.5C 45.5,415.5 51.5,415.5 57.5,415.5C 57.5,404.833 57.5,394.167 57.5,383.5C 59.288,383.785 60.9547,383.452 62.5,382.5C 62.3333,382.167 62.1667,381.833 62,381.5C 57.3333,376.833 52.6667,372.167 48,367.5C 47.8603,370.043 47.1937,372.377 46,374.5C 43.7765,372.946 41.2765,371.946 38.5,371.5C 37.5224,371.977 36.6891,372.643 36,373.5C 35.6667,373.167 35.3333,372.833 35,372.5C 34.6649,369.238 35.4983,366.238 37.5,363.5C 36.3887,362.389 35.722,361.055 35.5,359.5C 36.9824,356.815 38.3158,354.148 39.5,351.5C 36.488,349.571 33.3213,348.571 30,348.5C 29.5403,346.286 30.207,345.619 32,346.5C 32.3742,345.584 32.8742,344.75 33.5,344C 29.8521,342.647 28.3521,340.147 29,336.5C 34.5122,335.357 34.3455,333.69 28.5,331.5C 30.9179,330.585 32.9179,329.085 34.5,327C 33.3128,325.981 32.3128,324.814 31.5,323.5C 33.6672,321.17 35.3338,318.503 36.5,315.5C 35.9598,314.252 35.2931,313.085 34.5,312C 35.9994,307.831 35.6661,303.831 33.5,300C 34.8187,298.246 36.4853,296.746 38.5,295.5C 39.118,292.189 40.118,289.022 41.5,286C 40.5426,283.424 38.876,281.424 36.5,280C 37.448,279.517 38.448,279.351 39.5,279.5C 39.5958,275.689 40.2624,275.689 41.5,279.5C 42.7766,276.966 42.7766,274.466 41.5,272C 43.4971,269.508 44.4971,266.675 44.5,263.5C 45.5,263.5 46.5,263.5 47.5,263.5C 47.3398,261.801 47.5065,260.134 48,258.5C 49.5444,261.806 51.3778,262.14 53.5,259.5C 52.0098,258.174 50.6765,256.674 49.5,255C 51.8733,253.283 54.3733,251.783 57,250.5C 58.1175,244.179 61.1175,239.179 66,235.5C 66.841,232.49 67.6743,229.49 68.5,226.5C 68.4302,225.228 68.0968,224.062 67.5,223C 69.2415,221.38 71.0748,219.88 73,218.5C 73.6821,214.931 73.1821,211.598 71.5,208.5C 68.2027,208.671 67.8694,208.005 70.5,206.5C 68.9802,204.338 67.9802,202.005 67.5,199.5C 68.8333,199.5 70.1667,199.5 71.5,199.5C 71.3379,197.473 71.5045,195.473 72,193.5C 75.1514,195.052 75.318,196.885 72.5,199C 73.7932,199.49 75.1266,199.657 76.5,199.5C 75.6285,196.938 75.6285,194.272 76.5,191.5C 77.5,191.5 78.5,191.5 79.5,191.5C 78.473,184.885 80.473,179.551 85.5,175.5C 87.0026,176.052 88.6693,176.052 90.5,175.5C 90.6173,170.965 90.9506,166.632 91.5,162.5C 93.2844,161.394 95.1178,161.394 97,162.5C 101.452,160.74 101.619,158.574 97.5,156C 99.1217,154.705 100.455,153.205 101.5,151.5C 99.6631,148.869 100.163,146.869 103,145.5C 106.758,147.473 108.925,146.473 109.5,142.5C 107.5,142.5 105.5,142.5 103.5,142.5C 103.238,141.022 103.571,139.689 104.5,138.5C 106.198,139.681 107.865,139.681 109.5,138.5C 106.749,135.945 107.416,134.945 111.5,135.5C 111.5,132.833 111.5,130.167 111.5,127.5C 113.288,127.785 114.955,127.452 116.5,126.5C 117.272,122.776 118.772,122.109 121,124.5C 124.189,122.135 127.689,120.468 131.5,119.5C 131.472,121.582 132.139,123.416 133.5,125C 135.061,125.188 135.728,124.355 135.5,122.5C 138.187,122.664 140.854,122.497 143.5,122C 144.67,120.245 146.337,119.245 148.5,119C 147.347,117.117 145.681,116.284 143.5,116.5C 143.5,115.167 143.5,113.833 143.5,112.5C 146.127,111.908 148.794,111.575 151.5,111.5C 151.281,112.675 151.614,113.675 152.5,114.5C 154.033,112.711 155.033,110.711 155.5,108.5C 157.492,108.672 159.158,108.005 160.5,106.5C 162.553,102.415 164.22,98.2486 165.5,94C 165.833,93.8333 166.167,93.6667 166.5,93.5C 167.298,95.0777 167.798,96.7444 168,98.5C 168.925,97.9535 169.758,97.2868 170.5,96.5C 171.433,92.5705 171.766,88.5705 171.5,84.5C 170.178,84.33 169.011,84.6634 168,85.5C 166.608,81.7796 167.775,79.7796 171.5,79.5C 171.297,81.3904 171.963,82.8904 173.5,84C 177.148,84.0621 180.815,83.8954 184.5,83.5C 184.107,80.0703 184.773,76.9036 186.5,74C 187.332,73.3123 187.998,73.479 188.5,74.5C 189.06,76.8537 189.727,79.187 190.5,81.5C 192.375,82.8361 193.708,82.3361 194.5,80C 193.41,77.721 193.744,75.5543 195.5,73.5C 197.502,75.1731 199.169,77.1731 200.5,79.5C 201.702,76.9296 203.035,74.4296 204.5,72C 201.258,71.7167 200.924,70.8834 203.5,69.5C 205.901,72.4127 207.234,72.0794 207.5,68.5C 211.022,69.3538 214.355,70.6871 217.5,72.5C 215.876,73.8689 215.376,75.5355 216,77.5C 218.09,76.2092 219.424,76.8758 220,79.5C 220.333,83.5 220.667,87.5 221,91.5C 222.279,93.9371 223.779,94.4371 225.5,93C 223.893,91.951 223.227,90.451 223.5,88.5C 225.854,88.838 228.187,89.338 230.5,90C 228.473,91.3957 228.14,93.0624 229.5,95C 227.405,97.6647 227.072,100.498 228.5,103.5C 229.5,103.5 230.5,103.5 231.5,103.5C 231.147,101.365 231.98,100.032 234,99.5C 235.867,100.377 237.034,101.877 237.5,104C 234.976,105.883 233.642,108.383 233.5,111.5C 235.981,111.677 237.814,110.677 239,108.5C 240.217,110.52 240.383,112.52 239.5,114.5C 237.187,115.273 234.854,115.94 232.5,116.5C 231.961,122.043 228.961,124.71 223.5,124.5C 223.514,127.627 222.514,130.293 220.5,132.5C 222.319,135.464 224.152,138.464 226,141.5C 227.163,139.715 227.83,137.715 228,135.5C 229,134.833 230,134.167 231,133.5C 233.306,135.806 235.64,138.14 238,140.5C 238.617,141.449 238.451,142.282 237.5,143C 239.473,143.495 241.473,143.662 243.5,143.5C 243.244,141.088 244.244,139.421 246.5,138.5C 248.858,140.4 251.525,141.734 254.5,142.5C 256.727,137.266 258.06,137.599 258.5,143.5C 264.868,143.83 271.202,143.496 277.5,142.5C 281.711,141.098 286.044,140.264 290.5,140C 295.502,138.463 299.836,135.963 303.5,132.5C 308.802,131.671 314.136,131.171 319.5,131C 320.665,129.916 321.998,129.083 323.5,128.5C 328.843,129.81 334.176,131.81 339.5,134.5C 343.445,135.491 347.445,135.824 351.5,135.5C 351.5,136.833 351.5,138.167 351.5,139.5C 356.833,139.5 362.167,139.5 367.5,139.5C 367.335,142.85 367.502,146.183 368,149.5C 370.172,150.585 372.172,151.919 374,153.5C 374.333,152.833 374.667,152.167 375,151.5C 375.567,154.168 376.067,156.834 376.5,159.5C 375.5,159.5 374.5,159.5 373.5,159.5C 373.297,161.39 373.963,162.89 375.5,164C 374.107,165.171 373.273,166.671 373,168.5C 371.723,164.677 370.057,161.01 368,157.5C 367.667,158.167 367.333,158.833 367,159.5C 364.811,155.716 362.478,152.05 360,148.5C 359.586,148.957 359.086,149.291 358.5,149.5C 353.411,146.865 348.244,144.532 343,142.5C 340.431,143.868 337.931,145.368 335.5,147C 338.833,148.667 342.167,150.333 345.5,152C 343.069,152.252 340.735,151.752 338.5,150.5C 337.537,150.97 337.537,151.637 338.5,152.5 Z"/></g>
<g><path style="opacity:1" fill="#020202" d="M 338.5,152.5 C 344.702,154.268 350.369,157.101 355.5,161C 371.998,176.814 383.832,195.647 391,217.5C 399.28,243.505 407.447,269.505 415.5,295.5C 417.914,312.528 420.581,330.028 423.5,348C 423.054,351.175 422.554,354.342 422,357.5C 421.5,358 421,358.5 420.5,359C 421.926,361.711 421.592,364.211 419.5,366.5C 420.04,367.748 420.707,368.915 421.5,370C 417.828,373.365 416.828,377.365 418.5,382C 417.121,384.538 416.788,387.038 417.5,389.5C 415.82,392.571 415.153,395.904 415.5,399.5C 408.899,417.372 401.733,435.039 394,452.5C 389.561,461.468 382.395,466.634 372.5,468C 360.814,468.23 349.148,468.73 337.5,469.5C 334.85,469.035 332.184,468.702 329.5,468.5C 319.058,470.614 308.558,470.947 298,469.5C 290.472,471.169 284.639,475.169 280.5,481.5C 278.958,482.301 277.292,482.634 275.5,482.5C 275.658,492.191 275.325,501.857 274.5,511.5C 269.167,511.5 263.833,511.5 258.5,511.5C 257.712,500.879 257.212,490.212 257,479.5C 256.617,478.944 256.117,478.611 255.5,478.5C 255.5,478.167 255.5,477.833 255.5,477.5C 255.719,476.325 255.386,475.325 254.5,474.5C 249.983,472.328 246.983,468.994 245.5,464.5C 244.325,464.719 243.325,464.386 242.5,463.5C 241.219,460.553 239.219,458.219 236.5,456.5C 235.901,453.026 234.568,450.026 232.5,447.5C 237.453,446.671 242.453,446.337 247.5,446.5C 269.148,449.971 289.148,445.971 307.5,434.5C 313.587,431.461 318.921,427.461 323.5,422.5C 330.668,416.503 335.002,408.836 336.5,399.5C 337.617,395.705 338.283,391.705 338.5,387.5C 340.07,377.376 340.736,367.042 340.5,356.5C 341.497,337.341 341.83,318.007 341.5,298.5C 340.89,296.566 339.89,294.899 338.5,293.5C 338.737,292.209 338.404,291.209 337.5,290.5C 334.974,285.948 334.141,281.282 335,276.5C 338.107,277.795 341.274,278.795 344.5,279.5C 345.259,274.687 343.925,270.687 340.5,267.5C 337.995,264.988 336.328,261.988 335.5,258.5C 335.322,255.121 335.322,251.955 335.5,249C 333.126,246.961 331.126,244.628 329.5,242C 324.973,241.305 320.806,242.139 317,244.5C 315.993,248.506 317.327,251.506 321,253.5C 322.136,256.096 322.969,258.763 323.5,261.5C 321.801,261.66 320.134,261.494 318.5,261C 319.888,260.111 319.722,259.611 318,259.5C 317.228,259.645 316.561,259.978 316,260.5C 314.421,258.959 312.587,257.792 310.5,257C 310.833,256.667 311.167,256.333 311.5,256C 308.902,253.299 306.569,250.466 304.5,247.5C 303.691,245.929 303.357,244.262 303.5,242.5C 303.768,239.881 303.435,237.381 302.5,235C 297.511,234.501 292.511,234.334 287.5,234.5C 285.883,233.962 284.216,233.629 282.5,233.5C 282.5,232.833 282.167,232.5 281.5,232.5C 281.369,231.624 281.702,230.957 282.5,230.5C 283.451,231.326 284.451,231.492 285.5,231C 284.396,229.869 284.729,229.035 286.5,228.5C 290.854,229.75 295.187,229.584 299.5,228C 293.797,226.925 288.13,225.592 282.5,224C 288.162,224.073 293.829,224.073 299.5,224C 296.851,223.548 294.351,222.714 292,221.5C 291.717,218.149 290.55,215.149 288.5,212.5C 287.833,214.5 287.167,216.5 286.5,218.5C 285.614,217.675 285.281,216.675 285.5,215.5C 280.91,213.667 276.244,212.001 271.5,210.5C 271.5,209.5 271.5,208.5 271.5,207.5C 265.73,208.252 260.397,207.252 255.5,204.5C 244.875,203.169 234.208,202.503 223.5,202.5C 223.5,201.5 223.5,200.5 223.5,199.5C 222.167,199.5 220.833,199.5 219.5,199.5C 219.67,200.822 219.337,201.989 218.5,203C 214.833,203.333 211.167,203.667 207.5,204C 210.167,204.333 212.833,204.667 215.5,205C 210.764,205.684 206.097,206.684 201.5,208C 199.381,210.393 196.715,211.726 193.5,212C 193.833,212.333 194.167,212.667 194.5,213C 193.552,213.483 192.552,213.649 191.5,213.5C 191.222,215.346 191.889,216.68 193.5,217.5C 198.032,216.86 202.532,216.194 207,215.5C 207.49,216.793 207.657,218.127 207.5,219.5C 204.428,219.183 201.428,219.516 198.5,220.5C 198.624,221.107 198.957,221.44 199.5,221.5C 196.642,225.129 196.976,228.296 200.5,231C 199.552,231.483 198.552,231.649 197.5,231.5C 197.285,233.179 197.952,234.179 199.5,234.5C 200.833,235.167 202.167,235.833 203.5,236.5C 203.539,237.583 203.873,238.583 204.5,239.5C 202.343,240.79 200.01,241.624 197.5,242C 198.253,243.487 199.086,243.654 200,242.5C 200.617,243.449 200.451,244.282 199.5,245C 202.19,245.771 204.856,246.604 207.5,247.5C 206.051,248.172 204.718,248.839 203.5,249.5C 202.609,250.261 201.942,251.261 201.5,252.5C 201.957,253.298 202.624,253.631 203.5,253.5C 205.607,254.468 207.941,254.802 210.5,254.5C 211.263,255.268 212.263,255.768 213.5,256C 206.588,256.063 199.921,256.897 193.5,258.5C 189.594,259.61 185.594,260.443 181.5,261C 178.619,263.279 176.619,266.112 175.5,269.5C 174.662,269.842 174.328,270.508 174.5,271.5C 173.076,273.515 172.41,275.848 172.5,278.5C 172.5,279.167 172.5,279.833 172.5,280.5C 171.034,281.347 170.2,282.68 170,284.5C 169.5,320.498 169.333,356.498 169.5,392.5C 168.971,397.324 170.138,401.657 173,405.5C 178.02,411.019 183.52,416.019 189.5,420.5C 189.194,423.385 189.527,426.052 190.5,428.5C 190.5,456.167 190.5,483.833 190.5,511.5C 181.167,511.5 171.833,511.5 162.5,511.5C 167.979,502.584 170.479,492.917 170,482.5C 162.927,465.255 150.76,460.089 133.5,467C 128.837,467.537 124.171,468.037 119.5,468.5C 116.747,468.647 114.247,467.98 112,466.5C 108.548,458.375 105.548,450.041 103,441.5C 101.134,430.372 98.8002,419.372 96,408.5C 95.0997,405.282 93.933,402.282 92.5,399.5C 87.0496,381.229 84.883,362.563 86,343.5C 88.9773,329.89 92.8107,316.557 97.5,303.5C 103.725,280.243 108.559,256.577 112,232.5C 113.851,226.808 115.684,221.141 117.5,215.5C 123.814,201.532 131.647,188.532 141,176.5C 151.207,165.112 163.374,156.612 177.5,151C 187.458,149.917 197.458,149.417 207.5,149.5C 249.164,150.175 290.831,150.675 332.5,151C 334.518,151.505 336.518,152.005 338.5,152.5 Z"/></g>
<g><path style="opacity:1" fill="#628494" d="M 511.5,495.5 C 511.5,500.833 511.5,506.167 511.5,511.5C 433.167,511.5 354.833,511.5 276.5,511.5C 276.334,502.827 276.5,494.16 277,485.5C 279.071,484.897 280.238,483.564 280.5,481.5C 284.639,475.169 290.472,471.169 298,469.5C 308.558,470.947 319.058,470.614 329.5,468.5C 332.184,468.702 334.85,469.035 337.5,469.5C 349.148,468.73 360.814,468.23 372.5,468C 382.395,466.634 389.561,461.468 394,452.5C 401.733,435.039 408.899,417.372 415.5,399.5C 422.667,380.644 426,360.977 425.5,340.5C 427.41,354.66 428.077,368.994 427.5,383.5C 425.876,383.36 424.71,384.027 424,385.5C 423.667,385.167 423.333,384.833 423,384.5C 419.609,390.131 418.275,396.131 419,402.5C 417.989,403.337 416.822,403.67 415.5,403.5C 414.598,406.785 413.598,410.119 412.5,413.5C 413.53,417.465 413.697,421.465 413,425.5C 410.36,429.579 408.194,433.912 406.5,438.5C 407.457,441.559 409.29,442.559 412,441.5C 413.215,436.209 414.215,430.876 415,425.5C 415.172,429.871 415.672,434.204 416.5,438.5C 417.5,439 418.5,439.5 419.5,440C 418.284,441.74 416.618,442.74 414.5,443C 413.941,443.725 413.608,444.558 413.5,445.5C 414.292,448.152 415.959,449.318 418.5,449C 421.216,447.999 421.882,446.332 420.5,444C 423.07,440.342 424.07,436.175 423.5,431.5C 424.822,431.67 425.989,431.337 427,430.5C 427.499,425.511 427.666,420.511 427.5,415.5C 428.833,415.5 430.167,415.5 431.5,415.5C 431.5,410.167 431.5,404.833 431.5,399.5C 432.833,399.5 434.167,399.5 435.5,399.5C 436.624,394.148 436.624,388.814 435.5,383.5C 437.331,384.052 438.997,384.052 440.5,383.5C 441.529,372.683 443.195,362.016 445.5,351.5C 447.5,351.5 449.5,351.5 451.5,351.5C 451.334,346.489 451.501,341.489 452,336.5C 453.011,335.663 454.178,335.33 455.5,335.5C 455.168,324.813 455.501,314.146 456.5,303.5C 457.167,302.5 457.833,301.5 458.5,300.5C 462.304,303.168 466.637,304.168 471.5,303.5C 470.932,308.813 471.765,313.813 474,318.5C 476.381,319.435 478.881,319.768 481.5,319.5C 481.5,318.5 481.5,317.5 481.5,316.5C 478.459,316.594 476.793,315.094 476.5,312C 479.156,309.771 478.823,307.938 475.5,306.5C 476.09,305.201 477.09,304.368 478.5,304C 476.165,301.697 476.165,299.197 478.5,296.5C 478.291,295.914 477.957,295.414 477.5,295C 479.006,292.575 480.673,290.242 482.5,288C 480.892,287.342 479.725,287.842 479,289.5C 477.693,288.228 476.193,287.228 474.5,286.5C 475.76,285.618 476.926,284.618 478,283.5C 478.173,279.292 479.34,275.459 481.5,272C 479.167,271.667 476.833,271.333 474.5,271C 477.868,267.383 478.202,263.55 475.5,259.5C 477.006,258.253 478.506,258.253 480,259.5C 481.188,258.437 481.688,257.103 481.5,255.5C 480.127,255.657 478.793,255.49 477.5,255C 479.839,250.135 480.839,244.968 480.5,239.5C 481.5,239.5 482.5,239.5 483.5,239.5C 483.833,236.5 482.5,235.167 479.5,235.5C 479.112,231.575 479.779,227.908 481.5,224.5C 478.16,219.858 479.16,216.524 484.5,214.5C 483.15,213.05 481.484,212.383 479.5,212.5C 479.682,210.325 480.349,208.325 481.5,206.5C 480.402,204.225 479.068,202.058 477.5,200C 479,199.167 480.167,198 481,196.5C 483.059,190.716 485.393,185.049 488,179.5C 492.643,180.208 497.143,181.375 501.5,183C 500.374,186.744 500.207,190.577 501,194.5C 502.389,198.272 503.389,198.272 504,194.5C 504.562,196.866 504.396,199.199 503.5,201.5C 503.719,202.938 504.219,204.271 505,205.5C 506.295,195.14 506.462,184.806 505.5,174.5C 505.833,174.167 506.167,173.833 506.5,173.5C 507.329,178.802 507.829,184.136 508,189.5C 509.23,181.582 510.063,181.749 510.5,190C 510.609,192.7 510.109,195.2 509,197.5C 508.667,195.5 508.333,193.5 508,191.5C 507.333,195.833 507.333,200.167 508,204.5C 508.202,202.744 508.702,201.078 509.5,199.5C 509.833,207.833 510.167,216.167 510.5,224.5C 509.872,240.195 509.872,255.862 510.5,271.5C 510.613,280.398 509.946,289.232 508.5,298C 508.796,299.888 509.296,301.722 510,303.5C 509.69,367.482 510.19,431.482 511.5,495.5 Z"/></g>
<g><path style="opacity:1" fill="#010409" d="M 281.5,232.5 C 279.708,232.634 278.042,232.301 276.5,231.5C 273.4,230.301 270.4,228.801 267.5,227C 257.168,226.076 246.835,225.243 236.5,224.5C 233.873,223.908 231.206,223.575 228.5,223.5C 225.155,221.783 221.489,221.116 217.5,221.5C 211.643,220.281 205.643,220.281 199.5,221.5C 198.957,221.44 198.624,221.107 198.5,220.5C 201.428,219.516 204.428,219.183 207.5,219.5C 207.657,218.127 207.49,216.793 207,215.5C 202.532,216.194 198.032,216.86 193.5,217.5C 191.889,216.68 191.222,215.346 191.5,213.5C 192.552,213.649 193.552,213.483 194.5,213C 194.167,212.667 193.833,212.333 193.5,212C 196.715,211.726 199.381,210.393 201.5,208C 206.097,206.684 210.764,205.684 215.5,205C 212.833,204.667 210.167,204.333 207.5,204C 211.167,203.667 214.833,203.333 218.5,203C 219.337,201.989 219.67,200.822 219.5,199.5C 220.833,199.5 222.167,199.5 223.5,199.5C 223.5,200.5 223.5,201.5 223.5,202.5C 234.208,202.503 244.875,203.169 255.5,204.5C 260.397,207.252 265.73,208.252 271.5,207.5C 271.5,208.5 271.5,209.5 271.5,210.5C 276.244,212.001 280.91,213.667 285.5,215.5C 285.281,216.675 285.614,217.675 286.5,218.5C 287.167,216.5 287.833,214.5 288.5,212.5C 290.55,215.149 291.717,218.149 292,221.5C 294.351,222.714 296.851,223.548 299.5,224C 293.829,224.073 288.162,224.073 282.5,224C 288.13,225.592 293.797,226.925 299.5,228C 295.187,229.584 290.854,229.75 286.5,228.5C 284.729,229.035 284.396,229.869 285.5,231C 284.451,231.492 283.451,231.326 282.5,230.5C 281.702,230.957 281.369,231.624 281.5,232.5 Z"/></g>
<g><path style="opacity:1" fill="#60584f" d="M 217.5,221.5 C 221.489,221.116 225.155,221.783 228.5,223.5C 222.491,223.334 216.491,223.501 210.5,224C 208.574,224.422 207.574,225.589 207.5,227.5C 208.794,229.328 209.794,231.328 210.5,233.5C 205.831,232.99 204.831,234.323 207.5,237.5C 206.167,237.167 204.833,236.833 203.5,236.5C 202.167,235.833 200.833,235.167 199.5,234.5C 199.369,233.624 199.702,232.957 200.5,232.5C 202.51,231.498 204.51,230.498 206.5,229.5C 204.497,227.867 203.164,225.867 202.5,223.5C 207.321,221.865 212.321,221.198 217.5,221.5 Z"/></g>
<g><path style="opacity:1" fill="#262727" d="M 217.5,221.5 C 212.321,221.198 207.321,221.865 202.5,223.5C 203.164,225.867 204.497,227.867 206.5,229.5C 204.51,230.498 202.51,231.498 200.5,232.5C 199.702,232.957 199.369,233.624 199.5,234.5C 197.952,234.179 197.285,233.179 197.5,231.5C 198.552,231.649 199.552,231.483 200.5,231C 196.976,228.296 196.642,225.129 199.5,221.5C 205.643,220.281 211.643,220.281 217.5,221.5 Z"/></g>
<g><path style="opacity:1" fill="#20272b" d="M 236.5,224.5 C 246.835,225.243 257.168,226.076 267.5,227C 270.4,228.801 273.4,230.301 276.5,231.5C 270.5,231.5 264.5,231.5 258.5,231.5C 257.5,231.5 256.5,231.5 255.5,231.5C 249.33,228.708 242.997,226.375 236.5,224.5 Z"/></g>
<g><path style="opacity:1" fill="#877d70" d="M 228.5,223.5 C 231.206,223.575 233.873,223.908 236.5,224.5C 242.997,226.375 249.33,228.708 255.5,231.5C 244.731,230.146 234.064,228.146 223.5,225.5C 218.077,224.178 212.743,224.844 207.5,227.5C 207.574,225.589 208.574,224.422 210.5,224C 216.491,223.501 222.491,223.334 228.5,223.5 Z"/></g>
<g><path style="opacity:1" fill="#ad977c" d="M 223.5,225.5 C 234.064,228.146 244.731,230.146 255.5,231.5C 256.5,231.5 257.5,231.5 258.5,231.5C 266.335,232.384 274.335,233.05 282.5,233.5C 284.216,233.629 285.883,233.962 287.5,234.5C 287.5,234.833 287.5,235.167 287.5,235.5C 282.167,235.167 276.833,234.833 271.5,234.5C 257.788,233.479 243.955,232.146 230,230.5C 228.893,230.585 227.893,230.919 227,231.5C 226.535,232.931 225.701,234.097 224.5,235C 225.056,235.383 225.389,235.883 225.5,236.5C 225.565,236.938 225.399,237.272 225,237.5C 221.782,235.892 218.449,234.558 215,233.5C 213.93,233.528 213.097,233.861 212.5,234.5C 211.402,233.399 211.235,232.066 212,230.5C 212.333,230.833 212.667,231.167 213,231.5C 214.784,226.524 218.284,224.524 223.5,225.5 Z"/></g>
<g><path style="opacity:1" fill="#bda485" d="M 271.5,234.5 C 260.541,234.589 249.708,234.589 239,234.5C 238.223,236.215 236.89,237.215 235,237.5C 232.072,237.295 228.905,236.962 225.5,236.5C 225.389,235.883 225.056,235.383 224.5,235C 225.701,234.097 226.535,232.931 227,231.5C 227.893,230.919 228.893,230.585 230,230.5C 243.955,232.146 257.788,233.479 271.5,234.5 Z"/></g>
<g><path style="opacity:1" fill="#766c5e" d="M 258.5,231.5 C 264.5,231.5 270.5,231.5 276.5,231.5C 278.042,232.301 279.708,232.634 281.5,232.5C 282.167,232.5 282.5,232.833 282.5,233.5C 274.335,233.05 266.335,232.384 258.5,231.5 Z"/></g>
<g><path style="opacity:1" fill="#977a63" d="M 223.5,225.5 C 218.284,224.524 214.784,226.524 213,231.5C 212.667,231.167 212.333,230.833 212,230.5C 211.235,232.066 211.402,233.399 212.5,234.5C 211.438,236.234 211.438,237.901 212.5,239.5C 212.167,239.5 211.833,239.5 211.5,239.5C 210.167,238.833 208.833,238.167 207.5,237.5C 204.831,234.323 205.831,232.99 210.5,233.5C 209.794,231.328 208.794,229.328 207.5,227.5C 212.743,224.844 218.077,224.178 223.5,225.5 Z"/></g>
<g><path style="opacity:1" fill="#76644f" d="M 287.5,235.5 C 287.5,235.167 287.5,234.833 287.5,234.5C 292.511,234.334 297.511,234.501 302.5,235C 303.435,237.381 303.768,239.881 303.5,242.5C 302.833,242.5 302.5,242.833 302.5,243.5C 302.167,243.5 301.833,243.5 301.5,243.5C 301.326,241.139 300.993,238.806 300.5,236.5C 296.143,236.414 291.81,236.08 287.5,235.5 Z"/></g>
<g><path style="opacity:1" fill="#513d2b" d="M 207.5,237.5 C 208.833,238.167 210.167,238.833 211.5,239.5C 211.5,240.5 211.5,241.5 211.5,242.5C 209.793,241.127 208.46,239.461 207.5,237.5 Z"/></g>
<g><path style="opacity:1" fill="#030e05" d="M 335.5,258.5 C 333.399,255.821 331.399,252.988 329.5,250C 328.038,250.063 326.705,250.729 325.5,252C 326.157,258.824 329.157,264.324 334.5,268.5C 335.386,269.325 335.719,270.325 335.5,271.5C 336.93,271.421 338.264,271.754 339.5,272.5C 340.452,270.955 340.785,269.288 340.5,267.5C 343.925,270.687 345.259,274.687 344.5,279.5C 341.274,278.795 338.107,277.795 335,276.5C 334.141,281.282 334.974,285.948 337.5,290.5C 336.527,290.013 335.527,289.513 334.5,289C 333.268,286.359 331.602,284.193 329.5,282.5C 326.101,274.434 320.434,268.767 312.5,265.5C 309.594,260.408 306.427,255.408 303,250.5C 302.503,248.19 302.337,245.857 302.5,243.5C 302.5,242.833 302.833,242.5 303.5,242.5C 303.357,244.262 303.691,245.929 304.5,247.5C 306.569,250.466 308.902,253.299 311.5,256C 311.167,256.333 310.833,256.667 310.5,257C 312.587,257.792 314.421,258.959 316,260.5C 316.561,259.978 317.228,259.645 318,259.5C 319.722,259.611 319.888,260.111 318.5,261C 320.134,261.494 321.801,261.66 323.5,261.5C 322.969,258.763 322.136,256.096 321,253.5C 317.327,251.506 315.993,248.506 317,244.5C 320.806,242.139 324.973,241.305 329.5,242C 331.126,244.628 333.126,246.961 335.5,249C 335.322,251.955 335.322,255.121 335.5,258.5 Z"/></g>
<g><path style="opacity:1" fill="#bd8f66" d="M 211.5,239.5 C 211.833,239.5 212.167,239.5 212.5,239.5C 214.857,239.337 217.19,239.503 219.5,240C 221.667,241.833 223.833,243.667 226,245.5C 225.466,248.04 224.966,250.374 224.5,252.5C 220.167,249.167 215.833,245.833 211.5,242.5C 211.5,241.5 211.5,240.5 211.5,239.5 Z"/></g>
<g><path style="opacity:1" fill="#d6af80" d="M 298.5,261.5 C 299.043,264.218 299.709,266.885 300.5,269.5C 300.299,272.508 299.966,275.508 299.5,278.5C 299.361,280.883 300.028,282.883 301.5,284.5C 301.5,285.5 301.5,286.5 301.5,287.5C 301.259,289.886 301.925,291.886 303.5,293.5C 302.352,294.164 301.019,294.331 299.5,294C 299.49,297.628 301.156,300.628 304.5,303C 303.527,308.407 303.193,313.907 303.5,319.5C 302.167,319.5 300.833,319.5 299.5,319.5C 299.5,322.167 299.5,324.833 299.5,327.5C 299.662,329.527 299.495,331.527 299,333.5C 297.442,332.655 296.442,333.321 296,335.5C 295.374,333.287 295.541,331.12 296.5,329C 295.148,327.036 294.314,324.869 294,322.5C 292.887,321.289 291.72,321.289 290.5,322.5C 289.614,321.675 289.281,320.675 289.5,319.5C 284.891,318.974 280.557,319.641 276.5,321.5C 275.319,323.135 275.319,324.802 276.5,326.5C 275.5,327.167 274.5,327.833 273.5,328.5C 274.836,332.986 273.169,335.82 268.5,337C 269.696,337.654 269.696,338.154 268.5,338.5C 264.454,336.489 260.12,335.489 255.5,335.5C 255.662,333.473 255.495,331.473 255,329.5C 250.136,327.809 247.303,324.476 246.5,319.5C 244.5,319.5 242.5,319.5 240.5,319.5C 239.343,322.348 239.676,324.848 241.5,327C 240.354,327.645 239.354,328.478 238.5,329.5C 235.193,330.65 232.026,331.983 229,333.5C 226.675,331.502 224.341,329.502 222,327.5C 221.5,327.667 221,327.833 220.5,328C 222.607,329.264 223.607,331.097 223.5,333.5C 220.166,333.214 217,333.214 214,333.5C 211.267,332.792 209.1,331.458 207.5,329.5C 202.604,327.554 197.271,326.887 191.5,327.5C 191.813,324.753 191.48,322.086 190.5,319.5C 190.324,321.672 190.157,324.005 190,326.5C 185.145,321.759 185.645,317.593 191.5,314C 190.692,312.294 189.359,311.461 187.5,311.5C 186.641,315.562 185.474,319.562 184,323.5C 183.727,321.899 183.227,320.399 182.5,319C 187.886,310.991 185.886,307.824 176.5,309.5C 175.614,308.675 175.281,307.675 175.5,306.5C 177.812,303.521 180.479,300.854 183.5,298.5C 184.667,298.167 185.833,297.833 187,297.5C 200.503,302.191 214.336,303.691 228.5,302C 235.565,293.997 239.232,284.497 239.5,273.5C 240.373,268.993 238.873,265.659 235,263.5C 234.869,260.629 233.703,258.295 231.5,256.5C 232.428,255.232 232.595,253.899 232,252.5C 229.792,249.92 227.959,247.087 226.5,244C 229.007,241.515 230.507,242.015 231,245.5C 232.602,243.737 233.102,241.904 232.5,240C 238.53,239.748 244.53,239.248 250.5,238.5C 252.187,238.76 253.687,239.427 255,240.5C 262.796,236.921 270.962,236.088 279.5,238C 280.915,240.792 283.249,242.292 286.5,242.5C 288.003,241.948 289.669,241.948 291.5,242.5C 291.351,241.448 291.517,240.448 292,239.5C 291.808,243.481 293.308,246.481 296.5,248.5C 297.167,252.982 297.834,257.316 298.5,261.5 Z"/></g>
<g><path style="opacity:1" fill="#0f0f0a" d="M 203.5,236.5 C 204.833,236.833 206.167,237.167 207.5,237.5C 208.46,239.461 209.793,241.127 211.5,242.5C 215.833,245.833 220.167,249.167 224.5,252.5C 227.167,254.5 229.5,256.833 231.5,259.5C 231.586,260.496 231.252,261.329 230.5,262C 228.866,262.494 227.199,262.66 225.5,262.5C 224.833,262.5 224.167,262.5 223.5,262.5C 223.19,260.856 222.19,259.856 220.5,259.5C 211.682,258.507 202.682,258.173 193.5,258.5C 199.921,256.897 206.588,256.063 213.5,256C 212.263,255.768 211.263,255.268 210.5,254.5C 216.831,254.451 216.831,253.451 210.5,251.5C 208.412,250.061 206.079,249.394 203.5,249.5C 204.718,248.839 206.051,248.172 207.5,247.5C 204.856,246.604 202.19,245.771 199.5,245C 200.451,244.282 200.617,243.449 200,242.5C 199.086,243.654 198.253,243.487 197.5,242C 200.01,241.624 202.343,240.79 204.5,239.5C 203.873,238.583 203.539,237.583 203.5,236.5 Z"/></g>
<g><path style="opacity:1" fill="#5d7b86" d="M 117.5,215.5 C 115.684,221.141 113.851,226.808 112,232.5C 108.559,256.577 103.725,280.243 97.5,303.5C 97.4359,298.288 98.4359,293.288 100.5,288.5C 99.5,287.833 98.5,287.167 97.5,286.5C 98.0742,283.679 99.4076,281.346 101.5,279.5C 101.013,278.554 100.68,277.554 100.5,276.5C 103.015,270.76 104.681,264.76 105.5,258.5C 103.539,255.643 102.872,252.643 103.5,249.5C 104.204,247.899 105.371,246.565 107,245.5C 108.102,241.584 108.769,237.584 109,233.5C 109.667,232.833 110.333,232.167 111,231.5C 111.386,226.957 112.552,222.624 114.5,218.5C 115.141,217.007 116.141,216.007 117.5,215.5 Z"/></g>
<g><path style="opacity:1" fill="#587972" d="M 203.5,249.5 C 206.079,249.394 208.412,250.061 210.5,251.5C 208.721,253.344 206.388,254.01 203.5,253.5C 202.624,253.631 201.957,253.298 201.5,252.5C 201.942,251.261 202.609,250.261 203.5,249.5 Z"/></g>
<g><path style="opacity:1" fill="#324845" d="M 210.5,251.5 C 216.831,253.451 216.831,254.451 210.5,254.5C 207.941,254.802 205.607,254.468 203.5,253.5C 206.388,254.01 208.721,253.344 210.5,251.5 Z"/></g>
<g><path style="opacity:1" fill="#4a5243" d="M 301.5,244.5 C 300.839,249.356 301.839,253.69 304.5,257.5C 304.2,262.111 303.2,266.111 301.5,269.5C 301.167,269.5 300.833,269.5 300.5,269.5C 299.709,266.885 299.043,264.218 298.5,261.5C 298.335,257.818 298.501,254.152 299,250.5C 299.24,248.148 300.073,246.148 301.5,244.5 Z"/></g>
<g><path style="opacity:1" fill="#544a3d" d="M 193.5,258.5 C 202.682,258.173 211.682,258.507 220.5,259.5C 212.249,260.954 203.916,261.787 195.5,262C 190.75,262.878 186.083,264.045 181.5,265.5C 185.468,263.18 189.468,260.847 193.5,258.5 Z"/></g>
<g><path style="opacity:1" fill="#30271b" d="M 193.5,258.5 C 189.468,260.847 185.468,263.18 181.5,265.5C 179.5,266.833 177.5,268.167 175.5,269.5C 176.619,266.112 178.619,263.279 181.5,261C 185.594,260.443 189.594,259.61 193.5,258.5 Z"/></g>
<g><path style="opacity:1" fill="#746650" d="M 220.5,259.5 C 222.19,259.856 223.19,260.856 223.5,262.5C 213.932,264.058 204.265,265.225 194.5,266C 192.277,266.566 190.277,267.4 188.5,268.5C 183.613,268.854 178.946,269.854 174.5,271.5C 174.328,270.508 174.662,269.842 175.5,269.5C 177.5,268.167 179.5,266.833 181.5,265.5C 186.083,264.045 190.75,262.878 195.5,262C 203.916,261.787 212.249,260.954 220.5,259.5 Z"/></g>
<g><path style="opacity:1" fill="#313326" d="M 231.5,259.5 C 232.167,259.5 232.5,259.833 232.5,260.5C 232.22,264.225 230.22,265.392 226.5,264C 225.944,263.617 225.611,263.117 225.5,262.5C 227.199,262.66 228.866,262.494 230.5,262C 231.252,261.329 231.586,260.496 231.5,259.5 Z"/></g>
<g><path style="opacity:1" fill="#8d7d65" d="M 232.5,260.5 C 233.451,261.919 233.784,263.585 233.5,265.5C 233.167,265.5 232.833,265.5 232.5,265.5C 230.748,265.418 229.748,266.251 229.5,268C 230.167,269.333 230.833,270.667 231.5,272C 229.343,273.612 228.009,275.778 227.5,278.5C 226.126,279.711 224.626,280.711 223,281.5C 217.824,279.726 212.991,277.393 208.5,274.5C 207.8,271.985 206.467,271.318 204.5,272.5C 200.287,271.089 195.954,270.422 191.5,270.5C 189.973,270.573 188.973,269.906 188.5,268.5C 190.277,267.4 192.277,266.566 194.5,266C 204.265,265.225 213.932,264.058 223.5,262.5C 224.167,262.5 224.833,262.5 225.5,262.5C 225.611,263.117 225.944,263.617 226.5,264C 230.22,265.392 232.22,264.225 232.5,260.5 Z"/></g>
<g><path style="opacity:1" fill="#2b3d34" d="M 304.5,257.5 C 308.504,262.465 311.171,268.132 312.5,274.5C 309.644,273.172 306.644,272.172 303.5,271.5C 303.5,272.5 303.5,273.5 303.5,274.5C 303.167,274.5 302.833,274.5 302.5,274.5C 302.737,273.209 302.404,272.209 301.5,271.5C 301.5,270.833 301.5,270.167 301.5,269.5C 303.2,266.111 304.2,262.111 304.5,257.5 Z"/></g>
<g><path style="opacity:1" fill="#0a2013" d="M 335.5,258.5 C 336.328,261.988 337.995,264.988 340.5,267.5C 340.785,269.288 340.452,270.955 339.5,272.5C 338.264,271.754 336.93,271.421 335.5,271.5C 335.719,270.325 335.386,269.325 334.5,268.5C 329.157,264.324 326.157,258.824 325.5,252C 326.705,250.729 328.038,250.063 329.5,250C 331.399,252.988 333.399,255.821 335.5,258.5 Z"/></g>
<g><path style="opacity:1" fill="#a28462" d="M 188.5,268.5 C 188.973,269.906 189.973,270.573 191.5,270.5C 193.568,271.375 195.568,272.541 197.5,274C 196.473,274.513 195.473,275.013 194.5,275.5C 190.899,274.027 187.566,274.361 184.5,276.5C 180.5,277.833 176.5,279.167 172.5,280.5C 172.5,279.833 172.5,279.167 172.5,278.5C 173.924,276.485 174.59,274.152 174.5,271.5C 178.946,269.854 183.613,268.854 188.5,268.5 Z"/></g>
<g><path style="opacity:1" fill="#2e2f28" d="M 302.5,274.5 C 302.833,274.5 303.167,274.5 303.5,274.5C 304.75,274.577 305.583,275.244 306,276.5C 306.333,279.5 306.667,282.5 307,285.5C 307.5,286 308,286.5 308.5,287C 316.245,287.88 323.912,289.213 331.5,291C 332.056,291.383 332.389,291.883 332.5,292.5C 329.545,291.841 326.545,291.508 323.5,291.5C 322.833,291.5 322.167,291.5 321.5,291.5C 316.983,290.834 312.317,290.167 307.5,289.5C 305.833,288.5 304.5,287.167 303.5,285.5C 302.511,281.893 302.177,278.226 302.5,274.5 Z"/></g>
<g><path style="opacity:1" fill="#4f4333" d="M 174.5,271.5 C 174.59,274.152 173.924,276.485 172.5,278.5C 172.41,275.848 173.076,273.515 174.5,271.5 Z"/></g>
<g><path style="opacity:1" fill="#907f61" d="M 300.5,269.5 C 300.833,269.5 301.167,269.5 301.5,269.5C 301.5,270.167 301.5,270.833 301.5,271.5C 301.5,275.833 301.5,280.167 301.5,284.5C 300.028,282.883 299.361,280.883 299.5,278.5C 299.966,275.508 300.299,272.508 300.5,269.5 Z"/></g>
<g><path style="opacity:1" fill="#0d291a" d="M 312.5,265.5 C 320.434,268.767 326.101,274.434 329.5,282.5C 326.527,283.524 323.527,283.357 320.5,282C 319.299,279.42 317.632,277.253 315.5,275.5C 314.402,272.119 313.402,268.785 312.5,265.5 Z"/></g>
<g><path style="opacity:1" fill="#9e896f" d="M 232.5,265.5 C 232.077,266.265 231.743,267.098 231.5,268C 233.361,270.946 233.861,274.113 233,277.5C 231.964,280.753 231.297,284.086 231,287.5C 230.535,288.931 229.701,290.097 228.5,291C 222.552,291.803 216.718,292.97 211,294.5C 206.149,292.651 202.149,289.651 199,285.5C 198.621,283.43 199.455,281.93 201.5,281C 199.195,279.077 196.862,277.244 194.5,275.5C 195.473,275.013 196.473,274.513 197.5,274C 195.568,272.541 193.568,271.375 191.5,270.5C 195.954,270.422 200.287,271.089 204.5,272.5C 206.467,271.318 207.8,271.985 208.5,274.5C 212.991,277.393 217.824,279.726 223,281.5C 224.626,280.711 226.126,279.711 227.5,278.5C 228.009,275.778 229.343,273.612 231.5,272C 230.833,270.667 230.167,269.333 229.5,268C 229.748,266.251 230.748,265.418 232.5,265.5 Z"/></g>
<g><path style="opacity:1" fill="#15211f" d="M 301.5,243.5 C 301.833,243.5 302.167,243.5 302.5,243.5C 302.337,245.857 302.503,248.19 303,250.5C 306.427,255.408 309.594,260.408 312.5,265.5C 313.402,268.785 314.402,272.119 315.5,275.5C 317.632,277.253 319.299,279.42 320.5,282C 323.527,283.357 326.527,283.524 329.5,282.5C 331.602,284.193 333.268,286.359 334.5,289C 335.527,289.513 336.527,290.013 337.5,290.5C 338.404,291.209 338.737,292.209 338.5,293.5C 336.5,293.167 334.5,292.833 332.5,292.5C 332.389,291.883 332.056,291.383 331.5,291C 323.912,289.213 316.245,287.88 308.5,287C 308,286.5 307.5,286 307,285.5C 306.667,282.5 306.333,279.5 306,276.5C 305.583,275.244 304.75,274.577 303.5,274.5C 303.5,273.5 303.5,272.5 303.5,271.5C 306.644,272.172 309.644,273.172 312.5,274.5C 311.171,268.132 308.504,262.465 304.5,257.5C 301.839,253.69 300.839,249.356 301.5,244.5C 301.5,244.167 301.5,243.833 301.5,243.5 Z"/></g>
<g><path style="opacity:1" fill="#625744" d="M 301.5,271.5 C 302.404,272.209 302.737,273.209 302.5,274.5C 302.177,278.226 302.511,281.893 303.5,285.5C 304.5,287.167 305.833,288.5 307.5,289.5C 312.317,290.167 316.983,290.834 321.5,291.5C 316.489,291.666 311.489,291.499 306.5,291C 304.935,289.588 303.269,288.421 301.5,287.5C 301.5,286.5 301.5,285.5 301.5,284.5C 301.5,280.167 301.5,275.833 301.5,271.5 Z"/></g>
<g><path style="opacity:1" fill="#ab9172" d="M 232.5,265.5 C 232.833,265.5 233.167,265.5 233.5,265.5C 235.835,273.318 236.001,281.318 234,289.5C 233.722,290.416 233.222,291.082 232.5,291.5C 229.966,293.871 227.3,296.037 224.5,298C 212.064,300.077 201.564,296.577 193,287.5C 191.711,284.649 191.211,281.649 191.5,278.5C 189.167,277.833 186.833,277.167 184.5,276.5C 187.566,274.361 190.899,274.027 194.5,275.5C 196.862,277.244 199.195,279.077 201.5,281C 199.455,281.93 198.621,283.43 199,285.5C 202.149,289.651 206.149,292.651 211,294.5C 216.718,292.97 222.552,291.803 228.5,291C 229.701,290.097 230.535,288.931 231,287.5C 231.297,284.086 231.964,280.753 233,277.5C 233.861,274.113 233.361,270.946 231.5,268C 231.743,267.098 232.077,266.265 232.5,265.5 Z"/></g>
<g><path style="opacity:1" fill="#c09f79" d="M 301.5,287.5 C 303.269,288.421 304.935,289.588 306.5,291C 311.489,291.499 316.489,291.666 321.5,291.5C 322.167,291.5 322.833,291.5 323.5,291.5C 323.62,292.586 324.287,293.253 325.5,293.5C 329.832,294.333 334.165,295.166 338.5,296C 339.373,297.045 340.373,297.878 341.5,298.5C 341.83,318.007 341.497,337.341 340.5,356.5C 340.833,337.821 340.5,319.155 339.5,300.5C 338.646,299.478 337.646,298.645 336.5,298C 333.833,297.667 331.167,297.333 328.5,297C 327.833,296.333 327.167,295.667 326.5,295C 321.311,294.015 316.311,294.515 311.5,296.5C 308.965,295.1 306.298,294.1 303.5,293.5C 301.925,291.886 301.259,289.886 301.5,287.5 Z"/></g>
<g><path style="opacity:1" fill="#4c4335" d="M 323.5,291.5 C 326.545,291.508 329.545,291.841 332.5,292.5C 334.5,292.833 336.5,293.167 338.5,293.5C 339.89,294.899 340.89,296.566 341.5,298.5C 340.373,297.878 339.373,297.045 338.5,296C 334.165,295.166 329.832,294.333 325.5,293.5C 324.287,293.253 323.62,292.586 323.5,291.5 Z"/></g>
<g><path style="opacity:1" fill="#87664c" d="M 172.5,280.5 C 172.167,281.833 171.833,283.167 171.5,284.5C 171.371,286.216 171.038,287.883 170.5,289.5C 170.832,324.004 170.498,358.337 169.5,392.5C 169.333,356.498 169.5,320.498 170,284.5C 170.2,282.68 171.034,281.347 172.5,280.5 Z"/></g>
<g><path style="opacity:1" fill="#ba9a76" d="M 184.5,276.5 C 186.833,277.167 189.167,277.833 191.5,278.5C 191.211,281.649 191.711,284.649 193,287.5C 201.564,296.577 212.064,300.077 224.5,298C 227.3,296.037 229.966,293.871 232.5,291.5C 232.518,295.606 230.518,298.106 226.5,299C 219.919,299.187 213.419,299.687 207,300.5C 202.936,298.607 198.769,296.941 194.5,295.5C 191.346,292.757 188.012,290.257 184.5,288C 181.571,287.223 178.737,287.39 176,288.5C 175.308,287.975 174.808,287.308 174.5,286.5C 175.326,285.549 175.492,284.549 175,283.5C 173.989,284.337 172.822,284.67 171.5,284.5C 171.833,283.167 172.167,281.833 172.5,280.5C 176.5,279.167 180.5,277.833 184.5,276.5 Z"/></g>
<g><path style="opacity:1" fill="#c5a27b" d="M 225.5,236.5 C 228.905,236.962 232.072,237.295 235,237.5C 236.89,237.215 238.223,236.215 239,234.5C 249.708,234.589 260.541,234.589 271.5,234.5C 276.833,234.833 282.167,235.167 287.5,235.5C 291.81,236.08 296.143,236.414 300.5,236.5C 300.993,238.806 301.326,241.139 301.5,243.5C 301.5,243.833 301.5,244.167 301.5,244.5C 300.073,246.148 299.24,248.148 299,250.5C 298.501,254.152 298.335,257.818 298.5,261.5C 297.834,257.316 297.167,252.982 296.5,248.5C 293.308,246.481 291.808,243.481 292,239.5C 291.517,240.448 291.351,241.448 291.5,242.5C 289.669,241.948 288.003,241.948 286.5,242.5C 283.249,242.292 280.915,240.792 279.5,238C 270.962,236.088 262.796,236.921 255,240.5C 253.687,239.427 252.187,238.76 250.5,238.5C 244.53,239.248 238.53,239.748 232.5,240C 233.102,241.904 232.602,243.737 231,245.5C 230.507,242.015 229.007,241.515 226.5,244C 227.959,247.087 229.792,249.92 232,252.5C 232.595,253.899 232.428,255.232 231.5,256.5C 233.703,258.295 234.869,260.629 235,263.5C 238.873,265.659 240.373,268.993 239.5,273.5C 239.232,284.497 235.565,293.997 228.5,302C 214.336,303.691 200.503,302.191 187,297.5C 185.833,297.833 184.667,298.167 183.5,298.5C 180.479,300.854 177.812,303.521 175.5,306.5C 175.666,302.154 175.499,297.821 175,293.5C 174.667,295.167 174.333,296.833 174,298.5C 172.784,296.038 172.118,293.371 172,290.5C 171.617,289.944 171.117,289.611 170.5,289.5C 171.038,287.883 171.371,286.216 171.5,284.5C 172.822,284.67 173.989,284.337 175,283.5C 175.492,284.549 175.326,285.549 174.5,286.5C 174.808,287.308 175.308,287.975 176,288.5C 178.737,287.39 181.571,287.223 184.5,288C 188.012,290.257 191.346,292.757 194.5,295.5C 198.769,296.941 202.936,298.607 207,300.5C 213.419,299.687 219.919,299.187 226.5,299C 230.518,298.106 232.518,295.606 232.5,291.5C 233.222,291.082 233.722,290.416 234,289.5C 236.001,281.318 235.835,273.318 233.5,265.5C 233.784,263.585 233.451,261.919 232.5,260.5C 232.5,259.833 232.167,259.5 231.5,259.5C 229.5,256.833 227.167,254.5 224.5,252.5C 224.966,250.374 225.466,248.04 226,245.5C 223.833,243.667 221.667,241.833 219.5,240C 217.19,239.503 214.857,239.337 212.5,239.5C 211.438,237.901 211.438,236.234 212.5,234.5C 213.097,233.861 213.93,233.528 215,233.5C 218.449,234.558 221.782,235.892 225,237.5C 225.399,237.272 225.565,236.938 225.5,236.5 Z"/></g>
<g><path style="opacity:1" fill="#dbaf80" d="M 303.5,293.5 C 306.298,294.1 308.965,295.1 311.5,296.5C 316.311,294.515 321.311,294.015 326.5,295C 327.167,295.667 327.833,296.333 328.5,297C 331.167,297.333 333.833,297.667 336.5,298C 337.646,298.645 338.646,299.478 339.5,300.5C 340.5,319.155 340.833,337.821 340.5,356.5C 340.736,367.042 340.07,377.376 338.5,387.5C 338.666,381.824 338.499,376.157 338,370.5C 336.873,373.377 336.206,376.377 336,379.5C 334.901,364.375 332.901,349.375 330,334.5C 328.684,331.972 327.517,331.972 326.5,334.5C 321.881,332.076 317.381,332.41 313,335.5C 309.768,333.95 306.768,331.95 304,329.5C 303.586,329.957 303.086,330.291 302.5,330.5C 301.859,329.007 300.859,328.007 299.5,327.5C 299.5,324.833 299.5,322.167 299.5,319.5C 300.833,319.5 302.167,319.5 303.5,319.5C 303.193,313.907 303.527,308.407 304.5,303C 301.156,300.628 299.49,297.628 299.5,294C 301.019,294.331 302.352,294.164 303.5,293.5 Z"/></g>
<g><path style="opacity:1" fill="#d7ac7c" d="M 299.5,327.5 C 300.859,328.007 301.859,329.007 302.5,330.5C 303.086,330.291 303.586,329.957 304,329.5C 306.768,331.95 309.768,333.95 313,335.5C 317.381,332.41 321.881,332.076 326.5,334.5C 327.517,331.972 328.684,331.972 330,334.5C 332.901,349.375 334.901,364.375 336,379.5C 336.206,376.377 336.873,373.377 338,370.5C 338.499,376.157 338.666,381.824 338.5,387.5C 338.283,391.705 337.617,395.705 336.5,399.5C 335.022,399.238 333.689,399.571 332.5,400.5C 331.19,403.473 329.19,405.807 326.5,407.5C 325.808,406.975 325.308,406.308 325,405.5C 323.559,407.305 323.392,409.305 324.5,411.5C 322.459,411.854 320.626,411.854 319,411.5C 317.542,413.524 315.709,413.691 313.5,412C 314.022,411.439 314.355,410.772 314.5,410C 313.029,406.891 311.695,403.724 310.5,400.5C 311.689,399.571 313.022,399.238 314.5,399.5C 314.681,396.447 314.848,393.447 315,390.5C 314,391.5 313,392.5 312,393.5C 311.309,391.109 310.309,391.109 309,393.5C 308.395,390.666 306.561,388.333 303.5,386.5C 303.48,384.857 304.147,383.524 305.5,382.5C 304.502,379.972 303.669,379.972 303,382.5C 300.355,380.276 299.855,377.61 301.5,374.5C 298.45,375.077 296.45,373.91 295.5,371C 293.779,370.261 292.113,369.427 290.5,368.5C 291.376,367.749 292.376,367.249 293.5,367C 292.671,365.184 291.837,363.351 291,361.5C 289.249,360.191 287.749,360.525 286.5,362.5C 284.54,360.709 283.207,358.543 282.5,356C 279.464,356.857 278.798,355.69 280.5,352.5C 274.054,350.85 267.554,349.517 261,348.5C 256.585,349.128 252.418,350.461 248.5,352.5C 245.713,356.048 242.38,358.881 238.5,361C 237.994,363.532 236.827,365.698 235,367.5C 234.506,369.134 234.34,370.801 234.5,372.5C 232.408,372.561 230.908,373.561 230,375.5C 229.778,379.056 228.944,382.389 227.5,385.5C 226.069,386.903 224.902,388.569 224,390.5C 218.593,389.527 213.093,389.193 207.5,389.5C 207.719,390.675 207.386,391.675 206.5,392.5C 201.479,390.46 196.479,388.46 191.5,386.5C 191.5,385.5 191.5,384.5 191.5,383.5C 188.391,383.264 185.391,383.597 182.5,384.5C 181.396,383.003 180.396,381.336 179.5,379.5C 180.734,375.614 180.734,371.781 179.5,368C 180.103,366.175 180.77,364.341 181.5,362.5C 182.228,364.193 183.228,365.693 184.5,367C 183.202,371.118 183.202,375.285 184.5,379.5C 186.874,377.622 188.708,375.288 190,372.5C 190.928,375.035 192.762,376.035 195.5,375.5C 195.5,378.5 195.5,381.5 195.5,384.5C 199.059,384.284 202.559,384.618 206,385.5C 208.256,383.915 210.756,383.248 213.5,383.5C 213.5,380.833 213.5,378.167 213.5,375.5C 208.371,375.281 208.371,374.614 213.5,373.5C 212.013,366.263 211.346,358.93 211.5,351.5C 213.167,351.5 214.833,351.5 216.5,351.5C 215.697,346.524 212.864,343.191 208,341.5C 207.667,342.833 207.333,344.167 207,345.5C 204.572,344.37 202.405,342.87 200.5,341C 200.957,340.586 201.291,340.086 201.5,339.5C 200.05,338.15 199.383,336.484 199.5,334.5C 201.591,334.682 203.591,334.348 205.5,333.5C 206.59,332.609 206.59,331.609 205.5,330.5C 205.957,329.702 206.624,329.369 207.5,329.5C 209.1,331.458 211.267,332.792 214,333.5C 217,333.214 220.166,333.214 223.5,333.5C 223.607,331.097 222.607,329.264 220.5,328C 221,327.833 221.5,327.667 222,327.5C 224.341,329.502 226.675,331.502 229,333.5C 232.026,331.983 235.193,330.65 238.5,329.5C 239.354,328.478 240.354,327.645 241.5,327C 239.676,324.848 239.343,322.348 240.5,319.5C 242.5,319.5 244.5,319.5 246.5,319.5C 247.303,324.476 250.136,327.809 255,329.5C 255.495,331.473 255.662,333.473 255.5,335.5C 260.12,335.489 264.454,336.489 268.5,338.5C 269.696,338.154 269.696,337.654 268.5,337C 273.169,335.82 274.836,332.986 273.5,328.5C 274.5,327.833 275.5,327.167 276.5,326.5C 275.319,324.802 275.319,323.135 276.5,321.5C 280.557,319.641 284.891,318.974 289.5,319.5C 289.281,320.675 289.614,321.675 290.5,322.5C 291.72,321.289 292.887,321.289 294,322.5C 294.314,324.869 295.148,327.036 296.5,329C 295.541,331.12 295.374,333.287 296,335.5C 296.442,333.321 297.442,332.655 299,333.5C 299.495,331.527 299.662,329.527 299.5,327.5 Z"/></g>
<g><path style="opacity:1" fill="#dbac7b" d="M 170.5,289.5 C 171.117,289.611 171.617,289.944 172,290.5C 172.118,293.371 172.784,296.038 174,298.5C 174.333,296.833 174.667,295.167 175,293.5C 175.499,297.821 175.666,302.154 175.5,306.5C 175.281,307.675 175.614,308.675 176.5,309.5C 185.886,307.824 187.886,310.991 182.5,319C 183.227,320.399 183.727,321.899 184,323.5C 185.474,319.562 186.641,315.562 187.5,311.5C 189.359,311.461 190.692,312.294 191.5,314C 185.645,317.593 185.145,321.759 190,326.5C 190.157,324.005 190.324,321.672 190.5,319.5C 191.48,322.086 191.813,324.753 191.5,327.5C 197.271,326.887 202.604,327.554 207.5,329.5C 206.624,329.369 205.957,329.702 205.5,330.5C 206.59,331.609 206.59,332.609 205.5,333.5C 203.591,334.348 201.591,334.682 199.5,334.5C 199.383,336.484 200.05,338.15 201.5,339.5C 201.291,340.086 200.957,340.586 200.5,341C 202.405,342.87 204.572,344.37 207,345.5C 207.333,344.167 207.667,342.833 208,341.5C 212.864,343.191 215.697,346.524 216.5,351.5C 214.833,351.5 213.167,351.5 211.5,351.5C 211.346,358.93 212.013,366.263 213.5,373.5C 208.371,374.614 208.371,375.281 213.5,375.5C 213.5,378.167 213.5,380.833 213.5,383.5C 210.756,383.248 208.256,383.915 206,385.5C 202.559,384.618 199.059,384.284 195.5,384.5C 195.5,381.5 195.5,378.5 195.5,375.5C 192.762,376.035 190.928,375.035 190,372.5C 188.708,375.288 186.874,377.622 184.5,379.5C 183.202,375.285 183.202,371.118 184.5,367C 183.228,365.693 182.228,364.193 181.5,362.5C 180.77,364.341 180.103,366.175 179.5,368C 180.734,371.781 180.734,375.614 179.5,379.5C 180.396,381.336 181.396,383.003 182.5,384.5C 182.539,385.583 182.873,386.583 183.5,387.5C 182.029,390.136 180.363,392.636 178.5,395C 179.448,395.483 180.448,395.649 181.5,395.5C 181.649,396.552 181.483,397.552 181,398.5C 178.842,399.826 177.008,401.493 175.5,403.5C 176.7,404.292 178.033,404.292 179.5,403.5C 179.279,404.735 178.612,405.735 177.5,406.5C 179.98,408.304 181.647,410.637 182.5,413.5C 184.143,413.52 185.476,412.853 186.5,411.5C 187.594,412.868 187.26,414.035 185.5,415C 186.784,415.684 187.951,415.517 189,414.5C 190.413,416.652 191.246,418.986 191.5,421.5C 190.833,421.167 190.167,420.833 189.5,420.5C 183.52,416.019 178.02,411.019 173,405.5C 170.138,401.657 168.971,397.324 169.5,392.5C 170.498,358.337 170.832,324.004 170.5,289.5 Z"/></g>
<g><path style="opacity:1" fill="#e4ad79" d="M 171.5,303.5 C 172.042,306.65 173.209,309.65 175,312.5C 175.667,325.167 175.667,337.833 175,350.5C 174.056,351.263 173.556,352.263 173.5,353.5C 174.452,360.608 175.119,367.608 175.5,374.5C 174.094,383.637 173.094,392.637 172.5,401.5C 171.5,368.84 171.167,336.173 171.5,303.5 Z"/></g>
<g><path style="opacity:1" fill="#607e8a" d="M 97.5,303.5 C 92.8107,316.557 88.9773,329.89 86,343.5C 84.883,362.563 87.0496,381.229 92.5,399.5C 91.1411,398.993 90.1411,397.993 89.5,396.5C 88.6134,394.117 87.6134,391.784 86.5,389.5C 86.0066,384.375 85.0066,379.375 83.5,374.5C 83.2254,370.735 83.5587,366.902 84.5,363C 83.8333,360 83.1667,357 82.5,354C 83.4409,347.8 84.4409,341.633 85.5,335.5C 84.448,335.649 83.448,335.483 82.5,335C 85.0387,333.901 85.7054,332.234 84.5,330C 89.2119,323.28 91.8786,315.78 92.5,307.5C 93.1667,307.833 93.8333,308.167 94.5,308.5C 95.0014,306.345 96.0014,304.678 97.5,303.5 Z"/></g>
<g><path style="opacity:1" fill="#d9a678" d="M 303.5,386.5 C 303.955,390.957 304.955,395.29 306.5,399.5C 304.857,399.52 303.524,398.853 302.5,397.5C 301.289,398.274 301.289,399.107 302.5,400C 301.975,400.692 301.308,401.192 300.5,401.5C 298.87,400.102 297.036,399.102 295,398.5C 294.101,402.57 291.601,404.57 287.5,404.5C 287.657,405.873 287.49,407.207 287,408.5C 283.723,405.648 281.556,406.315 280.5,410.5C 278.263,409.551 275.929,408.884 273.5,408.5C 279.599,406.854 285.599,404.687 291.5,402C 292.167,400.667 292.833,399.333 293.5,398C 295.207,397.805 296.874,397.805 298.5,398C 297.55,395.568 297.55,393.068 298.5,390.5C 300.957,388.668 300.957,387.001 298.5,385.5C 298.167,384.833 297.833,384.167 297.5,383.5C 295.833,379.833 293.167,377.167 289.5,375.5C 287.853,372.527 285.853,369.86 283.5,367.5C 280.465,363.27 277.798,358.77 275.5,354C 266.883,350.246 258.55,350.746 250.5,355.5C 248.167,358.42 245.333,360.753 242,362.5C 239.897,365.614 238.397,368.947 237.5,372.5C 232.675,374.474 230.675,378.141 231.5,383.5C 231.667,385.5 231.833,387.5 232,389.5C 234.274,392.943 236.441,396.276 238.5,399.5C 240.789,401.448 243.122,403.448 245.5,405.5C 246.492,405.328 247.158,405.662 247.5,406.5C 246.504,406.414 245.671,406.748 245,407.5C 242.146,405.496 239.146,403.83 236,402.5C 235.403,399.321 233.737,396.987 231,395.5C 229.526,392.244 228.36,388.911 227.5,385.5C 228.944,382.389 229.778,379.056 230,375.5C 230.908,373.561 232.408,372.561 234.5,372.5C 234.34,370.801 234.506,369.134 235,367.5C 236.827,365.698 237.994,363.532 238.5,361C 242.38,358.881 245.713,356.048 248.5,352.5C 252.418,350.461 256.585,349.128 261,348.5C 267.554,349.517 274.054,350.85 280.5,352.5C 278.798,355.69 279.464,356.857 282.5,356C 283.207,358.543 284.54,360.709 286.5,362.5C 287.749,360.525 289.249,360.191 291,361.5C 291.837,363.351 292.671,365.184 293.5,367C 292.376,367.249 291.376,367.749 290.5,368.5C 292.113,369.427 293.779,370.261 295.5,371C 296.45,373.91 298.45,375.077 301.5,374.5C 299.855,377.61 300.355,380.276 303,382.5C 303.669,379.972 304.502,379.972 305.5,382.5C 304.147,383.524 303.48,384.857 303.5,386.5 Z"/></g>
<g><path style="opacity:1" fill="#c2653b" d="M 258.5,357.5 C 268.981,355.42 276.981,358.753 282.5,367.5C 279.222,366.191 276.222,364.358 273.5,362C 264.876,359.784 257.543,361.784 251.5,368C 253.058,368.21 254.391,368.71 255.5,369.5C 249.907,371.298 244.574,373.631 239.5,376.5C 240.833,374.167 242.167,371.833 243.5,369.5C 246.86,367.659 249.86,365.159 252.5,362C 253.448,361.517 254.448,361.351 255.5,361.5C 255.5,360.5 255.5,359.5 255.5,358.5C 256.791,358.737 257.791,358.404 258.5,357.5 Z"/></g>
<g><path style="opacity:1" fill="#ca7a4a" d="M 258.5,357.5 C 257.791,358.404 256.791,358.737 255.5,358.5C 255.5,359.5 255.5,360.5 255.5,361.5C 254.448,361.351 253.448,361.517 252.5,362C 249.86,365.159 246.86,367.659 243.5,369.5C 242.167,371.833 240.833,374.167 239.5,376.5C 238.5,377.833 237.5,379.167 236.5,380.5C 234.5,380.5 233.5,381.5 233.5,383.5C 232.861,382.903 232.528,382.07 232.5,381C 234.443,378.35 236.109,375.517 237.5,372.5C 240.484,372.213 241.817,370.546 241.5,367.5C 245.568,364.619 249.568,361.453 253.5,358C 255.134,357.506 256.801,357.34 258.5,357.5 Z"/></g>
<g><path style="opacity:1" fill="#ba4f2a" d="M 282.5,367.5 C 282.833,367.5 283.167,367.5 283.5,367.5C 285.853,369.86 287.853,372.527 289.5,375.5C 286.196,375.7 283.696,374.366 282,371.5C 281.235,371.57 280.735,371.903 280.5,372.5C 279.833,372.5 279.167,372.5 278.5,372.5C 278.5,372.167 278.5,371.833 278.5,371.5C 278.461,370.417 278.127,369.417 277.5,368.5C 275,368.167 272.5,367.833 270,367.5C 265.029,367.484 260.196,368.151 255.5,369.5C 254.391,368.71 253.058,368.21 251.5,368C 257.543,361.784 264.876,359.784 273.5,362C 276.222,364.358 279.222,366.191 282.5,367.5 Z"/></g>
<g><path style="opacity:1" fill="#d29769" d="M 283.5,367.5 C 283.167,367.5 282.833,367.5 282.5,367.5C 276.981,358.753 268.981,355.42 258.5,357.5C 256.801,357.34 255.134,357.506 253.5,358C 249.568,361.453 245.568,364.619 241.5,367.5C 241.817,370.546 240.484,372.213 237.5,372.5C 238.397,368.947 239.897,365.614 242,362.5C 245.333,360.753 248.167,358.42 250.5,355.5C 258.55,350.746 266.883,350.246 275.5,354C 277.798,358.77 280.465,363.27 283.5,367.5 Z"/></g>
<g><path style="opacity:1" fill="#040711" d="M 415.5,295.5 C 420.599,309.983 423.933,324.983 425.5,340.5C 426,360.977 422.667,380.644 415.5,399.5C 415.153,395.904 415.82,392.571 417.5,389.5C 416.788,387.038 417.121,384.538 418.5,382C 416.828,377.365 417.828,373.365 421.5,370C 420.707,368.915 420.04,367.748 419.5,366.5C 421.592,364.211 421.926,361.711 420.5,359C 421,358.5 421.5,358 422,357.5C 422.554,354.342 423.054,351.175 423.5,348C 420.581,330.028 417.914,312.528 415.5,295.5 Z"/></g>
<g><path style="opacity:1" fill="#a04327" d="M 278.5,371.5 C 272.158,371.334 265.825,371.5 259.5,372C 257.942,372.21 256.609,372.71 255.5,373.5C 251.685,374.581 248.018,375.914 244.5,377.5C 242.566,378.11 240.899,379.11 239.5,380.5C 238.5,380.5 237.5,380.5 236.5,380.5C 237.5,379.167 238.5,377.833 239.5,376.5C 244.574,373.631 249.907,371.298 255.5,369.5C 260.196,368.151 265.029,367.484 270,367.5C 272.5,367.833 275,368.167 277.5,368.5C 278.127,369.417 278.461,370.417 278.5,371.5 Z"/></g>
<g><path style="opacity:1" fill="#310a05" d="M 278.5,371.5 C 278.5,371.833 278.5,372.167 278.5,372.5C 280.127,374.63 281.96,376.63 284,378.5C 284.74,379.749 284.573,380.749 283.5,381.5C 283.179,379.952 282.179,379.285 280.5,379.5C 280.62,376.795 279.62,376.128 277.5,377.5C 275.511,375.165 273.178,374.498 270.5,375.5C 265.699,373.681 260.699,373.014 255.5,373.5C 256.609,372.71 257.942,372.21 259.5,372C 265.825,371.5 272.158,371.334 278.5,371.5 Z"/></g>
<g><path style="opacity:1" fill="#e57a51" d="M 289.5,375.5 C 293.167,377.167 295.833,379.833 297.5,383.5C 294.5,381.167 291.833,378.5 289.5,375.5 Z"/></g>
<g><path style="opacity:1" fill="#190501" d="M 255.5,373.5 C 260.699,373.014 265.699,373.681 270.5,375.5C 273.178,374.498 275.511,375.165 277.5,377.5C 279.62,376.128 280.62,376.795 280.5,379.5C 282.179,379.285 283.179,379.952 283.5,381.5C 270.829,381.667 258.162,381.5 245.5,381C 244.5,380.667 243.5,380.333 242.5,380C 243.381,379.292 244.047,378.458 244.5,377.5C 248.018,375.914 251.685,374.581 255.5,373.5 Z"/></g>
<g><path style="opacity:1" fill="#bf200a" d="M 289.5,375.5 C 291.833,378.5 294.5,381.167 297.5,383.5C 297.833,384.167 298.167,384.833 298.5,385.5C 297.5,385.5 296.5,385.5 295.5,385.5C 295.366,387.292 295.699,388.958 296.5,390.5C 295.5,392.167 294.167,393.5 292.5,394.5C 292.67,393.178 292.337,392.011 291.5,391C 286.923,389.969 282.923,388.136 279.5,385.5C 283.226,385.823 286.893,385.489 290.5,384.5C 289.812,383.145 288.812,382.145 287.5,381.5C 285.549,378.214 283.215,375.214 280.5,372.5C 280.735,371.903 281.235,371.57 282,371.5C 283.696,374.366 286.196,375.7 289.5,375.5 Z"/></g>
<g><path style="opacity:1" fill="#661006" d="M 236.5,380.5 C 237.5,380.5 238.5,380.5 239.5,380.5C 240.802,382.028 242.469,383.028 244.5,383.5C 241.5,383.5 238.5,383.5 235.5,383.5C 235.167,383.5 234.833,383.5 234.5,383.5C 234.167,383.5 233.833,383.5 233.5,383.5C 233.5,381.5 234.5,380.5 236.5,380.5 Z"/></g>
<g><path style="opacity:1" fill="#3a0504" d="M 278.5,372.5 C 279.167,372.5 279.833,372.5 280.5,372.5C 283.215,375.214 285.549,378.214 287.5,381.5C 273.539,383.483 259.206,384.15 244.5,383.5C 242.469,383.028 240.802,382.028 239.5,380.5C 240.899,379.11 242.566,378.11 244.5,377.5C 244.047,378.458 243.381,379.292 242.5,380C 243.5,380.333 244.5,380.667 245.5,381C 258.162,381.5 270.829,381.667 283.5,381.5C 284.573,380.749 284.74,379.749 284,378.5C 281.96,376.63 280.127,374.63 278.5,372.5 Z"/></g>
<g><path style="opacity:1" fill="#d6ad7f" d="M 227.5,385.5 C 228.36,388.911 229.526,392.244 231,395.5C 233.737,396.987 235.403,399.321 236,402.5C 239.146,403.83 242.146,405.496 245,407.5C 245.671,406.748 246.504,406.414 247.5,406.5C 248.708,407.234 250.041,407.567 251.5,407.5C 258.648,408.492 265.981,408.825 273.5,408.5C 275.929,408.884 278.263,409.551 280.5,410.5C 281.556,406.315 283.723,405.648 287,408.5C 287.49,407.207 287.657,405.873 287.5,404.5C 291.601,404.57 294.101,402.57 295,398.5C 297.036,399.102 298.87,400.102 300.5,401.5C 301.308,401.192 301.975,400.692 302.5,400C 301.289,399.107 301.289,398.274 302.5,397.5C 303.524,398.853 304.857,399.52 306.5,399.5C 304.955,395.29 303.955,390.957 303.5,386.5C 306.561,388.333 308.395,390.666 309,393.5C 310.309,391.109 311.309,391.109 312,393.5C 313,392.5 314,391.5 315,390.5C 314.848,393.447 314.681,396.447 314.5,399.5C 313.022,399.238 311.689,399.571 310.5,400.5C 311.695,403.724 313.029,406.891 314.5,410C 314.355,410.772 314.022,411.439 313.5,412C 315.709,413.691 317.542,413.524 319,411.5C 320.626,411.854 322.459,411.854 324.5,411.5C 323.392,409.305 323.559,407.305 325,405.5C 325.308,406.308 325.808,406.975 326.5,407.5C 329.19,405.807 331.19,403.473 332.5,400.5C 333.689,399.571 335.022,399.238 336.5,399.5C 335.002,408.836 330.668,416.503 323.5,422.5C 322.504,422.414 321.671,422.748 321,423.5C 320.193,419.551 319.693,419.551 319.5,423.5C 316.413,425.017 313.079,425.684 309.5,425.5C 309.813,422.753 309.48,420.086 308.5,417.5C 308.845,419.382 308.345,421.382 307,423.5C 305.513,424.155 304.347,425.155 303.5,426.5C 298.208,427.495 292.875,427.828 287.5,427.5C 287.5,429.5 287.5,431.5 287.5,433.5C 280.47,432.995 273.47,432.161 266.5,431C 263.423,428.144 259.756,426.978 255.5,427.5C 255.5,428.833 255.5,430.167 255.5,431.5C 253.167,431.5 250.833,431.5 248.5,431.5C 248.33,430.178 248.663,429.011 249.5,428C 247.963,426.89 247.297,425.39 247.5,423.5C 244.477,423.483 241.81,422.483 239.5,420.5C 232.858,419.669 226.191,419.169 219.5,419C 218.584,418.626 217.75,418.126 217,417.5C 216.141,414.341 214.975,411.341 213.5,408.5C 210.187,407.842 207.187,406.509 204.5,404.5C 200.18,405.112 195.847,405.778 191.5,406.5C 190.917,408.002 190.084,409.335 189,410.5C 186.5,408.667 184.333,406.5 182.5,404C 181.552,403.517 180.552,403.351 179.5,403.5C 178.033,404.292 176.7,404.292 175.5,403.5C 177.008,401.493 178.842,399.826 181,398.5C 181.483,397.552 181.649,396.552 181.5,395.5C 180.448,395.649 179.448,395.483 178.5,395C 180.363,392.636 182.029,390.136 183.5,387.5C 182.873,386.583 182.539,385.583 182.5,384.5C 185.391,383.597 188.391,383.264 191.5,383.5C 191.5,384.5 191.5,385.5 191.5,386.5C 196.479,388.46 201.479,390.46 206.5,392.5C 207.386,391.675 207.719,390.675 207.5,389.5C 213.093,389.193 218.593,389.527 224,390.5C 224.902,388.569 226.069,386.903 227.5,385.5 Z"/></g>
<g><path style="opacity:1" fill="#b20e04" d="M 235.5,383.5 C 238.5,383.5 241.5,383.5 244.5,383.5C 256.167,384.167 267.833,384.833 279.5,385.5C 265.99,385.171 252.656,385.504 239.5,386.5C 238.391,386.443 237.391,386.11 236.5,385.5C 236.167,384.833 235.833,384.167 235.5,383.5 Z"/></g>
<g><path style="opacity:1" fill="#870100" d="M 287.5,381.5 C 288.812,382.145 289.812,383.145 290.5,384.5C 286.893,385.489 283.226,385.823 279.5,385.5C 267.833,384.833 256.167,384.167 244.5,383.5C 259.206,384.15 273.539,383.483 287.5,381.5 Z"/></g>
<g><path style="opacity:1" fill="#ea1b03" d="M 279.5,385.5 C 282.923,388.136 286.923,389.969 291.5,391C 292.337,392.011 292.67,393.178 292.5,394.5C 291.167,396.167 289.833,397.833 288.5,399.5C 286.784,401.025 284.784,402.025 282.5,402.5C 271.321,402.828 260.321,402.495 249.5,401.5C 260.505,401.667 271.505,401.5 282.5,401C 283.167,400.333 283.833,399.667 284.5,399C 284.5,397.333 284.5,395.667 284.5,394C 281.019,391.105 277.519,390.938 274,393.5C 272.5,392.333 271,391.167 269.5,390C 261.829,388.728 254.663,389.895 248,393.5C 246.667,390.833 245.333,390.833 244,393.5C 243.51,394.793 243.343,396.127 243.5,397.5C 245.989,397.241 247.656,398.241 248.5,400.5C 246.418,400.528 244.584,399.861 243,398.5C 241.936,394.406 240.77,390.406 239.5,386.5C 252.656,385.504 265.99,385.171 279.5,385.5 Z"/></g>
<g><path style="opacity:1" fill="#e19764" d="M 237.5,372.5 C 236.109,375.517 234.443,378.35 232.5,381C 232.528,382.07 232.861,382.903 233.5,383.5C 233.833,383.5 234.167,383.5 234.5,383.5C 235.006,389.057 236.34,394.39 238.5,399.5C 236.441,396.276 234.274,392.943 232,389.5C 231.833,387.5 231.667,385.5 231.5,383.5C 230.675,378.141 232.675,374.474 237.5,372.5 Z"/></g>
<g><path style="opacity:1" fill="#841d0c" d="M 298.5,385.5 C 300.957,387.001 300.957,388.668 298.5,390.5C 298.167,390.5 297.833,390.5 297.5,390.5C 297.167,390.5 296.833,390.5 296.5,390.5C 295.699,388.958 295.366,387.292 295.5,385.5C 296.5,385.5 297.5,385.5 298.5,385.5 Z"/></g>
<g><path style="opacity:1" fill="#fb1b01" d="M 249.5,401.5 C 248.833,401.5 248.5,401.167 248.5,400.5C 247.656,398.241 245.989,397.241 243.5,397.5C 243.343,396.127 243.51,394.793 244,393.5C 245.333,390.833 246.667,390.833 248,393.5C 254.663,389.895 261.829,388.728 269.5,390C 271,391.167 272.5,392.333 274,393.5C 277.519,390.938 281.019,391.105 284.5,394C 284.5,395.667 284.5,397.333 284.5,399C 283.833,399.667 283.167,400.333 282.5,401C 271.505,401.5 260.505,401.667 249.5,401.5 Z"/></g>
<g><path style="opacity:1" fill="#d79767" d="M 297.5,390.5 C 297.833,390.5 298.167,390.5 298.5,390.5C 297.55,393.068 297.55,395.568 298.5,398C 296.874,397.805 295.207,397.805 293.5,398C 292.833,399.333 292.167,400.667 291.5,402C 285.599,404.687 279.599,406.854 273.5,408.5C 265.981,408.825 258.648,408.492 251.5,407.5C 258.354,407.824 265.021,407.491 271.5,406.5C 274.829,406.785 277.829,406.118 280.5,404.5C 281.5,404.167 282.167,403.5 282.5,402.5C 284.784,402.025 286.784,401.025 288.5,399.5C 292.5,397.5 295.5,394.5 297.5,390.5 Z"/></g>
<g><path style="opacity:1" fill="#dc7946" d="M 234.5,383.5 C 234.833,383.5 235.167,383.5 235.5,383.5C 235.833,384.167 236.167,384.833 236.5,385.5C 237.112,389.696 238.279,393.696 240,397.5C 241.617,399.763 243.45,401.763 245.5,403.5C 245.5,404.167 245.5,404.833 245.5,405.5C 243.122,403.448 240.789,401.448 238.5,399.5C 236.34,394.39 235.006,389.057 234.5,383.5 Z"/></g>
<g><path style="opacity:1" fill="#ee7d47" d="M 296.5,390.5 C 296.833,390.5 297.167,390.5 297.5,390.5C 295.5,394.5 292.5,397.5 288.5,399.5C 289.833,397.833 291.167,396.167 292.5,394.5C 294.167,393.5 295.5,392.167 296.5,390.5 Z"/></g>
<g><path style="opacity:1" fill="#618192" d="M 92.5,399.5 C 93.933,402.282 95.0997,405.282 96,408.5C 98.8002,419.372 101.134,430.372 103,441.5C 105.548,450.041 108.548,458.375 112,466.5C 114.247,467.98 116.747,468.647 119.5,468.5C 124.171,468.037 128.837,467.537 133.5,467C 150.76,460.089 162.927,465.255 170,482.5C 170.479,492.917 167.979,502.584 162.5,511.5C 153.5,511.5 144.5,511.5 135.5,511.5C 139.898,509.942 144.564,508.775 149.5,508C 144.293,507.241 139.126,507.408 134,508.5C 131.112,508.078 128.445,507.078 126,505.5C 124.333,506.167 122.667,506.833 121,507.5C 114.166,504.896 107.333,504.896 100.5,507.5C 95.715,505.18 95.715,503.514 100.5,502.5C 107.945,501.946 115.278,500.779 122.5,499C 123.337,497.989 123.67,496.822 123.5,495.5C 118.62,494.174 113.62,493.34 108.5,493C 103.072,490.394 97.4053,488.56 91.5,487.5C 91.6495,486.448 91.4828,485.448 91,484.5C 86.7044,483.288 83.8711,480.621 82.5,476.5C 81.325,476.719 80.325,476.386 79.5,475.5C 77.8595,472.278 75.1928,470.944 71.5,471.5C 71.6646,468.482 71.498,465.482 71,462.5C 68.6966,461.256 68.1966,459.589 69.5,457.5C 67.9706,455.812 66.1373,454.479 64,453.5C 63.5003,446.174 63.3337,438.841 63.5,431.5C 65.1667,431.5 66.8333,431.5 68.5,431.5C 69.0104,424.192 72.6771,419.525 79.5,417.5C 79.1707,411.463 79.5041,405.463 80.5,399.5C 81.4853,401.772 82.3187,404.105 83,406.5C 84.0726,404.453 85.2393,402.453 86.5,400.5C 85.1823,398.088 85.349,395.754 87,393.5C 88.3184,399.442 89.8184,405.275 91.5,411C 90.3463,411.914 90.513,412.747 92,413.5C 93.0463,412.228 93.5463,410.728 93.5,409C 92.8926,405.857 92.5592,402.69 92.5,399.5 Z"/></g>
<g><path style="opacity:1" fill="#c92a07" d="M 236.5,385.5 C 237.391,386.11 238.391,386.443 239.5,386.5C 240.77,390.406 241.936,394.406 243,398.5C 244.584,399.861 246.418,400.528 248.5,400.5C 248.5,401.167 248.833,401.5 249.5,401.5C 260.321,402.495 271.321,402.828 282.5,402.5C 282.167,403.5 281.5,404.167 280.5,404.5C 270.833,404.5 261.167,404.5 251.5,404.5C 249.435,404.483 247.435,404.15 245.5,403.5C 243.45,401.763 241.617,399.763 240,397.5C 238.279,393.696 237.112,389.696 236.5,385.5 Z"/></g>
<g><path style="opacity:1" fill="#9b2908" d="M 251.5,404.5 C 261.167,404.5 270.833,404.5 280.5,404.5C 277.829,406.118 274.829,406.785 271.5,406.5C 264.646,406.265 257.979,405.598 251.5,404.5 Z"/></g>
<g><path style="opacity:1" fill="#8a3d17" d="M 245.5,403.5 C 247.435,404.15 249.435,404.483 251.5,404.5C 257.979,405.598 264.646,406.265 271.5,406.5C 265.021,407.491 258.354,407.824 251.5,407.5C 250.041,407.567 248.708,407.234 247.5,406.5C 247.158,405.662 246.492,405.328 245.5,405.5C 245.5,404.833 245.5,404.167 245.5,403.5 Z"/></g>
<g><path style="opacity:1" fill="#d3ae81" d="M 179.5,403.5 C 180.552,403.351 181.552,403.517 182.5,404C 184.333,406.5 186.5,408.667 189,410.5C 190.084,409.335 190.917,408.002 191.5,406.5C 195.847,405.778 200.18,405.112 204.5,404.5C 207.187,406.509 210.187,407.842 213.5,408.5C 214.975,411.341 216.141,414.341 217,417.5C 217.75,418.126 218.584,418.626 219.5,419C 226.191,419.169 232.858,419.669 239.5,420.5C 241.81,422.483 244.477,423.483 247.5,423.5C 247.297,425.39 247.963,426.89 249.5,428C 248.663,429.011 248.33,430.178 248.5,431.5C 250.833,431.5 253.167,431.5 255.5,431.5C 255.5,430.167 255.5,428.833 255.5,427.5C 259.756,426.978 263.423,428.144 266.5,431C 273.47,432.161 280.47,432.995 287.5,433.5C 287.5,431.5 287.5,429.5 287.5,427.5C 292.875,427.828 298.208,427.495 303.5,426.5C 304.347,425.155 305.513,424.155 307,423.5C 308.345,421.382 308.845,419.382 308.5,417.5C 309.48,420.086 309.813,422.753 309.5,425.5C 313.079,425.684 316.413,425.017 319.5,423.5C 319.693,419.551 320.193,419.551 321,423.5C 321.671,422.748 322.504,422.414 323.5,422.5C 318.921,427.461 313.587,431.461 307.5,434.5C 305.289,433.963 303.289,432.963 301.5,431.5C 295.12,435.942 288.454,437.442 281.5,436C 281.167,436.333 280.833,436.667 280.5,437C 282.556,437.311 284.556,437.811 286.5,438.5C 287.521,439.002 287.688,439.668 287,440.5C 281.218,440.063 275.551,440.063 270,440.5C 265.969,437.935 261.969,437.935 258,440.5C 254.48,440.051 250.813,440.051 247,440.5C 241.84,440.917 237.007,439.917 232.5,437.5C 230.084,437.875 227.75,438.541 225.5,439.5C 221.922,437.697 218.256,436.364 214.5,435.5C 206.324,431.654 198.657,426.988 191.5,421.5C 191.246,418.986 190.413,416.652 189,414.5C 187.951,415.517 186.784,415.684 185.5,415C 187.26,414.035 187.594,412.868 186.5,411.5C 185.476,412.853 184.143,413.52 182.5,413.5C 181.647,410.637 179.98,408.304 177.5,406.5C 178.612,405.735 179.279,404.735 179.5,403.5 Z"/></g>
<g><path style="opacity:1" fill="#c9a278" d="M 224.5,443.5 C 223.833,445.819 223.666,448.153 224,450.5C 227.694,453.029 230.86,456.029 233.5,459.5C 233.5,460.167 233.5,460.833 233.5,461.5C 231.534,460.454 229.534,459.454 227.5,458.5C 226.548,456.955 226.215,455.288 226.5,453.5C 225.448,453.649 224.448,453.483 223.5,453C 219.783,449.615 215.783,446.615 211.5,444C 209.231,443.242 207.064,443.409 205,444.5C 203.325,443.405 202.158,441.905 201.5,440C 199.479,439.86 197.645,439.693 196,439.5C 195.25,446.585 195.75,453.585 197.5,460.5C 196.489,462.347 195.489,464.18 194.5,466C 197.167,469.667 197.167,473.333 194.5,477C 197.167,479.667 197.167,482.333 194.5,485C 196.101,488.267 196.934,491.767 197,495.5C 197.667,496.167 198.333,496.833 199,497.5C 199.333,500.167 199.667,502.833 200,505.5C 202.333,506.167 204.667,506.833 207,507.5C 213.59,504.327 220.423,503.994 227.5,506.5C 233.963,505.449 240.296,505.449 246.5,506.5C 247.192,505.975 247.692,505.308 248,504.5C 248.333,504.833 248.667,505.167 249,505.5C 250.266,501.502 251.099,497.336 251.5,493C 250.359,489.671 250.359,486.505 251.5,483.5C 254.224,492.58 255.224,501.914 254.5,511.5C 233.167,511.5 211.833,511.5 190.5,511.5C 190.5,483.833 190.5,456.167 190.5,428.5C 190.215,426.712 190.548,425.045 191.5,423.5C 201.729,431.447 212.729,438.114 224.5,443.5 Z"/></g>
<g><path style="opacity:1" fill="#c9a885" d="M 307.5,434.5 C 289.148,445.971 269.148,449.971 247.5,446.5C 241.253,445.776 234.92,444.776 228.5,443.5C 223.833,440.833 219.167,438.167 214.5,435.5C 218.256,436.364 221.922,437.697 225.5,439.5C 227.75,438.541 230.084,437.875 232.5,437.5C 237.007,439.917 241.84,440.917 247,440.5C 250.813,440.051 254.48,440.051 258,440.5C 261.969,437.935 265.969,437.935 270,440.5C 275.551,440.063 281.218,440.063 287,440.5C 287.688,439.668 287.521,439.002 286.5,438.5C 284.556,437.811 282.556,437.311 280.5,437C 280.833,436.667 281.167,436.333 281.5,436C 288.454,437.442 295.12,435.942 301.5,431.5C 303.289,432.963 305.289,433.963 307.5,434.5 Z"/></g>
<g><path style="opacity:1" fill="#826442" d="M 189.5,420.5 C 190.167,420.833 190.833,421.167 191.5,421.5C 198.657,426.988 206.324,431.654 214.5,435.5C 219.167,438.167 223.833,440.833 228.5,443.5C 228.833,444.833 229.167,446.167 229.5,447.5C 228.147,445.817 226.48,444.484 224.5,443.5C 212.729,438.114 201.729,431.447 191.5,423.5C 190.548,425.045 190.215,426.712 190.5,428.5C 189.527,426.052 189.194,423.385 189.5,420.5 Z"/></g>
<g><path style="opacity:1" fill="#d5a977" d="M 233.5,461.5 C 236.297,465.288 239.963,467.954 244.5,469.5C 245.167,471.5 246.5,472.833 248.5,473.5C 248.393,475.903 249.393,477.736 251.5,479C 250.587,480.414 250.587,481.914 251.5,483.5C 250.359,486.505 250.359,489.671 251.5,493C 251.099,497.336 250.266,501.502 249,505.5C 248.667,505.167 248.333,504.833 248,504.5C 247.692,505.308 247.192,505.975 246.5,506.5C 240.296,505.449 233.963,505.449 227.5,506.5C 220.423,503.994 213.59,504.327 207,507.5C 204.667,506.833 202.333,506.167 200,505.5C 199.667,502.833 199.333,500.167 199,497.5C 198.333,496.833 197.667,496.167 197,495.5C 196.934,491.767 196.101,488.267 194.5,485C 197.167,482.333 197.167,479.667 194.5,477C 197.167,473.333 197.167,469.667 194.5,466C 195.489,464.18 196.489,462.347 197.5,460.5C 195.75,453.585 195.25,446.585 196,439.5C 197.645,439.693 199.479,439.86 201.5,440C 202.158,441.905 203.325,443.405 205,444.5C 207.064,443.409 209.231,443.242 211.5,444C 215.783,446.615 219.783,449.615 223.5,453C 224.448,453.483 225.448,453.649 226.5,453.5C 226.215,455.288 226.548,456.955 227.5,458.5C 229.534,459.454 231.534,460.454 233.5,461.5 Z"/></g>
<g><path style="opacity:1" fill="#b28f6a" d="M 224.5,443.5 C 226.48,444.484 228.147,445.817 229.5,447.5C 230.1,451.366 231.434,455.033 233.5,458.5C 233.5,458.833 233.5,459.167 233.5,459.5C 230.86,456.029 227.694,453.029 224,450.5C 223.666,448.153 223.833,445.819 224.5,443.5 Z"/></g>
<g><path style="opacity:1" fill="#3f301e" d="M 228.5,443.5 C 234.92,444.776 241.253,445.776 247.5,446.5C 242.453,446.337 237.453,446.671 232.5,447.5C 234.568,450.026 235.901,453.026 236.5,456.5C 239.219,458.219 241.219,460.553 242.5,463.5C 243.325,464.386 244.325,464.719 245.5,464.5C 246.983,468.994 249.983,472.328 254.5,474.5C 255.386,475.325 255.719,476.325 255.5,477.5C 253.004,476.42 250.67,475.086 248.5,473.5C 246.5,472.833 245.167,471.5 244.5,469.5C 243.657,467.827 242.324,466.66 240.5,466C 241.451,465.282 241.617,464.449 241,463.5C 238.1,462.263 235.6,460.596 233.5,458.5C 231.434,455.033 230.1,451.366 229.5,447.5C 229.167,446.167 228.833,444.833 228.5,443.5 Z"/></g>
<g><path style="opacity:1" fill="#795b3c" d="M 233.5,458.5 C 235.6,460.596 238.1,462.263 241,463.5C 241.617,464.449 241.451,465.282 240.5,466C 242.324,466.66 243.657,467.827 244.5,469.5C 239.963,467.954 236.297,465.288 233.5,461.5C 233.5,460.833 233.5,460.167 233.5,459.5C 233.5,459.167 233.5,458.833 233.5,458.5 Z"/></g>
<g><path style="opacity:1" fill="#a07e5a" d="M 248.5,473.5 C 250.67,475.086 253.004,476.42 255.5,477.5C 255.5,477.833 255.5,478.167 255.5,478.5C 255.5,489.5 255.5,500.5 255.5,511.5C 255.167,511.5 254.833,511.5 254.5,511.5C 255.224,501.914 254.224,492.58 251.5,483.5C 250.587,481.914 250.587,480.414 251.5,479C 249.393,477.736 248.393,475.903 248.5,473.5 Z"/></g>
<g><path style="opacity:1" fill="#475a66" d="M 280.5,481.5 C 280.238,483.564 279.071,484.897 277,485.5C 276.5,494.16 276.334,502.827 276.5,511.5C 275.833,511.5 275.167,511.5 274.5,511.5C 275.325,501.857 275.658,492.191 275.5,482.5C 277.292,482.634 278.958,482.301 280.5,481.5 Z"/></g>
<g><path style="opacity:1" fill="#564432" d="M 255.5,478.5 C 256.117,478.611 256.617,478.944 257,479.5C 257.212,490.212 257.712,500.879 258.5,511.5C 257.5,511.5 256.5,511.5 255.5,511.5C 255.5,500.5 255.5,489.5 255.5,478.5 Z"/></g>
</svg>
