<?xml version="1.0" encoding="UTF-8"?>
<!DOCTYPE svg PUBLIC "-//W3C//DTD SVG 1.1//EN" "http://www.w3.org/Graphics/SVG/1.1/DTD/svg11.dtd">
<svg xmlns="http://www.w3.org/2000/svg" version="1.1" width="512px" height="512px" style="shape-rendering:geometricPrecision; text-rendering:geometricPrecision; image-rendering:optimizeQuality; fill-rule:evenodd; clip-rule:evenodd" xmlns:xlink="http://www.w3.org/1999/xlink">
<g><path style="opacity:1" fill="#618497" d="M -0.5,-0.5 C 170.167,-0.5 340.833,-0.5 511.5,-0.5C 511.5,0.5 511.5,1.5 511.5,2.5C 508.93,2.23363 506.096,1.90029 503,1.5C 500.13,1.75709 497.63,2.59042 495.5,4C 490.136,4.82947 484.802,4.66281 479.5,3.5C 482.107,2.68156 484.774,2.18156 487.5,2C 485.863,1.39884 484.197,0.898842 482.5,0.5C 474.829,1.80954 467.163,2.14287 459.5,1.5C 458.167,1.83333 456.833,2.16667 455.5,2.5C 457.343,2.75524 459.343,2.92191 461.5,3C 457.26,7.23548 457.927,10.7355 463.5,13.5C 452.854,14.4987 442.187,14.832 431.5,14.5C 431.328,12.5082 431.995,10.8415 433.5,9.5C 438.12,8.50671 442.786,8.17338 447.5,8.5C 447.238,9.97782 447.571,11.3112 448.5,12.5C 453.982,8.56193 453.648,5.06193 447.5,2C 442.177,1.50065 436.844,1.33398 431.5,1.5C 431.5,2.5 431.5,3.5 431.5,4.5C 428.784,4.3215 426.117,3.8215 423.5,3C 425.167,2.66667 426.833,2.33333 428.5,2C 411.656,1.75164 394.822,1.25164 378,0.5C 374.448,0.641041 370.948,1.14104 367.5,2C 380.857,2.25364 394.19,2.9203 407.5,4C 385.036,4.41849 362.702,4.25182 340.5,3.5C 337.96,4.0199 335.46,4.68657 333,5.5C 327.845,4.84503 327.511,3.84503 332,2.5C 333.107,2.58524 334.107,2.91858 335,3.5C 340.417,2.69113 345.917,2.19113 351.5,2C 347.5,1.5 343.5,1 339.5,0.5C 263.33,1.33302 187.83,1.33302 113,0.5C 109.813,1.04464 106.646,1.71131 103.5,2.5C 106.179,2.09252 108.846,2.59252 111.5,4C 106.136,4.82947 100.802,4.66281 95.5,3.5C 96.7287,2.71893 98.062,2.21893 99.5,2C 96.3333,1.83333 93.1667,1.66667 90,1.5C 70.7,1.79528 51.3667,2.12862 32,2.5C 24.0437,1.80347 16.0437,1.1368 8,0.5C 6.77531,0.862286 5.60864,1.36229 4.5,2C 5.42797,2.38789 6.09464,3.05456 6.5,4C 3.61482,6.88621 3.11482,10.0529 5,13.5C 5.49949,19.4908 5.66615,25.4908 5.5,31.5C 8.83333,31.5 12.1667,31.5 15.5,31.5C 15.5,36.8333 15.5,42.1667 15.5,47.5C 12.8333,47.5 10.1667,47.5 7.5,47.5C 7.5,52.8333 7.5,58.1667 7.5,63.5C 8.67504,63.281 9.67504,63.6143 10.5,64.5C 8.5,69.1667 6.5,73.8333 4.5,78.5C 5.315,91.4547 5.815,104.455 6,117.5C 7.67833,118.682 7.51166,119.848 5.5,121C 5.44931,133.134 6.11598,145.301 7.5,157.5C 7.33333,162.167 7.16667,166.833 7,171.5C 6.66667,170.167 6.33333,168.833 6,167.5C 5.33333,171.5 5.33333,175.5 6,179.5C 6.33333,179.167 6.66667,178.833 7,178.5C 7.16667,179.333 7.33333,180.167 7.5,181C 6.16667,190.667 4.83333,200.333 3.5,210C 4.75326,214.013 4.75326,218.013 3.5,222C 4.80693,230.17 6.14026,237.003 7.5,242.5C 7.38413,265.585 7.38413,288.585 7.5,311.5C 6.83333,316.833 6.16667,322.167 5.5,327.5C 7.11244,383.999 8.11244,440.499 8.5,497C 7.14593,501.524 4.14593,504.024 -0.5,504.5C -0.5,336.167 -0.5,167.833 -0.5,-0.5 Z"/></g>
<g><path style="opacity:1" fill="#648597" d="M 511.5,2.5 C 511.5,97.5 511.5,192.5 511.5,287.5C 510.167,287.5 508.833,287.5 507.5,287.5C 507.667,301.837 507.5,316.171 507,330.5C 506.751,329.376 506.251,328.376 505.5,327.5C 505.613,329.172 505.279,331.006 504.5,333C 502.5,333.333 500.5,333.667 498.5,334C 497.167,334.667 497.167,335.333 498.5,336C 496.676,338.081 495.009,337.915 493.5,335.5C 493.167,336.167 492.833,336.833 492.5,337.5C 493.531,339.382 494.365,341.382 495,343.5C 497.011,341.068 498.511,341.568 499.5,345C 498.615,347.157 496.948,347.99 494.5,347.5C 494.551,349.57 493.885,351.403 492.5,353C 492.862,354.225 493.362,355.391 494,356.5C 494.741,357.641 495.575,357.641 496.5,356.5C 497.452,354.955 497.785,353.288 497.5,351.5C 500.33,351.694 502.996,352.361 505.5,353.5C 505.312,355.103 505.812,356.437 507,357.5C 507.667,360.833 507.667,364.167 507,367.5C 506.667,364.833 506.333,362.167 506,359.5C 502.744,355.538 499.577,355.538 496.5,359.5C 495.52,362.086 495.187,364.753 495.5,367.5C 498.33,367.306 500.996,366.639 503.5,365.5C 503.343,364.127 503.51,362.793 504,361.5C 504.236,363.764 504.736,365.931 505.5,368C 504.126,371.41 503.459,371.243 503.5,367.5C 502.325,367.281 501.325,367.614 500.5,368.5C 499.833,370.5 499.167,372.5 498.5,374.5C 497.675,375.386 496.675,375.719 495.5,375.5C 495.5,377.167 495.5,378.833 495.5,380.5C 498.518,380.335 501.518,380.502 504.5,381C 505.357,381.689 506.023,382.522 506.5,383.5C 505.058,386.05 503.892,388.716 503,391.5C 502.057,388.891 500.39,386.891 498,385.5C 496.842,385.998 496.009,386.831 495.5,388C 496.535,388.253 497.535,389.086 498.5,390.5C 497.147,391.685 495.98,393.019 495,394.5C 494.517,393.552 494.351,392.552 494.5,391.5C 493.325,391.281 492.325,391.614 491.5,392.5C 488.294,398.042 486.627,404.042 486.5,410.5C 484.833,411.5 483.5,412.833 482.5,414.5C 484.532,417.183 487.199,418.849 490.5,419.5C 487.802,420.669 485.135,421.836 482.5,423C 483.793,423.49 485.127,423.657 486.5,423.5C 487.586,427.178 487.586,430.845 486.5,434.5C 485.186,433.687 484.019,432.687 483,431.5C 481.835,434.814 483.002,436.814 486.5,437.5C 487.842,435.995 489.508,435.328 491.5,435.5C 491.714,437.144 491.38,438.644 490.5,440C 492.205,443.25 493.705,443.084 495,439.5C 495.374,440.416 495.874,441.25 496.5,442C 498.384,442.216 500.051,442.883 501.5,444C 500.13,445.441 499.13,447.108 498.5,449C 497.552,449.483 496.552,449.649 495.5,449.5C 495.657,448.127 495.49,446.793 495,445.5C 493.951,447.107 492.451,447.773 490.5,447.5C 490.872,450.022 490.039,452.022 488,453.5C 487.808,451.423 487.308,449.423 486.5,447.5C 483.646,450.188 480.646,452.688 477.5,455C 478.167,455.333 478.833,455.667 479.5,456C 476.8,456.767 474.3,457.933 472,459.5C 471.501,455.514 471.334,451.514 471.5,447.5C 468.833,447.5 466.167,447.5 463.5,447.5C 463.5,444.833 463.5,442.167 463.5,439.5C 460.534,439.89 457.868,439.223 455.5,437.5C 453.167,440.167 450.833,440.167 448.5,437.5C 445.047,439.196 442.047,438.696 439.5,436C 440.328,435.085 441.328,434.419 442.5,434C 438.719,430.812 438.719,427.479 442.5,424C 441.833,423.667 441.167,423.333 440.5,423C 443.335,421.56 443.835,419.727 442,417.5C 441.586,417.957 441.086,418.291 440.5,418.5C 439.571,417.311 439.238,415.978 439.5,414.5C 450.127,413.649 450.127,412.483 439.5,411C 441.638,408.629 444.138,406.796 447,405.5C 447.498,402.183 447.665,398.85 447.5,395.5C 454.178,394.467 457.178,390.467 456.5,383.5C 453.5,383.5 450.5,383.5 447.5,383.5C 447.5,346.167 447.5,308.833 447.5,271.5C 441.794,271.829 436.128,271.495 430.5,270.5C 426,266.167 421.5,261.833 417,257.5C 415.646,253.637 415.146,249.637 415.5,245.5C 411.359,245.696 409.025,243.696 408.5,239.5C 407.501,228.854 407.168,218.187 407.5,207.5C 403.116,207.174 398.783,207.508 394.5,208.5C 395.436,209.974 396.77,210.974 398.5,211.5C 399.833,213.5 399.833,215.5 398.5,217.5C 394.672,218.578 391.339,220.411 388.5,223C 389.793,223.49 391.127,223.657 392.5,223.5C 392.889,226.946 393.722,230.279 395,233.5C 396.11,235.037 397.61,235.703 399.5,235.5C 399.5,240.167 399.5,244.833 399.5,249.5C 403.641,249.304 405.975,251.304 406.5,255.5C 407.495,260.792 407.828,266.125 407.5,271.5C 408.5,271.5 409.5,271.5 410.5,271.5C 410.489,273.547 410.156,275.547 409.5,277.5C 411.796,286.052 413.463,294.718 414.5,303.5C 413.5,303.5 412.5,303.5 411.5,303.5C 412.183,308.719 413.183,313.885 414.5,319C 413.052,331.125 412.385,343.292 412.5,355.5C 408.335,355.41 406.002,357.41 405.5,361.5C 404.351,361.209 403.684,360.376 403.5,359C 404.492,354.875 405.159,350.709 405.5,346.5C 405.5,345.833 405.5,345.167 405.5,344.5C 406.659,333.674 406.826,322.674 406,311.5C 405.043,300.988 403.376,290.655 401,280.5C 400.617,279.944 400.117,279.611 399.5,279.5C 395.399,268.553 391.066,257.553 386.5,246.5C 385.362,241.909 384.529,237.243 384,232.5C 383.832,211.329 383.332,190.329 382.5,169.5C 379.898,156.847 375.064,145.181 368,134.5C 366.629,132.959 365.129,131.625 363.5,130.5C 363.573,128.973 362.906,127.973 361.5,127.5C 362.196,123.977 360.529,121.81 356.5,121C 357.833,119.667 357.833,118.333 356.5,117C 349.338,111.336 342.338,105.502 335.5,99.5C 333.023,97.6664 330.357,96.333 327.5,95.5C 327.376,93.4184 326.376,91.9184 324.5,91C 317.754,88.128 310.754,86.128 303.5,85C 273.34,84.9045 243.173,84.0712 213,82.5C 209.5,82.6667 206,82.8333 202.5,83C 206.025,83.1787 209.359,83.6787 212.5,84.5C 203.167,84.5 193.833,84.5 184.5,84.5C 179.126,84.523 173.793,85.023 168.5,86C 167.874,86.7504 167.374,87.5838 167,88.5C 166.667,88.1667 166.333,87.8333 166,87.5C 165.506,89.1341 165.34,90.8008 165.5,92.5C 164.448,92.3505 163.448,92.5172 162.5,93C 161.167,93.6667 161.167,94.3333 162.5,95C 160.924,95.4396 159.59,96.273 158.5,97.5C 157.522,97.0233 156.689,96.3567 156,95.5C 152.027,95.6376 148.027,96.6376 144,98.5C 142.893,98.4148 141.893,98.0814 141,97.5C 138.04,100.613 135.206,103.78 132.5,107C 130.953,107.333 129.62,106.833 128.5,105.5C 125.573,106.801 122.573,107.801 119.5,108.5C 117.346,112.133 116.013,116.133 115.5,120.5C 111.896,118.977 108.73,119.643 106,122.5C 104.762,125.926 105.929,127.592 109.5,127.5C 109.692,130.809 108.359,133.309 105.5,135C 106.517,136.049 106.684,137.216 106,138.5C 102.582,141.933 99.9157,145.933 98,150.5C 95.9587,152.65 93.4587,153.65 90.5,153.5C 90.7989,155.604 90.4656,157.604 89.5,159.5C 88.0348,161.599 86.7015,163.766 85.5,166C 86.2961,167.092 86.9628,168.259 87.5,169.5C 86.8444,171.453 86.5111,173.453 86.5,175.5C 85.5,175.5 84.5,175.5 83.5,175.5C 83.719,174.325 83.3857,173.325 82.5,172.5C 81.1801,174.651 79.6801,176.651 78,178.5C 78.4424,180.876 79.609,183.043 81.5,185C 79.5485,188.064 77.2152,190.731 74.5,193C 76.5291,195.281 76.8624,197.781 75.5,200.5C 77.0976,208.094 78.0976,215.76 78.5,223.5C 77.5,223.5 76.5,223.5 75.5,223.5C 75.9491,226.29 75.9491,228.956 75.5,231.5C 74.8524,229.851 73.8524,228.518 72.5,227.5C 71.7492,228.376 71.2492,229.376 71,230.5C 70,229.833 69,229.167 68,228.5C 66.9313,232.345 65.4313,236.012 63.5,239.5C 63.5,244.833 63.5,250.167 63.5,255.5C 62.1667,255.5 60.8333,255.5 59.5,255.5C 60.0134,258.86 61.3467,261.86 63.5,264.5C 59.9565,269.154 58.6231,274.154 59.5,279.5C 58.5,279.5 57.5,279.5 56.5,279.5C 56.6641,282.187 56.4974,284.854 56,287.5C 55.4556,282.482 54.2889,282.482 52.5,287.5C 51.1502,288.95 49.4835,289.617 47.5,289.5C 47.628,291.655 47.128,293.655 46,295.5C 44.9563,294.377 44.2896,293.044 44,291.5C 43.8038,293.286 42.9705,294.619 41.5,295.5C 40.2515,292.494 40.2515,289.494 41.5,286.5C 41.1924,285.692 40.6924,285.025 40,284.5C 38.3022,286.266 36.9689,288.266 36,290.5C 34.8419,290.002 34.0085,289.169 33.5,288C 34.1667,286.667 34.8333,285.333 35.5,284C 33.6505,280.823 31.8172,277.657 30,274.5C 29.2506,273.365 29.4173,272.365 30.5,271.5C 31.3857,272.325 31.719,273.325 31.5,274.5C 34.2257,274.736 36.559,273.903 38.5,272C 37.287,269.313 36.6203,266.48 36.5,263.5C 35.5,263.5 34.5,263.5 33.5,263.5C 32.36,260.975 31.6933,258.308 31.5,255.5C 30.5,255.5 29.5,255.5 28.5,255.5C 28.6726,252.821 29.6726,250.487 31.5,248.5C 26.4439,246.075 26.2772,243.409 31,240.5C 31.4955,238.527 31.6621,236.527 31.5,234.5C 29.5,234.5 27.5,234.5 25.5,234.5C 25.5,233.5 25.5,232.5 25.5,231.5C 27.604,231.799 29.604,231.466 31.5,230.5C 31.3333,230.167 31.1667,229.833 31,229.5C 28.6194,230.435 26.1194,230.768 23.5,230.5C 23.5,229.5 23.5,228.5 23.5,227.5C 26.0679,226.55 28.5679,226.55 31,227.5C 31.3333,226.833 31.6667,226.167 32,225.5C 32.6891,226.357 33.5224,227.023 34.5,227.5C 36.3098,224.963 37.9764,222.463 39.5,220C 37.0169,216.935 34.5169,217.101 32,220.5C 31.0094,219.061 29.676,218.061 28,217.5C 27.8333,217.167 27.6667,216.833 27.5,216.5C 29.5,215.833 31.5,215.167 33.5,214.5C 32.5,211.833 31.5,211.833 30.5,214.5C 27.0152,212.958 24.0152,210.791 21.5,208C 23.1066,206.951 23.7733,205.451 23.5,203.5C 21.0268,203.264 19.3601,201.931 18.5,199.5C 17.549,198.674 16.549,198.508 15.5,199C 16.2113,201.796 16.878,204.63 17.5,207.5C 16.3244,210.449 14.991,213.282 13.5,216C 14.5728,217.313 15.2395,218.813 15.5,220.5C 13.1778,227.602 15.8444,232.269 23.5,234.5C 21.0197,235.415 20.3531,236.915 21.5,239C 20.9505,240.845 19.9505,242.345 18.5,243.5C 19.0848,240.981 19.0848,238.315 18.5,235.5C 17.5,235.5 16.5,235.5 15.5,235.5C 15.8649,238.746 14.8649,241.412 12.5,243.5C 16.1519,246.997 15.1519,248.997 9.5,249.5C 9.66212,247.473 9.49546,245.473 9,243.5C 8.61742,242.944 8.11742,242.611 7.5,242.5C 6.14026,237.003 4.80693,230.17 3.5,222C 4.75326,218.013 4.75326,214.013 3.5,210C 4.83333,200.333 6.16667,190.667 7.5,181C 7.33333,180.167 7.16667,179.333 7,178.5C 6.66667,178.833 6.33333,179.167 6,179.5C 5.33333,175.5 5.33333,171.5 6,167.5C 6.33333,168.833 6.66667,170.167 7,171.5C 7.16667,166.833 7.33333,162.167 7.5,157.5C 6.11598,145.301 5.44931,133.134 5.5,121C 7.51166,119.848 7.67833,118.682 6,117.5C 5.815,104.455 5.315,91.4547 4.5,78.5C 6.5,73.8333 8.5,69.1667 10.5,64.5C 9.67504,63.6143 8.67504,63.281 7.5,63.5C 7.5,58.1667 7.5,52.8333 7.5,47.5C 10.1667,47.5 12.8333,47.5 15.5,47.5C 15.5,42.1667 15.5,36.8333 15.5,31.5C 12.1667,31.5 8.83333,31.5 5.5,31.5C 5.66615,25.4908 5.49949,19.4908 5,13.5C 3.11482,10.0529 3.61482,6.88621 6.5,4C 6.09464,3.05456 5.42797,2.38789 4.5,2C 5.60864,1.36229 6.77531,0.862286 8,0.5C 16.0437,1.1368 24.0437,1.80347 32,2.5C 51.3667,2.12862 70.7,1.79528 90,1.5C 93.1667,1.66667 96.3333,1.83333 99.5,2C 98.062,2.21893 96.7287,2.71893 95.5,3.5C 100.802,4.66281 106.136,4.82947 111.5,4C 108.846,2.59252 106.179,2.09252 103.5,2.5C 106.646,1.71131 109.813,1.04464 113,0.5C 187.83,1.33302 263.33,1.33302 339.5,0.5C 343.5,1 347.5,1.5 351.5,2C 345.917,2.19113 340.417,2.69113 335,3.5C 334.107,2.91858 333.107,2.58524 332,2.5C 327.511,3.84503 327.845,4.84503 333,5.5C 335.46,4.68657 337.96,4.0199 340.5,3.5C 362.702,4.25182 385.036,4.41849 407.5,4C 394.19,2.9203 380.857,2.25364 367.5,2C 370.948,1.14104 374.448,0.641041 378,0.5C 394.822,1.25164 411.656,1.75164 428.5,2C 426.833,2.33333 425.167,2.66667 423.5,3C 426.117,3.8215 428.784,4.3215 431.5,4.5C 431.5,3.5 431.5,2.5 431.5,1.5C 436.844,1.33398 442.177,1.50065 447.5,2C 453.648,5.06193 453.982,8.56193 448.5,12.5C 447.571,11.3112 447.238,9.97782 447.5,8.5C 442.786,8.17338 438.12,8.50671 433.5,9.5C 431.995,10.8415 431.328,12.5082 431.5,14.5C 442.187,14.832 452.854,14.4987 463.5,13.5C 457.927,10.7355 457.26,7.23548 461.5,3C 459.343,2.92191 457.343,2.75524 455.5,2.5C 456.833,2.16667 458.167,1.83333 459.5,1.5C 467.163,2.14287 474.829,1.80954 482.5,0.5C 484.197,0.898842 485.863,1.39884 487.5,2C 484.774,2.18156 482.107,2.68156 479.5,3.5C 484.802,4.66281 490.136,4.82947 495.5,4C 497.63,2.59042 500.13,1.75709 503,1.5C 506.096,1.90029 508.93,2.23363 511.5,2.5 Z"/></g>
<g><path style="opacity:1" fill="#657d88" d="M 327.5,95.5 C 326.833,95.5 326.167,95.5 325.5,95.5C 317.951,91.5935 309.951,88.7602 301.5,87C 271.683,85.9376 242.017,85.1043 212.5,84.5C 209.359,83.6787 206.025,83.1787 202.5,83C 206,82.8333 209.5,82.6667 213,82.5C 243.173,84.0712 273.34,84.9045 303.5,85C 310.754,86.128 317.754,88.128 324.5,91C 326.376,91.9184 327.376,93.4184 327.5,95.5 Z"/></g>
<g><path style="opacity:1" fill="#010101" d="M 184.5,84.5 C 193.833,84.5 203.167,84.5 212.5,84.5C 242.017,85.1043 271.683,85.9376 301.5,87C 309.951,88.7602 317.951,91.5935 325.5,95.5C 332.6,100.755 339.6,106.255 346.5,112C 351.004,117.67 356.004,122.837 361.5,127.5C 362.906,127.973 363.573,128.973 363.5,130.5C 363.46,133.425 364.293,136.091 366,138.5C 369.278,141.445 371.778,144.945 373.5,149C 373.5,151 373.5,153 373.5,155C 372.833,155.667 372.167,156.333 371.5,157C 373.516,160.579 374.849,164.413 375.5,168.5C 376.425,169.641 377.259,169.641 378,168.5C 380.867,174.437 382.034,180.771 381.5,187.5C 380.508,204.858 381.008,222.192 383,239.5C 384.213,241.925 385.379,244.259 386.5,246.5C 391.066,257.553 395.399,268.553 399.5,279.5C 400.764,284.722 401.431,290.055 401.5,295.5C 401.579,299.202 401.246,302.868 400.5,306.5C 400.857,311.022 401.857,315.355 403.5,319.5C 405.992,332.763 404.325,345.43 398.5,357.5C 397.522,357.977 396.689,358.643 396,359.5C 395.667,359.167 395.333,358.833 395,358.5C 394.974,362.108 394.141,365.442 392.5,368.5C 392.709,369.086 393.043,369.586 393.5,370C 391.807,370.484 390.473,369.984 389.5,368.5C 389.631,367.624 389.298,366.957 388.5,366.5C 385.478,369.853 382.478,373.187 379.5,376.5C 374.109,378.001 369.443,380.667 365.5,384.5C 362.258,387.303 360.258,390.97 359.5,395.5C 357.111,397.507 354.444,397.84 351.5,396.5C 351.657,395.127 351.49,393.793 351,392.5C 349.798,394.677 349.298,397.011 349.5,399.5C 351.199,399.34 352.866,399.506 354.5,400C 354.043,400.414 353.709,400.914 353.5,401.5C 350.387,402.714 347.387,404.214 344.5,406C 344.833,406.333 345.167,406.667 345.5,407C 341.651,410.521 338.651,414.687 336.5,419.5C 334.694,418.141 333.194,418.475 332,420.5C 330.93,423.242 329.43,425.742 327.5,428C 327.833,428.333 328.167,428.667 328.5,429C 325.84,428.316 323.174,428.483 320.5,429.5C 319.808,428.975 319.308,428.308 319,427.5C 318.355,428.646 317.522,429.646 316.5,430.5C 317.833,430.833 319.167,431.167 320.5,431.5C 321.833,432.167 321.833,432.833 320.5,433.5C 319.914,433.291 319.414,432.957 319,432.5C 316.256,434.755 313.089,436.088 309.5,436.5C 308.646,437.522 307.646,438.355 306.5,439C 307.646,441.557 306.646,442.89 303.5,443C 303.833,443.333 304.167,443.667 304.5,444C 302.618,444.198 300.952,444.698 299.5,445.5C 298.833,445.5 298.5,445.833 298.5,446.5C 293.193,449.153 287.86,451.82 282.5,454.5C 284.19,450.813 283.69,450.146 281,452.5C 280.617,451.944 280.117,451.611 279.5,451.5C 290.877,443.814 302.544,436.647 314.5,430C 316.389,427.618 318.055,425.118 319.5,422.5C 321.411,420.083 323.578,417.75 326,415.5C 329.46,407.247 333.46,399.247 338,391.5C 340.527,383.697 341.694,375.697 341.5,367.5C 342.14,351.463 343.14,335.463 344.5,319.5C 345.147,318.726 345.48,317.726 345.5,316.5C 345.36,314.97 344.693,313.97 343.5,313.5C 331.485,313.576 319.485,313.243 307.5,312.5C 302.284,311.619 298.951,308.619 297.5,303.5C 298.167,303.5 298.5,303.167 298.5,302.5C 312.109,298.907 325.775,296.24 339.5,294.5C 342.377,293.096 344.044,290.763 344.5,287.5C 345.768,285.095 346.435,282.428 346.5,279.5C 348.269,271.743 348.935,263.743 348.5,255.5C 346.801,255.527 345.467,256.194 344.5,257.5C 341.5,257.5 338.5,257.5 335.5,257.5C 334.167,257.5 332.833,257.5 331.5,257.5C 329.538,255.983 327.205,255.316 324.5,255.5C 316.162,256.562 307.829,256.728 299.5,256C 297.959,257.579 296.792,259.413 296,261.5C 294.008,271.441 292.508,281.441 291.5,291.5C 291.676,298.548 288.342,301.881 281.5,301.5C 279.973,301.573 278.973,300.906 278.5,299.5C 276.342,293.676 274.009,288.01 271.5,282.5C 271.5,282.167 271.5,281.833 271.5,281.5C 268.972,276.277 266.305,271.11 263.5,266C 260.403,266.276 258.736,268.11 258.5,271.5C 256.92,274.659 255.92,277.993 255.5,281.5C 251.623,288.249 247.956,295.249 244.5,302.5C 240.785,306.881 236.785,310.881 232.5,314.5C 221.843,318.108 210.843,319.441 199.5,318.5C 195.466,318.495 191.466,318.162 187.5,317.5C 183.353,316.675 179.019,316.175 174.5,316C 171.716,315.108 169.05,313.942 166.5,312.5C 165.16,317.073 165.493,321.406 167.5,325.5C 167.92,334.443 169.254,343.109 171.5,351.5C 171.506,362.213 172.173,372.88 173.5,383.5C 173.234,387.571 173.567,391.571 174.5,395.5C 174.113,398.238 173.113,400.572 171.5,402.5C 168.197,401.561 164.864,400.561 161.5,399.5C 158.544,398.863 155.544,398.363 152.5,398C 148.779,394.279 145.113,390.613 141.5,387C 136.428,386.322 131.428,385.322 126.5,384C 123.898,383.117 121.731,381.617 120,379.5C 110.132,362.431 101.299,344.765 93.5,326.5C 93.472,324.418 94.1387,322.584 95.5,321C 91.5641,319.802 89.8975,317.135 90.5,313C 90.6914,310.063 91.6914,307.563 93.5,305.5C 92.9162,299.499 92.2495,293.499 91.5,287.5C 90.6433,286.264 89.9766,284.931 89.5,283.5C 93.0128,276.959 95.1794,269.959 96,262.5C 99.0826,259.87 100.249,256.703 99.5,253C 101.741,247.211 103.907,241.378 106,235.5C 106.333,235.833 106.667,236.167 107,236.5C 107.121,234.273 107.954,232.44 109.5,231C 109.634,229.455 109.3,227.788 108.5,226C 109.217,224.469 110.217,223.136 111.5,222C 110.841,216.981 110.841,211.815 111.5,206.5C 111,205.5 110.5,204.5 110,203.5C 109.71,205.044 109.044,206.377 108,207.5C 107.718,202.216 107.551,197.05 107.5,192C 108.516,191.481 109.182,190.647 109.5,189.5C 109.897,179.557 112.897,170.557 118.5,162.5C 118.273,160.329 117.94,158.162 117.5,156C 118.5,155.667 119.5,155.333 120.5,155C 120.167,154.667 119.833,154.333 119.5,154C 120.376,152.414 121.376,150.914 122.5,149.5C 122.08,147.674 122.08,145.674 122.5,143.5C 124.093,142.652 125.26,141.319 126,139.5C 126.923,140.759 127.757,142.092 128.5,143.5C 129.638,137.836 132.971,134.503 138.5,133.5C 139.022,130.432 139.855,127.432 141,124.5C 144.981,121.351 148.481,117.684 151.5,113.5C 151.291,112.914 150.957,112.414 150.5,112C 153.5,111.667 156.5,111.333 159.5,111C 157.939,110.059 156.605,108.892 155.5,107.5C 157.503,105.867 158.836,103.867 159.5,101.5C 159.5,101.167 159.5,100.833 159.5,100.5C 162.704,98.6429 165.871,96.6429 169,94.5C 171.129,95.8627 171.629,95.5294 170.5,93.5C 171.098,92.2054 171.598,90.8721 172,89.5C 174.876,88.0522 177.709,86.7189 180.5,85.5C 182.099,85.7678 183.432,85.4345 184.5,84.5 Z"/></g>
<g><path style="opacity:1" fill="#0f181d" d="M 180.5,85.5 C 177.709,86.7189 174.876,88.0522 172,89.5C 171.598,90.8721 171.098,92.2054 170.5,93.5C 171.629,95.5294 171.129,95.8627 169,94.5C 165.871,96.6429 162.704,98.6429 159.5,100.5C 162.825,96.5309 166.159,92.5309 169.5,88.5C 173.014,86.8833 176.681,85.8833 180.5,85.5 Z"/></g>
<g><path style="opacity:1" fill="#607781" d="M 325.5,95.5 C 326.167,95.5 326.833,95.5 327.5,95.5C 330.357,96.333 333.023,97.6664 335.5,99.5C 342.338,105.502 349.338,111.336 356.5,117C 357.833,118.333 357.833,119.667 356.5,121C 360.529,121.81 362.196,123.977 361.5,127.5C 356.004,122.837 351.004,117.67 346.5,112C 339.6,106.255 332.6,100.755 325.5,95.5 Z"/></g>
<g><path style="opacity:1" fill="#050c10" d="M 159.5,101.5 C 158.836,103.867 157.503,105.867 155.5,107.5C 156.605,108.892 157.939,110.059 159.5,111C 156.5,111.333 153.5,111.667 150.5,112C 150.957,112.414 151.291,112.914 151.5,113.5C 148.481,117.684 144.981,121.351 141,124.5C 139.855,127.432 139.022,130.432 138.5,133.5C 132.971,134.503 129.638,137.836 128.5,143.5C 127.757,142.092 126.923,140.759 126,139.5C 125.26,141.319 124.093,142.652 122.5,143.5C 123.128,140.91 124.295,138.577 126,136.5C 133.122,130.708 138.789,123.708 143,115.5C 147.805,109.849 153.305,105.182 159.5,101.5 Z"/></g>
<g><path style="opacity:1" fill="#080f15" d="M 363.5,130.5 C 365.129,131.625 366.629,132.959 368,134.5C 375.064,145.181 379.898,156.847 382.5,169.5C 382.823,175.69 382.49,181.69 381.5,187.5C 382.034,180.771 380.867,174.437 378,168.5C 377.259,169.641 376.425,169.641 375.5,168.5C 374.849,164.413 373.516,160.579 371.5,157C 372.167,156.333 372.833,155.667 373.5,155C 373.5,153 373.5,151 373.5,149C 371.778,144.945 369.278,141.445 366,138.5C 364.293,136.091 363.46,133.425 363.5,130.5 Z"/></g>
<g><path style="opacity:1" fill="#628394" d="M 59.5,279.5 C 59.5,282.167 59.5,284.833 59.5,287.5C 66.5,287.5 73.5,287.5 80.5,287.5C 81.3799,291.367 81.3799,295.2 80.5,299C 82.4095,305.042 82.7428,311.042 81.5,317C 81.7006,319.111 82.3673,320.945 83.5,322.5C 87.8106,325.415 88.8106,329.082 86.5,333.5C 87.3022,336.449 87.6355,339.449 87.5,342.5C 80.571,338.768 76.071,333.101 74,325.5C 73.5045,323.527 73.3379,321.527 73.5,319.5C 64.8333,319.5 56.1667,319.5 47.5,319.5C 47.5,322.167 47.5,324.833 47.5,327.5C 53.2289,327.788 58.8955,327.454 64.5,326.5C 67.3651,328.743 68.6984,331.743 68.5,335.5C 69.8333,335.5 71.1667,335.5 72.5,335.5C 71.697,340.476 68.8636,343.809 64,345.5C 58.8027,343.58 53.3027,342.913 47.5,343.5C 47.3359,346.187 47.5026,348.854 48,351.5C 52.6667,356.167 57.3333,360.833 62,365.5C 62.1881,367.061 61.3547,367.728 59.5,367.5C 59.5,372.833 59.5,378.167 59.5,383.5C 72.8333,383.5 86.1667,383.5 99.5,383.5C 99.5,378.167 99.5,372.833 99.5,367.5C 101.619,367.532 102.952,366.532 103.5,364.5C 105.852,365.543 106.019,366.876 104,368.5C 103.501,373.489 103.334,378.489 103.5,383.5C 105.167,383.5 106.833,383.5 108.5,383.5C 109.262,389.214 109.262,394.88 108.5,400.5C 111.958,401.458 114.291,403.625 115.5,407C 116.5,407.333 117.5,407.667 118.5,408C 116.444,408.311 114.444,408.811 112.5,409.5C 111.719,408.271 111.219,406.938 111,405.5C 106.136,407.191 103.303,410.524 102.5,415.5C 104.167,415.5 105.833,415.5 107.5,415.5C 107.5,426.167 107.5,436.833 107.5,447.5C 106.167,447.5 104.833,447.5 103.5,447.5C 103.682,449.591 103.348,451.591 102.5,453.5C 100.139,455.194 98.1394,457.194 96.5,459.5C 95.7696,457.659 95.1029,455.825 94.5,454C 93.6683,453.312 93.0016,453.479 92.5,454.5C 94.4248,459.103 96.2581,463.77 98,468.5C 98.8333,469.333 99.6667,470.167 100.5,471C 99.7117,474.076 99.2117,477.242 99,480.5C 95.5107,482.738 95.6774,484.405 99.5,485.5C 101.229,483.772 103.229,482.439 105.5,481.5C 106.167,481.833 106.833,482.167 107.5,482.5C 103.708,485.052 104.375,486.385 109.5,486.5C 110.414,492.129 110.414,497.796 109.5,503.5C 108.167,503.5 106.833,503.5 105.5,503.5C 104.377,497.034 103.71,497.034 103.5,503.5C 102.448,503.351 101.448,503.517 100.5,504C 101.7,505.031 103.034,505.865 104.5,506.5C 109.137,507.22 113.803,507.72 118.5,508C 118.833,508.333 119.167,508.667 119.5,509C 116.896,509.39 114.562,510.224 112.5,511.5C 74.8333,511.5 37.1667,511.5 -0.5,511.5C -0.5,509.167 -0.5,506.833 -0.5,504.5C 4.14593,504.024 7.14593,501.524 8.5,497C 8.11244,440.499 7.11244,383.999 5.5,327.5C 6.16667,322.167 6.83333,316.833 7.5,311.5C 7.38413,288.585 7.38413,265.585 7.5,242.5C 8.11742,242.611 8.61742,242.944 9,243.5C 9.49546,245.473 9.66212,247.473 9.5,249.5C 15.1519,248.997 16.1519,246.997 12.5,243.5C 14.8649,241.412 15.8649,238.746 15.5,235.5C 16.5,235.5 17.5,235.5 18.5,235.5C 19.0848,238.315 19.0848,240.981 18.5,243.5C 19.9505,242.345 20.9505,240.845 21.5,239C 20.3531,236.915 21.0197,235.415 23.5,234.5C 15.8444,232.269 13.1778,227.602 15.5,220.5C 15.2395,218.813 14.5728,217.313 13.5,216C 14.991,213.282 16.3244,210.449 17.5,207.5C 16.878,204.63 16.2113,201.796 15.5,199C 16.549,198.508 17.549,198.674 18.5,199.5C 19.3601,201.931 21.0268,203.264 23.5,203.5C 23.7733,205.451 23.1066,206.951 21.5,208C 24.0152,210.791 27.0152,212.958 30.5,214.5C 31.5,211.833 32.5,211.833 33.5,214.5C 31.5,215.167 29.5,215.833 27.5,216.5C 27.6667,216.833 27.8333,217.167 28,217.5C 29.676,218.061 31.0094,219.061 32,220.5C 34.5169,217.101 37.0169,216.935 39.5,220C 37.9764,222.463 36.3098,224.963 34.5,227.5C 33.5224,227.023 32.6891,226.357 32,225.5C 31.6667,226.167 31.3333,226.833 31,227.5C 28.5679,226.55 26.0679,226.55 23.5,227.5C 23.5,228.5 23.5,229.5 23.5,230.5C 26.1194,230.768 28.6194,230.435 31,229.5C 31.1667,229.833 31.3333,230.167 31.5,230.5C 29.604,231.466 27.604,231.799 25.5,231.5C 25.5,232.5 25.5,233.5 25.5,234.5C 27.5,234.5 29.5,234.5 31.5,234.5C 31.6621,236.527 31.4955,238.527 31,240.5C 26.2772,243.409 26.4439,246.075 31.5,248.5C 29.6726,250.487 28.6726,252.821 28.5,255.5C 29.5,255.5 30.5,255.5 31.5,255.5C 31.6933,258.308 32.36,260.975 33.5,263.5C 34.5,263.5 35.5,263.5 36.5,263.5C 36.6203,266.48 37.287,269.313 38.5,272C 36.559,273.903 34.2257,274.736 31.5,274.5C 31.719,273.325 31.3857,272.325 30.5,271.5C 29.4173,272.365 29.2506,273.365 30,274.5C 31.8172,277.657 33.6505,280.823 35.5,284C 34.8333,285.333 34.1667,286.667 33.5,288C 34.0085,289.169 34.8419,290.002 36,290.5C 36.9689,288.266 38.3022,286.266 40,284.5C 40.6924,285.025 41.1924,285.692 41.5,286.5C 40.2515,289.494 40.2515,292.494 41.5,295.5C 42.9705,294.619 43.8038,293.286 44,291.5C 44.2896,293.044 44.9563,294.377 46,295.5C 47.128,293.655 47.628,291.655 47.5,289.5C 49.4835,289.617 51.1502,288.95 52.5,287.5C 54.2889,282.482 55.4556,282.482 56,287.5C 56.4974,284.854 56.6641,282.187 56.5,279.5C 57.5,279.5 58.5,279.5 59.5,279.5 Z"/></g>
<g><path style="opacity:1" fill="#536e7d" d="M 382.5,169.5 C 383.332,190.329 383.832,211.329 384,232.5C 384.529,237.243 385.362,241.909 386.5,246.5C 385.379,244.259 384.213,241.925 383,239.5C 381.008,222.192 380.508,204.858 381.5,187.5C 382.49,181.69 382.823,175.69 382.5,169.5 Z"/></g>
<g><path style="opacity:1" fill="#618497" d="M 447.5,383.5 C 442.137,378.52 436.971,373.187 432,367.5C 432.631,372.024 430.797,374.857 426.5,376C 422.702,378.518 422.036,381.518 424.5,385C 423.013,389.154 420.18,391.987 416,393.5C 415.502,390.183 415.335,386.85 415.5,383.5C 414.5,383.5 413.5,383.5 412.5,383.5C 412.723,381.658 413.057,379.825 413.5,378C 411.956,374.661 411.29,371.161 411.5,367.5C 410.325,367.719 409.325,367.386 408.5,366.5C 407.935,364.491 406.935,362.824 405.5,361.5C 406.002,357.41 408.335,355.41 412.5,355.5C 412.385,343.292 413.052,331.125 414.5,319C 413.183,313.885 412.183,308.719 411.5,303.5C 412.5,303.5 413.5,303.5 414.5,303.5C 413.463,294.718 411.796,286.052 409.5,277.5C 410.156,275.547 410.489,273.547 410.5,271.5C 409.5,271.5 408.5,271.5 407.5,271.5C 407.828,266.125 407.495,260.792 406.5,255.5C 405.975,251.304 403.641,249.304 399.5,249.5C 399.5,244.833 399.5,240.167 399.5,235.5C 397.61,235.703 396.11,235.037 395,233.5C 393.722,230.279 392.889,226.946 392.5,223.5C 391.127,223.657 389.793,223.49 388.5,223C 391.339,220.411 394.672,218.578 398.5,217.5C 399.833,215.5 399.833,213.5 398.5,211.5C 396.77,210.974 395.436,209.974 394.5,208.5C 398.783,207.508 403.116,207.174 407.5,207.5C 407.168,218.187 407.501,228.854 408.5,239.5C 409.025,243.696 411.359,245.696 415.5,245.5C 415.146,249.637 415.646,253.637 417,257.5C 421.5,261.833 426,266.167 430.5,270.5C 436.128,271.495 441.794,271.829 447.5,271.5C 447.5,308.833 447.5,346.167 447.5,383.5 Z"/></g>
<g><path style="opacity:1" fill="#55737f" d="M 119.5,147.5 C 117.976,151.202 115.81,154.536 113,157.5C 108.365,170.73 105.865,184.396 105.5,198.5C 106.832,208.844 106.832,219.177 105.5,229.5C 104.833,229.5 104.167,229.5 103.5,229.5C 104.006,212.308 105.006,195.142 106.5,178C 104.542,172.905 105.208,168.238 108.5,164C 106.524,160.635 107.524,159.135 111.5,159.5C 111.201,157.396 111.534,155.396 112.5,153.5C 114.485,151.543 115.985,149.21 117,146.5C 117.671,147.252 118.504,147.586 119.5,147.5 Z"/></g>
<g><path style="opacity:1" fill="#344a52" d="M 103.5,229.5 C 104.167,229.5 104.833,229.5 105.5,229.5C 104.921,232.331 103.588,234.664 101.5,236.5C 102.455,234.254 103.122,231.921 103.5,229.5 Z"/></g>
<g><path style="opacity:1" fill="#050a0f" d="M 122.5,143.5 C 122.08,145.674 122.08,147.674 122.5,149.5C 121.376,150.914 120.376,152.414 119.5,154C 119.833,154.333 120.167,154.667 120.5,155C 119.5,155.333 118.5,155.667 117.5,156C 117.94,158.162 118.273,160.329 118.5,162.5C 112.897,170.557 109.897,179.557 109.5,189.5C 109.182,190.647 108.516,191.481 107.5,192C 107.551,197.05 107.718,202.216 108,207.5C 109.044,206.377 109.71,205.044 110,203.5C 110.5,204.5 111,205.5 111.5,206.5C 110.841,211.815 110.841,216.981 111.5,222C 110.217,223.136 109.217,224.469 108.5,226C 109.3,227.788 109.634,229.455 109.5,231C 107.954,232.44 107.121,234.273 107,236.5C 106.667,236.167 106.333,235.833 106,235.5C 103.907,241.378 101.741,247.211 99.5,253C 100.249,256.703 99.0826,259.87 96,262.5C 95.1794,269.959 93.0128,276.959 89.5,283.5C 89.9766,284.931 90.6433,286.264 91.5,287.5C 92.2495,293.499 92.9162,299.499 93.5,305.5C 91.6914,307.563 90.6914,310.063 90.5,313C 89.8975,317.135 91.5641,319.802 95.5,321C 94.1387,322.584 93.472,324.418 93.5,326.5C 90.4753,321.274 88.3086,315.607 87,309.5C 85.5939,294.599 86.7605,279.932 90.5,265.5C 93.21,256.053 96.5433,246.719 100.5,237.5C 101.167,237.5 101.5,237.167 101.5,236.5C 103.588,234.664 104.921,232.331 105.5,229.5C 106.832,219.177 106.832,208.844 105.5,198.5C 105.865,184.396 108.365,170.73 113,157.5C 115.81,154.536 117.976,151.202 119.5,147.5C 120.857,146.41 121.857,145.076 122.5,143.5 Z"/></g>
<g><path style="opacity:1" fill="#628396" d="M 63.5,239.5 C 68.4646,243.963 73.2979,248.63 78,253.5C 78.1667,253.833 78.3333,254.167 78.5,254.5C 72.3634,256.408 72.5301,258.741 79,261.5C 80.0986,267.474 80.5986,273.474 80.5,279.5C 81.48,276.914 81.8134,274.247 81.5,271.5C 82.5,271.5 83.5,271.5 84.5,271.5C 84.846,274.602 84.1793,277.435 82.5,280C 83.0611,290.516 83.7278,301.183 84.5,312C 84.0013,315.49 83.668,318.99 83.5,322.5C 82.3673,320.945 81.7006,319.111 81.5,317C 82.7428,311.042 82.4095,305.042 80.5,299C 81.3799,295.2 81.3799,291.367 80.5,287.5C 73.5,287.5 66.5,287.5 59.5,287.5C 59.5,284.833 59.5,282.167 59.5,279.5C 58.6231,274.154 59.9565,269.154 63.5,264.5C 61.3467,261.86 60.0134,258.86 59.5,255.5C 60.8333,255.5 62.1667,255.5 63.5,255.5C 63.5,250.167 63.5,244.833 63.5,239.5 Z"/></g>
<g><path style="opacity:1" fill="#4e6671" d="M 100.5,237.5 C 96.5433,246.719 93.21,256.053 90.5,265.5C 91.0152,260.793 91.8485,256.126 93,251.5C 95.5071,247.653 97.3404,243.486 98.5,239C 98.8361,237.97 99.5028,237.47 100.5,237.5 Z"/></g>
<g><path style="opacity:1" fill="#232119" d="M 346.5,279.5 C 346.5,275.833 346.5,272.167 346.5,268.5C 345.833,264.833 345.167,261.167 344.5,257.5C 345.467,256.194 346.801,255.527 348.5,255.5C 348.935,263.743 348.269,271.743 346.5,279.5 Z"/></g>
<g><path style="opacity:1" fill="#362813" d="M 223.5,257.5 C 220.449,257.364 217.449,257.698 214.5,258.5C 213.287,258.747 212.62,259.414 212.5,260.5C 207.913,259.885 203.913,261.052 200.5,264C 197.522,264.696 194.522,265.196 191.5,265.5C 191.414,264.504 191.748,263.671 192.5,263C 200.575,259.086 209.075,256.586 218,255.5C 220.111,255.701 221.945,256.367 223.5,257.5 Z"/></g>
<g><path style="opacity:1" fill="#31230e" d="M 335.5,257.5 C 338.5,257.5 341.5,257.5 344.5,257.5C 345.167,261.167 345.833,264.833 346.5,268.5C 345.833,268.833 345.167,269.167 344.5,269.5C 343.019,266.522 340.686,264.356 337.5,263C 341.293,259.904 340.626,258.07 335.5,257.5 Z"/></g>
<g><path style="opacity:1" fill="#342615" d="M 331.5,257.5 C 321.78,257.808 312.113,257.474 302.5,256.5C 298.192,259.753 296.192,264.086 296.5,269.5C 296.069,277.215 294.403,284.548 291.5,291.5C 292.508,281.441 294.008,271.441 296,261.5C 296.792,259.413 297.959,257.579 299.5,256C 307.829,256.728 316.162,256.562 324.5,255.5C 327.205,255.316 329.538,255.983 331.5,257.5 Z"/></g>
<g><path style="opacity:1" fill="#4c2f12" d="M 223.5,257.5 C 224.474,259.085 225.974,260.085 228,260.5C 229.521,263.542 231.021,266.542 232.5,269.5C 229.605,265.948 226.772,266.282 224,270.5C 222.916,268.218 221.416,267.884 219.5,269.5C 218.833,269.833 218.167,270.167 217.5,270.5C 217.5,269.5 217.5,268.5 217.5,267.5C 216.325,267.719 215.325,267.386 214.5,266.5C 222.677,262.867 222.344,260.867 213.5,260.5C 213.167,260.5 212.833,260.5 212.5,260.5C 212.62,259.414 213.287,258.747 214.5,258.5C 217.449,257.698 220.449,257.364 223.5,257.5 Z"/></g>
<g><path style="opacity:1" fill="#40260d" d="M 212.5,260.5 C 212.833,260.5 213.167,260.5 213.5,260.5C 212.264,262.043 210.598,263.043 208.5,263.5C 207.914,263.291 207.414,262.957 207,262.5C 206.529,264.246 205.862,265.913 205,267.5C 202.512,269.743 199.846,271.743 197,273.5C 196.667,272.833 196.333,272.167 196,271.5C 194.921,274.063 194.421,276.729 194.5,279.5C 193.5,279.5 192.5,279.5 191.5,279.5C 191.5,275.167 191.5,270.833 191.5,266.5C 191.5,266.167 191.5,265.833 191.5,265.5C 194.522,265.196 197.522,264.696 200.5,264C 203.913,261.052 207.913,259.885 212.5,260.5 Z"/></g>
<g><path style="opacity:1" fill="#4c290b" d="M 338.5,280.5 C 337.269,281.718 336.102,283.051 335,284.5C 333.556,282.845 331.722,282.178 329.5,282.5C 326.368,281.308 323.368,279.141 320.5,276C 314.67,275.56 309.004,274.726 303.5,273.5C 303.5,272.833 303.5,272.167 303.5,271.5C 303.5,269.833 303.5,268.167 303.5,266.5C 310.776,264.59 317.776,264.423 324.5,266C 328.058,268.408 331.891,270.242 336,271.5C 336.273,273.329 337.107,274.829 338.5,276C 337.672,276.915 336.672,277.581 335.5,278C 336.691,278.698 337.691,279.531 338.5,280.5 Z"/></g>
<g><path style="opacity:1" fill="#41290f" d="M 331.5,257.5 C 332.833,257.5 334.167,257.5 335.5,257.5C 340.626,258.07 341.293,259.904 337.5,263C 340.686,264.356 343.019,266.522 344.5,269.5C 344.5,271.5 344.5,273.5 344.5,275.5C 342.896,276.287 342.229,277.62 342.5,279.5C 341.209,279.263 340.209,279.596 339.5,280.5C 339.167,280.5 338.833,280.5 338.5,280.5C 337.691,279.531 336.691,278.698 335.5,278C 336.672,277.581 337.672,276.915 338.5,276C 337.107,274.829 336.273,273.329 336,271.5C 331.891,270.242 328.058,268.408 324.5,266C 317.776,264.423 310.776,264.59 303.5,266.5C 303.5,268.167 303.5,269.833 303.5,271.5C 302.624,271.631 301.957,271.298 301.5,270.5C 302.661,268.622 301.994,267.622 299.5,267.5C 298.261,267.942 297.261,268.609 296.5,269.5C 296.192,264.086 298.192,259.753 302.5,256.5C 312.113,257.474 321.78,257.808 331.5,257.5 Z"/></g>
<g><path style="opacity:1" fill="#49270d" d="M 213.5,260.5 C 222.344,260.867 222.677,262.867 214.5,266.5C 215.325,267.386 216.325,267.719 217.5,267.5C 217.5,268.5 217.5,269.5 217.5,270.5C 214.471,272.372 212.305,275.039 211,278.5C 209.693,279.772 208.193,280.772 206.5,281.5C 207.127,282.417 207.461,283.417 207.5,284.5C 205.769,285.207 204.103,286.207 202.5,287.5C 199.373,285.859 196.54,283.859 194,281.5C 192.989,282.056 192.156,282.722 191.5,283.5C 191.5,282.167 191.5,280.833 191.5,279.5C 192.5,279.5 193.5,279.5 194.5,279.5C 194.421,276.729 194.921,274.063 196,271.5C 196.333,272.167 196.667,272.833 197,273.5C 199.846,271.743 202.512,269.743 205,267.5C 205.862,265.913 206.529,264.246 207,262.5C 207.414,262.957 207.914,263.291 208.5,263.5C 210.598,263.043 212.264,262.043 213.5,260.5 Z"/></g>
<g><path style="opacity:1" fill="#573217" d="M 232.5,269.5 C 232.604,277.901 231.27,285.901 228.5,293.5C 227.081,292.549 225.415,292.216 223.5,292.5C 225.843,291.063 226.01,289.396 224,287.5C 220.256,288.626 216.423,288.793 212.5,288C 213.171,287.014 213.171,285.847 212.5,284.5C 220.602,284.187 225.269,280.02 226.5,272C 223.639,272.03 221.305,271.197 219.5,269.5C 221.416,267.884 222.916,268.218 224,270.5C 226.772,266.282 229.605,265.948 232.5,269.5 Z"/></g>
<g><path style="opacity:1" fill="#412313" d="M 271.5,281.5 C 268.292,279.394 265.292,277.06 262.5,274.5C 261.318,272.533 261.985,271.2 264.5,270.5C 263.833,270.167 263.167,269.833 262.5,269.5C 261.133,270.225 259.8,270.892 258.5,271.5C 258.736,268.11 260.403,266.276 263.5,266C 266.305,271.11 268.972,276.277 271.5,281.5 Z"/></g>
<g><path style="opacity:1" fill="#4f351f" d="M 223.5,257.5 C 229.448,257.123 233.114,259.79 234.5,265.5C 235.536,276.161 233.87,286.328 229.5,296C 227.942,296.21 226.609,296.71 225.5,297.5C 213.988,297.828 202.654,297.495 191.5,296.5C 202.172,296.667 212.839,296.5 223.5,296C 225.744,295.95 227.411,295.117 228.5,293.5C 231.27,285.901 232.604,277.901 232.5,269.5C 231.021,266.542 229.521,263.542 228,260.5C 225.974,260.085 224.474,259.085 223.5,257.5 Z"/></g>
<g><path style="opacity:1" fill="#552d0e" d="M 219.5,269.5 C 221.305,271.197 223.639,272.03 226.5,272C 225.269,280.02 220.602,284.187 212.5,284.5C 210.833,284.5 209.167,284.5 207.5,284.5C 207.461,283.417 207.127,282.417 206.5,281.5C 208.193,280.772 209.693,279.772 211,278.5C 212.305,275.039 214.471,272.372 217.5,270.5C 218.167,270.167 218.833,269.833 219.5,269.5 Z"/></g>
<g><path style="opacity:1" fill="#4c220b" d="M 271.5,281.5 C 271.5,281.833 271.5,282.167 271.5,282.5C 271.704,285.518 272.037,288.518 272.5,291.5C 272.176,292.812 271.509,293.645 270.5,294C 272.763,295.243 273.597,297.076 273,299.5C 272.667,299.167 272.333,298.833 272,298.5C 271.506,300.134 271.34,301.801 271.5,303.5C 273.451,303.773 274.951,303.107 276,301.5C 276.36,303.608 277.027,305.608 278,307.5C 279.32,307.799 280.82,307.966 282.5,308C 280.203,309.16 280.536,310.16 283.5,311C 282.692,311.308 282.025,311.808 281.5,312.5C 283.171,314.51 283.838,316.843 283.5,319.5C 285.5,319.5 287.5,319.5 289.5,319.5C 288.688,317.257 288.021,314.924 287.5,312.5C 287.667,311.167 287.833,309.833 288,308.5C 289.043,310.701 289.877,313.034 290.5,315.5C 292.664,315.998 294.331,317.164 295.5,319C 293.862,321.133 293.029,323.633 293,326.5C 288.138,327.571 286.305,330.571 287.5,335.5C 289.833,335.5 292.167,335.5 294.5,335.5C 295.342,340.06 294.009,343.727 290.5,346.5C 290.448,344.43 290.281,342.097 290,339.5C 289.46,342.361 288.46,345.028 287,347.5C 285.853,346.542 284.853,346.875 284,348.5C 283.888,346.243 284.388,344.076 285.5,342C 285.472,340.93 285.139,340.097 284.5,339.5C 283.735,339.077 282.902,338.743 282,338.5C 278.28,339.88 274.78,341.713 271.5,344C 268.518,344.498 265.518,344.665 262.5,344.5C 264.74,343.736 267.073,342.902 269.5,342C 267.75,340.681 265.75,340.181 263.5,340.5C 262.962,338.883 262.629,337.216 262.5,335.5C 256.833,335.5 251.167,335.5 245.5,335.5C 245.495,331.466 245.162,327.466 244.5,323.5C 242.833,323.5 241.167,323.5 239.5,323.5C 239.5,322.167 239.5,320.833 239.5,319.5C 238.448,319.649 237.448,319.483 236.5,319C 236.626,317.026 236.792,314.859 237,312.5C 238.441,311.74 239.941,311.074 241.5,310.5C 244.243,307.346 246.743,304.012 249,300.5C 250.81,302.484 250.976,304.651 249.5,307C 249.862,308.225 250.362,309.391 251,310.5C 251.333,310.167 251.667,309.833 252,309.5C 251.647,307.772 251.481,306.106 251.5,304.5C 252.976,303.12 253.976,301.453 254.5,299.5C 253.675,298.614 252.675,298.281 251.5,298.5C 253.108,292.933 254.441,287.267 255.5,281.5C 255.92,277.993 256.92,274.659 258.5,271.5C 259.8,270.892 261.133,270.225 262.5,269.5C 263.167,269.833 263.833,270.167 264.5,270.5C 261.985,271.2 261.318,272.533 262.5,274.5C 265.292,277.06 268.292,279.394 271.5,281.5 Z"/></g>
<g><path style="opacity:1" fill="#56320f" d="M 303.5,273.5 C 309.004,274.726 314.67,275.56 320.5,276C 323.368,279.141 326.368,281.308 329.5,282.5C 328.741,284.431 327.407,285.931 325.5,287C 326.833,288 328.167,289 329.5,290C 327.109,290.691 327.109,291.691 329.5,293C 333.021,293.691 336.355,293.191 339.5,291.5C 339.5,292.5 339.5,293.5 339.5,294.5C 325.775,296.24 312.109,298.907 298.5,302.5C 297.07,302.579 295.736,302.246 294.5,301.5C 293.095,298.016 293.261,294.682 295,291.5C 294.315,297.995 296.815,299.162 302.5,295C 301.062,294.781 299.729,294.281 298.5,293.5C 299.865,291.249 299.531,289.249 297.5,287.5C 295.895,288.587 295.229,287.921 295.5,285.5C 296.618,282.548 298.618,280.381 301.5,279C 301.167,278.667 300.833,278.333 300.5,278C 302.141,276.871 303.141,275.371 303.5,273.5 Z"/></g>
<g><path style="opacity:1" fill="#393126" d="M 346.5,268.5 C 346.5,272.167 346.5,275.833 346.5,279.5C 346.435,282.428 345.768,285.095 344.5,287.5C 344.5,283.5 344.5,279.5 344.5,275.5C 344.5,273.5 344.5,271.5 344.5,269.5C 345.167,269.167 345.833,268.833 346.5,268.5 Z"/></g>
<g><path style="opacity:1" fill="#55707d" d="M 399.5,279.5 C 400.117,279.611 400.617,279.944 401,280.5C 403.376,290.655 405.043,300.988 406,311.5C 406.826,322.674 406.659,333.674 405.5,344.5C 406.369,327.831 405.036,311.498 401.5,295.5C 401.431,290.055 400.764,284.722 399.5,279.5 Z"/></g>
<g><path style="opacity:1" fill="#532e18" d="M 207.5,284.5 C 209.167,284.5 210.833,284.5 212.5,284.5C 213.171,285.847 213.171,287.014 212.5,288C 216.423,288.793 220.256,288.626 224,287.5C 226.01,289.396 225.843,291.063 223.5,292.5C 213.024,294.185 202.357,295.518 191.5,296.5C 186.167,296.5 180.833,296.5 175.5,296.5C 174.134,295.08 172.8,293.58 171.5,292C 171.759,290.739 172.426,289.739 173.5,289C 175.774,288.53 177.774,287.53 179.5,286C 183.695,285.668 187.695,284.835 191.5,283.5C 192.156,282.722 192.989,282.056 194,281.5C 196.54,283.859 199.373,285.859 202.5,287.5C 204.103,286.207 205.769,285.207 207.5,284.5 Z"/></g>
<g><path style="opacity:1" fill="#563417" d="M 338.5,280.5 C 338.833,280.5 339.167,280.5 339.5,280.5C 339.729,284.071 339.729,287.738 339.5,291.5C 336.355,293.191 333.021,293.691 329.5,293C 327.109,291.691 327.109,290.691 329.5,290C 328.167,289 326.833,288 325.5,287C 327.407,285.931 328.741,284.431 329.5,282.5C 331.722,282.178 333.556,282.845 335,284.5C 336.102,283.051 337.269,281.718 338.5,280.5 Z"/></g>
<g><path style="opacity:1" fill="#4b3926" d="M 344.5,275.5 C 344.5,279.5 344.5,283.5 344.5,287.5C 344.044,290.763 342.377,293.096 339.5,294.5C 339.5,293.5 339.5,292.5 339.5,291.5C 339.729,287.738 339.729,284.071 339.5,280.5C 340.209,279.596 341.209,279.263 342.5,279.5C 342.229,277.62 342.896,276.287 344.5,275.5 Z"/></g>
<g><path style="opacity:1" fill="#160c04" d="M 234.5,265.5 C 235.656,272.989 235.822,280.655 235,288.5C 234.202,291.543 233.035,294.376 231.5,297C 229.527,297.495 227.527,297.662 225.5,297.5C 226.609,296.71 227.942,296.21 229.5,296C 233.87,286.328 235.536,276.161 234.5,265.5 Z"/></g>
<g><path style="opacity:1" fill="#4f2e13" d="M 303.5,271.5 C 303.5,272.167 303.5,272.833 303.5,273.5C 303.141,275.371 302.141,276.871 300.5,278C 300.833,278.333 301.167,278.667 301.5,279C 298.618,280.381 296.618,282.548 295.5,285.5C 295.229,287.921 295.895,288.587 297.5,287.5C 299.531,289.249 299.865,291.249 298.5,293.5C 299.729,294.281 301.062,294.781 302.5,295C 296.815,299.162 294.315,297.995 295,291.5C 293.261,294.682 293.095,298.016 294.5,301.5C 295.736,302.246 297.07,302.579 298.5,302.5C 298.5,303.167 298.167,303.5 297.5,303.5C 296.1,304.1 295.1,305.1 294.5,306.5C 291.254,303.138 287.42,302.138 283,303.5C 281.97,303.164 281.47,302.497 281.5,301.5C 288.342,301.881 291.676,298.548 291.5,291.5C 294.403,284.548 296.069,277.215 296.5,269.5C 297.261,268.609 298.261,267.942 299.5,267.5C 301.994,267.622 302.661,268.622 301.5,270.5C 301.957,271.298 302.624,271.631 303.5,271.5 Z"/></g>
<g><path style="opacity:1" fill="#38261a" d="M 191.5,266.5 C 191.5,270.833 191.5,275.167 191.5,279.5C 191.5,280.833 191.5,282.167 191.5,283.5C 187.695,284.835 183.695,285.668 179.5,286C 177.774,287.53 175.774,288.53 173.5,289C 172.426,289.739 171.759,290.739 171.5,292C 172.8,293.58 174.134,295.08 175.5,296.5C 173.738,296.643 172.071,296.309 170.5,295.5C 169.511,291.893 169.177,288.226 169.5,284.5C 176.506,285.093 183.173,283.926 189.5,281C 190.464,278.077 190.464,275.077 189.5,272C 189.393,269.779 190.06,267.946 191.5,266.5 Z"/></g>
<g><path style="opacity:1" fill="#5e3211" d="M 223.5,292.5 C 225.415,292.216 227.081,292.549 228.5,293.5C 227.411,295.117 225.744,295.95 223.5,296C 212.839,296.5 202.172,296.667 191.5,296.5C 202.357,295.518 213.024,294.185 223.5,292.5 Z"/></g>
<g><path style="opacity:1" fill="#412514" d="M 271.5,282.5 C 274.009,288.01 276.342,293.676 278.5,299.5C 277.504,299.586 276.671,299.252 276,298.5C 275.856,295.558 274.689,293.224 272.5,291.5C 272.037,288.518 271.704,285.518 271.5,282.5 Z"/></g>
<g><path style="opacity:1" fill="#1b0f07" d="M 307.5,312.5 C 319.485,313.243 331.485,313.576 343.5,313.5C 338.678,314.166 333.678,314.499 328.5,314.5C 321.264,314.702 314.264,314.035 307.5,312.5 Z"/></g>
<g><path style="opacity:1" fill="#321f17" d="M 187.5,317.5 C 181.121,317.484 174.788,317.318 168.5,317C 167.556,319.719 167.223,322.552 167.5,325.5C 165.493,321.406 165.16,317.073 166.5,312.5C 169.05,313.942 171.716,315.108 174.5,316C 179.019,316.175 183.353,316.675 187.5,317.5 Z"/></g>
<g><path style="opacity:1" fill="#392415" d="M 297.5,303.5 C 298.951,308.619 302.284,311.619 307.5,312.5C 314.264,314.035 321.264,314.702 328.5,314.5C 333.678,314.499 338.678,314.166 343.5,313.5C 344.693,313.97 345.36,314.97 345.5,316.5C 345.48,317.726 345.147,318.726 344.5,319.5C 343.993,318.141 342.993,317.141 341.5,316.5C 334.532,315.503 327.532,315.17 320.5,315.5C 319.423,316.018 318.256,316.352 317,316.5C 312.57,315.296 308.07,314.462 303.5,314C 300.335,311.665 297.335,309.165 294.5,306.5C 295.1,305.1 296.1,304.1 297.5,303.5 Z"/></g>
<g><path style="opacity:1" fill="#472310" d="M 187.5,317.5 C 191.466,318.162 195.466,318.495 199.5,318.5C 209.123,320.03 218.79,319.697 228.5,317.5C 227.378,318.947 225.878,319.947 224,320.5C 223.81,326.416 223.31,332.249 222.5,338C 226.386,339.937 228.053,343.103 227.5,347.5C 225.186,353.113 223.186,359.613 221.5,367C 223.133,371.102 224.133,375.435 224.5,380C 223.978,380.561 223.645,381.228 223.5,382C 225.018,385.099 226.351,388.265 227.5,391.5C 229.208,393.691 231.208,394.024 233.5,392.5C 234.314,394.766 234.814,397.1 235,399.5C 236.019,398.313 237.186,397.313 238.5,396.5C 239.314,398.766 239.814,401.1 240,403.5C 241.385,402.449 242.385,401.116 243,399.5C 243.735,401.871 244.568,404.205 245.5,406.5C 246.689,407.429 248.022,407.762 249.5,407.5C 252.267,412.903 254.267,418.569 255.5,424.5C 260.198,424.29 264.864,424.124 269.5,424C 271.191,425.405 273.024,426.572 275,427.5C 275.219,428.938 275.719,430.271 276.5,431.5C 280.262,429.213 284.262,428.879 288.5,430.5C 288.5,431.833 288.5,433.167 288.5,434.5C 290.861,434.326 293.194,433.993 295.5,433.5C 294.013,434.804 292.346,435.97 290.5,437C 283.162,438.557 276.162,440.89 269.5,444C 266.656,445.849 263.823,447.682 261,449.5C 256.513,450.628 252.013,450.628 247.5,449.5C 234.126,441.151 220.792,432.817 207.5,424.5C 204.132,422.941 200.465,422.108 196.5,422C 195.62,420.644 195.286,419.144 195.5,417.5C 194.5,417.5 193.5,417.5 192.5,417.5C 193.134,416.053 194.301,415.387 196,415.5C 198.601,417.153 201.435,417.653 204.5,417C 204.833,416.667 205.167,416.333 205.5,416C 203.527,415.505 201.527,415.338 199.5,415.5C 199.34,413.801 199.506,412.134 200,410.5C 202.072,407.029 203.572,403.362 204.5,399.5C 202.833,399.5 201.167,399.5 199.5,399.5C 200.364,394.266 200.364,388.933 199.5,383.5C 196.833,383.5 194.167,383.5 191.5,383.5C 191.929,377.93 191.262,372.596 189.5,367.5C 188.127,367.657 186.793,367.49 185.5,367C 183.705,362.372 180.372,360.539 175.5,361.5C 174.672,358.023 173.672,354.69 172.5,351.5C 172.167,351.5 171.833,351.5 171.5,351.5C 169.254,343.109 167.92,334.443 167.5,325.5C 167.223,322.552 167.556,319.719 168.5,317C 174.788,317.318 181.121,317.484 187.5,317.5 Z"/></g>
<g><path style="opacity:1" fill="#341d13" d="M 232.5,314.5 C 231.789,316.201 230.455,317.201 228.5,317.5C 218.79,319.697 209.123,320.03 199.5,318.5C 210.843,319.441 221.843,318.108 232.5,314.5 Z"/></g>
<g><path style="opacity:1" fill="#4c250e" d="M 272.5,291.5 C 274.689,293.224 275.856,295.558 276,298.5C 276.671,299.252 277.504,299.586 278.5,299.5C 278.973,300.906 279.973,301.573 281.5,301.5C 281.47,302.497 281.97,303.164 283,303.5C 287.42,302.138 291.254,303.138 294.5,306.5C 297.335,309.165 300.335,311.665 303.5,314C 308.07,314.462 312.57,315.296 317,316.5C 318.256,316.352 319.423,316.018 320.5,315.5C 322.698,316.165 325.031,316.832 327.5,317.5C 326.975,318.192 326.308,318.692 325.5,319C 326.793,319.49 328.127,319.657 329.5,319.5C 329.986,321.807 329.986,323.973 329.5,326C 330.044,326.717 330.711,327.217 331.5,327.5C 330.64,332.542 330.64,337.876 331.5,343.5C 332.5,343.5 333.5,343.5 334.5,343.5C 334.336,340.813 334.503,338.146 335,335.5C 337.853,344.043 338.186,352.709 336,361.5C 334.041,362.748 332.541,364.415 331.5,366.5C 330.311,367.429 328.978,367.762 327.5,367.5C 328.463,371.796 328.629,376.129 328,380.5C 327.667,379.5 327.333,378.5 327,377.5C 326.582,381.178 326.082,384.845 325.5,388.5C 325.57,389.772 325.903,390.938 326.5,392C 323.64,397.269 321.307,402.769 319.5,408.5C 317.54,409.138 315.707,409.138 314,408.5C 311.326,412.386 307.826,414.72 303.5,415.5C 304.397,410.728 302.397,408.395 297.5,408.5C 296.914,408.709 296.414,409.043 296,409.5C 295.5,407.667 294.333,406.5 292.5,406C 297.419,405.198 302.252,405.365 307,406.5C 309.937,403.596 309.77,401.263 306.5,399.5C 306.08,396.384 305.08,393.717 303.5,391.5C 303.284,389.319 304.117,387.653 306,386.5C 306.333,386.833 306.667,387.167 307,387.5C 309.696,380.925 309.696,374.258 307,367.5C 306.632,366.09 305.799,365.09 304.5,364.5C 303.062,366.712 301.395,368.712 299.5,370.5C 295.211,368.511 293.878,369.511 295.5,373.5C 292.989,373.162 290.655,373.162 288.5,373.5C 287.571,372.311 287.238,370.978 287.5,369.5C 289.582,369.528 291.416,368.861 293,367.5C 293.497,364.854 293.664,362.187 293.5,359.5C 291.5,359.5 289.5,359.5 287.5,359.5C 287.778,361.346 287.111,362.68 285.5,363.5C 282.743,361.912 281.91,359.579 283,356.5C 286.094,356.207 287.594,354.541 287.5,351.5C 285.174,350.849 282.841,350.182 280.5,349.5C 277.989,350.655 275.322,351.322 272.5,351.5C 276.669,349.484 280.502,346.817 284,343.5C 284.49,342.207 284.657,340.873 284.5,339.5C 285.139,340.097 285.472,340.93 285.5,342C 284.388,344.076 283.888,346.243 284,348.5C 284.853,346.875 285.853,346.542 287,347.5C 288.46,345.028 289.46,342.361 290,339.5C 290.281,342.097 290.448,344.43 290.5,346.5C 294.009,343.727 295.342,340.06 294.5,335.5C 292.167,335.5 289.833,335.5 287.5,335.5C 286.305,330.571 288.138,327.571 293,326.5C 293.029,323.633 293.862,321.133 295.5,319C 294.331,317.164 292.664,315.998 290.5,315.5C 289.877,313.034 289.043,310.701 288,308.5C 287.833,309.833 287.667,311.167 287.5,312.5C 288.021,314.924 288.688,317.257 289.5,319.5C 287.5,319.5 285.5,319.5 283.5,319.5C 283.838,316.843 283.171,314.51 281.5,312.5C 282.025,311.808 282.692,311.308 283.5,311C 280.536,310.16 280.203,309.16 282.5,308C 280.82,307.966 279.32,307.799 278,307.5C 277.027,305.608 276.36,303.608 276,301.5C 274.951,303.107 273.451,303.773 271.5,303.5C 271.34,301.801 271.506,300.134 272,298.5C 272.333,298.833 272.667,299.167 273,299.5C 273.597,297.076 272.763,295.243 270.5,294C 271.509,293.645 272.176,292.812 272.5,291.5 Z"/></g>
<g><path style="opacity:1" fill="#422512" d="M 320.5,315.5 C 327.532,315.17 334.532,315.503 341.5,316.5C 342.993,317.141 343.993,318.141 344.5,319.5C 343.14,335.463 342.14,351.463 341.5,367.5C 341.167,367.5 340.833,367.5 340.5,367.5C 340.686,356.828 341.019,346.161 341.5,335.5C 340.178,335.33 339.011,335.663 338,336.5C 338.106,331.943 336.772,327.943 334,324.5C 333.623,325.942 332.79,326.942 331.5,327.5C 330.711,327.217 330.044,326.717 329.5,326C 329.986,323.973 329.986,321.807 329.5,319.5C 328.127,319.657 326.793,319.49 325.5,319C 326.308,318.692 326.975,318.192 327.5,317.5C 325.031,316.832 322.698,316.165 320.5,315.5 Z"/></g>
<g><path style="opacity:1" fill="#050911" d="M 401.5,295.5 C 405.036,311.498 406.369,327.831 405.5,344.5C 405.5,345.167 405.5,345.833 405.5,346.5C 401.241,354.362 398.075,362.696 396,371.5C 393.997,373.458 391.831,373.791 389.5,372.5C 389.5,371.167 389.5,369.833 389.5,368.5C 390.473,369.984 391.807,370.484 393.5,370C 393.043,369.586 392.709,369.086 392.5,368.5C 394.141,365.442 394.974,362.108 395,358.5C 395.333,358.833 395.667,359.167 396,359.5C 396.689,358.643 397.522,357.977 398.5,357.5C 404.325,345.43 405.992,332.763 403.5,319.5C 401.857,315.355 400.857,311.022 400.5,306.5C 401.246,302.868 401.579,299.202 401.5,295.5 Z"/></g>
<g><path style="opacity:1" fill="#618396" d="M 87.5,342.5 C 89.1007,345.77 91.4341,348.437 94.5,350.5C 93.675,351.386 92.675,351.719 91.5,351.5C 91.5,356.833 91.5,362.167 91.5,367.5C 93.924,367.808 96.2573,367.474 98.5,366.5C 99.09,365.201 100.09,364.368 101.5,364C 102.12,361.527 102.786,359.027 103.5,356.5C 106.066,359.263 106.066,361.93 103.5,364.5C 102.952,366.532 101.619,367.532 99.5,367.5C 99.5,372.833 99.5,378.167 99.5,383.5C 86.1667,383.5 72.8333,383.5 59.5,383.5C 59.5,378.167 59.5,372.833 59.5,367.5C 61.3547,367.728 62.1881,367.061 62,365.5C 57.3333,360.833 52.6667,356.167 48,351.5C 47.5026,348.854 47.3359,346.187 47.5,343.5C 53.3027,342.913 58.8027,343.58 64,345.5C 68.8636,343.809 71.697,340.476 72.5,335.5C 71.1667,335.5 69.8333,335.5 68.5,335.5C 68.6984,331.743 67.3651,328.743 64.5,326.5C 58.8955,327.454 53.2289,327.788 47.5,327.5C 47.5,324.833 47.5,322.167 47.5,319.5C 56.1667,319.5 64.8333,319.5 73.5,319.5C 73.3379,321.527 73.5045,323.527 74,325.5C 76.071,333.101 80.571,338.768 87.5,342.5 Z"/></g>
<g><path style="opacity:1" fill="#140201" d="M 284.5,339.5 C 284.657,340.873 284.49,342.207 284,343.5C 280.502,346.817 276.669,349.484 272.5,351.5C 267.488,351.92 262.488,352.087 257.5,352C 255.808,350.599 255.141,348.766 255.5,346.5C 258.152,346.59 260.485,345.924 262.5,344.5C 265.518,344.665 268.518,344.498 271.5,344C 274.78,341.713 278.28,339.88 282,338.5C 282.902,338.743 283.735,339.077 284.5,339.5 Z"/></g>
<g><path style="opacity:1" fill="#628494" d="M 511.5,287.5 C 511.5,362.167 511.5,436.833 511.5,511.5C 434.167,511.5 356.833,511.5 279.5,511.5C 280.269,496.191 280.769,480.858 281,465.5C 281.333,464.833 281.667,464.167 282,463.5C 282.071,467.687 282.738,471.687 284,475.5C 284.384,469.806 284.384,464.14 284,458.5C 285.049,457.483 286.216,457.316 287.5,458C 286.359,458.741 286.359,459.575 287.5,460.5C 290.145,461.192 292.645,462.192 295,463.5C 295.333,463.167 295.667,462.833 296,462.5C 297.586,463.376 299.086,464.376 300.5,465.5C 302.55,464.923 303.55,463.59 303.5,461.5C 306.187,461.659 308.52,460.825 310.5,459C 308.355,458.257 308.189,457.424 310,456.5C 311.766,455.767 313.599,455.433 315.5,455.5C 316.313,456.653 317.313,456.653 318.5,455.5C 319.452,457.045 319.785,458.712 319.5,460.5C 317.549,460.773 316.049,460.107 315,458.5C 313.56,460.046 311.727,460.879 309.5,461C 310.624,461.249 311.624,461.749 312.5,462.5C 310.955,463.452 309.288,463.785 307.5,463.5C 307.33,464.822 307.663,465.989 308.5,467C 313.975,468.096 318.975,467.096 323.5,464C 325.473,463.505 327.473,463.338 329.5,463.5C 328.959,460.348 329.959,457.848 332.5,456C 336.112,453.361 340.112,451.528 344.5,450.5C 345.871,448.295 347.704,446.628 350,445.5C 352.726,447.057 355.559,448.39 358.5,449.5C 360.583,447.86 360.916,445.86 359.5,443.5C 362.167,443.5 364.833,443.5 367.5,443.5C 367.5,442.167 367.5,440.833 367.5,439.5C 372.833,439.5 378.167,439.5 383.5,439.5C 383.5,434.167 383.5,428.833 383.5,423.5C 386.695,424.039 389.195,423.039 391,420.5C 393.063,413.661 393.896,406.661 393.5,399.5C 396.833,399.5 400.167,399.5 403.5,399.5C 403.187,396.753 403.52,394.086 404.5,391.5C 407.569,389.097 410.236,386.431 412.5,383.5C 413.5,383.5 414.5,383.5 415.5,383.5C 415.335,386.85 415.502,390.183 416,393.5C 420.18,391.987 423.013,389.154 424.5,385C 422.036,381.518 422.702,378.518 426.5,376C 430.797,374.857 432.631,372.024 432,367.5C 436.971,373.187 442.137,378.52 447.5,383.5C 450.5,383.5 453.5,383.5 456.5,383.5C 457.178,390.467 454.178,394.467 447.5,395.5C 447.665,398.85 447.498,402.183 447,405.5C 444.138,406.796 441.638,408.629 439.5,411C 450.127,412.483 450.127,413.649 439.5,414.5C 439.238,415.978 439.571,417.311 440.5,418.5C 441.086,418.291 441.586,417.957 442,417.5C 443.835,419.727 443.335,421.56 440.5,423C 441.167,423.333 441.833,423.667 442.5,424C 438.719,427.479 438.719,430.812 442.5,434C 441.328,434.419 440.328,435.085 439.5,436C 442.047,438.696 445.047,439.196 448.5,437.5C 450.833,440.167 453.167,440.167 455.5,437.5C 457.868,439.223 460.534,439.89 463.5,439.5C 463.5,442.167 463.5,444.833 463.5,447.5C 466.167,447.5 468.833,447.5 471.5,447.5C 471.334,451.514 471.501,455.514 472,459.5C 474.3,457.933 476.8,456.767 479.5,456C 478.833,455.667 478.167,455.333 477.5,455C 480.646,452.688 483.646,450.188 486.5,447.5C 487.308,449.423 487.808,451.423 488,453.5C 490.039,452.022 490.872,450.022 490.5,447.5C 492.451,447.773 493.951,447.107 495,445.5C 495.49,446.793 495.657,448.127 495.5,449.5C 496.552,449.649 497.552,449.483 498.5,449C 499.13,447.108 500.13,445.441 501.5,444C 500.051,442.883 498.384,442.216 496.5,442C 495.874,441.25 495.374,440.416 495,439.5C 493.705,443.084 492.205,443.25 490.5,440C 491.38,438.644 491.714,437.144 491.5,435.5C 489.508,435.328 487.842,435.995 486.5,437.5C 483.002,436.814 481.835,434.814 483,431.5C 484.019,432.687 485.186,433.687 486.5,434.5C 487.586,430.845 487.586,427.178 486.5,423.5C 485.127,423.657 483.793,423.49 482.5,423C 485.135,421.836 487.802,420.669 490.5,419.5C 487.199,418.849 484.532,417.183 482.5,414.5C 483.5,412.833 484.833,411.5 486.5,410.5C 486.627,404.042 488.294,398.042 491.5,392.5C 492.325,391.614 493.325,391.281 494.5,391.5C 494.351,392.552 494.517,393.552 495,394.5C 495.98,393.019 497.147,391.685 498.5,390.5C 497.535,389.086 496.535,388.253 495.5,388C 496.009,386.831 496.842,385.998 498,385.5C 500.39,386.891 502.057,388.891 503,391.5C 503.892,388.716 505.058,386.05 506.5,383.5C 506.023,382.522 505.357,381.689 504.5,381C 501.518,380.502 498.518,380.335 495.5,380.5C 495.5,378.833 495.5,377.167 495.5,375.5C 496.675,375.719 497.675,375.386 498.5,374.5C 499.167,372.5 499.833,370.5 500.5,368.5C 501.325,367.614 502.325,367.281 503.5,367.5C 503.459,371.243 504.126,371.41 505.5,368C 504.736,365.931 504.236,363.764 504,361.5C 503.51,362.793 503.343,364.127 503.5,365.5C 500.996,366.639 498.33,367.306 495.5,367.5C 495.187,364.753 495.52,362.086 496.5,359.5C 499.577,355.538 502.744,355.538 506,359.5C 506.333,362.167 506.667,364.833 507,367.5C 507.667,364.167 507.667,360.833 507,357.5C 505.812,356.437 505.312,355.103 505.5,353.5C 502.996,352.361 500.33,351.694 497.5,351.5C 497.785,353.288 497.452,354.955 496.5,356.5C 495.575,357.641 494.741,357.641 494,356.5C 493.362,355.391 492.862,354.225 492.5,353C 493.885,351.403 494.551,349.57 494.5,347.5C 496.948,347.99 498.615,347.157 499.5,345C 498.511,341.568 497.011,341.068 495,343.5C 494.365,341.382 493.531,339.382 492.5,337.5C 492.833,336.833 493.167,336.167 493.5,335.5C 495.009,337.915 496.676,338.081 498.5,336C 497.167,335.333 497.167,334.667 498.5,334C 500.5,333.667 502.5,333.333 504.5,333C 505.279,331.006 505.613,329.172 505.5,327.5C 506.251,328.376 506.751,329.376 507,330.5C 507.5,316.171 507.667,301.837 507.5,287.5C 508.833,287.5 510.167,287.5 511.5,287.5 Z"/></g>
<g><path style="opacity:1" fill="#422210" d="M 172.5,351.5 C 173.672,354.69 174.672,358.023 175.5,361.5C 180.372,360.539 183.705,362.372 185.5,367C 186.793,367.49 188.127,367.657 189.5,367.5C 191.262,372.596 191.929,377.93 191.5,383.5C 194.167,383.5 196.833,383.5 199.5,383.5C 200.364,388.933 200.364,394.266 199.5,399.5C 201.167,399.5 202.833,399.5 204.5,399.5C 203.572,403.362 202.072,407.029 200,410.5C 199.506,412.134 199.34,413.801 199.5,415.5C 201.527,415.338 203.527,415.505 205.5,416C 205.167,416.333 204.833,416.667 204.5,417C 201.435,417.653 198.601,417.153 196,415.5C 194.301,415.387 193.134,416.053 192.5,417.5C 192.167,417.5 191.833,417.5 191.5,417.5C 191.5,416.833 191.5,416.167 191.5,415.5C 190.916,412.017 191.749,409.017 194,406.5C 194.414,406.957 194.914,407.291 195.5,407.5C 196.48,404.914 196.813,402.247 196.5,399.5C 194.833,399.5 193.167,399.5 191.5,399.5C 191.5,396.833 191.5,394.167 191.5,391.5C 190.178,391.67 189.011,391.337 188,390.5C 185.835,383.75 183.501,377.083 181,370.5C 180.167,369.5 179.333,368.5 178.5,367.5C 178.167,368 177.833,368.5 177.5,369C 178.504,370.798 179.004,372.632 179,374.5C 176.837,372.859 175.337,370.859 174.5,368.5C 172.98,362.977 172.314,357.31 172.5,351.5 Z"/></g>
<g><path style="opacity:1" fill="#492511" d="M 340.5,367.5 C 338.259,368.3 337.259,369.966 337.5,372.5C 336.167,372.5 334.833,372.5 333.5,372.5C 332.862,374.799 331.862,376.966 330.5,379C 330.833,379.333 331.167,379.667 331.5,380C 328.883,391.787 324.883,403.121 319.5,414C 314.316,419.405 308.983,424.572 303.5,429.5C 303.5,430.167 303.5,430.833 303.5,431.5C 302.833,431.5 302.167,431.5 301.5,431.5C 299.315,431.704 297.315,432.37 295.5,433.5C 295.34,431.801 295.506,430.134 296,428.5C 298.232,423.92 300.732,419.586 303.5,415.5C 307.826,414.72 311.326,412.386 314,408.5C 315.707,409.138 317.54,409.138 319.5,408.5C 321.307,402.769 323.64,397.269 326.5,392C 325.903,390.938 325.57,389.772 325.5,388.5C 326.082,384.845 326.582,381.178 327,377.5C 327.333,378.5 327.667,379.5 328,380.5C 328.629,376.129 328.463,371.796 327.5,367.5C 328.978,367.762 330.311,367.429 331.5,366.5C 332.541,364.415 334.041,362.748 336,361.5C 338.186,352.709 337.853,344.043 335,335.5C 334.503,338.146 334.336,340.813 334.5,343.5C 333.5,343.5 332.5,343.5 331.5,343.5C 330.64,337.876 330.64,332.542 331.5,327.5C 332.79,326.942 333.623,325.942 334,324.5C 336.772,327.943 338.106,331.943 338,336.5C 339.011,335.663 340.178,335.33 341.5,335.5C 341.019,346.161 340.686,356.828 340.5,367.5 Z"/></g>
<g><path style="opacity:1" fill="#618192" d="M 405.5,346.5 C 405.159,350.709 404.492,354.875 403.5,359C 403.684,360.376 404.351,361.209 405.5,361.5C 406.935,362.824 407.935,364.491 408.5,366.5C 409.325,367.386 410.325,367.719 411.5,367.5C 411.29,371.161 411.956,374.661 413.5,378C 413.057,379.825 412.723,381.658 412.5,383.5C 410.236,386.431 407.569,389.097 404.5,391.5C 403.52,394.086 403.187,396.753 403.5,399.5C 400.167,399.5 396.833,399.5 393.5,399.5C 393.896,406.661 393.063,413.661 391,420.5C 389.195,423.039 386.695,424.039 383.5,423.5C 383.5,428.833 383.5,434.167 383.5,439.5C 378.167,439.5 372.833,439.5 367.5,439.5C 367.5,440.833 367.5,442.167 367.5,443.5C 364.833,443.5 362.167,443.5 359.5,443.5C 360.916,445.86 360.583,447.86 358.5,449.5C 355.559,448.39 352.726,447.057 350,445.5C 347.704,446.628 345.871,448.295 344.5,450.5C 340.112,451.528 336.112,453.361 332.5,456C 329.959,457.848 328.959,460.348 329.5,463.5C 327.473,463.338 325.473,463.505 323.5,464C 318.975,467.096 313.975,468.096 308.5,467C 307.663,465.989 307.33,464.822 307.5,463.5C 309.288,463.785 310.955,463.452 312.5,462.5C 311.624,461.749 310.624,461.249 309.5,461C 311.727,460.879 313.56,460.046 315,458.5C 316.049,460.107 317.549,460.773 319.5,460.5C 319.785,458.712 319.452,457.045 318.5,455.5C 317.313,456.653 316.313,456.653 315.5,455.5C 315.082,454.778 314.416,454.278 313.5,454C 314.624,453.751 315.624,453.251 316.5,452.5C 317.58,450.004 318.914,447.67 320.5,445.5C 322.599,447.52 324.933,447.854 327.5,446.5C 325.389,445.395 324.055,443.729 323.5,441.5C 326.796,437.702 330.296,434.036 334,430.5C 337.829,422.837 342.163,415.504 347,408.5C 351.196,406.405 355.196,404.072 359,401.5C 361.077,395.766 363.243,390.099 365.5,384.5C 369.443,380.667 374.109,378.001 379.5,376.5C 382.242,374.745 385.076,373.078 388,371.5C 388.383,372.056 388.883,372.389 389.5,372.5C 391.831,373.791 393.997,373.458 396,371.5C 398.075,362.696 401.241,354.362 405.5,346.5 Z"/></g>
<g><path style="opacity:1" fill="#618293" d="M 184.5,84.5 C 183.432,85.4345 182.099,85.7678 180.5,85.5C 176.681,85.8833 173.014,86.8833 169.5,88.5C 166.159,92.5309 162.825,96.5309 159.5,100.5C 159.5,100.833 159.5,101.167 159.5,101.5C 153.305,105.182 147.805,109.849 143,115.5C 138.789,123.708 133.122,130.708 126,136.5C 124.295,138.577 123.128,140.91 122.5,143.5C 121.857,145.076 120.857,146.41 119.5,147.5C 118.504,147.586 117.671,147.252 117,146.5C 115.985,149.21 114.485,151.543 112.5,153.5C 111.534,155.396 111.201,157.396 111.5,159.5C 107.524,159.135 106.524,160.635 108.5,164C 105.208,168.238 104.542,172.905 106.5,178C 105.006,195.142 104.006,212.308 103.5,229.5C 103.122,231.921 102.455,234.254 101.5,236.5C 101.5,237.167 101.167,237.5 100.5,237.5C 99.5028,237.47 98.8361,237.97 98.5,239C 97.3404,243.486 95.5071,247.653 93,251.5C 91.8485,256.126 91.0152,260.793 90.5,265.5C 86.7605,279.932 85.5939,294.599 87,309.5C 88.3086,315.607 90.4753,321.274 93.5,326.5C 101.299,344.765 110.132,362.431 120,379.5C 121.731,381.617 123.898,383.117 126.5,384C 131.428,385.322 136.428,386.322 141.5,387C 145.113,390.613 148.779,394.279 152.5,398C 155.544,398.363 158.544,398.863 161.5,399.5C 163.167,400.833 164.833,402.167 166.5,403.5C 167.568,404.434 168.901,404.768 170.5,404.5C 171.241,413.944 170.241,423.111 167.5,432C 168.584,458.434 168.584,484.934 167.5,511.5C 149.167,511.5 130.833,511.5 112.5,511.5C 114.562,510.224 116.896,509.39 119.5,509C 119.167,508.667 118.833,508.333 118.5,508C 113.803,507.72 109.137,507.22 104.5,506.5C 103.034,505.865 101.7,505.031 100.5,504C 101.448,503.517 102.448,503.351 103.5,503.5C 103.71,497.034 104.377,497.034 105.5,503.5C 106.833,503.5 108.167,503.5 109.5,503.5C 110.414,497.796 110.414,492.129 109.5,486.5C 104.375,486.385 103.708,485.052 107.5,482.5C 106.833,482.167 106.167,481.833 105.5,481.5C 103.229,482.439 101.229,483.772 99.5,485.5C 95.6774,484.405 95.5107,482.738 99,480.5C 99.2117,477.242 99.7117,474.076 100.5,471C 99.6667,470.167 98.8333,469.333 98,468.5C 96.2581,463.77 94.4248,459.103 92.5,454.5C 93.0016,453.479 93.6683,453.312 94.5,454C 95.1029,455.825 95.7696,457.659 96.5,459.5C 98.1394,457.194 100.139,455.194 102.5,453.5C 103.348,451.591 103.682,449.591 103.5,447.5C 104.833,447.5 106.167,447.5 107.5,447.5C 107.5,436.833 107.5,426.167 107.5,415.5C 105.833,415.5 104.167,415.5 102.5,415.5C 103.303,410.524 106.136,407.191 111,405.5C 111.219,406.938 111.719,408.271 112.5,409.5C 114.444,408.811 116.444,408.311 118.5,408C 117.5,407.667 116.5,407.333 115.5,407C 114.291,403.625 111.958,401.458 108.5,400.5C 109.262,394.88 109.262,389.214 108.5,383.5C 106.833,383.5 105.167,383.5 103.5,383.5C 103.334,378.489 103.501,373.489 104,368.5C 106.019,366.876 105.852,365.543 103.5,364.5C 106.066,361.93 106.066,359.263 103.5,356.5C 102.786,359.027 102.12,361.527 101.5,364C 100.09,364.368 99.09,365.201 98.5,366.5C 96.2573,367.474 93.924,367.808 91.5,367.5C 91.5,362.167 91.5,356.833 91.5,351.5C 92.675,351.719 93.675,351.386 94.5,350.5C 91.4341,348.437 89.1007,345.77 87.5,342.5C 87.6355,339.449 87.3022,336.449 86.5,333.5C 88.8106,329.082 87.8106,325.415 83.5,322.5C 83.668,318.99 84.0013,315.49 84.5,312C 83.7278,301.183 83.0611,290.516 82.5,280C 84.1793,277.435 84.846,274.602 84.5,271.5C 83.5,271.5 82.5,271.5 81.5,271.5C 81.8134,274.247 81.48,276.914 80.5,279.5C 80.5986,273.474 80.0986,267.474 79,261.5C 72.5301,258.741 72.3634,256.408 78.5,254.5C 78.3333,254.167 78.1667,253.833 78,253.5C 73.2979,248.63 68.4646,243.963 63.5,239.5C 65.4313,236.012 66.9313,232.345 68,228.5C 69,229.167 70,229.833 71,230.5C 71.2492,229.376 71.7492,228.376 72.5,227.5C 73.8524,228.518 74.8524,229.851 75.5,231.5C 75.9491,228.956 75.9491,226.29 75.5,223.5C 76.5,223.5 77.5,223.5 78.5,223.5C 78.0976,215.76 77.0976,208.094 75.5,200.5C 76.8624,197.781 76.5291,195.281 74.5,193C 77.2152,190.731 79.5485,188.064 81.5,185C 79.609,183.043 78.4424,180.876 78,178.5C 79.6801,176.651 81.1801,174.651 82.5,172.5C 83.3857,173.325 83.719,174.325 83.5,175.5C 84.5,175.5 85.5,175.5 86.5,175.5C 86.5111,173.453 86.8444,171.453 87.5,169.5C 86.9628,168.259 86.2961,167.092 85.5,166C 86.7015,163.766 88.0348,161.599 89.5,159.5C 90.4656,157.604 90.7989,155.604 90.5,153.5C 93.4587,153.65 95.9587,152.65 98,150.5C 99.9157,145.933 102.582,141.933 106,138.5C 106.684,137.216 106.517,136.049 105.5,135C 108.359,133.309 109.692,130.809 109.5,127.5C 105.929,127.592 104.762,125.926 106,122.5C 108.73,119.643 111.896,118.977 115.5,120.5C 116.013,116.133 117.346,112.133 119.5,108.5C 122.573,107.801 125.573,106.801 128.5,105.5C 129.62,106.833 130.953,107.333 132.5,107C 135.206,103.78 138.04,100.613 141,97.5C 141.893,98.0814 142.893,98.4148 144,98.5C 148.027,96.6376 152.027,95.6376 156,95.5C 156.689,96.3567 157.522,97.0233 158.5,97.5C 159.59,96.273 160.924,95.4396 162.5,95C 161.167,94.3333 161.167,93.6667 162.5,93C 163.448,92.5172 164.448,92.3505 165.5,92.5C 165.34,90.8008 165.506,89.1341 166,87.5C 166.333,87.8333 166.667,88.1667 167,88.5C 167.374,87.5838 167.874,86.7504 168.5,86C 173.793,85.023 179.126,84.523 184.5,84.5 Z"/></g>
<g><path style="opacity:1" fill="#402114" d="M 191.5,415.5 C 191.167,415.5 190.833,415.5 190.5,415.5C 190.167,415.5 189.833,415.5 189.5,415.5C 188.869,411.196 188.369,406.863 188,402.5C 184.491,399.336 182.491,395.336 182,390.5C 180.516,386.868 178.516,383.534 176,380.5C 174.844,376.582 174.344,372.582 174.5,368.5C 175.337,370.859 176.837,372.859 179,374.5C 179.004,372.632 178.504,370.798 177.5,369C 177.833,368.5 178.167,368 178.5,367.5C 179.333,368.5 180.167,369.5 181,370.5C 183.501,377.083 185.835,383.75 188,390.5C 189.011,391.337 190.178,391.67 191.5,391.5C 191.5,394.167 191.5,396.833 191.5,399.5C 193.167,399.5 194.833,399.5 196.5,399.5C 196.813,402.247 196.48,404.914 195.5,407.5C 194.914,407.291 194.414,406.957 194,406.5C 191.749,409.017 190.916,412.017 191.5,415.5 Z"/></g>
<g><path style="opacity:1" fill="#311b12" d="M 171.5,351.5 C 171.833,351.5 172.167,351.5 172.5,351.5C 172.314,357.31 172.98,362.977 174.5,368.5C 174.344,372.582 174.844,376.582 176,380.5C 178.516,383.534 180.516,386.868 182,390.5C 182.491,395.336 184.491,399.336 188,402.5C 188.369,406.863 188.869,411.196 189.5,415.5C 187.233,410.888 185.233,406.055 183.5,401C 183.164,399.97 182.497,399.47 181.5,399.5C 179.867,393.568 177.2,388.234 173.5,383.5C 172.173,372.88 171.506,362.213 171.5,351.5 Z"/></g>
<g><path style="opacity:1" fill="#4d6469" d="M 389.5,368.5 C 389.5,369.833 389.5,371.167 389.5,372.5C 388.883,372.389 388.383,372.056 388,371.5C 385.076,373.078 382.242,374.745 379.5,376.5C 382.478,373.187 385.478,369.853 388.5,366.5C 389.298,366.957 389.631,367.624 389.5,368.5 Z"/></g>
<g><path style="opacity:1" fill="#4c240f" d="M 255.5,281.5 C 254.441,287.267 253.108,292.933 251.5,298.5C 252.675,298.281 253.675,298.614 254.5,299.5C 253.976,301.453 252.976,303.12 251.5,304.5C 251.481,306.106 251.647,307.772 252,309.5C 251.667,309.833 251.333,310.167 251,310.5C 250.362,309.391 249.862,308.225 249.5,307C 250.976,304.651 250.81,302.484 249,300.5C 246.743,304.012 244.243,307.346 241.5,310.5C 239.941,311.074 238.441,311.74 237,312.5C 236.792,314.859 236.626,317.026 236.5,319C 237.448,319.483 238.448,319.649 239.5,319.5C 239.5,320.833 239.5,322.167 239.5,323.5C 241.167,323.5 242.833,323.5 244.5,323.5C 245.162,327.466 245.495,331.466 245.5,335.5C 251.167,335.5 256.833,335.5 262.5,335.5C 262.629,337.216 262.962,338.883 263.5,340.5C 262.305,340.678 261.138,341.011 260,341.5C 258.174,340.99 258.007,340.156 259.5,339C 258.646,337.978 257.646,337.145 256.5,336.5C 253.362,338.424 250.029,339.924 246.5,341C 245.594,342.699 245.261,344.533 245.5,346.5C 248.558,346.626 248.891,348.126 246.5,351C 248.091,353.133 250.091,354.799 252.5,356C 250.996,357.337 249.996,359.004 249.5,361C 248.207,361.49 246.873,361.657 245.5,361.5C 245.938,357.092 243.938,355.425 239.5,356.5C 239.785,354.712 239.452,353.045 238.5,351.5C 237.341,355.122 237.175,358.789 238,362.5C 238.333,362.167 238.667,361.833 239,361.5C 239.447,364.975 240.28,368.309 241.5,371.5C 240.25,371.423 239.417,370.756 239,369.5C 231.483,379.452 234.317,384.952 247.5,386C 245.423,386.192 243.423,386.692 241.5,387.5C 244.5,389.5 247.5,391.5 250.5,393.5C 251.148,391.851 252.148,390.518 253.5,389.5C 255.51,391.171 257.843,391.838 260.5,391.5C 260.5,394.167 260.5,396.833 260.5,399.5C 263.55,398.923 265.55,400.09 266.5,403C 265.552,403.483 264.552,403.649 263.5,403.5C 263.649,402.448 263.483,401.448 263,400.5C 261.266,401.249 259.433,401.749 257.5,402C 262.088,405.461 267.088,408.127 272.5,410C 274.607,411.264 275.607,413.097 275.5,415.5C 282.305,416.039 283.638,413.872 279.5,409C 281.089,406.488 282.422,403.822 283.5,401C 283.355,400.228 283.022,399.561 282.5,399C 284.167,398.333 285.833,398.333 287.5,399C 286.692,399.308 286.025,399.808 285.5,400.5C 286.667,400.833 287.833,401.167 289,401.5C 293.62,399.027 298.12,399.027 302.5,401.5C 302.833,401.167 303.167,400.833 303.5,400.5C 302.5,399.667 301.5,398.833 300.5,398C 302.219,396.13 303.219,393.963 303.5,391.5C 305.08,393.717 306.08,396.384 306.5,399.5C 309.77,401.263 309.937,403.596 307,406.5C 302.252,405.365 297.419,405.198 292.5,406C 294.333,406.5 295.5,407.667 296,409.5C 296.414,409.043 296.914,408.709 297.5,408.5C 302.397,408.395 304.397,410.728 303.5,415.5C 300.732,419.586 298.232,423.92 296,428.5C 295.506,430.134 295.34,431.801 295.5,433.5C 293.194,433.993 290.861,434.326 288.5,434.5C 288.5,433.167 288.5,431.833 288.5,430.5C 284.262,428.879 280.262,429.213 276.5,431.5C 275.719,430.271 275.219,428.938 275,427.5C 273.024,426.572 271.191,425.405 269.5,424C 264.864,424.124 260.198,424.29 255.5,424.5C 254.267,418.569 252.267,412.903 249.5,407.5C 248.022,407.762 246.689,407.429 245.5,406.5C 244.568,404.205 243.735,401.871 243,399.5C 242.385,401.116 241.385,402.449 240,403.5C 239.814,401.1 239.314,398.766 238.5,396.5C 237.186,397.313 236.019,398.313 235,399.5C 234.814,397.1 234.314,394.766 233.5,392.5C 231.208,394.024 229.208,393.691 227.5,391.5C 226.351,388.265 225.018,385.099 223.5,382C 223.645,381.228 223.978,380.561 224.5,380C 224.133,375.435 223.133,371.102 221.5,367C 223.186,359.613 225.186,353.113 227.5,347.5C 228.053,343.103 226.386,339.937 222.5,338C 223.31,332.249 223.81,326.416 224,320.5C 225.878,319.947 227.378,318.947 228.5,317.5C 230.455,317.201 231.789,316.201 232.5,314.5C 236.785,310.881 240.785,306.881 244.5,302.5C 247.956,295.249 251.623,288.249 255.5,281.5 Z"/></g>
<g><path style="opacity:1" fill="#2f190e" d="M 340.5,367.5 C 340.833,367.5 341.167,367.5 341.5,367.5C 341.694,375.697 340.527,383.697 338,391.5C 333.46,399.247 329.46,407.247 326,415.5C 323.578,417.75 321.411,420.083 319.5,422.5C 317.866,423.207 316.532,424.373 315.5,426C 311.571,428.123 307.571,429.956 303.5,431.5C 303.5,430.833 303.5,430.167 303.5,429.5C 309.698,427.689 314.364,423.855 317.5,418C 318.938,417.781 320.271,417.281 321.5,416.5C 322.454,414.089 323.788,411.923 325.5,410C 329.778,400.363 334.111,390.697 338.5,381C 339.622,376.559 340.289,372.059 340.5,367.5 Z"/></g>
<g><path style="opacity:1" fill="#52240e" d="M 263.5,340.5 C 265.75,340.181 267.75,340.681 269.5,342C 267.073,342.902 264.74,343.736 262.5,344.5C 260.485,345.924 258.152,346.59 255.5,346.5C 255.141,348.766 255.808,350.599 257.5,352C 262.488,352.087 267.488,351.92 272.5,351.5C 275.322,351.322 277.989,350.655 280.5,349.5C 282.841,350.182 285.174,350.849 287.5,351.5C 287.594,354.541 286.094,356.207 283,356.5C 281.91,359.579 282.743,361.912 285.5,363.5C 287.111,362.68 287.778,361.346 287.5,359.5C 289.5,359.5 291.5,359.5 293.5,359.5C 293.664,362.187 293.497,364.854 293,367.5C 291.416,368.861 289.582,369.528 287.5,369.5C 287.238,370.978 287.571,372.311 288.5,373.5C 290.655,373.162 292.989,373.162 295.5,373.5C 293.878,369.511 295.211,368.511 299.5,370.5C 301.395,368.712 303.062,366.712 304.5,364.5C 305.799,365.09 306.632,366.09 307,367.5C 309.696,374.258 309.696,380.925 307,387.5C 306.667,387.167 306.333,386.833 306,386.5C 304.117,387.653 303.284,389.319 303.5,391.5C 303.219,393.963 302.219,396.13 300.5,398C 301.5,398.833 302.5,399.667 303.5,400.5C 303.167,400.833 302.833,401.167 302.5,401.5C 298.12,399.027 293.62,399.027 289,401.5C 287.833,401.167 286.667,400.833 285.5,400.5C 286.025,399.808 286.692,399.308 287.5,399C 285.833,398.333 284.167,398.333 282.5,399C 283.022,399.561 283.355,400.228 283.5,401C 282.422,403.822 281.089,406.488 279.5,409C 283.638,413.872 282.305,416.039 275.5,415.5C 275.607,413.097 274.607,411.264 272.5,410C 267.088,408.127 262.088,405.461 257.5,402C 259.433,401.749 261.266,401.249 263,400.5C 263.483,401.448 263.649,402.448 263.5,403.5C 264.552,403.649 265.552,403.483 266.5,403C 265.55,400.09 263.55,398.923 260.5,399.5C 260.5,396.833 260.5,394.167 260.5,391.5C 257.843,391.838 255.51,391.171 253.5,389.5C 252.148,390.518 251.148,391.851 250.5,393.5C 247.5,391.5 244.5,389.5 241.5,387.5C 243.423,386.692 245.423,386.192 247.5,386C 234.317,384.952 231.483,379.452 239,369.5C 239.417,370.756 240.25,371.423 241.5,371.5C 240.28,368.309 239.447,364.975 239,361.5C 238.667,361.833 238.333,362.167 238,362.5C 237.175,358.789 237.341,355.122 238.5,351.5C 239.452,353.045 239.785,354.712 239.5,356.5C 243.938,355.425 245.938,357.092 245.5,361.5C 246.873,361.657 248.207,361.49 249.5,361C 249.996,359.004 250.996,357.337 252.5,356C 250.091,354.799 248.091,353.133 246.5,351C 248.891,348.126 248.558,346.626 245.5,346.5C 245.261,344.533 245.594,342.699 246.5,341C 250.029,339.924 253.362,338.424 256.5,336.5C 257.646,337.145 258.646,337.978 259.5,339C 258.007,340.156 258.174,340.99 260,341.5C 261.138,341.011 262.305,340.678 263.5,340.5 Z"/></g>
<g><path style="opacity:1" fill="#0d0101" d="M 274.5,367.5 C 280.163,373.996 286.329,379.996 293,385.5C 293.483,386.448 293.649,387.448 293.5,388.5C 284.987,387.455 276.654,385.622 268.5,383C 260.142,382.624 251.809,381.957 243.5,381C 241.963,379.89 241.297,378.39 241.5,376.5C 245.705,374.322 249.705,371.656 253.5,368.5C 260.485,366.893 267.485,366.56 274.5,367.5 Z"/></g>
<g><path style="opacity:1" fill="#5e2b10" d="M 274.5,367.5 C 267.485,366.56 260.485,366.893 253.5,368.5C 249.705,371.656 245.705,374.322 241.5,376.5C 240.542,376.953 239.708,377.619 239,378.5C 238.549,375.686 239.382,373.353 241.5,371.5C 243.58,370.054 245.913,369.054 248.5,368.5C 249.624,367.086 250.624,365.586 251.5,364C 255.427,362.788 259.427,361.788 263.5,361C 265.332,360.252 266.999,359.252 268.5,358C 264.311,356.891 259.977,356.058 255.5,355.5C 260.156,354.723 264.823,354.057 269.5,353.5C 271.261,354.34 272.927,355.34 274.5,356.5C 274.291,357.086 273.957,357.586 273.5,358C 274.973,358.71 275.64,359.876 275.5,361.5C 276.552,361.351 277.552,361.517 278.5,362C 278.167,362.333 277.833,362.667 277.5,363C 278.685,364.353 280.019,365.52 281.5,366.5C 281.135,367.902 280.301,368.902 279,369.5C 277.594,368.586 276.094,367.92 274.5,367.5 Z"/></g>
<g><path style="opacity:1" fill="#3d2011" d="M 340.5,367.5 C 340.289,372.059 339.622,376.559 338.5,381C 334.111,390.697 329.778,400.363 325.5,410C 323.788,411.923 322.454,414.089 321.5,416.5C 320.271,417.281 318.938,417.781 317.5,418C 314.364,423.855 309.698,427.689 303.5,429.5C 308.983,424.572 314.316,419.405 319.5,414C 324.883,403.121 328.883,391.787 331.5,380C 331.167,379.667 330.833,379.333 330.5,379C 331.862,376.966 332.862,374.799 333.5,372.5C 334.833,372.5 336.167,372.5 337.5,372.5C 337.259,369.966 338.259,368.3 340.5,367.5 Z"/></g>
<g><path style="opacity:1" fill="#22323c" d="M 161.5,399.5 C 164.864,400.561 168.197,401.561 171.5,402.5C 171.5,402.833 171.5,403.167 171.5,403.5C 169.833,403.5 168.167,403.5 166.5,403.5C 164.833,402.167 163.167,400.833 161.5,399.5 Z"/></g>
<g><path style="opacity:1" fill="#160f0a" d="M 181.5,399.5 C 182.497,399.47 183.164,399.97 183.5,401C 185.233,406.055 187.233,410.888 189.5,415.5C 189.833,415.5 190.167,415.5 190.5,415.5C 189.185,439.235 189.185,462.901 190.5,486.5C 189.976,490.904 189.309,495.237 188.5,499.5C 187.733,498.828 187.066,497.995 186.5,497C 187.452,487.103 188.118,477.27 188.5,467.5C 187.786,465.189 186.786,463.022 185.5,461C 187.054,455.34 186.554,449.84 184,444.5C 182.589,434.877 181.755,425.21 181.5,415.5C 180.5,415.5 179.5,415.5 178.5,415.5C 178.33,414.178 178.663,413.011 179.5,412C 176.469,406.925 177.469,406.092 182.5,409.5C 182.833,409 183.167,408.5 183.5,408C 182.006,405.361 181.339,402.528 181.5,399.5 Z"/></g>
<g><path style="opacity:1" fill="#628396" d="M 127.5,415.5 C 134.508,415.334 141.508,415.5 148.5,416C 149.292,418.336 150.625,418.836 152.5,417.5C 155.149,418.972 157.982,419.972 161,420.5C 161.202,418.744 161.702,417.078 162.5,415.5C 162.651,420.405 163.484,425.405 165,430.5C 165.667,443.833 165.667,457.167 165,470.5C 160.692,465.871 157.859,466.538 156.5,472.5C 157.841,475.512 159.507,478.346 161.5,481C 160.614,488.15 160.447,495.316 161,502.5C 160.194,495.372 157.194,489.372 152,484.5C 151.138,482.913 150.471,481.246 150,479.5C 150.166,468.831 150.666,458.164 151.5,447.5C 145.463,447.829 139.463,447.496 133.5,446.5C 132.412,444.035 130.579,442.369 128,441.5C 127.5,432.84 127.334,424.173 127.5,415.5 Z"/></g>
<g><path style="opacity:1" fill="#3b1d0e" d="M 191.5,417.5 C 191.833,417.5 192.167,417.5 192.5,417.5C 193.5,417.5 194.5,417.5 195.5,417.5C 195.286,419.144 195.62,420.644 196.5,422C 200.465,422.108 204.132,422.941 207.5,424.5C 205.712,424.215 204.045,424.548 202.5,425.5C 204.897,427.575 207.231,429.575 209.5,431.5C 210.77,435.903 213.603,438.903 218,440.5C 218.36,442.608 219.027,444.608 220,446.5C 221.159,445.434 221.992,445.767 222.5,447.5C 219.5,447.5 216.5,447.5 213.5,447.5C 213.613,452.33 212.78,456.997 211,461.5C 210.29,460.027 209.124,459.36 207.5,459.5C 207.974,465.605 206.974,471.438 204.5,477C 205.65,485.212 205.984,493.379 205.5,501.5C 203.654,501.222 202.32,501.889 201.5,503.5C 203.377,504.06 205.377,505.227 207.5,507C 206.167,507.667 206.167,508.333 207.5,509C 204.166,510.084 200.832,510.918 197.5,511.5C 195.5,511.5 193.5,511.5 191.5,511.5C 191.5,480.167 191.5,448.833 191.5,417.5 Z"/></g>
<g><path style="opacity:1" fill="#100e0b" d="M 173.5,383.5 C 177.2,388.234 179.867,393.568 181.5,399.5C 181.339,402.528 182.006,405.361 183.5,408C 183.167,408.5 182.833,409 182.5,409.5C 177.469,406.092 176.469,406.925 179.5,412C 178.663,413.011 178.33,414.178 178.5,415.5C 179.5,415.5 180.5,415.5 181.5,415.5C 181.755,425.21 182.589,434.877 184,444.5C 186.554,449.84 187.054,455.34 185.5,461C 186.786,463.022 187.786,465.189 188.5,467.5C 188.118,477.27 187.452,487.103 186.5,497C 187.066,497.995 187.733,498.828 188.5,499.5C 187.838,503.466 187.505,507.466 187.5,511.5C 182.167,511.5 176.833,511.5 171.5,511.5C 171.5,483.167 171.5,454.833 171.5,426.5C 171.5,418.833 171.5,411.167 171.5,403.5C 171.5,403.167 171.5,402.833 171.5,402.5C 173.113,400.572 174.113,398.238 174.5,395.5C 173.567,391.571 173.234,387.571 173.5,383.5 Z"/></g>
<g><path style="opacity:1" fill="#03070e" d="M 365.5,384.5 C 363.243,390.099 361.077,395.766 359,401.5C 355.196,404.072 351.196,406.405 347,408.5C 342.163,415.504 337.829,422.837 334,430.5C 330.296,434.036 326.796,437.702 323.5,441.5C 318.726,445.098 314.06,448.931 309.5,453C 307.833,453.667 306.167,453.667 304.5,453C 303.748,452.329 303.414,451.496 303.5,450.5C 303.631,447.633 302.297,445.967 299.5,445.5C 300.952,444.698 302.618,444.198 304.5,444C 304.167,443.667 303.833,443.333 303.5,443C 306.646,442.89 307.646,441.557 306.5,439C 307.646,438.355 308.646,437.522 309.5,436.5C 313.089,436.088 316.256,434.755 319,432.5C 319.414,432.957 319.914,433.291 320.5,433.5C 321.833,432.833 321.833,432.167 320.5,431.5C 319.167,431.167 317.833,430.833 316.5,430.5C 317.522,429.646 318.355,428.646 319,427.5C 319.308,428.308 319.808,428.975 320.5,429.5C 323.174,428.483 325.84,428.316 328.5,429C 328.167,428.667 327.833,428.333 327.5,428C 329.43,425.742 330.93,423.242 332,420.5C 333.194,418.475 334.694,418.141 336.5,419.5C 338.651,414.687 341.651,410.521 345.5,407C 345.167,406.667 344.833,406.333 344.5,406C 347.387,404.214 350.387,402.714 353.5,401.5C 353.709,400.914 354.043,400.414 354.5,400C 352.866,399.506 351.199,399.34 349.5,399.5C 349.298,397.011 349.798,394.677 351,392.5C 351.49,393.793 351.657,395.127 351.5,396.5C 354.444,397.84 357.111,397.507 359.5,395.5C 360.258,390.97 362.258,387.303 365.5,384.5 Z"/></g>
<g><path style="opacity:1" fill="#1a110f" d="M 319.5,422.5 C 318.055,425.118 316.389,427.618 314.5,430C 302.544,436.647 290.877,443.814 279.5,451.5C 276.833,452.167 274.167,452.833 271.5,453.5C 271.5,453.167 271.5,452.833 271.5,452.5C 274.172,452.172 275.839,450.672 276.5,448C 283.832,445.332 290.499,441.499 296.5,436.5C 297.973,434.605 299.64,432.939 301.5,431.5C 302.167,431.5 302.833,431.5 303.5,431.5C 307.571,429.956 311.571,428.123 315.5,426C 316.532,424.373 317.866,423.207 319.5,422.5 Z"/></g>
<g><path style="opacity:1" fill="#381c11" d="M 301.5,431.5 C 299.64,432.939 297.973,434.605 296.5,436.5C 288.656,439.648 280.822,442.982 273,446.5C 272.667,446.167 272.333,445.833 272,445.5C 270.887,447.592 270.721,449.925 271.5,452.5C 271.5,452.833 271.5,453.167 271.5,453.5C 266.156,453.666 260.823,453.499 255.5,453C 252.524,452.295 249.858,451.129 247.5,449.5C 252.013,450.628 256.513,450.628 261,449.5C 263.823,447.682 266.656,445.849 269.5,444C 276.162,440.89 283.162,438.557 290.5,437C 292.346,435.97 294.013,434.804 295.5,433.5C 297.315,432.37 299.315,431.704 301.5,431.5 Z"/></g>
<g><path style="opacity:1" fill="#5c7582" d="M 166.5,403.5 C 168.167,403.5 169.833,403.5 171.5,403.5C 171.5,411.167 171.5,418.833 171.5,426.5C 170.49,454.664 169.824,482.997 169.5,511.5C 168.833,511.5 168.167,511.5 167.5,511.5C 168.584,484.934 168.584,458.434 167.5,432C 170.241,423.111 171.241,413.944 170.5,404.5C 168.901,404.768 167.568,404.434 166.5,403.5 Z"/></g>
<g><path style="opacity:1" fill="#271610" d="M 296.5,436.5 C 290.499,441.499 283.832,445.332 276.5,448C 275.839,450.672 274.172,452.172 271.5,452.5C 270.721,449.925 270.887,447.592 272,445.5C 272.333,445.833 272.667,446.167 273,446.5C 280.822,442.982 288.656,439.648 296.5,436.5 Z"/></g>
<g><path style="opacity:1" fill="#372014" d="M 209.5,431.5 C 218.64,440.041 228.64,447.041 239.5,452.5C 239.369,453.239 239.536,453.906 240,454.5C 241.591,456.178 243.091,457.178 244.5,457.5C 243.923,459.106 243.59,460.772 243.5,462.5C 244.995,466.287 245.662,470.287 245.5,474.5C 247.099,474.232 248.432,474.566 249.5,475.5C 247.801,475.66 246.134,475.494 244.5,475C 244.105,468.706 241.272,463.873 236,460.5C 234.376,456.928 231.876,454.094 228.5,452C 226.975,450.991 225.308,450.491 223.5,450.5C 223.737,449.209 223.404,448.209 222.5,447.5C 221.992,445.767 221.159,445.434 220,446.5C 219.027,444.608 218.36,442.608 218,440.5C 213.603,438.903 210.77,435.903 209.5,431.5 Z"/></g>
<g><path style="opacity:1" fill="#41200e" d="M 222.5,447.5 C 223.404,448.209 223.737,449.209 223.5,450.5C 225.308,450.491 226.975,450.991 228.5,452C 231.876,454.094 234.376,456.928 236,460.5C 241.272,463.873 244.105,468.706 244.5,475C 246.134,475.494 247.801,475.66 249.5,475.5C 252.238,487.281 253.238,499.281 252.5,511.5C 234.167,511.5 215.833,511.5 197.5,511.5C 200.832,510.918 204.166,510.084 207.5,509C 206.167,508.333 206.167,507.667 207.5,507C 205.377,505.227 203.377,504.06 201.5,503.5C 202.32,501.889 203.654,501.222 205.5,501.5C 205.984,493.379 205.65,485.212 204.5,477C 206.974,471.438 207.974,465.605 207.5,459.5C 209.124,459.36 210.29,460.027 211,461.5C 212.78,456.997 213.613,452.33 213.5,447.5C 216.5,447.5 219.5,447.5 222.5,447.5 Z"/></g>
<g><path style="opacity:1" fill="#2d3c43" d="M 298.5,446.5 C 298.5,445.833 298.833,445.5 299.5,445.5C 302.297,445.967 303.631,447.633 303.5,450.5C 302.441,448.445 300.775,447.111 298.5,446.5 Z"/></g>
<g><path style="opacity:1" fill="#0b0705" d="M 207.5,424.5 C 220.792,432.817 234.126,441.151 247.5,449.5C 249.858,451.129 252.524,452.295 255.5,453C 260.823,453.499 266.156,453.666 271.5,453.5C 274.167,452.833 276.833,452.167 279.5,451.5C 280.117,451.611 280.617,451.944 281,452.5C 283.69,450.146 284.19,450.813 282.5,454.5C 280.139,454.674 277.806,455.007 275.5,455.5C 275.5,458.167 275.5,460.833 275.5,463.5C 273.131,463.149 270.797,462.982 268.5,463C 267.833,465.333 267.167,467.667 266.5,470C 268.212,472.366 269.878,474.699 271.5,477C 271.508,480.154 270.842,480.321 269.5,477.5C 268.808,478.025 268.308,478.692 268,479.5C 267.171,484.864 267.337,490.198 268.5,495.5C 270.858,497.024 272.691,499.024 274,501.5C 275.018,500.294 275.518,500.627 275.5,502.5C 273.392,503.297 271.392,504.963 269.5,507.5C 268.571,508.689 268.238,510.022 268.5,511.5C 263.833,511.5 259.167,511.5 254.5,511.5C 254.5,508.833 254.5,506.167 254.5,503.5C 256.002,494.536 255.502,485.536 253,476.5C 246.438,471.255 244.605,464.755 247.5,457C 245.547,454.288 242.88,452.788 239.5,452.5C 228.64,447.041 218.64,440.041 209.5,431.5C 207.231,429.575 204.897,427.575 202.5,425.5C 204.045,424.548 205.712,424.215 207.5,424.5 Z"/></g>
<g><path style="opacity:1" fill="#607b8a" d="M 323.5,441.5 C 324.055,443.729 325.389,445.395 327.5,446.5C 324.933,447.854 322.599,447.52 320.5,445.5C 318.914,447.67 317.58,450.004 316.5,452.5C 315.624,453.251 314.624,453.751 313.5,454C 314.416,454.278 315.082,454.778 315.5,455.5C 313.599,455.433 311.766,455.767 310,456.5C 308.189,457.424 308.355,458.257 310.5,459C 308.52,460.825 306.187,461.659 303.5,461.5C 303.55,463.59 302.55,464.923 300.5,465.5C 299.086,464.376 297.586,463.376 296,462.5C 295.667,462.833 295.333,463.167 295,463.5C 292.645,462.192 290.145,461.192 287.5,460.5C 286.359,459.575 286.359,458.741 287.5,458C 286.216,457.316 285.049,457.483 284,458.5C 284.384,464.14 284.384,469.806 284,475.5C 282.738,471.687 282.071,467.687 282,463.5C 281.667,464.167 281.333,464.833 281,465.5C 280.769,480.858 280.269,496.191 279.5,511.5C 279.167,511.5 278.833,511.5 278.5,511.5C 277.614,493.507 277.448,475.507 278,457.5C 279.652,456.601 281.152,455.601 282.5,454.5C 287.86,451.82 293.193,449.153 298.5,446.5C 300.775,447.111 302.441,448.445 303.5,450.5C 303.414,451.496 303.748,452.329 304.5,453C 306.167,453.667 307.833,453.667 309.5,453C 314.06,448.931 318.726,445.098 323.5,441.5 Z"/></g>
<g><path style="opacity:1" fill="#23160e" d="M 239.5,452.5 C 242.88,452.788 245.547,454.288 247.5,457C 244.605,464.755 246.438,471.255 253,476.5C 255.502,485.536 256.002,494.536 254.5,503.5C 255.26,494.21 254.094,485.21 251,476.5C 250.617,475.944 250.117,475.611 249.5,475.5C 248.432,474.566 247.099,474.232 245.5,474.5C 245.662,470.287 244.995,466.287 243.5,462.5C 243.59,460.772 243.923,459.106 244.5,457.5C 243.091,457.178 241.591,456.178 240,454.5C 239.536,453.906 239.369,453.239 239.5,452.5 Z"/></g>
<g><path style="opacity:1" fill="#050809" d="M 282.5,454.5 C 281.152,455.601 279.652,456.601 278,457.5C 277.448,475.507 277.614,493.507 278.5,511.5C 275.167,511.5 271.833,511.5 268.5,511.5C 268.238,510.022 268.571,508.689 269.5,507.5C 271.392,504.963 273.392,503.297 275.5,502.5C 275.518,500.627 275.018,500.294 274,501.5C 272.691,499.024 270.858,497.024 268.5,495.5C 267.337,490.198 267.171,484.864 268,479.5C 268.308,478.692 268.808,478.025 269.5,477.5C 270.842,480.321 271.508,480.154 271.5,477C 269.878,474.699 268.212,472.366 266.5,470C 267.167,467.667 267.833,465.333 268.5,463C 270.797,462.982 273.131,463.149 275.5,463.5C 275.5,460.833 275.5,458.167 275.5,455.5C 277.806,455.007 280.139,454.674 282.5,454.5 Z"/></g>
<g><path style="opacity:1" fill="#2f1b10" d="M 249.5,475.5 C 250.117,475.611 250.617,475.944 251,476.5C 254.094,485.21 255.26,494.21 254.5,503.5C 254.5,506.167 254.5,508.833 254.5,511.5C 253.833,511.5 253.167,511.5 252.5,511.5C 253.238,499.281 252.238,487.281 249.5,475.5 Z"/></g>
<g><path style="opacity:1" fill="#1f160f" d="M 190.5,415.5 C 190.833,415.5 191.167,415.5 191.5,415.5C 191.5,416.167 191.5,416.833 191.5,417.5C 191.5,448.833 191.5,480.167 191.5,511.5C 190.167,511.5 188.833,511.5 187.5,511.5C 187.505,507.466 187.838,503.466 188.5,499.5C 189.309,495.237 189.976,490.904 190.5,486.5C 189.185,462.901 189.185,439.235 190.5,415.5 Z"/></g>
<g><path style="opacity:1" fill="#18242b" d="M 171.5,426.5 C 171.5,454.833 171.5,483.167 171.5,511.5C 170.833,511.5 170.167,511.5 169.5,511.5C 169.824,482.997 170.49,454.664 171.5,426.5 Z"/></g>
</svg>
