<?xml version="1.0" encoding="UTF-8"?>
<!DOCTYPE svg PUBLIC "-//W3C//DTD SVG 1.1//EN" "http://www.w3.org/Graphics/SVG/1.1/DTD/svg11.dtd">
<svg xmlns="http://www.w3.org/2000/svg" version="1.1" width="512px" height="512px" style="shape-rendering:geometricPrecision; text-rendering:geometricPrecision; image-rendering:optimizeQuality; fill-rule:evenodd; clip-rule:evenodd" xmlns:xlink="http://www.w3.org/1999/xlink">
<g><path style="opacity:1" fill="#648596" d="M -0.5,-0.5 C 170.167,-0.5 340.833,-0.5 511.5,-0.5C 511.5,170.167 511.5,340.833 511.5,511.5C 431.5,511.5 351.5,511.5 271.5,511.5C 271.96,494.469 272.96,477.469 274.5,460.5C 276.488,459.711 276.821,458.545 275.5,457C 278.852,456.162 282.185,455.329 285.5,454.5C 288.066,454.344 290.566,454.678 293,455.5C 292.822,453.56 293.822,451.893 296,450.5C 299,449.167 302,447.833 305,446.5C 308.686,447.991 310.186,446.657 309.5,442.5C 315.509,440.887 321.176,438.221 326.5,434.5C 328.836,436.118 328.836,437.952 326.5,440C 327.833,440.667 329.167,440.667 330.5,440C 332.245,436.224 332.912,432.391 332.5,428.5C 337.666,426.075 342.999,423.241 348.5,420C 350.19,416.474 351.856,412.974 353.5,409.5C 355.318,406.026 357.318,402.693 359.5,399.5C 360.29,398.391 360.79,397.058 361,395.5C 361.123,364.666 360.623,334 359.5,303.5C 361.479,285.745 362.812,267.912 363.5,250C 363.362,245.655 362.695,241.488 361.5,237.5C 361.802,230.984 362.969,224.651 365,218.5C 365.925,217.953 366.758,217.287 367.5,216.5C 365.955,215.548 364.288,215.215 362.5,215.5C 362.842,214.662 363.508,214.328 364.5,214.5C 370.616,214.176 376.616,214.843 382.5,216.5C 391.671,215.762 395.338,210.762 393.5,201.5C 393.5,198.167 393.5,194.833 393.5,191.5C 394.833,191.5 396.167,191.5 397.5,191.5C 398.93,183.384 396.93,176.384 391.5,170.5C 391.573,168.973 390.906,167.973 389.5,167.5C 379.915,148.413 366.915,131.747 350.5,117.5C 345.858,114.023 340.858,111.189 335.5,109C 325.073,105.967 314.407,104.8 303.5,105.5C 273.179,106.269 242.846,106.769 212.5,107C 206.883,108.052 201.216,108.718 195.5,109C 193.563,109.122 192.23,109.955 191.5,111.5C 189.973,111.427 188.973,112.094 188.5,113.5C 183.567,117.25 178.234,120.417 172.5,123C 170.963,124.11 170.297,125.61 170.5,127.5C 169.167,127.5 167.833,127.5 166.5,127.5C 166.483,129.565 166.15,131.565 165.5,133.5C 164.833,133.833 164.167,134.167 163.5,134.5C 162.25,134.577 161.417,135.244 161,136.5C 160.667,135.833 160.333,135.167 160,134.5C 159.51,135.793 159.343,137.127 159.5,138.5C 157.856,138.286 156.356,138.62 155,139.5C 152.143,146.346 149.31,153.179 146.5,160C 145.316,170.497 145.316,180.997 146.5,191.5C 145.778,191.082 145.278,190.416 145,189.5C 144.491,201.446 143.658,201.446 142.5,189.5C 140.589,186.878 138.255,184.711 135.5,183C 138.369,182.623 140.869,183.456 143,185.5C 143.495,183.527 143.662,181.527 143.5,179.5C 140.214,179.071 137.047,179.071 134,179.5C 132.886,183.694 131.719,187.861 130.5,192C 131.764,193.861 132.764,195.861 133.5,198C 132.204,202.071 131.371,206.238 131,210.5C 129.989,211.337 128.822,211.67 127.5,211.5C 127.657,210.127 127.49,208.793 127,207.5C 126.667,210.167 126.333,212.833 126,215.5C 124.933,216.943 123.766,218.276 122.5,219.5C 124.156,220.992 125.656,222.658 127,224.5C 127.893,223.289 128.726,223.289 129.5,224.5C 127.751,226.516 125.751,228.182 123.5,229.5C 123.131,232.386 123.131,235.386 123.5,238.5C 122.5,239.833 121.5,239.833 120.5,238.5C 121.656,235.532 120.656,233.365 117.5,232C 120.95,230.641 121.45,228.474 119,225.5C 117.647,226.685 116.48,228.019 115.5,229.5C 113.24,227.593 113.073,225.593 115,223.5C 115.667,220.167 115.667,216.833 115,213.5C 113.284,212.448 112.284,213.114 112,215.5C 111.28,213.888 111.446,212.388 112.5,211C 117.258,211.408 119.591,209.241 119.5,204.5C 115.94,205.109 113.94,203.609 113.5,200C 114.709,196.899 116.375,196.732 118.5,199.5C 119.833,197.833 119.833,196.167 118.5,194.5C 116.49,196.171 114.157,196.838 111.5,196.5C 111.5,194.833 111.5,193.167 111.5,191.5C 109.801,191.66 108.134,191.494 106.5,191C 103.681,186.516 100.181,182.682 96,179.5C 95.51,178.207 95.3433,176.873 95.5,175.5C 90.1667,175.5 84.8333,175.5 79.5,175.5C 79.8204,178.898 79.487,182.232 78.5,185.5C 76.8667,184.256 75.8667,184.756 75.5,187C 76.6155,188.235 76.6155,189.402 75.5,190.5C 78.6915,193.555 79.0248,196.721 76.5,200C 80.3861,204.03 79.3861,206.53 73.5,207.5C 72.7557,218.494 72.089,229.494 71.5,240.5C 65.5048,240.951 65.1714,242.284 70.5,244.5C 71.3567,243.264 72.0234,241.931 72.5,240.5C 73.5,239.167 74.5,239.167 75.5,240.5C 77.6422,242.57 78.9756,245.07 79.5,248C 78.8333,248.667 78.1667,249.333 77.5,250C 79.1554,251.444 79.822,253.278 79.5,255.5C 78.5,255.5 77.5,255.5 76.5,255.5C 76.213,260.006 76.0463,264.34 76,268.5C 74.4878,269.257 73.1545,270.257 72,271.5C 71.6095,267.834 70.4429,267.668 68.5,271C 71.4297,273.12 73.263,275.953 74,279.5C 75.1919,274.902 76.8586,274.569 79,278.5C 79.3333,276.167 79.6667,273.833 80,271.5C 84.6667,276.167 89.3333,280.833 94,285.5C 94.1667,285.833 94.3333,286.167 94.5,286.5C 92.9547,287.452 91.288,287.785 89.5,287.5C 89.5,298.167 89.5,308.833 89.5,319.5C 88.325,319.281 87.325,319.614 86.5,320.5C 88.7962,325.419 90.7962,330.419 92.5,335.5C 93.5,335.5 94.5,335.5 95.5,335.5C 95.665,338.85 95.4983,342.183 95,345.5C 92.9287,346.364 91.262,347.697 90,349.5C 89.5005,355.491 89.3338,361.491 89.5,367.5C 91.288,367.215 92.9547,367.548 94.5,368.5C 90,372.833 85.5,377.167 81,381.5C 80.8119,383.061 81.6453,383.728 83.5,383.5C 83.5,388.833 83.5,394.167 83.5,399.5C 81.6453,399.272 80.8119,399.939 81,401.5C 85.5,405.833 90,410.167 94.5,414.5C 88.3634,416.408 88.5301,418.741 95,421.5C 95.6667,428.167 95.6667,434.833 95,441.5C 93.414,442.376 91.914,443.376 90.5,444.5C 89.3361,448.507 87.3361,452.007 84.5,455C 80.0642,456.538 76.3976,459.038 73.5,462.5C 75.1667,463.167 76.8333,463.833 78.5,464.5C 78.3333,464.833 78.1667,465.167 78,465.5C 73.5,469.833 69,474.167 64.5,478.5C 59.1667,479.833 53.8333,479.833 48.5,478.5C 53.4085,473.646 58.0751,468.646 62.5,463.5C 62.3333,462.833 62.1667,462.167 62,461.5C 57.3451,456.679 52.5118,452.012 47.5,447.5C 47.2176,449.987 47.2176,452.653 47.5,455.5C 45.712,455.785 44.0453,455.452 42.5,454.5C 43.3661,452.568 44.0328,450.568 44.5,448.5C 43.6716,445.521 43.0049,442.521 42.5,439.5C 41.0222,439.238 39.6888,439.571 38.5,440.5C 37.5,442.5 36.5,444.5 35.5,446.5C 36.853,447.685 38.0197,449.019 39,450.5C 39.3333,448.167 39.6667,445.833 40,443.5C 40.4221,445.355 40.9221,447.189 41.5,449C 40.2272,451.516 40.2272,454.016 41.5,456.5C 39.9848,458.547 39.1515,460.881 39,463.5C 38.1376,461.913 37.4709,460.246 37,458.5C 35.2816,460.202 35.115,462.035 36.5,464C 35.5399,465.419 34.7065,466.919 34,468.5C 31.6504,469.635 29.1504,470.469 26.5,471C 28.5,471.333 30.5,471.667 32.5,472C 31.3781,475.409 31.2114,478.909 32,482.5C 32.1177,479.629 32.7844,476.962 34,474.5C 34.3108,476.556 34.8108,478.556 35.5,480.5C 33.0941,483.513 31.5941,486.846 31,490.5C 33.3757,491.376 34.8757,493.042 35.5,495.5C 37.3601,490.386 39.0268,490.386 40.5,495.5C 41.8333,498.167 43.1667,498.167 44.5,495.5C 45.3857,496.325 45.719,497.325 45.5,498.5C 49.1823,498.591 52.349,499.924 55,502.5C 55.805,500.099 56.6383,500.266 57.5,503C 56.8333,503.333 56.1667,503.667 55.5,504C 58.146,504.497 60.8127,504.664 63.5,504.5C 63.6495,503.448 63.4828,502.448 63,501.5C 62.1072,502.711 61.2739,502.711 60.5,501.5C 59.9067,499.618 59.2401,497.785 58.5,496C 57.2559,495.544 56.4226,496.044 56,497.5C 55.2496,496.874 54.4162,496.374 53.5,496C 54.6621,495.173 55.8288,494.34 57,493.5C 61.0755,494.353 63.9088,496.686 65.5,500.5C 66.1667,498.833 66.8333,497.167 67.5,495.5C 68.48,498.086 68.8134,500.753 68.5,503.5C 69.5,503.5 70.5,503.5 71.5,503.5C 71.5,504.5 71.5,505.5 71.5,506.5C 74.5983,506.587 74.9316,506.087 72.5,505C 75.0278,504.331 75.0278,503.498 72.5,502.5C 71.5713,501.311 71.238,499.978 71.5,498.5C 74.5682,498.547 77.5682,499.047 80.5,500C 81.1667,501.333 81.8333,502.667 82.5,504C 81.8333,504.333 81.1667,504.667 80.5,505C 86.9385,506.377 87.7719,505.211 83,501.5C 82.0752,498.866 82.9085,497.699 85.5,498C 86.1258,498.75 86.6258,499.584 87,500.5C 87.3333,498.833 87.6667,497.167 88,495.5C 88.9492,498.2 90.7825,499.033 93.5,498C 94.376,496.414 95.376,494.914 96.5,493.5C 98.6732,495.17 100.84,496.837 103,498.5C 103.018,496.203 102.851,493.869 102.5,491.5C 103.552,491.649 104.552,491.483 105.5,491C 105.455,486.719 107.455,483.885 111.5,482.5C 112.935,483.824 113.935,485.49 114.5,487.5C 116.337,476.98 117.67,476.98 118.5,487.5C 120.167,487.5 121.833,487.5 123.5,487.5C 124.055,483.092 126.055,482.425 129.5,485.5C 131.453,484.844 133.453,484.511 135.5,484.5C 135.5,485.5 135.5,486.5 135.5,487.5C 132.833,487.5 130.167,487.5 127.5,487.5C 127.5,488.833 127.5,490.167 127.5,491.5C 130.711,491.988 133.544,491.321 136,489.5C 139.157,491.757 138.99,493.923 135.5,496C 136.872,496.402 138.205,496.902 139.5,497.5C 140.41,499.655 141.577,501.655 143,503.5C 145.944,501.628 147.111,498.961 146.5,495.5C 148.857,495.337 151.19,495.503 153.5,496C 152.277,498.052 151.277,500.219 150.5,502.5C 149.5,503 148.5,503.5 147.5,504C 151.51,503.304 155.51,503.471 159.5,504.5C 158.494,500.024 160.16,497.858 164.5,498C 165.426,502.467 166.426,506.967 167.5,511.5C 111.5,511.5 55.5,511.5 -0.5,511.5C -0.5,340.833 -0.5,170.167 -0.5,-0.5 Z"/></g>
<g><path style="opacity:1" fill="#7970a7" d="M 303.5,105.5 C 299.409,106.895 295.076,107.562 290.5,107.5C 266.164,107.333 241.831,107.5 217.5,108C 214.243,109.043 210.91,109.543 207.5,109.5C 202.167,110.167 196.833,110.833 191.5,111.5C 192.23,109.955 193.563,109.122 195.5,109C 201.216,108.718 206.883,108.052 212.5,107C 242.846,106.769 273.179,106.269 303.5,105.5 Z"/></g>
<g><path style="opacity:1" fill="#8930b8" d="M 303.5,105.5 C 314.407,104.8 325.073,105.967 335.5,109C 340.858,111.189 345.858,114.023 350.5,117.5C 366.915,131.747 379.915,148.413 389.5,167.5C 390.715,173.454 391.715,179.454 392.5,185.5C 390.899,182.45 389.899,179.116 389.5,175.5C 386.95,175.439 385.45,174.106 385,171.5C 384.667,171.833 384.333,172.167 384,172.5C 383.784,170.616 383.117,168.949 382,167.5C 381.295,169.986 380.462,169.986 379.5,167.5C 378.246,164.907 376.58,162.573 374.5,160.5C 375.833,157.167 374.833,156.167 371.5,157.5C 370.639,153.417 369.473,149.417 368,145.5C 367.082,143.368 365.749,142.701 364,143.5C 363.01,140.374 361.844,137.374 360.5,134.5C 359.325,134.719 358.325,134.386 357.5,133.5C 354.639,127.14 349.805,123.14 343,121.5C 342.51,122.793 342.343,124.127 342.5,125.5C 340.167,125.5 337.833,125.5 335.5,125.5C 332.154,125.565 329.654,124.232 328,121.5C 327.667,122.167 327.333,122.833 327,123.5C 324.958,121.396 322.458,120.229 319.5,120C 308.747,119.483 297.913,118.649 287,117.5C 280.139,119.136 273.139,120.136 266,120.5C 261.014,120.702 256.181,120.035 251.5,118.5C 246.479,119.8 241.479,119.633 236.5,118C 237.416,117.626 238.25,117.126 239,116.5C 241.064,117.591 243.231,117.758 245.5,117C 248.756,115.526 252.089,114.36 255.5,113.5C 255.281,112.325 255.614,111.325 256.5,110.5C 259.11,111.116 261.777,111.449 264.5,111.5C 277.507,110.979 290.507,110.312 303.5,109.5C 299.217,108.508 294.884,108.174 290.5,108.5C 290.5,108.167 290.5,107.833 290.5,107.5C 295.076,107.562 299.409,106.895 303.5,105.5 Z"/></g>
<g><path style="opacity:1" fill="#8856b7" d="M 207.5,109.5 C 201.083,112.025 194.416,114.025 187.5,115.5C 187.833,114.833 188.167,114.167 188.5,113.5C 188.973,112.094 189.973,111.427 191.5,111.5C 196.833,110.833 202.167,110.167 207.5,109.5 Z"/></g>
<g><path style="opacity:1" fill="#8b40bd" d="M 290.5,107.5 C 290.5,107.833 290.5,108.167 290.5,108.5C 276.5,108.5 262.5,108.5 248.5,108.5C 233.356,107.872 218.356,109.039 203.5,112C 201.934,112.608 200.6,113.442 199.5,114.5C 195.771,115.013 192.104,115.846 188.5,117C 185.269,119.727 182.603,122.894 180.5,126.5C 178.955,127.452 177.288,127.785 175.5,127.5C 177.779,125.041 179.946,122.374 182,119.5C 183.451,117.536 185.284,116.203 187.5,115.5C 194.416,114.025 201.083,112.025 207.5,109.5C 210.91,109.543 214.243,109.043 217.5,108C 241.831,107.5 266.164,107.333 290.5,107.5 Z"/></g>
<g><path style="opacity:1" fill="#9126b8" d="M 248.5,108.5 C 262.5,108.5 276.5,108.5 290.5,108.5C 294.884,108.174 299.217,108.508 303.5,109.5C 290.507,110.312 277.507,110.979 264.5,111.5C 261.777,111.449 259.11,111.116 256.5,110.5C 255.614,111.325 255.281,112.325 255.5,113.5C 252.089,114.36 248.756,115.526 245.5,117C 243.231,117.758 241.064,117.591 239,116.5C 238.25,117.126 237.416,117.626 236.5,118C 241.479,119.633 246.479,119.8 251.5,118.5C 256.181,120.035 261.014,120.702 266,120.5C 273.139,120.136 280.139,119.136 287,117.5C 297.913,118.649 308.747,119.483 319.5,120C 322.458,120.229 324.958,121.396 327,123.5C 327.333,122.833 327.667,122.167 328,121.5C 329.654,124.232 332.154,125.565 335.5,125.5C 335.817,128.572 335.484,131.572 334.5,134.5C 333.167,131.167 330.833,128.833 327.5,127.5C 325.77,128.026 324.436,129.026 323.5,130.5C 324.747,133.329 326.247,135.995 328,138.5C 325.983,146.421 327.816,153.254 333.5,159C 331.205,163.759 329.038,168.592 327,173.5C 324.175,175.188 321.009,176.021 317.5,176C 318.308,176.308 318.975,176.808 319.5,177.5C 316.564,178.115 313.897,179.282 311.5,181C 310.167,181.667 310.167,182.333 311.5,183C 305.424,182.246 302.758,185.08 303.5,191.5C 300.753,191.187 298.086,191.52 295.5,192.5C 292.094,195.097 288.594,196.764 285,197.5C 277.909,199.085 270.742,200.085 263.5,200.5C 259.9,200.28 256.4,199.613 253,198.5C 248.959,199.869 245.126,199.369 241.5,197C 235.506,196.056 229.506,195.223 223.5,194.5C 223.5,195.5 223.5,196.5 223.5,197.5C 217.112,196.695 210.946,195.028 205,192.5C 203.893,192.585 202.893,192.919 202,193.5C 198.715,191.863 195.215,191.196 191.5,191.5C 191.5,190.5 191.5,189.5 191.5,188.5C 187.279,186.894 182.946,185.561 178.5,184.5C 174.042,186.728 169.375,188.395 164.5,189.5C 162.159,189.338 160.325,188.338 159,186.5C 158.627,190.218 157.461,193.551 155.5,196.5C 155.843,191.086 156.677,185.753 158,180.5C 160.425,182.753 163.258,183.586 166.5,183C 168.803,180.866 171.469,179.366 174.5,178.5C 175.386,177.675 175.719,176.675 175.5,175.5C 178.942,175.032 181.609,176.198 183.5,179C 186.022,180.341 188.689,181.174 191.5,181.5C 191.5,182.5 191.5,183.5 191.5,184.5C 194.949,185.639 198.449,186.639 202,187.5C 203.561,187.397 205.061,187.063 206.5,186.5C 210.329,187.693 213.996,189.193 217.5,191C 219.473,191.495 221.473,191.662 223.5,191.5C 224.244,187.922 226.577,185.922 230.5,185.5C 233.276,186.223 235.276,187.89 236.5,190.5C 241.836,191.411 246.836,193.078 251.5,195.5C 251.5,194.5 251.5,193.5 251.5,192.5C 255.893,192.457 256.226,192.957 252.5,194C 260.363,196.278 268.03,195.945 275.5,193C 276.833,192.333 276.833,191.667 275.5,191C 282.674,192.021 287.007,188.854 288.5,181.5C 289.386,182.325 289.719,183.325 289.5,184.5C 296.754,181.913 301.754,176.913 304.5,169.5C 309.618,166.215 309.285,163.049 303.5,160C 303.678,157.045 303.678,153.879 303.5,150.5C 300.813,150.664 298.146,150.497 295.5,150C 296.308,149.692 296.975,149.192 297.5,148.5C 294.294,147.192 290.96,146.525 287.5,146.5C 287.5,145.5 287.5,144.5 287.5,143.5C 282.338,141.56 277.004,139.894 271.5,138.5C 269.364,139.015 267.197,139.349 265,139.5C 254.761,137.693 244.594,136.526 234.5,136C 231.383,134.28 230.717,131.78 232.5,128.5C 230.234,127.686 227.9,127.186 225.5,127C 237.441,123.476 236.941,121.309 224,120.5C 219.488,121.256 215.154,122.59 211,124.5C 209.989,123.663 208.822,123.33 207.5,123.5C 207.5,122.167 207.5,120.833 207.5,119.5C 213.851,118.492 219.184,115.659 223.5,111C 230.514,110.376 237.514,110.542 244.5,111.5C 246.167,111.333 247.833,111.167 249.5,111C 248.748,110.329 248.414,109.496 248.5,108.5 Z"/></g>
<g><path style="opacity:1" fill="#6578aa" d="M 188.5,113.5 C 188.167,114.167 187.833,114.833 187.5,115.5C 185.284,116.203 183.451,117.536 182,119.5C 179.946,122.374 177.779,125.041 175.5,127.5C 171.616,128.573 168.283,130.573 165.5,133.5C 166.15,131.565 166.483,129.565 166.5,127.5C 167.833,127.5 169.167,127.5 170.5,127.5C 170.297,125.61 170.963,124.11 172.5,123C 178.234,120.417 183.567,117.25 188.5,113.5 Z"/></g>
<g><path style="opacity:1" fill="#9126b0" d="M 379.5,167.5 C 375.635,166.294 373.635,163.627 373.5,159.5C 372.167,159.5 370.833,159.5 369.5,159.5C 369.743,166.318 372.409,171.985 377.5,176.5C 378.314,180.484 380.147,183.817 383,186.5C 383.309,187.766 383.809,188.933 384.5,190C 384.167,190.333 383.833,190.667 383.5,191C 384.448,191.483 385.448,191.649 386.5,191.5C 386.613,196.33 385.78,200.997 384,205.5C 383.506,203.866 383.34,202.199 383.5,200.5C 378.89,200.268 374.223,200.768 369.5,202C 367.808,203.401 367.141,205.234 367.5,207.5C 366.325,207.281 365.325,207.614 364.5,208.5C 365.602,209.176 366.602,209.842 367.5,210.5C 365.833,210.5 364.167,210.5 362.5,210.5C 361.777,206.608 360.443,206.108 358.5,209C 356.19,209.497 353.857,209.663 351.5,209.5C 351.5,208.5 351.5,207.5 351.5,206.5C 347.147,206.235 342.813,205.735 338.5,205C 336.939,204.682 335.772,203.849 335,202.5C 329.18,204.383 323.346,204.55 317.5,203C 318.167,202.667 318.833,202.333 319.5,202C 316.242,201.788 313.076,201.288 310,200.5C 309.238,204.247 307.071,206.58 303.5,207.5C 289.087,207.906 274.753,207.24 260.5,205.5C 259.554,205.987 258.554,206.32 257.5,206.5C 255.608,205.527 253.608,204.86 251.5,204.5C 241.076,204.43 230.909,204.763 221,205.5C 218.733,204.711 216.4,204.044 214,203.5C 211.029,204.546 208.195,205.879 205.5,207.5C 202.978,206.911 200.478,206.245 198,205.5C 196.079,207.003 193.912,207.669 191.5,207.5C 191.5,206.5 191.5,205.5 191.5,204.5C 188.583,205.811 186.083,205.145 184,202.5C 183.667,202.833 183.333,203.167 183,203.5C 178.866,202.804 174.7,202.137 170.5,201.5C 166.558,203.132 162.891,203.465 159.5,202.5C 158.548,204.045 158.215,205.712 158.5,207.5C 156.833,207.5 155.167,207.5 153.5,207.5C 153.5,206.5 153.5,205.5 153.5,204.5C 152.5,204.5 151.5,204.5 150.5,204.5C 150.068,203.29 149.401,202.29 148.5,201.5C 148.167,198.167 147.833,194.833 147.5,191.5C 147.833,191.5 148.167,191.5 148.5,191.5C 149.15,195.14 150.65,198.473 153,201.5C 153.335,199.497 154.168,197.83 155.5,196.5C 157.461,193.551 158.627,190.218 159,186.5C 160.325,188.338 162.159,189.338 164.5,189.5C 169.375,188.395 174.042,186.728 178.5,184.5C 182.946,185.561 187.279,186.894 191.5,188.5C 191.5,189.5 191.5,190.5 191.5,191.5C 195.215,191.196 198.715,191.863 202,193.5C 202.893,192.919 203.893,192.585 205,192.5C 210.946,195.028 217.112,196.695 223.5,197.5C 223.5,196.5 223.5,195.5 223.5,194.5C 229.506,195.223 235.506,196.056 241.5,197C 245.126,199.369 248.959,199.869 253,198.5C 256.4,199.613 259.9,200.28 263.5,200.5C 270.742,200.085 277.909,199.085 285,197.5C 288.594,196.764 292.094,195.097 295.5,192.5C 298.086,191.52 300.753,191.187 303.5,191.5C 302.758,185.08 305.424,182.246 311.5,183C 310.167,182.333 310.167,181.667 311.5,181C 313.897,179.282 316.564,178.115 319.5,177.5C 318.975,176.808 318.308,176.308 317.5,176C 321.009,176.021 324.175,175.188 327,173.5C 329.038,168.592 331.205,163.759 333.5,159C 327.816,153.254 325.983,146.421 328,138.5C 326.247,135.995 324.747,133.329 323.5,130.5C 324.436,129.026 325.77,128.026 327.5,127.5C 330.833,128.833 333.167,131.167 334.5,134.5C 335.484,131.572 335.817,128.572 335.5,125.5C 337.833,125.5 340.167,125.5 342.5,125.5C 342.343,124.127 342.51,122.793 343,121.5C 349.805,123.14 354.639,127.14 357.5,133.5C 358.325,134.386 359.325,134.719 360.5,134.5C 361.844,137.374 363.01,140.374 364,143.5C 365.749,142.701 367.082,143.368 368,145.5C 369.473,149.417 370.639,153.417 371.5,157.5C 374.833,156.167 375.833,157.167 374.5,160.5C 376.58,162.573 378.246,164.907 379.5,167.5 Z"/></g>
<g><path style="opacity:1" fill="#8f24c6" d="M 248.5,108.5 C 248.414,109.496 248.748,110.329 249.5,111C 247.833,111.167 246.167,111.333 244.5,111.5C 237.514,110.542 230.514,110.376 223.5,111C 219.184,115.659 213.851,118.492 207.5,119.5C 207.5,120.833 207.5,122.167 207.5,123.5C 207.631,124.239 207.464,124.906 207,125.5C 204.688,123.536 202.188,123.203 199.5,124.5C 201.045,125.452 202.712,125.785 204.5,125.5C 204.215,129.038 205.882,130.871 209.5,131C 210.701,131.903 211.535,133.069 212,134.5C 212.139,137.575 211.639,140.575 210.5,143.5C 208.396,143.201 206.396,143.534 204.5,144.5C 202.006,150.158 197.839,152.491 192,151.5C 191.503,154.146 191.336,156.813 191.5,159.5C 186.167,159.5 180.833,159.5 175.5,159.5C 175.093,166.902 171.093,170.569 163.5,170.5C 160.368,169.072 158.534,169.738 158,172.5C 157.333,173.833 156.667,173.833 156,172.5C 155.667,176.167 155.333,179.833 155,183.5C 153.629,185.041 152.129,186.375 150.5,187.5C 150.5,183.5 150.5,179.5 150.5,175.5C 151.5,175.5 152.5,175.5 153.5,175.5C 153.335,172.482 153.502,169.482 154,166.5C 156.194,162.576 158.194,158.576 160,154.5C 163.183,151.38 166.683,148.713 170.5,146.5C 171.386,145.675 171.719,144.675 171.5,143.5C 176.593,143.388 176.593,142.555 171.5,141C 176.961,135.371 182.627,130.038 188.5,125C 194.298,121.117 200.631,118.283 207.5,116.5C 207.5,115.5 207.5,114.5 207.5,113.5C 204.794,113.575 202.127,113.908 199.5,114.5C 200.6,113.442 201.934,112.608 203.5,112C 218.356,109.039 233.356,107.872 248.5,108.5 Z"/></g>
<g><path style="opacity:1" fill="#8359be" d="M 175.5,127.5 C 171.257,133.274 165.924,137.607 159.5,140.5C 160.922,138.488 162.255,136.488 163.5,134.5C 164.167,134.167 164.833,133.833 165.5,133.5C 168.283,130.573 171.616,128.573 175.5,127.5 Z"/></g>
<g><path style="opacity:1" fill="#9023d2" d="M 150.5,187.5 C 150.843,189.483 150.176,190.817 148.5,191.5C 148.167,191.5 147.833,191.5 147.5,191.5C 147.334,182.494 147.5,173.494 148,164.5C 148.198,162.618 148.698,160.952 149.5,159.5C 152.3,153.915 155.633,148.582 159.5,143.5C 159.5,142.5 159.5,141.5 159.5,140.5C 165.924,137.607 171.257,133.274 175.5,127.5C 177.288,127.785 178.955,127.452 180.5,126.5C 182.603,122.894 185.269,119.727 188.5,117C 192.104,115.846 195.771,115.013 199.5,114.5C 202.127,113.908 204.794,113.575 207.5,113.5C 207.5,114.5 207.5,115.5 207.5,116.5C 200.631,118.283 194.298,121.117 188.5,125C 182.627,130.038 176.961,135.371 171.5,141C 176.593,142.555 176.593,143.388 171.5,143.5C 171.719,144.675 171.386,145.675 170.5,146.5C 166.683,148.713 163.183,151.38 160,154.5C 158.194,158.576 156.194,162.576 154,166.5C 153.502,169.482 153.335,172.482 153.5,175.5C 152.5,175.5 151.5,175.5 150.5,175.5C 150.5,179.5 150.5,183.5 150.5,187.5 Z"/></g>
<g><path style="opacity:1" fill="#7b5bbf" d="M 159.5,143.5 C 155.633,148.582 152.3,153.915 149.5,159.5C 150.18,153.551 152.18,148.217 155.5,143.5C 156.833,143.5 158.167,143.5 159.5,143.5 Z"/></g>
<g><path style="opacity:1" fill="#9024bf" d="M 155.5,196.5 C 154.168,197.83 153.335,199.497 153,201.5C 150.65,198.473 149.15,195.14 148.5,191.5C 150.176,190.817 150.843,189.483 150.5,187.5C 152.129,186.375 153.629,185.041 155,183.5C 155.333,179.833 155.667,176.167 156,172.5C 156.667,173.833 157.333,173.833 158,172.5C 158.534,169.738 160.368,169.072 163.5,170.5C 171.093,170.569 175.093,166.902 175.5,159.5C 180.833,159.5 186.167,159.5 191.5,159.5C 191.336,156.813 191.503,154.146 192,151.5C 197.839,152.491 202.006,150.158 204.5,144.5C 206.396,143.534 208.396,143.201 210.5,143.5C 211.639,140.575 212.139,137.575 212,134.5C 211.535,133.069 210.701,131.903 209.5,131C 205.882,130.871 204.215,129.038 204.5,125.5C 202.712,125.785 201.045,125.452 199.5,124.5C 202.188,123.203 204.688,123.536 207,125.5C 207.464,124.906 207.631,124.239 207.5,123.5C 208.822,123.33 209.989,123.663 211,124.5C 215.154,122.59 219.488,121.256 224,120.5C 236.941,121.309 237.441,123.476 225.5,127C 227.9,127.186 230.234,127.686 232.5,128.5C 230.717,131.78 231.383,134.28 234.5,136C 244.594,136.526 254.761,137.693 265,139.5C 267.197,139.349 269.364,139.015 271.5,138.5C 277.004,139.894 282.338,141.56 287.5,143.5C 287.5,144.5 287.5,145.5 287.5,146.5C 290.96,146.525 294.294,147.192 297.5,148.5C 296.975,149.192 296.308,149.692 295.5,150C 298.146,150.497 300.813,150.664 303.5,150.5C 303.678,153.879 303.678,157.045 303.5,160C 309.285,163.049 309.618,166.215 304.5,169.5C 301.754,176.913 296.754,181.913 289.5,184.5C 289.719,183.325 289.386,182.325 288.5,181.5C 287.007,188.854 282.674,192.021 275.5,191C 276.833,191.667 276.833,192.333 275.5,193C 268.03,195.945 260.363,196.278 252.5,194C 256.226,192.957 255.893,192.457 251.5,192.5C 251.5,193.5 251.5,194.5 251.5,195.5C 246.836,193.078 241.836,191.411 236.5,190.5C 235.276,187.89 233.276,186.223 230.5,185.5C 226.577,185.922 224.244,187.922 223.5,191.5C 221.473,191.662 219.473,191.495 217.5,191C 213.996,189.193 210.329,187.693 206.5,186.5C 205.061,187.063 203.561,187.397 202,187.5C 198.449,186.639 194.949,185.639 191.5,184.5C 191.5,183.5 191.5,182.5 191.5,181.5C 188.689,181.174 186.022,180.341 183.5,179C 181.609,176.198 178.942,175.032 175.5,175.5C 175.719,176.675 175.386,177.675 174.5,178.5C 171.469,179.366 168.803,180.866 166.5,183C 163.258,183.586 160.425,182.753 158,180.5C 156.677,185.753 155.843,191.086 155.5,196.5 Z"/></g>
<g><path style="opacity:1" fill="#6d71b0" d="M 163.5,134.5 C 162.255,136.488 160.922,138.488 159.5,140.5C 159.5,141.5 159.5,142.5 159.5,143.5C 158.167,143.5 156.833,143.5 155.5,143.5C 152.18,148.217 150.18,153.551 149.5,159.5C 148.698,160.952 148.198,162.618 148,164.5C 147.5,173.494 147.334,182.494 147.5,191.5C 147.167,191.5 146.833,191.5 146.5,191.5C 145.316,180.997 145.316,170.497 146.5,160C 149.31,153.179 152.143,146.346 155,139.5C 156.356,138.62 157.856,138.286 159.5,138.5C 159.343,137.127 159.51,135.793 160,134.5C 160.333,135.167 160.667,135.833 161,136.5C 161.417,135.244 162.25,134.577 163.5,134.5 Z"/></g>
<g><path style="opacity:1" fill="#628394" d="M 146.5,191.5 C 146.833,191.5 147.167,191.5 147.5,191.5C 147.833,194.833 148.167,198.167 148.5,201.5C 148.683,205.593 149.683,209.427 151.5,213C 151.43,213.765 151.097,214.265 150.5,214.5C 148.387,215.548 146.72,217.048 145.5,219C 147.111,221.21 147.778,223.71 147.5,226.5C 146.015,230.771 144.682,235.104 143.5,239.5C 143.5,240.833 143.5,242.167 143.5,243.5C 142.71,244.609 142.21,245.942 142,247.5C 140.96,256.472 140.46,265.472 140.5,274.5C 139.069,274.119 138.236,273.119 138,271.5C 135.767,280.783 133.601,290.116 131.5,299.5C 129.023,306.293 128.856,313.293 131,320.5C 134.778,323.139 138.944,324.805 143.5,325.5C 144.415,326.328 145.081,327.328 145.5,328.5C 148.088,346.115 150.588,363.782 153,381.5C 153.417,382.756 154.25,383.423 155.5,383.5C 158.4,385.627 159.9,388.627 160,392.5C 162.37,396.597 165.203,400.264 168.5,403.5C 169.099,405.934 170.599,407.601 173,408.5C 174.03,408.164 174.53,407.497 174.5,406.5C 174.833,406.5 175.167,406.5 175.5,406.5C 178.04,408.666 177.373,409.666 173.5,409.5C 171.345,409.372 169.345,409.872 167.5,411C 168.925,412.714 168.592,414.047 166.5,415C 167.448,415.483 168.448,415.649 169.5,415.5C 169.998,447.491 169.664,479.491 168.5,511.5C 168.167,511.5 167.833,511.5 167.5,511.5C 166.426,506.967 165.426,502.467 164.5,498C 160.16,497.858 158.494,500.024 159.5,504.5C 155.51,503.471 151.51,503.304 147.5,504C 148.5,503.5 149.5,503 150.5,502.5C 151.277,500.219 152.277,498.052 153.5,496C 151.19,495.503 148.857,495.337 146.5,495.5C 147.111,498.961 145.944,501.628 143,503.5C 141.577,501.655 140.41,499.655 139.5,497.5C 138.205,496.902 136.872,496.402 135.5,496C 138.99,493.923 139.157,491.757 136,489.5C 133.544,491.321 130.711,491.988 127.5,491.5C 127.5,490.167 127.5,488.833 127.5,487.5C 130.167,487.5 132.833,487.5 135.5,487.5C 135.5,486.5 135.5,485.5 135.5,484.5C 133.453,484.511 131.453,484.844 129.5,485.5C 126.055,482.425 124.055,483.092 123.5,487.5C 121.833,487.5 120.167,487.5 118.5,487.5C 117.67,476.98 116.337,476.98 114.5,487.5C 113.935,485.49 112.935,483.824 111.5,482.5C 107.455,483.885 105.455,486.719 105.5,491C 104.552,491.483 103.552,491.649 102.5,491.5C 102.851,493.869 103.018,496.203 103,498.5C 100.84,496.837 98.6732,495.17 96.5,493.5C 95.376,494.914 94.376,496.414 93.5,498C 90.7825,499.033 88.9492,498.2 88,495.5C 87.6667,497.167 87.3333,498.833 87,500.5C 86.6258,499.584 86.1258,498.75 85.5,498C 82.9085,497.699 82.0752,498.866 83,501.5C 87.7719,505.211 86.9385,506.377 80.5,505C 81.1667,504.667 81.8333,504.333 82.5,504C 81.8333,502.667 81.1667,501.333 80.5,500C 77.5682,499.047 74.5682,498.547 71.5,498.5C 71.238,499.978 71.5713,501.311 72.5,502.5C 75.0278,503.498 75.0278,504.331 72.5,505C 74.9316,506.087 74.5983,506.587 71.5,506.5C 71.5,505.5 71.5,504.5 71.5,503.5C 70.5,503.5 69.5,503.5 68.5,503.5C 68.8134,500.753 68.48,498.086 67.5,495.5C 66.8333,497.167 66.1667,498.833 65.5,500.5C 63.9088,496.686 61.0755,494.353 57,493.5C 55.8288,494.34 54.6621,495.173 53.5,496C 54.4162,496.374 55.2496,496.874 56,497.5C 56.4226,496.044 57.2559,495.544 58.5,496C 59.2401,497.785 59.9067,499.618 60.5,501.5C 61.2739,502.711 62.1072,502.711 63,501.5C 63.4828,502.448 63.6495,503.448 63.5,504.5C 60.8127,504.664 58.146,504.497 55.5,504C 56.1667,503.667 56.8333,503.333 57.5,503C 56.6383,500.266 55.805,500.099 55,502.5C 52.349,499.924 49.1823,498.591 45.5,498.5C 45.719,497.325 45.3857,496.325 44.5,495.5C 43.1667,498.167 41.8333,498.167 40.5,495.5C 39.0268,490.386 37.3601,490.386 35.5,495.5C 34.8757,493.042 33.3757,491.376 31,490.5C 31.5941,486.846 33.0941,483.513 35.5,480.5C 34.8108,478.556 34.3108,476.556 34,474.5C 32.7844,476.962 32.1177,479.629 32,482.5C 31.2114,478.909 31.3781,475.409 32.5,472C 30.5,471.667 28.5,471.333 26.5,471C 29.1504,470.469 31.6504,469.635 34,468.5C 34.7065,466.919 35.5399,465.419 36.5,464C 35.115,462.035 35.2816,460.202 37,458.5C 37.4709,460.246 38.1376,461.913 39,463.5C 39.1515,460.881 39.9848,458.547 41.5,456.5C 40.2272,454.016 40.2272,451.516 41.5,449C 40.9221,447.189 40.4221,445.355 40,443.5C 39.6667,445.833 39.3333,448.167 39,450.5C 38.0197,449.019 36.853,447.685 35.5,446.5C 36.5,444.5 37.5,442.5 38.5,440.5C 39.6888,439.571 41.0222,439.238 42.5,439.5C 43.0049,442.521 43.6716,445.521 44.5,448.5C 44.0328,450.568 43.3661,452.568 42.5,454.5C 44.0453,455.452 45.712,455.785 47.5,455.5C 47.2176,452.653 47.2176,449.987 47.5,447.5C 52.5118,452.012 57.3451,456.679 62,461.5C 62.1667,462.167 62.3333,462.833 62.5,463.5C 58.0751,468.646 53.4085,473.646 48.5,478.5C 53.8333,479.833 59.1667,479.833 64.5,478.5C 69,474.167 73.5,469.833 78,465.5C 78.1667,465.167 78.3333,464.833 78.5,464.5C 76.8333,463.833 75.1667,463.167 73.5,462.5C 76.3976,459.038 80.0642,456.538 84.5,455C 87.3361,452.007 89.3361,448.507 90.5,444.5C 91.914,443.376 93.414,442.376 95,441.5C 95.6667,434.833 95.6667,428.167 95,421.5C 88.5301,418.741 88.3634,416.408 94.5,414.5C 90,410.167 85.5,405.833 81,401.5C 80.8119,399.939 81.6453,399.272 83.5,399.5C 83.5,394.167 83.5,388.833 83.5,383.5C 81.6453,383.728 80.8119,383.061 81,381.5C 85.5,377.167 90,372.833 94.5,368.5C 92.9547,367.548 91.288,367.215 89.5,367.5C 89.3338,361.491 89.5005,355.491 90,349.5C 91.262,347.697 92.9287,346.364 95,345.5C 95.4983,342.183 95.665,338.85 95.5,335.5C 94.5,335.5 93.5,335.5 92.5,335.5C 90.7962,330.419 88.7962,325.419 86.5,320.5C 87.325,319.614 88.325,319.281 89.5,319.5C 89.5,308.833 89.5,298.167 89.5,287.5C 91.288,287.785 92.9547,287.452 94.5,286.5C 94.3333,286.167 94.1667,285.833 94,285.5C 89.3333,280.833 84.6667,276.167 80,271.5C 79.6667,273.833 79.3333,276.167 79,278.5C 76.8586,274.569 75.1919,274.902 74,279.5C 73.263,275.953 71.4297,273.12 68.5,271C 70.4429,267.668 71.6095,267.834 72,271.5C 73.1545,270.257 74.4878,269.257 76,268.5C 76.0463,264.34 76.213,260.006 76.5,255.5C 77.5,255.5 78.5,255.5 79.5,255.5C 79.822,253.278 79.1554,251.444 77.5,250C 78.1667,249.333 78.8333,248.667 79.5,248C 78.9756,245.07 77.6422,242.57 75.5,240.5C 74.5,239.167 73.5,239.167 72.5,240.5C 72.0234,241.931 71.3567,243.264 70.5,244.5C 65.1714,242.284 65.5048,240.951 71.5,240.5C 72.089,229.494 72.7557,218.494 73.5,207.5C 79.3861,206.53 80.3861,204.03 76.5,200C 79.0248,196.721 78.6915,193.555 75.5,190.5C 76.6155,189.402 76.6155,188.235 75.5,187C 75.8667,184.756 76.8667,184.256 78.5,185.5C 79.487,182.232 79.8204,178.898 79.5,175.5C 84.8333,175.5 90.1667,175.5 95.5,175.5C 95.3433,176.873 95.51,178.207 96,179.5C 100.181,182.682 103.681,186.516 106.5,191C 108.134,191.494 109.801,191.66 111.5,191.5C 111.5,193.167 111.5,194.833 111.5,196.5C 114.157,196.838 116.49,196.171 118.5,194.5C 119.833,196.167 119.833,197.833 118.5,199.5C 116.375,196.732 114.709,196.899 113.5,200C 113.94,203.609 115.94,205.109 119.5,204.5C 119.591,209.241 117.258,211.408 112.5,211C 111.446,212.388 111.28,213.888 112,215.5C 112.284,213.114 113.284,212.448 115,213.5C 115.667,216.833 115.667,220.167 115,223.5C 113.073,225.593 113.24,227.593 115.5,229.5C 116.48,228.019 117.647,226.685 119,225.5C 121.45,228.474 120.95,230.641 117.5,232C 120.656,233.365 121.656,235.532 120.5,238.5C 121.5,239.833 122.5,239.833 123.5,238.5C 123.131,235.386 123.131,232.386 123.5,229.5C 125.751,228.182 127.751,226.516 129.5,224.5C 128.726,223.289 127.893,223.289 127,224.5C 125.656,222.658 124.156,220.992 122.5,219.5C 123.766,218.276 124.933,216.943 126,215.5C 126.333,212.833 126.667,210.167 127,207.5C 127.49,208.793 127.657,210.127 127.5,211.5C 128.822,211.67 129.989,211.337 131,210.5C 131.371,206.238 132.204,202.071 133.5,198C 132.764,195.861 131.764,193.861 130.5,192C 131.719,187.861 132.886,183.694 134,179.5C 137.047,179.071 140.214,179.071 143.5,179.5C 143.662,181.527 143.495,183.527 143,185.5C 140.869,183.456 138.369,182.623 135.5,183C 138.255,184.711 140.589,186.878 142.5,189.5C 143.658,201.446 144.491,201.446 145,189.5C 145.278,190.416 145.778,191.082 146.5,191.5 Z"/></g>
<g><path style="opacity:1" fill="#6b4f9b" d="M 391.5,170.5 C 396.93,176.384 398.93,183.384 397.5,191.5C 396.167,191.5 394.833,191.5 393.5,191.5C 393.915,189.253 394.582,187.086 395.5,185C 393.063,180.515 391.73,175.682 391.5,170.5 Z"/></g>
<g><path style="opacity:1" fill="#9025ba" d="M 379.5,167.5 C 380.462,169.986 381.295,169.986 382,167.5C 383.117,168.949 383.784,170.616 384,172.5C 384.333,172.167 384.667,171.833 385,171.5C 385.45,174.106 386.95,175.439 389.5,175.5C 389.899,179.116 390.899,182.45 392.5,185.5C 392.529,191.21 392.029,196.877 391,202.5C 390.009,203.939 388.676,204.939 387,205.5C 386.51,206.793 386.343,208.127 386.5,209.5C 380.302,211.183 373.969,211.849 367.5,211.5C 367.5,211.167 367.5,210.833 367.5,210.5C 366.602,209.842 365.602,209.176 364.5,208.5C 365.325,207.614 366.325,207.281 367.5,207.5C 367.141,205.234 367.808,203.401 369.5,202C 374.223,200.768 378.89,200.268 383.5,200.5C 383.34,202.199 383.506,203.866 384,205.5C 385.78,200.997 386.613,196.33 386.5,191.5C 385.448,191.649 384.448,191.483 383.5,191C 383.833,190.667 384.167,190.333 384.5,190C 383.809,188.933 383.309,187.766 383,186.5C 380.147,183.817 378.314,180.484 377.5,176.5C 372.409,171.985 369.743,166.318 369.5,159.5C 370.833,159.5 372.167,159.5 373.5,159.5C 373.635,163.627 375.635,166.294 379.5,167.5 Z"/></g>
<g><path style="opacity:1" fill="#8240a4" d="M 389.5,167.5 C 390.906,167.973 391.573,168.973 391.5,170.5C 391.73,175.682 393.063,180.515 395.5,185C 394.582,187.086 393.915,189.253 393.5,191.5C 393.5,194.833 393.5,198.167 393.5,201.5C 392.806,206.215 390.472,210.049 386.5,213C 379.174,213.5 371.841,213.666 364.5,213.5C 358.642,213.822 352.975,213.489 347.5,212.5C 354.354,212.824 361.021,212.491 367.5,211.5C 373.969,211.849 380.302,211.183 386.5,209.5C 386.343,208.127 386.51,206.793 387,205.5C 388.676,204.939 390.009,203.939 391,202.5C 392.029,196.877 392.529,191.21 392.5,185.5C 391.715,179.454 390.715,173.454 389.5,167.5 Z"/></g>
<g><path style="opacity:1" fill="#9e1db0" d="M 303.5,207.5 C 297.491,208.268 291.324,208.934 285,209.5C 271.856,208.379 258.689,208.212 245.5,209C 243.389,209.845 241.389,210.678 239.5,211.5C 212.308,212.373 185.308,211.04 158.5,207.5C 158.215,205.712 158.548,204.045 159.5,202.5C 162.891,203.465 166.558,203.132 170.5,201.5C 174.7,202.137 178.866,202.804 183,203.5C 183.333,203.167 183.667,202.833 184,202.5C 186.083,205.145 188.583,205.811 191.5,204.5C 191.5,205.5 191.5,206.5 191.5,207.5C 193.912,207.669 196.079,207.003 198,205.5C 200.478,206.245 202.978,206.911 205.5,207.5C 208.195,205.879 211.029,204.546 214,203.5C 216.4,204.044 218.733,204.711 221,205.5C 230.909,204.763 241.076,204.43 251.5,204.5C 253.608,204.86 255.608,205.527 257.5,206.5C 258.554,206.32 259.554,205.987 260.5,205.5C 274.753,207.24 289.087,207.906 303.5,207.5 Z"/></g>
<g><path style="opacity:1" fill="#9922a9" d="M 367.5,210.5 C 367.5,210.833 367.5,211.167 367.5,211.5C 361.021,212.491 354.354,212.824 347.5,212.5C 311.671,211.502 275.671,211.168 239.5,211.5C 241.389,210.678 243.389,209.845 245.5,209C 258.689,208.212 271.856,208.379 285,209.5C 291.324,208.934 297.491,208.268 303.5,207.5C 307.071,206.58 309.238,204.247 310,200.5C 313.076,201.288 316.242,201.788 319.5,202C 318.833,202.333 318.167,202.667 317.5,203C 323.346,204.55 329.18,204.383 335,202.5C 335.772,203.849 336.939,204.682 338.5,205C 342.813,205.735 347.147,206.235 351.5,206.5C 351.5,207.5 351.5,208.5 351.5,209.5C 353.857,209.663 356.19,209.497 358.5,209C 360.443,206.108 361.777,206.608 362.5,210.5C 364.167,210.5 365.833,210.5 367.5,210.5 Z"/></g>
<g><path style="opacity:1" fill="#9f2399" d="M 150.5,204.5 C 151.5,204.5 152.5,204.5 153.5,204.5C 153.5,205.5 153.5,206.5 153.5,207.5C 155.167,207.5 156.833,207.5 158.5,207.5C 185.308,211.04 212.308,212.373 239.5,211.5C 275.671,211.168 311.671,211.502 347.5,212.5C 332.833,212.5 318.167,212.5 303.5,212.5C 254.823,212.842 206.156,212.342 157.5,211C 155.216,209.738 152.882,208.572 150.5,207.5C 150.5,206.5 150.5,205.5 150.5,204.5 Z"/></g>
<g><path style="opacity:1" fill="#9b3679" d="M 150.5,207.5 C 152.882,208.572 155.216,209.738 157.5,211C 206.156,212.342 254.823,212.842 303.5,212.5C 303.5,212.833 303.5,213.167 303.5,213.5C 258.167,213.5 212.833,213.5 167.5,213.5C 161.689,214.226 156.355,213.059 151.5,210C 150.748,209.329 150.414,208.496 150.5,207.5 Z"/></g>
<g><path style="opacity:1" fill="#9a426b" d="M 303.5,213.5 C 303.5,213.167 303.5,212.833 303.5,212.5C 318.167,212.5 332.833,212.5 347.5,212.5C 352.975,213.489 358.642,213.822 364.5,213.5C 364.5,213.833 364.5,214.167 364.5,214.5C 363.508,214.328 362.842,214.662 362.5,215.5C 361.833,215.5 361.167,215.5 360.5,215.5C 341.562,213.718 322.562,213.052 303.5,213.5 Z"/></g>
<g><path style="opacity:1" fill="#6f5b7c" d="M 393.5,201.5 C 395.338,210.762 391.671,215.762 382.5,216.5C 376.616,214.843 370.616,214.176 364.5,214.5C 364.5,214.167 364.5,213.833 364.5,213.5C 371.841,213.666 379.174,213.5 386.5,213C 390.472,210.049 392.806,206.215 393.5,201.5 Z"/></g>
<g><path style="opacity:1" fill="#9b5053" d="M 167.5,213.5 C 212.833,213.5 258.167,213.5 303.5,213.5C 322.562,213.052 341.562,213.718 360.5,215.5C 360.5,215.833 360.5,216.167 360.5,216.5C 359.833,216.5 359.167,216.5 358.5,216.5C 354.119,216.628 349.785,216.295 345.5,215.5C 289.001,214.335 232.335,214.168 175.5,215C 171.068,214.89 167.402,216.39 164.5,219.5C 162.833,219.5 161.167,219.5 159.5,219.5C 160.778,218.251 161.778,216.751 162.5,215C 164.382,214.802 166.048,214.302 167.5,213.5 Z"/></g>
<g><path style="opacity:1" fill="#7b5262" d="M 148.5,201.5 C 149.401,202.29 150.068,203.29 150.5,204.5C 150.5,205.5 150.5,206.5 150.5,207.5C 150.414,208.496 150.748,209.329 151.5,210C 156.355,213.059 161.689,214.226 167.5,213.5C 166.048,214.302 164.382,214.802 162.5,215C 161.778,216.751 160.778,218.251 159.5,219.5C 157.429,220.945 155.096,221.945 152.5,222.5C 153.183,220.824 154.517,220.157 156.5,220.5C 156.657,219.127 156.49,217.793 156,216.5C 154.052,215.891 152.218,215.224 150.5,214.5C 151.097,214.265 151.43,213.765 151.5,213C 149.683,209.427 148.683,205.593 148.5,201.5 Z"/></g>
<g><path style="opacity:1" fill="#6e716d" d="M 360.5,216.5 C 360.5,216.167 360.5,215.833 360.5,215.5C 361.167,215.5 361.833,215.5 362.5,215.5C 364.288,215.215 365.955,215.548 367.5,216.5C 366.758,217.287 365.925,217.953 365,218.5C 362.969,224.651 361.802,230.984 361.5,237.5C 359.678,237.831 358.011,238.498 356.5,239.5C 356.461,237.641 357.294,236.308 359,235.5C 359.282,231.961 359.782,228.461 360.5,225C 360.265,224.127 359.931,223.293 359.5,222.5C 360.782,220.821 361.782,218.987 362.5,217C 361.906,216.536 361.239,216.369 360.5,216.5 Z"/></g>
<g><path style="opacity:1" fill="#5d5a75" d="M 150.5,214.5 C 152.218,215.224 154.052,215.891 156,216.5C 156.49,217.793 156.657,219.127 156.5,220.5C 154.517,220.157 153.183,220.824 152.5,222.5C 152.5,222.833 152.5,223.167 152.5,223.5C 150.8,225.888 149.466,228.555 148.5,231.5C 148.784,229.585 148.451,227.919 147.5,226.5C 147.778,223.71 147.111,221.21 145.5,219C 146.72,217.048 148.387,215.548 150.5,214.5 Z"/></g>
<g><path style="opacity:1" fill="#605965" d="M 207.5,234.5 C 207.5,234.833 207.5,235.167 207.5,235.5C 203.854,234.717 200.188,234.55 196.5,235C 194.917,236.758 193.25,238.258 191.5,239.5C 191.5,238.167 191.5,236.833 191.5,235.5C 192.922,235.25 193.922,234.417 194.5,233C 196,232.833 197.5,232.667 199,232.5C 202.073,232.481 204.907,233.147 207.5,234.5 Z"/></g>
<g><path style="opacity:1" fill="#836e5b" d="M 360.5,216.5 C 361.239,216.369 361.906,216.536 362.5,217C 361.782,218.987 360.782,220.821 359.5,222.5C 359.931,223.293 360.265,224.127 360.5,225C 359.782,228.461 359.282,231.961 359,235.5C 357.294,236.308 356.461,237.641 356.5,239.5C 355.566,240.568 355.232,241.901 355.5,243.5C 354.326,244.514 353.66,245.847 353.5,247.5C 349.503,248.332 346.836,246.832 345.5,243C 343.5,242.667 341.5,242.333 339.5,242C 338.692,240.294 337.359,239.461 335.5,239.5C 331.314,238.092 326.981,237.425 322.5,237.5C 327.811,236.68 333.145,236.68 338.5,237.5C 339.696,237.154 339.696,236.654 338.5,236C 341.01,235.624 343.343,234.79 345.5,233.5C 348.709,232.213 351.875,232.213 355,233.5C 356.246,227.93 358.079,222.263 360.5,216.5 Z"/></g>
<g><path style="opacity:1" fill="#3c528b" d="M 210.5,239.5 C 211.602,243.101 212.602,246.767 213.5,250.5C 212.952,253.943 210.952,255.61 207.5,255.5C 205.833,255.5 204.167,255.5 202.5,255.5C 201.138,252.269 199.471,249.102 197.5,246C 198.517,244.951 198.684,243.784 198,242.5C 197.043,244.709 195.876,244.543 194.5,242C 195.071,240.795 195.738,239.628 196.5,238.5C 197.736,239.246 199.07,239.579 200.5,239.5C 200.5,238.5 200.5,237.5 200.5,236.5C 203.888,236.188 206.388,237.521 208,240.5C 208.671,239.748 209.504,239.414 210.5,239.5 Z"/></g>
<g><path style="opacity:1" fill="#8e6848" d="M 159.5,219.5 C 161.167,219.5 162.833,219.5 164.5,219.5C 163.192,220.232 161.858,221.066 160.5,222C 161.167,222.333 161.833,222.667 162.5,223C 160.5,223 158.5,223 156.5,223C 157.428,223.388 158.095,224.055 158.5,225C 156.954,226.473 155.954,228.306 155.5,230.5C 155.84,232.512 156.173,234.512 156.5,236.5C 160.729,237.05 165.062,236.717 169.5,235.5C 170.647,235.818 171.481,236.484 172,237.5C 173,236.167 174,236.167 175,237.5C 176.214,235.951 177.714,234.785 179.5,234C 185.701,233.439 191.868,232.605 198,231.5C 201.797,231.004 204.964,232.004 207.5,234.5C 204.907,233.147 202.073,232.481 199,232.5C 197.5,232.667 196,232.833 194.5,233C 193.922,234.417 192.922,235.25 191.5,235.5C 189.331,234.319 187.998,235.153 187.5,238C 188.749,242.495 188.749,246.995 187.5,251.5C 185.5,250.167 183.5,248.833 181.5,247.5C 180.264,248.246 178.93,248.579 177.5,248.5C 177.628,246.345 177.128,244.345 176,242.5C 175.481,243.516 174.647,244.182 173.5,244.5C 167.751,242.872 165.084,245.205 165.5,251.5C 166.095,254.936 167.761,257.769 170.5,260C 179.371,265.455 189.037,267.955 199.5,267.5C 199.5,266.167 199.5,264.833 199.5,263.5C 202.167,263.5 204.833,263.5 207.5,263.5C 207.5,262.167 207.5,260.833 207.5,259.5C 210.805,258.715 213.805,257.215 216.5,255C 215.577,252.959 215.244,250.792 215.5,248.5C 216.5,248.5 217.5,248.5 218.5,248.5C 218.574,250.411 219.574,251.578 221.5,252C 220.663,253.011 220.33,254.178 220.5,255.5C 221.675,255.281 222.675,255.614 223.5,256.5C 222.024,257.88 221.024,259.547 220.5,261.5C 218.365,262.645 216.199,262.645 214,261.5C 212.331,264.001 210.164,266.001 207.5,267.5C 203.814,268.971 200.148,270.304 196.5,271.5C 188.125,270.096 180.125,267.596 172.5,264C 168.931,261.25 165.597,258.416 162.5,255.5C 161.5,255.5 160.5,255.5 159.5,255.5C 159.109,259.627 158.109,263.627 156.5,267.5C 157.899,269.891 157.566,272.057 155.5,274C 153.887,274.089 152.72,273.255 152,271.5C 151.768,272.737 151.268,273.737 150.5,274.5C 148.437,268.306 148.104,261.972 149.5,255.5C 150.149,257.624 150.983,259.624 152,261.5C 154.026,253.049 153.526,244.883 150.5,237C 151.308,232.511 151.975,228.011 152.5,223.5C 152.5,223.167 152.5,222.833 152.5,222.5C 155.096,221.945 157.429,220.945 159.5,219.5 Z"/></g>
<g><path style="opacity:1" fill="#485a81" d="M 207.5,235.5 C 208.5,236.833 209.5,238.167 210.5,239.5C 209.504,239.414 208.671,239.748 208,240.5C 206.388,237.521 203.888,236.188 200.5,236.5C 200.5,237.5 200.5,238.5 200.5,239.5C 199.07,239.579 197.736,239.246 196.5,238.5C 195.738,239.628 195.071,240.795 194.5,242C 195.876,244.543 197.043,244.709 198,242.5C 198.684,243.784 198.517,244.951 197.5,246C 199.471,249.102 201.138,252.269 202.5,255.5C 204.167,255.5 205.833,255.5 207.5,255.5C 203.5,256.833 199.5,256.833 195.5,255.5C 195.047,252.537 193.547,250.204 191,248.5C 190.505,245.469 190.671,242.469 191.5,239.5C 193.25,238.258 194.917,236.758 196.5,235C 200.188,234.55 203.854,234.717 207.5,235.5 Z"/></g>
<g><path style="opacity:1" fill="#916e52" d="M 358.5,216.5 C 359.167,216.5 359.833,216.5 360.5,216.5C 358.079,222.263 356.246,227.93 355,233.5C 351.875,232.213 348.709,232.213 345.5,233.5C 343.343,234.79 341.01,235.624 338.5,236C 339.696,236.654 339.696,237.154 338.5,237.5C 333.145,236.68 327.811,236.68 322.5,237.5C 320.5,238.167 318.5,238.833 316.5,239.5C 313.5,240.5 311.5,242.5 310.5,245.5C 307.068,245.127 304.734,246.46 303.5,249.5C 301.647,253.378 300.647,257.711 300.5,262.5C 301.985,265.326 302.985,268.326 303.5,271.5C 306.247,271.187 308.914,271.52 311.5,272.5C 314.958,274.876 318.625,276.876 322.5,278.5C 322.343,279.873 322.51,281.207 323,282.5C 324.803,283.313 326.303,284.48 327.5,286C 327.167,286.5 326.833,287 326.5,287.5C 322.841,288.101 319.174,288.767 315.5,289.5C 316.833,290.167 318.167,290.833 319.5,291.5C 315.023,292.058 310.689,292.891 306.5,294C 312.5,294.333 318.5,294.667 324.5,295C 322.618,295.198 320.952,295.698 319.5,296.5C 314.156,296.666 308.823,296.499 303.5,296C 302.975,295.308 302.308,294.808 301.5,294.5C 300.708,295.7 300.708,297.033 301.5,298.5C 300.12,297.294 298.953,297.627 298,299.5C 297.722,298.584 297.222,297.918 296.5,297.5C 295.697,294.518 295.53,291.184 296,287.5C 296.333,288.167 296.667,288.833 297,289.5C 297.546,283.246 298.379,277.079 299.5,271C 298.04,268.037 297.374,264.87 297.5,261.5C 298.937,254.215 299.937,246.881 300.5,239.5C 306.664,238.459 312.664,236.792 318.5,234.5C 322.765,235.439 327.098,235.772 331.5,235.5C 331.762,234.022 331.429,232.689 330.5,231.5C 328.291,230.894 326.124,230.227 324,229.5C 324.148,228.175 323.982,227.008 323.5,226C 321.521,225.316 319.854,225.816 318.5,227.5C 317.41,226.609 317.41,225.609 318.5,224.5C 321.086,223.52 323.753,223.187 326.5,223.5C 326.5,224.5 326.5,225.5 326.5,226.5C 328.696,226.59 330.863,226.923 333,227.5C 333.833,227.167 334.667,226.833 335.5,226.5C 333.5,225.667 331.5,224.833 329.5,224C 334.087,223.201 338.587,223.368 343,224.5C 349.212,223.689 354.379,221.023 358.5,216.5 Z"/></g>
<g><path style="opacity:1" fill="#4a6195" d="M 322.5,237.5 C 326.981,237.425 331.314,238.092 335.5,239.5C 343.263,251.193 340.43,258.527 327,261.5C 316.688,260.551 311.688,254.884 312,244.5C 313.707,242.963 315.207,241.296 316.5,239.5C 318.5,238.833 320.5,238.167 322.5,237.5 Z"/></g>
<g><path style="opacity:1" fill="#8c745f" d="M 191.5,235.5 C 191.5,236.833 191.5,238.167 191.5,239.5C 188.899,243.989 189.065,248.656 192,253.5C 192.816,254.823 193.983,255.489 195.5,255.5C 199.5,256.833 203.5,256.833 207.5,255.5C 210.952,255.61 212.952,253.943 213.5,250.5C 212.602,246.767 211.602,243.101 210.5,239.5C 212.127,241.63 213.96,243.63 216,245.5C 216.667,244.833 217.333,244.167 218,243.5C 218.494,245.134 218.66,246.801 218.5,248.5C 217.5,248.5 216.5,248.5 215.5,248.5C 215.244,250.792 215.577,252.959 216.5,255C 213.805,257.215 210.805,258.715 207.5,259.5C 207.5,260.833 207.5,262.167 207.5,263.5C 204.833,263.5 202.167,263.5 199.5,263.5C 199.5,264.833 199.5,266.167 199.5,267.5C 189.037,267.955 179.371,265.455 170.5,260C 167.761,257.769 166.095,254.936 165.5,251.5C 165.084,245.205 167.751,242.872 173.5,244.5C 174.647,244.182 175.481,243.516 176,242.5C 177.128,244.345 177.628,246.345 177.5,248.5C 178.93,248.579 180.264,248.246 181.5,247.5C 183.5,248.833 185.5,250.167 187.5,251.5C 188.749,246.995 188.749,242.495 187.5,238C 187.998,235.153 189.331,234.319 191.5,235.5 Z"/></g>
<g><path style="opacity:1" fill="#5a5d68" d="M 191.5,239.5 C 190.671,242.469 190.505,245.469 191,248.5C 193.547,250.204 195.047,252.537 195.5,255.5C 193.983,255.489 192.816,254.823 192,253.5C 189.065,248.656 188.899,243.989 191.5,239.5 Z"/></g>
<g><path style="opacity:1" fill="#926748" d="M 223.5,249.5 C 226.872,256.376 228.539,263.709 228.5,271.5C 227.325,271.281 226.325,271.614 225.5,272.5C 227.958,273.124 229.624,274.624 230.5,277C 228.445,277.687 226.779,278.854 225.5,280.5C 227.834,282.987 230.334,282.987 233,280.5C 233.007,283.479 232.673,286.479 232,289.5C 231.617,290.056 231.117,290.389 230.5,290.5C 231.219,288.236 231.552,285.903 231.5,283.5C 227.966,284.37 225.299,286.37 223.5,289.5C 216.494,297.951 207.494,302.617 196.5,303.5C 194.833,303.5 193.167,303.5 191.5,303.5C 184.167,303.5 176.833,303.5 169.5,303.5C 168.833,303.5 168.167,303.5 167.5,303.5C 164.111,302.29 160.778,300.957 157.5,299.5C 162.149,300.065 166.816,300.565 171.5,301C 171.167,301.333 170.833,301.667 170.5,302C 180.167,302.667 189.833,302.667 199.5,302C 196.774,301.818 194.107,301.318 191.5,300.5C 194.817,298.279 198.483,297.112 202.5,297C 202.957,296.586 203.291,296.086 203.5,295.5C 199.45,294.395 195.45,293.395 191.5,292.5C 191.281,291.325 191.614,290.325 192.5,289.5C 194.632,291.117 196.965,291.617 199.5,291C 198.167,290.333 198.167,289.667 199.5,289C 202.167,288.667 204.833,288.333 207.5,288C 203.459,287.827 199.459,287.327 195.5,286.5C 192.397,285.296 189.397,283.796 186.5,282C 183.774,281.818 181.107,281.318 178.5,280.5C 179.025,279.808 179.692,279.308 180.5,279C 179.405,277.325 177.905,276.158 176,275.5C 175.503,272.854 175.336,270.187 175.5,267.5C 174.448,267.649 173.448,267.483 172.5,267C 170.399,264.23 167.732,262.23 164.5,261C 164.413,259.25 163.746,257.417 162.5,255.5C 165.597,258.416 168.931,261.25 172.5,264C 180.125,267.596 188.125,270.096 196.5,271.5C 200.148,270.304 203.814,268.971 207.5,267.5C 210.164,266.001 212.331,264.001 214,261.5C 216.199,262.645 218.365,262.645 220.5,261.5C 221.024,259.547 222.024,257.88 223.5,256.5C 222.675,255.614 221.675,255.281 220.5,255.5C 220.33,254.178 220.663,253.011 221.5,252C 219.574,251.578 218.574,250.411 218.5,248.5C 218.66,246.801 218.494,245.134 218,243.5C 217.333,244.167 216.667,244.833 216,245.5C 213.96,243.63 212.127,241.63 210.5,239.5C 209.5,238.167 208.5,236.833 207.5,235.5C 207.5,235.167 207.5,234.833 207.5,234.5C 208.5,234.5 209.5,234.5 210.5,234.5C 209.828,231.356 208.828,228.356 207.5,225.5C 205.897,225.688 204.563,225.188 203.5,224C 206.264,223.468 208.93,222.634 211.5,221.5C 214.603,221.923 217.436,222.923 220,224.5C 220.333,224.167 220.667,223.833 221,223.5C 221.361,228.416 222.194,233.249 223.5,238C 222.401,241.866 222.401,245.7 223.5,249.5 Z"/></g>
<g><path style="opacity:1" fill="#5d7488" d="M 355.5,243.5 C 354.346,253.854 354.68,264.187 356.5,274.5C 356.45,278.086 355.783,281.42 354.5,284.5C 354.5,283.167 354.5,281.833 354.5,280.5C 353.5,280.5 352.5,280.5 351.5,280.5C 351.665,276.818 351.499,273.152 351,269.5C 349.198,268.211 348.031,266.544 347.5,264.5C 347.296,261.482 346.963,258.482 346.5,255.5C 348.672,254.199 351.005,253.199 353.5,252.5C 353.5,250.833 353.5,249.167 353.5,247.5C 353.66,245.847 354.326,244.514 355.5,243.5 Z"/></g>
<g><path style="opacity:1" fill="#8b8693" d="M 316.5,239.5 C 315.207,241.296 313.707,242.963 312,244.5C 311.688,254.884 316.688,260.551 327,261.5C 340.43,258.527 343.263,251.193 335.5,239.5C 337.359,239.461 338.692,240.294 339.5,242C 341.5,242.333 343.5,242.667 345.5,243C 346.836,246.832 349.503,248.332 353.5,247.5C 353.5,249.167 353.5,250.833 353.5,252.5C 351.005,253.199 348.672,254.199 346.5,255.5C 346.963,258.482 347.296,261.482 347.5,264.5C 344.722,262.737 341.722,261.404 338.5,260.5C 331.272,262.349 323.939,262.849 316.5,262C 313.921,260.533 311.254,259.366 308.5,258.5C 308.309,255.017 307.643,251.684 306.5,248.5C 307.59,247.143 308.924,246.143 310.5,245.5C 311.5,242.5 313.5,240.5 316.5,239.5 Z"/></g>
<g><path style="opacity:1" fill="#43519b" d="M 143.5,239.5 C 144.812,241.743 145.478,244.41 145.5,247.5C 144.833,252.833 144.167,258.167 143.5,263.5C 144.135,269.502 144.301,275.502 144,281.5C 143.581,280.328 142.915,279.328 142,278.5C 141.779,266.811 142.279,255.144 143.5,243.5C 143.5,242.167 143.5,240.833 143.5,239.5 Z"/></g>
<g><path style="opacity:1" fill="#887362" d="M 310.5,245.5 C 308.924,246.143 307.59,247.143 306.5,248.5C 305.179,253.257 305.845,257.923 308.5,262.5C 321.002,265.463 333.336,268.629 345.5,272C 347.194,278.029 349.194,283.862 351.5,289.5C 350.9,290.9 349.9,291.9 348.5,292.5C 344.364,294.183 340.031,294.85 335.5,294.5C 335.5,293.167 335.5,291.833 335.5,290.5C 337.288,290.785 338.955,290.452 340.5,289.5C 337.215,288.676 333.882,288.176 330.5,288C 332.833,287.667 335.167,287.333 337.5,287C 337.043,286.586 336.709,286.086 336.5,285.5C 337.489,284.532 338.156,283.365 338.5,282C 337.886,280.463 337.886,279.13 338.5,278C 331.239,275.929 324.239,273.096 317.5,269.5C 311.305,270.11 306.805,267.444 304,261.5C 303.501,257.514 303.334,253.514 303.5,249.5C 304.734,246.46 307.068,245.127 310.5,245.5 Z"/></g>
<g><path style="opacity:1" fill="#536487" d="M 361.5,237.5 C 362.695,241.488 363.362,245.655 363.5,250C 362.812,267.912 361.479,285.745 359.5,303.5C 357.023,301.584 356.023,298.917 356.5,295.5C 353.215,295.21 350.215,295.877 347.5,297.5C 348.479,295.855 349.812,294.521 351.5,293.5C 350.675,292.614 349.675,292.281 348.5,292.5C 349.9,291.9 350.9,290.9 351.5,289.5C 353.741,288.7 354.741,287.034 354.5,284.5C 355.783,281.42 356.45,278.086 356.5,274.5C 354.68,264.187 354.346,253.854 355.5,243.5C 355.232,241.901 355.566,240.568 356.5,239.5C 358.011,238.498 359.678,237.831 361.5,237.5 Z"/></g>
<g><path style="opacity:1" fill="#8d705b" d="M 303.5,249.5 C 303.334,253.514 303.501,257.514 304,261.5C 306.805,267.444 311.305,270.11 317.5,269.5C 324.239,273.096 331.239,275.929 338.5,278C 337.886,279.13 337.886,280.463 338.5,282C 338.156,283.365 337.489,284.532 336.5,285.5C 336.709,286.086 337.043,286.586 337.5,287C 335.167,287.333 332.833,287.667 330.5,288C 333.882,288.176 337.215,288.676 340.5,289.5C 338.955,290.452 337.288,290.785 335.5,290.5C 335.5,291.833 335.5,293.167 335.5,294.5C 330.384,295.806 325.051,296.473 319.5,296.5C 320.952,295.698 322.618,295.198 324.5,295C 318.5,294.667 312.5,294.333 306.5,294C 310.689,292.891 315.023,292.058 319.5,291.5C 318.167,290.833 316.833,290.167 315.5,289.5C 319.174,288.767 322.841,288.101 326.5,287.5C 326.833,287 327.167,286.5 327.5,286C 326.303,284.48 324.803,283.313 323,282.5C 322.51,281.207 322.343,279.873 322.5,278.5C 318.625,276.876 314.958,274.876 311.5,272.5C 308.914,271.52 306.247,271.187 303.5,271.5C 302.985,268.326 301.985,265.326 300.5,262.5C 300.647,257.711 301.647,253.378 303.5,249.5 Z"/></g>
<g><path style="opacity:1" fill="#4d4e7f" d="M 147.5,226.5 C 148.451,227.919 148.784,229.585 148.5,231.5C 147.049,248.475 145.883,265.475 145,282.5C 143.244,283.985 142.077,283.652 141.5,281.5C 140.781,279.236 140.448,276.903 140.5,274.5C 140.46,265.472 140.96,256.472 142,247.5C 142.21,245.942 142.71,244.609 143.5,243.5C 142.279,255.144 141.779,266.811 142,278.5C 142.915,279.328 143.581,280.328 144,281.5C 144.301,275.502 144.135,269.502 143.5,263.5C 144.167,258.167 144.833,252.833 145.5,247.5C 145.478,244.41 144.812,241.743 143.5,239.5C 144.682,235.104 146.015,230.771 147.5,226.5 Z"/></g>
<g><path style="opacity:1" fill="#7c7776" d="M 306.5,248.5 C 307.643,251.684 308.309,255.017 308.5,258.5C 311.254,259.366 313.921,260.533 316.5,262C 323.939,262.849 331.272,262.349 338.5,260.5C 341.722,261.404 344.722,262.737 347.5,264.5C 348.031,266.544 349.198,268.211 351,269.5C 351.499,273.152 351.665,276.818 351.5,280.5C 352.5,280.5 353.5,280.5 354.5,280.5C 354.5,281.833 354.5,283.167 354.5,284.5C 354.741,287.034 353.741,288.7 351.5,289.5C 349.194,283.862 347.194,278.029 345.5,272C 333.336,268.629 321.002,265.463 308.5,262.5C 305.845,257.923 305.179,253.257 306.5,248.5 Z"/></g>
<g><path style="opacity:1" fill="#8b6854" d="M 152.5,223.5 C 151.975,228.011 151.308,232.511 150.5,237C 153.526,244.883 154.026,253.049 152,261.5C 150.983,259.624 150.149,257.624 149.5,255.5C 148.104,261.972 148.437,268.306 150.5,274.5C 149.603,275.598 148.77,275.598 148,274.5C 147.833,275.333 147.667,276.167 147.5,277C 148.345,281.461 148.678,285.961 148.5,290.5C 146.856,290.714 145.356,290.38 144,289.5C 143.517,290.448 143.351,291.448 143.5,292.5C 139.648,292.489 137.815,294.489 138,298.5C 134.695,302.135 133.695,306.469 135,311.5C 138.043,315.049 141.876,317.049 146.5,317.5C 147.477,319.821 148.477,322.154 149.5,324.5C 146.755,320.963 143.088,319.296 138.5,319.5C 138.082,316.561 136.582,314.228 134,312.5C 133.651,300.978 135.317,289.978 139,279.5C 139.708,280.381 140.542,281.047 141.5,281.5C 142.077,283.652 143.244,283.985 145,282.5C 145.883,265.475 147.049,248.475 148.5,231.5C 149.466,228.555 150.8,225.888 152.5,223.5 Z"/></g>
<g><path style="opacity:1" fill="#936340" d="M 223.5,249.5 C 227.358,250.52 230.192,252.853 232,256.5C 232.414,256.043 232.914,255.709 233.5,255.5C 234.59,257.791 235.09,260.124 235,262.5C 234.085,261.672 233.419,260.672 233,259.5C 232.833,260 232.667,260.5 232.5,261C 233.811,264.431 234.811,267.931 235.5,271.5C 238.961,270.889 241.628,272.056 243.5,275C 242.572,275.388 241.905,276.055 241.5,277C 242.409,278.789 242.576,280.623 242,282.5C 241.333,283.833 240.667,283.833 240,282.5C 238.954,284.09 237.787,285.59 236.5,287C 237.376,288.586 238.376,290.086 239.5,291.5C 238.675,292.386 237.675,292.719 236.5,292.5C 238.262,295.81 239.262,299.476 239.5,303.5C 233.563,302.435 228.897,304.269 225.5,309C 224.167,309.333 222.833,309.667 221.5,310C 220.971,312.429 219.637,314.262 217.5,315.5C 219.611,316.848 221.445,316.515 223,314.5C 223.034,316.18 223.201,317.68 223.5,319C 213.871,320.002 204.371,319.502 195,317.5C 190.601,319.034 186.101,319.534 181.5,319C 184.043,318.86 186.377,318.194 188.5,317C 184.971,316.378 181.471,316.545 178,317.5C 172.258,314.376 166.091,314.043 159.5,316.5C 160.908,317.243 162.241,318.077 163.5,319C 162.833,319.167 162.167,319.333 161.5,319.5C 157.547,318.638 153.547,318.305 149.5,318.5C 150.639,321.004 151.306,323.67 151.5,326.5C 150.833,325.833 150.167,325.167 149.5,324.5C 148.477,322.154 147.477,319.821 146.5,317.5C 141.876,317.049 138.043,315.049 135,311.5C 133.695,306.469 134.695,302.135 138,298.5C 137.815,294.489 139.648,292.489 143.5,292.5C 143.351,291.448 143.517,290.448 144,289.5C 145.356,290.38 146.856,290.714 148.5,290.5C 148.678,285.961 148.345,281.461 147.5,277C 147.667,276.167 147.833,275.333 148,274.5C 148.77,275.598 149.603,275.598 150.5,274.5C 151.268,273.737 151.768,272.737 152,271.5C 152.72,273.255 153.887,274.089 155.5,274C 157.566,272.057 157.899,269.891 156.5,267.5C 158.109,263.627 159.109,259.627 159.5,255.5C 160.5,255.5 161.5,255.5 162.5,255.5C 163.746,257.417 164.413,259.25 164.5,261C 167.732,262.23 170.399,264.23 172.5,267C 173.448,267.483 174.448,267.649 175.5,267.5C 175.336,270.187 175.503,272.854 176,275.5C 177.905,276.158 179.405,277.325 180.5,279C 179.692,279.308 179.025,279.808 178.5,280.5C 181.107,281.318 183.774,281.818 186.5,282C 189.397,283.796 192.397,285.296 195.5,286.5C 199.459,287.327 203.459,287.827 207.5,288C 204.833,288.333 202.167,288.667 199.5,289C 198.167,289.667 198.167,290.333 199.5,291C 196.965,291.617 194.632,291.117 192.5,289.5C 191.614,290.325 191.281,291.325 191.5,292.5C 195.45,293.395 199.45,294.395 203.5,295.5C 203.291,296.086 202.957,296.586 202.5,297C 198.483,297.112 194.817,298.279 191.5,300.5C 194.107,301.318 196.774,301.818 199.5,302C 189.833,302.667 180.167,302.667 170.5,302C 170.833,301.667 171.167,301.333 171.5,301C 166.816,300.565 162.149,300.065 157.5,299.5C 155.735,298.539 153.735,298.205 151.5,298.5C 151.428,302.14 152.761,304.973 155.5,307C 161.986,308.831 168.653,310.164 175.5,311C 181.016,311.817 186.35,311.651 191.5,310.5C 197.747,309.776 204.08,308.776 210.5,307.5C 213.326,307.002 215.66,305.669 217.5,303.5C 221.833,300.5 225.5,296.833 228.5,292.5C 229.167,291.833 229.833,291.167 230.5,290.5C 231.117,290.389 231.617,290.056 232,289.5C 232.673,286.479 233.007,283.479 233,280.5C 230.334,282.987 227.834,282.987 225.5,280.5C 226.779,278.854 228.445,277.687 230.5,277C 229.624,274.624 227.958,273.124 225.5,272.5C 226.325,271.614 227.325,271.281 228.5,271.5C 228.539,263.709 226.872,256.376 223.5,249.5 Z"/></g>
<g><path style="opacity:1" fill="#5c3c8d" d="M 230.5,290.5 C 229.833,291.167 229.167,291.833 228.5,292.5C 229.231,290.401 229.231,288.401 228.5,286.5C 226.971,287.763 225.305,288.763 223.5,289.5C 225.299,286.37 227.966,284.37 231.5,283.5C 231.552,285.903 231.219,288.236 230.5,290.5 Z"/></g>
<g><path style="opacity:1" fill="#514597" d="M 348.5,292.5 C 349.675,292.281 350.675,292.614 351.5,293.5C 349.812,294.521 348.479,295.855 347.5,297.5C 345.435,297.517 343.435,297.85 341.5,298.5C 339.952,297.206 337.952,296.539 335.5,296.5C 330.18,297.099 324.847,297.432 319.5,297.5C 319.5,297.167 319.5,296.833 319.5,296.5C 325.051,296.473 330.384,295.806 335.5,294.5C 340.031,294.85 344.364,294.183 348.5,292.5 Z"/></g>
<g><path style="opacity:1" fill="#98663c" d="M 345.5,215.5 C 334.722,215.021 324.055,215.854 313.5,218C 315.5,218.333 317.5,218.667 319.5,219C 312.865,219.972 306.199,220.639 299.5,221C 299.167,221.333 298.833,221.667 298.5,222C 300.167,222.333 301.833,222.667 303.5,223C 301.167,223.333 298.833,223.667 296.5,224C 298.327,224.899 299.66,226.233 300.5,228C 299.119,230.135 298.119,232.468 297.5,235C 298.819,240.363 298.319,245.196 296,249.5C 294.706,252.332 294.539,255.165 295.5,258C 292.542,262.665 291.875,267.665 293.5,273C 293.158,277.849 291.324,282.016 288,285.5C 287.501,291.491 287.334,297.491 287.5,303.5C 289.5,303.5 291.5,303.5 293.5,303.5C 291.514,309.2 293.181,313.533 298.5,316.5C 300.071,315.691 301.738,315.357 303.5,315.5C 303.5,316.833 303.5,318.167 303.5,319.5C 305.833,319.5 308.167,319.5 310.5,319.5C 310.5,318.167 310.5,316.833 310.5,315.5C 313.482,315.037 316.482,314.704 319.5,314.5C 319.5,316.167 319.5,317.833 319.5,319.5C 322.119,319.232 324.619,319.565 327,320.5C 328.333,319.833 329.333,318.833 330,317.5C 333.168,319.205 336.668,320.038 340.5,320C 340.043,320.414 339.709,320.914 339.5,321.5C 340.549,324.747 341.216,328.08 341.5,331.5C 340.098,337.611 339.098,343.778 338.5,350C 339.22,354.4 338.387,358.566 336,362.5C 336.285,372.386 335.785,382.386 334.5,392.5C 331.453,393.875 330.12,396.208 330.5,399.5C 329.5,399.5 328.5,399.5 327.5,399.5C 326.908,402.691 325.741,405.691 324,408.5C 322.644,409.38 321.144,409.714 319.5,409.5C 319.657,410.873 319.49,412.207 319,413.5C 318,412.167 317,412.167 316,413.5C 315.794,416.623 315.127,419.623 314,422.5C 312.491,423.09 310.991,423.756 309.5,424.5C 310.025,425.192 310.692,425.692 311.5,426C 310.833,427.667 310.167,429.333 309.5,431C 305.167,431.333 300.833,431.667 296.5,432C 298.74,432.977 301.073,433.477 303.5,433.5C 303.719,434.675 303.386,435.675 302.5,436.5C 296.845,439.183 297.178,440.516 303.5,440.5C 303.5,441.5 303.5,442.5 303.5,443.5C 300.633,443.369 298.967,444.703 298.5,447.5C 294.733,449.017 291.066,450.684 287.5,452.5C 284.167,453.167 280.833,453.833 277.5,454.5C 270.142,454.582 262.809,454.248 255.5,453.5C 249.995,451.669 244.661,449.669 239.5,447.5C 234.732,444.291 229.398,442.124 223.5,441C 220.55,438.212 217.217,436.045 213.5,434.5C 212.614,433.675 212.281,432.675 212.5,431.5C 210.712,431.785 209.045,431.452 207.5,430.5C 202.764,425.43 197.431,421.097 191.5,417.5C 188.223,413.243 183.89,410.577 178.5,409.5C 178.5,408.5 178.5,407.5 178.5,406.5C 177.5,406.5 176.5,406.5 175.5,406.5C 173.529,404.56 171.196,402.893 168.5,401.5C 168.709,400.914 169.043,400.414 169.5,400C 166.477,395.939 165.31,391.439 166,386.5C 164.084,381.01 161.917,375.677 159.5,370.5C 158.5,370.5 157.5,370.5 156.5,370.5C 154.089,355.97 152.423,341.304 151.5,326.5C 151.306,323.67 150.639,321.004 149.5,318.5C 153.547,318.305 157.547,318.638 161.5,319.5C 162.167,319.333 162.833,319.167 163.5,319C 162.241,318.077 160.908,317.243 159.5,316.5C 166.091,314.043 172.258,314.376 178,317.5C 181.471,316.545 184.971,316.378 188.5,317C 186.377,318.194 184.043,318.86 181.5,319C 186.101,319.534 190.601,319.034 195,317.5C 204.371,319.502 213.871,320.002 223.5,319C 223.201,317.68 223.034,316.18 223,314.5C 221.445,316.515 219.611,316.848 217.5,315.5C 219.637,314.262 220.971,312.429 221.5,310C 222.833,309.667 224.167,309.333 225.5,309C 228.897,304.269 233.563,302.435 239.5,303.5C 239.262,299.476 238.262,295.81 236.5,292.5C 237.675,292.719 238.675,292.386 239.5,291.5C 238.376,290.086 237.376,288.586 236.5,287C 237.787,285.59 238.954,284.09 240,282.5C 240.667,283.833 241.333,283.833 242,282.5C 242.576,280.623 242.409,278.789 241.5,277C 241.905,276.055 242.572,275.388 243.5,275C 241.628,272.056 238.961,270.889 235.5,271.5C 234.811,267.931 233.811,264.431 232.5,261C 232.667,260.5 232.833,260 233,259.5C 233.419,260.672 234.085,261.672 235,262.5C 235.09,260.124 234.59,257.791 233.5,255.5C 232.914,255.709 232.414,256.043 232,256.5C 230.192,252.853 227.358,250.52 223.5,249.5C 222.401,245.7 222.401,241.866 223.5,238C 222.194,233.249 221.361,228.416 221,223.5C 220.667,223.833 220.333,224.167 220,224.5C 217.436,222.923 214.603,221.923 211.5,221.5C 208.93,222.634 206.264,223.468 203.5,224C 204.563,225.188 205.897,225.688 207.5,225.5C 208.828,228.356 209.828,231.356 210.5,234.5C 209.5,234.5 208.5,234.5 207.5,234.5C 204.964,232.004 201.797,231.004 198,231.5C 191.868,232.605 185.701,233.439 179.5,234C 177.714,234.785 176.214,235.951 175,237.5C 174,236.167 173,236.167 172,237.5C 171.481,236.484 170.647,235.818 169.5,235.5C 165.062,236.717 160.729,237.05 156.5,236.5C 156.173,234.512 155.84,232.512 155.5,230.5C 155.954,228.306 156.954,226.473 158.5,225C 158.095,224.055 157.428,223.388 156.5,223C 158.5,223 160.5,223 162.5,223C 161.833,222.667 161.167,222.333 160.5,222C 161.858,221.066 163.192,220.232 164.5,219.5C 167.402,216.39 171.068,214.89 175.5,215C 232.335,214.168 289.001,214.335 345.5,215.5 Z"/></g>
<g><path style="opacity:1" fill="#4d4686" d="M 157.5,299.5 C 160.778,300.957 164.111,302.29 167.5,303.5C 164.183,302.779 160.849,302.612 157.5,303C 161.894,304.031 165.894,305.864 169.5,308.5C 164.703,306.609 159.703,305.609 154.5,305.5C 154.167,303.5 153.833,301.5 153.5,299.5C 154.833,299.5 156.167,299.5 157.5,299.5 Z"/></g>
<g><path style="opacity:1" fill="#8a6a6d" d="M 157.5,299.5 C 156.167,299.5 154.833,299.5 153.5,299.5C 153.833,301.5 154.167,303.5 154.5,305.5C 159.703,305.609 164.703,306.609 169.5,308.5C 176.603,310.105 183.937,310.772 191.5,310.5C 186.35,311.651 181.016,311.817 175.5,311C 168.653,310.164 161.986,308.831 155.5,307C 152.761,304.973 151.428,302.14 151.5,298.5C 153.735,298.205 155.735,298.539 157.5,299.5 Z"/></g>
<g><path style="opacity:1" fill="#3e3ed1" d="M 228.5,292.5 C 225.5,296.833 221.833,300.5 217.5,303.5C 215.02,304.242 212.687,305.242 210.5,306.5C 205.36,307.09 200.693,306.09 196.5,303.5C 207.494,302.617 216.494,297.951 223.5,289.5C 225.305,288.763 226.971,287.763 228.5,286.5C 229.231,288.401 229.231,290.401 228.5,292.5 Z"/></g>
<g><path style="opacity:1" fill="#906699" d="M 217.5,303.5 C 215.66,305.669 213.326,307.002 210.5,307.5C 210.5,307.167 210.5,306.833 210.5,306.5C 212.687,305.242 215.02,304.242 217.5,303.5 Z"/></g>
<g><path style="opacity:1" fill="#434ab3" d="M 167.5,303.5 C 168.167,303.5 168.833,303.5 169.5,303.5C 171.332,305.894 173.832,306.894 177,306.5C 182.294,306.448 187.127,305.448 191.5,303.5C 193.167,303.5 194.833,303.5 196.5,303.5C 200.693,306.09 205.36,307.09 210.5,306.5C 210.5,306.833 210.5,307.167 210.5,307.5C 204.08,308.776 197.747,309.776 191.5,310.5C 183.937,310.772 176.603,310.105 169.5,308.5C 165.894,305.864 161.894,304.031 157.5,303C 160.849,302.612 164.183,302.779 167.5,303.5 Z"/></g>
<g><path style="opacity:1" fill="#4d4d99" d="M 169.5,303.5 C 176.833,303.5 184.167,303.5 191.5,303.5C 187.127,305.448 182.294,306.448 177,306.5C 173.832,306.894 171.332,305.894 169.5,303.5 Z"/></g>
<g><path style="opacity:1" fill="#936743" d="M 345.5,215.5 C 349.785,216.295 354.119,216.628 358.5,216.5C 354.379,221.023 349.212,223.689 343,224.5C 338.587,223.368 334.087,223.201 329.5,224C 331.5,224.833 333.5,225.667 335.5,226.5C 334.667,226.833 333.833,227.167 333,227.5C 330.863,226.923 328.696,226.59 326.5,226.5C 326.5,225.5 326.5,224.5 326.5,223.5C 323.753,223.187 321.086,223.52 318.5,224.5C 317.41,225.609 317.41,226.609 318.5,227.5C 319.854,225.816 321.521,225.316 323.5,226C 323.982,227.008 324.148,228.175 324,229.5C 326.124,230.227 328.291,230.894 330.5,231.5C 331.429,232.689 331.762,234.022 331.5,235.5C 327.098,235.772 322.765,235.439 318.5,234.5C 312.664,236.792 306.664,238.459 300.5,239.5C 299.937,246.881 298.937,254.215 297.5,261.5C 297.374,264.87 298.04,268.037 299.5,271C 298.379,277.079 297.546,283.246 297,289.5C 296.667,288.833 296.333,288.167 296,287.5C 295.53,291.184 295.697,294.518 296.5,297.5C 295.464,299.391 295.464,301.224 296.5,303C 299.5,303.333 302.5,303.667 305.5,304C 303.779,304.739 302.113,305.573 300.5,306.5C 302.674,307.893 304.507,307.56 306,305.5C 307.996,305.996 309.663,306.996 311,308.5C 312.4,307.884 313.9,307.551 315.5,307.5C 324.91,308.117 334.243,309.284 343.5,311C 343.167,311.333 342.833,311.667 342.5,312C 347.252,314.519 348.918,318.352 347.5,323.5C 351.091,327.546 352.257,332.212 351,337.5C 348.448,334.806 347.281,335.473 347.5,339.5C 348.552,339.351 349.552,339.517 350.5,340C 349.644,342.41 348.31,343.577 346.5,343.5C 347.025,344.192 347.692,344.692 348.5,345C 346.744,350.235 345.411,355.569 344.5,361C 345.081,361.893 345.415,362.893 345.5,364C 341.956,372.511 341.956,381.011 345.5,389.5C 340.178,393.684 337.678,399.017 338,405.5C 337.333,406.167 336.667,406.833 336,407.5C 335,406.167 334,406.167 333,407.5C 331.848,409.649 330.348,411.482 328.5,413C 328.957,413.414 329.291,413.914 329.5,414.5C 326.956,415.426 324.456,416.426 322,417.5C 321.415,419.129 320.581,420.629 319.5,422C 322.34,424.408 322.006,426.241 318.5,427.5C 317.571,428.689 317.238,430.022 317.5,431.5C 316.325,431.281 315.325,431.614 314.5,432.5C 312.5,434.5 310.5,436.5 308.5,438.5C 306.709,439.17 305.042,439.837 303.5,440.5C 297.178,440.516 296.845,439.183 302.5,436.5C 303.386,435.675 303.719,434.675 303.5,433.5C 301.073,433.477 298.74,432.977 296.5,432C 300.833,431.667 305.167,431.333 309.5,431C 310.167,429.333 310.833,427.667 311.5,426C 310.692,425.692 310.025,425.192 309.5,424.5C 310.991,423.756 312.491,423.09 314,422.5C 315.127,419.623 315.794,416.623 316,413.5C 317,412.167 318,412.167 319,413.5C 319.49,412.207 319.657,410.873 319.5,409.5C 321.144,409.714 322.644,409.38 324,408.5C 325.741,405.691 326.908,402.691 327.5,399.5C 328.5,399.5 329.5,399.5 330.5,399.5C 330.12,396.208 331.453,393.875 334.5,392.5C 335.785,382.386 336.285,372.386 336,362.5C 338.387,358.566 339.22,354.4 338.5,350C 339.098,343.778 340.098,337.611 341.5,331.5C 341.216,328.08 340.549,324.747 339.5,321.5C 339.709,320.914 340.043,320.414 340.5,320C 336.668,320.038 333.168,319.205 330,317.5C 329.333,318.833 328.333,319.833 327,320.5C 324.619,319.565 322.119,319.232 319.5,319.5C 319.5,317.833 319.5,316.167 319.5,314.5C 316.482,314.704 313.482,315.037 310.5,315.5C 310.5,316.833 310.5,318.167 310.5,319.5C 308.167,319.5 305.833,319.5 303.5,319.5C 303.5,318.167 303.5,316.833 303.5,315.5C 301.738,315.357 300.071,315.691 298.5,316.5C 293.181,313.533 291.514,309.2 293.5,303.5C 291.5,303.5 289.5,303.5 287.5,303.5C 287.334,297.491 287.501,291.491 288,285.5C 291.324,282.016 293.158,277.849 293.5,273C 291.875,267.665 292.542,262.665 295.5,258C 294.539,255.165 294.706,252.332 296,249.5C 298.319,245.196 298.819,240.363 297.5,235C 298.119,232.468 299.119,230.135 300.5,228C 299.66,226.233 298.327,224.899 296.5,224C 298.833,223.667 301.167,223.333 303.5,223C 301.833,222.667 300.167,222.333 298.5,222C 298.833,221.667 299.167,221.333 299.5,221C 306.199,220.639 312.865,219.972 319.5,219C 317.5,218.667 315.5,218.333 313.5,218C 324.055,215.854 334.722,215.021 345.5,215.5 Z"/></g>
<g><path style="opacity:1" fill="#817369" d="M 140.5,274.5 C 140.448,276.903 140.781,279.236 141.5,281.5C 140.542,281.047 139.708,280.381 139,279.5C 135.317,289.978 133.651,300.978 134,312.5C 136.582,314.228 138.082,316.561 138.5,319.5C 143.088,319.296 146.755,320.963 149.5,324.5C 149.942,328.154 150.276,331.821 150.5,335.5C 149.32,331.496 147.82,327.496 146,323.5C 133.306,320.468 128.472,312.468 131.5,299.5C 133.601,290.116 135.767,280.783 138,271.5C 138.236,273.119 139.069,274.119 140.5,274.5 Z"/></g>
<g><path style="opacity:1" fill="#846b58" d="M 319.5,296.5 C 319.5,296.833 319.5,297.167 319.5,297.5C 317.5,297.5 315.5,297.5 313.5,297.5C 311.571,297.231 309.905,297.731 308.5,299C 309.167,299.333 309.833,299.667 310.5,300C 319.676,300.824 328.676,300.657 337.5,299.5C 338.708,298.766 340.041,298.433 341.5,298.5C 343.435,297.85 345.435,297.517 347.5,297.5C 350.215,295.877 353.215,295.21 356.5,295.5C 356.023,298.917 357.023,301.584 359.5,303.5C 359.5,335.5 359.5,367.5 359.5,399.5C 357.318,402.693 355.318,406.026 353.5,409.5C 349.865,413.637 345.531,416.804 340.5,419C 339.833,420 339.167,421 338.5,422C 333.495,424.45 328.828,427.45 324.5,431C 323.552,431.483 322.552,431.649 321.5,431.5C 325.699,427.55 329.366,423.05 332.5,418C 335.371,417.869 337.705,416.703 339.5,414.5C 340.851,411.804 342.684,409.47 345,407.5C 345.595,406.101 345.428,404.768 344.5,403.5C 346.149,402.852 347.482,401.852 348.5,400.5C 350.045,399.548 351.712,399.215 353.5,399.5C 353.704,396.482 354.037,393.482 354.5,390.5C 355.5,390.5 356.5,390.5 357.5,390.5C 358.467,363.179 358.301,335.845 357,308.5C 354.836,306.52 353.336,304.187 352.5,301.5C 351.167,301.5 349.833,301.5 348.5,301.5C 348.5,300.5 348.5,299.5 348.5,298.5C 345.279,299.505 341.946,300.339 338.5,301C 338.167,301.333 337.833,301.667 337.5,302C 339.5,302.333 341.5,302.667 343.5,303C 340.294,303.89 337.294,303.557 334.5,302C 324.151,301.832 313.817,301.332 303.5,300.5C 303.145,299.478 302.478,298.811 301.5,298.5C 300.708,297.033 300.708,295.7 301.5,294.5C 302.308,294.808 302.975,295.308 303.5,296C 308.823,296.499 314.156,296.666 319.5,296.5 Z"/></g>
<g><path style="opacity:1" fill="#61508c" d="M 313.5,297.5 C 313.389,298.117 313.056,298.617 312.5,299C 320.827,299.5 329.16,299.666 337.5,299.5C 328.676,300.657 319.676,300.824 310.5,300C 309.833,299.667 309.167,299.333 308.5,299C 309.905,297.731 311.571,297.231 313.5,297.5 Z"/></g>
<g><path style="opacity:1" fill="#4848b3" d="M 341.5,298.5 C 340.041,298.433 338.708,298.766 337.5,299.5C 329.16,299.666 320.827,299.5 312.5,299C 313.056,298.617 313.389,298.117 313.5,297.5C 315.5,297.5 317.5,297.5 319.5,297.5C 324.847,297.432 330.18,297.099 335.5,296.5C 337.952,296.539 339.952,297.206 341.5,298.5 Z"/></g>
<g><path style="opacity:1" fill="#8d6645" d="M 296.5,297.5 C 297.222,297.918 297.722,298.584 298,299.5C 298.953,297.627 300.12,297.294 301.5,298.5C 302.478,298.811 303.145,299.478 303.5,300.5C 313.817,301.332 324.151,301.832 334.5,302C 337.294,303.557 340.294,303.89 343.5,303C 341.5,302.667 339.5,302.333 337.5,302C 337.833,301.667 338.167,301.333 338.5,301C 341.946,300.339 345.279,299.505 348.5,298.5C 348.5,299.5 348.5,300.5 348.5,301.5C 349.833,301.5 351.167,301.5 352.5,301.5C 353.336,304.187 354.836,306.52 357,308.5C 358.301,335.845 358.467,363.179 357.5,390.5C 356.5,390.5 355.5,390.5 354.5,390.5C 354.037,393.482 353.704,396.482 353.5,399.5C 351.712,399.215 350.045,399.548 348.5,400.5C 347.482,401.852 346.149,402.852 344.5,403.5C 345.428,404.768 345.595,406.101 345,407.5C 342.684,409.47 340.851,411.804 339.5,414.5C 337.705,416.703 335.371,417.869 332.5,418C 329.366,423.05 325.699,427.55 321.5,431.5C 315.017,438.281 307.35,443.614 298.5,447.5C 298.967,444.703 300.633,443.369 303.5,443.5C 303.5,442.5 303.5,441.5 303.5,440.5C 305.042,439.837 306.709,439.17 308.5,438.5C 310.5,436.5 312.5,434.5 314.5,432.5C 315.325,431.614 316.325,431.281 317.5,431.5C 317.238,430.022 317.571,428.689 318.5,427.5C 322.006,426.241 322.34,424.408 319.5,422C 320.581,420.629 321.415,419.129 322,417.5C 324.456,416.426 326.956,415.426 329.5,414.5C 329.291,413.914 328.957,413.414 328.5,413C 330.348,411.482 331.848,409.649 333,407.5C 334,406.167 335,406.167 336,407.5C 336.667,406.833 337.333,406.167 338,405.5C 337.678,399.017 340.178,393.684 345.5,389.5C 341.956,381.011 341.956,372.511 345.5,364C 345.415,362.893 345.081,361.893 344.5,361C 345.411,355.569 346.744,350.235 348.5,345C 347.692,344.692 347.025,344.192 346.5,343.5C 348.31,343.577 349.644,342.41 350.5,340C 349.552,339.517 348.552,339.351 347.5,339.5C 347.281,335.473 348.448,334.806 351,337.5C 352.257,332.212 351.091,327.546 347.5,323.5C 348.918,318.352 347.252,314.519 342.5,312C 342.833,311.667 343.167,311.333 343.5,311C 334.243,309.284 324.91,308.117 315.5,307.5C 313.9,307.551 312.4,307.884 311,308.5C 309.663,306.996 307.996,305.996 306,305.5C 304.507,307.56 302.674,307.893 300.5,306.5C 302.113,305.573 303.779,304.739 305.5,304C 302.5,303.667 299.5,303.333 296.5,303C 295.464,301.224 295.464,299.391 296.5,297.5 Z"/></g>
<g><path style="opacity:1" fill="#757e7d" d="M 359.5,303.5 C 360.623,334 361.123,364.666 361,395.5C 360.79,397.058 360.29,398.391 359.5,399.5C 359.5,367.5 359.5,335.5 359.5,303.5 Z"/></g>
<g><path style="opacity:1" fill="#6b7a7d" d="M 131.5,299.5 C 128.472,312.468 133.306,320.468 146,323.5C 147.82,327.496 149.32,331.496 150.5,335.5C 152.251,351.352 153.918,367.352 155.5,383.5C 154.25,383.423 153.417,382.756 153,381.5C 150.588,363.782 148.088,346.115 145.5,328.5C 145.081,327.328 144.415,326.328 143.5,325.5C 138.944,324.805 134.778,323.139 131,320.5C 128.856,313.293 129.023,306.293 131.5,299.5 Z"/></g>
<g><path style="opacity:1" fill="#a63f87" d="M 271.5,383.5 C 259.141,384.194 246.641,384.861 234,385.5C 233.5,385.833 233,386.167 232.5,386.5C 235.199,388.898 236.533,391.898 236.5,395.5C 235.589,393.249 234.256,391.249 232.5,389.5C 230.621,388.095 230.288,386.428 231.5,384.5C 244.817,383.501 258.15,383.167 271.5,383.5 Z"/></g>
<g><path style="opacity:1" fill="#8e694e" d="M 149.5,324.5 C 150.167,325.167 150.833,325.833 151.5,326.5C 152.423,341.304 154.089,355.97 156.5,370.5C 157.5,370.5 158.5,370.5 159.5,370.5C 161.917,375.677 164.084,381.01 166,386.5C 165.31,391.439 166.477,395.939 169.5,400C 169.043,400.414 168.709,400.914 168.5,401.5C 171.196,402.893 173.529,404.56 175.5,406.5C 175.167,406.5 174.833,406.5 174.5,406.5C 172.483,405.471 170.483,404.471 168.5,403.5C 165.203,400.264 162.37,396.597 160,392.5C 159.9,388.627 158.4,385.627 155.5,383.5C 153.918,367.352 152.251,351.352 150.5,335.5C 150.276,331.821 149.942,328.154 149.5,324.5 Z"/></g>
<g><path style="opacity:1" fill="#8d2596" d="M 271.5,383.5 C 276.844,383.334 282.177,383.501 287.5,384C 288.737,384.232 289.737,384.732 290.5,385.5C 272.479,386.003 254.479,386.169 236.5,386C 235.226,386.977 235.226,387.811 236.5,388.5C 237.247,391.899 238.247,395.233 239.5,398.5C 238.272,397.694 237.272,396.694 236.5,395.5C 236.533,391.898 235.199,388.898 232.5,386.5C 233,386.167 233.5,385.833 234,385.5C 246.641,384.861 259.141,384.194 271.5,383.5 Z"/></g>
<g><path style="opacity:1" fill="#7d1ac4" d="M 290.5,385.5 C 292.903,385.448 295.236,385.781 297.5,386.5C 298.826,388.195 298.493,389.528 296.5,390.5C 295.5,390.5 294.5,390.5 293.5,390.5C 281.665,389.41 269.665,389.41 257.5,390.5C 250.432,390.408 243.432,389.741 236.5,388.5C 235.226,387.811 235.226,386.977 236.5,386C 254.479,386.169 272.479,386.003 290.5,385.5 Z"/></g>
<g><path style="opacity:1" fill="#aa06cd" d="M 236.5,388.5 C 243.432,389.741 250.432,390.408 257.5,390.5C 269.665,389.41 281.665,389.41 293.5,390.5C 293.431,394.776 292.431,398.776 290.5,402.5C 289.5,402.5 288.5,402.5 287.5,402.5C 287.5,401.5 287.5,400.5 287.5,399.5C 279.158,398.471 270.991,397.138 263,395.5C 259.542,395.12 256.042,395.786 252.5,397.5C 250.246,397.069 248.079,396.403 246,395.5C 245.167,395.833 244.333,396.167 243.5,396.5C 245.512,398.455 247.846,399.955 250.5,401C 260.781,402.54 271.114,403.374 281.5,403.5C 273.01,404.657 264.343,404.824 255.5,404C 250.227,402.512 244.893,401.346 239.5,400.5C 239.5,399.833 239.5,399.167 239.5,398.5C 238.247,395.233 237.247,391.899 236.5,388.5 Z"/></g>
<g><path style="opacity:1" fill="#a65750" d="M 232.5,389.5 C 234.256,391.249 235.589,393.249 236.5,395.5C 237.272,396.694 238.272,397.694 239.5,398.5C 239.5,399.167 239.5,399.833 239.5,400.5C 243.461,402.917 247.795,404.583 252.5,405.5C 262.653,406.494 272.986,406.828 283.5,406.5C 272.674,407.659 261.674,407.826 250.5,407C 245.398,405.784 240.398,404.451 235.5,403C 233.17,398.825 232.17,394.325 232.5,389.5 Z"/></g>
<g><path style="opacity:1" fill="#ad4264" d="M 299.5,391.5 C 298.769,401.227 293.436,406.227 283.5,406.5C 272.986,406.828 262.653,406.494 252.5,405.5C 262.839,405.666 273.172,405.5 283.5,405C 286.579,404.315 289.579,403.481 292.5,402.5C 294.931,400.71 296.264,398.21 296.5,395C 297.371,393.636 298.371,392.47 299.5,391.5 Z"/></g>
<g><path style="opacity:1" fill="#ac01de" d="M 287.5,402.5 C 285.5,402.833 283.5,403.167 281.5,403.5C 271.114,403.374 260.781,402.54 250.5,401C 247.846,399.955 245.512,398.455 243.5,396.5C 244.333,396.167 245.167,395.833 246,395.5C 248.079,396.403 250.246,397.069 252.5,397.5C 256.042,395.786 259.542,395.12 263,395.5C 270.991,397.138 279.158,398.471 287.5,399.5C 287.5,400.5 287.5,401.5 287.5,402.5 Z"/></g>
<g><path style="opacity:1" fill="#a3357c" d="M 297.5,386.5 C 299.435,387.15 301.435,387.483 303.5,387.5C 303.5,388.5 303.5,389.5 303.5,390.5C 301.901,390.232 300.568,390.566 299.5,391.5C 298.371,392.47 297.371,393.636 296.5,395C 296.264,398.21 294.931,400.71 292.5,402.5C 293.955,398.582 295.289,394.582 296.5,390.5C 298.493,389.528 298.826,388.195 297.5,386.5 Z"/></g>
<g><path style="opacity:1" fill="#b31ba1" d="M 293.5,390.5 C 294.5,390.5 295.5,390.5 296.5,390.5C 295.289,394.582 293.955,398.582 292.5,402.5C 289.579,403.481 286.579,404.315 283.5,405C 273.172,405.5 262.839,405.666 252.5,405.5C 247.795,404.583 243.461,402.917 239.5,400.5C 244.893,401.346 250.227,402.512 255.5,404C 264.343,404.824 273.01,404.657 281.5,403.5C 283.5,403.167 285.5,402.833 287.5,402.5C 288.5,402.5 289.5,402.5 290.5,402.5C 292.431,398.776 293.431,394.776 293.5,390.5 Z"/></g>
<g><path style="opacity:1" fill="#5047a8" d="M 168.5,403.5 C 170.483,404.471 172.483,405.471 174.5,406.5C 174.53,407.497 174.03,408.164 173,408.5C 170.599,407.601 169.099,405.934 168.5,403.5 Z"/></g>
<g><path style="opacity:1" fill="#737b7c" d="M 173.5,409.5 C 171.757,442.085 171.257,474.752 172,507.5C 173.334,508.878 173.501,510.211 172.5,511.5C 171.167,511.5 169.833,511.5 168.5,511.5C 169.664,479.491 169.998,447.491 169.5,415.5C 168.448,415.649 167.448,415.483 166.5,415C 168.592,414.047 168.925,412.714 167.5,411C 169.345,409.872 171.345,409.372 173.5,409.5 Z"/></g>
<g><path style="opacity:1" fill="#99663b" d="M 179.5,412.5 C 183.881,414.684 187.881,417.35 191.5,420.5C 193.813,423.806 196.813,426.473 200.5,428.5C 193.255,431.101 193.255,434.268 200.5,438C 201.548,441.456 203.881,442.956 207.5,442.5C 208.617,437.287 209.951,437.287 211.5,442.5C 213.815,443.234 215.648,444.568 217,446.5C 217.333,446.167 217.667,445.833 218,445.5C 217.871,449.582 219.538,452.582 223,454.5C 223.635,458.398 223.301,462.064 222,465.5C 225.415,468.745 228.249,472.411 230.5,476.5C 233.236,477.862 235.569,479.696 237.5,482C 244.759,483.195 249.759,487.195 252.5,494C 252.095,494.945 251.428,495.612 250.5,496C 252.647,498.162 252.647,500.496 250.5,503C 253.474,504.506 253.807,506.172 251.5,508C 241.682,508.81 231.849,509.31 222,509.5C 211.811,508.753 201.644,508.753 191.5,509.5C 187.482,509.269 183.816,508.102 180.5,506C 181.759,505.077 183.092,504.243 184.5,503.5C 182.874,502.01 181.208,500.51 179.5,499C 180.167,498 180.833,497 181.5,496C 180.873,490.488 180.539,484.988 180.5,479.5C 179.5,479.5 178.5,479.5 177.5,479.5C 177.245,467.614 177.911,455.781 179.5,444C 178.506,439.608 178.839,435.275 180.5,431C 180.343,426.269 180.176,421.435 180,416.5C 179.355,415.354 178.522,414.354 177.5,413.5C 177.957,412.702 178.624,412.369 179.5,412.5 Z"/></g>
<g><path style="opacity:1" fill="#6c838a" d="M 353.5,409.5 C 351.856,412.974 350.19,416.474 348.5,420C 342.999,423.241 337.666,426.075 332.5,428.5C 332.912,432.391 332.245,436.224 330.5,440C 329.167,440.667 327.833,440.667 326.5,440C 328.836,437.952 328.836,436.118 326.5,434.5C 321.176,438.221 315.509,440.887 309.5,442.5C 310.186,446.657 308.686,447.991 305,446.5C 302,447.833 299,449.167 296,450.5C 293.822,451.893 292.822,453.56 293,455.5C 290.566,454.678 288.066,454.344 285.5,454.5C 286.167,453.833 286.833,453.167 287.5,452.5C 291.066,450.684 294.733,449.017 298.5,447.5C 307.35,443.614 315.017,438.281 321.5,431.5C 322.552,431.649 323.552,431.483 324.5,431C 328.828,427.45 333.495,424.45 338.5,422C 339.167,421 339.833,420 340.5,419C 345.531,416.804 349.865,413.637 353.5,409.5 Z"/></g>
<g><path style="opacity:1" fill="#946541" d="M 179.5,412.5 C 178.624,412.369 177.957,412.702 177.5,413.5C 178.522,414.354 179.355,415.354 180,416.5C 180.176,421.435 180.343,426.269 180.5,431C 178.839,435.275 178.506,439.608 179.5,444C 177.911,455.781 177.245,467.614 177.5,479.5C 178.5,479.5 179.5,479.5 180.5,479.5C 180.539,484.988 180.873,490.488 181.5,496C 180.833,497 180.167,498 179.5,499C 181.208,500.51 182.874,502.01 184.5,503.5C 183.092,504.243 181.759,505.077 180.5,506C 183.816,508.102 187.482,509.269 191.5,509.5C 201.644,508.753 211.811,508.753 222,509.5C 231.849,509.31 241.682,508.81 251.5,508C 253.807,506.172 253.474,504.506 250.5,503C 252.647,500.496 252.647,498.162 250.5,496C 251.428,495.612 252.095,494.945 252.5,494C 249.759,487.195 244.759,483.195 237.5,482C 235.569,479.696 233.236,477.862 230.5,476.5C 228.249,472.411 225.415,468.745 222,465.5C 223.301,462.064 223.635,458.398 223,454.5C 219.538,452.582 217.871,449.582 218,445.5C 217.667,445.833 217.333,446.167 217,446.5C 215.648,444.568 213.815,443.234 211.5,442.5C 209.951,437.287 208.617,437.287 207.5,442.5C 203.881,442.956 201.548,441.456 200.5,438C 193.255,434.268 193.255,431.101 200.5,428.5C 196.813,426.473 193.813,423.806 191.5,420.5C 192.239,420.631 192.906,420.464 193.5,420C 192.619,419.292 191.953,418.458 191.5,417.5C 197.431,421.097 202.764,425.43 207.5,430.5C 209.045,431.452 210.712,431.785 212.5,431.5C 212.281,432.675 212.614,433.675 213.5,434.5C 217.217,436.045 220.55,438.212 223.5,441C 229.398,442.124 234.732,444.291 239.5,447.5C 236.15,447.335 232.817,447.502 229.5,448C 231.503,450.002 233.836,451.502 236.5,452.5C 238.031,453.613 239.031,455.113 239.5,457C 238.041,459.589 238.708,461.589 241.5,463C 239.638,466.149 238.971,469.649 239.5,473.5C 243.471,473.485 246.471,475.152 248.5,478.5C 249.325,479.386 250.325,479.719 251.5,479.5C 251.351,480.552 251.517,481.552 252,482.5C 253.556,483.52 254.722,484.853 255.5,486.5C 256.473,491.311 257.14,495.978 257.5,500.5C 257.023,501.478 256.357,502.311 255.5,503C 256.574,503.739 257.241,504.739 257.5,506C 256.115,507.597 255.449,509.43 255.5,511.5C 230.5,511.5 205.5,511.5 180.5,511.5C 180.084,509.248 178.751,507.748 176.5,507C 179.097,504.738 178.93,502.905 176,501.5C 175.808,473.484 175.308,445.484 174.5,417.5C 175.157,415.528 175.157,413.695 174.5,412C 176.315,410.23 177.982,410.397 179.5,412.5 Z"/></g>
<g><path style="opacity:1" fill="#7f565c" d="M 255.5,453.5 C 262.809,454.248 270.142,454.582 277.5,454.5C 274.41,457.054 270.744,458.054 266.5,457.5C 261.893,456.446 257.227,455.779 252.5,455.5C 251.244,455.539 250.244,455.039 249.5,454C 251.473,453.505 253.473,453.338 255.5,453.5 Z"/></g>
<g><path style="opacity:1" fill="#896345" d="M 239.5,447.5 C 244.661,449.669 249.995,451.669 255.5,453.5C 253.473,453.338 251.473,453.505 249.5,454C 250.244,455.039 251.244,455.539 252.5,455.5C 253.209,456.404 254.209,456.737 255.5,456.5C 255.5,457.833 255.5,459.167 255.5,460.5C 260.694,460.942 260.694,461.942 255.5,463.5C 254.289,464.874 253.289,466.374 252.5,468C 254.327,472.126 256.661,475.96 259.5,479.5C 259.95,490.275 259.95,500.942 259.5,511.5C 258.167,511.5 256.833,511.5 255.5,511.5C 255.449,509.43 256.115,507.597 257.5,506C 257.241,504.739 256.574,503.739 255.5,503C 256.357,502.311 257.023,501.478 257.5,500.5C 257.14,495.978 256.473,491.311 255.5,486.5C 254.722,484.853 253.556,483.52 252,482.5C 251.517,481.552 251.351,480.552 251.5,479.5C 250.325,479.719 249.325,479.386 248.5,478.5C 246.471,475.152 243.471,473.485 239.5,473.5C 238.971,469.649 239.638,466.149 241.5,463C 238.708,461.589 238.041,459.589 239.5,457C 239.031,455.113 238.031,453.613 236.5,452.5C 233.836,451.502 231.503,450.002 229.5,448C 232.817,447.502 236.15,447.335 239.5,447.5 Z"/></g>
<g><path style="opacity:1" fill="#7b6451" d="M 252.5,455.5 C 257.227,455.779 261.893,456.446 266.5,457.5C 264.672,459.248 263.005,461.082 261.5,463C 262.833,463.333 264.167,463.667 265.5,464C 264.311,468.374 264.644,472.708 266.5,477C 264.757,485.585 263.757,494.085 263.5,502.5C 263.76,504.187 264.427,505.687 265.5,507C 263.859,508.129 262.859,509.629 262.5,511.5C 261.5,511.5 260.5,511.5 259.5,511.5C 259.95,500.942 259.95,490.275 259.5,479.5C 256.661,475.96 254.327,472.126 252.5,468C 253.289,466.374 254.289,464.874 255.5,463.5C 260.694,461.942 260.694,460.942 255.5,460.5C 255.5,459.167 255.5,457.833 255.5,456.5C 254.209,456.737 253.209,456.404 252.5,455.5 Z"/></g>
<g><path style="opacity:1" fill="#836a56" d="M 175.5,406.5 C 176.5,406.5 177.5,406.5 178.5,406.5C 178.5,407.5 178.5,408.5 178.5,409.5C 183.89,410.577 188.223,413.243 191.5,417.5C 191.953,418.458 192.619,419.292 193.5,420C 192.906,420.464 192.239,420.631 191.5,420.5C 187.881,417.35 183.881,414.684 179.5,412.5C 177.982,410.397 176.315,410.23 174.5,412C 175.157,413.695 175.157,415.528 174.5,417.5C 175.308,445.484 175.808,473.484 176,501.5C 178.93,502.905 179.097,504.738 176.5,507C 178.751,507.748 180.084,509.248 180.5,511.5C 177.833,511.5 175.167,511.5 172.5,511.5C 173.501,510.211 173.334,508.878 172,507.5C 171.257,474.752 171.757,442.085 173.5,409.5C 177.373,409.666 178.04,408.666 175.5,406.5 Z"/></g>
<g><path style="opacity:1" fill="#73685f" d="M 287.5,452.5 C 286.833,453.167 286.167,453.833 285.5,454.5C 282.185,455.329 278.852,456.162 275.5,457C 276.821,458.545 276.488,459.711 274.5,460.5C 272.96,477.469 271.96,494.469 271.5,511.5C 268.5,511.5 265.5,511.5 262.5,511.5C 262.859,509.629 263.859,508.129 265.5,507C 264.427,505.687 263.76,504.187 263.5,502.5C 263.757,494.085 264.757,485.585 266.5,477C 264.644,472.708 264.311,468.374 265.5,464C 264.167,463.667 262.833,463.333 261.5,463C 263.005,461.082 264.672,459.248 266.5,457.5C 270.744,458.054 274.41,457.054 277.5,454.5C 280.833,453.833 284.167,453.167 287.5,452.5 Z"/></g>
</svg>
