<?xml version="1.0" encoding="UTF-8"?>
<!DOCTYPE svg PUBLIC "-//W3C//DTD SVG 1.1//EN" "http://www.w3.org/Graphics/SVG/1.1/DTD/svg11.dtd">
<svg xmlns="http://www.w3.org/2000/svg" version="1.1" width="512px" height="512px" style="shape-rendering:geometricPrecision; text-rendering:geometricPrecision; image-rendering:optimizeQuality; fill-rule:evenodd; clip-rule:evenodd" xmlns:xlink="http://www.w3.org/1999/xlink">
<g><path style="opacity:1" fill="#628494" d="M -0.5,-0.5 C 170.167,-0.5 340.833,-0.5 511.5,-0.5C 511.5,170.167 511.5,340.833 511.5,511.5C 442.167,511.5 372.833,511.5 303.5,511.5C 303.5,509.833 303.5,508.167 303.5,506.5C 309.176,506.666 314.843,506.499 320.5,506C 325.403,504.296 330.237,502.463 335,500.5C 335.374,501.416 335.874,502.25 336.5,503C 341.489,503.499 346.489,503.666 351.5,503.5C 351.666,497.491 351.499,491.491 351,485.5C 349.173,483.76 349.34,482.093 351.5,480.5C 354.785,479.676 358.118,479.176 361.5,479C 352.84,478.5 344.173,478.334 335.5,478.5C 335.5,477.5 335.5,476.5 335.5,475.5C 347.891,474.122 360.225,474.455 372.5,476.5C 375.259,474.974 378.926,474.307 383.5,474.5C 383.5,475.5 383.5,476.5 383.5,477.5C 377.183,478.094 370.849,478.594 364.5,479C 369.167,479.333 373.833,479.667 378.5,480C 377.167,480.667 375.833,481.333 374.5,482C 376.719,485.721 379.719,488.554 383.5,490.5C 381.493,491.908 379.493,493.408 377.5,495C 382.864,495.829 388.198,495.663 393.5,494.5C 396.398,491.038 400.064,488.538 404.5,487C 406.049,485.786 407.215,484.286 408,482.5C 407.631,476.227 407.464,469.893 407.5,463.5C 409.167,463.5 410.833,463.5 412.5,463.5C 412.714,461.856 412.38,460.356 411.5,459C 412.793,458.51 414.127,458.343 415.5,458.5C 415.5,457.5 415.5,456.5 415.5,455.5C 420.833,455.5 426.167,455.5 431.5,455.5C 431.5,452.833 431.5,450.167 431.5,447.5C 432.833,447.5 434.167,447.5 435.5,447.5C 435.5,436.833 435.5,426.167 435.5,415.5C 436.833,415.5 438.167,415.5 439.5,415.5C 439.5,410.167 439.5,404.833 439.5,399.5C 442.167,399.5 444.833,399.5 447.5,399.5C 447.5,394.167 447.5,388.833 447.5,383.5C 448.833,383.5 450.167,383.5 451.5,383.5C 451.5,378.167 451.5,372.833 451.5,367.5C 449.645,367.728 448.812,367.061 449,365.5C 453.667,360.833 458.333,356.167 463,351.5C 463.001,348.313 463.834,345.48 465.5,343C 462.833,340.667 462.833,338.333 465.5,336C 464.549,335.282 464.383,334.449 465,333.5C 469.5,329.167 474,324.833 478.5,320.5C 476.257,319.526 473.924,319.192 471.5,319.5C 471.334,315.154 471.501,310.821 472,306.5C 472.692,305.975 473.192,305.308 473.5,304.5C 471.897,301.656 471.397,298.656 472,295.5C 473.109,299.017 474.276,299.184 475.5,296C 474.968,293.98 473.635,293.147 471.5,293.5C 471.5,291.5 471.5,289.5 471.5,287.5C 472.833,287.5 474.167,287.5 475.5,287.5C 475.945,284.635 475.278,282.135 473.5,280C 475.378,278.007 475.712,275.841 474.5,273.5C 472.343,274.848 471.01,276.848 470.5,279.5C 469.522,279.023 468.689,278.357 468,277.5C 467.764,275.236 467.264,273.069 466.5,271C 468.134,270.506 469.801,270.34 471.5,270.5C 471.675,265.011 469.008,262.678 463.5,263.5C 463.5,258.167 463.5,252.833 463.5,247.5C 462.167,247.5 460.833,247.5 459.5,247.5C 459.5,244.833 459.5,242.167 459.5,239.5C 456.028,240.037 453.195,239.037 451,236.5C 449.989,237.337 448.822,237.67 447.5,237.5C 447.67,236.178 447.337,235.011 446.5,234C 441.833,232.333 437.167,230.667 432.5,229C 431.594,227.301 431.261,225.467 431.5,223.5C 428.5,223.5 425.5,223.5 422.5,223.5C 423.303,218.524 426.136,215.191 431,213.5C 431.495,211.527 431.662,209.527 431.5,207.5C 432.833,207.5 434.167,207.5 435.5,207.5C 435.5,202.167 435.5,196.833 435.5,191.5C 434.167,191.5 432.833,191.5 431.5,191.5C 431.5,188.833 431.5,186.167 431.5,183.5C 426.167,183.5 420.833,183.5 415.5,183.5C 415.649,182.448 415.483,181.448 415,180.5C 413.023,183.589 411.523,186.923 410.5,190.5C 409.167,191.833 407.833,191.833 406.5,190.5C 405.512,187.55 404.679,184.55 404,181.5C 403.5,174.174 403.334,166.841 403.5,159.5C 402.167,159.5 400.833,159.5 399.5,159.5C 399.338,157.473 399.505,155.473 400,153.5C 404.864,151.809 407.697,148.476 408.5,143.5C 405.5,143.5 402.5,143.5 399.5,143.5C 399.5,138.167 399.5,132.833 399.5,127.5C 402.167,127.5 404.833,127.5 407.5,127.5C 407.334,120.492 407.5,113.492 408,106.5C 409.805,103.961 412.305,102.961 415.5,103.5C 415.759,99.7604 415.426,96.0938 414.5,92.5C 411.682,91.1185 410.182,92.1185 410,95.5C 409.581,94.3279 408.915,93.3279 408,92.5C 407.729,88.0462 407.563,83.7129 407.5,79.5C 405.833,86.1667 404.167,86.1667 402.5,79.5C 401.851,81.6241 401.017,83.6241 400,85.5C 399.51,84.2068 399.343,82.8734 399.5,81.5C 398.167,81.5 396.833,81.5 395.5,81.5C 395.295,76.1933 397.629,74.0267 402.5,75C 403.337,73.9887 403.67,72.8221 403.5,71.5C 404.675,71.281 405.675,71.6143 406.5,72.5C 406.929,75.1473 408.262,77.1473 410.5,78.5C 411.542,81.6291 410.875,84.4624 408.5,87C 410.085,90.8943 411.085,91.061 411.5,87.5C 413.124,87.3601 414.29,88.0267 415,89.5C 415.308,88.6919 415.808,88.0253 416.5,87.5C 417.5,88.8333 418.5,88.8333 419.5,87.5C 420.59,86.6086 420.59,85.6086 419.5,84.5C 420.729,83.7189 422.062,83.2189 423.5,83C 424.517,81.9505 424.684,80.7839 424,79.5C 422.644,80.3802 421.144,80.7135 419.5,80.5C 418.989,76.9703 419.656,73.8037 421.5,71C 419.388,70.0943 418.555,68.5943 419,66.5C 420.996,66.0037 422.663,65.0037 424,63.5C 424.826,66.7928 425.326,70.1262 425.5,73.5C 428.518,73.7998 430.518,75.4665 431.5,78.5C 435.694,79.5041 439.361,81.1708 442.5,83.5C 442.338,85.5273 442.505,87.5273 443,89.5C 443.423,88.0439 444.256,87.5439 445.5,88C 447.487,90.1398 448.82,92.6398 449.5,95.5C 450.087,88.7538 450.087,82.0871 449.5,75.5C 451.328,82.1001 452.995,88.7668 454.5,95.5C 453.883,89.9292 454.55,84.4292 456.5,79C 455.841,76.5379 455.507,74.0379 455.5,71.5C 454.022,71.762 452.689,71.4287 451.5,70.5C 455.28,68.6697 459.113,68.3364 463,69.5C 463.5,62.1742 463.666,54.8409 463.5,47.5C 458.167,47.5 452.833,47.5 447.5,47.5C 447.5,52.8333 447.5,58.1667 447.5,63.5C 446.167,63.5 444.833,63.5 443.5,63.5C 444.087,67.2625 444.087,70.9292 443.5,74.5C 444.822,74.67 445.989,74.3366 447,73.5C 447.603,77.0233 446.603,80.0233 444,82.5C 441.977,80.9873 442.144,79.6539 444.5,78.5C 443.917,76.9984 443.084,75.6651 442,74.5C 440.3,69.1343 439.3,63.801 439,58.5C 436.066,54.6291 432.732,53.6291 429,55.5C 426.695,55.5159 425.028,54.5159 424,52.5C 423.24,48.7745 423.407,45.1078 424.5,41.5C 426.51,39.8287 428.843,39.162 431.5,39.5C 431.5,36.8333 431.5,34.1667 431.5,31.5C 434.167,31.5 436.833,31.5 439.5,31.5C 438.826,25.5074 441.493,22.8407 447.5,23.5C 453.507,22.8407 456.174,25.5074 455.5,31.5C 463.5,31.5 471.5,31.5 479.5,31.5C 479.5,35.5 479.5,39.5 479.5,43.5C 482.167,43.5 484.833,43.5 487.5,43.5C 487.343,42.1266 487.51,40.7932 488,39.5C 488.151,42.1193 488.985,44.4527 490.5,46.5C 490.139,49.6919 488.472,51.8586 485.5,53C 486.337,54.0113 486.67,55.1779 486.5,56.5C 487.5,56.5 488.5,56.5 489.5,56.5C 489.104,59.0444 489.771,61.2111 491.5,63C 490.207,63.49 488.873,63.6567 487.5,63.5C 485.186,59.5189 483.352,55.1855 482,50.5C 481.586,50.0426 481.086,49.7093 480.5,49.5C 478.891,50.8883 477.058,51.8883 475,52.5C 473.831,51.9915 472.998,51.1581 472.5,50C 477.843,48.0579 477.51,47.2245 471.5,47.5C 471.5,49.5 471.5,51.5 471.5,53.5C 476.854,54.7768 477.688,57.4434 474,61.5C 472.956,60.3774 472.29,59.0441 472,57.5C 474.2,64.9332 471.7,70.0999 464.5,73C 463.809,74.0674 463.309,75.2341 463,76.5C 462,75.1667 461,75.1667 460,76.5C 459.316,77.7839 459.483,78.9505 460.5,80C 458.566,81.7945 456.899,83.7945 455.5,86C 456.022,86.9503 456.689,87.7836 457.5,88.5C 457.291,89.086 456.957,89.586 456.5,90C 458.78,90.2326 460.78,91.066 462.5,92.5C 463.583,91.635 463.749,90.635 463,89.5C 458.398,85.635 459.065,82.635 465,80.5C 466.44,81.1476 467.94,81.4809 469.5,81.5C 469.932,85.2881 470.932,88.9548 472.5,92.5C 479.933,89.5079 482.6,91.6746 480.5,99C 475.243,100.426 470.743,99.2594 467,95.5C 466.333,96.8333 466.333,98.1667 467,99.5C 469.428,100.63 471.595,102.13 473.5,104C 471.485,105.555 471.152,107.389 472.5,109.5C 476.834,103.89 477.834,104.224 475.5,110.5C 474.311,111.429 472.978,111.762 471.5,111.5C 471.343,112.873 471.51,114.207 472,115.5C 472.667,114.167 473.333,114.167 474,115.5C 475.139,121.436 475.805,127.436 476,133.5C 476.973,135.392 477.64,137.392 478,139.5C 479.256,138.97 480.756,138.97 482.5,139.5C 484.441,141.316 485.108,143.316 484.5,145.5C 485.167,144.833 485.833,144.167 486.5,143.5C 487.333,161.157 487.833,178.824 488,196.5C 489.805,199.039 492.305,200.039 495.5,199.5C 495.5,191.5 495.5,183.5 495.5,175.5C 497.939,176.053 500.273,176.053 502.5,175.5C 503.666,158.51 503.833,141.51 503,124.5C 499.906,121.902 500.072,120.235 503.5,119.5C 504.07,110.838 503.403,102.338 501.5,94C 501.63,92.9412 502.13,92.1079 503,91.5C 503.5,79.5046 503.667,67.5046 503.5,55.5C 502.5,55.5 501.5,55.5 500.5,55.5C 501.248,49.0858 498.415,45.0858 492,43.5C 491.667,42.1667 491.333,40.8333 491,39.5C 488.058,37.672 486.891,35.0053 487.5,31.5C 486.022,31.762 484.689,31.4287 483.5,30.5C 484.374,28.2534 484.708,25.9201 484.5,23.5C 485.5,23.5 486.5,23.5 487.5,23.5C 487.005,29.1857 488.005,29.6857 490.5,25C 491.448,24.5172 492.448,24.3505 493.5,24.5C 493.838,27.3252 492.838,29.4918 490.5,31C 492.134,31.4935 493.801,31.6602 495.5,31.5C 496.542,25.0764 494.709,19.743 490,15.5C 486.275,15.8345 482.775,17.1678 479.5,19.5C 479.5,18.1667 479.5,16.8333 479.5,15.5C 478.5,15.5 477.5,15.5 476.5,15.5C 476.719,14.325 476.386,13.325 475.5,12.5C 474.549,17.7801 471.549,21.1134 466.5,22.5C 465.692,22.1924 465.025,21.6924 464.5,21C 467.392,17.6125 467.059,16.6125 463.5,18C 460.839,20.6557 460.839,23.3224 463.5,26C 463.167,26.8333 462.833,27.6667 462.5,28.5C 461.549,26.0988 460.216,23.9322 458.5,22C 459.965,16.771 459.132,15.9377 456,19.5C 454.934,17.9005 453.434,16.9005 451.5,16.5C 448.609,17.0056 445.942,18.0056 443.5,19.5C 439.665,16.5082 435.499,14.1749 431,12.5C 427.063,16.5877 426.229,16.2544 428.5,11.5C 425.99,8.82493 424.49,9.4916 424,13.5C 423.667,12.5 423.333,11.5 423,10.5C 422.506,12.1341 422.34,13.8008 422.5,15.5C 421.5,15.5 420.5,15.5 419.5,15.5C 419.884,13.3352 419.217,11.6685 417.5,10.5C 416.117,13.0756 415.283,12.7423 415,9.5C 411.207,13.4336 407.374,13.4336 403.5,9.5C 402.833,9.83333 402.167,10.1667 401.5,10.5C 402.5,11.1667 403.5,11.8333 404.5,12.5C 403.395,13.8924 402.061,15.059 400.5,16C 401.786,18.0223 402.786,20.1889 403.5,22.5C 402.311,23.4287 400.978,23.762 399.5,23.5C 400.249,16.6865 398.249,15.6865 393.5,20.5C 393.724,24.7306 394.391,29.0639 395.5,33.5C 395.167,35.5 394.833,37.5 394.5,39.5C 393.682,36.8929 393.182,34.2263 393,31.5C 392.667,33.1667 392.333,34.8333 392,36.5C 391.667,35.8333 391.333,35.1667 391,34.5C 389.917,40.9495 388.75,40.7828 387.5,34C 388.368,31.7647 389.368,29.598 390.5,27.5C 391.655,24.5541 391.821,21.5541 391,18.5C 390.632,19.91 389.799,20.91 388.5,21.5C 387.319,19.8647 387.319,18.198 388.5,16.5C 385.905,14.2827 383.405,11.9494 381,9.5C 379.681,11.2495 379.181,13.2495 379.5,15.5C 378.5,15.5 377.5,15.5 376.5,15.5C 376.663,13.1432 376.497,10.8098 376,8.5C 375.502,11.4816 375.335,14.4816 375.5,17.5C 378.807,17.9368 381.807,17.2702 384.5,15.5C 386.824,22.49 384.49,25.49 377.5,24.5C 380.148,27.596 382.981,30.596 386,33.5C 386.311,35.556 386.811,37.556 387.5,39.5C 386.537,41.4896 385.204,41.8229 383.5,40.5C 382.164,38.7598 380.83,37.0932 379.5,35.5C 377.35,37.9225 377.017,40.5891 378.5,43.5C 380.006,44.7472 381.506,44.7472 383,43.5C 384.218,45.0192 385.718,46.1859 387.5,47C 386.552,47.4828 385.552,47.6495 384.5,47.5C 384.325,52.2339 383.658,56.9006 382.5,61.5C 381.158,63.0049 379.492,63.6715 377.5,63.5C 376.386,68.6294 375.719,68.6294 375.5,63.5C 374.167,63.5 372.833,63.5 371.5,63.5C 371.5,64.5 371.5,65.5 371.5,66.5C 369.891,66.0941 368.557,66.0941 367.5,66.5C 368.782,68.1792 369.782,70.0126 370.5,72C 367.454,73.9772 365.787,76.8105 365.5,80.5C 366.374,82.7466 366.708,85.0799 366.5,87.5C 363.95,87.4392 362.45,86.1059 362,83.5C 361.328,87.0296 359.162,88.3629 355.5,87.5C 355.286,85.8561 355.62,84.3561 356.5,83C 355.251,81.1759 354.085,81.3426 353,83.5C 353.263,84.9506 353.096,86.2839 352.5,87.5C 351.534,85.604 351.201,83.604 351.5,81.5C 348.833,81.5 346.167,81.5 343.5,81.5C 343.883,78.538 342.883,77.538 340.5,78.5C 342.978,80.4363 342.978,82.4363 340.5,84.5C 337.184,75.8897 335.351,75.8897 335,84.5C 333.701,83.91 332.868,82.91 332.5,81.5C 331.981,78.3988 331.147,75.3988 330,72.5C 329.096,77.7314 329.596,82.7314 331.5,87.5C 330.5,87.5 329.5,87.5 328.5,87.5C 328.304,83.5346 326.97,80.0346 324.5,77C 323.552,76.5172 322.552,76.3505 321.5,76.5C 322.167,78.8194 322.334,81.1527 322,83.5C 319.291,84.7055 317.625,83.7055 317,80.5C 315.851,83.3926 315.351,86.3926 315.5,89.5C 311.459,90.4025 307.459,90.4025 303.5,89.5C 302.167,97.5 300.833,97.5 299.5,89.5C 297.396,91.5832 297.062,93.9165 298.5,96.5C 297.649,99.6124 296.483,99.9458 295,97.5C 291.543,99.2323 288.709,98.5657 286.5,95.5C 285.614,96.325 285.281,97.325 285.5,98.5C 283.5,98.5 281.5,98.5 279.5,98.5C 279.5,100.167 279.5,101.833 279.5,103.5C 282.167,103.5 284.833,103.5 287.5,103.5C 287.334,108.179 287.501,112.845 288,117.5C 292.18,119.013 295.013,121.846 296.5,126C 295.57,131.45 295.237,136.95 295.5,142.5C 298.884,142.34 302.217,142.673 305.5,143.5C 311.358,140.737 317.025,141.237 322.5,145C 326.167,145.333 329.833,145.667 333.5,146C 328.064,147.011 322.73,147.844 317.5,148.5C 283.501,148.048 249.501,147.714 215.5,147.5C 202.712,146.884 189.878,147.217 177,148.5C 176.5,148.167 176,147.833 175.5,147.5C 181.817,146.015 188.15,145.682 194.5,146.5C 199.141,144.684 203.974,144.684 209,146.5C 219.609,145.984 230.276,145.984 241,146.5C 244.833,146.333 248.667,146.167 252.5,146C 255.789,143.791 259.456,142.958 263.5,143.5C 264.167,137.5 261.5,134.833 255.5,135.5C 255.5,132.833 255.5,130.167 255.5,127.5C 250.167,127.5 244.833,127.5 239.5,127.5C 239.662,125.473 239.495,123.473 239,121.5C 234.136,119.809 231.303,116.476 230.5,111.5C 225.5,111.5 220.5,111.5 215.5,111.5C 216.006,107.993 215.34,104.826 213.5,102C 211.299,101.175 209.466,101.675 208,103.5C 205.701,101.464 203.201,101.131 200.5,102.5C 199.614,101.675 199.281,100.675 199.5,99.5C 197.5,99.5 195.5,99.5 193.5,99.5C 193.001,95.5101 192.501,91.5101 192,87.5C 191.505,89.4727 191.338,91.4727 191.5,93.5C 188.833,92.8333 186.167,92.1667 183.5,91.5C 183.334,87.4862 183.501,83.4862 184,79.5C 184.92,82.1013 185.587,84.7679 186,87.5C 186.5,85.5 187,83.5 187.5,81.5C 187.945,78.2779 187.945,74.9445 187.5,71.5C 185.833,68.8333 184.167,68.8333 182.5,71.5C 181.833,70.5 181.167,69.5 180.5,68.5C 179.686,70.7662 179.186,73.0995 179,75.5C 178.586,75.9574 178.086,76.2907 177.5,76.5C 176.685,74.7241 175.518,74.0574 174,74.5C 173.405,73.1011 173.572,71.7678 174.5,70.5C 173.32,67.919 172.32,68.0857 171.5,71C 170.552,71.4828 169.552,71.6495 168.5,71.5C 168.628,69.3453 168.128,67.3453 167,65.5C 166.163,67.0074 164.996,67.5074 163.5,67C 160.498,64.0778 158.332,60.5778 157,56.5C 156.023,58.74 155.523,61.0733 155.5,63.5C 154.5,63.5 153.5,63.5 152.5,63.5C 152.833,60.8333 153.167,58.1667 153.5,55.5C 156.061,55.5531 158.061,54.5531 159.5,52.5C 155.636,51.05 155.636,49.55 159.5,48C 157.064,47.0701 154.731,45.9034 152.5,44.5C 150.186,47.9424 150.852,50.9424 154.5,53.5C 153.675,54.3857 152.675,54.719 151.5,54.5C 151.66,56.1992 151.494,57.8659 151,59.5C 148.167,58 146,55.8333 144.5,53C 146.211,51.8668 146.711,50.3668 146,48.5C 144.245,49.67 143.245,51.3367 143,53.5C 142.529,51.7536 141.862,50.087 141,48.5C 138.934,52.5059 137.434,52.1726 136.5,47.5C 135.614,48.325 135.281,49.325 135.5,50.5C 134.178,50.67 133.011,50.3366 132,49.5C 130.848,51.6487 129.348,53.482 127.5,55C 128.624,55.2492 129.624,55.7492 130.5,56.5C 128.258,57.1926 125.925,58.1926 123.5,59.5C 123.142,55.5986 123.142,51.5986 123.5,47.5C 122.448,47.3505 121.448,47.5172 120.5,48C 121.777,50.4659 121.777,52.9659 120.5,55.5C 119.675,51.8776 119.175,48.211 119,44.5C 117.216,50.4387 117.049,56.4387 118.5,62.5C 117.833,62.8333 117.167,63.1667 116.5,63.5C 114.795,62.455 113.295,61.1217 112,59.5C 111.228,60.8491 110.061,61.6824 108.5,62C 107.87,65.1292 107.204,68.2959 106.5,71.5C 105.573,69.8872 104.739,68.2205 104,66.5C 103.818,69.2263 103.318,71.8929 102.5,74.5C 99.7865,71.6779 97.7865,72.1779 96.5,76C 97.3366,77.0113 97.67,78.1779 97.5,79.5C 95.4205,78.9556 93.4205,78.1223 91.5,77C 90.8742,76.2496 90.3742,75.4162 90,74.5C 90.2532,77.133 90.2532,79.7996 90,82.5C 88.5611,84.2746 87.5611,86.2746 87,88.5C 81.6001,91.2466 80.7667,94.7466 84.5,99C 85.4491,99.6172 86.2825,99.4506 87,98.5C 88.4596,102.798 87.1262,105.798 83,107.5C 81.4364,109.665 81.6031,111.332 83.5,112.5C 81.8287,114.51 81.162,116.843 81.5,119.5C 79.1432,119.337 76.8098,119.503 74.5,120C 75.6492,121.744 76.9825,121.911 78.5,120.5C 78.8333,121.167 79.1667,121.833 79.5,122.5C 78.0052,124.17 76.6718,126.003 75.5,128C 76.5634,129.188 77.8967,129.688 79.5,129.5C 79.3505,130.552 79.5172,131.552 80,132.5C 81.5059,134.174 83.3393,135.174 85.5,135.5C 83.1899,143.56 82.5232,151.56 83.5,159.5C 84.8333,159.5 86.1667,159.5 87.5,159.5C 87.8118,176.035 87.4784,192.535 86.5,209C 87.9871,213.154 90.8204,215.987 95,217.5C 95.3603,215.579 96.1936,213.912 97.5,212.5C 97.8333,213.167 98.1667,213.833 98.5,214.5C 97.7828,217.488 96.7828,220.321 95.5,223C 96.0894,225.633 97.756,226.8 100.5,226.5C 101.31,224.202 102.144,221.868 103,219.5C 103.333,219.833 103.667,220.167 104,220.5C 104.71,219.027 105.876,218.36 107.5,218.5C 106.268,222.695 104.935,226.862 103.5,231C 104.684,241.562 104.684,252.395 103.5,263.5C 104.721,275.149 105.221,286.816 105,298.5C 104.667,297.833 104.333,297.167 104,296.5C 103.023,298.74 102.523,301.073 102.5,303.5C 101.167,303.5 99.8333,303.5 98.5,303.5C 98.6602,301.801 98.4935,300.134 98,298.5C 97.3311,301.028 96.4978,301.028 95.5,298.5C 94.3112,297.571 92.9778,297.238 91.5,297.5C 91.4432,292.995 91.9432,288.662 93,284.5C 90.7724,283.701 89.4391,284.701 89,287.5C 87.7631,282.596 84.7631,279.262 80,277.5C 79.245,274.697 79.5783,272.03 81,269.5C 85.5,265.167 90,260.833 94.5,256.5C 89.544,255.506 84.544,255.173 79.5,255.5C 81.575,244.795 79.075,243.128 72,250.5C 70.9914,252.025 70.4914,253.692 70.5,255.5C 67.7531,255.813 65.0865,255.48 62.5,254.5C 57.6667,249.5 52.8333,244.5 48,239.5C 47.6667,241.5 47.3333,243.5 47,245.5C 46.5831,246.756 45.7498,247.423 44.5,247.5C 42.0181,245.497 41.0181,242.831 41.5,239.5C 43.288,239.785 44.9547,239.452 46.5,238.5C 46.3333,238.167 46.1667,237.833 46,237.5C 41.3333,232.833 36.6667,228.167 32,223.5C 31.7801,226.516 30.6134,229.016 28.5,231C 25.7759,231.27 23.1092,231.77 20.5,232.5C 18.2076,230.976 16.2076,231.309 14.5,233.5C 12.4902,231.829 10.1569,231.162 7.5,231.5C 7.75293,233.827 7.08626,235.827 5.5,237.5C 4.79516,235.328 3.79516,233.328 2.5,231.5C 1.34524,234.446 1.17858,237.446 2,240.5C 3.01127,239.663 4.17793,239.33 5.5,239.5C 5.75628,241.937 6.42294,244.271 7.5,246.5C 6.83333,247.167 6.16667,247.833 5.5,248.5C 7.02337,250.586 6.69003,252.252 4.5,253.5C 3.23088,251.305 3.23088,249.139 4.5,247C 2.78753,242.561 1.4542,242.561 0.5,247C 1.03358,259.486 1.36691,271.819 1.5,284C 1.33333,288.167 1.16667,292.333 1,296.5C 0.721579,297.416 0.221579,298.082 -0.5,298.5C -0.5,198.833 -0.5,99.1667 -0.5,-0.5 Z"/></g>
<g><path style="opacity:1" fill="#628294" d="M 399.5,159.5 C 394.167,159.5 388.833,159.5 383.5,159.5C 383.5,158.167 383.5,156.833 383.5,155.5C 378.167,155.5 372.833,155.5 367.5,155.5C 367.5,153.833 367.5,152.167 367.5,150.5C 359.69,152.225 359.523,154.558 367,157.5C 368.471,161.79 369.971,166.123 371.5,170.5C 372.842,171.902 373.676,171.569 374,169.5C 375.512,172.857 378.012,174.857 381.5,175.5C 381.15,179.986 379.483,179.986 376.5,175.5C 375.386,176.723 375.219,178.056 376,179.5C 377.275,181.717 378.275,184.051 379,186.5C 379.333,186.167 379.667,185.833 380,185.5C 380.284,187.886 381.284,188.552 383,187.5C 383.835,191.179 384.668,194.845 385.5,198.5C 387.289,200.033 389.289,201.033 391.5,201.5C 391.072,204.356 390.905,207.356 391,210.5C 390.667,211.167 390.333,211.833 390,212.5C 388.991,210.975 388.491,209.308 388.5,207.5C 387.325,207.281 386.325,207.614 385.5,208.5C 388.638,214.729 390.304,221.062 390.5,227.5C 387.268,218.981 384.101,210.315 381,201.5C 377.001,192.168 372.501,183.168 367.5,174.5C 365.976,170.798 363.81,167.464 361,164.5C 360.667,163.167 360.333,161.833 360,160.5C 354.949,157.383 350.116,153.883 345.5,150C 336.218,148.684 326.884,148.184 317.5,148.5C 322.73,147.844 328.064,147.011 333.5,146C 329.833,145.667 326.167,145.333 322.5,145C 317.025,141.237 311.358,140.737 305.5,143.5C 302.217,142.673 298.884,142.34 295.5,142.5C 295.237,136.95 295.57,131.45 296.5,126C 295.013,121.846 292.18,119.013 288,117.5C 287.501,112.845 287.334,108.179 287.5,103.5C 284.833,103.5 282.167,103.5 279.5,103.5C 279.5,101.833 279.5,100.167 279.5,98.5C 281.5,98.5 283.5,98.5 285.5,98.5C 285.281,97.325 285.614,96.325 286.5,95.5C 288.709,98.5657 291.543,99.2323 295,97.5C 296.483,99.9458 297.649,99.6124 298.5,96.5C 297.062,93.9165 297.396,91.5832 299.5,89.5C 300.833,97.5 302.167,97.5 303.5,89.5C 307.459,90.4025 311.459,90.4025 315.5,89.5C 315.351,86.3926 315.851,83.3926 317,80.5C 317.625,83.7055 319.291,84.7055 322,83.5C 322.334,81.1527 322.167,78.8194 321.5,76.5C 322.552,76.3505 323.552,76.5172 324.5,77C 326.97,80.0346 328.304,83.5346 328.5,87.5C 329.5,87.5 330.5,87.5 331.5,87.5C 329.596,82.7314 329.096,77.7314 330,72.5C 331.147,75.3988 331.981,78.3988 332.5,81.5C 332.868,82.91 333.701,83.91 335,84.5C 335.351,75.8897 337.184,75.8897 340.5,84.5C 342.978,82.4363 342.978,80.4363 340.5,78.5C 342.883,77.538 343.883,78.538 343.5,81.5C 346.167,81.5 348.833,81.5 351.5,81.5C 351.201,83.604 351.534,85.604 352.5,87.5C 353.096,86.2839 353.263,84.9506 353,83.5C 354.085,81.3426 355.251,81.1759 356.5,83C 355.62,84.3561 355.286,85.8561 355.5,87.5C 359.162,88.3629 361.328,87.0296 362,83.5C 362.45,86.1059 363.95,87.4392 366.5,87.5C 366.708,85.0799 366.374,82.7466 365.5,80.5C 365.787,76.8105 367.454,73.9772 370.5,72C 369.782,70.0126 368.782,68.1792 367.5,66.5C 368.557,66.0941 369.891,66.0941 371.5,66.5C 371.5,65.5 371.5,64.5 371.5,63.5C 372.833,63.5 374.167,63.5 375.5,63.5C 375.719,68.6294 376.386,68.6294 377.5,63.5C 379.492,63.6715 381.158,63.0049 382.5,61.5C 383.658,56.9006 384.325,52.2339 384.5,47.5C 385.552,47.6495 386.552,47.4828 387.5,47C 385.718,46.1859 384.218,45.0192 383,43.5C 381.506,44.7472 380.006,44.7472 378.5,43.5C 377.017,40.5891 377.35,37.9225 379.5,35.5C 380.83,37.0932 382.164,38.7598 383.5,40.5C 385.204,41.8229 386.537,41.4896 387.5,39.5C 386.811,37.556 386.311,35.556 386,33.5C 382.981,30.596 380.148,27.596 377.5,24.5C 384.49,25.49 386.824,22.49 384.5,15.5C 381.807,17.2702 378.807,17.9368 375.5,17.5C 375.335,14.4816 375.502,11.4816 376,8.5C 376.497,10.8098 376.663,13.1432 376.5,15.5C 377.5,15.5 378.5,15.5 379.5,15.5C 379.181,13.2495 379.681,11.2495 381,9.5C 383.405,11.9494 385.905,14.2827 388.5,16.5C 387.319,18.198 387.319,19.8647 388.5,21.5C 389.799,20.91 390.632,19.91 391,18.5C 391.821,21.5541 391.655,24.5541 390.5,27.5C 389.368,29.598 388.368,31.7647 387.5,34C 388.75,40.7828 389.917,40.9495 391,34.5C 391.333,35.1667 391.667,35.8333 392,36.5C 392.333,34.8333 392.667,33.1667 393,31.5C 393.182,34.2263 393.682,36.8929 394.5,39.5C 394.833,37.5 395.167,35.5 395.5,33.5C 394.391,29.0639 393.724,24.7306 393.5,20.5C 398.249,15.6865 400.249,16.6865 399.5,23.5C 400.978,23.762 402.311,23.4287 403.5,22.5C 402.786,20.1889 401.786,18.0223 400.5,16C 402.061,15.059 403.395,13.8924 404.5,12.5C 403.5,11.8333 402.5,11.1667 401.5,10.5C 402.167,10.1667 402.833,9.83333 403.5,9.5C 407.374,13.4336 411.207,13.4336 415,9.5C 415.283,12.7423 416.117,13.0756 417.5,10.5C 419.217,11.6685 419.884,13.3352 419.5,15.5C 420.5,15.5 421.5,15.5 422.5,15.5C 422.34,13.8008 422.506,12.1341 423,10.5C 423.333,11.5 423.667,12.5 424,13.5C 424.49,9.4916 425.99,8.82493 428.5,11.5C 426.229,16.2544 427.063,16.5877 431,12.5C 435.499,14.1749 439.665,16.5082 443.5,19.5C 445.942,18.0056 448.609,17.0056 451.5,16.5C 453.434,16.9005 454.934,17.9005 456,19.5C 459.132,15.9377 459.965,16.771 458.5,22C 460.216,23.9322 461.549,26.0988 462.5,28.5C 462.833,27.6667 463.167,26.8333 463.5,26C 460.839,23.3224 460.839,20.6557 463.5,18C 467.059,16.6125 467.392,17.6125 464.5,21C 465.025,21.6924 465.692,22.1924 466.5,22.5C 471.549,21.1134 474.549,17.7801 475.5,12.5C 476.386,13.325 476.719,14.325 476.5,15.5C 477.5,15.5 478.5,15.5 479.5,15.5C 479.5,16.8333 479.5,18.1667 479.5,19.5C 482.775,17.1678 486.275,15.8345 490,15.5C 494.709,19.743 496.542,25.0764 495.5,31.5C 493.801,31.6602 492.134,31.4935 490.5,31C 492.838,29.4918 493.838,27.3252 493.5,24.5C 492.448,24.3505 491.448,24.5172 490.5,25C 488.005,29.6857 487.005,29.1857 487.5,23.5C 486.5,23.5 485.5,23.5 484.5,23.5C 484.708,25.9201 484.374,28.2534 483.5,30.5C 484.689,31.4287 486.022,31.762 487.5,31.5C 486.891,35.0053 488.058,37.672 491,39.5C 491.333,40.8333 491.667,42.1667 492,43.5C 498.415,45.0858 501.248,49.0858 500.5,55.5C 501.5,55.5 502.5,55.5 503.5,55.5C 503.667,67.5046 503.5,79.5046 503,91.5C 502.13,92.1079 501.63,92.9412 501.5,94C 503.403,102.338 504.07,110.838 503.5,119.5C 500.072,120.235 499.906,121.902 503,124.5C 503.833,141.51 503.666,158.51 502.5,175.5C 500.273,176.053 497.939,176.053 495.5,175.5C 495.5,183.5 495.5,191.5 495.5,199.5C 492.305,200.039 489.805,199.039 488,196.5C 487.833,178.824 487.333,161.157 486.5,143.5C 485.833,144.167 485.167,144.833 484.5,145.5C 485.108,143.316 484.441,141.316 482.5,139.5C 480.756,138.97 479.256,138.97 478,139.5C 477.64,137.392 476.973,135.392 476,133.5C 475.805,127.436 475.139,121.436 474,115.5C 473.333,114.167 472.667,114.167 472,115.5C 471.51,114.207 471.343,112.873 471.5,111.5C 472.978,111.762 474.311,111.429 475.5,110.5C 477.834,104.224 476.834,103.89 472.5,109.5C 471.152,107.389 471.485,105.555 473.5,104C 471.595,102.13 469.428,100.63 467,99.5C 466.333,98.1667 466.333,96.8333 467,95.5C 470.743,99.2594 475.243,100.426 480.5,99C 482.6,91.6746 479.933,89.5079 472.5,92.5C 470.932,88.9548 469.932,85.2881 469.5,81.5C 467.94,81.4809 466.44,81.1476 465,80.5C 459.065,82.635 458.398,85.635 463,89.5C 463.749,90.635 463.583,91.635 462.5,92.5C 460.78,91.066 458.78,90.2326 456.5,90C 456.957,89.586 457.291,89.086 457.5,88.5C 456.689,87.7836 456.022,86.9503 455.5,86C 456.899,83.7945 458.566,81.7945 460.5,80C 459.483,78.9505 459.316,77.7839 460,76.5C 461,75.1667 462,75.1667 463,76.5C 463.309,75.2341 463.809,74.0674 464.5,73C 471.7,70.0999 474.2,64.9332 472,57.5C 472.29,59.0441 472.956,60.3774 474,61.5C 477.688,57.4434 476.854,54.7768 471.5,53.5C 471.5,51.5 471.5,49.5 471.5,47.5C 477.51,47.2245 477.843,48.0579 472.5,50C 472.998,51.1581 473.831,51.9915 475,52.5C 477.058,51.8883 478.891,50.8883 480.5,49.5C 481.086,49.7093 481.586,50.0426 482,50.5C 483.352,55.1855 485.186,59.5189 487.5,63.5C 488.873,63.6567 490.207,63.49 491.5,63C 489.771,61.2111 489.104,59.0444 489.5,56.5C 488.5,56.5 487.5,56.5 486.5,56.5C 486.67,55.1779 486.337,54.0113 485.5,53C 488.472,51.8586 490.139,49.6919 490.5,46.5C 488.985,44.4527 488.151,42.1193 488,39.5C 487.51,40.7932 487.343,42.1266 487.5,43.5C 484.833,43.5 482.167,43.5 479.5,43.5C 479.5,39.5 479.5,35.5 479.5,31.5C 471.5,31.5 463.5,31.5 455.5,31.5C 456.174,25.5074 453.507,22.8407 447.5,23.5C 441.493,22.8407 438.826,25.5074 439.5,31.5C 436.833,31.5 434.167,31.5 431.5,31.5C 431.5,34.1667 431.5,36.8333 431.5,39.5C 428.843,39.162 426.51,39.8287 424.5,41.5C 423.407,45.1078 423.24,48.7745 424,52.5C 425.028,54.5159 426.695,55.5159 429,55.5C 432.732,53.6291 436.066,54.6291 439,58.5C 439.3,63.801 440.3,69.1343 442,74.5C 443.084,75.6651 443.917,76.9984 444.5,78.5C 442.144,79.6539 441.977,80.9873 444,82.5C 446.603,80.0233 447.603,77.0233 447,73.5C 445.989,74.3366 444.822,74.67 443.5,74.5C 444.087,70.9292 444.087,67.2625 443.5,63.5C 444.833,63.5 446.167,63.5 447.5,63.5C 447.5,58.1667 447.5,52.8333 447.5,47.5C 452.833,47.5 458.167,47.5 463.5,47.5C 463.666,54.8409 463.5,62.1742 463,69.5C 459.113,68.3364 455.28,68.6697 451.5,70.5C 452.689,71.4287 454.022,71.762 455.5,71.5C 455.507,74.0379 455.841,76.5379 456.5,79C 454.55,84.4292 453.883,89.9292 454.5,95.5C 452.995,88.7668 451.328,82.1001 449.5,75.5C 450.087,82.0871 450.087,88.7538 449.5,95.5C 448.82,92.6398 447.487,90.1398 445.5,88C 444.256,87.5439 443.423,88.0439 443,89.5C 442.505,87.5273 442.338,85.5273 442.5,83.5C 439.361,81.1708 435.694,79.5041 431.5,78.5C 430.518,75.4665 428.518,73.7998 425.5,73.5C 425.326,70.1262 424.826,66.7928 424,63.5C 422.663,65.0037 420.996,66.0037 419,66.5C 418.555,68.5943 419.388,70.0943 421.5,71C 419.656,73.8037 418.989,76.9703 419.5,80.5C 421.144,80.7135 422.644,80.3802 424,79.5C 424.684,80.7839 424.517,81.9505 423.5,83C 422.062,83.2189 420.729,83.7189 419.5,84.5C 420.59,85.6086 420.59,86.6086 419.5,87.5C 418.5,88.8333 417.5,88.8333 416.5,87.5C 415.808,88.0253 415.308,88.6919 415,89.5C 414.29,88.0267 413.124,87.3601 411.5,87.5C 411.085,91.061 410.085,90.8943 408.5,87C 410.875,84.4624 411.542,81.6291 410.5,78.5C 408.262,77.1473 406.929,75.1473 406.5,72.5C 405.675,71.6143 404.675,71.281 403.5,71.5C 403.67,72.8221 403.337,73.9887 402.5,75C 397.629,74.0267 395.295,76.1933 395.5,81.5C 396.833,81.5 398.167,81.5 399.5,81.5C 399.343,82.8734 399.51,84.2068 400,85.5C 401.017,83.6241 401.851,81.6241 402.5,79.5C 404.167,86.1667 405.833,86.1667 407.5,79.5C 407.563,83.7129 407.729,88.0462 408,92.5C 408.915,93.3279 409.581,94.3279 410,95.5C 410.182,92.1185 411.682,91.1185 414.5,92.5C 415.426,96.0938 415.759,99.7604 415.5,103.5C 412.305,102.961 409.805,103.961 408,106.5C 407.5,113.492 407.334,120.492 407.5,127.5C 404.833,127.5 402.167,127.5 399.5,127.5C 399.5,132.833 399.5,138.167 399.5,143.5C 402.5,143.5 405.5,143.5 408.5,143.5C 407.697,148.476 404.864,151.809 400,153.5C 399.505,155.473 399.338,157.473 399.5,159.5 Z"/></g>
<g><path style="opacity:1" fill="#618293" d="M 215.5,147.5 C 210.36,148.488 205.026,148.821 199.5,148.5C 192.825,148.334 186.158,148.5 179.5,149C 178.263,149.232 177.263,149.732 176.5,150.5C 172.895,150.799 169.561,151.965 166.5,154C 163.963,156.872 161.13,159.372 158,161.5C 146.407,175.764 134.073,189.431 121,202.5C 115.68,209.474 111.68,217.14 109,225.5C 108.792,238.546 107.958,251.546 106.5,264.5C 108.039,274.791 108.539,285.125 108,295.5C 107.286,301.487 105.119,306.82 101.5,311.5C 86.2316,326.243 80.3982,344.243 84,365.5C 86.0017,378.173 88.1684,390.839 90.5,403.5C 88.6687,410.129 88.3353,416.796 89.5,423.5C 87.9606,420.634 86.6272,417.467 85.5,414C 86.0172,411.923 86.6839,409.923 87.5,408C 85.9648,404.319 84.7981,400.486 84,396.5C 83.6055,388.832 82.4388,381.332 80.5,374C 80.9574,373.586 81.2907,373.086 81.5,372.5C 79.8881,365.272 79.2214,357.938 79.5,350.5C 80.8896,344.507 81.5563,338.507 81.5,332.5C 82.5,332.5 83.5,332.5 84.5,332.5C 83.3047,327.571 85.1381,324.571 90,323.5C 90.6575,320.715 91.4909,318.049 92.5,315.5C 95.2626,315.256 97.4293,313.923 99,311.5C 99.4677,308.404 100.634,305.737 102.5,303.5C 102.523,301.073 103.023,298.74 104,296.5C 104.333,297.167 104.667,297.833 105,298.5C 105.221,286.816 104.721,275.149 103.5,263.5C 104.684,252.395 104.684,241.562 103.5,231C 104.935,226.862 106.268,222.695 107.5,218.5C 105.876,218.36 104.71,219.027 104,220.5C 103.667,220.167 103.333,219.833 103,219.5C 102.144,221.868 101.31,224.202 100.5,226.5C 97.756,226.8 96.0894,225.633 95.5,223C 96.7828,220.321 97.7828,217.488 98.5,214.5C 98.1667,213.833 97.8333,213.167 97.5,212.5C 96.1936,213.912 95.3603,215.579 95,217.5C 90.8204,215.987 87.9871,213.154 86.5,209C 87.4784,192.535 87.8118,176.035 87.5,159.5C 86.1667,159.5 84.8333,159.5 83.5,159.5C 82.5232,151.56 83.1899,143.56 85.5,135.5C 83.3393,135.174 81.5059,134.174 80,132.5C 79.5172,131.552 79.3505,130.552 79.5,129.5C 77.8967,129.688 76.5634,129.188 75.5,128C 76.6718,126.003 78.0052,124.17 79.5,122.5C 79.1667,121.833 78.8333,121.167 78.5,120.5C 76.9825,121.911 75.6492,121.744 74.5,120C 76.8098,119.503 79.1432,119.337 81.5,119.5C 81.162,116.843 81.8287,114.51 83.5,112.5C 81.6031,111.332 81.4364,109.665 83,107.5C 87.1262,105.798 88.4596,102.798 87,98.5C 86.2825,99.4506 85.4491,99.6172 84.5,99C 80.7667,94.7466 81.6001,91.2466 87,88.5C 87.5611,86.2746 88.5611,84.2746 90,82.5C 90.2532,79.7996 90.2532,77.133 90,74.5C 90.3742,75.4162 90.8742,76.2496 91.5,77C 93.4205,78.1223 95.4205,78.9556 97.5,79.5C 97.67,78.1779 97.3366,77.0113 96.5,76C 97.7865,72.1779 99.7865,71.6779 102.5,74.5C 103.318,71.8929 103.818,69.2263 104,66.5C 104.739,68.2205 105.573,69.8872 106.5,71.5C 107.204,68.2959 107.87,65.1292 108.5,62C 110.061,61.6824 111.228,60.8491 112,59.5C 113.295,61.1217 114.795,62.455 116.5,63.5C 117.167,63.1667 117.833,62.8333 118.5,62.5C 117.049,56.4387 117.216,50.4387 119,44.5C 119.175,48.211 119.675,51.8776 120.5,55.5C 121.777,52.9659 121.777,50.4659 120.5,48C 121.448,47.5172 122.448,47.3505 123.5,47.5C 123.142,51.5986 123.142,55.5986 123.5,59.5C 125.925,58.1926 128.258,57.1926 130.5,56.5C 129.624,55.7492 128.624,55.2492 127.5,55C 129.348,53.482 130.848,51.6487 132,49.5C 133.011,50.3366 134.178,50.67 135.5,50.5C 135.281,49.325 135.614,48.325 136.5,47.5C 137.434,52.1726 138.934,52.5059 141,48.5C 141.862,50.087 142.529,51.7536 143,53.5C 143.245,51.3367 144.245,49.67 146,48.5C 146.711,50.3668 146.211,51.8668 144.5,53C 146,55.8333 148.167,58 151,59.5C 151.494,57.8659 151.66,56.1992 151.5,54.5C 152.675,54.719 153.675,54.3857 154.5,53.5C 150.852,50.9424 150.186,47.9424 152.5,44.5C 154.731,45.9034 157.064,47.0701 159.5,48C 155.636,49.55 155.636,51.05 159.5,52.5C 158.061,54.5531 156.061,55.5531 153.5,55.5C 153.167,58.1667 152.833,60.8333 152.5,63.5C 153.5,63.5 154.5,63.5 155.5,63.5C 155.523,61.0733 156.023,58.74 157,56.5C 158.332,60.5778 160.498,64.0778 163.5,67C 164.996,67.5074 166.163,67.0074 167,65.5C 168.128,67.3453 168.628,69.3453 168.5,71.5C 169.552,71.6495 170.552,71.4828 171.5,71C 172.32,68.0857 173.32,67.919 174.5,70.5C 173.572,71.7678 173.405,73.1011 174,74.5C 175.518,74.0574 176.685,74.7241 177.5,76.5C 178.086,76.2907 178.586,75.9574 179,75.5C 179.186,73.0995 179.686,70.7662 180.5,68.5C 181.167,69.5 181.833,70.5 182.5,71.5C 184.167,68.8333 185.833,68.8333 187.5,71.5C 187.945,74.9445 187.945,78.2779 187.5,81.5C 187,83.5 186.5,85.5 186,87.5C 185.587,84.7679 184.92,82.1013 184,79.5C 183.501,83.4862 183.334,87.4862 183.5,91.5C 186.167,92.1667 188.833,92.8333 191.5,93.5C 191.338,91.4727 191.505,89.4727 192,87.5C 192.501,91.5101 193.001,95.5101 193.5,99.5C 195.5,99.5 197.5,99.5 199.5,99.5C 199.281,100.675 199.614,101.675 200.5,102.5C 203.201,101.131 205.701,101.464 208,103.5C 209.466,101.675 211.299,101.175 213.5,102C 215.34,104.826 216.006,107.993 215.5,111.5C 220.5,111.5 225.5,111.5 230.5,111.5C 231.303,116.476 234.136,119.809 239,121.5C 239.495,123.473 239.662,125.473 239.5,127.5C 244.833,127.5 250.167,127.5 255.5,127.5C 255.5,130.167 255.5,132.833 255.5,135.5C 261.5,134.833 264.167,137.5 263.5,143.5C 259.456,142.958 255.789,143.791 252.5,146C 248.667,146.167 244.833,146.333 241,146.5C 230.276,145.984 219.609,145.984 209,146.5C 203.974,144.684 199.141,144.684 194.5,146.5C 188.15,145.682 181.817,146.015 175.5,147.5C 176,147.833 176.5,148.167 177,148.5C 189.878,147.217 202.712,146.884 215.5,147.5 Z"/></g>
<g><path style="opacity:1" fill="#0d1419" d="M 199.5,148.5 C 229.833,149.167 260.167,149.833 290.5,150.5C 252.519,150.749 214.519,150.749 176.5,150.5C 177.263,149.732 178.263,149.232 179.5,149C 186.158,148.5 192.825,148.334 199.5,148.5 Z"/></g>
<g><path style="opacity:1" fill="#030302" d="M 176.5,150.5 C 214.519,150.749 252.519,150.749 290.5,150.5C 307.17,150.333 323.837,150.5 340.5,151C 346.345,153.511 351.678,156.844 356.5,161C 360.305,165.478 363.972,169.978 367.5,174.5C 372.501,183.168 377.001,192.168 381,201.5C 384.101,210.315 387.268,218.981 390.5,227.5C 394.494,240.804 398.494,254.138 402.5,267.5C 402.433,269.401 402.767,271.234 403.5,273C 401.786,276.99 401.119,280.99 401.5,285C 402.397,287.127 403.731,287.627 405.5,286.5C 404.371,284.471 404.871,284.137 407,285.5C 406.734,291.308 408.234,296.808 411.5,302C 409.406,303.255 408.406,305.088 408.5,307.5C 409.751,311.323 411.084,315.156 412.5,319C 411.869,320.906 411.536,322.906 411.5,325C 413.381,335.524 414.381,346.024 414.5,356.5C 413.875,362.5 412.541,368.334 410.5,374C 411.207,377.822 411.874,381.655 412.5,385.5C 410.013,389.481 408.347,393.814 407.5,398.5C 407.818,399.647 408.484,400.481 409.5,401C 407.951,405.606 405.951,410.106 403.5,414.5C 403.833,415.167 404.167,415.833 404.5,416.5C 403.011,419.596 401.677,422.763 400.5,426C 401.351,428.811 401.518,431.978 401,435.5C 400.667,435.833 400.333,436.167 400,436.5C 399.781,435.062 399.281,433.729 398.5,432.5C 395.166,436.855 393.832,441.855 394.5,447.5C 393.448,447.351 392.448,447.517 391.5,448C 391.548,450.127 391.715,452.294 392,454.5C 391.667,454.167 391.333,453.833 391,453.5C 389.933,455.283 388.433,455.783 386.5,455C 385.359,454.259 385.359,453.425 386.5,452.5C 385.675,451.614 384.675,451.281 383.5,451.5C 383.5,453.5 383.5,455.5 383.5,457.5C 377.474,457.002 371.974,458.335 367,461.5C 365.769,460.892 364.436,460.559 363,460.5C 352.502,461.18 342.002,461.847 331.5,462.5C 321.7,461.099 311.867,460.099 302,459.5C 298.671,459.968 295.505,460.801 292.5,462C 294.645,463.818 294.645,465.318 292.5,466.5C 290.267,466.136 288.434,465.136 287,463.5C 286.333,466.167 285.667,466.167 285,463.5C 284.316,464.784 284.483,465.951 285.5,467C 283.68,467.2 282.347,468.034 281.5,469.5C 273.764,473.49 271.264,479.824 274,488.5C 277.669,496.509 281.835,504.175 286.5,511.5C 276.5,511.5 266.5,511.5 256.5,511.5C 256.81,500.419 256.477,489.419 255.5,478.5C 255.466,474.141 255.799,469.808 256.5,465.5C 256,461.5 255.5,457.5 255,453.5C 254.167,452.667 253.333,451.833 252.5,451C 249.021,450.134 245.688,448.967 242.5,447.5C 241.34,445.797 242.007,445.131 244.5,445.5C 246.179,445.892 247.846,446.392 249.5,447C 261.177,447.92 272.844,448.586 284.5,449C 294.208,447.318 302.208,442.818 308.5,435.5C 321.533,428.634 331.366,418.634 338,405.5C 338.813,403.564 339.313,401.564 339.5,399.5C 340.302,398.048 340.802,396.382 341,394.5C 341.5,378.503 341.667,362.503 341.5,346.5C 341.5,321.5 341.5,296.5 341.5,271.5C 342.702,266.311 342.702,260.977 341.5,255.5C 338.369,254.908 336.036,255.908 334.5,258.5C 328.867,259.545 323.2,259.545 317.5,258.5C 312.293,257.508 306.96,256.508 301.5,255.5C 301.027,254.094 300.027,253.427 298.5,253.5C 297.349,249.507 295.015,246.507 291.5,244.5C 290.833,244.167 290.167,243.833 289.5,243.5C 288.909,242.849 288.243,242.182 287.5,241.5C 288.602,240.824 289.602,240.158 290.5,239.5C 291.167,239.5 291.833,239.5 292.5,239.5C 308.131,236.57 323.798,233.737 339.5,231C 340.733,229.302 341.4,227.302 341.5,225C 341.494,222.967 341.161,221.134 340.5,219.5C 340.809,215.295 340.143,211.295 338.5,207.5C 337.567,204.63 335.9,202.296 333.5,200.5C 332.365,198.787 330.698,198.12 328.5,198.5C 323.025,197.511 317.358,197.178 311.5,197.5C 304.853,195.021 297.853,194.021 290.5,194.5C 290.5,193.5 290.5,192.5 290.5,191.5C 286.514,192.223 283.347,193.223 281,194.5C 278.719,194.437 276.886,193.603 275.5,192C 267.479,191.168 259.479,191.335 251.5,192.5C 251,193.881 250,194.547 248.5,194.5C 245.855,193.892 243.188,193.392 240.5,193C 242.595,192.444 242.762,191.944 241,191.5C 237.45,192.587 233.95,193.587 230.5,194.5C 226.825,194.041 223.158,193.708 219.5,193.5C 217.119,195.769 214.619,195.769 212,193.5C 211.612,194.428 210.945,195.095 210,195.5C 208.989,195.108 208.489,194.441 208.5,193.5C 207.749,194.376 207.249,195.376 207,196.5C 204.534,195.223 202.034,195.223 199.5,196.5C 196.57,198.881 193.403,200.881 190,202.5C 185.944,202.98 182.111,204.147 178.5,206C 176.909,208.133 174.909,209.799 172.5,211C 167.991,214.883 166.491,219.716 168,225.5C 168.383,226.056 168.883,226.389 169.5,226.5C 169.5,227.167 169.833,227.5 170.5,227.5C 173.92,229.222 177.586,229.889 181.5,229.5C 182.568,230.434 183.901,230.768 185.5,230.5C 190.094,231.115 194.761,231.949 199.5,233C 191.893,234.433 184.393,234.266 177,232.5C 175.743,232.85 175.409,233.517 176,234.5C 177.135,234.727 178.302,235.06 179.5,235.5C 178.833,235.833 178.167,236.167 177.5,236.5C 173.9,235.012 170.233,234.179 166.5,234C 166.085,237.289 167.752,239.289 171.5,240C 169.167,241.833 166.833,243.667 164.5,245.5C 165.165,247.101 165.499,248.601 165.5,250C 163.953,250.333 162.62,249.833 161.5,248.5C 159.783,249.668 159.116,251.335 159.5,253.5C 157.821,253.285 156.821,253.952 156.5,255.5C 155.551,260.74 155.218,266.073 155.5,271.5C 155.167,273.5 154.833,275.5 154.5,277.5C 153.883,277.611 153.383,277.944 153,278.5C 152.333,283.5 152.333,288.5 153,293.5C 158.728,320.205 164.561,346.871 170.5,373.5C 172.713,384.926 176.879,395.593 183,405.5C 186.416,409.348 189.583,413.348 192.5,417.5C 192.371,419.216 192.038,420.883 191.5,422.5C 191.5,422.833 191.5,423.167 191.5,423.5C 190.112,452.656 189.446,481.989 189.5,511.5C 181.833,511.5 174.167,511.5 166.5,511.5C 167.893,504.153 170.559,497.32 174.5,491C 173.884,489.6 173.551,488.1 173.5,486.5C 174.289,484.257 174.955,482.091 175.5,480C 173.962,477.222 171.629,475.389 168.5,474.5C 166.615,471.243 164.281,468.41 161.5,466C 160.004,465.493 158.837,465.993 158,467.5C 157.147,465.875 156.147,465.542 155,466.5C 152.904,465.285 153.071,464.451 155.5,464C 154.833,462 153.5,460.667 151.5,460C 142.184,460.398 132.851,460.398 123.5,460C 118.115,457.556 113.282,454.389 109,450.5C 108.517,449.552 108.351,448.552 108.5,447.5C 106.833,447.5 105.167,447.5 103.5,447.5C 103.649,448.552 103.483,449.552 103,450.5C 100.269,444.761 98.6025,438.761 98,432.5C 99.6699,437.592 100.503,437.592 100.5,432.5C 101.552,432.649 102.552,432.483 103.5,432C 101.939,431.682 100.772,430.849 100,429.5C 98.4164,425.187 98.2497,420.854 99.5,416.5C 97.4904,415.935 95.8237,414.935 94.5,413.5C 94.3361,410.003 94.3361,406.503 94.5,403C 91.5064,396.85 89.8397,390.35 89.5,383.5C 90.8221,383.33 91.9887,383.663 93,384.5C 93.1432,388.619 93.8099,392.619 95,396.5C 95.9469,390.24 95.1136,384.24 92.5,378.5C 93.6103,373.889 93.7769,369.222 93,364.5C 92.3333,363.833 91.6667,363.167 91,362.5C 90.7978,364.256 90.2978,365.922 89.5,367.5C 89.1667,366.833 88.8333,366.167 88.5,365.5C 88.1037,358.203 88.7704,351.203 90.5,344.5C 88.8967,344.688 87.5634,344.188 86.5,343C 87.7797,340.868 87.7797,338.702 86.5,336.5C 88.4094,333.619 90.7428,331.119 93.5,329C 93.5,327.667 93.5,326.333 93.5,325C 94,324.5 94.5,324 95,323.5C 95.49,324.793 95.6567,326.127 95.5,327.5C 98.2763,327.911 98.943,327.078 97.5,325C 98.5089,323.832 99.5089,322.665 100.5,321.5C 99.624,320.749 98.624,320.249 97.5,320C 98.8333,319.333 98.8333,318.667 97.5,318C 100.693,316.974 102.026,314.808 101.5,311.5C 105.119,306.82 107.286,301.487 108,295.5C 108.539,285.125 108.039,274.791 106.5,264.5C 107.958,251.546 108.792,238.546 109,225.5C 111.68,217.14 115.68,209.474 121,202.5C 134.073,189.431 146.407,175.764 158,161.5C 161.13,159.372 163.963,156.872 166.5,154C 169.561,151.965 172.895,150.799 176.5,150.5 Z"/></g>
<g><path style="opacity:1" fill="#6a808b" d="M 215.5,147.5 C 249.501,147.714 283.501,148.048 317.5,148.5C 326.884,148.184 336.218,148.684 345.5,150C 350.116,153.883 354.949,157.383 360,160.5C 360.333,161.833 360.667,163.167 361,164.5C 363.81,167.464 365.976,170.798 367.5,174.5C 363.972,169.978 360.305,165.478 356.5,161C 351.678,156.844 346.345,153.511 340.5,151C 323.837,150.5 307.17,150.333 290.5,150.5C 260.167,149.833 229.833,149.167 199.5,148.5C 205.026,148.821 210.36,148.488 215.5,147.5 Z"/></g>
<g><path style="opacity:1" fill="#628496" d="M 399.5,159.5 C 400.833,159.5 402.167,159.5 403.5,159.5C 403.334,166.841 403.5,174.174 404,181.5C 404.679,184.55 405.512,187.55 406.5,190.5C 407.833,191.833 409.167,191.833 410.5,190.5C 411.523,186.923 413.023,183.589 415,180.5C 415.483,181.448 415.649,182.448 415.5,183.5C 420.833,183.5 426.167,183.5 431.5,183.5C 431.5,186.167 431.5,188.833 431.5,191.5C 432.833,191.5 434.167,191.5 435.5,191.5C 435.5,196.833 435.5,202.167 435.5,207.5C 434.167,207.5 432.833,207.5 431.5,207.5C 431.662,209.527 431.495,211.527 431,213.5C 426.136,215.191 423.303,218.524 422.5,223.5C 425.5,223.5 428.5,223.5 431.5,223.5C 431.261,225.467 431.594,227.301 432.5,229C 437.167,230.667 441.833,232.333 446.5,234C 447.337,235.011 447.67,236.178 447.5,237.5C 448.822,237.67 449.989,237.337 451,236.5C 453.195,239.037 456.028,240.037 459.5,239.5C 459.5,242.167 459.5,244.833 459.5,247.5C 460.833,247.5 462.167,247.5 463.5,247.5C 463.5,252.833 463.5,258.167 463.5,263.5C 469.008,262.678 471.675,265.011 471.5,270.5C 469.801,270.34 468.134,270.506 466.5,271C 467.264,273.069 467.764,275.236 468,277.5C 468.689,278.357 469.522,279.023 470.5,279.5C 471.01,276.848 472.343,274.848 474.5,273.5C 475.712,275.841 475.378,278.007 473.5,280C 475.278,282.135 475.945,284.635 475.5,287.5C 474.167,287.5 472.833,287.5 471.5,287.5C 471.5,289.5 471.5,291.5 471.5,293.5C 473.635,293.147 474.968,293.98 475.5,296C 474.276,299.184 473.109,299.017 472,295.5C 471.397,298.656 471.897,301.656 473.5,304.5C 473.192,305.308 472.692,305.975 472,306.5C 471.501,310.821 471.334,315.154 471.5,319.5C 473.924,319.192 476.257,319.526 478.5,320.5C 474,324.833 469.5,329.167 465,333.5C 464.383,334.449 464.549,335.282 465.5,336C 462.833,338.333 462.833,340.667 465.5,343C 463.834,345.48 463.001,348.313 463,351.5C 458.333,356.167 453.667,360.833 449,365.5C 448.812,367.061 449.645,367.728 451.5,367.5C 451.5,372.833 451.5,378.167 451.5,383.5C 450.167,383.5 448.833,383.5 447.5,383.5C 447.5,388.833 447.5,394.167 447.5,399.5C 444.833,399.5 442.167,399.5 439.5,399.5C 439.5,404.833 439.5,410.167 439.5,415.5C 438.167,415.5 436.833,415.5 435.5,415.5C 435.5,426.167 435.5,436.833 435.5,447.5C 434.167,447.5 432.833,447.5 431.5,447.5C 431.5,450.167 431.5,452.833 431.5,455.5C 426.167,455.5 420.833,455.5 415.5,455.5C 415.5,456.5 415.5,457.5 415.5,458.5C 414.127,458.343 412.793,458.51 411.5,459C 412.38,460.356 412.714,461.856 412.5,463.5C 410.833,463.5 409.167,463.5 407.5,463.5C 407.464,469.893 407.631,476.227 408,482.5C 407.215,484.286 406.049,485.786 404.5,487C 400.064,488.538 396.398,491.038 393.5,494.5C 388.198,495.663 382.864,495.829 377.5,495C 379.493,493.408 381.493,491.908 383.5,490.5C 379.719,488.554 376.719,485.721 374.5,482C 375.833,481.333 377.167,480.667 378.5,480C 373.833,479.667 369.167,479.333 364.5,479C 370.849,478.594 377.183,478.094 383.5,477.5C 383.5,476.5 383.5,475.5 383.5,474.5C 378.926,474.307 375.259,474.974 372.5,476.5C 360.225,474.455 347.891,474.122 335.5,475.5C 335.5,476.5 335.5,477.5 335.5,478.5C 344.173,478.334 352.84,478.5 361.5,479C 358.118,479.176 354.785,479.676 351.5,480.5C 349.34,482.093 349.173,483.76 351,485.5C 351.499,491.491 351.666,497.491 351.5,503.5C 346.489,503.666 341.489,503.499 336.5,503C 335.874,502.25 335.374,501.416 335,500.5C 330.237,502.463 325.403,504.296 320.5,506C 314.843,506.499 309.176,506.666 303.5,506.5C 303.5,508.167 303.5,509.833 303.5,511.5C 297.833,511.5 292.167,511.5 286.5,511.5C 281.835,504.175 277.669,496.509 274,488.5C 271.264,479.824 273.764,473.49 281.5,469.5C 291.84,469.588 302.173,469.921 312.5,470.5C 333.858,469.377 355.191,467.877 376.5,466C 385.17,465.416 392.003,461.582 397,454.5C 405.199,429.239 414.199,404.239 424,379.5C 428.638,361.496 428.638,343.496 424,325.5C 417.696,305.743 410.529,286.41 402.5,267.5C 398.494,254.138 394.494,240.804 390.5,227.5C 390.304,221.062 388.638,214.729 385.5,208.5C 386.325,207.614 387.325,207.281 388.5,207.5C 388.491,209.308 388.991,210.975 390,212.5C 390.333,211.833 390.667,211.167 391,210.5C 390.905,207.356 391.072,204.356 391.5,201.5C 389.289,201.033 387.289,200.033 385.5,198.5C 384.668,194.845 383.835,191.179 383,187.5C 381.284,188.552 380.284,187.886 380,185.5C 379.667,185.833 379.333,186.167 379,186.5C 378.275,184.051 377.275,181.717 376,179.5C 375.219,178.056 375.386,176.723 376.5,175.5C 379.483,179.986 381.15,179.986 381.5,175.5C 378.012,174.857 375.512,172.857 374,169.5C 373.676,171.569 372.842,171.902 371.5,170.5C 369.971,166.123 368.471,161.79 367,157.5C 359.523,154.558 359.69,152.225 367.5,150.5C 367.5,152.167 367.5,153.833 367.5,155.5C 372.833,155.5 378.167,155.5 383.5,155.5C 383.5,156.833 383.5,158.167 383.5,159.5C 388.833,159.5 394.167,159.5 399.5,159.5 Z"/></g>
<g><path style="opacity:1" fill="#0a0b0f" d="M 311.5,197.5 C 287.5,197.5 263.5,197.5 239.5,197.5C 228.828,197.333 218.161,197.5 207.5,198C 203.222,198.311 199.222,199.477 195.5,201.5C 190.439,204.388 186.105,208.221 182.5,213C 178.707,214.816 175.04,216.816 171.5,219C 169.887,221.228 169.22,223.728 169.5,226.5C 168.883,226.389 168.383,226.056 168,225.5C 166.491,219.716 167.991,214.883 172.5,211C 174.909,209.799 176.909,208.133 178.5,206C 182.111,204.147 185.944,202.98 190,202.5C 193.403,200.881 196.57,198.881 199.5,196.5C 202.034,195.223 204.534,195.223 207,196.5C 207.249,195.376 207.749,194.376 208.5,193.5C 208.489,194.441 208.989,195.108 210,195.5C 210.945,195.095 211.612,194.428 212,193.5C 214.619,195.769 217.119,195.769 219.5,193.5C 223.158,193.708 226.825,194.041 230.5,194.5C 233.95,193.587 237.45,192.587 241,191.5C 242.762,191.944 242.595,192.444 240.5,193C 243.188,193.392 245.855,193.892 248.5,194.5C 250,194.547 251,193.881 251.5,192.5C 259.479,191.335 267.479,191.168 275.5,192C 276.886,193.603 278.719,194.437 281,194.5C 283.347,193.223 286.514,192.223 290.5,191.5C 290.5,192.5 290.5,193.5 290.5,194.5C 297.853,194.021 304.853,195.021 311.5,197.5 Z"/></g>
<g><path style="opacity:1" fill="#1e2024" d="M 239.5,198.5 C 239.5,198.167 239.5,197.833 239.5,197.5C 263.5,197.5 287.5,197.5 311.5,197.5C 317.358,197.178 323.025,197.511 328.5,198.5C 318.128,198.24 307.794,198.573 297.5,199.5C 287.601,200.566 277.768,201.899 268,203.5C 259.066,201.971 250.233,200.305 241.5,198.5C 240.833,198.5 240.167,198.5 239.5,198.5 Z"/></g>
<g><path style="opacity:1" fill="#696561" d="M 328.5,198.5 C 330.698,198.12 332.365,198.787 333.5,200.5C 329.548,199.728 325.548,199.395 321.5,199.5C 313.466,199.302 305.466,199.635 297.5,200.5C 297.5,200.167 297.5,199.833 297.5,199.5C 307.794,198.573 318.128,198.24 328.5,198.5 Z"/></g>
<g><path style="opacity:1" fill="#5d5554" d="M 239.5,197.5 C 239.5,197.833 239.5,198.167 239.5,198.5C 230.833,198.5 222.167,198.5 213.5,198.5C 207.428,200.017 201.428,201.85 195.5,204C 192.111,206.619 190.611,210.119 191,214.5C 188.436,216.624 185.603,217.958 182.5,218.5C 181.167,218.5 179.833,218.5 178.5,218.5C 180.263,215.444 182.93,213.611 186.5,213C 188.888,208.768 191.888,204.935 195.5,201.5C 199.222,199.477 203.222,198.311 207.5,198C 218.161,197.5 228.828,197.333 239.5,197.5 Z"/></g>
<g><path style="opacity:1" fill="#999089" d="M 321.5,199.5 C 319.9,202.547 318.9,205.88 318.5,209.5C 315.606,211.821 312.273,212.988 308.5,213C 305.5,213.667 302.5,213.667 299.5,213C 298.874,212.25 298.374,211.416 298,210.5C 294.48,210.944 291.147,209.944 288,207.5C 285.553,210.044 283.053,210.044 280.5,207.5C 279.532,208.489 278.365,209.156 277,209.5C 272.335,208.978 267.835,208.311 263.5,207.5C 275.632,208.474 286.966,206.141 297.5,200.5C 305.466,199.635 313.466,199.302 321.5,199.5 Z"/></g>
<g><path style="opacity:1" fill="#454647" d="M 241.5,198.5 C 250.233,200.305 259.066,201.971 268,203.5C 277.768,201.899 287.601,200.566 297.5,199.5C 297.5,199.833 297.5,200.167 297.5,200.5C 291.951,201.257 286.618,202.757 281.5,205C 272.818,206.173 264.152,206.34 255.5,205.5C 255.53,204.503 255.03,203.836 254,203.5C 251.165,202.767 248.332,202.1 245.5,201.5C 244.41,200.143 243.076,199.143 241.5,198.5 Z"/></g>
<g><path style="opacity:1" fill="#aa9e95" d="M 321.5,199.5 C 325.548,199.395 329.548,199.728 333.5,200.5C 335.9,202.296 337.567,204.63 338.5,207.5C 336.855,206.521 335.521,205.188 334.5,203.5C 331.183,201.216 327.85,201.049 324.5,203C 325.823,203.816 326.489,204.983 326.5,206.5C 327.924,211.78 329.257,217.114 330.5,222.5C 329.271,223.281 327.938,223.781 326.5,224C 316.78,225.205 307.114,226.039 297.5,226.5C 291.481,225.816 285.481,224.983 279.5,224C 275.354,222.063 271.021,220.729 266.5,220C 260.648,220.337 254.815,220.171 249,219.5C 247.833,219.667 246.667,219.833 245.5,220C 242.818,222.343 239.984,224.51 237,226.5C 236.275,225.941 235.442,225.608 234.5,225.5C 231.58,226.586 228.58,227.252 225.5,227.5C 219.417,226.108 213.417,226.441 207.5,228.5C 205.849,226.876 203.849,225.543 201.5,224.5C 202.242,223.713 203.075,223.047 204,222.5C 209.937,223.601 215.937,224.601 222,225.5C 224.389,225.518 226.556,224.851 228.5,223.5C 231.489,217.983 233.822,212.15 235.5,206C 234.833,205.333 234.167,204.667 233.5,204C 234.973,203.29 235.64,202.124 235.5,200.5C 237.167,200.5 238.833,200.5 240.5,200.5C 242.216,200.629 243.883,200.962 245.5,201.5C 248.332,202.1 251.165,202.767 254,203.5C 255.03,203.836 255.53,204.503 255.5,205.5C 257.961,206.531 260.627,207.198 263.5,207.5C 267.835,208.311 272.335,208.978 277,209.5C 278.365,209.156 279.532,208.489 280.5,207.5C 283.053,210.044 285.553,210.044 288,207.5C 291.147,209.944 294.48,210.944 298,210.5C 298.374,211.416 298.874,212.25 299.5,213C 302.5,213.667 305.5,213.667 308.5,213C 312.273,212.988 315.606,211.821 318.5,209.5C 318.9,205.88 319.9,202.547 321.5,199.5 Z"/></g>
<g><path style="opacity:1" fill="#7c7976" d="M 297.5,200.5 C 286.966,206.141 275.632,208.474 263.5,207.5C 260.627,207.198 257.961,206.531 255.5,205.5C 264.152,206.34 272.818,206.173 281.5,205C 286.618,202.757 291.951,201.257 297.5,200.5 Z"/></g>
<g><path style="opacity:1" fill="#8b7b75" d="M 213.5,198.5 C 222.167,198.5 230.833,198.5 239.5,198.5C 240.167,198.5 240.833,198.5 241.5,198.5C 243.076,199.143 244.41,200.143 245.5,201.5C 243.883,200.962 242.216,200.629 240.5,200.5C 233.679,199.345 226.679,199.179 219.5,200C 219.854,201.626 219.854,203.459 219.5,205.5C 218.448,205.351 217.448,205.517 216.5,206C 217.28,207.073 217.113,208.24 216,209.5C 215.586,209.043 215.086,208.709 214.5,208.5C 211.223,209.254 207.89,209.754 204.5,210C 209.761,211.865 215.095,213.531 220.5,215C 223.362,216.786 224.028,219.119 222.5,222C 219.961,222.796 217.628,222.629 215.5,221.5C 217.5,221.5 219.5,221.5 221.5,221.5C 221.37,218.702 220.036,216.702 217.5,215.5C 211.271,213.824 204.938,212.657 198.5,212C 196.503,210.847 196.17,209.347 197.5,207.5C 202.421,206.082 207.088,204.082 211.5,201.5C 212.425,200.643 213.092,199.643 213.5,198.5 Z"/></g>
<g><path style="opacity:1" fill="#cbbda8" d="M 338.5,207.5 C 340.143,211.295 340.809,215.295 340.5,219.5C 339.842,218.602 339.176,217.602 338.5,216.5C 337.614,217.325 337.281,218.325 337.5,219.5C 333.679,218.179 331.512,215.512 331,211.5C 329.951,209.382 328.451,207.716 326.5,206.5C 326.489,204.983 325.823,203.816 324.5,203C 327.85,201.049 331.183,201.216 334.5,203.5C 335.521,205.188 336.855,206.521 338.5,207.5 Z"/></g>
<g><path style="opacity:1" fill="#786762" d="M 213.5,198.5 C 213.092,199.643 212.425,200.643 211.5,201.5C 207.088,204.082 202.421,206.082 197.5,207.5C 196.17,209.347 196.503,210.847 198.5,212C 204.938,212.657 211.271,213.824 217.5,215.5C 220.036,216.702 221.37,218.702 221.5,221.5C 219.5,221.5 217.5,221.5 215.5,221.5C 213.833,221.5 212.167,221.5 210.5,221.5C 210.389,220.883 210.056,220.383 209.5,220C 200.513,219.215 191.513,218.715 182.5,218.5C 185.603,217.958 188.436,216.624 191,214.5C 190.611,210.119 192.111,206.619 195.5,204C 201.428,201.85 207.428,200.017 213.5,198.5 Z"/></g>
<g><path style="opacity:1" fill="#312e30" d="M 195.5,201.5 C 191.888,204.935 188.888,208.768 186.5,213C 182.93,213.611 180.263,215.444 178.5,218.5C 176.195,219.787 173.862,221.12 171.5,222.5C 170.691,224.071 170.357,225.738 170.5,227.5C 169.833,227.5 169.5,227.167 169.5,226.5C 169.22,223.728 169.887,221.228 171.5,219C 175.04,216.816 178.707,214.816 182.5,213C 186.105,208.221 190.439,204.388 195.5,201.5 Z"/></g>
<g><path style="opacity:1" fill="#8d7f76" d="M 178.5,218.5 C 179.833,218.5 181.167,218.5 182.5,218.5C 191.513,218.715 200.513,219.215 209.5,220C 210.056,220.383 210.389,220.883 210.5,221.5C 205.162,220.998 199.828,220.831 194.5,221C 192.616,221.216 190.949,221.883 189.5,223C 192.167,223.667 192.167,224.333 189.5,225C 190.167,225.333 190.833,225.667 191.5,226C 189.292,226.191 187.292,226.691 185.5,227.5C 182.15,227.335 178.817,227.502 175.5,228C 177.708,228.191 179.708,228.691 181.5,229.5C 177.586,229.889 173.92,229.222 170.5,227.5C 170.357,225.738 170.691,224.071 171.5,222.5C 173.862,221.12 176.195,219.787 178.5,218.5 Z"/></g>
<g><path style="opacity:1" fill="#b8aa9e" d="M 326.5,206.5 C 328.451,207.716 329.951,209.382 331,211.5C 331.512,215.512 333.679,218.179 337.5,219.5C 337.813,222.247 337.48,224.914 336.5,227.5C 335.532,228.489 334.365,229.156 333,229.5C 323.028,230.607 313.194,231.607 303.5,232.5C 293.036,232.646 283.036,230.646 273.5,226.5C 272.914,226.709 272.414,227.043 272,227.5C 268.163,225.707 264.163,224.373 260,223.5C 256.238,223.968 252.404,224.135 248.5,224C 246.93,226.787 244.596,228.621 241.5,229.5C 236.012,228.925 230.679,228.258 225.5,227.5C 228.58,227.252 231.58,226.586 234.5,225.5C 235.442,225.608 236.275,225.941 237,226.5C 239.984,224.51 242.818,222.343 245.5,220C 246.667,219.833 247.833,219.667 249,219.5C 254.815,220.171 260.648,220.337 266.5,220C 271.021,220.729 275.354,222.063 279.5,224C 285.481,224.983 291.481,225.816 297.5,226.5C 307.114,226.039 316.78,225.205 326.5,224C 327.938,223.781 329.271,223.281 330.5,222.5C 329.257,217.114 327.924,211.78 326.5,206.5 Z"/></g>
<g><path style="opacity:1" fill="#a19088" d="M 240.5,200.5 C 238.833,200.5 237.167,200.5 235.5,200.5C 235.64,202.124 234.973,203.29 233.5,204C 234.167,204.667 234.833,205.333 235.5,206C 233.822,212.15 231.489,217.983 228.5,223.5C 226.556,224.851 224.389,225.518 222,225.5C 215.937,224.601 209.937,223.601 204,222.5C 203.075,223.047 202.242,223.713 201.5,224.5C 203.849,225.543 205.849,226.876 207.5,228.5C 205.833,228.5 204.167,228.5 202.5,228.5C 196.855,227.866 191.189,227.532 185.5,227.5C 187.292,226.691 189.292,226.191 191.5,226C 190.833,225.667 190.167,225.333 189.5,225C 192.167,224.333 192.167,223.667 189.5,223C 190.949,221.883 192.616,221.216 194.5,221C 199.828,220.831 205.162,220.998 210.5,221.5C 212.167,221.5 213.833,221.5 215.5,221.5C 217.628,222.629 219.961,222.796 222.5,222C 224.028,219.119 223.362,216.786 220.5,215C 215.095,213.531 209.761,211.865 204.5,210C 207.89,209.754 211.223,209.254 214.5,208.5C 215.086,208.709 215.586,209.043 216,209.5C 217.113,208.24 217.28,207.073 216.5,206C 217.448,205.517 218.448,205.351 219.5,205.5C 219.854,203.459 219.854,201.626 219.5,200C 226.679,199.179 233.679,199.345 240.5,200.5 Z"/></g>
<g><path style="opacity:1" fill="#af8a70" d="M 185.5,227.5 C 191.189,227.532 196.855,227.866 202.5,228.5C 206.329,229.738 210.329,230.738 214.5,231.5C 215.59,232.857 216.924,233.857 218.5,234.5C 207.632,232.032 196.632,230.699 185.5,230.5C 183.901,230.768 182.568,230.434 181.5,229.5C 179.708,228.691 177.708,228.191 175.5,228C 178.817,227.502 182.15,227.335 185.5,227.5 Z"/></g>
<g><path style="opacity:1" fill="#c2ad9a" d="M 303.5,232.5 C 302.848,233.725 301.681,234.392 300,234.5C 295.651,234.921 291.484,235.587 287.5,236.5C 278.168,236.782 269.501,234.615 261.5,230C 257.695,229.039 253.862,228.206 250,227.5C 238.671,232.418 226.837,233.751 214.5,231.5C 210.329,230.738 206.329,229.738 202.5,228.5C 204.167,228.5 205.833,228.5 207.5,228.5C 213.417,226.441 219.417,226.108 225.5,227.5C 230.679,228.258 236.012,228.925 241.5,229.5C 244.596,228.621 246.93,226.787 248.5,224C 252.404,224.135 256.238,223.968 260,223.5C 264.163,224.373 268.163,225.707 272,227.5C 272.414,227.043 272.914,226.709 273.5,226.5C 283.036,230.646 293.036,232.646 303.5,232.5 Z"/></g>
<g><path style="opacity:1" fill="#638496" d="M 44.5,247.5 C 45.172,248.267 46.0053,248.934 47,249.5C 47.6667,264.167 47.6667,278.833 47,293.5C 42.1364,295.191 39.303,298.524 38.5,303.5C 36.1667,303.5 33.8333,303.5 31.5,303.5C 31.6621,305.527 31.4955,307.527 31,309.5C 26.1364,311.191 23.303,314.524 22.5,319.5C 20.1667,319.5 17.8333,319.5 15.5,319.5C 15.5,330.167 15.5,340.833 15.5,351.5C 18.1667,351.5 20.8333,351.5 23.5,351.5C 22.8333,357.5 25.5,360.167 31.5,359.5C 31.3342,364.179 31.5008,368.845 32,373.5C 33.3297,374.582 34.8297,375.249 36.5,375.5C 37.2279,377.735 38.5612,379.568 40.5,381C 39.5236,387.076 39.1903,393.242 39.5,399.5C 46.4395,399.211 48.1061,402.045 44.5,408C 46.9529,409.848 47.9529,412.348 47.5,415.5C 49.1667,415.5 50.8333,415.5 52.5,415.5C 50.8171,420.663 50.1504,425.996 50.5,431.5C 49.5,431.5 48.5,431.5 47.5,431.5C 47.5,432.833 47.5,434.167 47.5,435.5C 50.5,436.833 53.5,438.167 56.5,439.5C 55.4911,442.527 55.4911,445.527 56.5,448.5C 57.086,448.291 57.586,447.957 58,447.5C 58.8454,432.878 60.0121,432.878 61.5,447.5C 62.2508,446.624 62.7508,445.624 63,444.5C 63.3333,445.833 63.6667,447.167 64,448.5C 65.0113,447.663 66.1779,447.33 67.5,447.5C 67.5186,450.659 66.3519,453.326 64,455.5C 63.6667,454.833 63.3333,454.167 63,453.5C 59.1917,454.979 56.3584,457.479 54.5,461C 52.2346,462.118 49.9013,462.951 47.5,463.5C 47.1604,467.131 47.9937,470.464 50,473.5C 50.4226,472.044 51.2559,471.544 52.5,472C 56.6458,475.718 57.4791,480.218 55,485.5C 53.6667,483.5 52.3333,481.5 51,479.5C 50.6667,482.167 50.3333,484.833 50,487.5C 49.3333,488.167 48.6667,488.833 48,489.5C 46.951,487.893 45.451,487.227 43.5,487.5C 43.67,488.822 43.3366,489.989 42.5,491C 40.8333,491.333 39.1667,491.667 37.5,492C 34.1925,493.571 31.1925,495.571 28.5,498C 26.765,498.651 25.0983,498.485 23.5,497.5C 19.7304,501.28 15.397,502.114 10.5,500C 9.61983,498.644 9.28649,497.144 9.5,495.5C 5.21754,494.314 4.55088,491.98 7.5,488.5C 6.97473,487.808 6.30806,487.308 5.5,487C 8.5605,482.752 9.22717,478.086 7.5,473C 7.30664,469.757 7.97331,466.757 9.5,464C 8.26704,462.302 7.60038,460.302 7.5,458C 8.7139,453.297 9.7139,448.464 10.5,443.5C 9.83333,440.833 9.16667,438.167 8.5,435.5C 10.1541,428.934 10.8207,422.267 10.5,415.5C 9.16667,415.5 7.83333,415.5 6.5,415.5C 6.00126,411.51 5.50126,407.51 5,403.5C 4.88817,406.447 3.38817,407.78 0.5,407.5C 0.737305,406.209 0.403972,405.209 -0.5,404.5C -0.5,369.167 -0.5,333.833 -0.5,298.5C 0.221579,298.082 0.721579,297.416 1,296.5C 1.16667,292.333 1.33333,288.167 1.5,284C 1.36691,271.819 1.03358,259.486 0.5,247C 1.4542,242.561 2.78753,242.561 4.5,247C 3.23088,249.139 3.23088,251.305 4.5,253.5C 6.69003,252.252 7.02337,250.586 5.5,248.5C 6.16667,247.833 6.83333,247.167 7.5,246.5C 6.42294,244.271 5.75628,241.937 5.5,239.5C 4.17793,239.33 3.01127,239.663 2,240.5C 1.17858,237.446 1.34524,234.446 2.5,231.5C 3.79516,233.328 4.79516,235.328 5.5,237.5C 7.08626,235.827 7.75293,233.827 7.5,231.5C 10.1569,231.162 12.4902,231.829 14.5,233.5C 16.2076,231.309 18.2076,230.976 20.5,232.5C 23.1092,231.77 25.7759,231.27 28.5,231C 30.6134,229.016 31.7801,226.516 32,223.5C 36.6667,228.167 41.3333,232.833 46,237.5C 46.1667,237.833 46.3333,238.167 46.5,238.5C 44.9547,239.452 43.288,239.785 41.5,239.5C 41.0181,242.831 42.0181,245.497 44.5,247.5 Z"/></g>
<g><path style="opacity:1" fill="#c9aa92" d="M 340.5,219.5 C 341.161,221.134 341.494,222.967 341.5,225C 341.4,227.302 340.733,229.302 339.5,231C 323.798,233.737 308.131,236.57 292.5,239.5C 292.918,238.778 293.584,238.278 294.5,238C 291.964,237.814 289.631,237.314 287.5,236.5C 291.484,235.587 295.651,234.921 300,234.5C 301.681,234.392 302.848,233.725 303.5,232.5C 313.194,231.607 323.028,230.607 333,229.5C 334.365,229.156 335.532,228.489 336.5,227.5C 337.48,224.914 337.813,222.247 337.5,219.5C 337.281,218.325 337.614,217.325 338.5,216.5C 339.176,217.602 339.842,218.602 340.5,219.5 Z"/></g>
<g><path style="opacity:1" fill="#0d0402" d="M 185.5,230.5 C 196.632,230.699 207.632,232.032 218.5,234.5C 227.478,235.528 236.478,235.695 245.5,235C 246.554,236.388 246.72,237.888 246,239.5C 243.168,240.962 241.001,242.962 239.5,245.5C 238.284,247.451 236.618,248.951 234.5,250C 231.609,251.727 228.609,253.227 225.5,254.5C 222.098,254.342 218.764,254.676 215.5,255.5C 209.111,255.641 203.111,256.975 197.5,259.5C 192.156,259.666 186.823,259.499 181.5,259C 180.027,258.29 179.36,257.124 179.5,255.5C 171.772,254.425 164.105,254.425 156.5,255.5C 156.821,253.952 157.821,253.285 159.5,253.5C 159.116,251.335 159.783,249.668 161.5,248.5C 162.62,249.833 163.953,250.333 165.5,250C 165.499,248.601 165.165,247.101 164.5,245.5C 166.833,243.667 169.167,241.833 171.5,240C 167.752,239.289 166.085,237.289 166.5,234C 170.233,234.179 173.9,235.012 177.5,236.5C 178.167,236.167 178.833,235.833 179.5,235.5C 178.302,235.06 177.135,234.727 176,234.5C 175.409,233.517 175.743,232.85 177,232.5C 184.393,234.266 191.893,234.433 199.5,233C 194.761,231.949 190.094,231.115 185.5,230.5 Z"/></g>
<g><path style="opacity:1" fill="#618497" d="M 102.5,303.5 C 100.634,305.737 99.4677,308.404 99,311.5C 97.4293,313.923 95.2626,315.256 92.5,315.5C 91.4909,318.049 90.6575,320.715 90,323.5C 85.1381,324.571 83.3047,327.571 84.5,332.5C 83.5,332.5 82.5,332.5 81.5,332.5C 81.5563,338.507 80.8896,344.507 79.5,350.5C 79.5,349.167 79.5,347.833 79.5,346.5C 74.1667,346.5 68.8333,346.5 63.5,346.5C 63.5,348.167 63.5,349.833 63.5,351.5C 62.5,351.5 61.5,351.5 60.5,351.5C 60.5,346.167 60.5,340.833 60.5,335.5C 61.5,335.5 62.5,335.5 63.5,335.5C 63.5,334.167 63.5,332.833 63.5,331.5C 58.1667,331.5 52.8333,331.5 47.5,331.5C 47.1104,336.422 48.2771,336.756 51,332.5C 54.4665,334.181 54.2998,335.181 50.5,335.5C 50.5,340.833 50.5,346.167 50.5,351.5C 49.5,351.5 48.5,351.5 47.5,351.5C 47.5,355.5 47.5,359.5 47.5,363.5C 43.9929,362.994 40.8263,363.66 38,365.5C 38.1928,368.788 37.6928,372.121 36.5,375.5C 34.8297,375.249 33.3297,374.582 32,373.5C 31.5008,368.845 31.3342,364.179 31.5,359.5C 25.5,360.167 22.8333,357.5 23.5,351.5C 20.8333,351.5 18.1667,351.5 15.5,351.5C 15.5,340.833 15.5,330.167 15.5,319.5C 17.8333,319.5 20.1667,319.5 22.5,319.5C 23.303,314.524 26.1364,311.191 31,309.5C 31.4955,307.527 31.6621,305.527 31.5,303.5C 33.8333,303.5 36.1667,303.5 38.5,303.5C 39.303,298.524 42.1364,295.191 47,293.5C 47.6667,278.833 47.6667,264.167 47,249.5C 46.0053,248.934 45.172,248.267 44.5,247.5C 45.7498,247.423 46.5831,246.756 47,245.5C 47.3333,243.5 47.6667,241.5 48,239.5C 52.8333,244.5 57.6667,249.5 62.5,254.5C 65.0865,255.48 67.7531,255.813 70.5,255.5C 70.4914,253.692 70.9914,252.025 72,250.5C 79.075,243.128 81.575,244.795 79.5,255.5C 84.544,255.173 89.544,255.506 94.5,256.5C 90,260.833 85.5,265.167 81,269.5C 79.5783,272.03 79.245,274.697 80,277.5C 84.7631,279.262 87.7631,282.596 89,287.5C 89.4391,284.701 90.7724,283.701 93,284.5C 91.9432,288.662 91.4432,292.995 91.5,297.5C 92.9778,297.238 94.3112,297.571 95.5,298.5C 96.4978,301.028 97.3311,301.028 98,298.5C 98.4935,300.134 98.6602,301.801 98.5,303.5C 99.8333,303.5 101.167,303.5 102.5,303.5 Z"/></g>
<g><path style="opacity:1" fill="#cfb08f" d="M 287.5,236.5 C 289.631,237.314 291.964,237.814 294.5,238C 293.584,238.278 292.918,238.778 292.5,239.5C 291.833,239.5 291.167,239.5 290.5,239.5C 288.011,239.241 286.344,240.241 285.5,242.5C 284.5,242.5 283.5,242.5 282.5,242.5C 282.5,241.5 282.5,240.5 282.5,239.5C 279.753,239.187 277.086,239.52 274.5,240.5C 273.687,243.29 272.687,245.956 271.5,248.5C 268.794,248.425 266.127,248.092 263.5,247.5C 263.649,248.552 263.483,249.552 263,250.5C 261.622,248.787 259.955,247.453 258,246.5C 256.403,246.64 254.903,246.64 253.5,246.5C 250.892,243.821 250.558,241.155 252.5,238.5C 252.167,238.167 251.833,237.833 251.5,237.5C 249.41,239.247 247.743,241.247 246.5,243.5C 243.921,243.394 241.588,244.061 239.5,245.5C 241.001,242.962 243.168,240.962 246,239.5C 246.72,237.888 246.554,236.388 245.5,235C 236.478,235.695 227.478,235.528 218.5,234.5C 216.924,233.857 215.59,232.857 214.5,231.5C 226.837,233.751 238.671,232.418 250,227.5C 253.862,228.206 257.695,229.039 261.5,230C 269.501,234.615 278.168,236.782 287.5,236.5 Z"/></g>
<g><path style="opacity:1" fill="#635544" d="M 290.5,239.5 C 289.602,240.158 288.602,240.824 287.5,241.5C 288.243,242.182 288.909,242.849 289.5,243.5C 287.901,243.768 286.568,243.434 285.5,242.5C 286.344,240.241 288.011,239.241 290.5,239.5 Z"/></g>
<g><path style="opacity:1" fill="#8d765e" d="M 291.5,244.5 C 295.015,246.507 297.349,249.507 298.5,253.5C 296.83,253.249 295.33,252.582 294,251.5C 293.153,249.146 292.32,246.812 291.5,244.5 Z"/></g>
<g><path style="opacity:1" fill="#d5b287" d="M 246.5,243.5 C 244.167,246.833 241.833,250.167 239.5,253.5C 238.325,253.281 237.325,253.614 236.5,254.5C 238.5,255.167 240.5,255.833 242.5,256.5C 241.675,257.386 240.675,257.719 239.5,257.5C 239.719,258.675 239.386,259.675 238.5,260.5C 234.048,261.682 233.714,263.182 237.5,265C 236.446,266.388 236.28,267.888 237,269.5C 238.813,268.391 239.646,269.058 239.5,271.5C 238.5,271.5 237.5,271.5 236.5,271.5C 236.67,272.822 236.337,273.989 235.5,275C 233.447,276.202 231.447,276.536 229.5,276C 227.02,276.915 226.353,278.415 227.5,280.5C 224.865,281.606 222.865,283.273 221.5,285.5C 220.91,284.234 220.41,282.901 220,281.5C 217.702,284.431 214.869,285.431 211.5,284.5C 214.392,281.796 214.058,281.129 210.5,282.5C 210.53,281.503 210.03,280.836 209,280.5C 204.867,280.106 201.034,279.106 197.5,277.5C 202.178,278.569 206.844,278.569 211.5,277.5C 211.291,276.914 210.957,276.414 210.5,276C 207.978,275.501 205.478,275.668 203,276.5C 199.153,274.975 195.32,273.641 191.5,272.5C 184.927,272.192 178.594,270.525 172.5,267.5C 173.894,265.398 175.561,265.065 177.5,266.5C 179.95,264.85 182.617,263.683 185.5,263C 183.956,262.71 182.623,262.044 181.5,261C 185.833,260.333 190.167,260.333 194.5,261C 193.346,261.914 193.513,262.747 195,263.5C 205.215,260.243 215.382,257.243 225.5,254.5C 228.609,253.227 231.609,251.727 234.5,250C 236.618,248.951 238.284,247.451 239.5,245.5C 241.588,244.061 243.921,243.394 246.5,243.5 Z"/></g>
<g><path style="opacity:1" fill="#d5b68e" d="M 285.5,242.5 C 286.568,243.434 287.901,243.768 289.5,243.5C 290.167,243.833 290.833,244.167 291.5,244.5C 292.32,246.812 293.153,249.146 294,251.5C 295.33,252.582 296.83,253.249 298.5,253.5C 300.027,253.427 301.027,254.094 301.5,255.5C 303.509,257.065 305.843,258.065 308.5,258.5C 315.871,260.03 323.371,261.364 331,262.5C 332.439,260.986 333.939,260.653 335.5,261.5C 330.467,264.561 325.133,265.228 319.5,263.5C 319.66,265.199 319.494,266.866 319,268.5C 316.618,267.134 314.452,267.467 312.5,269.5C 311.205,268.902 309.872,268.402 308.5,268C 311.044,266.908 313.711,266.241 316.5,266C 314.567,265.749 312.734,265.249 311,264.5C 310.667,264.833 310.333,265.167 310,265.5C 306.344,262.854 302.844,263.188 299.5,266.5C 298.749,265.624 298.249,264.624 298,263.5C 294.589,266.359 294.756,269.026 298.5,271.5C 299.654,269.144 300.987,268.977 302.5,271C 301.315,272.353 299.981,273.52 298.5,274.5C 297.485,271.832 295.818,271.166 293.5,272.5C 295.183,275.086 296.35,277.753 297,280.5C 293.777,279.277 292.111,276.944 292,273.5C 291.501,278.155 291.334,282.821 291.5,287.5C 290.167,287.5 288.833,287.5 287.5,287.5C 287.5,288.833 287.5,290.167 287.5,291.5C 276.833,291.833 266.167,292.167 255.5,292.5C 255.5,293.5 255.5,294.5 255.5,295.5C 243.003,295.474 230.669,295.307 218.5,295C 217.549,294.282 217.383,293.449 218,292.5C 220.158,291.174 221.992,289.507 223.5,287.5C 222.757,286.818 222.091,286.151 221.5,285.5C 222.865,283.273 224.865,281.606 227.5,280.5C 226.353,278.415 227.02,276.915 229.5,276C 231.447,276.536 233.447,276.202 235.5,275C 236.337,273.989 236.67,272.822 236.5,271.5C 237.5,271.5 238.5,271.5 239.5,271.5C 239.646,269.058 238.813,268.391 237,269.5C 236.28,267.888 236.446,266.388 237.5,265C 233.714,263.182 234.048,261.682 238.5,260.5C 239.386,259.675 239.719,258.675 239.5,257.5C 240.675,257.719 241.675,257.386 242.5,256.5C 240.5,255.833 238.5,255.167 236.5,254.5C 237.325,253.614 238.325,253.281 239.5,253.5C 241.833,250.167 244.167,246.833 246.5,243.5C 247.743,241.247 249.41,239.247 251.5,237.5C 251.833,237.833 252.167,238.167 252.5,238.5C 250.558,241.155 250.892,243.821 253.5,246.5C 254.903,246.64 256.403,246.64 258,246.5C 259.955,247.453 261.622,248.787 263,250.5C 263.483,249.552 263.649,248.552 263.5,247.5C 266.127,248.092 268.794,248.425 271.5,248.5C 272.687,245.956 273.687,243.29 274.5,240.5C 277.086,239.52 279.753,239.187 282.5,239.5C 282.5,240.5 282.5,241.5 282.5,242.5C 283.5,242.5 284.5,242.5 285.5,242.5 Z"/></g>
<g><path style="opacity:1" fill="#75634e" d="M 301.5,255.5 C 306.96,256.508 312.293,257.508 317.5,258.5C 314.5,258.5 311.5,258.5 308.5,258.5C 305.843,258.065 303.509,257.065 301.5,255.5 Z"/></g>
<g><path style="opacity:1" fill="#93795f" d="M 341.5,271.5 C 341.695,267.085 341.195,262.751 340,258.5C 338.224,257.464 336.391,257.464 334.5,258.5C 336.036,255.908 338.369,254.908 341.5,255.5C 342.702,260.977 342.702,266.311 341.5,271.5 Z"/></g>
<g><path style="opacity:1" fill="#d1b48e" d="M 341.5,271.5 C 341.5,296.5 341.5,321.5 341.5,346.5C 340.733,364.009 340.066,381.676 339.5,399.5C 339.313,401.564 338.813,403.564 338,405.5C 331.366,418.634 321.533,428.634 308.5,435.5C 306.775,435.157 306.275,434.157 307,432.5C 310.766,427.383 315.599,423.883 321.5,422C 318.375,418.461 315.042,418.794 311.5,423C 311.833,423.333 312.167,423.667 312.5,424C 309.607,425.149 306.607,425.649 303.5,425.5C 303.281,424.325 303.614,423.325 304.5,422.5C 309.519,419.294 314.352,415.961 319,412.5C 319.333,413.5 319.667,414.5 320,415.5C 321,414.167 322,412.833 323,411.5C 324,413.5 325,415.5 326,417.5C 328.284,415.264 329.784,412.598 330.5,409.5C 331.806,408.032 333.306,406.699 335,405.5C 335.676,400.075 336.676,394.741 338,389.5C 338.5,347.501 338.667,305.501 338.5,263.5C 335.833,264.366 333.167,265.366 330.5,266.5C 333.277,270.755 331.944,272.422 326.5,271.5C 326.14,275.358 323.973,277.358 320,277.5C 319.517,278.448 319.351,279.448 319.5,280.5C 313.131,281.035 312.964,282.702 319,285.5C 319.167,286.667 319.333,287.833 319.5,289C 316.691,292.944 314.358,297.277 312.5,302C 314.026,309.627 313.526,317.127 311,324.5C 309.195,327.039 306.695,328.039 303.5,327.5C 303.5,326.167 303.5,324.833 303.5,323.5C 302.791,322.596 301.791,322.263 300.5,322.5C 300.5,321.5 300.5,320.5 300.5,319.5C 301.5,319.5 302.5,319.5 303.5,319.5C 303.5,318.167 303.5,316.833 303.5,315.5C 300.428,315.183 297.428,315.516 294.5,316.5C 292.608,320.47 291.608,320.137 291.5,315.5C 290.167,315.5 288.833,315.5 287.5,315.5C 287.5,316.833 287.5,318.167 287.5,319.5C 282.167,319.5 276.833,319.5 271.5,319.5C 272.549,323.831 270.882,325.997 266.5,326C 261.438,330.529 255.771,334.029 249.5,336.5C 247.448,340.029 244.448,342.362 240.5,343.5C 240.444,347.366 240.11,351.366 239.5,355.5C 233.662,355.288 228.995,357.455 225.5,362C 223.782,362.346 222.115,362.846 220.5,363.5C 220.094,362.443 220.094,361.109 220.5,359.5C 221.873,359.657 223.207,359.49 224.5,359C 226.5,356.667 228.5,354.333 230.5,352C 228.19,351.503 225.857,351.337 223.5,351.5C 223.5,352.5 223.5,353.5 223.5,354.5C 218.742,356.089 214.075,357.922 209.5,360C 208.874,360.75 208.374,361.584 208,362.5C 204.378,361.231 200.712,361.231 197,362.5C 194.162,359.357 191.662,355.857 189.5,352C 191.107,350.951 191.773,349.451 191.5,347.5C 188.551,348.013 185.718,348.013 183,347.5C 181.921,349.394 180.587,349.727 179,348.5C 178.167,349.333 177.333,350.167 176.5,351C 177.667,352.833 178.833,354.667 180,356.5C 180.684,357.784 180.517,358.951 179.5,360C 180.718,361.438 181.385,363.105 181.5,365C 181.037,368.54 180.37,372.04 179.5,375.5C 176.678,376.149 174.845,377.815 174,380.5C 173.272,377.813 172.105,375.48 170.5,373.5C 164.561,346.871 158.728,320.205 153,293.5C 152.333,288.5 152.333,283.5 153,278.5C 153.383,277.944 153.883,277.611 154.5,277.5C 156.292,277.366 157.958,277.699 159.5,278.5C 160.167,279.833 161.167,280.833 162.5,281.5C 168.427,284.772 174.761,286.439 181.5,286.5C 183.634,288.033 186.134,288.7 189,288.5C 191.033,288.494 192.866,288.161 194.5,287.5C 200.077,286.641 205.411,284.974 210.5,282.5C 214.058,281.129 214.392,281.796 211.5,284.5C 214.869,285.431 217.702,284.431 220,281.5C 220.41,282.901 220.91,284.234 221.5,285.5C 222.091,286.151 222.757,286.818 223.5,287.5C 221.992,289.507 220.158,291.174 218,292.5C 217.383,293.449 217.549,294.282 218.5,295C 230.669,295.307 243.003,295.474 255.5,295.5C 255.5,294.5 255.5,293.5 255.5,292.5C 266.167,292.167 276.833,291.833 287.5,291.5C 287.5,290.167 287.5,288.833 287.5,287.5C 288.833,287.5 290.167,287.5 291.5,287.5C 291.334,282.821 291.501,278.155 292,273.5C 292.111,276.944 293.777,279.277 297,280.5C 296.35,277.753 295.183,275.086 293.5,272.5C 295.818,271.166 297.485,271.832 298.5,274.5C 299.981,273.52 301.315,272.353 302.5,271C 300.987,268.977 299.654,269.144 298.5,271.5C 294.756,269.026 294.589,266.359 298,263.5C 298.249,264.624 298.749,265.624 299.5,266.5C 302.844,263.188 306.344,262.854 310,265.5C 310.333,265.167 310.667,264.833 311,264.5C 312.734,265.249 314.567,265.749 316.5,266C 313.711,266.241 311.044,266.908 308.5,268C 309.872,268.402 311.205,268.902 312.5,269.5C 314.452,267.467 316.618,267.134 319,268.5C 319.494,266.866 319.66,265.199 319.5,263.5C 325.133,265.228 330.467,264.561 335.5,261.5C 333.939,260.653 332.439,260.986 331,262.5C 323.371,261.364 315.871,260.03 308.5,258.5C 311.5,258.5 314.5,258.5 317.5,258.5C 323.2,259.545 328.867,259.545 334.5,258.5C 336.391,257.464 338.224,257.464 340,258.5C 341.195,262.751 341.695,267.085 341.5,271.5 Z"/></g>
<g><path style="opacity:1" fill="#d4b490" d="M 197.5,259.5 C 203.675,258.436 209.675,257.103 215.5,255.5C 218.764,254.676 222.098,254.342 225.5,254.5C 215.382,257.243 205.215,260.243 195,263.5C 193.513,262.747 193.346,261.914 194.5,261C 190.167,260.333 185.833,260.333 181.5,261C 182.623,262.044 183.956,262.71 185.5,263C 182.617,263.683 179.95,264.85 177.5,266.5C 175.561,265.065 173.894,265.398 172.5,267.5C 178.594,270.525 184.927,272.192 191.5,272.5C 182.161,272.334 172.827,272.5 163.5,273C 171.241,274.1 178.908,274.934 186.5,275.5C 178.5,275.5 170.5,275.5 162.5,275.5C 162.5,274.833 162.167,274.5 161.5,274.5C 159.412,273.799 157.412,272.799 155.5,271.5C 155.218,266.073 155.551,260.74 156.5,255.5C 164.105,254.425 171.772,254.425 179.5,255.5C 179.36,257.124 180.027,258.29 181.5,259C 186.823,259.499 192.156,259.666 197.5,259.5 Z"/></g>
<g><path style="opacity:1" fill="#9f866a" d="M 215.5,255.5 C 209.675,257.103 203.675,258.436 197.5,259.5C 203.111,256.975 209.111,255.641 215.5,255.5 Z"/></g>
<g><path style="opacity:1" fill="#cdb391" d="M 330.5,409.5 C 327.843,406.799 327.843,404.133 330.5,401.5C 330.833,398.5 331.167,395.5 331.5,392.5C 330.544,384.062 329.211,375.728 327.5,367.5C 326.5,367.5 325.5,367.5 324.5,367.5C 325.227,363.776 323.894,361.109 320.5,359.5C 319.502,351.528 319.169,343.528 319.5,335.5C 317.833,335.5 316.167,335.5 314.5,335.5C 314.657,334.127 314.49,332.793 314,331.5C 313.933,334.047 313.099,336.214 311.5,338C 303.054,339.618 294.554,340.785 286,341.5C 281.28,339.722 276.447,338.388 271.5,337.5C 271.5,336.167 271.5,334.833 271.5,333.5C 279.764,334.154 287.764,333.154 295.5,330.5C 295.151,324.98 297.817,322.646 303.5,323.5C 303.5,324.833 303.5,326.167 303.5,327.5C 306.695,328.039 309.195,327.039 311,324.5C 313.526,317.127 314.026,309.627 312.5,302C 314.358,297.277 316.691,292.944 319.5,289C 319.333,287.833 319.167,286.667 319,285.5C 312.964,282.702 313.131,281.035 319.5,280.5C 319.351,279.448 319.517,278.448 320,277.5C 323.973,277.358 326.14,275.358 326.5,271.5C 331.944,272.422 333.277,270.755 330.5,266.5C 333.167,265.366 335.833,264.366 338.5,263.5C 338.667,305.501 338.5,347.501 338,389.5C 336.676,394.741 335.676,400.075 335,405.5C 333.306,406.699 331.806,408.032 330.5,409.5 Z"/></g>
<g><path style="opacity:1" fill="#e2b87f" d="M 191.5,272.5 C 195.32,273.641 199.153,274.975 203,276.5C 205.478,275.668 207.978,275.501 210.5,276C 210.957,276.414 211.291,276.914 211.5,277.5C 206.844,278.569 202.178,278.569 197.5,277.5C 193.929,276.358 190.262,275.691 186.5,275.5C 178.908,274.934 171.241,274.1 163.5,273C 172.827,272.5 182.161,272.334 191.5,272.5 Z"/></g>
<g><path style="opacity:1" fill="#9a7959" d="M 155.5,271.5 C 157.412,272.799 159.412,273.799 161.5,274.5C 160.325,274.281 159.325,274.614 158.5,275.5C 159.127,276.417 159.461,277.417 159.5,278.5C 157.958,277.699 156.292,277.366 154.5,277.5C 154.833,275.5 155.167,273.5 155.5,271.5 Z"/></g>
<g><path style="opacity:1" fill="#0d0705" d="M 162.5,275.5 C 170.5,275.5 178.5,275.5 186.5,275.5C 190.262,275.691 193.929,276.358 197.5,277.5C 201.034,279.106 204.867,280.106 209,280.5C 210.03,280.836 210.53,281.503 210.5,282.5C 205.411,284.974 200.077,286.641 194.5,287.5C 190.131,287.533 185.798,287.2 181.5,286.5C 174.761,286.439 168.427,284.772 162.5,281.5C 161.427,279.347 161.427,277.347 162.5,275.5 Z"/></g>
<g><path style="opacity:1" fill="#5e5338" d="M 161.5,274.5 C 162.167,274.5 162.5,274.833 162.5,275.5C 161.427,277.347 161.427,279.347 162.5,281.5C 161.167,280.833 160.167,279.833 159.5,278.5C 159.461,277.417 159.127,276.417 158.5,275.5C 159.325,274.614 160.325,274.281 161.5,274.5 Z"/></g>
<g><path style="opacity:1" fill="#836f4f" d="M 181.5,286.5 C 185.798,287.2 190.131,287.533 194.5,287.5C 192.866,288.161 191.033,288.494 189,288.5C 186.134,288.7 183.634,288.033 181.5,286.5 Z"/></g>
<g><path style="opacity:1" fill="#05070d" d="M 402.5,267.5 C 410.529,286.41 417.696,305.743 424,325.5C 428.638,343.496 428.638,361.496 424,379.5C 414.199,404.239 405.199,429.239 397,454.5C 392.003,461.582 385.17,465.416 376.5,466C 355.191,467.877 333.858,469.377 312.5,470.5C 302.173,469.921 291.84,469.588 281.5,469.5C 282.347,468.034 283.68,467.2 285.5,467C 284.483,465.951 284.316,464.784 285,463.5C 285.667,466.167 286.333,466.167 287,463.5C 288.434,465.136 290.267,466.136 292.5,466.5C 294.645,465.318 294.645,463.818 292.5,462C 295.505,460.801 298.671,459.968 302,459.5C 311.867,460.099 321.7,461.099 331.5,462.5C 342.002,461.847 352.502,461.18 363,460.5C 364.436,460.559 365.769,460.892 367,461.5C 371.974,458.335 377.474,457.002 383.5,457.5C 383.5,455.5 383.5,453.5 383.5,451.5C 384.675,451.281 385.675,451.614 386.5,452.5C 385.359,453.425 385.359,454.259 386.5,455C 388.433,455.783 389.933,455.283 391,453.5C 391.333,453.833 391.667,454.167 392,454.5C 391.715,452.294 391.548,450.127 391.5,448C 392.448,447.517 393.448,447.351 394.5,447.5C 393.832,441.855 395.166,436.855 398.5,432.5C 399.281,433.729 399.781,435.062 400,436.5C 400.333,436.167 400.667,435.833 401,435.5C 401.518,431.978 401.351,428.811 400.5,426C 401.677,422.763 403.011,419.596 404.5,416.5C 404.167,415.833 403.833,415.167 403.5,414.5C 405.951,410.106 407.951,405.606 409.5,401C 408.484,400.481 407.818,399.647 407.5,398.5C 408.347,393.814 410.013,389.481 412.5,385.5C 411.874,381.655 411.207,377.822 410.5,374C 412.541,368.334 413.875,362.5 414.5,356.5C 414.381,346.024 413.381,335.524 411.5,325C 411.536,322.906 411.869,320.906 412.5,319C 411.084,315.156 409.751,311.323 408.5,307.5C 408.406,305.088 409.406,303.255 411.5,302C 408.234,296.808 406.734,291.308 407,285.5C 404.871,284.137 404.371,284.471 405.5,286.5C 403.731,287.627 402.397,287.127 401.5,285C 401.119,280.99 401.786,276.99 403.5,273C 402.767,271.234 402.433,269.401 402.5,267.5 Z"/></g>
<g><path style="opacity:1" fill="#cfb292" d="M 303.5,323.5 C 297.817,322.646 295.151,324.98 295.5,330.5C 287.764,333.154 279.764,334.154 271.5,333.5C 271.5,334.833 271.5,336.167 271.5,337.5C 276.447,338.388 281.28,339.722 286,341.5C 294.554,340.785 303.054,339.618 311.5,338C 313.099,336.214 313.933,334.047 314,331.5C 314.49,332.793 314.657,334.127 314.5,335.5C 316.167,335.5 317.833,335.5 319.5,335.5C 319.169,343.528 319.502,351.528 320.5,359.5C 323.894,361.109 325.227,363.776 324.5,367.5C 325.5,367.5 326.5,367.5 327.5,367.5C 329.211,375.728 330.544,384.062 331.5,392.5C 331.167,395.5 330.833,398.5 330.5,401.5C 327.843,404.133 327.843,406.799 330.5,409.5C 329.784,412.598 328.284,415.264 326,417.5C 325,415.5 324,413.5 323,411.5C 322,412.833 321,414.167 320,415.5C 319.667,414.5 319.333,413.5 319,412.5C 314.352,415.961 309.519,419.294 304.5,422.5C 303.614,423.325 303.281,424.325 303.5,425.5C 306.607,425.649 309.607,425.149 312.5,424C 312.167,423.667 311.833,423.333 311.5,423C 315.042,418.794 318.375,418.461 321.5,422C 315.599,423.883 310.766,427.383 307,432.5C 306.275,434.157 306.775,435.157 308.5,435.5C 302.208,442.818 294.208,447.318 284.5,449C 272.844,448.586 261.177,447.92 249.5,447C 247.846,446.392 246.179,445.892 244.5,445.5C 243.081,444.549 241.415,444.216 239.5,444.5C 238.041,444.567 236.708,444.234 235.5,443.5C 233.703,442.27 231.703,441.604 229.5,441.5C 224.984,439.188 220.318,437.021 215.5,435C 214.295,433.624 212.962,432.458 211.5,431.5C 206.531,428.522 201.865,425.189 197.5,421.5C 195.858,420.197 194.191,418.864 192.5,417.5C 189.583,413.348 186.416,409.348 183,405.5C 176.879,395.593 172.713,384.926 170.5,373.5C 172.105,375.48 173.272,377.813 174,380.5C 174.845,377.815 176.678,376.149 179.5,375.5C 180.37,372.04 181.037,368.54 181.5,365C 181.385,363.105 180.718,361.438 179.5,360C 180.517,358.951 180.684,357.784 180,356.5C 178.833,354.667 177.667,352.833 176.5,351C 177.333,350.167 178.167,349.333 179,348.5C 180.587,349.727 181.921,349.394 183,347.5C 185.718,348.013 188.551,348.013 191.5,347.5C 191.773,349.451 191.107,350.951 189.5,352C 191.662,355.857 194.162,359.357 197,362.5C 200.712,361.231 204.378,361.231 208,362.5C 208.374,361.584 208.874,360.75 209.5,360C 214.075,357.922 218.742,356.089 223.5,354.5C 223.5,353.5 223.5,352.5 223.5,351.5C 225.857,351.337 228.19,351.503 230.5,352C 228.5,354.333 226.5,356.667 224.5,359C 223.207,359.49 221.873,359.657 220.5,359.5C 220.094,361.109 220.094,362.443 220.5,363.5C 222.115,362.846 223.782,362.346 225.5,362C 228.995,357.455 233.662,355.288 239.5,355.5C 240.11,351.366 240.444,347.366 240.5,343.5C 244.448,342.362 247.448,340.029 249.5,336.5C 255.771,334.029 261.438,330.529 266.5,326C 270.882,325.997 272.549,323.831 271.5,319.5C 276.833,319.5 282.167,319.5 287.5,319.5C 287.5,318.167 287.5,316.833 287.5,315.5C 288.833,315.5 290.167,315.5 291.5,315.5C 291.608,320.137 292.608,320.47 294.5,316.5C 297.428,315.516 300.428,315.183 303.5,315.5C 303.5,316.833 303.5,318.167 303.5,319.5C 302.5,319.5 301.5,319.5 300.5,319.5C 300.5,320.5 300.5,321.5 300.5,322.5C 301.791,322.263 302.791,322.596 303.5,323.5 Z"/></g>
<g><path style="opacity:1" fill="#618494" d="M 79.5,350.5 C 79.2214,357.938 79.8881,365.272 81.5,372.5C 81.2907,373.086 80.9574,373.586 80.5,374C 82.4388,381.332 83.6055,388.832 84,396.5C 84.7981,400.486 85.9648,404.319 87.5,408C 86.6839,409.923 86.0172,411.923 85.5,414C 86.6272,417.467 87.9606,420.634 89.5,423.5C 93.9062,430.861 97.0729,438.861 99,447.5C 101.767,453.258 104.934,458.758 108.5,464C 112.5,466 116.5,468 120.5,470C 134.167,470.333 147.833,470.667 161.5,471C 162.766,471.309 163.933,471.809 165,472.5C 168.272,477.043 170.439,482.043 171.5,487.5C 169.397,495.702 166.73,503.702 163.5,511.5C 108.833,511.5 54.1667,511.5 -0.5,511.5C -0.5,475.833 -0.5,440.167 -0.5,404.5C 0.403972,405.209 0.737305,406.209 0.5,407.5C 3.38817,407.78 4.88817,406.447 5,403.5C 5.50126,407.51 6.00126,411.51 6.5,415.5C 7.83333,415.5 9.16667,415.5 10.5,415.5C 10.8207,422.267 10.1541,428.934 8.5,435.5C 9.16667,438.167 9.83333,440.833 10.5,443.5C 9.7139,448.464 8.7139,453.297 7.5,458C 7.60038,460.302 8.26704,462.302 9.5,464C 7.97331,466.757 7.30664,469.757 7.5,473C 9.22717,478.086 8.5605,482.752 5.5,487C 6.30806,487.308 6.97473,487.808 7.5,488.5C 4.55088,491.98 5.21754,494.314 9.5,495.5C 9.28649,497.144 9.61983,498.644 10.5,500C 15.397,502.114 19.7304,501.28 23.5,497.5C 25.0983,498.485 26.765,498.651 28.5,498C 31.1925,495.571 34.1925,493.571 37.5,492C 39.1667,491.667 40.8333,491.333 42.5,491C 43.3366,489.989 43.67,488.822 43.5,487.5C 45.451,487.227 46.951,487.893 48,489.5C 48.6667,488.833 49.3333,488.167 50,487.5C 50.3333,484.833 50.6667,482.167 51,479.5C 52.3333,481.5 53.6667,483.5 55,485.5C 57.4791,480.218 56.6458,475.718 52.5,472C 51.2559,471.544 50.4226,472.044 50,473.5C 47.9937,470.464 47.1604,467.131 47.5,463.5C 49.9013,462.951 52.2346,462.118 54.5,461C 56.3584,457.479 59.1917,454.979 63,453.5C 63.3333,454.167 63.6667,454.833 64,455.5C 66.3519,453.326 67.5186,450.659 67.5,447.5C 66.1779,447.33 65.0113,447.663 64,448.5C 63.6667,447.167 63.3333,445.833 63,444.5C 62.7508,445.624 62.2508,446.624 61.5,447.5C 60.0121,432.878 58.8454,432.878 58,447.5C 57.586,447.957 57.086,448.291 56.5,448.5C 55.4911,445.527 55.4911,442.527 56.5,439.5C 53.5,438.167 50.5,436.833 47.5,435.5C 47.5,434.167 47.5,432.833 47.5,431.5C 48.5,431.5 49.5,431.5 50.5,431.5C 50.1504,425.996 50.8171,420.663 52.5,415.5C 50.8333,415.5 49.1667,415.5 47.5,415.5C 47.9529,412.348 46.9529,409.848 44.5,408C 48.1061,402.045 46.4395,399.211 39.5,399.5C 39.1903,393.242 39.5236,387.076 40.5,381C 38.5612,379.568 37.2279,377.735 36.5,375.5C 37.6928,372.121 38.1928,368.788 38,365.5C 40.8263,363.66 43.9929,362.994 47.5,363.5C 47.5,359.5 47.5,355.5 47.5,351.5C 48.5,351.5 49.5,351.5 50.5,351.5C 50.5,346.167 50.5,340.833 50.5,335.5C 54.2998,335.181 54.4665,334.181 51,332.5C 48.2771,336.756 47.1104,336.422 47.5,331.5C 52.8333,331.5 58.1667,331.5 63.5,331.5C 63.5,332.833 63.5,334.167 63.5,335.5C 62.5,335.5 61.5,335.5 60.5,335.5C 60.5,340.833 60.5,346.167 60.5,351.5C 61.5,351.5 62.5,351.5 63.5,351.5C 63.5,349.833 63.5,348.167 63.5,346.5C 68.8333,346.5 74.1667,346.5 79.5,346.5C 79.5,347.833 79.5,349.167 79.5,350.5 Z"/></g>
<g><path style="opacity:1" fill="#cdaf94" d="M 284.5,345.5 C 285.5,345.5 286.5,345.5 287.5,345.5C 287.5,346.833 287.5,348.167 287.5,349.5C 291.833,349.5 296.167,349.5 300.5,349.5C 300.155,346.512 301.488,345.179 304.5,345.5C 309.054,347.812 313.721,350.146 318.5,352.5C 316.47,354.607 314.303,356.607 312,358.5C 311.506,360.134 311.34,361.801 311.5,363.5C 312.822,363.33 313.989,363.663 315,364.5C 314.962,369.875 316.296,374.875 319,379.5C 319.992,377.335 321.158,377.501 322.5,380C 320.8,382.231 319.8,384.731 319.5,387.5C 314.435,387.219 309.435,387.552 304.5,388.5C 303.245,393.213 301.245,397.546 298.5,401.5C 297.675,402.386 296.675,402.719 295.5,402.5C 295.261,404.467 295.594,406.301 296.5,408C 294.382,408.26 292.716,409.26 291.5,411C 284.888,412.327 278.222,413.327 271.5,414C 274.146,414.497 276.813,414.664 279.5,414.5C 279.5,415.5 279.5,416.5 279.5,417.5C 276.348,416.959 273.848,417.959 272,420.5C 269.113,419.307 266.28,417.973 263.5,416.5C 255.528,415.502 247.528,415.169 239.5,415.5C 239.5,412.167 239.5,408.833 239.5,405.5C 237.473,405.662 235.473,405.495 233.5,405C 233.999,400.749 234.332,396.249 234.5,391.5C 236.167,391.5 237.833,391.5 239.5,391.5C 239.5,384.5 239.5,377.5 239.5,370.5C 240.822,370.67 241.989,370.337 243,369.5C 245.062,365.104 247.895,361.27 251.5,358C 259.516,353.911 267.849,350.577 276.5,348C 276.167,347.667 275.833,347.333 275.5,347C 276.899,346.405 278.232,346.572 279.5,347.5C 281.336,346.972 283.003,346.306 284.5,345.5 Z"/></g>
<g><path style="opacity:1" fill="#060b0d" d="M 101.5,311.5 C 102.026,314.808 100.693,316.974 97.5,318C 98.8333,318.667 98.8333,319.333 97.5,320C 98.624,320.249 99.624,320.749 100.5,321.5C 99.5089,322.665 98.5089,323.832 97.5,325C 98.943,327.078 98.2763,327.911 95.5,327.5C 95.6567,326.127 95.49,324.793 95,323.5C 94.5,324 94,324.5 93.5,325C 93.5,326.333 93.5,327.667 93.5,329C 90.7428,331.119 88.4094,333.619 86.5,336.5C 87.7797,338.702 87.7797,340.868 86.5,343C 87.5634,344.188 88.8967,344.688 90.5,344.5C 88.7704,351.203 88.1037,358.203 88.5,365.5C 88.8333,366.167 89.1667,366.833 89.5,367.5C 90.2978,365.922 90.7978,364.256 91,362.5C 91.6667,363.167 92.3333,363.833 93,364.5C 93.7769,369.222 93.6103,373.889 92.5,378.5C 95.1136,384.24 95.9469,390.24 95,396.5C 93.8099,392.619 93.1432,388.619 93,384.5C 91.9887,383.663 90.8221,383.33 89.5,383.5C 89.8397,390.35 91.5064,396.85 94.5,403C 94.3361,406.503 94.3361,410.003 94.5,413.5C 95.8237,414.935 97.4904,415.935 99.5,416.5C 98.2497,420.854 98.4164,425.187 100,429.5C 100.772,430.849 101.939,431.682 103.5,432C 102.552,432.483 101.552,432.649 100.5,432.5C 100.503,437.592 99.6699,437.592 98,432.5C 98.6025,438.761 100.269,444.761 103,450.5C 103.483,449.552 103.649,448.552 103.5,447.5C 105.167,447.5 106.833,447.5 108.5,447.5C 108.351,448.552 108.517,449.552 109,450.5C 113.282,454.389 118.115,457.556 123.5,460C 132.851,460.398 142.184,460.398 151.5,460C 153.5,460.667 154.833,462 155.5,464C 153.071,464.451 152.904,465.285 155,466.5C 156.147,465.542 157.147,465.875 158,467.5C 158.837,465.993 160.004,465.493 161.5,466C 164.281,468.41 166.615,471.243 168.5,474.5C 171.629,475.389 173.962,477.222 175.5,480C 174.955,482.091 174.289,484.257 173.5,486.5C 173.551,488.1 173.884,489.6 174.5,491C 170.559,497.32 167.893,504.153 166.5,511.5C 165.5,511.5 164.5,511.5 163.5,511.5C 166.73,503.702 169.397,495.702 171.5,487.5C 170.439,482.043 168.272,477.043 165,472.5C 163.933,471.809 162.766,471.309 161.5,471C 147.833,470.667 134.167,470.333 120.5,470C 116.5,468 112.5,466 108.5,464C 104.934,458.758 101.767,453.258 99,447.5C 97.0729,438.861 93.9062,430.861 89.5,423.5C 88.3353,416.796 88.6687,410.129 90.5,403.5C 88.1684,390.839 86.0017,378.173 84,365.5C 80.3982,344.243 86.2316,326.243 101.5,311.5 Z"/></g>
<g><path style="opacity:1" fill="#cbad96" d="M 255.5,367.5 C 268.006,367.583 280.339,367.916 292.5,368.5C 294.5,373.167 296.5,377.833 298.5,382.5C 297.114,388.096 296.114,393.763 295.5,399.5C 292.348,399.953 289.848,398.953 288,396.5C 286.287,399.46 283.787,401.626 280.5,403C 272.702,407.193 264.369,408.527 255.5,407C 252.18,403.822 248.513,401.322 244.5,399.5C 246.511,388.17 250.178,377.503 255.5,367.5 Z"/></g>
<g><path style="opacity:1" fill="#a28771" d="M 341.5,346.5 C 341.667,362.503 341.5,378.503 341,394.5C 340.802,396.382 340.302,398.048 339.5,399.5C 340.066,381.676 340.733,364.009 341.5,346.5 Z"/></g>
<g><path style="opacity:1" fill="#735d42" d="M 197.5,421.5 C 201.865,425.189 206.531,428.522 211.5,431.5C 211.44,432.043 211.107,432.376 210.5,432.5C 205.443,429.645 200.777,426.312 196.5,422.5C 196.624,421.893 196.957,421.56 197.5,421.5 Z"/></g>
<g><path style="opacity:1" fill="#b2987d" d="M 192.5,417.5 C 194.191,418.864 195.858,420.197 197.5,421.5C 196.957,421.56 196.624,421.893 196.5,422.5C 200.777,426.312 205.443,429.645 210.5,432.5C 211.107,432.376 211.44,432.043 211.5,431.5C 212.962,432.458 214.295,433.624 215.5,435C 220.318,437.021 224.984,439.188 229.5,441.5C 229.47,442.497 229.97,443.164 231,443.5C 232.677,444.608 234.177,444.608 235.5,443.5C 236.708,444.234 238.041,444.567 239.5,444.5C 239.833,446.5 240.167,448.5 240.5,450.5C 236.5,451.167 232.5,451.833 228.5,452.5C 228.614,454.718 229.28,456.718 230.5,458.5C 228.473,458.662 226.473,458.495 224.5,458C 221.833,454.667 219.167,451.333 216.5,448C 213.086,445.598 209.42,443.598 205.5,442C 202.1,438.777 199.767,434.944 198.5,430.5C 196.929,431.309 195.262,431.643 193.5,431.5C 192.423,428.474 192.423,425.474 193.5,422.5C 193.03,421.537 192.363,421.537 191.5,422.5C 192.038,420.883 192.371,419.216 192.5,417.5 Z"/></g>
<g><path style="opacity:1" fill="#4d3b2f" d="M 229.5,441.5 C 231.703,441.604 233.703,442.27 235.5,443.5C 234.177,444.608 232.677,444.608 231,443.5C 229.97,443.164 229.47,442.497 229.5,441.5 Z"/></g>
<g><path style="opacity:1" fill="#8c7665" d="M 239.5,444.5 C 241.415,444.216 243.081,444.549 244.5,445.5C 242.007,445.131 241.34,445.797 242.5,447.5C 242.369,448.376 242.702,449.043 243.5,449.5C 247.197,450.766 250.697,452.432 254,454.5C 254.499,460.491 254.666,466.491 254.5,472.5C 252.989,471.042 251.989,469.209 251.5,467C 247.596,465.618 243.596,464.452 239.5,463.5C 236.052,462.61 233.052,460.943 230.5,458.5C 229.28,456.718 228.614,454.718 228.5,452.5C 232.5,451.833 236.5,451.167 240.5,450.5C 240.167,448.5 239.833,446.5 239.5,444.5 Z"/></g>
<g><path style="opacity:1" fill="#5f4a3f" d="M 242.5,447.5 C 245.688,448.967 249.021,450.134 252.5,451C 253.333,451.833 254.167,452.667 255,453.5C 255.5,457.5 256,461.5 256.5,465.5C 255.799,469.808 255.466,474.141 255.5,478.5C 254.539,476.735 254.205,474.735 254.5,472.5C 254.666,466.491 254.499,460.491 254,454.5C 250.697,452.432 247.197,450.766 243.5,449.5C 242.702,449.043 242.369,448.376 242.5,447.5 Z"/></g>
<g><path style="opacity:1" fill="#618497" d="M 88.5,441.5 C 90.9955,444.162 93.6622,446.662 96.5,449C 95.6882,451.582 96.5215,453.749 99,455.5C 99.4974,458.146 99.6641,460.813 99.5,463.5C 101.986,464.244 103.986,465.744 105.5,468C 108.576,468.346 111.576,469.012 114.5,470C 112.109,470.691 112.109,471.691 114.5,473C 130.92,473.663 147.253,474.496 163.5,475.5C 163.33,476.822 163.663,477.989 164.5,479C 163.552,479.483 162.552,479.649 161.5,479.5C 161.66,481.199 161.494,482.866 161,484.5C 160.667,483.833 160.333,483.167 160,482.5C 158.618,485.352 156.451,487.018 153.5,487.5C 153.131,491.894 152.465,496.227 151.5,500.5C 148.234,500.629 145.234,501.629 142.5,503.5C 141.719,502.263 140.719,501.263 139.5,500.5C 138.175,501.791 136.842,503.124 135.5,504.5C 137.021,504.88 138.687,505.046 140.5,505C 141.579,507.043 143.246,508.376 145.5,509C 139.593,510.361 133.593,510.861 127.5,510.5C 127.5,508.167 127.5,505.833 127.5,503.5C 122.167,503.5 116.833,503.5 111.5,503.5C 111.5,500.833 111.5,498.167 111.5,495.5C 108.833,495.5 106.167,495.5 103.5,495.5C 102.982,489.481 103.649,483.648 105.5,478C 104.924,476.286 103.757,475.119 102,474.5C 101.02,469.705 98.8529,465.539 95.5,462C 97.8276,459.901 97.9942,457.735 96,455.5C 95.6667,456.5 95.3333,457.5 95,458.5C 91.6667,456.5 89,453.833 87,450.5C 86.3333,449.5 86.3333,448.5 87,447.5C 88.3509,447.554 89.5176,447.054 90.5,446C 89.5862,444.594 88.9195,443.094 88.5,441.5 Z"/></g>
<g><path style="opacity:1" fill="#c1a27d" d="M 230.5,458.5 C 233.052,460.943 236.052,462.61 239.5,463.5C 239.918,464.222 240.584,464.722 241.5,465C 241.043,465.414 240.709,465.914 240.5,466.5C 243.753,467.598 247.086,468.264 250.5,468.5C 249.956,472.673 250.623,476.506 252.5,480C 251.332,481.406 251.665,482.572 253.5,483.5C 251.312,485.512 250.979,487.845 252.5,490.5C 252.384,493.399 251.217,495.732 249,497.5C 248,496.833 247,496.167 246,495.5C 242.706,497.194 239.372,497.86 236,497.5C 235.327,495.531 233.661,493.864 231,492.5C 230.342,494.108 230.842,495.275 232.5,496C 230.192,497.867 227.525,498.867 224.5,499C 223.773,500.399 223.273,501.899 223,503.5C 221.929,497.423 219.763,496.923 216.5,502C 219.474,503.097 221.141,505.263 221.5,508.5C 217.262,509.635 213.095,509.302 209,507.5C 204.414,507.532 199.914,507.532 195.5,507.5C 196.623,500.637 195.79,493.97 193,487.5C 192.79,489.058 192.29,490.391 191.5,491.5C 191.5,468.833 191.5,446.167 191.5,423.5C 191.5,423.167 191.5,422.833 191.5,422.5C 192.363,421.537 193.03,421.537 193.5,422.5C 192.423,425.474 192.423,428.474 193.5,431.5C 195.262,431.643 196.929,431.309 198.5,430.5C 199.767,434.944 202.1,438.777 205.5,442C 209.42,443.598 213.086,445.598 216.5,448C 219.167,451.333 221.833,454.667 224.5,458C 226.473,458.495 228.473,458.662 230.5,458.5 Z"/></g>
<g><path style="opacity:1" fill="#937b6b" d="M 191.5,423.5 C 191.5,446.167 191.5,468.833 191.5,491.5C 192.331,498.131 192.664,504.798 192.5,511.5C 191.5,511.5 190.5,511.5 189.5,511.5C 189.446,481.989 190.112,452.656 191.5,423.5 Z"/></g>
<g><path style="opacity:1" fill="#bb9d7e" d="M 239.5,463.5 C 243.596,464.452 247.596,465.618 251.5,467C 251.989,469.209 252.989,471.042 254.5,472.5C 254.205,474.735 254.539,476.735 255.5,478.5C 256.477,489.419 256.81,500.419 256.5,511.5C 235.167,511.5 213.833,511.5 192.5,511.5C 192.664,504.798 192.331,498.131 191.5,491.5C 192.29,490.391 192.79,489.058 193,487.5C 195.79,493.97 196.623,500.637 195.5,507.5C 199.914,507.532 204.414,507.532 209,507.5C 213.095,509.302 217.262,509.635 221.5,508.5C 221.141,505.263 219.474,503.097 216.5,502C 219.763,496.923 221.929,497.423 223,503.5C 223.273,501.899 223.773,500.399 224.5,499C 227.525,498.867 230.192,497.867 232.5,496C 230.842,495.275 230.342,494.108 231,492.5C 233.661,493.864 235.327,495.531 236,497.5C 239.372,497.86 242.706,497.194 246,495.5C 247,496.167 248,496.833 249,497.5C 251.217,495.732 252.384,493.399 252.5,490.5C 250.979,487.845 251.312,485.512 253.5,483.5C 251.665,482.572 251.332,481.406 252.5,480C 250.623,476.506 249.956,472.673 250.5,468.5C 247.086,468.264 243.753,467.598 240.5,466.5C 240.709,465.914 241.043,465.414 241.5,465C 240.584,464.722 239.918,464.222 239.5,463.5 Z"/></g>
</svg>
