<?xml version="1.0" encoding="UTF-8"?>
<!DOCTYPE svg PUBLIC "-//W3C//DTD SVG 1.1//EN" "http://www.w3.org/Graphics/SVG/1.1/DTD/svg11.dtd">
<svg xmlns="http://www.w3.org/2000/svg" version="1.1" width="512px" height="512px" style="shape-rendering:geometricPrecision; text-rendering:geometricPrecision; image-rendering:optimizeQuality; fill-rule:evenodd; clip-rule:evenodd" xmlns:xlink="http://www.w3.org/1999/xlink">
<g><path style="opacity:1" fill="#648596" d="M -0.5,-0.5 C 170.167,-0.5 340.833,-0.5 511.5,-0.5C 511.5,170.167 511.5,340.833 511.5,511.5C 477.167,511.5 442.833,511.5 408.5,511.5C 410.3,509.95 412.467,508.95 415,508.5C 419.791,508.546 424.625,508.712 429.5,509C 431.321,506.544 431.988,503.711 431.5,500.5C 432.93,500.421 434.264,500.754 435.5,501.5C 439.869,500.453 444.036,499.119 448,497.5C 448.5,498 449,498.5 449.5,499C 454.418,499.195 459.251,499.695 464,500.5C 465.682,499.135 465.849,497.635 464.5,496C 466.5,495.333 468.5,495.333 470.5,496C 468.839,499.15 469.839,500.65 473.5,500.5C 472.64,498.184 472.14,495.851 472,493.5C 476.744,496.796 479.411,495.462 480,489.5C 483.969,488.031 486.802,485.364 488.5,481.5C 488.291,480.914 487.957,480.414 487.5,480C 484.854,479.503 482.187,479.336 479.5,479.5C 479.5,474.167 479.5,468.833 479.5,463.5C 463.5,463.5 447.5,463.5 431.5,463.5C 431.5,460.833 431.5,458.167 431.5,455.5C 428.305,456.039 425.805,455.039 424,452.5C 423.5,440.171 423.333,427.838 423.5,415.5C 422.325,415.719 421.325,415.386 420.5,414.5C 422.5,409.833 424.5,405.167 426.5,400.5C 425.675,399.614 424.675,399.281 423.5,399.5C 423.768,393.618 423.434,387.785 422.5,382C 423.987,377.846 426.82,375.013 431,373.5C 431.5,360.838 431.667,348.171 431.5,335.5C 428.833,335.5 426.167,335.5 423.5,335.5C 423.666,328.492 423.5,321.492 423,314.5C 421.195,311.961 418.695,310.961 415.5,311.5C 415.5,303.5 415.5,295.5 415.5,287.5C 412.482,287.665 409.482,287.498 406.5,287C 407.471,281.928 407.805,276.762 407.5,271.5C 404.833,271.5 402.167,271.5 399.5,271.5C 399.662,269.473 399.495,267.473 399,265.5C 394.136,263.809 391.303,260.476 390.5,255.5C 393.5,255.5 396.5,255.5 399.5,255.5C 399.768,252.881 399.435,250.381 398.5,248C 400.5,247.667 402.5,247.333 404.5,247C 405.667,246.5 406.5,245.667 407,244.5C 407.667,235.833 407.667,227.167 407,218.5C 405.195,215.961 402.695,214.961 399.5,215.5C 399.334,210.821 399.501,206.155 400,201.5C 404.18,199.987 407.013,197.154 408.5,193C 408.095,192.055 407.428,191.388 406.5,191C 407.309,185.583 407.809,180.083 408,174.5C 410.381,175.435 412.881,175.768 415.5,175.5C 416.065,170.678 415.399,166.178 413.5,162C 415.43,156.126 416.097,149.96 415.5,143.5C 407.5,143.5 399.5,143.5 391.5,143.5C 391.666,150.508 391.5,157.508 391,164.5C 388.862,166.449 386.529,168.116 384,169.5C 383.667,174.833 383.333,180.167 383,185.5C 380.213,184.195 377.713,182.528 375.5,180.5C 374.962,178.883 374.629,177.216 374.5,175.5C 373.5,175.5 372.5,175.5 371.5,175.5C 371.919,172.675 370.919,170.509 368.5,169C 369.993,167.632 371.493,167.465 373,168.5C 374.722,165.721 375.889,162.721 376.5,159.5C 373.813,159.664 371.146,159.497 368.5,159C 371.167,156.667 371.167,154.333 368.5,152C 373.303,150.852 372.97,149.686 367.5,148.5C 367.813,151.247 367.48,153.914 366.5,156.5C 366.167,156 365.833,155.5 365.5,155C 366.394,151.224 366.728,147.39 366.5,143.5C 368.167,143.5 369.833,143.5 371.5,143.5C 370.66,139.089 371.827,135.423 375,132.5C 376.009,130.975 376.509,129.308 376.5,127.5C 373.5,127.5 370.5,127.5 367.5,127.5C 367.48,125.857 368.147,124.524 369.5,123.5C 368.248,121.999 367.248,120.332 366.5,118.5C 364.232,119.544 361.899,119.711 359.5,119C 365.974,117.785 365.974,116.619 359.5,115.5C 359.5,114.5 359.5,113.5 359.5,112.5C 360.978,112.762 362.311,112.429 363.5,111.5C 361.184,110.068 358.684,109.068 356,108.5C 355.667,106.066 356.834,105.066 359.5,105.5C 359.281,106.675 359.614,107.675 360.5,108.5C 366.755,106.498 366.422,104.664 359.5,103C 356.806,99.4492 353.472,96.9492 349.5,95.5C 350.812,92.9755 351.312,90.3088 351,87.5C 350.428,90.707 348.595,92.3737 345.5,92.5C 344.965,88.2281 343.632,84.2281 341.5,80.5C 338.069,79.3866 335.902,80.72 335,84.5C 332.339,83.2575 331.839,81.4242 333.5,79C 332.899,77.395 331.899,76.0616 330.5,75C 332.872,73.5295 332.872,72.3628 330.5,71.5C 328.971,71.5288 327.804,72.1955 327,73.5C 324.667,69.5 322.333,69.5 320,73.5C 319.313,71.4453 318.146,69.7786 316.5,68.5C 315.833,69.5 315.167,70.5 314.5,71.5C 314.113,69.2692 313.947,66.9359 314,64.5C 312.484,67.0515 311.651,66.7181 311.5,63.5C 310.5,63.5 309.5,63.5 308.5,63.5C 308.778,65.3464 308.111,66.6798 306.5,67.5C 304.568,66.8545 303.401,65.5212 303,63.5C 302.692,64.3081 302.192,64.9747 301.5,65.5C 299.888,58.9152 298.055,58.9152 296,65.5C 292.97,63.0596 289.804,60.7262 286.5,58.5C 285.592,59.79 285.759,61.1233 287,62.5C 291.872,65.6369 291.372,67.6369 285.5,68.5C 285.421,67.0695 285.754,65.7362 286.5,64.5C 284.314,63.7792 282.147,63.1125 280,62.5C 278.29,63.9448 276.456,64.7782 274.5,65C 274.167,64.6667 273.833,64.3333 273.5,64C 279.047,61.4435 278.713,59.9435 272.5,59.5C 271.571,60.6888 271.238,62.0222 271.5,63.5C 269.508,63.3285 267.842,63.9951 266.5,65.5C 263.833,64.5 263.833,63.5 266.5,62.5C 264.286,61.2267 261.953,60.2267 259.5,59.5C 256.588,60.4289 253.921,61.7622 251.5,63.5C 249.971,63.4712 248.804,62.8045 248,61.5C 247.409,66.5932 244.576,68.9265 239.5,68.5C 239.5,69.5 239.5,70.5 239.5,71.5C 236.833,71.5 234.167,71.5 231.5,71.5C 231.443,66.3183 230.776,66.3183 229.5,71.5C 228.167,67.5 226.833,67.5 225.5,71.5C 224.224,66.3183 223.557,66.3183 223.5,71.5C 222.5,71.5 221.5,71.5 220.5,71.5C 219.833,64.8333 219.167,64.8333 218.5,71.5C 216.8,71.3739 215.3,70.7073 214,69.5C 211.132,70.7587 208.299,72.0921 205.5,73.5C 203.133,71.6048 200.466,71.1048 197.5,72C 198.416,72.3742 199.25,72.8742 200,73.5C 200.622,78.2627 200.455,79.2627 199.5,76.5C 196.572,76.1484 193.738,75.4817 191,74.5C 190.667,74.8333 190.333,75.1667 190,75.5C 190.361,77.9334 190.861,80.4334 191.5,83C 190.967,87.3567 189.133,88.1901 186,85.5C 185.228,85.6448 184.561,85.9781 184,86.5C 183.667,84.8333 183.333,83.1667 183,81.5C 179.96,84.82 176.46,85.1533 172.5,82.5C 173.325,81.6143 174.325,81.281 175.5,81.5C 175.5,79.8333 175.5,78.1667 175.5,76.5C 176.675,76.719 177.675,76.3857 178.5,75.5C 178,75.1667 177.5,74.8333 177,74.5C 173.895,75.3672 170.728,75.7006 167.5,75.5C 167.5,76.8333 167.5,78.1667 167.5,79.5C 168.873,79.3433 170.207,79.51 171.5,80C 171.167,80.3333 170.833,80.6667 170.5,81C 166.833,81.3333 163.167,81.6667 159.5,82C 170.167,82.6667 170.167,83.3333 159.5,84C 170.106,84.5115 170.106,85.3449 159.5,86.5C 158.833,87.8333 157.833,88.8333 156.5,89.5C 152.91,88.1458 151.244,89.4791 151.5,93.5C 147.743,93.2864 147.076,94.2864 149.5,96.5C 149.291,97.086 148.957,97.586 148.5,98C 145.832,98.567 143.166,99.067 140.5,99.5C 140.5,98.5 140.5,97.5 140.5,96.5C 139.034,95.8394 135.534,96.1727 130,97.5C 126.713,94.3964 124.88,95.0631 124.5,99.5C 125.675,99.281 126.675,99.6143 127.5,100.5C 127,100.833 126.5,101.167 126,101.5C 123.953,100.391 121.787,99.7239 119.5,99.5C 119.281,98.325 119.614,97.325 120.5,96.5C 127.532,94.5629 127.866,92.5629 121.5,90.5C 117.809,91.0214 114.143,91.688 110.5,92.5C 109.167,94.5 109.167,96.5 110.5,98.5C 108.182,99.8344 106.515,99.1677 105.5,96.5C 106.806,93.2835 108.472,90.2835 110.5,87.5C 111.474,85.2573 111.808,82.924 111.5,80.5C 108.833,80.5 106.167,80.5 103.5,80.5C 102.415,89.5569 102.415,90.8902 103.5,84.5C 108.22,84.2254 108.554,85.0588 104.5,87C 108.251,87.7614 108.417,88.9281 105,90.5C 104.677,93.1415 103.677,95.4748 102,97.5C 101.155,100.13 101.655,102.464 103.5,104.5C 103.167,104.833 102.833,105.167 102.5,105.5C 101.167,102.833 99.8333,100.167 98.5,97.5C 97.1667,98.5 95.8333,99.5 94.5,100.5C 92.4902,98.8287 90.1569,98.162 87.5,98.5C 87.6738,103.021 87.0071,103.355 85.5,99.5C 87.339,97.4729 87.839,95.1396 87,92.5C 86.3892,94.7501 85.0559,96.4168 83,97.5C 82.5045,99.4727 82.3379,101.473 82.5,103.5C 86.8333,103.5 91.1667,103.5 95.5,103.5C 95.5,106.167 95.5,108.833 95.5,111.5C 100.544,111.173 105.544,111.506 110.5,112.5C 110.333,112.833 110.167,113.167 110,113.5C 105.345,118.321 100.512,122.988 95.5,127.5C 93.0658,124.777 90.3991,122.277 87.5,120C 81.7097,120.972 79.043,124.472 79.5,130.5C 76.7531,130.813 74.0865,130.48 71.5,129.5C 73.0453,128.548 74.712,128.215 76.5,128.5C 76.33,127.178 76.6634,126.011 77.5,125C 72.3351,123.521 72.1684,121.688 77,119.5C 78,120.167 79,120.833 80,121.5C 80.9177,119.774 82.4177,118.107 84.5,116.5C 82.9974,115.948 81.3307,115.948 79.5,116.5C 80.1181,110.885 79.7848,105.219 78.5,99.5C 75.9124,98.8064 73.579,97.6398 71.5,96C 74.0635,95.237 74.0635,94.737 71.5,94.5C 66.8373,94.6053 66.004,95.9386 69,98.5C 69.438,102.534 67.938,103.367 64.5,101C 63.0176,97.8174 62.6843,94.6508 63.5,91.5C 60.4884,92.255 57.8217,93.5884 55.5,95.5C 56.1667,89.5 53.5,86.8333 47.5,87.5C 47.5,90.1667 47.5,92.8333 47.5,95.5C 43.1667,95.5 38.8333,95.5 34.5,95.5C 35.2745,100.797 35.6079,106.13 35.5,111.5C 34.1667,111.5 32.8333,111.5 31.5,111.5C 31.8583,114.898 31.1916,118.065 29.5,121C 31.1499,124.923 31.9833,129.089 32,133.5C 34.7832,134.641 36.9499,136.475 38.5,139C 36.9095,140.046 35.4095,141.213 34,142.5C 33.7822,145.426 33.2822,148.26 32.5,151C 33.448,151.483 34.448,151.649 35.5,151.5C 35.5,154.167 35.5,156.833 35.5,159.5C 34.1667,159.5 32.8333,159.5 31.5,159.5C 32.0947,170.815 31.4281,181.981 29.5,193C 29.6135,194.28 30.2801,195.113 31.5,195.5C 32.4287,194.311 32.762,192.978 32.5,191.5C 34.8211,191.229 36.8211,191.896 38.5,193.5C 39.6639,199.807 39.8306,206.141 39,212.5C 38.3333,213.833 37.3333,214.833 36,215.5C 34.6403,213.496 32.807,212.663 30.5,213C 26.0188,215.134 23.3522,218.634 22.5,223.5C 25.5,223.5 28.5,223.5 31.5,223.5C 31.8306,230.863 31.4973,238.197 30.5,245.5C 27.8694,247.005 28.2027,247.671 31.5,247.5C 31.665,250.85 31.4983,254.183 31,257.5C 27.2105,253.232 26.2105,253.565 28,258.5C 29,259.167 30,259.833 31,260.5C 31.211,269.566 31.3777,278.566 31.5,287.5C 31.5,292.833 31.5,298.167 31.5,303.5C 28.8333,303.5 26.1667,303.5 23.5,303.5C 23.4878,324.926 22.1544,346.259 19.5,367.5C 18.1667,367.5 16.8333,367.5 15.5,367.5C 15.5,362.167 15.5,356.833 15.5,351.5C 14.5,351.5 13.5,351.5 12.5,351.5C 12.1725,292.304 12.5058,233.137 13.5,174C 12.1667,169.667 10.8333,165.333 9.5,161C 10.4838,139.2 10.8172,117.367 10.5,95.5C 8.16667,94.1667 5.83333,94.1667 3.5,95.5C 3.5,84.8333 3.5,74.1667 3.5,63.5C 1.80072,63.4729 0.46739,62.8062 -0.5,61.5C -0.5,40.8333 -0.5,20.1667 -0.5,-0.5 Z"/></g>
<g><path style="opacity:1" fill="#628494" d="M 375.5,180.5 C 374.746,184.467 372.913,185.133 370,182.5C 367.827,178.49 366.994,174.157 367.5,169.5C 364.833,169.5 362.167,169.5 359.5,169.5C 359.5,166.167 359.5,162.833 359.5,159.5C 357.019,159.323 355.186,160.323 354,162.5C 353.051,158.622 351.885,158.622 350.5,162.5C 349.614,161.675 349.281,160.675 349.5,159.5C 350.559,157.93 350.059,156.597 348,155.5C 347.833,153.5 347.667,151.5 347.5,149.5C 347.59,147.036 348.257,144.87 349.5,143C 348.437,141.812 347.103,141.312 345.5,141.5C 345.261,139.533 345.594,137.699 346.5,136C 344.667,134.833 342.833,133.667 341,132.5C 340.28,130.888 340.446,129.388 341.5,128C 339.104,126.065 336.604,124.231 334,122.5C 334.167,120 334.333,117.5 334.5,115C 333.491,112.828 331.824,111.662 329.5,111.5C 329.769,113.429 329.269,115.095 328,116.5C 327.503,114.19 327.337,111.857 327.5,109.5C 328.5,109.5 329.5,109.5 330.5,109.5C 329.487,105.287 328.153,104.954 326.5,108.5C 324.7,106.303 324.2,103.97 325,101.5C 323.542,100.253 322.042,100.253 320.5,101.5C 319.078,98.5737 317.078,96.0737 314.5,94C 312.865,93.4604 311.532,93.9604 310.5,95.5C 309.088,94.1936 307.421,93.3603 305.5,93C 304.874,92.2496 304.374,91.4162 304,90.5C 301.333,91.1667 298.667,91.8333 296,92.5C 295.506,90.8659 295.34,89.1992 295.5,87.5C 292.833,86.1667 290.167,86.1667 287.5,87.5C 287.657,88.8734 287.49,90.2068 287,91.5C 284.619,90.565 282.119,90.2317 279.5,90.5C 280.107,86.0972 278.44,84.7639 274.5,86.5C 273.813,88.2744 272.98,89.9411 272,91.5C 269.867,89.8624 267.367,89.029 264.5,89C 261.964,85.5019 259.131,82.3353 256,79.5C 255.667,81.5 255.333,83.5 255,85.5C 250.136,87.1907 247.303,90.524 246.5,95.5C 237.5,95.5 228.5,95.5 219.5,95.5C 219.5,100.833 219.5,106.167 219.5,111.5C 216.833,111.5 214.167,111.5 211.5,111.5C 211.5,116.833 211.5,122.167 211.5,127.5C 207.167,127.5 202.833,127.5 198.5,127.5C 198.649,126.448 198.483,125.448 198,124.5C 195.563,127.833 192.397,130.999 188.5,134C 187.328,134.353 186.162,134.187 185,133.5C 181.928,135.217 178.761,136.55 175.5,137.5C 175.5,138.833 175.5,140.167 175.5,141.5C 172.699,142.766 169.699,143.599 166.5,144C 165.397,145.68 165.73,147.18 167.5,148.5C 165.109,152.579 163.275,152.246 162,147.5C 160.383,148.536 160.216,149.703 161.5,151C 159.949,153.045 157.949,154.545 155.5,155.5C 154.571,156.689 154.238,158.022 154.5,159.5C 152.833,159.5 151.167,159.5 149.5,159.5C 149.657,160.873 149.49,162.207 149,163.5C 147.013,164.218 145.179,165.218 143.5,166.5C 145.915,168.009 146.081,169.676 144,171.5C 142.743,169.254 140.91,167.921 138.5,167.5C 137.908,170.127 137.575,172.794 137.5,175.5C 135.5,175.5 133.5,175.5 131.5,175.5C 131.657,176.873 131.49,178.207 131,179.5C 128.459,182.088 126.459,185.088 125,188.5C 123.736,190.607 121.903,191.607 119.5,191.5C 119.5,192.833 119.5,194.167 119.5,195.5C 117.073,195.523 114.74,196.023 112.5,197C 114.002,197.583 115.335,198.416 116.5,199.5C 116.048,203.051 115.048,206.385 113.5,209.5C 112.038,210.471 110.705,210.138 109.5,208.5C 110.154,206.885 110.654,205.218 111,203.5C 111.428,208.498 112.261,208.665 113.5,204C 112.95,202.155 111.95,200.655 110.5,199.5C 109.253,202.06 108.253,204.727 107.5,207.5C 104.603,196.937 103.603,196.937 104.5,207.5C 102.801,207.34 101.134,207.506 99.5,208C 102.441,209.312 105.274,210.812 108,212.5C 108.684,214.359 109.684,216.026 111,217.5C 111.722,219.661 111.055,221.328 109,222.5C 107.477,220.431 106.643,218.097 106.5,215.5C 104.167,215.5 101.833,215.5 99.5,215.5C 99.9294,218.363 100.929,221.029 102.5,223.5C 105.479,222.644 106.812,223.977 106.5,227.5C 105.178,227.67 104.011,227.337 103,226.5C 102.667,227.167 102.333,227.833 102,228.5C 102.696,231.746 103.862,234.913 105.5,238C 104.331,241.618 102.331,244.618 99.5,247C 102.596,249.029 104.262,251.862 104.5,255.5C 103.5,255.5 102.5,255.5 101.5,255.5C 101.337,257.857 101.503,260.19 102,262.5C 103.487,261.259 104.32,261.759 104.5,264C 102.872,266.961 100.539,269.295 97.5,271C 98.1667,271.667 98.8333,272.333 99.5,273C 99.4306,279.722 99.4306,286.722 99.5,294C 97.9015,299.992 96.7348,299.825 96,293.5C 95.8996,296.903 95.0663,300.07 93.5,303C 94.7932,303.49 96.1266,303.657 97.5,303.5C 100.413,335.38 100.08,367.38 96.5,399.5C 96.8788,426.303 96.8788,452.97 96.5,479.5C 92.1667,479.5 87.8333,479.5 83.5,479.5C 83.5,484.833 83.5,490.167 83.5,495.5C 87.6348,494.89 91.3014,495.723 94.5,498C 92.12,499.757 89.62,499.923 87,498.5C 85.2845,501.397 82.7845,502.731 79.5,502.5C 77.3647,500.631 74.6981,499.964 71.5,500.5C 72.4209,482.8 73.7543,465.133 75.5,447.5C 76.8333,447.5 78.1667,447.5 79.5,447.5C 79.3379,445.473 79.5045,443.473 80,441.5C 84.7631,439.738 87.7631,436.404 89,431.5C 89.8304,418.118 89.3304,404.785 87.5,391.5C 89.1655,372.85 90.4989,354.184 91.5,335.5C 92.8333,335.5 94.1667,335.5 95.5,335.5C 95.665,332.15 95.4983,328.817 95,325.5C 88.5301,322.741 88.3634,320.408 94.5,318.5C 84.846,308.68 75.0127,299.013 65,289.5C 63.6842,286.312 63.1842,282.978 63.5,279.5C 58.1667,279.5 52.8333,279.5 47.5,279.5C 47.5,282.167 47.5,284.833 47.5,287.5C 43.7566,287.459 43.5899,288.126 47,289.5C 47.4992,294.155 47.6658,298.821 47.5,303.5C 48.8333,303.5 50.1667,303.5 51.5,303.5C 51.5,308.833 51.5,314.167 51.5,319.5C 50.1667,319.5 48.8333,319.5 47.5,319.5C 48.6195,314.942 46.9529,312.109 42.5,311C 37.8846,307.87 37.5513,304.537 41.5,301C 40.5279,298.218 39.6946,295.385 39,292.5C 37.1217,294.698 34.9551,294.864 32.5,293C 33.376,291.414 34.376,289.914 35.5,288.5C 34.3112,287.571 32.9778,287.238 31.5,287.5C 31.3777,278.566 31.211,269.566 31,260.5C 30,259.833 29,259.167 28,258.5C 26.2105,253.565 27.2105,253.232 31,257.5C 31.4983,254.183 31.665,250.85 31.5,247.5C 28.2027,247.671 27.8694,247.005 30.5,245.5C 31.4973,238.197 31.8306,230.863 31.5,223.5C 28.5,223.5 25.5,223.5 22.5,223.5C 23.3522,218.634 26.0188,215.134 30.5,213C 32.807,212.663 34.6403,213.496 36,215.5C 37.3333,214.833 38.3333,213.833 39,212.5C 39.8306,206.141 39.6639,199.807 38.5,193.5C 36.8211,191.896 34.8211,191.229 32.5,191.5C 32.762,192.978 32.4287,194.311 31.5,195.5C 30.2801,195.113 29.6135,194.28 29.5,193C 31.4281,181.981 32.0947,170.815 31.5,159.5C 32.8333,159.5 34.1667,159.5 35.5,159.5C 35.5,156.833 35.5,154.167 35.5,151.5C 34.448,151.649 33.448,151.483 32.5,151C 33.2822,148.26 33.7822,145.426 34,142.5C 35.4095,141.213 36.9095,140.046 38.5,139C 36.9499,136.475 34.7832,134.641 32,133.5C 31.9833,129.089 31.1499,124.923 29.5,121C 31.1916,118.065 31.8583,114.898 31.5,111.5C 32.8333,111.5 34.1667,111.5 35.5,111.5C 35.6079,106.13 35.2745,100.797 34.5,95.5C 38.8333,95.5 43.1667,95.5 47.5,95.5C 47.5,92.8333 47.5,90.1667 47.5,87.5C 53.5,86.8333 56.1667,89.5 55.5,95.5C 57.8217,93.5884 60.4884,92.255 63.5,91.5C 62.6843,94.6508 63.0176,97.8174 64.5,101C 67.938,103.367 69.438,102.534 69,98.5C 66.004,95.9386 66.8373,94.6053 71.5,94.5C 74.0635,94.737 74.0635,95.237 71.5,96C 73.579,97.6398 75.9124,98.8064 78.5,99.5C 79.7848,105.219 80.1181,110.885 79.5,116.5C 81.3307,115.948 82.9974,115.948 84.5,116.5C 82.4177,118.107 80.9177,119.774 80,121.5C 79,120.833 78,120.167 77,119.5C 72.1684,121.688 72.3351,123.521 77.5,125C 76.6634,126.011 76.33,127.178 76.5,128.5C 74.712,128.215 73.0453,128.548 71.5,129.5C 74.0865,130.48 76.7531,130.813 79.5,130.5C 79.043,124.472 81.7097,120.972 87.5,120C 90.3991,122.277 93.0658,124.777 95.5,127.5C 100.512,122.988 105.345,118.321 110,113.5C 110.167,113.167 110.333,112.833 110.5,112.5C 105.544,111.506 100.544,111.173 95.5,111.5C 95.5,108.833 95.5,106.167 95.5,103.5C 91.1667,103.5 86.8333,103.5 82.5,103.5C 82.3379,101.473 82.5045,99.4727 83,97.5C 85.0559,96.4168 86.3892,94.7501 87,92.5C 87.839,95.1396 87.339,97.4729 85.5,99.5C 87.0071,103.355 87.6738,103.021 87.5,98.5C 90.1569,98.162 92.4902,98.8287 94.5,100.5C 95.8333,99.5 97.1667,98.5 98.5,97.5C 99.8333,100.167 101.167,102.833 102.5,105.5C 102.833,105.167 103.167,104.833 103.5,104.5C 101.655,102.464 101.155,100.13 102,97.5C 103.677,95.4748 104.677,93.1415 105,90.5C 108.417,88.9281 108.251,87.7614 104.5,87C 108.554,85.0588 108.22,84.2254 103.5,84.5C 102.415,90.8902 102.415,89.5569 103.5,80.5C 106.167,80.5 108.833,80.5 111.5,80.5C 111.808,82.924 111.474,85.2573 110.5,87.5C 108.472,90.2835 106.806,93.2835 105.5,96.5C 106.515,99.1677 108.182,99.8344 110.5,98.5C 109.167,96.5 109.167,94.5 110.5,92.5C 114.143,91.688 117.809,91.0214 121.5,90.5C 127.866,92.5629 127.532,94.5629 120.5,96.5C 119.614,97.325 119.281,98.325 119.5,99.5C 121.787,99.7239 123.953,100.391 126,101.5C 126.5,101.167 127,100.833 127.5,100.5C 126.675,99.6143 125.675,99.281 124.5,99.5C 124.88,95.0631 126.713,94.3964 130,97.5C 135.534,96.1727 139.034,95.8394 140.5,96.5C 140.5,97.5 140.5,98.5 140.5,99.5C 143.166,99.067 145.832,98.567 148.5,98C 148.957,97.586 149.291,97.086 149.5,96.5C 147.076,94.2864 147.743,93.2864 151.5,93.5C 151.244,89.4791 152.91,88.1458 156.5,89.5C 157.833,88.8333 158.833,87.8333 159.5,86.5C 170.106,85.3449 170.106,84.5115 159.5,84C 170.167,83.3333 170.167,82.6667 159.5,82C 163.167,81.6667 166.833,81.3333 170.5,81C 170.833,80.6667 171.167,80.3333 171.5,80C 170.207,79.51 168.873,79.3433 167.5,79.5C 167.5,78.1667 167.5,76.8333 167.5,75.5C 170.728,75.7006 173.895,75.3672 177,74.5C 177.5,74.8333 178,75.1667 178.5,75.5C 177.675,76.3857 176.675,76.719 175.5,76.5C 175.5,78.1667 175.5,79.8333 175.5,81.5C 174.325,81.281 173.325,81.6143 172.5,82.5C 176.46,85.1533 179.96,84.82 183,81.5C 183.333,83.1667 183.667,84.8333 184,86.5C 184.561,85.9781 185.228,85.6448 186,85.5C 189.133,88.1901 190.967,87.3567 191.5,83C 190.861,80.4334 190.361,77.9334 190,75.5C 190.333,75.1667 190.667,74.8333 191,74.5C 193.738,75.4817 196.572,76.1484 199.5,76.5C 200.455,79.2627 200.622,78.2627 200,73.5C 199.25,72.8742 198.416,72.3742 197.5,72C 200.466,71.1048 203.133,71.6048 205.5,73.5C 208.299,72.0921 211.132,70.7587 214,69.5C 215.3,70.7073 216.8,71.3739 218.5,71.5C 219.167,64.8333 219.833,64.8333 220.5,71.5C 221.5,71.5 222.5,71.5 223.5,71.5C 223.557,66.3183 224.224,66.3183 225.5,71.5C 226.833,67.5 228.167,67.5 229.5,71.5C 230.776,66.3183 231.443,66.3183 231.5,71.5C 234.167,71.5 236.833,71.5 239.5,71.5C 239.5,70.5 239.5,69.5 239.5,68.5C 244.576,68.9265 247.409,66.5932 248,61.5C 248.804,62.8045 249.971,63.4712 251.5,63.5C 253.921,61.7622 256.588,60.4289 259.5,59.5C 261.953,60.2267 264.286,61.2267 266.5,62.5C 263.833,63.5 263.833,64.5 266.5,65.5C 267.842,63.9951 269.508,63.3285 271.5,63.5C 271.238,62.0222 271.571,60.6888 272.5,59.5C 278.713,59.9435 279.047,61.4435 273.5,64C 273.833,64.3333 274.167,64.6667 274.5,65C 276.456,64.7782 278.29,63.9448 280,62.5C 282.147,63.1125 284.314,63.7792 286.5,64.5C 285.754,65.7362 285.421,67.0695 285.5,68.5C 291.372,67.6369 291.872,65.6369 287,62.5C 285.759,61.1233 285.592,59.79 286.5,58.5C 289.804,60.7262 292.97,63.0596 296,65.5C 298.055,58.9152 299.888,58.9152 301.5,65.5C 302.192,64.9747 302.692,64.3081 303,63.5C 303.401,65.5212 304.568,66.8545 306.5,67.5C 308.111,66.6798 308.778,65.3464 308.5,63.5C 309.5,63.5 310.5,63.5 311.5,63.5C 311.651,66.7181 312.484,67.0515 314,64.5C 313.947,66.9359 314.113,69.2692 314.5,71.5C 315.167,70.5 315.833,69.5 316.5,68.5C 318.146,69.7786 319.313,71.4453 320,73.5C 322.333,69.5 324.667,69.5 327,73.5C 327.804,72.1955 328.971,71.5288 330.5,71.5C 332.872,72.3628 332.872,73.5295 330.5,75C 331.899,76.0616 332.899,77.395 333.5,79C 331.839,81.4242 332.339,83.2575 335,84.5C 335.902,80.72 338.069,79.3866 341.5,80.5C 343.632,84.2281 344.965,88.2281 345.5,92.5C 348.595,92.3737 350.428,90.707 351,87.5C 351.312,90.3088 350.812,92.9755 349.5,95.5C 353.472,96.9492 356.806,99.4492 359.5,103C 366.422,104.664 366.755,106.498 360.5,108.5C 359.614,107.675 359.281,106.675 359.5,105.5C 356.834,105.066 355.667,106.066 356,108.5C 358.684,109.068 361.184,110.068 363.5,111.5C 362.311,112.429 360.978,112.762 359.5,112.5C 359.5,113.5 359.5,114.5 359.5,115.5C 365.974,116.619 365.974,117.785 359.5,119C 361.899,119.711 364.232,119.544 366.5,118.5C 367.248,120.332 368.248,121.999 369.5,123.5C 368.147,124.524 367.48,125.857 367.5,127.5C 370.5,127.5 373.5,127.5 376.5,127.5C 376.509,129.308 376.009,130.975 375,132.5C 371.827,135.423 370.66,139.089 371.5,143.5C 369.833,143.5 368.167,143.5 366.5,143.5C 366.728,147.39 366.394,151.224 365.5,155C 365.833,155.5 366.167,156 366.5,156.5C 367.48,153.914 367.813,151.247 367.5,148.5C 372.97,149.686 373.303,150.852 368.5,152C 371.167,154.333 371.167,156.667 368.5,159C 371.146,159.497 373.813,159.664 376.5,159.5C 375.889,162.721 374.722,165.721 373,168.5C 371.493,167.465 369.993,167.632 368.5,169C 370.919,170.509 371.919,172.675 371.5,175.5C 372.5,175.5 373.5,175.5 374.5,175.5C 374.629,177.216 374.962,178.883 375.5,180.5 Z"/></g>
<g><path style="opacity:1" fill="#618497" d="M -0.5,61.5 C 0.46739,62.8062 1.80072,63.4729 3.5,63.5C 3.5,74.1667 3.5,84.8333 3.5,95.5C 5.83333,94.1667 8.16667,94.1667 10.5,95.5C 10.8172,117.367 10.4838,139.2 9.5,161C 10.8333,165.333 12.1667,169.667 13.5,174C 12.5058,233.137 12.1725,292.304 12.5,351.5C 13.5,351.5 14.5,351.5 15.5,351.5C 15.5,356.833 15.5,362.167 15.5,367.5C 16.8333,367.5 18.1667,367.5 19.5,367.5C 22.1544,346.259 23.4878,324.926 23.5,303.5C 26.1667,303.5 28.8333,303.5 31.5,303.5C 31.5,298.167 31.5,292.833 31.5,287.5C 32.9778,287.238 34.3112,287.571 35.5,288.5C 34.376,289.914 33.376,291.414 32.5,293C 34.9551,294.864 37.1217,294.698 39,292.5C 39.6946,295.385 40.5279,298.218 41.5,301C 37.5513,304.537 37.8846,307.87 42.5,311C 46.9529,312.109 48.6195,314.942 47.5,319.5C 48.8333,319.5 50.1667,319.5 51.5,319.5C 51.5,314.167 51.5,308.833 51.5,303.5C 50.1667,303.5 48.8333,303.5 47.5,303.5C 47.6658,298.821 47.4992,294.155 47,289.5C 43.5899,288.126 43.7566,287.459 47.5,287.5C 47.5,284.833 47.5,282.167 47.5,279.5C 52.8333,279.5 58.1667,279.5 63.5,279.5C 63.1842,282.978 63.6842,286.312 65,289.5C 75.0127,299.013 84.846,308.68 94.5,318.5C 88.3634,320.408 88.5301,322.741 95,325.5C 95.4983,328.817 95.665,332.15 95.5,335.5C 94.1667,335.5 92.8333,335.5 91.5,335.5C 90.4989,354.184 89.1655,372.85 87.5,391.5C 89.3304,404.785 89.8304,418.118 89,431.5C 87.7631,436.404 84.7631,439.738 80,441.5C 79.5045,443.473 79.3379,445.473 79.5,447.5C 78.1667,447.5 76.8333,447.5 75.5,447.5C 73.7543,465.133 72.4209,482.8 71.5,500.5C 74.6981,499.964 77.3647,500.631 79.5,502.5C 79.5,505.5 79.5,508.5 79.5,511.5C 68.8333,511.5 58.1667,511.5 47.5,511.5C 47.5,510.167 47.5,508.833 47.5,507.5C 48.552,507.649 49.552,507.483 50.5,507C 50.727,505.865 51.0604,504.698 51.5,503.5C 57.9556,506.547 64.6223,507.213 71.5,505.5C 71.5,504.167 71.5,502.833 71.5,501.5C 68.8333,501.5 66.1667,501.5 63.5,501.5C 63.5,499.5 63.5,497.5 63.5,495.5C 61.1667,495.5 58.8333,495.5 56.5,495.5C 55.697,490.524 52.8636,487.191 48,485.5C 47.5045,483.527 47.3379,481.527 47.5,479.5C 46.1667,479.5 44.8333,479.5 43.5,479.5C 43.5,468.833 43.5,458.167 43.5,447.5C 44.8333,447.5 46.1667,447.5 47.5,447.5C 47.5,444.833 47.5,442.167 47.5,439.5C 43.5,439.5 39.5,439.5 35.5,439.5C 35.7852,441.288 35.4519,442.955 34.5,444.5C 32.1238,440.549 30.9571,436.216 31,431.5C 28.8762,434.325 26.3762,436.825 23.5,439C 24.938,439.219 26.2713,439.719 27.5,440.5C 27.3333,440.833 27.1667,441.167 27,441.5C 24.1413,442.173 21.308,443.007 18.5,444C 19.5,445 20.5,446 21.5,447C 19.5819,448.77 19.0819,450.937 20,453.5C 20.8893,452.112 21.3893,452.278 21.5,454C 19.3623,457.195 19.029,460.529 20.5,464C 18.8925,463.981 17.2259,463.815 15.5,463.5C 14.9579,467.544 15.7912,471.211 18,474.5C 19.1931,473.022 19.6931,471.688 19.5,470.5C 23.3977,473.127 23.0643,475.46 18.5,477.5C 16.2864,475.076 15.2864,475.743 15.5,479.5C 16.8333,479.5 18.1667,479.5 19.5,479.5C 19.5,484.833 19.5,490.167 19.5,495.5C 23.226,495.177 26.8927,495.511 30.5,496.5C 25.587,501.374 20.9203,506.374 16.5,511.5C 10.8333,511.5 5.16667,511.5 -0.5,511.5C -0.5,361.5 -0.5,211.5 -0.5,61.5 Z"/></g>
<g><path style="opacity:1" fill="#618294" d="M 349.5,159.5 C 347.844,158.854 346.177,158.187 344.5,157.5C 343.263,157.556 342.263,158.056 341.5,159C 343.829,160.696 346.163,162.196 348.5,163.5C 347.206,167.061 348.04,167.394 351,164.5C 352.091,169.052 354.924,171.052 359.5,170.5C 359.073,177.328 358.406,184.328 357.5,191.5C 351.437,178.269 341.771,168.436 328.5,162C 322.586,159.198 316.586,156.698 310.5,154.5C 309.737,153.732 308.737,153.232 307.5,153C 310.097,152.719 312.43,152.552 314.5,152.5C 310.878,151.675 307.211,151.175 303.5,151C 271.331,150.169 239.331,150.336 207.5,151.5C 198.917,152.083 190.917,154.583 183.5,159C 177.698,163.8 172.198,168.967 167,174.5C 157.491,192.195 146.491,208.862 134,224.5C 129.083,234.006 123.417,243.006 117,251.5C 112.906,260.566 110.072,269.9 108.5,279.5C 107.869,281.903 106.869,284.236 105.5,286.5C 105.384,352.782 105.551,419.115 106,485.5C 106.122,493.227 106.622,499.56 107.5,504.5C 108.468,506.607 108.802,508.941 108.5,511.5C 98.8333,511.5 89.1667,511.5 79.5,511.5C 79.5,508.5 79.5,505.5 79.5,502.5C 82.7845,502.731 85.2845,501.397 87,498.5C 89.62,499.923 92.12,499.757 94.5,498C 91.3014,495.723 87.6348,494.89 83.5,495.5C 83.5,490.167 83.5,484.833 83.5,479.5C 87.8333,479.5 92.1667,479.5 96.5,479.5C 96.8788,452.97 96.8788,426.303 96.5,399.5C 100.08,367.38 100.413,335.38 97.5,303.5C 96.1266,303.657 94.7932,303.49 93.5,303C 95.0663,300.07 95.8996,296.903 96,293.5C 96.7348,299.825 97.9015,299.992 99.5,294C 99.4306,286.722 99.4306,279.722 99.5,273C 98.8333,272.333 98.1667,271.667 97.5,271C 100.539,269.295 102.872,266.961 104.5,264C 104.32,261.759 103.487,261.259 102,262.5C 101.503,260.19 101.337,257.857 101.5,255.5C 102.5,255.5 103.5,255.5 104.5,255.5C 104.262,251.862 102.596,249.029 99.5,247C 102.331,244.618 104.331,241.618 105.5,238C 103.862,234.913 102.696,231.746 102,228.5C 102.333,227.833 102.667,227.167 103,226.5C 104.011,227.337 105.178,227.67 106.5,227.5C 106.812,223.977 105.479,222.644 102.5,223.5C 100.929,221.029 99.9294,218.363 99.5,215.5C 101.833,215.5 104.167,215.5 106.5,215.5C 106.643,218.097 107.477,220.431 109,222.5C 111.055,221.328 111.722,219.661 111,217.5C 109.684,216.026 108.684,214.359 108,212.5C 105.274,210.812 102.441,209.312 99.5,208C 101.134,207.506 102.801,207.34 104.5,207.5C 103.603,196.937 104.603,196.937 107.5,207.5C 108.253,204.727 109.253,202.06 110.5,199.5C 111.95,200.655 112.95,202.155 113.5,204C 112.261,208.665 111.428,208.498 111,203.5C 110.654,205.218 110.154,206.885 109.5,208.5C 110.705,210.138 112.038,210.471 113.5,209.5C 115.048,206.385 116.048,203.051 116.5,199.5C 115.335,198.416 114.002,197.583 112.5,197C 114.74,196.023 117.073,195.523 119.5,195.5C 119.5,194.167 119.5,192.833 119.5,191.5C 121.903,191.607 123.736,190.607 125,188.5C 126.459,185.088 128.459,182.088 131,179.5C 131.49,178.207 131.657,176.873 131.5,175.5C 133.5,175.5 135.5,175.5 137.5,175.5C 137.575,172.794 137.908,170.127 138.5,167.5C 140.91,167.921 142.743,169.254 144,171.5C 146.081,169.676 145.915,168.009 143.5,166.5C 145.179,165.218 147.013,164.218 149,163.5C 149.49,162.207 149.657,160.873 149.5,159.5C 151.167,159.5 152.833,159.5 154.5,159.5C 154.238,158.022 154.571,156.689 155.5,155.5C 157.949,154.545 159.949,153.045 161.5,151C 160.216,149.703 160.383,148.536 162,147.5C 163.275,152.246 165.109,152.579 167.5,148.5C 165.73,147.18 165.397,145.68 166.5,144C 169.699,143.599 172.699,142.766 175.5,141.5C 175.5,140.167 175.5,138.833 175.5,137.5C 178.761,136.55 181.928,135.217 185,133.5C 186.162,134.187 187.328,134.353 188.5,134C 192.397,130.999 195.563,127.833 198,124.5C 198.483,125.448 198.649,126.448 198.5,127.5C 202.833,127.5 207.167,127.5 211.5,127.5C 211.5,122.167 211.5,116.833 211.5,111.5C 214.167,111.5 216.833,111.5 219.5,111.5C 219.5,106.167 219.5,100.833 219.5,95.5C 228.5,95.5 237.5,95.5 246.5,95.5C 247.303,90.524 250.136,87.1907 255,85.5C 255.333,83.5 255.667,81.5 256,79.5C 259.131,82.3353 261.964,85.5019 264.5,89C 267.367,89.029 269.867,89.8624 272,91.5C 272.98,89.9411 273.813,88.2744 274.5,86.5C 278.44,84.7639 280.107,86.0972 279.5,90.5C 282.119,90.2317 284.619,90.565 287,91.5C 287.49,90.2068 287.657,88.8734 287.5,87.5C 290.167,86.1667 292.833,86.1667 295.5,87.5C 295.34,89.1992 295.506,90.8659 296,92.5C 298.667,91.8333 301.333,91.1667 304,90.5C 304.374,91.4162 304.874,92.2496 305.5,93C 307.421,93.3603 309.088,94.1936 310.5,95.5C 311.532,93.9604 312.865,93.4604 314.5,94C 317.078,96.0737 319.078,98.5737 320.5,101.5C 322.042,100.253 323.542,100.253 325,101.5C 324.2,103.97 324.7,106.303 326.5,108.5C 328.153,104.954 329.487,105.287 330.5,109.5C 329.5,109.5 328.5,109.5 327.5,109.5C 327.337,111.857 327.503,114.19 328,116.5C 329.269,115.095 329.769,113.429 329.5,111.5C 331.824,111.662 333.491,112.828 334.5,115C 334.333,117.5 334.167,120 334,122.5C 336.604,124.231 339.104,126.065 341.5,128C 340.446,129.388 340.28,130.888 341,132.5C 342.833,133.667 344.667,134.833 346.5,136C 345.594,137.699 345.261,139.533 345.5,141.5C 347.103,141.312 348.437,141.812 349.5,143C 348.257,144.87 347.59,147.036 347.5,149.5C 347.667,151.5 347.833,153.5 348,155.5C 350.059,156.597 350.559,157.93 349.5,159.5 Z"/></g>
<g><path style="opacity:1" fill="#628597" d="M 408.5,511.5 C 397.5,511.5 386.5,511.5 375.5,511.5C 375.657,510.127 375.49,508.793 375,507.5C 369.858,504.881 368.358,500.881 370.5,495.5C 369.5,495.5 368.5,495.5 367.5,495.5C 367.203,492.276 367.87,489.276 369.5,486.5C 369.557,481.189 369.224,475.856 368.5,470.5C 370.846,468.763 371.846,466.43 371.5,463.5C 370.017,458.975 369.351,454.309 369.5,449.5C 370.822,449.33 371.989,449.663 373,450.5C 373.483,449.552 373.649,448.552 373.5,447.5C 372.5,447.5 371.5,447.5 370.5,447.5C 370.988,444.289 370.321,441.456 368.5,439C 369.714,436.649 370.548,434.149 371,431.5C 371.499,426.177 371.666,420.844 371.5,415.5C 369.801,415.66 368.134,415.494 366.5,415C 367.337,413.989 367.67,412.822 367.5,411.5C 368.873,411.657 370.207,411.49 371.5,411C 367.095,401.649 366.428,391.982 369.5,382C 369.37,380.941 368.87,380.108 368,379.5C 367.805,374.582 367.305,369.749 366.5,365C 366.893,361.284 367.893,357.45 369.5,353.5C 368.31,350.369 367.31,347.203 366.5,344C 367.273,322.923 367.94,301.757 368.5,280.5C 367.771,278.024 367.104,275.524 366.5,273C 368.323,259.112 367.656,246.112 364.5,234C 364.594,231.046 365.094,230.879 366,233.5C 366.254,225.384 366.088,217.384 365.5,209.5C 367.365,205.674 367.865,201.674 367,197.5C 365.382,200.291 364.215,203.291 363.5,206.5C 362.296,270.103 362.296,334.103 363.5,398.5C 363.601,434.024 362.601,469.358 360.5,504.5C 361.608,450.668 361.608,397.002 360.5,343.5C 360.667,297.165 360.5,250.832 360,204.5C 359.263,200.13 358.43,195.796 357.5,191.5C 358.406,184.328 359.073,177.328 359.5,170.5C 354.924,171.052 352.091,169.052 351,164.5C 348.04,167.394 347.206,167.061 348.5,163.5C 346.163,162.196 343.829,160.696 341.5,159C 342.263,158.056 343.263,157.556 344.5,157.5C 346.177,158.187 347.844,158.854 349.5,159.5C 349.281,160.675 349.614,161.675 350.5,162.5C 351.885,158.622 353.051,158.622 354,162.5C 355.186,160.323 357.019,159.323 359.5,159.5C 359.5,162.833 359.5,166.167 359.5,169.5C 362.167,169.5 364.833,169.5 367.5,169.5C 366.994,174.157 367.827,178.49 370,182.5C 372.913,185.133 374.746,184.467 375.5,180.5C 377.713,182.528 380.213,184.195 383,185.5C 383.333,180.167 383.667,174.833 384,169.5C 386.529,168.116 388.862,166.449 391,164.5C 391.5,157.508 391.666,150.508 391.5,143.5C 399.5,143.5 407.5,143.5 415.5,143.5C 416.097,149.96 415.43,156.126 413.5,162C 415.399,166.178 416.065,170.678 415.5,175.5C 412.881,175.768 410.381,175.435 408,174.5C 407.809,180.083 407.309,185.583 406.5,191C 407.428,191.388 408.095,192.055 408.5,193C 407.013,197.154 404.18,199.987 400,201.5C 399.501,206.155 399.334,210.821 399.5,215.5C 402.695,214.961 405.195,215.961 407,218.5C 407.667,227.167 407.667,235.833 407,244.5C 406.5,245.667 405.667,246.5 404.5,247C 402.5,247.333 400.5,247.667 398.5,248C 399.435,250.381 399.768,252.881 399.5,255.5C 396.5,255.5 393.5,255.5 390.5,255.5C 391.303,260.476 394.136,263.809 399,265.5C 399.495,267.473 399.662,269.473 399.5,271.5C 402.167,271.5 404.833,271.5 407.5,271.5C 407.805,276.762 407.471,281.928 406.5,287C 409.482,287.498 412.482,287.665 415.5,287.5C 415.5,295.5 415.5,303.5 415.5,311.5C 418.695,310.961 421.195,311.961 423,314.5C 423.5,321.492 423.666,328.492 423.5,335.5C 426.167,335.5 428.833,335.5 431.5,335.5C 431.667,348.171 431.5,360.838 431,373.5C 426.82,375.013 423.987,377.846 422.5,382C 423.434,387.785 423.768,393.618 423.5,399.5C 424.675,399.281 425.675,399.614 426.5,400.5C 424.5,405.167 422.5,409.833 420.5,414.5C 421.325,415.386 422.325,415.719 423.5,415.5C 423.333,427.838 423.5,440.171 424,452.5C 425.805,455.039 428.305,456.039 431.5,455.5C 431.5,458.167 431.5,460.833 431.5,463.5C 447.5,463.5 463.5,463.5 479.5,463.5C 479.5,468.833 479.5,474.167 479.5,479.5C 482.187,479.336 484.854,479.503 487.5,480C 487.957,480.414 488.291,480.914 488.5,481.5C 486.802,485.364 483.969,488.031 480,489.5C 479.411,495.462 476.744,496.796 472,493.5C 472.14,495.851 472.64,498.184 473.5,500.5C 469.839,500.65 468.839,499.15 470.5,496C 468.5,495.333 466.5,495.333 464.5,496C 465.849,497.635 465.682,499.135 464,500.5C 459.251,499.695 454.418,499.195 449.5,499C 449,498.5 448.5,498 448,497.5C 444.036,499.119 439.869,500.453 435.5,501.5C 434.264,500.754 432.93,500.421 431.5,500.5C 431.988,503.711 431.321,506.544 429.5,509C 424.625,508.712 419.791,508.546 415,508.5C 412.467,508.95 410.3,509.95 408.5,511.5 Z"/></g>
<g><path style="opacity:1" fill="#5c7682" d="M 207.5,151.5 C 239.331,150.336 271.331,150.169 303.5,151C 307.211,151.175 310.878,151.675 314.5,152.5C 312.43,152.552 310.097,152.719 307.5,153C 308.737,153.232 309.737,153.732 310.5,154.5C 304.206,153.451 297.872,152.618 291.5,152C 263.502,151.5 235.502,151.333 207.5,151.5 Z"/></g>
<g><path style="opacity:1" fill="#040403" d="M 207.5,151.5 C 235.502,151.333 263.502,151.5 291.5,152C 297.872,152.618 304.206,153.451 310.5,154.5C 316.586,156.698 322.586,159.198 328.5,162C 341.771,168.436 351.437,178.269 357.5,191.5C 358.43,195.796 359.263,200.13 360,204.5C 360.5,250.832 360.667,297.165 360.5,343.5C 360.667,381.168 360.5,418.835 360,456.5C 359.479,464.834 358.813,465.167 358,457.5C 357.833,458.833 357.667,460.167 357.5,461.5C 358.758,467.504 358.758,473.504 357.5,479.5C 356.5,479.5 355.5,479.5 354.5,479.5C 354.66,482.884 354.327,486.217 353.5,489.5C 354.754,491.334 355.421,493.334 355.5,495.5C 354.167,495.5 352.833,495.5 351.5,495.5C 351.666,491.154 351.499,486.821 351,482.5C 348.952,480.494 349.452,479.494 352.5,479.5C 352.663,477.143 352.497,474.81 352,472.5C 350.412,470.032 348.578,469.866 346.5,472C 342.702,474.518 342.036,477.518 344.5,481C 343.013,485.154 340.18,487.987 336,489.5C 335.667,488.167 335.333,486.833 335,485.5C 330.136,487.191 327.303,490.524 326.5,495.5C 329.5,495.5 332.5,495.5 335.5,495.5C 335.5,496.5 335.5,497.5 335.5,498.5C 330.742,500.089 326.075,501.922 321.5,504C 322.888,504.889 322.722,505.389 321,505.5C 317.986,504.307 314.819,503.641 311.5,503.5C 306.167,504.167 300.833,504.833 295.5,505.5C 292.181,505.359 289.014,504.693 286,503.5C 283.711,505.06 281.211,506.227 278.5,507C 254.721,509.343 231.054,509.51 207.5,507.5C 199.838,508.764 192.171,508.597 184.5,507C 181.744,505.364 179.078,503.531 176.5,501.5C 175.534,503.396 175.201,505.396 175.5,507.5C 167.587,505.919 159.587,504.586 151.5,503.5C 144.495,503.923 137.495,504.423 130.5,505C 129.975,505.692 129.308,506.192 128.5,506.5C 125.731,505.704 123.064,505.371 120.5,505.5C 119.15,506.95 117.484,507.617 115.5,507.5C 115.937,504.193 115.27,501.193 113.5,498.5C 117.136,496.793 117.136,495.626 113.5,495C 112.809,493.933 112.309,492.766 112,491.5C 111.667,454.5 111.333,417.5 111,380.5C 110.667,419.5 110.333,458.5 110,497.5C 109.057,494.749 108.224,492.083 107.5,489.5C 107.2,419.49 107.533,349.49 108.5,279.5C 110.072,269.9 112.906,260.566 117,251.5C 123.417,243.006 129.083,234.006 134,224.5C 146.491,208.862 157.491,192.195 167,174.5C 172.198,168.967 177.698,163.8 183.5,159C 190.917,154.583 198.917,152.083 207.5,151.5 Z"/></g>
<g><path style="opacity:1" fill="#2d2618" d="M 287.5,214.5 C 271.705,216.274 255.705,216.941 239.5,216.5C 237.5,216.5 235.5,216.5 233.5,216.5C 233.5,216.167 233.5,215.833 233.5,215.5C 251.508,215.5 269.508,215.166 287.5,214.5 Z"/></g>
<g><path style="opacity:1" fill="#a18361" d="M 313.5,214.5 C 313.02,217.685 313.686,220.519 315.5,223C 324.827,223.5 334.161,223.666 343.5,223.5C 345.358,227.527 346.025,231.86 345.5,236.5C 340.232,237.477 334.899,237.477 329.5,236.5C 320.934,234.544 312.267,232.544 303.5,230.5C 303.5,228.167 303.5,225.833 303.5,223.5C 303.589,222.339 301.922,222.006 298.5,222.5C 298.123,220.742 297.456,219.075 296.5,217.5C 293.667,217.167 290.833,216.833 288,216.5C 271.845,217.358 255.678,217.691 239.5,217.5C 239.5,217.167 239.5,216.833 239.5,216.5C 255.705,216.941 271.705,216.274 287.5,214.5C 296.193,213.695 304.86,213.695 313.5,214.5 Z"/></g>
<g><path style="opacity:1" fill="#97744c" d="M 298.5,222.5 C 298.208,226.004 296.208,227.671 292.5,227.5C 291.106,227.379 289.772,227.046 288.5,226.5C 280.217,227.456 271.884,228.122 263.5,228.5C 255.507,227.667 247.507,227.5 239.5,228C 236.65,229.91 233.483,231.076 230,231.5C 228.121,229.987 225.954,229.321 223.5,229.5C 222.603,230.598 221.77,230.598 221,229.5C 220.505,227.527 220.338,225.527 220.5,223.5C 219.5,223.5 218.5,223.5 217.5,223.5C 217.5,222.5 217.5,221.5 217.5,220.5C 221.509,220.142 225.509,219.642 229.5,219C 228.167,218.667 226.833,218.333 225.5,218C 230.155,217.501 234.821,217.334 239.5,217.5C 255.678,217.691 271.845,217.358 288,216.5C 290.833,216.833 293.667,217.167 296.5,217.5C 297.456,219.075 298.123,220.742 298.5,222.5 Z"/></g>
<g><path style="opacity:1" fill="#3e3d35" d="M 313.5,214.5 C 315.154,216.56 316.154,219.06 316.5,222C 325.676,222.17 334.676,222.67 343.5,223.5C 334.161,223.666 324.827,223.5 315.5,223C 313.686,220.519 313.02,217.685 313.5,214.5 Z"/></g>
<g><path style="opacity:1" fill="#6a614c" d="M 210.5,228.5 C 207.695,229.319 204.695,229.819 201.5,230C 200.186,232.605 200.186,235.105 201.5,237.5C 201.833,238.167 202.167,238.833 202.5,239.5C 199.833,238.833 198.167,237.167 197.5,234.5C 197.261,232.533 197.594,230.699 198.5,229C 202.486,228.501 206.486,228.334 210.5,228.5 Z"/></g>
<g><path style="opacity:1" fill="#302e20" d="M 211.5,227.5 C 211.5,228.167 211.167,228.5 210.5,228.5C 206.486,228.334 202.486,228.501 198.5,229C 197.594,230.699 197.261,232.533 197.5,234.5C 196.189,232.44 196.189,230.274 197.5,228C 202.155,227.501 206.821,227.334 211.5,227.5 Z"/></g>
<g><path style="opacity:1" fill="#9d794e" d="M 298.5,222.5 C 301.922,222.006 303.589,222.339 303.5,223.5C 302.167,223.5 300.833,223.5 299.5,223.5C 297.468,227.239 295.801,231.239 294.5,235.5C 293.5,236.167 292.5,236.833 291.5,237.5C 290.356,241.09 289.69,244.423 289.5,247.5C 289.44,246.957 289.107,246.624 288.5,246.5C 287.984,249.251 286.817,251.584 285,253.5C 285.135,251.575 285.302,249.575 285.5,247.5C 282.886,247.277 281.219,248.444 280.5,251C 272.859,255.448 264.859,259.281 256.5,262.5C 254.643,267.304 251.977,267.637 248.5,263.5C 247.52,260.914 247.187,258.247 247.5,255.5C 245.396,255.799 243.396,255.466 241.5,254.5C 238.872,250.372 235.706,246.705 232,243.5C 229.373,239.909 227.54,235.909 226.5,231.5C 225.261,231.058 224.261,230.391 223.5,229.5C 225.954,229.321 228.121,229.987 230,231.5C 233.483,231.076 236.65,229.91 239.5,228C 247.507,227.5 255.507,227.667 263.5,228.5C 271.884,228.122 280.217,227.456 288.5,226.5C 289.772,227.046 291.106,227.379 292.5,227.5C 296.208,227.671 298.208,226.004 298.5,222.5 Z"/></g>
<g><path style="opacity:1" fill="#8f7a5e" d="M 233.5,215.5 C 233.5,215.833 233.5,216.167 233.5,216.5C 228.489,216.334 223.489,216.501 218.5,217C 216.76,221.451 215.093,225.951 213.5,230.5C 209.541,231.327 205.541,231.827 201.5,232C 201.854,233.626 201.854,235.459 201.5,237.5C 200.186,235.105 200.186,232.605 201.5,230C 204.695,229.819 207.695,229.319 210.5,228.5C 211.167,228.5 211.5,228.167 211.5,227.5C 212.946,224.746 213.946,221.746 214.5,218.5C 215.429,217.685 216.429,216.852 217.5,216C 222.823,215.501 228.156,215.334 233.5,215.5 Z"/></g>
<g><path style="opacity:1" fill="#9f7f59" d="M 303.5,223.5 C 303.5,225.833 303.5,228.167 303.5,230.5C 312.267,232.544 320.934,234.544 329.5,236.5C 317.567,234.382 309.067,238.715 304,249.5C 303.163,254.18 302.329,258.846 301.5,263.5C 300.833,266.167 300.167,268.833 299.5,271.5C 299.167,271.5 298.833,271.5 298.5,271.5C 297.833,266.167 297.167,266.167 296.5,271.5C 295.5,271.5 294.5,271.5 293.5,271.5C 295.776,264.11 297.276,256.443 298,248.5C 299.867,246.192 300.867,243.525 301,240.5C 301.75,239.874 302.584,239.374 303.5,239C 302.359,238.259 302.359,237.425 303.5,236.5C 302.467,235.548 301.3,235.548 300,236.5C 299.055,236.095 298.388,235.428 298,234.5C 297.764,236.764 297.264,238.931 296.5,241C 297.354,242.881 297.021,244.714 295.5,246.5C 293.926,247.984 292.593,249.651 291.5,251.5C 290.295,250.423 289.628,249.09 289.5,247.5C 289.69,244.423 290.356,241.09 291.5,237.5C 292.5,236.833 293.5,236.167 294.5,235.5C 295.801,231.239 297.468,227.239 299.5,223.5C 300.833,223.5 302.167,223.5 303.5,223.5 Z"/></g>
<g><path style="opacity:1" fill="#050a04" d="M 214.5,218.5 C 213.946,221.746 212.946,224.746 211.5,227.5C 206.821,227.334 202.155,227.501 197.5,228C 196.189,230.274 196.189,232.44 197.5,234.5C 198.167,237.167 199.833,238.833 202.5,239.5C 202.973,240.906 203.973,241.573 205.5,241.5C 205.833,242.5 206.5,243.167 207.5,243.5C 214.324,250.322 219.991,257.989 224.5,266.5C 224.5,268.167 224.5,269.833 224.5,271.5C 221.893,273.042 221.226,272.542 222.5,270C 222.108,268.989 221.441,268.489 220.5,268.5C 221.487,264.633 220.987,264.633 219,268.5C 219.991,265.756 219.657,263.089 218,260.5C 216.732,260.616 215.398,260.949 214,261.5C 211.009,255.077 206.175,250.577 199.5,248C 197.559,247.257 195.726,247.424 194,248.5C 192.877,253.873 191.711,259.207 190.5,264.5C 190.38,266.199 190.046,267.865 189.5,269.5C 190.362,271.767 192.029,272.767 194.5,272.5C 195.833,272.5 197.167,272.5 198.5,272.5C 198.804,273.15 199.137,273.817 199.5,274.5C 196.023,275.167 192.689,275.834 189.5,276.5C 189.167,276.5 188.833,276.5 188.5,276.5C 185.167,276.5 181.833,276.5 178.5,276.5C 180.944,274.928 183.61,273.428 186.5,272C 185.299,271.097 184.465,269.931 184,268.5C 181.833,270 182,271.167 184.5,272C 181.444,273.892 179.444,273.392 178.5,270.5C 178.709,269.914 179.043,269.414 179.5,269C 178.328,268.581 177.328,267.915 176.5,267C 176.011,263.823 176.011,260.323 176.5,256.5C 177.325,255.614 178.325,255.281 179.5,255.5C 178.316,249.184 179.983,243.851 184.5,239.5C 185.833,240.833 187.167,240.833 188.5,239.5C 189.333,240.5 190.167,241.5 191,242.5C 191.318,240.939 192.151,239.772 193.5,239C 193.167,238.667 192.833,238.333 192.5,238C 194.126,238.195 195.793,238.195 197.5,238C 196.167,235.395 194.167,233.395 191.5,232C 192.833,231.333 192.833,230.667 191.5,230C 194.544,229.641 194.878,228.974 192.5,228C 194.715,226.956 197.048,226.29 199.5,226C 198.346,225.086 198.513,224.253 200,223.5C 202.369,223.727 204.869,223.893 207.5,224C 208.99,225.634 210.324,225.301 211.5,223C 210.167,222.667 208.833,222.333 207.5,222C 209.812,220.732 212.146,219.565 214.5,218.5 Z"/></g>
<g><path style="opacity:1" fill="#060b03" d="M 329.5,236.5 C 334.899,237.477 340.232,237.477 345.5,236.5C 344.797,239.542 342.797,241.209 339.5,241.5C 334.738,237.621 329.404,236.621 323.5,238.5C 327.22,240.768 331.22,242.434 335.5,243.5C 335.863,244.183 336.196,244.85 336.5,245.5C 334.208,245.244 332.041,245.577 330,246.5C 329.5,245.333 328.667,244.5 327.5,244C 328.34,242.334 327.84,242.167 326,243.5C 325.712,246.53 325.545,249.364 325.5,252C 326.624,252.249 327.624,252.749 328.5,253.5C 328.08,255.326 328.08,257.326 328.5,259.5C 328.5,261.833 328.5,264.167 328.5,266.5C 327.833,266.5 327.5,266.833 327.5,267.5C 326.069,268.78 325.402,270.447 325.5,272.5C 324.767,274.294 323.767,275.961 322.5,277.5C 320.847,277.66 319.514,278.326 318.5,279.5C 316.938,279.733 315.605,280.4 314.5,281.5C 311.335,281.757 308.335,281.424 305.5,280.5C 306.476,278.877 305.976,277.543 304,276.5C 303.735,272.032 302.901,267.698 301.5,263.5C 302.329,258.846 303.163,254.18 304,249.5C 309.067,238.715 317.567,234.382 329.5,236.5 Z"/></g>
<g><path style="opacity:1" fill="#65869a" d="M 375.5,511.5 C 370.5,511.5 365.5,511.5 360.5,511.5C 360.5,509.167 360.5,506.833 360.5,504.5C 362.601,469.358 363.601,434.024 363.5,398.5C 362.296,334.103 362.296,270.103 363.5,206.5C 364.215,203.291 365.382,200.291 367,197.5C 367.865,201.674 367.365,205.674 365.5,209.5C 366.088,217.384 366.254,225.384 366,233.5C 365.094,230.879 364.594,231.046 364.5,234C 367.656,246.112 368.323,259.112 366.5,273C 367.104,275.524 367.771,278.024 368.5,280.5C 367.94,301.757 367.273,322.923 366.5,344C 367.31,347.203 368.31,350.369 369.5,353.5C 367.893,357.45 366.893,361.284 366.5,365C 367.305,369.749 367.805,374.582 368,379.5C 368.87,380.108 369.37,380.941 369.5,382C 366.428,391.982 367.095,401.649 371.5,411C 370.207,411.49 368.873,411.657 367.5,411.5C 367.67,412.822 367.337,413.989 366.5,415C 368.134,415.494 369.801,415.66 371.5,415.5C 371.666,420.844 371.499,426.177 371,431.5C 370.548,434.149 369.714,436.649 368.5,439C 370.321,441.456 370.988,444.289 370.5,447.5C 371.5,447.5 372.5,447.5 373.5,447.5C 373.649,448.552 373.483,449.552 373,450.5C 371.989,449.663 370.822,449.33 369.5,449.5C 369.351,454.309 370.017,458.975 371.5,463.5C 371.846,466.43 370.846,468.763 368.5,470.5C 369.224,475.856 369.557,481.189 369.5,486.5C 367.87,489.276 367.203,492.276 367.5,495.5C 368.5,495.5 369.5,495.5 370.5,495.5C 368.358,500.881 369.858,504.881 375,507.5C 375.49,508.793 375.657,510.127 375.5,511.5 Z"/></g>
<g><path style="opacity:1" fill="#0e1410" d="M 336.5,245.5 C 338.13,247.026 338.963,249.026 339,251.5C 339.753,256.375 339.586,261.208 338.5,266C 339.276,270.489 339.943,274.989 340.5,279.5C 340.167,279.5 339.833,279.5 339.5,279.5C 339.03,278.307 338.03,277.64 336.5,277.5C 333.833,278.167 331.167,278.833 328.5,279.5C 326.465,278.796 324.465,278.129 322.5,277.5C 323.767,275.961 324.767,274.294 325.5,272.5C 325.5,273.5 325.5,274.5 325.5,275.5C 331.212,274.96 335.046,271.96 337,266.5C 337.828,262.129 337.661,257.795 336.5,253.5C 335.452,252.617 334.285,251.95 333,251.5C 331.97,251.836 331.47,252.503 331.5,253.5C 331.008,255.819 330.008,257.819 328.5,259.5C 328.08,257.326 328.08,255.326 328.5,253.5C 327.624,252.749 326.624,252.249 325.5,252C 325.545,249.364 325.712,246.53 326,243.5C 327.84,242.167 328.34,242.334 327.5,244C 328.667,244.5 329.5,245.333 330,246.5C 332.041,245.577 334.208,245.244 336.5,245.5 Z"/></g>
<g><path style="opacity:1" fill="#776e58" d="M 207.5,243.5 C 214.557,248.205 220.557,254.038 225.5,261C 226.425,266.116 226.758,271.283 226.5,276.5C 226.167,276.5 225.833,276.5 225.5,276.5C 225.813,272.958 225.479,269.625 224.5,266.5C 219.991,257.989 214.324,250.322 207.5,243.5 Z"/></g>
<g><path style="opacity:1" fill="#2d3c3b" d="M 325.5,272.5 C 325.402,270.447 326.069,268.78 327.5,267.5C 327.5,269.167 327.5,270.833 327.5,272.5C 330.785,272.731 333.285,271.397 335,268.5C 335.667,264.167 335.667,259.833 335,255.5C 334.29,254.027 333.124,253.36 331.5,253.5C 331.47,252.503 331.97,251.836 333,251.5C 334.285,251.95 335.452,252.617 336.5,253.5C 337.661,257.795 337.828,262.129 337,266.5C 335.046,271.96 331.212,274.96 325.5,275.5C 325.5,274.5 325.5,273.5 325.5,272.5 Z"/></g>
<g><path style="opacity:1" fill="#9f7d54" d="M 233.5,216.5 C 235.5,216.5 237.5,216.5 239.5,216.5C 239.5,216.833 239.5,217.167 239.5,217.5C 234.821,217.334 230.155,217.501 225.5,218C 226.833,218.333 228.167,218.667 229.5,219C 225.509,219.642 221.509,220.142 217.5,220.5C 217.5,221.5 217.5,222.5 217.5,223.5C 218.5,223.5 219.5,223.5 220.5,223.5C 220.338,225.527 220.505,227.527 221,229.5C 221.77,230.598 222.603,230.598 223.5,229.5C 224.261,230.391 225.261,231.058 226.5,231.5C 227.54,235.909 229.373,239.909 232,243.5C 235.706,246.705 238.872,250.372 241.5,254.5C 243.396,255.466 245.396,255.799 247.5,255.5C 247.187,258.247 247.52,260.914 248.5,263.5C 251.977,267.637 254.643,267.304 256.5,262.5C 264.859,259.281 272.859,255.448 280.5,251C 281.219,248.444 282.886,247.277 285.5,247.5C 285.302,249.575 285.135,251.575 285,253.5C 286.817,251.584 287.984,249.251 288.5,246.5C 289.107,246.624 289.44,246.957 289.5,247.5C 289.628,249.09 290.295,250.423 291.5,251.5C 292.593,249.651 293.926,247.984 295.5,246.5C 297.021,244.714 297.354,242.881 296.5,241C 297.264,238.931 297.764,236.764 298,234.5C 298.388,235.428 299.055,236.095 300,236.5C 301.3,235.548 302.467,235.548 303.5,236.5C 302.359,237.425 302.359,238.259 303.5,239C 302.584,239.374 301.75,239.874 301,240.5C 300.867,243.525 299.867,246.192 298,248.5C 297.276,256.443 295.776,264.11 293.5,271.5C 294.5,271.5 295.5,271.5 296.5,271.5C 297.167,266.167 297.833,266.167 298.5,271.5C 297.298,275.822 296.298,280.322 295.5,285C 295.746,292.584 299.58,295.75 307,294.5C 309.69,294.497 312.19,294.164 314.5,293.5C 317.722,293.108 320.722,293.608 323.5,295C 322.833,296.333 322.167,297.667 321.5,299C 324.149,299.452 326.649,300.286 329,301.5C 327.531,304.859 327.031,308.359 327.5,312C 329.063,313.736 330.73,315.236 332.5,316.5C 330.83,316.751 329.33,317.418 328,318.5C 324.295,316.059 320.462,313.726 316.5,311.5C 316.101,314.422 315.934,317.422 316,320.5C 314.556,323.055 313.389,325.721 312.5,328.5C 310.14,325.473 307.473,322.806 304.5,320.5C 313.206,319.749 313.206,317.749 304.5,314.5C 303.548,316.045 303.215,317.712 303.5,319.5C 302.167,319.5 300.833,319.5 299.5,319.5C 299.5,324.833 299.5,330.167 299.5,335.5C 298.178,335.67 297.011,335.337 296,334.5C 295.501,340.157 295.334,345.824 295.5,351.5C 296.5,351.5 297.5,351.5 298.5,351.5C 300.178,360.118 302.011,367.451 304,373.5C 307.617,376.558 311.784,378.391 316.5,379C 319.096,380.797 318.763,382.131 315.5,383C 315.728,383.399 316.062,383.565 316.5,383.5C 313.814,390.105 311.314,396.772 309,403.5C 308.2,400.365 306.366,398.198 303.5,397C 302.832,392.665 302.832,388.498 303.5,384.5C 302.369,383.396 301.535,383.729 301,385.5C 297.066,381.694 292.733,378.36 288,375.5C 286.266,376.249 284.433,376.749 282.5,377C 281.711,380.097 280.544,380.264 279,377.5C 278.439,378.022 277.772,378.355 277,378.5C 273.755,377.211 270.422,376.211 267,375.5C 263.183,376.069 259.349,376.403 255.5,376.5C 253.475,370.763 250.141,370.263 245.5,375C 243.402,375.678 241.402,375.511 239.5,374.5C 244.561,372.816 244.561,371.483 239.5,370.5C 239.5,369.5 239.5,368.5 239.5,367.5C 238.167,367.5 236.833,367.5 235.5,367.5C 235.5,362.167 235.5,356.833 235.5,351.5C 234.167,351.5 232.833,351.5 231.5,351.5C 231.5,346.167 231.5,340.833 231.5,335.5C 225.158,335.666 218.825,335.5 212.5,335C 216.168,332.947 220.002,331.113 224,329.5C 225.965,330.885 227.798,330.718 229.5,329C 227.751,327.708 225.918,326.542 224,325.5C 223.505,323.527 223.338,321.527 223.5,319.5C 218.167,319.5 212.833,319.5 207.5,319.5C 207.662,321.527 207.495,323.527 207,325.5C 202.136,327.191 199.303,330.524 198.5,335.5C 197.167,335.5 195.833,335.5 194.5,335.5C 195.905,332.357 197.572,329.357 199.5,326.5C 198.472,324.639 196.972,323.305 195,322.5C 194.333,320.167 194.333,317.833 195,315.5C 196.549,313.382 197.716,311.049 198.5,308.5C 202.902,309.926 207.235,309.759 211.5,308C 210.207,307.51 208.873,307.343 207.5,307.5C 207.5,306.167 207.5,304.833 207.5,303.5C 204.034,303.715 201.367,302.382 199.5,299.5C 198.253,297.958 198.253,296.458 199.5,295C 197.939,294.812 197.272,295.645 197.5,297.5C 195.5,297.167 193.5,296.833 191.5,296.5C 191.5,294.5 191.5,292.5 191.5,290.5C 194.176,291.008 196.843,291.175 199.5,291C 197.396,290.209 196.063,288.709 195.5,286.5C 190.503,284.922 185.837,282.922 181.5,280.5C 181.842,279.662 182.508,279.328 183.5,279.5C 187.982,280.326 192.649,280.826 197.5,281C 195.5,281.333 193.5,281.667 191.5,282C 196.755,283.069 202.089,283.903 207.5,284.5C 197.068,286.733 197.068,287.733 207.5,287.5C 207.5,289.5 207.5,291.5 207.5,293.5C 218.192,294.743 228.859,295.41 239.5,295.5C 239.664,292.813 239.497,290.146 239,287.5C 237.667,284.833 236.333,282.167 235,279.5C 234.503,276.854 234.336,274.187 234.5,271.5C 235.5,271.5 236.5,271.5 237.5,271.5C 237.85,268.144 237.017,265.144 235,262.5C 234.818,265.226 234.318,267.893 233.5,270.5C 233.167,269.667 232.833,268.833 232.5,268C 232.303,263.845 231.97,259.678 231.5,255.5C 230.749,256.376 230.249,257.376 230,258.5C 229.333,257.167 228.667,257.167 228,258.5C 226.607,254.829 225.107,251.162 223.5,247.5C 220.485,249.88 219.818,249.047 221.5,245C 219.043,241.871 216.709,242.038 214.5,245.5C 212.378,243.668 210.045,242.001 207.5,240.5C 208.853,239.476 209.52,238.143 209.5,236.5C 207.143,236.337 204.81,236.503 202.5,237C 203.883,238.271 204.883,239.771 205.5,241.5C 203.973,241.573 202.973,240.906 202.5,239.5C 202.167,238.833 201.833,238.167 201.5,237.5C 201.854,235.459 201.854,233.626 201.5,232C 205.541,231.827 209.541,231.327 213.5,230.5C 215.093,225.951 216.76,221.451 218.5,217C 223.489,216.501 228.489,216.334 233.5,216.5 Z"/></g>
<g><path style="opacity:1" fill="#506c72" d="M 331.5,253.5 C 333.124,253.36 334.29,254.027 335,255.5C 335.667,259.833 335.667,264.167 335,268.5C 333.285,271.397 330.785,272.731 327.5,272.5C 327.5,270.833 327.5,269.167 327.5,267.5C 327.5,266.833 327.833,266.5 328.5,266.5C 328.5,264.167 328.5,261.833 328.5,259.5C 330.008,257.819 331.008,255.819 331.5,253.5 Z"/></g>
<g><path style="opacity:1" fill="#0b150d" d="M 224.5,271.5 C 224.5,272.833 224.5,274.167 224.5,275.5C 221.167,275.5 217.833,275.5 214.5,275.5C 213.884,267.602 210.884,260.935 205.5,255.5C 203.119,251.254 199.453,249.254 194.5,249.5C 193.841,252.455 193.508,255.455 193.5,258.5C 193.029,260.579 192.363,262.579 191.5,264.5C 191.167,264.5 190.833,264.5 190.5,264.5C 191.711,259.207 192.877,253.873 194,248.5C 195.726,247.424 197.559,247.257 199.5,248C 206.175,250.577 211.009,255.077 214,261.5C 215.398,260.949 216.732,260.616 218,260.5C 219.657,263.089 219.991,265.756 219,268.5C 220.987,264.633 221.487,264.633 220.5,268.5C 221.441,268.489 222.108,268.989 222.5,270C 221.226,272.542 221.893,273.042 224.5,271.5 Z"/></g>
<g><path style="opacity:1" fill="#354549" d="M 205.5,255.5 C 203.456,254.969 201.789,253.802 200.5,252C 198.866,251.506 197.199,251.34 195.5,251.5C 195.5,252.833 195.5,254.167 195.5,255.5C 194.833,256.5 194.167,257.5 193.5,258.5C 193.508,255.455 193.841,252.455 194.5,249.5C 199.453,249.254 203.119,251.254 205.5,255.5 Z"/></g>
<g><path style="opacity:1" fill="#91a7a6" d="M 210.5,266.5 C 211.301,268.042 211.634,269.708 211.5,271.5C 208.287,271.19 205.287,271.523 202.5,272.5C 201.167,272.5 199.833,272.5 198.5,272.5C 197.016,270.926 195.349,269.593 193.5,268.5C 194.822,268.67 195.989,268.337 197,267.5C 197.407,264.318 197.907,261.151 198.5,258C 198.769,256.393 199.603,255.226 201,254.5C 202.827,256.24 202.66,257.907 200.5,259.5C 203.147,261.477 204.481,264.144 204.5,267.5C 206.621,267.675 208.621,267.341 210.5,266.5 Z"/></g>
<g><path style="opacity:1" fill="#6c909c" d="M 328.5,266.5 C 332.865,253.067 334.699,253.4 334,267.5C 332.649,269.019 331.149,270.352 329.5,271.5C 328.548,269.955 328.215,268.288 328.5,266.5 Z"/></g>
<g><path style="opacity:1" fill="#0c1609" d="M 301.5,263.5 C 302.901,267.698 303.735,272.032 304,276.5C 305.976,277.543 306.476,278.877 305.5,280.5C 308.335,281.424 311.335,281.757 314.5,281.5C 312.013,282.827 309.68,284.494 307.5,286.5C 304.742,288.048 302.242,287.715 300,285.5C 299.501,281.848 299.335,278.182 299.5,274.5C 299.5,273.5 299.5,272.5 299.5,271.5C 300.167,268.833 300.833,266.167 301.5,263.5 Z"/></g>
<g><path style="opacity:1" fill="#5a7276" d="M 195.5,255.5 C 195.115,259.325 194.115,262.991 192.5,266.5C 192.543,267.416 192.876,268.083 193.5,268.5C 195.349,269.593 197.016,270.926 198.5,272.5C 197.167,272.5 195.833,272.5 194.5,272.5C 192.144,270.443 191.144,267.776 191.5,264.5C 192.363,262.579 193.029,260.579 193.5,258.5C 194.167,257.5 194.833,256.5 195.5,255.5 Z"/></g>
<g><path style="opacity:1" fill="#9d8059" d="M 183.5,279.5 C 196.189,278.534 208.689,279.534 221,282.5C 225.76,283.239 227.593,281.239 226.5,276.5C 226.758,271.283 226.425,266.116 225.5,261C 220.557,254.038 214.557,248.205 207.5,243.5C 206.5,243.167 205.833,242.5 205.5,241.5C 204.883,239.771 203.883,238.271 202.5,237C 204.81,236.503 207.143,236.337 209.5,236.5C 209.52,238.143 208.853,239.476 207.5,240.5C 210.045,242.001 212.378,243.668 214.5,245.5C 216.709,242.038 219.043,241.871 221.5,245C 219.818,249.047 220.485,249.88 223.5,247.5C 225.107,251.162 226.607,254.829 228,258.5C 228.667,257.167 229.333,257.167 230,258.5C 230.249,257.376 230.749,256.376 231.5,255.5C 231.97,259.678 232.303,263.845 232.5,268C 232.833,268.833 233.167,269.667 233.5,270.5C 234.318,267.893 234.818,265.226 235,262.5C 237.017,265.144 237.85,268.144 237.5,271.5C 236.5,271.5 235.5,271.5 234.5,271.5C 234.336,274.187 234.503,276.854 235,279.5C 236.333,282.167 237.667,284.833 239,287.5C 239.497,290.146 239.664,292.813 239.5,295.5C 228.859,295.41 218.192,294.743 207.5,293.5C 207.5,291.5 207.5,289.5 207.5,287.5C 197.068,287.733 197.068,286.733 207.5,284.5C 202.089,283.903 196.755,283.069 191.5,282C 193.5,281.667 195.5,281.333 197.5,281C 192.649,280.826 187.982,280.326 183.5,279.5 Z"/></g>
<g><path style="opacity:1" fill="#779ba6" d="M 205.5,255.5 C 205.343,256.873 205.51,258.207 206,259.5C 207.75,261.734 209.25,264.068 210.5,266.5C 208.621,267.341 206.621,267.675 204.5,267.5C 204.481,264.144 203.147,261.477 200.5,259.5C 202.66,257.907 202.827,256.24 201,254.5C 199.603,255.226 198.769,256.393 198.5,258C 197.907,261.151 197.407,264.318 197,267.5C 195.989,268.337 194.822,268.67 193.5,268.5C 192.876,268.083 192.543,267.416 192.5,266.5C 194.115,262.991 195.115,259.325 195.5,255.5C 195.5,254.167 195.5,252.833 195.5,251.5C 197.199,251.34 198.866,251.506 200.5,252C 201.789,253.802 203.456,254.969 205.5,255.5 Z"/></g>
<g><path style="opacity:1" fill="#2e3d3a" d="M 190.5,264.5 C 190.833,264.5 191.167,264.5 191.5,264.5C 191.144,267.776 192.144,270.443 194.5,272.5C 192.029,272.767 190.362,271.767 189.5,269.5C 190.046,267.865 190.38,266.199 190.5,264.5 Z"/></g>
<g><path style="opacity:1" fill="#50645b" d="M 205.5,255.5 C 210.884,260.935 213.884,267.602 214.5,275.5C 217.833,275.5 221.167,275.5 224.5,275.5C 224.5,274.167 224.5,272.833 224.5,271.5C 224.5,269.833 224.5,268.167 224.5,266.5C 225.479,269.625 225.813,272.958 225.5,276.5C 224.518,277.141 223.518,277.807 222.5,278.5C 220.382,277.054 218.049,276.387 215.5,276.5C 212.703,276.033 211.369,274.367 211.5,271.5C 211.634,269.708 211.301,268.042 210.5,266.5C 209.25,264.068 207.75,261.734 206,259.5C 205.51,258.207 205.343,256.873 205.5,255.5 Z"/></g>
<g><path style="opacity:1" fill="#575a48" d="M 198.5,272.5 C 199.833,272.5 201.167,272.5 202.5,272.5C 203.171,273.847 203.171,275.014 202.5,276C 198.848,276.499 195.182,276.665 191.5,276.5C 190.833,276.5 190.167,276.5 189.5,276.5C 192.689,275.834 196.023,275.167 199.5,274.5C 199.137,273.817 198.804,273.15 198.5,272.5 Z"/></g>
<g><path style="opacity:1" fill="#4f4635" d="M 178.5,276.5 C 181.833,276.5 185.167,276.5 188.5,276.5C 183.342,277.458 178.009,278.125 172.5,278.5C 174.302,277.542 176.302,276.875 178.5,276.5 Z"/></g>
<g><path style="opacity:1" fill="#938f76" d="M 211.5,271.5 C 211.369,274.367 212.703,276.033 215.5,276.5C 207.684,277.492 199.684,277.826 191.5,277.5C 191.5,277.167 191.5,276.833 191.5,276.5C 195.182,276.665 198.848,276.499 202.5,276C 203.171,275.014 203.171,273.847 202.5,272.5C 205.287,271.523 208.287,271.19 211.5,271.5 Z"/></g>
<g><path style="opacity:1" fill="#ad9974" d="M 215.5,276.5 C 218.049,276.387 220.382,277.054 222.5,278.5C 223.518,277.807 224.518,277.141 225.5,276.5C 225.833,276.5 226.167,276.5 226.5,276.5C 227.593,281.239 225.76,283.239 221,282.5C 208.689,279.534 196.189,278.534 183.5,279.5C 186.003,278.629 188.67,277.963 191.5,277.5C 199.684,277.826 207.684,277.492 215.5,276.5 Z"/></g>
<g><path style="opacity:1" fill="#595746" d="M 322.5,277.5 C 324.465,278.129 326.465,278.796 328.5,279.5C 331.167,278.833 333.833,278.167 336.5,277.5C 338.03,277.64 339.03,278.307 339.5,279.5C 336.951,278.35 334.617,278.684 332.5,280.5C 327.819,280.331 323.152,279.998 318.5,279.5C 319.514,278.326 320.847,277.66 322.5,277.5 Z"/></g>
<g><path style="opacity:1" fill="#8e7253" d="M 188.5,276.5 C 188.833,276.5 189.167,276.5 189.5,276.5C 190.167,276.5 190.833,276.5 191.5,276.5C 191.5,276.833 191.5,277.167 191.5,277.5C 188.67,277.963 186.003,278.629 183.5,279.5C 182.508,279.328 181.842,279.662 181.5,280.5C 180.761,280.369 180.094,280.536 179.5,281C 182.033,283.084 182.033,285.084 179.5,287C 178.601,290.795 176.434,294.295 173,297.5C 173.046,300.633 172.046,303.3 170,305.5C 169.5,316.828 169.333,328.162 169.5,339.5C 168.511,334.025 168.178,328.358 168.5,322.5C 168.333,308.829 168.5,295.163 169,281.5C 170.045,280.627 170.878,279.627 171.5,278.5C 171.833,278.5 172.167,278.5 172.5,278.5C 178.009,278.125 183.342,277.458 188.5,276.5 Z"/></g>
<g><path style="opacity:1" fill="#8e8267" d="M 318.5,279.5 C 323.152,279.998 327.819,280.331 332.5,280.5C 328.018,281.326 323.351,281.826 318.5,282C 314.948,284.452 311.281,286.618 307.5,288.5C 307.5,287.833 307.5,287.167 307.5,286.5C 309.68,284.494 312.013,282.827 314.5,281.5C 315.605,280.4 316.938,279.733 318.5,279.5 Z"/></g>
<g><path style="opacity:1" fill="#aa8e67" d="M 298.5,271.5 C 298.833,271.5 299.167,271.5 299.5,271.5C 299.5,272.5 299.5,273.5 299.5,274.5C 297.591,278.754 297.258,283.088 298.5,287.5C 298.647,290.946 300.314,292.446 303.5,292C 304.056,291.617 304.389,291.117 304.5,290.5C 305.5,289.833 306.5,289.167 307.5,288.5C 311.281,286.618 314.948,284.452 318.5,282C 323.351,281.826 328.018,281.326 332.5,280.5C 333.5,280.5 334.5,280.5 335.5,280.5C 336.431,282.033 337.098,283.7 337.5,285.5C 337.182,286.647 336.516,287.481 335.5,288C 329.155,289.406 322.821,289.573 316.5,288.5C 316.608,290.514 315.942,292.18 314.5,293.5C 312.19,294.164 309.69,294.497 307,294.5C 299.58,295.75 295.746,292.584 295.5,285C 296.298,280.322 297.298,275.822 298.5,271.5 Z"/></g>
<g><path style="opacity:1" fill="#7d664d" d="M 339.5,279.5 C 339.833,279.5 340.167,279.5 340.5,279.5C 341.4,284.772 341.733,290.105 341.5,295.5C 341.83,311.675 341.496,327.675 340.5,343.5C 340.782,322.463 340.116,301.463 338.5,280.5C 337.5,280.5 336.5,280.5 335.5,280.5C 334.5,280.5 333.5,280.5 332.5,280.5C 334.617,278.684 336.951,278.35 339.5,279.5 Z"/></g>
<g><path style="opacity:1" fill="#4c4c37" d="M 299.5,274.5 C 299.335,278.182 299.501,281.848 300,285.5C 302.242,287.715 304.742,288.048 307.5,286.5C 307.5,287.167 307.5,287.833 307.5,288.5C 306.5,289.167 305.5,289.833 304.5,290.5C 302.745,289.096 300.745,288.096 298.5,287.5C 297.258,283.088 297.591,278.754 299.5,274.5 Z"/></g>
<g><path style="opacity:1" fill="#9e7b54" d="M 181.5,280.5 C 185.837,282.922 190.503,284.922 195.5,286.5C 196.063,288.709 197.396,290.209 199.5,291C 196.843,291.175 194.176,291.008 191.5,290.5C 191.5,292.5 191.5,294.5 191.5,296.5C 193.5,296.833 195.5,297.167 197.5,297.5C 197.272,295.645 197.939,294.812 199.5,295C 198.253,296.458 198.253,297.958 199.5,299.5C 201.367,302.382 204.034,303.715 207.5,303.5C 207.5,304.833 207.5,306.167 207.5,307.5C 208.873,307.343 210.207,307.51 211.5,308C 207.235,309.759 202.902,309.926 198.5,308.5C 197.716,311.049 196.549,313.382 195,315.5C 194.333,317.833 194.333,320.167 195,322.5C 196.972,323.305 198.472,324.639 199.5,326.5C 197.572,329.357 195.905,332.357 194.5,335.5C 193.5,335.5 192.5,335.5 191.5,335.5C 191.333,346.18 190.833,356.846 190,367.5C 189.235,370.196 188.068,372.696 186.5,375C 187.167,375.333 187.833,375.667 188.5,376C 186.279,377.669 185.945,379.669 187.5,382C 186.092,384.497 184.759,386.997 183.5,389.5C 185.975,392.901 186.975,396.568 186.5,400.5C 188.167,401.167 189.833,401.833 191.5,402.5C 191.291,403.086 190.957,403.586 190.5,404C 191.833,404.333 193.167,404.667 194.5,405C 195.167,406.333 196.167,407.333 197.5,408C 197.381,409.145 197.048,410.312 196.5,411.5C 194.508,411.672 192.842,411.005 191.5,409.5C 189.129,409.892 188.462,410.892 189.5,412.5C 185.034,410.434 180.701,408.1 176.5,405.5C 175.89,404.609 175.557,403.609 175.5,402.5C 175.99,395.796 174.99,389.463 172.5,383.5C 172.062,371.639 171.062,359.972 169.5,348.5C 169.5,345.5 169.5,342.5 169.5,339.5C 169.333,328.162 169.5,316.828 170,305.5C 172.046,303.3 173.046,300.633 173,297.5C 176.434,294.295 178.601,290.795 179.5,287C 182.033,285.084 182.033,283.084 179.5,281C 180.094,280.536 180.761,280.369 181.5,280.5 Z"/></g>
<g><path style="opacity:1" fill="#827759" d="M 298.5,287.5 C 300.745,288.096 302.745,289.096 304.5,290.5C 304.389,291.117 304.056,291.617 303.5,292C 300.314,292.446 298.647,290.946 298.5,287.5 Z"/></g>
<g><path style="opacity:1" fill="#53412e" d="M 171.5,278.5 C 170.878,279.627 170.045,280.627 169,281.5C 168.5,295.163 168.333,308.829 168.5,322.5C 167.339,308.673 167.173,294.673 168,280.5C 168.816,279.177 169.983,278.511 171.5,278.5 Z"/></g>
<g><path style="opacity:1" fill="#a47f55" d="M 332.5,316.5 C 335.338,318.306 335.005,319.306 331.5,319.5C 330.18,322.493 328.847,325.493 327.5,328.5C 327.967,331.148 329.134,333.481 331,335.5C 331.167,338.167 331.333,340.833 331.5,343.5C 330.277,351.338 330.277,359.004 331.5,366.5C 330.675,367.386 329.675,367.719 328.5,367.5C 326.636,373.571 324.469,379.571 322,385.5C 321.667,385.833 321.333,386.167 321,386.5C 320.667,383.833 320.333,381.167 320,378.5C 319.506,380.134 319.34,381.801 319.5,383.5C 318.5,383.5 317.5,383.5 316.5,383.5C 316.062,383.565 315.728,383.399 315.5,383C 318.763,382.131 319.096,380.797 316.5,379C 311.784,378.391 307.617,376.558 304,373.5C 302.011,367.451 300.178,360.118 298.5,351.5C 297.5,351.5 296.5,351.5 295.5,351.5C 295.334,345.824 295.501,340.157 296,334.5C 297.011,335.337 298.178,335.67 299.5,335.5C 299.5,330.167 299.5,324.833 299.5,319.5C 300.833,319.5 302.167,319.5 303.5,319.5C 303.215,317.712 303.548,316.045 304.5,314.5C 313.206,317.749 313.206,319.749 304.5,320.5C 307.473,322.806 310.14,325.473 312.5,328.5C 313.389,325.721 314.556,323.055 316,320.5C 315.934,317.422 316.101,314.422 316.5,311.5C 320.462,313.726 324.295,316.059 328,318.5C 329.33,317.418 330.83,316.751 332.5,316.5 Z"/></g>
<g><path style="opacity:1" fill="#a17f58" d="M 335.5,280.5 C 336.5,280.5 337.5,280.5 338.5,280.5C 340.116,301.463 340.782,322.463 340.5,343.5C 340.428,349.601 339.594,355.601 338,361.5C 329.384,381.61 320.551,401.61 311.5,421.5C 312.968,416.366 314.635,411.199 316.5,406C 316.333,405.167 316.167,404.333 316,403.5C 315.667,403.833 315.333,404.167 315,404.5C 314.125,407.401 312.958,410.068 311.5,412.5C 307.809,411.641 305.642,409.307 305,405.5C 304.317,409.431 305.15,412.931 307.5,416C 304.189,421.838 302.522,421.004 302.5,413.5C 300.119,415.392 297.453,415.892 294.5,415C 296.059,414.02 297.726,413.187 299.5,412.5C 299.333,412.167 299.167,411.833 299,411.5C 296.393,412.27 293.727,412.937 291,413.5C 289.498,415.175 287.998,416.841 286.5,418.5C 285.554,418.013 284.554,417.68 283.5,417.5C 273.355,418.793 263.188,420.126 253,421.5C 246.572,419.622 242.072,415.622 239.5,409.5C 233.347,408.86 230.347,405.694 230.5,400C 229.5,399.667 228.5,399.333 227.5,399C 227.974,397.271 228.974,396.105 230.5,395.5C 231.167,395.833 231.833,396.167 232.5,396.5C 235.601,399.933 239.268,402.6 243.5,404.5C 247.339,408.31 252.006,410.643 257.5,411.5C 262.985,412.652 268.651,412.818 274.5,412C 275.056,411.617 275.389,411.117 275.5,410.5C 280.311,410.353 284.311,408.686 287.5,405.5C 292.136,405.852 295.136,403.852 296.5,399.5C 298.519,398.462 298.853,397.128 297.5,395.5C 295.066,394.015 292.733,392.348 290.5,390.5C 286.963,386.065 282.297,383.732 276.5,383.5C 277.953,382.175 277.619,381.342 275.5,381C 266.13,379.438 256.797,379.438 247.5,381C 245.68,381.2 244.347,382.034 243.5,383.5C 239.59,384.852 235.59,386.018 231.5,387C 230.309,387.698 229.309,388.531 228.5,389.5C 227.909,388.849 227.243,388.182 226.5,387.5C 228.205,385.697 230.038,385.031 232,385.5C 234.096,384.285 233.929,383.451 231.5,383C 232.833,382.333 234.167,381.667 235.5,381C 233.485,379.445 233.152,377.611 234.5,375.5C 236.761,377.173 238.428,376.84 239.5,374.5C 241.402,375.511 243.402,375.678 245.5,375C 250.141,370.263 253.475,370.763 255.5,376.5C 259.349,376.403 263.183,376.069 267,375.5C 270.422,376.211 273.755,377.211 277,378.5C 277.772,378.355 278.439,378.022 279,377.5C 280.544,380.264 281.711,380.097 282.5,377C 284.433,376.749 286.266,376.249 288,375.5C 292.733,378.36 297.066,381.694 301,385.5C 301.535,383.729 302.369,383.396 303.5,384.5C 302.832,388.498 302.832,392.665 303.5,397C 306.366,398.198 308.2,400.365 309,403.5C 311.314,396.772 313.814,390.105 316.5,383.5C 317.5,383.5 318.5,383.5 319.5,383.5C 319.34,381.801 319.506,380.134 320,378.5C 320.333,381.167 320.667,383.833 321,386.5C 321.333,386.167 321.667,385.833 322,385.5C 324.469,379.571 326.636,373.571 328.5,367.5C 329.675,367.719 330.675,367.386 331.5,366.5C 330.277,359.004 330.277,351.338 331.5,343.5C 331.333,340.833 331.167,338.167 331,335.5C 329.134,333.481 327.967,331.148 327.5,328.5C 328.847,325.493 330.18,322.493 331.5,319.5C 335.005,319.306 335.338,318.306 332.5,316.5C 330.73,315.236 329.063,313.736 327.5,312C 327.031,308.359 327.531,304.859 329,301.5C 326.649,300.286 324.149,299.452 321.5,299C 322.167,297.667 322.833,296.333 323.5,295C 320.722,293.608 317.722,293.108 314.5,293.5C 315.942,292.18 316.608,290.514 316.5,288.5C 322.821,289.573 329.155,289.406 335.5,288C 336.516,287.481 337.182,286.647 337.5,285.5C 337.098,283.7 336.431,282.033 335.5,280.5 Z"/></g>
<g><path style="opacity:1" fill="#648897" d="M 108.5,279.5 C 107.533,349.49 107.2,419.49 107.5,489.5C 107.5,494.5 107.5,499.5 107.5,504.5C 106.622,499.56 106.122,493.227 106,485.5C 105.551,419.115 105.384,352.782 105.5,286.5C 106.869,284.236 107.869,281.903 108.5,279.5 Z"/></g>
<g><path style="opacity:1" fill="#a27f53" d="M 239.5,374.5 C 238.428,376.84 236.761,377.173 234.5,375.5C 233.152,377.611 233.485,379.445 235.5,381C 234.167,381.667 232.833,382.333 231.5,383C 233.929,383.451 234.096,384.285 232,385.5C 230.038,385.031 228.205,385.697 226.5,387.5C 227.243,388.182 227.909,388.849 228.5,389.5C 227.448,389.351 226.448,389.517 225.5,390C 227.373,391.704 229.04,393.537 230.5,395.5C 228.974,396.105 227.974,397.271 227.5,399C 228.5,399.333 229.5,399.667 230.5,400C 230.347,405.694 233.347,408.86 239.5,409.5C 242.072,415.622 246.572,419.622 253,421.5C 263.188,420.126 273.355,418.793 283.5,417.5C 284.554,417.68 285.554,418.013 286.5,418.5C 287.998,416.841 289.498,415.175 291,413.5C 293.727,412.937 296.393,412.27 299,411.5C 299.167,411.833 299.333,412.167 299.5,412.5C 297.726,413.187 296.059,414.02 294.5,415C 297.453,415.892 300.119,415.392 302.5,413.5C 302.522,421.004 304.189,421.838 307.5,416C 305.15,412.931 304.317,409.431 305,405.5C 305.642,409.307 307.809,411.641 311.5,412.5C 310.725,416.124 309.225,419.458 307,422.5C 306.667,421.833 306.333,421.167 306,420.5C 305.826,423.871 304.326,424.871 301.5,423.5C 301.467,424.989 300.967,426.322 300,427.5C 299.667,426.167 299.333,424.833 299,423.5C 297.113,425.026 296.113,427.026 296,429.5C 295.506,427.866 295.34,426.199 295.5,424.5C 288.534,423.17 281.2,422.67 273.5,423C 271.879,426.15 269.546,426.984 266.5,425.5C 265.713,426.242 265.047,427.075 264.5,428C 257.653,430.58 250.653,432.913 243.5,435C 242.244,435.417 241.577,436.25 241.5,437.5C 239.938,437.267 238.605,436.6 237.5,435.5C 232.563,432.694 227.563,429.861 222.5,427C 221.667,425.5 220.5,424.333 219,423.5C 217.612,424.554 216.112,424.72 214.5,424C 208.259,420.057 202.259,415.891 196.5,411.5C 197.048,410.312 197.381,409.145 197.5,408C 196.167,407.333 195.167,406.333 194.5,405C 193.167,404.667 191.833,404.333 190.5,404C 190.957,403.586 191.291,403.086 191.5,402.5C 189.833,401.833 188.167,401.167 186.5,400.5C 186.975,396.568 185.975,392.901 183.5,389.5C 184.759,386.997 186.092,384.497 187.5,382C 185.945,379.669 186.279,377.669 188.5,376C 187.833,375.667 187.167,375.333 186.5,375C 188.068,372.696 189.235,370.196 190,367.5C 190.833,356.846 191.333,346.18 191.5,335.5C 192.5,335.5 193.5,335.5 194.5,335.5C 195.833,335.5 197.167,335.5 198.5,335.5C 199.303,330.524 202.136,327.191 207,325.5C 207.495,323.527 207.662,321.527 207.5,319.5C 212.833,319.5 218.167,319.5 223.5,319.5C 223.338,321.527 223.505,323.527 224,325.5C 225.918,326.542 227.751,327.708 229.5,329C 227.798,330.718 225.965,330.885 224,329.5C 220.002,331.113 216.168,332.947 212.5,335C 218.825,335.5 225.158,335.666 231.5,335.5C 231.5,340.833 231.5,346.167 231.5,351.5C 232.833,351.5 234.167,351.5 235.5,351.5C 235.5,356.833 235.5,362.167 235.5,367.5C 236.833,367.5 238.167,367.5 239.5,367.5C 239.5,368.5 239.5,369.5 239.5,370.5C 244.561,371.483 244.561,372.816 239.5,374.5 Z"/></g>
<g><path style="opacity:1" fill="#9f805d" d="M 253.5,332.5 C 256.084,332.569 258.084,333.735 259.5,336C 266.224,336.766 272.724,338.266 279,340.5C 281.389,343.599 281.889,346.933 280.5,350.5C 281.025,351.192 281.692,351.692 282.5,352C 279.671,355.742 276.005,357.909 271.5,358.5C 271.5,360.167 271.5,361.833 271.5,363.5C 267.486,363.666 263.486,363.499 259.5,363C 259.167,362.667 258.833,362.333 258.5,362C 262.287,361.84 265.954,361.174 269.5,360C 264.773,359.148 260.106,358.481 255.5,358C 256.126,357.25 256.626,356.416 257,355.5C 261.737,356.469 266.57,356.803 271.5,356.5C 271.5,355.5 271.5,354.5 271.5,353.5C 264.483,354.426 257.483,354.426 250.5,353.5C 250.931,352.707 251.265,351.873 251.5,351C 248.88,347.555 248.88,344.055 251.5,340.5C 254.975,339.92 258.309,339.087 261.5,338C 258.372,337.125 255.372,335.958 252.5,334.5C 252.863,333.817 253.196,333.15 253.5,332.5 Z"/></g>
<g><path style="opacity:1" fill="#2a251a" d="M 271.5,341.5 C 266.034,342.724 260.367,343.557 254.5,344C 253.66,348.407 255.66,350.907 260.5,351.5C 265.47,350.771 270.47,350.271 275.5,350C 277.174,348.494 278.174,346.661 278.5,344.5C 280.504,349.047 278.837,351.547 273.5,352C 267.5,352.667 261.5,352.667 255.5,352C 252.316,349.563 251.316,346.563 252.5,343C 258.787,341.893 265.12,341.393 271.5,341.5 Z"/></g>
<g><path style="opacity:1" fill="#151108" d="M 271.5,341.5 C 273.199,341.34 274.866,341.506 276.5,342C 277.756,342.417 278.423,343.25 278.5,344.5C 278.174,346.661 277.174,348.494 275.5,350C 270.47,350.271 265.47,350.771 260.5,351.5C 255.66,350.907 253.66,348.407 254.5,344C 260.367,343.557 266.034,342.724 271.5,341.5 Z"/></g>
<g><path style="opacity:1" fill="#af7b65" d="M 276.5,383.5 C 271.167,382.833 265.833,382.167 260.5,381.5C 259.378,380.844 258.045,380.511 256.5,380.5C 252.111,381.297 247.778,382.297 243.5,383.5C 244.347,382.034 245.68,381.2 247.5,381C 256.797,379.438 266.13,379.438 275.5,381C 277.619,381.342 277.953,382.175 276.5,383.5 Z"/></g>
<g><path style="opacity:1" fill="#19140d" d="M 169.5,348.5 C 171.062,359.972 172.062,371.639 172.5,383.5C 172.45,390.141 173.45,396.474 175.5,402.5C 175.557,403.609 175.89,404.609 176.5,405.5C 174.965,404.646 173.632,404.646 172.5,405.5C 170.333,404.354 169,402.521 168.5,400C 169.448,399.517 170.448,399.351 171.5,399.5C 169.806,382.561 169.14,365.561 169.5,348.5 Z"/></g>
<g><path style="opacity:1" fill="#0a0803" d="M 341.5,295.5 C 342.331,308.327 342.831,321.327 343,334.5C 343.333,332.833 343.667,331.167 344,329.5C 344.339,332.036 344.839,334.536 345.5,337C 344.581,341.781 344.248,346.615 344.5,351.5C 345.5,351.5 346.5,351.5 347.5,351.5C 347.286,353.144 347.62,354.644 348.5,356C 346.44,357.493 346.107,359.326 347.5,361.5C 348.192,360.975 348.692,360.308 349,359.5C 349.624,361.464 349.124,363.131 347.5,364.5C 348.872,366.62 348.205,367.62 345.5,367.5C 344.167,372.833 342.833,378.167 341.5,383.5C 340.5,383.5 339.5,383.5 338.5,383.5C 338.111,387.808 336.777,391.808 334.5,395.5C 332.218,396.9 330.718,396.234 330,393.5C 330,395.5 330,397.5 330,399.5C 329.465,397.729 328.631,397.396 327.5,398.5C 328.169,401.19 329.503,402.523 331.5,402.5C 327.652,409.356 323.985,416.356 320.5,423.5C 319.692,421.577 319.192,419.577 319,417.5C 318.415,419.129 317.581,420.629 316.5,422C 317.022,422.95 317.689,423.784 318.5,424.5C 315.62,426.513 313.62,428.68 312.5,431C 313.5,431.333 314.5,431.667 315.5,432C 312.603,433.715 311.269,436.215 311.5,439.5C 310.5,439.5 309.5,439.5 308.5,439.5C 306.439,443.922 303.606,447.922 300,451.5C 299.51,452.793 299.343,454.127 299.5,455.5C 296.921,456.553 294.421,457.887 292,459.5C 291.808,461.577 291.308,463.577 290.5,465.5C 287.675,468.495 285.008,471.662 282.5,475C 280.03,476.793 277.53,478.627 275,480.5C 271.394,484.985 268.894,489.985 267.5,495.5C 268.978,495.238 270.311,495.571 271.5,496.5C 269.955,497.452 268.288,497.785 266.5,497.5C 266.64,499.124 265.973,500.29 264.5,501C 265.167,501.667 265.833,502.333 266.5,503C 263.524,504.882 260.358,506.382 257,507.5C 240.441,507.198 223.941,507.198 207.5,507.5C 209.292,506.691 211.292,506.191 213.5,506C 210.635,505.817 207.969,505.317 205.5,504.5C 206.735,504.279 207.735,503.612 208.5,502.5C 211.245,503.975 213.412,503.309 215,500.5C 215.825,498.299 215.325,496.466 213.5,495C 214.554,492.618 215.221,490.118 215.5,487.5C 212.951,487.441 210.951,488.441 209.5,490.5C 206.223,487.814 205.223,484.481 206.5,480.5C 204.74,477.788 204.073,474.788 204.5,471.5C 203.5,471.5 202.5,471.5 201.5,471.5C 201.223,468.552 201.556,465.719 202.5,463C 200.891,461.199 199.224,460.033 197.5,459.5C 198.167,458.5 198.833,457.5 199.5,456.5C 197.065,447.995 194.398,439.662 191.5,431.5C 192.873,431.657 194.207,431.49 195.5,431C 192.631,430.309 189.798,428.809 187,426.5C 186.405,425.101 186.572,423.768 187.5,422.5C 184.433,420.383 183.766,417.716 185.5,414.5C 183.708,414.634 182.042,414.301 180.5,413.5C 178.847,412.201 177.347,412.534 176,414.5C 174.729,411.518 173.562,408.518 172.5,405.5C 173.632,404.646 174.965,404.646 176.5,405.5C 180.701,408.1 185.034,410.434 189.5,412.5C 191.5,414.167 193.5,415.833 195.5,417.5C 195.751,419.17 196.418,420.67 197.5,422C 208.319,426.828 218.653,432.495 228.5,439C 232.728,440.662 237.061,441.829 241.5,442.5C 251.649,446.96 262.315,448.627 273.5,447.5C 276.85,447.665 280.183,447.498 283.5,447C 285.431,446.098 287.097,444.931 288.5,443.5C 293.188,441.826 297.188,439.159 300.5,435.5C 304.899,431.432 308.565,426.765 311.5,421.5C 320.551,401.61 329.384,381.61 338,361.5C 339.594,355.601 340.428,349.601 340.5,343.5C 341.496,327.675 341.83,311.675 341.5,295.5 Z"/></g>
<g><path style="opacity:1" fill="#618494" d="M 47.5,511.5 C 37.1667,511.5 26.8333,511.5 16.5,511.5C 20.9203,506.374 25.587,501.374 30.5,496.5C 26.8927,495.511 23.226,495.177 19.5,495.5C 19.5,490.167 19.5,484.833 19.5,479.5C 18.1667,479.5 16.8333,479.5 15.5,479.5C 15.2864,475.743 16.2864,475.076 18.5,477.5C 23.0643,475.46 23.3977,473.127 19.5,470.5C 19.6931,471.688 19.1931,473.022 18,474.5C 15.7912,471.211 14.9579,467.544 15.5,463.5C 17.2259,463.815 18.8925,463.981 20.5,464C 19.029,460.529 19.3623,457.195 21.5,454C 21.3893,452.278 20.8893,452.112 20,453.5C 19.0819,450.937 19.5819,448.77 21.5,447C 20.5,446 19.5,445 18.5,444C 21.308,443.007 24.1413,442.173 27,441.5C 27.1667,441.167 27.3333,440.833 27.5,440.5C 26.2713,439.719 24.938,439.219 23.5,439C 26.3762,436.825 28.8762,434.325 31,431.5C 30.9571,436.216 32.1238,440.549 34.5,444.5C 35.4519,442.955 35.7852,441.288 35.5,439.5C 39.5,439.5 43.5,439.5 47.5,439.5C 47.5,442.167 47.5,444.833 47.5,447.5C 46.1667,447.5 44.8333,447.5 43.5,447.5C 43.5,458.167 43.5,468.833 43.5,479.5C 44.8333,479.5 46.1667,479.5 47.5,479.5C 47.3379,481.527 47.5045,483.527 48,485.5C 52.8636,487.191 55.697,490.524 56.5,495.5C 58.8333,495.5 61.1667,495.5 63.5,495.5C 63.5,497.5 63.5,499.5 63.5,501.5C 66.1667,501.5 68.8333,501.5 71.5,501.5C 71.5,502.833 71.5,504.167 71.5,505.5C 64.6223,507.213 57.9556,506.547 51.5,503.5C 51.0604,504.698 50.727,505.865 50.5,507C 49.552,507.483 48.552,507.649 47.5,507.5C 47.5,508.833 47.5,510.167 47.5,511.5 Z"/></g>
<g><path style="opacity:1" fill="#030608" d="M 360.5,343.5 C 361.608,397.002 361.608,450.668 360.5,504.5C 360.5,506.833 360.5,509.167 360.5,511.5C 276.5,511.5 192.5,511.5 108.5,511.5C 108.802,508.941 108.468,506.607 107.5,504.5C 107.5,499.5 107.5,494.5 107.5,489.5C 108.224,492.083 109.057,494.749 110,497.5C 110.333,458.5 110.667,419.5 111,380.5C 111.333,417.5 111.667,454.5 112,491.5C 112.309,492.766 112.809,493.933 113.5,495C 117.136,495.626 117.136,496.793 113.5,498.5C 115.27,501.193 115.937,504.193 115.5,507.5C 117.484,507.617 119.15,506.95 120.5,505.5C 123.064,505.371 125.731,505.704 128.5,506.5C 129.308,506.192 129.975,505.692 130.5,505C 137.495,504.423 144.495,503.923 151.5,503.5C 159.587,504.586 167.587,505.919 175.5,507.5C 175.201,505.396 175.534,503.396 176.5,501.5C 179.078,503.531 181.744,505.364 184.5,507C 192.171,508.597 199.838,508.764 207.5,507.5C 231.054,509.51 254.721,509.343 278.5,507C 281.211,506.227 283.711,505.06 286,503.5C 289.014,504.693 292.181,505.359 295.5,505.5C 300.833,504.833 306.167,504.167 311.5,503.5C 314.819,503.641 317.986,504.307 321,505.5C 322.722,505.389 322.888,504.889 321.5,504C 326.075,501.922 330.742,500.089 335.5,498.5C 335.5,497.5 335.5,496.5 335.5,495.5C 332.5,495.5 329.5,495.5 326.5,495.5C 327.303,490.524 330.136,487.191 335,485.5C 335.333,486.833 335.667,488.167 336,489.5C 340.18,487.987 343.013,485.154 344.5,481C 342.036,477.518 342.702,474.518 346.5,472C 348.578,469.866 350.412,470.032 352,472.5C 352.497,474.81 352.663,477.143 352.5,479.5C 349.452,479.494 348.952,480.494 351,482.5C 351.499,486.821 351.666,491.154 351.5,495.5C 352.833,495.5 354.167,495.5 355.5,495.5C 355.421,493.334 354.754,491.334 353.5,489.5C 354.327,486.217 354.66,482.884 354.5,479.5C 355.5,479.5 356.5,479.5 357.5,479.5C 358.758,473.504 358.758,467.504 357.5,461.5C 357.667,460.167 357.833,458.833 358,457.5C 358.813,465.167 359.479,464.834 360,456.5C 360.5,418.835 360.667,381.168 360.5,343.5 Z"/></g>
<g><path style="opacity:1" fill="#392114" d="M 288.5,443.5 C 287.097,444.931 285.431,446.098 283.5,447C 280.183,447.498 276.85,447.665 273.5,447.5C 278.664,447.028 283.664,445.695 288.5,443.5 Z"/></g>
<g><path style="opacity:1" fill="#bb9269" d="M 300.5,435.5 C 297.188,439.159 293.188,441.826 288.5,443.5C 283.664,445.695 278.664,447.028 273.5,447.5C 262.315,448.627 251.649,446.96 241.5,442.5C 239.928,441.313 238.261,440.313 236.5,439.5C 233.598,437.395 233.932,436.062 237.5,435.5C 238.605,436.6 239.938,437.267 241.5,437.5C 242.091,438.151 242.757,438.818 243.5,439.5C 258.535,444.107 273.869,444.441 289.5,440.5C 292.824,438.504 296.157,436.504 299.5,434.5C 300.107,434.624 300.44,434.957 300.5,435.5 Z"/></g>
<g><path style="opacity:1" fill="#b49263" d="M 196.5,411.5 C 202.259,415.891 208.259,420.057 214.5,424C 216.112,424.72 217.612,424.554 219,423.5C 220.5,424.333 221.667,425.5 222.5,427C 227.563,429.861 232.563,432.694 237.5,435.5C 233.932,436.062 233.598,437.395 236.5,439.5C 223.024,431.927 209.357,424.594 195.5,417.5C 193.5,415.833 191.5,414.167 189.5,412.5C 188.462,410.892 189.129,409.892 191.5,409.5C 192.842,411.005 194.508,411.672 196.5,411.5 Z"/></g>
<g><path style="opacity:1" fill="#ac875b" d="M 311.5,421.5 C 308.565,426.765 304.899,431.432 300.5,435.5C 300.44,434.957 300.107,434.624 299.5,434.5C 296.157,436.504 292.824,438.504 289.5,440.5C 273.869,444.441 258.535,444.107 243.5,439.5C 242.757,438.818 242.091,438.151 241.5,437.5C 241.577,436.25 242.244,435.417 243.5,435C 250.653,432.913 257.653,430.58 264.5,428C 265.047,427.075 265.713,426.242 266.5,425.5C 269.546,426.984 271.879,426.15 273.5,423C 281.2,422.67 288.534,423.17 295.5,424.5C 295.34,426.199 295.506,427.866 296,429.5C 296.113,427.026 297.113,425.026 299,423.5C 299.333,424.833 299.667,426.167 300,427.5C 300.967,426.322 301.467,424.989 301.5,423.5C 304.326,424.871 305.826,423.871 306,420.5C 306.333,421.167 306.667,421.833 307,422.5C 309.225,419.458 310.725,416.124 311.5,412.5C 312.958,410.068 314.125,407.401 315,404.5C 315.333,404.167 315.667,403.833 316,403.5C 316.167,404.333 316.333,405.167 316.5,406C 314.635,411.199 312.968,416.366 311.5,421.5 Z"/></g>
<g><path style="opacity:1" fill="#16170b" d="M 195.5,417.5 C 209.357,424.594 223.024,431.927 236.5,439.5C 238.261,440.313 239.928,441.313 241.5,442.5C 237.061,441.829 232.728,440.662 228.5,439C 218.653,432.495 208.319,426.828 197.5,422C 196.418,420.67 195.751,419.17 195.5,417.5 Z"/></g>
<g><path style="opacity:1" fill="#080401" d="M 180.5,413.5 C 182.042,414.301 183.708,414.634 185.5,414.5C 183.766,417.716 184.433,420.383 187.5,422.5C 186.572,423.768 186.405,425.101 187,426.5C 189.798,428.809 192.631,430.309 195.5,431C 194.207,431.49 192.873,431.657 191.5,431.5C 194.398,439.662 197.065,447.995 199.5,456.5C 198.833,457.5 198.167,458.5 197.5,459.5C 199.224,460.033 200.891,461.199 202.5,463C 201.556,465.719 201.223,468.552 201.5,471.5C 202.5,471.5 203.5,471.5 204.5,471.5C 204.073,474.788 204.74,477.788 206.5,480.5C 205.223,484.481 206.223,487.814 209.5,490.5C 210.951,488.441 212.951,487.441 215.5,487.5C 215.221,490.118 214.554,492.618 213.5,495C 215.325,496.466 215.825,498.299 215,500.5C 213.412,503.309 211.245,503.975 208.5,502.5C 207.735,503.612 206.735,504.279 205.5,504.5C 202.428,504.817 199.428,504.484 196.5,503.5C 198.075,500.635 200.075,498.135 202.5,496C 202.579,494.093 202.246,492.093 201.5,490C 198.428,488.228 195.095,487.061 191.5,486.5C 189.07,484.947 187.07,482.947 185.5,480.5C 182.232,479.513 178.898,479.18 175.5,479.5C 175.5,476.5 175.5,473.5 175.5,470.5C 174.325,470.719 173.325,470.386 172.5,469.5C 171.652,467.591 171.318,465.591 171.5,463.5C 169.833,463.5 168.167,463.5 166.5,463.5C 167.303,458.524 170.136,455.191 175,453.5C 175.5,446.174 175.666,438.841 175.5,431.5C 177.5,431.5 179.5,431.5 181.5,431.5C 181.394,426.181 180.061,421.181 177.5,416.5C 177.516,414.484 178.516,413.484 180.5,413.5 Z"/></g>
<g><path style="opacity:1" fill="#a96450" d="M 271.5,410.5 C 272.833,410.5 274.167,410.5 275.5,410.5C 275.389,411.117 275.056,411.617 274.5,412C 268.651,412.818 262.985,412.652 257.5,411.5C 262.363,411.819 267.03,411.486 271.5,410.5 Z"/></g>
<g><path style="opacity:1" fill="#aa6457" d="M 287.5,405.5 C 284.311,408.686 280.311,410.353 275.5,410.5C 279.261,408.462 283.261,406.796 287.5,405.5 Z"/></g>
<g><path style="opacity:1" fill="#ac6b5d" d="M 295.5,399.5 C 295.833,399.5 296.167,399.5 296.5,399.5C 295.136,403.852 292.136,405.852 287.5,405.5C 288.306,404.272 289.306,403.272 290.5,402.5C 292.368,401.737 294.035,400.737 295.5,399.5 Z"/></g>
<g><path style="opacity:1" fill="#940525" d="M 290.5,402.5 C 289.306,403.272 288.306,404.272 287.5,405.5C 283.261,406.796 279.261,408.462 275.5,410.5C 274.167,410.5 272.833,410.5 271.5,410.5C 264.793,411.151 258.46,409.985 252.5,407C 253.047,406.075 253.713,405.242 254.5,404.5C 256.432,405.52 258.432,405.687 260.5,405C 259.167,404 259.167,403 260.5,402C 259.833,401.333 259.167,400.667 258.5,400C 265.5,399.333 272.5,399.333 279.5,400C 281.63,400.967 283.63,402.134 285.5,403.5C 287.135,402.954 288.801,402.62 290.5,402.5 Z"/></g>
<g><path style="opacity:1" fill="#800c23" d="M 235.5,397.5 C 241.987,396.922 248.653,396.922 255.5,397.5C 268.664,398.449 281.997,399.115 295.5,399.5C 294.035,400.737 292.368,401.737 290.5,402.5C 288.801,402.62 287.135,402.954 285.5,403.5C 283.63,402.134 281.63,400.967 279.5,400C 272.5,399.333 265.5,399.333 258.5,400C 259.167,400.667 259.833,401.333 260.5,402C 259.167,403 259.167,404 260.5,405C 258.432,405.687 256.432,405.52 254.5,404.5C 253.713,405.242 253.047,406.075 252.5,407C 258.46,409.985 264.793,411.151 271.5,410.5C 267.03,411.486 262.363,411.819 257.5,411.5C 252.006,410.643 247.339,408.31 243.5,404.5C 242.435,400.44 239.768,398.107 235.5,397.5 Z"/></g>
<g><path style="opacity:1" fill="#812a2d" d="M 232.5,396.5 C 233.609,396.557 234.609,396.89 235.5,397.5C 239.768,398.107 242.435,400.44 243.5,404.5C 239.268,402.6 235.601,399.933 232.5,396.5 Z"/></g>
<g><path style="opacity:1" fill="#5e0316" d="M 276.5,386.5 C 278.748,388.859 280.081,391.692 280.5,395C 286.108,396.774 291.774,396.941 297.5,395.5C 298.853,397.128 298.519,398.462 296.5,399.5C 296.167,399.5 295.833,399.5 295.5,399.5C 281.997,399.115 268.664,398.449 255.5,397.5C 263.167,397.5 270.833,397.5 278.5,397.5C 278.863,395.089 277.863,393.589 275.5,393C 272.854,392.503 270.187,392.336 267.5,392.5C 267.5,392.167 267.5,391.833 267.5,391.5C 268.5,391.5 269.5,391.5 270.5,391.5C 271.451,390.081 271.784,388.415 271.5,386.5C 273.167,386.5 274.833,386.5 276.5,386.5 Z"/></g>
<g><path style="opacity:1" fill="#400010" d="M 248.5,392.5 C 254.833,392.5 261.167,392.5 267.5,392.5C 270.187,392.336 272.854,392.503 275.5,393C 277.863,393.589 278.863,395.089 278.5,397.5C 270.833,397.5 263.167,397.5 255.5,397.5C 255.5,397.167 255.5,396.833 255.5,396.5C 252.102,396.82 248.768,396.487 245.5,395.5C 246.77,394.712 247.77,393.712 248.5,392.5 Z"/></g>
<g><path style="opacity:1" fill="#21020b" d="M 255.5,396.5 C 253.708,395.691 251.708,395.191 249.5,395C 250.167,394.667 250.833,394.333 251.5,394C 259.167,393.333 266.833,393.333 274.5,394C 274.957,394.414 275.291,394.914 275.5,395.5C 268.866,396.497 262.2,396.83 255.5,396.5 Z"/></g>
<g><path style="opacity:1" fill="#633322" d="M 228.5,389.5 C 228.842,390.338 229.508,390.672 230.5,390.5C 230.5,391.167 230.833,391.5 231.5,391.5C 232.038,393.117 232.371,394.784 232.5,396.5C 231.833,396.167 231.167,395.833 230.5,395.5C 229.04,393.537 227.373,391.704 225.5,390C 226.448,389.517 227.448,389.351 228.5,389.5 Z"/></g>
<g><path style="opacity:1" fill="#660517" d="M 231.5,391.5 C 232.5,391.5 233.5,391.5 234.5,391.5C 238.97,392.486 243.637,392.819 248.5,392.5C 247.77,393.712 246.77,394.712 245.5,395.5C 248.768,396.487 252.102,396.82 255.5,396.5C 255.5,396.833 255.5,397.167 255.5,397.5C 248.653,396.922 241.987,396.922 235.5,397.5C 234.609,396.89 233.609,396.557 232.5,396.5C 232.371,394.784 232.038,393.117 231.5,391.5 Z"/></g>
<g><path style="opacity:1" fill="#735a42" d="M 172.5,383.5 C 174.99,389.463 175.99,395.796 175.5,402.5C 173.45,396.474 172.45,390.141 172.5,383.5 Z"/></g>
<g><path style="opacity:1" fill="#981433" d="M 279.5,385.5 C 283.017,387.424 286.684,389.091 290.5,390.5C 292.733,392.348 295.066,394.015 297.5,395.5C 291.774,396.941 286.108,396.774 280.5,395C 280.081,391.692 278.748,388.859 276.5,386.5C 277.609,386.443 278.609,386.11 279.5,385.5 Z"/></g>
<g><path style="opacity:1" fill="#a8163c" d="M 267.5,391.5 C 267.5,391.833 267.5,392.167 267.5,392.5C 261.167,392.5 254.833,392.5 248.5,392.5C 243.637,392.819 238.97,392.486 234.5,391.5C 235.681,389.933 237.347,389.099 239.5,389C 248.44,387.706 257.44,387.706 266.5,389C 267.252,389.671 267.586,390.504 267.5,391.5 Z"/></g>
<g><path style="opacity:1" fill="#861f32" d="M 260.5,381.5 C 265.833,382.167 271.167,382.833 276.5,383.5C 277.5,384.167 278.5,384.833 279.5,385.5C 278.609,386.11 277.609,386.443 276.5,386.5C 274.833,386.5 273.167,386.5 271.5,386.5C 271.784,388.415 271.451,390.081 270.5,391.5C 269.833,388.833 269.167,386.167 268.5,383.5C 264.167,383.5 259.833,383.5 255.5,383.5C 256.552,381.744 258.219,381.077 260.5,381.5 Z"/></g>
<g><path style="opacity:1" fill="#a52544" d="M 255.5,383.5 C 259.833,383.5 264.167,383.5 268.5,383.5C 269.167,386.167 269.833,388.833 270.5,391.5C 269.5,391.5 268.5,391.5 267.5,391.5C 267.586,390.504 267.252,389.671 266.5,389C 257.44,387.706 248.44,387.706 239.5,389C 237.347,389.099 235.681,389.933 234.5,391.5C 233.5,391.5 232.5,391.5 231.5,391.5C 230.833,391.5 230.5,391.167 230.5,390.5C 238.377,386.448 246.711,384.115 255.5,383.5 Z"/></g>
<g><path style="opacity:1" fill="#a9675a" d="M 260.5,381.5 C 258.219,381.077 256.552,381.744 255.5,383.5C 246.711,384.115 238.377,386.448 230.5,390.5C 229.508,390.672 228.842,390.338 228.5,389.5C 229.309,388.531 230.309,387.698 231.5,387C 235.59,386.018 239.59,384.852 243.5,383.5C 247.778,382.297 252.111,381.297 256.5,380.5C 258.045,380.511 259.378,380.844 260.5,381.5 Z"/></g>
<g><path style="opacity:1" fill="#c07c7a" d="M 276.5,383.5 C 282.297,383.732 286.963,386.065 290.5,390.5C 286.684,389.091 283.017,387.424 279.5,385.5C 278.5,384.833 277.5,384.167 276.5,383.5 Z"/></g>
</svg>
