<?xml version="1.0" encoding="UTF-8"?>
<!DOCTYPE svg PUBLIC "-//W3C//DTD SVG 1.1//EN" "http://www.w3.org/Graphics/SVG/1.1/DTD/svg11.dtd">
<svg xmlns="http://www.w3.org/2000/svg" version="1.1" width="512px" height="512px" style="shape-rendering:geometricPrecision; text-rendering:geometricPrecision; image-rendering:optimizeQuality; fill-rule:evenodd; clip-rule:evenodd" xmlns:xlink="http://www.w3.org/1999/xlink">
<g><path style="opacity:1" fill="#608293" d="M -0.5,-0.5 C 170.167,-0.5 340.833,-0.5 511.5,-0.5C 511.5,170.167 511.5,340.833 511.5,511.5C 473.5,511.5 435.5,511.5 397.5,511.5C 397.33,510.178 397.663,509.011 398.5,508C 397.975,507.308 397.308,506.808 396.5,506.5C 393.375,509.405 389.709,509.905 385.5,508C 386.5,507.167 387.5,506.333 388.5,505.5C 385.553,504.679 382.553,504.179 379.5,504C 380.993,502.632 382.493,502.465 384,503.5C 385.719,501.443 387.719,499.776 390,498.5C 394.586,503.965 400.252,506.632 407,506.5C 432.804,505.967 458.637,504.8 484.5,503C 487.039,501.195 488.039,498.695 487.5,495.5C 490.167,495.5 492.833,495.5 495.5,495.5C 494.38,490.942 496.047,488.109 500.5,487C 502.584,485.499 503.917,483.499 504.5,481C 503.532,469.872 503.199,458.706 503.5,447.5C 504.675,447.719 505.675,447.386 506.5,446.5C 504.5,441.833 502.5,437.167 500.5,432.5C 501.325,431.614 502.325,431.281 503.5,431.5C 503.073,428.624 502.406,425.791 501.5,423C 501.8,420.976 502.633,420.476 504,421.5C 504.353,422.672 504.187,423.838 503.5,425C 503.63,426.059 504.13,426.892 505,427.5C 506.037,421.606 505.371,415.939 503,410.5C 501.019,408.343 498.686,406.676 496,405.5C 495.501,400.845 495.334,396.179 495.5,391.5C 492.305,392.039 489.805,391.039 488,388.5C 487.5,381.508 487.334,374.508 487.5,367.5C 484.833,367.5 482.167,367.5 479.5,367.5C 479.5,370.167 479.5,372.833 479.5,375.5C 476.305,376.039 473.805,375.039 472,372.5C 471.5,365.508 471.334,358.508 471.5,351.5C 468.833,351.5 466.167,351.5 463.5,351.5C 463.5,348.833 463.5,346.167 463.5,343.5C 458.125,343.828 452.792,343.495 447.5,342.5C 449.045,341.548 450.712,341.215 452.5,341.5C 450.684,338.828 449.017,335.995 447.5,333C 447.495,330.837 448.495,329.337 450.5,328.5C 446.063,328.776 442.397,328.109 439.5,326.5C 439.5,325.5 439.5,324.5 439.5,323.5C 442.961,324.111 445.628,322.944 447.5,320C 445.885,316.923 444.885,313.59 444.5,310C 440.977,311.082 437.31,311.415 433.5,311C 437.973,308.097 438.64,304.43 435.5,300C 435.439,297.721 436.105,295.721 437.5,294C 435.943,290.004 435.109,285.838 435,281.5C 432.711,282.022 430.544,281.355 428.5,279.5C 427.52,276.914 427.187,274.247 427.5,271.5C 429.143,271.48 430.476,272.147 431.5,273.5C 433.333,272.032 433.666,270.365 432.5,268.5C 430.802,269.681 429.135,269.681 427.5,268.5C 428.689,267.571 430.022,267.238 431.5,267.5C 431.5,266.5 431.5,265.5 431.5,264.5C 429.5,264.5 427.5,264.5 425.5,264.5C 427.102,261.298 426.768,258.298 424.5,255.5C 422.709,257.021 421.376,258.854 420.5,261C 419.552,261.483 418.552,261.649 417.5,261.5C 418.847,258.278 420.513,255.111 422.5,252C 420.377,250.806 418.043,250.14 415.5,250C 423.796,246.918 426.129,241.418 422.5,233.5C 420.49,231.829 418.157,231.162 415.5,231.5C 415.666,226.821 415.499,222.155 415,217.5C 410.136,215.809 407.303,212.476 406.5,207.5C 404.167,207.5 401.833,207.5 399.5,207.5C 399.5,204.833 399.5,202.167 399.5,199.5C 395.833,199.5 392.167,199.5 388.5,199.5C 390.891,197.385 392.224,194.719 392.5,191.5C 389.5,191.5 386.5,191.5 383.5,191.5C 383.5,187.5 383.5,183.5 383.5,179.5C 380.348,178.959 377.848,179.959 376,182.5C 373.31,181.071 370.477,180.071 367.5,179.5C 367.5,177.5 367.5,175.5 367.5,173.5C 360.871,173.934 357.038,170.934 356,164.5C 353.634,162.788 351.301,161.122 349,159.5C 346.851,160.299 344.684,161.133 342.5,162C 342.833,162.333 343.167,162.667 343.5,163C 341.606,164.101 340.939,165.434 341.5,167C 342.993,168.368 344.493,168.535 346,167.5C 346.308,168.308 346.808,168.975 347.5,169.5C 348.696,169.154 348.696,168.654 347.5,168C 348.793,167.51 350.127,167.343 351.5,167.5C 351.669,169.912 351.003,172.079 349.5,174C 349.905,174.945 350.572,175.612 351.5,176C 350.396,177.131 350.729,177.965 352.5,178.5C 353.452,180.045 353.785,181.712 353.5,183.5C 350.012,180.912 346.679,178.078 343.5,175C 337.5,172.333 331.5,169.667 325.5,167C 311.661,156.494 295.995,150.494 278.5,149C 268.702,142.768 258.369,137.601 247.5,133.5C 245.052,132.527 242.385,132.194 239.5,132.5C 241.101,134.023 242.435,137.023 243.5,141.5C 241.833,141.5 240.167,141.5 238.5,141.5C 238.5,142.5 238.5,143.5 238.5,144.5C 234.873,145.429 231.207,146.263 227.5,147C 226.635,148.359 225.635,149.526 224.5,150.5C 223.167,152.5 221.5,154.167 219.5,155.5C 216.294,154.921 213.294,153.921 210.5,152.5C 206.859,149.128 202.692,147.461 198,147.5C 196.113,149.062 195.28,150.729 195.5,152.5C 194.065,151.176 193.065,149.51 192.5,147.5C 191.692,149.423 191.192,151.423 191,153.5C 190.29,152.027 189.124,151.36 187.5,151.5C 187.306,154.33 186.639,156.996 185.5,159.5C 184.167,159.5 182.833,159.5 181.5,159.5C 181.079,163.266 179.079,165.933 175.5,167.5C 177.006,168.747 178.506,168.747 180,167.5C 180.5,168 181,168.5 181.5,169C 178.517,171.079 175.183,171.913 171.5,171.5C 171.799,173.604 171.466,175.604 170.5,177.5C 168.679,178.728 167.679,180.394 167.5,182.5C 166.5,182.5 165.5,182.5 164.5,182.5C 164.5,183.833 164.5,185.167 164.5,186.5C 156.008,196.135 147.508,205.802 139,215.5C 134.657,222.868 132.491,230.868 132.5,239.5C 131.833,242.5 131.167,245.5 130.5,248.5C 128.518,250.502 126.852,252.835 125.5,255.5C 122.654,255.809 121.154,257.475 121,260.5C 120.333,259.167 119.667,259.167 119,260.5C 116.706,264.141 114.373,267.807 112,271.5C 111.667,273.5 111.333,275.5 111,277.5C 105.668,285.808 103.501,294.975 104.5,305C 104.667,309.167 104.833,313.333 105,317.5C 107.11,325.265 108.943,333.099 110.5,341C 110.415,342.107 110.081,343.107 109.5,344C 113.043,351.66 116.209,359.493 119,367.5C 119.417,366.244 120.25,365.577 121.5,365.5C 124.275,372.267 126.275,379.267 127.5,386.5C 129.749,395.406 131.749,404.406 133.5,413.5C 133.322,414.695 132.989,415.862 132.5,417C 134.787,421.355 136.787,425.855 138.5,430.5C 136.96,431.532 136.46,432.865 137,434.5C 138.74,435.716 139.74,437.382 140,439.5C 141.84,438.167 142.34,438.334 141.5,440C 142.167,441 142.833,442 143.5,443C 142.328,443.419 141.328,444.085 140.5,445C 141.833,445.667 141.833,446.333 140.5,447C 141.448,447.483 142.448,447.649 143.5,447.5C 143.351,446.448 143.517,445.448 144,444.5C 144.333,444.833 144.667,445.167 145,445.5C 145.842,451.823 147.342,457.823 149.5,463.5C 147.339,463.174 145.506,462.174 144,460.5C 144.619,463.394 145.286,466.394 146,469.5C 146.833,468.5 147.667,467.5 148.5,466.5C 149.44,471.047 151.44,475.047 154.5,478.5C 153.305,479.967 153.305,481.467 154.5,483C 156.207,484.509 157.873,486.009 159.5,487.5C 162.107,491.53 164.274,495.864 166,500.5C 167.31,504.07 168.143,507.737 168.5,511.5C 112.167,511.5 55.8333,511.5 -0.5,511.5C -0.5,340.833 -0.5,170.167 -0.5,-0.5 Z"/></g>
<g><path style="opacity:1" fill="#618296" d="M 261.5,15.5 C 268.167,15.5 274.833,15.5 281.5,15.5C 281.279,36.8703 281.946,58.2036 283.5,79.5C 284.833,79.5 286.167,79.5 287.5,79.5C 287.5,78.1667 287.5,76.8333 287.5,75.5C 292.833,75.5 298.167,75.5 303.5,75.5C 303.372,77.6547 303.872,79.6547 305,81.5C 309.333,85.5 313.667,89.5 318,93.5C 319.092,96.0444 319.759,98.7111 320,101.5C 324.864,103.191 327.697,106.524 328.5,111.5C 325.5,111.5 322.5,111.5 319.5,111.5C 320.729,120.451 318.229,122.118 312,116.5C 310.991,114.975 310.491,113.308 310.5,111.5C 305.5,111.5 300.5,111.5 295.5,111.5C 296.039,108.305 295.039,105.805 292.5,104C 285.508,103.5 278.508,103.334 271.5,103.5C 271.5,102.167 271.5,100.833 271.5,99.5C 266.167,99.5 260.833,99.5 255.5,99.5C 255.628,97.3453 255.128,95.3453 254,93.5C 249.5,89.1667 245,84.8333 240.5,80.5C 242.743,79.5258 245.076,79.1924 247.5,79.5C 247.5,74.1667 247.5,68.8333 247.5,63.5C 250.167,63.5 252.833,63.5 255.5,63.5C 255.335,60.1501 255.502,56.8168 256,53.5C 263.333,49.5 263.333,45.5 256,41.5C 255.333,34.8333 255.333,28.1667 256,21.5C 259.085,20.5844 260.918,18.5844 261.5,15.5 Z"/></g>
<g><path style="opacity:1" fill="#010101" d="M 247.5,133.5 C 258.369,137.601 268.702,142.768 278.5,149C 295.995,150.494 311.661,156.494 325.5,167C 331.5,169.667 337.5,172.333 343.5,175C 346.679,178.078 350.012,180.912 353.5,183.5C 356.606,187.709 358.606,192.376 359.5,197.5C 359.66,229.039 358.66,260.539 356.5,292C 357.329,302.364 357.662,312.864 357.5,323.5C 356.834,330.153 356.334,336.819 356,343.5C 355.768,342.263 355.268,341.263 354.5,340.5C 353.488,337.61 353.822,334.776 355.5,332C 355.691,330.027 355.024,328.527 353.5,327.5C 352.682,330.107 352.182,332.774 352,335.5C 351.774,331.113 351.274,326.779 350.5,322.5C 351.708,318.144 352.708,313.477 353.5,308.5C 351.876,308.64 350.71,307.973 350,306.5C 348.982,307.706 348.482,307.373 348.5,305.5C 350.976,295.554 351.143,285.554 349,275.5C 348.444,277.595 347.944,277.762 347.5,276C 348.148,274.56 348.481,273.06 348.5,271.5C 348.662,269.473 348.495,267.473 348,265.5C 346.005,259.218 344.005,252.885 342,246.5C 339.88,246.374 337.714,246.041 335.5,245.5C 334.273,244.41 333.44,243.076 333,241.5C 332.667,241.833 332.333,242.167 332,242.5C 332.979,240.721 332.646,239.055 331,237.5C 330.632,238.91 329.799,239.91 328.5,240.5C 321.852,240.43 315.186,240.264 308.5,240C 303.914,242.592 300.748,246.426 299,251.5C 298.503,249.19 298.337,246.857 298.5,244.5C 298.402,242.447 299.069,240.78 300.5,239.5C 303.883,236.477 307.549,233.81 311.5,231.5C 317.704,229.365 324.038,227.699 330.5,226.5C 332.117,225.962 333.784,225.629 335.5,225.5C 334.544,221.734 332.044,220.067 328,220.5C 326.5,220.667 325,220.833 323.5,221C 319.796,222.381 316.463,224.214 313.5,226.5C 312.167,227.5 310.833,228.5 309.5,229.5C 307.856,229.286 306.356,229.62 305,230.5C 302.484,227.133 299.318,224.8 295.5,223.5C 295.029,219.497 293.029,216.331 289.5,214C 278.153,210.128 266.82,209.628 255.5,212.5C 241.496,212.333 227.496,212.5 213.5,213C 212.424,214.726 212.257,216.559 213,218.5C 214.578,221.657 215.578,224.991 216,228.5C 216.383,229.056 216.883,229.389 217.5,229.5C 217.286,231.144 217.62,232.644 218.5,234C 217.975,234.692 217.308,235.192 216.5,235.5C 213.047,234.544 210.547,232.544 209,229.5C 201.61,231.561 194.11,233.728 186.5,236C 184.256,238.201 181.589,239.701 178.5,240.5C 175.466,244.889 172.799,249.556 170.5,254.5C 169.675,255.386 168.675,255.719 167.5,255.5C 167.462,258.951 166.795,262.284 165.5,265.5C 167.785,273.566 171.785,280.732 177.5,287C 179.843,288.415 182.177,288.582 184.5,287.5C 191.609,287.73 198.609,288.563 205.5,290C 201.975,290.179 198.641,290.679 195.5,291.5C 193.139,291.674 190.806,292.007 188.5,292.5C 184.514,292.625 180.848,293.625 177.5,295.5C 173.975,295.654 171.141,294.321 169,291.5C 167.646,287.637 167.146,283.637 167.5,279.5C 163.459,270.623 157.793,262.79 150.5,256C 148.63,254.634 146.63,253.467 144.5,252.5C 143.362,245.927 142.528,245.927 142,252.5C 139.546,250.987 137.879,251.654 137,254.5C 136.333,253.833 135.667,253.167 135,252.5C 134.74,254.618 133.74,256.284 132,257.5C 131.964,251.513 132.131,245.513 132.5,239.5C 132.491,230.868 134.657,222.868 139,215.5C 147.508,205.802 156.008,196.135 164.5,186.5C 167.082,183.302 170.082,180.635 173.5,178.5C 175.104,177.713 175.771,176.38 175.5,174.5C 177.698,174.88 179.365,174.213 180.5,172.5C 182.001,171.248 183.668,170.248 185.5,169.5C 186.583,169.461 187.583,169.127 188.5,168.5C 191.062,170.736 193.062,170.069 194.5,166.5C 195.488,165.205 196.488,163.872 197.5,162.5C 200.096,161.945 202.429,160.945 204.5,159.5C 208.184,158.628 209.184,156.461 207.5,153C 208.448,152.517 209.448,152.351 210.5,152.5C 213.294,153.921 216.294,154.921 219.5,155.5C 220.552,155.649 221.552,155.483 222.5,155C 226.192,152.402 229.859,149.902 233.5,147.5C 235.265,146.539 237.265,146.205 239.5,146.5C 239.5,145.5 239.5,144.5 239.5,143.5C 242.237,143.401 244.904,143.735 247.5,144.5C 248.287,146.104 249.62,146.771 251.5,146.5C 251.771,144.62 251.104,143.287 249.5,142.5C 245.988,140.332 243.655,137.332 242.5,133.5C 244.167,133.5 245.833,133.5 247.5,133.5 Z"/></g>
<g><path style="opacity:1" fill="#4c6777" d="M 247.5,133.5 C 245.833,133.5 244.167,133.5 242.5,133.5C 243.655,137.332 245.988,140.332 249.5,142.5C 249.5,143.833 248.833,144.5 247.5,144.5C 244.904,143.735 242.237,143.401 239.5,143.5C 239.5,144.5 239.5,145.5 239.5,146.5C 237.265,146.205 235.265,146.539 233.5,147.5C 230.318,148.03 227.318,149.03 224.5,150.5C 225.635,149.526 226.635,148.359 227.5,147C 231.207,146.263 234.873,145.429 238.5,144.5C 238.5,143.5 238.5,142.5 238.5,141.5C 240.167,141.5 241.833,141.5 243.5,141.5C 242.435,137.023 241.101,134.023 239.5,132.5C 242.385,132.194 245.052,132.527 247.5,133.5 Z"/></g>
<g><path style="opacity:1" fill="#38414c" d="M 249.5,142.5 C 251.104,143.287 251.771,144.62 251.5,146.5C 249.62,146.771 248.287,146.104 247.5,144.5C 248.833,144.5 249.5,143.833 249.5,142.5 Z"/></g>
<g><path style="opacity:1" fill="#273946" d="M 233.5,147.5 C 229.859,149.902 226.192,152.402 222.5,155C 221.552,155.483 220.552,155.649 219.5,155.5C 221.5,154.167 223.167,152.5 224.5,150.5C 227.318,149.03 230.318,148.03 233.5,147.5 Z"/></g>
<g><path style="opacity:1" fill="#263a46" d="M 204.5,159.5 C 202.429,160.945 200.096,161.945 197.5,162.5C 197.5,161.5 197.5,160.5 197.5,159.5C 199.833,159.5 202.167,159.5 204.5,159.5 Z"/></g>
<g><path style="opacity:1" fill="#597889" d="M 210.5,152.5 C 209.448,152.351 208.448,152.517 207.5,153C 209.184,156.461 208.184,158.628 204.5,159.5C 202.167,159.5 199.833,159.5 197.5,159.5C 197.5,160.5 197.5,161.5 197.5,162.5C 196.488,163.872 195.488,165.205 194.5,166.5C 193.417,166.461 192.417,166.127 191.5,165.5C 189.289,166.66 187.289,167.993 185.5,169.5C 183.668,170.248 182.001,171.248 180.5,172.5C 178.167,172.5 175.833,172.5 173.5,172.5C 173.5,174.5 173.5,176.5 173.5,178.5C 170.082,180.635 167.082,183.302 164.5,186.5C 164.5,185.167 164.5,183.833 164.5,182.5C 165.5,182.5 166.5,182.5 167.5,182.5C 167.679,180.394 168.679,178.728 170.5,177.5C 171.466,175.604 171.799,173.604 171.5,171.5C 175.183,171.913 178.517,171.079 181.5,169C 181,168.5 180.5,168 180,167.5C 178.506,168.747 177.006,168.747 175.5,167.5C 179.079,165.933 181.079,163.266 181.5,159.5C 182.833,159.5 184.167,159.5 185.5,159.5C 186.639,156.996 187.306,154.33 187.5,151.5C 189.124,151.36 190.29,152.027 191,153.5C 191.192,151.423 191.692,149.423 192.5,147.5C 193.065,149.51 194.065,151.176 195.5,152.5C 195.28,150.729 196.113,149.062 198,147.5C 202.692,147.461 206.859,149.128 210.5,152.5 Z"/></g>
<g><path style="opacity:1" fill="#253740" d="M 194.5,166.5 C 193.062,170.069 191.062,170.736 188.5,168.5C 187.583,169.127 186.583,169.461 185.5,169.5C 187.289,167.993 189.289,166.66 191.5,165.5C 192.417,166.127 193.417,166.461 194.5,166.5 Z"/></g>
<g><path style="opacity:1" fill="#2b4451" d="M 180.5,172.5 C 179.365,174.213 177.698,174.88 175.5,174.5C 175.771,176.38 175.104,177.713 173.5,178.5C 173.5,176.5 173.5,174.5 173.5,172.5C 175.833,172.5 178.167,172.5 180.5,172.5 Z"/></g>
<g><path style="opacity:1" fill="#618396" d="M 388.5,199.5 C 386.83,199.751 385.33,200.418 384,201.5C 383.176,204.882 383.343,208.216 384.5,211.5C 388.754,211.92 391.754,214.086 393.5,218C 395.218,218.346 396.885,218.846 398.5,219.5C 399.324,222.785 399.824,226.118 400,229.5C 402.447,232.032 405.114,234.366 408,236.5C 408.069,242.83 407.903,249.163 407.5,255.5C 409.167,255.5 410.833,255.5 412.5,255.5C 411.833,260.833 411.167,266.167 410.5,271.5C 407.833,271.5 405.167,271.5 402.5,271.5C 400.213,266.514 399.047,261.181 399,255.5C 394.333,260.167 389.667,264.833 385,269.5C 384.812,271.061 385.645,271.728 387.5,271.5C 387.5,276.833 387.5,282.167 387.5,287.5C 388.822,287.67 389.989,287.337 391,286.5C 391.333,290.167 391.667,293.833 392,297.5C 396.101,294.617 396.934,295.117 394.5,299C 395.593,302.621 397.259,305.121 399.5,306.5C 399.333,307.5 399.167,308.5 399,309.5C 394.606,311.06 391.772,314.06 390.5,318.5C 391.454,324.104 391.788,329.771 391.5,335.5C 388.833,335.5 386.167,335.5 383.5,335.5C 383.5,340.833 383.5,346.167 383.5,351.5C 382.167,351.5 380.833,351.5 379.5,351.5C 379.5,356.833 379.5,362.167 379.5,367.5C 373.34,368.672 373.006,371.172 378.5,375C 380.081,375.707 381.581,376.54 383,377.5C 383.667,392.167 383.667,406.833 383,421.5C 378.136,423.191 375.303,426.524 374.5,431.5C 375.5,431.5 376.5,431.5 377.5,431.5C 377.5,436.833 377.5,442.167 377.5,447.5C 373.833,447.5 370.167,447.5 366.5,447.5C 365.845,436.925 365.845,426.425 366.5,416C 364.793,406.734 363.793,397.234 363.5,387.5C 364.091,383.865 364.424,380.198 364.5,376.5C 363.351,351.845 362.018,327.512 360.5,303.5C 360.832,267.996 360.498,232.663 359.5,197.5C 358.606,192.376 356.606,187.709 353.5,183.5C 353.785,181.712 353.452,180.045 352.5,178.5C 350.729,177.965 350.396,177.131 351.5,176C 350.572,175.612 349.905,174.945 349.5,174C 351.003,172.079 351.669,169.912 351.5,167.5C 350.127,167.343 348.793,167.51 347.5,168C 348.696,168.654 348.696,169.154 347.5,169.5C 346.808,168.975 346.308,168.308 346,167.5C 344.493,168.535 342.993,168.368 341.5,167C 340.939,165.434 341.606,164.101 343.5,163C 343.167,162.667 342.833,162.333 342.5,162C 344.684,161.133 346.851,160.299 349,159.5C 351.301,161.122 353.634,162.788 356,164.5C 357.038,170.934 360.871,173.934 367.5,173.5C 367.5,175.5 367.5,177.5 367.5,179.5C 370.477,180.071 373.31,181.071 376,182.5C 377.848,179.959 380.348,178.959 383.5,179.5C 383.5,183.5 383.5,187.5 383.5,191.5C 386.5,191.5 389.5,191.5 392.5,191.5C 392.224,194.719 390.891,197.385 388.5,199.5 Z"/></g>
<g><path style="opacity:1" fill="#618394" d="M 388.5,199.5 C 392.167,199.5 395.833,199.5 399.5,199.5C 399.5,202.167 399.5,204.833 399.5,207.5C 401.833,207.5 404.167,207.5 406.5,207.5C 407.303,212.476 410.136,215.809 415,217.5C 415.499,222.155 415.666,226.821 415.5,231.5C 418.157,231.162 420.49,231.829 422.5,233.5C 426.129,241.418 423.796,246.918 415.5,250C 418.043,250.14 420.377,250.806 422.5,252C 420.513,255.111 418.847,258.278 417.5,261.5C 418.552,261.649 419.552,261.483 420.5,261C 421.376,258.854 422.709,257.021 424.5,255.5C 426.768,258.298 427.102,261.298 425.5,264.5C 427.5,264.5 429.5,264.5 431.5,264.5C 431.5,265.5 431.5,266.5 431.5,267.5C 430.022,267.238 428.689,267.571 427.5,268.5C 429.135,269.681 430.802,269.681 432.5,268.5C 433.666,270.365 433.333,272.032 431.5,273.5C 430.476,272.147 429.143,271.48 427.5,271.5C 427.187,274.247 427.52,276.914 428.5,279.5C 430.544,281.355 432.711,282.022 435,281.5C 435.109,285.838 435.943,290.004 437.5,294C 436.105,295.721 435.439,297.721 435.5,300C 438.64,304.43 437.973,308.097 433.5,311C 437.31,311.415 440.977,311.082 444.5,310C 444.885,313.59 445.885,316.923 447.5,320C 445.628,322.944 442.961,324.111 439.5,323.5C 439.5,324.5 439.5,325.5 439.5,326.5C 442.397,328.109 446.063,328.776 450.5,328.5C 448.495,329.337 447.495,330.837 447.5,333C 449.017,335.995 450.684,338.828 452.5,341.5C 450.712,341.215 449.045,341.548 447.5,342.5C 452.792,343.495 458.125,343.828 463.5,343.5C 463.5,346.167 463.5,348.833 463.5,351.5C 466.167,351.5 468.833,351.5 471.5,351.5C 471.334,358.508 471.5,365.508 472,372.5C 473.805,375.039 476.305,376.039 479.5,375.5C 479.5,372.833 479.5,370.167 479.5,367.5C 482.167,367.5 484.833,367.5 487.5,367.5C 487.334,374.508 487.5,381.508 488,388.5C 489.805,391.039 492.305,392.039 495.5,391.5C 495.334,396.179 495.501,400.845 496,405.5C 498.686,406.676 501.019,408.343 503,410.5C 505.371,415.939 506.037,421.606 505,427.5C 504.13,426.892 503.63,426.059 503.5,425C 504.187,423.838 504.353,422.672 504,421.5C 502.633,420.476 501.8,420.976 501.5,423C 502.406,425.791 503.073,428.624 503.5,431.5C 502.325,431.281 501.325,431.614 500.5,432.5C 502.5,437.167 504.5,441.833 506.5,446.5C 505.675,447.386 504.675,447.719 503.5,447.5C 503.199,458.706 503.532,469.872 504.5,481C 503.917,483.499 502.584,485.499 500.5,487C 496.047,488.109 494.38,490.942 495.5,495.5C 492.833,495.5 490.167,495.5 487.5,495.5C 488.039,498.695 487.039,501.195 484.5,503C 458.637,504.8 432.804,505.967 407,506.5C 400.252,506.632 394.586,503.965 390,498.5C 387.719,499.776 385.719,501.443 384,503.5C 382.493,502.465 380.993,502.632 379.5,504C 382.553,504.179 385.553,504.679 388.5,505.5C 387.5,506.333 386.5,507.167 385.5,508C 389.709,509.905 393.375,509.405 396.5,506.5C 397.308,506.808 397.975,507.308 398.5,508C 397.663,509.011 397.33,510.178 397.5,511.5C 387.5,511.5 377.5,511.5 367.5,511.5C 367.5,508.833 367.5,506.167 367.5,503.5C 373.959,503.807 376.959,500.641 376.5,494C 375.013,489.846 372.18,487.013 368,485.5C 367.505,483.527 367.338,481.527 367.5,479.5C 363.894,479.789 360.394,479.456 357,478.5C 356.934,481.276 355.768,483.442 353.5,485C 353.833,485.333 354.167,485.667 354.5,486C 353.552,486.483 352.552,486.649 351.5,486.5C 351.5,487.5 351.5,488.5 351.5,489.5C 350.07,489.579 348.736,489.246 347.5,488.5C 346.205,489.098 344.872,489.598 343.5,490C 346.941,490.836 347.108,491.669 344,492.5C 341.611,492.037 339.277,491.37 337,490.5C 331.13,492.053 325.13,492.72 319,492.5C 309.761,492.28 300.594,491.613 291.5,490.5C 300.668,489.417 310.002,489.417 319.5,490.5C 325.056,490.472 330.389,489.806 335.5,488.5C 348.134,485.699 355.968,478.032 359,465.5C 360.185,411.506 360.685,357.506 360.5,303.5C 362.018,327.512 363.351,351.845 364.5,376.5C 364.424,380.198 364.091,383.865 363.5,387.5C 363.793,397.234 364.793,406.734 366.5,416C 365.845,426.425 365.845,436.925 366.5,447.5C 370.167,447.5 373.833,447.5 377.5,447.5C 377.5,442.167 377.5,436.833 377.5,431.5C 376.5,431.5 375.5,431.5 374.5,431.5C 375.303,426.524 378.136,423.191 383,421.5C 383.667,406.833 383.667,392.167 383,377.5C 381.581,376.54 380.081,375.707 378.5,375C 373.006,371.172 373.34,368.672 379.5,367.5C 379.5,362.167 379.5,356.833 379.5,351.5C 380.833,351.5 382.167,351.5 383.5,351.5C 383.5,346.167 383.5,340.833 383.5,335.5C 386.167,335.5 388.833,335.5 391.5,335.5C 391.788,329.771 391.454,324.104 390.5,318.5C 391.772,314.06 394.606,311.06 399,309.5C 399.167,308.5 399.333,307.5 399.5,306.5C 397.259,305.121 395.593,302.621 394.5,299C 396.934,295.117 396.101,294.617 392,297.5C 391.667,293.833 391.333,290.167 391,286.5C 389.989,287.337 388.822,287.67 387.5,287.5C 387.5,282.167 387.5,276.833 387.5,271.5C 385.645,271.728 384.812,271.061 385,269.5C 389.667,264.833 394.333,260.167 399,255.5C 399.047,261.181 400.213,266.514 402.5,271.5C 405.167,271.5 407.833,271.5 410.5,271.5C 411.167,266.167 411.833,260.833 412.5,255.5C 410.833,255.5 409.167,255.5 407.5,255.5C 407.903,249.163 408.069,242.83 408,236.5C 405.114,234.366 402.447,232.032 400,229.5C 399.824,226.118 399.324,222.785 398.5,219.5C 396.885,218.846 395.218,218.346 393.5,218C 391.754,214.086 388.754,211.92 384.5,211.5C 383.343,208.216 383.176,204.882 384,201.5C 385.33,200.418 386.83,199.751 388.5,199.5 Z"/></g>
<g><path style="opacity:1" fill="#251d18" d="M 255.5,212.5 C 242.344,213.496 229.01,213.829 215.5,213.5C 215.742,219.467 217.076,225.134 219.5,230.5C 218.833,230.167 218.167,229.833 217.5,229.5C 216.883,229.389 216.383,229.056 216,228.5C 215.578,224.991 214.578,221.657 213,218.5C 212.257,216.559 212.424,214.726 213.5,213C 227.496,212.5 241.496,212.333 255.5,212.5 Z"/></g>
<g><path style="opacity:1" fill="#4a3626" d="M 255.5,212.5 C 264.311,212.039 272.978,212.706 281.5,214.5C 283.983,216.937 285.317,219.937 285.5,223.5C 283.647,221.625 281.813,219.625 280,217.5C 279.667,217.833 279.333,218.167 279,218.5C 277.509,216.996 275.676,216.163 273.5,216C 259.862,214.549 246.195,214.216 232.5,215C 228.013,214.92 227.013,216.42 229.5,219.5C 228.855,220.646 228.022,221.646 227,222.5C 225.989,221.663 224.822,221.33 223.5,221.5C 223.283,224.421 223.949,227.087 225.5,229.5C 226.012,233.035 226.012,236.368 225.5,239.5C 223.786,236.433 221.786,233.433 219.5,230.5C 217.076,225.134 215.742,219.467 215.5,213.5C 229.01,213.829 242.344,213.496 255.5,212.5 Z"/></g>
<g><path style="opacity:1" fill="#604526" d="M 293.5,245.5 C 293.611,246.117 293.944,246.617 294.5,247C 293.333,247.5 292.5,248.333 292,249.5C 287.724,265.543 289.224,280.876 296.5,295.5C 296.579,296.93 296.246,298.264 295.5,299.5C 296.962,299.065 297.962,299.898 298.5,302C 297.297,303.368 296.297,304.868 295.5,306.5C 296.769,310.649 297.435,314.982 297.5,319.5C 297.333,323.5 297.167,327.5 297,331.5C 296.667,330.167 296.333,328.833 296,327.5C 295.583,328.756 294.75,329.423 293.5,329.5C 290.67,323.505 289.17,317.172 289,310.5C 288.617,309.944 288.117,309.611 287.5,309.5C 286.816,307.815 285.483,306.815 283.5,306.5C 282.08,310.584 280.413,314.584 278.5,318.5C 276.257,319.474 273.924,319.808 271.5,319.5C 271.5,317.167 271.5,314.833 271.5,312.5C 272.93,312.579 274.264,312.246 275.5,311.5C 276.667,309.833 277.833,308.167 279,306.5C 278.003,300.345 277.503,294.011 277.5,287.5C 278.5,287.5 279.5,287.5 280.5,287.5C 280.714,285.856 280.38,284.356 279.5,283C 278.256,282.544 277.423,283.044 277,284.5C 276.607,281.367 275.774,278.367 274.5,275.5C 273.667,276.5 272.833,277.5 272,278.5C 271.502,275.183 271.335,271.85 271.5,268.5C 268.833,267.833 266.167,267.167 263.5,266.5C 263.5,268.167 263.5,269.833 263.5,271.5C 260.753,271.187 258.086,271.52 255.5,272.5C 254.399,274.642 253.399,276.808 252.5,279C 253.167,280.333 254.167,281.333 255.5,282C 253.07,284.305 252.07,287.138 252.5,290.5C 253.675,290.281 254.675,290.614 255.5,291.5C 248.949,292.984 247.949,296.151 252.5,301C 251.393,302.44 251.393,303.94 252.5,305.5C 252.155,309.64 250.821,313.306 248.5,316.5C 247.404,314.897 246.07,313.397 244.5,312C 245.448,311.517 246.448,311.351 247.5,311.5C 247.364,308.449 247.698,305.449 248.5,302.5C 247.487,301.835 246.487,300.668 245.5,299C 248.388,295.721 250.055,291.888 250.5,287.5C 248.167,287.5 245.833,287.5 243.5,287.5C 243.5,284.5 243.5,281.5 243.5,278.5C 243.5,277.5 243.5,276.5 243.5,275.5C 241.833,275.5 240.167,275.5 238.5,275.5C 239.098,270.769 238.765,265.935 237.5,261C 237.493,259.188 238.16,257.688 239.5,256.5C 236.598,254.149 235.931,251.316 237.5,248C 236.563,245.051 235.563,242.217 234.5,239.5C 236.088,237.318 237.088,234.818 237.5,232C 236.477,228.595 236.477,225.262 237.5,222C 236.5,221.667 235.5,221.333 234.5,221C 236.795,219.498 239.128,219.332 241.5,220.5C 242.851,219.634 243.684,218.634 244,217.5C 253.012,216.664 262.179,216.664 271.5,217.5C 271.5,219.5 271.5,221.5 271.5,223.5C 273.57,223.449 275.403,224.115 277,225.5C 277.945,225.095 278.612,224.428 279,223.5C 280.882,231.698 283.382,239.698 286.5,247.5C 287.517,244.972 288.684,244.972 290,247.5C 290.816,246.177 291.983,245.511 293.5,245.5 Z"/></g>
<g><path style="opacity:1" fill="#593f25" d="M 285.5,223.5 C 287.569,228.968 290.236,234.301 293.5,239.5C 293.586,240.496 293.252,241.329 292.5,242C 293.942,242.377 294.942,243.21 295.5,244.5C 294.833,244.833 294.167,245.167 293.5,245.5C 291.983,245.511 290.816,246.177 290,247.5C 288.684,244.972 287.517,244.972 286.5,247.5C 283.382,239.698 280.882,231.698 279,223.5C 278.612,224.428 277.945,225.095 277,225.5C 275.403,224.115 273.57,223.449 271.5,223.5C 271.5,221.5 271.5,219.5 271.5,217.5C 262.179,216.664 253.012,216.664 244,217.5C 243.684,218.634 242.851,219.634 241.5,220.5C 239.128,219.332 236.795,219.498 234.5,221C 235.5,221.333 236.5,221.667 237.5,222C 236.477,225.262 236.477,228.595 237.5,232C 237.088,234.818 236.088,237.318 234.5,239.5C 231.687,240.446 230.354,242.446 230.5,245.5C 230.19,246.738 229.69,246.738 229,245.5C 228.333,240.833 227.667,236.167 227,231.5C 226.722,230.584 226.222,229.918 225.5,229.5C 223.949,227.087 223.283,224.421 223.5,221.5C 224.822,221.33 225.989,221.663 227,222.5C 228.022,221.646 228.855,220.646 229.5,219.5C 227.013,216.42 228.013,214.92 232.5,215C 246.195,214.216 259.862,214.549 273.5,216C 275.676,216.163 277.509,216.996 279,218.5C 279.333,218.167 279.667,217.833 280,217.5C 281.813,219.625 283.647,221.625 285.5,223.5 Z"/></g>
<g><path style="opacity:1" fill="#352f29" d="M 330.5,226.5 C 330.611,225.883 330.944,225.383 331.5,225C 325.371,224.177 319.371,224.677 313.5,226.5C 316.463,224.214 319.796,222.381 323.5,221C 325,220.833 326.5,220.667 328,220.5C 332.044,220.067 334.544,221.734 335.5,225.5C 333.784,225.629 332.117,225.962 330.5,226.5 Z"/></g>
<g><path style="opacity:1" fill="#110d06" d="M 309.5,229.5 C 309.5,230.833 310.167,231.5 311.5,231.5C 307.549,233.81 303.883,236.477 300.5,239.5C 300.414,238.504 300.748,237.671 301.5,237C 293.597,233.415 289.097,227.249 288,218.5C 286.195,216.518 284.028,215.184 281.5,214.5C 272.978,212.706 264.311,212.039 255.5,212.5C 266.82,209.628 278.153,210.128 289.5,214C 293.029,216.331 295.029,219.497 295.5,223.5C 299.318,224.8 302.484,227.133 305,230.5C 306.356,229.62 307.856,229.286 309.5,229.5 Z"/></g>
<g><path style="opacity:1" fill="#4a4a48" d="M 330.5,226.5 C 324.038,227.699 317.704,229.365 311.5,231.5C 310.167,231.5 309.5,230.833 309.5,229.5C 310.833,228.5 312.167,227.5 313.5,226.5C 319.371,224.677 325.371,224.177 331.5,225C 330.944,225.383 330.611,225.883 330.5,226.5 Z"/></g>
<g><path style="opacity:1" fill="#2a1f12" d="M 281.5,214.5 C 284.028,215.184 286.195,216.518 288,218.5C 289.097,227.249 293.597,233.415 301.5,237C 300.748,237.671 300.414,238.504 300.5,239.5C 299.069,240.78 298.402,242.447 298.5,244.5C 298.167,244.5 297.833,244.5 297.5,244.5C 297.5,242.833 297.5,241.167 297.5,239.5C 296.167,239.5 294.833,239.5 293.5,239.5C 290.236,234.301 287.569,228.968 285.5,223.5C 285.317,219.937 283.983,216.937 281.5,214.5 Z"/></g>
<g><path style="opacity:1" fill="#010a02" d="M 217.5,229.5 C 218.167,229.833 218.833,230.167 219.5,230.5C 220.578,233.402 221.244,236.402 221.5,239.5C 221.66,241.199 221.494,242.866 221,244.5C 218.482,242.692 215.649,241.692 212.5,241.5C 205.509,242.124 198.509,242.624 191.5,243C 190.377,244.044 189.044,244.71 187.5,245C 182.702,250.781 178.036,256.615 173.5,262.5C 174.26,265.681 173.927,268.848 172.5,272C 173.156,275.8 174.49,279.3 176.5,282.5C 179.367,284.163 182.033,285.83 184.5,287.5C 182.177,288.582 179.843,288.415 177.5,287C 171.785,280.732 167.785,273.566 165.5,265.5C 166.795,262.284 167.462,258.951 167.5,255.5C 168.675,255.719 169.675,255.386 170.5,254.5C 172.799,249.556 175.466,244.889 178.5,240.5C 181.589,239.701 184.256,238.201 186.5,236C 194.11,233.728 201.61,231.561 209,229.5C 210.547,232.544 213.047,234.544 216.5,235.5C 217.308,235.192 217.975,234.692 218.5,234C 217.62,232.644 217.286,231.144 217.5,229.5 Z"/></g>
<g><path style="opacity:1" fill="#020a01" d="M 348.5,271.5 C 347.5,271.5 346.5,271.5 345.5,271.5C 345.119,276.275 344.119,280.942 342.5,285.5C 344.722,288.712 344.722,292.045 342.5,295.5C 337.791,297.316 335.458,300.483 335.5,305C 333.402,304.016 331.402,304.349 329.5,306C 330.167,306.333 330.833,306.667 331.5,307C 329.105,307.681 326.772,308.515 324.5,309.5C 324.624,310.107 324.957,310.44 325.5,310.5C 323.034,311.634 320.367,311.801 317.5,311C 315.922,309.906 314.255,309.072 312.5,308.5C 309.681,305.925 306.681,303.592 303.5,301.5C 302.878,300.373 302.045,299.373 301,298.5C 300.827,292.652 300.327,286.985 299.5,281.5C 297.486,275.751 296.486,269.751 296.5,263.5C 296.177,256.978 296.51,250.645 297.5,244.5C 297.833,244.5 298.167,244.5 298.5,244.5C 298.337,246.857 298.503,249.19 299,251.5C 300.748,246.426 303.914,242.592 308.5,240C 315.186,240.264 321.852,240.43 328.5,240.5C 329.799,239.91 330.632,238.91 331,237.5C 332.646,239.055 332.979,240.721 332,242.5C 332.333,242.167 332.667,241.833 333,241.5C 333.44,243.076 334.273,244.41 335.5,245.5C 337.714,246.041 339.88,246.374 342,246.5C 344.005,252.885 346.005,259.218 348,265.5C 348.495,267.473 348.662,269.473 348.5,271.5 Z"/></g>
<g><path style="opacity:1" fill="#574428" d="M 234.5,239.5 C 235.563,242.217 236.563,245.051 237.5,248C 235.931,251.316 236.598,254.149 239.5,256.5C 238.16,257.688 237.493,259.188 237.5,261C 238.765,265.935 239.098,270.769 238.5,275.5C 240.167,275.5 241.833,275.5 243.5,275.5C 243.5,276.5 243.5,277.5 243.5,278.5C 241.088,278.694 240.088,280.027 240.5,282.5C 239.5,282.5 238.5,282.5 237.5,282.5C 237.058,284.972 236.725,287.472 236.5,290C 236.759,293.073 237.759,295.739 239.5,298C 236.727,303.483 232.394,304.983 226.5,302.5C 221.556,302.246 216.889,301.246 212.5,299.5C 213.873,299.657 215.207,299.49 216.5,299C 215.944,298.617 215.611,298.117 215.5,297.5C 216.167,297.5 216.833,297.5 217.5,297.5C 219.214,298.738 221.214,299.405 223.5,299.5C 227.634,300.485 231.968,300.818 236.5,300.5C 234.972,296.974 233.972,293.307 233.5,289.5C 233.637,286.392 234.637,283.725 236.5,281.5C 237.158,280.207 237.492,278.707 237.5,277C 236.277,268.484 234.943,259.984 233.5,251.5C 233.833,250.833 234.167,250.167 234.5,249.5C 234.154,248.304 233.654,248.304 233,249.5C 232.392,247.934 231.558,246.6 230.5,245.5C 230.354,242.446 231.687,240.446 234.5,239.5 Z"/></g>
<g><path style="opacity:1" fill="#332c19" d="M 219.5,230.5 C 221.786,233.433 223.786,236.433 225.5,239.5C 227.459,244.704 228.792,250.037 229.5,255.5C 228.222,255.218 227.222,254.551 226.5,253.5C 226.585,250.351 225.585,247.684 223.5,245.5C 222.952,243.374 222.285,241.374 221.5,239.5C 221.244,236.402 220.578,233.402 219.5,230.5 Z"/></g>
<g><path style="opacity:1" fill="#010f04" d="M 221.5,239.5 C 222.285,241.374 222.952,243.374 223.5,245.5C 223.62,248.48 224.287,251.313 225.5,254C 225.394,256.311 224.894,258.811 224,261.5C 222.13,259.752 220.963,257.585 220.5,255C 216.876,255.013 213.876,253.68 211.5,251C 204.875,249.336 198.208,249.169 191.5,250.5C 190.855,251.646 190.022,252.646 189,253.5C 187.206,261.418 185.04,269.251 182.5,277C 182.484,279.305 183.484,280.972 185.5,282C 192.628,282.762 199.962,283.429 207.5,284C 208.618,285.074 209.618,286.24 210.5,287.5C 211.086,287.291 211.586,286.957 212,286.5C 212.44,288.076 213.273,289.41 214.5,290.5C 213.975,291.192 213.308,291.692 212.5,292C 213.667,292.5 214.5,293.333 215,294.5C 215.333,293.833 215.667,293.167 216,292.5C 216.852,293.571 217.685,294.571 218.5,295.5C 218.672,296.492 218.338,297.158 217.5,297.5C 216.833,297.5 216.167,297.5 215.5,297.5C 211.65,295.44 207.65,293.773 203.5,292.5C 201.052,291.527 198.385,291.194 195.5,291.5C 198.641,290.679 201.975,290.179 205.5,290C 198.609,288.563 191.609,287.73 184.5,287.5C 182.033,285.83 179.367,284.163 176.5,282.5C 174.49,279.3 173.156,275.8 172.5,272C 173.927,268.848 174.26,265.681 173.5,262.5C 178.036,256.615 182.702,250.781 187.5,245C 189.044,244.71 190.377,244.044 191.5,243C 198.509,242.624 205.509,242.124 212.5,241.5C 215.649,241.692 218.482,242.692 221,244.5C 221.494,242.866 221.66,241.199 221.5,239.5 Z"/></g>
<g><path style="opacity:1" fill="#010e02" d="M 303.5,247.5 C 305.167,247.5 306.833,247.5 308.5,247.5C 309.42,249.881 309.42,252.214 308.5,254.5C 310.5,255.833 312.5,255.833 314.5,254.5C 314.167,253.833 313.833,253.167 313.5,252.5C 319.552,250.239 325.219,251.239 330.5,255.5C 331.473,257.392 332.14,259.392 332.5,261.5C 330.591,272.812 328.258,283.978 325.5,295C 327.283,296.067 327.783,297.567 327,299.5C 325.352,301.028 323.352,301.695 321,301.5C 317.083,301.084 313.249,300.251 309.5,299C 310.451,298.282 310.617,297.449 310,296.5C 306.648,300.744 303.815,300.411 301.5,295.5C 303.302,293.966 304.968,291.633 306.5,288.5C 303.585,280.852 301.252,273.018 299.5,265C 300.407,263.089 300.407,261.256 299.5,259.5C 301.034,257.698 301.368,255.865 300.5,254C 301.377,251.747 302.377,249.581 303.5,247.5 Z"/></g>
<g><path style="opacity:1" fill="#011507" d="M 223.5,245.5 C 225.585,247.684 226.585,250.351 226.5,253.5C 226.809,258.509 227.809,263.342 229.5,268C 228.468,271.789 228.468,275.789 229.5,280C 227.953,281.849 226.119,283.349 224,284.5C 223.503,286.81 223.337,289.143 223.5,291.5C 222.325,291.281 221.325,291.614 220.5,292.5C 220.058,293.739 219.391,294.739 218.5,295.5C 217.685,294.571 216.852,293.571 216,292.5C 215.667,293.167 215.333,293.833 215,294.5C 214.5,293.333 213.667,292.5 212.5,292C 213.308,291.692 213.975,291.192 214.5,290.5C 213.273,289.41 212.44,288.076 212,286.5C 211.586,286.957 211.086,287.291 210.5,287.5C 209.618,286.24 208.618,285.074 207.5,284C 199.962,283.429 192.628,282.762 185.5,282C 183.484,280.972 182.484,279.305 182.5,277C 185.04,269.251 187.206,261.418 189,253.5C 190.022,252.646 190.855,251.646 191.5,250.5C 198.208,249.169 204.875,249.336 211.5,251C 213.876,253.68 216.876,255.013 220.5,255C 220.963,257.585 222.13,259.752 224,261.5C 224.894,258.811 225.394,256.311 225.5,254C 224.287,251.313 223.62,248.48 223.5,245.5 Z"/></g>
<g><path style="opacity:1" fill="#33515a" d="M 130.5,248.5 C 130.007,250.806 129.674,253.139 129.5,255.5C 126.654,255.809 125.154,257.475 125,260.5C 123.961,261.71 122.794,262.71 121.5,263.5C 123.243,261.076 124.576,258.409 125.5,255.5C 126.852,252.835 128.518,250.502 130.5,248.5 Z"/></g>
<g><path style="opacity:1" fill="#0d0e0d" d="M 132.5,239.5 C 132.131,245.513 131.964,251.513 132,257.5C 133.74,256.284 134.74,254.618 135,252.5C 135.667,253.167 136.333,253.833 137,254.5C 137.879,251.654 139.546,250.987 142,252.5C 142.528,245.927 143.362,245.927 144.5,252.5C 146.63,253.467 148.63,254.634 150.5,256C 157.793,262.79 163.459,270.623 167.5,279.5C 162.439,278.102 159.439,274.769 158.5,269.5C 154.34,266.835 150.673,263.669 147.5,260C 146,259.833 144.5,259.667 143,259.5C 137.136,260.948 131.303,262.448 125.5,264C 124.616,265.72 123.283,266.886 121.5,267.5C 121.5,266.167 121.5,264.833 121.5,263.5C 122.794,262.71 123.961,261.71 125,260.5C 125.154,257.475 126.654,255.809 129.5,255.5C 129.674,253.139 130.007,250.806 130.5,248.5C 131.167,245.5 131.833,242.5 132.5,239.5 Z"/></g>
<g><path style="opacity:1" fill="#423d25" d="M 293.5,239.5 C 294.833,239.5 296.167,239.5 297.5,239.5C 297.5,241.167 297.5,242.833 297.5,244.5C 296.51,250.645 296.177,256.978 296.5,263.5C 295.51,257.355 295.177,251.022 295.5,244.5C 294.942,243.21 293.942,242.377 292.5,242C 293.252,241.329 293.586,240.496 293.5,239.5 Z"/></g>
<g><path style="opacity:1" fill="#4c3e25" d="M 225.5,229.5 C 226.222,229.918 226.722,230.584 227,231.5C 227.667,236.167 228.333,240.833 229,245.5C 229.69,246.738 230.19,246.738 230.5,245.5C 231.558,246.6 232.392,247.934 233,249.5C 233.654,248.304 234.154,248.304 234.5,249.5C 234.167,250.167 233.833,250.833 233.5,251.5C 234.943,259.984 236.277,268.484 237.5,277C 237.492,278.707 237.158,280.207 236.5,281.5C 236.849,276.541 235.516,272.207 232.5,268.5C 231.87,264.006 230.87,259.673 229.5,255.5C 228.792,250.037 227.459,244.704 225.5,239.5C 226.012,236.368 226.012,233.035 225.5,229.5 Z"/></g>
<g><path style="opacity:1" fill="#252019" d="M 167.5,279.5 C 167.146,283.637 167.646,287.637 169,291.5C 171.141,294.321 173.975,295.654 177.5,295.5C 172.876,297.157 169.043,295.824 166,291.5C 164.156,288.467 163.156,285.134 163,281.5C 159.404,277.369 156.071,273.035 153,268.5C 145.706,261.236 137.873,260.569 129.5,266.5C 126.728,267.026 124.062,267.859 121.5,269C 120.748,269.671 120.414,270.504 120.5,271.5C 120.167,271.5 119.833,271.5 119.5,271.5C 119.229,269.62 119.896,268.287 121.5,267.5C 123.283,266.886 124.616,265.72 125.5,264C 131.303,262.448 137.136,260.948 143,259.5C 144.5,259.667 146,259.833 147.5,260C 150.673,263.669 154.34,266.835 158.5,269.5C 159.439,274.769 162.439,278.102 167.5,279.5 Z"/></g>
<g><path style="opacity:1" fill="#0e1504" d="M 226.5,253.5 C 227.222,254.551 228.222,255.218 229.5,255.5C 230.87,259.673 231.87,264.006 232.5,268.5C 233.856,277.915 232.856,287.081 229.5,296C 229.833,296.333 230.167,296.667 230.5,297C 228.52,298.825 226.187,299.659 223.5,299.5C 221.214,299.405 219.214,298.738 217.5,297.5C 218.338,297.158 218.672,296.492 218.5,295.5C 219.391,294.739 220.058,293.739 220.5,292.5C 221.325,291.614 222.325,291.281 223.5,291.5C 223.337,289.143 223.503,286.81 224,284.5C 226.119,283.349 227.953,281.849 229.5,280C 228.468,275.789 228.468,271.789 229.5,268C 227.809,263.342 226.809,258.509 226.5,253.5 Z"/></g>
<g><path style="opacity:1" fill="#608395" d="M 93.5,440.5 C 89.2865,438.954 86.9532,435.954 86.5,431.5C 81.8333,431.5 77.1667,431.5 72.5,431.5C 71.697,436.476 68.8636,439.809 64,441.5C 63.5017,438.183 63.335,434.85 63.5,431.5C 60.8333,431.5 58.1667,431.5 55.5,431.5C 55.6646,428.482 55.498,425.482 55,422.5C 51.9734,420.259 49.14,417.926 46.5,415.5C 42.0797,410.374 37.413,405.374 32.5,400.5C 37.1667,399.833 41.8333,399.167 46.5,398.5C 46.3333,398.167 46.1667,397.833 46,397.5C 41.5,393.167 37,388.833 32.5,384.5C 28.2172,383.508 23.8839,383.174 19.5,383.5C 19.5,388.833 19.5,394.167 19.5,399.5C 14.8333,399.5 10.1667,399.5 5.5,399.5C 5.33347,387.829 5.50014,376.162 6,364.5C 7.51802,362.386 7.85135,360.053 7,357.5C 6.66667,358.167 6.33333,358.833 6,359.5C 5.06714,350.044 5.56714,340.71 7.5,331.5C 9.6348,331.853 10.9681,331.02 11.5,329C 8.28811,326.26 6.78811,322.76 7,318.5C 6.66667,318.833 6.33333,319.167 6,319.5C 5.83333,316.833 5.66667,314.167 5.5,311.5C 7.04271,296.543 7.87604,281.543 8,266.5C 10.0413,264.35 12.5413,263.35 15.5,263.5C 17.3614,265.745 18.3614,268.412 18.5,271.5C 21.2776,271.978 23.2776,270.978 24.5,268.5C 25.2811,269.729 25.7811,271.062 26,272.5C 28.1667,273.333 29.6667,274.833 30.5,277C 33.5,277.667 36.5,277.667 39.5,277C 36.8333,276.667 34.1667,276.333 31.5,276C 38.9029,277.475 43.9029,274.808 46.5,268C 49.5071,267.699 52.5071,267.865 55.5,268.5C 56.2541,264.533 58.0874,263.867 61,266.5C 61.3683,271.259 59.7017,272.259 56,269.5C 55.6258,270.416 55.1258,271.25 54.5,272C 55.5762,273.726 55.7429,275.559 55,277.5C 52.6667,276.167 50.3333,274.833 48,273.5C 46.6846,277.141 47.8512,279.474 51.5,280.5C 50.1291,283.895 48.7957,287.229 47.5,290.5C 44.7531,290.187 42.0865,290.52 39.5,291.5C 42.3719,292.783 45.2053,292.783 48,291.5C 49.3402,292.868 50.6736,294.201 52,295.5C 53.2613,295.241 54.2613,294.574 55,293.5C 56.8444,296.533 57.8444,299.866 58,303.5C 62.8299,308.912 68.6632,311.912 75.5,312.5C 77.9108,315.772 79.5774,319.439 80.5,323.5C 83.6749,322.613 85.3416,323.946 85.5,327.5C 84.448,327.351 83.448,327.517 82.5,328C 84.6462,330.795 85.8128,333.961 86,337.5C 88.0494,339.823 89.8828,342.323 91.5,345C 90.7135,347.099 90.3801,349.266 90.5,351.5C 91.5,351.5 92.5,351.5 93.5,351.5C 96.941,360.779 99.1077,370.446 100,380.5C 101.011,381.337 102.178,381.67 103.5,381.5C 103.5,384.833 103.5,388.167 103.5,391.5C 101.833,391.5 100.167,391.5 98.5,391.5C 98.2008,396.214 100.201,397.88 104.5,396.5C 105.151,400.587 106.484,404.421 108.5,408C 106.397,410.554 103.897,411.054 101,409.5C 99.1645,411.727 99.6645,413.56 102.5,415C 103.448,415.483 104.448,415.649 105.5,415.5C 105.798,418.265 106.798,420.765 108.5,423C 106.343,426.271 106.01,429.771 107.5,433.5C 104.753,433.187 102.086,433.52 99.5,434.5C 100.689,435.429 102.022,435.762 103.5,435.5C 103.799,437.604 103.466,439.604 102.5,441.5C 100.063,440.074 97.5628,438.741 95,437.5C 94.4867,438.527 93.9867,439.527 93.5,440.5 Z"/></g>
<g><path style="opacity:1" fill="#614323" d="M 287.5,309.5 C 287.666,316.175 287.5,322.842 287,329.5C 283.414,328.081 280.581,325.748 278.5,322.5C 276.681,325.457 275.347,328.624 274.5,332C 266.841,332.5 259.174,332.666 251.5,332.5C 251.818,327.968 251.485,323.634 250.5,319.5C 248.952,319.179 248.285,318.179 248.5,316.5C 250.821,313.306 252.155,309.64 252.5,305.5C 251.393,303.94 251.393,302.44 252.5,301C 247.949,296.151 248.949,292.984 255.5,291.5C 254.675,290.614 253.675,290.281 252.5,290.5C 252.07,287.138 253.07,284.305 255.5,282C 254.167,281.333 253.167,280.333 252.5,279C 253.399,276.808 254.399,274.642 255.5,272.5C 258.086,271.52 260.753,271.187 263.5,271.5C 263.5,269.833 263.5,268.167 263.5,266.5C 266.167,267.167 268.833,267.833 271.5,268.5C 271.335,271.85 271.502,275.183 272,278.5C 272.833,277.5 273.667,276.5 274.5,275.5C 275.774,278.367 276.607,281.367 277,284.5C 277.423,283.044 278.256,282.544 279.5,283C 280.38,284.356 280.714,285.856 280.5,287.5C 279.5,287.5 278.5,287.5 277.5,287.5C 277.503,294.011 278.003,300.345 279,306.5C 277.833,308.167 276.667,309.833 275.5,311.5C 274.264,312.246 272.93,312.579 271.5,312.5C 271.5,314.833 271.5,317.167 271.5,319.5C 273.924,319.808 276.257,319.474 278.5,318.5C 280.413,314.584 282.08,310.584 283.5,306.5C 285.483,306.815 286.816,307.815 287.5,309.5 Z"/></g>
<g><path style="opacity:1" fill="#352a1f" d="M 177.5,295.5 C 180.848,293.625 184.514,292.625 188.5,292.5C 183.152,295.4 177.485,297.733 171.5,299.5C 168.715,299.067 166.381,297.734 164.5,295.5C 163.784,293.518 162.617,291.851 161,290.5C 160.73,287.776 160.23,285.109 159.5,282.5C 156.645,279.48 153.979,276.313 151.5,273C 148.833,271 146.167,269 143.5,267C 138.442,266.339 133.442,266.672 128.5,268C 126.937,268.759 125.937,269.926 125.5,271.5C 124.833,271.5 124.167,271.5 123.5,271.5C 122.5,271.5 121.5,271.5 120.5,271.5C 120.414,270.504 120.748,269.671 121.5,269C 124.062,267.859 126.728,267.026 129.5,266.5C 137.873,260.569 145.706,261.236 153,268.5C 156.071,273.035 159.404,277.369 163,281.5C 163.156,285.134 164.156,288.467 166,291.5C 169.043,295.824 172.876,297.157 177.5,295.5 Z"/></g>
<g><path style="opacity:1" fill="#614f2c" d="M 295.5,244.5 C 295.177,251.022 295.51,257.355 296.5,263.5C 296.486,269.751 297.486,275.751 299.5,281.5C 299.5,287.5 299.5,293.5 299.5,299.5C 298.5,298.167 297.5,296.833 296.5,295.5C 289.224,280.876 287.724,265.543 292,249.5C 292.5,248.333 293.333,247.5 294.5,247C 293.944,246.617 293.611,246.117 293.5,245.5C 294.167,245.167 294.833,244.833 295.5,244.5 Z"/></g>
<g><path style="opacity:1" fill="#61472e" d="M 149.5,285.5 C 156.925,292.49 160.425,301.156 160,311.5C 163.749,316.569 166.249,322.236 167.5,328.5C 169.524,331.206 172.19,332.539 175.5,332.5C 175.5,333.5 175.5,334.5 175.5,335.5C 177.099,335.232 178.432,335.566 179.5,336.5C 179.334,340.514 179.501,344.514 180,348.5C 183.185,349.407 186.352,349.073 189.5,347.5C 191.5,348.5 193.5,349.5 195.5,350.5C 194.311,351.429 192.978,351.762 191.5,351.5C 191.5,358.167 191.5,364.833 191.5,371.5C 196.833,371.5 202.167,371.5 207.5,371.5C 207.5,375.5 207.5,379.5 207.5,383.5C 204.938,382.629 202.272,382.629 199.5,383.5C 199.5,384.5 199.5,385.5 199.5,386.5C 194.904,385.744 191.571,383.244 189.5,379C 188.209,375.113 186.543,371.446 184.5,368C 185.517,366.951 185.684,365.784 185,364.5C 184.333,363.167 183.667,363.167 183,364.5C 182.517,365.448 182.351,366.448 182.5,367.5C 181.5,367.5 180.5,367.5 179.5,367.5C 179.333,364.043 178.333,363.71 176.5,366.5C 177.538,369.788 176.872,370.121 174.5,367.5C 173.52,364.914 173.187,362.247 173.5,359.5C 169.848,357.977 166.848,355.477 164.5,352C 162.866,351.506 161.199,351.34 159.5,351.5C 159.5,346.167 159.5,340.833 159.5,335.5C 158.167,335.5 156.833,335.5 155.5,335.5C 156.192,326.273 154.359,317.607 150,309.5C 148.333,308.167 146.667,306.833 145,305.5C 144.667,306.167 144.333,306.833 144,307.5C 143.828,302.798 143.328,298.132 142.5,293.5C 141.012,291.851 140.012,289.851 139.5,287.5C 138.167,286.5 136.833,285.5 135.5,284.5C 132.25,287.398 129.417,287.065 127,283.5C 126.667,283.833 126.333,284.167 126,284.5C 125.767,282.22 124.934,280.22 123.5,278.5C 129.482,276.962 135.148,277.795 140.5,281C 141.329,282.816 142.163,284.649 143,286.5C 143.308,285.692 143.808,285.025 144.5,284.5C 145.833,285.167 147.167,285.833 148.5,286.5C 149.107,286.376 149.44,286.043 149.5,285.5 Z"/></g>
<g><path style="opacity:1" fill="#604628" d="M 243.5,278.5 C 243.5,281.5 243.5,284.5 243.5,287.5C 245.833,287.5 248.167,287.5 250.5,287.5C 250.055,291.888 248.388,295.721 245.5,299C 246.487,300.668 247.487,301.835 248.5,302.5C 247.698,305.449 247.364,308.449 247.5,311.5C 246.448,311.351 245.448,311.517 244.5,312C 246.07,313.397 247.404,314.897 248.5,316.5C 248.285,318.179 248.952,319.179 250.5,319.5C 250.666,324.511 250.499,329.511 250,334.5C 248.644,335.38 247.144,335.714 245.5,335.5C 245.045,338.203 244.378,340.87 243.5,343.5C 243.981,346.083 244.648,348.583 245.5,351C 243.527,351.495 241.527,351.662 239.5,351.5C 239.5,346.167 239.5,340.833 239.5,335.5C 236.477,335.105 235.477,336.105 236.5,338.5C 233.109,342.601 229.276,346.268 225,349.5C 223.801,352.726 223.301,356.059 223.5,359.5C 221.801,359.34 220.134,359.506 218.5,360C 217.167,360.667 217.167,361.333 218.5,362C 217.5,362.833 216.5,363.667 215.5,364.5C 219.78,366.929 224.447,368.096 229.5,368C 231.278,370.135 231.945,372.635 231.5,375.5C 228.03,376.125 225.196,375.125 223,372.5C 222.586,372.957 222.086,373.291 221.5,373.5C 218.891,370.612 215.724,368.612 212,367.5C 209.882,368.283 208.382,369.616 207.5,371.5C 202.167,371.5 196.833,371.5 191.5,371.5C 191.5,364.833 191.5,358.167 191.5,351.5C 192.978,351.762 194.311,351.429 195.5,350.5C 193.5,349.5 191.5,348.5 189.5,347.5C 186.352,349.073 183.185,349.407 180,348.5C 179.501,344.514 179.334,340.514 179.5,336.5C 181.927,336.477 184.26,335.977 186.5,335C 187.411,332.585 189.078,331.085 191.5,330.5C 195.452,330.341 198.619,328.674 201,325.5C 198.837,321.286 199.67,317.453 203.5,314C 205.044,312.813 206.711,312.48 208.5,313C 207.332,314.406 207.665,315.572 209.5,316.5C 210.689,317.429 212.022,317.762 213.5,317.5C 213.5,316.167 213.5,314.833 213.5,313.5C 217.38,313.77 220.547,312.437 223,309.5C 223.414,309.957 223.914,310.291 224.5,310.5C 226.169,309.329 227.669,307.996 229,306.5C 230.101,307.291 230.934,307.291 231.5,306.5C 229.539,305.422 227.872,304.089 226.5,302.5C 232.394,304.983 236.727,303.483 239.5,298C 237.759,295.739 236.759,293.073 236.5,290C 236.725,287.472 237.058,284.972 237.5,282.5C 238.5,282.5 239.5,282.5 240.5,282.5C 240.088,280.027 241.088,278.694 243.5,278.5 Z"/></g>
<g><path style="opacity:1" fill="#644834" d="M 151.5,284.5 C 150.075,282.969 149.409,283.302 149.5,285.5C 149.44,286.043 149.107,286.376 148.5,286.5C 147.167,285.833 145.833,285.167 144.5,284.5C 143.808,285.025 143.308,285.692 143,286.5C 142.163,284.649 141.329,282.816 140.5,281C 135.148,277.795 129.482,276.962 123.5,278.5C 124.934,280.22 125.767,282.22 126,284.5C 126.333,284.167 126.667,283.833 127,283.5C 129.417,287.065 132.25,287.398 135.5,284.5C 136.833,285.5 138.167,286.5 139.5,287.5C 140.012,289.851 141.012,291.851 142.5,293.5C 143.328,298.132 143.828,302.798 144,307.5C 144.333,306.833 144.667,306.167 145,305.5C 146.667,306.833 148.333,308.167 150,309.5C 154.359,317.607 156.192,326.273 155.5,335.5C 156.833,335.5 158.167,335.5 159.5,335.5C 159.5,340.833 159.5,346.167 159.5,351.5C 158.167,351.5 156.833,351.5 155.5,351.5C 154.167,351.5 152.833,351.5 151.5,351.5C 150.84,346.979 148.34,343.646 144,341.5C 143.667,339.167 143.333,336.833 143,334.5C 141.479,331.388 139.813,328.388 138,325.5C 137.982,331.645 137.149,337.645 135.5,343.5C 136.4,345.239 137.067,347.072 137.5,349C 137.167,349.833 136.833,350.667 136.5,351.5C 135.052,347.743 134.052,347.743 133.5,351.5C 133.538,354.187 134.538,354.854 136.5,353.5C 137.713,358.259 139.213,362.926 141,367.5C 141.411,372.948 142.245,378.282 143.5,383.5C 146.167,383.5 148.833,383.5 151.5,383.5C 151.5,388.833 151.5,394.167 151.5,399.5C 150.325,399.281 149.325,399.614 148.5,400.5C 150.638,405.276 152.638,410.11 154.5,415C 154.01,416.982 153.01,418.649 151.5,420C 150.551,420.617 149.718,420.451 149,419.5C 147.498,415.85 147.331,412.184 148.5,408.5C 147.5,407.833 146.5,407.167 145.5,406.5C 146.982,404.29 146.482,402.624 144,401.5C 143.955,404.334 143.121,406.834 141.5,409C 145.923,413.221 147.59,418.387 146.5,424.5C 145.85,422.553 144.683,420.887 143,419.5C 141.85,412.827 140.017,406.327 137.5,400C 138.239,397.765 138.239,395.765 137.5,394C 134.761,391.019 133.761,387.686 134.5,384C 133.814,380.4 132.814,376.9 131.5,373.5C 132.724,369.325 131.057,367.325 126.5,367.5C 126.737,368.791 126.404,369.791 125.5,370.5C 125.677,365.144 126.011,359.978 126.5,355C 125.167,354.333 124.167,353.333 123.5,352C 124.833,349 126.167,346 127.5,343C 125.866,342.506 124.199,342.34 122.5,342.5C 122.5,340.167 122.5,337.833 122.5,335.5C 121.167,335.5 119.833,335.5 118.5,335.5C 118.662,333.473 118.495,331.473 118,329.5C 117.667,329.833 117.333,330.167 117,330.5C 115.392,327.207 115.225,323.873 116.5,320.5C 115.772,314.63 114.772,308.63 113.5,302.5C 115.121,295.062 117.121,287.729 119.5,280.5C 118.098,279.158 118.431,278.324 120.5,278C 120.043,277.586 119.709,277.086 119.5,276.5C 121.207,275.127 122.54,273.461 123.5,271.5C 124.167,271.5 124.833,271.5 125.5,271.5C 137.958,268.396 146.625,272.729 151.5,284.5 Z"/></g>
<g><path style="opacity:1" fill="#342e1a" d="M 299.5,281.5 C 300.327,286.985 300.827,292.652 301,298.5C 302.045,299.373 302.878,300.373 303.5,301.5C 301.938,301.267 300.605,300.6 299.5,299.5C 299.5,293.5 299.5,287.5 299.5,281.5 Z"/></g>
<g><path style="opacity:1" fill="#493827" d="M 171.5,299.5 C 171.586,300.496 171.252,301.329 170.5,302C 174.918,302.238 176.751,304.405 176,308.5C 175.617,309.056 175.117,309.389 174.5,309.5C 171.434,309.276 168.934,307.943 167,305.5C 163.186,299.814 159.52,294.148 156,288.5C 154.629,286.959 153.129,285.625 151.5,284.5C 146.625,272.729 137.958,268.396 125.5,271.5C 125.937,269.926 126.937,268.759 128.5,268C 133.442,266.672 138.442,266.339 143.5,267C 146.167,269 148.833,271 151.5,273C 153.979,276.313 156.645,279.48 159.5,282.5C 160.23,285.109 160.73,287.776 161,290.5C 162.617,291.851 163.784,293.518 164.5,295.5C 166.381,297.734 168.715,299.067 171.5,299.5 Z"/></g>
<g><path style="opacity:1" fill="#201e09" d="M 232.5,268.5 C 235.516,272.207 236.849,276.541 236.5,281.5C 234.637,283.725 233.637,286.392 233.5,289.5C 233.972,293.307 234.972,296.974 236.5,300.5C 231.968,300.818 227.634,300.485 223.5,299.5C 226.187,299.659 228.52,298.825 230.5,297C 230.167,296.667 229.833,296.333 229.5,296C 232.856,287.081 233.856,277.915 232.5,268.5 Z"/></g>
<g><path style="opacity:1" fill="#353d3c" d="M 121.5,263.5 C 121.5,264.833 121.5,266.167 121.5,267.5C 119.896,268.287 119.229,269.62 119.5,271.5C 116.114,276.702 113.114,282.035 110.5,287.5C 108.196,292.633 107.196,298.133 107.5,304C 107.746,310.552 108.413,317.052 109.5,323.5C 107.583,320.196 106.416,316.529 106,312.5C 104.57,301.782 105.903,291.448 110,281.5C 113.621,275.233 117.454,269.233 121.5,263.5 Z"/></g>
<g><path style="opacity:1" fill="#5f573b" d="M 203.5,292.5 C 207.65,293.773 211.65,295.44 215.5,297.5C 215.611,298.117 215.944,298.617 216.5,299C 215.207,299.49 213.873,299.657 212.5,299.5C 207.378,298.809 202.211,298.142 197,297.5C 195.941,297.63 195.108,298.13 194.5,299C 196.833,299.333 199.167,299.667 201.5,300C 200.833,300.667 200.167,301.333 199.5,302C 194.84,302.73 190.674,302.23 187,300.5C 186.722,301.416 186.222,302.082 185.5,302.5C 184.833,302.5 184.167,302.5 183.5,302.5C 182.013,299.788 182.679,297.621 185.5,296C 191.099,293.068 197.099,291.902 203.5,292.5 Z"/></g>
<g><path style="opacity:1" fill="#5e4c2d" d="M 212.5,299.5 C 216.889,301.246 221.556,302.246 226.5,302.5C 227.872,304.089 229.539,305.422 231.5,306.5C 230.934,307.291 230.101,307.291 229,306.5C 227.669,307.996 226.169,309.329 224.5,310.5C 223.914,310.291 223.414,309.957 223,309.5C 220.547,312.437 217.38,313.77 213.5,313.5C 213.5,314.833 213.5,316.167 213.5,317.5C 212.022,317.762 210.689,317.429 209.5,316.5C 207.665,315.572 207.332,314.406 208.5,313C 206.711,312.48 205.044,312.813 203.5,314C 199.67,317.453 198.837,321.286 201,325.5C 198.619,328.674 195.452,330.341 191.5,330.5C 191.5,326.833 191.5,323.167 191.5,319.5C 192.5,319.5 193.5,319.5 194.5,319.5C 194.686,315.552 195.352,311.719 196.5,308C 193.576,307.012 190.576,306.346 187.5,306C 186.177,305.184 185.511,304.017 185.5,302.5C 186.222,302.082 186.722,301.416 187,300.5C 190.674,302.23 194.84,302.73 199.5,302C 200.167,301.333 200.833,300.667 201.5,300C 199.167,299.667 196.833,299.333 194.5,299C 195.108,298.13 195.941,297.63 197,297.5C 202.211,298.142 207.378,298.809 212.5,299.5 Z"/></g>
<g><path style="opacity:1" fill="#4c4330" d="M 195.5,291.5 C 198.385,291.194 201.052,291.527 203.5,292.5C 197.099,291.902 191.099,293.068 185.5,296C 182.679,297.621 182.013,299.788 183.5,302.5C 182.001,304.49 181.168,306.823 181,309.5C 178.376,310.611 176.876,312.611 176.5,315.5C 175.705,313.505 175.039,311.505 174.5,309.5C 175.117,309.389 175.617,309.056 176,308.5C 176.751,304.405 174.918,302.238 170.5,302C 171.252,301.329 171.586,300.496 171.5,299.5C 177.485,297.733 183.152,295.4 188.5,292.5C 190.806,292.007 193.139,291.674 195.5,291.5 Z"/></g>
<g><path style="opacity:1" fill="#57452c" d="M 151.5,284.5 C 153.129,285.625 154.629,286.959 156,288.5C 159.52,294.148 163.186,299.814 167,305.5C 168.934,307.943 171.434,309.276 174.5,309.5C 175.039,311.505 175.705,313.505 176.5,315.5C 176.876,312.611 178.376,310.611 181,309.5C 181.168,306.823 182.001,304.49 183.5,302.5C 184.167,302.5 184.833,302.5 185.5,302.5C 185.511,304.017 186.177,305.184 187.5,306C 190.576,306.346 193.576,307.012 196.5,308C 195.352,311.719 194.686,315.552 194.5,319.5C 193.5,319.5 192.5,319.5 191.5,319.5C 191.5,323.167 191.5,326.833 191.5,330.5C 189.078,331.085 187.411,332.585 186.5,335C 184.26,335.977 181.927,336.477 179.5,336.5C 178.432,335.566 177.099,335.232 175.5,335.5C 175.5,334.5 175.5,333.5 175.5,332.5C 172.19,332.539 169.524,331.206 167.5,328.5C 166.249,322.236 163.749,316.569 160,311.5C 160.425,301.156 156.925,292.49 149.5,285.5C 149.409,283.302 150.075,282.969 151.5,284.5 Z"/></g>
<g><path style="opacity:1" fill="#493d36" d="M 110.5,287.5 C 109.516,296.814 109.349,306.148 110,315.5C 111.306,322.265 112.806,328.932 114.5,335.5C 113.778,335.082 113.278,334.416 113,333.5C 112.536,334.094 112.369,334.761 112.5,335.5C 111.132,331.702 110.132,327.702 109.5,323.5C 108.413,317.052 107.746,310.552 107.5,304C 107.196,298.133 108.196,292.633 110.5,287.5 Z"/></g>
<g><path style="opacity:1" fill="#644629" d="M 287.5,309.5 C 288.117,309.611 288.617,309.944 289,310.5C 289.17,317.172 290.67,323.505 293.5,329.5C 293.238,330.978 293.571,332.311 294.5,333.5C 295.965,332.391 296.965,332.891 297.5,335C 297.379,338.448 297.046,341.948 296.5,345.5C 296.875,347.459 297.541,349.293 298.5,351C 297.287,353.687 296.62,356.52 296.5,359.5C 295.603,360.598 294.77,360.598 294,359.5C 292.971,353.877 292.471,348.21 292.5,342.5C 293.552,342.649 294.552,342.483 295.5,342C 287.708,338.775 279.708,337.608 271.5,338.5C 266.156,338.334 260.823,338.501 255.5,339C 253.934,339.608 252.6,340.442 251.5,341.5C 248.861,342.706 248.028,344.706 249,347.5C 250.95,351.915 254.117,355.081 258.5,357C 259.376,358.586 260.376,360.086 261.5,361.5C 267.843,362.646 274.01,364.313 280,366.5C 282.247,364.845 284.58,364.512 287,365.5C 289.066,362.702 290.566,363.035 291.5,366.5C 293.766,367.314 296.1,367.814 298.5,368C 295.258,368.283 294.924,369.117 297.5,370.5C 295.234,371.314 292.9,371.814 290.5,372C 293.648,373.605 296.981,374.605 300.5,375C 299.304,375.654 299.304,376.154 300.5,376.5C 302.432,375.855 303.599,374.521 304,372.5C 306.598,375.491 309.098,378.491 311.5,381.5C 310,381.833 308.5,382.167 307,382.5C 302,381.5 297,380.5 292,379.5C 284.997,379.984 278.164,380.651 271.5,381.5C 258.206,383.148 244.873,385.148 231.5,387.5C 230.519,383.913 228.852,383.246 226.5,385.5C 224.262,382.567 223.262,382.901 223.5,386.5C 219.939,386.365 217.105,387.698 215,390.5C 212.14,388.498 209.64,386.165 207.5,383.5C 207.5,379.5 207.5,375.5 207.5,371.5C 208.382,369.616 209.882,368.283 212,367.5C 215.724,368.612 218.891,370.612 221.5,373.5C 222.086,373.291 222.586,372.957 223,372.5C 225.196,375.125 228.03,376.125 231.5,375.5C 231.945,372.635 231.278,370.135 229.5,368C 224.447,368.096 219.78,366.929 215.5,364.5C 216.5,363.667 217.5,362.833 218.5,362C 217.167,361.333 217.167,360.667 218.5,360C 220.134,359.506 221.801,359.34 223.5,359.5C 223.301,356.059 223.801,352.726 225,349.5C 229.276,346.268 233.109,342.601 236.5,338.5C 235.477,336.105 236.477,335.105 239.5,335.5C 239.5,340.833 239.5,346.167 239.5,351.5C 241.527,351.662 243.527,351.495 245.5,351C 244.648,348.583 243.981,346.083 243.5,343.5C 244.378,340.87 245.045,338.203 245.5,335.5C 247.144,335.714 248.644,335.38 250,334.5C 250.499,329.511 250.666,324.511 250.5,319.5C 251.485,323.634 251.818,327.968 251.5,332.5C 259.174,332.666 266.841,332.5 274.5,332C 275.347,328.624 276.681,325.457 278.5,322.5C 280.581,325.748 283.414,328.081 287,329.5C 287.5,322.842 287.666,316.175 287.5,309.5 Z"/></g>
<g><path style="opacity:1" fill="#080c11" d="M 359.5,197.5 C 360.498,232.663 360.832,267.996 360.5,303.5C 360.685,357.506 360.185,411.506 359,465.5C 355.968,478.032 348.134,485.699 335.5,488.5C 324.985,487.505 314.318,486.505 303.5,485.5C 314.167,484.833 324.833,484.167 335.5,483.5C 334.271,482.719 332.938,482.219 331.5,482C 333.377,480.815 335.377,479.815 337.5,479C 335.74,478.035 335.406,476.868 336.5,475.5C 338.111,476.32 338.778,477.654 338.5,479.5C 340.857,479.663 343.19,479.497 345.5,479C 344.643,478.311 343.977,477.478 343.5,476.5C 344.428,475.232 344.595,473.899 344,472.5C 343.683,474.301 343.016,474.634 342,473.5C 342,470.018 341.833,466.684 341.5,463.5C 344.763,462.862 347.929,462.862 351,463.5C 351.667,458.167 352.333,458.167 353,463.5C 353.226,460.905 353.726,458.405 354.5,456C 353.833,454.667 353.167,453.333 352.5,452C 353.588,447.741 353.588,443.241 352.5,438.5C 352.913,427.697 354.246,417.03 356.5,406.5C 356.017,398.899 356.017,391.232 356.5,383.5C 356.841,372.82 355.841,362.32 353.5,352C 354.448,351.517 355.448,351.351 356.5,351.5C 354.975,348.749 354.308,345.083 354.5,340.5C 355.268,341.263 355.768,342.263 356,343.5C 356.334,336.819 356.834,330.153 357.5,323.5C 357.662,312.864 357.329,302.364 356.5,292C 358.66,260.539 359.66,229.039 359.5,197.5 Z"/></g>
<g><path style="opacity:1" fill="#644a33" d="M 155.5,351.5 C 155.824,356.95 157.158,362.117 159.5,367C 158.884,368.4 158.551,369.9 158.5,371.5C 159.811,375.407 160.478,379.407 160.5,383.5C 164.329,383.927 167.996,383.927 171.5,383.5C 171.375,386.608 172.708,388.608 175.5,389.5C 175.657,390.873 175.49,392.207 175,393.5C 167.944,397.115 168.11,399.115 175.5,399.5C 175.81,410.219 175.477,420.885 174.5,431.5C 175.262,431.911 176.262,432.077 177.5,432C 177,432.5 176.5,433 176,433.5C 175.502,436.817 175.335,440.15 175.5,443.5C 180.833,443.5 186.167,443.5 191.5,443.5C 191.5,444.833 191.5,446.167 191.5,447.5C 189.396,447.201 187.396,447.534 185.5,448.5C 187.07,450.947 189.07,452.947 191.5,454.5C 190.689,455.216 190.022,456.05 189.5,457C 191.013,458.879 191.679,461.046 191.5,463.5C 193.5,463.5 195.5,463.5 197.5,463.5C 200.231,468.594 202.564,473.928 204.5,479.5C 205.5,479.5 206.5,479.5 207.5,479.5C 207.5,481.167 207.5,482.833 207.5,484.5C 212.833,484.5 218.167,484.5 223.5,484.5C 223.5,486.5 223.5,488.5 223.5,490.5C 224.833,490.5 226.167,490.5 227.5,490.5C 227.5,492.167 227.5,493.833 227.5,495.5C 231.5,495.5 235.5,495.5 239.5,495.5C 239.575,492.794 239.908,490.127 240.5,487.5C 241.833,487.5 243.167,487.5 244.5,487.5C 244.259,490.999 245.092,491.332 247,488.5C 248.029,484.213 247.195,480.38 244.5,477C 242.866,476.506 241.199,476.34 239.5,476.5C 239.48,474.857 240.147,473.524 241.5,472.5C 239.041,471.674 236.541,471.007 234,470.5C 232.69,469.87 231.856,468.87 231.5,467.5C 235.622,468.075 239.622,469.075 243.5,470.5C 243.804,471.15 244.137,471.817 244.5,472.5C 247.546,473.375 250.546,474.375 253.5,475.5C 252.96,476.748 252.293,477.915 251.5,479C 252.61,481.737 252.777,484.571 252,487.5C 250.515,493.107 249.182,498.774 248,504.5C 247.167,506 246,507.167 244.5,508C 244.833,508.333 245.167,508.667 245.5,509C 243.563,509.122 242.23,509.955 241.5,511.5C 240.833,511.5 240.167,511.5 239.5,511.5C 239.082,510.778 238.416,510.278 237.5,510C 225.511,508.442 213.511,508.275 201.5,509.5C 197.824,509.572 194.324,508.906 191,507.5C 186.939,509.182 183.439,508.349 180.5,505C 180.833,504.667 181.167,504.333 181.5,504C 180.762,501.935 179.095,500.101 176.5,498.5C 175.741,495.843 175.074,493.177 174.5,490.5C 173.5,489.667 172.5,488.833 171.5,488C 172.444,485.281 172.777,482.448 172.5,479.5C 170.833,479.5 169.167,479.5 167.5,479.5C 166.351,473.535 163.851,468.202 160,463.5C 159.51,462.207 159.343,460.873 159.5,459.5C 158.5,459.5 157.5,459.5 156.5,459.5C 154.56,455.085 153.227,450.418 152.5,445.5C 149.736,438.788 147.736,431.788 146.5,424.5C 147.59,418.387 145.923,413.221 141.5,409C 143.121,406.834 143.955,404.334 144,401.5C 146.482,402.624 146.982,404.29 145.5,406.5C 146.5,407.167 147.5,407.833 148.5,408.5C 147.331,412.184 147.498,415.85 149,419.5C 149.718,420.451 150.551,420.617 151.5,420C 153.01,418.649 154.01,416.982 154.5,415C 152.638,410.11 150.638,405.276 148.5,400.5C 149.325,399.614 150.325,399.281 151.5,399.5C 151.5,394.167 151.5,388.833 151.5,383.5C 148.833,383.5 146.167,383.5 143.5,383.5C 142.245,378.282 141.411,372.948 141,367.5C 139.213,362.926 137.713,358.259 136.5,353.5C 134.538,354.854 133.538,354.187 133.5,351.5C 134.052,347.743 135.052,347.743 136.5,351.5C 136.833,350.667 137.167,349.833 137.5,349C 137.067,347.072 136.4,345.239 135.5,343.5C 137.149,337.645 137.982,331.645 138,325.5C 139.813,328.388 141.479,331.388 143,334.5C 143.333,336.833 143.667,339.167 144,341.5C 148.34,343.646 150.84,346.979 151.5,351.5C 152.833,351.5 154.167,351.5 155.5,351.5 Z"/></g>
<g><path style="opacity:1" fill="#604439" d="M 119.5,271.5 C 119.833,271.5 120.167,271.5 120.5,271.5C 121.5,271.5 122.5,271.5 123.5,271.5C 122.54,273.461 121.207,275.127 119.5,276.5C 119.709,277.086 120.043,277.586 120.5,278C 118.431,278.324 118.098,279.158 119.5,280.5C 117.121,287.729 115.121,295.062 113.5,302.5C 114.772,308.63 115.772,314.63 116.5,320.5C 115.225,323.873 115.392,327.207 117,330.5C 117.333,330.167 117.667,329.833 118,329.5C 118.495,331.473 118.662,333.473 118.5,335.5C 119.833,335.5 121.167,335.5 122.5,335.5C 122.5,337.833 122.5,340.167 122.5,342.5C 124.199,342.34 125.866,342.506 127.5,343C 126.167,346 124.833,349 123.5,352C 124.167,353.333 125.167,354.333 126.5,355C 126.011,359.978 125.677,365.144 125.5,370.5C 121.263,359.116 117.596,347.45 114.5,335.5C 112.806,328.932 111.306,322.265 110,315.5C 109.349,306.148 109.516,296.814 110.5,287.5C 113.114,282.035 116.114,276.702 119.5,271.5 Z"/></g>
<g><path style="opacity:1" fill="#5d4427" d="M 296.5,295.5 C 297.5,296.833 298.5,298.167 299.5,299.5C 300.605,300.6 301.938,301.267 303.5,301.5C 306.681,303.592 309.681,305.925 312.5,308.5C 313.211,310.03 314.211,311.363 315.5,312.5C 318.903,313.925 322.57,314.758 326.5,315C 328.996,316.08 331.33,317.414 333.5,319C 333.524,325.652 333.024,332.485 332,339.5C 331.23,342.206 330.063,344.706 328.5,347C 328.944,348.762 329.444,348.595 330,346.5C 330.667,350.167 330.667,353.833 330,357.5C 328.182,350.29 327.182,342.957 327,335.5C 324.719,339.852 323.552,344.519 323.5,349.5C 322.178,349.67 321.011,349.337 320,348.5C 319.517,349.448 319.351,350.448 319.5,351.5C 316.167,351.5 312.833,351.5 309.5,351.5C 308.386,346.371 307.719,346.371 307.5,351.5C 304.951,351.559 302.951,350.559 301.5,348.5C 301.797,352.863 300.131,356.53 296.5,359.5C 296.62,356.52 297.287,353.687 298.5,351C 297.541,349.293 296.875,347.459 296.5,345.5C 297.046,341.948 297.379,338.448 297.5,335C 296.965,332.891 295.965,332.391 294.5,333.5C 293.571,332.311 293.238,330.978 293.5,329.5C 294.75,329.423 295.583,328.756 296,327.5C 296.333,328.833 296.667,330.167 297,331.5C 297.167,327.5 297.333,323.5 297.5,319.5C 297.435,314.982 296.769,310.649 295.5,306.5C 296.297,304.868 297.297,303.368 298.5,302C 297.962,299.898 296.962,299.065 295.5,299.5C 296.246,298.264 296.579,296.93 296.5,295.5 Z"/></g>
<g><path style="opacity:1" fill="#5d4329" d="M 315.5,312.5 C 322.175,312.334 328.842,312.5 335.5,313C 337.454,317.063 338.787,321.397 339.5,326C 337.81,337.443 336.644,348.943 336,360.5C 335.667,360.167 335.333,359.833 335,359.5C 334.333,363.5 333.667,367.5 333,371.5C 332,372.167 331,372.833 330,373.5C 329.764,375.764 329.264,377.931 328.5,380C 325.149,380.057 322.149,380.891 319.5,382.5C 319.5,382.833 319.5,383.167 319.5,383.5C 316.326,384.015 313.326,385.015 310.5,386.5C 306.535,385.726 302.535,385.393 298.5,385.5C 298.027,384.094 297.027,383.427 295.5,383.5C 295.082,382.778 294.416,382.278 293.5,382C 286.174,381.5 278.841,381.334 271.5,381.5C 278.164,380.651 284.997,379.984 292,379.5C 297,380.5 302,381.5 307,382.5C 308.5,382.167 310,381.833 311.5,381.5C 309.098,378.491 306.598,375.491 304,372.5C 303.599,374.521 302.432,375.855 300.5,376.5C 299.304,376.154 299.304,375.654 300.5,375C 296.981,374.605 293.648,373.605 290.5,372C 292.9,371.814 295.234,371.314 297.5,370.5C 294.924,369.117 295.258,368.283 298.5,368C 296.1,367.814 293.766,367.314 291.5,366.5C 290.566,363.035 289.066,362.702 287,365.5C 284.58,364.512 282.247,364.845 280,366.5C 274.01,364.313 267.843,362.646 261.5,361.5C 260.376,360.086 259.376,358.586 258.5,357C 254.117,355.081 250.95,351.915 249,347.5C 248.028,344.706 248.861,342.706 251.5,341.5C 251.216,343.415 251.549,345.081 252.5,346.5C 254.206,350.003 256.54,353.17 259.5,356C 261.869,356.536 263.869,357.703 265.5,359.5C 267.396,360.466 269.396,360.799 271.5,360.5C 278.043,363.488 284.377,362.654 290.5,358C 291.69,353.213 291.69,348.379 290.5,343.5C 284.102,342.146 277.769,341.146 271.5,340.5C 271.5,339.833 271.5,339.167 271.5,338.5C 279.708,337.608 287.708,338.775 295.5,342C 294.552,342.483 293.552,342.649 292.5,342.5C 292.471,348.21 292.971,353.877 294,359.5C 294.77,360.598 295.603,360.598 296.5,359.5C 300.131,356.53 301.797,352.863 301.5,348.5C 302.951,350.559 304.951,351.559 307.5,351.5C 307.719,346.371 308.386,346.371 309.5,351.5C 312.833,351.5 316.167,351.5 319.5,351.5C 319.351,350.448 319.517,349.448 320,348.5C 321.011,349.337 322.178,349.67 323.5,349.5C 323.552,344.519 324.719,339.852 327,335.5C 327.182,342.957 328.182,350.29 330,357.5C 330.667,353.833 330.667,350.167 330,346.5C 329.444,348.595 328.944,348.762 328.5,347C 330.063,344.706 331.23,342.206 332,339.5C 333.024,332.485 333.524,325.652 333.5,319C 331.33,317.414 328.996,316.08 326.5,315C 322.57,314.758 318.903,313.925 315.5,312.5 Z"/></g>
<g><path style="opacity:1" fill="#050403" d="M 348.5,271.5 C 348.481,273.06 348.148,274.56 347.5,276C 347.944,277.762 348.444,277.595 349,275.5C 351.143,285.554 350.976,295.554 348.5,305.5C 348.482,307.373 348.982,307.706 350,306.5C 350.71,307.973 351.876,308.64 353.5,308.5C 352.708,313.477 351.708,318.144 350.5,322.5C 351.274,326.779 351.774,331.113 352,335.5C 352.182,332.774 352.682,330.107 353.5,327.5C 355.024,328.527 355.691,330.027 355.5,332C 353.822,334.776 353.488,337.61 354.5,340.5C 354.308,345.083 354.975,348.749 356.5,351.5C 355.448,351.351 354.448,351.517 353.5,352C 355.841,362.32 356.841,372.82 356.5,383.5C 356.017,391.232 356.017,398.899 356.5,406.5C 354.246,417.03 352.913,427.697 352.5,438.5C 353.588,443.241 353.588,447.741 352.5,452C 353.167,453.333 353.833,454.667 354.5,456C 353.726,458.405 353.226,460.905 353,463.5C 352.333,458.167 351.667,458.167 351,463.5C 347.929,462.862 344.763,462.862 341.5,463.5C 341.833,466.684 342,470.018 342,473.5C 343.016,474.634 343.683,474.301 344,472.5C 344.595,473.899 344.428,475.232 343.5,476.5C 343.977,477.478 344.643,478.311 345.5,479C 343.19,479.497 340.857,479.663 338.5,479.5C 338.778,477.654 338.111,476.32 336.5,475.5C 335.406,476.868 335.74,478.035 337.5,479C 335.377,479.815 333.377,480.815 331.5,482C 332.938,482.219 334.271,482.719 335.5,483.5C 324.833,484.167 314.167,484.833 303.5,485.5C 314.318,486.505 324.985,487.505 335.5,488.5C 330.389,489.806 325.056,490.472 319.5,490.5C 310.002,489.417 300.668,489.417 291.5,490.5C 289.574,491.242 287.741,492.242 286,493.5C 282.799,499.286 280.299,505.286 278.5,511.5C 274.5,511.5 270.5,511.5 266.5,511.5C 265.457,501.823 265.457,492.157 266.5,482.5C 265.946,479.722 264.279,478.056 261.5,477.5C 261.158,476.662 260.492,476.328 259.5,476.5C 257.216,476.025 255.216,475.025 253.5,473.5C 249.695,471.75 246.362,469.25 243.5,466C 246.872,464.799 249.872,462.966 252.5,460.5C 253.938,462.599 254.605,464.599 254.5,466.5C 260.347,463.576 266.347,460.576 272.5,457.5C 273.086,457.709 273.586,458.043 274,458.5C 277.923,455.45 282.256,454.45 287,455.5C 292.368,453.163 297.868,451.829 303.5,451.5C 303.238,452.978 303.571,454.311 304.5,455.5C 305.48,452.914 305.813,450.247 305.5,447.5C 307.924,447.808 310.257,447.474 312.5,446.5C 310.712,442.418 309.045,438.251 307.5,434C 307.509,432.596 308.009,431.43 309,430.5C 311.139,431.769 313.305,431.769 315.5,430.5C 315.291,429.914 314.957,429.414 314.5,429C 311.723,428.949 309.057,428.782 306.5,428.5C 307.729,427.719 309.062,427.219 310.5,427C 310.043,426.586 309.709,426.086 309.5,425.5C 312.682,424.445 315.016,422.445 316.5,419.5C 318.281,415.501 320.615,411.835 323.5,408.5C 323.833,407.167 324.167,405.833 324.5,404.5C 323.38,401.292 322.38,398.292 321.5,395.5C 320.271,394.719 318.938,394.219 317.5,394C 318.167,393.667 318.833,393.333 319.5,393C 316.405,389.633 317.072,387.299 321.5,386C 325.207,385.004 328.541,385.67 331.5,388C 333.5,388.667 335.5,388.667 337.5,388C 339.003,385.226 340.503,382.393 342,379.5C 342.5,363.17 342.667,346.837 342.5,330.5C 342.891,323.079 342.391,315.746 341,308.5C 337.639,307.342 334.473,307.675 331.5,309.5C 329.5,309.833 327.5,310.167 325.5,310.5C 324.957,310.44 324.624,310.107 324.5,309.5C 326.772,308.515 329.105,307.681 331.5,307C 330.833,306.667 330.167,306.333 329.5,306C 331.402,304.349 333.402,304.016 335.5,305C 335.458,300.483 337.791,297.316 342.5,295.5C 344.722,292.045 344.722,288.712 342.5,285.5C 344.119,280.942 345.119,276.275 345.5,271.5C 346.5,271.5 347.5,271.5 348.5,271.5 Z"/></g>
<g><path style="opacity:1" fill="#4f3a24" d="M 312.5,308.5 C 314.255,309.072 315.922,309.906 317.5,311C 320.367,311.801 323.034,311.634 325.5,310.5C 327.5,310.167 329.5,309.833 331.5,309.5C 334.073,310.219 336.573,311.219 339,312.5C 340.602,329.712 340.102,346.879 337.5,364C 337.994,365.462 338.327,366.962 338.5,368.5C 337.793,372.66 336.793,376.66 335.5,380.5C 330.331,381.381 324.998,382.048 319.5,382.5C 322.149,380.891 325.149,380.057 328.5,380C 329.264,377.931 329.764,375.764 330,373.5C 331,372.833 332,372.167 333,371.5C 333.667,367.5 334.333,363.5 335,359.5C 335.333,359.833 335.667,360.167 336,360.5C 336.644,348.943 337.81,337.443 339.5,326C 338.787,321.397 337.454,317.063 335.5,313C 328.842,312.5 322.175,312.334 315.5,312.5C 314.211,311.363 313.211,310.03 312.5,308.5 Z"/></g>
<g><path style="opacity:1" fill="#3d2816" d="M 271.5,338.5 C 271.5,339.167 271.5,339.833 271.5,340.5C 265.974,340.179 260.64,340.512 255.5,341.5C 254.5,341.5 253.5,341.5 252.5,341.5C 252.5,343.167 252.5,344.833 252.5,346.5C 251.549,345.081 251.216,343.415 251.5,341.5C 252.6,340.442 253.934,339.608 255.5,339C 260.823,338.501 266.156,338.334 271.5,338.5 Z"/></g>
<g><path style="opacity:1" fill="#1a1003" d="M 255.5,341.5 C 265.255,341.402 274.922,342.235 284.5,344C 286.282,344.814 287.782,345.981 289,347.5C 289.773,349.352 289.273,350.686 287.5,351.5C 285.661,350.492 284.328,348.992 283.5,347C 278.039,345.937 272.539,345.104 267,344.5C 264.679,344.909 262.513,345.743 260.5,347C 261.343,351.614 264.01,354.781 268.5,356.5C 273.519,357.728 278.519,357.728 283.5,356.5C 283.175,358.132 282.175,359.132 280.5,359.5C 277.551,360.302 274.551,360.636 271.5,360.5C 269.396,360.799 267.396,360.466 265.5,359.5C 263.869,357.703 261.869,356.536 259.5,356C 256.54,353.17 254.206,350.003 252.5,346.5C 252.5,344.833 252.5,343.167 252.5,341.5C 253.5,341.5 254.5,341.5 255.5,341.5 Z"/></g>
<g><path style="opacity:1" fill="#251807" d="M 255.5,341.5 C 260.64,340.512 265.974,340.179 271.5,340.5C 277.769,341.146 284.102,342.146 290.5,343.5C 291.69,348.379 291.69,353.213 290.5,358C 284.377,362.654 278.043,363.488 271.5,360.5C 274.551,360.636 277.551,360.302 280.5,359.5C 282.175,359.132 283.175,358.132 283.5,356.5C 284.803,354.858 286.136,353.191 287.5,351.5C 289.273,350.686 289.773,349.352 289,347.5C 287.782,345.981 286.282,344.814 284.5,344C 274.922,342.235 265.255,341.402 255.5,341.5 Z"/></g>
<g><path style="opacity:1" fill="#110b01" d="M 287.5,351.5 C 286.136,353.191 284.803,354.858 283.5,356.5C 278.519,357.728 273.519,357.728 268.5,356.5C 264.01,354.781 261.343,351.614 260.5,347C 262.513,345.743 264.679,344.909 267,344.5C 272.539,345.104 278.039,345.937 283.5,347C 284.328,348.992 285.661,350.492 287.5,351.5 Z"/></g>
<g><path style="opacity:1" fill="#597682" d="M 125.5,255.5 C 124.576,258.409 123.243,261.076 121.5,263.5C 117.454,269.233 113.621,275.233 110,281.5C 105.903,291.448 104.57,301.782 106,312.5C 106.416,316.529 107.583,320.196 109.5,323.5C 110.132,327.702 111.132,331.702 112.5,335.5C 115.5,345.5 118.5,355.5 121.5,365.5C 120.25,365.577 119.417,366.244 119,367.5C 116.209,359.493 113.043,351.66 109.5,344C 110.081,343.107 110.415,342.107 110.5,341C 108.943,333.099 107.11,325.265 105,317.5C 104.833,313.333 104.667,309.167 104.5,305C 103.501,294.975 105.668,285.808 111,277.5C 111.333,275.5 111.667,273.5 112,271.5C 114.373,267.807 116.706,264.141 119,260.5C 119.667,259.167 120.333,259.167 121,260.5C 121.154,257.475 122.654,255.809 125.5,255.5 Z"/></g>
<g><path style="opacity:1" fill="#65482d" d="M 155.5,351.5 C 156.833,351.5 158.167,351.5 159.5,351.5C 161.199,351.34 162.866,351.506 164.5,352C 166.848,355.477 169.848,357.977 173.5,359.5C 173.187,362.247 173.52,364.914 174.5,367.5C 176.872,370.121 177.538,369.788 176.5,366.5C 178.333,363.71 179.333,364.043 179.5,367.5C 180.5,367.5 181.5,367.5 182.5,367.5C 182.351,366.448 182.517,365.448 183,364.5C 183.667,363.167 184.333,363.167 185,364.5C 185.684,365.784 185.517,366.951 184.5,368C 186.543,371.446 188.209,375.113 189.5,379C 191.571,383.244 194.904,385.744 199.5,386.5C 199.5,385.5 199.5,384.5 199.5,383.5C 202.272,382.629 204.938,382.629 207.5,383.5C 209.64,386.165 212.14,388.498 215,390.5C 217.105,387.698 219.939,386.365 223.5,386.5C 223.262,382.901 224.262,382.567 226.5,385.5C 228.852,383.246 230.519,383.913 231.5,387.5C 232.159,390.455 232.492,393.455 232.5,396.5C 234.216,396.629 235.883,396.962 237.5,397.5C 237.833,398.5 238.5,399.167 239.5,399.5C 239.577,400.75 240.244,401.583 241.5,402C 255.807,405.124 270.14,405.29 284.5,402.5C 288.388,403.59 292.054,405.257 295.5,407.5C 293.197,409.657 290.53,411.323 287.5,412.5C 282.208,413.495 276.875,413.828 271.5,413.5C 271.5,416.167 271.5,418.833 271.5,421.5C 268.412,422.312 265.579,423.645 263,425.5C 260.667,422.833 258.333,422.833 256,425.5C 253.544,423.679 250.711,423.012 247.5,423.5C 247.5,422.5 247.5,421.5 247.5,420.5C 243.363,420.779 241.863,422.779 243,426.5C 241.108,427.13 239.441,428.13 238,429.5C 236.86,438.068 232.026,441.401 223.5,439.5C 223.953,432.397 222.12,432.064 218,438.5C 217.257,440.441 217.424,442.274 218.5,444C 221.5,444.333 224.5,444.667 227.5,445C 230.055,446.523 231.888,448.023 233,449.5C 234.921,447.997 237.088,447.331 239.5,447.5C 239.338,449.527 239.505,451.527 240,453.5C 241.832,452.142 243.665,451.808 245.5,452.5C 243.511,456.178 240.511,458.178 236.5,458.5C 235.836,456.133 234.503,454.133 232.5,452.5C 231.808,453.025 231.308,453.692 231,454.5C 228.254,452.287 225.254,451.954 222,453.5C 215.806,453.113 209.973,451.613 204.5,449C 203.751,445.925 202.751,442.925 201.5,440C 202.308,439.692 202.975,439.192 203.5,438.5C 202.129,435.105 200.796,431.771 199.5,428.5C 197.516,428.617 195.85,427.95 194.5,426.5C 194.568,423.602 194.735,420.602 195,417.5C 193.989,418.337 192.822,418.67 191.5,418.5C 191.685,413.048 190.852,408.048 189,403.5C 187.234,401.404 185.901,399.071 185,396.5C 181.35,394.664 178.184,392.331 175.5,389.5C 172.708,388.608 171.375,386.608 171.5,383.5C 167.996,383.927 164.329,383.927 160.5,383.5C 160.478,379.407 159.811,375.407 158.5,371.5C 158.551,369.9 158.884,368.4 159.5,367C 157.158,362.117 155.824,356.95 155.5,351.5 Z"/></g>
<g><path style="opacity:1" fill="#62483c" d="M 146.5,424.5 C 147.736,431.788 149.736,438.788 152.5,445.5C 150.859,444.853 149.526,443.853 148.5,442.5C 146.707,438.99 145.374,435.324 144.5,431.5C 138.036,411.341 131.703,391.008 125.5,370.5C 126.404,369.791 126.737,368.791 126.5,367.5C 131.057,367.325 132.724,369.325 131.5,373.5C 132.814,376.9 133.814,380.4 134.5,384C 133.761,387.686 134.761,391.019 137.5,394C 138.239,395.765 138.239,397.765 137.5,400C 140.017,406.327 141.85,412.827 143,419.5C 144.683,420.887 145.85,422.553 146.5,424.5 Z"/></g>
<g><path style="opacity:1" fill="#443323" d="M 342.5,330.5 C 341.506,339.986 341.173,349.652 341.5,359.5C 340.668,366.402 339.668,373.402 338.5,380.5C 337.5,380.5 336.5,380.5 335.5,380.5C 336.793,376.66 337.793,372.66 338.5,368.5C 338.327,366.962 337.994,365.462 337.5,364C 340.102,346.879 340.602,329.712 339,312.5C 336.573,311.219 334.073,310.219 331.5,309.5C 334.473,307.675 337.639,307.342 341,308.5C 342.391,315.746 342.891,323.079 342.5,330.5 Z"/></g>
<g><path style="opacity:1" fill="#33261c" d="M 341.5,359.5 C 342.357,368.538 341.191,377.205 338,385.5C 335.761,386.869 333.927,386.369 332.5,384C 328.179,383.501 323.846,383.334 319.5,383.5C 319.5,383.167 319.5,382.833 319.5,382.5C 324.998,382.048 330.331,381.381 335.5,380.5C 336.5,380.5 337.5,380.5 338.5,380.5C 339.668,373.402 340.668,366.402 341.5,359.5 Z"/></g>
<g><path style="opacity:1" fill="#543823" d="M 271.5,381.5 C 278.841,381.334 286.174,381.5 293.5,382C 294.416,382.278 295.082,382.778 295.5,383.5C 286.161,383.334 276.827,383.5 267.5,384C 258.226,386.155 248.893,387.988 239.5,389.5C 235.207,391.387 234.541,394.053 237.5,397.5C 235.883,396.962 234.216,396.629 232.5,396.5C 232.492,393.455 232.159,390.455 231.5,387.5C 244.873,385.148 258.206,383.148 271.5,381.5 Z"/></g>
<g><path style="opacity:1" fill="#23150a" d="M 295.5,383.5 C 297.027,383.427 298.027,384.094 298.5,385.5C 290.841,384.762 283.174,384.596 275.5,385C 270.231,386.106 264.897,386.773 259.5,387C 257.681,387.74 256.348,388.907 255.5,390.5C 250.161,389.842 246.161,391.842 243.5,396.5C 243.977,397.478 244.643,398.311 245.5,399C 254.748,400.819 264.081,401.653 273.5,401.5C 266.679,402.655 259.679,402.821 252.5,402C 248.213,400.847 243.879,400.013 239.5,399.5C 238.5,399.167 237.833,398.5 237.5,397.5C 234.541,394.053 235.207,391.387 239.5,389.5C 248.893,387.988 258.226,386.155 267.5,384C 276.827,383.5 286.161,383.334 295.5,383.5 Z"/></g>
<g><path style="opacity:1" fill="#160f08" d="M 342.5,330.5 C 342.667,346.837 342.5,363.17 342,379.5C 340.503,382.393 339.003,385.226 337.5,388C 335.5,388.667 333.5,388.667 331.5,388C 328.541,385.67 325.207,385.004 321.5,386C 317.072,387.299 316.405,389.633 319.5,393C 318.833,393.333 318.167,393.667 317.5,394C 318.938,394.219 320.271,394.719 321.5,395.5C 322.38,398.292 323.38,401.292 324.5,404.5C 324.167,405.833 323.833,407.167 323.5,408.5C 320.615,411.835 318.281,415.501 316.5,419.5C 312.445,421.743 308.112,423.41 303.5,424.5C 305.863,422.32 308.53,420.653 311.5,419.5C 315.474,417.023 318.641,413.69 321,409.5C 321.494,407.866 321.66,406.199 321.5,404.5C 319.801,404.66 318.134,404.494 316.5,404C 314.312,402.222 311.979,400.722 309.5,399.5C 306.833,399.5 304.167,399.5 301.5,399.5C 292.929,398.24 284.262,398.574 275.5,400.5C 278.114,398.981 280.947,397.648 284,396.5C 294.724,397.124 305.557,397.124 316.5,396.5C 314.349,393.424 311.349,391.924 307.5,392C 305.109,390.691 305.109,389.691 307.5,389C 305.833,388.333 304.167,388.333 302.5,389C 303.741,390.487 303.241,391.32 301,391.5C 296.851,390.508 293.018,388.841 289.5,386.5C 278.043,386.95 266.71,388.283 255.5,390.5C 256.348,388.907 257.681,387.74 259.5,387C 264.897,386.773 270.231,386.106 275.5,385C 283.174,384.596 290.841,384.762 298.5,385.5C 302.535,385.393 306.535,385.726 310.5,386.5C 313.326,385.015 316.326,384.015 319.5,383.5C 323.846,383.334 328.179,383.501 332.5,384C 333.927,386.369 335.761,386.869 338,385.5C 341.191,377.205 342.357,368.538 341.5,359.5C 341.173,349.652 341.506,339.986 342.5,330.5 Z"/></g>
<g><path style="opacity:1" fill="#111315" d="M 114.5,335.5 C 117.596,347.45 121.263,359.116 125.5,370.5C 131.703,391.008 138.036,411.341 144.5,431.5C 144.768,433.099 144.434,434.432 143.5,435.5C 143.598,433.447 142.931,431.78 141.5,430.5C 136.831,415.753 132.164,401.086 127.5,386.5C 126.275,379.267 124.275,372.267 121.5,365.5C 118.5,355.5 115.5,345.5 112.5,335.5C 112.369,334.761 112.536,334.094 113,333.5C 113.278,334.416 113.778,335.082 114.5,335.5 Z"/></g>
<g><path style="opacity:1" fill="#654b2f" d="M 175.5,389.5 C 178.184,392.331 181.35,394.664 185,396.5C 185.901,399.071 187.234,401.404 189,403.5C 190.852,408.048 191.685,413.048 191.5,418.5C 192.822,418.67 193.989,418.337 195,417.5C 194.735,420.602 194.568,423.602 194.5,426.5C 195.85,427.95 197.516,428.617 199.5,428.5C 200.796,431.771 202.129,435.105 203.5,438.5C 202.975,439.192 202.308,439.692 201.5,440C 202.751,442.925 203.751,445.925 204.5,449C 209.973,451.613 215.806,453.113 222,453.5C 225.254,451.954 228.254,452.287 231,454.5C 231.308,453.692 231.808,453.025 232.5,452.5C 234.503,454.133 235.836,456.133 236.5,458.5C 233.599,459.536 231.099,461.203 229,463.5C 228.09,465.945 228.924,467.278 231.5,467.5C 231.856,468.87 232.69,469.87 234,470.5C 236.541,471.007 239.041,471.674 241.5,472.5C 240.147,473.524 239.48,474.857 239.5,476.5C 241.199,476.34 242.866,476.506 244.5,477C 247.195,480.38 248.029,484.213 247,488.5C 245.092,491.332 244.259,490.999 244.5,487.5C 243.167,487.5 241.833,487.5 240.5,487.5C 239.908,490.127 239.575,492.794 239.5,495.5C 235.5,495.5 231.5,495.5 227.5,495.5C 227.5,493.833 227.5,492.167 227.5,490.5C 226.167,490.5 224.833,490.5 223.5,490.5C 223.5,488.5 223.5,486.5 223.5,484.5C 218.167,484.5 212.833,484.5 207.5,484.5C 207.5,482.833 207.5,481.167 207.5,479.5C 206.5,479.5 205.5,479.5 204.5,479.5C 202.564,473.928 200.231,468.594 197.5,463.5C 195.5,463.5 193.5,463.5 191.5,463.5C 191.679,461.046 191.013,458.879 189.5,457C 190.022,456.05 190.689,455.216 191.5,454.5C 189.07,452.947 187.07,450.947 185.5,448.5C 187.396,447.534 189.396,447.201 191.5,447.5C 191.5,446.167 191.5,444.833 191.5,443.5C 186.167,443.5 180.833,443.5 175.5,443.5C 175.335,440.15 175.502,436.817 176,433.5C 176.5,433 177,432.5 177.5,432C 176.262,432.077 175.262,431.911 174.5,431.5C 175.477,420.885 175.81,410.219 175.5,399.5C 168.11,399.115 167.944,397.115 175,393.5C 175.49,392.207 175.657,390.873 175.5,389.5 Z"/></g>
<g><path style="opacity:1" fill="#0c0804" d="M 275.5,400.5 C 275.158,401.338 274.492,401.672 273.5,401.5C 264.081,401.653 254.748,400.819 245.5,399C 244.643,398.311 243.977,397.478 243.5,396.5C 246.161,391.842 250.161,389.842 255.5,390.5C 266.71,388.283 278.043,386.95 289.5,386.5C 293.018,388.841 296.851,390.508 301,391.5C 303.241,391.32 303.741,390.487 302.5,389C 304.167,388.333 305.833,388.333 307.5,389C 305.109,389.691 305.109,390.691 307.5,392C 311.349,391.924 314.349,393.424 316.5,396.5C 305.557,397.124 294.724,397.124 284,396.5C 280.947,397.648 278.114,398.981 275.5,400.5 Z"/></g>
<g><path style="opacity:1" fill="#523d2a" d="M 301.5,399.5 C 296.821,399.334 292.155,399.501 287.5,400C 286.058,400.377 285.058,401.21 284.5,402.5C 270.14,405.29 255.807,405.124 241.5,402C 240.244,401.583 239.577,400.75 239.5,399.5C 243.879,400.013 248.213,400.847 252.5,402C 259.679,402.821 266.679,402.655 273.5,401.5C 274.492,401.672 275.158,401.338 275.5,400.5C 284.262,398.574 292.929,398.24 301.5,399.5 Z"/></g>
<g><path style="opacity:1" fill="#4e6771" d="M 127.5,386.5 C 132.164,401.086 136.831,415.753 141.5,430.5C 138.102,425.167 135.436,419.5 133.5,413.5C 131.749,404.406 129.749,395.406 127.5,386.5 Z"/></g>
<g><path style="opacity:1" fill="#608393" d="M 46.5,415.5 C 49.14,417.926 51.9734,420.259 55,422.5C 55.498,425.482 55.6646,428.482 55.5,431.5C 58.1667,431.5 60.8333,431.5 63.5,431.5C 63.335,434.85 63.5017,438.183 64,441.5C 68.8636,439.809 71.697,436.476 72.5,431.5C 77.1667,431.5 81.8333,431.5 86.5,431.5C 86.9532,435.954 89.2865,438.954 93.5,440.5C 94.9331,442.558 95.5997,444.892 95.5,447.5C 98.5719,447.183 101.572,447.516 104.5,448.5C 100.71,450.662 100.71,452.995 104.5,455.5C 105.466,453.604 105.799,451.604 105.5,449.5C 106.833,449.5 108.167,449.5 109.5,449.5C 109.03,452.934 110.196,455.601 113,457.5C 113.772,457.355 114.439,457.022 115,456.5C 115.497,458.81 115.663,461.143 115.5,463.5C 113.712,463.215 112.045,463.548 110.5,464.5C 106,468.833 101.5,473.167 97,477.5C 96.8333,477.833 96.6667,478.167 96.5,478.5C 98.396,479.466 100.396,479.799 102.5,479.5C 103.303,484.476 106.136,487.809 111,489.5C 111.241,492.289 111.908,494.956 113,497.5C 116.167,499.333 118.667,501.833 120.5,505C 102.829,506.423 85.1619,506.257 67.5,504.5C 57.8616,505.616 48.1949,505.783 38.5,505C 40.6734,501.661 43.3401,498.828 46.5,496.5C 41.1667,495.833 35.8333,495.167 30.5,494.5C 25.6667,489.5 20.8333,484.5 16,479.5C 15.7638,481.764 15.2638,483.931 14.5,486C 11.8976,486.883 9.73092,488.383 8,490.5C 7.62576,489.584 7.12576,488.75 6.5,488C 7.32018,478.244 7.82018,468.41 8,458.5C 9.80504,455.961 12.305,454.961 15.5,455.5C 15.5,452.833 15.5,450.167 15.5,447.5C 18.1667,447.5 20.8333,447.5 23.5,447.5C 23.5,442.167 23.5,436.833 23.5,431.5C 26.1667,431.5 28.8333,431.5 31.5,431.5C 31.5,428.833 31.5,426.167 31.5,423.5C 34.8333,423.5 38.1667,423.5 41.5,423.5C 42.1359,420.894 42.1359,418.394 41.5,416C 43.1341,415.506 44.8008,415.34 46.5,415.5 Z"/></g>
<g><path style="opacity:1" fill="#523c26" d="M 313.5,406.5 C 314.947,407.134 315.613,408.301 315.5,410C 315.227,412.151 314.561,414.151 313.5,416C 307.568,418.533 301.568,420.866 295.5,423C 292.527,427.783 289.694,432.617 287,437.5C 285.786,439.049 284.286,440.215 282.5,441C 279.064,441.692 275.73,442.692 272.5,444C 271.663,445.011 271.33,446.178 271.5,447.5C 265.6,449.276 259.6,450.776 253.5,452C 249.868,454.63 246.535,457.63 243.5,461C 240.243,462.043 236.91,462.543 233.5,462.5C 236.72,461.009 240.054,459.509 243.5,458C 244.833,456 246.167,454 247.5,452C 251.795,451.088 256.128,450.421 260.5,450C 266.044,443.697 273.044,440.03 281.5,439C 284.905,436.486 285.238,433.653 282.5,430.5C 287.215,422.309 294.215,417.309 303.5,415.5C 303.585,413.071 304.585,411.071 306.5,409.5C 307.651,408.269 308.817,408.269 310,409.5C 311.145,408.364 312.312,407.364 313.5,406.5 Z"/></g>
<g><path style="opacity:1" fill="#60442c" d="M 301.5,399.5 C 304.167,399.5 306.833,399.5 309.5,399.5C 310.074,402.321 311.408,404.654 313.5,406.5C 312.312,407.364 311.145,408.364 310,409.5C 308.817,408.269 307.651,408.269 306.5,409.5C 304.585,411.071 303.585,413.071 303.5,415.5C 294.215,417.309 287.215,422.309 282.5,430.5C 285.238,433.653 284.905,436.486 281.5,439C 273.044,440.03 266.044,443.697 260.5,450C 256.128,450.421 251.795,451.088 247.5,452C 246.167,454 244.833,456 243.5,458C 240.054,459.509 236.72,461.009 233.5,462.5C 232.791,463.404 231.791,463.737 230.5,463.5C 230.433,464.959 230.766,466.292 231.5,467.5C 228.924,467.278 228.09,465.945 229,463.5C 231.099,461.203 233.599,459.536 236.5,458.5C 240.511,458.178 243.511,456.178 245.5,452.5C 243.665,451.808 241.832,452.142 240,453.5C 239.505,451.527 239.338,449.527 239.5,447.5C 237.088,447.331 234.921,447.997 233,449.5C 231.888,448.023 230.055,446.523 227.5,445C 224.5,444.667 221.5,444.333 218.5,444C 217.424,442.274 217.257,440.441 218,438.5C 222.12,432.064 223.953,432.397 223.5,439.5C 232.026,441.401 236.86,438.068 238,429.5C 239.441,428.13 241.108,427.13 243,426.5C 241.863,422.779 243.363,420.779 247.5,420.5C 247.5,421.5 247.5,422.5 247.5,423.5C 250.711,423.012 253.544,423.679 256,425.5C 258.333,422.833 260.667,422.833 263,425.5C 265.579,423.645 268.412,422.312 271.5,421.5C 271.5,418.833 271.5,416.167 271.5,413.5C 276.875,413.828 282.208,413.495 287.5,412.5C 290.53,411.323 293.197,409.657 295.5,407.5C 292.054,405.257 288.388,403.59 284.5,402.5C 285.058,401.21 286.058,400.377 287.5,400C 292.155,399.501 296.821,399.334 301.5,399.5 Z"/></g>
<g><path style="opacity:1" fill="#463424" d="M 309.5,399.5 C 311.979,400.722 314.312,402.222 316.5,404C 318.134,404.494 319.801,404.66 321.5,404.5C 321.66,406.199 321.494,407.866 321,409.5C 318.641,413.69 315.474,417.023 311.5,419.5C 307.523,420.482 303.523,421.482 299.5,422.5C 296.325,427.853 293.825,433.52 292,439.5C 287.105,441.563 282.272,443.563 277.5,445.5C 275.62,445.229 274.287,445.896 273.5,447.5C 272.833,447.5 272.167,447.5 271.5,447.5C 271.33,446.178 271.663,445.011 272.5,444C 275.73,442.692 279.064,441.692 282.5,441C 284.286,440.215 285.786,439.049 287,437.5C 289.694,432.617 292.527,427.783 295.5,423C 301.568,420.866 307.568,418.533 313.5,416C 314.561,414.151 315.227,412.151 315.5,410C 315.613,408.301 314.947,407.134 313.5,406.5C 311.408,404.654 310.074,402.321 309.5,399.5 Z"/></g>
<g><path style="opacity:1" fill="#0e0905" d="M 316.5,419.5 C 315.016,422.445 312.682,424.445 309.5,425.5C 309.709,426.086 310.043,426.586 310.5,427C 309.062,427.219 307.729,427.719 306.5,428.5C 309.057,428.782 311.723,428.949 314.5,429C 314.957,429.414 315.291,429.914 315.5,430.5C 313.305,431.769 311.139,431.769 309,430.5C 308.009,431.43 307.509,432.596 307.5,434C 309.045,438.251 310.712,442.418 312.5,446.5C 310.257,447.474 307.924,447.808 305.5,447.5C 305.813,450.247 305.48,452.914 304.5,455.5C 303.571,454.311 303.238,452.978 303.5,451.5C 297.868,451.829 292.368,453.163 287,455.5C 282.256,454.45 277.923,455.45 274,458.5C 273.586,458.043 273.086,457.709 272.5,457.5C 266.347,460.576 260.347,463.576 254.5,466.5C 254.605,464.599 253.938,462.599 252.5,460.5C 249.872,462.966 246.872,464.799 243.5,466C 246.362,469.25 249.695,471.75 253.5,473.5C 250.514,473.097 247.848,472.097 245.5,470.5C 242.624,468.362 239.29,467.195 235.5,467C 234.663,465.989 234.33,464.822 234.5,463.5C 242.599,462.934 249.599,459.768 255.5,454C 260.752,452.545 266.086,451.379 271.5,450.5C 272.193,449.482 272.859,448.482 273.5,447.5C 274.287,445.896 275.62,445.229 277.5,445.5C 281.514,445.666 285.514,445.499 289.5,445C 293.351,442.812 296.185,439.645 298,435.5C 298.426,431.01 300.259,427.344 303.5,424.5C 308.112,423.41 312.445,421.743 316.5,419.5 Z"/></g>
<g><path style="opacity:1" fill="#2b2018" d="M 311.5,419.5 C 308.53,420.653 305.863,422.32 303.5,424.5C 300.259,427.344 298.426,431.01 298,435.5C 296.185,439.645 293.351,442.812 289.5,445C 285.514,445.499 281.514,445.666 277.5,445.5C 282.272,443.563 287.105,441.563 292,439.5C 293.825,433.52 296.325,427.853 299.5,422.5C 303.523,421.482 307.523,420.482 311.5,419.5 Z"/></g>
<g><path style="opacity:1" fill="#597b89" d="M 133.5,413.5 C 135.436,419.5 138.102,425.167 141.5,430.5C 142.931,431.78 143.598,433.447 143.5,435.5C 148.838,452.858 154.172,470.192 159.5,487.5C 157.873,486.009 156.207,484.509 154.5,483C 153.305,481.467 153.305,479.967 154.5,478.5C 151.44,475.047 149.44,471.047 148.5,466.5C 147.667,467.5 146.833,468.5 146,469.5C 145.286,466.394 144.619,463.394 144,460.5C 145.506,462.174 147.339,463.174 149.5,463.5C 147.342,457.823 145.842,451.823 145,445.5C 144.667,445.167 144.333,444.833 144,444.5C 143.517,445.448 143.351,446.448 143.5,447.5C 142.448,447.649 141.448,447.483 140.5,447C 141.833,446.333 141.833,445.667 140.5,445C 141.328,444.085 142.328,443.419 143.5,443C 142.833,442 142.167,441 141.5,440C 142.34,438.334 141.84,438.167 140,439.5C 139.74,437.382 138.74,435.716 137,434.5C 136.46,432.865 136.96,431.532 138.5,430.5C 136.787,425.855 134.787,421.355 132.5,417C 132.989,415.862 133.322,414.695 133.5,413.5 Z"/></g>
<g><path style="opacity:1" fill="#302216" d="M 271.5,447.5 C 272.167,447.5 272.833,447.5 273.5,447.5C 272.859,448.482 272.193,449.482 271.5,450.5C 266.086,451.379 260.752,452.545 255.5,454C 249.599,459.768 242.599,462.934 234.5,463.5C 234.33,464.822 234.663,465.989 235.5,467C 239.29,467.195 242.624,468.362 245.5,470.5C 244.833,470.5 244.167,470.5 243.5,470.5C 239.622,469.075 235.622,468.075 231.5,467.5C 230.766,466.292 230.433,464.959 230.5,463.5C 231.791,463.737 232.791,463.404 233.5,462.5C 236.91,462.543 240.243,462.043 243.5,461C 246.535,457.63 249.868,454.63 253.5,452C 259.6,450.776 265.6,449.276 271.5,447.5 Z"/></g>
<g><path style="opacity:1" fill="#374444" d="M 144.5,431.5 C 145.374,435.324 146.707,438.99 148.5,442.5C 149.676,448.871 151.176,455.204 153,461.5C 159.957,477.876 165.79,494.543 170.5,511.5C 169.833,511.5 169.167,511.5 168.5,511.5C 168.143,507.737 167.31,504.07 166,500.5C 164.274,495.864 162.107,491.53 159.5,487.5C 154.172,470.192 148.838,452.858 143.5,435.5C 144.434,434.432 144.768,433.099 144.5,431.5 Z"/></g>
<g><path style="opacity:1" fill="#615148" d="M 148.5,442.5 C 149.526,443.853 150.859,444.853 152.5,445.5C 153.227,450.418 154.56,455.085 156.5,459.5C 156.337,461.857 156.503,464.19 157,466.5C 157.667,465.167 158.333,465.167 159,466.5C 158.988,469.651 159.988,472.318 162,474.5C 162.972,481.092 165.305,487.092 169,492.5C 169.103,497.483 170.77,501.816 174,505.5C 174.813,507.436 175.313,509.436 175.5,511.5C 173.833,511.5 172.167,511.5 170.5,511.5C 165.79,494.543 159.957,477.876 153,461.5C 151.176,455.204 149.676,448.871 148.5,442.5 Z"/></g>
<g><path style="opacity:1" fill="#638496" d="M 367.5,511.5 C 337.833,511.5 308.167,511.5 278.5,511.5C 280.299,505.286 282.799,499.286 286,493.5C 287.741,492.242 289.574,491.242 291.5,490.5C 300.594,491.613 309.761,492.28 319,492.5C 325.13,492.72 331.13,492.053 337,490.5C 339.277,491.37 341.611,492.037 344,492.5C 347.108,491.669 346.941,490.836 343.5,490C 344.872,489.598 346.205,489.098 347.5,488.5C 348.736,489.246 350.07,489.579 351.5,489.5C 351.5,488.5 351.5,487.5 351.5,486.5C 352.552,486.649 353.552,486.483 354.5,486C 354.167,485.667 353.833,485.333 353.5,485C 355.768,483.442 356.934,481.276 357,478.5C 360.394,479.456 363.894,479.789 367.5,479.5C 367.338,481.527 367.505,483.527 368,485.5C 372.18,487.013 375.013,489.846 376.5,494C 376.959,500.641 373.959,503.807 367.5,503.5C 367.5,506.167 367.5,508.833 367.5,511.5 Z"/></g>
<g><path style="opacity:1" fill="#55412d" d="M 243.5,470.5 C 244.167,470.5 244.833,470.5 245.5,470.5C 247.848,472.097 250.514,473.097 253.5,473.5C 255.216,475.025 257.216,476.025 259.5,476.5C 260.256,478.267 260.923,480.1 261.5,482C 261.095,482.945 260.428,483.612 259.5,484C 260.167,484.333 260.833,484.667 261.5,485C 259.21,491.935 258.043,499.102 258,506.5C 256.628,507.91 255.795,509.577 255.5,511.5C 250.833,511.5 246.167,511.5 241.5,511.5C 242.23,509.955 243.563,509.122 245.5,509C 245.167,508.667 244.833,508.333 244.5,508C 246,507.167 247.167,506 248,504.5C 249.182,498.774 250.515,493.107 252,487.5C 252.777,484.571 252.61,481.737 251.5,479C 252.293,477.915 252.96,476.748 253.5,475.5C 250.546,474.375 247.546,473.375 244.5,472.5C 244.137,471.817 243.804,471.15 243.5,470.5 Z"/></g>
<g><path style="opacity:1" fill="#2c221a" d="M 261.5,477.5 C 264.279,478.056 265.946,479.722 266.5,482.5C 265.457,492.157 265.457,501.823 266.5,511.5C 264.167,511.5 261.833,511.5 259.5,511.5C 259.864,501.699 261.198,492.032 263.5,482.5C 263.563,480.486 262.897,478.819 261.5,477.5 Z"/></g>
<g><path style="opacity:1" fill="#403023" d="M 259.5,476.5 C 260.492,476.328 261.158,476.662 261.5,477.5C 262.897,478.819 263.563,480.486 263.5,482.5C 261.198,492.032 259.864,501.699 259.5,511.5C 258.167,511.5 256.833,511.5 255.5,511.5C 255.795,509.577 256.628,507.91 258,506.5C 258.043,499.102 259.21,491.935 261.5,485C 260.833,484.667 260.167,484.333 259.5,484C 260.428,483.612 261.095,482.945 261.5,482C 260.923,480.1 260.256,478.267 259.5,476.5 Z"/></g>
<g><path style="opacity:1" fill="#644b3c" d="M 156.5,459.5 C 157.5,459.5 158.5,459.5 159.5,459.5C 159.343,460.873 159.51,462.207 160,463.5C 163.851,468.202 166.351,473.535 167.5,479.5C 169.167,479.5 170.833,479.5 172.5,479.5C 172.777,482.448 172.444,485.281 171.5,488C 172.5,488.833 173.5,489.667 174.5,490.5C 175.074,493.177 175.741,495.843 176.5,498.5C 179.095,500.101 180.762,501.935 181.5,504C 181.167,504.333 180.833,504.667 180.5,505C 183.439,508.349 186.939,509.182 191,507.5C 194.324,508.906 197.824,509.572 201.5,509.5C 213.511,508.275 225.511,508.442 237.5,510C 238.416,510.278 239.082,510.778 239.5,511.5C 218.167,511.5 196.833,511.5 175.5,511.5C 175.313,509.436 174.813,507.436 174,505.5C 170.77,501.816 169.103,497.483 169,492.5C 165.305,487.092 162.972,481.092 162,474.5C 159.988,472.318 158.988,469.651 159,466.5C 158.333,465.167 157.667,465.167 157,466.5C 156.503,464.19 156.337,461.857 156.5,459.5 Z"/></g>
</svg>
