<?xml version="1.0" encoding="UTF-8"?>
<!DOCTYPE svg PUBLIC "-//W3C//DTD SVG 1.1//EN" "http://www.w3.org/Graphics/SVG/1.1/DTD/svg11.dtd">
<svg xmlns="http://www.w3.org/2000/svg" version="1.1" width="512px" height="512px" style="shape-rendering:geometricPrecision; text-rendering:geometricPrecision; image-rendering:optimizeQuality; fill-rule:evenodd; clip-rule:evenodd" xmlns:xlink="http://www.w3.org/1999/xlink">
<g><path style="opacity:1" fill="#9374ba" d="M 511.5,1.5 C 511.5,160.833 511.5,320.167 511.5,479.5C 510.5,479.5 509.5,479.5 508.5,479.5C 508.314,452.875 508.314,426.209 508.5,399.5C 507.448,399.649 506.448,399.483 505.5,399C 506.136,396.606 506.136,394.106 505.5,391.5C 502.167,391.5 498.833,391.5 495.5,391.5C 495.5,388.833 495.5,386.167 495.5,383.5C 496.5,383.5 497.5,383.5 498.5,383.5C 498.733,378.966 497.9,374.632 496,370.5C 496.563,356.132 496.397,347.132 495.5,343.5C 492.305,344.039 489.805,343.039 488,340.5C 487.5,328.171 487.333,315.838 487.5,303.5C 484.813,303.664 482.146,303.497 479.5,303C 484.611,301.328 484.611,300.162 479.5,299.5C 478.923,296.45 480.09,294.45 483,293.5C 483.483,292.552 483.649,291.552 483.5,290.5C 481.239,291.409 479.072,291.742 477,291.5C 474.591,286.186 472.924,286.519 472,292.5C 471.207,288.577 471.374,284.744 472.5,281C 474.686,279.691 476.853,279.524 479,280.5C 480.758,274.85 478.924,271.017 473.5,269C 475.577,268.808 477.577,268.308 479.5,267.5C 479.291,266.914 478.957,266.414 478.5,266C 479.708,263.75 481.041,261.583 482.5,259.5C 482.368,257.399 481.368,255.899 479.5,255C 482.362,253.214 483.028,250.881 481.5,248C 482.793,247.51 484.127,247.343 485.5,247.5C 485.277,244.886 486.444,243.219 489,242.5C 489.055,239.061 487.221,237.394 483.5,237.5C 481.616,237.716 479.949,238.383 478.5,239.5C 475.945,235.78 472.612,232.947 468.5,231C 468.833,230.667 469.167,230.333 469.5,230C 468.315,228.647 466.981,227.48 465.5,226.5C 469.681,225.931 472.347,224.931 473.5,223.5C 473.657,222.127 473.49,220.793 473,219.5C 472,219.5 471,219.5 470,219.5C 469.316,218.216 469.483,217.049 470.5,216C 469.484,215.481 468.818,214.647 468.5,213.5C 469.167,212.167 469.833,210.833 470.5,209.5C 470.167,208.833 469.833,208.167 469.5,207.5C 468.833,208.5 468.167,209.5 467.5,210.5C 467.167,210 466.833,209.5 466.5,209C 467.662,205.853 468.662,202.686 469.5,199.5C 468.178,199.33 467.011,199.663 466,200.5C 465.83,198.285 465.163,196.285 464,194.5C 461.345,196.053 458.512,197.22 455.5,198C 456.167,198.333 456.833,198.667 457.5,199C 455.833,199.667 454.167,199.667 452.5,199C 454.376,196.954 456.376,195.121 458.5,193.5C 456.769,190.761 455.603,191.094 455,194.5C 451.061,191.643 450.561,188.31 453.5,184.5C 455.073,186.836 456.406,186.836 457.5,184.5C 456.273,183.41 455.44,182.076 455,180.5C 453.13,182.219 450.963,183.219 448.5,183.5C 448.657,184.873 448.49,186.207 448,187.5C 447.29,184.319 446.957,181.319 447,178.5C 445.318,179.865 445.151,181.365 446.5,183C 444.241,182.561 441.908,182.061 439.5,181.5C 439.665,177.818 439.499,174.152 439,170.5C 437.015,172.457 435.515,174.79 434.5,177.5C 432.176,177.123 431.509,176.123 432.5,174.5C 432.192,173.692 431.692,173.025 431,172.5C 430.632,173.91 429.799,174.91 428.5,175.5C 427.878,171.388 426.878,167.388 425.5,163.5C 427.209,159.583 430.209,157.249 434.5,156.5C 433.224,155.355 431.891,155.355 430.5,156.5C 428.502,154.666 426.168,153.666 423.5,153.5C 423.657,154.873 423.49,156.207 423,157.5C 422.187,155.564 421.687,153.564 421.5,151.5C 419.396,151.201 417.396,151.534 415.5,152.5C 413.401,155.984 410.901,156.318 408,153.5C 407.667,153.833 407.333,154.167 407,154.5C 404.723,150.453 403.056,150.786 402,155.5C 401.764,153.236 401.264,151.069 400.5,149C 396.935,147.538 393.435,147.038 390,147.5C 389.319,145.471 388.986,143.471 389,141.5C 389.667,142.167 390.333,142.833 391,143.5C 391.969,140.672 391.303,138.338 389,136.5C 386.822,139.468 385.656,139.135 385.5,135.5C 386.873,135.657 388.207,135.49 389.5,135C 389.043,134.586 388.709,134.086 388.5,133.5C 386.997,132.948 385.331,132.948 383.5,133.5C 383.66,131.801 383.494,130.134 383,128.5C 382.333,129.833 381.667,131.167 381,132.5C 380.667,132.167 380.333,131.833 380,131.5C 377.645,134.75 375.812,134.75 374.5,131.5C 375.167,131.167 375.833,130.833 376.5,130.5C 375.626,128.253 375.292,125.92 375.5,123.5C 372.593,123.575 369.927,124.409 367.5,126C 372.591,127.862 373.591,131.029 370.5,135.5C 369.833,132.833 369.167,130.167 368.5,127.5C 366.991,129.915 365.324,130.081 363.5,128C 366.028,127.002 366.028,126.169 363.5,125.5C 361.575,127.973 359.742,127.973 358,125.5C 357.349,123.765 357.515,122.098 358.5,120.5C 358.023,119.522 357.357,118.689 356.5,118C 353.979,118.73 351.313,119.23 348.5,119.5C 349.833,115.972 349.167,112.805 346.5,110C 343.062,111.534 339.396,112.701 335.5,113.5C 335.5,110.167 335.5,106.833 335.5,103.5C 334.5,103.5 333.5,103.5 332.5,103.5C 333.449,106.208 333.449,108.874 332.5,111.5C 330.441,112.567 328.608,113.9 327,115.5C 326.667,114.167 326.333,112.833 326,111.5C 325.503,114.146 325.336,116.813 325.5,119.5C 324.5,119.5 323.5,119.5 322.5,119.5C 322.743,113.163 321.576,112.496 319,117.5C 317.581,118.46 316.081,119.293 314.5,120C 313.547,121.955 312.213,123.622 310.5,125C 311.907,128.116 313.24,131.283 314.5,134.5C 316.776,136.949 319.442,138.782 322.5,140C 323.337,141.011 323.67,142.178 323.5,143.5C 327.182,143.335 330.848,143.501 334.5,144C 331.678,147.105 328.678,147.271 325.5,144.5C 322.167,147.833 322.833,149.833 327.5,150.5C 330.166,149.262 332.832,149.262 335.5,150.5C 334.91,151.799 333.91,152.632 332.5,153C 334.072,156.417 335.239,156.251 336,152.5C 336.414,152.957 336.914,153.291 337.5,153.5C 337.833,152.833 338.167,152.167 338.5,151.5C 339.747,153.044 341.08,154.544 342.5,156C 342.5,157 342.5,158 342.5,159C 344.9,159.186 347.234,159.686 349.5,160.5C 351.835,163.166 353.669,166.166 355,169.5C 355.414,169.043 355.914,168.709 356.5,168.5C 358.702,171.536 360.702,174.703 362.5,178C 362.613,179.699 361.947,180.866 360.5,181.5C 359.167,180.067 357.667,178.733 356,177.5C 356,176.167 356,174.833 356,173.5C 354,172.833 352.667,171.5 352,169.5C 351.329,170.252 350.496,170.586 349.5,170.5C 343.83,165.013 337.83,160.013 331.5,155.5C 331.063,153.926 330.063,152.759 328.5,152C 324.45,151.206 320.45,150.206 316.5,149C 290.5,148.667 264.5,148.333 238.5,148C 239.711,147.107 239.711,146.274 238.5,145.5C 235.072,148.578 230.906,149.911 226,149.5C 221.747,149.558 217.58,149.058 213.5,148C 214.308,147.692 214.975,147.192 215.5,146.5C 211.076,145.26 206.743,145.593 202.5,147.5C 196.537,141.868 191.037,142.201 186,148.5C 185.148,152.189 184.315,155.856 183.5,159.5C 181.07,162.592 179.07,165.925 177.5,169.5C 175.856,169.286 174.356,169.62 173,170.5C 172.667,169.5 172.333,168.5 172,167.5C 169.523,168.875 168.689,170.709 169.5,173C 167.19,173.497 164.857,173.663 162.5,173.5C 162.856,176.564 162.023,179.231 160,181.5C 159.182,178.773 159.348,176.106 160.5,173.5C 164.676,170.912 168.676,168.079 172.5,165C 173.451,164.282 173.617,163.449 173,162.5C 169.133,165.845 164.633,167.511 159.5,167.5C 159.5,169.167 159.5,170.833 159.5,172.5C 156.978,172.128 154.978,172.961 153.5,175C 154.448,175.483 155.448,175.649 156.5,175.5C 156.67,176.822 156.337,177.989 155.5,179C 153.076,180.613 150.743,181.947 148.5,183C 150.569,183.324 150.902,184.158 149.5,185.5C 148.302,185.94 147.135,186.273 146,186.5C 145.506,188.134 145.34,189.801 145.5,191.5C 146.552,191.351 147.552,191.517 148.5,192C 147,193.5 145.5,195 144,196.5C 143.692,195.692 143.192,195.025 142.5,194.5C 141.316,196.046 140.316,197.713 139.5,199.5C 138.167,198.5 136.833,197.5 135.5,196.5C 133.166,198.441 130.666,200.107 128,201.5C 128.617,199.905 128.284,198.572 127,197.5C 122.056,199.063 119.223,202.396 118.5,207.5C 116.833,207.5 115.167,207.5 113.5,207.5C 115.296,211.482 114.629,214.982 111.5,218C 113.019,219.351 114.352,220.851 115.5,222.5C 117.713,220.234 119.713,217.734 121.5,215C 122.793,214.51 124.127,214.343 125.5,214.5C 125.046,217.14 123.879,219.473 122,221.5C 121.506,223.134 121.34,224.801 121.5,226.5C 117.812,231.555 115.478,237.221 114.5,243.5C 111.807,246.539 110.807,250.206 111.5,254.5C 109.261,265.409 107.595,276.409 106.5,287.5C 104.509,313.812 103.842,340.479 104.5,367.5C 103.126,383.765 101.792,400.265 100.5,417C 101.966,420.017 101.633,422.85 99.5,425.5C 99.5565,426.737 100.056,427.737 101,428.5C 101.751,451.849 101.418,475.182 100,498.5C 99.586,498.957 99.086,499.291 98.5,499.5C 97.4164,498.335 96.5831,497.002 96,495.5C 95.5034,497.81 95.3367,500.143 95.5,502.5C 90.3629,502.853 85.3629,503.853 80.5,505.5C 69.5415,504.953 58.5415,504.786 47.5,505C 52.3046,502.203 57.638,500.703 63.5,500.5C 67.8796,496.885 72.5462,496.552 77.5,499.5C 81.7215,497.93 86.0549,496.764 90.5,496C 83.8085,495.831 77.1419,495.331 70.5,494.5C 71.9824,490.185 74.8157,487.185 79,485.5C 79.4955,483.527 79.6621,481.527 79.5,479.5C 82.1667,479.5 84.8333,479.5 87.5,479.5C 87.5,468.833 87.5,458.167 87.5,447.5C 88.8333,447.5 90.1667,447.5 91.5,447.5C 91.5,442.167 91.5,436.833 91.5,431.5C 90.1667,431.5 88.8333,431.5 87.5,431.5C 87.5,426.167 87.5,420.833 87.5,415.5C 89.924,415.808 92.2573,415.474 94.5,414.5C 90,410.167 85.5,405.833 81,401.5C 80.8119,399.939 81.6453,399.272 83.5,399.5C 83.5,394.167 83.5,388.833 83.5,383.5C 85.1667,383.5 86.8333,383.5 88.5,383.5C 87.697,378.524 84.8636,375.191 80,373.5C 79.5045,371.527 79.3379,369.527 79.5,367.5C 80.8333,367.5 82.1667,367.5 83.5,367.5C 83.5,362.167 83.5,356.833 83.5,351.5C 79.8333,351.5 76.1667,351.5 72.5,351.5C 71.697,346.524 68.8636,343.191 64,341.5C 63.5017,338.183 63.335,334.85 63.5,331.5C 58.1667,331.5 52.8333,331.5 47.5,331.5C 47.5,332.833 47.5,334.167 47.5,335.5C 44.8333,335.5 42.1667,335.5 39.5,335.5C 38.9066,332.404 39.9066,330.071 42.5,328.5C 41.675,327.614 40.675,327.281 39.5,327.5C 39.5,324.833 39.5,322.167 39.5,319.5C 36.8333,319.5 34.1667,319.5 31.5,319.5C 31.3398,317.801 31.5065,316.134 32,314.5C 35.1994,311.925 34.5327,310.259 30,309.5C 28.2158,310.309 26.3825,310.976 24.5,311.5C 24.0611,309.97 22.7277,308.97 20.5,308.5C 20.1159,306.335 20.7826,304.668 22.5,303.5C 23.4287,304.689 23.762,306.022 23.5,307.5C 25.9775,307.949 27.9775,307.283 29.5,305.5C 28.286,303.931 26.6193,303.098 24.5,303C 26.4296,300.742 27.9296,298.242 29,295.5C 30.5588,297.217 31.3921,299.217 31.5,301.5C 33.3464,301.778 34.6798,301.111 35.5,299.5C 34.6798,297.889 33.3464,297.222 31.5,297.5C 31.5,296.5 31.5,295.5 31.5,294.5C 33.8194,295.167 36.1527,295.334 38.5,295C 34.4398,292.813 30.1065,291.313 25.5,290.5C 26.6053,289.108 27.9386,287.941 29.5,287C 27.2199,286.767 25.2199,285.934 23.5,284.5C 28.5789,282.375 28.2456,281.208 22.5,281C 21.233,282.796 21.233,284.629 22.5,286.5C 21.277,287.614 19.9437,287.781 18.5,287C 20.0449,284.915 20.3782,282.748 19.5,280.5C 20.325,279.614 21.325,279.281 22.5,279.5C 22.3497,276.074 23.5163,275.741 26,278.5C 26.0929,275.993 26.9262,273.826 28.5,272C 26.8654,271.46 25.5321,271.96 24.5,273.5C 23.5713,272.311 23.238,270.978 23.5,269.5C 26.1272,270.092 28.7938,270.425 31.5,270.5C 31.5,269.5 31.5,268.5 31.5,267.5C 28.9272,267.852 26.5938,267.352 24.5,266C 27.3323,264.092 26.999,263.259 23.5,263.5C 23.8987,257.359 22.8987,257.025 20.5,262.5C 18.9547,263.452 17.288,263.785 15.5,263.5C 15.3354,260.482 15.502,257.482 16,254.5C 19.3333,252.5 19.3333,250.5 16,248.5C 15.6667,236.5 15.3333,224.5 15,212.5C 13.8924,216.086 13.3924,219.753 13.5,223.5C 12.5,223.5 11.5,223.5 10.5,223.5C 10.666,228.844 10.4994,234.177 10,239.5C 9.90878,229.369 8.74211,219.369 6.5,209.5C 7.28823,187.11 7.62156,164.777 7.5,142.5C 6.8453,118.837 6.3453,95.1703 6,71.5C 6.12982,93.549 5.29649,115.716 3.5,138C 4.49532,147.725 4.16199,157.392 2.5,167C 2.95735,167.414 3.29069,167.914 3.5,168.5C 2.89383,170.709 2.22716,172.876 1.5,175C 2.16667,175.333 2.83333,175.667 3.5,176C 2.21939,180.289 2.21939,184.623 3.5,189C 2.83333,190.333 2.16667,191.667 1.5,193C 2.88187,198.702 3.88187,204.369 4.5,210C 4.1493,213.104 3.6493,212.937 3,209.5C 2.1751,211.701 2.6751,213.534 4.5,215C 3.94403,219.039 2.94403,222.872 1.5,226.5C 0.913353,153.335 0.58002,80.1687 0.5,7C 0.403721,4.62532 0.903721,2.45865 2,0.5C 170.502,0.418055 340.335,0.751388 511.5,1.5 Z"/></g>
<g><path style="opacity:1" fill="#9474bd" d="M 104.5,367.5 C 104.5,388.833 104.5,410.167 104.5,431.5C 103.502,457.661 103.169,483.995 103.5,510.5C 102.5,510.5 101.5,510.5 100.5,510.5C 100.872,507.978 100.039,505.978 98,504.5C 97.3483,506.723 95.8483,507.89 93.5,508C 94.1667,508.333 94.8333,508.667 95.5,509C 94.3333,509.167 93.1667,509.333 92,509.5C 90.4666,507.955 87.4666,506.622 83,505.5C 71.2283,506.157 59.395,506.824 47.5,507.5C 45.6079,508.473 43.6079,509.14 41.5,509.5C 33.6687,509.133 25.8354,508.8 18,508.5C 13.9823,510.304 9.81567,510.804 5.5,510C 4.63613,507.929 3.3028,506.262 1.5,505C 2.3416,502.932 2.3416,500.765 1.5,498.5C 4.60651,492.431 5.60651,486.097 4.5,479.5C 3.5,479.5 2.5,479.5 1.5,479.5C 3.41263,468.222 3.41263,456.889 1.5,445.5C 1.59008,443.772 1.92341,442.106 2.5,440.5C 2.15431,439.304 1.65431,439.304 1,440.5C 0.947556,428.621 1.78089,416.788 3.5,405C 3.68235,402.696 3.01568,402.196 1.5,403.5C 1.16667,402.833 0.833333,402.167 0.5,401.5C 0.803694,365.444 0.803694,329.278 0.5,293C 0.666667,289.5 0.833333,286 1,282.5C 1.33333,282.833 1.66667,283.167 2,283.5C 3.07107,279.796 3.23774,276.129 2.5,272.5C 3.32496,271.614 4.32496,271.281 5.5,271.5C 5.5,266.167 5.5,260.833 5.5,255.5C 4.32496,255.719 3.32496,255.386 2.5,254.5C 3.55323,245.259 3.21989,235.926 1.5,226.5C 2.94403,222.872 3.94403,219.039 4.5,215C 2.6751,213.534 2.1751,211.701 3,209.5C 3.6493,212.937 4.1493,213.104 4.5,210C 3.88187,204.369 2.88187,198.702 1.5,193C 2.16667,191.667 2.83333,190.333 3.5,189C 2.21939,184.623 2.21939,180.289 3.5,176C 2.83333,175.667 2.16667,175.333 1.5,175C 2.22716,172.876 2.89383,170.709 3.5,168.5C 3.29069,167.914 2.95735,167.414 2.5,167C 4.16199,157.392 4.49532,147.725 3.5,138C 5.29649,115.716 6.12982,93.549 6,71.5C 6.3453,95.1703 6.8453,118.837 7.5,142.5C 7.62156,164.777 7.28823,187.11 6.5,209.5C 8.74211,219.369 9.90878,229.369 10,239.5C 10.4994,234.177 10.666,228.844 10.5,223.5C 11.5,223.5 12.5,223.5 13.5,223.5C 13.3924,219.753 13.8924,216.086 15,212.5C 15.3333,224.5 15.6667,236.5 16,248.5C 19.3333,250.5 19.3333,252.5 16,254.5C 15.502,257.482 15.3354,260.482 15.5,263.5C 17.288,263.785 18.9547,263.452 20.5,262.5C 22.8987,257.025 23.8987,257.359 23.5,263.5C 26.999,263.259 27.3323,264.092 24.5,266C 26.5938,267.352 28.9272,267.852 31.5,267.5C 31.5,268.5 31.5,269.5 31.5,270.5C 28.7938,270.425 26.1272,270.092 23.5,269.5C 23.238,270.978 23.5713,272.311 24.5,273.5C 25.5321,271.96 26.8654,271.46 28.5,272C 26.9262,273.826 26.0929,275.993 26,278.5C 23.5163,275.741 22.3497,276.074 22.5,279.5C 21.325,279.281 20.325,279.614 19.5,280.5C 20.3782,282.748 20.0449,284.915 18.5,287C 19.9437,287.781 21.277,287.614 22.5,286.5C 21.233,284.629 21.233,282.796 22.5,281C 28.2456,281.208 28.5789,282.375 23.5,284.5C 25.2199,285.934 27.2199,286.767 29.5,287C 27.9386,287.941 26.6053,289.108 25.5,290.5C 30.1065,291.313 34.4398,292.813 38.5,295C 36.1527,295.334 33.8194,295.167 31.5,294.5C 31.5,295.5 31.5,296.5 31.5,297.5C 33.3464,297.222 34.6798,297.889 35.5,299.5C 34.6798,301.111 33.3464,301.778 31.5,301.5C 31.3921,299.217 30.5588,297.217 29,295.5C 27.9296,298.242 26.4296,300.742 24.5,303C 26.6193,303.098 28.286,303.931 29.5,305.5C 27.9775,307.283 25.9775,307.949 23.5,307.5C 23.762,306.022 23.4287,304.689 22.5,303.5C 20.7826,304.668 20.1159,306.335 20.5,308.5C 22.7277,308.97 24.0611,309.97 24.5,311.5C 26.3825,310.976 28.2158,310.309 30,309.5C 34.5327,310.259 35.1994,311.925 32,314.5C 31.5065,316.134 31.3398,317.801 31.5,319.5C 34.1667,319.5 36.8333,319.5 39.5,319.5C 39.5,322.167 39.5,324.833 39.5,327.5C 40.675,327.281 41.675,327.614 42.5,328.5C 39.9066,330.071 38.9066,332.404 39.5,335.5C 42.1667,335.5 44.8333,335.5 47.5,335.5C 47.5,334.167 47.5,332.833 47.5,331.5C 52.8333,331.5 58.1667,331.5 63.5,331.5C 63.335,334.85 63.5017,338.183 64,341.5C 68.8636,343.191 71.697,346.524 72.5,351.5C 76.1667,351.5 79.8333,351.5 83.5,351.5C 83.5,356.833 83.5,362.167 83.5,367.5C 82.1667,367.5 80.8333,367.5 79.5,367.5C 79.3379,369.527 79.5045,371.527 80,373.5C 84.8636,375.191 87.697,378.524 88.5,383.5C 86.8333,383.5 85.1667,383.5 83.5,383.5C 83.5,388.833 83.5,394.167 83.5,399.5C 81.6453,399.272 80.8119,399.939 81,401.5C 85.5,405.833 90,410.167 94.5,414.5C 92.2573,415.474 89.924,415.808 87.5,415.5C 87.5,420.833 87.5,426.167 87.5,431.5C 88.8333,431.5 90.1667,431.5 91.5,431.5C 91.5,436.833 91.5,442.167 91.5,447.5C 90.1667,447.5 88.8333,447.5 87.5,447.5C 87.5,458.167 87.5,468.833 87.5,479.5C 84.8333,479.5 82.1667,479.5 79.5,479.5C 79.6621,481.527 79.4955,483.527 79,485.5C 74.8157,487.185 71.9824,490.185 70.5,494.5C 77.1419,495.331 83.8085,495.831 90.5,496C 86.0549,496.764 81.7215,497.93 77.5,499.5C 72.5462,496.552 67.8796,496.885 63.5,500.5C 57.638,500.703 52.3046,502.203 47.5,505C 58.5415,504.786 69.5415,504.953 80.5,505.5C 85.3629,503.853 90.3629,502.853 95.5,502.5C 95.3367,500.143 95.5034,497.81 96,495.5C 96.5831,497.002 97.4164,498.335 98.5,499.5C 99.086,499.291 99.586,498.957 100,498.5C 101.418,475.182 101.751,451.849 101,428.5C 100.056,427.737 99.5565,426.737 99.5,425.5C 101.633,422.85 101.966,420.017 100.5,417C 101.792,400.265 103.126,383.765 104.5,367.5 Z"/></g>
<g><path style="opacity:1" fill="#9475bd" d="M 511.5,479.5 C 511.5,489.833 511.5,500.167 511.5,510.5C 509.5,510.5 507.5,510.5 505.5,510.5C 502.706,505.322 503.04,500.322 506.5,495.5C 507.495,490.208 507.828,484.875 507.5,479.5C 506.167,479.5 504.833,479.5 503.5,479.5C 503.506,452.882 503.506,426.215 503.5,399.5C 501.833,399.5 500.167,399.5 498.5,399.5C 497.587,409.465 497.921,419.298 499.5,429C 497.928,435.574 496.928,442.241 496.5,449C 499.38,458.66 499.046,468.16 495.5,477.5C 495.709,478.086 496.043,478.586 496.5,479C 493.854,479.497 491.187,479.664 488.5,479.5C 487.697,484.476 484.864,487.809 480,489.5C 479.503,492.146 479.336,494.813 479.5,497.5C 474.167,497.5 468.833,497.5 463.5,497.5C 463.5,499.833 463.5,502.167 463.5,504.5C 458.291,505.429 453.124,506.429 448,507.5C 447.517,506.552 447.351,505.552 447.5,504.5C 442.54,505.489 437.54,506.322 432.5,507C 434.833,507.333 437.167,507.667 439.5,508C 434.198,508.829 428.864,509.329 423.5,509.5C 407.32,508.374 391.154,508.374 375,509.5C 371.968,509.233 369.301,508.233 367,506.5C 365.644,507.38 364.144,507.714 362.5,507.5C 362.5,505.5 362.5,503.5 362.5,501.5C 362.5,488.833 362.5,476.167 362.5,463.5C 363.134,447.642 363.967,431.642 365,415.5C 365.168,426.182 365.668,436.849 366.5,447.5C 366.42,443.523 366.754,439.523 367.5,435.5C 369.5,435.5 371.5,435.5 373.5,435.5C 373.716,431.941 373.382,428.441 372.5,425C 373.568,411.202 374.235,397.369 374.5,383.5C 376.5,383.5 378.5,383.5 380.5,383.5C 381.176,379.486 379.843,376.486 376.5,374.5C 376.833,373.5 377.5,372.833 378.5,372.5C 379.311,374.391 380.644,375.724 382.5,376.5C 383.169,372.567 383.502,368.733 383.5,365C 383.385,363.105 382.718,361.438 381.5,360C 385.486,359.501 389.486,359.334 393.5,359.5C 393.5,356.833 393.5,354.167 393.5,351.5C 392.167,351.5 390.833,351.5 389.5,351.5C 391.138,346.054 393.472,340.887 396.5,336C 396.167,335.667 395.833,335.333 395.5,335C 403.067,330.572 403.4,325.572 396.5,320C 400.483,320.275 400.483,319.275 396.5,317C 397.025,316.308 397.692,315.808 398.5,315.5C 405.406,321.232 406.739,320.232 402.5,312.5C 403.025,311.808 403.692,311.308 404.5,311C 403.271,309.471 401.771,308.304 400,307.5C 400.271,300.955 399.104,294.788 396.5,289C 397.401,286.129 398.401,283.296 399.5,280.5C 398.675,279.614 397.675,279.281 396.5,279.5C 395.086,285.486 393.752,285.653 392.5,280C 393.624,279.751 394.624,279.251 395.5,278.5C 394.597,273.212 393.264,268.212 391.5,263.5C 388.728,263.22 386.228,263.887 384,265.5C 383.502,262.183 383.335,258.85 383.5,255.5C 380.348,255.953 377.848,254.953 376,252.5C 375.899,249.079 375.066,245.912 373.5,243C 374.871,240.681 375.538,238.181 375.5,235.5C 373.876,235.64 372.71,234.973 372,233.5C 371.744,229.053 370.911,224.72 369.5,220.5C 371.433,216.296 373.099,211.963 374.5,207.5C 373.167,207.5 371.833,207.5 370.5,207.5C 371.005,204.159 371.172,200.826 371,197.5C 369.262,193.741 367.429,190.074 365.5,186.5C 366.13,184.544 366.797,182.211 367.5,179.5C 367.333,178.167 367.167,176.833 367,175.5C 365.486,179.885 363.82,184.218 362,188.5C 360.648,186.406 360.148,184.073 360.5,181.5C 361.947,180.866 362.613,179.699 362.5,178C 360.702,174.703 358.702,171.536 356.5,168.5C 355.914,168.709 355.414,169.043 355,169.5C 353.669,166.166 351.835,163.166 349.5,160.5C 347.234,159.686 344.9,159.186 342.5,159C 342.5,158 342.5,157 342.5,156C 341.08,154.544 339.747,153.044 338.5,151.5C 338.167,152.167 337.833,152.833 337.5,153.5C 336.914,153.291 336.414,152.957 336,152.5C 335.239,156.251 334.072,156.417 332.5,153C 333.91,152.632 334.91,151.799 335.5,150.5C 332.832,149.262 330.166,149.262 327.5,150.5C 322.833,149.833 322.167,147.833 325.5,144.5C 328.678,147.271 331.678,147.105 334.5,144C 330.848,143.501 327.182,143.335 323.5,143.5C 323.67,142.178 323.337,141.011 322.5,140C 319.442,138.782 316.776,136.949 314.5,134.5C 313.24,131.283 311.907,128.116 310.5,125C 312.213,123.622 313.547,121.955 314.5,120C 316.081,119.293 317.581,118.46 319,117.5C 321.576,112.496 322.743,113.163 322.5,119.5C 323.5,119.5 324.5,119.5 325.5,119.5C 325.336,116.813 325.503,114.146 326,111.5C 326.333,112.833 326.667,114.167 327,115.5C 328.608,113.9 330.441,112.567 332.5,111.5C 333.449,108.874 333.449,106.208 332.5,103.5C 333.5,103.5 334.5,103.5 335.5,103.5C 335.5,106.833 335.5,110.167 335.5,113.5C 339.396,112.701 343.062,111.534 346.5,110C 349.167,112.805 349.833,115.972 348.5,119.5C 351.313,119.23 353.979,118.73 356.5,118C 357.357,118.689 358.023,119.522 358.5,120.5C 357.515,122.098 357.349,123.765 358,125.5C 359.742,127.973 361.575,127.973 363.5,125.5C 366.028,126.169 366.028,127.002 363.5,128C 365.324,130.081 366.991,129.915 368.5,127.5C 369.167,130.167 369.833,132.833 370.5,135.5C 373.591,131.029 372.591,127.862 367.5,126C 369.927,124.409 372.593,123.575 375.5,123.5C 375.292,125.92 375.626,128.253 376.5,130.5C 375.833,130.833 375.167,131.167 374.5,131.5C 375.812,134.75 377.645,134.75 380,131.5C 380.333,131.833 380.667,132.167 381,132.5C 381.667,131.167 382.333,129.833 383,128.5C 383.494,130.134 383.66,131.801 383.5,133.5C 385.331,132.948 386.997,132.948 388.5,133.5C 388.709,134.086 389.043,134.586 389.5,135C 388.207,135.49 386.873,135.657 385.5,135.5C 385.656,139.135 386.822,139.468 389,136.5C 391.303,138.338 391.969,140.672 391,143.5C 390.333,142.833 389.667,142.167 389,141.5C 388.986,143.471 389.319,145.471 390,147.5C 393.435,147.038 396.935,147.538 400.5,149C 401.264,151.069 401.764,153.236 402,155.5C 403.056,150.786 404.723,150.453 407,154.5C 407.333,154.167 407.667,153.833 408,153.5C 410.901,156.318 413.401,155.984 415.5,152.5C 417.396,151.534 419.396,151.201 421.5,151.5C 421.687,153.564 422.187,155.564 423,157.5C 423.49,156.207 423.657,154.873 423.5,153.5C 426.168,153.666 428.502,154.666 430.5,156.5C 431.891,155.355 433.224,155.355 434.5,156.5C 430.209,157.249 427.209,159.583 425.5,163.5C 426.878,167.388 427.878,171.388 428.5,175.5C 429.799,174.91 430.632,173.91 431,172.5C 431.692,173.025 432.192,173.692 432.5,174.5C 431.509,176.123 432.176,177.123 434.5,177.5C 435.515,174.79 437.015,172.457 439,170.5C 439.499,174.152 439.665,177.818 439.5,181.5C 441.908,182.061 444.241,182.561 446.5,183C 445.151,181.365 445.318,179.865 447,178.5C 446.957,181.319 447.29,184.319 448,187.5C 448.49,186.207 448.657,184.873 448.5,183.5C 450.963,183.219 453.13,182.219 455,180.5C 455.44,182.076 456.273,183.41 457.5,184.5C 456.406,186.836 455.073,186.836 453.5,184.5C 450.561,188.31 451.061,191.643 455,194.5C 455.603,191.094 456.769,190.761 458.5,193.5C 456.376,195.121 454.376,196.954 452.5,199C 454.167,199.667 455.833,199.667 457.5,199C 456.833,198.667 456.167,198.333 455.5,198C 458.512,197.22 461.345,196.053 464,194.5C 465.163,196.285 465.83,198.285 466,200.5C 467.011,199.663 468.178,199.33 469.5,199.5C 468.662,202.686 467.662,205.853 466.5,209C 466.833,209.5 467.167,210 467.5,210.5C 468.167,209.5 468.833,208.5 469.5,207.5C 469.833,208.167 470.167,208.833 470.5,209.5C 469.833,210.833 469.167,212.167 468.5,213.5C 468.818,214.647 469.484,215.481 470.5,216C 469.483,217.049 469.316,218.216 470,219.5C 471,219.5 472,219.5 473,219.5C 473.49,220.793 473.657,222.127 473.5,223.5C 472.347,224.931 469.681,225.931 465.5,226.5C 466.981,227.48 468.315,228.647 469.5,230C 469.167,230.333 468.833,230.667 468.5,231C 472.612,232.947 475.945,235.78 478.5,239.5C 479.949,238.383 481.616,237.716 483.5,237.5C 487.221,237.394 489.055,239.061 489,242.5C 486.444,243.219 485.277,244.886 485.5,247.5C 484.127,247.343 482.793,247.51 481.5,248C 483.028,250.881 482.362,253.214 479.5,255C 481.368,255.899 482.368,257.399 482.5,259.5C 481.041,261.583 479.708,263.75 478.5,266C 478.957,266.414 479.291,266.914 479.5,267.5C 477.577,268.308 475.577,268.808 473.5,269C 478.924,271.017 480.758,274.85 479,280.5C 476.853,279.524 474.686,279.691 472.5,281C 471.374,284.744 471.207,288.577 472,292.5C 472.924,286.519 474.591,286.186 477,291.5C 479.072,291.742 481.239,291.409 483.5,290.5C 483.649,291.552 483.483,292.552 483,293.5C 480.09,294.45 478.923,296.45 479.5,299.5C 484.611,300.162 484.611,301.328 479.5,303C 482.146,303.497 484.813,303.664 487.5,303.5C 487.333,315.838 487.5,328.171 488,340.5C 489.805,343.039 492.305,344.039 495.5,343.5C 496.397,347.132 496.563,356.132 496,370.5C 497.9,374.632 498.733,378.966 498.5,383.5C 497.5,383.5 496.5,383.5 495.5,383.5C 495.5,386.167 495.5,388.833 495.5,391.5C 498.833,391.5 502.167,391.5 505.5,391.5C 506.136,394.106 506.136,396.606 505.5,399C 506.448,399.483 507.448,399.649 508.5,399.5C 508.314,426.209 508.314,452.875 508.5,479.5C 509.5,479.5 510.5,479.5 511.5,479.5 Z"/></g>
<g><path style="opacity:1" fill="#9277b2" d="M 331.5,155.5 C 325.826,152.663 319.826,150.997 313.5,150.5C 278.333,149.879 243,149.712 207.5,150C 204.5,149.667 201.5,149.333 198.5,149C 195.264,145.981 191.931,145.814 188.5,148.5C 187.058,152.376 185.391,156.043 183.5,159.5C 184.315,155.856 185.148,152.189 186,148.5C 191.037,142.201 196.537,141.868 202.5,147.5C 206.743,145.593 211.076,145.26 215.5,146.5C 214.975,147.192 214.308,147.692 213.5,148C 217.58,149.058 221.747,149.558 226,149.5C 230.906,149.911 235.072,148.578 238.5,145.5C 239.711,146.274 239.711,147.107 238.5,148C 264.5,148.333 290.5,148.667 316.5,149C 320.45,150.206 324.45,151.206 328.5,152C 330.063,152.759 331.063,153.926 331.5,155.5 Z"/></g>
<g><path style="opacity:1" fill="#9889ab" d="M 313.5,150.5 C 295.992,150.17 278.659,150.503 261.5,151.5C 240.152,152.779 218.818,152.612 197.5,151C 195.545,148.929 193.212,148.262 190.5,149C 186.654,158.53 181.654,167.363 175.5,175.5C 175.253,173.142 175.919,171.142 177.5,169.5C 179.07,165.925 181.07,162.592 183.5,159.5C 185.391,156.043 187.058,152.376 188.5,148.5C 191.931,145.814 195.264,145.981 198.5,149C 201.5,149.333 204.5,149.667 207.5,150C 243,149.712 278.333,149.879 313.5,150.5 Z"/></g>
<g><path style="opacity:1" fill="#040303" d="M 261.5,151.5 C 281.221,151.049 300.888,151.549 320.5,153C 332.247,156.691 341.58,163.524 348.5,173.5C 347.942,174.79 346.942,175.623 345.5,176C 346.947,179.067 349.28,181.234 352.5,182.5C 353.439,185.543 354.772,188.377 356.5,191C 356.255,194.422 356.255,197.755 356.5,201C 356.333,201.833 356.167,202.667 356,203.5C 355.667,202.167 355.333,200.833 355,199.5C 354.904,202.451 354.071,205.118 352.5,207.5C 352.064,213.352 351.064,219.019 349.5,224.5C 351.429,228.401 350.596,229.735 347,228.5C 345.596,228.509 344.43,229.009 343.5,230C 344.905,231.269 346.571,231.769 348.5,231.5C 349.166,239.483 349.499,247.483 349.5,255.5C 350.833,255.5 352.167,255.5 353.5,255.5C 353.334,262.841 353.5,270.174 354,277.5C 354.333,278.167 354.667,278.833 355,279.5C 355.794,276.529 356.461,273.529 357,270.5C 357.671,274.517 358.004,278.517 358,282.5C 357.667,281.5 357.333,280.5 357,279.5C 356.667,282.833 356.333,286.167 356,289.5C 355.667,288.833 355.333,288.167 355,287.5C 354.182,290.227 354.348,292.894 355.5,295.5C 356.584,294.335 357.417,293.002 358,291.5C 357.178,295.5 357.345,299.5 358.5,303.5C 357.5,303.5 356.5,303.5 355.5,303.5C 355.386,319.373 356.053,335.206 357.5,351C 356.88,354.843 356.213,358.676 355.5,362.5C 356.473,369.482 356.473,376.482 355.5,383.5C 354.5,383.5 353.5,383.5 352.5,383.5C 352.984,388.357 353.651,393.191 354.5,398C 352.103,402.039 351.937,406.206 354,410.5C 355.018,409.294 355.518,409.627 355.5,411.5C 354.176,412.006 353.509,413.339 353.5,415.5C 354.5,415.5 355.5,415.5 356.5,415.5C 356.265,426.016 356.265,436.682 356.5,447.5C 355.127,447.343 353.793,447.51 352.5,448C 353.141,450.578 353.475,453.245 353.5,456C 352.964,460.519 352.297,465.019 351.5,469.5C 352.833,478.167 352.833,486.833 351.5,495.5C 349.5,495.5 347.5,495.5 345.5,495.5C 345.575,498.206 345.908,500.873 346.5,503.5C 347.5,503.5 348.5,503.5 349.5,503.5C 349.838,501.146 350.338,498.813 351,496.5C 351.29,498.044 351.956,499.377 353,500.5C 353.098,498.381 353.931,496.714 355.5,495.5C 356.288,498.475 356.621,501.308 356.5,504C 354.633,504.711 353.133,504.211 352,502.5C 351.503,504.81 351.337,507.143 351.5,509.5C 347.386,508.79 343.386,507.457 339.5,505.5C 338.264,506.246 336.93,506.579 335.5,506.5C 335.5,505.5 335.5,504.5 335.5,503.5C 329.5,502.833 326.833,505.5 327.5,511.5C 260.833,511.5 194.167,511.5 127.5,511.5C 127.5,506.167 127.5,500.833 127.5,495.5C 125.712,495.785 124.045,495.452 122.5,494.5C 120.5,489.833 118.5,485.167 116.5,480.5C 117.976,479.12 118.976,477.453 119.5,475.5C 119.36,466.546 118.694,457.546 117.5,448.5C 118.415,447.672 119.081,446.672 119.5,445.5C 118.976,443.617 118.309,441.784 117.5,440C 117.645,439.228 117.978,438.561 118.5,438C 115.764,436.476 113.764,434.309 112.5,431.5C 111.749,432.376 111.249,433.376 111,434.5C 110.784,412.266 110.784,389.933 111,367.5C 111.666,376.675 113.166,385.675 115.5,394.5C 116.913,392.632 118.08,390.632 119,388.5C 119.667,389.833 120.333,389.833 121,388.5C 121.167,387.667 121.333,386.833 121.5,386C 119.301,379.584 118.968,373.084 120.5,366.5C 118.637,361.941 116.637,357.441 114.5,353C 116.351,347.352 117.018,341.519 116.5,335.5C 117.822,335.33 118.989,335.663 120,336.5C 122.013,332.469 121.013,329.136 117,326.5C 115.795,318.881 115.295,311.214 115.5,303.5C 116.833,303.5 118.167,303.5 119.5,303.5C 119.71,299.839 119.044,296.339 117.5,293C 119.044,285.863 120.711,278.696 122.5,271.5C 121.5,271.5 120.5,271.5 119.5,271.5C 119.679,273.954 119.013,276.121 117.5,278C 117.645,278.772 117.978,279.439 118.5,280C 115.129,282.535 114.462,285.369 116.5,288.5C 115.606,292.017 114.606,295.517 113.5,299C 113.559,300.436 113.892,301.769 114.5,303C 113.385,308.411 112.552,313.911 112,319.5C 111.832,308.818 111.332,298.151 110.5,287.5C 108.115,286.187 107.948,284.52 110,282.5C 111.333,285.167 112.667,285.167 114,282.5C 115.658,279.691 116.825,276.691 117.5,273.5C 116.865,272.034 116.031,270.7 115,269.5C 114.185,271.623 113.185,273.623 112,275.5C 108.559,266.99 111.059,262.657 119.5,262.5C 120.176,258.486 118.843,255.486 115.5,253.5C 114.526,251.257 114.192,248.924 114.5,246.5C 114.5,245.5 114.5,244.5 114.5,243.5C 118.307,235.22 122.64,227.22 127.5,219.5C 128.167,219.167 128.833,218.833 129.5,218.5C 133.131,222.488 136.798,222.488 140.5,218.5C 151.111,207.32 161.278,195.653 171,183.5C 172.777,180.941 174.277,178.274 175.5,175.5C 181.654,167.363 186.654,158.53 190.5,149C 193.212,148.262 195.545,148.929 197.5,151C 218.818,152.612 240.152,152.779 261.5,151.5 Z"/></g>
<g><path style="opacity:1" fill="#897e9a" d="M 261.5,151.5 C 278.659,150.503 295.992,150.17 313.5,150.5C 319.826,150.997 325.826,152.663 331.5,155.5C 337.83,160.013 343.83,165.013 349.5,170.5C 350.942,171.82 351.608,173.486 351.5,175.5C 350.5,174.833 349.5,174.167 348.5,173.5C 341.58,163.524 332.247,156.691 320.5,153C 300.888,151.549 281.221,151.049 261.5,151.5 Z"/></g>
<g><path style="opacity:1" fill="#9478ba" d="M 177.5,169.5 C 175.919,171.142 175.253,173.142 175.5,175.5C 174.167,175.5 172.833,175.5 171.5,175.5C 170.802,181.201 167.802,185.201 162.5,187.5C 161.586,189.664 160.419,191.664 159,193.5C 152.635,198.698 147.135,204.698 142.5,211.5C 138.068,214.79 133.068,216.456 127.5,216.5C 127.5,217.5 127.5,218.5 127.5,219.5C 125.17,221.501 123.17,223.834 121.5,226.5C 121.34,224.801 121.506,223.134 122,221.5C 123.879,219.473 125.046,217.14 125.5,214.5C 124.127,214.343 122.793,214.51 121.5,215C 119.713,217.734 117.713,220.234 115.5,222.5C 114.352,220.851 113.019,219.351 111.5,218C 114.629,214.982 115.296,211.482 113.5,207.5C 115.167,207.5 116.833,207.5 118.5,207.5C 119.223,202.396 122.056,199.063 127,197.5C 128.284,198.572 128.617,199.905 128,201.5C 130.666,200.107 133.166,198.441 135.5,196.5C 136.833,197.5 138.167,198.5 139.5,199.5C 140.316,197.713 141.316,196.046 142.5,194.5C 143.192,195.025 143.692,195.692 144,196.5C 145.5,195 147,193.5 148.5,192C 147.552,191.517 146.552,191.351 145.5,191.5C 145.34,189.801 145.506,188.134 146,186.5C 147.135,186.273 148.302,185.94 149.5,185.5C 150.902,184.158 150.569,183.324 148.5,183C 150.743,181.947 153.076,180.613 155.5,179C 156.337,177.989 156.67,176.822 156.5,175.5C 155.448,175.649 154.448,175.483 153.5,175C 154.978,172.961 156.978,172.128 159.5,172.5C 159.5,170.833 159.5,169.167 159.5,167.5C 164.633,167.511 169.133,165.845 173,162.5C 173.617,163.449 173.451,164.282 172.5,165C 168.676,168.079 164.676,170.912 160.5,173.5C 159.348,176.106 159.182,178.773 160,181.5C 162.023,179.231 162.856,176.564 162.5,173.5C 164.857,173.663 167.19,173.497 169.5,173C 168.689,170.709 169.523,168.875 172,167.5C 172.333,168.5 172.667,169.5 173,170.5C 174.356,169.62 175.856,169.286 177.5,169.5 Z"/></g>
<g><path style="opacity:1" fill="#998db4" d="M 175.5,175.5 C 174.277,178.274 172.777,180.941 171,183.5C 161.278,195.653 151.111,207.32 140.5,218.5C 136.534,219.601 132.867,219.601 129.5,218.5C 128.833,218.833 128.167,219.167 127.5,219.5C 127.5,218.5 127.5,217.5 127.5,216.5C 133.068,216.456 138.068,214.79 142.5,211.5C 147.135,204.698 152.635,198.698 159,193.5C 160.419,191.664 161.586,189.664 162.5,187.5C 167.802,185.201 170.802,181.201 171.5,175.5C 172.833,175.5 174.167,175.5 175.5,175.5 Z"/></g>
<g><path style="opacity:1" fill="#9380a8" d="M 351.5,175.5 C 352.5,175.5 353.5,175.5 354.5,175.5C 355.653,180.002 357.319,184.335 359.5,188.5C 360.082,192.155 360.582,195.822 361,199.5C 362.017,246.664 362.851,293.831 363.5,341C 362.922,381.832 362.589,422.665 362.5,463.5C 361.995,470.242 360.995,476.909 359.5,483.5C 361.41,406.507 361.743,329.507 360.5,252.5C 360.667,235.497 360.5,218.497 360,201.5C 359.819,198.305 359.319,195.305 358.5,192.5C 356.984,186.471 354.65,180.805 351.5,175.5 Z"/></g>
<g><path style="opacity:1" fill="#9678bc" d="M -0.5,-0.5 C 170.167,-0.5 340.833,-0.5 511.5,-0.5C 511.5,0.166667 511.5,0.833333 511.5,1.5C 340.335,0.751388 170.502,0.418055 2,0.5C 0.903721,2.45865 0.403721,4.62532 0.5,7C 0.58002,80.1687 0.913353,153.335 1.5,226.5C 3.21989,235.926 3.55323,245.259 2.5,254.5C 3.32496,255.386 4.32496,255.719 5.5,255.5C 5.5,260.833 5.5,266.167 5.5,271.5C 4.32496,271.281 3.32496,271.614 2.5,272.5C 3.23774,276.129 3.07107,279.796 2,283.5C 1.66667,283.167 1.33333,282.833 1,282.5C 0.833333,286 0.666667,289.5 0.5,293C 0.803694,329.278 0.803694,365.444 0.5,401.5C 0.833333,402.167 1.16667,402.833 1.5,403.5C 3.01568,402.196 3.68235,402.696 3.5,405C 1.78089,416.788 0.947556,428.621 1,440.5C 1.65431,439.304 2.15431,439.304 2.5,440.5C 1.92341,442.106 1.59008,443.772 1.5,445.5C 3.41263,456.889 3.41263,468.222 1.5,479.5C 2.5,479.5 3.5,479.5 4.5,479.5C 5.60651,486.097 4.60651,492.431 1.5,498.5C 2.3416,500.765 2.3416,502.932 1.5,505C 3.3028,506.262 4.63613,507.929 5.5,510C 9.81567,510.804 13.9823,510.304 18,508.5C 25.8354,508.8 33.6687,509.133 41.5,509.5C 43.6079,509.14 45.6079,508.473 47.5,507.5C 59.395,506.824 71.2283,506.157 83,505.5C 87.4666,506.622 90.4666,507.955 92,509.5C 93.1667,509.333 94.3333,509.167 95.5,509C 94.8333,508.667 94.1667,508.333 93.5,508C 95.8483,507.89 97.3483,506.723 98,504.5C 100.039,505.978 100.872,507.978 100.5,510.5C 101.5,510.5 102.5,510.5 103.5,510.5C 103.169,483.995 103.502,457.661 104.5,431.5C 104.5,458.167 104.5,484.833 104.5,511.5C 69.5,511.5 34.5,511.5 -0.5,511.5C -0.5,340.833 -0.5,170.167 -0.5,-0.5 Z"/></g>
<g><path style="opacity:1" fill="#372514" d="M 316.5,215.5 C 321.528,217.676 326.194,220.343 330.5,223.5C 328.801,223.66 327.134,223.494 325.5,223C 323.623,220.894 321.29,219.561 318.5,219C 317.177,218.184 316.511,217.017 316.5,215.5 Z"/></g>
<g><path style="opacity:1" fill="#5d5971" d="M 129.5,218.5 C 132.867,219.601 136.534,219.601 140.5,218.5C 136.798,222.488 133.131,222.488 129.5,218.5 Z"/></g>
<g><path style="opacity:1" fill="#392718" d="M 214.5,217.5 C 212.396,218.912 210.063,219.912 207.5,220.5C 207.334,224.002 208.334,227.002 210.5,229.5C 209.833,229.167 209.167,228.833 208.5,228.5C 205.642,226.288 204.309,223.288 204.5,219.5C 207.789,218.626 211.123,217.959 214.5,217.5 Z"/></g>
<g><path style="opacity:1" fill="#cca376" d="M 313.5,214.5 C 313.337,216.857 313.503,219.19 314,221.5C 315.812,222.977 317.645,224.31 319.5,225.5C 317.856,225.286 316.356,225.62 315,226.5C 314.189,224.33 312.855,222.663 311,221.5C 306.09,222.198 300.923,222.531 295.5,222.5C 294.919,227.975 295.586,233.142 297.5,238C 294.183,238.498 290.85,238.665 287.5,238.5C 288.211,234.261 286.544,231.594 282.5,230.5C 283.912,229.194 285.579,228.36 287.5,228C 281.89,227.278 276.39,227.778 271,229.5C 267.21,227.908 263.21,226.908 259,226.5C 257.5,226.667 256,226.833 254.5,227C 255.554,228.388 255.72,229.888 255,231.5C 251.75,229.96 249.25,227.627 247.5,224.5C 244.19,223.209 243.856,223.709 246.5,226C 244.833,227.667 243.167,229.333 241.5,231C 242.971,233.636 244.637,236.136 246.5,238.5C 244.233,243.9 242.733,249.566 242,255.5C 241.097,251.758 239.93,248.091 238.5,244.5C 236.201,245.635 234.034,246.968 232,248.5C 227.307,244.186 226.14,239.186 228.5,233.5C 226.871,228.343 225.037,228.343 223,233.5C 221.234,231.404 219.901,229.071 219,226.5C 217.161,228.201 215.327,229.868 213.5,231.5C 212.5,230.833 211.5,230.167 210.5,229.5C 208.334,227.002 207.334,224.002 207.5,220.5C 210.063,219.912 212.396,218.912 214.5,217.5C 217.421,216.519 220.421,215.685 223.5,215C 253.537,212.64 283.537,212.473 313.5,214.5 Z"/></g>
<g><path style="opacity:1" fill="#cfa573" d="M 319.5,225.5 C 323.514,225.334 327.514,225.501 331.5,226C 327.644,226.177 323.977,226.677 320.5,227.5C 319.833,227.5 319.5,227.833 319.5,228.5C 315.951,229.723 312.951,231.723 310.5,234.5C 308.204,236.401 306.371,238.734 305,241.5C 304.501,245.486 304.334,249.486 304.5,253.5C 304.654,263.81 303.154,264.144 300,254.5C 299.503,257.146 299.336,259.813 299.5,262.5C 299.483,264.565 299.15,266.565 298.5,268.5C 297.733,269.172 297.066,270.005 296.5,271C 298.332,277.159 300.832,282.992 304,288.5C 308.271,292.047 312.771,295.214 317.5,298C 314.854,298.497 312.187,298.664 309.5,298.5C 309.5,297.5 309.5,296.5 309.5,295.5C 307.459,295.146 305.626,295.146 304,295.5C 303.506,293.866 303.34,292.199 303.5,290.5C 298.307,289.034 292.973,288.367 287.5,288.5C 287.5,289.5 287.5,290.5 287.5,291.5C 286.5,291.5 285.5,291.5 284.5,291.5C 284.502,289.169 283.669,287.169 282,285.5C 279.639,288.628 277.139,291.628 274.5,294.5C 273.915,297.503 273.248,300.503 272.5,303.5C 267.997,300.765 263.664,301.098 259.5,304.5C 256.769,306.946 254.769,309.946 253.5,313.5C 253.482,315.373 253.982,315.706 255,314.5C 255.667,318.167 255.667,321.833 255,325.5C 253.022,324.184 251.522,324.684 250.5,327C 251.308,327.308 251.975,327.808 252.5,328.5C 248.681,331.008 245.014,333.174 241.5,335C 244.524,337.979 245.358,341.479 244,345.5C 246.021,344.764 247.521,345.597 248.5,348C 250.769,348.758 252.936,348.591 255,347.5C 256.009,348.658 257.342,349.325 259,349.5C 261.076,348.906 262.909,348.906 264.5,349.5C 263.571,350.315 262.571,351.148 261.5,352C 262.094,352.464 262.761,352.631 263.5,352.5C 260.695,353.319 257.695,353.819 254.5,354C 255.328,354.915 256.328,355.581 257.5,356C 254.833,356.667 254.833,357.333 257.5,358C 256.338,358.827 255.171,359.66 254,360.5C 252.667,359.833 251.333,359.167 250,358.5C 249.228,358.645 248.561,358.978 248,359.5C 247.667,358.167 247.333,356.833 247,355.5C 244.874,357.377 242.374,358.377 239.5,358.5C 239.5,356.167 239.5,353.833 239.5,351.5C 236.15,351.665 232.817,351.498 229.5,351C 231.619,348.607 234.285,347.274 237.5,347C 235.129,345.594 233.462,343.594 232.5,341C 230.577,340.192 228.577,339.692 226.5,339.5C 220.442,341.356 214.442,343.522 208.5,346C 207.751,347.734 207.251,349.567 207,351.5C 202.333,346.833 197.667,342.167 193,337.5C 191.991,335.975 191.491,334.308 191.5,332.5C 190.167,332.5 188.833,332.5 187.5,332.5C 185.751,336.085 184.418,339.751 183.5,343.5C 181.17,345.542 180.004,348.208 180,351.5C 179.667,349.833 179.333,348.167 179,346.5C 178.802,348.382 178.302,350.048 177.5,351.5C 176.499,340.83 175.499,330.164 174.5,319.5C 174.349,314.39 176.349,310.223 180.5,307C 184.358,306.921 188.024,306.254 191.5,305C 189.26,304.023 186.927,303.523 184.5,303.5C 184.281,302.325 184.614,301.325 185.5,300.5C 186.396,301.506 187.062,301.506 187.5,300.5C 185.631,299.376 183.631,298.543 181.5,298C 182.793,297.51 184.127,297.343 185.5,297.5C 197.03,302.071 208.196,301.071 219,294.5C 220.049,295.517 221.216,295.684 222.5,295C 224.333,292.002 226.666,289.502 229.5,287.5C 227.94,290.913 227.107,294.579 227,298.5C 226.215,300.286 225.049,301.786 223.5,303C 224.167,304 224.833,305 225.5,306C 223.679,308.456 223.012,311.289 223.5,314.5C 225.5,314.5 227.5,314.5 229.5,314.5C 229.5,316.167 229.5,317.833 229.5,319.5C 231.288,319.785 232.955,319.452 234.5,318.5C 233.196,316.984 233.696,316.318 236,316.5C 237.537,317.114 238.87,317.114 240,316.5C 240.419,317.672 241.085,318.672 242,319.5C 244.915,315.347 246.249,310.68 246,305.5C 246.5,305 247,304.5 247.5,304C 246.207,303.51 244.873,303.343 243.5,303.5C 244.105,291.834 244.272,280.168 244,268.5C 243.64,266.579 242.806,264.912 241.5,263.5C 241.704,264.529 241.204,265.529 240,266.5C 237.456,263.339 236.289,259.673 236.5,255.5C 233.728,255.595 231.728,256.929 230.5,259.5C 229.833,259.167 229.167,258.833 228.5,258.5C 227.679,255.553 227.179,252.553 227,249.5C 223.964,247.61 222.797,245.11 223.5,242C 222.383,240.108 220.716,239.275 218.5,239.5C 216.336,237.178 214.669,234.511 213.5,231.5C 215.327,229.868 217.161,228.201 219,226.5C 219.901,229.071 221.234,231.404 223,233.5C 225.037,228.343 226.871,228.343 228.5,233.5C 226.14,239.186 227.307,244.186 232,248.5C 234.034,246.968 236.201,245.635 238.5,244.5C 239.93,248.091 241.097,251.758 242,255.5C 242.733,249.566 244.233,243.9 246.5,238.5C 244.637,236.136 242.971,233.636 241.5,231C 243.167,229.333 244.833,227.667 246.5,226C 243.856,223.709 244.19,223.209 247.5,224.5C 249.25,227.627 251.75,229.96 255,231.5C 255.72,229.888 255.554,228.388 254.5,227C 256,226.833 257.5,226.667 259,226.5C 263.21,226.908 267.21,227.908 271,229.5C 276.39,227.778 281.89,227.278 287.5,228C 285.579,228.36 283.912,229.194 282.5,230.5C 286.544,231.594 288.211,234.261 287.5,238.5C 290.85,238.665 294.183,238.498 297.5,238C 295.586,233.142 294.919,227.975 295.5,222.5C 300.923,222.531 306.09,222.198 311,221.5C 312.855,222.663 314.189,224.33 315,226.5C 316.356,225.62 317.856,225.286 319.5,225.5 Z"/></g>
<g><path style="opacity:1" fill="#674a28" d="M 314.5,214.5 C 315.167,214.833 315.833,215.167 316.5,215.5C 316.511,217.017 317.177,218.184 318.5,219C 321.29,219.561 323.623,220.894 325.5,223C 327.134,223.494 328.801,223.66 330.5,223.5C 332.292,223.366 333.958,223.699 335.5,224.5C 335.64,226.124 334.973,227.29 333.5,228C 328.845,228.499 324.179,228.666 319.5,228.5C 319.5,227.833 319.833,227.5 320.5,227.5C 324.514,227.666 328.514,227.499 332.5,227C 332.957,226.586 333.291,226.086 333.5,225.5C 329.204,224.672 324.871,224.172 320.5,224C 317.031,221.71 315.031,218.544 314.5,214.5 Z"/></g>
<g><path style="opacity:1" fill="#a58254" d="M 313.5,214.5 C 313.833,214.5 314.167,214.5 314.5,214.5C 315.031,218.544 317.031,221.71 320.5,224C 324.871,224.172 329.204,224.672 333.5,225.5C 333.291,226.086 332.957,226.586 332.5,227C 328.514,227.499 324.514,227.666 320.5,227.5C 323.977,226.677 327.644,226.177 331.5,226C 327.514,225.501 323.514,225.334 319.5,225.5C 317.645,224.31 315.812,222.977 314,221.5C 313.503,219.19 313.337,216.857 313.5,214.5 Z"/></g>
<g><path style="opacity:1" fill="#9677bc" d="M 360.5,181.5 C 360.148,184.073 360.648,186.406 362,188.5C 363.82,184.218 365.486,179.885 367,175.5C 367.167,176.833 367.333,178.167 367.5,179.5C 366.797,182.211 366.13,184.544 365.5,186.5C 367.429,190.074 369.262,193.741 371,197.5C 371.172,200.826 371.005,204.159 370.5,207.5C 371.833,207.5 373.167,207.5 374.5,207.5C 373.099,211.963 371.433,216.296 369.5,220.5C 370.911,224.72 371.744,229.053 372,233.5C 372.71,234.973 373.876,235.64 375.5,235.5C 375.538,238.181 374.871,240.681 373.5,243C 375.066,245.912 375.899,249.079 376,252.5C 377.848,254.953 380.348,255.953 383.5,255.5C 383.335,258.85 383.502,262.183 384,265.5C 386.228,263.887 388.728,263.22 391.5,263.5C 393.264,268.212 394.597,273.212 395.5,278.5C 394.624,279.251 393.624,279.751 392.5,280C 393.752,285.653 395.086,285.486 396.5,279.5C 397.675,279.281 398.675,279.614 399.5,280.5C 398.401,283.296 397.401,286.129 396.5,289C 399.104,294.788 400.271,300.955 400,307.5C 401.771,308.304 403.271,309.471 404.5,311C 403.692,311.308 403.025,311.808 402.5,312.5C 406.739,320.232 405.406,321.232 398.5,315.5C 397.692,315.808 397.025,316.308 396.5,317C 400.483,319.275 400.483,320.275 396.5,320C 403.4,325.572 403.067,330.572 395.5,335C 395.833,335.333 396.167,335.667 396.5,336C 393.472,340.887 391.138,346.054 389.5,351.5C 390.833,351.5 392.167,351.5 393.5,351.5C 393.5,354.167 393.5,356.833 393.5,359.5C 389.486,359.334 385.486,359.501 381.5,360C 382.718,361.438 383.385,363.105 383.5,365C 383.502,368.733 383.169,372.567 382.5,376.5C 380.644,375.724 379.311,374.391 378.5,372.5C 377.5,372.833 376.833,373.5 376.5,374.5C 379.843,376.486 381.176,379.486 380.5,383.5C 378.5,383.5 376.5,383.5 374.5,383.5C 374.235,397.369 373.568,411.202 372.5,425C 373.382,428.441 373.716,431.941 373.5,435.5C 371.5,435.5 369.5,435.5 367.5,435.5C 366.754,439.523 366.42,443.523 366.5,447.5C 365.668,436.849 365.168,426.182 365,415.5C 363.967,431.642 363.134,447.642 362.5,463.5C 362.589,422.665 362.922,381.832 363.5,341C 362.851,293.831 362.017,246.664 361,199.5C 360.582,195.822 360.082,192.155 359.5,188.5C 357.319,184.335 355.653,180.002 354.5,175.5C 353.5,175.5 352.5,175.5 351.5,175.5C 351.608,173.486 350.942,171.82 349.5,170.5C 350.496,170.586 351.329,170.252 352,169.5C 352.667,171.5 354,172.833 356,173.5C 356,174.833 356,176.167 356,177.5C 357.667,178.733 359.167,180.067 360.5,181.5 Z"/></g>
<g><path style="opacity:1" fill="#4c445b" d="M 358.5,192.5 C 359.319,195.305 359.819,198.305 360,201.5C 360.5,218.497 360.667,235.497 360.5,252.5C 359.701,232.661 359.034,212.661 358.5,192.5 Z"/></g>
<g><path style="opacity:1" fill="#362818" d="M 310.5,234.5 C 309.547,237.834 308.047,240.834 306,243.5C 305.502,246.817 305.335,250.15 305.5,253.5C 305.167,253.5 304.833,253.5 304.5,253.5C 304.334,249.486 304.501,245.486 305,241.5C 306.371,238.734 308.204,236.401 310.5,234.5 Z"/></g>
<g><path style="opacity:1" fill="#101004" d="M 335.5,224.5 C 338.921,224.238 339.921,225.572 338.5,228.5C 333.533,229.329 328.533,229.829 323.5,230C 321.007,231.583 321.174,233.083 324,234.5C 325.593,232.715 327.093,232.548 328.5,234C 327.552,234.483 326.552,234.649 325.5,234.5C 325.316,237.321 326.649,238.988 329.5,239.5C 331.395,237.514 333.395,237.181 335.5,238.5C 334.5,238.5 333.5,238.5 332.5,238.5C 333.32,244.797 333.653,251.131 333.5,257.5C 331.393,260.057 330.059,263.057 329.5,266.5C 330.5,266.5 331.5,266.5 332.5,266.5C 329.884,267.602 328.05,268.935 327,270.5C 323.88,269.915 321.213,268.581 319,266.5C 317.933,267.191 316.766,267.691 315.5,268C 314.949,269.398 314.616,270.732 314.5,272C 317.459,273.604 320.459,274.771 323.5,275.5C 321.5,275.5 319.5,275.5 317.5,275.5C 313.365,275.224 309.698,273.891 306.5,271.5C 306.167,271.5 305.833,271.5 305.5,271.5C 303.738,270.738 302.738,269.404 302.5,267.5C 302.5,266.5 302.5,265.5 302.5,264.5C 303.5,264.5 304.5,264.5 305.5,264.5C 305.5,260.833 305.5,257.167 305.5,253.5C 305.335,250.15 305.502,246.817 306,243.5C 308.047,240.834 309.547,237.834 310.5,234.5C 312.951,231.723 315.951,229.723 319.5,228.5C 324.179,228.666 328.845,228.499 333.5,228C 334.973,227.29 335.64,226.124 335.5,224.5 Z"/></g>
<g><path style="opacity:1" fill="#897ba1" d="M 127.5,219.5 C 122.64,227.22 118.307,235.22 114.5,243.5C 115.478,237.221 117.812,231.555 121.5,226.5C 123.17,223.834 125.17,221.501 127.5,219.5 Z"/></g>
<g><path style="opacity:1" fill="#7f7299" d="M 114.5,243.5 C 114.5,244.5 114.5,245.5 114.5,246.5C 113.5,249.167 112.5,251.833 111.5,254.5C 110.807,250.206 111.807,246.539 114.5,243.5 Z"/></g>
<g><path style="opacity:1" fill="#0a0b04" d="M 208.5,228.5 C 209.167,228.833 209.833,229.167 210.5,229.5C 212.02,232.72 213.353,236.053 214.5,239.5C 213.566,240.568 213.232,241.901 213.5,243.5C 212.07,243.579 210.736,243.246 209.5,242.5C 207.75,244.461 205.583,245.794 203,246.5C 201.829,249.35 200.662,252.184 199.5,255C 202.167,255.667 202.167,256.333 199.5,257C 199.957,257.414 200.291,257.914 200.5,258.5C 198.69,258.423 197.356,259.59 196.5,262C 197.793,262.49 199.127,262.657 200.5,262.5C 200.5,263.5 200.5,264.5 200.5,265.5C 202.942,265.119 203.609,265.786 202.5,267.5C 197.996,268.698 194.33,271.032 191.5,274.5C 189.371,275.203 187.371,276.203 185.5,277.5C 181.165,278.767 176.832,278.767 172.5,277.5C 171.702,277.957 171.369,278.624 171.5,279.5C 171.5,279.833 171.5,280.167 171.5,280.5C 171.5,283.5 171.5,286.5 171.5,289.5C 171.5,308.167 171.5,326.833 171.5,345.5C 170.673,340.349 170.173,335.016 170,329.5C 169.167,331.5 168.333,333.5 167.5,335.5C 166.348,332.894 166.182,330.227 167,327.5C 167.654,328.696 168.154,328.696 168.5,327.5C 167.181,322.265 166.514,316.932 166.5,311.5C 167.546,303.128 167.546,294.795 166.5,286.5C 167.717,281.554 168.717,276.554 169.5,271.5C 170.427,273.113 171.261,274.779 172,276.5C 173.011,275.663 174.178,275.33 175.5,275.5C 175.5,274.167 175.5,272.833 175.5,271.5C 177.199,271.66 178.866,271.494 180.5,271C 175.118,266.274 172.284,260.44 172,253.5C 177.558,251.454 180.558,253.454 181,259.5C 185.583,264.316 190.416,264.65 195.5,260.5C 192.45,258.555 190.783,255.722 190.5,252C 192.421,251.64 194.088,250.806 195.5,249.5C 199.018,244.551 203.685,241.218 209.5,239.5C 212.317,240.855 213.15,239.855 212,236.5C 210.604,233.936 209.437,231.269 208.5,228.5 Z"/></g>
<g><path style="opacity:1" fill="#5b4321" d="M 210.5,229.5 C 211.5,230.167 212.5,230.833 213.5,231.5C 214.669,234.511 216.336,237.178 218.5,239.5C 220.697,244.756 222.697,250.089 224.5,255.5C 224.167,255.5 223.833,255.5 223.5,255.5C 221.962,252.101 220.129,248.767 218,245.5C 217.023,244.226 216.189,244.226 215.5,245.5C 214.833,245.833 214.167,246.167 213.5,246.5C 214.219,244.236 214.552,241.903 214.5,239.5C 213.353,236.053 212.02,232.72 210.5,229.5 Z"/></g>
<g><path style="opacity:1" fill="#4d433f" d="M 335.5,238.5 C 338.997,243.474 340.33,249.14 339.5,255.5C 339.072,259.244 337.405,262.244 334.5,264.5C 334.284,262.319 335.117,260.653 337,259.5C 337.828,254.798 337.662,250.131 336.5,245.5C 335.176,249.54 334.176,253.54 333.5,257.5C 333.653,251.131 333.32,244.797 332.5,238.5C 333.5,238.5 334.5,238.5 335.5,238.5 Z"/></g>
<g><path style="opacity:1" fill="#897d77" d="M 215.5,245.5 C 215.5,245.833 215.5,246.167 215.5,246.5C 215.778,249.29 215.111,251.79 213.5,254C 213.989,255.138 214.322,256.305 214.5,257.5C 213.5,257.5 212.5,257.5 211.5,257.5C 211.768,255.901 211.434,254.568 210.5,253.5C 211.305,251.085 212.305,248.751 213.5,246.5C 214.167,246.167 214.833,245.833 215.5,245.5 Z"/></g>
<g><path style="opacity:1" fill="#0b1302" d="M 308.5,243.5 C 309.343,245.487 310.01,247.654 310.5,250C 312.354,251.523 313.854,253.356 315,255.5C 316.333,254.167 317.667,252.833 319,251.5C 319.333,251.833 319.667,252.167 320,252.5C 321.617,251.149 322.784,249.482 323.5,247.5C 324.187,249.274 325.02,250.941 326,252.5C 327,251.167 328,251.167 329,252.5C 329.335,246.196 330.168,246.196 331.5,252.5C 330.081,255.687 328.914,259.02 328,262.5C 327.667,261.833 327.333,261.167 327,260.5C 323.872,266.092 319.705,266.925 314.5,263C 313.213,261.59 312.046,260.09 311,258.5C 310.309,260.891 309.309,260.891 308,258.5C 307.222,253.416 307.389,248.416 308.5,243.5 Z"/></g>
<g><path style="opacity:1" fill="#6f6563" d="M 334.5,264.5 C 334.167,265.5 333.5,266.167 332.5,266.5C 331.5,266.5 330.5,266.5 329.5,266.5C 330.059,263.057 331.393,260.057 333.5,257.5C 334.176,253.54 335.176,249.54 336.5,245.5C 337.662,250.131 337.828,254.798 337,259.5C 335.117,260.653 334.284,262.319 334.5,264.5 Z"/></g>
<g><path style="opacity:1" fill="#a69b90" d="M 215.5,246.5 C 218.031,248.966 218.864,251.966 218,255.5C 216.887,256.305 215.721,256.972 214.5,257.5C 214.322,256.305 213.989,255.138 213.5,254C 215.111,251.79 215.778,249.29 215.5,246.5 Z"/></g>
<g><path style="opacity:1" fill="#6f6f5f" d="M 210.5,253.5 C 209.783,256.323 208.783,258.99 207.5,261.5C 209.833,261.5 212.167,261.5 214.5,261.5C 210.733,263.027 206.733,264.027 202.5,264.5C 202.351,263.448 202.517,262.448 203,261.5C 205.733,258.938 208.233,256.271 210.5,253.5 Z"/></g>
<g><path style="opacity:1" fill="#a29976" d="M 223.5,255.5 C 223.635,257.554 222.968,259.221 221.5,260.5C 219.139,260.674 216.806,261.007 214.5,261.5C 212.167,261.5 209.833,261.5 207.5,261.5C 208.783,258.99 209.783,256.323 210.5,253.5C 211.434,254.568 211.768,255.901 211.5,257.5C 212.5,257.5 213.5,257.5 214.5,257.5C 215.721,256.972 216.887,256.305 218,255.5C 218.864,251.966 218.031,248.966 215.5,246.5C 215.5,246.167 215.5,245.833 215.5,245.5C 216.189,244.226 217.023,244.226 218,245.5C 220.129,248.767 221.962,252.101 223.5,255.5 Z"/></g>
<g><path style="opacity:1" fill="#524421" d="M 304.5,253.5 C 304.833,253.5 305.167,253.5 305.5,253.5C 305.5,257.167 305.5,260.833 305.5,264.5C 304.5,264.5 303.5,264.5 302.5,264.5C 302.5,265.5 302.5,266.5 302.5,267.5C 302.167,267.5 301.833,267.5 301.5,267.5C 300.976,265.694 300.309,264.028 299.5,262.5C 299.336,259.813 299.503,257.146 300,254.5C 303.154,264.144 304.654,263.81 304.5,253.5 Z"/></g>
<g><path style="opacity:1" fill="#0c1405" d="M 214.5,239.5 C 214.552,241.903 214.219,244.236 213.5,246.5C 212.305,248.751 211.305,251.085 210.5,253.5C 208.233,256.271 205.733,258.938 203,261.5C 202.517,262.448 202.351,263.448 202.5,264.5C 206.733,264.027 210.733,263.027 214.5,261.5C 216.806,261.007 219.139,260.674 221.5,260.5C 222.833,260.5 224.167,260.5 225.5,260.5C 225.739,262.467 225.406,264.301 224.5,266C 221.5,266.333 218.5,266.667 215.5,267C 207.945,271.053 199.945,273.553 191.5,274.5C 194.33,271.032 197.996,268.698 202.5,267.5C 203.609,265.786 202.942,265.119 200.5,265.5C 200.5,264.5 200.5,263.5 200.5,262.5C 199.127,262.657 197.793,262.49 196.5,262C 197.356,259.59 198.69,258.423 200.5,258.5C 200.291,257.914 199.957,257.414 199.5,257C 202.167,256.333 202.167,255.667 199.5,255C 200.662,252.184 201.829,249.35 203,246.5C 205.583,245.794 207.75,244.461 209.5,242.5C 210.736,243.246 212.07,243.579 213.5,243.5C 213.232,241.901 213.566,240.568 214.5,239.5 Z"/></g>
<g><path style="opacity:1" fill="#cca676" d="M 218.5,239.5 C 220.716,239.275 222.383,240.108 223.5,242C 222.797,245.11 223.964,247.61 227,249.5C 227.179,252.553 227.679,255.553 228.5,258.5C 229.167,258.833 229.833,259.167 230.5,259.5C 231.728,256.929 233.728,255.595 236.5,255.5C 236.289,259.673 237.456,263.339 240,266.5C 241.204,265.529 241.704,264.529 241.5,263.5C 242.806,264.912 243.64,266.579 244,268.5C 244.272,280.168 244.105,291.834 243.5,303.5C 244.873,303.343 246.207,303.51 247.5,304C 247,304.5 246.5,305 246,305.5C 246.249,310.68 244.915,315.347 242,319.5C 241.085,318.672 240.419,317.672 240,316.5C 238.87,317.114 237.537,317.114 236,316.5C 233.696,316.318 233.196,316.984 234.5,318.5C 232.955,319.452 231.288,319.785 229.5,319.5C 229.5,317.833 229.5,316.167 229.5,314.5C 227.5,314.5 225.5,314.5 223.5,314.5C 223.012,311.289 223.679,308.456 225.5,306C 224.833,305 224.167,304 223.5,303C 225.049,301.786 226.215,300.286 227,298.5C 227.107,294.579 227.94,290.913 229.5,287.5C 231.046,284.23 232.88,280.896 235,277.5C 235.499,273.848 235.665,270.182 235.5,266.5C 234.5,266.5 233.5,266.5 232.5,266.5C 232.167,266.5 231.833,266.5 231.5,266.5C 230.974,264.77 229.974,263.436 228.5,262.5C 228.5,261.833 228.167,261.5 227.5,261.5C 227.008,259.181 226.008,257.181 224.5,255.5C 222.697,250.089 220.697,244.756 218.5,239.5 Z"/></g>
<g><path style="opacity:1" fill="#4a4120" d="M 227.5,261.5 C 228.167,261.5 228.5,261.833 228.5,262.5C 228.5,263.167 228.5,263.833 228.5,264.5C 228.785,266.288 228.452,267.955 227.5,269.5C 221.426,272.096 215.093,274.262 208.5,276C 196.235,277.908 183.902,279.075 171.5,279.5C 171.369,278.624 171.702,277.957 172.5,277.5C 176.832,278.767 181.165,278.767 185.5,277.5C 191.145,276.873 196.811,276.373 202.5,276C 210.421,272.589 218.421,269.589 226.5,267C 227.406,265.301 227.739,263.467 227.5,261.5 Z"/></g>
<g><path style="opacity:1" fill="#353115" d="M 223.5,255.5 C 223.833,255.5 224.167,255.5 224.5,255.5C 226.008,257.181 227.008,259.181 227.5,261.5C 227.739,263.467 227.406,265.301 226.5,267C 218.421,269.589 210.421,272.589 202.5,276C 196.811,276.373 191.145,276.873 185.5,277.5C 187.371,276.203 189.371,275.203 191.5,274.5C 199.945,273.553 207.945,271.053 215.5,267C 218.5,266.667 221.5,266.333 224.5,266C 225.406,264.301 225.739,262.467 225.5,260.5C 224.167,260.5 222.833,260.5 221.5,260.5C 222.968,259.221 223.635,257.554 223.5,255.5 Z"/></g>
<g><path style="opacity:1" fill="#625530" d="M 228.5,264.5 C 229.83,267.44 229.663,270.44 228,273.5C 217.092,281.202 204.925,284.535 191.5,283.5C 185.202,280.966 178.536,279.966 171.5,280.5C 171.5,280.167 171.5,279.833 171.5,279.5C 183.902,279.075 196.235,277.908 208.5,276C 215.093,274.262 221.426,272.096 227.5,269.5C 228.452,267.955 228.785,266.288 228.5,264.5 Z"/></g>
<g><path style="opacity:1" fill="#41331c" d="M 317.5,275.5 C 319.5,275.5 321.5,275.5 323.5,275.5C 325.378,276.208 327.045,277.374 328.5,279C 330.5,279.333 332.5,279.667 334.5,280C 336.632,283.764 339.132,287.264 342,290.5C 342.829,308.338 342.662,326.005 341.5,343.5C 341.5,330.167 341.5,316.833 341.5,303.5C 341.5,301.833 341.5,300.167 341.5,298.5C 342.412,293.594 340.579,290.261 336,288.5C 332.874,282.174 327.707,278.674 320.5,278C 319.429,277.148 318.429,276.315 317.5,275.5 Z"/></g>
<g><path style="opacity:1" fill="#a38156" d="M 301.5,267.5 C 301.833,267.5 302.167,267.5 302.5,267.5C 302.738,269.404 303.738,270.738 305.5,271.5C 306.619,276.518 309.619,279.351 314.5,280C 321.871,285.161 328.538,290.994 334.5,297.5C 324.436,290.474 314.102,283.974 303.5,278C 303,277.5 302.5,277 302,276.5C 301.502,273.518 301.335,270.518 301.5,267.5 Z"/></g>
<g><path style="opacity:1" fill="#79613e" d="M 315.5,278.5 C 324.64,279.976 331.64,284.643 336.5,292.5C 337.325,293.386 338.325,293.719 339.5,293.5C 339.12,295.698 339.787,297.365 341.5,298.5C 341.5,300.167 341.5,301.833 341.5,303.5C 339.811,299.631 337.478,296.131 334.5,293C 328.253,287.937 321.92,283.104 315.5,278.5 Z"/></g>
<g><path style="opacity:1" fill="#76633a" d="M 228.5,262.5 C 229.974,263.436 230.974,264.77 231.5,266.5C 231.579,269.271 231.079,271.937 230,274.5C 219.637,285.787 207.137,289.62 192.5,286C 191.748,285.329 191.414,284.496 191.5,283.5C 204.925,284.535 217.092,281.202 228,273.5C 229.663,270.44 229.83,267.44 228.5,264.5C 228.5,263.833 228.5,263.167 228.5,262.5 Z"/></g>
<g><path style="opacity:1" fill="#bf9861" d="M 232.5,266.5 C 233.5,266.5 234.5,266.5 235.5,266.5C 235.665,270.182 235.499,273.848 235,277.5C 232.88,280.896 231.046,284.23 229.5,287.5C 226.666,289.502 224.333,292.002 222.5,295C 221.216,295.684 220.049,295.517 219,294.5C 208.196,301.071 197.03,302.071 185.5,297.5C 187.779,296.349 190.112,295.349 192.5,294.5C 194.607,295.3 196.774,295.967 199,296.5C 209.437,294.696 219.104,291.029 228,285.5C 230.571,283.024 232.071,280.024 232.5,276.5C 232.5,273.167 232.5,269.833 232.5,266.5 Z"/></g>
<g><path style="opacity:1" fill="#92734f" d="M 305.5,271.5 C 305.833,271.5 306.167,271.5 306.5,271.5C 308.993,274.569 311.993,276.902 315.5,278.5C 321.92,283.104 328.253,287.937 334.5,293C 337.478,296.131 339.811,299.631 341.5,303.5C 341.5,316.833 341.5,330.167 341.5,343.5C 341.167,343.5 340.833,343.5 340.5,343.5C 340.5,335.5 340.5,327.5 340.5,319.5C 340.666,314.821 340.499,310.155 340,305.5C 338.366,302.699 336.533,300.032 334.5,297.5C 328.538,290.994 321.871,285.161 314.5,280C 309.619,279.351 306.619,276.518 305.5,271.5 Z"/></g>
<g><path style="opacity:1" fill="#614f2f" d="M 306.5,271.5 C 309.698,273.891 313.365,275.224 317.5,275.5C 318.429,276.315 319.429,277.148 320.5,278C 327.707,278.674 332.874,282.174 336,288.5C 340.579,290.261 342.412,293.594 341.5,298.5C 339.787,297.365 339.12,295.698 339.5,293.5C 338.325,293.719 337.325,293.386 336.5,292.5C 331.64,284.643 324.64,279.976 315.5,278.5C 311.993,276.902 308.993,274.569 306.5,271.5 Z"/></g>
<g><path style="opacity:1" fill="#8e7346" d="M 231.5,266.5 C 231.833,266.5 232.167,266.5 232.5,266.5C 232.5,269.833 232.5,273.167 232.5,276.5C 231.217,278.868 229.55,281.035 227.5,283C 219.058,287.98 210.058,291.48 200.5,293.5C 194.034,292.854 189.034,289.854 185.5,284.5C 181.959,283.8 178.459,283.133 175,282.5C 174.517,283.448 174.351,284.448 174.5,285.5C 173.022,286.448 172.022,287.781 171.5,289.5C 171.5,286.5 171.5,283.5 171.5,280.5C 178.536,279.966 185.202,280.966 191.5,283.5C 191.414,284.496 191.748,285.329 192.5,286C 207.137,289.62 219.637,285.787 230,274.5C 231.079,271.937 231.579,269.271 231.5,266.5 Z"/></g>
<g><path style="opacity:1" fill="#cca277" d="M 298.5,268.5 C 299.368,274.24 301.368,279.574 304.5,284.5C 308.494,285.665 312.494,286.832 316.5,288C 321.889,292.389 327.556,296.389 333.5,300C 334.823,300.816 335.489,301.983 335.5,303.5C 335.508,310.232 336.175,316.899 337.5,323.5C 336.336,326.878 335.669,330.378 335.5,334C 336.474,342.55 336.807,351.05 336.5,359.5C 334.857,359.48 333.524,360.147 332.5,361.5C 331.602,367.52 329.768,373.186 327,378.5C 325.217,375.108 325.051,371.608 326.5,368C 326.167,367.833 325.833,367.667 325.5,367.5C 324.333,369.167 323.167,370.833 322,372.5C 321.855,368.495 321.022,364.662 319.5,361C 322.106,358.454 323.44,355.287 323.5,351.5C 322.167,351.5 320.833,351.5 319.5,351.5C 319.5,349.167 319.5,346.833 319.5,344.5C 316.15,344.335 312.817,344.502 309.5,345C 307.942,348.113 306.109,348.28 304,345.5C 303.29,346.973 302.124,347.64 300.5,347.5C 299.835,342.741 297.002,340.741 292,341.5C 289.95,341.691 288.117,342.358 286.5,343.5C 284.889,342.68 284.222,341.346 284.5,339.5C 285.675,339.719 286.675,339.386 287.5,338.5C 285.56,337.472 283.56,337.472 281.5,338.5C 276.903,337.938 276.57,336.772 280.5,335C 280.043,334.586 279.709,334.086 279.5,333.5C 281.636,332.148 281.97,330.482 280.5,328.5C 282.647,325.668 282.647,323.001 280.5,320.5C 279.833,321.5 279.167,322.5 278.5,323.5C 276.15,321.317 273.983,318.984 272,316.5C 271.517,317.448 271.351,318.448 271.5,319.5C 269.097,319.393 267.264,320.393 266,322.5C 262.981,319.264 262.814,315.931 265.5,312.5C 266.607,313.022 267.774,313.355 269,313.5C 276.091,308.725 279.591,310.725 279.5,319.5C 280.675,319.719 281.675,319.386 282.5,318.5C 280.5,313.833 278.5,309.167 276.5,304.5C 277.325,303.614 278.325,303.281 279.5,303.5C 281.268,299.446 282.934,295.446 284.5,291.5C 285.5,291.5 286.5,291.5 287.5,291.5C 287.5,290.5 287.5,289.5 287.5,288.5C 292.973,288.367 298.307,289.034 303.5,290.5C 303.34,292.199 303.506,293.866 304,295.5C 305.626,295.146 307.459,295.146 309.5,295.5C 309.5,296.5 309.5,297.5 309.5,298.5C 312.187,298.664 314.854,298.497 317.5,298C 312.771,295.214 308.271,292.047 304,288.5C 300.832,282.992 298.332,277.159 296.5,271C 297.066,270.005 297.733,269.172 298.5,268.5 Z"/></g>
<g><path style="opacity:1" fill="#b48f63" d="M 299.5,262.5 C 300.309,264.028 300.976,265.694 301.5,267.5C 301.335,270.518 301.502,273.518 302,276.5C 302.5,277 303,277.5 303.5,278C 314.102,283.974 324.436,290.474 334.5,297.5C 336.533,300.032 338.366,302.699 340,305.5C 340.499,310.155 340.666,314.821 340.5,319.5C 339.713,313.781 338.047,308.448 335.5,303.5C 335.489,301.983 334.823,300.816 333.5,300C 327.556,296.389 321.889,292.389 316.5,288C 312.494,286.832 308.494,285.665 304.5,284.5C 301.368,279.574 299.368,274.24 298.5,268.5C 299.15,266.565 299.483,264.565 299.5,262.5 Z"/></g>
<g><path style="opacity:1" fill="#a78454" d="M 232.5,276.5 C 232.071,280.024 230.571,283.024 228,285.5C 219.104,291.029 209.437,294.696 199,296.5C 196.774,295.967 194.607,295.3 192.5,294.5C 187.898,291.366 182.898,289.033 177.5,287.5C 175.065,289.279 174.065,288.613 174.5,285.5C 174.351,284.448 174.517,283.448 175,282.5C 178.459,283.133 181.959,283.8 185.5,284.5C 189.034,289.854 194.034,292.854 200.5,293.5C 210.058,291.48 219.058,287.98 227.5,283C 229.55,281.035 231.217,278.868 232.5,276.5 Z"/></g>
<g><path style="opacity:1" fill="#06040d" d="M 348.5,173.5 C 349.5,174.167 350.5,174.833 351.5,175.5C 354.65,180.805 356.984,186.471 358.5,192.5C 359.034,212.661 359.701,232.661 360.5,252.5C 361.743,329.507 361.41,406.507 359.5,483.5C 358.613,492.801 358.279,502.134 358.5,511.5C 348.167,511.5 337.833,511.5 327.5,511.5C 326.833,505.5 329.5,502.833 335.5,503.5C 335.5,504.5 335.5,505.5 335.5,506.5C 336.93,506.579 338.264,506.246 339.5,505.5C 343.386,507.457 347.386,508.79 351.5,509.5C 351.337,507.143 351.503,504.81 352,502.5C 353.133,504.211 354.633,504.711 356.5,504C 356.621,501.308 356.288,498.475 355.5,495.5C 353.931,496.714 353.098,498.381 353,500.5C 351.956,499.377 351.29,498.044 351,496.5C 350.338,498.813 349.838,501.146 349.5,503.5C 348.5,503.5 347.5,503.5 346.5,503.5C 345.908,500.873 345.575,498.206 345.5,495.5C 347.5,495.5 349.5,495.5 351.5,495.5C 352.833,486.833 352.833,478.167 351.5,469.5C 352.297,465.019 352.964,460.519 353.5,456C 353.475,453.245 353.141,450.578 352.5,448C 353.793,447.51 355.127,447.343 356.5,447.5C 356.265,436.682 356.265,426.016 356.5,415.5C 355.5,415.5 354.5,415.5 353.5,415.5C 353.509,413.339 354.176,412.006 355.5,411.5C 355.518,409.627 355.018,409.294 354,410.5C 351.937,406.206 352.103,402.039 354.5,398C 353.651,393.191 352.984,388.357 352.5,383.5C 353.5,383.5 354.5,383.5 355.5,383.5C 356.473,376.482 356.473,369.482 355.5,362.5C 356.213,358.676 356.88,354.843 357.5,351C 356.053,335.206 355.386,319.373 355.5,303.5C 356.5,303.5 357.5,303.5 358.5,303.5C 357.345,299.5 357.178,295.5 358,291.5C 357.417,293.002 356.584,294.335 355.5,295.5C 354.348,292.894 354.182,290.227 355,287.5C 355.333,288.167 355.667,288.833 356,289.5C 356.333,286.167 356.667,282.833 357,279.5C 357.333,280.5 357.667,281.5 358,282.5C 358.004,278.517 357.671,274.517 357,270.5C 356.461,273.529 355.794,276.529 355,279.5C 354.667,278.833 354.333,278.167 354,277.5C 353.5,270.174 353.334,262.841 353.5,255.5C 352.167,255.5 350.833,255.5 349.5,255.5C 349.499,247.483 349.166,239.483 348.5,231.5C 346.571,231.769 344.905,231.269 343.5,230C 344.43,229.009 345.596,228.509 347,228.5C 350.596,229.735 351.429,228.401 349.5,224.5C 351.064,219.019 352.064,213.352 352.5,207.5C 354.071,205.118 354.904,202.451 355,199.5C 355.333,200.833 355.667,202.167 356,203.5C 356.167,202.667 356.333,201.833 356.5,201C 356.255,197.755 356.255,194.422 356.5,191C 354.772,188.377 353.439,185.543 352.5,182.5C 349.28,181.234 346.947,179.067 345.5,176C 346.942,175.623 347.942,174.79 348.5,173.5 Z"/></g>
<g><path style="opacity:1" fill="#b69064" d="M 174.5,285.5 C 174.065,288.613 175.065,289.279 177.5,287.5C 182.898,289.033 187.898,291.366 192.5,294.5C 190.112,295.349 187.779,296.349 185.5,297.5C 184.127,297.343 182.793,297.51 181.5,298C 183.631,298.543 185.631,299.376 187.5,300.5C 187.062,301.506 186.396,301.506 185.5,300.5C 184.614,301.325 184.281,302.325 184.5,303.5C 186.927,303.523 189.26,304.023 191.5,305C 188.024,306.254 184.358,306.921 180.5,307C 176.349,310.223 174.349,314.39 174.5,319.5C 174.876,310.765 174.376,302.098 173,293.5C 172.5,322.831 172.333,352.165 172.5,381.5C 171.505,369.678 171.172,357.678 171.5,345.5C 171.5,326.833 171.5,308.167 171.5,289.5C 172.022,287.781 173.022,286.448 174.5,285.5 Z"/></g>
<g><path style="opacity:1" fill="#bf9774" d="M 335.5,303.5 C 338.047,308.448 339.713,313.781 340.5,319.5C 340.5,327.5 340.5,335.5 340.5,343.5C 339.466,352.606 337.8,361.606 335.5,370.5C 334.833,370.833 334.167,371.167 333.5,371.5C 334.248,367.422 335.248,363.422 336.5,359.5C 336.807,351.05 336.474,342.55 335.5,334C 335.669,330.378 336.336,326.878 337.5,323.5C 336.175,316.899 335.508,310.232 335.5,303.5 Z"/></g>
<g><path style="opacity:1" fill="#d0a46e" d="M 263.5,352.5 C 266.649,352.585 269.316,351.585 271.5,349.5C 275.297,349.128 278.63,347.794 281.5,345.5C 282.423,344.697 283.423,344.53 284.5,345C 284.034,346.299 284.034,347.799 284.5,349.5C 279.452,350.557 275.119,352.89 271.5,356.5C 270.555,357.993 269.555,359.493 268.5,361C 272.773,364.651 272.44,367.818 267.5,370.5C 265.836,369.777 264.169,370.11 262.5,371.5C 260.89,370.448 259.223,370.448 257.5,371.5C 255.647,370.811 254.481,369.478 254,367.5C 252.812,368.563 252.312,369.897 252.5,371.5C 247.297,372.051 242.297,373.384 237.5,375.5C 235.022,374.117 232.355,373.117 229.5,372.5C 225.904,375.235 223.904,378.901 223.5,383.5C 224.552,383.351 225.552,383.517 226.5,384C 224.937,384.759 223.937,385.926 223.5,387.5C 217.607,388.412 211.607,388.912 205.5,389C 203.737,381.988 203.071,374.822 203.5,367.5C 199.5,367.5 195.5,367.5 191.5,367.5C 191.5,366.167 191.5,364.833 191.5,363.5C 190.178,363.67 189.011,363.337 188,362.5C 187.667,364.167 187.333,365.833 187,367.5C 186.667,364.167 186.333,360.833 186,357.5C 185.415,355.871 184.581,354.371 183.5,353C 183.905,352.055 184.572,351.388 185.5,351C 183.887,348.772 183.22,346.272 183.5,343.5C 184.418,339.751 185.751,336.085 187.5,332.5C 188.833,332.5 190.167,332.5 191.5,332.5C 191.491,334.308 191.991,335.975 193,337.5C 197.667,342.167 202.333,346.833 207,351.5C 207.251,349.567 207.751,347.734 208.5,346C 214.442,343.522 220.442,341.356 226.5,339.5C 228.577,339.692 230.577,340.192 232.5,341C 233.462,343.594 235.129,345.594 237.5,347C 234.285,347.274 231.619,348.607 229.5,351C 232.817,351.498 236.15,351.665 239.5,351.5C 239.5,353.833 239.5,356.167 239.5,358.5C 242.374,358.377 244.874,357.377 247,355.5C 247.333,356.833 247.667,358.167 248,359.5C 248.561,358.978 249.228,358.645 250,358.5C 251.333,359.167 252.667,359.833 254,360.5C 255.171,359.66 256.338,358.827 257.5,358C 254.833,357.333 254.833,356.667 257.5,356C 256.328,355.581 255.328,354.915 254.5,354C 257.695,353.819 260.695,353.319 263.5,352.5 Z"/></g>
<g><path style="opacity:1" fill="#cca173" d="M 284.5,291.5 C 282.934,295.446 281.268,299.446 279.5,303.5C 278.325,303.281 277.325,303.614 276.5,304.5C 278.5,309.167 280.5,313.833 282.5,318.5C 281.675,319.386 280.675,319.719 279.5,319.5C 279.591,310.725 276.091,308.725 269,313.5C 267.774,313.355 266.607,313.022 265.5,312.5C 262.814,315.931 262.981,319.264 266,322.5C 267.264,320.393 269.097,319.393 271.5,319.5C 271.351,318.448 271.517,317.448 272,316.5C 273.983,318.984 276.15,321.317 278.5,323.5C 279.167,322.5 279.833,321.5 280.5,320.5C 282.647,323.001 282.647,325.668 280.5,328.5C 281.97,330.482 281.636,332.148 279.5,333.5C 279.709,334.086 280.043,334.586 280.5,335C 276.57,336.772 276.903,337.938 281.5,338.5C 283.56,337.472 285.56,337.472 287.5,338.5C 286.675,339.386 285.675,339.719 284.5,339.5C 284.222,341.346 284.889,342.68 286.5,343.5C 288.117,342.358 289.95,341.691 292,341.5C 297.002,340.741 299.835,342.741 300.5,347.5C 302.124,347.64 303.29,346.973 304,345.5C 306.109,348.28 307.942,348.113 309.5,345C 312.817,344.502 316.15,344.335 319.5,344.5C 319.5,346.833 319.5,349.167 319.5,351.5C 320.833,351.5 322.167,351.5 323.5,351.5C 323.44,355.287 322.106,358.454 319.5,361C 321.022,364.662 321.855,368.495 322,372.5C 323.167,370.833 324.333,369.167 325.5,367.5C 325.833,367.667 326.167,367.833 326.5,368C 325.051,371.608 325.217,375.108 327,378.5C 329.768,373.186 331.602,367.52 332.5,361.5C 333.524,360.147 334.857,359.48 336.5,359.5C 335.248,363.422 334.248,367.422 333.5,371.5C 332.422,374.402 331.756,377.402 331.5,380.5C 329.62,382.755 328.62,385.422 328.5,388.5C 324.229,395.38 320.229,402.38 316.5,409.5C 316.5,407.5 316.5,405.5 316.5,403.5C 316.923,402.735 317.257,401.902 317.5,401C 314.525,397.121 315.525,394.954 320.5,394.5C 322.81,391.546 324.31,388.212 325,384.5C 321.303,383.357 320.803,384.19 323.5,387C 322.351,388.744 321.017,388.911 319.5,387.5C 318.808,388.025 318.308,388.692 318,389.5C 314.818,382.785 312.318,375.785 310.5,368.5C 310.167,368.167 309.833,367.833 309.5,367.5C 308.172,370.824 306.339,373.824 304,376.5C 302.54,374.028 301.54,371.361 301,368.5C 299.092,371.332 298.259,370.999 298.5,367.5C 296.712,367.785 295.045,367.452 293.5,366.5C 290.707,362.289 286.707,360.456 281.5,361C 278.744,358.247 275.411,356.747 271.5,356.5C 275.119,352.89 279.452,350.557 284.5,349.5C 284.034,347.799 284.034,346.299 284.5,345C 283.423,344.53 282.423,344.697 281.5,345.5C 281.209,344.351 280.376,343.684 279,343.5C 274.713,344.229 270.88,345.896 267.5,348.5C 266.609,349.11 265.609,349.443 264.5,349.5C 262.909,348.906 261.076,348.906 259,349.5C 257.342,349.325 256.009,348.658 255,347.5C 252.936,348.591 250.769,348.758 248.5,348C 247.521,345.597 246.021,344.764 244,345.5C 245.358,341.479 244.524,337.979 241.5,335C 245.014,333.174 248.681,331.008 252.5,328.5C 251.975,327.808 251.308,327.308 250.5,327C 251.522,324.684 253.022,324.184 255,325.5C 255.667,321.833 255.667,318.167 255,314.5C 253.982,315.706 253.482,315.373 253.5,313.5C 254.769,309.946 256.769,306.946 259.5,304.5C 263.664,301.098 267.997,300.765 272.5,303.5C 273.248,300.503 273.915,297.503 274.5,294.5C 277.139,291.628 279.639,288.628 282,285.5C 283.669,287.169 284.502,289.169 284.5,291.5 Z"/></g>
<g><path style="opacity:1" fill="#433c17" d="M 281.5,345.5 C 278.63,347.794 275.297,349.128 271.5,349.5C 269.901,349.768 268.568,349.434 267.5,348.5C 270.88,345.896 274.713,344.229 279,343.5C 280.376,343.684 281.209,344.351 281.5,345.5 Z"/></g>
<g><path style="opacity:1" fill="#d0a16d" d="M 183.5,343.5 C 183.22,346.272 183.887,348.772 185.5,351C 184.572,351.388 183.905,352.055 183.5,353C 184.581,354.371 185.415,355.871 186,357.5C 186.333,360.833 186.667,364.167 187,367.5C 187.333,365.833 187.667,364.167 188,362.5C 189.011,363.337 190.178,363.67 191.5,363.5C 191.5,364.833 191.5,366.167 191.5,367.5C 195.5,367.5 199.5,367.5 203.5,367.5C 203.071,374.822 203.737,381.988 205.5,389C 211.607,388.912 217.607,388.412 223.5,387.5C 225.308,387.491 226.975,387.991 228.5,389C 225.53,389.837 222.53,390.504 219.5,391C 218.409,393.064 218.242,395.231 219,397.5C 226.041,401.252 231.541,406.585 235.5,413.5C 237.173,415.086 239.173,415.753 241.5,415.5C 241.5,416.5 241.5,417.5 241.5,418.5C 247.155,418.834 252.822,418.334 258.5,417C 259.167,416.667 259.833,416.333 260.5,416C 258.5,415.667 256.5,415.333 254.5,415C 255.337,413.989 255.67,412.822 255.5,411.5C 258.443,411.647 261.276,412.313 264,413.5C 266.139,412.764 268.139,411.764 270,410.5C 271.562,412.91 273.729,414.244 276.5,414.5C 280.26,413.455 283.926,412.122 287.5,410.5C 292.847,409.738 298.181,409.072 303.5,408.5C 304.441,410.466 305.441,412.466 306.5,414.5C 304.363,415.08 302.53,416.08 301,417.5C 300.25,416.874 299.416,416.374 298.5,416C 302.858,412.683 302.358,410.85 297,410.5C 295.726,411.535 294.56,412.702 293.5,414C 293.833,414.333 294.167,414.667 294.5,415C 292.19,415.497 289.857,415.663 287.5,415.5C 287.5,419.167 287.5,422.833 287.5,426.5C 289.527,426.338 291.527,426.505 293.5,427C 293.966,428.299 293.966,429.799 293.5,431.5C 290.927,432.493 288.26,433.326 285.5,434C 287.645,434.743 287.811,435.576 286,436.5C 273.07,432.873 259.904,431.373 246.5,432C 246.957,432.414 247.291,432.914 247.5,433.5C 245.865,434.681 244.198,434.681 242.5,433.5C 241.328,433.919 240.328,434.585 239.5,435.5C 240.698,437.996 241.531,440.33 242,442.5C 239.395,440.308 236.562,439.975 233.5,441.5C 231.238,440.533 228.905,439.866 226.5,439.5C 226.67,438.178 226.337,437.011 225.5,436C 226.5,435.667 227.5,435.333 228.5,435C 226.975,433.991 225.308,433.491 223.5,433.5C 222.19,438.659 221.69,438.659 222,433.5C 222.5,433 223,432.5 223.5,432C 216.515,432.826 215.515,430.493 220.5,425C 224.195,425.838 227.862,425.505 231.5,424C 229.18,421.352 226.514,419.019 223.5,417C 231.073,414.287 231.073,411.12 223.5,407.5C 219.541,406.34 215.541,406.173 211.5,407C 210.167,408.333 210.167,409.667 211.5,411C 210.207,411.49 208.873,411.657 207.5,411.5C 207.778,403.721 206.778,403.555 204.5,411C 206.366,413.216 207.2,415.716 207,418.5C 206.092,416.561 204.592,415.561 202.5,415.5C 201.45,410.936 199.283,406.936 196,403.5C 194.229,400.247 192.729,396.914 191.5,393.5C 189.897,393.688 188.563,393.188 187.5,392C 188.38,390.644 188.714,389.144 188.5,387.5C 187.178,387.33 186.011,387.663 185,388.5C 184.333,385.167 183.667,381.833 183,378.5C 181.117,375.976 178.617,374.642 175.5,374.5C 176.406,366.429 177.072,358.762 177.5,351.5C 178.302,350.048 178.802,348.382 179,346.5C 179.333,348.167 179.667,349.833 180,351.5C 180.004,348.208 181.17,345.542 183.5,343.5 Z"/></g>
<g><path style="opacity:1" fill="#745927" d="M 267.5,348.5 C 268.568,349.434 269.901,349.768 271.5,349.5C 269.316,351.585 266.649,352.585 263.5,352.5C 262.761,352.631 262.094,352.464 261.5,352C 262.571,351.148 263.571,350.315 264.5,349.5C 265.609,349.443 266.609,349.11 267.5,348.5 Z"/></g>
<g><path style="opacity:1" fill="#cea170" d="M 271.5,356.5 C 275.411,356.747 278.744,358.247 281.5,361C 286.707,360.456 290.707,362.289 293.5,366.5C 295.045,367.452 296.712,367.785 298.5,367.5C 298.259,370.999 299.092,371.332 301,368.5C 301.54,371.361 302.54,374.028 304,376.5C 306.339,373.824 308.172,370.824 309.5,367.5C 309.833,367.833 310.167,368.167 310.5,368.5C 312.318,375.785 314.818,382.785 318,389.5C 318.308,388.692 318.808,388.025 319.5,387.5C 321.017,388.911 322.351,388.744 323.5,387C 320.803,384.19 321.303,383.357 325,384.5C 324.31,388.212 322.81,391.546 320.5,394.5C 315.525,394.954 314.525,397.121 317.5,401C 317.257,401.902 316.923,402.735 316.5,403.5C 315.188,402.855 314.188,401.855 313.5,400.5C 309.597,400.044 306.597,398.21 304.5,395C 302.926,394.301 301.593,394.635 300.5,396C 302.41,396.408 303.41,397.575 303.5,399.5C 302.809,402.353 301.476,404.853 299.5,407C 301.058,407.21 302.391,407.71 303.5,408.5C 298.181,409.072 292.847,409.738 287.5,410.5C 283.926,412.122 280.26,413.455 276.5,414.5C 273.729,414.244 271.562,412.91 270,410.5C 268.139,411.764 266.139,412.764 264,413.5C 261.276,412.313 258.443,411.647 255.5,411.5C 255.67,412.822 255.337,413.989 254.5,415C 256.5,415.333 258.5,415.667 260.5,416C 259.833,416.333 259.167,416.667 258.5,417C 252.822,418.334 247.155,418.834 241.5,418.5C 241.5,417.5 241.5,416.5 241.5,415.5C 239.173,415.753 237.173,415.086 235.5,413.5C 231.541,406.585 226.041,401.252 219,397.5C 218.242,395.231 218.409,393.064 219.5,391C 222.53,390.504 225.53,389.837 228.5,389C 226.975,387.991 225.308,387.491 223.5,387.5C 223.937,385.926 224.937,384.759 226.5,384C 225.552,383.517 224.552,383.351 223.5,383.5C 223.904,378.901 225.904,375.235 229.5,372.5C 232.355,373.117 235.022,374.117 237.5,375.5C 242.297,373.384 247.297,372.051 252.5,371.5C 252.312,369.897 252.812,368.563 254,367.5C 254.481,369.478 255.647,370.811 257.5,371.5C 259.223,370.448 260.89,370.448 262.5,371.5C 264.169,370.11 265.836,369.777 267.5,370.5C 272.44,367.818 272.773,364.651 268.5,361C 269.555,359.493 270.555,357.993 271.5,356.5 Z"/></g>
<g><path style="opacity:1" fill="#9885bc" d="M 106.5,287.5 C 105.203,362.178 105.203,436.845 106.5,511.5C 105.833,511.5 105.167,511.5 104.5,511.5C 104.5,484.833 104.5,458.167 104.5,431.5C 104.5,410.167 104.5,388.833 104.5,367.5C 103.842,340.479 104.509,313.812 106.5,287.5 Z"/></g>
<g><path style="opacity:1" fill="#503722" d="M 335.5,370.5 C 334.572,373.454 333.739,376.454 333,379.5C 332.617,380.056 332.117,380.389 331.5,380.5C 331.756,377.402 332.422,374.402 333.5,371.5C 334.167,371.167 334.833,370.833 335.5,370.5 Z"/></g>
<g><path style="opacity:1" fill="#9b744c" d="M 281.5,387.5 C 275.711,385.109 269.711,383.942 263.5,384C 266.377,384.956 269.044,386.289 271.5,388C 270.552,388.483 269.552,388.649 268.5,388.5C 256.946,390.207 245.279,391.207 233.5,391.5C 235.246,387.251 238.246,384.085 242.5,382C 256.829,375.747 269.829,377.58 281.5,387.5 Z"/></g>
<g><path style="opacity:1" fill="#8e6d3c" d="M 172.5,381.5 C 174.626,384.418 176.292,387.751 177.5,391.5C 174.357,388.996 172.691,385.663 172.5,381.5 Z"/></g>
<g><path style="opacity:1" fill="#816136" d="M 281.5,387.5 C 283.883,388.885 285.55,390.885 286.5,393.5C 280.461,391.615 274.461,389.948 268.5,388.5C 269.552,388.649 270.552,388.483 271.5,388C 269.044,386.289 266.377,384.956 263.5,384C 269.711,383.942 275.711,385.109 281.5,387.5 Z"/></g>
<g><path style="opacity:1" fill="#4f391d" d="M 231.5,391.5 C 231.5,392.5 231.5,393.5 231.5,394.5C 243.505,394.333 255.505,394.5 267.5,395C 269.058,395.21 270.391,395.71 271.5,396.5C 256.459,395.032 241.459,395.366 226.5,397.5C 225.078,397.291 223.745,396.791 222.5,396C 224.973,393.453 227.973,391.953 231.5,391.5 Z"/></g>
<g><path style="opacity:1" fill="#a27c50" d="M 177.5,392.5 C 183.611,397.135 188.111,403.135 191,410.5C 192.011,411.337 193.178,411.67 194.5,411.5C 195.326,415.136 195.992,418.803 196.5,422.5C 193.779,419.106 191.446,415.439 189.5,411.5C 186.607,405.612 182.94,400.278 178.5,395.5C 178.443,394.391 178.11,393.391 177.5,392.5 Z"/></g>
<g><path style="opacity:1" fill="#312315" d="M 328.5,388.5 C 327.167,397.821 323.167,405.821 316.5,412.5C 315.862,416.443 314.195,419.777 311.5,422.5C 312.937,417.979 314.604,413.645 316.5,409.5C 320.229,402.38 324.229,395.38 328.5,388.5 Z"/></g>
<g><path style="opacity:1" fill="#141004" d="M 268.5,388.5 C 274.461,389.948 280.461,391.615 286.5,393.5C 290.703,394.271 294.703,395.604 298.5,397.5C 298.822,399.722 298.155,401.556 296.5,403C 291.353,403.706 286.353,403.206 281.5,401.5C 279.017,398.259 275.684,396.592 271.5,396.5C 270.391,395.71 269.058,395.21 267.5,395C 255.505,394.5 243.505,394.333 231.5,394.5C 231.5,393.5 231.5,392.5 231.5,391.5C 232.167,391.5 232.833,391.5 233.5,391.5C 245.279,391.207 256.946,390.207 268.5,388.5 Z"/></g>
<g><path style="opacity:1" fill="#9374ba" d="M 505.5,510.5 C 457.829,510.833 410.162,510.5 362.5,509.5C 361.224,506.697 361.224,504.03 362.5,501.5C 362.5,503.5 362.5,505.5 362.5,507.5C 364.144,507.714 365.644,507.38 367,506.5C 369.301,508.233 371.968,509.233 375,509.5C 391.154,508.374 407.32,508.374 423.5,509.5C 428.864,509.329 434.198,508.829 439.5,508C 437.167,507.667 434.833,507.333 432.5,507C 437.54,506.322 442.54,505.489 447.5,504.5C 447.351,505.552 447.517,506.552 448,507.5C 453.124,506.429 458.291,505.429 463.5,504.5C 463.5,502.167 463.5,499.833 463.5,497.5C 468.833,497.5 474.167,497.5 479.5,497.5C 479.336,494.813 479.503,492.146 480,489.5C 484.864,487.809 487.697,484.476 488.5,479.5C 491.187,479.664 493.854,479.497 496.5,479C 496.043,478.586 495.709,478.086 495.5,477.5C 499.046,468.16 499.38,458.66 496.5,449C 496.928,442.241 497.928,435.574 499.5,429C 497.921,419.298 497.587,409.465 498.5,399.5C 500.167,399.5 501.833,399.5 503.5,399.5C 503.506,426.215 503.506,452.882 503.5,479.5C 504.833,479.5 506.167,479.5 507.5,479.5C 507.828,484.875 507.495,490.208 506.5,495.5C 503.04,500.322 502.706,505.322 505.5,510.5 Z"/></g>
<g><path style="opacity:1" fill="#312312" d="M 178.5,395.5 C 182.94,400.278 186.607,405.612 189.5,411.5C 188.5,410.833 187.5,410.167 186.5,409.5C 182.785,405.4 180.118,400.733 178.5,395.5 Z"/></g>
<g><path style="opacity:1" fill="#0e0c05" d="M 339.5,255.5 C 341.167,255.5 342.833,255.5 344.5,255.5C 342.777,260.575 341.61,265.575 341,270.5C 340.075,271.047 339.242,271.713 338.5,272.5C 338.833,273.833 339.167,275.167 339.5,276.5C 338.975,277.192 338.308,277.692 337.5,278C 339.973,279.561 341.973,281.561 343.5,284C 342.949,285.398 342.616,286.732 342.5,288C 343.249,289.734 343.749,291.567 344,293.5C 345.395,315.633 344.395,337.633 341,359.5C 338.397,361.949 337.897,364.782 339.5,368C 338.415,372.11 337.081,376.11 335.5,380C 336.802,381.923 336.635,383.757 335,385.5C 334.035,383.74 332.868,383.406 331.5,384.5C 332.611,385.611 333.278,386.945 333.5,388.5C 332.079,391.659 331.079,394.993 330.5,398.5C 331.376,399.251 332.376,399.751 333.5,400C 331.603,403.303 329.936,403.136 328.5,399.5C 326.017,402.439 325.183,405.773 326,409.5C 327.814,408.24 329.647,408.24 331.5,409.5C 329.336,410.414 327.336,411.581 325.5,413C 323.687,412.954 322.021,413.12 320.5,413.5C 318.365,417.349 317.865,421.349 319,425.5C 318.333,424.833 317.667,424.167 317,423.5C 318.301,426.714 317.134,428.548 313.5,429C 314.308,429.308 314.975,429.808 315.5,430.5C 313.922,431.298 312.256,431.798 310.5,432C 310.833,432.333 311.167,432.667 311.5,433C 309.947,434.097 308.614,435.43 307.5,437C 307.833,437.333 308.167,437.667 308.5,438C 305.983,438.579 303.983,437.746 302.5,435.5C 302.5,437.167 302.5,438.833 302.5,440.5C 301.252,441.04 300.085,441.707 299,442.5C 297.494,440.935 295.994,440.601 294.5,441.5C 292.735,442.461 290.735,442.795 288.5,442.5C 298.016,437.985 305.683,431.319 311.5,422.5C 314.195,419.777 315.862,416.443 316.5,412.5C 323.167,405.821 327.167,397.821 328.5,388.5C 328.62,385.422 329.62,382.755 331.5,380.5C 332.117,380.389 332.617,380.056 333,379.5C 333.739,376.454 334.572,373.454 335.5,370.5C 337.8,361.606 339.466,352.606 340.5,343.5C 340.833,343.5 341.167,343.5 341.5,343.5C 342.662,326.005 342.829,308.338 342,290.5C 339.132,287.264 336.632,283.764 334.5,280C 332.5,279.667 330.5,279.333 328.5,279C 327.045,277.374 325.378,276.208 323.5,275.5C 320.459,274.771 317.459,273.604 314.5,272C 314.616,270.732 314.949,269.398 315.5,268C 316.766,267.691 317.933,267.191 319,266.5C 321.213,268.581 323.88,269.915 327,270.5C 328.05,268.935 329.884,267.602 332.5,266.5C 333.5,266.167 334.167,265.5 334.5,264.5C 337.405,262.244 339.072,259.244 339.5,255.5 Z"/></g>
<g><path style="opacity:1" fill="#cfa36c" d="M 174.5,319.5 C 175.499,330.164 176.499,340.83 177.5,351.5C 177.072,358.762 176.406,366.429 175.5,374.5C 178.617,374.642 181.117,375.976 183,378.5C 183.667,381.833 184.333,385.167 185,388.5C 186.011,387.663 187.178,387.33 188.5,387.5C 188.714,389.144 188.38,390.644 187.5,392C 188.563,393.188 189.897,393.688 191.5,393.5C 192.729,396.914 194.229,400.247 196,403.5C 199.283,406.936 201.45,410.936 202.5,415.5C 204.592,415.561 206.092,416.561 207,418.5C 207.2,415.716 206.366,413.216 204.5,411C 206.778,403.555 207.778,403.721 207.5,411.5C 208.873,411.657 210.207,411.49 211.5,411C 210.167,409.667 210.167,408.333 211.5,407C 215.541,406.173 219.541,406.34 223.5,407.5C 231.073,411.12 231.073,414.287 223.5,417C 226.514,419.019 229.18,421.352 231.5,424C 227.862,425.505 224.195,425.838 220.5,425C 215.515,430.493 216.515,432.826 223.5,432C 223,432.5 222.5,433 222,433.5C 221.69,438.659 222.19,438.659 223.5,433.5C 225.308,433.491 226.975,433.991 228.5,435C 227.5,435.333 226.5,435.667 225.5,436C 226.337,437.011 226.67,438.178 226.5,439.5C 228.905,439.866 231.238,440.533 233.5,441.5C 236.562,439.975 239.395,440.308 242,442.5C 241.531,440.33 240.698,437.996 239.5,435.5C 240.328,434.585 241.328,433.919 242.5,433.5C 244.198,434.681 245.865,434.681 247.5,433.5C 247.291,432.914 246.957,432.414 246.5,432C 259.904,431.373 273.07,432.873 286,436.5C 287.811,435.576 287.645,434.743 285.5,434C 288.26,433.326 290.927,432.493 293.5,431.5C 293.966,429.799 293.966,428.299 293.5,427C 291.527,426.505 289.527,426.338 287.5,426.5C 287.5,422.833 287.5,419.167 287.5,415.5C 289.857,415.663 292.19,415.497 294.5,415C 294.167,414.667 293.833,414.333 293.5,414C 294.56,412.702 295.726,411.535 297,410.5C 302.358,410.85 302.858,412.683 298.5,416C 299.416,416.374 300.25,416.874 301,417.5C 302.53,416.08 304.363,415.08 306.5,414.5C 305.441,412.466 304.441,410.466 303.5,408.5C 302.391,407.71 301.058,407.21 299.5,407C 301.476,404.853 302.809,402.353 303.5,399.5C 303.41,397.575 302.41,396.408 300.5,396C 301.593,394.635 302.926,394.301 304.5,395C 306.597,398.21 309.597,400.044 313.5,400.5C 314.188,401.855 315.188,402.855 316.5,403.5C 316.5,405.5 316.5,407.5 316.5,409.5C 314.604,413.645 312.937,417.979 311.5,422.5C 305.683,431.319 298.016,437.985 288.5,442.5C 285.167,443.5 281.833,444.5 278.5,445.5C 263.425,447.092 248.425,446.759 233.5,444.5C 228.159,443.277 223.159,441.277 218.5,438.5C 218.027,437.094 217.027,436.427 215.5,436.5C 208.012,433.338 201.679,428.671 196.5,422.5C 195.992,418.803 195.326,415.136 194.5,411.5C 193.178,411.67 192.011,411.337 191,410.5C 188.111,403.135 183.611,397.135 177.5,392.5C 177.5,392.167 177.5,391.833 177.5,391.5C 176.292,387.751 174.626,384.418 172.5,381.5C 172.333,352.165 172.5,322.831 173,293.5C 174.376,302.098 174.876,310.765 174.5,319.5 Z"/></g>
<g><path style="opacity:1" fill="#5d4322" d="M 298.5,397.5 C 302.164,398.867 302.497,401.034 299.5,404C 294.845,404.499 290.179,404.666 285.5,404.5C 283.781,403.978 282.448,402.978 281.5,401.5C 286.353,403.206 291.353,403.706 296.5,403C 298.155,401.556 298.822,399.722 298.5,397.5 Z"/></g>
<g><path style="opacity:1" fill="#916943" d="M 271.5,396.5 C 274.558,398.696 277.891,400.362 281.5,401.5C 282.448,402.978 283.781,403.978 285.5,404.5C 273.434,405.52 261.434,405.52 249.5,404.5C 249.881,403.069 250.881,402.236 252.5,402C 255.546,402.314 258.546,402.147 261.5,401.5C 262.04,400.252 262.707,399.085 263.5,398C 263.167,397.667 262.833,397.333 262.5,397C 254.287,396.993 246.121,397.827 238,399.5C 236.862,399.011 235.695,398.678 234.5,398.5C 231.615,398.806 228.948,398.473 226.5,397.5C 241.459,395.366 256.459,395.032 271.5,396.5 Z"/></g>
<g><path style="opacity:1" fill="#af8059" d="M 249.5,404.5 C 247.073,404.477 244.74,403.977 242.5,403C 239.443,402.084 236.776,400.584 234.5,398.5C 235.695,398.678 236.862,399.011 238,399.5C 246.121,397.827 254.287,396.993 262.5,397C 262.833,397.333 263.167,397.667 263.5,398C 262.707,399.085 262.04,400.252 261.5,401.5C 258.546,402.147 255.546,402.314 252.5,402C 250.881,402.236 249.881,403.069 249.5,404.5 Z"/></g>
<g><path style="opacity:1" fill="#4e3a21" d="M 271.5,396.5 C 275.684,396.592 279.017,398.259 281.5,401.5C 277.891,400.362 274.558,398.696 271.5,396.5 Z"/></g>
<g><path style="opacity:1" fill="#070300" d="M 191.5,425.5 C 192.496,425.414 193.329,425.748 194,426.5C 194.308,425.692 194.808,425.025 195.5,424.5C 196.792,427.619 198.292,430.619 200,433.5C 201.067,434.191 202.234,434.691 203.5,435C 203.043,435.414 202.709,435.914 202.5,436.5C 204.045,437.452 205.712,437.785 207.5,437.5C 207.5,438.5 207.5,439.5 207.5,440.5C 209.262,440.357 210.929,440.691 212.5,441.5C 213.711,442.274 213.711,443.107 212.5,444C 218.415,444.046 224.081,445.046 229.5,447C 227.527,447.495 225.527,447.662 223.5,447.5C 223.5,448.833 223.5,450.167 223.5,451.5C 227.632,452.769 231.632,454.435 235.5,456.5C 238.986,457.276 242.486,457.942 246,458.5C 252.613,458.111 259.113,457.111 265.5,455.5C 266.833,455.833 268.167,456.167 269.5,456.5C 270.068,454.958 271.735,454.125 274.5,454C 266.127,453.464 257.794,453.464 249.5,454C 254.738,451.342 260.238,450.842 266,452.5C 270.129,451.959 274.129,450.959 278,449.5C 279.641,451.045 280.807,450.711 281.5,448.5C 280.975,447.808 280.308,447.308 279.5,447C 283.11,446.528 286.11,445.028 288.5,442.5C 290.735,442.795 292.735,442.461 294.5,441.5C 295.683,442.504 297.016,443.338 298.5,444C 297.5,444.5 296.5,445 295.5,445.5C 294.15,444.05 292.484,443.383 290.5,443.5C 290.33,444.822 290.663,445.989 291.5,447C 288.854,447.497 286.187,447.664 283.5,447.5C 283.162,450.157 283.829,452.49 285.5,454.5C 283.705,456.703 281.371,457.869 278.5,458C 275.283,461.953 271.283,464.953 266.5,467C 257.5,467.333 248.5,467.667 239.5,468C 250.146,468.829 250.146,469.329 239.5,469.5C 239.5,471.5 239.5,473.5 239.5,475.5C 252.884,475.83 266.217,475.163 279.5,473.5C 282.421,473.524 285.254,473.857 288,474.5C 292.763,472.537 297.597,470.704 302.5,469C 303.406,467.301 303.739,465.467 303.5,463.5C 306.898,463.18 310.232,463.513 313.5,464.5C 313.968,466.134 314.968,467.3 316.5,468C 313.384,469.449 310.884,471.616 309,474.5C 308.405,475.899 308.572,477.232 309.5,478.5C 307.604,479.466 305.604,479.799 303.5,479.5C 302.833,481.5 302.167,483.5 301.5,485.5C 299.208,485.756 297.041,485.423 295,484.5C 289.62,487.304 284.286,490.304 279,493.5C 276.8,492.01 274.966,492.343 273.5,494.5C 275.386,495.406 277.22,496.406 279,497.5C 280.153,495.503 281.653,495.17 283.5,496.5C 284.711,497.72 284.711,498.887 283.5,500C 279.54,500.781 275.707,501.948 272,503.5C 269.23,502.652 266.397,502.319 263.5,502.5C 263.5,501.5 263.5,500.5 263.5,499.5C 273.641,498.649 273.808,497.649 264,496.5C 260.787,497.007 257.62,497.674 254.5,498.5C 250.287,496.762 245.954,495.429 241.5,494.5C 241.192,493.692 240.692,493.025 240,492.5C 237.26,493.282 234.426,493.782 231.5,494C 234.167,494.333 236.833,494.667 239.5,495C 236.167,495.333 232.833,495.667 229.5,496C 231.831,498.2 231.831,500.2 229.5,502C 227.567,502.251 225.734,502.751 224,503.5C 223.517,502.552 223.351,501.552 223.5,500.5C 202.167,499.833 202.167,499.167 223.5,498.5C 223.5,497.5 223.5,496.5 223.5,495.5C 212.48,495.832 201.48,495.499 190.5,494.5C 187.34,492.172 184.673,489.339 182.5,486C 182.833,485.667 183.167,485.333 183.5,485C 182.234,484.691 181.067,484.191 180,483.5C 179.156,480.57 177.822,477.904 176,475.5C 175.501,470.177 175.334,464.844 175.5,459.5C 178.167,459.5 180.833,459.5 183.5,459.5C 183.5,458.167 183.5,456.833 183.5,455.5C 181.04,454.063 178.374,453.063 175.5,452.5C 175.5,450.833 175.5,449.167 175.5,447.5C 172.445,446.476 169.445,445.143 166.5,443.5C 163.755,444.975 161.588,444.309 160,441.5C 160.19,438.415 161.024,435.415 162.5,432.5C 164.045,431.548 165.712,431.215 167.5,431.5C 167.335,428.15 167.502,424.817 168,421.5C 169.663,419.842 170.496,417.842 170.5,415.5C 172.167,415.5 173.833,415.5 175.5,415.5C 175.5,418.5 175.5,421.5 175.5,424.5C 176.675,424.281 177.675,424.614 178.5,425.5C 179.348,427.409 179.682,429.409 179.5,431.5C 182.833,431.5 186.167,431.5 189.5,431.5C 190.167,429.5 190.833,427.5 191.5,425.5 Z"/></g>
<g><path style="opacity:1" fill="#634b20" d="M 215.5,436.5 C 217.027,436.427 218.027,437.094 218.5,438.5C 216.973,438.573 215.973,437.906 215.5,436.5 Z"/></g>
<g><path style="opacity:1" fill="#0f0c03" d="M 186.5,409.5 C 187.5,410.167 188.5,410.833 189.5,411.5C 191.446,415.439 193.779,419.106 196.5,422.5C 201.679,428.671 208.012,433.338 215.5,436.5C 215.973,437.906 216.973,438.573 218.5,438.5C 223.159,441.277 228.159,443.277 233.5,444.5C 235.026,446.13 237.026,446.963 239.5,447C 251.5,447.667 263.5,447.667 275.5,447C 276.737,446.768 277.737,446.268 278.5,445.5C 281.833,444.5 285.167,443.5 288.5,442.5C 286.11,445.028 283.11,446.528 279.5,447C 280.308,447.308 280.975,447.808 281.5,448.5C 280.807,450.711 279.641,451.045 278,449.5C 274.129,450.959 270.129,451.959 266,452.5C 260.238,450.842 254.738,451.342 249.5,454C 257.794,453.464 266.127,453.464 274.5,454C 271.735,454.125 270.068,454.958 269.5,456.5C 268.167,456.167 266.833,455.833 265.5,455.5C 259.113,457.111 252.613,458.111 246,458.5C 242.486,457.942 238.986,457.276 235.5,456.5C 231.632,454.435 227.632,452.769 223.5,451.5C 223.5,450.167 223.5,448.833 223.5,447.5C 225.527,447.662 227.527,447.495 229.5,447C 224.081,445.046 218.415,444.046 212.5,444C 213.711,443.107 213.711,442.274 212.5,441.5C 210.929,440.691 209.262,440.357 207.5,440.5C 207.5,439.5 207.5,438.5 207.5,437.5C 205.712,437.785 204.045,437.452 202.5,436.5C 202.709,435.914 203.043,435.414 203.5,435C 202.234,434.691 201.067,434.191 200,433.5C 198.292,430.619 196.792,427.619 195.5,424.5C 194.808,425.025 194.308,425.692 194,426.5C 193.329,425.748 192.496,425.414 191.5,425.5C 191.25,424.078 190.417,423.078 189,422.5C 188.212,420.835 187.878,419.169 188,417.5C 189.36,419.887 191.193,421.387 193.5,422C 192.436,418.936 190.603,416.436 188,414.5C 187.392,412.846 186.892,411.179 186.5,409.5 Z"/></g>
<g><path style="opacity:1" fill="#8a6733" d="M 233.5,444.5 C 248.425,446.759 263.425,447.092 278.5,445.5C 277.737,446.268 276.737,446.768 275.5,447C 263.5,447.667 251.5,447.667 239.5,447C 237.026,446.963 235.026,446.13 233.5,444.5 Z"/></g>
<g><path style="opacity:1" fill="#0a070f" d="M 114.5,246.5 C 114.192,248.924 114.526,251.257 115.5,253.5C 118.843,255.486 120.176,258.486 119.5,262.5C 111.059,262.657 108.559,266.99 112,275.5C 113.185,273.623 114.185,271.623 115,269.5C 116.031,270.7 116.865,272.034 117.5,273.5C 116.825,276.691 115.658,279.691 114,282.5C 112.667,285.167 111.333,285.167 110,282.5C 107.948,284.52 108.115,286.187 110.5,287.5C 111.332,298.151 111.832,308.818 112,319.5C 112.552,313.911 113.385,308.411 114.5,303C 113.892,301.769 113.559,300.436 113.5,299C 114.606,295.517 115.606,292.017 116.5,288.5C 114.462,285.369 115.129,282.535 118.5,280C 117.978,279.439 117.645,278.772 117.5,278C 119.013,276.121 119.679,273.954 119.5,271.5C 120.5,271.5 121.5,271.5 122.5,271.5C 120.711,278.696 119.044,285.863 117.5,293C 119.044,296.339 119.71,299.839 119.5,303.5C 118.167,303.5 116.833,303.5 115.5,303.5C 115.295,311.214 115.795,318.881 117,326.5C 121.013,329.136 122.013,332.469 120,336.5C 118.989,335.663 117.822,335.33 116.5,335.5C 117.018,341.519 116.351,347.352 114.5,353C 116.637,357.441 118.637,361.941 120.5,366.5C 118.968,373.084 119.301,379.584 121.5,386C 121.333,386.833 121.167,387.667 121,388.5C 120.333,389.833 119.667,389.833 119,388.5C 118.08,390.632 116.913,392.632 115.5,394.5C 113.166,385.675 111.666,376.675 111,367.5C 110.784,389.933 110.784,412.266 111,434.5C 111.249,433.376 111.749,432.376 112.5,431.5C 113.764,434.309 115.764,436.476 118.5,438C 117.978,438.561 117.645,439.228 117.5,440C 118.309,441.784 118.976,443.617 119.5,445.5C 119.081,446.672 118.415,447.672 117.5,448.5C 118.694,457.546 119.36,466.546 119.5,475.5C 118.976,477.453 117.976,479.12 116.5,480.5C 118.5,485.167 120.5,489.833 122.5,494.5C 124.045,495.452 125.712,495.785 127.5,495.5C 127.5,500.833 127.5,506.167 127.5,511.5C 120.5,511.5 113.5,511.5 106.5,511.5C 105.203,436.845 105.203,362.178 106.5,287.5C 107.595,276.409 109.261,265.409 111.5,254.5C 112.5,251.833 113.5,249.167 114.5,246.5 Z"/></g>
<g><path style="opacity:1" fill="#977bb9" d="M 362.5,463.5 C 362.5,476.167 362.5,488.833 362.5,501.5C 361.224,504.03 361.224,506.697 362.5,509.5C 410.162,510.5 457.829,510.833 505.5,510.5C 507.5,510.5 509.5,510.5 511.5,510.5C 511.5,510.833 511.5,511.167 511.5,511.5C 460.5,511.5 409.5,511.5 358.5,511.5C 358.279,502.134 358.613,492.801 359.5,483.5C 360.995,476.909 361.995,470.242 362.5,463.5 Z"/></g>
</svg>
