<?xml version="1.0" encoding="UTF-8"?>
<!DOCTYPE svg PUBLIC "-//W3C//DTD SVG 1.1//EN" "http://www.w3.org/Graphics/SVG/1.1/DTD/svg11.dtd">
<svg xmlns="http://www.w3.org/2000/svg" version="1.1" width="512px" height="512px" style="shape-rendering:geometricPrecision; text-rendering:geometricPrecision; image-rendering:optimizeQuality; fill-rule:evenodd; clip-rule:evenodd" xmlns:xlink="http://www.w3.org/1999/xlink">
<g><path style="opacity:1" fill="#648597" d="M -0.5,-0.5 C 170.167,-0.5 340.833,-0.5 511.5,-0.5C 511.5,170.167 511.5,340.833 511.5,511.5C 484.833,511.5 458.167,511.5 431.5,511.5C 419.773,510.046 407.939,509.713 396,510.5C 389.132,510.452 382.298,509.952 375.5,509C 387.989,508.98 400.322,508.314 412.5,507C 411.833,506.333 411.167,505.667 410.5,505C 411.641,504.259 411.641,503.425 410.5,502.5C 408.892,501.682 407.225,501.015 405.5,500.5C 404.355,499.224 404.355,497.891 405.5,496.5C 403.547,495.31 401.713,493.976 400,492.5C 399.222,489.816 397.889,487.483 396,485.5C 395.71,487.044 395.044,488.377 394,489.5C 393.178,487.212 392.511,484.878 392,482.5C 391.692,483.308 391.192,483.975 390.5,484.5C 388.111,483.82 385.778,482.986 383.5,482C 385.246,481.529 386.913,480.862 388.5,480C 387.359,479.259 387.359,478.425 388.5,477.5C 379.095,477.508 378.429,475.675 386.5,472C 384.939,471.682 383.772,470.849 383,469.5C 380.72,470.833 378.386,472.166 376,473.5C 375.5,473.167 375,472.833 374.5,472.5C 374.901,470.566 375.901,469.066 377.5,468C 374.183,467.502 370.85,467.335 367.5,467.5C 367.628,465.345 367.128,463.345 366,461.5C 361.667,457.5 357.333,453.5 353,449.5C 352.833,449.167 352.667,448.833 352.5,448.5C 354.045,447.548 355.712,447.215 357.5,447.5C 357.26,440.416 357.927,433.416 359.5,426.5C 359.551,423.328 358.884,420.328 357.5,417.5C 359.489,413.858 361.823,410.524 364.5,407.5C 365.48,404.914 365.813,402.247 365.5,399.5C 368.888,400.165 369.888,399.165 368.5,396.5C 368.776,394.67 369.443,393.003 370.5,391.5C 371.478,391.977 372.311,392.643 373,393.5C 374.63,390.659 377.13,389.326 380.5,389.5C 384.823,389.908 388.656,391.575 392,394.5C 395.665,393.076 396.332,391.076 394,388.5C 393.282,389.451 392.449,389.617 391.5,389C 389.478,386.672 387.812,384.172 386.5,381.5C 392.301,382.385 397.301,381.052 401.5,377.5C 402.117,377.611 402.617,377.944 403,378.5C 404.045,375.467 405.712,372.8 408,370.5C 409.772,367.062 410.939,363.562 411.5,360C 411.207,349.36 410.54,338.36 409.5,327C 411.438,317.062 413.105,307.395 414.5,298C 414.389,296.278 413.889,296.112 413,297.5C 412.51,296.207 412.343,294.873 412.5,293.5C 413.371,289.314 414.704,285.314 416.5,281.5C 420.866,271.459 422.2,261.125 420.5,250.5C 420.417,238.757 417.583,227.757 412,217.5C 403.397,180.894 384.231,151.061 354.5,128C 346.099,121.414 337.099,115.914 327.5,111.5C 333.408,112.943 339.408,114.11 345.5,115C 347.026,116.887 349.026,117.887 351.5,118C 351.167,118.333 350.833,118.667 350.5,119C 355.885,119.023 359.552,121.523 361.5,126.5C 364.853,129.487 368.353,131.487 372,132.5C 373.122,134.42 373.956,136.42 374.5,138.5C 377.505,138.253 380.005,139.253 382,141.5C 382.333,141.167 382.667,140.833 383,140.5C 383.494,142.134 383.66,143.801 383.5,145.5C 382.448,145.351 381.448,145.517 380.5,146C 384.154,151.988 387.988,157.821 392,163.5C 393.714,167.193 395.381,170.859 397,174.5C 398.314,175.313 399.481,176.313 400.5,177.5C 401.768,176.572 403.101,176.405 404.5,177C 403.044,177.423 402.544,178.256 403,179.5C 404.073,178.72 405.24,178.887 406.5,180C 405.949,181.398 405.616,182.732 405.5,184C 406.448,184.483 407.448,184.649 408.5,184.5C 408.452,181.687 407.785,179.021 406.5,176.5C 407.5,176.167 408.5,175.833 409.5,175.5C 411.5,176.167 413.5,176.833 415.5,177.5C 420.648,176.367 420.648,175.701 415.5,175.5C 414.874,172.685 413.54,170.185 411.5,168C 412.5,167.667 413.5,167.333 414.5,167C 412.46,164.815 411.126,162.315 410.5,159.5C 415.592,159.211 415.759,158.211 411,156.5C 409.779,157.272 408.779,158.272 408,159.5C 407.109,156.066 407.609,152.899 409.5,150C 407.736,145.323 406.402,140.49 405.5,135.5C 404.022,135.762 402.689,135.429 401.5,134.5C 403.451,130.235 402.118,127.735 397.5,127C 394.317,124.076 391.651,120.743 389.5,117C 389.796,115.112 390.296,113.278 391,111.5C 393.587,113.196 396.421,114.196 399.5,114.5C 399.5,115.5 399.5,116.5 399.5,117.5C 402.365,117.055 404.865,117.722 407,119.5C 408.5,113.165 406,110.499 399.5,111.5C 399.5,106.167 399.5,100.833 399.5,95.5C 397.4,95.5228 395.567,94.8561 394,93.5C 393.228,93.6448 392.561,93.9781 392,94.5C 391.349,92.765 391.515,91.0983 392.5,89.5C 392,88.5 391.5,87.5 391,86.5C 388.194,84.6053 385.86,82.2719 384,79.5C 385.591,90.1866 382.924,91.8532 376,84.5C 374.991,82.9751 374.491,81.3084 374.5,79.5C 372.167,79.5 369.833,79.5 367.5,79.5C 367.5,82.1667 367.5,84.8333 367.5,87.5C 361.933,86.9539 356.6,87.6206 351.5,89.5C 346.338,88.0095 343.338,84.6762 342.5,79.5C 337.025,78.9193 331.858,79.5859 327,81.5C 324.894,79.709 322.394,79.0423 319.5,79.5C 319.5,78.1667 319.5,76.8333 319.5,75.5C 314.167,75.5 308.833,75.5 303.5,75.5C 303.5,74.1667 303.5,72.8333 303.5,71.5C 287.465,71.5023 271.465,72.169 255.5,73.5C 255.5,75.5 255.5,77.5 255.5,79.5C 242.167,79.5 228.833,79.5 215.5,79.5C 216.039,82.695 215.039,85.195 212.5,87C 205.508,87.4996 198.508,87.6663 191.5,87.5C 191.5,90.1667 191.5,92.8333 191.5,95.5C 183.833,95.5 176.167,95.5 168.5,95.5C 168.327,98.1795 167.327,100.513 165.5,102.5C 166.727,103.59 167.56,104.924 168,106.5C 172.057,103.88 176.557,102.88 181.5,103.5C 181.312,101.897 181.812,100.563 183,99.5C 187.072,102.016 190.739,101.683 194,98.5C 197.349,99.7411 198.182,101.908 196.5,105C 193.429,105.147 190.596,105.98 188,107.5C 188.05,109.752 189.216,111.418 191.5,112.5C 188.673,113.328 186.507,114.994 185,117.5C 182.959,116.577 180.792,116.244 178.5,116.5C 178.433,117.959 178.766,119.292 179.5,120.5C 178.448,120.351 177.448,120.517 176.5,121C 173.577,123.446 170.577,125.613 167.5,127.5C 161.313,130.353 155.979,134.353 151.5,139.5C 145.081,144.582 139.748,150.582 135.5,157.5C 133.265,160.291 131.265,163.291 129.5,166.5C 127.808,168.514 126.475,170.848 125.5,173.5C 124.183,175.159 122.517,176.326 120.5,177C 121.517,178.049 121.684,179.216 121,180.5C 118.319,182.527 116.653,185.193 116,188.5C 115.333,189.833 114.667,189.833 114,188.5C 113.682,190.061 112.849,191.228 111.5,192C 112.675,194.838 112.509,197.671 111,200.5C 104.327,210.638 98.1607,221.471 92.5,233C 92.6938,234.903 92.6938,236.737 92.5,238.5C 87.4645,246 84.7979,254.333 84.5,263.5C 81.4135,274.688 81.9135,285.688 86,296.5C 88.5314,303.01 91.8648,309.01 96,314.5C 99.3223,315.132 102.489,316.132 105.5,317.5C 106.434,318.568 106.768,319.901 106.5,321.5C 105.67,331.325 105.17,341.325 105,351.5C 102.128,357.484 103.628,361.984 109.5,365C 108.167,365.667 108.167,366.333 109.5,367C 117.927,370.877 125.927,370.211 133.5,365C 132.207,364.51 130.873,364.343 129.5,364.5C 134.465,362.014 139.132,359.014 143.5,355.5C 140.766,357.955 138.766,360.955 137.5,364.5C 136.675,365.386 135.675,365.719 134.5,365.5C 134.649,366.552 134.483,367.552 134,368.5C 132.229,369.304 130.729,370.471 129.5,372C 132.624,373.952 135.624,376.119 138.5,378.5C 137.691,380.071 137.357,381.738 137.5,383.5C 134.167,383.5 130.833,383.5 127.5,383.5C 127.665,386.85 127.498,390.183 127,393.5C 124.421,394.369 122.588,396.035 121.5,398.5C 117.833,399.167 114.167,399.833 110.5,400.5C 105.833,405.167 101.167,409.833 96.5,414.5C 93.9135,415.48 91.2469,415.813 88.5,415.5C 87.697,420.476 84.8636,423.809 80,425.5C 79.5045,427.473 79.3379,429.473 79.5,431.5C 77.1667,431.5 74.8333,431.5 72.5,431.5C 71.697,426.524 68.8636,423.191 64,421.5C 63.5045,419.527 63.3379,417.527 63.5,415.5C 62.1667,415.5 60.8333,415.5 59.5,415.5C 59.5,404.833 59.5,394.167 59.5,383.5C 60.8333,383.5 62.1667,383.5 63.5,383.5C 63.5,382.167 63.5,380.833 63.5,379.5C 56.0941,379.848 48.7608,379.348 41.5,378C 39.7542,374.086 36.7542,371.92 32.5,371.5C 29.4721,361.319 24.4721,360.152 17.5,368C 18.7883,370.466 18.7883,372.966 17.5,375.5C 18.7113,376.874 19.7113,378.374 20.5,380C 20.1802,381.653 19.1802,382.653 17.5,383C 18.1667,383.333 18.8333,383.667 19.5,384C 14.5246,385.552 14.358,387.052 19,388.5C 20.2259,388.355 21.3926,388.022 22.5,387.5C 23.8333,388.5 23.8333,389.5 22.5,390.5C 20.9825,389.089 19.6492,389.256 18.5,391C 19.448,391.483 20.448,391.649 21.5,391.5C 22.0768,394.55 20.9101,396.55 18,397.5C 17.4242,399.377 17.5909,401.211 18.5,403C 17.3867,404.394 16.0534,405.561 14.5,406.5C 21.8108,407.331 29.1441,407.831 36.5,408C 37.6667,408.5 38.5,409.333 39,410.5C 39.2157,418.036 39.7157,425.536 40.5,433C 40.3552,433.772 40.0219,434.439 39.5,435C 41.4136,436.413 42.7469,438.247 43.5,440.5C 39.9232,442.553 39.9232,443.886 43.5,444.5C 41.3489,446.772 39.8489,449.439 39,452.5C 37.6439,453.38 36.1439,453.714 34.5,453.5C 34.5391,455.359 33.7058,456.692 32,457.5C 31.5045,459.473 31.3379,461.473 31.5,463.5C 29.076,463.192 26.7427,463.526 24.5,464.5C 21.3632,468.288 17.3632,470.621 12.5,471.5C 12.7852,469.712 12.4519,468.045 11.5,466.5C 11.3619,470.573 10.8619,474.573 10,478.5C 8.41782,476.376 8.25116,474.21 9.5,472C 8.47823,469.455 7.31156,466.955 6,464.5C 5.71039,466.044 5.04373,467.377 4,468.5C 3.65268,458.772 2.81934,449.105 1.5,439.5C 2.5,439.5 3.5,439.5 4.5,439.5C 4.33591,442.187 4.50258,444.854 5,447.5C 5.4196,443.809 5.9196,440.142 6.5,436.5C 7.67504,436.719 8.67504,436.386 9.5,435.5C 8.51093,434.532 7.84426,433.365 7.5,432C 8.43839,428.464 10.4384,425.797 13.5,424C 10.9618,422.76 8.96176,420.927 7.5,418.5C 7.38276,413.949 7.71609,409.283 8.5,404.5C 9.19238,405.025 9.69238,405.692 10,406.5C 10.3423,404.182 9.84228,402.015 8.5,400C 10.9458,398.517 10.6124,397.351 7.5,396.5C 6.80762,397.025 6.30762,397.692 6,398.5C 5.66667,396.167 5.33333,393.833 5,391.5C 4.50258,394.146 4.33591,396.813 4.5,399.5C 3.5,399.5 2.5,399.5 1.5,399.5C 0.467936,390.459 0.467936,381.292 1.5,372C 1.02732,365.329 0.360654,358.829 -0.5,352.5C -0.5,234.833 -0.5,117.167 -0.5,-0.5 Z"/></g>
<g><path style="opacity:1" fill="#638698" d="M 327.5,111.5 C 321.861,110.34 316.195,109.34 310.5,108.5C 302.833,108.5 295.167,108.5 287.5,108.5C 284.941,108.802 282.607,108.468 280.5,107.5C 289.506,107.666 298.506,107.5 307.5,107C 302.851,106.336 298.184,105.836 293.5,105.5C 278.204,105.545 262.871,105.712 247.5,106C 253.681,106.172 259.681,106.672 265.5,107.5C 251.496,107.333 237.496,107.5 223.5,108C 222.263,108.232 221.263,108.732 220.5,109.5C 217.659,109.56 214.993,110.226 212.5,111.5C 201.114,113.096 190.114,116.096 179.5,120.5C 178.766,119.292 178.433,117.959 178.5,116.5C 180.792,116.244 182.959,116.577 185,117.5C 186.507,114.994 188.673,113.328 191.5,112.5C 189.216,111.418 188.05,109.752 188,107.5C 190.596,105.98 193.429,105.147 196.5,105C 198.182,101.908 197.349,99.7411 194,98.5C 190.739,101.683 187.072,102.016 183,99.5C 181.812,100.563 181.312,101.897 181.5,103.5C 176.557,102.88 172.057,103.88 168,106.5C 167.56,104.924 166.727,103.59 165.5,102.5C 167.327,100.513 168.327,98.1795 168.5,95.5C 176.167,95.5 183.833,95.5 191.5,95.5C 191.5,92.8333 191.5,90.1667 191.5,87.5C 198.508,87.6663 205.508,87.4996 212.5,87C 215.039,85.195 216.039,82.695 215.5,79.5C 228.833,79.5 242.167,79.5 255.5,79.5C 255.5,77.5 255.5,75.5 255.5,73.5C 271.465,72.169 287.465,71.5023 303.5,71.5C 303.5,72.8333 303.5,74.1667 303.5,75.5C 308.833,75.5 314.167,75.5 319.5,75.5C 319.5,76.8333 319.5,78.1667 319.5,79.5C 322.394,79.0423 324.894,79.709 327,81.5C 331.858,79.5859 337.025,78.9193 342.5,79.5C 343.338,84.6762 346.338,88.0095 351.5,89.5C 356.6,87.6206 361.933,86.9539 367.5,87.5C 367.5,84.8333 367.5,82.1667 367.5,79.5C 369.833,79.5 372.167,79.5 374.5,79.5C 374.491,81.3084 374.991,82.9751 376,84.5C 382.924,91.8532 385.591,90.1866 384,79.5C 385.86,82.2719 388.194,84.6053 391,86.5C 391.5,87.5 392,88.5 392.5,89.5C 391.515,91.0983 391.349,92.765 392,94.5C 392.561,93.9781 393.228,93.6448 394,93.5C 395.567,94.8561 397.4,95.5228 399.5,95.5C 399.5,100.833 399.5,106.167 399.5,111.5C 406,110.499 408.5,113.165 407,119.5C 404.865,117.722 402.365,117.055 399.5,117.5C 399.5,116.5 399.5,115.5 399.5,114.5C 396.421,114.196 393.587,113.196 391,111.5C 390.296,113.278 389.796,115.112 389.5,117C 391.651,120.743 394.317,124.076 397.5,127C 402.118,127.735 403.451,130.235 401.5,134.5C 402.689,135.429 404.022,135.762 405.5,135.5C 406.402,140.49 407.736,145.323 409.5,150C 407.609,152.899 407.109,156.066 408,159.5C 408.779,158.272 409.779,157.272 411,156.5C 415.759,158.211 415.592,159.211 410.5,159.5C 411.126,162.315 412.46,164.815 414.5,167C 413.5,167.333 412.5,167.667 411.5,168C 413.54,170.185 414.874,172.685 415.5,175.5C 420.648,175.701 420.648,176.367 415.5,177.5C 413.5,176.833 411.5,176.167 409.5,175.5C 408.5,175.833 407.5,176.167 406.5,176.5C 407.785,179.021 408.452,181.687 408.5,184.5C 407.448,184.649 406.448,184.483 405.5,184C 405.616,182.732 405.949,181.398 406.5,180C 405.24,178.887 404.073,178.72 403,179.5C 402.544,178.256 403.044,177.423 404.5,177C 403.101,176.405 401.768,176.572 400.5,177.5C 399.481,176.313 398.314,175.313 397,174.5C 395.381,170.859 393.714,167.193 392,163.5C 387.988,157.821 384.154,151.988 380.5,146C 381.448,145.517 382.448,145.351 383.5,145.5C 383.66,143.801 383.494,142.134 383,140.5C 382.667,140.833 382.333,141.167 382,141.5C 380.005,139.253 377.505,138.253 374.5,138.5C 373.956,136.42 373.122,134.42 372,132.5C 368.353,131.487 364.853,129.487 361.5,126.5C 359.552,121.523 355.885,119.023 350.5,119C 350.833,118.667 351.167,118.333 351.5,118C 349.026,117.887 347.026,116.887 345.5,115C 339.408,114.11 333.408,112.943 327.5,111.5 Z"/></g>
<g><path style="opacity:1" fill="#4c6e7b" d="M 280.5,107.5 C 275.5,107.5 270.5,107.5 265.5,107.5C 259.681,106.672 253.681,106.172 247.5,106C 262.871,105.712 278.204,105.545 293.5,105.5C 298.184,105.836 302.851,106.336 307.5,107C 298.506,107.5 289.506,107.666 280.5,107.5 Z"/></g>
<g><path style="opacity:1" fill="#cbd9e3" d="M 265.5,107.5 C 270.5,107.5 275.5,107.5 280.5,107.5C 282.607,108.468 284.941,108.802 287.5,108.5C 265.326,108.269 242.993,108.602 220.5,109.5C 221.263,108.732 222.263,108.232 223.5,108C 237.496,107.5 251.496,107.333 265.5,107.5 Z"/></g>
<g><path style="opacity:1" fill="#eef1f5" d="M 287.5,108.5 C 295.167,108.5 302.833,108.5 310.5,108.5C 311.681,110.067 313.347,110.901 315.5,111C 314.437,112.188 313.103,112.688 311.5,112.5C 307.181,111.751 302.848,111.585 298.5,112C 309.835,112.879 319.501,117.212 327.5,125C 327.167,125.333 326.833,125.667 326.5,126C 330.731,129.267 333.898,133.433 336,138.5C 337.205,139.071 338.372,139.738 339.5,140.5C 350.386,156.944 360.219,173.944 369,191.5C 371.817,196.441 375.15,201.108 379,205.5C 379.297,208.914 379.964,212.247 381,215.5C 381.708,216.381 382.542,217.047 383.5,217.5C 383.5,217.833 383.5,218.167 383.5,218.5C 384.825,221.15 386.158,223.816 387.5,226.5C 387.561,228.721 386.895,229.054 385.5,227.5C 383.72,226.01 383.054,224.01 383.5,221.5C 381.567,221.271 379.9,220.438 378.5,219C 375.37,215.453 373.537,211.286 373,206.5C 371.301,207.406 369.467,207.739 367.5,207.5C 367.055,204.635 367.722,202.135 369.5,200C 366.859,196.327 363.526,192.66 359.5,189C 359.833,188.667 360.167,188.333 360.5,188C 357.883,183.483 356.049,178.65 355,173.5C 352.108,175.673 348.941,176.006 345.5,174.5C 344.968,170.405 342.802,167.738 339,166.5C 338.127,166.735 337.293,167.069 336.5,167.5C 335.52,164.914 335.187,162.247 335.5,159.5C 333.833,159.5 332.167,159.5 330.5,159.5C 329.082,154.246 328.082,148.913 327.5,143.5C 326.5,143.5 325.5,143.5 324.5,143.5C 324.528,141.418 323.861,139.584 322.5,138C 318.116,136.543 313.949,134.71 310,132.5C 309.251,133.635 309.417,134.635 310.5,135.5C 313.5,137.167 315.833,139.5 317.5,142.5C 313.791,144.215 310.791,143.382 308.5,140C 307.552,139.517 306.552,139.351 305.5,139.5C 304.194,138.533 303.527,137.199 303.5,135.5C 301.833,135.5 300.167,135.5 298.5,135.5C 295.81,133.741 295.144,131.407 296.5,128.5C 298.078,129.64 299.744,130.14 301.5,130C 300.865,126.687 298.532,124.353 294.5,123C 291.563,121.346 288.563,121.179 285.5,122.5C 281.247,121.027 276.914,119.86 272.5,119C 271.874,118.25 271.374,117.416 271,116.5C 265.928,117.471 260.762,117.805 255.5,117.5C 255.719,118.675 255.386,119.675 254.5,120.5C 249.65,118.921 244.65,118.088 239.5,118C 241.833,117.667 244.167,117.333 246.5,117C 244.122,116.026 244.456,115.359 247.5,115C 245.833,114.833 244.167,114.667 242.5,114.5C 236.159,115.837 229.826,117.17 223.5,118.5C 223.714,120.144 223.38,121.644 222.5,123C 219.716,123.892 217.05,125.058 214.5,126.5C 209.635,125.858 204.801,125.192 200,124.5C 199.308,125.025 198.808,125.692 198.5,126.5C 194.878,127.325 191.211,127.825 187.5,128C 184.682,130.912 181.348,133.079 177.5,134.5C 176.232,136.304 175.565,138.304 175.5,140.5C 169.953,141.026 164.953,143.026 160.5,146.5C 159.217,149.372 159.217,152.205 160.5,155C 158.5,155.333 156.5,155.667 154.5,156C 155.5,156.333 156.5,156.667 157.5,157C 153.679,157.399 153.012,158.732 155.5,161C 154.346,164.82 151.846,167.32 148,168.5C 147.833,165.968 149,164.134 151.5,163C 149.671,162.727 148.171,161.893 147,160.5C 144.454,164.725 143.12,164.392 143,159.5C 142.727,161.329 141.893,162.829 140.5,164C 141.126,164.75 141.626,165.584 142,166.5C 142.333,166.167 142.667,165.833 143,165.5C 144.314,170.115 143.314,171.115 140,168.5C 139.242,170.769 139.409,172.936 140.5,175C 137.75,177.792 135.583,180.959 134,184.5C 133.399,186.137 132.899,187.803 132.5,189.5C 134.373,191.947 134.206,194.614 132,197.5C 130.475,197.888 128.808,197.888 127,197.5C 127.083,200.119 127.25,202.786 127.5,205.5C 129.718,205.614 131.718,206.28 133.5,207.5C 133.461,208.583 133.127,209.583 132.5,210.5C 129.255,211.123 126.755,212.79 125,215.5C 124.741,220.764 122.908,225.264 119.5,229C 120.71,230.039 121.71,231.206 122.5,232.5C 118.881,233.244 115.215,233.577 111.5,233.5C 111.167,233.5 110.833,233.5 110.5,233.5C 111.85,232.35 111.684,231.683 110,231.5C 105.816,232.829 104.649,235.495 106.5,239.5C 105.167,239.5 103.833,239.5 102.5,239.5C 103.275,234.827 104.441,230.161 106,225.5C 106.772,224.151 107.939,223.318 109.5,223C 109.138,218.825 110.472,214.992 113.5,211.5C 112.147,210.476 111.48,209.143 111.5,207.5C 113.855,202.129 116.188,196.795 118.5,191.5C 120.229,190.883 121.729,189.883 123,188.5C 125.964,183.533 127.964,178.2 129,172.5C 131.66,170.216 134.66,167.55 138,164.5C 138.006,161.909 137.173,159.576 135.5,157.5C 139.748,150.582 145.081,144.582 151.5,139.5C 155.31,137.748 158.643,135.248 161.5,132C 164.606,132.439 166.606,130.939 167.5,127.5C 169.527,127.662 171.527,127.495 173.5,127C 186.398,121.204 199.398,116.038 212.5,111.5C 214.993,110.226 217.659,109.56 220.5,109.5C 242.993,108.602 265.326,108.269 287.5,108.5 Z"/></g>
<g><path style="opacity:1" fill="#9cb5c1" d="M 212.5,111.5 C 199.398,116.038 186.398,121.204 173.5,127C 171.527,127.495 169.527,127.662 167.5,127.5C 170.577,125.613 173.577,123.446 176.5,121C 177.448,120.517 178.448,120.351 179.5,120.5C 190.114,116.096 201.114,113.096 212.5,111.5 Z"/></g>
<g><path style="opacity:1" fill="#f1f1f1" d="M 298.5,135.5 C 295.188,134.516 291.855,133.516 288.5,132.5C 286.392,133.102 284.225,133.435 282,133.5C 268.317,132.251 254.65,130.585 241,128.5C 237.259,130.165 233.759,129.831 230.5,127.5C 229.876,129.958 228.376,131.624 226,132.5C 221.96,130.847 218.627,131.847 216,135.5C 215.51,134.207 215.343,132.873 215.5,131.5C 212.821,131.673 210.487,132.673 208.5,134.5C 207.526,132.257 207.192,129.924 207.5,127.5C 204.813,127.336 202.146,127.503 199.5,128C 193.73,131.108 188.23,134.608 183,138.5C 182.333,137.833 181.667,137.167 181,136.5C 178.923,138.076 177.423,140.076 176.5,142.5C 179.856,142.449 182.856,140.949 185.5,138C 191.978,135.632 198.645,134.965 205.5,136C 204.256,138.303 202.589,138.803 200.5,137.5C 198.734,141.051 196.068,142.384 192.5,141.5C 191.158,143.005 189.492,143.672 187.5,143.5C 187.67,144.822 187.337,145.989 186.5,147C 183.749,147.516 181.416,148.683 179.5,150.5C 183.445,151.491 187.445,151.824 191.5,151.5C 191.5,154.167 191.5,156.833 191.5,159.5C 189.167,159.5 186.833,159.5 184.5,159.5C 183.697,164.476 180.864,167.809 176,169.5C 175.505,171.473 175.338,173.473 175.5,175.5C 172.833,175.5 170.167,175.5 167.5,175.5C 167.5,180.833 167.5,186.167 167.5,191.5C 164.927,192.219 162.427,193.219 160,194.5C 159.505,196.473 159.338,198.473 159.5,200.5C 164.709,201.429 169.876,202.429 175,203.5C 180.908,201.196 187.074,200.863 193.5,202.5C 198.005,200.553 202.672,199.22 207.5,198.5C 207.5,199.5 207.5,200.5 207.5,201.5C 212.835,201.366 217.835,201.699 222.5,202.5C 223.386,201.675 223.719,200.675 223.5,199.5C 224.552,199.649 225.552,199.483 226.5,199C 224.715,197.837 222.715,197.17 220.5,197C 219.003,193.828 220.003,191.995 223.5,191.5C 223.5,193.167 223.5,194.833 223.5,196.5C 227.165,195.348 230.831,195.181 234.5,196C 235.224,193.33 236.891,191.83 239.5,191.5C 239.215,193.288 239.548,194.955 240.5,196.5C 243.478,196.007 245.811,194.507 247.5,192C 256.186,191.168 264.853,191.335 273.5,192.5C 274,193.881 275,194.547 276.5,194.5C 279.702,193.953 282.702,192.953 285.5,191.5C 290.579,192.828 295.579,194.161 300.5,195.5C 303.339,192.941 306.673,191.441 310.5,191C 308.091,188.973 305.258,187.806 302,187.5C 298.527,189.052 295.027,190.385 291.5,191.5C 291.18,188.102 291.513,184.768 292.5,181.5C 297.239,177.185 302.573,173.685 308.5,171C 311.49,165.926 311.157,161.093 307.5,156.5C 304.711,154.157 302.044,151.657 299.5,149C 298.207,148.51 296.873,148.343 295.5,148.5C 295.174,146.339 294.174,144.506 292.5,143C 293.416,142.626 294.25,142.126 295,141.5C 297.213,142.76 299.713,143.426 302.5,143.5C 309.762,144.421 310.762,143.088 305.5,139.5C 306.552,139.351 307.552,139.517 308.5,140C 310.791,143.382 313.791,144.215 317.5,142.5C 315.833,139.5 313.5,137.167 310.5,135.5C 309.417,134.635 309.251,133.635 310,132.5C 313.949,134.71 318.116,136.543 322.5,138C 323.861,139.584 324.528,141.418 324.5,143.5C 325.5,143.5 326.5,143.5 327.5,143.5C 328.082,148.913 329.082,154.246 330.5,159.5C 332.167,159.5 333.833,159.5 335.5,159.5C 335.187,162.247 335.52,164.914 336.5,167.5C 337.293,167.069 338.127,166.735 339,166.5C 342.802,167.738 344.968,170.405 345.5,174.5C 348.941,176.006 352.108,175.673 355,173.5C 356.049,178.65 357.883,183.483 360.5,188C 360.167,188.333 359.833,188.667 359.5,189C 363.526,192.66 366.859,196.327 369.5,200C 367.722,202.135 367.055,204.635 367.5,207.5C 369.467,207.739 371.301,207.406 373,206.5C 373.537,211.286 375.37,215.453 378.5,219C 379.9,220.438 381.567,221.271 383.5,221.5C 383.054,224.01 383.72,226.01 385.5,227.5C 384.687,228.653 383.687,228.653 382.5,227.5C 379.833,223.833 377.167,220.167 374.5,216.5C 369.996,215.499 365.663,213.999 361.5,212C 359.963,210.89 359.297,209.39 359.5,207.5C 358.022,207.238 356.689,207.571 355.5,208.5C 351.307,213.22 346.974,213.053 342.5,208C 334.841,207.5 327.174,207.334 319.5,207.5C 319.719,208.675 319.386,209.675 318.5,210.5C 308.219,209.721 297.886,209.721 287.5,210.5C 287.5,209.5 287.5,208.5 287.5,207.5C 278.913,207.718 270.58,206.718 262.5,204.5C 251.475,205.37 240.475,205.703 229.5,205.5C 225.193,205.005 221.026,204.005 217,202.5C 213.013,203.753 209.013,203.753 205,202.5C 201.246,203.64 197.746,205.14 194.5,207C 197.847,211.34 202.18,214.174 207.5,215.5C 204.702,216.408 202.202,215.741 200,213.5C 199.29,214.973 198.124,215.64 196.5,215.5C 196.688,213.897 196.188,212.563 195,211.5C 188.459,213.271 182.126,215.604 176,218.5C 175.517,217.552 175.351,216.552 175.5,215.5C 165.5,215.5 155.5,215.5 145.5,215.5C 145.649,214.448 145.483,213.448 145,212.5C 143.041,211.252 141.541,209.585 140.5,207.5C 138.697,212.693 137.364,212.693 136.5,207.5C 135.5,207.5 134.5,207.5 133.5,207.5C 131.718,206.28 129.718,205.614 127.5,205.5C 127.25,202.786 127.083,200.119 127,197.5C 128.808,197.888 130.475,197.888 132,197.5C 134.206,194.614 134.373,191.947 132.5,189.5C 132.899,187.803 133.399,186.137 134,184.5C 135.583,180.959 137.75,177.792 140.5,175C 139.409,172.936 139.242,170.769 140,168.5C 143.314,171.115 144.314,170.115 143,165.5C 142.667,165.833 142.333,166.167 142,166.5C 141.626,165.584 141.126,164.75 140.5,164C 141.893,162.829 142.727,161.329 143,159.5C 143.12,164.392 144.454,164.725 147,160.5C 148.171,161.893 149.671,162.727 151.5,163C 149,164.134 147.833,165.968 148,168.5C 151.846,167.32 154.346,164.82 155.5,161C 153.012,158.732 153.679,157.399 157.5,157C 156.5,156.667 155.5,156.333 154.5,156C 156.5,155.667 158.5,155.333 160.5,155C 159.217,152.205 159.217,149.372 160.5,146.5C 164.953,143.026 169.953,141.026 175.5,140.5C 175.565,138.304 176.232,136.304 177.5,134.5C 181.348,133.079 184.682,130.912 187.5,128C 191.211,127.825 194.878,127.325 198.5,126.5C 198.808,125.692 199.308,125.025 200,124.5C 204.801,125.192 209.635,125.858 214.5,126.5C 217.05,125.058 219.716,123.892 222.5,123C 223.38,121.644 223.714,120.144 223.5,118.5C 229.826,117.17 236.159,115.837 242.5,114.5C 244.167,114.667 245.833,114.833 247.5,115C 244.456,115.359 244.122,116.026 246.5,117C 244.167,117.333 241.833,117.667 239.5,118C 244.65,118.088 249.65,118.921 254.5,120.5C 255.386,119.675 255.719,118.675 255.5,117.5C 260.762,117.805 265.928,117.471 271,116.5C 271.374,117.416 271.874,118.25 272.5,119C 276.914,119.86 281.247,121.027 285.5,122.5C 288.563,121.179 291.563,121.346 294.5,123C 298.532,124.353 300.865,126.687 301.5,130C 299.744,130.14 298.078,129.64 296.5,128.5C 295.144,131.407 295.81,133.741 298.5,135.5 Z"/></g>
<g><path style="opacity:1" fill="#c2ced9" d="M 167.5,127.5 C 166.606,130.939 164.606,132.439 161.5,132C 158.643,135.248 155.31,137.748 151.5,139.5C 155.979,134.353 161.313,130.353 167.5,127.5 Z"/></g>
<g><path style="opacity:1" fill="#f2f4f5" d="M 298.5,135.5 C 300.167,135.5 301.833,135.5 303.5,135.5C 303.527,137.199 304.194,138.533 305.5,139.5C 310.762,143.088 309.762,144.421 302.5,143.5C 299.713,143.426 297.213,142.76 295,141.5C 294.25,142.126 293.416,142.626 292.5,143C 294.174,144.506 295.174,146.339 295.5,148.5C 296.873,148.343 298.207,148.51 299.5,149C 302.044,151.657 304.711,154.157 307.5,156.5C 311.157,161.093 311.49,165.926 308.5,171C 302.573,173.685 297.239,177.185 292.5,181.5C 291.513,184.768 291.18,188.102 291.5,191.5C 295.027,190.385 298.527,189.052 302,187.5C 305.258,187.806 308.091,188.973 310.5,191C 306.673,191.441 303.339,192.941 300.5,195.5C 295.579,194.161 290.579,192.828 285.5,191.5C 282.702,192.953 279.702,193.953 276.5,194.5C 275,194.547 274,193.881 273.5,192.5C 264.853,191.335 256.186,191.168 247.5,192C 245.811,194.507 243.478,196.007 240.5,196.5C 239.548,194.955 239.215,193.288 239.5,191.5C 236.891,191.83 235.224,193.33 234.5,196C 230.831,195.181 227.165,195.348 223.5,196.5C 223.5,194.833 223.5,193.167 223.5,191.5C 220.003,191.995 219.003,193.828 220.5,197C 222.715,197.17 224.715,197.837 226.5,199C 225.552,199.483 224.552,199.649 223.5,199.5C 223.719,200.675 223.386,201.675 222.5,202.5C 217.835,201.699 212.835,201.366 207.5,201.5C 207.5,200.5 207.5,199.5 207.5,198.5C 202.672,199.22 198.005,200.553 193.5,202.5C 187.074,200.863 180.908,201.196 175,203.5C 169.876,202.429 164.709,201.429 159.5,200.5C 159.338,198.473 159.505,196.473 160,194.5C 162.427,193.219 164.927,192.219 167.5,191.5C 167.5,186.167 167.5,180.833 167.5,175.5C 170.167,175.5 172.833,175.5 175.5,175.5C 175.338,173.473 175.505,171.473 176,169.5C 180.864,167.809 183.697,164.476 184.5,159.5C 186.833,159.5 189.167,159.5 191.5,159.5C 191.5,156.833 191.5,154.167 191.5,151.5C 187.445,151.824 183.445,151.491 179.5,150.5C 181.416,148.683 183.749,147.516 186.5,147C 187.337,145.989 187.67,144.822 187.5,143.5C 189.492,143.672 191.158,143.005 192.5,141.5C 196.068,142.384 198.734,141.051 200.5,137.5C 202.589,138.803 204.256,138.303 205.5,136C 198.645,134.965 191.978,135.632 185.5,138C 182.856,140.949 179.856,142.449 176.5,142.5C 177.423,140.076 178.923,138.076 181,136.5C 181.667,137.167 182.333,137.833 183,138.5C 188.23,134.608 193.73,131.108 199.5,128C 202.146,127.503 204.813,127.336 207.5,127.5C 207.192,129.924 207.526,132.257 208.5,134.5C 210.487,132.673 212.821,131.673 215.5,131.5C 215.343,132.873 215.51,134.207 216,135.5C 218.627,131.847 221.96,130.847 226,132.5C 228.376,131.624 229.876,129.958 230.5,127.5C 233.759,129.831 237.259,130.165 241,128.5C 254.65,130.585 268.317,132.251 282,133.5C 284.225,133.435 286.392,133.102 288.5,132.5C 291.855,133.516 295.188,134.516 298.5,135.5 Z"/></g>
<g><path style="opacity:1" fill="#eaeff3" d="M 310.5,108.5 C 316.195,109.34 321.861,110.34 327.5,111.5C 337.099,115.914 346.099,121.414 354.5,128C 384.231,151.061 403.397,180.894 412,217.5C 417.583,227.757 420.417,238.757 420.5,250.5C 420.666,255.179 420.499,259.845 420,264.5C 418.636,268.672 417.636,273.005 417,277.5C 416,278.167 415,278.833 414,279.5C 412.16,284.221 410.327,288.888 408.5,293.5C 406.776,296.454 405.443,299.621 404.5,303C 405.574,311.151 405.574,319.317 404.5,327.5C 405.831,339.81 406.831,352.143 407.5,364.5C 406.041,368.752 404.041,372.752 401.5,376.5C 400.903,376.265 400.57,375.765 400.5,375C 403.935,369.15 405.268,362.817 404.5,356C 404.122,346.812 403.456,337.646 402.5,328.5C 403.884,320.126 403.717,311.793 402,303.5C 400.176,302.251 400.343,301.085 402.5,300C 400.709,297.901 398.709,297.401 396.5,298.5C 403.185,279.807 404.185,260.807 399.5,241.5C 399.5,240.833 399.5,240.167 399.5,239.5C 400.625,238.652 400.625,237.652 399.5,236.5C 399.795,234.265 399.461,232.265 398.5,230.5C 392.767,216.684 387.267,202.684 382,188.5C 380.961,187.29 379.794,186.29 378.5,185.5C 372.885,175.893 367.719,165.893 363,155.5C 361.414,154.624 359.914,153.624 358.5,152.5C 353.307,141.589 346.307,132.089 337.5,124C 335.146,123.153 332.812,122.32 330.5,121.5C 324.319,118.243 317.985,115.243 311.5,112.5C 313.103,112.688 314.437,112.188 315.5,111C 313.347,110.901 311.681,110.067 310.5,108.5 Z"/></g>
<g><path style="opacity:1" fill="#91b2bb" d="M 330.5,121.5 C 332.812,122.32 335.146,123.153 337.5,124C 346.307,132.089 353.307,141.589 358.5,152.5C 359.914,153.624 361.414,154.624 363,155.5C 367.719,165.893 372.885,175.893 378.5,185.5C 379.898,188.851 381.398,192.184 383,195.5C 383.781,196.944 383.614,198.277 382.5,199.5C 380.561,197.363 378.894,195.03 377.5,192.5C 375.019,191.28 373.019,189.614 371.5,187.5C 370.563,184.731 369.396,182.064 368,179.5C 364.478,173.78 360.478,168.447 356,163.5C 348.842,148.005 339.342,134.171 327.5,122C 328.448,121.517 329.448,121.351 330.5,121.5 Z"/></g>
<g><path style="opacity:1" fill="#d4dfe7" d="M 135.5,157.5 C 137.173,159.576 138.006,161.909 138,164.5C 134.66,167.55 131.66,170.216 129,172.5C 127.964,178.2 125.964,183.533 123,188.5C 121.729,189.883 120.229,190.883 118.5,191.5C 119.963,188.342 121.129,185.009 122,181.5C 126.428,177.425 128.928,172.425 129.5,166.5C 131.265,163.291 133.265,160.291 135.5,157.5 Z"/></g>
<g><path style="opacity:1" fill="#bed3d9" d="M 311.5,112.5 C 317.985,115.243 324.319,118.243 330.5,121.5C 329.448,121.351 328.448,121.517 327.5,122C 339.342,134.171 348.842,148.005 356,163.5C 360.478,168.447 364.478,173.78 368,179.5C 369.396,182.064 370.563,184.731 371.5,187.5C 371.389,188.117 371.056,188.617 370.5,189C 372.563,191.511 374.063,194.344 375,197.5C 381.391,202.619 384.224,209.286 383.5,217.5C 382.542,217.047 381.708,216.381 381,215.5C 379.964,212.247 379.297,208.914 379,205.5C 375.15,201.108 371.817,196.441 369,191.5C 360.219,173.944 350.386,156.944 339.5,140.5C 338.372,139.738 337.205,139.071 336,138.5C 333.898,133.433 330.731,129.267 326.5,126C 326.833,125.667 327.167,125.333 327.5,125C 319.501,117.212 309.835,112.879 298.5,112C 302.848,111.585 307.181,111.751 311.5,112.5 Z"/></g>
<g><path style="opacity:1" fill="#7992a0" d="M 129.5,166.5 C 128.928,172.425 126.428,177.425 122,181.5C 121.129,185.009 119.963,188.342 118.5,191.5C 116.188,196.795 113.855,202.129 111.5,207.5C 107.896,214.147 104.729,221.147 102,228.5C 98.6965,234.457 95.0299,240.123 91,245.5C 89.4267,251.844 87.26,257.844 84.5,263.5C 84.7979,254.333 87.4645,246 92.5,238.5C 92.6938,236.737 92.6938,234.903 92.5,233C 98.1607,221.471 104.327,210.638 111,200.5C 112.509,197.671 112.675,194.838 111.5,192C 112.849,191.228 113.682,190.061 114,188.5C 114.667,189.833 115.333,189.833 116,188.5C 116.653,185.193 118.319,182.527 121,180.5C 121.684,179.216 121.517,178.049 120.5,177C 122.517,176.326 124.183,175.159 125.5,173.5C 126.475,170.848 127.808,168.514 129.5,166.5 Z"/></g>
<g><path style="opacity:1" fill="#f1eeea" d="M 385.5,227.5 C 386.895,229.054 387.561,228.721 387.5,226.5C 386.158,223.816 384.825,221.15 383.5,218.5C 385.229,219.117 386.729,220.117 388,221.5C 389.706,225.079 391.539,228.579 393.5,232C 394.333,232.167 395.167,232.333 396,232.5C 397.376,232.316 398.209,231.649 398.5,230.5C 399.461,232.265 399.795,234.265 399.5,236.5C 397.833,236.5 396.167,236.5 394.5,236.5C 385.682,235.507 376.682,235.173 367.5,235.5C 367.577,234.25 368.244,233.417 369.5,233C 369.167,232.667 368.833,232.333 368.5,232C 363.613,232.016 358.613,231.682 353.5,231C 351.155,229.217 348.488,228.217 345.5,228C 339.516,227.302 333.516,226.802 327.5,226.5C 324.3,226.601 321.3,227.268 318.5,228.5C 316.556,227.811 314.556,227.311 312.5,227C 317.416,225.839 322.416,225.173 327.5,225C 319.173,224.338 311.173,222.505 303.5,219.5C 302.862,217.54 302.862,215.707 303.5,214C 301.5,213.833 299.5,213.667 297.5,213.5C 287.894,214.822 278.561,216.989 269.5,220C 269.167,221 268.833,222 268.5,223C 262.509,223.499 256.509,223.666 250.5,223.5C 249.608,217.285 245.941,214.285 239.5,214.5C 239.719,213.325 239.386,212.325 238.5,211.5C 231.743,208.558 224.743,206.391 217.5,205C 214.183,204.502 210.85,204.335 207.5,204.5C 207.286,206.144 207.62,207.644 208.5,209C 217.526,211.352 225.859,215.019 233.5,220C 232.095,221.269 230.429,221.769 228.5,221.5C 228.254,224.47 226.588,225.803 223.5,225.5C 223.662,227.527 223.495,229.527 223,231.5C 220.266,230.638 220.099,229.805 222.5,229C 217.486,229.056 212.486,229.556 207.5,230.5C 207.5,229.5 207.5,228.5 207.5,227.5C 204.202,227.016 201.536,228.016 199.5,230.5C 200.665,231.584 201.998,232.417 203.5,233C 202.207,233.49 200.873,233.657 199.5,233.5C 186.167,233.5 172.833,233.5 159.5,233.5C 147.345,232.505 135.011,232.171 122.5,232.5C 121.71,231.206 120.71,230.039 119.5,229C 122.908,225.264 124.741,220.764 125,215.5C 126.755,212.79 129.255,211.123 132.5,210.5C 133.127,209.583 133.461,208.583 133.5,207.5C 134.5,207.5 135.5,207.5 136.5,207.5C 137.364,212.693 138.697,212.693 140.5,207.5C 141.541,209.585 143.041,211.252 145,212.5C 145.483,213.448 145.649,214.448 145.5,215.5C 155.5,215.5 165.5,215.5 175.5,215.5C 175.351,216.552 175.517,217.552 176,218.5C 182.126,215.604 188.459,213.271 195,211.5C 196.188,212.563 196.688,213.897 196.5,215.5C 198.124,215.64 199.29,214.973 200,213.5C 202.202,215.741 204.702,216.408 207.5,215.5C 202.18,214.174 197.847,211.34 194.5,207C 197.746,205.14 201.246,203.64 205,202.5C 209.013,203.753 213.013,203.753 217,202.5C 221.026,204.005 225.193,205.005 229.5,205.5C 240.475,205.703 251.475,205.37 262.5,204.5C 270.58,206.718 278.913,207.718 287.5,207.5C 287.5,208.5 287.5,209.5 287.5,210.5C 297.886,209.721 308.219,209.721 318.5,210.5C 319.386,209.675 319.719,208.675 319.5,207.5C 327.174,207.334 334.841,207.5 342.5,208C 346.974,213.053 351.307,213.22 355.5,208.5C 356.689,207.571 358.022,207.238 359.5,207.5C 359.297,209.39 359.963,210.89 361.5,212C 365.663,213.999 369.996,215.499 374.5,216.5C 377.167,220.167 379.833,223.833 382.5,227.5C 383.687,228.653 384.687,228.653 385.5,227.5 Z"/></g>
<g><path style="opacity:1" fill="#a6c2c6" d="M 378.5,185.5 C 379.794,186.29 380.961,187.29 382,188.5C 387.267,202.684 392.767,216.684 398.5,230.5C 398.209,231.649 397.376,232.316 396,232.5C 395.167,232.333 394.333,232.167 393.5,232C 391.539,228.579 389.706,225.079 388,221.5C 386.729,220.117 385.229,219.117 383.5,218.5C 383.5,218.167 383.5,217.833 383.5,217.5C 384.224,209.286 381.391,202.619 375,197.5C 374.063,194.344 372.563,191.511 370.5,189C 371.056,188.617 371.389,188.117 371.5,187.5C 373.019,189.614 375.019,191.28 377.5,192.5C 378.894,195.03 380.561,197.363 382.5,199.5C 383.614,198.277 383.781,196.944 383,195.5C 381.398,192.184 379.898,188.851 378.5,185.5 Z"/></g>
<g><path style="opacity:1" fill="#f1e9e2" d="M 367.5,235.5 C 348.837,234.733 330.17,234.567 311.5,235C 310.263,235.232 309.263,235.732 308.5,236.5C 291.852,237.391 275.185,237.724 258.5,237.5C 238.746,237.972 219.079,236.972 199.5,234.5C 199.5,234.167 199.5,233.833 199.5,233.5C 200.873,233.657 202.207,233.49 203.5,233C 201.998,232.417 200.665,231.584 199.5,230.5C 201.536,228.016 204.202,227.016 207.5,227.5C 207.5,228.5 207.5,229.5 207.5,230.5C 212.486,229.556 217.486,229.056 222.5,229C 220.099,229.805 220.266,230.638 223,231.5C 223.495,229.527 223.662,227.527 223.5,225.5C 226.588,225.803 228.254,224.47 228.5,221.5C 230.429,221.769 232.095,221.269 233.5,220C 225.859,215.019 217.526,211.352 208.5,209C 207.62,207.644 207.286,206.144 207.5,204.5C 210.85,204.335 214.183,204.502 217.5,205C 224.743,206.391 231.743,208.558 238.5,211.5C 239.386,212.325 239.719,213.325 239.5,214.5C 245.941,214.285 249.608,217.285 250.5,223.5C 256.509,223.666 262.509,223.499 268.5,223C 268.833,222 269.167,221 269.5,220C 278.561,216.989 287.894,214.822 297.5,213.5C 299.5,213.667 301.5,213.833 303.5,214C 302.862,215.707 302.862,217.54 303.5,219.5C 311.173,222.505 319.173,224.338 327.5,225C 322.416,225.173 317.416,225.839 312.5,227C 314.556,227.311 316.556,227.811 318.5,228.5C 321.3,227.268 324.3,226.601 327.5,226.5C 333.516,226.802 339.516,227.302 345.5,228C 348.488,228.217 351.155,229.217 353.5,231C 358.613,231.682 363.613,232.016 368.5,232C 368.833,232.333 369.167,232.667 369.5,233C 368.244,233.417 367.577,234.25 367.5,235.5 Z"/></g>
<g><path style="opacity:1" fill="#8ea2a2" d="M 122.5,232.5 C 135.011,232.171 147.345,232.505 159.5,233.5C 149.161,233.334 138.828,233.5 128.5,234C 126.715,235.163 124.715,235.83 122.5,236C 126.356,236.177 130.023,236.677 133.5,237.5C 129.566,237.021 125.899,237.688 122.5,239.5C 120.833,238.833 119.167,238.167 117.5,237.5C 116.893,237.624 116.56,237.957 116.5,238.5C 115.844,239.278 115.011,239.944 114,240.5C 112.739,239.342 111.573,239.342 110.5,240.5C 110.298,238.05 110.631,235.717 111.5,233.5C 115.215,233.577 118.881,233.244 122.5,232.5 Z"/></g>
<g><path style="opacity:1" fill="#b8b4b3" d="M 367.5,235.5 C 376.682,235.173 385.682,235.507 394.5,236.5C 365.809,235.996 337.142,235.996 308.5,236.5C 309.263,235.732 310.263,235.232 311.5,235C 330.17,234.567 348.837,234.733 367.5,235.5 Z"/></g>
<g><path style="opacity:1" fill="#6b7375" d="M 159.5,233.5 C 172.833,233.5 186.167,233.5 199.5,233.5C 199.5,233.833 199.5,234.167 199.5,234.5C 191.493,234.334 183.493,234.5 175.5,235C 191.753,234.692 207.753,236.358 223.5,240C 219.975,240.179 216.641,240.679 213.5,241.5C 207.137,241.593 200.804,241.26 194.5,240.5C 181.167,240.5 167.833,240.5 154.5,240.5C 148.395,239.004 142.062,238.337 135.5,238.5C 135.158,237.662 134.492,237.328 133.5,237.5C 130.023,236.677 126.356,236.177 122.5,236C 124.715,235.83 126.715,235.163 128.5,234C 138.828,233.5 149.161,233.334 159.5,233.5 Z"/></g>
<g><path style="opacity:1" fill="#697070" d="M 394.5,236.5 C 396.167,236.5 397.833,236.5 399.5,236.5C 400.625,237.652 400.625,238.652 399.5,239.5C 391.981,239.175 384.648,239.508 377.5,240.5C 372.167,240.5 366.833,240.5 361.5,240.5C 347.5,240.5 333.5,240.5 319.5,240.5C 326.321,239.671 333.321,239.171 340.5,239C 318.166,238.707 295.832,238.874 273.5,239.5C 268.5,238.833 263.5,238.167 258.5,237.5C 275.185,237.724 291.852,237.391 308.5,236.5C 337.142,235.996 365.809,235.996 394.5,236.5 Z"/></g>
<g><path style="opacity:1" fill="#b9c6cc" d="M 133.5,237.5 C 134.492,237.328 135.158,237.662 135.5,238.5C 132.15,238.335 128.817,238.502 125.5,239C 126.305,240.113 126.972,241.279 127.5,242.5C 127.5,247.833 127.5,253.167 127.5,258.5C 126.596,257.791 126.263,256.791 126.5,255.5C 125.167,255.5 123.833,255.5 122.5,255.5C 122.453,252.432 121.953,249.432 121,246.5C 119.413,247.727 118.079,247.394 117,245.5C 116.503,243.19 116.337,240.857 116.5,238.5C 116.56,237.957 116.893,237.624 117.5,237.5C 119.167,238.167 120.833,238.833 122.5,239.5C 125.899,237.688 129.566,237.021 133.5,237.5 Z"/></g>
<g><path style="opacity:1" fill="#5a5654" d="M 199.5,234.5 C 219.079,236.972 238.746,237.972 258.5,237.5C 263.5,238.167 268.5,238.833 273.5,239.5C 262.833,239.5 252.167,239.5 241.5,239.5C 241.715,241.179 241.048,242.179 239.5,242.5C 237.5,242.5 235.5,242.5 233.5,242.5C 227.021,241.509 220.354,241.176 213.5,241.5C 216.641,240.679 219.975,240.179 223.5,240C 207.753,236.358 191.753,234.692 175.5,235C 183.493,234.5 191.493,234.334 199.5,234.5 Z"/></g>
<g><path style="opacity:1" fill="#656867" d="M 305.5,242.5 C 297.438,243.06 289.438,244.06 281.5,245.5C 280.5,245.5 279.5,245.5 278.5,245.5C 280.144,243.04 282.477,241.54 285.5,241C 291.5,240.333 297.5,240.333 303.5,241C 304.416,241.278 305.082,241.778 305.5,242.5 Z"/></g>
<g><path style="opacity:1" fill="#9ab0b8" d="M 116.5,238.5 C 116.337,240.857 116.503,243.19 117,245.5C 118.079,247.394 119.413,247.727 121,246.5C 121.953,249.432 122.453,252.432 122.5,255.5C 123.833,255.5 125.167,255.5 126.5,255.5C 126.263,256.791 126.596,257.791 127.5,258.5C 128.344,262.099 128.677,265.766 128.5,269.5C 129.155,263.163 126.488,258.83 120.5,256.5C 119.252,257.04 118.085,257.707 117,258.5C 115.627,264.366 114.127,270.2 112.5,276C 114.275,280.044 115.608,284.211 116.5,288.5C 113.76,284.553 111.593,280.22 110,275.5C 109.919,267.977 110.419,260.477 111.5,253C 111.342,248.808 111.009,244.641 110.5,240.5C 111.573,239.342 112.739,239.342 114,240.5C 115.011,239.944 115.844,239.278 116.5,238.5 Z"/></g>
<g><path style="opacity:1" fill="#808a8c" d="M 278.5,245.5 C 279.5,245.5 280.5,245.5 281.5,245.5C 281.5,246.167 281.167,246.5 280.5,246.5C 274.603,246.633 268.77,247.3 263,248.5C 259.898,248.748 256.732,248.414 253.5,247.5C 253.338,249.527 253.505,251.527 254,253.5C 254.5,253 255,252.5 255.5,252C 261.094,250.618 266.094,251.618 270.5,255C 269.906,255.464 269.239,255.631 268.5,255.5C 265.221,254.508 261.888,254.341 258.5,255C 256.251,256.352 254.584,258.185 253.5,260.5C 252.769,260.058 251.769,259.891 250.5,260C 250.07,259.08 249.736,258.247 249.5,257.5C 247.323,258.504 246.989,257.838 248.5,255.5C 247.975,254.808 247.308,254.308 246.5,254C 247.588,249.835 249.921,246.502 253.5,244C 261.38,243.523 269.38,243.023 277.5,242.5C 277.263,243.791 277.596,244.791 278.5,245.5 Z"/></g>
<g><path style="opacity:1" fill="#717a7b" d="M 319.5,240.5 C 318.508,240.328 317.842,240.662 317.5,241.5C 313.519,242.021 309.519,242.354 305.5,242.5C 305.082,241.778 304.416,241.278 303.5,241C 297.5,240.333 291.5,240.333 285.5,241C 282.477,241.54 280.144,243.04 278.5,245.5C 277.596,244.791 277.263,243.791 277.5,242.5C 269.38,243.023 261.38,243.523 253.5,244C 249.921,246.502 247.588,249.835 246.5,254C 247.308,254.308 247.975,254.808 248.5,255.5C 246.989,257.838 247.323,258.504 249.5,257.5C 249.736,258.247 250.07,259.08 250.5,260C 251.769,259.891 252.769,260.058 253.5,260.5C 253.737,261.791 253.404,262.791 252.5,263.5C 252.631,262.761 252.464,262.094 252,261.5C 248.299,264.667 245.299,268.334 243,272.5C 241.777,268.146 241.277,263.812 241.5,259.5C 241.924,254.88 242.924,250.38 244.5,246C 244.355,245.228 244.022,244.561 243.5,244C 241.942,243.79 240.609,243.29 239.5,242.5C 241.048,242.179 241.715,241.179 241.5,239.5C 252.167,239.5 262.833,239.5 273.5,239.5C 295.832,238.874 318.166,238.707 340.5,239C 333.321,239.171 326.321,239.671 319.5,240.5 Z"/></g>
<g><path style="opacity:1" fill="#f1ecea" d="M 346.5,241.5 C 347.765,242.479 349.099,243.479 350.5,244.5C 353.188,243.869 355.688,243.869 358,244.5C 359.18,243.316 360.68,242.649 362.5,242.5C 367.898,243.349 373.231,244.516 378.5,246C 377.235,247.337 376.735,248.837 377,250.5C 378.916,252.209 381.082,253.543 383.5,254.5C 381.955,255.452 380.288,255.785 378.5,255.5C 378.692,258.601 379.358,261.601 380.5,264.5C 378.217,267.634 377.884,270.968 379.5,274.5C 378.572,278.803 377.906,283.136 377.5,287.5C 374.923,287.455 372.923,288.455 371.5,290.5C 371.579,289.07 371.246,287.736 370.5,286.5C 367.893,285.682 365.226,285.182 362.5,285C 364.167,284.667 365.833,284.333 367.5,284C 355.5,283.333 355.5,282.667 367.5,282C 364.167,281.667 360.833,281.333 357.5,281C 359.619,280.902 361.286,280.069 362.5,278.5C 362.167,278.167 361.833,277.833 361.5,277.5C 360.833,278.167 360.167,278.833 359.5,279.5C 357.249,278.305 354.915,277.305 352.5,276.5C 351.548,274.955 351.215,273.288 351.5,271.5C 349.5,271.5 347.5,271.5 345.5,271.5C 345.688,267.909 344.855,264.576 343,261.5C 341.809,263.847 339.976,264.68 337.5,264C 339.715,262.609 339.715,260.943 337.5,259C 338.059,258.275 338.392,257.442 338.5,256.5C 337.973,252.669 337.306,249.002 336.5,245.5C 335.766,244.292 335.433,242.959 335.5,241.5C 339.167,241.5 342.833,241.5 346.5,241.5 Z"/></g>
<g><path style="opacity:1" fill="#cdcdcd" d="M 154.5,240.5 C 167.833,240.5 181.167,240.5 194.5,240.5C 194.611,241.117 194.944,241.617 195.5,242C 192.978,243.341 190.311,244.174 187.5,244.5C 185.893,249.046 187.727,251.379 193,251.5C 199.251,251.921 201.917,249.254 201,243.5C 202.011,242.663 203.178,242.33 204.5,242.5C 204.846,245.602 204.179,248.435 202.5,251C 194.687,256.798 186.853,256.964 179,251.5C 177.815,249.13 176.649,246.797 175.5,244.5C 175.818,243.353 176.484,242.519 177.5,242C 169.656,241.829 161.989,241.329 154.5,240.5 Z"/></g>
<g><path style="opacity:1" fill="#b4b6b7" d="M 194.5,240.5 C 200.804,241.26 207.137,241.593 213.5,241.5C 220.354,241.176 227.021,241.509 233.5,242.5C 227.833,242.5 222.167,242.5 216.5,242.5C 212.5,242.5 208.5,242.5 204.5,242.5C 203.178,242.33 202.011,242.663 201,243.5C 201.917,249.254 199.251,251.921 193,251.5C 187.727,251.379 185.893,249.046 187.5,244.5C 190.311,244.174 192.978,243.341 195.5,242C 194.944,241.617 194.611,241.117 194.5,240.5 Z"/></g>
<g><path style="opacity:1" fill="#c8c5c2" d="M 317.5,241.5 C 317.842,240.662 318.508,240.328 319.5,240.5C 333.5,240.5 347.5,240.5 361.5,240.5C 356.695,241.487 351.695,241.821 346.5,241.5C 342.833,241.5 339.167,241.5 335.5,241.5C 335.433,242.959 335.766,244.292 336.5,245.5C 337.863,251.59 335.863,256.09 330.5,259C 327.118,259.824 323.784,259.657 320.5,258.5C 317.973,256.395 315.64,254.061 313.5,251.5C 312.062,248.917 312.396,246.583 314.5,244.5C 319.879,243.844 325.213,243.011 330.5,242C 326.179,241.501 321.846,241.334 317.5,241.5 Z"/></g>
<g><path style="opacity:1" fill="#e6ecf0" d="M 111.5,207.5 C 111.48,209.143 112.147,210.476 113.5,211.5C 110.472,214.992 109.138,218.825 109.5,223C 107.939,223.318 106.772,224.151 106,225.5C 104.441,230.161 103.275,234.827 102.5,239.5C 103.833,239.5 105.167,239.5 106.5,239.5C 104.649,235.495 105.816,232.829 110,231.5C 111.684,231.683 111.85,232.35 110.5,233.5C 110.349,242.71 108.516,251.71 105,260.5C 104.428,269.731 105.594,278.731 108.5,287.5C 110.22,288.934 112.22,289.767 114.5,290C 115.091,295.09 117.758,298.59 122.5,300.5C 123.85,301.824 123.683,302.824 122,303.5C 118.589,302.546 115.756,300.712 113.5,298C 107.811,297.179 107.144,298.512 111.5,302C 109.754,302.471 108.087,303.138 106.5,304C 108.605,306.203 110.271,308.036 111.5,309.5C 110.714,312.975 109.214,313.308 107,310.5C 105.648,312.594 105.148,314.927 105.5,317.5C 102.489,316.132 99.3223,315.132 96,314.5C 91.8648,309.01 88.5314,303.01 86,296.5C 81.9135,285.688 81.4135,274.688 84.5,263.5C 87.26,257.844 89.4267,251.844 91,245.5C 95.0299,240.123 98.6965,234.457 102,228.5C 104.729,221.147 107.896,214.147 111.5,207.5 Z"/></g>
<g><path style="opacity:1" fill="#919a9b" d="M 280.5,246.5 C 282.539,258.122 285.706,269.456 290,280.5C 290.498,283.482 290.665,286.482 290.5,289.5C 289.527,288.209 288.527,288.209 287.5,289.5C 286.522,289.023 285.689,288.357 285,287.5C 281.603,279.308 278.603,270.975 276,262.5C 275.162,261.001 274.329,260.668 273.5,261.5C 271.863,259.525 270.196,257.525 268.5,255.5C 269.239,255.631 269.906,255.464 270.5,255C 266.094,251.618 261.094,250.618 255.5,252C 255,252.5 254.5,253 254,253.5C 253.505,251.527 253.338,249.527 253.5,247.5C 256.732,248.414 259.898,248.748 263,248.5C 268.77,247.3 274.603,246.633 280.5,246.5 Z"/></g>
<g><path style="opacity:1" fill="#b5c2c7" d="M 377.5,240.5 C 384.648,239.508 391.981,239.175 399.5,239.5C 399.5,240.167 399.5,240.833 399.5,241.5C 396.659,244.011 395.992,247.011 397.5,250.5C 397.265,262.339 395.765,274.006 393,285.5C 390.833,287.83 389.166,290.497 388,293.5C 388.751,277.816 389.918,262.149 391.5,246.5C 393.897,244.544 393.897,242.71 391.5,241C 386.845,240.501 382.179,240.334 377.5,240.5 Z"/></g>
<g><path style="opacity:1" fill="#e9e2de" d="M 135.5,238.5 C 142.062,238.337 148.395,239.004 154.5,240.5C 150.084,240.031 146.084,241.031 142.5,243.5C 141.571,242.311 141.238,240.978 141.5,239.5C 139.076,239.192 136.743,239.526 134.5,240.5C 135.276,242.356 136.609,243.689 138.5,244.5C 143.942,245.911 149.276,246.578 154.5,246.5C 154.654,248.97 155.654,250.97 157.5,252.5C 156.791,253.404 155.791,253.737 154.5,253.5C 154.372,255.655 154.872,257.655 156,259.5C 162.006,266.737 169.173,268.237 177.5,264C 180.143,261.11 179.477,259.277 175.5,258.5C 178.902,258.342 182.236,258.676 185.5,259.5C 186.815,261.135 186.815,262.801 185.5,264.5C 182.848,266.582 179.848,267.915 176.5,268.5C 175.614,269.325 175.281,270.325 175.5,271.5C 172.735,271.798 170.235,272.798 168,274.5C 165.295,273.517 163.128,274.35 161.5,277C 165.195,281.37 169.695,284.537 175,286.5C 176.391,284.285 178.057,284.285 180,286.5C 179.864,289.149 178.364,290.815 175.5,291.5C 179.521,291.838 183.521,292.838 187.5,294.5C 178.167,294.5 168.833,294.5 159.5,294.5C 154.604,292.554 149.271,291.887 143.5,292.5C 143.5,291.167 143.5,289.833 143.5,288.5C 142.127,288.657 140.793,288.49 139.5,288C 140.308,287.692 140.975,287.192 141.5,286.5C 140.194,282.635 140.194,278.802 141.5,275C 140.643,274.311 139.977,273.478 139.5,272.5C 140.344,269.869 140.677,267.369 140.5,265C 137.223,261.442 137.223,258.108 140.5,255C 137.083,250.565 132.749,246.398 127.5,242.5C 126.972,241.279 126.305,240.113 125.5,239C 128.817,238.502 132.15,238.335 135.5,238.5 Z"/></g>
<g><path style="opacity:1" fill="#b1c0c7" d="M 110.5,233.5 C 110.833,233.5 111.167,233.5 111.5,233.5C 110.631,235.717 110.298,238.05 110.5,240.5C 111.009,244.641 111.342,248.808 111.5,253C 110.419,260.477 109.919,267.977 110,275.5C 111.593,280.22 113.76,284.553 116.5,288.5C 118.167,293.5 121.5,296.833 126.5,298.5C 125.713,300.104 124.38,300.771 122.5,300.5C 117.758,298.59 115.091,295.09 114.5,290C 112.22,289.767 110.22,288.934 108.5,287.5C 105.594,278.731 104.428,269.731 105,260.5C 108.516,251.71 110.349,242.71 110.5,233.5 Z"/></g>
<g><path style="opacity:1" fill="#f3edea" d="M 154.5,240.5 C 161.989,241.329 169.656,241.829 177.5,242C 176.484,242.519 175.818,243.353 175.5,244.5C 176.649,246.797 177.815,249.13 179,251.5C 186.853,256.964 194.687,256.798 202.5,251C 204.179,248.435 204.846,245.602 204.5,242.5C 208.5,242.5 212.5,242.5 216.5,242.5C 219.421,243.194 222.421,244.027 225.5,245C 224.1,246.438 222.433,247.271 220.5,247.5C 220.762,248.978 220.429,250.311 219.5,251.5C 218.109,250.355 216.776,250.355 215.5,251.5C 212.953,253.549 210.953,256.049 209.5,259C 201.453,258.31 193.453,258.477 185.5,259.5C 182.236,258.676 178.902,258.342 175.5,258.5C 169.332,256.921 163.332,254.921 157.5,252.5C 155.654,250.97 154.654,248.97 154.5,246.5C 149.276,246.578 143.942,245.911 138.5,244.5C 136.609,243.689 135.276,242.356 134.5,240.5C 136.743,239.526 139.076,239.192 141.5,239.5C 141.238,240.978 141.571,242.311 142.5,243.5C 146.084,241.031 150.084,240.031 154.5,240.5 Z"/></g>
<g><path style="opacity:1" fill="#e0e1e4" d="M 127.5,242.5 C 132.749,246.398 137.083,250.565 140.5,255C 137.223,258.108 137.223,261.442 140.5,265C 140.677,267.369 140.344,269.869 139.5,272.5C 139.977,273.478 140.643,274.311 141.5,275C 140.194,278.802 140.194,282.635 141.5,286.5C 140.975,287.192 140.308,287.692 139.5,288C 140.793,288.49 142.127,288.657 143.5,288.5C 143.5,289.833 143.5,291.167 143.5,292.5C 149.271,291.887 154.604,292.554 159.5,294.5C 149.828,294.666 140.161,294.5 130.5,294C 129.775,287.534 129.109,281.034 128.5,274.5C 128.5,272.833 128.5,271.167 128.5,269.5C 128.677,265.766 128.344,262.099 127.5,258.5C 127.5,253.167 127.5,247.833 127.5,242.5 Z"/></g>
<g><path style="opacity:1" fill="#d5dddb" d="M 157.5,252.5 C 163.332,254.921 169.332,256.921 175.5,258.5C 179.477,259.277 180.143,261.11 177.5,264C 169.173,268.237 162.006,266.737 156,259.5C 154.872,257.655 154.372,255.655 154.5,253.5C 155.791,253.737 156.791,253.404 157.5,252.5 Z"/></g>
<g><path style="opacity:1" fill="#efe6dd" d="M 216.5,242.5 C 222.167,242.5 227.833,242.5 233.5,242.5C 235.5,242.5 237.5,242.5 239.5,242.5C 240.609,243.29 241.942,243.79 243.5,244C 244.022,244.561 244.355,245.228 244.5,246C 242.924,250.38 241.924,254.88 241.5,259.5C 238.177,270.46 235.01,281.46 232,292.5C 230.417,293.971 228.583,294.971 226.5,295.5C 216.167,295.5 205.833,295.5 195.5,295.5C 194.167,295.5 192.833,295.5 191.5,295.5C 190.432,294.566 189.099,294.232 187.5,294.5C 183.521,292.838 179.521,291.838 175.5,291.5C 178.364,290.815 179.864,289.149 180,286.5C 178.057,284.285 176.391,284.285 175,286.5C 169.695,284.537 165.195,281.37 161.5,277C 163.128,274.35 165.295,273.517 168,274.5C 170.235,272.798 172.735,271.798 175.5,271.5C 175.281,270.325 175.614,269.325 176.5,268.5C 179.848,267.915 182.848,266.582 185.5,264.5C 186.815,262.801 186.815,261.135 185.5,259.5C 193.453,258.477 201.453,258.31 209.5,259C 210.953,256.049 212.953,253.549 215.5,251.5C 216.776,250.355 218.109,250.355 219.5,251.5C 220.429,250.311 220.762,248.978 220.5,247.5C 222.433,247.271 224.1,246.438 225.5,245C 222.421,244.027 219.421,243.194 216.5,242.5 Z"/></g>
<g><path style="opacity:1" fill="#f1e9e2" d="M 317.5,241.5 C 321.846,241.334 326.179,241.501 330.5,242C 325.213,243.011 319.879,243.844 314.5,244.5C 312.396,246.583 312.062,248.917 313.5,251.5C 315.64,254.061 317.973,256.395 320.5,258.5C 323.784,259.657 327.118,259.824 330.5,259C 335.863,256.09 337.863,251.59 336.5,245.5C 337.306,249.002 337.973,252.669 338.5,256.5C 338.392,257.442 338.059,258.275 337.5,259C 339.715,260.943 339.715,262.609 337.5,264C 339.976,264.68 341.809,263.847 343,261.5C 344.855,264.576 345.688,267.909 345.5,271.5C 347.5,271.5 349.5,271.5 351.5,271.5C 351.215,273.288 351.548,274.955 352.5,276.5C 354.915,277.305 357.249,278.305 359.5,279.5C 360.167,278.833 360.833,278.167 361.5,277.5C 361.833,277.833 362.167,278.167 362.5,278.5C 361.286,280.069 359.619,280.902 357.5,281C 360.833,281.333 364.167,281.667 367.5,282C 355.5,282.667 355.5,283.333 367.5,284C 365.833,284.333 364.167,284.667 362.5,285C 365.226,285.182 367.893,285.682 370.5,286.5C 371.246,287.736 371.579,289.07 371.5,290.5C 370.265,290.721 369.265,291.388 368.5,292.5C 365.552,290.459 362.552,290.626 359.5,293C 354.207,293.977 348.874,294.477 343.5,294.5C 325.747,294.679 308.08,294.679 290.5,294.5C 290.5,292.833 290.5,291.167 290.5,289.5C 290.665,286.482 290.498,283.482 290,280.5C 285.706,269.456 282.539,258.122 280.5,246.5C 281.167,246.5 281.5,246.167 281.5,245.5C 289.438,244.06 297.438,243.06 305.5,242.5C 309.519,242.354 313.519,242.021 317.5,241.5 Z"/></g>
<g><path style="opacity:1" fill="#82949e" d="M 128.5,269.5 C 128.5,271.167 128.5,272.833 128.5,274.5C 127.388,272.401 126.721,270.067 126.5,267.5C 125.167,267.5 123.833,267.5 122.5,267.5C 122.319,270.397 122.652,273.23 123.5,276C 122.971,277.559 122.304,279.059 121.5,280.5C 123.297,285.689 124.464,291.023 125,296.5C 126.622,297.099 128.122,297.766 129.5,298.5C 128.5,298.5 127.5,298.5 126.5,298.5C 121.5,296.833 118.167,293.5 116.5,288.5C 115.608,284.211 114.275,280.044 112.5,276C 114.127,270.2 115.627,264.366 117,258.5C 118.085,257.707 119.252,257.04 120.5,256.5C 126.488,258.83 129.155,263.163 128.5,269.5 Z"/></g>
<g><path style="opacity:1" fill="#6d716f" d="M 290.5,289.5 C 290.5,291.167 290.5,292.833 290.5,294.5C 288.178,292.075 285.845,290.409 283.5,289.5C 279.599,280.469 276.265,271.136 273.5,261.5C 274.329,260.668 275.162,261.001 276,262.5C 278.603,270.975 281.603,279.308 285,287.5C 285.689,288.357 286.522,289.023 287.5,289.5C 288.527,288.209 289.527,288.209 290.5,289.5 Z"/></g>
<g><path style="opacity:1" fill="#bfcbd3" d="M 420.5,250.5 C 422.2,261.125 420.866,271.459 416.5,281.5C 413.833,285.5 411.167,289.5 408.5,293.5C 410.327,288.888 412.16,284.221 414,279.5C 415,278.833 416,278.167 417,277.5C 417.636,273.005 418.636,268.672 420,264.5C 420.499,259.845 420.666,255.179 420.5,250.5 Z"/></g>
<g><path style="opacity:1" fill="#52534c" d="M 241.5,259.5 C 241.277,263.812 241.777,268.146 243,272.5C 245.299,268.334 248.299,264.667 252,261.5C 252.464,262.094 252.631,262.761 252.5,263.5C 247.969,273.565 243.135,283.565 238,293.5C 236.457,295.378 234.624,296.878 232.5,298C 228.179,298.499 223.846,298.666 219.5,298.5C 219.5,298.167 219.5,297.833 219.5,297.5C 222.152,297.59 224.485,296.924 226.5,295.5C 228.583,294.971 230.417,293.971 232,292.5C 235.01,281.46 238.177,270.46 241.5,259.5 Z"/></g>
<g><path style="opacity:1" fill="#6e7d85" d="M 128.5,274.5 C 129.109,281.034 129.775,287.534 130.5,294C 140.161,294.5 149.828,294.666 159.5,294.5C 168.833,294.5 178.167,294.5 187.5,294.5C 189.099,294.232 190.432,294.566 191.5,295.5C 171.143,295.181 150.81,295.681 130.5,297C 137.492,297.5 144.492,297.666 151.5,297.5C 151.5,297.833 151.5,298.167 151.5,298.5C 144.167,298.5 136.833,298.5 129.5,298.5C 128.122,297.766 126.622,297.099 125,296.5C 124.464,291.023 123.297,285.689 121.5,280.5C 122.304,279.059 122.971,277.559 123.5,276C 122.652,273.23 122.319,270.397 122.5,267.5C 123.833,267.5 125.167,267.5 126.5,267.5C 126.721,270.067 127.388,272.401 128.5,274.5 Z"/></g>
<g><path style="opacity:1" fill="#d5dde0" d="M 399.5,241.5 C 404.185,260.807 403.185,279.807 396.5,298.5C 393.022,298.816 389.688,298.316 386.5,297C 385.878,295.431 385.544,293.764 385.5,292C 386.639,276.566 388.639,261.4 391.5,246.5C 389.918,262.149 388.751,277.816 388,293.5C 389.166,290.497 390.833,287.83 393,285.5C 395.765,274.006 397.265,262.339 397.5,250.5C 395.992,247.011 396.659,244.011 399.5,241.5 Z"/></g>
<g><path style="opacity:1" fill="#1d2f33" d="M 191.5,295.5 C 192.833,295.5 194.167,295.5 195.5,295.5C 187.167,296.167 178.833,296.833 170.5,297.5C 164.167,297.5 157.833,297.5 151.5,297.5C 144.492,297.666 137.492,297.5 130.5,297C 150.81,295.681 171.143,295.181 191.5,295.5 Z"/></g>
<g><path style="opacity:1" fill="#2e4240" d="M 195.5,295.5 C 205.833,295.5 216.167,295.5 226.5,295.5C 224.485,296.924 222.152,297.59 219.5,297.5C 203.167,297.5 186.833,297.5 170.5,297.5C 178.833,296.833 187.167,296.167 195.5,295.5 Z"/></g>
<g><path style="opacity:1" fill="#50615c" d="M 290.5,294.5 C 308.08,294.679 325.747,294.679 343.5,294.5C 343.5,294.833 343.5,295.167 343.5,295.5C 338.167,296.167 332.833,296.833 327.5,297.5C 315.492,297.591 303.492,297.925 291.5,298.5C 287.23,296.982 284.564,293.982 283.5,289.5C 285.845,290.409 288.178,292.075 290.5,294.5 Z"/></g>
<g><path style="opacity:1" fill="#969795" d="M 343.5,295.5 C 354.172,295.333 364.839,295.5 375.5,296C 359.527,297.277 343.527,297.777 327.5,297.5C 332.833,296.833 338.167,296.167 343.5,295.5 Z"/></g>
<g><path style="opacity:1" fill="#eae9e8" d="M 361.5,240.5 C 366.833,240.5 372.167,240.5 377.5,240.5C 382.179,240.334 386.845,240.501 391.5,241C 393.897,242.71 393.897,244.544 391.5,246.5C 388.639,261.4 386.639,276.566 385.5,292C 385.544,293.764 385.878,295.431 386.5,297C 389.688,298.316 393.022,298.816 396.5,298.5C 398.709,297.401 400.709,297.901 402.5,300C 400.343,301.085 400.176,302.251 402,303.5C 403.717,311.793 403.884,320.126 402.5,328.5C 403.456,337.646 404.122,346.812 404.5,356C 405.268,362.817 403.935,369.15 400.5,375C 400.57,375.765 400.903,376.265 401.5,376.5C 401.5,376.833 401.5,377.167 401.5,377.5C 397.301,381.052 392.301,382.385 386.5,381.5C 379.241,374.704 370.908,369.704 361.5,366.5C 358.178,377.777 354.845,389.11 351.5,400.5C 348.866,405.768 346.199,411.101 343.5,416.5C 342.903,416.265 342.57,415.765 342.5,415C 344.189,411.802 345.522,408.469 346.5,405C 346.065,401.937 345.232,401.77 344,404.5C 342.117,403.347 341.284,401.681 341.5,399.5C 343.5,399.5 345.5,399.5 347.5,399.5C 347.573,394.873 348.74,390.54 351,386.5C 351.667,387.833 352.333,387.833 353,386.5C 353.72,384.888 353.554,383.388 352.5,382C 354.246,379.626 354.58,377.126 353.5,374.5C 358.109,367.556 360.109,360.056 359.5,352C 360.516,351.481 361.182,350.647 361.5,349.5C 362.77,344.41 363.103,339.41 362.5,334.5C 362.949,329.783 363.616,325.116 364.5,320.5C 363.012,315.627 362.178,310.627 362,305.5C 359.842,301.331 356.342,299.331 351.5,299.5C 337.006,298.174 322.672,298.174 308.5,299.5C 302.642,299.822 296.975,299.489 291.5,298.5C 303.492,297.925 315.492,297.591 327.5,297.5C 343.527,297.777 359.527,297.277 375.5,296C 364.839,295.5 354.172,295.333 343.5,295.5C 343.5,295.167 343.5,294.833 343.5,294.5C 348.874,294.477 354.207,293.977 359.5,293C 362.552,290.626 365.552,290.459 368.5,292.5C 369.265,291.388 370.265,290.721 371.5,290.5C 372.923,288.455 374.923,287.455 377.5,287.5C 377.906,283.136 378.572,278.803 379.5,274.5C 377.884,270.968 378.217,267.634 380.5,264.5C 379.358,261.601 378.692,258.601 378.5,255.5C 380.288,255.785 381.955,255.452 383.5,254.5C 381.082,253.543 378.916,252.209 377,250.5C 376.735,248.837 377.235,247.337 378.5,246C 373.231,244.516 367.898,243.349 362.5,242.5C 360.68,242.649 359.18,243.316 358,244.5C 355.688,243.869 353.188,243.869 350.5,244.5C 349.099,243.479 347.765,242.479 346.5,241.5C 351.695,241.821 356.695,241.487 361.5,240.5 Z"/></g>
<g><path style="opacity:1" fill="#ebe8e5" d="M 159.5,299.5 C 157.302,300.165 154.969,300.832 152.5,301.5C 153.729,302.281 155.062,302.781 156.5,303C 153.774,303.182 151.107,303.682 148.5,304.5C 150.984,308.057 151.984,312.057 151.5,316.5C 151.006,320.454 151.006,324.288 151.5,328C 150.559,331.574 149.893,335.241 149.5,339C 151.469,343.773 153.302,348.607 155,353.5C 157.692,354.702 158.526,356.536 157.5,359C 160.845,364.365 163.012,370.198 164,376.5C 165.011,377.337 166.178,377.67 167.5,377.5C 167.617,382.615 169.284,387.115 172.5,391C 171.978,391.561 171.645,392.228 171.5,393C 173.962,394.946 175.296,397.446 175.5,400.5C 175.167,400.5 174.833,400.5 174.5,400.5C 171.427,396.028 168.593,391.361 166,386.5C 161.355,374.549 156.188,362.882 150.5,351.5C 148.976,346.416 147.309,346.416 145.5,351.5C 145.631,350.761 145.464,350.094 145,349.5C 143.812,350.563 143.312,351.897 143.5,353.5C 142.127,353.343 140.793,353.51 139.5,354C 136.674,355.483 134.341,357.483 132.5,360C 131.552,360.483 130.552,360.649 129.5,360.5C 129.5,359.5 129.5,358.5 129.5,357.5C 130.552,357.649 131.552,357.483 132.5,357C 131,355.833 129.5,354.667 128,353.5C 127.517,354.448 127.351,355.448 127.5,356.5C 124.126,356.326 120.793,355.826 117.5,355C 118.67,353.245 120.337,352.245 122.5,352C 121.207,351.51 119.873,351.343 118.5,351.5C 118.826,347.116 118.492,342.783 117.5,338.5C 116.096,339.999 115.43,339.666 115.5,337.5C 117.485,335.543 118.985,333.21 120,330.5C 125.821,327.315 127.821,328.981 126,335.5C 127.392,332.722 127.892,329.722 127.5,326.5C 125.654,326.778 124.32,326.111 123.5,324.5C 125.605,323.364 127.772,322.364 130,321.5C 133.626,322.768 136.126,321.435 137.5,317.5C 135.576,313.067 133.409,308.734 131,304.5C 129.989,303.663 128.822,303.33 127.5,303.5C 127.5,302.5 127.5,301.5 127.5,300.5C 138.185,300.61 148.852,300.277 159.5,299.5 Z"/></g>
<g><path style="opacity:1" fill="#f0e4d7" d="M 175.5,302.5 C 175.762,303.978 175.429,305.311 174.5,306.5C 168.639,309.786 167.973,313.953 172.5,319C 170.053,322.869 170.053,326.869 172.5,331C 173.448,331.483 174.448,331.649 175.5,331.5C 174.916,338.838 174.25,346.172 173.5,353.5C 175.686,358.7 176.019,364.033 174.5,369.5C 174.482,371.373 174.982,371.706 176,370.5C 179.21,374.287 181.377,378.62 182.5,383.5C 183.425,382.359 184.259,382.359 185,383.5C 185.497,386.146 185.664,388.813 185.5,391.5C 184.448,391.351 183.448,391.517 182.5,392C 182.033,398.687 185.033,402.52 191.5,403.5C 193.243,407.288 194.577,411.288 195.5,415.5C 196.552,415.351 197.552,415.517 198.5,416C 200.273,419.765 203.273,421.599 207.5,421.5C 207.565,423.696 208.232,425.696 209.5,427.5C 210.192,426.975 210.692,426.308 211,425.5C 211.249,426.624 211.749,427.624 212.5,428.5C 214.753,429.253 216.587,430.586 218,432.5C 219.84,431.167 220.34,431.334 219.5,433C 221.473,435.015 223.14,434.848 224.5,432.5C 224.859,433.917 226.025,435.25 228,436.5C 228.333,435.5 228.667,434.5 229,433.5C 230.659,434.817 231.826,436.483 232.5,438.5C 235.824,440.162 239.158,441.829 242.5,443.5C 244.451,442.744 246.284,442.411 248,442.5C 249.707,443.459 251.541,444.125 253.5,444.5C 261.756,442.985 270.089,442.151 278.5,442C 279.025,441.308 279.692,440.808 280.5,440.5C 282.747,441.374 285.08,441.708 287.5,441.5C 287.804,442.15 288.137,442.817 288.5,443.5C 284.657,444.446 280.824,445.446 277,446.5C 275.69,447.13 274.856,448.13 274.5,449.5C 250.592,449.361 228.592,443.027 208.5,430.5C 203.052,426.256 197.719,421.756 192.5,417C 192.833,416.667 193.167,416.333 193.5,416C 191.996,414.509 191.163,412.676 191,410.5C 181.703,403.91 175.703,395.243 173,384.5C 171.842,384.002 171.009,383.169 170.5,382C 171.419,377.219 171.752,372.385 171.5,367.5C 170.167,367.5 168.833,367.5 167.5,367.5C 167.443,369.884 167.777,372.218 168.5,374.5C 168.267,375.932 167.6,376.432 166.5,376C 165.534,372.557 165.534,368.89 166.5,365C 162.996,349.527 162.662,333.86 165.5,318C 163.817,315.304 161.817,312.804 159.5,310.5C 161.078,309.702 162.744,309.202 164.5,309C 166.571,306.588 168.904,304.588 171.5,303C 163.782,301.826 163.282,300.993 170,300.5C 172.295,300.547 174.129,301.213 175.5,302.5 Z"/></g>
<g><path style="opacity:1" fill="#f2e3d1" d="M 306.5,431.5 C 303.292,432.85 299.959,434.016 296.5,435C 295.257,436.154 294.257,437.488 293.5,439C 291.765,439.651 290.098,439.485 288.5,438.5C 287.614,439.325 287.281,440.325 287.5,441.5C 285.08,441.708 282.747,441.374 280.5,440.5C 279.692,440.808 279.025,441.308 278.5,442C 270.089,442.151 261.756,442.985 253.5,444.5C 251.541,444.125 249.707,443.459 248,442.5C 246.284,442.411 244.451,442.744 242.5,443.5C 239.158,441.829 235.824,440.162 232.5,438.5C 231.826,436.483 230.659,434.817 229,433.5C 228.667,434.5 228.333,435.5 228,436.5C 226.025,435.25 224.859,433.917 224.5,432.5C 223.14,434.848 221.473,435.015 219.5,433C 220.34,431.334 219.84,431.167 218,432.5C 216.587,430.586 214.753,429.253 212.5,428.5C 211.749,427.624 211.249,426.624 211,425.5C 210.692,426.308 210.192,426.975 209.5,427.5C 208.232,425.696 207.565,423.696 207.5,421.5C 203.273,421.599 200.273,419.765 198.5,416C 197.552,415.517 196.552,415.351 195.5,415.5C 194.577,411.288 193.243,407.288 191.5,403.5C 185.033,402.52 182.033,398.687 182.5,392C 183.448,391.517 184.448,391.351 185.5,391.5C 185.664,388.813 185.497,386.146 185,383.5C 184.259,382.359 183.425,382.359 182.5,383.5C 181.377,378.62 179.21,374.287 176,370.5C 174.982,371.706 174.482,371.373 174.5,369.5C 176.019,364.033 175.686,358.7 173.5,353.5C 174.25,346.172 174.916,338.838 175.5,331.5C 174.448,331.649 173.448,331.483 172.5,331C 170.053,326.869 170.053,322.869 172.5,319C 167.973,313.953 168.639,309.786 174.5,306.5C 175.429,305.311 175.762,303.978 175.5,302.5C 177.179,302.108 178.846,301.608 180.5,301C 178.616,300.784 176.949,300.117 175.5,299C 186.161,298.5 196.828,298.333 207.5,298.5C 211.647,299.325 215.981,299.825 220.5,300C 218.117,301.197 218.45,302.03 221.5,302.5C 224.218,302.795 227.051,302.461 230,301.5C 232.379,301.482 234.546,302.149 236.5,303.5C 236.833,303.333 237.167,303.167 237.5,303C 236.167,302 234.833,301 233.5,300C 235.291,299.585 236.624,298.585 237.5,297C 240.565,298.201 243.065,297.368 245,294.5C 246,294.833 247,295.167 248,295.5C 249.786,292.638 252.119,291.972 255,293.5C 255.333,291.167 255.667,288.833 256,286.5C 260.986,288.09 265.819,287.757 270.5,285.5C 272.22,286.955 274.22,287.788 276.5,288C 278.78,291.947 281.447,295.613 284.5,299C 286.936,299.93 289.269,301.097 291.5,302.5C 305.66,302.218 320.327,302.218 335.5,302.5C 334.795,305.726 333.795,308.893 332.5,312C 334.768,313.558 335.934,315.724 336,318.5C 337.205,319.071 338.372,319.738 339.5,320.5C 341.5,325.167 343.5,329.833 345.5,334.5C 344.875,340.146 344.208,345.813 343.5,351.5C 342.029,352.381 341.196,353.714 341,355.5C 341.114,364.508 338.114,372.174 332,378.5C 329.541,382.876 327.875,387.543 327,392.5C 323.513,396.142 320.513,400.142 318,404.5C 316.075,405.88 314.241,407.38 312.5,409C 313.102,411.036 314.102,412.87 315.5,414.5C 313.525,415.275 312.691,416.609 313,418.5C 314.494,417.253 315.994,417.253 317.5,418.5C 311.998,421.331 308.331,425.665 306.5,431.5 Z"/></g>
<g><path style="opacity:1" fill="#e9e8e9" d="M 122.5,300.5 C 124.38,300.771 125.713,300.104 126.5,298.5C 127.5,298.5 128.5,298.5 129.5,298.5C 136.833,298.5 144.167,298.5 151.5,298.5C 154.385,298.194 157.052,298.527 159.5,299.5C 148.852,300.277 138.185,300.61 127.5,300.5C 127.5,301.5 127.5,302.5 127.5,303.5C 128.822,303.33 129.989,303.663 131,304.5C 133.409,308.734 135.576,313.067 137.5,317.5C 136.126,321.435 133.626,322.768 130,321.5C 127.772,322.364 125.605,323.364 123.5,324.5C 124.32,326.111 125.654,326.778 127.5,326.5C 127.892,329.722 127.392,332.722 126,335.5C 127.821,328.981 125.821,327.315 120,330.5C 118.985,333.21 117.485,335.543 115.5,337.5C 115.43,339.666 116.096,339.999 117.5,338.5C 118.492,342.783 118.826,347.116 118.5,351.5C 119.873,351.343 121.207,351.51 122.5,352C 120.337,352.245 118.67,353.245 117.5,355C 120.793,355.826 124.126,356.326 127.5,356.5C 127.351,355.448 127.517,354.448 128,353.5C 129.5,354.667 131,355.833 132.5,357C 131.552,357.483 130.552,357.649 129.5,357.5C 129.5,358.5 129.5,359.5 129.5,360.5C 130.552,360.649 131.552,360.483 132.5,360C 134.341,357.483 136.674,355.483 139.5,354C 140.793,353.51 142.127,353.343 143.5,353.5C 143.312,351.897 143.812,350.563 145,349.5C 145.464,350.094 145.631,350.761 145.5,351.5C 145.267,353.062 144.6,354.395 143.5,355.5C 139.132,359.014 134.465,362.014 129.5,364.5C 123.528,365.474 117.528,365.641 111.5,365C 110.333,363.833 109.167,362.667 108,361.5C 106.537,348.265 106.037,334.932 106.5,321.5C 106.768,319.901 106.434,318.568 105.5,317.5C 105.148,314.927 105.648,312.594 107,310.5C 109.214,313.308 110.714,312.975 111.5,309.5C 110.271,308.036 108.605,306.203 106.5,304C 108.087,303.138 109.754,302.471 111.5,302C 107.144,298.512 107.811,297.179 113.5,298C 115.756,300.712 118.589,302.546 122,303.5C 123.683,302.824 123.85,301.824 122.5,300.5 Z"/></g>
<g><path style="opacity:1" fill="#eee5dc" d="M 308.5,299.5 C 322.672,298.174 337.006,298.174 351.5,299.5C 356.342,299.331 359.842,301.331 362,305.5C 362.178,310.627 363.012,315.627 364.5,320.5C 363.616,325.116 362.949,329.783 362.5,334.5C 363.103,339.41 362.77,344.41 361.5,349.5C 361.182,350.647 360.516,351.481 359.5,352C 360.109,360.056 358.109,367.556 353.5,374.5C 354.58,377.126 354.246,379.626 352.5,382C 353.554,383.388 353.72,384.888 353,386.5C 352.333,387.833 351.667,387.833 351,386.5C 348.74,390.54 347.573,394.873 347.5,399.5C 345.5,399.5 343.5,399.5 341.5,399.5C 341.284,401.681 342.117,403.347 344,404.5C 345.232,401.77 346.065,401.937 346.5,405C 345.522,408.469 344.189,411.802 342.5,415C 342.57,415.765 342.903,416.265 343.5,416.5C 334.814,427.86 323.814,436.36 310.5,442C 305.058,443.851 299.725,445.684 294.5,447.5C 290.779,447.911 287.112,448.578 283.5,449.5C 280.5,449.5 277.5,449.5 274.5,449.5C 274.856,448.13 275.69,447.13 277,446.5C 280.824,445.446 284.657,444.446 288.5,443.5C 288.137,442.817 287.804,442.15 287.5,441.5C 287.281,440.325 287.614,439.325 288.5,438.5C 290.098,439.485 291.765,439.651 293.5,439C 294.257,437.488 295.257,436.154 296.5,435C 299.959,434.016 303.292,432.85 306.5,431.5C 310.811,432.464 313.811,430.964 315.5,427C 318.249,425.877 320.749,424.377 323,422.5C 323.687,420.08 323.187,417.913 321.5,416C 325.167,416.333 328.833,416.667 332.5,417C 332.833,416.667 333.167,416.333 333.5,416C 331.527,415.505 329.527,415.338 327.5,415.5C 327.687,413.436 328.187,411.436 329,409.5C 331.724,406.284 334.224,402.951 336.5,399.5C 337.503,394.157 338.503,388.824 339.5,383.5C 340.833,383.5 342.167,383.5 343.5,383.5C 344.912,377.333 346.912,371.333 349.5,365.5C 349.167,364.167 348.833,362.833 348.5,361.5C 350.536,351.675 352.536,341.841 354.5,332C 352.993,324.65 351.659,317.317 350.5,310C 351.423,307.959 351.756,305.792 351.5,303.5C 344.269,303.783 343.936,302.95 350.5,301C 346.137,300.71 341.804,300.21 337.5,299.5C 327.784,300.811 318.118,300.811 308.5,299.5 Z"/></g>
<g><path style="opacity:1" fill="#829ca3" d="M 416.5,281.5 C 414.704,285.314 413.371,289.314 412.5,293.5C 410.112,296.301 408.612,299.634 408,303.5C 407.624,310.509 407.124,317.509 406.5,324.5C 407.167,331.167 407.833,337.833 408.5,344.5C 408.492,351.261 408.158,357.928 407.5,364.5C 406.831,352.143 405.831,339.81 404.5,327.5C 405.574,319.317 405.574,311.151 404.5,303C 405.443,299.621 406.776,296.454 408.5,293.5C 411.167,289.5 413.833,285.5 416.5,281.5 Z"/></g>
<g><path style="opacity:1" fill="#f1e6d7" d="M 268.5,255.5 C 270.196,257.525 271.863,259.525 273.5,261.5C 276.265,271.136 279.599,280.469 283.5,289.5C 284.564,293.982 287.23,296.982 291.5,298.5C 296.975,299.489 302.642,299.822 308.5,299.5C 318.118,300.811 327.784,300.811 337.5,299.5C 341.804,300.21 346.137,300.71 350.5,301C 343.936,302.95 344.269,303.783 351.5,303.5C 351.756,305.792 351.423,307.959 350.5,310C 351.659,317.317 352.993,324.65 354.5,332C 352.536,341.841 350.536,351.675 348.5,361.5C 348.833,362.833 349.167,364.167 349.5,365.5C 346.912,371.333 344.912,377.333 343.5,383.5C 342.167,383.5 340.833,383.5 339.5,383.5C 338.503,388.824 337.503,394.157 336.5,399.5C 334.224,402.951 331.724,406.284 329,409.5C 328.187,411.436 327.687,413.436 327.5,415.5C 329.527,415.338 331.527,415.505 333.5,416C 333.167,416.333 332.833,416.667 332.5,417C 328.833,416.667 325.167,416.333 321.5,416C 323.187,417.913 323.687,420.08 323,422.5C 320.749,424.377 318.249,425.877 315.5,427C 313.811,430.964 310.811,432.464 306.5,431.5C 308.331,425.665 311.998,421.331 317.5,418.5C 315.994,417.253 314.494,417.253 313,418.5C 312.691,416.609 313.525,415.275 315.5,414.5C 314.102,412.87 313.102,411.036 312.5,409C 314.241,407.38 316.075,405.88 318,404.5C 320.513,400.142 323.513,396.142 327,392.5C 327.875,387.543 329.541,382.876 332,378.5C 338.114,372.174 341.114,364.508 341,355.5C 341.196,353.714 342.029,352.381 343.5,351.5C 344.208,345.813 344.875,340.146 345.5,334.5C 343.5,329.833 341.5,325.167 339.5,320.5C 338.372,319.738 337.205,319.071 336,318.5C 335.934,315.724 334.768,313.558 332.5,312C 333.795,308.893 334.795,305.726 335.5,302.5C 320.327,302.218 305.66,302.218 291.5,302.5C 289.269,301.097 286.936,299.93 284.5,299C 281.447,295.613 278.78,291.947 276.5,288C 274.22,287.788 272.22,286.955 270.5,285.5C 265.819,287.757 260.986,288.09 256,286.5C 255.667,288.833 255.333,291.167 255,293.5C 252.119,291.972 249.786,292.638 248,295.5C 247,295.167 246,294.833 245,294.5C 243.065,297.368 240.565,298.201 237.5,297C 236.624,298.585 235.291,299.585 233.5,300C 234.833,301 236.167,302 237.5,303C 237.167,303.167 236.833,303.333 236.5,303.5C 234.546,302.149 232.379,301.482 230,301.5C 227.051,302.461 224.218,302.795 221.5,302.5C 218.45,302.03 218.117,301.197 220.5,300C 215.981,299.825 211.647,299.325 207.5,298.5C 211.5,298.5 215.5,298.5 219.5,298.5C 223.846,298.666 228.179,298.499 232.5,298C 234.624,296.878 236.457,295.378 238,293.5C 243.135,283.565 247.969,273.565 252.5,263.5C 253.404,262.791 253.737,261.791 253.5,260.5C 254.584,258.185 256.251,256.352 258.5,255C 261.888,254.341 265.221,254.508 268.5,255.5 Z"/></g>
<g><path style="opacity:1" fill="#678c97" d="M 412.5,293.5 C 412.343,294.873 412.51,296.207 413,297.5C 413.889,296.112 414.389,296.278 414.5,298C 413.105,307.395 411.438,317.062 409.5,327C 410.54,338.36 411.207,349.36 411.5,360C 410.939,363.562 409.772,367.062 408,370.5C 405.712,372.8 404.045,375.467 403,378.5C 402.617,377.944 402.117,377.611 401.5,377.5C 401.5,377.167 401.5,376.833 401.5,376.5C 404.041,372.752 406.041,368.752 407.5,364.5C 408.158,357.928 408.492,351.261 408.5,344.5C 407.833,337.833 407.167,331.167 406.5,324.5C 407.124,317.509 407.624,310.509 408,303.5C 408.612,299.634 410.112,296.301 412.5,293.5 Z"/></g>
<g><path style="opacity:1" fill="#f3e2cb" d="M 270.5,301.5 C 272.65,301.792 274.983,302.459 277.5,303.5C 277.933,306.285 279.266,308.619 281.5,310.5C 286.383,311.191 291.216,311.857 296,312.5C 303.747,311.518 311.58,311.185 319.5,311.5C 319.633,314.896 320.633,315.229 322.5,312.5C 326.148,313.473 327.814,315.807 327.5,319.5C 330.167,319.5 332.833,319.5 335.5,319.5C 334.884,327.939 335.551,336.106 337.5,344C 336.282,345.438 335.615,347.105 335.5,349C 336.252,351.154 336.419,353.32 336,355.5C 334.493,356.505 333.327,357.838 332.5,359.5C 330.278,369.512 326.611,378.512 321.5,386.5C 314.114,389.053 309.28,394.053 307,401.5C 304.341,403.06 303.174,405.393 303.5,408.5C 298.879,408.795 295.212,410.795 292.5,414.5C 290.167,414.833 287.833,415.167 285.5,415.5C 280.696,415.303 276.029,414.637 271.5,413.5C 271.5,412.5 271.5,411.5 271.5,410.5C 276.833,410.5 282.167,410.5 287.5,410.5C 287.662,408.473 287.495,406.473 287,404.5C 286,405.167 285,405.833 284,406.5C 281.783,406.063 279.449,406.063 277,406.5C 276.667,405.833 276.333,405.167 276,404.5C 269.273,405.789 262.44,406.456 255.5,406.5C 255.5,407.833 255.5,409.167 255.5,410.5C 256.5,410.5 257.5,410.5 258.5,410.5C 258.351,411.552 258.517,412.552 259,413.5C 259.832,415.293 261.332,417.126 263.5,419C 274.167,419.667 274.167,420.333 263.5,421C 269.213,420.827 274.546,421.994 279.5,424.5C 279.709,425.086 280.043,425.586 280.5,426C 279.139,427.584 278.472,429.418 278.5,431.5C 276.143,431.337 273.81,431.503 271.5,432C 267.44,434.187 263.106,435.687 258.5,436.5C 251.963,434.015 245.296,433.348 238.5,434.5C 236.218,432.454 233.551,431.454 230.5,431.5C 230.67,430.178 230.337,429.011 229.5,428C 226.247,426.964 222.914,426.297 219.5,426C 216.599,421.574 212.599,419.074 207.5,418.5C 207.665,415.482 207.498,412.482 207,409.5C 205.132,410.672 203.298,410.505 201.5,409C 196.082,401.44 193.749,392.94 194.5,383.5C 193.5,383.5 192.5,383.5 191.5,383.5C 188.553,378.59 186.387,373.256 185,367.5C 184.686,360.983 184.186,354.483 183.5,348C 183.669,343.248 184.669,338.748 186.5,334.5C 185.675,333.614 184.675,333.281 183.5,333.5C 183.781,328.435 183.448,323.435 182.5,318.5C 184.796,313.581 186.796,308.581 188.5,303.5C 199.84,302.111 211.174,302.278 222.5,304C 223.337,305.011 223.67,306.178 223.5,307.5C 234.167,307.167 244.833,306.833 255.5,306.5C 255.5,307.5 255.5,308.5 255.5,309.5C 259.257,309.698 262.257,308.365 264.5,305.5C 265.086,305.709 265.586,306.043 266,306.5C 267.758,304.917 269.258,303.25 270.5,301.5 Z"/></g>
<g><path style="opacity:1" fill="#f4e0c4" d="M 285.5,385.5 C 284.833,385.5 284.167,385.5 283.5,385.5C 280.88,383.105 277.713,382.105 274,382.5C 259.433,383.94 244.933,385.606 230.5,387.5C 227.318,388.14 226.985,389.14 229.5,390.5C 230.167,391.167 230.833,391.833 231.5,392.5C 232.429,393.315 233.429,394.148 234.5,395C 234.018,396.008 233.852,397.175 234,398.5C 233.667,398.167 233.333,397.833 233,397.5C 231.904,402.765 228.737,405.765 223.5,406.5C 223.5,404.167 223.5,401.833 223.5,399.5C 222.5,399.5 221.5,399.5 220.5,399.5C 220.7,394.778 218.7,393.111 214.5,394.5C 213.667,393.5 212.833,392.5 212,391.5C 210.993,385.834 209.16,380.5 206.5,375.5C 202.138,373.372 200.471,370.038 201.5,365.5C 200.398,360.889 199.731,356.222 199.5,351.5C 198.5,351.5 197.5,351.5 196.5,351.5C 197.918,346.246 198.918,340.913 199.5,335.5C 202.942,335.968 205.609,334.802 207.5,332C 206.102,328.739 203.769,326.405 200.5,325C 200.96,320.783 203.294,318.949 207.5,319.5C 210.132,314.421 213.465,314.255 217.5,319C 224.159,319.88 230.826,320.714 237.5,321.5C 237.808,322.308 238.308,322.975 239,323.5C 239.49,322.207 239.657,320.873 239.5,319.5C 244.465,319.798 247.132,322.465 247.5,327.5C 250.167,327.5 252.833,327.5 255.5,327.5C 255.5,326.5 255.5,325.5 255.5,324.5C 258.244,325.51 260.577,325.176 262.5,323.5C 263.784,324.585 265.284,325.252 267,325.5C 273.491,322.872 279.991,322.872 286.5,325.5C 287.327,327.162 288.493,328.495 290,329.5C 291.29,327.208 292.957,325.208 295,323.5C 297.567,324.27 300.067,325.27 302.5,326.5C 304.48,325.617 306.48,325.783 308.5,327C 311.715,328.774 315.048,330.274 318.5,331.5C 319.004,334.342 320.671,335.675 323.5,335.5C 323.828,340.875 323.495,346.208 322.5,351.5C 321.667,352.5 320.833,353.5 320,354.5C 318.285,358.731 316.785,363.064 315.5,367.5C 313.5,367.5 311.5,367.5 309.5,367.5C 310.355,370.486 310.855,373.486 311,376.5C 307.685,378.984 304.851,381.984 302.5,385.5C 299.608,387.772 296.941,388.106 294.5,386.5C 296.167,385.833 297.833,385.167 299.5,384.5C 295.05,383.715 290.716,382.549 286.5,381C 284.697,380.363 283.364,379.197 282.5,377.5C 281.692,377.808 281.025,378.308 280.5,379C 283.009,380.421 285.343,382.088 287.5,384C 286.584,384.278 285.918,384.778 285.5,385.5 Z"/></g>
<g><path style="opacity:1" fill="#628494" d="M 150.5,351.5 C 148.022,352.195 146.022,353.695 144.5,356C 147.562,357.061 150.062,358.894 152,361.5C 156.03,369.928 159.863,378.428 163.5,387C 165.214,389.596 167.047,392.096 169,394.5C 170.079,397.063 170.579,399.729 170.5,402.5C 170.248,439.017 169.248,475.351 167.5,511.5C 111.5,511.5 55.5,511.5 -0.5,511.5C -0.5,458.5 -0.5,405.5 -0.5,352.5C 0.360654,358.829 1.02732,365.329 1.5,372C 0.467936,381.292 0.467936,390.459 1.5,399.5C 2.5,399.5 3.5,399.5 4.5,399.5C 4.33591,396.813 4.50258,394.146 5,391.5C 5.33333,393.833 5.66667,396.167 6,398.5C 6.30762,397.692 6.80762,397.025 7.5,396.5C 10.6124,397.351 10.9458,398.517 8.5,400C 9.84228,402.015 10.3423,404.182 10,406.5C 9.69238,405.692 9.19238,405.025 8.5,404.5C 7.71609,409.283 7.38276,413.949 7.5,418.5C 8.96176,420.927 10.9618,422.76 13.5,424C 10.4384,425.797 8.43839,428.464 7.5,432C 7.84426,433.365 8.51093,434.532 9.5,435.5C 8.67504,436.386 7.67504,436.719 6.5,436.5C 5.9196,440.142 5.4196,443.809 5,447.5C 4.50258,444.854 4.33591,442.187 4.5,439.5C 3.5,439.5 2.5,439.5 1.5,439.5C 2.81934,449.105 3.65268,458.772 4,468.5C 5.04373,467.377 5.71039,466.044 6,464.5C 7.31156,466.955 8.47823,469.455 9.5,472C 8.25116,474.21 8.41782,476.376 10,478.5C 10.8619,474.573 11.3619,470.573 11.5,466.5C 12.4519,468.045 12.7852,469.712 12.5,471.5C 17.3632,470.621 21.3632,468.288 24.5,464.5C 26.7427,463.526 29.076,463.192 31.5,463.5C 31.3379,461.473 31.5045,459.473 32,457.5C 33.7058,456.692 34.5391,455.359 34.5,453.5C 36.1439,453.714 37.6439,453.38 39,452.5C 39.8489,449.439 41.3489,446.772 43.5,444.5C 39.9232,443.886 39.9232,442.553 43.5,440.5C 42.7469,438.247 41.4136,436.413 39.5,435C 40.0219,434.439 40.3552,433.772 40.5,433C 39.7157,425.536 39.2157,418.036 39,410.5C 38.5,409.333 37.6667,408.5 36.5,408C 29.1441,407.831 21.8108,407.331 14.5,406.5C 16.0534,405.561 17.3867,404.394 18.5,403C 17.5909,401.211 17.4242,399.377 18,397.5C 20.9101,396.55 22.0768,394.55 21.5,391.5C 20.448,391.649 19.448,391.483 18.5,391C 19.6492,389.256 20.9825,389.089 22.5,390.5C 23.8333,389.5 23.8333,388.5 22.5,387.5C 21.3926,388.022 20.2259,388.355 19,388.5C 14.358,387.052 14.5246,385.552 19.5,384C 18.8333,383.667 18.1667,383.333 17.5,383C 19.1802,382.653 20.1802,381.653 20.5,380C 19.7113,378.374 18.7113,376.874 17.5,375.5C 18.7883,372.966 18.7883,370.466 17.5,368C 24.4721,360.152 29.4721,361.319 32.5,371.5C 36.7542,371.92 39.7542,374.086 41.5,378C 48.7608,379.348 56.0941,379.848 63.5,379.5C 63.5,380.833 63.5,382.167 63.5,383.5C 62.1667,383.5 60.8333,383.5 59.5,383.5C 59.5,394.167 59.5,404.833 59.5,415.5C 60.8333,415.5 62.1667,415.5 63.5,415.5C 63.3379,417.527 63.5045,419.527 64,421.5C 68.8636,423.191 71.697,426.524 72.5,431.5C 74.8333,431.5 77.1667,431.5 79.5,431.5C 79.3379,429.473 79.5045,427.473 80,425.5C 84.8636,423.809 87.697,420.476 88.5,415.5C 91.2469,415.813 93.9135,415.48 96.5,414.5C 101.167,409.833 105.833,405.167 110.5,400.5C 114.167,399.833 117.833,399.167 121.5,398.5C 122.588,396.035 124.421,394.369 127,393.5C 127.498,390.183 127.665,386.85 127.5,383.5C 130.833,383.5 134.167,383.5 137.5,383.5C 137.357,381.738 137.691,380.071 138.5,378.5C 135.624,376.119 132.624,373.952 129.5,372C 130.729,370.471 132.229,369.304 134,368.5C 134.483,367.552 134.649,366.552 134.5,365.5C 135.675,365.719 136.675,365.386 137.5,364.5C 138.766,360.955 140.766,357.955 143.5,355.5C 144.6,354.395 145.267,353.062 145.5,351.5C 147.309,346.416 148.976,346.416 150.5,351.5 Z"/></g>
<g><path style="opacity:1" fill="#7d8e9b" d="M 106.5,321.5 C 106.037,334.932 106.537,348.265 108,361.5C 109.167,362.667 110.333,363.833 111.5,365C 117.528,365.641 123.528,365.474 129.5,364.5C 130.873,364.343 132.207,364.51 133.5,365C 125.927,370.211 117.927,370.877 109.5,367C 108.167,366.333 108.167,365.667 109.5,365C 103.628,361.984 102.128,357.484 105,351.5C 105.17,341.325 105.67,331.325 106.5,321.5 Z"/></g>
<g><path style="opacity:1" fill="#5c4a34" d="M 282.5,386.5 C 285.936,388.044 289.269,389.877 292.5,392C 294.134,392.494 295.801,392.66 297.5,392.5C 296.036,393.16 294.369,393.493 292.5,393.5C 288.435,393.15 284.435,392.483 280.5,391.5C 268.836,391.333 257.169,390.999 245.5,390.5C 252.786,391.166 259.786,390.333 266.5,388C 267.833,387.333 267.833,386.667 266.5,386C 271.98,383.881 277.314,384.048 282.5,386.5 Z"/></g>
<g><path style="opacity:1" fill="#342319" d="M 283.5,385.5 C 284.167,385.5 284.833,385.5 285.5,385.5C 289.219,388.023 293.385,389.69 298,390.5C 299.872,391.487 299.705,392.154 297.5,392.5C 295.801,392.66 294.134,392.494 292.5,392C 289.269,389.877 285.936,388.044 282.5,386.5C 282.5,385.833 282.833,385.5 283.5,385.5 Z"/></g>
<g><path style="opacity:1" fill="#8a6d5c" d="M 230.5,387.5 C 234.913,389.138 239.579,390.138 244.5,390.5C 239.5,390.5 234.5,390.5 229.5,390.5C 226.985,389.14 227.318,388.14 230.5,387.5 Z"/></g>
<g><path style="opacity:1" fill="#503d29" d="M 283.5,385.5 C 282.833,385.5 282.5,385.833 282.5,386.5C 277.314,384.048 271.98,383.881 266.5,386C 267.833,386.667 267.833,387.333 266.5,388C 259.786,390.333 252.786,391.166 245.5,390.5C 245.167,390.5 244.833,390.5 244.5,390.5C 239.579,390.138 234.913,389.138 230.5,387.5C 244.933,385.606 259.433,383.94 274,382.5C 277.713,382.105 280.88,383.105 283.5,385.5 Z"/></g>
<g><path style="opacity:1" fill="#5b686b" d="M 150.5,351.5 C 156.188,362.882 161.355,374.549 166,386.5C 168.593,391.361 171.427,396.028 174.5,400.5C 173.64,404.434 173.307,408.434 173.5,412.5C 172.982,409.021 171.982,405.688 170.5,402.5C 170.579,399.729 170.079,397.063 169,394.5C 167.047,392.096 165.214,389.596 163.5,387C 159.863,378.428 156.03,369.928 152,361.5C 150.062,358.894 147.562,357.061 144.5,356C 146.022,353.695 148.022,352.195 150.5,351.5 Z"/></g>
<g><path style="opacity:1" fill="#c9ad96" d="M 229.5,390.5 C 234.5,390.5 239.5,390.5 244.5,390.5C 244.833,390.5 245.167,390.5 245.5,390.5C 257.169,390.999 268.836,391.333 280.5,391.5C 265.814,392.446 251.147,392.613 236.5,392C 241.939,394.867 247.605,397.033 253.5,398.5C 264.506,399.486 275.506,399.653 286.5,399C 284.517,400.889 282.184,402.222 279.5,403C 262.358,409.38 247.691,406.046 235.5,393C 234.207,392.51 232.873,392.343 231.5,392.5C 230.833,391.833 230.167,391.167 229.5,390.5 Z"/></g>
<g><path style="opacity:1" fill="#a9a6a2" d="M 174.5,400.5 C 174.833,400.5 175.167,400.5 175.5,400.5C 178.963,404.464 182.63,408.298 186.5,412C 185.833,412.667 185.167,412.667 184.5,412C 181.869,409.023 178.869,406.523 175.5,404.5C 174.833,410.988 174.167,417.321 173.5,423.5C 173.5,419.833 173.5,416.167 173.5,412.5C 173.307,408.434 173.64,404.434 174.5,400.5 Z"/></g>
<g><path style="opacity:1" fill="#628394" d="M 386.5,381.5 C 387.812,384.172 389.478,386.672 391.5,389C 392.449,389.617 393.282,389.451 394,388.5C 396.332,391.076 395.665,393.076 392,394.5C 388.656,391.575 384.823,389.908 380.5,389.5C 377.13,389.326 374.63,390.659 373,393.5C 372.311,392.643 371.478,391.977 370.5,391.5C 369.443,393.003 368.776,394.67 368.5,396.5C 369.888,399.165 368.888,400.165 365.5,399.5C 365.813,402.247 365.48,404.914 364.5,407.5C 361.823,410.524 359.489,413.858 357.5,417.5C 358.884,420.328 359.551,423.328 359.5,426.5C 357.927,433.416 357.26,440.416 357.5,447.5C 355.712,447.215 354.045,447.548 352.5,448.5C 352.667,448.833 352.833,449.167 353,449.5C 357.333,453.5 361.667,457.5 366,461.5C 367.128,463.345 367.628,465.345 367.5,467.5C 370.85,467.335 374.183,467.502 377.5,468C 375.901,469.066 374.901,470.566 374.5,472.5C 375,472.833 375.5,473.167 376,473.5C 378.386,472.166 380.72,470.833 383,469.5C 383.772,470.849 384.939,471.682 386.5,472C 378.429,475.675 379.095,477.508 388.5,477.5C 387.359,478.425 387.359,479.259 388.5,480C 386.913,480.862 385.246,481.529 383.5,482C 385.778,482.986 388.111,483.82 390.5,484.5C 391.192,483.975 391.692,483.308 392,482.5C 392.511,484.878 393.178,487.212 394,489.5C 395.044,488.377 395.71,487.044 396,485.5C 397.889,487.483 399.222,489.816 400,492.5C 401.713,493.976 403.547,495.31 405.5,496.5C 404.355,497.891 404.355,499.224 405.5,500.5C 407.225,501.015 408.892,501.682 410.5,502.5C 411.641,503.425 411.641,504.259 410.5,505C 411.167,505.667 411.833,506.333 412.5,507C 400.322,508.314 387.989,508.98 375.5,509C 382.298,509.952 389.132,510.452 396,510.5C 407.939,509.713 419.773,510.046 431.5,511.5C 382.5,511.5 333.5,511.5 284.5,511.5C 284.167,506.167 283.833,500.833 283.5,495.5C 282.5,495.5 281.5,495.5 280.5,495.5C 281.094,483.645 285.927,473.979 295,466.5C 296.202,461.298 299.369,458.131 304.5,457C 308.26,453.008 312.26,449.341 316.5,446C 316.167,445.667 315.833,445.333 315.5,445C 317.037,443.89 317.703,442.39 317.5,440.5C 329.368,436.492 338.868,429.159 346,418.5C 348.135,412.595 349.968,406.595 351.5,400.5C 354.845,389.11 358.178,377.777 361.5,366.5C 370.908,369.704 379.241,374.704 386.5,381.5 Z"/></g>
<g><path style="opacity:1" fill="#f3e6d7" d="M 207.5,431.5 C 207.164,435.167 207.997,438.5 210,441.5C 213.887,445.387 217.721,449.221 221.5,453C 226.099,454.031 230.765,454.531 235.5,454.5C 247.202,453.83 258.868,452.83 270.5,451.5C 273.637,452.301 275.304,454.301 275.5,457.5C 271.442,455.334 267.108,455.001 262.5,456.5C 266.583,458.377 270.583,460.544 274.5,463C 273.833,463.333 273.167,463.667 272.5,464C 272.796,469.121 273.13,474.288 273.5,479.5C 271.732,484.587 269.732,489.587 267.5,494.5C 268.167,495.167 268.833,495.833 269.5,496.5C 265.316,498.216 262.649,496.883 261.5,492.5C 256.633,490.95 256.3,488.783 260.5,486C 261.609,483.953 262.276,481.787 262.5,479.5C 260.167,479.5 257.833,479.5 255.5,479.5C 255.5,482.167 255.5,484.833 255.5,487.5C 245.069,485.864 235.069,486.864 225.5,490.5C 222.289,489.347 218.956,488.68 215.5,488.5C 208.51,489.089 201.51,489.422 194.5,489.5C 195.143,493.442 194.143,496.776 191.5,499.5C 191.833,500.167 192.167,500.833 192.5,501.5C 195.748,502.645 199.081,503.479 202.5,504C 198.811,505.871 194.978,507.371 191,508.5C 189.779,507.728 188.779,506.728 188,505.5C 185.542,508.035 183.042,508.035 180.5,505.5C 179.811,503.556 179.311,501.556 179,499.5C 176.09,471.562 176.59,443.562 180.5,415.5C 183.079,415.083 185.246,415.75 187,417.5C 187.333,416.833 187.667,416.167 188,415.5C 193.889,421.658 200.389,426.991 207.5,431.5 Z"/></g>
<g><path style="opacity:1" fill="#c2c3b9" d="M 207.5,431.5 C 207.5,430.833 207.833,430.5 208.5,430.5C 228.592,443.027 250.592,449.361 274.5,449.5C 277.5,449.5 280.5,449.5 283.5,449.5C 283.842,450.338 284.508,450.672 285.5,450.5C 284.324,458.177 283.158,465.843 282,473.5C 281.722,474.416 281.222,475.082 280.5,475.5C 280.931,469.977 280.264,464.644 278.5,459.5C 278.037,456.518 277.704,453.518 277.5,450.5C 267.58,450.893 257.746,450.226 248,448.5C 242.301,448.666 236.968,450 232,452.5C 229.176,451.946 226.343,451.446 223.5,451C 220.047,446.378 216.047,442.212 211.5,438.5C 211.185,435.477 209.852,433.144 207.5,431.5 Z"/></g>
<g><path style="opacity:1" fill="#dcd6c9" d="M 207.5,431.5 C 209.852,433.144 211.185,435.477 211.5,438.5C 216.047,442.212 220.047,446.378 223.5,451C 226.343,451.446 229.176,451.946 232,452.5C 236.968,450 242.301,448.666 248,448.5C 257.746,450.226 267.58,450.893 277.5,450.5C 277.704,453.518 278.037,456.518 278.5,459.5C 277.5,458.833 276.5,458.167 275.5,457.5C 275.304,454.301 273.637,452.301 270.5,451.5C 258.868,452.83 247.202,453.83 235.5,454.5C 230.765,454.531 226.099,454.031 221.5,453C 217.721,449.221 213.887,445.387 210,441.5C 207.997,438.5 207.164,435.167 207.5,431.5 Z"/></g>
<g><path style="opacity:1" fill="#45656e" d="M 285.5,450.5 C 284.508,450.672 283.842,450.338 283.5,449.5C 287.112,448.578 290.779,447.911 294.5,447.5C 297.482,447.037 300.482,446.704 303.5,446.5C 303.822,448.722 303.155,450.556 301.5,452C 296.702,453.465 293.369,456.465 291.5,461C 290.207,461.49 288.873,461.657 287.5,461.5C 287.552,457.802 287.886,454.135 288.5,450.5C 287.5,450.5 286.5,450.5 285.5,450.5 Z"/></g>
<g><path style="opacity:1" fill="#5c7985" d="M 351.5,400.5 C 349.968,406.595 348.135,412.595 346,418.5C 338.868,429.159 329.368,436.492 317.5,440.5C 317.703,442.39 317.037,443.89 315.5,445C 315.833,445.333 316.167,445.667 316.5,446C 312.26,449.341 308.26,453.008 304.5,457C 299.369,458.131 296.202,461.298 295,466.5C 285.927,473.979 281.094,483.645 280.5,495.5C 281.5,495.5 282.5,495.5 283.5,495.5C 283.833,500.833 284.167,506.167 284.5,511.5C 280.833,511.5 277.167,511.5 273.5,511.5C 274.639,499.239 276.972,487.239 280.5,475.5C 281.222,475.082 281.722,474.416 282,473.5C 283.158,465.843 284.324,458.177 285.5,450.5C 286.5,450.5 287.5,450.5 288.5,450.5C 287.886,454.135 287.552,457.802 287.5,461.5C 288.873,461.657 290.207,461.49 291.5,461C 293.369,456.465 296.702,453.465 301.5,452C 303.155,450.556 303.822,448.722 303.5,446.5C 300.482,446.704 297.482,447.037 294.5,447.5C 299.725,445.684 305.058,443.851 310.5,442C 323.814,436.36 334.814,427.86 343.5,416.5C 346.199,411.101 348.866,405.768 351.5,400.5 Z"/></g>
<g><path style="opacity:1" fill="#758690" d="M 170.5,402.5 C 171.982,405.688 172.982,409.021 173.5,412.5C 173.5,416.167 173.5,419.833 173.5,423.5C 173.5,428.167 173.5,432.833 173.5,437.5C 172.329,461.993 171.662,486.659 171.5,511.5C 170.167,511.5 168.833,511.5 167.5,511.5C 169.248,475.351 170.248,439.017 170.5,402.5 Z"/></g>
<g><path style="opacity:1" fill="#efe6dc" d="M 151.5,298.5 C 151.5,298.167 151.5,297.833 151.5,297.5C 157.833,297.5 164.167,297.5 170.5,297.5C 186.833,297.5 203.167,297.5 219.5,297.5C 219.5,297.833 219.5,298.167 219.5,298.5C 215.5,298.5 211.5,298.5 207.5,298.5C 196.828,298.333 186.161,298.5 175.5,299C 176.949,300.117 178.616,300.784 180.5,301C 178.846,301.608 177.179,302.108 175.5,302.5C 174.129,301.213 172.295,300.547 170,300.5C 163.282,300.993 163.782,301.826 171.5,303C 168.904,304.588 166.571,306.588 164.5,309C 162.744,309.202 161.078,309.702 159.5,310.5C 161.817,312.804 163.817,315.304 165.5,318C 162.662,333.86 162.996,349.527 166.5,365C 165.534,368.89 165.534,372.557 166.5,376C 167.6,376.432 168.267,375.932 168.5,374.5C 167.777,372.218 167.443,369.884 167.5,367.5C 168.833,367.5 170.167,367.5 171.5,367.5C 171.752,372.385 171.419,377.219 170.5,382C 171.009,383.169 171.842,384.002 173,384.5C 175.703,395.243 181.703,403.91 191,410.5C 191.163,412.676 191.996,414.509 193.5,416C 193.167,416.333 192.833,416.667 192.5,417C 197.719,421.756 203.052,426.256 208.5,430.5C 207.833,430.5 207.5,430.833 207.5,431.5C 200.389,426.991 193.889,421.658 188,415.5C 187.667,416.167 187.333,416.833 187,417.5C 185.246,415.75 183.079,415.083 180.5,415.5C 176.59,443.562 176.09,471.562 179,499.5C 179.311,501.556 179.811,503.556 180.5,505.5C 183.042,508.035 185.542,508.035 188,505.5C 188.779,506.728 189.779,507.728 191,508.5C 194.978,507.371 198.811,505.871 202.5,504C 199.081,503.479 195.748,502.645 192.5,501.5C 192.167,500.833 191.833,500.167 191.5,499.5C 194.143,496.776 195.143,493.442 194.5,489.5C 201.51,489.422 208.51,489.089 215.5,488.5C 218.956,488.68 222.289,489.347 225.5,490.5C 235.069,486.864 245.069,485.864 255.5,487.5C 255.5,484.833 255.5,482.167 255.5,479.5C 257.833,479.5 260.167,479.5 262.5,479.5C 262.276,481.787 261.609,483.953 260.5,486C 256.3,488.783 256.633,490.95 261.5,492.5C 262.649,496.883 265.316,498.216 269.5,496.5C 268.833,495.833 268.167,495.167 267.5,494.5C 269.732,489.587 271.732,484.587 273.5,479.5C 273.13,474.288 272.796,469.121 272.5,464C 273.167,463.667 273.833,463.333 274.5,463C 270.583,460.544 266.583,458.377 262.5,456.5C 267.108,455.001 271.442,455.334 275.5,457.5C 276.5,458.167 277.5,458.833 278.5,459.5C 280.264,464.644 280.931,469.977 280.5,475.5C 276.972,487.239 274.639,499.239 273.5,511.5C 240.167,511.5 206.833,511.5 173.5,511.5C 173.5,486.833 173.5,462.167 173.5,437.5C 173.5,432.833 173.5,428.167 173.5,423.5C 174.167,417.321 174.833,410.988 175.5,404.5C 178.869,406.523 181.869,409.023 184.5,412C 185.167,412.667 185.833,412.667 186.5,412C 182.63,408.298 178.963,404.464 175.5,400.5C 175.296,397.446 173.962,394.946 171.5,393C 171.645,392.228 171.978,391.561 172.5,391C 169.284,387.115 167.617,382.615 167.5,377.5C 166.178,377.67 165.011,377.337 164,376.5C 163.012,370.198 160.845,364.365 157.5,359C 158.526,356.536 157.692,354.702 155,353.5C 153.302,348.607 151.469,343.773 149.5,339C 149.893,335.241 150.559,331.574 151.5,328C 151.006,324.288 151.006,320.454 151.5,316.5C 151.984,312.057 150.984,308.057 148.5,304.5C 151.107,303.682 153.774,303.182 156.5,303C 155.062,302.781 153.729,302.281 152.5,301.5C 154.969,300.832 157.302,300.165 159.5,299.5C 157.052,298.527 154.385,298.194 151.5,298.5 Z"/></g>
<g><path style="opacity:1" fill="#cfcbcb" d="M 173.5,437.5 C 173.5,462.167 173.5,486.833 173.5,511.5C 172.833,511.5 172.167,511.5 171.5,511.5C 171.662,486.659 172.329,461.993 173.5,437.5 Z"/></g>
</svg>
