<?xml version="1.0" encoding="UTF-8"?>
<!DOCTYPE svg PUBLIC "-//W3C//DTD SVG 1.1//EN" "http://www.w3.org/Graphics/SVG/1.1/DTD/svg11.dtd">
<svg xmlns="http://www.w3.org/2000/svg" version="1.1" width="512px" height="512px" style="shape-rendering:geometricPrecision; text-rendering:geometricPrecision; image-rendering:optimizeQuality; fill-rule:evenodd; clip-rule:evenodd" xmlns:xlink="http://www.w3.org/1999/xlink">
<g><path style="opacity:1" fill="#628494" d="M -0.5,-0.5 C 0.5,-0.5 1.5,-0.5 2.5,-0.5C 4.14623,1.75135 6.3129,3.41802 9,4.5C 37.5353,4.37485 66.2019,3.70819 95,2.5C 119.132,2.98906 143.298,3.98906 167.5,5.5C 199.64,4.2271 231.806,3.56043 264,3.5C 293.5,3.83333 323,4.16667 352.5,4.5C 354.333,7.2904 355.333,6.95707 355.5,3.5C 376.127,4.12903 396.627,3.46236 417,1.5C 421.72,3.27827 426.553,4.6116 431.5,5.5C 431.5,6.83333 431.5,8.16667 431.5,9.5C 425.986,10.5902 420.653,12.2569 415.5,14.5C 417.743,15.4742 420.076,15.8076 422.5,15.5C 422.491,17.3084 422.991,18.9751 424,20.5C 427.417,23.4611 431.25,25.7944 435.5,27.5C 437.473,30.2458 438.973,33.2458 440,36.5C 441.981,38.6575 444.314,40.3241 447,41.5C 447.333,43.5 447.667,45.5 448,47.5C 453,42.1667 458,36.8333 463,31.5C 463.49,32.7932 463.657,34.1266 463.5,35.5C 474.167,35.5 484.833,35.5 495.5,35.5C 495.5,34.1667 495.5,32.8333 495.5,31.5C 498.167,31.5 500.833,31.5 503.5,31.5C 503.5,26.1667 503.5,20.8333 503.5,15.5C 505.199,15.6602 506.866,15.4935 508.5,15C 504.685,13.0913 500.685,11.758 496.5,11C 495.409,8.93615 495.242,6.76948 496,4.5C 500.324,3.75013 504.157,2.08346 507.5,-0.5C 508.833,-0.5 510.167,-0.5 511.5,-0.5C 511.5,170.167 511.5,340.833 511.5,511.5C 503.833,511.5 496.167,511.5 488.5,511.5C 490.177,509.502 492.177,509.169 494.5,510.5C 497.443,509.756 500.443,509.256 503.5,509C 499.844,508.921 496.51,507.921 493.5,506C 496.332,504.092 495.999,503.259 492.5,503.5C 492.146,500.579 493.146,498.246 495.5,496.5C 493.257,495.526 490.924,495.192 488.5,495.5C 487.697,490.524 484.864,487.191 480,485.5C 479.501,480.845 479.334,476.179 479.5,471.5C 476.843,471.838 474.51,471.171 472.5,469.5C 471.557,464.9 471.223,460.233 471.5,455.5C 468.15,455.665 464.817,455.498 461.5,455C 464.792,454.244 465.792,452.411 464.5,449.5C 462.587,450.373 460.753,451.373 459,452.5C 455.836,449.855 454.669,450.855 455.5,455.5C 454.022,455.762 452.689,455.429 451.5,454.5C 454.039,451.816 454.039,449.149 451.5,446.5C 452,446.167 452.5,445.833 453,445.5C 455.216,447.366 457.716,448.2 460.5,448C 458.194,446.335 455.861,444.669 453.5,443C 453.554,441.649 453.054,440.482 452,439.5C 451.5,439.667 451,439.833 450.5,440C 451.337,441.011 451.67,442.178 451.5,443.5C 448.266,442.424 444.932,441.757 441.5,441.5C 441.083,444.079 441.75,446.246 443.5,448C 443.167,448.333 442.833,448.667 442.5,449C 440.243,448.69 437.91,448.19 435.5,447.5C 432.846,448.013 430.679,448.68 429,449.5C 428.192,451.579 428.359,453.579 429.5,455.5C 431.065,450.296 432.399,450.296 433.5,455.5C 436.25,455.618 438.25,456.951 439.5,459.5C 437.926,460.631 436.259,460.798 434.5,460C 433.601,458.764 432.434,457.93 431,457.5C 428.367,458.656 425.7,459.656 423,460.5C 422.362,459.391 421.862,458.225 421.5,457C 422.723,454.999 424.223,454.165 426,454.5C 426.814,452.098 426.647,449.765 425.5,447.5C 424.571,448.689 424.238,450.022 424.5,451.5C 417.793,451.708 415.793,448.708 418.5,442.5C 416.46,438.075 415.293,433.409 415,428.5C 412.622,426.291 410.455,423.958 408.5,421.5C 407.5,422.5 406.5,423.5 405.5,424.5C 408.691,425.512 411.524,427.512 414,430.5C 414.405,434.266 415.239,437.933 416.5,441.5C 416.263,444.063 415.763,444.063 415,441.5C 413.176,442.749 413.343,443.915 415.5,445C 413.37,448.266 411.704,447.933 410.5,444C 409.552,443.517 408.552,443.351 407.5,443.5C 407.5,442.167 407.5,440.833 407.5,439.5C 404.924,440.107 402.591,441.274 400.5,443C 397.153,444.206 394.82,443.206 393.5,440C 395.158,439.275 395.658,438.108 395,436.5C 393.333,435.833 391.667,435.167 390,434.5C 389.175,430.789 389.341,427.122 390.5,423.5C 393.438,424.575 396.438,424.741 399.5,424C 393.931,422.853 388.598,421.019 383.5,418.5C 385.335,417.572 385.668,416.406 384.5,415C 385.951,415.263 387.284,415.096 388.5,414.5C 387.273,413.41 386.44,412.076 386,410.5C 384.632,412.815 383.799,412.815 383.5,410.5C 384.39,409.045 384.39,407.711 383.5,406.5C 384.689,405.571 386.022,405.238 387.5,405.5C 386.607,402.415 385.94,399.248 385.5,396C 385.755,393.844 386.422,391.844 387.5,390C 386.38,388.263 385.38,386.429 384.5,384.5C 385.547,379.906 387.714,375.906 391,372.5C 392.713,369.918 393.213,367.252 392.5,364.5C 393,364.167 393.5,363.833 394,363.5C 397.34,364.74 400.507,366.073 403.5,367.5C 403.253,360.112 403.753,352.779 405,345.5C 406.667,344.167 408.333,342.833 410,341.5C 410.495,339.527 410.662,337.527 410.5,335.5C 411.5,335.5 412.5,335.5 413.5,335.5C 413.5,334.167 413.5,332.833 413.5,331.5C 414.09,330.234 414.59,328.901 415,327.5C 415.333,328.167 415.667,328.833 416,329.5C 420.18,327.987 423.013,325.154 424.5,321C 423.752,299.522 423.419,277.688 423.5,255.5C 422.167,255.5 420.833,255.5 419.5,255.5C 419.5,250.167 419.5,244.833 419.5,239.5C 418.167,239.5 416.833,239.5 415.5,239.5C 415.5,228.833 415.5,218.167 415.5,207.5C 416.833,207.5 418.167,207.5 419.5,207.5C 419.5,186.167 419.5,164.833 419.5,143.5C 418.167,143.5 416.833,143.5 415.5,143.5C 415.662,141.473 415.495,139.473 415,137.5C 410.82,135.987 407.987,133.154 406.5,129C 408.964,125.518 408.298,122.518 404.5,120C 400.047,118.891 398.38,116.058 399.5,111.5C 398.167,111.5 396.833,111.5 395.5,111.5C 395.5,106.167 395.5,100.833 395.5,95.5C 394.5,95.5 393.5,95.5 392.5,95.5C 391.697,90.524 388.864,87.1907 384,85.5C 383.759,82.7111 383.092,80.0444 382,77.5C 377.333,72.8333 372.667,68.1667 368,63.5C 367.876,70.4714 365.709,70.8047 361.5,64.5C 358.232,63.513 354.898,63.1796 351.5,63.5C 351.662,61.4727 351.495,59.4727 351,57.5C 346.136,55.8093 343.303,52.476 342.5,47.5C 329.5,47.5 316.5,47.5 303.5,47.5C 303.5,46.1667 303.5,44.8333 303.5,43.5C 292.833,43.5 282.167,43.5 271.5,43.5C 271.5,42.1667 271.5,40.8333 271.5,39.5C 266.167,39.5 260.833,39.5 255.5,39.5C 255.5,38.5 255.5,37.5 255.5,36.5C 245.003,36.2296 234.337,35.8963 223.5,35.5C 223.5,34.1667 223.5,32.8333 223.5,31.5C 220.5,31.5 217.5,31.5 214.5,31.5C 213.655,26.6414 211.989,26.308 209.5,30.5C 208.335,29.5089 207.168,28.5089 206,27.5C 204.263,28.6198 202.429,29.6198 200.5,30.5C 200.167,29.8333 199.833,29.1667 199.5,28.5C 201.188,25.8021 201.354,23.1354 200,20.5C 199.439,23.29 198.106,25.6234 196,27.5C 194.193,24.0574 192.026,20.8907 189.5,18C 190.895,15.3211 191.561,12.4877 191.5,9.5C 188.119,9.42693 185.119,10.4269 182.5,12.5C 180.709,10.5403 178.543,9.20699 176,8.5C 175.555,10.5943 176.388,12.0943 178.5,13C 181.565,14.0867 184.565,14.7534 187.5,15C 186,15.8333 184.833,17 184,18.5C 182.159,15.9194 180.326,15.9194 178.5,18.5C 180.045,19.4519 181.712,19.7852 183.5,19.5C 183.5,20.5 183.5,21.5 183.5,22.5C 182.167,22.5 180.833,22.5 179.5,22.5C 179.109,29.6113 178.109,29.9447 176.5,23.5C 174.833,23.5 173.167,23.5 171.5,23.5C 171.819,21.2495 171.319,19.2495 170,17.5C 168.956,18.6226 168.29,19.9559 168,21.5C 165.524,22.6805 162.691,22.6805 159.5,21.5C 159.335,18.1501 159.502,14.8168 160,11.5C 163.159,10.255 162.993,9.08836 159.5,8C 157.833,7.33333 156.167,7.33333 154.5,8C 151.39,9.98171 148.057,11.4817 144.5,12.5C 142.239,11.3516 139.905,10.8516 137.5,11C 135.519,11.6054 135.185,12.6054 136.5,14C 138.813,14.662 141.146,15.162 143.5,15.5C 143.321,17.9541 143.987,20.1208 145.5,22C 144.576,23.8114 143.743,23.6447 143,21.5C 142.268,23.9232 140.768,25.0899 138.5,25C 136.683,23.2002 135.516,21.0336 135,18.5C 134.308,19.0253 133.808,19.6919 133.5,20.5C 135.256,22.1913 135.756,24.1913 135,26.5C 131.403,23.6156 127.236,22.7823 122.5,24C 121.333,24.5 120.5,25.3333 120,26.5C 119.607,23.367 118.774,20.367 117.5,17.5C 118.499,14.7389 120.499,13.4056 123.5,13.5C 128.664,17.0743 131.997,15.9077 133.5,10C 133.167,9.16667 132.833,8.33333 132.5,7.5C 131.167,8.5 129.833,9.5 128.5,10.5C 122.214,10.1785 116.214,8.84519 110.5,6.5C 107.362,7.87051 105.696,10.2038 105.5,13.5C 107.103,13.3118 108.437,13.8118 109.5,15C 106.544,19.7868 104.711,19.2868 104,13.5C 102.92,15.9962 101.586,18.3295 100,20.5C 97.9535,17.0362 96.2868,13.3695 95,9.5C 91.8333,10 90,11.8333 89.5,15C 91.7801,15.2326 93.7801,16.066 95.5,17.5C 94.3112,18.4287 92.9778,18.762 91.5,18.5C 91.7035,20.3904 91.0368,21.8904 89.5,23C 91.5644,23.6532 93.2311,24.8199 94.5,26.5C 95.7279,22.7657 97.3945,22.599 99.5,26C 98.5,26.8333 97.5,27.6667 96.5,28.5C 98.7454,30.6227 101.412,31.6227 104.5,31.5C 104.312,29.8967 104.812,28.5634 106,27.5C 108.192,32.7163 109.859,32.383 111,26.5C 112.236,27.3992 113.07,28.5659 113.5,30C 112.293,31.3002 111.626,32.8002 111.5,34.5C 104.981,36.266 98.314,37.4327 91.5,38C 91.1667,38.3333 90.8333,38.6667 90.5,39C 92.1341,39.4935 93.8008,39.6602 95.5,39.5C 95.5,40.8333 95.5,42.1667 95.5,43.5C 90.7869,43.2616 86.4536,44.4283 82.5,47C 83.1667,47.3333 83.8333,47.6667 84.5,48C 81.3281,49.7586 78.6615,52.0919 76.5,55C 74.1902,55.4966 71.8568,55.6633 69.5,55.5C 69.6633,57.8568 69.4966,60.1902 69,62.5C 65.1894,64.8834 64.6894,67.7168 67.5,71C 63.8333,71.6667 60.1667,71.6667 56.5,71C 55.8095,69.9326 55.3095,68.7659 55,67.5C 54.8446,69.856 54.8446,72.1893 55,74.5C 52.6243,75.3758 51.1243,77.0425 50.5,79.5C 50.1667,79 49.8333,78.5 49.5,78C 51.8779,75.3124 52.0446,72.4791 50,69.5C 48.2292,71.5845 46.8958,73.9178 46,76.5C 44.707,74.7141 44.207,73.0474 44.5,71.5C 43.1667,74.1667 43.1667,76.8333 44.5,79.5C 45.1924,78.9747 45.6924,78.3081 46,77.5C 48.3106,79.5173 47.9772,80.8507 45,81.5C 41.1667,80 40,81.1667 41.5,85C 41.0946,85.9454 40.428,86.6121 39.5,87C 41.056,88.599 42.7227,90.099 44.5,91.5C 41.6888,93.4806 39.8555,96.1473 39,99.5C 38.2607,97.7795 37.4274,96.1128 36.5,94.5C 36.1667,94.6667 35.8333,94.8333 35.5,95C 36.0126,97.7181 36.0126,100.551 35.5,103.5C 36.5,103.5 37.5,103.5 38.5,103.5C 37.618,106.156 36.2847,108.656 34.5,111C 35.6667,111.5 36.5,112.333 37,113.5C 37.9147,112.672 38.5814,111.672 39,110.5C 38.5594,113.866 38.7261,117.2 39.5,120.5C 38.0446,121.745 36.7113,121.578 35.5,120C 36.7596,118.186 36.7596,116.353 35.5,114.5C 34.5481,116.045 34.2148,117.712 34.5,119.5C 27.2125,117.617 23.5458,120.284 23.5,127.5C 26.1667,126.167 28.8333,126.167 31.5,127.5C 31.6666,140.171 31.4999,152.838 31,165.5C 26.1364,167.191 23.303,170.524 22.5,175.5C 20.1667,175.5 17.8333,175.5 15.5,175.5C 15.6666,191.503 15.4999,207.503 15,223.5C 11.1878,220.018 7.68784,216.185 4.5,212C 3.06919,211.535 1.90252,210.701 1,209.5C 0.721579,210.416 0.221579,211.082 -0.5,211.5C -0.5,140.833 -0.5,70.1667 -0.5,-0.5 Z"/></g>
<g><path style="opacity:1" fill="#628497" d="M 2.5,-0.5 C 170.833,-0.5 339.167,-0.5 507.5,-0.5C 504.157,2.08346 500.324,3.75013 496,4.5C 495.242,6.76948 495.409,8.93615 496.5,11C 500.685,11.758 504.685,13.0913 508.5,15C 506.866,15.4935 505.199,15.6602 503.5,15.5C 503.5,20.8333 503.5,26.1667 503.5,31.5C 500.833,31.5 498.167,31.5 495.5,31.5C 495.5,32.8333 495.5,34.1667 495.5,35.5C 484.833,35.5 474.167,35.5 463.5,35.5C 463.657,34.1266 463.49,32.7932 463,31.5C 458,36.8333 453,42.1667 448,47.5C 447.667,45.5 447.333,43.5 447,41.5C 444.314,40.3241 441.981,38.6575 440,36.5C 438.973,33.2458 437.473,30.2458 435.5,27.5C 431.25,25.7944 427.417,23.4611 424,20.5C 422.991,18.9751 422.491,17.3084 422.5,15.5C 420.076,15.8076 417.743,15.4742 415.5,14.5C 420.653,12.2569 425.986,10.5902 431.5,9.5C 431.5,8.16667 431.5,6.83333 431.5,5.5C 426.553,4.6116 421.72,3.27827 417,1.5C 396.627,3.46236 376.127,4.12903 355.5,3.5C 355.333,6.95707 354.333,7.2904 352.5,4.5C 323,4.16667 293.5,3.83333 264,3.5C 231.806,3.56043 199.64,4.2271 167.5,5.5C 143.298,3.98906 119.132,2.98906 95,2.5C 66.2019,3.70819 37.5353,4.37485 9,4.5C 6.3129,3.41802 4.14623,1.75135 2.5,-0.5 Z"/></g>
<g><path style="opacity:1" fill="#618293" d="M 214.5,31.5 C 212.167,31.5 209.833,31.5 207.5,31.5C 207.334,37.8421 207.5,44.1754 208,50.5C 210.422,52.7509 213.088,53.0842 216,51.5C 218.472,52.3219 220.972,52.9886 223.5,53.5C 224.733,57.1318 227.399,58.7984 231.5,58.5C 231.5,60.1667 231.5,61.8333 231.5,63.5C 235.509,64.6141 239.509,65.9474 243.5,67.5C 249.473,66.4274 255.14,64.594 260.5,62C 264.211,61.1747 267.878,61.3414 271.5,62.5C 276.5,67.8333 281.5,73.1667 286.5,78.5C 269.401,80.9382 269.735,82.4382 287.5,83C 292.606,83.9565 297.606,85.1232 302.5,86.5C 299.681,86.1312 296.848,85.7978 294,85.5C 261.492,86.28 228.992,87.28 196.5,88.5C 194.585,88.7845 192.919,88.4511 191.5,87.5C 184.589,84.4492 177.255,83.2825 169.5,84C 165.097,86.6235 163.431,90.4568 164.5,95.5C 163.972,96.7206 163.305,97.8873 162.5,99C 159.893,100.352 157.56,101.852 155.5,103.5C 149.212,104.785 143.878,107.785 139.5,112.5C 134.672,114.662 131.672,118.329 130.5,123.5C 126.812,127.694 122.812,131.861 118.5,136C 116,136.885 113.667,138.052 111.5,139.5C 110.977,153.413 109.643,167.079 107.5,180.5C 106.628,188.855 105.628,197.189 104.5,205.5C 103.318,211.301 102.652,217.301 102.5,223.5C 102.665,226.85 102.498,230.183 102,233.5C 100.202,239.114 98.7021,244.78 97.5,250.5C 91.4638,268.99 87.7971,287.99 86.5,307.5C 86.7531,312.524 87.2531,317.524 88,322.5C 90.9348,329.638 93.2682,336.971 95,344.5C 96.312,347.581 98.6454,349.248 102,349.5C 104.82,356.449 107.486,363.449 110,370.5C 115.099,375.758 120.932,380.091 127.5,383.5C 126.829,384.847 126.829,386.014 127.5,387C 131.123,388.105 134.79,389.105 138.5,390C 142.207,394.043 146.207,397.709 150.5,401C 156.454,403.047 162.454,404.547 168.5,405.5C 169.989,440.812 170.655,476.145 170.5,511.5C 113.5,511.5 56.5,511.5 -0.5,511.5C -0.5,411.5 -0.5,311.5 -0.5,211.5C 0.221579,211.082 0.721579,210.416 1,209.5C 1.90252,210.701 3.06919,211.535 4.5,212C 7.68784,216.185 11.1878,220.018 15,223.5C 15.4999,207.503 15.6666,191.503 15.5,175.5C 17.8333,175.5 20.1667,175.5 22.5,175.5C 23.303,170.524 26.1364,167.191 31,165.5C 31.4999,152.838 31.6666,140.171 31.5,127.5C 28.8333,126.167 26.1667,126.167 23.5,127.5C 23.5458,120.284 27.2125,117.617 34.5,119.5C 34.2148,117.712 34.5481,116.045 35.5,114.5C 36.7596,116.353 36.7596,118.186 35.5,120C 36.7113,121.578 38.0446,121.745 39.5,120.5C 38.7261,117.2 38.5594,113.866 39,110.5C 38.5814,111.672 37.9147,112.672 37,113.5C 36.5,112.333 35.6667,111.5 34.5,111C 36.2847,108.656 37.618,106.156 38.5,103.5C 37.5,103.5 36.5,103.5 35.5,103.5C 36.0126,100.551 36.0126,97.7181 35.5,95C 35.8333,94.8333 36.1667,94.6667 36.5,94.5C 37.4274,96.1128 38.2607,97.7795 39,99.5C 39.8555,96.1473 41.6888,93.4806 44.5,91.5C 42.7227,90.099 41.056,88.599 39.5,87C 40.428,86.6121 41.0946,85.9454 41.5,85C 40,81.1667 41.1667,80 45,81.5C 47.9772,80.8507 48.3106,79.5173 46,77.5C 45.6924,78.3081 45.1924,78.9747 44.5,79.5C 43.1667,76.8333 43.1667,74.1667 44.5,71.5C 44.207,73.0474 44.707,74.7141 46,76.5C 46.8958,73.9178 48.2292,71.5845 50,69.5C 52.0446,72.4791 51.8779,75.3124 49.5,78C 49.8333,78.5 50.1667,79 50.5,79.5C 51.1243,77.0425 52.6243,75.3758 55,74.5C 54.8446,72.1893 54.8446,69.856 55,67.5C 55.3095,68.7659 55.8095,69.9326 56.5,71C 60.1667,71.6667 63.8333,71.6667 67.5,71C 64.6894,67.7168 65.1894,64.8834 69,62.5C 69.4966,60.1902 69.6633,57.8568 69.5,55.5C 71.8568,55.6633 74.1902,55.4966 76.5,55C 78.6615,52.0919 81.3281,49.7586 84.5,48C 83.8333,47.6667 83.1667,47.3333 82.5,47C 86.4536,44.4283 90.7869,43.2616 95.5,43.5C 95.5,42.1667 95.5,40.8333 95.5,39.5C 93.8008,39.6602 92.1341,39.4935 90.5,39C 90.8333,38.6667 91.1667,38.3333 91.5,38C 98.314,37.4327 104.981,36.266 111.5,34.5C 111.626,32.8002 112.293,31.3002 113.5,30C 113.07,28.5659 112.236,27.3992 111,26.5C 109.859,32.383 108.192,32.7163 106,27.5C 104.812,28.5634 104.312,29.8967 104.5,31.5C 101.412,31.6227 98.7454,30.6227 96.5,28.5C 97.5,27.6667 98.5,26.8333 99.5,26C 97.3945,22.599 95.7279,22.7657 94.5,26.5C 93.2311,24.8199 91.5644,23.6532 89.5,23C 91.0368,21.8904 91.7035,20.3904 91.5,18.5C 92.9778,18.762 94.3112,18.4287 95.5,17.5C 93.7801,16.066 91.7801,15.2326 89.5,15C 90,11.8333 91.8333,10 95,9.5C 96.2868,13.3695 97.9535,17.0362 100,20.5C 101.586,18.3295 102.92,15.9962 104,13.5C 104.711,19.2868 106.544,19.7868 109.5,15C 108.437,13.8118 107.103,13.3118 105.5,13.5C 105.696,10.2038 107.362,7.87051 110.5,6.5C 116.214,8.84519 122.214,10.1785 128.5,10.5C 129.833,9.5 131.167,8.5 132.5,7.5C 132.833,8.33333 133.167,9.16667 133.5,10C 131.997,15.9077 128.664,17.0743 123.5,13.5C 120.499,13.4056 118.499,14.7389 117.5,17.5C 118.774,20.367 119.607,23.367 120,26.5C 120.5,25.3333 121.333,24.5 122.5,24C 127.236,22.7823 131.403,23.6156 135,26.5C 135.756,24.1913 135.256,22.1913 133.5,20.5C 133.808,19.6919 134.308,19.0253 135,18.5C 135.516,21.0336 136.683,23.2002 138.5,25C 140.768,25.0899 142.268,23.9232 143,21.5C 143.743,23.6447 144.576,23.8114 145.5,22C 143.987,20.1208 143.321,17.9541 143.5,15.5C 141.146,15.162 138.813,14.662 136.5,14C 135.185,12.6054 135.519,11.6054 137.5,11C 139.905,10.8516 142.239,11.3516 144.5,12.5C 148.057,11.4817 151.39,9.98171 154.5,8C 156.167,7.33333 157.833,7.33333 159.5,8C 162.993,9.08836 163.159,10.255 160,11.5C 159.502,14.8168 159.335,18.1501 159.5,21.5C 162.691,22.6805 165.524,22.6805 168,21.5C 168.29,19.9559 168.956,18.6226 170,17.5C 171.319,19.2495 171.819,21.2495 171.5,23.5C 173.167,23.5 174.833,23.5 176.5,23.5C 178.109,29.9447 179.109,29.6113 179.5,22.5C 180.833,22.5 182.167,22.5 183.5,22.5C 183.5,21.5 183.5,20.5 183.5,19.5C 181.712,19.7852 180.045,19.4519 178.5,18.5C 180.326,15.9194 182.159,15.9194 184,18.5C 184.833,17 186,15.8333 187.5,15C 184.565,14.7534 181.565,14.0867 178.5,13C 176.388,12.0943 175.555,10.5943 176,8.5C 178.543,9.20699 180.709,10.5403 182.5,12.5C 185.119,10.4269 188.119,9.42693 191.5,9.5C 191.561,12.4877 190.895,15.3211 189.5,18C 192.026,20.8907 194.193,24.0574 196,27.5C 198.106,25.6234 199.439,23.29 200,20.5C 201.354,23.1354 201.188,25.8021 199.5,28.5C 199.833,29.1667 200.167,29.8333 200.5,30.5C 202.429,29.6198 204.263,28.6198 206,27.5C 207.168,28.5089 208.335,29.5089 209.5,30.5C 211.989,26.308 213.655,26.6414 214.5,31.5 Z"/></g>
<g><path style="opacity:1" fill="#608396" d="M 214.5,31.5 C 217.5,31.5 220.5,31.5 223.5,31.5C 223.5,32.8333 223.5,34.1667 223.5,35.5C 234.337,35.8963 245.003,36.2296 255.5,36.5C 255.5,37.5 255.5,38.5 255.5,39.5C 260.833,39.5 266.167,39.5 271.5,39.5C 271.5,40.8333 271.5,42.1667 271.5,43.5C 282.167,43.5 292.833,43.5 303.5,43.5C 303.5,44.8333 303.5,46.1667 303.5,47.5C 316.5,47.5 329.5,47.5 342.5,47.5C 343.303,52.476 346.136,55.8093 351,57.5C 351.495,59.4727 351.662,61.4727 351.5,63.5C 354.898,63.1796 358.232,63.513 361.5,64.5C 365.709,70.8047 367.876,70.4714 368,63.5C 372.667,68.1667 377.333,72.8333 382,77.5C 383.092,80.0444 383.759,82.7111 384,85.5C 388.864,87.1907 391.697,90.524 392.5,95.5C 393.5,95.5 394.5,95.5 395.5,95.5C 395.5,100.833 395.5,106.167 395.5,111.5C 396.833,111.5 398.167,111.5 399.5,111.5C 398.38,116.058 400.047,118.891 404.5,120C 408.298,122.518 408.964,125.518 406.5,129C 407.987,133.154 410.82,135.987 415,137.5C 415.495,139.473 415.662,141.473 415.5,143.5C 416.833,143.5 418.167,143.5 419.5,143.5C 419.5,164.833 419.5,186.167 419.5,207.5C 418.167,207.5 416.833,207.5 415.5,207.5C 415.5,218.167 415.5,228.833 415.5,239.5C 416.833,239.5 418.167,239.5 419.5,239.5C 419.5,244.833 419.5,250.167 419.5,255.5C 420.833,255.5 422.167,255.5 423.5,255.5C 423.419,277.688 423.752,299.522 424.5,321C 423.013,325.154 420.18,327.987 416,329.5C 415.667,328.833 415.333,328.167 415,327.5C 414.59,328.901 414.09,330.234 413.5,331.5C 410.987,329.305 409.654,326.471 409.5,323C 411.06,319.275 411.56,315.442 411,311.5C 410.667,313.5 410.333,315.5 410,317.5C 408.602,312.669 407.102,308.002 405.5,303.5C 404.256,293.659 403.089,283.659 402,273.5C 399.966,266.552 397.466,259.885 394.5,253.5C 391.098,242.995 388.265,232.329 386,221.5C 383.652,204.708 381.485,188.041 379.5,171.5C 379.249,163.411 378.249,155.411 376.5,147.5C 375.277,144.553 373.277,143.553 370.5,144.5C 369.378,143.37 368.044,142.703 366.5,142.5C 352.001,123.168 335.001,106.335 315.5,92C 311.347,89.9208 307.014,88.4208 302.5,87.5C 302.5,87.1667 302.5,86.8333 302.5,86.5C 297.606,85.1232 292.606,83.9565 287.5,83C 269.735,82.4382 269.401,80.9382 286.5,78.5C 281.5,73.1667 276.5,67.8333 271.5,62.5C 267.878,61.3414 264.211,61.1747 260.5,62C 255.14,64.594 249.473,66.4274 243.5,67.5C 239.509,65.9474 235.509,64.6141 231.5,63.5C 231.5,61.8333 231.5,60.1667 231.5,58.5C 227.399,58.7984 224.733,57.1318 223.5,53.5C 220.972,52.9886 218.472,52.3219 216,51.5C 213.088,53.0842 210.422,52.7509 208,50.5C 207.5,44.1754 207.334,37.8421 207.5,31.5C 209.833,31.5 212.167,31.5 214.5,31.5 Z"/></g>
<g><path style="opacity:1" fill="#010101" d="M 191.5,87.5 C 192.919,88.4511 194.585,88.7845 196.5,88.5C 200.614,89.8261 205.114,90.4927 210,90.5C 240.763,87.862 271.597,86.862 302.5,87.5C 307.014,88.4208 311.347,89.9208 315.5,92C 335.001,106.335 352.001,123.168 366.5,142.5C 368.193,145.682 370.859,147.348 374.5,147.5C 374.335,150.518 374.502,153.518 375,156.5C 377.159,161.435 378.659,166.435 379.5,171.5C 381.485,188.041 383.652,204.708 386,221.5C 388.265,232.329 391.098,242.995 394.5,253.5C 394.141,257.475 393.807,261.475 393.5,265.5C 394.631,266.604 395.465,266.271 396,264.5C 397.236,266.307 397.57,268.307 397,270.5C 397.667,271.833 398.333,271.833 399,270.5C 399.915,275.324 400.748,280.157 401.5,285C 401.309,287.05 400.642,288.883 399.5,290.5C 400.025,291.192 400.692,291.692 401.5,292C 400.201,295.135 400.201,298.301 401.5,301.5C 400.286,303.069 398.619,303.902 396.5,304C 398.665,307.667 398.999,311.501 397.5,315.5C 398.076,318.826 398.743,321.826 399.5,324.5C 398.372,325.262 397.205,325.929 396,326.5C 395.727,328.329 394.893,329.829 393.5,331C 394.252,331.671 394.586,332.504 394.5,333.5C 394.666,337.514 394.499,341.514 394,345.5C 393.626,346.416 393.126,347.25 392.5,348C 387.769,349.57 384.435,352.736 382.5,357.5C 381.206,358.29 380.039,359.29 379,360.5C 377,365.167 375,369.833 373,374.5C 370.07,376.066 366.903,376.9 363.5,377C 362.207,379.052 361.207,381.219 360.5,383.5C 358.248,383.916 356.748,385.249 356,387.5C 355.333,386.167 354.667,386.167 354,387.5C 353.333,386.167 352.667,384.833 352,383.5C 350.846,384.743 349.512,385.743 348,386.5C 346.876,378.203 345.876,369.869 345,361.5C 344.817,364.365 344.317,367.031 343.5,369.5C 343.5,368.167 343.5,366.833 343.5,365.5C 343.46,360.807 343.127,356.141 342.5,351.5C 342.667,324.831 342.5,298.165 342,271.5C 341.827,265.984 341.327,260.651 340.5,255.5C 332.986,254.067 325.319,253.067 317.5,252.5C 314.167,252.5 310.833,252.5 307.5,252.5C 307.5,252.167 307.5,251.833 307.5,251.5C 304.695,250.681 301.695,250.181 298.5,250C 297.991,247.43 296.991,245.097 295.5,243C 293.326,242.123 291.659,242.623 290.5,244.5C 285.679,249.14 282.679,254.807 281.5,261.5C 279.321,265.203 277.655,269.203 276.5,273.5C 275.469,274.355 274.303,275.022 273,275.5C 271.019,274.35 269.186,273.016 267.5,271.5C 263.792,267.79 259.792,264.457 255.5,261.5C 253.879,259.058 251.546,257.725 248.5,257.5C 247.415,255.413 245.749,254.08 243.5,253.5C 239.854,251.672 236.521,249.338 233.5,246.5C 232.243,243.573 230.243,241.239 227.5,239.5C 227.672,238.508 227.338,237.842 226.5,237.5C 224.129,232.798 220.462,229.464 215.5,227.5C 211.171,220.023 206.504,219.69 201.5,226.5C 199.616,226.712 198.283,227.712 197.5,229.5C 195.833,228.667 194.167,227.833 192.5,227C 191.663,225.989 191.33,224.822 191.5,223.5C 188.843,223.162 186.51,223.829 184.5,225.5C 180.938,230.332 176.938,234.832 172.5,239C 170.793,239.195 169.126,239.195 167.5,239C 168.152,241.09 168.319,243.257 168,245.5C 171.287,244.999 174.287,243.332 177,240.5C 177.5,240.667 178,240.833 178.5,241C 177.167,242 175.833,243 174.5,244C 177.373,246.092 180.707,247.092 184.5,247C 186.32,247.2 187.653,248.034 188.5,249.5C 187.791,250.404 186.791,250.737 185.5,250.5C 180.821,250.334 176.155,250.501 171.5,251C 171,251.5 170.5,252 170,252.5C 169.174,264.341 169.341,276.007 170.5,287.5C 170.294,320.833 169.96,354.166 169.5,387.5C 169.5,393.167 169.5,398.833 169.5,404.5C 165.619,403.226 161.952,401.393 158.5,399C 155.711,398.759 153.044,398.092 150.5,397C 146.167,394 142.5,390.333 139.5,386C 135.573,384.842 131.573,384.009 127.5,383.5C 120.932,380.091 115.099,375.758 110,370.5C 107.486,363.449 104.82,356.449 102,349.5C 98.6454,349.248 96.312,347.581 95,344.5C 93.2682,336.971 90.9348,329.638 88,322.5C 87.2531,317.524 86.7531,312.524 86.5,307.5C 87.7971,287.99 91.4638,268.99 97.5,250.5C 99.9754,249.313 100.975,247.313 100.5,244.5C 101.5,244.5 102.5,244.5 103.5,244.5C 103.305,240.085 103.805,235.751 105,231.5C 105.915,232.328 106.581,233.328 107,234.5C 107.42,230.809 107.92,227.142 108.5,223.5C 107.5,223.5 106.5,223.5 105.5,223.5C 106.403,219.188 106.569,214.855 106,210.5C 107.913,213.035 109.08,212.535 109.5,209C 108.99,207.174 108.156,207.007 107,208.5C 106.348,200.698 107.514,193.198 110.5,186C 109.724,184.23 109.89,182.397 111,180.5C 111.499,174.843 111.666,169.176 111.5,163.5C 111.5,162.167 111.5,160.833 111.5,159.5C 112.324,155.688 112.824,151.688 113,147.5C 118.079,141.661 122.913,135.661 127.5,129.5C 128.904,127.745 129.904,125.745 130.5,123.5C 133.064,119.59 136.064,115.923 139.5,112.5C 143.878,107.785 149.212,104.785 155.5,103.5C 158.522,103.196 161.522,102.696 164.5,102C 165.423,99.9592 165.756,97.7925 165.5,95.5C 165.338,93.4727 165.505,91.4727 166,89.5C 167.5,88 169,86.5 170.5,85C 177.559,85.399 184.559,86.2323 191.5,87.5 Z"/></g>
<g><path style="opacity:1" fill="#3b525d" d="M 191.5,87.5 C 184.559,86.2323 177.559,85.399 170.5,85C 169,86.5 167.5,88 166,89.5C 165.505,91.4727 165.338,93.4727 165.5,95.5C 165.167,95.5 164.833,95.5 164.5,95.5C 163.431,90.4568 165.097,86.6235 169.5,84C 177.255,83.2825 184.589,84.4492 191.5,87.5 Z"/></g>
<g><path style="opacity:1" fill="#0a1217" d="M 302.5,86.5 C 302.5,86.8333 302.5,87.1667 302.5,87.5C 271.597,86.862 240.763,87.862 210,90.5C 205.114,90.4927 200.614,89.8261 196.5,88.5C 228.992,87.28 261.492,86.28 294,85.5C 296.848,85.7978 299.681,86.1312 302.5,86.5 Z"/></g>
<g><path style="opacity:1" fill="#18242b" d="M 164.5,95.5 C 164.833,95.5 165.167,95.5 165.5,95.5C 165.756,97.7925 165.423,99.9592 164.5,102C 161.522,102.696 158.522,103.196 155.5,103.5C 157.56,101.852 159.893,100.352 162.5,99C 163.305,97.8873 163.972,96.7206 164.5,95.5 Z"/></g>
<g><path style="opacity:1" fill="#2b434f" d="M 139.5,112.5 C 136.064,115.923 133.064,119.59 130.5,123.5C 131.672,118.329 134.672,114.662 139.5,112.5 Z"/></g>
<g><path style="opacity:1" fill="#3c5a68" d="M 130.5,123.5 C 129.904,125.745 128.904,127.745 127.5,129.5C 123.286,132.549 119.952,136.382 117.5,141C 115.324,141.163 113.491,141.996 112,143.5C 111.501,148.823 111.334,154.156 111.5,159.5C 111.5,160.833 111.5,162.167 111.5,163.5C 109.631,169.048 108.298,174.715 107.5,180.5C 109.643,167.079 110.977,153.413 111.5,139.5C 113.667,138.052 116,136.885 118.5,136C 122.812,131.861 126.812,127.694 130.5,123.5 Z"/></g>
<g><path style="opacity:1" fill="#223239" d="M 127.5,129.5 C 122.913,135.661 118.079,141.661 113,147.5C 112.824,151.688 112.324,155.688 111.5,159.5C 111.334,154.156 111.501,148.823 112,143.5C 113.491,141.996 115.324,141.163 117.5,141C 119.952,136.382 123.286,132.549 127.5,129.5 Z"/></g>
<g><path style="opacity:1" fill="#151f29" d="M 366.5,142.5 C 368.044,142.703 369.378,143.37 370.5,144.5C 373.277,143.553 375.277,144.553 376.5,147.5C 378.249,155.411 379.249,163.411 379.5,171.5C 378.659,166.435 377.159,161.435 375,156.5C 374.502,153.518 374.335,150.518 374.5,147.5C 370.859,147.348 368.193,145.682 366.5,142.5 Z"/></g>
<g><path style="opacity:1" fill="#060e12" d="M 111.5,163.5 C 111.666,169.176 111.499,174.843 111,180.5C 109.89,182.397 109.724,184.23 110.5,186C 107.514,193.198 106.348,200.698 107,208.5C 108.156,207.007 108.99,207.174 109.5,209C 109.08,212.535 107.913,213.035 106,210.5C 106.569,214.855 106.403,219.188 105.5,223.5C 106.5,223.5 107.5,223.5 108.5,223.5C 107.92,227.142 107.42,230.809 107,234.5C 106.581,233.328 105.915,232.328 105,231.5C 103.805,235.751 103.305,240.085 103.5,244.5C 102.5,244.5 101.5,244.5 100.5,244.5C 100.975,247.313 99.9754,249.313 97.5,250.5C 98.7021,244.78 100.202,239.114 102,233.5C 102.498,230.183 102.665,226.85 102.5,223.5C 104.228,217.762 104.895,211.762 104.5,205.5C 105.628,197.189 106.628,188.855 107.5,180.5C 108.298,174.715 109.631,169.048 111.5,163.5 Z"/></g>
<g><path style="opacity:1" fill="#3f535e" d="M 104.5,205.5 C 104.895,211.762 104.228,217.762 102.5,223.5C 102.652,217.301 103.318,211.301 104.5,205.5 Z"/></g>
<g><path style="opacity:1" fill="#433b32" d="M 215.5,227.5 C 213.122,225.959 210.622,224.625 208,223.5C 205.458,224.205 203.292,225.539 201.5,227.5C 201.5,227.167 201.5,226.833 201.5,226.5C 206.504,219.69 211.171,220.023 215.5,227.5 Z"/></g>
<g><path style="opacity:1" fill="#0c0603" d="M 201.5,226.5 C 201.5,226.833 201.5,227.167 201.5,227.5C 201.5,228.833 201.5,230.167 201.5,231.5C 202.797,236.018 204.463,240.351 206.5,244.5C 203.447,244.111 200.78,244.777 198.5,246.5C 197.508,246.328 196.842,246.662 196.5,247.5C 193.888,248.371 191.221,249.037 188.5,249.5C 187.653,248.034 186.32,247.2 184.5,247C 180.707,247.092 177.373,246.092 174.5,244C 175.833,243 177.167,242 178.5,241C 178,240.833 177.5,240.667 177,240.5C 174.287,243.332 171.287,244.999 168,245.5C 168.319,243.257 168.152,241.09 167.5,239C 169.126,239.195 170.793,239.195 172.5,239C 176.938,234.832 180.938,230.332 184.5,225.5C 186.51,223.829 188.843,223.162 191.5,223.5C 191.33,224.822 191.663,225.989 192.5,227C 194.167,227.833 195.833,228.667 197.5,229.5C 198.283,227.712 199.616,226.712 201.5,226.5 Z"/></g>
<g><path style="opacity:1" fill="#a08261" d="M 215.5,227.5 C 216.289,230.434 218.289,232.268 221.5,233C 223.041,234.371 224.375,235.871 225.5,237.5C 223.5,236.833 221.5,236.167 219.5,235.5C 218.393,233.031 216.393,232.031 213.5,232.5C 213.5,231.167 213.5,229.833 213.5,228.5C 210.672,227.756 208.006,226.922 205.5,226C 203.163,228.194 202.83,230.694 204.5,233.5C 203.5,232.833 202.5,232.167 201.5,231.5C 201.5,230.167 201.5,228.833 201.5,227.5C 203.292,225.539 205.458,224.205 208,223.5C 210.622,224.625 213.122,225.959 215.5,227.5 Z"/></g>
<g><path style="opacity:1" fill="#be986c" d="M 219.5,235.5 C 217.283,236.369 214.95,236.702 212.5,236.5C 213.114,240.135 213.448,243.802 213.5,247.5C 212.167,247.5 210.833,247.5 209.5,247.5C 205.167,247.5 200.833,247.5 196.5,247.5C 196.842,246.662 197.508,246.328 198.5,246.5C 202.5,246.5 206.5,246.5 210.5,246.5C 209.899,241.552 207.899,237.219 204.5,233.5C 202.83,230.694 203.163,228.194 205.5,226C 208.006,226.922 210.672,227.756 213.5,228.5C 213.5,229.833 213.5,231.167 213.5,232.5C 216.393,232.031 218.393,233.031 219.5,235.5 Z"/></g>
<g><path style="opacity:1" fill="#534432" d="M 215.5,227.5 C 220.462,229.464 224.129,232.798 226.5,237.5C 226.167,237.5 225.833,237.5 225.5,237.5C 224.375,235.871 223.041,234.371 221.5,233C 218.289,232.268 216.289,230.434 215.5,227.5 Z"/></g>
<g><path style="opacity:1" fill="#4d3c2c" d="M 201.5,231.5 C 202.5,232.167 203.5,232.833 204.5,233.5C 207.899,237.219 209.899,241.552 210.5,246.5C 206.5,246.5 202.5,246.5 198.5,246.5C 200.78,244.777 203.447,244.111 206.5,244.5C 204.463,240.351 202.797,236.018 201.5,231.5 Z"/></g>
<g><path style="opacity:1" fill="#69533b" d="M 227.5,239.5 C 230.243,241.239 232.243,243.573 233.5,246.5C 230.757,244.761 228.757,242.427 227.5,239.5 Z"/></g>
<g><path style="opacity:1" fill="#cea97d" d="M 219.5,235.5 C 221.5,236.167 223.5,236.833 225.5,237.5C 225.833,237.5 226.167,237.5 226.5,237.5C 227.338,237.842 227.672,238.508 227.5,239.5C 228.757,242.427 230.757,244.761 233.5,246.5C 236.521,249.338 239.854,251.672 243.5,253.5C 243.833,254.167 244.167,254.833 244.5,255.5C 242.328,255.163 240.495,254.163 239,252.5C 236.549,254.156 233.715,255.489 230.5,256.5C 229.01,253.815 226.843,251.148 224,248.5C 222.812,249.563 222.312,250.897 222.5,252.5C 228.12,254.83 227.787,255.83 221.5,255.5C 221.693,258.308 222.36,260.975 223.5,263.5C 220.452,264.885 218.452,267.219 217.5,270.5C 216.675,271.386 215.675,271.719 214.5,271.5C 213.862,269.54 213.862,267.707 214.5,266C 210.799,263.216 209.466,259.716 210.5,255.5C 212.679,254.243 214.679,252.743 216.5,251C 214.807,250.153 213.14,249.32 211.5,248.5C 210.508,248.672 209.842,248.338 209.5,247.5C 210.833,247.5 212.167,247.5 213.5,247.5C 213.448,243.802 213.114,240.135 212.5,236.5C 214.95,236.702 217.283,236.369 219.5,235.5 Z"/></g>
<g><path style="opacity:1" fill="#eacaa4" d="M 196.5,247.5 C 200.833,247.5 205.167,247.5 209.5,247.5C 209.842,248.338 210.508,248.672 211.5,248.5C 211.5,249.833 211.5,251.167 211.5,252.5C 208.506,253.154 205.506,253.821 202.5,254.5C 197.278,254.451 191.945,253.951 186.5,253C 189.985,251.245 193.319,249.412 196.5,247.5 Z"/></g>
<g><path style="opacity:1" fill="#584e3d" d="M 307.5,251.5 C 304.15,251.665 300.817,251.498 297.5,251C 296.009,248.903 295.009,246.57 294.5,244C 293.181,243.805 291.847,243.972 290.5,244.5C 291.659,242.623 293.326,242.123 295.5,243C 296.991,245.097 297.991,247.43 298.5,250C 301.695,250.181 304.695,250.681 307.5,251.5 Z"/></g>
<g><path style="opacity:1" fill="#4d4237" d="M 317.5,252.5 C 325.319,253.067 332.986,254.067 340.5,255.5C 332.473,255.968 324.806,254.968 317.5,252.5 Z"/></g>
<g><path style="opacity:1" fill="#6d5c46" d="M 243.5,253.5 C 245.749,254.08 247.415,255.413 248.5,257.5C 246.938,257.267 245.605,256.6 244.5,255.5C 244.167,254.833 243.833,254.167 243.5,253.5 Z"/></g>
<g><path style="opacity:1" fill="#534330" d="M 248.5,257.5 C 251.546,257.725 253.879,259.058 255.5,261.5C 252.454,261.275 250.121,259.942 248.5,257.5 Z"/></g>
<g><path style="opacity:1" fill="#b79976" d="M 185.5,250.5 C 182.311,251.166 178.977,251.833 175.5,252.5C 177.46,254.291 178.793,256.457 179.5,259C 178.421,259.956 177.255,260.789 176,261.5C 175.703,264.914 175.036,268.247 174,271.5C 173.583,272.756 172.75,273.423 171.5,273.5C 170.258,274.671 169.925,279.338 170.5,287.5C 169.341,276.007 169.174,264.341 170,252.5C 170.5,252 171,251.5 171.5,251C 176.155,250.501 180.821,250.334 185.5,250.5 Z"/></g>
<g><path style="opacity:1" fill="#d9b187" d="M 196.5,247.5 C 193.319,249.412 189.985,251.245 186.5,253C 191.945,253.951 197.278,254.451 202.5,254.5C 205.506,253.821 208.506,253.154 211.5,252.5C 211.5,251.167 211.5,249.833 211.5,248.5C 213.14,249.32 214.807,250.153 216.5,251C 214.679,252.743 212.679,254.243 210.5,255.5C 209.466,259.716 210.799,263.216 214.5,266C 213.862,267.707 213.862,269.54 214.5,271.5C 215.675,271.719 216.675,271.386 217.5,270.5C 218.452,267.219 220.452,264.885 223.5,263.5C 223.5,267.167 223.5,270.833 223.5,274.5C 226.833,274.5 228.5,276.167 228.5,279.5C 226.712,279.215 225.045,279.548 223.5,280.5C 222.653,281.845 221.487,282.845 220,283.5C 214.535,280.135 213.368,281.135 216.5,286.5C 218.743,287.474 221.076,287.808 223.5,287.5C 223.285,289.179 223.952,290.179 225.5,290.5C 226.043,290.56 226.376,290.893 226.5,291.5C 225.065,292.929 224.065,294.595 223.5,296.5C 225.463,298.183 225.63,299.849 224,301.5C 221.543,300.022 219.043,298.689 216.5,297.5C 208.233,299.661 199.9,300.328 191.5,299.5C 191.286,297.856 191.62,296.356 192.5,295C 191.107,293.829 190.273,292.329 190,290.5C 189.28,292.112 189.446,293.612 190.5,295C 189.833,295.667 189.167,296.333 188.5,297C 186.811,296.866 185.144,296.366 183.5,295.5C 185.823,291.034 188.157,286.534 190.5,282C 187.05,281.339 183.884,279.505 181,276.5C 180.085,277.328 179.419,278.328 179,279.5C 177.488,277.043 176.154,277.043 175,279.5C 174.147,277.875 173.147,277.542 172,278.5C 171.506,276.866 171.34,275.199 171.5,273.5C 172.75,273.423 173.583,272.756 174,271.5C 175.036,268.247 175.703,264.914 176,261.5C 177.255,260.789 178.421,259.956 179.5,259C 178.793,256.457 177.46,254.291 175.5,252.5C 178.977,251.833 182.311,251.166 185.5,250.5C 186.791,250.737 187.791,250.404 188.5,249.5C 191.221,249.037 193.888,248.371 196.5,247.5 Z"/></g>
<g><path style="opacity:1" fill="#b69977" d="M 307.5,251.5 C 307.5,251.833 307.5,252.167 307.5,252.5C 303.818,252.335 300.152,252.501 296.5,253C 294.911,254.745 292.911,255.912 290.5,256.5C 288.378,260.041 286.712,263.708 285.5,267.5C 284.432,266.566 283.099,266.232 281.5,266.5C 281.37,271.757 279.37,276.09 275.5,279.5C 273.974,279.006 272.641,278.339 271.5,277.5C 274.546,277.817 276.213,276.484 276.5,273.5C 277.79,272.942 278.623,271.942 279,270.5C 280.43,267.647 281.263,264.647 281.5,261.5C 282.679,254.807 285.679,249.14 290.5,244.5C 291.847,243.972 293.181,243.805 294.5,244C 295.009,246.57 296.009,248.903 297.5,251C 300.817,251.498 304.15,251.665 307.5,251.5 Z"/></g>
<g><path style="opacity:1" fill="#cca87e" d="M 307.5,252.5 C 310.833,252.5 314.167,252.5 317.5,252.5C 324.806,254.968 332.473,255.968 340.5,255.5C 341.014,287.664 341.68,319.664 342.5,351.5C 343.127,356.141 343.46,360.807 343.5,365.5C 342.835,363.631 342.169,361.631 341.5,359.5C 340.667,332.84 340.167,306.173 340,279.5C 339.722,278.584 339.222,277.918 338.5,277.5C 338.328,273.466 337.828,269.466 337,265.5C 336.38,273.119 332.213,276.952 324.5,277C 322.714,277.785 321.214,278.951 320,280.5C 319.326,279.422 318.326,278.755 317,278.5C 312.19,277.807 307.357,277.307 302.5,277C 300.316,276.133 298.149,275.299 296,274.5C 293.681,275.709 291.181,276.542 288.5,277C 290.595,277.556 290.762,278.056 289,278.5C 286.572,277.155 286.072,275.321 287.5,273C 286.115,271.403 285.449,269.57 285.5,267.5C 286.712,263.708 288.378,260.041 290.5,256.5C 292.911,255.912 294.911,254.745 296.5,253C 300.152,252.501 303.818,252.335 307.5,252.5 Z"/></g>
<g><path style="opacity:1" fill="#796552" d="M 281.5,261.5 C 281.263,264.647 280.43,267.647 279,270.5C 278.623,271.942 277.79,272.942 276.5,273.5C 277.655,269.203 279.321,265.203 281.5,261.5 Z"/></g>
<g><path style="opacity:1" fill="#deb88d" d="M 338.5,277.5 C 339.222,277.918 339.722,278.584 340,279.5C 340.167,306.173 340.667,332.84 341.5,359.5C 342.169,361.631 342.835,363.631 343.5,365.5C 343.5,366.833 343.5,368.167 343.5,369.5C 343.819,374.363 343.486,379.03 342.5,383.5C 340.995,385.981 339.328,388.481 337.5,391C 335.497,392.355 333.664,393.188 332,393.5C 331.383,394.449 331.549,395.282 332.5,396C 330.842,399.651 329.175,403.318 327.5,407C 328.64,410.59 327.806,413.757 325,416.5C 322.451,417.773 319.951,418.273 317.5,418C 316.5,419.667 315.167,421 313.5,422C 314.833,422.667 314.833,423.333 313.5,424C 310.542,424.229 308.042,425.396 306,427.5C 305.692,426.692 305.192,426.025 304.5,425.5C 303.571,426.689 303.238,428.022 303.5,429.5C 300.034,429.277 299.034,430.611 300.5,433.5C 298.653,436.199 297.653,439.199 297.5,442.5C 294.276,442.797 291.276,442.13 288.5,440.5C 283.538,442.158 278.538,443.325 273.5,444C 273.957,443.586 274.291,443.086 274.5,442.5C 273.5,441.833 272.5,441.167 271.5,440.5C 276.162,439.5 280.828,438.5 285.5,437.5C 289.086,438.865 290.086,437.698 288.5,434C 286.671,433.727 285.171,432.893 284,431.5C 281.92,423.522 278.087,422.522 272.5,428.5C 271.571,427.311 271.238,425.978 271.5,424.5C 266.793,424.931 262.793,423.598 259.5,420.5C 268.934,420.309 278.268,420.309 287.5,420.5C 287.826,418.339 288.826,416.506 290.5,415C 289.724,413.23 289.89,411.397 291,409.5C 291.333,410.167 291.667,410.833 292,411.5C 295.008,407.997 298.508,404.997 302.5,402.5C 303.386,401.675 303.719,400.675 303.5,399.5C 304.822,399.67 305.989,399.337 307,398.5C 308.783,395.922 309.949,393.089 310.5,390C 307.936,389.308 305.603,387.808 303.5,385.5C 303.5,384.833 303.5,384.167 303.5,383.5C 309.031,383.362 312.531,386.029 314,391.5C 314.497,394.146 314.664,396.813 314.5,399.5C 317.265,399.798 319.765,400.798 322,402.5C 323.904,397.008 325.404,391.342 326.5,385.5C 324.851,379.645 324.018,373.645 324,367.5C 323.5,356.839 323.333,346.172 323.5,335.5C 324.5,335.5 325.5,335.5 326.5,335.5C 326.059,330.673 324.893,326.007 323,321.5C 320.469,319.035 318.969,316.035 318.5,312.5C 315.807,309.804 313.474,306.804 311.5,303.5C 309.007,301.42 306.341,299.586 303.5,298C 304.451,297.282 304.617,296.449 304,295.5C 303.311,296.357 302.478,297.023 301.5,297.5C 296.285,295.296 290.785,293.962 285,293.5C 282.201,293.82 279.701,294.82 277.5,296.5C 278.246,297.736 278.579,299.07 278.5,300.5C 276.173,300.247 274.173,300.914 272.5,302.5C 266.872,303.495 261.206,303.829 255.5,303.5C 255.5,306.167 255.5,308.833 255.5,311.5C 260.833,311.5 266.167,311.5 271.5,311.5C 271.5,314.167 271.5,316.833 271.5,319.5C 273.167,319.5 274.833,319.5 276.5,319.5C 274.917,322.767 275.25,325.767 277.5,328.5C 276.757,329.182 276.091,329.849 275.5,330.5C 276.999,335.261 275.332,336.594 270.5,334.5C 266.629,335.003 263.129,336.337 260,338.5C 257.638,336.212 254.805,335.212 251.5,335.5C 249.167,335.5 246.833,335.5 244.5,335.5C 242.353,330.874 243.353,327.207 247.5,324.5C 244.983,322.49 243.483,319.823 243,316.5C 241.989,315.663 240.822,315.33 239.5,315.5C 239.662,313.473 239.495,311.473 239,309.5C 236.406,308.538 234.406,306.871 233,304.5C 231.695,307.306 229.528,308.14 226.5,307C 222.131,305.733 218.297,303.567 215,300.5C 212.162,302.462 209.162,302.795 206,301.5C 201.419,303.345 196.585,304.012 191.5,303.5C 191.308,308.13 191.975,312.63 193.5,317C 192.203,321.83 192.203,326.663 193.5,331.5C 191.321,338.207 190.988,345.041 192.5,352C 191.344,355.296 190.011,358.463 188.5,361.5C 186.833,361.5 185.167,361.5 183.5,361.5C 183.5,363.5 183.5,365.5 183.5,367.5C 182.167,367.5 180.833,367.5 179.5,367.5C 179.588,371.306 178.921,374.972 177.5,378.5C 178.274,379.711 179.107,379.711 180,378.5C 181.632,380.027 181.799,381.693 180.5,383.5C 179.5,382.833 178.5,382.167 177.5,381.5C 176.617,383.743 177.451,385.41 180,386.5C 181.693,385.816 183.193,384.816 184.5,383.5C 185.624,384.914 186.624,386.414 187.5,388C 184.22,390.895 182.554,394.562 182.5,399C 185.107,401.105 188.107,401.938 191.5,401.5C 191.5,403.167 191.5,404.833 191.5,406.5C 193.199,406.34 194.866,406.506 196.5,407C 199.706,409.034 203.04,410.867 206.5,412.5C 206.833,412.167 207.167,411.833 207.5,411.5C 206.692,407.025 204.026,404.692 199.5,404.5C 199.5,402.833 199.5,401.167 199.5,399.5C 198.5,399.5 197.5,399.5 196.5,399.5C 196.163,392.807 195.497,386.14 194.5,379.5C 194.699,374.646 196.199,374.313 199,378.5C 200.009,380.025 200.509,381.692 200.5,383.5C 202.833,383.5 205.167,383.5 207.5,383.5C 207.5,382.5 207.5,381.5 207.5,380.5C 211.94,378.928 216.274,377.428 220.5,376C 218.149,379.77 214.982,381.604 211,381.5C 212.022,384.642 212.522,387.975 212.5,391.5C 213.5,391.5 214.5,391.5 215.5,391.5C 215.579,392.93 215.246,394.264 214.5,395.5C 216.213,400.812 218.213,405.978 220.5,411C 220.441,412.436 220.108,413.769 219.5,415C 221.256,415.202 222.922,415.702 224.5,416.5C 222.937,419.029 220.604,420.029 217.5,419.5C 217.5,420.5 217.5,421.5 217.5,422.5C 220.157,422.838 222.49,422.171 224.5,420.5C 225.766,424.421 228.099,427.421 231.5,429.5C 230.77,431.045 229.437,431.878 227.5,432C 230.274,433.781 233.274,435.115 236.5,436C 235.91,437.299 234.91,438.132 233.5,438.5C 230.218,437.512 226.885,436.846 223.5,436.5C 223.5,434.833 223.5,433.167 223.5,431.5C 219.299,431.558 218.799,430.558 222,428.5C 222.333,428.833 222.667,429.167 223,429.5C 223.798,427.741 223.631,426.074 222.5,424.5C 218.538,427.843 214.372,427.843 210,424.5C 209.586,424.957 209.086,425.291 208.5,425.5C 207.833,423.5 207.167,421.5 206.5,419.5C 202.468,421.087 201.801,420.42 204.5,417.5C 203.243,415.321 201.743,413.321 200,411.5C 199.667,411.833 199.333,412.167 199,412.5C 193.621,409.803 188.621,406.47 184,402.5C 183.667,402.833 183.333,403.167 183,403.5C 181.277,400.227 178.777,399.227 175.5,400.5C 178.467,402.139 181.134,404.139 183.5,406.5C 182.833,406.833 182.167,407.167 181.5,407.5C 179.489,406.481 177.489,405.481 175.5,404.5C 174.167,404.167 172.833,403.833 171.5,403.5C 170.6,398.228 170.267,392.895 170.5,387.5C 171.004,364.774 172.337,342.108 174.5,319.5C 175.833,319.5 177.167,319.5 178.5,319.5C 179.412,314.425 180.745,309.425 182.5,304.5C 185.583,304.037 188.249,302.871 190.5,301C 188.1,300.814 185.766,300.314 183.5,299.5C 182.193,298.135 182.193,296.802 183.5,295.5C 185.144,296.366 186.811,296.866 188.5,297C 189.167,296.333 189.833,295.667 190.5,295C 189.446,293.612 189.28,292.112 190,290.5C 190.273,292.329 191.107,293.829 192.5,295C 191.62,296.356 191.286,297.856 191.5,299.5C 199.9,300.328 208.233,299.661 216.5,297.5C 219.043,298.689 221.543,300.022 224,301.5C 225.63,299.849 225.463,298.183 223.5,296.5C 224.065,294.595 225.065,292.929 226.5,291.5C 226.376,290.893 226.043,290.56 225.5,290.5C 233.899,288.368 242.565,287.368 251.5,287.5C 251.5,283.833 251.5,280.167 251.5,276.5C 252.833,276.5 254.167,276.5 255.5,276.5C 255.215,274.712 255.548,273.045 256.5,271.5C 256.755,273.343 256.922,275.343 257,277.5C 258.491,279.004 260.324,279.837 262.5,280C 263.227,281.399 263.727,282.899 264,284.5C 264.333,284.167 264.667,283.833 265,283.5C 266.789,285.229 268.956,285.896 271.5,285.5C 271.5,287.167 271.5,288.833 271.5,290.5C 273.199,290.66 274.866,290.494 276.5,290C 279.421,287.255 282.754,285.088 286.5,283.5C 287.503,285.542 288.837,285.875 290.5,284.5C 297.531,286.559 304.531,288.892 311.5,291.5C 312.457,293.918 313.791,296.084 315.5,298C 321.156,299.319 324.322,302.819 325,308.5C 326.185,310.844 328.018,311.677 330.5,311C 332.333,308.5 334.167,306 336,303.5C 336.667,314.167 337.333,324.833 338,335.5C 337.955,316.112 338.121,296.779 338.5,277.5 Z"/></g>
<g><path style="opacity:1" fill="#d6b38a" d="M 244.5,255.5 C 245.605,256.6 246.938,257.267 248.5,257.5C 250.121,259.942 252.454,261.275 255.5,261.5C 259.792,264.457 263.792,267.79 267.5,271.5C 268.415,273.754 269.748,275.754 271.5,277.5C 272.641,278.339 273.974,279.006 275.5,279.5C 279.37,276.09 281.37,271.757 281.5,266.5C 283.099,266.232 284.432,266.566 285.5,267.5C 285.449,269.57 286.115,271.403 287.5,273C 286.072,275.321 286.572,277.155 289,278.5C 290.762,278.056 290.595,277.556 288.5,277C 291.181,276.542 293.681,275.709 296,274.5C 298.149,275.299 300.316,276.133 302.5,277C 307.357,277.307 312.19,277.807 317,278.5C 318.326,278.755 319.326,279.422 320,280.5C 321.214,278.951 322.714,277.785 324.5,277C 332.213,276.952 336.38,273.119 337,265.5C 337.828,269.466 338.328,273.466 338.5,277.5C 338.121,296.779 337.955,316.112 338,335.5C 337.333,324.833 336.667,314.167 336,303.5C 334.167,306 332.333,308.5 330.5,311C 328.018,311.677 326.185,310.844 325,308.5C 324.322,302.819 321.156,299.319 315.5,298C 313.791,296.084 312.457,293.918 311.5,291.5C 304.531,288.892 297.531,286.559 290.5,284.5C 288.837,285.875 287.503,285.542 286.5,283.5C 282.754,285.088 279.421,287.255 276.5,290C 274.866,290.494 273.199,290.66 271.5,290.5C 271.5,288.833 271.5,287.167 271.5,285.5C 268.956,285.896 266.789,285.229 265,283.5C 264.667,283.833 264.333,284.167 264,284.5C 263.727,282.899 263.227,281.399 262.5,280C 260.324,279.837 258.491,279.004 257,277.5C 256.922,275.343 256.755,273.343 256.5,271.5C 255.548,273.045 255.215,274.712 255.5,276.5C 254.167,276.5 252.833,276.5 251.5,276.5C 251.5,280.167 251.5,283.833 251.5,287.5C 242.565,287.368 233.899,288.368 225.5,290.5C 223.952,290.179 223.285,289.179 223.5,287.5C 221.076,287.808 218.743,287.474 216.5,286.5C 213.368,281.135 214.535,280.135 220,283.5C 221.487,282.845 222.653,281.845 223.5,280.5C 225.045,279.548 226.712,279.215 228.5,279.5C 228.5,276.167 226.833,274.5 223.5,274.5C 223.5,270.833 223.5,267.167 223.5,263.5C 222.36,260.975 221.693,258.308 221.5,255.5C 227.787,255.83 228.12,254.83 222.5,252.5C 222.312,250.897 222.812,249.563 224,248.5C 226.843,251.148 229.01,253.815 230.5,256.5C 233.715,255.489 236.549,254.156 239,252.5C 240.495,254.163 242.328,255.163 244.5,255.5 Z"/></g>
<g><path style="opacity:1" fill="#86725b" d="M 267.5,271.5 C 269.186,273.016 271.019,274.35 273,275.5C 274.303,275.022 275.469,274.355 276.5,273.5C 276.213,276.484 274.546,277.817 271.5,277.5C 269.748,275.754 268.415,273.754 267.5,271.5 Z"/></g>
<g><path style="opacity:1" fill="#060911" d="M 394.5,253.5 C 397.466,259.885 399.966,266.552 402,273.5C 403.089,283.659 404.256,293.659 405.5,303.5C 406.37,312.154 406.536,320.82 406,329.5C 403.761,330.869 401.927,330.369 400.5,328C 399.5,327.333 398.5,327.333 397.5,328C 396.391,329.876 395.391,331.709 394.5,333.5C 394.586,332.504 394.252,331.671 393.5,331C 394.893,329.829 395.727,328.329 396,326.5C 397.205,325.929 398.372,325.262 399.5,324.5C 398.743,321.826 398.076,318.826 397.5,315.5C 398.999,311.501 398.665,307.667 396.5,304C 398.619,303.902 400.286,303.069 401.5,301.5C 400.201,298.301 400.201,295.135 401.5,292C 400.692,291.692 400.025,291.192 399.5,290.5C 400.642,288.883 401.309,287.05 401.5,285C 400.748,280.157 399.915,275.324 399,270.5C 398.333,271.833 397.667,271.833 397,270.5C 397.57,268.307 397.236,266.307 396,264.5C 395.465,266.271 394.631,266.604 393.5,265.5C 393.807,261.475 394.141,257.475 394.5,253.5 Z"/></g>
<g><path style="opacity:1" fill="#65523f" d="M 340.5,255.5 C 341.327,260.651 341.827,265.984 342,271.5C 342.5,298.165 342.667,324.831 342.5,351.5C 341.68,319.664 341.014,287.664 340.5,255.5 Z"/></g>
<g><path style="opacity:1" fill="#e2b78a" d="M 303.5,383.5 C 302.603,380.751 300.603,377.917 297.5,375C 295.104,374.121 292.771,373.454 290.5,373C 290.056,371.467 289.723,369.967 289.5,368.5C 284.465,366.398 281.965,362.731 282,357.5C 283.167,355 285,353.167 287.5,352C 287.167,351.667 286.833,351.333 286.5,351C 289.334,344.645 288.667,338.645 284.5,333C 281.395,331.381 278.395,330.547 275.5,330.5C 276.091,329.849 276.757,329.182 277.5,328.5C 275.25,325.767 274.917,322.767 276.5,319.5C 274.833,319.5 273.167,319.5 271.5,319.5C 271.5,316.833 271.5,314.167 271.5,311.5C 266.167,311.5 260.833,311.5 255.5,311.5C 255.5,308.833 255.5,306.167 255.5,303.5C 261.206,303.829 266.872,303.495 272.5,302.5C 274.173,300.914 276.173,300.247 278.5,300.5C 278.579,299.07 278.246,297.736 277.5,296.5C 279.701,294.82 282.201,293.82 285,293.5C 290.785,293.962 296.285,295.296 301.5,297.5C 302.478,297.023 303.311,296.357 304,295.5C 304.617,296.449 304.451,297.282 303.5,298C 306.341,299.586 309.007,301.42 311.5,303.5C 313.474,306.804 315.807,309.804 318.5,312.5C 318.969,316.035 320.469,319.035 323,321.5C 324.893,326.007 326.059,330.673 326.5,335.5C 325.5,335.5 324.5,335.5 323.5,335.5C 323.333,346.172 323.5,356.839 324,367.5C 324.018,373.645 324.851,379.645 326.5,385.5C 325.404,391.342 323.904,397.008 322,402.5C 319.765,400.798 317.265,399.798 314.5,399.5C 314.664,396.813 314.497,394.146 314,391.5C 312.531,386.029 309.031,383.362 303.5,383.5 Z"/></g>
<g><path style="opacity:1" fill="#d5b48e" d="M 171.5,273.5 C 171.34,275.199 171.506,276.866 172,278.5C 173.147,277.542 174.147,277.875 175,279.5C 176.154,277.043 177.488,277.043 179,279.5C 179.419,278.328 180.085,277.328 181,276.5C 183.884,279.505 187.05,281.339 190.5,282C 188.157,286.534 185.823,291.034 183.5,295.5C 182.193,296.802 182.193,298.135 183.5,299.5C 185.766,300.314 188.1,300.814 190.5,301C 188.249,302.871 185.583,304.037 182.5,304.5C 180.745,309.425 179.412,314.425 178.5,319.5C 177.167,319.5 175.833,319.5 174.5,319.5C 172.337,342.108 171.004,364.774 170.5,387.5C 170.167,387.5 169.833,387.5 169.5,387.5C 169.96,354.166 170.294,320.833 170.5,287.5C 169.925,279.338 170.258,274.671 171.5,273.5 Z"/></g>
<g><path style="opacity:1" fill="#e2b98c" d="M 251.5,335.5 C 249.683,337.818 247.683,339.984 245.5,342C 244.633,345.105 244.299,348.272 244.5,351.5C 243.167,351.5 241.833,351.5 240.5,351.5C 239.535,347.834 239.368,349.168 240,355.5C 244.951,358.118 248.951,361.784 252,366.5C 253.183,365.269 254.349,365.269 255.5,366.5C 253.009,367.541 253.009,368.374 255.5,369C 248.352,371.181 241.019,372.848 233.5,374C 230.757,377.903 227.757,378.237 224.5,375C 225.849,373.365 225.682,371.865 224,370.5C 223.502,373.482 223.335,376.482 223.5,379.5C 220.671,379.325 219.004,380.658 218.5,383.5C 218.167,385.167 217.833,386.833 217.5,388.5C 217.876,392.24 218.543,395.906 219.5,399.5C 220.833,399.5 222.167,399.5 223.5,399.5C 223.238,400.978 223.571,402.311 224.5,403.5C 226.679,404.757 228.679,406.257 230.5,408C 228.552,409.439 227.219,411.272 226.5,413.5C 227.117,416.355 228.117,419.022 229.5,421.5C 229.392,422.442 229.059,423.275 228.5,424C 230.84,425.84 232.84,428.007 234.5,430.5C 234.333,430.833 234.167,431.167 234,431.5C 233.292,430.619 232.458,429.953 231.5,429.5C 228.099,427.421 225.766,424.421 224.5,420.5C 222.49,422.171 220.157,422.838 217.5,422.5C 217.5,421.5 217.5,420.5 217.5,419.5C 220.604,420.029 222.937,419.029 224.5,416.5C 222.922,415.702 221.256,415.202 219.5,415C 220.108,413.769 220.441,412.436 220.5,411C 218.213,405.978 216.213,400.812 214.5,395.5C 215.246,394.264 215.579,392.93 215.5,391.5C 214.5,391.5 213.5,391.5 212.5,391.5C 212.522,387.975 212.022,384.642 211,381.5C 214.982,381.604 218.149,379.77 220.5,376C 216.274,377.428 211.94,378.928 207.5,380.5C 207.5,381.5 207.5,382.5 207.5,383.5C 205.167,383.5 202.833,383.5 200.5,383.5C 200.509,381.692 200.009,380.025 199,378.5C 196.199,374.313 194.699,374.646 194.5,379.5C 195.497,386.14 196.163,392.807 196.5,399.5C 197.5,399.5 198.5,399.5 199.5,399.5C 199.5,401.167 199.5,402.833 199.5,404.5C 204.026,404.692 206.692,407.025 207.5,411.5C 207.167,411.833 206.833,412.167 206.5,412.5C 203.04,410.867 199.706,409.034 196.5,407C 194.866,406.506 193.199,406.34 191.5,406.5C 191.5,404.833 191.5,403.167 191.5,401.5C 188.107,401.938 185.107,401.105 182.5,399C 182.554,394.562 184.22,390.895 187.5,388C 186.624,386.414 185.624,384.914 184.5,383.5C 183.193,384.816 181.693,385.816 180,386.5C 177.451,385.41 176.617,383.743 177.5,381.5C 178.5,382.167 179.5,382.833 180.5,383.5C 181.799,381.693 181.632,380.027 180,378.5C 179.107,379.711 178.274,379.711 177.5,378.5C 178.921,374.972 179.588,371.306 179.5,367.5C 180.833,367.5 182.167,367.5 183.5,367.5C 183.5,365.5 183.5,363.5 183.5,361.5C 185.167,361.5 186.833,361.5 188.5,361.5C 190.011,358.463 191.344,355.296 192.5,352C 190.988,345.041 191.321,338.207 193.5,331.5C 192.203,326.663 192.203,321.83 193.5,317C 191.975,312.63 191.308,308.13 191.5,303.5C 196.585,304.012 201.419,303.345 206,301.5C 209.162,302.795 212.162,302.462 215,300.5C 218.297,303.567 222.131,305.733 226.5,307C 229.528,308.14 231.695,307.306 233,304.5C 234.406,306.871 236.406,308.538 239,309.5C 239.495,311.473 239.662,313.473 239.5,315.5C 240.822,315.33 241.989,315.663 243,316.5C 243.483,319.823 244.983,322.49 247.5,324.5C 243.353,327.207 242.353,330.874 244.5,335.5C 246.833,335.5 249.167,335.5 251.5,335.5 Z"/></g>
<g><path style="opacity:1" fill="#618293" d="M 405.5,303.5 C 407.102,308.002 408.602,312.669 410,317.5C 410.333,315.5 410.667,313.5 411,311.5C 411.56,315.442 411.06,319.275 409.5,323C 409.654,326.471 410.987,329.305 413.5,331.5C 413.5,332.833 413.5,334.167 413.5,335.5C 412.5,335.5 411.5,335.5 410.5,335.5C 410.662,337.527 410.495,339.527 410,341.5C 408.333,342.833 406.667,344.167 405,345.5C 403.753,352.779 403.253,360.112 403.5,367.5C 400.507,366.073 397.34,364.74 394,363.5C 393.5,363.833 393,364.167 392.5,364.5C 393.213,367.252 392.713,369.918 391,372.5C 387.714,375.906 385.547,379.906 384.5,384.5C 385.38,386.429 386.38,388.263 387.5,390C 386.422,391.844 385.755,393.844 385.5,396C 385.94,399.248 386.607,402.415 387.5,405.5C 386.022,405.238 384.689,405.571 383.5,406.5C 384.39,407.711 384.39,409.045 383.5,410.5C 383.799,412.815 384.632,412.815 386,410.5C 386.44,412.076 387.273,413.41 388.5,414.5C 387.284,415.096 385.951,415.263 384.5,415C 385.668,416.406 385.335,417.572 383.5,418.5C 388.598,421.019 393.931,422.853 399.5,424C 396.438,424.741 393.438,424.575 390.5,423.5C 389.341,427.122 389.175,430.789 390,434.5C 391.667,435.167 393.333,435.833 395,436.5C 395.658,438.108 395.158,439.275 393.5,440C 394.82,443.206 397.153,444.206 400.5,443C 402.591,441.274 404.924,440.107 407.5,439.5C 407.5,440.833 407.5,442.167 407.5,443.5C 408.552,443.351 409.552,443.517 410.5,444C 411.704,447.933 413.37,448.266 415.5,445C 413.343,443.915 413.176,442.749 415,441.5C 415.763,444.063 416.263,444.063 416.5,441.5C 415.239,437.933 414.405,434.266 414,430.5C 411.524,427.512 408.691,425.512 405.5,424.5C 406.5,423.5 407.5,422.5 408.5,421.5C 410.455,423.958 412.622,426.291 415,428.5C 415.293,433.409 416.46,438.075 418.5,442.5C 415.793,448.708 417.793,451.708 424.5,451.5C 424.238,450.022 424.571,448.689 425.5,447.5C 426.647,449.765 426.814,452.098 426,454.5C 424.223,454.165 422.723,454.999 421.5,457C 421.862,458.225 422.362,459.391 423,460.5C 425.7,459.656 428.367,458.656 431,457.5C 432.434,457.93 433.601,458.764 434.5,460C 436.259,460.798 437.926,460.631 439.5,459.5C 438.25,456.951 436.25,455.618 433.5,455.5C 432.399,450.296 431.065,450.296 429.5,455.5C 428.359,453.579 428.192,451.579 429,449.5C 430.679,448.68 432.846,448.013 435.5,447.5C 437.91,448.19 440.243,448.69 442.5,449C 442.833,448.667 443.167,448.333 443.5,448C 441.75,446.246 441.083,444.079 441.5,441.5C 444.932,441.757 448.266,442.424 451.5,443.5C 451.67,442.178 451.337,441.011 450.5,440C 451,439.833 451.5,439.667 452,439.5C 453.054,440.482 453.554,441.649 453.5,443C 455.861,444.669 458.194,446.335 460.5,448C 457.716,448.2 455.216,447.366 453,445.5C 452.5,445.833 452,446.167 451.5,446.5C 454.039,449.149 454.039,451.816 451.5,454.5C 452.689,455.429 454.022,455.762 455.5,455.5C 454.669,450.855 455.836,449.855 459,452.5C 460.753,451.373 462.587,450.373 464.5,449.5C 465.792,452.411 464.792,454.244 461.5,455C 464.817,455.498 468.15,455.665 471.5,455.5C 471.223,460.233 471.557,464.9 472.5,469.5C 474.51,471.171 476.843,471.838 479.5,471.5C 479.334,476.179 479.501,480.845 480,485.5C 484.864,487.191 487.697,490.524 488.5,495.5C 490.924,495.192 493.257,495.526 495.5,496.5C 493.146,498.246 492.146,500.579 492.5,503.5C 495.999,503.259 496.332,504.092 493.5,506C 496.51,507.921 499.844,508.921 503.5,509C 500.443,509.256 497.443,509.756 494.5,510.5C 492.177,509.169 490.177,509.502 488.5,511.5C 418.5,511.5 348.5,511.5 278.5,511.5C 278.343,510.127 278.51,508.793 279,507.5C 280.281,507.619 281.448,507.119 282.5,506C 281.544,502.606 281.211,499.106 281.5,495.5C 280.448,495.649 279.448,495.483 278.5,495C 279.649,493.396 279.649,491.73 278.5,490C 278.905,489.055 279.572,488.388 280.5,488C 278.032,486.412 277.866,484.578 280,482.5C 288.212,476.119 297.045,470.785 306.5,466.5C 307.5,465.667 308.5,464.833 309.5,464C 308.829,463.014 308.829,461.847 309.5,460.5C 312.263,460.256 314.429,458.923 316,456.5C 318.002,451.088 320.835,446.255 324.5,442C 326.765,440.882 329.099,440.049 331.5,439.5C 333.412,437.178 334.745,434.512 335.5,431.5C 338.148,428.219 340.314,424.552 342,420.5C 342.302,411.682 344.302,403.348 348,395.5C 348.965,393.74 350.132,393.406 351.5,394.5C 353.23,397.87 354.897,401.203 356.5,404.5C 358.035,405.788 359.701,405.788 361.5,404.5C 362.294,398.217 362.794,391.884 363,385.5C 363.707,383.919 364.54,382.419 365.5,381C 368,380.625 370.333,379.792 372.5,378.5C 377.707,372.419 381.04,365.419 382.5,357.5C 384.435,352.736 387.769,349.57 392.5,348C 393.126,347.25 393.626,346.416 394,345.5C 394.499,341.514 394.666,337.514 394.5,333.5C 395.391,331.709 396.391,329.876 397.5,328C 398.5,327.333 399.5,327.333 400.5,328C 401.927,330.369 403.761,330.869 406,329.5C 406.536,320.82 406.37,312.154 405.5,303.5 Z"/></g>
<g><path style="opacity:1" fill="#546c7a" d="M 382.5,357.5 C 381.04,365.419 377.707,372.419 372.5,378.5C 370.333,379.792 368,380.625 365.5,381C 364.54,382.419 363.707,383.919 363,385.5C 362.794,391.884 362.294,398.217 361.5,404.5C 359.701,405.788 358.035,405.788 356.5,404.5C 357.5,404.5 358.5,404.5 359.5,404.5C 360.386,397.543 360.72,390.543 360.5,383.5C 361.207,381.219 362.207,379.052 363.5,377C 366.903,376.9 370.07,376.066 373,374.5C 375,369.833 377,365.167 379,360.5C 380.039,359.29 381.206,358.29 382.5,357.5 Z"/></g>
<g><path style="opacity:1" fill="#51432a" d="M 239.5,381.5 C 237.879,383.117 235.879,384.284 233.5,385C 232.663,386.011 232.33,387.178 232.5,388.5C 231.566,387.432 231.232,386.099 231.5,384.5C 233.89,382.98 236.557,381.98 239.5,381.5 Z"/></g>
<g><path style="opacity:1" fill="#0c0a04" d="M 268.5,377.5 C 272.234,377.323 275.901,377.656 279.5,378.5C 280.514,379.674 281.847,380.34 283.5,380.5C 286.131,382.153 288.797,383.819 291.5,385.5C 292.911,387.914 294.911,389.581 297.5,390.5C 297.833,391.5 298.5,392.167 299.5,392.5C 299.5,393.5 299.5,394.5 299.5,395.5C 296.833,395.5 294.167,395.5 291.5,395.5C 290.167,395.5 288.833,395.5 287.5,395.5C 273.496,394.246 259.496,394.246 245.5,395.5C 240.649,393.911 236.315,391.578 232.5,388.5C 232.33,387.178 232.663,386.011 233.5,385C 235.879,384.284 237.879,383.117 239.5,381.5C 240.568,380.566 241.901,380.232 243.5,380.5C 247.623,380.202 251.623,379.369 255.5,378C 259.821,377.501 264.154,377.334 268.5,377.5 Z"/></g>
<g><path style="opacity:1" fill="#5f727e" d="M 127.5,383.5 C 131.573,384.009 135.573,384.842 139.5,386C 142.5,390.333 146.167,394 150.5,397C 153.044,398.092 155.711,398.759 158.5,399C 161.952,401.393 165.619,403.226 169.5,404.5C 169.069,415.512 169.736,426.512 171.5,437.5C 171.5,462.167 171.5,486.833 171.5,511.5C 171.167,511.5 170.833,511.5 170.5,511.5C 170.655,476.145 169.989,440.812 168.5,405.5C 162.454,404.547 156.454,403.047 150.5,401C 146.207,397.709 142.207,394.043 138.5,390C 134.79,389.105 131.123,388.105 127.5,387C 126.829,386.014 126.829,384.847 127.5,383.5 Z"/></g>
<g><path style="opacity:1" fill="#d9b98d" d="M 303.5,385.5 C 305.603,387.808 307.936,389.308 310.5,390C 309.949,393.089 308.783,395.922 307,398.5C 305.989,399.337 304.822,399.67 303.5,399.5C 303.719,400.675 303.386,401.675 302.5,402.5C 298.508,404.997 295.008,407.997 292,411.5C 291.667,410.833 291.333,410.167 291,409.5C 289.89,411.397 289.724,413.23 290.5,415C 288.826,416.506 287.826,418.339 287.5,420.5C 278.268,420.309 268.934,420.309 259.5,420.5C 256.784,420.322 254.117,419.822 251.5,419C 250.167,418 250.167,417 251.5,416C 248.375,414.019 245.541,411.519 243,408.5C 242,409.833 241,411.167 240,412.5C 239.727,410.899 239.227,409.399 238.5,408C 236.009,407.591 234.009,406.424 232.5,404.5C 231.914,404.709 231.414,405.043 231,405.5C 229.167,403.667 227.333,401.833 225.5,400C 227.013,397.546 226.346,395.879 223.5,395C 225.283,391.786 227.117,388.619 229,385.5C 229.671,384.748 230.504,384.414 231.5,384.5C 231.232,386.099 231.566,387.432 232.5,388.5C 236.315,391.578 240.649,393.911 245.5,395.5C 248.183,399.173 251.516,402.173 255.5,404.5C 256.351,406.882 257.684,408.882 259.5,410.5C 259.918,411.222 260.584,411.722 261.5,412C 267.528,412.83 273.528,412.664 279.5,411.5C 280.246,410.264 280.579,408.93 280.5,407.5C 282.288,407.785 283.955,407.452 285.5,406.5C 287.248,403.383 289.081,400.383 291,397.5C 294.105,396.633 297.272,396.299 300.5,396.5C 300.768,394.901 300.434,393.568 299.5,392.5C 298.5,392.167 297.833,391.5 297.5,390.5C 296.089,388.086 294.089,386.419 291.5,385.5C 288.797,383.819 286.131,382.153 283.5,380.5C 286.43,379.422 289.43,378.922 292.5,379C 293.211,380.255 294.044,381.421 295,382.5C 296.557,381.795 297.723,382.461 298.5,384.5C 300.045,385.452 301.712,385.785 303.5,385.5 Z"/></g>
<g><path style="opacity:1" fill="#0f0c0a" d="M 274.5,406.5 C 275.434,407.568 275.768,408.901 275.5,410.5C 271.267,411.794 266.934,411.794 262.5,410.5C 261.791,409.596 260.791,409.263 259.5,409.5C 259.5,407.833 259.5,406.167 259.5,404.5C 258.167,404.5 256.833,404.5 255.5,404.5C 254.058,403.18 253.392,401.514 253.5,399.5C 261.219,399.842 268.219,402.176 274.5,406.5 Z"/></g>
<g><path style="opacity:1" fill="#af9370" d="M 299.5,392.5 C 300.434,393.568 300.768,394.901 300.5,396.5C 297.272,396.299 294.105,396.633 291,397.5C 289.081,400.383 287.248,403.383 285.5,406.5C 283.955,407.452 282.288,407.785 280.5,407.5C 280.579,408.93 280.246,410.264 279.5,411.5C 273.528,412.664 267.528,412.83 261.5,412C 260.584,411.722 259.918,411.222 259.5,410.5C 260.5,410.5 261.5,410.5 262.5,410.5C 266.934,411.794 271.267,411.794 275.5,410.5C 276.98,407.274 278.647,403.941 280.5,400.5C 284.144,398.626 287.811,396.959 291.5,395.5C 294.167,395.5 296.833,395.5 299.5,395.5C 299.5,394.5 299.5,393.5 299.5,392.5 Z"/></g>
<g><path style="opacity:1" fill="#4d402c" d="M 287.5,395.5 C 288.833,395.5 290.167,395.5 291.5,395.5C 287.811,396.959 284.144,398.626 280.5,400.5C 278.647,403.941 276.98,407.274 275.5,410.5C 275.768,408.901 275.434,407.568 274.5,406.5C 274.5,405.167 274.5,403.833 274.5,402.5C 270.299,401.756 266.632,399.923 263.5,397C 263.833,396.667 264.167,396.333 264.5,396C 272.339,396.143 280.005,395.976 287.5,395.5 Z"/></g>
<g><path style="opacity:1" fill="#262218" d="M 287.5,395.5 C 280.005,395.976 272.339,396.143 264.5,396C 264.167,396.333 263.833,396.667 263.5,397C 266.632,399.923 270.299,401.756 274.5,402.5C 274.5,403.833 274.5,405.167 274.5,406.5C 268.219,402.176 261.219,399.842 253.5,399.5C 253.392,401.514 254.058,403.18 255.5,404.5C 251.516,402.173 248.183,399.173 245.5,395.5C 259.496,394.246 273.496,394.246 287.5,395.5 Z"/></g>
<g><path style="opacity:1" fill="#75664c" d="M 291.5,385.5 C 294.089,386.419 296.089,388.086 297.5,390.5C 294.911,389.581 292.911,387.914 291.5,385.5 Z"/></g>
<g><path style="opacity:1" fill="#deba8b" d="M 275.5,330.5 C 278.395,330.547 281.395,331.381 284.5,333C 288.667,338.645 289.334,344.645 286.5,351C 286.833,351.333 287.167,351.667 287.5,352C 285,353.167 283.167,355 282,357.5C 281.965,362.731 284.465,366.398 289.5,368.5C 289.723,369.967 290.056,371.467 290.5,373C 292.771,373.454 295.104,374.121 297.5,375C 300.603,377.917 302.603,380.751 303.5,383.5C 303.5,384.167 303.5,384.833 303.5,385.5C 301.712,385.785 300.045,385.452 298.5,384.5C 297.723,382.461 296.557,381.795 295,382.5C 294.044,381.421 293.211,380.255 292.5,379C 289.43,378.922 286.43,379.422 283.5,380.5C 281.847,380.34 280.514,379.674 279.5,378.5C 278.319,376.933 276.653,376.099 274.5,376C 272.288,375.211 270.288,375.378 268.5,376.5C 263.489,376.334 258.489,376.501 253.5,377C 249.941,377.852 246.607,379.019 243.5,380.5C 241.901,380.232 240.568,380.566 239.5,381.5C 236.557,381.98 233.89,382.98 231.5,384.5C 230.504,384.414 229.671,384.748 229,385.5C 227.117,388.619 225.283,391.786 223.5,395C 226.346,395.879 227.013,397.546 225.5,400C 227.333,401.833 229.167,403.667 231,405.5C 231.414,405.043 231.914,404.709 232.5,404.5C 234.009,406.424 236.009,407.591 238.5,408C 239.227,409.399 239.727,410.899 240,412.5C 241,411.167 242,409.833 243,408.5C 245.541,411.519 248.375,414.019 251.5,416C 250.167,417 250.167,418 251.5,419C 254.117,419.822 256.784,420.322 259.5,420.5C 262.793,423.598 266.793,424.931 271.5,424.5C 271.238,425.978 271.571,427.311 272.5,428.5C 278.087,422.522 281.92,423.522 284,431.5C 285.171,432.893 286.671,433.727 288.5,434C 290.086,437.698 289.086,438.865 285.5,437.5C 280.828,438.5 276.162,439.5 271.5,440.5C 272.5,441.167 273.5,441.833 274.5,442.5C 274.291,443.086 273.957,443.586 273.5,444C 278.538,443.325 283.538,442.158 288.5,440.5C 291.276,442.13 294.276,442.797 297.5,442.5C 296.521,444.145 295.188,445.479 293.5,446.5C 277.163,447.703 260.83,447.703 244.5,446.5C 242.316,444.415 239.649,443.415 236.5,443.5C 234.967,441.755 232.967,440.755 230.5,440.5C 227.669,439.921 225.336,438.588 223.5,436.5C 226.885,436.846 230.218,437.512 233.5,438.5C 234.91,438.132 235.91,437.299 236.5,436C 233.274,435.115 230.274,433.781 227.5,432C 229.437,431.878 230.77,431.045 231.5,429.5C 232.458,429.953 233.292,430.619 234,431.5C 234.167,431.167 234.333,430.833 234.5,430.5C 232.84,428.007 230.84,425.84 228.5,424C 229.059,423.275 229.392,422.442 229.5,421.5C 228.117,419.022 227.117,416.355 226.5,413.5C 227.219,411.272 228.552,409.439 230.5,408C 228.679,406.257 226.679,404.757 224.5,403.5C 223.571,402.311 223.238,400.978 223.5,399.5C 222.167,399.5 220.833,399.5 219.5,399.5C 218.543,395.906 217.876,392.24 217.5,388.5C 217.833,386.833 218.167,385.167 218.5,383.5C 219.004,380.658 220.671,379.325 223.5,379.5C 223.335,376.482 223.502,373.482 224,370.5C 225.682,371.865 225.849,373.365 224.5,375C 227.757,378.237 230.757,377.903 233.5,374C 241.019,372.848 248.352,371.181 255.5,369C 253.009,368.374 253.009,367.541 255.5,366.5C 254.349,365.269 253.183,365.269 252,366.5C 248.951,361.784 244.951,358.118 240,355.5C 239.368,349.168 239.535,347.834 240.5,351.5C 241.833,351.5 243.167,351.5 244.5,351.5C 244.299,348.272 244.633,345.105 245.5,342C 247.683,339.984 249.683,337.818 251.5,335.5C 254.805,335.212 257.638,336.212 260,338.5C 263.129,336.337 266.629,335.003 270.5,334.5C 275.332,336.594 276.999,335.261 275.5,330.5 Z"/></g>
<g><path style="opacity:1" fill="#43301d" d="M 279.5,378.5 C 275.901,377.656 272.234,377.323 268.5,377.5C 268.5,377.167 268.5,376.833 268.5,376.5C 270.288,375.378 272.288,375.211 274.5,376C 276.653,376.099 278.319,376.933 279.5,378.5 Z"/></g>
<g><path style="opacity:1" fill="#856845" d="M 268.5,376.5 C 268.5,376.833 268.5,377.167 268.5,377.5C 264.154,377.334 259.821,377.501 255.5,378C 251.623,379.369 247.623,380.202 243.5,380.5C 246.607,379.019 249.941,377.852 253.5,377C 258.489,376.501 263.489,376.334 268.5,376.5 Z"/></g>
<g><path style="opacity:1" fill="#86745c" d="M 275.5,347.5 C 275.389,348.117 275.056,348.617 274.5,349C 267.986,349.82 261.653,349.653 255.5,348.5C 262.224,348.756 268.891,348.423 275.5,347.5 Z"/></g>
<g><path style="opacity:1" fill="#231b16" d="M 277.5,346.5 C 276.833,346.833 276.167,347.167 275.5,347.5C 268.891,348.423 262.224,348.756 255.5,348.5C 255.5,347.5 255.5,346.5 255.5,345.5C 262.983,345.909 270.316,345.242 277.5,343.5C 277.5,344.5 277.5,345.5 277.5,346.5 Z"/></g>
<g><path style="opacity:1" fill="#aa8d69" d="M 277.5,346.5 C 277.5,345.5 277.5,344.5 277.5,343.5C 270.316,345.242 262.983,345.909 255.5,345.5C 255.5,346.5 255.5,347.5 255.5,348.5C 253.418,347.415 253.084,345.915 254.5,344C 262.844,343.574 271.177,343.074 279.5,342.5C 279.771,344.38 279.104,345.713 277.5,346.5 Z"/></g>
<g><path style="opacity:1" fill="#564833" d="M 255.5,404.5 C 256.833,404.5 258.167,404.5 259.5,404.5C 259.5,406.167 259.5,407.833 259.5,409.5C 260.791,409.263 261.791,409.596 262.5,410.5C 261.5,410.5 260.5,410.5 259.5,410.5C 257.684,408.882 256.351,406.882 255.5,404.5 Z"/></g>
<g><path style="opacity:1" fill="#8b6a4e" d="M 171.5,403.5 C 172.833,403.833 174.167,404.167 175.5,404.5C 177.792,407.305 180.459,409.638 183.5,411.5C 182.209,411.263 181.209,411.596 180.5,412.5C 178.37,410.873 176.37,409.04 174.5,407C 173.552,406.517 172.552,406.351 171.5,406.5C 171.5,405.5 171.5,404.5 171.5,403.5 Z"/></g>
<g><path style="opacity:1" fill="#d7b792" d="M 223.5,436.5 C 214.922,431.925 206.589,426.925 198.5,421.5C 193.709,417.932 188.709,414.598 183.5,411.5C 180.459,409.638 177.792,407.305 175.5,404.5C 177.489,405.481 179.489,406.481 181.5,407.5C 182.167,407.167 182.833,406.833 183.5,406.5C 181.134,404.139 178.467,402.139 175.5,400.5C 178.777,399.227 181.277,400.227 183,403.5C 183.333,403.167 183.667,402.833 184,402.5C 188.621,406.47 193.621,409.803 199,412.5C 199.333,412.167 199.667,411.833 200,411.5C 201.743,413.321 203.243,415.321 204.5,417.5C 201.801,420.42 202.468,421.087 206.5,419.5C 207.167,421.5 207.833,423.5 208.5,425.5C 209.086,425.291 209.586,424.957 210,424.5C 214.372,427.843 218.538,427.843 222.5,424.5C 223.631,426.074 223.798,427.741 223,429.5C 222.667,429.167 222.333,428.833 222,428.5C 218.799,430.558 219.299,431.558 223.5,431.5C 223.5,433.167 223.5,434.833 223.5,436.5 Z"/></g>
<g><path style="opacity:1" fill="#483625" d="M 183.5,411.5 C 188.709,414.598 193.709,417.932 198.5,421.5C 197.153,420.972 195.819,420.805 194.5,421C 195.913,424.246 197.913,427.08 200.5,429.5C 193.24,424.577 186.574,418.91 180.5,412.5C 181.209,411.596 182.209,411.263 183.5,411.5 Z"/></g>
<g><path style="opacity:1" fill="#49413e" d="M 169.5,387.5 C 169.833,387.5 170.167,387.5 170.5,387.5C 170.267,392.895 170.6,398.228 171.5,403.5C 171.5,404.5 171.5,405.5 171.5,406.5C 171.5,410.167 171.5,413.833 171.5,417.5C 171.5,424.167 171.5,430.833 171.5,437.5C 169.736,426.512 169.069,415.512 169.5,404.5C 169.5,398.833 169.5,393.167 169.5,387.5 Z"/></g>
<g><path style="opacity:1" fill="#d0b08c" d="M 342.5,383.5 C 338.926,398.307 332.926,411.973 324.5,424.5C 321.833,425.366 319.167,426.366 316.5,427.5C 310.506,432.816 304.173,437.816 297.5,442.5C 297.653,439.199 298.653,436.199 300.5,433.5C 299.034,430.611 300.034,429.277 303.5,429.5C 303.238,428.022 303.571,426.689 304.5,425.5C 305.192,426.025 305.692,426.692 306,427.5C 308.042,425.396 310.542,424.229 313.5,424C 314.833,423.333 314.833,422.667 313.5,422C 315.167,421 316.5,419.667 317.5,418C 319.951,418.273 322.451,417.773 325,416.5C 327.806,413.757 328.64,410.59 327.5,407C 329.175,403.318 330.842,399.651 332.5,396C 331.549,395.282 331.383,394.449 332,393.5C 333.664,393.188 335.497,392.355 337.5,391C 339.328,388.481 340.995,385.981 342.5,383.5 Z"/></g>
<g><path style="opacity:1" fill="#2a1f15" d="M 198.5,421.5 C 206.589,426.925 214.922,431.925 223.5,436.5C 225.336,438.588 227.669,439.921 230.5,440.5C 232.033,442.245 234.033,443.245 236.5,443.5C 238.684,445.585 241.351,446.585 244.5,446.5C 244.5,446.833 244.5,447.167 244.5,447.5C 242.266,447.62 240.099,447.287 238,446.5C 236.687,448.617 234.853,450.117 232.5,451C 235.018,454.356 237.351,457.856 239.5,461.5C 235.167,457.5 230.833,453.5 226.5,449.5C 217.554,443.224 208.888,436.558 200.5,429.5C 197.913,427.08 195.913,424.246 194.5,421C 195.819,420.805 197.153,420.972 198.5,421.5 Z"/></g>
<g><path style="opacity:1" fill="#577181" d="M 335.5,431.5 C 334.745,434.512 333.412,437.178 331.5,439.5C 329.099,440.049 326.765,440.882 324.5,442C 320.835,446.255 318.002,451.088 316,456.5C 314.429,458.923 312.263,460.256 309.5,460.5C 313.164,455.179 316.33,449.512 319,443.5C 324.264,439.124 329.764,435.124 335.5,431.5 Z"/></g>
<g><path style="opacity:1" fill="#88735b" d="M 324.5,424.5 C 321.116,428.369 317.116,431.536 312.5,434C 307.574,439.764 301.907,444.597 295.5,448.5C 278.448,450.102 261.448,449.769 244.5,447.5C 244.5,447.167 244.5,446.833 244.5,446.5C 260.83,447.703 277.163,447.703 293.5,446.5C 295.188,445.479 296.521,444.145 297.5,442.5C 304.173,437.816 310.506,432.816 316.5,427.5C 319.167,426.366 321.833,425.366 324.5,424.5 Z"/></g>
<g><path style="opacity:1" fill="#7a684c" d="M 230.5,440.5 C 232.967,440.755 234.967,441.755 236.5,443.5C 234.033,443.245 232.033,442.245 230.5,440.5 Z"/></g>
<g><path style="opacity:1" fill="#887554" d="M 236.5,443.5 C 239.649,443.415 242.316,444.415 244.5,446.5C 241.351,446.585 238.684,445.585 236.5,443.5 Z"/></g>
<g><path style="opacity:1" fill="#cca479" d="M 171.5,406.5 C 172.552,406.351 173.552,406.517 174.5,407C 176.37,409.04 178.37,410.873 180.5,412.5C 186.574,418.91 193.24,424.577 200.5,429.5C 208.888,436.558 217.554,443.224 226.5,449.5C 229.833,454.833 234.167,459.167 239.5,462.5C 241.139,463.473 242.473,464.806 243.5,466.5C 244.167,467.833 244.833,469.167 245.5,470.5C 244.007,469.555 242.507,468.555 241,467.5C 239.832,468.509 238.665,469.509 237.5,470.5C 235.714,468.979 233.881,468.646 232,469.5C 229.038,467.213 226.871,464.38 225.5,461C 222.231,458.383 218.565,456.717 214.5,456C 213.299,455.097 212.465,453.931 212,452.5C 211.667,452.833 211.333,453.167 211,453.5C 208,451.833 205,450.167 202,448.5C 201.043,451.379 201.543,453.879 203.5,456C 201.722,458.135 201.055,460.635 201.5,463.5C 203.5,463.5 205.5,463.5 207.5,463.5C 207.5,465.833 207.5,468.167 207.5,470.5C 202.625,471.342 200.625,474.342 201.5,479.5C 203.5,479.5 205.5,479.5 207.5,479.5C 207.215,481.288 207.548,482.955 208.5,484.5C 212.436,487.688 214.103,491.688 213.5,496.5C 214.729,497.281 216.062,497.781 217.5,498C 224.858,498.316 232.191,498.816 239.5,499.5C 239.5,500.833 239.5,502.167 239.5,503.5C 242.144,503.16 244.477,503.827 246.5,505.5C 248.195,504.708 249.862,505.042 251.5,506.5C 251.291,507.086 250.957,507.586 250.5,508C 251.793,508.49 253.127,508.657 254.5,508.5C 254.5,509.5 254.5,510.5 254.5,511.5C 253.833,511.5 253.167,511.5 252.5,511.5C 248.964,508.908 244.964,507.741 240.5,508C 241.696,508.654 241.696,509.154 240.5,509.5C 230.213,508.69 219.88,508.19 209.5,508C 204.27,507.477 199.603,505.644 195.5,502.5C 194.201,503.09 193.368,504.09 193,505.5C 192.51,504.207 192.343,502.873 192.5,501.5C 193.552,501.649 194.552,501.483 195.5,501C 192.702,496.993 191.202,492.493 191,487.5C 189.877,484.751 188.377,482.251 186.5,480C 187.576,478.274 187.743,476.441 187,474.5C 184.506,469.391 182.506,464.057 181,458.5C 180.505,460.473 180.338,462.473 180.5,464.5C 176.162,464.378 175.828,464.045 179.5,463.5C 179.662,461.473 179.495,459.473 179,457.5C 177.989,458.337 176.822,458.67 175.5,458.5C 175.376,453.951 174.709,449.618 173.5,445.5C 173.842,435.945 173.175,426.611 171.5,417.5C 171.5,413.833 171.5,410.167 171.5,406.5 Z"/></g>
<g><path style="opacity:1" fill="#05080c" d="M 360.5,383.5 C 360.72,390.543 360.386,397.543 359.5,404.5C 358.5,404.5 357.5,404.5 356.5,404.5C 354.897,401.203 353.23,397.87 351.5,394.5C 350.132,393.406 348.965,393.74 348,395.5C 344.302,403.348 342.302,411.682 342,420.5C 340.314,424.552 338.148,428.219 335.5,431.5C 329.764,435.124 324.264,439.124 319,443.5C 316.33,449.512 313.164,455.179 309.5,460.5C 308.373,461.122 307.373,461.955 306.5,463C 301.133,463.444 296.133,464.944 291.5,467.5C 288.15,467.335 284.817,467.502 281.5,468C 279.859,469.129 278.859,470.629 278.5,472.5C 275.94,478.784 274.44,485.451 274,492.5C 273.21,498.915 273.376,505.248 274.5,511.5C 272.167,511.5 269.833,511.5 267.5,511.5C 265.991,494.71 266.657,478.043 269.5,461.5C 269.954,458.776 268.954,456.943 266.5,456C 268.025,454.991 269.692,454.491 271.5,454.5C 271.5,453.5 271.5,452.5 271.5,451.5C 277.031,452.714 282.364,452.381 287.5,450.5C 290.373,450.198 293.039,449.531 295.5,448.5C 301.907,444.597 307.574,439.764 312.5,434C 317.116,431.536 321.116,428.369 324.5,424.5C 332.926,411.973 338.926,398.307 342.5,383.5C 343.486,379.03 343.819,374.363 343.5,369.5C 344.317,367.031 344.817,364.365 345,361.5C 345.876,369.869 346.876,378.203 348,386.5C 349.512,385.743 350.846,384.743 352,383.5C 352.667,384.833 353.333,386.167 354,387.5C 354.667,386.167 355.333,386.167 356,387.5C 356.748,385.249 358.248,383.916 360.5,383.5 Z"/></g>
<g><path style="opacity:1" fill="#cca373" d="M 245.5,470.5 C 249.121,472.131 252.121,474.465 254.5,477.5C 256.824,488.646 257.157,499.979 255.5,511.5C 255.167,511.5 254.833,511.5 254.5,511.5C 254.5,510.5 254.5,509.5 254.5,508.5C 253.127,508.657 251.793,508.49 250.5,508C 250.957,507.586 251.291,507.086 251.5,506.5C 249.862,505.042 248.195,504.708 246.5,505.5C 244.477,503.827 242.144,503.16 239.5,503.5C 239.5,502.167 239.5,500.833 239.5,499.5C 232.191,498.816 224.858,498.316 217.5,498C 216.062,497.781 214.729,497.281 213.5,496.5C 214.103,491.688 212.436,487.688 208.5,484.5C 207.548,482.955 207.215,481.288 207.5,479.5C 205.5,479.5 203.5,479.5 201.5,479.5C 200.625,474.342 202.625,471.342 207.5,470.5C 207.5,468.167 207.5,465.833 207.5,463.5C 205.5,463.5 203.5,463.5 201.5,463.5C 201.055,460.635 201.722,458.135 203.5,456C 201.543,453.879 201.043,451.379 202,448.5C 205,450.167 208,451.833 211,453.5C 211.333,453.167 211.667,452.833 212,452.5C 212.465,453.931 213.299,455.097 214.5,456C 218.565,456.717 222.231,458.383 225.5,461C 226.871,464.38 229.038,467.213 232,469.5C 233.881,468.646 235.714,468.979 237.5,470.5C 238.665,469.509 239.832,468.509 241,467.5C 242.507,468.555 244.007,469.555 245.5,470.5 Z"/></g>
<g><path style="opacity:1" fill="#957657" d="M 226.5,449.5 C 230.833,453.5 235.167,457.5 239.5,461.5C 239.5,461.833 239.5,462.167 239.5,462.5C 234.167,459.167 229.833,454.833 226.5,449.5 Z"/></g>
<g><path style="opacity:1" fill="#1f1915" d="M 244.5,447.5 C 261.448,449.769 278.448,450.102 295.5,448.5C 293.039,449.531 290.373,450.198 287.5,450.5C 276.828,450.333 266.161,450.5 255.5,451C 257.059,451.98 258.726,452.813 260.5,453.5C 258.164,454.712 255.997,454.379 254,452.5C 252.775,452.862 251.609,453.362 250.5,454C 250.833,454.333 251.167,454.667 251.5,455C 250.069,455.465 248.903,456.299 248,457.5C 247.107,456.289 246.274,456.289 245.5,457.5C 246.729,458.281 248.062,458.781 249.5,459C 249.167,459.333 248.833,459.667 248.5,460C 250.321,462.244 252.654,463.41 255.5,463.5C 255.5,464.5 255.5,465.5 255.5,466.5C 256.873,466.343 258.207,466.51 259.5,467C 261.368,469.828 263.534,472.328 266,474.5C 266.863,476.749 266.363,478.582 264.5,480C 265.482,488.081 265.816,496.248 265.5,504.5C 264.233,495.949 262.566,487.615 260.5,479.5C 260.808,477.076 260.474,474.743 259.5,472.5C 254.413,469.445 249.413,466.112 244.5,462.5C 242.955,461.548 241.288,461.215 239.5,461.5C 237.351,457.856 235.018,454.356 232.5,451C 234.853,450.117 236.687,448.617 238,446.5C 240.099,447.287 242.266,447.62 244.5,447.5 Z"/></g>
<g><path style="opacity:1" fill="#3f2f21" d="M 239.5,461.5 C 241.288,461.215 242.955,461.548 244.5,462.5C 249.413,466.112 254.413,469.445 259.5,472.5C 260.474,474.743 260.808,477.076 260.5,479.5C 257.408,475.58 253.741,472.08 249.5,469C 247.593,467.878 245.593,467.045 243.5,466.5C 242.473,464.806 241.139,463.473 239.5,462.5C 239.5,462.167 239.5,461.833 239.5,461.5 Z"/></g>
<g><path style="opacity:1" fill="#15110f" d="M 287.5,450.5 C 282.364,452.381 277.031,452.714 271.5,451.5C 271.5,452.5 271.5,453.5 271.5,454.5C 269.692,454.491 268.025,454.991 266.5,456C 268.954,456.943 269.954,458.776 269.5,461.5C 266.657,478.043 265.991,494.71 267.5,511.5C 267.167,511.5 266.833,511.5 266.5,511.5C 266.326,509.139 265.993,506.806 265.5,504.5C 265.816,496.248 265.482,488.081 264.5,480C 266.363,478.582 266.863,476.749 266,474.5C 263.534,472.328 261.368,469.828 259.5,467C 258.207,466.51 256.873,466.343 255.5,466.5C 255.5,465.5 255.5,464.5 255.5,463.5C 252.654,463.41 250.321,462.244 248.5,460C 248.833,459.667 249.167,459.333 249.5,459C 248.062,458.781 246.729,458.281 245.5,457.5C 246.274,456.289 247.107,456.289 248,457.5C 248.903,456.299 250.069,455.465 251.5,455C 251.167,454.667 250.833,454.333 250.5,454C 251.609,453.362 252.775,452.862 254,452.5C 255.997,454.379 258.164,454.712 260.5,453.5C 258.726,452.813 257.059,451.98 255.5,451C 266.161,450.5 276.828,450.333 287.5,450.5 Z"/></g>
<g><path style="opacity:1" fill="#2e434f" d="M 291.5,467.5 C 290.657,469.173 289.324,470.34 287.5,471C 284.413,471.259 281.413,471.759 278.5,472.5C 278.859,470.629 279.859,469.129 281.5,468C 284.817,467.502 288.15,467.335 291.5,467.5 Z"/></g>
<g><path style="opacity:1" fill="#b49879" d="M 171.5,417.5 C 173.175,426.611 173.842,435.945 173.5,445.5C 173.181,456.763 174.681,467.763 178,478.5C 181.736,480.282 184.236,483.116 185.5,487C 184.833,487.333 184.167,487.667 183.5,488C 184.823,491.137 185.99,494.303 187,497.5C 188.011,502.471 187.511,507.137 185.5,511.5C 180.833,511.5 176.167,511.5 171.5,511.5C 171.5,486.833 171.5,462.167 171.5,437.5C 171.5,430.833 171.5,424.167 171.5,417.5 Z"/></g>
<g><path style="opacity:1" fill="#587586" d="M 309.5,460.5 C 308.829,461.847 308.829,463.014 309.5,464C 308.5,464.833 307.5,465.667 306.5,466.5C 297.045,470.785 288.212,476.119 280,482.5C 277.866,484.578 278.032,486.412 280.5,488C 279.572,488.388 278.905,489.055 278.5,490C 279.649,491.73 279.649,493.396 278.5,495C 279.448,495.483 280.448,495.649 281.5,495.5C 281.211,499.106 281.544,502.606 282.5,506C 281.448,507.119 280.281,507.619 279,507.5C 278.51,508.793 278.343,510.127 278.5,511.5C 277.167,511.5 275.833,511.5 274.5,511.5C 273.376,505.248 273.21,498.915 274,492.5C 274.44,485.451 275.94,478.784 278.5,472.5C 281.413,471.759 284.413,471.259 287.5,471C 289.324,470.34 290.657,469.173 291.5,467.5C 296.133,464.944 301.133,463.444 306.5,463C 307.373,461.955 308.373,461.122 309.5,460.5 Z"/></g>
<g><path style="opacity:1" fill="#7a6045" d="M 243.5,466.5 C 245.593,467.045 247.593,467.878 249.5,469C 253.741,472.08 257.408,475.58 260.5,479.5C 260.334,486.841 260.5,494.174 261,501.5C 261.469,505.452 262.969,508.785 265.5,511.5C 263.5,511.5 261.5,511.5 259.5,511.5C 258.715,501.546 258.215,491.546 258,481.5C 257.34,479.676 256.173,478.343 254.5,477.5C 252.121,474.465 249.121,472.131 245.5,470.5C 244.833,469.167 244.167,467.833 243.5,466.5 Z"/></g>
<g><path style="opacity:1" fill="#a9855f" d="M 254.5,477.5 C 256.173,478.343 257.34,479.676 258,481.5C 258.215,491.546 258.715,501.546 259.5,511.5C 258.167,511.5 256.833,511.5 255.5,511.5C 257.157,499.979 256.824,488.646 254.5,477.5 Z"/></g>
<g><path style="opacity:1" fill="#352c27" d="M 260.5,479.5 C 262.566,487.615 264.233,495.949 265.5,504.5C 265.993,506.806 266.326,509.139 266.5,511.5C 266.167,511.5 265.833,511.5 265.5,511.5C 262.969,508.785 261.469,505.452 261,501.5C 260.5,494.174 260.334,486.841 260.5,479.5 Z"/></g>
<g><path style="opacity:1" fill="#c8a37d" d="M 173.5,445.5 C 174.709,449.618 175.376,453.951 175.5,458.5C 176.822,458.67 177.989,458.337 179,457.5C 179.495,459.473 179.662,461.473 179.5,463.5C 175.828,464.045 176.162,464.378 180.5,464.5C 180.338,462.473 180.505,460.473 181,458.5C 182.506,464.057 184.506,469.391 187,474.5C 187.743,476.441 187.576,478.274 186.5,480C 188.377,482.251 189.877,484.751 191,487.5C 191.202,492.493 192.702,496.993 195.5,501C 194.552,501.483 193.552,501.649 192.5,501.5C 192.343,502.873 192.51,504.207 193,505.5C 193.368,504.09 194.201,503.09 195.5,502.5C 199.603,505.644 204.27,507.477 209.5,508C 219.88,508.19 230.213,508.69 240.5,509.5C 241.696,509.154 241.696,508.654 240.5,508C 244.964,507.741 248.964,508.908 252.5,511.5C 230.167,511.5 207.833,511.5 185.5,511.5C 187.511,507.137 188.011,502.471 187,497.5C 185.99,494.303 184.823,491.137 183.5,488C 184.167,487.667 184.833,487.333 185.5,487C 184.236,483.116 181.736,480.282 178,478.5C 174.681,467.763 173.181,456.763 173.5,445.5 Z"/></g>
</svg>
