<?xml version="1.0" encoding="UTF-8"?>
<!DOCTYPE svg PUBLIC "-//W3C//DTD SVG 1.1//EN" "http://www.w3.org/Graphics/SVG/1.1/DTD/svg11.dtd">
<svg xmlns="http://www.w3.org/2000/svg" version="1.1" width="512px" height="512px" style="shape-rendering:geometricPrecision; text-rendering:geometricPrecision; image-rendering:optimizeQuality; fill-rule:evenodd; clip-rule:evenodd" xmlns:xlink="http://www.w3.org/1999/xlink">
<g><path style="opacity:1" fill="#628495" d="M -0.5,-0.5 C 159.5,-0.5 319.5,-0.5 479.5,-0.5C 455.949,1.60475 455.949,2.60475 479.5,2.5C 463.698,4.16213 447.698,4.82879 431.5,4.5C 431.133,8.96709 431.633,13.3004 433,17.5C 437.667,22.1667 442.333,26.8333 447,31.5C 447.124,24.5286 449.291,24.1953 453.5,30.5C 456.768,31.487 460.102,31.8204 463.5,31.5C 463.5,32.8333 463.5,34.1667 463.5,35.5C 468.833,35.5 474.167,35.5 479.5,35.5C 479.666,41.5092 479.499,47.5092 479,53.5C 474.136,55.1907 471.303,58.524 470.5,63.5C 467.753,63.8134 465.086,63.48 462.5,62.5C 457.667,57.5 452.833,52.5 448,47.5C 447.505,49.4727 447.338,51.4727 447.5,53.5C 442.167,53.5 436.833,53.5 431.5,53.5C 431.662,51.4727 431.495,49.4727 431,47.5C 426.378,52.4389 421.544,57.1056 416.5,61.5C 415.061,62.5092 413.728,62.1759 412.5,60.5C 410.703,62.1311 409.536,64.1311 409,66.5C 405.813,68.3657 402.647,70.199 399.5,72C 397.153,78.0199 395.819,77.8532 395.5,71.5C 394.325,71.281 393.325,71.6143 392.5,72.5C 393.747,74.323 394.414,76.323 394.5,78.5C 393.5,78.5 392.5,78.5 391.5,78.5C 391.66,80.1992 391.494,81.8659 391,83.5C 389.743,81.2542 387.91,79.9209 385.5,79.5C 385.322,76.7835 384.822,74.1168 384,71.5C 383.808,73.5767 383.308,75.5767 382.5,77.5C 379.049,76.0704 376.716,77.2371 375.5,81C 377.372,82.9743 377.705,85.1409 376.5,87.5C 375.251,85.5245 373.751,85.1912 372,86.5C 371.57,92.533 370.07,98.1996 367.5,103.5C 368.833,103.5 370.167,103.5 371.5,103.5C 371.119,109.222 368.119,112.889 362.5,114.5C 360.138,112.638 357.471,111.471 354.5,111C 355.833,109.667 355.833,108.333 354.5,107C 352.527,106.505 350.527,106.338 348.5,106.5C 348.219,104.037 347.219,101.87 345.5,100C 340.863,97.3463 336.197,94.6796 331.5,92C 324.961,90.5826 318.627,88.5826 312.5,86C 309.518,85.502 306.518,85.3354 303.5,85.5C 294.636,84.433 285.636,83.2663 276.5,82C 284.613,81.8494 292.613,80.8494 300.5,79C 301.833,78 301.833,77 300.5,76C 301.624,75.7508 302.624,75.2508 303.5,74.5C 295.568,72.8441 287.568,71.8441 279.5,71.5C 279.649,70.448 279.483,69.448 279,68.5C 277.981,69.6872 276.814,70.6872 275.5,71.5C 273.307,69.2794 270.64,67.946 267.5,67.5C 266.148,68.5175 265.148,69.8508 264.5,71.5C 263.702,69.9223 263.202,68.2556 263,66.5C 261.981,67.6872 260.814,68.6872 259.5,69.5C 257.833,68.1667 256.167,66.8333 254.5,65.5C 252.833,66.8333 251.167,68.1667 249.5,69.5C 246.73,66.9696 243.397,65.9696 239.5,66.5C 238.318,64.1856 236.985,61.8523 235.5,59.5C 234.28,58.2889 233.113,58.2889 232,59.5C 231.51,58.2068 231.343,56.8734 231.5,55.5C 229.046,55.6795 226.879,55.0128 225,53.5C 222.065,55.1916 218.898,55.8583 215.5,55.5C 215.55,57.5901 214.55,58.9234 212.5,59.5C 209.022,57.4603 205.355,56.9603 201.5,58C 198.657,54.8246 195.49,51.9913 192,49.5C 191.667,51.5 191.333,53.5 191,55.5C 189.328,50.3886 188.162,50.3886 187.5,55.5C 186.5,55.5 185.5,55.5 184.5,55.5C 184.657,54.1266 184.49,52.7932 184,51.5C 182.355,51.6932 180.521,51.8598 178.5,52C 177.344,56.1009 176.177,56.2676 175,52.5C 174.517,53.448 174.351,54.448 174.5,55.5C 173.448,55.6495 172.448,55.4828 171.5,55C 172.833,52.6667 174.167,50.3333 175.5,48C 174.552,47.5172 173.552,47.3505 172.5,47.5C 172.719,48.675 172.386,49.675 171.5,50.5C 170.667,49.5 169.833,48.5 169,47.5C 169.138,49.4896 169.638,51.4896 170.5,53.5C 170.167,54.1667 169.833,54.8333 169.5,55.5C 166.67,53.5838 163.67,51.9171 160.5,50.5C 159.444,52.6458 157.944,54.3125 156,55.5C 155.055,55.0946 154.388,54.428 154,53.5C 153.129,45.5762 151.962,45.5762 150.5,53.5C 149.784,54.311 148.95,54.9777 148,55.5C 146.635,54.5444 145.135,53.8777 143.5,53.5C 140.821,53.9357 138.155,54.4357 135.5,55C 137.985,56.2227 138.152,57.7227 136,59.5C 133.333,57.5 130.667,55.5 128,53.5C 127.51,54.7932 127.343,56.1266 127.5,57.5C 124.795,57.3802 124.128,58.3802 125.5,60.5C 125.113,61.7199 124.28,62.3865 123,62.5C 119.115,60.0021 115.282,60.1688 111.5,63C 103.479,63.1684 95.4793,63.6684 87.5,64.5C 88.0253,65.1924 88.6919,65.6924 89.5,66C 87.8243,67.1769 86.4909,68.6769 85.5,70.5C 81.8889,71.2618 78.2222,71.7618 74.5,72C 73.6919,72.3076 73.0253,72.8076 72.5,73.5C 71.175,86.6543 71.175,99.8209 72.5,113C 71.0129,117.154 68.1796,119.987 64,121.5C 63.5045,123.473 63.3379,125.473 63.5,127.5C 66.1667,127.5 68.8333,127.5 71.5,127.5C 71.5,132.833 71.5,138.167 71.5,143.5C 68.8333,143.5 66.1667,143.5 63.5,143.5C 63.4007,152.354 63.0674,161.02 62.5,169.5C 59.7751,167.571 56.7751,167.071 53.5,168C 54.9675,169.098 55.8008,170.598 56,172.5C 56.5079,170.096 57.6745,169.429 59.5,170.5C 58.8333,171.167 58.1667,171.833 57.5,172.5C 58.5,173.333 59.5,174.167 60.5,175C 56.7469,175.695 53.7469,174.528 51.5,171.5C 52.1081,173.684 51.4414,175.684 49.5,177.5C 51.696,181.206 53.696,185.039 55.5,189C 53.7412,189.798 52.0745,189.631 50.5,188.5C 50.1678,184.116 48.8345,180.116 46.5,176.5C 45.3847,178.489 45.718,180.322 47.5,182C 45.4588,184.994 45.1255,188.161 46.5,191.5C 48.2032,193.573 49.3699,195.906 50,198.5C 51.5843,199.861 53.4176,200.528 55.5,200.5C 55.5,201.5 55.5,202.5 55.5,203.5C 54.1779,203.67 53.0113,203.337 52,202.5C 47.3439,203.843 47.3439,205.176 52,206.5C 54.3377,205.266 56.1711,205.932 57.5,208.5C 55.928,212.937 56.928,213.937 60.5,211.5C 61.7989,212.09 62.6322,213.09 63,214.5C 65.573,213.017 67.7397,213.517 69.5,216C 68.1667,217.667 68.1667,219.333 69.5,221C 72.4832,223.079 75.8166,223.913 79.5,223.5C 79.5,232.167 79.5,240.833 79.5,249.5C 75.3586,249.304 73.0252,251.304 72.5,255.5C 71.3341,267.486 71.1674,279.486 72,291.5C 74.4075,295.108 75.9075,299.108 76.5,303.5C 77.6236,301.631 78.4569,299.631 79,297.5C 79.3333,306.167 79.6667,314.833 80,323.5C 81.2208,324.774 82.0541,326.274 82.5,328C 80.6498,329.526 79.1498,331.359 78,333.5C 76.3333,332.167 74.6667,330.833 73,329.5C 72.5045,331.473 72.3379,333.473 72.5,335.5C 74.5273,335.338 76.5273,335.505 78.5,336C 79.5,338.333 80.5,340.667 81.5,343C 80.3333,343.5 79.5,344.333 79,345.5C 77.013,343.912 74.8463,343.079 72.5,343C 73.204,346.185 73.5374,349.351 73.5,352.5C 72.8333,353.5 72.1667,354.5 71.5,355.5C 73.0152,357.547 73.8485,359.881 74,362.5C 76.4496,366.757 78.6162,371.09 80.5,375.5C 81.5283,377.361 83.0283,378.695 85,379.5C 85.3367,382.861 85.8367,386.194 86.5,389.5C 86.2444,390.689 85.9111,391.856 85.5,393C 88.3835,397.12 90.5502,401.62 92,406.5C 94.0408,407.423 96.2075,407.756 98.5,407.5C 98.5,409.167 98.5,410.833 98.5,412.5C 100.167,412.5 101.833,412.5 103.5,412.5C 103.929,415.683 105.596,418.016 108.5,419.5C 110.432,418.855 111.599,417.521 112,415.5C 114.285,417.907 116.451,420.407 118.5,423C 123.489,423.499 128.489,423.666 133.5,423.5C 132.985,427.831 134.652,429.331 138.5,428C 139.33,429.747 140.33,431.413 141.5,433C 140.311,434.895 139.311,436.895 138.5,439C 138.957,439.414 139.291,439.914 139.5,440.5C 137.165,443.197 137.165,445.697 139.5,448C 136.949,448.861 134.616,450.028 132.5,451.5C 135.842,454.876 139.175,458.209 142.5,461.5C 144.574,459.172 145.574,459.839 145.5,463.5C 146.552,463.351 147.552,463.517 148.5,464C 147.09,464.368 146.09,465.201 145.5,466.5C 148.593,467.36 151.427,468.694 154,470.5C 154.449,473.132 155.283,475.632 156.5,478C 155.489,482.161 156.655,485.661 160,488.5C 159.802,494.155 159.802,499.821 160,505.5C 160.995,500.547 161.662,495.547 162,490.5C 163.269,491.905 163.769,493.571 163.5,495.5C 164.5,495.5 165.5,495.5 166.5,495.5C 166.351,496.552 166.517,497.552 167,498.5C 167.5,497.333 168.333,496.5 169.5,496C 168.409,493.936 168.242,491.769 169,489.5C 169.654,490.696 170.154,490.696 170.5,489.5C 168.397,480.907 168.064,472.24 169.5,463.5C 171.155,479.308 172.155,495.308 172.5,511.5C 114.833,511.5 57.1667,511.5 -0.5,511.5C -0.5,340.833 -0.5,170.167 -0.5,-0.5 Z"/></g>
<g><path style="opacity:1" fill="#628396" d="M 479.5,2.5 C 482.167,2.5 484.833,2.5 487.5,2.5C 487.5,6.83333 487.5,11.1667 487.5,15.5C 488.833,15.5 490.167,15.5 491.5,15.5C 491.5,20.8333 491.5,26.1667 491.5,31.5C 488.833,31.5 486.167,31.5 483.5,31.5C 483.5,36.8333 483.5,42.1667 483.5,47.5C 488.833,47.5 494.167,47.5 499.5,47.5C 499.5,58.1667 499.5,68.8333 499.5,79.5C 497.645,79.272 496.812,79.9387 497,81.5C 501.512,85.3956 505.679,89.5623 509.5,94C 509.062,95.9203 508.395,97.7536 507.5,99.5C 504.507,103.325 501.007,106.659 497,109.5C 496.812,111.061 497.645,111.728 499.5,111.5C 499.5,116.833 499.5,122.167 499.5,127.5C 498.167,127.5 496.833,127.5 495.5,127.5C 495.666,132.844 495.499,138.177 495,143.5C 490.333,138.833 485.667,134.167 481,129.5C 479.748,126.986 479.248,124.32 479.5,121.5C 474.167,121.5 468.833,121.5 463.5,121.5C 463.5,119.5 463.5,117.5 463.5,115.5C 458.167,115.5 452.833,115.5 447.5,115.5C 447.628,113.345 447.128,111.345 446,109.5C 435.987,99.9871 426.154,90.3204 416.5,80.5C 422.637,78.5921 422.47,76.2587 416,73.5C 415.306,69.446 415.473,65.446 416.5,61.5C 421.544,57.1056 426.378,52.4389 431,47.5C 431.495,49.4727 431.662,51.4727 431.5,53.5C 436.833,53.5 442.167,53.5 447.5,53.5C 447.338,51.4727 447.505,49.4727 448,47.5C 452.833,52.5 457.667,57.5 462.5,62.5C 465.086,63.48 467.753,63.8134 470.5,63.5C 471.303,58.524 474.136,55.1907 479,53.5C 479.499,47.5092 479.666,41.5092 479.5,35.5C 474.167,35.5 468.833,35.5 463.5,35.5C 463.5,34.1667 463.5,32.8333 463.5,31.5C 460.102,31.8204 456.768,31.487 453.5,30.5C 449.291,24.1953 447.124,24.5286 447,31.5C 442.333,26.8333 437.667,22.1667 433,17.5C 431.633,13.3004 431.133,8.96709 431.5,4.5C 447.698,4.82879 463.698,4.16213 479.5,2.5 Z"/></g>
<g><path style="opacity:1" fill="#618293" d="M 303.5,85.5 C 290.802,85.7954 278.136,85.4621 265.5,84.5C 243.873,86.0678 222.373,86.7345 201,86.5C 196.391,85.9456 191.891,84.9456 187.5,83.5C 181.174,84.5593 174.841,85.5593 168.5,86.5C 168.5,87.5 168.5,88.5 168.5,89.5C 167.504,89.5858 166.671,89.2524 166,88.5C 164.55,90.7571 163.383,93.0905 162.5,95.5C 161.5,95.5 160.5,95.5 159.5,95.5C 156.945,99.8929 153.445,103.56 149,106.5C 147.991,108.025 147.491,109.692 147.5,111.5C 146.325,111.281 145.325,111.614 144.5,112.5C 141.236,116.687 137.736,120.687 134,124.5C 132.878,126.42 132.044,128.42 131.5,130.5C 124.405,139.695 118.072,149.362 112.5,159.5C 111.5,159.5 110.5,159.5 109.5,159.5C 107.44,164.609 105.94,169.942 105,175.5C 103.873,197.871 102.206,220.205 100,242.5C 96.9615,248.344 95.2949,254.678 95,261.5C 91.6924,273.087 88.1924,284.587 84.5,296C 83.1845,303.849 83.1845,311.682 84.5,319.5C 85.5,319.5 86.5,319.5 87.5,319.5C 87.5,319.833 87.5,320.167 87.5,320.5C 87.7482,326.243 88.5815,331.91 90,337.5C 90.3333,337.167 90.6667,336.833 91,336.5C 94.8304,344.065 97.8304,352.065 100,360.5C 105.303,370.43 109.469,380.763 112.5,391.5C 117.32,394.116 122.32,395.116 127.5,394.5C 127.343,393.127 127.51,391.793 128,390.5C 129.822,392.045 131.989,392.712 134.5,392.5C 137.253,392.647 139.753,391.98 142,390.5C 143.011,391.337 144.178,391.67 145.5,391.5C 149.342,391.023 152.342,392.356 154.5,395.5C 156.743,396.474 159.076,396.808 161.5,396.5C 163.819,396.992 165.819,397.992 167.5,399.5C 166.323,407.427 166.823,415.427 169,423.5C 169.5,436.829 169.667,450.163 169.5,463.5C 168.064,472.24 168.397,480.907 170.5,489.5C 170.154,490.696 169.654,490.696 169,489.5C 168.242,491.769 168.409,493.936 169.5,496C 168.333,496.5 167.5,497.333 167,498.5C 166.517,497.552 166.351,496.552 166.5,495.5C 165.5,495.5 164.5,495.5 163.5,495.5C 163.769,493.571 163.269,491.905 162,490.5C 161.662,495.547 160.995,500.547 160,505.5C 159.802,499.821 159.802,494.155 160,488.5C 156.655,485.661 155.489,482.161 156.5,478C 155.283,475.632 154.449,473.132 154,470.5C 151.427,468.694 148.593,467.36 145.5,466.5C 146.09,465.201 147.09,464.368 148.5,464C 147.552,463.517 146.552,463.351 145.5,463.5C 145.574,459.839 144.574,459.172 142.5,461.5C 139.175,458.209 135.842,454.876 132.5,451.5C 134.616,450.028 136.949,448.861 139.5,448C 137.165,445.697 137.165,443.197 139.5,440.5C 139.291,439.914 138.957,439.414 138.5,439C 139.311,436.895 140.311,434.895 141.5,433C 140.33,431.413 139.33,429.747 138.5,428C 134.652,429.331 132.985,427.831 133.5,423.5C 128.489,423.666 123.489,423.499 118.5,423C 116.451,420.407 114.285,417.907 112,415.5C 111.599,417.521 110.432,418.855 108.5,419.5C 105.596,418.016 103.929,415.683 103.5,412.5C 101.833,412.5 100.167,412.5 98.5,412.5C 98.5,410.833 98.5,409.167 98.5,407.5C 96.2075,407.756 94.0408,407.423 92,406.5C 90.5502,401.62 88.3835,397.12 85.5,393C 85.9111,391.856 86.2444,390.689 86.5,389.5C 85.8367,386.194 85.3367,382.861 85,379.5C 83.0283,378.695 81.5283,377.361 80.5,375.5C 78.6162,371.09 76.4496,366.757 74,362.5C 73.8485,359.881 73.0152,357.547 71.5,355.5C 72.1667,354.5 72.8333,353.5 73.5,352.5C 73.5374,349.351 73.204,346.185 72.5,343C 74.8463,343.079 77.013,343.912 79,345.5C 79.5,344.333 80.3333,343.5 81.5,343C 80.5,340.667 79.5,338.333 78.5,336C 76.5273,335.505 74.5273,335.338 72.5,335.5C 72.3379,333.473 72.5045,331.473 73,329.5C 74.6667,330.833 76.3333,332.167 78,333.5C 79.1498,331.359 80.6498,329.526 82.5,328C 82.0541,326.274 81.2208,324.774 80,323.5C 79.6667,314.833 79.3333,306.167 79,297.5C 78.4569,299.631 77.6236,301.631 76.5,303.5C 75.9075,299.108 74.4075,295.108 72,291.5C 71.1674,279.486 71.3341,267.486 72.5,255.5C 73.0252,251.304 75.3586,249.304 79.5,249.5C 79.5,240.833 79.5,232.167 79.5,223.5C 75.8166,223.913 72.4832,223.079 69.5,221C 68.1667,219.333 68.1667,217.667 69.5,216C 67.7397,213.517 65.573,213.017 63,214.5C 62.6322,213.09 61.7989,212.09 60.5,211.5C 56.928,213.937 55.928,212.937 57.5,208.5C 56.1711,205.932 54.3377,205.266 52,206.5C 47.3439,205.176 47.3439,203.843 52,202.5C 53.0113,203.337 54.1779,203.67 55.5,203.5C 55.5,202.5 55.5,201.5 55.5,200.5C 53.4176,200.528 51.5843,199.861 50,198.5C 49.3699,195.906 48.2032,193.573 46.5,191.5C 45.1255,188.161 45.4588,184.994 47.5,182C 45.718,180.322 45.3847,178.489 46.5,176.5C 48.8345,180.116 50.1678,184.116 50.5,188.5C 52.0745,189.631 53.7412,189.798 55.5,189C 53.696,185.039 51.696,181.206 49.5,177.5C 51.4414,175.684 52.1081,173.684 51.5,171.5C 53.7469,174.528 56.7469,175.695 60.5,175C 59.5,174.167 58.5,173.333 57.5,172.5C 58.1667,171.833 58.8333,171.167 59.5,170.5C 57.6745,169.429 56.5079,170.096 56,172.5C 55.8008,170.598 54.9675,169.098 53.5,168C 56.7751,167.071 59.7751,167.571 62.5,169.5C 63.0674,161.02 63.4007,152.354 63.5,143.5C 66.1667,143.5 68.8333,143.5 71.5,143.5C 71.5,138.167 71.5,132.833 71.5,127.5C 68.8333,127.5 66.1667,127.5 63.5,127.5C 63.3379,125.473 63.5045,123.473 64,121.5C 68.1796,119.987 71.0129,117.154 72.5,113C 71.175,99.8209 71.175,86.6543 72.5,73.5C 73.0253,72.8076 73.6919,72.3076 74.5,72C 78.2222,71.7618 81.8889,71.2618 85.5,70.5C 86.4909,68.6769 87.8243,67.1769 89.5,66C 88.6919,65.6924 88.0253,65.1924 87.5,64.5C 95.4793,63.6684 103.479,63.1684 111.5,63C 115.282,60.1688 119.115,60.0021 123,62.5C 124.28,62.3865 125.113,61.7199 125.5,60.5C 124.128,58.3802 124.795,57.3802 127.5,57.5C 127.343,56.1266 127.51,54.7932 128,53.5C 130.667,55.5 133.333,57.5 136,59.5C 138.152,57.7227 137.985,56.2227 135.5,55C 138.155,54.4357 140.821,53.9357 143.5,53.5C 145.135,53.8777 146.635,54.5444 148,55.5C 148.95,54.9777 149.784,54.311 150.5,53.5C 151.962,45.5762 153.129,45.5762 154,53.5C 154.388,54.428 155.055,55.0946 156,55.5C 157.944,54.3125 159.444,52.6458 160.5,50.5C 163.67,51.9171 166.67,53.5838 169.5,55.5C 169.833,54.8333 170.167,54.1667 170.5,53.5C 169.638,51.4896 169.138,49.4896 169,47.5C 169.833,48.5 170.667,49.5 171.5,50.5C 172.386,49.675 172.719,48.675 172.5,47.5C 173.552,47.3505 174.552,47.5172 175.5,48C 174.167,50.3333 172.833,52.6667 171.5,55C 172.448,55.4828 173.448,55.6495 174.5,55.5C 174.351,54.448 174.517,53.448 175,52.5C 176.177,56.2676 177.344,56.1009 178.5,52C 180.521,51.8598 182.355,51.6932 184,51.5C 184.49,52.7932 184.657,54.1266 184.5,55.5C 185.5,55.5 186.5,55.5 187.5,55.5C 188.162,50.3886 189.328,50.3886 191,55.5C 191.333,53.5 191.667,51.5 192,49.5C 195.49,51.9913 198.657,54.8246 201.5,58C 205.355,56.9603 209.022,57.4603 212.5,59.5C 214.55,58.9234 215.55,57.5901 215.5,55.5C 218.898,55.8583 222.065,55.1916 225,53.5C 226.879,55.0128 229.046,55.6795 231.5,55.5C 231.343,56.8734 231.51,58.2068 232,59.5C 233.113,58.2889 234.28,58.2889 235.5,59.5C 236.985,61.8523 238.318,64.1856 239.5,66.5C 243.397,65.9696 246.73,66.9696 249.5,69.5C 251.167,68.1667 252.833,66.8333 254.5,65.5C 256.167,66.8333 257.833,68.1667 259.5,69.5C 260.814,68.6872 261.981,67.6872 263,66.5C 263.202,68.2556 263.702,69.9223 264.5,71.5C 265.148,69.8508 266.148,68.5175 267.5,67.5C 270.64,67.946 273.307,69.2794 275.5,71.5C 276.814,70.6872 277.981,69.6872 279,68.5C 279.483,69.448 279.649,70.448 279.5,71.5C 287.568,71.8441 295.568,72.8441 303.5,74.5C 302.624,75.2508 301.624,75.7508 300.5,76C 301.833,77 301.833,78 300.5,79C 292.613,80.8494 284.613,81.8494 276.5,82C 285.636,83.2663 294.636,84.433 303.5,85.5 Z"/></g>
<g><path style="opacity:1" fill="#667a87" d="M 303.5,85.5 C 306.518,85.3354 309.518,85.502 312.5,86C 318.627,88.5826 324.961,90.5826 331.5,92C 336.197,94.6796 340.863,97.3463 345.5,100C 347.219,101.87 348.219,104.037 348.5,106.5C 333.553,95.8699 316.886,89.3699 298.5,87C 269.501,87.0972 240.501,87.5972 211.5,88.5C 202.412,88.6359 193.412,87.9693 184.5,86.5C 178.936,86.48 173.602,87.48 168.5,89.5C 168.5,88.5 168.5,87.5 168.5,86.5C 174.841,85.5593 181.174,84.5593 187.5,83.5C 191.891,84.9456 196.391,85.9456 201,86.5C 222.373,86.7345 243.873,86.0678 265.5,84.5C 278.136,85.4621 290.802,85.7954 303.5,85.5 Z"/></g>
<g><path style="opacity:1" fill="#010102" d="M 360.5,118.5 C 370.834,131.168 378.001,145.502 382,161.5C 382.73,188.165 383.397,214.832 384,241.5C 387.137,254.422 392.303,266.422 399.5,277.5C 399.5,278.167 399.5,278.833 399.5,279.5C 399.699,287.157 400.699,294.657 402.5,302C 402.75,318.514 401.917,335.014 400,351.5C 397.822,356.505 393.988,358.839 388.5,358.5C 387.252,360.69 385.586,361.023 383.5,359.5C 382.186,360.313 381.019,361.313 380,362.5C 379.612,361.572 378.945,360.905 378,360.5C 376.333,361.167 374.667,361.833 373,362.5C 371.234,361.767 369.401,361.433 367.5,361.5C 367.84,364.144 367.173,366.477 365.5,368.5C 369.265,370.335 368.932,371.835 364.5,373C 363.258,374.875 361.924,376.709 360.5,378.5C 358.922,379.298 357.256,379.798 355.5,380C 354.663,381.011 354.33,382.178 354.5,383.5C 353.5,383.5 352.5,383.5 351.5,383.5C 351.232,386.119 351.565,388.619 352.5,391C 349.184,391.973 346.351,394.14 344,397.5C 343.617,396.944 343.117,396.611 342.5,396.5C 342.5,395.833 342.5,395.167 342.5,394.5C 342.832,361.329 342.498,328.329 341.5,295.5C 341.5,295.167 341.5,294.833 341.5,294.5C 341.5,292.5 341.5,290.5 341.5,288.5C 341.5,281.167 341.5,273.833 341.5,266.5C 341.5,263.167 341.5,259.833 341.5,256.5C 341.5,250.5 341.5,244.5 341.5,238.5C 335.618,238.232 329.785,238.566 324,239.5C 323.5,239.833 323,240.167 322.5,240.5C 324.319,241.32 325.986,242.32 327.5,243.5C 327.833,244.167 328.167,244.833 328.5,245.5C 328.758,249.372 328.091,253.039 326.5,256.5C 324.999,257.752 323.332,258.752 321.5,259.5C 317.548,258.804 313.548,258.304 309.5,258C 309.32,254.42 307.32,251.753 303.5,250C 299.5,249.667 295.5,249.333 291.5,249C 291.221,246.754 290.887,244.254 290.5,241.5C 292.985,239.992 295.652,238.659 298.5,237.5C 297.652,236.009 296.319,235.342 294.5,235.5C 288.596,236.872 284.596,240.538 282.5,246.5C 281.357,246.908 280.357,247.575 279.5,248.5C 277.767,251.059 276.267,253.725 275,256.5C 273.187,256.207 271.187,255.54 269,254.5C 260.922,255.846 252.922,257.513 245,259.5C 243.246,257.886 241.246,256.553 239,255.5C 238.5,248.842 238.334,242.175 238.5,235.5C 238.833,234.167 239.167,232.833 239.5,231.5C 241.169,227.649 241.669,223.649 241,219.5C 239.856,222.08 239.022,224.747 238.5,227.5C 237.961,230.085 236.628,232.252 234.5,234C 231.802,233.516 229.135,232.683 226.5,231.5C 225.617,226.897 225.283,222.23 225.5,217.5C 225.584,212.306 223.584,211.306 219.5,214.5C 218.447,215.438 217.78,216.605 217.5,218C 218.287,220.099 218.62,222.266 218.5,224.5C 217.957,227.817 216.29,229.151 213.5,228.5C 208.684,227.35 203.684,227.184 198.5,228C 196.077,229.571 194.744,231.737 194.5,234.5C 195.5,234.5 196.5,234.5 197.5,234.5C 197.5,234.833 197.5,235.167 197.5,235.5C 197.944,237.113 198.944,238.28 200.5,239C 198.508,239.574 197.008,240.741 196,242.5C 194.701,242.034 193.201,242.034 191.5,242.5C 191.5,243.833 191.5,245.167 191.5,246.5C 190.5,246.5 189.5,246.5 188.5,246.5C 188.391,243.466 187.057,242.466 184.5,243.5C 186.698,246.094 187.698,249.094 187.5,252.5C 187.389,253.117 187.056,253.617 186.5,254C 181.649,254.174 176.982,254.674 172.5,255.5C 171.504,255.414 170.671,255.748 170,256.5C 169.5,301.499 169.333,346.499 169.5,391.5C 170.036,394.698 169.369,397.365 167.5,399.5C 165.819,397.992 163.819,396.992 161.5,396.5C 157.754,395.117 154.421,392.95 151.5,390C 146.814,387.964 142.147,385.964 137.5,384C 132.64,383.032 127.974,383.532 123.5,385.5C 120.136,382.825 116.803,380.158 113.5,377.5C 111.499,371.836 108.665,366.503 105,361.5C 103.794,357.55 102.794,353.55 102,349.5C 96.8513,339.891 92.0179,330.225 87.5,320.5C 87.5,320.167 87.5,319.833 87.5,319.5C 85.904,307.751 86.404,296.085 89,284.5C 93.6202,270.926 97.9535,257.259 102,243.5C 103.968,219.842 105.968,196.175 108,172.5C 109.409,168.106 110.909,163.772 112.5,159.5C 118.072,149.362 124.405,139.695 131.5,130.5C 140.438,120.225 149.772,110.225 159.5,100.5C 160.789,101.501 162.122,101.334 163.5,100C 165.598,97.146 167.931,94.4794 170.5,92C 175.507,89.5831 180.84,88.4165 186.5,88.5C 205.654,91.2409 224.821,91.5742 244,89.5C 253.786,89.8932 263.453,89.8932 273,89.5C 280.819,90.1917 288.485,91.5251 296,93.5C 298.381,92.565 300.881,92.2317 303.5,92.5C 303.5,91.5 303.5,90.5 303.5,89.5C 311.227,90.735 318.56,92.9017 325.5,96C 327.019,97.3513 328.352,98.8513 329.5,100.5C 330.086,100.291 330.586,99.9574 331,99.5C 332.335,101.605 334.002,102.271 336,101.5C 343.595,108.043 351.762,113.71 360.5,118.5 Z"/></g>
<g><path style="opacity:1" fill="#070c11" d="M 348.5,106.5 C 352.14,110.806 356.14,114.806 360.5,118.5C 351.762,113.71 343.595,108.043 336,101.5C 334.002,102.271 332.335,101.605 331,99.5C 330.586,99.9574 330.086,100.291 329.5,100.5C 328.352,98.8513 327.019,97.3513 325.5,96C 318.56,92.9017 311.227,90.735 303.5,89.5C 303.5,90.5 303.5,91.5 303.5,92.5C 300.881,92.2317 298.381,92.565 296,93.5C 288.485,91.5251 280.819,90.1917 273,89.5C 263.453,89.8932 253.786,89.8932 244,89.5C 224.821,91.5742 205.654,91.2409 186.5,88.5C 180.84,88.4165 175.507,89.5831 170.5,92C 167.931,94.4794 165.598,97.146 163.5,100C 162.122,101.334 160.789,101.501 159.5,100.5C 162.878,97.1239 165.878,93.4572 168.5,89.5C 173.602,87.48 178.936,86.48 184.5,86.5C 193.412,87.9693 202.412,88.6359 211.5,88.5C 240.501,87.5972 269.501,87.0972 298.5,87C 316.886,89.3699 333.553,95.8699 348.5,106.5 Z"/></g>
<g><path style="opacity:1" fill="#5a6f7c" d="M 168.5,89.5 C 165.878,93.4572 162.878,97.1239 159.5,100.5C 149.772,110.225 140.438,120.225 131.5,130.5C 132.044,128.42 132.878,126.42 134,124.5C 137.736,120.687 141.236,116.687 144.5,112.5C 145.325,111.614 146.325,111.281 147.5,111.5C 147.491,109.692 147.991,108.025 149,106.5C 153.445,103.56 156.945,99.8929 159.5,95.5C 160.5,95.5 161.5,95.5 162.5,95.5C 163.383,93.0905 164.55,90.7571 166,88.5C 166.671,89.2524 167.504,89.5858 168.5,89.5 Z"/></g>
<g><path style="opacity:1" fill="#628394" d="M 479.5,-0.5 C 490.167,-0.5 500.833,-0.5 511.5,-0.5C 511.5,170.167 511.5,340.833 511.5,511.5C 432.5,511.5 353.5,511.5 274.5,511.5C 274.852,508.572 275.518,505.738 276.5,503C 275.614,501.098 275.947,499.265 277.5,497.5C 278.051,499.413 278.218,501.413 278,503.5C 278.414,503.043 278.914,502.709 279.5,502.5C 280.951,504.559 282.951,505.559 285.5,505.5C 284.968,497.29 285.968,489.29 288.5,481.5C 290.523,479.827 292.856,479.16 295.5,479.5C 295.172,474.125 295.505,468.792 296.5,463.5C 298.776,462.787 301.109,462.287 303.5,462C 302.167,461.667 300.833,461.333 299.5,461C 307.16,453.07 316.326,447.237 327,443.5C 327.333,443.833 327.667,444.167 328,444.5C 328.775,441.503 330.441,439.17 333,437.5C 333.414,437.957 333.914,438.291 334.5,438.5C 334.975,434.252 335.975,430.252 337.5,426.5C 338.935,427.79 339.935,429.456 340.5,431.5C 341.425,430.359 342.259,430.359 343,431.5C 348.789,425.397 351.622,426.73 351.5,435.5C 356.883,436.192 362.217,436.192 367.5,435.5C 367.335,432.15 367.502,428.817 368,425.5C 370.333,424.167 372.667,422.833 375,421.5C 375.813,419.564 376.313,417.564 376.5,415.5C 378.833,415.5 381.167,415.5 383.5,415.5C 383.5,413.5 383.5,411.5 383.5,409.5C 384.552,409.351 385.552,409.517 386.5,410C 385.862,411.707 385.862,413.54 386.5,415.5C 387.552,415.649 388.552,415.483 389.5,415C 388.594,413.301 388.261,411.467 388.5,409.5C 392.79,408.987 396.623,409.987 400,412.5C 400.333,411.833 400.667,411.167 401,410.5C 401.98,412.059 402.813,413.726 403.5,415.5C 404.48,412.914 404.813,410.247 404.5,407.5C 408.167,407.5 411.833,407.5 415.5,407.5C 415.336,410.187 415.503,412.854 416,415.5C 430.475,401.358 444.641,386.858 458.5,372C 460.303,371.363 461.636,370.197 462.5,368.5C 464.045,367.548 465.712,367.215 467.5,367.5C 467.5,362.167 467.5,356.833 467.5,351.5C 469.604,351.799 471.604,351.466 473.5,350.5C 474.588,348.035 476.421,346.369 479,345.5C 479.498,342.183 479.665,338.85 479.5,335.5C 478.167,335.5 476.833,335.5 475.5,335.5C 475.5,330.167 475.5,324.833 475.5,319.5C 474.5,319.5 473.5,319.5 472.5,319.5C 472.509,317.692 472.009,316.025 471,314.5C 467.583,311.539 463.75,309.206 459.5,307.5C 458.585,306.672 457.919,305.672 457.5,304.5C 454.232,303.513 450.898,303.18 447.5,303.5C 447.5,322.167 447.5,340.833 447.5,359.5C 444.305,358.961 441.805,359.961 440,362.5C 437.937,369.339 437.104,376.339 437.5,383.5C 433.5,383.5 429.5,383.5 425.5,383.5C 424.752,376.675 426.585,370.675 431,365.5C 431.403,362.292 432.403,359.292 434,356.5C 436.374,359.288 437.707,358.954 438,355.5C 439.271,350.246 439.771,344.913 439.5,339.5C 438.325,339.719 437.325,339.386 436.5,338.5C 441.542,331.663 439.876,327.996 431.5,327.5C 431.5,324.833 431.5,322.167 431.5,319.5C 428.67,319.306 426.004,318.639 423.5,317.5C 423.242,312.283 423.575,307.116 424.5,302C 423.357,298.358 421.024,295.858 417.5,294.5C 415.643,291.982 413.81,291.982 412,294.5C 411.667,294.167 411.333,293.833 411,293.5C 411.391,296.624 411.557,299.624 411.5,302.5C 409.881,308.019 409.048,313.686 409,319.5C 407.651,307.908 405.818,296.408 403.5,285C 404.376,281.624 403.042,279.124 399.5,277.5C 392.303,266.422 387.137,254.422 384,241.5C 383.397,214.832 382.73,188.165 382,161.5C 378.001,145.502 370.834,131.168 360.5,118.5C 356.14,114.806 352.14,110.806 348.5,106.5C 350.527,106.338 352.527,106.505 354.5,107C 355.833,108.333 355.833,109.667 354.5,111C 357.471,111.471 360.138,112.638 362.5,114.5C 368.119,112.889 371.119,109.222 371.5,103.5C 370.167,103.5 368.833,103.5 367.5,103.5C 370.07,98.1996 371.57,92.533 372,86.5C 373.751,85.1912 375.251,85.5245 376.5,87.5C 377.705,85.1409 377.372,82.9743 375.5,81C 376.716,77.2371 379.049,76.0704 382.5,77.5C 383.308,75.5767 383.808,73.5767 384,71.5C 384.822,74.1168 385.322,76.7835 385.5,79.5C 387.91,79.9209 389.743,81.2542 391,83.5C 391.494,81.8659 391.66,80.1992 391.5,78.5C 392.5,78.5 393.5,78.5 394.5,78.5C 394.414,76.323 393.747,74.323 392.5,72.5C 393.325,71.6143 394.325,71.281 395.5,71.5C 395.819,77.8532 397.153,78.0199 399.5,72C 402.647,70.199 405.813,68.3657 409,66.5C 409.536,64.1311 410.703,62.1311 412.5,60.5C 413.728,62.1759 415.061,62.5092 416.5,61.5C 415.473,65.446 415.306,69.446 416,73.5C 422.47,76.2587 422.637,78.5921 416.5,80.5C 426.154,90.3204 435.987,99.9871 446,109.5C 447.128,111.345 447.628,113.345 447.5,115.5C 452.833,115.5 458.167,115.5 463.5,115.5C 463.5,117.5 463.5,119.5 463.5,121.5C 468.833,121.5 474.167,121.5 479.5,121.5C 479.248,124.32 479.748,126.986 481,129.5C 485.667,134.167 490.333,138.833 495,143.5C 495.499,138.177 495.666,132.844 495.5,127.5C 496.833,127.5 498.167,127.5 499.5,127.5C 499.5,122.167 499.5,116.833 499.5,111.5C 497.645,111.728 496.812,111.061 497,109.5C 501.007,106.659 504.507,103.325 507.5,99.5C 508.395,97.7536 509.062,95.9203 509.5,94C 505.679,89.5623 501.512,85.3956 497,81.5C 496.812,79.9387 497.645,79.272 499.5,79.5C 499.5,68.8333 499.5,58.1667 499.5,47.5C 494.167,47.5 488.833,47.5 483.5,47.5C 483.5,42.1667 483.5,36.8333 483.5,31.5C 486.167,31.5 488.833,31.5 491.5,31.5C 491.5,26.1667 491.5,20.8333 491.5,15.5C 490.167,15.5 488.833,15.5 487.5,15.5C 487.5,11.1667 487.5,6.83333 487.5,2.5C 484.833,2.5 482.167,2.5 479.5,2.5C 455.949,2.60475 455.949,1.60475 479.5,-0.5 Z"/></g>
<g><path style="opacity:1" fill="#352d34" d="M 225.5,217.5 C 224.542,217.047 223.708,216.381 223,215.5C 220.87,219.172 220.037,223.172 220.5,227.5C 220.5,227.833 220.5,228.167 220.5,228.5C 220.167,228.5 219.833,228.5 219.5,228.5C 219.768,226.901 219.434,225.568 218.5,224.5C 218.62,222.266 218.287,220.099 217.5,218C 217.78,216.605 218.447,215.438 219.5,214.5C 223.584,211.306 225.584,212.306 225.5,217.5 Z"/></g>
<g><path style="opacity:1" fill="#5b727f" d="M 112.5,159.5 C 110.909,163.772 109.409,168.106 108,172.5C 105.968,196.175 103.968,219.842 102,243.5C 97.9535,257.259 93.6202,270.926 89,284.5C 86.404,296.085 85.904,307.751 87.5,319.5C 86.5,319.5 85.5,319.5 84.5,319.5C 83.1845,311.682 83.1845,303.849 84.5,296C 88.1924,284.587 91.6924,273.087 95,261.5C 95.2949,254.678 96.9615,248.344 100,242.5C 102.206,220.205 103.873,197.871 105,175.5C 105.94,169.942 107.44,164.609 109.5,159.5C 110.5,159.5 111.5,159.5 112.5,159.5 Z"/></g>
<g><path style="opacity:1" fill="#30183b" d="M 218.5,224.5 C 219.434,225.568 219.768,226.901 219.5,228.5C 219.5,230.167 219.5,231.833 219.5,233.5C 216.26,235.191 214.26,234.191 213.5,230.5C 213.5,229.833 213.5,229.167 213.5,228.5C 216.29,229.151 217.957,227.817 218.5,224.5 Z"/></g>
<g><path style="opacity:1" fill="#57414f" d="M 239.5,231.5 C 238.566,230.432 238.232,229.099 238.5,227.5C 239.022,224.747 239.856,222.08 241,219.5C 241.669,223.649 241.169,227.649 239.5,231.5 Z"/></g>
<g><path style="opacity:1" fill="#262530" d="M 213.5,228.5 C 213.5,229.167 213.5,229.833 213.5,230.5C 208.786,230.173 204.12,230.507 199.5,231.5C 198.388,232.265 197.721,233.265 197.5,234.5C 196.5,234.5 195.5,234.5 194.5,234.5C 194.744,231.737 196.077,229.571 198.5,228C 203.684,227.184 208.684,227.35 213.5,228.5 Z"/></g>
<g><path style="opacity:1" fill="#867586" d="M 225.5,217.5 C 225.283,222.23 225.617,226.897 226.5,231.5C 226.369,232.239 226.536,232.906 227,233.5C 230.148,234.711 232.648,236.711 234.5,239.5C 232.372,238.043 230.038,237.043 227.5,236.5C 226.791,235.596 225.791,235.263 224.5,235.5C 224.666,231.486 224.499,227.486 224,223.5C 223.333,222.167 222.667,222.167 222,223.5C 221.79,225.058 221.29,226.391 220.5,227.5C 220.037,223.172 220.87,219.172 223,215.5C 223.708,216.381 224.542,217.047 225.5,217.5 Z"/></g>
<g><path style="opacity:1" fill="#381c47" d="M 238.5,227.5 C 238.232,229.099 238.566,230.432 239.5,231.5C 239.167,232.833 238.833,234.167 238.5,235.5C 237.778,235.918 237.278,236.584 237,237.5C 236.827,243.348 236.327,249.015 235.5,254.5C 235.821,249.305 235.487,244.305 234.5,239.5C 232.648,236.711 230.148,234.711 227,233.5C 226.536,232.906 226.369,232.239 226.5,231.5C 229.135,232.683 231.802,233.516 234.5,234C 236.628,232.252 237.961,230.085 238.5,227.5 Z"/></g>
<g><path style="opacity:1" fill="#575260" d="M 213.5,230.5 C 214.26,234.191 216.26,235.191 219.5,233.5C 219.586,234.496 219.252,235.329 218.5,236C 215.734,236.338 213.067,235.838 210.5,234.5C 208.811,234.726 207.145,235.059 205.5,235.5C 204.287,235.747 203.62,236.414 203.5,237.5C 201.5,236.833 199.5,236.167 197.5,235.5C 197.5,235.167 197.5,234.833 197.5,234.5C 197.721,233.265 198.388,232.265 199.5,231.5C 204.12,230.507 208.786,230.173 213.5,230.5 Z"/></g>
<g><path style="opacity:1" fill="#8b8293" d="M 219.5,228.5 C 219.833,228.5 220.167,228.5 220.5,228.5C 220.5,231.5 220.5,234.5 220.5,237.5C 216.774,237.177 213.107,237.511 209.5,238.5C 209.863,239.183 210.196,239.85 210.5,240.5C 208.02,239.758 205.687,238.758 203.5,237.5C 203.62,236.414 204.287,235.747 205.5,235.5C 207.145,235.059 208.811,234.726 210.5,234.5C 213.067,235.838 215.734,236.338 218.5,236C 219.252,235.329 219.586,234.496 219.5,233.5C 219.5,231.833 219.5,230.167 219.5,228.5 Z"/></g>
<g><path style="opacity:1" fill="#bdb1bd" d="M 227.5,236.5 C 222.896,238.593 217.896,239.76 212.5,240C 213.056,240.383 213.389,240.883 213.5,241.5C 212.391,241.443 211.391,241.11 210.5,240.5C 210.196,239.85 209.863,239.183 209.5,238.5C 213.107,237.511 216.774,237.177 220.5,237.5C 220.5,234.5 220.5,231.5 220.5,228.5C 220.5,228.167 220.5,227.833 220.5,227.5C 221.29,226.391 221.79,225.058 222,223.5C 222.667,222.167 223.333,222.167 224,223.5C 224.499,227.486 224.666,231.486 224.5,235.5C 225.791,235.263 226.791,235.596 227.5,236.5 Z"/></g>
<g><path style="opacity:1" fill="#e5d6dd" d="M 337.5,256.5 C 336.833,256.5 336.167,256.5 335.5,256.5C 333.5,256.5 331.5,256.5 329.5,256.5C 329.815,252.629 329.482,248.962 328.5,245.5C 328.167,244.833 327.833,244.167 327.5,243.5C 327.461,242.417 327.127,241.417 326.5,240.5C 330.833,239.167 335.167,239.167 339.5,240.5C 340.448,245.435 340.781,250.435 340.5,255.5C 339.209,255.263 338.209,255.596 337.5,256.5 Z"/></g>
<g><path style="opacity:1" fill="#605868" d="M 290.5,241.5 C 288.787,242.635 288.12,244.302 288.5,246.5C 287.288,247.23 286.288,248.23 285.5,249.5C 284.808,248.975 284.308,248.308 284,247.5C 283.764,249.119 282.931,250.119 281.5,250.5C 281.833,249.167 282.167,247.833 282.5,246.5C 284.596,240.538 288.596,236.872 294.5,235.5C 296.319,235.342 297.652,236.009 298.5,237.5C 295.652,238.659 292.985,239.992 290.5,241.5 Z"/></g>
<g><path style="opacity:1" fill="#1a0e1e" d="M 290.5,241.5 C 290.887,244.254 291.221,246.754 291.5,249C 295.5,249.333 299.5,249.667 303.5,250C 307.32,251.753 309.32,254.42 309.5,258C 313.548,258.304 317.548,258.804 321.5,259.5C 320.432,260.434 319.099,260.768 317.5,260.5C 316.833,260.5 316.167,260.5 315.5,260.5C 313.143,260.663 310.81,260.497 308.5,260C 306.45,258.035 304.783,255.868 303.5,253.5C 303.441,251.278 302.275,250.278 300,250.5C 297.528,251.322 295.028,251.989 292.5,252.5C 290.833,252.5 289.167,252.5 287.5,252.5C 287.833,250.5 288.167,248.5 288.5,246.5C 288.12,244.302 288.787,242.635 290.5,241.5 Z"/></g>
<g><path style="opacity:1" fill="#3b1d3c" d="M 191.5,247.5 C 191.854,250.961 190.521,253.461 187.5,255C 182.511,255.499 177.511,255.666 172.5,255.5C 176.982,254.674 181.649,254.174 186.5,254C 187.056,253.617 187.389,253.117 187.5,252.5C 188.593,250.651 189.926,248.984 191.5,247.5 Z"/></g>
<g><path style="opacity:1" fill="#60486b" d="M 288.5,246.5 C 288.167,248.5 287.833,250.5 287.5,252.5C 289.167,252.5 290.833,252.5 292.5,252.5C 292.158,253.338 291.492,253.672 290.5,253.5C 287.824,252.992 285.157,252.825 282.5,253C 281.594,254.699 281.261,256.533 281.5,258.5C 281.167,258.5 280.833,258.5 280.5,258.5C 280.5,257.5 280.5,256.5 280.5,255.5C 280.629,253.784 280.962,252.117 281.5,250.5C 282.931,250.119 283.764,249.119 284,247.5C 284.308,248.308 284.808,248.975 285.5,249.5C 286.288,248.23 287.288,247.23 288.5,246.5 Z"/></g>
<g><path style="opacity:1" fill="#998391" d="M 341.5,256.5 C 340.167,256.5 338.833,256.5 337.5,256.5C 338.209,255.596 339.209,255.263 340.5,255.5C 340.781,250.435 340.448,245.435 339.5,240.5C 335.167,239.167 330.833,239.167 326.5,240.5C 327.127,241.417 327.461,242.417 327.5,243.5C 325.986,242.32 324.319,241.32 322.5,240.5C 323,240.167 323.5,239.833 324,239.5C 329.785,238.566 335.618,238.232 341.5,238.5C 341.5,244.5 341.5,250.5 341.5,256.5 Z"/></g>
<g><path style="opacity:1" fill="#9a7ca3" d="M 290.5,253.5 C 288.22,255.223 285.553,255.889 282.5,255.5C 282.737,256.791 282.404,257.791 281.5,258.5C 281.261,256.533 281.594,254.699 282.5,253C 285.157,252.825 287.824,252.992 290.5,253.5 Z"/></g>
<g><path style="opacity:1" fill="#be97b2" d="M 328.5,245.5 C 329.482,248.962 329.815,252.629 329.5,256.5C 331.5,256.5 333.5,256.5 335.5,256.5C 334.054,257.94 332.221,258.607 330,258.5C 328.319,258.392 327.152,257.725 326.5,256.5C 328.091,253.039 328.758,249.372 328.5,245.5 Z"/></g>
<g><path style="opacity:1" fill="#0d0612" d="M 197.5,235.5 C 199.5,236.167 201.5,236.833 203.5,237.5C 205.687,238.758 208.02,239.758 210.5,240.5C 211.391,241.11 212.391,241.443 213.5,241.5C 218.948,245.744 224.281,250.244 229.5,255C 231.861,257.109 233.861,256.942 235.5,254.5C 236.327,249.015 236.827,243.348 237,237.5C 237.278,236.584 237.778,235.918 238.5,235.5C 238.334,242.175 238.5,248.842 239,255.5C 241.246,256.553 243.246,257.886 245,259.5C 252.922,257.513 260.922,255.846 269,254.5C 271.187,255.54 273.187,256.207 275,256.5C 276.267,253.725 277.767,251.059 279.5,248.5C 280.357,247.575 281.357,246.908 282.5,246.5C 282.167,247.833 281.833,249.167 281.5,250.5C 280.962,252.117 280.629,253.784 280.5,255.5C 278.907,256.348 277.74,257.681 277,259.5C 276.172,263.466 275.672,267.466 275.5,271.5C 269.545,269.342 263.878,266.508 258.5,263C 251.471,261.694 245.138,262.861 239.5,266.5C 234.035,263.88 228.369,261.714 222.5,260C 213.533,251.966 203.199,247.799 191.5,247.5C 189.926,248.984 188.593,250.651 187.5,252.5C 187.698,249.094 186.698,246.094 184.5,243.5C 187.057,242.466 188.391,243.466 188.5,246.5C 189.5,246.5 190.5,246.5 191.5,246.5C 191.5,245.167 191.5,243.833 191.5,242.5C 193.201,242.034 194.701,242.034 196,242.5C 197.008,240.741 198.508,239.574 200.5,239C 198.944,238.28 197.944,237.113 197.5,235.5 Z"/></g>
<g><path style="opacity:1" fill="#e0d2d9" d="M 227.5,236.5 C 230.038,237.043 232.372,238.043 234.5,239.5C 235.487,244.305 235.821,249.305 235.5,254.5C 233.861,256.942 231.861,257.109 229.5,255C 224.281,250.244 218.948,245.744 213.5,241.5C 213.389,240.883 213.056,240.383 212.5,240C 217.896,239.76 222.896,238.593 227.5,236.5 Z"/></g>
<g><path style="opacity:1" fill="#340b3b" d="M 326.5,256.5 C 327.152,257.725 328.319,258.392 330,258.5C 332.221,258.607 334.054,257.94 335.5,256.5C 336.167,256.5 336.833,256.5 337.5,256.5C 338.833,256.5 340.167,256.5 341.5,256.5C 341.5,259.833 341.5,263.167 341.5,266.5C 341.167,266.5 340.833,266.5 340.5,266.5C 340.5,265.5 340.5,264.5 340.5,263.5C 337.195,262.85 333.861,262.184 330.5,261.5C 326.837,261.944 323.171,262.278 319.5,262.5C 318.833,261.833 318.167,261.167 317.5,260.5C 319.099,260.768 320.432,260.434 321.5,259.5C 323.332,258.752 324.999,257.752 326.5,256.5 Z"/></g>
<g><path style="opacity:1" fill="#330d3e" d="M 280.5,255.5 C 280.5,256.5 280.5,257.5 280.5,258.5C 279.067,260.558 278.4,262.892 278.5,265.5C 277.932,269.601 276.932,273.601 275.5,277.5C 271.95,273.786 267.95,270.619 263.5,268C 257.327,265.999 250.994,265.166 244.5,265.5C 242.883,266.038 241.216,266.371 239.5,266.5C 245.138,262.861 251.471,261.694 258.5,263C 263.878,266.508 269.545,269.342 275.5,271.5C 275.672,267.466 276.172,263.466 277,259.5C 277.74,257.681 278.907,256.348 280.5,255.5 Z"/></g>
<g><path style="opacity:1" fill="#75467b" d="M 315.5,263.5 C 308.345,264.329 301.011,264.829 293.5,265C 292.619,265.708 291.953,266.542 291.5,267.5C 290.833,267.833 290.167,268.167 289.5,268.5C 289.859,266.629 290.859,265.129 292.5,264C 300.159,263.5 307.826,263.334 315.5,263.5 Z"/></g>
<g><path style="opacity:1" fill="#813986" d="M 315.5,260.5 C 316.167,260.5 316.833,260.5 317.5,260.5C 318.167,261.167 318.833,261.833 319.5,262.5C 323.923,263.212 328.923,263.879 334.5,264.5C 329.269,264.444 324.269,265.111 319.5,266.5C 318.167,266.5 316.833,266.5 315.5,266.5C 316.091,265.849 316.757,265.182 317.5,264.5C 317.043,263.702 316.376,263.369 315.5,263.5C 315.5,262.5 315.5,261.5 315.5,260.5 Z"/></g>
<g><path style="opacity:1" fill="#dcbfd6" d="M 303.5,253.5 C 304.783,255.868 306.45,258.035 308.5,260C 310.81,260.497 313.143,260.663 315.5,260.5C 315.5,261.5 315.5,262.5 315.5,263.5C 307.826,263.334 300.159,263.5 292.5,264C 290.859,265.129 289.859,266.629 289.5,268.5C 288.659,272.575 289.992,275.575 293.5,277.5C 297.97,278.486 302.637,278.819 307.5,278.5C 302.025,279.489 296.358,279.822 290.5,279.5C 290.392,277.217 289.559,275.217 288,273.5C 287.712,270.47 287.545,267.636 287.5,265C 292.27,263.037 297.27,262.037 302.5,262C 302.043,261.586 301.709,261.086 301.5,260.5C 303.173,258.477 303.84,256.144 303.5,253.5 Z"/></g>
<g><path style="opacity:1" fill="#5d1a65" d="M 340.5,266.5 C 337.99,266.946 335.99,266.28 334.5,264.5C 328.923,263.879 323.923,263.212 319.5,262.5C 323.171,262.278 326.837,261.944 330.5,261.5C 333.861,262.184 337.195,262.85 340.5,263.5C 340.5,264.5 340.5,265.5 340.5,266.5 Z"/></g>
<g><path style="opacity:1" fill="#caa0c0" d="M 334.5,264.5 C 335.99,266.28 337.99,266.946 340.5,266.5C 340.5,269.5 340.5,272.5 340.5,275.5C 339.835,273.631 339.169,271.631 338.5,269.5C 335.912,268.806 333.579,267.64 331.5,266C 327.541,266.158 323.541,266.325 319.5,266.5C 324.269,265.111 329.269,264.444 334.5,264.5 Z"/></g>
<g><path style="opacity:1" fill="#ebd7db" d="M 239.5,266.5 C 239.334,270.846 239.501,275.179 240,279.5C 240.368,280.91 241.201,281.91 242.5,282.5C 243.549,278.695 243.549,274.862 242.5,271C 242.395,268.822 243.061,266.988 244.5,265.5C 250.994,265.166 257.327,265.999 263.5,268C 267.95,270.619 271.95,273.786 275.5,277.5C 277.794,281.127 280.46,284.461 283.5,287.5C 288.532,292.005 294.532,294.339 301.5,294.5C 313.655,295.495 325.989,295.829 338.5,295.5C 338.833,295.5 339.167,295.5 339.5,295.5C 340.167,296.167 340.833,296.833 341.5,297.5C 328.829,297.333 316.162,297.5 303.5,298C 311.473,298.826 311.473,299.326 303.5,299.5C 303.5,300.5 303.5,301.5 303.5,302.5C 306.518,302.335 309.518,302.502 312.5,303C 308.848,303.499 305.182,303.665 301.5,303.5C 301.5,302.5 301.5,301.5 301.5,300.5C 295.339,300.895 295.006,299.895 300.5,297.5C 296.508,294.501 292.175,293.834 287.5,295.5C 287.719,296.675 287.386,297.675 286.5,298.5C 284.068,297.6 281.568,296.934 279,296.5C 276.673,298.152 274.173,299.485 271.5,300.5C 271.5,301.5 271.5,302.5 271.5,303.5C 274.621,303.462 277.621,302.795 280.5,301.5C 282.841,302.182 285.174,302.849 287.5,303.5C 287.5,307.5 287.5,311.5 287.5,315.5C 287.998,318.01 288.664,320.51 289.5,323C 289.167,324.167 288.833,325.333 288.5,326.5C 284.219,326.245 281.053,328.245 279,332.5C 278.333,333.833 278.333,335.167 279,336.5C 280.117,336.335 281.284,336.002 282.5,335.5C 282.833,336.833 283.167,338.167 283.5,339.5C 281.69,345.756 279.19,351.756 276,357.5C 275.744,360.557 275.244,363.557 274.5,366.5C 278.796,367.328 283.129,367.828 287.5,368C 284.424,368.346 281.424,369.012 278.5,370C 280.315,370.757 281.981,371.59 283.5,372.5C 277.921,372.209 273.254,370.043 269.5,366C 271.478,363.853 272.811,361.353 273.5,358.5C 273.5,358.167 273.5,357.833 273.5,357.5C 275.625,353.738 277.458,349.738 279,345.5C 279.78,343.613 279.613,341.946 278.5,340.5C 275.638,339.319 272.638,339.319 269.5,340.5C 267.5,340.5 265.5,340.5 263.5,340.5C 266.904,339.113 270.404,337.78 274,336.5C 275.101,337.291 275.934,337.291 276.5,336.5C 274,335.5 271.5,334.5 269,333.5C 262.316,334.561 255.816,336.228 249.5,338.5C 248,338.547 247,337.881 246.5,336.5C 244.257,335.526 241.924,335.192 239.5,335.5C 238.58,330.939 240.246,328.105 244.5,327C 245.191,325.933 245.691,324.766 246,323.5C 246.333,323.833 246.667,324.167 247,324.5C 248.067,323.809 249.234,323.309 250.5,323C 248.277,320.777 245.611,319.444 242.5,319C 240.081,317.491 239.081,315.325 239.5,312.5C 235.236,313.982 230.902,314.815 226.5,315C 225.833,314.667 225.167,314.333 224.5,314C 225.333,312.5 226.5,311.333 228,310.5C 228.483,309.552 228.649,308.552 228.5,307.5C 226.833,307.5 225.167,307.5 223.5,307.5C 223.5,308.833 223.5,310.167 223.5,311.5C 217.697,312.087 212.197,311.42 207,309.5C 203.99,312.57 202.157,311.903 201.5,307.5C 198.8,304.6 195.467,303.266 191.5,303.5C 191.5,298.167 191.5,292.833 191.5,287.5C 192.833,287.5 194.167,287.5 195.5,287.5C 195.5,282.167 195.5,276.833 195.5,271.5C 193.143,271.663 190.81,271.497 188.5,271C 189.167,270.667 189.833,270.333 190.5,270C 185.164,268.016 179.83,267.183 174.5,267.5C 174.719,266.325 174.386,265.325 173.5,264.5C 172.667,265.5 171.833,266.5 171,267.5C 170.5,308.832 170.333,350.165 170.5,391.5C 170.167,391.5 169.833,391.5 169.5,391.5C 169.333,346.499 169.5,301.499 170,256.5C 170.671,255.748 171.504,255.414 172.5,255.5C 177.511,255.666 182.511,255.499 187.5,255C 190.521,253.461 191.854,250.961 191.5,247.5C 203.199,247.799 213.533,251.966 222.5,260C 228.369,261.714 234.035,263.88 239.5,266.5 Z"/></g>
<g><path style="opacity:1" fill="#c18cb7" d="M 244.5,265.5 C 243.061,266.988 242.395,268.822 242.5,271C 243.549,274.862 243.549,278.695 242.5,282.5C 241.201,281.91 240.368,280.91 240,279.5C 239.501,275.179 239.334,270.846 239.5,266.5C 241.216,266.371 242.883,266.038 244.5,265.5 Z"/></g>
<g><path style="opacity:1" fill="#aa8a9e" d="M 177.5,259.5 C 187.506,259.334 197.506,259.5 207.5,260C 197.401,260.039 187.401,260.873 177.5,262.5C 177.5,261.5 177.5,260.5 177.5,259.5 Z"/></g>
<g><path style="opacity:1" fill="#471463" d="M 315.5,263.5 C 316.376,263.369 317.043,263.702 317.5,264.5C 316.757,265.182 316.091,265.849 315.5,266.5C 314.432,267.434 313.099,267.768 311.5,267.5C 308.426,267.873 305.426,268.539 302.5,269.5C 302.5,270.833 302.5,272.167 302.5,273.5C 306.291,274.031 309.957,275.031 313.5,276.5C 312.051,277.172 310.718,277.839 309.5,278.5C 308.833,278.5 308.167,278.5 307.5,278.5C 302.637,278.819 297.97,278.486 293.5,277.5C 296.365,277.945 298.865,277.278 301,275.5C 300.052,272.982 299.219,270.315 298.5,267.5C 295.959,268.103 293.626,268.103 291.5,267.5C 291.953,266.542 292.619,265.708 293.5,265C 301.011,264.829 308.345,264.329 315.5,263.5 Z"/></g>
<g><path style="opacity:1" fill="#eddae0" d="M 303.5,253.5 C 303.84,256.144 303.173,258.477 301.5,260.5C 301.709,261.086 302.043,261.586 302.5,262C 297.27,262.037 292.27,263.037 287.5,265C 287.545,267.636 287.712,270.47 288,273.5C 289.559,275.217 290.392,277.217 290.5,279.5C 296.358,279.822 302.025,279.489 307.5,278.5C 308.167,278.5 308.833,278.5 309.5,278.5C 311.527,278.662 313.527,278.495 315.5,278C 316.851,276.383 318.518,275.216 320.5,274.5C 315.423,273.895 310.423,273.062 305.5,272C 305.167,271.667 304.833,271.333 304.5,271C 307.069,270.102 309.402,268.935 311.5,267.5C 313.099,267.768 314.432,267.434 315.5,266.5C 316.833,266.5 318.167,266.5 319.5,266.5C 323.541,266.325 327.541,266.158 331.5,266C 333.579,267.64 335.912,268.806 338.5,269.5C 339.169,271.631 339.835,273.631 340.5,275.5C 340.5,279.5 340.5,283.5 340.5,287.5C 336.833,287.5 333.167,287.5 329.5,287.5C 328.833,287.5 328.167,287.5 327.5,287.5C 314.649,286.758 301.649,286.091 288.5,285.5C 288.167,285.5 287.833,285.5 287.5,285.5C 280.192,280.877 277.192,274.21 278.5,265.5C 278.4,262.892 279.067,260.558 280.5,258.5C 280.833,258.5 281.167,258.5 281.5,258.5C 282.404,257.791 282.737,256.791 282.5,255.5C 285.553,255.889 288.22,255.223 290.5,253.5C 291.492,253.672 292.158,253.338 292.5,252.5C 295.028,251.989 297.528,251.322 300,250.5C 302.275,250.278 303.441,251.278 303.5,253.5 Z"/></g>
<g><path style="opacity:1" fill="#b58db1" d="M 311.5,267.5 C 309.402,268.935 307.069,270.102 304.5,271C 304.833,271.333 305.167,271.667 305.5,272C 310.423,273.062 315.423,273.895 320.5,274.5C 318.518,275.216 316.851,276.383 315.5,278C 313.527,278.495 311.527,278.662 309.5,278.5C 310.718,277.839 312.051,277.172 313.5,276.5C 309.957,275.031 306.291,274.031 302.5,273.5C 302.5,272.167 302.5,270.833 302.5,269.5C 305.426,268.539 308.426,267.873 311.5,267.5 Z"/></g>
<g><path style="opacity:1" fill="#180534" d="M 291.5,267.5 C 293.626,268.103 295.959,268.103 298.5,267.5C 299.219,270.315 300.052,272.982 301,275.5C 298.865,277.278 296.365,277.945 293.5,277.5C 289.992,275.575 288.659,272.575 289.5,268.5C 290.167,268.167 290.833,267.833 291.5,267.5 Z"/></g>
<g><path style="opacity:1" fill="#a0889a" d="M 340.5,266.5 C 340.833,266.5 341.167,266.5 341.5,266.5C 341.5,273.833 341.5,281.167 341.5,288.5C 337.5,288.5 333.5,288.5 329.5,288.5C 329.5,288.167 329.5,287.833 329.5,287.5C 333.167,287.5 336.833,287.5 340.5,287.5C 340.5,283.5 340.5,279.5 340.5,275.5C 340.5,272.5 340.5,269.5 340.5,266.5 Z"/></g>
<g><path style="opacity:1" fill="#5f246f" d="M 278.5,265.5 C 277.192,274.21 280.192,280.877 287.5,285.5C 286.178,285.67 285.011,285.337 284,284.5C 283.517,285.448 283.351,286.448 283.5,287.5C 280.46,284.461 277.794,281.127 275.5,277.5C 276.932,273.601 277.932,269.601 278.5,265.5 Z"/></g>
<g><path style="opacity:1" fill="#c9b3b8" d="M 288.5,285.5 C 301.649,286.091 314.649,286.758 327.5,287.5C 315.162,287.667 302.829,287.5 290.5,287C 289.584,286.722 288.918,286.222 288.5,285.5 Z"/></g>
<g><path style="opacity:1" fill="#06030e" d="M 216.5,285.5 C 222.147,286.608 227.814,287.608 233.5,288.5C 232.85,290.435 232.517,292.435 232.5,294.5C 230.4,294.523 228.567,293.856 227,292.5C 224.593,293.196 222.26,293.529 220,293.5C 216.864,291.836 215.697,289.169 216.5,285.5 Z"/></g>
<g><path style="opacity:1" fill="#0e0329" d="M 329.5,288.5 C 333.5,288.5 337.5,288.5 341.5,288.5C 341.5,290.5 341.5,292.5 341.5,294.5C 339.186,293.821 338.853,292.488 340.5,290.5C 335.225,288.917 330.225,289.417 325.5,292C 316.482,292.832 307.482,292.665 298.5,291.5C 299.09,290.201 300.09,289.368 301.5,289C 310.827,288.5 320.161,288.334 329.5,288.5 Z"/></g>
<g><path style="opacity:1" fill="#240a44" d="M 287.5,285.5 C 287.833,285.5 288.167,285.5 288.5,285.5C 288.918,286.222 289.584,286.722 290.5,287C 302.829,287.5 315.162,287.667 327.5,287.5C 328.167,287.5 328.833,287.5 329.5,287.5C 329.5,287.833 329.5,288.167 329.5,288.5C 320.161,288.334 310.827,288.5 301.5,289C 300.09,289.368 299.09,290.201 298.5,291.5C 307.482,292.665 316.482,292.832 325.5,292C 330.225,289.417 335.225,288.917 340.5,290.5C 338.853,292.488 339.186,293.821 341.5,294.5C 341.5,294.833 341.5,295.167 341.5,295.5C 340.833,295.5 340.167,295.5 339.5,295.5C 339.167,295.5 338.833,295.5 338.5,295.5C 338.389,294.883 338.056,294.383 337.5,294C 325.502,293.833 313.502,294 301.5,294.5C 294.532,294.339 288.532,292.005 283.5,287.5C 283.351,286.448 283.517,285.448 284,284.5C 285.011,285.337 286.178,285.67 287.5,285.5 Z"/></g>
<g><path style="opacity:1" fill="#1b122b" d="M 216.5,285.5 C 215.697,289.169 216.864,291.836 220,293.5C 222.26,293.529 224.593,293.196 227,292.5C 228.567,293.856 230.4,294.523 232.5,294.5C 232.517,292.435 232.85,290.435 233.5,288.5C 237.264,289.385 238.264,291.552 236.5,295C 231.254,296.506 225.921,296.839 220.5,296C 215.332,294.34 212.665,290.84 212.5,285.5C 213.833,285.5 215.167,285.5 216.5,285.5 Z"/></g>
<g><path style="opacity:1" fill="#360e5c" d="M 338.5,295.5 C 325.989,295.829 313.655,295.495 301.5,294.5C 313.502,294 325.502,293.833 337.5,294C 338.056,294.383 338.389,294.883 338.5,295.5 Z"/></g>
<g><path style="opacity:1" fill="#628497" d="M 417.5,294.5 C 421.024,295.858 423.357,298.358 424.5,302C 423.575,307.116 423.242,312.283 423.5,317.5C 426.004,318.639 428.67,319.306 431.5,319.5C 431.5,322.167 431.5,324.833 431.5,327.5C 439.876,327.996 441.542,331.663 436.5,338.5C 437.325,339.386 438.325,339.719 439.5,339.5C 439.771,344.913 439.271,350.246 438,355.5C 437.707,358.954 436.374,359.288 434,356.5C 432.403,359.292 431.403,362.292 431,365.5C 426.585,370.675 424.752,376.675 425.5,383.5C 429.5,383.5 433.5,383.5 437.5,383.5C 437.104,376.339 437.937,369.339 440,362.5C 441.805,359.961 444.305,358.961 447.5,359.5C 447.5,340.833 447.5,322.167 447.5,303.5C 450.898,303.18 454.232,303.513 457.5,304.5C 457.919,305.672 458.585,306.672 459.5,307.5C 463.75,309.206 467.583,311.539 471,314.5C 472.009,316.025 472.509,317.692 472.5,319.5C 473.5,319.5 474.5,319.5 475.5,319.5C 475.5,324.833 475.5,330.167 475.5,335.5C 476.833,335.5 478.167,335.5 479.5,335.5C 479.665,338.85 479.498,342.183 479,345.5C 476.421,346.369 474.588,348.035 473.5,350.5C 471.604,351.466 469.604,351.799 467.5,351.5C 467.5,356.833 467.5,362.167 467.5,367.5C 465.712,367.215 464.045,367.548 462.5,368.5C 461.636,370.197 460.303,371.363 458.5,372C 444.641,386.858 430.475,401.358 416,415.5C 415.503,412.854 415.336,410.187 415.5,407.5C 411.833,407.5 408.167,407.5 404.5,407.5C 404.813,410.247 404.48,412.914 403.5,415.5C 402.813,413.726 401.98,412.059 401,410.5C 400.667,411.167 400.333,411.833 400,412.5C 396.623,409.987 392.79,408.987 388.5,409.5C 388.261,411.467 388.594,413.301 389.5,415C 388.552,415.483 387.552,415.649 386.5,415.5C 385.862,413.54 385.862,411.707 386.5,410C 385.552,409.517 384.552,409.351 383.5,409.5C 383.5,411.5 383.5,413.5 383.5,415.5C 381.167,415.5 378.833,415.5 376.5,415.5C 376.313,417.564 375.813,419.564 375,421.5C 372.667,422.833 370.333,424.167 368,425.5C 367.502,428.817 367.335,432.15 367.5,435.5C 362.217,436.192 356.883,436.192 351.5,435.5C 351.622,426.73 348.789,425.397 343,431.5C 342.259,430.359 341.425,430.359 340.5,431.5C 339.935,429.456 338.935,427.79 337.5,426.5C 341.294,422.13 343.961,417.13 345.5,411.5C 347.947,409.709 349.78,407.376 351,404.5C 351.333,405.167 351.667,405.833 352,406.5C 353.892,405.87 355.559,404.87 357,403.5C 356.737,404.951 356.904,406.284 357.5,407.5C 359.965,406.078 362.631,405.078 365.5,404.5C 364.253,402.958 364.253,401.458 365.5,400C 364.062,399.781 362.729,399.281 361.5,398.5C 361.846,397.304 362.346,397.304 363,398.5C 363.45,396.481 364.283,394.648 365.5,393C 364.919,392.107 364.585,391.107 364.5,390C 365.86,387.73 366.527,385.23 366.5,382.5C 368.905,382.134 371.238,381.467 373.5,380.5C 375.397,380.728 376.73,381.728 377.5,383.5C 378.967,382.305 380.467,382.305 382,383.5C 382.702,382.205 383.369,380.872 384,379.5C 388.062,384.473 393.396,386.806 400,386.5C 400.908,384.561 402.408,383.561 404.5,383.5C 405.699,379.481 407.533,375.815 410,372.5C 410.72,370.888 410.554,369.388 409.5,368C 410.448,367.517 411.448,367.351 412.5,367.5C 410.875,364.745 411.208,362.245 413.5,360C 411.941,358.244 410.274,358.244 408.5,360C 408.957,360.414 409.291,360.914 409.5,361.5C 408.499,364.172 407.499,366.839 406.5,369.5C 403.53,370.637 401.364,372.637 400,375.5C 399.833,374.167 399.667,372.833 399.5,371.5C 400.934,367.697 402.268,363.864 403.5,360C 402.346,359.086 402.513,358.253 404,357.5C 403.904,352.453 405.071,347.786 407.5,343.5C 407.192,342.692 406.692,342.025 406,341.5C 405.333,335.5 405.333,329.5 406,323.5C 407.654,320.768 410.154,319.435 413.5,319.5C 413.744,313.584 413.744,307.75 413.5,302C 414.614,299.324 415.948,296.824 417.5,294.5 Z"/></g>
<g><path style="opacity:1" fill="#ecdddd" d="M 263.5,340.5 C 257.623,343.111 251.456,344.778 245,345.5C 244.22,350.317 244.72,354.984 246.5,359.5C 246.677,361.968 245.677,363.635 243.5,364.5C 243.5,364.833 243.5,365.167 243.5,365.5C 234.148,365.566 224.815,365.232 215.5,364.5C 215.263,365.791 215.596,366.791 216.5,367.5C 221.333,369.951 226.333,371.618 231.5,372.5C 230.77,374.045 229.437,374.878 227.5,375C 233.245,375.98 238.912,377.314 244.5,379C 239.511,379.499 234.511,379.666 229.5,379.5C 229.232,381.099 229.566,382.432 230.5,383.5C 230.427,385.027 231.094,386.027 232.5,386.5C 233.425,391.542 235.258,396.209 238,400.5C 239.843,402.171 242.009,403.171 244.5,403.5C 245.209,404.404 246.209,404.737 247.5,404.5C 247.918,405.222 248.584,405.722 249.5,406C 255.681,406.819 261.681,406.653 267.5,405.5C 268.167,405.5 268.833,405.5 269.5,405.5C 274.495,405.739 278.162,403.739 280.5,399.5C 280.5,400.833 280.5,402.167 280.5,403.5C 281.873,403.343 283.207,403.51 284.5,404C 284.5,405.667 284.5,407.333 284.5,409C 281.435,409.787 280.102,411.787 280.5,415C 280.633,419.134 282.8,421.3 287,421.5C 287.333,420.167 287.667,418.833 288,417.5C 289.952,421.395 292.786,422.229 296.5,420C 297.548,416.544 299.881,415.044 303.5,415.5C 303.335,412.15 303.502,408.817 304,405.5C 306.579,404.631 308.412,402.965 309.5,400.5C 307.395,397.333 305.062,397 302.5,399.5C 298.766,395.787 298.766,391.953 302.5,388C 301.253,386.506 301.253,385.006 302.5,383.5C 303.251,384.376 303.751,385.376 304,386.5C 304.833,385.667 305.667,384.833 306.5,384C 310.152,383.501 313.818,383.335 317.5,383.5C 317.881,388.789 316.881,393.789 314.5,398.5C 317.446,399.655 320.446,399.821 323.5,399C 319.579,393.523 318.412,387.357 320,380.5C 322.442,377.952 324.108,374.952 325,371.5C 325.517,361.334 326.017,351.167 326.5,341C 326.569,336.415 326.069,331.915 325,327.5C 323.609,329.715 321.943,329.715 320,327.5C 319.322,325.098 319.822,322.932 321.5,321C 321.37,319.941 320.87,319.108 320,318.5C 314.157,320.279 308.657,319.612 303.5,316.5C 298.208,315.505 292.875,315.172 287.5,315.5C 287.5,311.5 287.5,307.5 287.5,303.5C 285.174,302.849 282.841,302.182 280.5,301.5C 277.621,302.795 274.621,303.462 271.5,303.5C 271.5,302.5 271.5,301.5 271.5,300.5C 274.173,299.485 276.673,298.152 279,296.5C 281.568,296.934 284.068,297.6 286.5,298.5C 287.386,297.675 287.719,296.675 287.5,295.5C 292.175,293.834 296.508,294.501 300.5,297.5C 295.006,299.895 295.339,300.895 301.5,300.5C 301.5,301.5 301.5,302.5 301.5,303.5C 305.182,303.665 308.848,303.499 312.5,303C 309.518,302.502 306.518,302.335 303.5,302.5C 303.5,301.5 303.5,300.5 303.5,299.5C 311.473,299.326 311.473,298.826 303.5,298C 316.162,297.5 328.829,297.333 341.5,297.5C 341.5,312.833 341.5,328.167 341.5,343.5C 340.669,354.659 340.169,365.993 340,377.5C 340.003,381.742 339.17,385.742 337.5,389.5C 338.199,391.612 337.699,393.612 336,395.5C 335.178,399.876 334.178,404.209 333,408.5C 329.136,413.358 325.303,418.191 321.5,423C 316.105,425.566 311.439,429.066 307.5,433.5C 301.593,438.227 295.259,442.394 288.5,446C 284.716,446.818 281.05,447.818 277.5,449C 274.633,449.801 271.966,449.634 269.5,448.5C 254.543,446.353 239.543,443.687 224.5,440.5C 220.503,439.397 216.836,437.731 213.5,435.5C 212.049,433.209 210.382,431.043 208.5,429C 209.5,428.667 210.5,428.333 211.5,428C 209.68,427.021 208.513,425.521 208,423.5C 206.737,425.797 204.903,426.63 202.5,426C 199.236,422.227 195.57,419.06 191.5,416.5C 188.933,415.283 186.6,413.616 184.5,411.5C 178.325,406.999 173.658,401.333 170.5,394.5C 170.5,393.5 170.5,392.5 170.5,391.5C 170.333,350.165 170.5,308.832 171,267.5C 171.833,266.5 172.667,265.5 173.5,264.5C 174.386,265.325 174.719,266.325 174.5,267.5C 179.83,267.183 185.164,268.016 190.5,270C 189.833,270.333 189.167,270.667 188.5,271C 190.81,271.497 193.143,271.663 195.5,271.5C 195.5,276.833 195.5,282.167 195.5,287.5C 194.167,287.5 192.833,287.5 191.5,287.5C 191.5,292.833 191.5,298.167 191.5,303.5C 195.467,303.266 198.8,304.6 201.5,307.5C 202.157,311.903 203.99,312.57 207,309.5C 212.197,311.42 217.697,312.087 223.5,311.5C 223.5,310.167 223.5,308.833 223.5,307.5C 225.167,307.5 226.833,307.5 228.5,307.5C 228.649,308.552 228.483,309.552 228,310.5C 226.5,311.333 225.333,312.5 224.5,314C 225.167,314.333 225.833,314.667 226.5,315C 230.902,314.815 235.236,313.982 239.5,312.5C 239.081,315.325 240.081,317.491 242.5,319C 245.611,319.444 248.277,320.777 250.5,323C 249.234,323.309 248.067,323.809 247,324.5C 246.667,324.167 246.333,323.833 246,323.5C 245.691,324.766 245.191,325.933 244.5,327C 240.246,328.105 238.58,330.939 239.5,335.5C 241.924,335.192 244.257,335.526 246.5,336.5C 247,337.881 248,338.547 249.5,338.5C 255.816,336.228 262.316,334.561 269,333.5C 271.5,334.5 274,335.5 276.5,336.5C 275.934,337.291 275.101,337.291 274,336.5C 270.404,337.78 266.904,339.113 263.5,340.5 Z"/></g>
<g><path style="opacity:1" fill="#eddada" d="M 287.5,315.5 C 292.875,315.172 298.208,315.505 303.5,316.5C 308.657,319.612 314.157,320.279 320,318.5C 320.87,319.108 321.37,319.941 321.5,321C 319.822,322.932 319.322,325.098 320,327.5C 321.943,329.715 323.609,329.715 325,327.5C 326.069,331.915 326.569,336.415 326.5,341C 326.017,351.167 325.517,361.334 325,371.5C 324.108,374.952 322.442,377.952 320,380.5C 318.412,387.357 319.579,393.523 323.5,399C 320.446,399.821 317.446,399.655 314.5,398.5C 316.881,393.789 317.881,388.789 317.5,383.5C 313.818,383.335 310.152,383.501 306.5,384C 305.667,384.833 304.833,385.667 304,386.5C 303.751,385.376 303.251,384.376 302.5,383.5C 301.253,385.006 301.253,386.506 302.5,388C 298.766,391.953 298.766,395.787 302.5,399.5C 305.062,397 307.395,397.333 309.5,400.5C 308.412,402.965 306.579,404.631 304,405.5C 303.502,408.817 303.335,412.15 303.5,415.5C 299.881,415.044 297.548,416.544 296.5,420C 292.786,422.229 289.952,421.395 288,417.5C 287.667,418.833 287.333,420.167 287,421.5C 282.8,421.3 280.633,419.134 280.5,415C 280.102,411.787 281.435,409.787 284.5,409C 284.5,407.333 284.5,405.667 284.5,404C 283.207,403.51 281.873,403.343 280.5,403.5C 280.5,402.167 280.5,400.833 280.5,399.5C 282.167,396.833 283.833,394.167 285.5,391.5C 285.833,390.833 286.167,390.167 286.5,389.5C 287.434,388.432 287.768,387.099 287.5,385.5C 275.34,384.669 263.007,384.169 250.5,384C 245.676,382.378 240.676,381.212 235.5,380.5C 234.167,380.667 232.833,380.833 231.5,381C 230.748,381.671 230.414,382.504 230.5,383.5C 229.566,382.432 229.232,381.099 229.5,379.5C 234.511,379.666 239.511,379.499 244.5,379C 238.912,377.314 233.245,375.98 227.5,375C 229.437,374.878 230.77,374.045 231.5,372.5C 235.534,372.505 239.534,372.838 243.5,373.5C 247.454,374.381 251.454,375.048 255.5,375.5C 255.842,376.338 256.508,376.672 257.5,376.5C 262.01,377.341 266.676,378.008 271.5,378.5C 273.568,379.375 275.568,380.541 277.5,382C 283.825,382.5 290.158,382.666 296.5,382.5C 297.167,378.5 295.5,376.833 291.5,377.5C 289.371,375.05 286.704,373.383 283.5,372.5C 281.981,371.59 280.315,370.757 278.5,370C 281.424,369.012 284.424,368.346 287.5,368C 283.129,367.828 278.796,367.328 274.5,366.5C 275.244,363.557 275.744,360.557 276,357.5C 279.19,351.756 281.69,345.756 283.5,339.5C 283.167,338.167 282.833,336.833 282.5,335.5C 281.284,336.002 280.117,336.335 279,336.5C 278.333,335.167 278.333,333.833 279,332.5C 281.053,328.245 284.219,326.245 288.5,326.5C 288.833,325.333 289.167,324.167 289.5,323C 288.664,320.51 287.998,318.01 287.5,315.5 Z"/></g>
<g><path style="opacity:1" fill="#6c6365" d="M 339.5,295.5 C 340.167,295.5 340.833,295.5 341.5,295.5C 342.498,328.329 342.832,361.329 342.5,394.5C 342.167,394.5 341.833,394.5 341.5,394.5C 341.5,377.5 341.5,360.5 341.5,343.5C 341.5,328.167 341.5,312.833 341.5,297.5C 340.833,296.833 340.167,296.167 339.5,295.5 Z"/></g>
<g><path style="opacity:1" fill="#9a8894" d="M 278.5,340.5 C 279.613,341.946 279.78,343.613 279,345.5C 277.458,349.738 275.625,353.738 273.5,357.5C 274.167,353.5 274.833,349.5 275.5,345.5C 277.727,344.599 278.727,342.933 278.5,340.5 Z"/></g>
<g><path style="opacity:1" fill="#c8b9c3" d="M 263.5,340.5 C 265.5,340.5 267.5,340.5 269.5,340.5C 265.048,342.541 260.382,344.208 255.5,345.5C 253.5,345.5 251.5,345.5 249.5,345.5C 248.206,347.048 247.539,349.048 247.5,351.5C 247.401,355.005 248.068,358.338 249.5,361.5C 248.323,363.975 246.323,364.975 243.5,364.5C 245.677,363.635 246.677,361.968 246.5,359.5C 244.72,354.984 244.22,350.317 245,345.5C 251.456,344.778 257.623,343.111 263.5,340.5 Z"/></g>
<g><path style="opacity:1" fill="#9e929a" d="M 249.5,345.5 C 249.196,346.15 248.863,346.817 248.5,347.5C 250.185,351.597 251.018,355.931 251,360.5C 251.671,361.252 252.504,361.586 253.5,361.5C 254.141,362.482 254.807,363.482 255.5,364.5C 251.555,365.491 247.555,365.824 243.5,365.5C 243.5,365.167 243.5,364.833 243.5,364.5C 246.323,364.975 248.323,363.975 249.5,361.5C 248.068,358.338 247.401,355.005 247.5,351.5C 247.539,349.048 248.206,347.048 249.5,345.5 Z"/></g>
<g><path style="opacity:1" fill="#0f0911" d="M 278.5,340.5 C 278.727,342.933 277.727,344.599 275.5,345.5C 274.167,346.167 273.167,347.167 272.5,348.5C 271.883,348.611 271.383,348.944 271,349.5C 270.667,352.167 270.333,354.833 270,357.5C 266.685,358.603 263.851,360.436 261.5,363C 260.207,363.49 258.873,363.657 257.5,363.5C 256.395,362.4 255.062,361.733 253.5,361.5C 252.588,359.823 251.921,357.989 251.5,356C 252.443,353.114 252.443,350.28 251.5,347.5C 252.949,346.828 254.282,346.161 255.5,345.5C 260.382,344.208 265.048,342.541 269.5,340.5C 272.638,339.319 275.638,339.319 278.5,340.5 Z"/></g>
<g><path style="opacity:1" fill="#5d525e" d="M 249.5,345.5 C 251.5,345.5 253.5,345.5 255.5,345.5C 254.282,346.161 252.949,346.828 251.5,347.5C 252.443,350.28 252.443,353.114 251.5,356C 251.921,357.989 252.588,359.823 253.5,361.5C 252.504,361.586 251.671,361.252 251,360.5C 251.018,355.931 250.185,351.597 248.5,347.5C 248.863,346.817 249.196,346.15 249.5,345.5 Z"/></g>
<g><path style="opacity:1" fill="#382f39" d="M 272.5,348.5 C 273.757,359.234 269.09,364.568 258.5,364.5C 257.833,364.5 257.5,364.167 257.5,363.5C 258.873,363.657 260.207,363.49 261.5,363C 263.851,360.436 266.685,358.603 270,357.5C 270.333,354.833 270.667,352.167 271,349.5C 271.383,348.944 271.883,348.611 272.5,348.5 Z"/></g>
<g><path style="opacity:1" fill="#03090f" d="M 399.5,279.5 C 403.21,289.381 404.876,299.714 404.5,310.5C 404.012,324.167 403.512,337.834 403,351.5C 402.616,354.06 401.783,356.394 400.5,358.5C 398.615,359.699 396.782,361.033 395,362.5C 388.228,359.485 383.395,361.485 380.5,368.5C 376.639,373.251 371.639,376.417 365.5,378C 364.074,380.045 363.074,382.212 362.5,384.5C 360.602,386.25 359.269,388.416 358.5,391C 356.254,392.039 354.087,393.206 352,394.5C 351.517,395.448 351.351,396.448 351.5,397.5C 349.801,397.34 348.134,397.506 346.5,398C 343.674,402.886 342.341,402.386 342.5,396.5C 343.117,396.611 343.617,396.944 344,397.5C 346.351,394.14 349.184,391.973 352.5,391C 351.565,388.619 351.232,386.119 351.5,383.5C 352.5,383.5 353.5,383.5 354.5,383.5C 354.33,382.178 354.663,381.011 355.5,380C 357.256,379.798 358.922,379.298 360.5,378.5C 361.924,376.709 363.258,374.875 364.5,373C 368.932,371.835 369.265,370.335 365.5,368.5C 367.173,366.477 367.84,364.144 367.5,361.5C 369.401,361.433 371.234,361.767 373,362.5C 374.667,361.833 376.333,361.167 378,360.5C 378.945,360.905 379.612,361.572 380,362.5C 381.019,361.313 382.186,360.313 383.5,359.5C 385.586,361.023 387.252,360.69 388.5,358.5C 393.988,358.839 397.822,356.505 400,351.5C 401.917,335.014 402.75,318.514 402.5,302C 400.699,294.657 399.699,287.157 399.5,279.5 Z"/></g>
<g><path style="opacity:1" fill="#66555d" d="M 275.5,345.5 C 274.833,349.5 274.167,353.5 273.5,357.5C 273.5,357.833 273.5,358.167 273.5,358.5C 271.017,361.155 268.684,363.988 266.5,367C 266.645,367.772 266.978,368.439 267.5,369C 270.279,370.471 272.945,371.971 275.5,373.5C 269.32,371.413 262.987,369.913 256.5,369C 255.142,368.066 253.808,367.232 252.5,366.5C 256.195,367.46 259.861,367.46 263.5,366.5C 261.709,365.83 260.042,365.163 258.5,364.5C 269.09,364.568 273.757,359.234 272.5,348.5C 273.167,347.167 274.167,346.167 275.5,345.5 Z"/></g>
<g><path style="opacity:1" fill="#9e8489" d="M 273.5,358.5 C 272.811,361.353 271.478,363.853 269.5,366C 273.254,370.043 277.921,372.209 283.5,372.5C 286.704,373.383 289.371,375.05 291.5,377.5C 289.139,377.326 286.806,376.993 284.5,376.5C 281.373,375.875 278.373,374.875 275.5,373.5C 272.945,371.971 270.279,370.471 267.5,369C 266.978,368.439 266.645,367.772 266.5,367C 268.684,363.988 271.017,361.155 273.5,358.5 Z"/></g>
<g><path style="opacity:1" fill="#86707a" d="M 253.5,361.5 C 255.062,361.733 256.395,362.4 257.5,363.5C 257.5,364.167 257.833,364.5 258.5,364.5C 260.042,365.163 261.709,365.83 263.5,366.5C 259.861,367.46 256.195,367.46 252.5,366.5C 244.5,366.5 236.5,366.5 228.5,366.5C 225.291,366.589 222.125,366.256 219,365.5C 217.624,365.684 216.791,366.351 216.5,367.5C 215.596,366.791 215.263,365.791 215.5,364.5C 224.815,365.232 234.148,365.566 243.5,365.5C 247.555,365.824 251.555,365.491 255.5,364.5C 254.807,363.482 254.141,362.482 253.5,361.5 Z"/></g>
<g><path style="opacity:1" fill="#384853" d="M 400.5,358.5 C 399.544,360.516 398.21,362.349 396.5,364C 393.348,362.814 390.015,362.481 386.5,363C 384.63,365.04 382.63,366.873 380.5,368.5C 383.395,361.485 388.228,359.485 395,362.5C 396.782,361.033 398.615,359.699 400.5,358.5 Z"/></g>
<g><path style="opacity:1" fill="#431746" d="M 228.5,366.5 C 233.431,368.983 238.431,371.316 243.5,373.5C 239.534,372.838 235.534,372.505 231.5,372.5C 226.333,371.618 221.333,369.951 216.5,367.5C 216.791,366.351 217.624,365.684 219,365.5C 222.125,366.256 225.291,366.589 228.5,366.5 Z"/></g>
<g><path style="opacity:1" fill="#100810" d="M 228.5,366.5 C 236.5,366.5 244.5,366.5 252.5,366.5C 253.808,367.232 255.142,368.066 256.5,369C 262.987,369.913 269.32,371.413 275.5,373.5C 278.373,374.875 281.373,375.875 284.5,376.5C 282.866,377.161 281.033,377.494 279,377.5C 271.297,375.82 263.463,375.153 255.5,375.5C 251.454,375.048 247.454,374.381 243.5,373.5C 238.431,371.316 233.431,368.983 228.5,366.5 Z"/></g>
<g><path style="opacity:1" fill="#2d1030" d="M 255.5,375.5 C 263.463,375.153 271.297,375.82 279,377.5C 281.033,377.494 282.866,377.161 284.5,376.5C 286.806,376.993 289.139,377.326 291.5,377.5C 291.842,378.338 292.508,378.672 293.5,378.5C 288.695,379.487 283.695,379.821 278.5,379.5C 276.194,379.007 273.861,378.674 271.5,378.5C 271.082,377.778 270.416,377.278 269.5,377C 265.514,376.501 261.514,376.334 257.5,376.5C 256.508,376.672 255.842,376.338 255.5,375.5 Z"/></g>
<g><path style="opacity:1" fill="#bd8faf" d="M 257.5,376.5 C 261.514,376.334 265.514,376.501 269.5,377C 270.416,377.278 271.082,377.778 271.5,378.5C 266.676,378.008 262.01,377.341 257.5,376.5 Z"/></g>
<g><path style="opacity:1" fill="#dfb7ce" d="M 291.5,377.5 C 295.5,376.833 297.167,378.5 296.5,382.5C 290.158,382.666 283.825,382.5 277.5,382C 275.568,380.541 273.568,379.375 271.5,378.5C 273.861,378.674 276.194,379.007 278.5,379.5C 283.68,380.815 289.014,380.815 294.5,379.5C 294.376,378.893 294.043,378.56 293.5,378.5C 292.508,378.672 291.842,378.338 291.5,377.5 Z"/></g>
<g><path style="opacity:1" fill="#743b70" d="M 293.5,378.5 C 294.043,378.56 294.376,378.893 294.5,379.5C 289.014,380.815 283.68,380.815 278.5,379.5C 283.695,379.821 288.695,379.487 293.5,378.5 Z"/></g>
<g><path style="opacity:1" fill="#5b7a8c" d="M 87.5,320.5 C 92.0179,330.225 96.8513,339.891 102,349.5C 102.794,353.55 103.794,357.55 105,361.5C 108.665,366.503 111.499,371.836 113.5,377.5C 114.564,385.55 119.231,389.217 127.5,388.5C 131.777,387.394 136.11,387.228 140.5,388C 142.346,389.03 144.013,390.196 145.5,391.5C 144.178,391.67 143.011,391.337 142,390.5C 139.753,391.98 137.253,392.647 134.5,392.5C 131.989,392.712 129.822,392.045 128,390.5C 127.51,391.793 127.343,393.127 127.5,394.5C 122.32,395.116 117.32,394.116 112.5,391.5C 109.469,380.763 105.303,370.43 100,360.5C 97.8304,352.065 94.8304,344.065 91,336.5C 90.6667,336.833 90.3333,337.167 90,337.5C 88.5815,331.91 87.7482,326.243 87.5,320.5 Z"/></g>
<g><path style="opacity:1" fill="#b7839e" d="M 287.5,385.5 C 276.833,385.5 266.167,385.5 255.5,385.5C 253.5,385.5 251.5,385.5 249.5,385.5C 245.248,384.963 241.081,383.963 237,382.5C 234.244,382.424 233.077,383.757 233.5,386.5C 233.167,386.5 232.833,386.5 232.5,386.5C 231.094,386.027 230.427,385.027 230.5,383.5C 230.414,382.504 230.748,381.671 231.5,381C 232.833,380.833 234.167,380.667 235.5,380.5C 240.676,381.212 245.676,382.378 250.5,384C 263.007,384.169 275.34,384.669 287.5,385.5 Z"/></g>
<g><path style="opacity:1" fill="#b17393" d="M 255.5,385.5 C 266.167,385.5 276.833,385.5 287.5,385.5C 287.768,387.099 287.434,388.432 286.5,389.5C 286.5,388.5 286.5,387.5 286.5,386.5C 275.986,386.828 265.653,386.494 255.5,385.5 Z"/></g>
<g><path style="opacity:1" fill="#576c7e" d="M 113.5,377.5 C 116.803,380.158 120.136,382.825 123.5,385.5C 127.974,383.532 132.64,383.032 137.5,384C 142.147,385.964 146.814,387.964 151.5,390C 154.421,392.95 157.754,395.117 161.5,396.5C 159.076,396.808 156.743,396.474 154.5,395.5C 152.342,392.356 149.342,391.023 145.5,391.5C 144.013,390.196 142.346,389.03 140.5,388C 136.11,387.228 131.777,387.394 127.5,388.5C 119.231,389.217 114.564,385.55 113.5,377.5 Z"/></g>
<g><path style="opacity:1" fill="#8f4078" d="M 249.5,385.5 C 251.5,385.5 253.5,385.5 255.5,385.5C 265.653,386.494 275.986,386.828 286.5,386.5C 286.5,387.5 286.5,388.5 286.5,389.5C 286.167,390.167 285.833,390.833 285.5,391.5C 285.167,391.5 284.833,391.5 284.5,391.5C 284.5,390.167 284.5,388.833 284.5,387.5C 272.452,388.145 260.785,387.478 249.5,385.5 Z"/></g>
<g><path style="opacity:1" fill="#320332" d="M 239.5,386.5 C 241.364,388.218 243.697,389.385 246.5,390C 251.594,390.288 256.594,391.121 261.5,392.5C 263.745,391.076 266.245,390.41 269,390.5C 270.986,390.569 272.486,391.235 273.5,392.5C 270.362,390.577 268.029,391.243 266.5,394.5C 264.604,395.466 262.604,395.799 260.5,395.5C 253.969,394.993 247.802,393.327 242,390.5C 240.624,390.684 239.791,391.351 239.5,392.5C 239.167,392.5 238.833,392.5 238.5,392.5C 237.5,391.167 236.5,389.833 235.5,388.5C 236.183,386.824 237.517,386.157 239.5,386.5 Z"/></g>
<g><path style="opacity:1" fill="#4a0749" d="M 239.5,386.5 C 246.516,387.811 253.683,388.811 261,389.5C 267.155,388.616 273.322,388.449 279.5,389C 281.376,389.918 282.376,391.418 282.5,393.5C 280.007,397.022 277.34,400.356 274.5,403.5C 274.5,402.167 274.5,400.833 274.5,399.5C 275.451,397.882 276.784,396.549 278.5,395.5C 279.429,394.311 279.762,392.978 279.5,391.5C 277.435,391.517 275.435,391.85 273.5,392.5C 272.486,391.235 270.986,390.569 269,390.5C 266.245,390.41 263.745,391.076 261.5,392.5C 256.594,391.121 251.594,390.288 246.5,390C 243.697,389.385 241.364,388.218 239.5,386.5 Z"/></g>
<g><path style="opacity:1" fill="#681964" d="M 249.5,385.5 C 260.785,387.478 272.452,388.145 284.5,387.5C 284.5,388.833 284.5,390.167 284.5,391.5C 284.167,392.5 283.5,393.167 282.5,393.5C 282.376,391.418 281.376,389.918 279.5,389C 273.322,388.449 267.155,388.616 261,389.5C 253.683,388.811 246.516,387.811 239.5,386.5C 237.517,386.157 236.183,386.824 235.5,388.5C 234.5,388.167 233.833,387.5 233.5,386.5C 233.077,383.757 234.244,382.424 237,382.5C 241.081,383.963 245.248,384.963 249.5,385.5 Z"/></g>
<g><path style="opacity:1" fill="#aa959d" d="M 232.5,386.5 C 232.833,386.5 233.167,386.5 233.5,386.5C 233.833,387.5 234.5,388.167 235.5,388.5C 236.5,389.833 237.5,391.167 238.5,392.5C 238.34,394.199 238.506,395.866 239,397.5C 241.04,399.37 242.873,401.37 244.5,403.5C 242.009,403.171 239.843,402.171 238,400.5C 235.258,396.209 233.425,391.542 232.5,386.5 Z"/></g>
<g><path style="opacity:1" fill="#330120" d="M 273.5,392.5 C 275.435,391.85 277.435,391.517 279.5,391.5C 279.762,392.978 279.429,394.311 278.5,395.5C 276.784,396.549 275.451,397.882 274.5,399.5C 274.5,398.5 274.5,397.5 274.5,396.5C 269.637,396.819 264.97,396.486 260.5,395.5C 262.604,395.799 264.604,395.466 266.5,394.5C 268.029,391.243 270.362,390.577 273.5,392.5 Z"/></g>
<g><path style="opacity:1" fill="#31262c" d="M 238.5,392.5 C 238.833,392.5 239.167,392.5 239.5,392.5C 242.119,395.119 244.785,397.785 247.5,400.5C 250.766,401.476 253.433,403.143 255.5,405.5C 252.794,405.425 250.127,405.092 247.5,404.5C 246.209,404.737 245.209,404.404 244.5,403.5C 242.873,401.37 241.04,399.37 239,397.5C 238.506,395.866 238.34,394.199 238.5,392.5 Z"/></g>
<g><path style="opacity:1" fill="#130b0f" d="M 260.5,395.5 C 264.97,396.486 269.637,396.819 274.5,396.5C 274.5,397.5 274.5,398.5 274.5,399.5C 274.5,400.833 274.5,402.167 274.5,403.5C 272.597,403.796 270.93,404.463 269.5,405.5C 268.833,405.5 268.167,405.5 267.5,405.5C 263.5,405.5 259.5,405.5 255.5,405.5C 253.433,403.143 250.766,401.476 247.5,400.5C 244.785,397.785 242.119,395.119 239.5,392.5C 239.791,391.351 240.624,390.684 242,390.5C 247.802,393.327 253.969,394.993 260.5,395.5 Z"/></g>
<g><path style="opacity:1" fill="#c5c0c4" d="M 341.5,343.5 C 341.5,360.5 341.5,377.5 341.5,394.5C 340.162,398.169 338.829,401.836 337.5,405.5C 336.542,405.953 335.708,406.619 335,407.5C 334.616,410.06 333.783,412.394 332.5,414.5C 329.74,416.254 327.74,418.588 326.5,421.5C 325.325,421.281 324.325,421.614 323.5,422.5C 320.822,425.873 318.156,429.206 315.5,432.5C 312.914,433.48 310.247,433.813 307.5,433.5C 311.439,429.066 316.105,425.566 321.5,423C 325.303,418.191 329.136,413.358 333,408.5C 334.178,404.209 335.178,399.876 336,395.5C 337.699,393.612 338.199,391.612 337.5,389.5C 339.17,385.742 340.003,381.742 340,377.5C 340.169,365.993 340.669,354.659 341.5,343.5 Z"/></g>
<g><path style="opacity:1" fill="#b68bac" d="M 284.5,391.5 C 284.833,391.5 285.167,391.5 285.5,391.5C 283.833,394.167 282.167,396.833 280.5,399.5C 278.162,403.739 274.495,405.739 269.5,405.5C 270.93,404.463 272.597,403.796 274.5,403.5C 277.34,400.356 280.007,397.022 282.5,393.5C 283.5,393.167 284.167,392.5 284.5,391.5 Z"/></g>
<g><path style="opacity:1" fill="#ceb8be" d="M 170.5,394.5 C 173.658,401.333 178.325,406.999 184.5,411.5C 183.833,411.5 183.5,411.833 183.5,412.5C 181.5,410.833 179.5,409.167 177.5,407.5C 175.852,406.19 174.186,404.857 172.5,403.5C 171.614,404.325 171.281,405.325 171.5,406.5C 170.517,402.702 170.183,398.702 170.5,394.5 Z"/></g>
<g><path style="opacity:1" fill="#85747e" d="M 247.5,404.5 C 250.127,405.092 252.794,405.425 255.5,405.5C 259.5,405.5 263.5,405.5 267.5,405.5C 261.681,406.653 255.681,406.819 249.5,406C 248.584,405.722 247.918,405.222 247.5,404.5 Z"/></g>
<g><path style="opacity:1" fill="#535459" d="M 337.5,405.5 C 336.217,407.606 335.384,409.94 335,412.5C 334.292,413.381 333.458,414.047 332.5,414.5C 333.783,412.394 334.616,410.06 335,407.5C 335.708,406.619 336.542,405.953 337.5,405.5 Z"/></g>
<g><path style="opacity:1" fill="#926787" d="M 184.5,411.5 C 186.6,413.616 188.933,415.283 191.5,416.5C 191.833,417.167 192.167,417.833 192.5,418.5C 191.662,418.842 191.328,419.508 191.5,420.5C 188.5,418.167 185.833,415.5 183.5,412.5C 183.5,411.833 183.833,411.5 184.5,411.5 Z"/></g>
<g><path style="opacity:1" fill="#e9dcdc" d="M 177.5,407.5 C 179.5,409.167 181.5,410.833 183.5,412.5C 185.833,415.5 188.5,418.167 191.5,420.5C 193.453,424.12 196.119,427.12 199.5,429.5C 201.167,431.833 203.167,433.833 205.5,435.5C 211.613,440.73 217.946,445.73 224.5,450.5C 229.717,455.789 235.717,460.122 242.5,463.5C 246.593,465.772 249.593,468.605 251.5,472C 249.196,475.125 247.196,478.458 245.5,482C 246.449,484.306 247.449,486.639 248.5,489C 247.743,492.725 246.41,496.225 244.5,499.5C 248.913,502.892 248.246,506.059 242.5,509C 243.381,509.708 244.047,510.542 244.5,511.5C 223.833,511.5 203.167,511.5 182.5,511.5C 183.514,510.326 184.847,509.66 186.5,509.5C 200.788,508.268 215.288,507.268 230,506.5C 232.999,506.481 235.832,507.148 238.5,508.5C 240.311,507.173 242.311,506.173 244.5,505.5C 241.345,503.904 238.011,502.904 234.5,502.5C 224.134,503.729 213.801,503.729 203.5,502.5C 203.167,501.833 202.833,501.167 202.5,500.5C 203.167,498.833 203.833,497.167 204.5,495.5C 203.065,491.027 201.731,486.527 200.5,482C 201.159,479.538 201.493,477.038 201.5,474.5C 202.833,474.5 204.167,474.5 205.5,474.5C 205.09,468.379 205.59,462.379 207,456.5C 207.483,457.448 207.649,458.448 207.5,459.5C 208.833,459.5 210.167,459.5 211.5,459.5C 211.5,458.167 211.5,456.833 211.5,455.5C 210.167,455.5 208.833,455.5 207.5,455.5C 208.244,452.05 206.91,450.384 203.5,450.5C 203.658,453.545 202.991,456.379 201.5,459C 202.38,460.356 202.714,461.856 202.5,463.5C 201.167,463.5 199.833,463.5 198.5,463.5C 199.014,461.488 199.18,459.488 199,457.5C 198.586,457.957 198.086,458.291 197.5,458.5C 196.048,455.755 194.048,453.422 191.5,451.5C 192.105,449.519 193.105,449.185 194.5,450.5C 195.932,447.581 194.932,446.248 191.5,446.5C 191.808,444.076 191.474,441.743 190.5,439.5C 188.668,438.752 187.001,437.752 185.5,436.5C 184.201,433.605 182.535,430.938 180.5,428.5C 179.201,429.09 178.368,430.09 178,431.5C 178.119,426.543 178.285,421.71 178.5,417C 175.788,413.256 176.288,412.756 180,415.5C 180.167,415 180.333,414.5 180.5,414C 178.546,412.259 177.546,410.092 177.5,407.5 Z"/></g>
<g><path style="opacity:1" fill="#5d1e56" d="M 192.5,418.5 C 196.167,421.5 199.5,424.833 202.5,428.5C 201.791,429.404 200.791,429.737 199.5,429.5C 196.119,427.12 193.453,424.12 191.5,420.5C 191.328,419.508 191.662,418.842 192.5,418.5 Z"/></g>
<g><path style="opacity:1" fill="#dbc4ce" d="M 191.5,416.5 C 195.57,419.06 199.236,422.227 202.5,426C 204.903,426.63 206.737,425.797 208,423.5C 208.513,425.521 209.68,427.021 211.5,428C 210.5,428.333 209.5,428.667 208.5,429C 210.382,431.043 212.049,433.209 213.5,435.5C 211.938,435.267 210.605,434.6 209.5,433.5C 207.45,431.453 205.117,429.786 202.5,428.5C 199.5,424.833 196.167,421.5 192.5,418.5C 192.167,417.833 191.833,417.167 191.5,416.5 Z"/></g>
<g><path style="opacity:1" fill="#838891" d="M 332.5,414.5 C 328.467,420.057 324.8,425.891 321.5,432C 312.801,437.346 304.134,442.68 295.5,448C 289.924,449.644 284.257,450.811 278.5,451.5C 272.634,450.857 266.967,449.857 261.5,448.5C 264.167,448.5 266.833,448.5 269.5,448.5C 271.966,449.634 274.633,449.801 277.5,449C 281.05,447.818 284.716,446.818 288.5,446C 295.259,442.394 301.593,438.227 307.5,433.5C 310.247,433.813 312.914,433.48 315.5,432.5C 318.156,429.206 320.822,425.873 323.5,422.5C 324.325,421.614 325.325,421.281 326.5,421.5C 327.74,418.588 329.74,416.254 332.5,414.5 Z"/></g>
<g><path style="opacity:1" fill="#4f2640" d="M 202.5,428.5 C 205.117,429.786 207.45,431.453 209.5,433.5C 208.395,434.6 207.062,435.267 205.5,435.5C 203.167,433.833 201.167,431.833 199.5,429.5C 200.791,429.737 201.791,429.404 202.5,428.5 Z"/></g>
<g><path style="opacity:1" fill="#0b1214" d="M 362.5,384.5 C 361.956,388.673 360.79,392.673 359,396.5C 353.264,397.62 348.764,400.62 345.5,405.5C 343.996,409.531 342.496,413.531 341,417.5C 336.922,421.984 333.589,426.984 331,432.5C 319.226,444.296 305.392,452.296 289.5,456.5C 286.921,456.394 284.588,457.061 282.5,458.5C 275.966,458.267 269.466,458.6 263,459.5C 258.14,458.496 253.64,456.663 249.5,454C 252.58,453.234 255.58,452.234 258.5,451C 256.5,450.333 254.5,449.667 252.5,449C 253.793,448.51 255.127,448.343 256.5,448.5C 258.167,448.5 259.833,448.5 261.5,448.5C 266.967,449.857 272.634,450.857 278.5,451.5C 284.257,450.811 289.924,449.644 295.5,448C 304.134,442.68 312.801,437.346 321.5,432C 324.8,425.891 328.467,420.057 332.5,414.5C 333.458,414.047 334.292,413.381 335,412.5C 335.384,409.94 336.217,407.606 337.5,405.5C 338.829,401.836 340.162,398.169 341.5,394.5C 341.833,394.5 342.167,394.5 342.5,394.5C 342.5,395.167 342.5,395.833 342.5,396.5C 342.341,402.386 343.674,402.886 346.5,398C 348.134,397.506 349.801,397.34 351.5,397.5C 351.351,396.448 351.517,395.448 352,394.5C 354.087,393.206 356.254,392.039 358.5,391C 359.269,388.416 360.602,386.25 362.5,384.5 Z"/></g>
<g><path style="opacity:1" fill="#b3aeb6" d="M 224.5,440.5 C 239.543,443.687 254.543,446.353 269.5,448.5C 266.833,448.5 264.167,448.5 261.5,448.5C 259.833,448.5 258.167,448.5 256.5,448.5C 253.054,447.313 249.387,446.646 245.5,446.5C 238.362,444.966 231.362,442.966 224.5,440.5 Z"/></g>
<g><path style="opacity:1" fill="#71818e" d="M 169.5,391.5 C 169.833,391.5 170.167,391.5 170.5,391.5C 170.5,392.5 170.5,393.5 170.5,394.5C 170.183,398.702 170.517,402.702 171.5,406.5C 171.5,409.5 171.5,412.5 171.5,415.5C 171.334,428.851 171.667,442.185 172.5,455.5C 173,474.163 173.333,492.83 173.5,511.5C 173.167,511.5 172.833,511.5 172.5,511.5C 172.155,495.308 171.155,479.308 169.5,463.5C 169.667,450.163 169.5,436.829 169,423.5C 166.823,415.427 166.323,407.427 167.5,399.5C 169.369,397.365 170.036,394.698 169.5,391.5 Z"/></g>
<g><path style="opacity:1" fill="#3b3439" d="M 209.5,433.5 C 210.605,434.6 211.938,435.267 213.5,435.5C 216.836,437.731 220.503,439.397 224.5,440.5C 231.362,442.966 238.362,444.966 245.5,446.5C 238.231,445.634 230.897,444.634 223.5,443.5C 223.5,444.833 223.5,446.167 223.5,447.5C 225.827,447.247 227.827,447.914 229.5,449.5C 230.086,449.291 230.586,448.957 231,448.5C 233.813,450.15 236.313,452.15 238.5,454.5C 239.386,455.325 239.719,456.325 239.5,457.5C 244.012,458.675 247.845,461.008 251,464.5C 255.44,466.469 259.94,468.136 264.5,469.5C 264.5,469.833 264.5,470.167 264.5,470.5C 263.791,471.404 262.791,471.737 261.5,471.5C 260.486,470.326 259.153,469.66 257.5,469.5C 254.903,467.406 251.903,466.073 248.5,465.5C 240.543,460.566 232.543,455.566 224.5,450.5C 217.946,445.73 211.613,440.73 205.5,435.5C 207.062,435.267 208.395,434.6 209.5,433.5 Z"/></g>
<g><path style="opacity:1" fill="#1c2425" d="M 245.5,446.5 C 249.387,446.646 253.054,447.313 256.5,448.5C 255.127,448.343 253.793,448.51 252.5,449C 254.5,449.667 256.5,450.333 258.5,451C 255.58,452.234 252.58,453.234 249.5,454C 253.64,456.663 258.14,458.496 263,459.5C 269.466,458.6 275.966,458.267 282.5,458.5C 282.047,459.458 281.381,460.292 280.5,461C 278.235,462.118 275.901,462.951 273.5,463.5C 273.67,464.822 273.337,465.989 272.5,467C 269.749,467.943 267.083,468.776 264.5,469.5C 259.94,468.136 255.44,466.469 251,464.5C 247.845,461.008 244.012,458.675 239.5,457.5C 239.719,456.325 239.386,455.325 238.5,454.5C 236.313,452.15 233.813,450.15 231,448.5C 230.586,448.957 230.086,449.291 229.5,449.5C 227.827,447.914 225.827,447.247 223.5,447.5C 223.5,446.167 223.5,444.833 223.5,443.5C 230.897,444.634 238.231,445.634 245.5,446.5 Z"/></g>
<g><path style="opacity:1" fill="#ada2aa" d="M 224.5,450.5 C 232.543,455.566 240.543,460.566 248.5,465.5C 246.5,464.833 244.5,464.167 242.5,463.5C 235.717,460.122 229.717,455.789 224.5,450.5 Z"/></g>
<g><path style="opacity:1" fill="#607e91" d="M 399.5,277.5 C 403.042,279.124 404.376,281.624 403.5,285C 405.818,296.408 407.651,307.908 409,319.5C 409.048,313.686 409.881,308.019 411.5,302.5C 411.557,299.624 411.391,296.624 411,293.5C 411.333,293.833 411.667,294.167 412,294.5C 413.81,291.982 415.643,291.982 417.5,294.5C 415.948,296.824 414.614,299.324 413.5,302C 413.744,307.75 413.744,313.584 413.5,319.5C 410.154,319.435 407.654,320.768 406,323.5C 405.333,329.5 405.333,335.5 406,341.5C 406.692,342.025 407.192,342.692 407.5,343.5C 405.071,347.786 403.904,352.453 404,357.5C 402.513,358.253 402.346,359.086 403.5,360C 402.268,363.864 400.934,367.697 399.5,371.5C 399.667,372.833 399.833,374.167 400,375.5C 401.364,372.637 403.53,370.637 406.5,369.5C 407.499,366.839 408.499,364.172 409.5,361.5C 409.291,360.914 408.957,360.414 408.5,360C 410.274,358.244 411.941,358.244 413.5,360C 411.208,362.245 410.875,364.745 412.5,367.5C 411.448,367.351 410.448,367.517 409.5,368C 410.554,369.388 410.72,370.888 410,372.5C 407.533,375.815 405.699,379.481 404.5,383.5C 402.408,383.561 400.908,384.561 400,386.5C 393.396,386.806 388.062,384.473 384,379.5C 383.369,380.872 382.702,382.205 382,383.5C 380.467,382.305 378.967,382.305 377.5,383.5C 376.73,381.728 375.397,380.728 373.5,380.5C 371.238,381.467 368.905,382.134 366.5,382.5C 366.527,385.23 365.86,387.73 364.5,390C 364.585,391.107 364.919,392.107 365.5,393C 364.283,394.648 363.45,396.481 363,398.5C 362.346,397.304 361.846,397.304 361.5,398.5C 362.729,399.281 364.062,399.781 365.5,400C 364.253,401.458 364.253,402.958 365.5,404.5C 362.631,405.078 359.965,406.078 357.5,407.5C 356.904,406.284 356.737,404.951 357,403.5C 355.559,404.87 353.892,405.87 352,406.5C 351.667,405.833 351.333,405.167 351,404.5C 349.78,407.376 347.947,409.709 345.5,411.5C 343.961,417.13 341.294,422.13 337.5,426.5C 335.975,430.252 334.975,434.252 334.5,438.5C 333.914,438.291 333.414,437.957 333,437.5C 330.441,439.17 328.775,441.503 328,444.5C 327.667,444.167 327.333,443.833 327,443.5C 316.326,447.237 307.16,453.07 299.5,461C 300.833,461.333 302.167,461.667 303.5,462C 301.109,462.287 298.776,462.787 296.5,463.5C 295.505,468.792 295.172,474.125 295.5,479.5C 292.856,479.16 290.523,479.827 288.5,481.5C 285.968,489.29 284.968,497.29 285.5,505.5C 282.951,505.559 280.951,504.559 279.5,502.5C 278.914,502.709 278.414,503.043 278,503.5C 278.218,501.413 278.051,499.413 277.5,497.5C 275.947,499.265 275.614,501.098 276.5,503C 275.518,505.738 274.852,508.572 274.5,511.5C 273.833,511.5 273.167,511.5 272.5,511.5C 272.099,499.182 273.765,487.182 277.5,475.5C 279.741,468.009 283.741,461.676 289.5,456.5C 305.392,452.296 319.226,444.296 331,432.5C 333.589,426.984 336.922,421.984 341,417.5C 342.496,413.531 343.996,409.531 345.5,405.5C 348.764,400.62 353.264,397.62 359,396.5C 360.79,392.673 361.956,388.673 362.5,384.5C 363.074,382.212 364.074,380.045 365.5,378C 371.639,376.417 376.639,373.251 380.5,368.5C 382.63,366.873 384.63,365.04 386.5,363C 390.015,362.481 393.348,362.814 396.5,364C 398.21,362.349 399.544,360.516 400.5,358.5C 401.783,356.394 402.616,354.06 403,351.5C 403.512,337.834 404.012,324.167 404.5,310.5C 404.876,299.714 403.21,289.381 399.5,279.5C 399.5,278.833 399.5,278.167 399.5,277.5 Z"/></g>
<g><path style="opacity:1" fill="#253237" d="M 289.5,456.5 C 283.741,461.676 279.741,468.009 277.5,475.5C 276.686,473.369 276.186,471.036 276,468.5C 275.5,469 275,469.5 274.5,470C 271.183,470.498 267.85,470.665 264.5,470.5C 264.5,470.167 264.5,469.833 264.5,469.5C 267.083,468.776 269.749,467.943 272.5,467C 273.337,465.989 273.67,464.822 273.5,463.5C 275.901,462.951 278.235,462.118 280.5,461C 281.381,460.292 282.047,459.458 282.5,458.5C 284.588,457.061 286.921,456.394 289.5,456.5 Z"/></g>
<g><path style="opacity:1" fill="#dcd6d6" d="M 171.5,415.5 C 173.58,428.619 175.08,441.952 176,455.5C 176.333,455.167 176.667,454.833 177,454.5C 177.419,455.672 178.085,456.672 179,457.5C 180.393,469.814 182.56,481.981 185.5,494C 183.488,495.152 183.322,496.318 185,497.5C 186.041,500.636 185.207,503.136 182.5,505C 183.699,506.694 185.032,508.194 186.5,509.5C 184.847,509.66 183.514,510.326 182.5,511.5C 180.167,511.5 177.833,511.5 175.5,511.5C 175.462,492.627 174.462,473.961 172.5,455.5C 171.667,442.185 171.334,428.851 171.5,415.5 Z"/></g>
<g><path style="opacity:1" fill="#eadbd8" d="M 177.5,407.5 C 177.546,410.092 178.546,412.259 180.5,414C 180.333,414.5 180.167,415 180,415.5C 176.288,412.756 175.788,413.256 178.5,417C 178.285,421.71 178.119,426.543 178,431.5C 178.368,430.09 179.201,429.09 180.5,428.5C 182.535,430.938 184.201,433.605 185.5,436.5C 187.001,437.752 188.668,438.752 190.5,439.5C 191.474,441.743 191.808,444.076 191.5,446.5C 194.932,446.248 195.932,447.581 194.5,450.5C 193.105,449.185 192.105,449.519 191.5,451.5C 194.048,453.422 196.048,455.755 197.5,458.5C 198.086,458.291 198.586,457.957 199,457.5C 199.18,459.488 199.014,461.488 198.5,463.5C 199.833,463.5 201.167,463.5 202.5,463.5C 202.714,461.856 202.38,460.356 201.5,459C 202.991,456.379 203.658,453.545 203.5,450.5C 206.91,450.384 208.244,452.05 207.5,455.5C 208.833,455.5 210.167,455.5 211.5,455.5C 211.5,456.833 211.5,458.167 211.5,459.5C 210.167,459.5 208.833,459.5 207.5,459.5C 207.649,458.448 207.483,457.448 207,456.5C 205.59,462.379 205.09,468.379 205.5,474.5C 204.167,474.5 202.833,474.5 201.5,474.5C 201.493,477.038 201.159,479.538 200.5,482C 201.731,486.527 203.065,491.027 204.5,495.5C 203.833,497.167 203.167,498.833 202.5,500.5C 202.833,501.167 203.167,501.833 203.5,502.5C 213.801,503.729 224.134,503.729 234.5,502.5C 238.011,502.904 241.345,503.904 244.5,505.5C 242.311,506.173 240.311,507.173 238.5,508.5C 235.832,507.148 232.999,506.481 230,506.5C 215.288,507.268 200.788,508.268 186.5,509.5C 185.032,508.194 183.699,506.694 182.5,505C 185.207,503.136 186.041,500.636 185,497.5C 183.322,496.318 183.488,495.152 185.5,494C 182.56,481.981 180.393,469.814 179,457.5C 178.085,456.672 177.419,455.672 177,454.5C 176.667,454.833 176.333,455.167 176,455.5C 175.08,441.952 173.58,428.619 171.5,415.5C 171.5,412.5 171.5,409.5 171.5,406.5C 171.281,405.325 171.614,404.325 172.5,403.5C 174.186,404.857 175.852,406.19 177.5,407.5 Z"/></g>
<g><path style="opacity:1" fill="#3b484d" d="M 277.5,475.5 C 273.765,487.182 272.099,499.182 272.5,511.5C 271.5,511.5 270.5,511.5 269.5,511.5C 270.679,502.052 271.679,492.552 272.5,483C 272.293,479.477 271.96,475.977 271.5,472.5C 267.958,472.813 264.625,472.479 261.5,471.5C 262.791,471.737 263.791,471.404 264.5,470.5C 267.85,470.665 271.183,470.498 274.5,470C 275,469.5 275.5,469 276,468.5C 276.186,471.036 276.686,473.369 277.5,475.5 Z"/></g>
<g><path style="opacity:1" fill="#ded7d8" d="M 242.5,463.5 C 244.5,464.167 246.5,464.833 248.5,465.5C 250.862,468.104 253.695,470.104 257,471.5C 257.497,474.146 257.664,476.813 257.5,479.5C 256.859,480.482 256.193,481.482 255.5,482.5C 255.833,482.833 256.167,483.167 256.5,483.5C 258.071,481.585 260.071,480.585 262.5,480.5C 263.042,484.544 262.209,488.211 260,491.5C 258.285,498.078 256.785,504.745 255.5,511.5C 251.833,511.5 248.167,511.5 244.5,511.5C 244.047,510.542 243.381,509.708 242.5,509C 248.246,506.059 248.913,502.892 244.5,499.5C 246.41,496.225 247.743,492.725 248.5,489C 247.449,486.639 246.449,484.306 245.5,482C 247.196,478.458 249.196,475.125 251.5,472C 249.593,468.605 246.593,465.772 242.5,463.5 Z"/></g>
<g><path style="opacity:1" fill="#adb2b7" d="M 172.5,455.5 C 174.462,473.961 175.462,492.627 175.5,511.5C 174.833,511.5 174.167,511.5 173.5,511.5C 173.333,492.83 173,474.163 172.5,455.5 Z"/></g>
<g><path style="opacity:1" fill="#94979d" d="M 248.5,465.5 C 251.903,466.073 254.903,467.406 257.5,469.5C 259.279,470.67 260.279,472.336 260.5,474.5C 263.455,475.159 266.455,475.492 269.5,475.5C 268.986,487.509 268.32,499.509 267.5,511.5C 265.5,511.5 263.5,511.5 261.5,511.5C 261.334,506.821 261.501,502.155 262,497.5C 265.034,491.781 265.868,485.781 264.5,479.5C 262.214,478.58 259.881,478.58 257.5,479.5C 257.664,476.813 257.497,474.146 257,471.5C 253.695,470.104 250.862,468.104 248.5,465.5 Z"/></g>
<g><path style="opacity:1" fill="#626a6f" d="M 257.5,469.5 C 259.153,469.66 260.486,470.326 261.5,471.5C 264.625,472.479 267.958,472.813 271.5,472.5C 271.96,475.977 272.293,479.477 272.5,483C 271.679,492.552 270.679,502.052 269.5,511.5C 268.833,511.5 268.167,511.5 267.5,511.5C 268.32,499.509 268.986,487.509 269.5,475.5C 266.455,475.492 263.455,475.159 260.5,474.5C 260.279,472.336 259.279,470.67 257.5,469.5 Z"/></g>
<g><path style="opacity:1" fill="#b5b9bd" d="M 261.5,511.5 C 259.5,511.5 257.5,511.5 255.5,511.5C 256.785,504.745 258.285,498.078 260,491.5C 262.209,488.211 263.042,484.544 262.5,480.5C 260.071,480.585 258.071,481.585 256.5,483.5C 256.167,483.167 255.833,482.833 255.5,482.5C 256.193,481.482 256.859,480.482 257.5,479.5C 259.881,478.58 262.214,478.58 264.5,479.5C 265.868,485.781 265.034,491.781 262,497.5C 261.501,502.155 261.334,506.821 261.5,511.5 Z"/></g>
</svg>
