<?xml version="1.0" encoding="UTF-8"?>
<!DOCTYPE svg PUBLIC "-//W3C//DTD SVG 1.1//EN" "http://www.w3.org/Graphics/SVG/1.1/DTD/svg11.dtd">
<svg xmlns="http://www.w3.org/2000/svg" version="1.1" width="512px" height="512px" style="shape-rendering:geometricPrecision; text-rendering:geometricPrecision; image-rendering:optimizeQuality; fill-rule:evenodd; clip-rule:evenodd" xmlns:xlink="http://www.w3.org/1999/xlink">
<g><path style="opacity:1" fill="#8d4e49" d="M -0.5,-0.5 C 170.167,-0.5 340.833,-0.5 511.5,-0.5C 511.5,14.8333 511.5,30.1667 511.5,45.5C 508.595,44.468 506.762,42.468 506,39.5C 503.657,37.6558 501.49,35.6558 499.5,33.5C 498.544,34.8651 497.878,36.3651 497.5,38C 498.33,39.4651 498.496,40.9651 498,42.5C 496.626,44.7465 495.126,46.9132 493.5,49C 494.237,51.7993 495.07,51.9659 496,49.5C 497.022,50.354 497.855,51.354 498.5,52.5C 497.403,55.8776 495.737,59.3776 493.5,63C 494.591,65.0639 494.758,67.2305 494,69.5C 489.96,72.9839 489.793,76.4839 493.5,80C 489.274,84.6068 488.941,89.4401 492.5,94.5C 492.291,95.086 491.957,95.586 491.5,96C 492.956,97.7448 494.289,99.5781 495.5,101.5C 494.403,107.695 491.736,113.028 487.5,117.5C 484.893,118.318 482.226,118.818 479.5,119C 482.226,119.182 484.893,119.682 487.5,120.5C 485.833,121.667 484.167,122.833 482.5,124C 485.147,126.657 488.147,128.823 491.5,130.5C 492.429,131.689 492.762,133.022 492.5,134.5C 490.856,134.714 489.356,134.38 488,133.5C 487.693,137.047 486.86,140.38 485.5,143.5C 481.677,143.818 479.843,145.818 480,149.5C 482.381,148.565 484.881,148.232 487.5,148.5C 487.5,149.5 487.5,150.5 487.5,151.5C 489.199,151.34 490.866,151.506 492.5,152C 490.548,155.354 488.881,158.854 487.5,162.5C 484.966,163.777 482.466,163.777 480,162.5C 479.667,163.5 479.333,164.5 479,165.5C 475.064,162.386 473.231,163.386 473.5,168.5C 473.833,169.833 474.167,171.167 474.5,172.5C 476.332,173.248 477.999,174.248 479.5,175.5C 481.851,173.771 484.518,173.104 487.5,173.5C 487.5,174.5 487.5,175.5 487.5,176.5C 484.013,176.476 481.347,177.976 479.5,181C 479.905,181.945 480.572,182.612 481.5,183C 480.833,183.333 480.167,183.667 479.5,184C 474.749,184.189 470.083,184.855 465.5,186C 466.328,186.915 467.328,187.581 468.5,188C 473.833,188.333 479.167,188.667 484.5,189C 485.779,190.646 487.445,191.813 489.5,192.5C 489.931,193.293 490.265,194.127 490.5,195C 489.217,196.136 488.217,197.469 487.5,199C 488.856,200.567 489.523,202.4 489.5,204.5C 491.665,204.116 493.332,204.783 494.5,206.5C 493.311,207.429 491.978,207.762 490.5,207.5C 490.5,209.167 490.5,210.833 490.5,212.5C 485.566,212.726 480.899,213.56 476.5,215C 477.416,214.626 478.25,214.126 479,213.5C 479.163,211.324 479.996,209.491 481.5,208C 480.5,207.5 479.5,207 478.5,206.5C 476.591,207.348 474.591,207.682 472.5,207.5C 471.697,202.524 468.864,199.191 464,197.5C 463.502,200.817 463.335,204.15 463.5,207.5C 458.167,207.5 452.833,207.5 447.5,207.5C 447.5,202.167 447.5,196.833 447.5,191.5C 445.167,191.5 442.833,191.5 440.5,191.5C 439.697,186.524 436.864,183.191 432,181.5C 431.667,177.5 431.333,173.5 431,169.5C 426.136,167.809 423.303,164.476 422.5,159.5C 420.167,159.5 417.833,159.5 415.5,159.5C 415.5,154.167 415.5,148.833 415.5,143.5C 412.833,143.5 410.167,143.5 407.5,143.5C 408.167,137.5 405.5,134.833 399.5,135.5C 399.334,130.821 399.501,126.155 400,121.5C 404.18,119.987 407.013,117.154 408.5,113C 407.716,105.536 407.216,98.036 407,90.5C 405.195,87.9607 402.695,86.9607 399.5,87.5C 399.5,92.8333 399.5,98.1667 399.5,103.5C 393.5,104.167 390.833,101.5 391.5,95.5C 388.833,95.5 386.167,95.5 383.5,95.5C 383.5,92.8333 383.5,90.1667 383.5,87.5C 378.167,87.5 372.833,87.5 367.5,87.5C 367.813,90.2469 367.48,92.9135 366.5,95.5C 359.37,95.4492 352.036,95.4492 344.5,95.5C 343.697,90.524 340.864,87.1907 336,85.5C 335.667,86.8333 335.333,88.1667 335,89.5C 330.136,87.8093 327.303,84.476 326.5,79.5C 324.167,79.5 321.833,79.5 319.5,79.5C 319.5,88.1667 319.5,96.8333 319.5,105.5C 314.362,104.031 311.362,100.698 310.5,95.5C 305.833,95.5 301.167,95.5 296.5,95.5C 296.509,93.6916 296.009,92.0249 295,90.5C 292.552,88.369 290.052,86.369 287.5,84.5C 271.514,83.5006 255.514,83.1672 239.5,83.5C 239.5,84.8333 239.5,86.1667 239.5,87.5C 234.167,87.5 228.833,87.5 223.5,87.5C 223.5,88.8333 223.5,90.1667 223.5,91.5C 218.167,91.5 212.833,91.5 207.5,91.5C 207.628,93.6547 207.128,95.6547 206,97.5C 201.5,101.833 197,106.167 192.5,110.5C 189.572,111.484 186.572,111.817 183.5,111.5C 175.5,111.5 167.5,111.5 159.5,111.5C 159.662,113.527 159.495,115.527 159,117.5C 154.136,119.191 151.303,122.524 150.5,127.5C 137.358,127.024 124.358,127.024 111.5,127.5C 111.5,130.167 111.5,132.833 111.5,135.5C 104.109,135.201 96.776,135.535 89.5,136.5C 87.2874,139.075 86.9541,141.908 88.5,145C 87.0129,149.154 84.1796,151.987 80,153.5C 79.5008,158.155 79.3342,162.821 79.5,167.5C 74.1667,167.5 68.8333,167.5 63.5,167.5C 63.5,172.833 63.5,178.167 63.5,183.5C 58.1667,183.5 52.8333,183.5 47.5,183.5C 47.5,180.833 47.5,178.167 47.5,175.5C 44.8333,175.5 42.1667,175.5 39.5,175.5C 39.3335,163.162 39.5001,150.829 40,138.5C 41.805,135.961 44.305,134.961 47.5,135.5C 47.5,127.5 47.5,119.5 47.5,111.5C 46.1667,111.5 44.8333,111.5 43.5,111.5C 43.5,106.167 43.5,100.833 43.5,95.5C 44.8333,95.5 46.1667,95.5 47.5,95.5C 47.5,84.8333 47.5,74.1667 47.5,63.5C 52.8333,63.5 58.1667,63.5 63.5,63.5C 64.6195,58.9425 62.9529,56.1092 58.5,55C 56.4164,53.4993 55.0831,51.4993 54.5,49C 55.2843,41.536 55.7843,34.036 56,26.5C 57.805,23.9607 60.305,22.9607 63.5,23.5C 63.5,26.1667 63.5,28.8333 63.5,31.5C 65.8333,31.5 68.1667,31.5 70.5,31.5C 71.303,26.524 74.1364,23.1907 79,21.5C 79.4955,19.5273 79.6621,17.5273 79.5,15.5C 82.1667,15.5 84.8333,15.5 87.5,15.5C 87.5,20.8333 87.5,26.1667 87.5,31.5C 90.1667,31.5 92.8333,31.5 95.5,31.5C 95.5,34.1667 95.5,36.8333 95.5,39.5C 98.695,40.0393 101.195,39.0393 103,36.5C 103.5,29.5079 103.666,22.5079 103.5,15.5C 100.833,15.5 98.1667,15.5 95.5,15.5C 95.5,14.1667 95.5,12.8333 95.5,11.5C 79.5087,10.8336 63.5087,10.5003 47.5,10.5C 47.5,9.5 47.5,8.5 47.5,7.5C 40.4921,7.33371 33.4921,7.50038 26.5,8C 23.9607,9.80504 22.9607,12.305 23.5,15.5C 20.8333,15.5 18.1667,15.5 15.5,15.5C 15.5,12.8333 15.5,10.1667 15.5,7.5C 18.2469,7.81335 20.9135,7.48002 23.5,6.5C 19.895,6.61065 16.2283,6.27732 12.5,5.5C 10.9411,6.07356 9.44113,6.74022 8,7.5C 7.81844,10.2263 7.31844,12.8929 6.5,15.5C 5.45928,13.0087 4.62595,13.0087 4,15.5C 3.50065,20.8229 3.33398,26.1563 3.5,31.5C 2.5,31.5 1.5,31.5 0.5,31.5C 0.794717,33.7354 0.461384,35.7354 -0.5,37.5C -0.5,24.8333 -0.5,12.1667 -0.5,-0.5 Z"/></g>
<g><path style="opacity:1" fill="#8e4d4b" d="M 183.5,111.5 C 180.968,114.36 177.968,116.693 174.5,118.5C 167.939,121.283 161.606,124.283 155.5,127.5C 155.335,130.85 155.502,134.183 156,137.5C 157.529,136.271 158.696,134.771 159.5,133C 164.823,132.501 170.156,132.334 175.5,132.5C 169.662,134.027 163.662,135.861 157.5,138C 155.393,139.264 154.393,141.097 154.5,143.5C 152.202,144.31 149.868,145.144 147.5,146C 145.541,148.316 145.541,150.316 147.5,152C 146.437,153.188 145.103,153.688 143.5,153.5C 143.5,155.5 143.5,157.5 143.5,159.5C 137.365,160.236 132.365,163.07 128.5,168C 131.227,170.241 131.894,172.907 130.5,176C 131.687,177.019 132.687,178.186 133.5,179.5C 128.172,183.363 126.005,188.697 127,195.5C 125.549,198.303 123.382,200.303 120.5,201.5C 117.49,200.092 114.49,198.759 111.5,197.5C 111.248,194.68 111.748,192.014 113,189.5C 117.667,184.833 122.333,180.167 127,175.5C 126.913,170.037 127.746,164.87 129.5,160C 128.365,159.251 127.365,159.417 126.5,160.5C 121.833,165.167 117.167,169.833 112.5,174.5C 108.893,175.489 105.226,175.823 101.5,175.5C 101.5,180.833 101.5,186.167 101.5,191.5C 99.5,191.5 97.5,191.5 95.5,191.5C 95.666,196.844 95.4994,202.177 95,207.5C 93.349,205.246 93.1823,202.912 94.5,200.5C 93.3112,199.571 91.9778,199.238 90.5,199.5C 90.5222,203.593 91.1888,207.593 92.5,211.5C 90.7413,219.474 86.7413,226.141 80.5,231.5C 79.8987,235.957 78.3987,239.957 76,243.5C 75.1501,247.536 75.6501,251.369 77.5,255C 72.6213,255.111 72.288,256.278 76.5,258.5C 77.3094,260.071 77.6427,261.738 77.5,263.5C 75.0194,263.677 73.1861,262.677 72,260.5C 71.221,261.728 70.221,262.728 69,263.5C 67.8319,262.491 66.6652,261.491 65.5,260.5C 62.9398,262.832 60.1064,263.165 57,261.5C 56.5,261.833 56,262.167 55.5,262.5C 57.4789,265.91 57.9789,269.577 57,273.5C 55.0257,273.626 52.859,273.792 50.5,274C 48.393,275.264 47.393,277.097 47.5,279.5C 44.8333,279.5 42.1667,279.5 39.5,279.5C 39.5,280.5 39.5,281.5 39.5,282.5C 36.9512,282.613 34.6179,281.946 32.5,280.5C 31.5258,282.743 31.1924,285.076 31.5,287.5C 34.1667,287.5 36.8333,287.5 39.5,287.5C 39.6657,291.846 39.499,296.179 39,300.5C 38,301.5 37,302.5 36,303.5C 35.6667,308.5 35.3333,313.5 35,318.5C 32.8223,315.532 31.6556,315.865 31.5,319.5C 25.3379,320.457 20.1712,318.791 16,314.5C 16.1639,310.85 14.9972,310.017 12.5,312C 10.7905,313.916 9.45721,316.082 8.5,318.5C 10.3876,323.938 11.0542,329.605 10.5,335.5C 9.16667,335.5 7.83333,335.5 6.5,335.5C 6.81335,338.247 6.48002,340.914 5.5,343.5C 4.36151,336.927 3.52818,336.927 3,343.5C 2.83333,341.167 2.66667,338.833 2.5,336.5C 3.16667,333.167 3.83333,329.833 4.5,326.5C 3.78222,297.551 3.11555,268.551 2.5,239.5C 5.16667,239.5 7.83333,239.5 10.5,239.5C 10.0178,234.318 12.3511,231.651 17.5,231.5C 17.7616,228.079 16.4283,227.079 13.5,228.5C 11.6675,227.752 10.0009,226.752 8.5,225.5C 7.28356,226.002 6.1169,226.335 5,226.5C 4.66667,228.167 4.33333,229.833 4,231.5C 2.5677,211.502 2.0677,191.502 2.5,171.5C 3.65111,167.563 4.48444,163.563 5,159.5C 5.34041,163.558 6.00707,167.558 7,171.5C 7.49546,169.527 7.66212,167.527 7.5,165.5C 10.1667,165.167 12.8333,164.833 15.5,164.5C 15.5,162.833 15.5,161.167 15.5,159.5C 12.8333,159.5 10.1667,159.5 7.5,159.5C 6.89091,155.995 8.05758,153.328 11,151.5C 10.9783,146.188 10.9783,140.855 11,135.5C 11.3333,135.167 11.6667,134.833 12,134.5C 13.559,141.222 14.7257,141.055 15.5,134C 13.4803,129.743 12.1469,125.243 11.5,120.5C 12.6888,119.571 14.0222,119.238 15.5,119.5C 16.0422,115.254 14.2088,112.921 10,112.5C 8.46337,113.114 7.13004,113.114 6,112.5C 5.66667,114.833 5.33333,117.167 5,119.5C 4.41065,113.562 3.57732,108.229 2.5,103.5C 3.44415,92.8423 3.61082,82.1756 3,71.5C 2.82951,69.2852 2.16284,67.2852 1,65.5C 0.833333,66.8333 0.666667,68.1667 0.5,69.5C 0.300703,170.035 0.634036,270.702 1.5,371.5C 1.19057,375.37 0.523907,379.037 -0.5,382.5C -0.5,267.5 -0.5,152.5 -0.5,37.5C 0.461384,35.7354 0.794717,33.7354 0.5,31.5C 1.5,31.5 2.5,31.5 3.5,31.5C 3.33398,26.1563 3.50065,20.8229 4,15.5C 4.62595,13.0087 5.45928,13.0087 6.5,15.5C 7.31844,12.8929 7.81844,10.2263 8,7.5C 9.44113,6.74022 10.9411,6.07356 12.5,5.5C 16.2283,6.27732 19.895,6.61065 23.5,6.5C 20.9135,7.48002 18.2469,7.81335 15.5,7.5C 15.5,10.1667 15.5,12.8333 15.5,15.5C 18.1667,15.5 20.8333,15.5 23.5,15.5C 22.9607,12.305 23.9607,9.80504 26.5,8C 33.4921,7.50038 40.4921,7.33371 47.5,7.5C 47.5,8.5 47.5,9.5 47.5,10.5C 63.5087,10.5003 79.5087,10.8336 95.5,11.5C 95.5,12.8333 95.5,14.1667 95.5,15.5C 98.1667,15.5 100.833,15.5 103.5,15.5C 103.666,22.5079 103.5,29.5079 103,36.5C 101.195,39.0393 98.695,40.0393 95.5,39.5C 95.5,36.8333 95.5,34.1667 95.5,31.5C 92.8333,31.5 90.1667,31.5 87.5,31.5C 87.5,26.1667 87.5,20.8333 87.5,15.5C 84.8333,15.5 82.1667,15.5 79.5,15.5C 79.6621,17.5273 79.4955,19.5273 79,21.5C 74.1364,23.1907 71.303,26.524 70.5,31.5C 68.1667,31.5 65.8333,31.5 63.5,31.5C 63.5,28.8333 63.5,26.1667 63.5,23.5C 60.305,22.9607 57.805,23.9607 56,26.5C 55.7843,34.036 55.2843,41.536 54.5,49C 55.0831,51.4993 56.4164,53.4993 58.5,55C 62.9529,56.1092 64.6195,58.9425 63.5,63.5C 58.1667,63.5 52.8333,63.5 47.5,63.5C 47.5,74.1667 47.5,84.8333 47.5,95.5C 46.1667,95.5 44.8333,95.5 43.5,95.5C 43.5,100.833 43.5,106.167 43.5,111.5C 44.8333,111.5 46.1667,111.5 47.5,111.5C 47.5,119.5 47.5,127.5 47.5,135.5C 44.305,134.961 41.805,135.961 40,138.5C 39.5001,150.829 39.3335,163.162 39.5,175.5C 42.1667,175.5 44.8333,175.5 47.5,175.5C 47.5,178.167 47.5,180.833 47.5,183.5C 52.8333,183.5 58.1667,183.5 63.5,183.5C 63.5,178.167 63.5,172.833 63.5,167.5C 68.8333,167.5 74.1667,167.5 79.5,167.5C 79.3342,162.821 79.5008,158.155 80,153.5C 84.1796,151.987 87.0129,149.154 88.5,145C 86.9541,141.908 87.2874,139.075 89.5,136.5C 96.776,135.535 104.109,135.201 111.5,135.5C 111.5,132.833 111.5,130.167 111.5,127.5C 124.358,127.024 137.358,127.024 150.5,127.5C 151.303,122.524 154.136,119.191 159,117.5C 159.495,115.527 159.662,113.527 159.5,111.5C 167.5,111.5 175.5,111.5 183.5,111.5 Z"/></g>
<g><path style="opacity:1" fill="#8e4e4b" d="M 511.5,45.5 C 511.5,190.5 511.5,335.5 511.5,480.5C 510.833,472.324 510.167,463.99 509.5,455.5C 509.379,458.002 509.212,460.668 509,463.5C 507.007,457.616 507.174,451.783 509.5,446C 508.863,444.287 507.863,444.121 506.5,445.5C 505.239,443.547 504.073,441.547 503,439.5C 502.667,440.167 502.333,440.833 502,441.5C 500,440.167 498,438.833 496,437.5C 495.071,445.267 490.904,447.933 483.5,445.5C 477.88,444.251 472.214,443.251 466.5,442.5C 464.427,440.797 462.094,439.63 459.5,439C 457.887,436.579 456.553,434.079 455.5,431.5C 453.801,431.66 452.134,431.494 450.5,431C 451.629,426.921 451.796,422.755 451,418.5C 450.582,422.854 449.248,426.854 447,430.5C 445.985,427.79 444.485,425.457 442.5,423.5C 442.833,422.833 443.167,422.167 443.5,421.5C 444.853,422.685 446.02,424.019 447,425.5C 450.917,415.638 448.584,413.305 440,418.5C 437.825,417.745 435.659,416.912 433.5,416C 432.556,413.281 432.223,410.448 432.5,407.5C 433.675,407.719 434.675,407.386 435.5,406.5C 434.553,404.941 433.887,403.274 433.5,401.5C 434.327,398.217 434.66,394.884 434.5,391.5C 435.552,391.649 436.552,391.483 437.5,391C 436.409,388.936 436.242,386.769 437,384.5C 440.483,381.099 440.316,377.933 436.5,375C 438.5,375 440.5,375 442.5,375C 440.172,372.6 437.505,370.766 434.5,369.5C 441.041,368.204 441.041,367.538 434.5,367.5C 433.671,364.531 433.505,361.531 434,358.5C 435.8,355.949 437.8,353.615 440,351.5C 440.579,347.797 440.412,344.131 439.5,340.5C 443.519,339.751 447.186,338.251 450.5,336C 448.436,335.347 446.769,334.18 445.5,332.5C 442.519,335.355 440.519,334.689 439.5,330.5C 440.786,326.535 443.453,324.535 447.5,324.5C 447.785,322.712 447.452,321.045 446.5,319.5C 440.51,317.425 440.177,314.925 445.5,312C 443.866,311.506 442.199,311.34 440.5,311.5C 440.565,309.304 441.232,307.304 442.5,305.5C 443.478,305.977 444.311,306.643 445,307.5C 444.039,303.869 442.705,300.203 441,296.5C 436.916,294.655 435.249,291.655 436,287.5C 432.096,285.703 429.596,282.703 428.5,278.5C 429.263,277.281 430.263,276.281 431.5,275.5C 429.922,274.702 428.256,274.202 426.5,274C 424.553,270.93 422.053,268.43 419,266.5C 418.667,264.5 418.333,262.5 418,260.5C 414.906,256.899 412.406,252.899 410.5,248.5C 410.987,247.554 411.32,246.554 411.5,245.5C 408.768,241.504 406.768,237.17 405.5,232.5C 406.865,230.249 406.531,228.249 404.5,226.5C 403.491,229.193 401.991,231.527 400,233.5C 397.338,231.84 394.671,230.173 392,228.5C 390.991,226.975 390.491,225.308 390.5,223.5C 388.167,223.5 385.833,223.5 383.5,223.5C 383.338,221.473 383.505,219.473 384,217.5C 389.038,215.295 392.538,211.629 394.5,206.5C 391.788,202.795 388.121,200.795 383.5,200.5C 383.216,197.223 383.549,194.057 384.5,191C 383.751,189.266 383.251,187.433 383,185.5C 378.136,183.809 375.303,180.476 374.5,175.5C 372.167,175.5 369.833,175.5 367.5,175.5C 366.624,175.631 365.957,175.298 365.5,174.5C 365.987,173.554 366.32,172.554 366.5,171.5C 365.068,168.673 364.401,165.673 364.5,162.5C 362.158,162.496 360.158,161.663 358.5,160C 359.448,159.517 360.448,159.351 361.5,159.5C 361.079,157.09 359.746,155.257 357.5,154C 354.391,153.356 351.557,152.189 349,150.5C 346.626,142.626 341.459,137.626 333.5,135.5C 330.835,136.888 329.835,135.888 330.5,132.5C 328.202,131.69 325.868,130.856 323.5,130C 326.028,129.331 326.028,128.498 323.5,127.5C 322.707,127.931 321.873,128.265 321,128.5C 316.782,126.975 312.615,125.308 308.5,123.5C 299.215,123.127 289.882,122.127 280.5,120.5C 282.291,119.83 283.958,119.163 285.5,118.5C 287.238,120.426 289.404,120.759 292,119.5C 293.658,119.675 294.991,120.342 296,121.5C 298.045,120.113 300.212,118.946 302.5,118C 298.082,111.932 298.748,110.432 304.5,113.5C 307.63,110.887 310.796,110.887 314,113.5C 315.401,111.808 317.234,111.141 319.5,111.5C 319.5,109.5 319.5,107.5 319.5,105.5C 319.5,96.8333 319.5,88.1667 319.5,79.5C 321.833,79.5 324.167,79.5 326.5,79.5C 327.303,84.476 330.136,87.8093 335,89.5C 335.333,88.1667 335.667,86.8333 336,85.5C 340.864,87.1907 343.697,90.524 344.5,95.5C 352.036,95.4492 359.37,95.4492 366.5,95.5C 367.48,92.9135 367.813,90.2469 367.5,87.5C 372.833,87.5 378.167,87.5 383.5,87.5C 383.5,90.1667 383.5,92.8333 383.5,95.5C 386.167,95.5 388.833,95.5 391.5,95.5C 390.833,101.5 393.5,104.167 399.5,103.5C 399.5,98.1667 399.5,92.8333 399.5,87.5C 402.695,86.9607 405.195,87.9607 407,90.5C 407.216,98.036 407.716,105.536 408.5,113C 407.013,117.154 404.18,119.987 400,121.5C 399.501,126.155 399.334,130.821 399.5,135.5C 405.5,134.833 408.167,137.5 407.5,143.5C 410.167,143.5 412.833,143.5 415.5,143.5C 415.5,148.833 415.5,154.167 415.5,159.5C 417.833,159.5 420.167,159.5 422.5,159.5C 423.303,164.476 426.136,167.809 431,169.5C 431.333,173.5 431.667,177.5 432,181.5C 436.864,183.191 439.697,186.524 440.5,191.5C 442.833,191.5 445.167,191.5 447.5,191.5C 447.5,196.833 447.5,202.167 447.5,207.5C 452.833,207.5 458.167,207.5 463.5,207.5C 463.335,204.15 463.502,200.817 464,197.5C 468.864,199.191 471.697,202.524 472.5,207.5C 474.591,207.682 476.591,207.348 478.5,206.5C 479.5,207 480.5,207.5 481.5,208C 479.996,209.491 479.163,211.324 479,213.5C 478.25,214.126 477.416,214.626 476.5,215C 480.899,213.56 485.566,212.726 490.5,212.5C 490.5,210.833 490.5,209.167 490.5,207.5C 491.978,207.762 493.311,207.429 494.5,206.5C 493.332,204.783 491.665,204.116 489.5,204.5C 489.523,202.4 488.856,200.567 487.5,199C 488.217,197.469 489.217,196.136 490.5,195C 490.265,194.127 489.931,193.293 489.5,192.5C 487.445,191.813 485.779,190.646 484.5,189C 479.167,188.667 473.833,188.333 468.5,188C 467.328,187.581 466.328,186.915 465.5,186C 470.083,184.855 474.749,184.189 479.5,184C 480.167,183.667 480.833,183.333 481.5,183C 480.572,182.612 479.905,181.945 479.5,181C 481.347,177.976 484.013,176.476 487.5,176.5C 487.5,175.5 487.5,174.5 487.5,173.5C 484.518,173.104 481.851,173.771 479.5,175.5C 477.999,174.248 476.332,173.248 474.5,172.5C 474.167,171.167 473.833,169.833 473.5,168.5C 473.231,163.386 475.064,162.386 479,165.5C 479.333,164.5 479.667,163.5 480,162.5C 482.466,163.777 484.966,163.777 487.5,162.5C 488.881,158.854 490.548,155.354 492.5,152C 490.866,151.506 489.199,151.34 487.5,151.5C 487.5,150.5 487.5,149.5 487.5,148.5C 484.881,148.232 482.381,148.565 480,149.5C 479.843,145.818 481.677,143.818 485.5,143.5C 486.86,140.38 487.693,137.047 488,133.5C 489.356,134.38 490.856,134.714 492.5,134.5C 492.762,133.022 492.429,131.689 491.5,130.5C 488.147,128.823 485.147,126.657 482.5,124C 484.167,122.833 485.833,121.667 487.5,120.5C 484.893,119.682 482.226,119.182 479.5,119C 482.226,118.818 484.893,118.318 487.5,117.5C 491.736,113.028 494.403,107.695 495.5,101.5C 494.289,99.5781 492.956,97.7448 491.5,96C 491.957,95.586 492.291,95.086 492.5,94.5C 488.941,89.4401 489.274,84.6068 493.5,80C 489.793,76.4839 489.96,72.9839 494,69.5C 494.758,67.2305 494.591,65.0639 493.5,63C 495.737,59.3776 497.403,55.8776 498.5,52.5C 497.855,51.354 497.022,50.354 496,49.5C 495.07,51.9659 494.237,51.7993 493.5,49C 495.126,46.9132 496.626,44.7465 498,42.5C 498.496,40.9651 498.33,39.4651 497.5,38C 497.878,36.3651 498.544,34.8651 499.5,33.5C 501.49,35.6558 503.657,37.6558 506,39.5C 506.762,42.468 508.595,44.468 511.5,45.5 Z"/></g>
<g><path style="opacity:1" fill="#914e4c" d="M 120.5,201.5 C 121.25,205.709 121.25,209.876 120.5,214C 120.946,215.726 121.779,217.226 123,218.5C 123.494,220.134 123.66,221.801 123.5,223.5C 125.288,223.215 126.955,223.548 128.5,224.5C 127.714,229.781 127.214,235.115 127,240.5C 125.989,239.663 124.822,239.33 123.5,239.5C 123.92,245.561 126.253,250.727 130.5,255C 131.448,255.483 132.448,255.649 133.5,255.5C 133.231,257.429 133.731,259.095 135,260.5C 135.333,260.167 135.667,259.833 136,259.5C 138.514,261.738 141.347,262.905 144.5,263C 143.565,260.619 143.232,258.119 143.5,255.5C 142.167,255.5 140.833,255.5 139.5,255.5C 139.5,252.167 139.5,248.833 139.5,245.5C 140.833,245.5 142.167,245.5 143.5,245.5C 144.712,242.366 147.046,240.366 150.5,239.5C 151.129,243.957 150.795,248.457 149.5,253C 148.181,258.786 146.181,264.286 143.5,269.5C 147.324,275.213 148.491,281.546 147,288.5C 145.989,287.663 144.822,287.33 143.5,287.5C 143.5,288.5 143.5,289.5 143.5,290.5C 145.46,291.138 147.293,291.138 149,290.5C 149.742,293.657 151.242,296.323 153.5,298.5C 153.32,299.554 152.987,300.554 152.5,301.5C 153.934,303.22 154.767,305.22 155,307.5C 158.545,308.54 160.379,310.873 160.5,314.5C 162.216,314.371 163.883,314.038 165.5,313.5C 165.769,316.015 166.769,318.015 168.5,319.5C 169.19,328.882 169.524,338.049 169.5,347C 165.684,364.528 165.684,382.028 169.5,399.5C 167.712,399.215 166.045,399.548 164.5,400.5C 165.246,401.736 165.579,403.07 165.5,404.5C 162.888,403.723 161.055,402.056 160,399.5C 159.501,404.823 159.334,410.156 159.5,415.5C 158.167,415.5 156.833,415.5 155.5,415.5C 155.5,420.833 155.5,426.167 155.5,431.5C 156.833,431.5 158.167,431.5 159.5,431.5C 159.5,433.5 159.5,435.5 159.5,437.5C 154.362,438.969 151.362,442.302 150.5,447.5C 142.833,447.5 135.167,447.5 127.5,447.5C 127.5,452.833 127.5,458.167 127.5,463.5C 123.5,463.5 119.5,463.5 115.5,463.5C 115.5,468.833 115.5,474.167 115.5,479.5C 114.167,479.5 112.833,479.5 111.5,479.5C 111.5,482.833 111.5,486.167 111.5,489.5C 106.167,489.5 100.833,489.5 95.5,489.5C 95.5,491.5 95.5,493.5 95.5,495.5C 90.1667,495.5 84.8333,495.5 79.5,495.5C 79.3379,497.527 79.5045,499.527 80,501.5C 82.6855,502.676 85.0188,504.343 87,506.5C 88.8491,505.439 90.8491,504.773 93,504.5C 99.1397,505.561 105.306,505.727 111.5,505C 113.725,502.997 115.392,503.497 116.5,506.5C 115.089,508.017 115.256,509.351 117,510.5C 117.667,508.5 118.333,506.5 119,504.5C 121.405,505.274 123.905,505.774 126.5,506C 127.406,507.699 127.739,509.533 127.5,511.5C 84.8333,511.5 42.1667,511.5 -0.5,511.5C -0.5,468.5 -0.5,425.5 -0.5,382.5C 0.523907,379.037 1.19057,375.37 1.5,371.5C 0.634036,270.702 0.300703,170.035 0.5,69.5C 0.666667,68.1667 0.833333,66.8333 1,65.5C 2.16284,67.2852 2.82951,69.2852 3,71.5C 3.61082,82.1756 3.44415,92.8423 2.5,103.5C 3.57732,108.229 4.41065,113.562 5,119.5C 5.33333,117.167 5.66667,114.833 6,112.5C 7.13004,113.114 8.46337,113.114 10,112.5C 14.2088,112.921 16.0422,115.254 15.5,119.5C 14.0222,119.238 12.6888,119.571 11.5,120.5C 12.1469,125.243 13.4803,129.743 15.5,134C 14.7257,141.055 13.559,141.222 12,134.5C 11.6667,134.833 11.3333,135.167 11,135.5C 10.9783,140.855 10.9783,146.188 11,151.5C 8.05758,153.328 6.89091,155.995 7.5,159.5C 10.1667,159.5 12.8333,159.5 15.5,159.5C 15.5,161.167 15.5,162.833 15.5,164.5C 12.8333,164.833 10.1667,165.167 7.5,165.5C 7.66212,167.527 7.49546,169.527 7,171.5C 6.00707,167.558 5.34041,163.558 5,159.5C 4.48444,163.563 3.65111,167.563 2.5,171.5C 2.0677,191.502 2.5677,211.502 4,231.5C 4.33333,229.833 4.66667,228.167 5,226.5C 6.1169,226.335 7.28356,226.002 8.5,225.5C 10.0009,226.752 11.6675,227.752 13.5,228.5C 16.4283,227.079 17.7616,228.079 17.5,231.5C 12.3511,231.651 10.0178,234.318 10.5,239.5C 7.83333,239.5 5.16667,239.5 2.5,239.5C 3.11555,268.551 3.78222,297.551 4.5,326.5C 3.83333,329.833 3.16667,333.167 2.5,336.5C 2.66667,338.833 2.83333,341.167 3,343.5C 3.52818,336.927 4.36151,336.927 5.5,343.5C 6.48002,340.914 6.81335,338.247 6.5,335.5C 7.83333,335.5 9.16667,335.5 10.5,335.5C 11.0542,329.605 10.3876,323.938 8.5,318.5C 9.45721,316.082 10.7905,313.916 12.5,312C 14.9972,310.017 16.1639,310.85 16,314.5C 20.1712,318.791 25.3379,320.457 31.5,319.5C 31.6556,315.865 32.8223,315.532 35,318.5C 35.3333,313.5 35.6667,308.5 36,303.5C 37,302.5 38,301.5 39,300.5C 39.499,296.179 39.6657,291.846 39.5,287.5C 36.8333,287.5 34.1667,287.5 31.5,287.5C 31.1924,285.076 31.5258,282.743 32.5,280.5C 34.6179,281.946 36.9512,282.613 39.5,282.5C 39.5,281.5 39.5,280.5 39.5,279.5C 42.1667,279.5 44.8333,279.5 47.5,279.5C 47.393,277.097 48.393,275.264 50.5,274C 52.859,273.792 55.0257,273.626 57,273.5C 57.9789,269.577 57.4789,265.91 55.5,262.5C 56,262.167 56.5,261.833 57,261.5C 60.1064,263.165 62.9398,262.832 65.5,260.5C 66.6652,261.491 67.8319,262.491 69,263.5C 70.221,262.728 71.221,261.728 72,260.5C 73.1861,262.677 75.0194,263.677 77.5,263.5C 77.6427,261.738 77.3094,260.071 76.5,258.5C 72.288,256.278 72.6213,255.111 77.5,255C 75.6501,251.369 75.1501,247.536 76,243.5C 78.3987,239.957 79.8987,235.957 80.5,231.5C 86.7413,226.141 90.7413,219.474 92.5,211.5C 91.1888,207.593 90.5222,203.593 90.5,199.5C 91.9778,199.238 93.3112,199.571 94.5,200.5C 93.1823,202.912 93.349,205.246 95,207.5C 95.4994,202.177 95.666,196.844 95.5,191.5C 97.5,191.5 99.5,191.5 101.5,191.5C 101.5,186.167 101.5,180.833 101.5,175.5C 105.226,175.823 108.893,175.489 112.5,174.5C 117.167,169.833 121.833,165.167 126.5,160.5C 127.365,159.417 128.365,159.251 129.5,160C 127.746,164.87 126.913,170.037 127,175.5C 122.333,180.167 117.667,184.833 113,189.5C 111.748,192.014 111.248,194.68 111.5,197.5C 114.49,198.759 117.49,200.092 120.5,201.5 Z"/></g>
<g><path style="opacity:1" fill="#904b4a" d="M 319.5,105.5 C 319.5,107.5 319.5,109.5 319.5,111.5C 317.234,111.141 315.401,111.808 314,113.5C 310.796,110.887 307.63,110.887 304.5,113.5C 298.748,110.432 298.082,111.932 302.5,118C 300.212,118.946 298.045,120.113 296,121.5C 294.991,120.342 293.658,119.675 292,119.5C 289.404,120.759 287.238,120.426 285.5,118.5C 284.399,115.696 282.566,115.029 280,116.5C 278.775,116.138 277.609,115.638 276.5,115C 269.508,114.5 262.508,114.334 255.5,114.5C 255.649,113.448 255.483,112.448 255,111.5C 253.315,113.017 251.815,114.684 250.5,116.5C 236.926,118.672 223.259,120.005 209.5,120.5C 210.429,122.322 209.762,123.655 207.5,124.5C 212.964,125.988 218.297,126.822 223.5,127C 220.845,127.564 218.179,128.064 215.5,128.5C 207.528,127.597 199.528,127.263 191.5,127.5C 191.5,128.833 191.5,130.167 191.5,131.5C 189.167,131.5 186.833,131.5 184.5,131.5C 184.804,130.85 185.137,130.183 185.5,129.5C 182.241,128.234 178.907,127.734 175.5,128C 179.15,129.262 179.15,130.762 175.5,132.5C 170.156,132.334 164.823,132.501 159.5,133C 158.696,134.771 157.529,136.271 156,137.5C 155.502,134.183 155.335,130.85 155.5,127.5C 161.606,124.283 167.939,121.283 174.5,118.5C 177.968,116.693 180.968,114.36 183.5,111.5C 186.572,111.817 189.572,111.484 192.5,110.5C 197,106.167 201.5,101.833 206,97.5C 207.128,95.6547 207.628,93.6547 207.5,91.5C 212.833,91.5 218.167,91.5 223.5,91.5C 223.5,90.1667 223.5,88.8333 223.5,87.5C 228.833,87.5 234.167,87.5 239.5,87.5C 239.5,86.1667 239.5,84.8333 239.5,83.5C 255.514,83.1672 271.514,83.5006 287.5,84.5C 290.052,86.369 292.552,88.369 295,90.5C 296.009,92.0249 296.509,93.6916 296.5,95.5C 301.167,95.5 305.833,95.5 310.5,95.5C 311.362,100.698 314.362,104.031 319.5,105.5 Z"/></g>
<g><path style="opacity:1" fill="#924a4d" d="M 285.5,118.5 C 283.958,119.163 282.291,119.83 280.5,120.5C 289.882,122.127 299.215,123.127 308.5,123.5C 312.615,125.308 316.782,126.975 321,128.5C 321.873,128.265 322.707,127.931 323.5,127.5C 326.028,128.498 326.028,129.331 323.5,130C 325.868,130.856 328.202,131.69 330.5,132.5C 329.835,135.888 330.835,136.888 333.5,135.5C 341.459,137.626 346.626,142.626 349,150.5C 351.557,152.189 354.391,153.356 357.5,154C 359.746,155.257 361.079,157.09 361.5,159.5C 360.448,159.351 359.448,159.517 358.5,160C 360.158,161.663 362.158,162.496 364.5,162.5C 364.401,165.673 365.068,168.673 366.5,171.5C 366.32,172.554 365.987,173.554 365.5,174.5C 365.957,175.298 366.624,175.631 367.5,175.5C 365.295,176.198 363.461,177.532 362,179.5C 362.192,184.799 362.359,190.133 362.5,195.5C 361.167,192.5 359.833,189.5 358.5,186.5C 357.759,182.828 356.593,179.161 355,175.5C 349.601,167.092 344.601,158.425 340,149.5C 333.228,141.73 325.061,135.896 315.5,132C 272.616,125.68 229.95,127.013 187.5,136C 187.154,138.94 186.154,141.44 184.5,143.5C 183.167,143.5 181.833,143.5 180.5,143.5C 179.634,139.399 179.634,135.399 180.5,131.5C 181.833,131.5 183.167,131.5 184.5,131.5C 186.833,131.5 189.167,131.5 191.5,131.5C 191.5,130.167 191.5,128.833 191.5,127.5C 199.528,127.263 207.528,127.597 215.5,128.5C 218.179,128.064 220.845,127.564 223.5,127C 218.297,126.822 212.964,125.988 207.5,124.5C 209.762,123.655 210.429,122.322 209.5,120.5C 223.259,120.005 236.926,118.672 250.5,116.5C 251.815,114.684 253.315,113.017 255,111.5C 255.483,112.448 255.649,113.448 255.5,114.5C 262.508,114.334 269.508,114.5 276.5,115C 277.609,115.638 278.775,116.138 280,116.5C 282.566,115.029 284.399,115.696 285.5,118.5 Z"/></g>
<g><path style="opacity:1" fill="#050304" d="M 358.5,186.5 C 359.833,192.833 361.167,199.167 362.5,205.5C 362.784,208.777 362.451,211.943 361.5,215C 356.773,216.036 352.44,215.203 348.5,212.5C 345.543,211.474 342.376,210.807 339,210.5C 333.079,211.614 327.246,212.948 321.5,214.5C 311.186,213.629 300.852,213.296 290.5,213.5C 281.376,212.177 272.209,212.177 263,213.5C 261.092,212.546 259.092,211.879 257,211.5C 236.559,211.581 216.059,211.581 195.5,211.5C 184.341,210.367 173.341,210.367 162.5,211.5C 161.209,211.263 160.209,211.596 159.5,212.5C 158.833,212.5 158.167,212.5 157.5,212.5C 153.062,213.575 151.062,211.908 151.5,207.5C 152.966,206.653 153.8,205.32 154,203.5C 155.312,199.254 156.145,194.921 156.5,190.5C 155.412,185.48 155.412,180.48 156.5,175.5C 156.243,173.308 155.243,171.641 153.5,170.5C 152.197,168.243 152.864,166.41 155.5,165C 161.216,163.154 166.883,161.154 172.5,159C 176.305,153.694 180.305,148.527 184.5,143.5C 186.154,141.44 187.154,138.94 187.5,136C 229.95,127.013 272.616,125.68 315.5,132C 325.061,135.896 333.228,141.73 340,149.5C 344.601,158.425 349.601,167.092 355,175.5C 356.593,179.161 357.759,182.828 358.5,186.5 Z"/></g>
<g><path style="opacity:1" fill="#ab9dad" d="M 265.5,160.5 C 265.5,159.5 265.5,158.5 265.5,157.5C 264.167,157.5 262.833,157.5 261.5,157.5C 265.268,155.846 269.268,155.012 273.5,155C 270.403,156.273 267.736,158.107 265.5,160.5 Z"/></g>
<g><path style="opacity:1" fill="#8d484c" d="M 184.5,131.5 C 183.167,131.5 181.833,131.5 180.5,131.5C 179.634,135.399 179.634,139.399 180.5,143.5C 181.833,143.5 183.167,143.5 184.5,143.5C 180.305,148.527 176.305,153.694 172.5,159C 166.883,161.154 161.216,163.154 155.5,165C 152.864,166.41 152.197,168.243 153.5,170.5C 152.218,178.753 152.218,187.253 153.5,196C 153.151,199.907 152.485,203.74 151.5,207.5C 149.595,209.049 149.261,210.882 150.5,213C 153.039,213.796 155.372,213.629 157.5,212.5C 158.167,212.5 158.833,212.5 159.5,212.5C 164.833,212.5 170.167,212.5 175.5,212.5C 175.489,214.017 174.823,215.184 173.5,216C 175.25,217.754 175.917,219.921 175.5,222.5C 177.606,222.679 179.272,223.679 180.5,225.5C 179.975,226.192 179.308,226.692 178.5,227C 180.087,227.862 181.754,228.529 183.5,229C 178.584,230.161 173.584,230.827 168.5,231C 167.748,231.671 167.414,232.504 167.5,233.5C 166.167,233.5 164.833,233.5 163.5,233.5C 163.784,235.415 163.451,237.081 162.5,238.5C 161.5,238.5 160.5,238.5 159.5,238.5C 159.5,239.5 159.5,240.5 159.5,241.5C 156.739,240.08 153.739,239.413 150.5,239.5C 147.046,240.366 144.712,242.366 143.5,245.5C 142.167,245.5 140.833,245.5 139.5,245.5C 139.5,248.833 139.5,252.167 139.5,255.5C 140.833,255.5 142.167,255.5 143.5,255.5C 143.232,258.119 143.565,260.619 144.5,263C 141.347,262.905 138.514,261.738 136,259.5C 135.667,259.833 135.333,260.167 135,260.5C 133.731,259.095 133.231,257.429 133.5,255.5C 132.448,255.649 131.448,255.483 130.5,255C 126.253,250.727 123.92,245.561 123.5,239.5C 124.822,239.33 125.989,239.663 127,240.5C 127.214,235.115 127.714,229.781 128.5,224.5C 126.955,223.548 125.288,223.215 123.5,223.5C 123.66,221.801 123.494,220.134 123,218.5C 121.779,217.226 120.946,215.726 120.5,214C 121.25,209.876 121.25,205.709 120.5,201.5C 123.382,200.303 125.549,198.303 127,195.5C 126.005,188.697 128.172,183.363 133.5,179.5C 132.687,178.186 131.687,177.019 130.5,176C 131.894,172.907 131.227,170.241 128.5,168C 132.365,163.07 137.365,160.236 143.5,159.5C 143.5,157.5 143.5,155.5 143.5,153.5C 145.103,153.688 146.437,153.188 147.5,152C 145.541,150.316 145.541,148.316 147.5,146C 149.868,145.144 152.202,144.31 154.5,143.5C 154.393,141.097 155.393,139.264 157.5,138C 163.662,135.861 169.662,134.027 175.5,132.5C 179.15,130.762 179.15,129.262 175.5,128C 178.907,127.734 182.241,128.234 185.5,129.5C 185.137,130.183 184.804,130.85 184.5,131.5 Z"/></g>
<g><path style="opacity:1" fill="#d6d7e4" d="M 261.5,157.5 C 262.833,157.5 264.167,157.5 265.5,157.5C 265.5,158.5 265.5,159.5 265.5,160.5C 255.58,164.918 245.247,167.918 234.5,169.5C 232.447,169.598 230.78,168.931 229.5,167.5C 239.773,163.188 250.44,159.855 261.5,157.5 Z"/></g>
<g><path style="opacity:1" fill="#97899d" d="M 229.5,167.5 C 230.78,168.931 232.447,169.598 234.5,169.5C 231.159,171.488 227.492,172.322 223.5,172C 226.522,171.675 228.522,170.175 229.5,167.5 Z"/></g>
<g><path style="opacity:1" fill="#924e4d" d="M 367.5,175.5 C 369.833,175.5 372.167,175.5 374.5,175.5C 375.303,180.476 378.136,183.809 383,185.5C 383.251,187.433 383.751,189.266 384.5,191C 383.549,194.057 383.216,197.223 383.5,200.5C 388.121,200.795 391.788,202.795 394.5,206.5C 392.538,211.629 389.038,215.295 384,217.5C 383.505,219.473 383.338,221.473 383.5,223.5C 385.833,223.5 388.167,223.5 390.5,223.5C 390.491,225.308 390.991,226.975 392,228.5C 394.671,230.173 397.338,231.84 400,233.5C 401.991,231.527 403.491,229.193 404.5,226.5C 406.531,228.249 406.865,230.249 405.5,232.5C 406.768,237.17 408.768,241.504 411.5,245.5C 411.32,246.554 410.987,247.554 410.5,248.5C 412.406,252.899 414.906,256.899 418,260.5C 418.333,262.5 418.667,264.5 419,266.5C 422.053,268.43 424.553,270.93 426.5,274C 428.256,274.202 429.922,274.702 431.5,275.5C 430.263,276.281 429.263,277.281 428.5,278.5C 429.596,282.703 432.096,285.703 436,287.5C 435.249,291.655 436.916,294.655 441,296.5C 442.705,300.203 444.039,303.869 445,307.5C 444.311,306.643 443.478,305.977 442.5,305.5C 441.232,307.304 440.565,309.304 440.5,311.5C 442.199,311.34 443.866,311.506 445.5,312C 440.177,314.925 440.51,317.425 446.5,319.5C 447.452,321.045 447.785,322.712 447.5,324.5C 443.453,324.535 440.786,326.535 439.5,330.5C 440.519,334.689 442.519,335.355 445.5,332.5C 446.769,334.18 448.436,335.347 450.5,336C 447.186,338.251 443.519,339.751 439.5,340.5C 440.412,344.131 440.579,347.797 440,351.5C 437.8,353.615 435.8,355.949 434,358.5C 433.505,361.531 433.671,364.531 434.5,367.5C 441.041,367.538 441.041,368.204 434.5,369.5C 437.505,370.766 440.172,372.6 442.5,375C 440.5,375 438.5,375 436.5,375C 440.316,377.933 440.483,381.099 437,384.5C 436.242,386.769 436.409,388.936 437.5,391C 436.552,391.483 435.552,391.649 434.5,391.5C 434.66,394.884 434.327,398.217 433.5,401.5C 433.887,403.274 434.553,404.941 435.5,406.5C 434.675,407.386 433.675,407.719 432.5,407.5C 432.223,410.448 432.556,413.281 433.5,416C 435.659,416.912 437.825,417.745 440,418.5C 448.584,413.305 450.917,415.638 447,425.5C 446.02,424.019 444.853,422.685 443.5,421.5C 443.167,422.167 442.833,422.833 442.5,423.5C 444.485,425.457 445.985,427.79 447,430.5C 449.248,426.854 450.582,422.854 451,418.5C 451.796,422.755 451.629,426.921 450.5,431C 452.134,431.494 453.801,431.66 455.5,431.5C 456.553,434.079 457.887,436.579 459.5,439C 462.094,439.63 464.427,440.797 466.5,442.5C 472.214,443.251 477.88,444.251 483.5,445.5C 490.904,447.933 495.071,445.267 496,437.5C 498,438.833 500,440.167 502,441.5C 502.333,440.833 502.667,440.167 503,439.5C 504.073,441.547 505.239,443.547 506.5,445.5C 507.863,444.121 508.863,444.287 509.5,446C 507.174,451.783 507.007,457.616 509,463.5C 509.212,460.668 509.379,458.002 509.5,455.5C 510.167,463.99 510.833,472.324 511.5,480.5C 511.5,490.833 511.5,501.167 511.5,511.5C 452.833,511.5 394.167,511.5 335.5,511.5C 335.038,510.12 334.038,509.453 332.5,509.5C 330.845,510.228 329.179,510.395 327.5,510C 330.063,509.237 330.063,508.737 327.5,508.5C 322.178,509.341 316.845,509.174 311.5,508C 316.204,504.211 321.537,502.878 327.5,504C 321.15,504.744 320.984,505.911 327,507.5C 329.719,506.556 332.552,506.223 335.5,506.5C 335.5,505.5 335.5,504.5 335.5,503.5C 346.367,503.611 357.033,504.278 367.5,505.5C 367.5,502.167 367.5,498.833 367.5,495.5C 357.833,495.5 348.167,495.5 338.5,495.5C 338.5,497.167 338.5,498.833 338.5,500.5C 337.5,500.5 336.5,500.5 335.5,500.5C 335.014,497.245 336.014,494.578 338.5,492.5C 339.833,491.167 341.167,491.167 342.5,492.5C 343.491,490.677 344.824,489.177 346.5,488C 349.5,487.667 352.5,487.333 355.5,487C 354.495,485.493 353.162,484.327 351.5,483.5C 355.758,481.096 355.425,479.429 350.5,478.5C 351.428,477.232 351.595,475.899 351,474.5C 348.667,477.167 346.333,477.167 344,474.5C 343.405,475.899 343.572,477.232 344.5,478.5C 344,478.833 343.5,479.167 343,479.5C 341.281,477.284 339.114,475.617 336.5,474.5C 335.614,473.675 335.281,472.675 335.5,471.5C 331.776,472.227 329.109,470.894 327.5,467.5C 326.311,466.571 324.978,466.238 323.5,466.5C 323.5,465.5 323.5,464.5 323.5,463.5C 322.167,463.5 320.833,463.5 319.5,463.5C 319.5,460.5 319.5,457.5 319.5,454.5C 315.642,454.14 313.642,451.973 313.5,448C 315.473,447.505 317.473,447.338 319.5,447.5C 319.261,445.533 319.594,443.699 320.5,442C 321.742,441.689 322.742,442.189 323.5,443.5C 327.516,441.656 330.85,439.823 333.5,438C 336.833,437.667 340.167,437.333 343.5,437C 332.833,436.333 332.833,435.667 343.5,435C 345.972,433.202 347.639,430.868 348.5,428C 349.448,427.517 350.448,427.351 351.5,427.5C 351.07,424.138 352.07,421.305 354.5,419C 352.94,416.341 350.607,415.174 347.5,415.5C 347.5,410.167 347.5,404.833 347.5,399.5C 346.167,399.5 344.833,399.5 343.5,399.5C 343.361,390.264 343.028,381.431 342.5,373C 343.888,366.072 344.555,359.072 344.5,352C 342.942,338.224 342.275,324.39 342.5,310.5C 342.574,308.589 343.574,307.422 345.5,307C 344.833,306.667 344.167,306.333 343.5,306C 344.691,305.302 345.691,304.469 346.5,303.5C 347.008,306.998 348.008,310.331 349.5,313.5C 349.327,315.038 348.994,316.538 348.5,318C 349.323,326.539 350.323,335.039 351.5,343.5C 357.5,344.167 360.167,341.5 359.5,335.5C 362.167,335.5 364.833,335.5 367.5,335.5C 367.824,327.245 369.157,319.245 371.5,311.5C 370.167,311.5 368.833,311.5 367.5,311.5C 366.889,308.039 368.056,305.372 371,303.5C 371.644,298.872 373.81,295.205 377.5,292.5C 378.833,293.5 380.167,294.5 381.5,295.5C 379.065,298.595 377.065,301.928 375.5,305.5C 375.939,307.104 376.606,308.604 377.5,310C 376.67,311.465 376.504,312.965 377,314.5C 381.292,309.62 383.625,303.953 384,297.5C 384.5,297 385,296.5 385.5,296C 383.709,287.428 382.876,278.594 383,269.5C 382.444,271.595 381.944,271.762 381.5,270C 382.729,265.677 381.896,265.511 379,269.5C 378.714,265.055 378.547,260.388 378.5,255.5C 377.5,255.5 376.5,255.5 375.5,255.5C 373.742,245.004 373.242,234.337 374,223.5C 374.333,223.833 374.667,224.167 375,224.5C 376.399,223.773 377.899,223.273 379.5,223C 377.753,219.667 375.42,216.833 372.5,214.5C 370.074,209.585 369.574,204.585 371,199.5C 371.17,201.715 371.837,203.715 373,205.5C 372.62,200.933 372.787,196.266 373.5,191.5C 371.516,191.617 369.85,190.95 368.5,189.5C 367.676,186.215 367.176,182.882 367,179.5C 364.319,186.019 364.152,192.519 366.5,199C 366.167,199.167 365.833,199.333 365.5,199.5C 364.479,198.099 363.479,196.765 362.5,195.5C 362.359,190.133 362.192,184.799 362,179.5C 363.461,177.532 365.295,176.198 367.5,175.5 Z"/></g>
<g><path style="opacity:1" fill="#5a2a35" d="M 153.5,170.5 C 155.243,171.641 156.243,173.308 156.5,175.5C 155.412,180.48 155.412,185.48 156.5,190.5C 156.145,194.921 155.312,199.254 154,203.5C 153.8,205.32 152.966,206.653 151.5,207.5C 152.485,203.74 153.151,199.907 153.5,196C 152.218,187.253 152.218,178.753 153.5,170.5 Z"/></g>
<g><path style="opacity:1" fill="#944c53" d="M 346.5,303.5 C 346.176,299.445 346.509,295.445 347.5,291.5C 348.736,290.754 350.07,290.421 351.5,290.5C 351.5,293.167 351.5,295.833 351.5,298.5C 355.182,298.665 358.848,298.499 362.5,298C 361.833,297.333 361.167,296.667 360.5,296C 369.634,287.594 373.634,277.094 372.5,264.5C 373.122,252.222 370.955,240.556 366,229.5C 365.29,230.973 364.124,231.64 362.5,231.5C 362.274,236.057 359.94,238.724 355.5,239.5C 355.111,247.108 355.777,254.608 357.5,262C 357.164,263.03 356.497,263.53 355.5,263.5C 354.339,259.022 352.006,255.189 348.5,252C 349.27,249.433 350.27,246.933 351.5,244.5C 350.617,243.452 349.95,242.285 349.5,241C 351.578,238.589 353.245,235.922 354.5,233C 356.345,231.872 358.345,231.372 360.5,231.5C 360.277,227.584 361.944,225.084 365.5,224C 364.062,223.781 362.729,223.281 361.5,222.5C 362.651,221.269 363.817,221.269 365,222.5C 368.417,218.57 367.917,217.903 363.5,220.5C 363.167,220 362.833,219.5 362.5,219C 364.028,216.261 364.694,213.261 364.5,210C 364.145,205.11 363.478,200.276 362.5,195.5C 363.479,196.765 364.479,198.099 365.5,199.5C 365.833,199.333 366.167,199.167 366.5,199C 364.152,192.519 364.319,186.019 367,179.5C 367.176,182.882 367.676,186.215 368.5,189.5C 369.85,190.95 371.516,191.617 373.5,191.5C 372.787,196.266 372.62,200.933 373,205.5C 371.837,203.715 371.17,201.715 371,199.5C 369.574,204.585 370.074,209.585 372.5,214.5C 375.42,216.833 377.753,219.667 379.5,223C 377.899,223.273 376.399,223.773 375,224.5C 374.667,224.167 374.333,223.833 374,223.5C 373.242,234.337 373.742,245.004 375.5,255.5C 376.5,255.5 377.5,255.5 378.5,255.5C 378.547,260.388 378.714,265.055 379,269.5C 381.896,265.511 382.729,265.677 381.5,270C 381.944,271.762 382.444,271.595 383,269.5C 382.876,278.594 383.709,287.428 385.5,296C 385,296.5 384.5,297 384,297.5C 383.625,303.953 381.292,309.62 377,314.5C 376.504,312.965 376.67,311.465 377.5,310C 376.606,308.604 375.939,307.104 375.5,305.5C 377.065,301.928 379.065,298.595 381.5,295.5C 380.167,294.5 378.833,293.5 377.5,292.5C 373.81,295.205 371.644,298.872 371,303.5C 368.056,305.372 366.889,308.039 367.5,311.5C 368.833,311.5 370.167,311.5 371.5,311.5C 369.157,319.245 367.824,327.245 367.5,335.5C 364.833,335.5 362.167,335.5 359.5,335.5C 360.167,341.5 357.5,344.167 351.5,343.5C 350.323,335.039 349.323,326.539 348.5,318C 348.994,316.538 349.327,315.038 349.5,313.5C 348.008,310.331 347.008,306.998 346.5,303.5 Z"/></g>
<g><path style="opacity:1" fill="#38141d" d="M 151.5,207.5 C 151.062,211.908 153.062,213.575 157.5,212.5C 155.372,213.629 153.039,213.796 150.5,213C 149.261,210.882 149.595,209.049 151.5,207.5 Z"/></g>
<g><path style="opacity:1" fill="#3c272c" d="M 162.5,211.5 C 173.341,210.367 184.341,210.367 195.5,211.5C 184.686,211.766 173.686,211.766 162.5,211.5 Z"/></g>
<g><path style="opacity:1" fill="#794148" d="M 287.5,214.5 C 282.562,214.795 277.896,215.962 273.5,218C 276.063,218.763 276.063,219.263 273.5,219.5C 271.871,218.577 270.371,218.243 269,218.5C 268.308,219.025 267.808,219.692 267.5,220.5C 270.062,221.641 272.728,222.474 275.5,223C 271.775,223.76 268.108,223.593 264.5,222.5C 264.292,224.73 264.292,226.896 264.5,229C 261.707,231.109 259.041,230.942 256.5,228.5C 251.874,230.477 247.207,232.477 242.5,234.5C 240.644,233.724 239.311,232.391 238.5,230.5C 235.161,229.332 231.828,228.166 228.5,227C 231.95,224.333 235.45,224.166 239,226.5C 239.49,225.207 239.657,223.873 239.5,222.5C 234.064,222.128 228.731,221.961 223.5,222C 222.167,221.333 222.167,220.667 223.5,220C 229.185,220.015 229.685,218.849 225,216.5C 224.055,216.905 223.388,217.572 223,218.5C 219.538,218.017 219.038,216.85 221.5,215C 220.263,214.768 219.263,214.268 218.5,213.5C 228.811,212.463 239.144,212.296 249.5,213C 253.373,213.238 257.04,214.071 260.5,215.5C 269.612,213.614 278.612,213.28 287.5,214.5 Z"/></g>
<g><path style="opacity:1" fill="#362125" d="M 348.5,212.5 C 344.154,212.334 339.821,212.501 335.5,213C 331.699,215.885 327.366,217.718 322.5,218.5C 320.088,217.423 317.754,216.256 315.5,215C 308.842,214.5 302.175,214.334 295.5,214.5C 293.585,214.784 291.919,214.451 290.5,213.5C 300.852,213.296 311.186,213.629 321.5,214.5C 327.246,212.948 333.079,211.614 339,210.5C 342.376,210.807 345.543,211.474 348.5,212.5 Z"/></g>
<g><path style="opacity:1" fill="#5f393a" d="M 362.5,205.5 C 363.641,208.64 363.808,211.973 363,215.5C 359.27,216.46 355.437,216.793 351.5,216.5C 351.519,218.06 351.852,219.56 352.5,221C 349.861,229.251 347.028,237.418 344,245.5C 343.414,256.341 342.581,267.007 341.5,277.5C 341.538,268.154 341.871,258.82 342.5,249.5C 341.041,249.433 339.708,249.766 338.5,250.5C 338.5,249.5 338.5,248.5 338.5,247.5C 334.833,247.5 331.167,247.5 327.5,247.5C 331.982,246.674 336.649,246.174 341.5,246C 343.211,244.867 343.711,243.367 343,241.5C 340.618,240.446 338.118,239.779 335.5,239.5C 333.5,238.833 331.5,238.167 329.5,237.5C 331.564,237.313 333.564,236.813 335.5,236C 330.921,235.185 326.587,233.685 322.5,231.5C 321.583,232.127 320.583,232.461 319.5,232.5C 319.5,231.5 319.5,230.5 319.5,229.5C 314.141,229.33 308.808,228.83 303.5,228C 308.867,227.597 314.201,226.93 319.5,226C 318,224.885 316.333,224.052 314.5,223.5C 312.902,224.485 311.235,224.651 309.5,224C 313.426,222.236 316.759,220.57 319.5,219C 316.293,219.01 313.126,218.176 310,216.5C 309.586,216.957 309.086,217.291 308.5,217.5C 304.555,216.732 300.555,216.232 296.5,216C 295.944,215.617 295.611,215.117 295.5,214.5C 302.175,214.334 308.842,214.5 315.5,215C 317.754,216.256 320.088,217.423 322.5,218.5C 327.366,217.718 331.699,215.885 335.5,213C 339.821,212.501 344.154,212.334 348.5,212.5C 352.44,215.203 356.773,216.036 361.5,215C 362.451,211.943 362.784,208.777 362.5,205.5 Z"/></g>
<g><path style="opacity:1" fill="#714043" d="M 175.5,212.5 C 178.91,212.457 182.243,212.957 185.5,214C 184.377,215.044 183.044,215.71 181.5,216C 182.5,216.333 183.5,216.667 184.5,217C 188.951,217.13 193.284,217.796 197.5,219C 193.814,219.559 190.147,220.226 186.5,221C 187.167,221.667 187.833,222.333 188.5,223C 195.774,224.164 203.108,224.997 210.5,225.5C 212.188,224.904 213.854,224.071 215.5,223C 212.629,222.882 209.962,222.216 207.5,221C 210.119,220.849 212.453,220.015 214.5,218.5C 213.975,217.808 213.308,217.308 212.5,217C 215.31,216.993 217.31,215.826 218.5,213.5C 219.263,214.268 220.263,214.768 221.5,215C 219.038,216.85 219.538,218.017 223,218.5C 223.388,217.572 224.055,216.905 225,216.5C 229.685,218.849 229.185,220.015 223.5,220C 222.167,220.667 222.167,221.333 223.5,222C 228.731,221.961 234.064,222.128 239.5,222.5C 239.657,223.873 239.49,225.207 239,226.5C 235.45,224.166 231.95,224.333 228.5,227C 231.828,228.166 235.161,229.332 238.5,230.5C 239.311,232.391 240.644,233.724 242.5,234.5C 247.207,232.477 251.874,230.477 256.5,228.5C 259.041,230.942 261.707,231.109 264.5,229C 264.292,226.896 264.292,224.73 264.5,222.5C 268.108,223.593 271.775,223.76 275.5,223C 272.728,222.474 270.062,221.641 267.5,220.5C 267.808,219.692 268.308,219.025 269,218.5C 270.371,218.243 271.871,218.577 273.5,219.5C 276.063,219.263 276.063,218.763 273.5,218C 277.896,215.962 282.562,214.795 287.5,214.5C 291.033,215.106 294.366,216.273 297.5,218C 296.874,218.75 296.374,219.584 296,220.5C 294.612,219.446 293.112,219.28 291.5,220C 296.981,221.648 297.314,222.981 292.5,224C 293.116,226.179 294.283,228.012 296,229.5C 296.414,229.043 296.914,228.709 297.5,228.5C 300.033,229.304 302.033,230.637 303.5,232.5C 299.392,232.436 295.558,233.436 292,235.5C 290.715,235.05 289.548,234.383 288.5,233.5C 286.478,236.524 285.478,239.857 285.5,243.5C 281.363,243.854 277.363,243.354 273.5,242C 274.609,240.187 273.942,239.354 271.5,239.5C 271.5,240.5 271.5,241.5 271.5,242.5C 265.158,242.666 258.825,242.5 252.5,242C 249.061,239.003 245.561,238.837 242,241.5C 240.141,240.888 238.141,240.888 236,241.5C 229.902,240.135 230.069,239.468 236.5,239.5C 237.167,235.5 235.5,233.833 231.5,234.5C 215.994,233.624 200.494,232.624 185,231.5C 180.167,231.667 175.333,231.833 170.5,232C 169.473,232.513 168.473,233.013 167.5,233.5C 167.414,232.504 167.748,231.671 168.5,231C 173.584,230.827 178.584,230.161 183.5,229C 181.754,228.529 180.087,227.862 178.5,227C 179.308,226.692 179.975,226.192 180.5,225.5C 179.272,223.679 177.606,222.679 175.5,222.5C 175.917,219.921 175.25,217.754 173.5,216C 174.823,215.184 175.489,214.017 175.5,212.5 Z"/></g>
<g><path style="opacity:1" fill="#663b41" d="M 159.5,212.5 C 160.209,211.596 161.209,211.263 162.5,211.5C 173.686,211.766 184.686,211.766 195.5,211.5C 216.059,211.581 236.559,211.581 257,211.5C 259.092,211.879 261.092,212.546 263,213.5C 272.209,212.177 281.376,212.177 290.5,213.5C 291.919,214.451 293.585,214.784 295.5,214.5C 295.611,215.117 295.944,215.617 296.5,216C 300.555,216.232 304.555,216.732 308.5,217.5C 309.086,217.291 309.586,216.957 310,216.5C 313.126,218.176 316.293,219.01 319.5,219C 316.759,220.57 313.426,222.236 309.5,224C 311.235,224.651 312.902,224.485 314.5,223.5C 316.333,224.052 318,224.885 319.5,226C 314.201,226.93 308.867,227.597 303.5,228C 308.808,228.83 314.141,229.33 319.5,229.5C 319.5,230.5 319.5,231.5 319.5,232.5C 314.167,232.5 308.833,232.5 303.5,232.5C 302.033,230.637 300.033,229.304 297.5,228.5C 296.914,228.709 296.414,229.043 296,229.5C 294.283,228.012 293.116,226.179 292.5,224C 297.314,222.981 296.981,221.648 291.5,220C 293.112,219.28 294.612,219.446 296,220.5C 296.374,219.584 296.874,218.75 297.5,218C 294.366,216.273 291.033,215.106 287.5,214.5C 278.612,213.28 269.612,213.614 260.5,215.5C 257.04,214.071 253.373,213.238 249.5,213C 239.144,212.296 228.811,212.463 218.5,213.5C 217.31,215.826 215.31,216.993 212.5,217C 213.308,217.308 213.975,217.808 214.5,218.5C 212.453,220.015 210.119,220.849 207.5,221C 209.962,222.216 212.629,222.882 215.5,223C 213.854,224.071 212.188,224.904 210.5,225.5C 203.108,224.997 195.774,224.164 188.5,223C 187.833,222.333 187.167,221.667 186.5,221C 190.147,220.226 193.814,219.559 197.5,219C 193.284,217.796 188.951,217.13 184.5,217C 183.5,216.667 182.5,216.333 181.5,216C 183.044,215.71 184.377,215.044 185.5,214C 182.243,212.957 178.91,212.457 175.5,212.5C 170.167,212.5 164.833,212.5 159.5,212.5 Z"/></g>
<g><path style="opacity:1" fill="#0d1510" d="M 231.5,234.5 C 232.091,235.151 232.757,235.818 233.5,236.5C 232.099,237.521 230.765,238.521 229.5,239.5C 222.966,240.66 217.966,243.993 214.5,249.5C 214.664,246.813 214.497,244.146 214,241.5C 207.436,238.494 200.602,237.828 193.5,239.5C 194.641,240.425 194.641,241.259 193.5,242C 191.899,242.273 190.399,242.773 189,243.5C 187.644,242.62 186.144,242.286 184.5,242.5C 178.195,243.487 171.862,243.653 165.5,243C 164.978,242.439 164.645,241.772 164.5,241C 165.222,238.323 166.222,235.823 167.5,233.5C 168.473,233.013 169.473,232.513 170.5,232C 175.333,231.833 180.167,231.667 185,231.5C 200.494,232.624 215.994,233.624 231.5,234.5 Z"/></g>
<g><path style="opacity:1" fill="#060d0d" d="M 329.5,237.5 C 331.5,238.167 333.5,238.833 335.5,239.5C 335.631,240.239 335.464,240.906 335,241.5C 322.431,239.756 309.597,239.089 296.5,239.5C 296.279,242.067 295.612,244.401 294.5,246.5C 293.857,242.567 294.857,239.234 297.5,236.5C 300.314,235.835 303.314,235.502 306.5,235.5C 314.153,236.33 321.82,236.997 329.5,237.5 Z"/></g>
<g><path style="opacity:1" fill="#06170d" d="M 335.5,239.5 C 338.118,239.779 340.618,240.446 343,241.5C 343.711,243.367 343.211,244.867 341.5,246C 336.649,246.174 331.982,246.674 327.5,247.5C 324.41,248.665 323.076,250.998 323.5,254.5C 327.514,254.334 331.514,254.501 335.5,255C 333.527,255.495 331.527,255.662 329.5,255.5C 326.5,256.833 323.5,256.833 320.5,255.5C 320.579,254.07 320.246,252.736 319.5,251.5C 315.721,250.311 311.888,249.311 308,248.5C 307.055,248.905 306.388,249.572 306,250.5C 304,249.833 302,249.167 300,248.5C 298.415,250.734 297.248,253.067 296.5,255.5C 295.071,252.692 294.405,249.692 294.5,246.5C 295.612,244.401 296.279,242.067 296.5,239.5C 309.597,239.089 322.431,239.756 335,241.5C 335.464,240.906 335.631,240.239 335.5,239.5 Z"/></g>
<g><path style="opacity:1" fill="#6d4340" d="M 329.5,237.5 C 321.82,236.997 314.153,236.33 306.5,235.5C 303.314,235.502 300.314,235.835 297.5,236.5C 295.589,237.075 293.922,238.075 292.5,239.5C 291.005,239.415 290.005,240.081 289.5,241.5C 289.413,243.963 289.413,246.463 289.5,249C 288.068,249.27 287.068,248.604 286.5,247C 284.19,246.503 281.857,246.337 279.5,246.5C 280.448,251.062 278.781,251.729 274.5,248.5C 273.833,248.833 273.167,249.167 272.5,249.5C 266.561,247.47 260.561,247.47 254.5,249.5C 250.222,248.453 245.888,247.62 241.5,247C 239.893,245.951 239.227,244.451 239.5,242.5C 236.603,242.319 233.77,242.652 231,243.5C 228.256,242.939 227.756,241.606 229.5,239.5C 230.765,238.521 232.099,237.521 233.5,236.5C 232.757,235.818 232.091,235.151 231.5,234.5C 235.5,233.833 237.167,235.5 236.5,239.5C 230.069,239.468 229.902,240.135 236,241.5C 238.141,240.888 240.141,240.888 242,241.5C 245.561,238.837 249.061,239.003 252.5,242C 258.825,242.5 265.158,242.666 271.5,242.5C 271.5,241.5 271.5,240.5 271.5,239.5C 273.942,239.354 274.609,240.187 273.5,242C 277.363,243.354 281.363,243.854 285.5,243.5C 285.478,239.857 286.478,236.524 288.5,233.5C 289.548,234.383 290.715,235.05 292,235.5C 295.558,233.436 299.392,232.436 303.5,232.5C 308.833,232.5 314.167,232.5 319.5,232.5C 320.583,232.461 321.583,232.127 322.5,231.5C 326.587,233.685 330.921,235.185 335.5,236C 333.564,236.813 331.564,237.313 329.5,237.5 Z"/></g>
<g><path style="opacity:1" fill="#17261c" d="M 214.5,249.5 C 213.312,248.316 212.145,248.316 211,249.5C 210.691,248.234 210.191,247.067 209.5,246C 205.626,244.168 201.793,244.335 198,246.5C 194.915,245.568 191.748,244.901 188.5,244.5C 187.005,244.011 185.671,243.345 184.5,242.5C 186.144,242.286 187.644,242.62 189,243.5C 190.399,242.773 191.899,242.273 193.5,242C 194.641,241.259 194.641,240.425 193.5,239.5C 200.602,237.828 207.436,238.494 214,241.5C 214.497,244.146 214.664,246.813 214.5,249.5 Z"/></g>
<g><path style="opacity:1" fill="#8b4c4f" d="M 162.5,238.5 C 162.582,243.155 164.916,245.989 169.5,247C 168.257,248.154 167.257,249.488 166.5,251C 164.1,251.186 161.766,251.686 159.5,252.5C 160.651,253.731 161.817,253.731 163,252.5C 163.903,253.701 165.069,254.535 166.5,255C 166.424,261.352 164.091,265.852 159.5,268.5C 160.808,275.033 162.142,281.533 163.5,288C 163.167,288.333 162.833,288.667 162.5,289C 166.361,290.335 166.361,291.501 162.5,292.5C 161.651,294.894 160.651,297.227 159.5,299.5C 160.242,300.287 161.075,300.953 162,301.5C 163.281,305.504 164.447,309.504 165.5,313.5C 163.883,314.038 162.216,314.371 160.5,314.5C 160.379,310.873 158.545,308.54 155,307.5C 154.767,305.22 153.934,303.22 152.5,301.5C 152.987,300.554 153.32,299.554 153.5,298.5C 151.242,296.323 149.742,293.657 149,290.5C 147.293,291.138 145.46,291.138 143.5,290.5C 143.5,289.5 143.5,288.5 143.5,287.5C 144.822,287.33 145.989,287.663 147,288.5C 148.491,281.546 147.324,275.213 143.5,269.5C 146.181,264.286 148.181,258.786 149.5,253C 150.795,248.457 151.129,243.957 150.5,239.5C 153.739,239.413 156.739,240.08 159.5,241.5C 159.5,240.5 159.5,239.5 159.5,238.5C 160.5,238.5 161.5,238.5 162.5,238.5 Z"/></g>
<g><path style="opacity:1" fill="#2a3022" d="M 188.5,244.5 C 191.748,244.901 194.915,245.568 198,246.5C 201.793,244.335 205.626,244.168 209.5,246C 210.191,247.067 210.691,248.234 211,249.5C 212.145,248.316 213.312,248.316 214.5,249.5C 214.5,250.833 215.167,251.5 216.5,251.5C 215.025,253.41 213.025,254.576 210.5,255C 200.325,255.825 190.325,255.658 180.5,254.5C 184.5,253.833 188.5,253.167 192.5,252.5C 192.206,249.246 190.873,246.579 188.5,244.5 Z"/></g>
<g><path style="opacity:1" fill="#68463b" d="M 229.5,239.5 C 227.756,241.606 228.256,242.939 231,243.5C 233.77,242.652 236.603,242.319 239.5,242.5C 239.227,244.451 239.893,245.951 241.5,247C 245.888,247.62 250.222,248.453 254.5,249.5C 260.561,247.47 266.561,247.47 272.5,249.5C 273.167,249.167 273.833,248.833 274.5,248.5C 278.781,251.729 280.448,251.062 279.5,246.5C 281.857,246.337 284.19,246.503 286.5,247C 287.068,248.604 288.068,249.27 289.5,249C 289.413,246.463 289.413,243.963 289.5,241.5C 290.005,240.081 291.005,239.415 292.5,239.5C 292.5,243.5 292.5,247.5 292.5,251.5C 292.5,254.167 292.5,256.833 292.5,259.5C 291.584,259.018 290.584,258.685 289.5,258.5C 287.121,259.57 284.621,260.237 282,260.5C 278.458,259.887 274.958,259.22 271.5,258.5C 271.66,260.199 271.494,261.866 271,263.5C 269.211,261.771 267.044,261.104 264.5,261.5C 262.143,261.337 259.81,261.503 257.5,262C 256.014,265.3 254.014,268.133 251.5,270.5C 250.737,268.433 249.404,266.766 247.5,265.5C 248.025,264.808 248.692,264.308 249.5,264C 247.793,263.805 246.126,263.805 244.5,264C 243.73,261.433 242.73,258.933 241.5,256.5C 236.282,253.981 231.282,252.648 226.5,252.5C 226.611,251.883 226.944,251.383 227.5,251C 223.745,250.245 220.078,250.411 216.5,251.5C 215.167,251.5 214.5,250.833 214.5,249.5C 217.966,243.993 222.966,240.66 229.5,239.5 Z"/></g>
<g><path style="opacity:1" fill="#976364" d="M 327.5,247.5 C 331.167,247.5 334.833,247.5 338.5,247.5C 338.5,248.5 338.5,249.5 338.5,250.5C 334.454,252.594 330.121,253.594 325.5,253.5C 325.253,251.142 325.919,249.142 327.5,247.5 Z"/></g>
<g><path style="opacity:1" fill="#784b48" d="M 167.5,233.5 C 166.222,235.823 165.222,238.323 164.5,241C 164.645,241.772 164.978,242.439 165.5,243C 171.862,243.653 178.195,243.487 184.5,242.5C 185.671,243.345 187.005,244.011 188.5,244.5C 190.873,246.579 192.206,249.246 192.5,252.5C 188.5,253.167 184.5,253.833 180.5,254.5C 177.124,254.952 173.791,255.618 170.5,256.5C 169.548,258.045 169.215,259.712 169.5,261.5C 168.759,269.512 168.093,277.679 167.5,286C 167.439,287.711 168.106,289.044 169.5,290C 167.937,290.759 166.937,291.926 166.5,293.5C 165.005,293.415 164.005,294.081 163.5,295.5C 164.524,296.852 165.524,298.185 166.5,299.5C 166.287,306.279 166.953,312.946 168.5,319.5C 166.769,318.015 165.769,316.015 165.5,313.5C 164.447,309.504 163.281,305.504 162,301.5C 161.075,300.953 160.242,300.287 159.5,299.5C 160.651,297.227 161.651,294.894 162.5,292.5C 166.361,291.501 166.361,290.335 162.5,289C 162.833,288.667 163.167,288.333 163.5,288C 162.142,281.533 160.808,275.033 159.5,268.5C 164.091,265.852 166.424,261.352 166.5,255C 165.069,254.535 163.903,253.701 163,252.5C 161.817,253.731 160.651,253.731 159.5,252.5C 161.766,251.686 164.1,251.186 166.5,251C 167.257,249.488 168.257,248.154 169.5,247C 164.916,245.989 162.582,243.155 162.5,238.5C 163.451,237.081 163.784,235.415 163.5,233.5C 164.833,233.5 166.167,233.5 167.5,233.5 Z"/></g>
<g><path style="opacity:1" fill="#10210f" d="M 329.5,255.5 C 329.5,255.833 329.5,256.167 329.5,256.5C 326.082,257.188 322.749,258.188 319.5,259.5C 315.68,258.281 312.013,258.281 308.5,259.5C 304.883,260.657 301.216,260.657 297.5,259.5C 296.766,258.292 296.433,256.959 296.5,255.5C 297.248,253.067 298.415,250.734 300,248.5C 302,249.167 304,249.833 306,250.5C 306.388,249.572 307.055,248.905 308,248.5C 311.888,249.311 315.721,250.311 319.5,251.5C 320.246,252.736 320.579,254.07 320.5,255.5C 323.5,256.833 326.5,256.833 329.5,255.5 Z"/></g>
<g><path style="opacity:1" fill="#3a2f29" d="M 297.5,236.5 C 294.857,239.234 293.857,242.567 294.5,246.5C 294.405,249.692 295.071,252.692 296.5,255.5C 296.433,256.959 296.766,258.292 297.5,259.5C 295.343,257.196 293.676,254.529 292.5,251.5C 292.5,247.5 292.5,243.5 292.5,239.5C 293.922,238.075 295.589,237.075 297.5,236.5 Z"/></g>
<g><path style="opacity:1" fill="#905155" d="M 358.5,186.5 C 359.833,189.5 361.167,192.5 362.5,195.5C 363.478,200.276 364.145,205.11 364.5,210C 364.694,213.261 364.028,216.261 362.5,219C 362.833,219.5 363.167,220 363.5,220.5C 367.917,217.903 368.417,218.57 365,222.5C 363.817,221.269 362.651,221.269 361.5,222.5C 362.729,223.281 364.062,223.781 365.5,224C 361.944,225.084 360.277,227.584 360.5,231.5C 358.345,231.372 356.345,231.872 354.5,233C 353.245,235.922 351.578,238.589 349.5,241C 349.95,242.285 350.617,243.452 351.5,244.5C 350.27,246.933 349.27,249.433 348.5,252C 352.006,255.189 354.339,259.022 355.5,263.5C 354.799,267.287 354.132,271.12 353.5,275C 354.413,278.421 353.579,278.921 351,276.5C 350.628,280.318 349.794,283.985 348.5,287.5C 349.5,287.5 350.5,287.5 351.5,287.5C 351.5,288.5 351.5,289.5 351.5,290.5C 350.07,290.421 348.736,290.754 347.5,291.5C 346.509,295.445 346.176,299.445 346.5,303.5C 345.691,304.469 344.691,305.302 343.5,306C 344.167,306.333 344.833,306.667 345.5,307C 343.574,307.422 342.574,308.589 342.5,310.5C 342.167,310.5 341.833,310.5 341.5,310.5C 341.5,300.833 341.5,291.167 341.5,281.5C 341.5,280.167 341.5,278.833 341.5,277.5C 342.581,267.007 343.414,256.341 344,245.5C 347.028,237.418 349.861,229.251 352.5,221C 351.852,219.56 351.519,218.06 351.5,216.5C 355.437,216.793 359.27,216.46 363,215.5C 363.808,211.973 363.641,208.64 362.5,205.5C 361.167,199.167 359.833,192.833 358.5,186.5 Z"/></g>
<g><path style="opacity:1" fill="#4a3d2a" d="M 226.5,252.5 C 225.167,253.167 224.167,254.167 223.5,255.5C 207.519,256.504 191.519,257.504 175.5,258.5C 175.5,259.5 175.5,260.5 175.5,261.5C 173.5,261.5 171.5,261.5 169.5,261.5C 169.215,259.712 169.548,258.045 170.5,256.5C 173.791,255.618 177.124,254.952 180.5,254.5C 190.325,255.658 200.325,255.825 210.5,255C 213.025,254.576 215.025,253.41 216.5,251.5C 220.078,250.411 223.745,250.245 227.5,251C 226.944,251.383 226.611,251.883 226.5,252.5 Z"/></g>
<g><path style="opacity:1" fill="#644c30" d="M 226.5,252.5 C 231.282,252.648 236.282,253.981 241.5,256.5C 242.73,258.933 243.73,261.433 244.5,264C 246.126,263.805 247.793,263.805 249.5,264C 248.692,264.308 248.025,264.808 247.5,265.5C 249.404,266.766 250.737,268.433 251.5,270.5C 250.833,272.5 250.167,274.5 249.5,276.5C 247.418,277.585 247.084,279.085 248.5,281C 245.724,282.417 243.724,283.917 242.5,285.5C 242.179,287.048 241.179,287.715 239.5,287.5C 239.657,288.873 239.49,290.207 239,291.5C 235.427,293.493 232.26,295.993 229.5,299C 226.798,299.607 224.132,299.44 221.5,298.5C 220.328,298.919 219.328,299.585 218.5,300.5C 216.194,300.354 213.861,300.021 211.5,299.5C 208.972,300.498 208.972,301.331 211.5,302C 209.2,302.658 206.867,303.158 204.5,303.5C 198.609,303.371 192.775,303.371 187,303.5C 183.652,301.469 180.152,301.136 176.5,302.5C 175.749,301.624 175.249,300.624 175,299.5C 174,300.167 173,300.833 172,301.5C 171.601,301.272 171.435,300.938 171.5,300.5C 171.5,300.167 171.5,299.833 171.5,299.5C 183.326,298.669 195.326,298.169 207.5,298C 210.251,297.057 212.917,296.224 215.5,295.5C 222.657,294.426 229.324,291.926 235.5,288C 236.337,286.989 236.67,285.822 236.5,284.5C 234.167,284.5 231.833,284.5 229.5,284.5C 230.952,283.698 232.618,283.198 234.5,283C 228.163,282.934 221.83,282.934 215.5,283C 213.441,281.815 213.274,280.648 215,279.5C 215.381,280.482 216.214,281.148 217.5,281.5C 222.897,280.311 228.064,278.645 233,276.5C 235.187,276.788 237.354,277.122 239.5,277.5C 239.5,276.5 239.5,275.5 239.5,274.5C 237.146,274.162 234.813,273.662 232.5,273C 235.055,271.742 235.722,269.909 234.5,267.5C 233.914,267.709 233.414,268.043 233,268.5C 229.853,263.712 225.353,261.045 219.5,260.5C 222.342,259.996 223.675,258.329 223.5,255.5C 224.167,254.167 225.167,253.167 226.5,252.5 Z"/></g>
<g><path style="opacity:1" fill="#944f59" d="M 351.5,290.5 C 351.5,289.5 351.5,288.5 351.5,287.5C 350.5,287.5 349.5,287.5 348.5,287.5C 349.794,283.985 350.628,280.318 351,276.5C 353.579,278.921 354.413,278.421 353.5,275C 354.132,271.12 354.799,267.287 355.5,263.5C 356.497,263.53 357.164,263.03 357.5,262C 355.777,254.608 355.111,247.108 355.5,239.5C 359.94,238.724 362.274,236.057 362.5,231.5C 364.124,231.64 365.29,230.973 366,229.5C 370.955,240.556 373.122,252.222 372.5,264.5C 373.634,277.094 369.634,287.594 360.5,296C 361.167,296.667 361.833,297.333 362.5,298C 358.848,298.499 355.182,298.665 351.5,298.5C 351.5,295.833 351.5,293.167 351.5,290.5 Z"/></g>
<g><path style="opacity:1" fill="#604d2f" d="M 223.5,255.5 C 223.675,258.329 222.342,259.996 219.5,260.5C 225.353,261.045 229.853,263.712 233,268.5C 233.414,268.043 233.914,267.709 234.5,267.5C 235.722,269.909 235.055,271.742 232.5,273C 234.813,273.662 237.146,274.162 239.5,274.5C 239.5,275.5 239.5,276.5 239.5,277.5C 237.354,277.122 235.187,276.788 233,276.5C 228.064,278.645 222.897,280.311 217.5,281.5C 216.214,281.148 215.381,280.482 215,279.5C 213.274,280.648 213.441,281.815 215.5,283C 221.83,282.934 228.163,282.934 234.5,283C 232.618,283.198 230.952,283.698 229.5,284.5C 216.492,286.083 203.825,288.749 191.5,292.5C 186.471,293.34 181.471,294.34 176.5,295.5C 174.955,295.489 173.622,295.156 172.5,294.5C 176.29,294.992 176.956,294.159 174.5,292C 175.5,291.667 176.5,291.333 177.5,291C 176.217,287.936 175.55,284.603 175.5,281C 175.667,277.833 175.833,274.667 176,271.5C 177.158,269.509 178.658,267.842 180.5,266.5C 180.154,265.304 179.654,265.304 179,266.5C 178.691,265.234 178.191,264.067 177.5,263C 177.833,262.667 178.167,262.333 178.5,262C 177.552,261.517 176.552,261.351 175.5,261.5C 175.5,260.5 175.5,259.5 175.5,258.5C 191.519,257.504 207.519,256.504 223.5,255.5 Z"/></g>
<g><path style="opacity:1" fill="#674f35" d="M 292.5,251.5 C 293.676,254.529 295.343,257.196 297.5,259.5C 301.216,260.657 304.883,260.657 308.5,259.5C 309.5,259.5 310.5,259.5 311.5,259.5C 312.608,261.781 313.942,263.948 315.5,266C 317.833,266.333 320.167,266.667 322.5,267C 325.661,269.112 328.994,270.946 332.5,272.5C 334.762,275.599 336.429,278.933 337.5,282.5C 338.8,286.334 338.8,290.168 337.5,294C 333.141,294.534 328.808,294.368 324.5,293.5C 315.624,291.392 306.624,290.059 297.5,289.5C 297.5,291.167 297.5,292.833 297.5,294.5C 303.797,295.32 310.131,295.653 316.5,295.5C 322.675,296.339 329.008,297.006 335.5,297.5C 335.517,299.565 335.85,301.565 336.5,303.5C 336.666,307.846 336.499,312.179 336,316.5C 335.828,311.798 335.328,307.132 334.5,302.5C 333.707,302.931 332.873,303.265 332,303.5C 330.414,301.956 328.58,300.789 326.5,300C 320.467,299.698 314.467,299.198 308.5,298.5C 308.082,297.778 307.416,297.278 306.5,297C 302.833,296.667 299.167,296.333 295.5,296C 294.085,293.208 291.751,291.708 288.5,291.5C 287.386,290.277 287.219,288.944 288,287.5C 288.718,288.451 289.551,288.617 290.5,288C 291.257,286.488 292.257,285.154 293.5,284C 293.167,283.667 292.833,283.333 292.5,283C 295.2,282.747 297.867,282.747 300.5,283C 299.012,281.283 297.179,280.116 295,279.5C 294.1,275.166 293.266,270.832 292.5,266.5C 289.886,266.723 288.219,265.556 287.5,263C 288,262.5 288.5,262 289,261.5C 290.418,263.363 292.251,263.863 294.5,263C 293.027,262.29 292.36,261.124 292.5,259.5C 292.5,256.833 292.5,254.167 292.5,251.5 Z"/></g>
<g><path style="opacity:1" fill="#2e321b" d="M 329.5,256.5 C 329.196,257.15 328.863,257.817 328.5,258.5C 331.652,259.909 334.652,261.576 337.5,263.5C 338.386,264.325 338.719,265.325 338.5,266.5C 337.833,267.167 337.167,267.833 336.5,268.5C 336.586,267.504 336.252,266.671 335.5,266C 329.23,264.848 322.897,264.182 316.5,264C 315.349,261.8 313.682,260.3 311.5,259.5C 310.5,259.5 309.5,259.5 308.5,259.5C 312.013,258.281 315.68,258.281 319.5,259.5C 322.749,258.188 326.082,257.188 329.5,256.5 Z"/></g>
<g><path style="opacity:1" fill="#271e0d" d="M 264.5,261.5 C 266.319,262.584 267.985,263.918 269.5,265.5C 261.617,267.209 255.117,271.209 250,277.5C 249.601,277.272 249.435,276.938 249.5,276.5C 250.167,274.5 250.833,272.5 251.5,270.5C 254.014,268.133 256.014,265.3 257.5,262C 259.81,261.503 262.143,261.337 264.5,261.5 Z"/></g>
<g><path style="opacity:1" fill="#684836" d="M 169.5,261.5 C 171.5,261.5 173.5,261.5 175.5,261.5C 176.552,261.351 177.552,261.517 178.5,262C 178.167,262.333 177.833,262.667 177.5,263C 178.191,264.067 178.691,265.234 179,266.5C 179.654,265.304 180.154,265.304 180.5,266.5C 178.658,267.842 177.158,269.509 176,271.5C 175.833,274.667 175.667,277.833 175.5,281C 175.55,284.603 176.217,287.936 177.5,291C 176.5,291.333 175.5,291.667 174.5,292C 176.956,294.159 176.29,294.992 172.5,294.5C 170.5,294.167 168.5,293.833 166.5,293.5C 166.937,291.926 167.937,290.759 169.5,290C 168.106,289.044 167.439,287.711 167.5,286C 168.093,277.679 168.759,269.512 169.5,261.5 Z"/></g>
<g><path style="opacity:1" fill="#674831" d="M 292.5,259.5 C 292.36,261.124 293.027,262.29 294.5,263C 292.251,263.863 290.418,263.363 289,261.5C 288.5,262 288,262.5 287.5,263C 288.219,265.556 289.886,266.723 292.5,266.5C 293.266,270.832 294.1,275.166 295,279.5C 297.179,280.116 299.012,281.283 300.5,283C 297.867,282.747 295.2,282.747 292.5,283C 292.833,283.333 293.167,283.667 293.5,284C 292.257,285.154 291.257,286.488 290.5,288C 289.551,288.617 288.718,288.451 288,287.5C 287.219,288.944 287.386,290.277 288.5,291.5C 291.751,291.708 294.085,293.208 295.5,296C 299.167,296.333 302.833,296.667 306.5,297C 307.416,297.278 308.082,297.778 308.5,298.5C 301.188,298.568 294.354,296.901 288,293.5C 286.887,294.711 285.72,294.711 284.5,293.5C 281.289,288.911 277.955,284.411 274.5,280C 274.833,279.667 275.167,279.333 275.5,279C 273.359,277.85 271.526,276.35 270,274.5C 268.527,274.903 267.194,275.57 266,276.5C 259.49,275.843 254.656,278.51 251.5,284.5C 250.264,285.246 248.93,285.579 247.5,285.5C 246.027,284.929 244.36,284.929 242.5,285.5C 243.724,283.917 245.724,282.417 248.5,281C 247.084,279.085 247.418,277.585 249.5,276.5C 249.435,276.938 249.601,277.272 250,277.5C 255.117,271.209 261.617,267.209 269.5,265.5C 267.985,263.918 266.319,262.584 264.5,261.5C 267.044,261.104 269.211,261.771 271,263.5C 271.494,261.866 271.66,260.199 271.5,258.5C 274.958,259.22 278.458,259.887 282,260.5C 284.621,260.237 287.121,259.57 289.5,258.5C 290.584,258.685 291.584,259.018 292.5,259.5 Z"/></g>
<g><path style="opacity:1" fill="#4a3e28" d="M 311.5,259.5 C 313.682,260.3 315.349,261.8 316.5,264C 322.897,264.182 329.23,264.848 335.5,266C 336.252,266.671 336.586,267.504 336.5,268.5C 337.314,273.119 337.647,277.786 337.5,282.5C 336.429,278.933 334.762,275.599 332.5,272.5C 328.994,270.946 325.661,269.112 322.5,267C 320.167,266.667 317.833,266.333 315.5,266C 313.942,263.948 312.608,261.781 311.5,259.5 Z"/></g>
<g><path style="opacity:1" fill="#654126" d="M 308.5,298.5 C 314.467,299.198 320.467,299.698 326.5,300C 328.58,300.789 330.414,301.956 332,303.5C 332.873,303.265 333.707,302.931 334.5,302.5C 335.328,307.132 335.828,311.798 336,316.5C 336.499,312.179 336.666,307.846 336.5,303.5C 337.404,304.209 337.737,305.209 337.5,306.5C 337.666,311.844 337.499,317.177 337,322.5C 336.283,323.044 335.783,323.711 335.5,324.5C 333.744,323.448 333.077,321.781 333.5,319.5C 332.5,319.5 331.5,319.5 330.5,319.5C 328.572,322.652 327.905,325.985 328.5,329.5C 325.471,326.141 322.471,322.808 319.5,319.5C 317.864,320.304 316.364,321.304 315,322.5C 314.691,324.391 315.525,325.725 317.5,326.5C 316.5,326.833 315.5,327.167 314.5,327.5C 311.256,326.382 307.923,325.549 304.5,325C 303.809,323.933 303.309,322.766 303,321.5C 301.915,322.293 300.748,322.96 299.5,323.5C 298.476,322.147 297.143,321.48 295.5,321.5C 295.5,323.5 295.5,325.5 295.5,327.5C 287.507,326.918 279.84,324.918 272.5,321.5C 271.702,321.043 271.369,320.376 271.5,319.5C 273.969,318.683 276.635,318.183 279.5,318C 276.833,317.667 274.167,317.333 271.5,317C 268.448,313.814 264.782,311.647 260.5,310.5C 261.374,308.253 261.708,305.92 261.5,303.5C 259.097,303.393 257.264,304.393 256,306.5C 255.517,305.552 255.351,304.552 255.5,303.5C 251.5,303.5 247.5,303.5 243.5,303.5C 243.5,308.833 243.5,314.167 243.5,319.5C 240.167,319.5 236.833,319.5 233.5,319.5C 233.61,322.059 232.944,324.392 231.5,326.5C 230.707,326.069 229.873,325.735 229,325.5C 223.697,327.611 218.197,329.277 212.5,330.5C 211.106,330.379 209.772,330.046 208.5,329.5C 207.107,331.674 207.44,333.507 209.5,335C 208.088,336.306 206.421,337.14 204.5,337.5C 201.638,336.403 198.805,336.403 196,337.5C 194.775,337.138 193.609,336.638 192.5,336C 191.011,332.036 189.344,328.203 187.5,324.5C 181.251,325.678 179.918,329.011 183.5,334.5C 182.311,335.429 180.978,335.762 179.5,335.5C 179.768,337.099 179.434,338.432 178.5,339.5C 176.002,331.065 175.002,322.398 175.5,313.5C 180.27,312.901 184.937,313.735 189.5,316C 192.696,318.732 196.362,320.732 200.5,322C 208.113,323.262 215.78,323.762 223.5,323.5C 223.5,322.167 223.5,320.833 223.5,319.5C 225.5,319.5 227.5,319.5 229.5,319.5C 231.259,314.059 233.926,309.059 237.5,304.5C 237.291,303.914 236.957,303.414 236.5,303C 239.539,301.969 242.039,300.135 244,297.5C 245.991,293.808 248.158,290.308 250.5,287C 249.263,286.768 248.263,286.268 247.5,285.5C 248.93,285.579 250.264,285.246 251.5,284.5C 254.656,278.51 259.49,275.843 266,276.5C 267.194,275.57 268.527,274.903 270,274.5C 271.526,276.35 273.359,277.85 275.5,279C 275.167,279.333 274.833,279.667 274.5,280C 277.955,284.411 281.289,288.911 284.5,293.5C 285.72,294.711 286.887,294.711 288,293.5C 294.354,296.901 301.188,298.568 308.5,298.5 Z"/></g>
<g><path style="opacity:1" fill="#282317" d="M 327.5,247.5 C 325.919,249.142 325.253,251.142 325.5,253.5C 330.121,253.594 334.454,252.594 338.5,250.5C 339.708,249.766 341.041,249.433 342.5,249.5C 341.871,258.82 341.538,268.154 341.5,277.5C 341.5,278.833 341.5,280.167 341.5,281.5C 340.71,282.609 340.21,283.942 340,285.5C 338.812,279.222 338.312,272.888 338.5,266.5C 338.719,265.325 338.386,264.325 337.5,263.5C 334.652,261.576 331.652,259.909 328.5,258.5C 328.863,257.817 329.196,257.15 329.5,256.5C 329.5,256.167 329.5,255.833 329.5,255.5C 331.527,255.662 333.527,255.495 335.5,255C 331.514,254.501 327.514,254.334 323.5,254.5C 323.076,250.998 324.41,248.665 327.5,247.5 Z"/></g>
<g><path style="opacity:1" fill="#3d2e1f" d="M 338.5,266.5 C 338.312,272.888 338.812,279.222 340,285.5C 340.21,283.942 340.71,282.609 341.5,281.5C 341.5,291.167 341.5,300.833 341.5,310.5C 341.5,310.833 341.5,311.167 341.5,311.5C 340.596,312.209 340.263,313.209 340.5,314.5C 339.5,311.833 338.5,309.167 337.5,306.5C 337.737,305.209 337.404,304.209 336.5,303.5C 335.85,301.565 335.517,299.565 335.5,297.5C 329.008,297.006 322.675,296.339 316.5,295.5C 320.182,295.665 323.848,295.499 327.5,295C 326.263,294.768 325.263,294.268 324.5,293.5C 328.808,294.368 333.141,294.534 337.5,294C 338.8,290.168 338.8,286.334 337.5,282.5C 337.647,277.786 337.314,273.119 336.5,268.5C 337.167,267.833 337.833,267.167 338.5,266.5 Z"/></g>
<g><path style="opacity:1" fill="#624428" d="M 247.5,285.5 C 248.263,286.268 249.263,286.768 250.5,287C 248.158,290.308 245.991,293.808 244,297.5C 242.039,300.135 239.539,301.969 236.5,303C 236.957,303.414 237.291,303.914 237.5,304.5C 233.926,309.059 231.259,314.059 229.5,319.5C 227.5,319.5 225.5,319.5 223.5,319.5C 223.5,320.833 223.5,322.167 223.5,323.5C 215.78,323.762 208.113,323.262 200.5,322C 196.362,320.732 192.696,318.732 189.5,316C 184.937,313.735 180.27,312.901 175.5,313.5C 174.308,310.438 172.808,307.438 171,304.5C 170.235,302.934 170.402,301.601 171.5,300.5C 171.435,300.938 171.601,301.272 172,301.5C 173,300.833 174,300.167 175,299.5C 175.249,300.624 175.749,301.624 176.5,302.5C 180.152,301.136 183.652,301.469 187,303.5C 192.775,303.371 198.609,303.371 204.5,303.5C 206.867,303.158 209.2,302.658 211.5,302C 208.972,301.331 208.972,300.498 211.5,299.5C 213.861,300.021 216.194,300.354 218.5,300.5C 219.328,299.585 220.328,298.919 221.5,298.5C 224.132,299.44 226.798,299.607 229.5,299C 232.26,295.993 235.427,293.493 239,291.5C 239.49,290.207 239.657,288.873 239.5,287.5C 241.179,287.715 242.179,287.048 242.5,285.5C 244.36,284.929 246.027,284.929 247.5,285.5 Z"/></g>
<g><path style="opacity:1" fill="#2a2f13" d="M 229.5,284.5 C 231.833,284.5 234.167,284.5 236.5,284.5C 236.67,285.822 236.337,286.989 235.5,288C 229.324,291.926 222.657,294.426 215.5,295.5C 207.509,296.429 199.509,296.929 191.5,297C 189.744,296.798 188.078,296.298 186.5,295.5C 188.655,294.999 190.322,293.999 191.5,292.5C 203.825,288.749 216.492,286.083 229.5,284.5 Z"/></g>
<g><path style="opacity:1" fill="#181d06" d="M 324.5,293.5 C 325.263,294.268 326.263,294.768 327.5,295C 323.848,295.499 320.182,295.665 316.5,295.5C 310.131,295.653 303.797,295.32 297.5,294.5C 297.5,292.833 297.5,291.167 297.5,289.5C 306.624,290.059 315.624,291.392 324.5,293.5 Z"/></g>
<g><path style="opacity:1" fill="#372e16" d="M 191.5,292.5 C 190.322,293.999 188.655,294.999 186.5,295.5C 188.078,296.298 189.744,296.798 191.5,297C 199.509,296.929 207.509,296.429 215.5,295.5C 212.917,296.224 210.251,297.057 207.5,298C 195.326,298.169 183.326,298.669 171.5,299.5C 169.833,299.5 168.167,299.5 166.5,299.5C 165.524,298.185 164.524,296.852 163.5,295.5C 164.005,294.081 165.005,293.415 166.5,293.5C 168.5,293.833 170.5,294.167 172.5,294.5C 173.622,295.156 174.955,295.489 176.5,295.5C 181.471,294.34 186.471,293.34 191.5,292.5 Z"/></g>
<g><path style="opacity:1" fill="#643f22" d="M 271.5,319.5 C 269.143,319.337 266.81,319.503 264.5,320C 265.623,321.044 266.956,321.71 268.5,322C 265.018,321.454 261.685,321.788 258.5,323C 261.844,325.004 264.177,327.337 265.5,330C 261.623,330.221 257.956,329.388 254.5,327.5C 252.639,328.528 251.305,330.028 250.5,332C 244.62,332.876 244.287,334.376 249.5,336.5C 248.608,339.284 247.442,341.95 246,344.5C 245.235,346.066 245.402,347.399 246.5,348.5C 246.033,353.4 246.699,358.067 248.5,362.5C 248.217,363.289 247.717,363.956 247,364.5C 246.097,363.299 244.931,362.465 243.5,362C 240.167,361.333 236.833,361.333 233.5,362C 235.221,363.527 237.221,364.527 239.5,365C 233.74,364.878 228.407,365.711 223.5,367.5C 221.167,367.5 218.833,367.5 216.5,367.5C 215.697,372.476 212.864,375.809 208,377.5C 207.667,379.5 207.333,381.5 207,383.5C 205.14,380.728 202.806,378.395 200,376.5C 200.234,372.878 201.901,369.878 205,367.5C 208.707,370.475 210.874,369.975 211.5,366C 215.061,364.39 218.394,362.557 221.5,360.5C 216.88,359.507 212.214,359.173 207.5,359.5C 207.649,360.552 207.483,361.552 207,362.5C 202.237,360.537 197.403,358.704 192.5,357C 191.594,355.301 191.261,353.467 191.5,351.5C 188.833,351.5 186.167,351.5 183.5,351.5C 183.235,358.871 183.569,366.204 184.5,373.5C 184.101,375.197 183.601,376.863 183,378.5C 182.878,376.563 182.045,375.23 180.5,374.5C 179.531,362.407 178.864,350.74 178.5,339.5C 179.434,338.432 179.768,337.099 179.5,335.5C 180.978,335.762 182.311,335.429 183.5,334.5C 179.918,329.011 181.251,325.678 187.5,324.5C 189.344,328.203 191.011,332.036 192.5,336C 193.609,336.638 194.775,337.138 196,337.5C 198.805,336.403 201.638,336.403 204.5,337.5C 206.421,337.14 208.088,336.306 209.5,335C 207.44,333.507 207.107,331.674 208.5,329.5C 209.772,330.046 211.106,330.379 212.5,330.5C 218.197,329.277 223.697,327.611 229,325.5C 229.873,325.735 230.707,326.069 231.5,326.5C 232.944,324.392 233.61,322.059 233.5,319.5C 236.833,319.5 240.167,319.5 243.5,319.5C 243.5,314.167 243.5,308.833 243.5,303.5C 247.5,303.5 251.5,303.5 255.5,303.5C 255.351,304.552 255.517,305.552 256,306.5C 257.264,304.393 259.097,303.393 261.5,303.5C 261.708,305.92 261.374,308.253 260.5,310.5C 264.782,311.647 268.448,313.814 271.5,317C 274.167,317.333 276.833,317.667 279.5,318C 276.635,318.183 273.969,318.683 271.5,319.5 Z"/></g>
<g><path style="opacity:1" fill="#653c21" d="M 271.5,319.5 C 271.369,320.376 271.702,321.043 272.5,321.5C 279.84,324.918 287.507,326.918 295.5,327.5C 295.5,325.5 295.5,323.5 295.5,321.5C 297.143,321.48 298.476,322.147 299.5,323.5C 300.748,322.96 301.915,322.293 303,321.5C 303.309,322.766 303.809,323.933 304.5,325C 307.923,325.549 311.256,326.382 314.5,327.5C 315.5,327.167 316.5,326.833 317.5,326.5C 315.525,325.725 314.691,324.391 315,322.5C 316.364,321.304 317.864,320.304 319.5,319.5C 322.471,322.808 325.471,326.141 328.5,329.5C 327.905,325.985 328.572,322.652 330.5,319.5C 331.5,319.5 332.5,319.5 333.5,319.5C 333.077,321.781 333.744,323.448 335.5,324.5C 336.245,340.289 336.078,356.289 335,372.5C 333.065,374.136 332.565,375.969 333.5,378C 331.202,384.966 329.869,392.132 329.5,399.5C 327.027,401.098 327.027,402.598 329.5,404C 326.058,409.711 322.724,415.545 319.5,421.5C 320.833,422.5 320.833,423.5 319.5,424.5C 317.417,425.959 315.25,427.292 313,428.5C 312.028,430.305 310.861,431.972 309.5,433.5C 310.641,434.425 310.641,435.259 309.5,436C 308.128,436.402 306.795,436.902 305.5,437.5C 304.893,437.376 304.56,437.043 304.5,436.5C 301.574,435.231 298.908,433.398 296.5,431C 298.425,431.135 300.425,431.302 302.5,431.5C 302.739,429.533 302.406,427.699 301.5,426C 299.421,426.404 297.421,426.57 295.5,426.5C 293.258,424.461 290.758,422.795 288,421.5C 287.505,419.527 287.338,417.527 287.5,415.5C 286.167,415.5 284.833,415.5 283.5,415.5C 283.196,412.478 282.696,409.478 282,406.5C 280.933,405.809 279.766,405.309 278.5,405C 281.014,401.168 280.514,397.668 277,394.5C 275.151,397.034 273.485,399.7 272,402.5C 271.751,401.376 271.251,400.376 270.5,399.5C 266.552,402.307 262.218,404.307 257.5,405.5C 254.467,404.518 252.8,402.518 252.5,399.5C 251.022,399.762 249.689,399.429 248.5,398.5C 247.274,395.048 245.774,391.715 244,388.5C 242.667,387.167 241.333,387.167 240,388.5C 239,386.833 238,385.167 237,383.5C 236.261,385.221 235.427,386.887 234.5,388.5C 233.914,388.291 233.414,387.957 233,387.5C 232.015,382.311 232.515,377.311 234.5,372.5C 236.045,371.548 237.712,371.215 239.5,371.5C 239.5,370.167 239.5,368.833 239.5,367.5C 234.167,367.5 228.833,367.5 223.5,367.5C 228.407,365.711 233.74,364.878 239.5,365C 237.221,364.527 235.221,363.527 233.5,362C 236.833,361.333 240.167,361.333 243.5,362C 244.931,362.465 246.097,363.299 247,364.5C 247.717,363.956 248.217,363.289 248.5,362.5C 250.213,363.635 250.88,365.302 250.5,367.5C 251.5,367.5 252.5,367.5 253.5,367.5C 252.9,363.252 254.233,362.085 257.5,364C 260.167,364.667 262.833,364.667 265.5,364C 266.337,362.989 266.67,361.822 266.5,360.5C 270.632,360.105 274.632,359.105 278.5,357.5C 280.836,358.023 283.17,357.523 285.5,356C 286.894,355.044 287.561,353.711 287.5,352C 287.061,348.984 287.061,345.818 287.5,342.5C 282.989,341.975 278.489,341.308 274,340.5C 267.961,342.209 261.795,342.875 255.5,342.5C 255.719,341.325 255.386,340.325 254.5,339.5C 253.088,340.806 251.421,341.64 249.5,342C 248.769,343.871 247.769,346.037 246.5,348.5C 245.402,347.399 245.235,346.066 246,344.5C 247.442,341.95 248.608,339.284 249.5,336.5C 244.287,334.376 244.62,332.876 250.5,332C 251.305,330.028 252.639,328.528 254.5,327.5C 257.956,329.388 261.623,330.221 265.5,330C 264.177,327.337 261.844,325.004 258.5,323C 261.685,321.788 265.018,321.454 268.5,322C 266.956,321.71 265.623,321.044 264.5,320C 266.81,319.503 269.143,319.337 271.5,319.5 Z"/></g>
<g><path style="opacity:1" fill="#643e28" d="M 248.5,362.5 C 246.699,358.067 246.033,353.4 246.5,348.5C 247.769,346.037 248.769,343.871 249.5,342C 251.421,341.64 253.088,340.806 254.5,339.5C 255.386,340.325 255.719,341.325 255.5,342.5C 261.795,342.875 267.961,342.209 274,340.5C 278.489,341.308 282.989,341.975 287.5,342.5C 287.061,345.818 287.061,348.984 287.5,352C 287.561,353.711 286.894,355.044 285.5,356C 283.17,357.523 280.836,358.023 278.5,357.5C 274.632,359.105 270.632,360.105 266.5,360.5C 266.67,361.822 266.337,362.989 265.5,364C 262.833,364.667 260.167,364.667 257.5,364C 254.233,362.085 252.9,363.252 253.5,367.5C 252.5,367.5 251.5,367.5 250.5,367.5C 250.88,365.302 250.213,363.635 248.5,362.5 Z"/></g>
<g><path style="opacity:1" fill="#281c05" d="M 273.5,342.5 C 276.167,342.5 278.833,342.5 281.5,342.5C 281.666,346.689 279.999,350.022 276.5,352.5C 271.655,354.088 266.655,355.088 261.5,355.5C 254.749,355.54 251.749,352.207 252.5,345.5C 258.832,345.056 265.165,344.556 271.5,344C 272.416,343.722 273.082,343.222 273.5,342.5 Z"/></g>
<g><path style="opacity:1" fill="#683e21" d="M 223.5,367.5 C 228.833,367.5 234.167,367.5 239.5,367.5C 239.5,368.833 239.5,370.167 239.5,371.5C 237.712,371.215 236.045,371.548 234.5,372.5C 232.515,377.311 232.015,382.311 233,387.5C 233.414,387.957 233.914,388.291 234.5,388.5C 235.427,386.887 236.261,385.221 237,383.5C 238,385.167 239,386.833 240,388.5C 241.333,387.167 242.667,387.167 244,388.5C 245.774,391.715 247.274,395.048 248.5,398.5C 249.689,399.429 251.022,399.762 252.5,399.5C 252.8,402.518 254.467,404.518 257.5,405.5C 262.218,404.307 266.552,402.307 270.5,399.5C 271.251,400.376 271.751,401.376 272,402.5C 273.485,399.7 275.151,397.034 277,394.5C 280.514,397.668 281.014,401.168 278.5,405C 279.766,405.309 280.933,405.809 282,406.5C 282.696,409.478 283.196,412.478 283.5,415.5C 284.833,415.5 286.167,415.5 287.5,415.5C 287.338,417.527 287.505,419.527 288,421.5C 290.758,422.795 293.258,424.461 295.5,426.5C 297.421,426.57 299.421,426.404 301.5,426C 302.406,427.699 302.739,429.533 302.5,431.5C 300.425,431.302 298.425,431.135 296.5,431C 298.908,433.398 301.574,435.231 304.5,436.5C 303.751,437.531 303.085,438.698 302.5,440C 295.999,441.295 289.499,441.461 283,440.5C 279.286,441.869 275.453,442.536 271.5,442.5C 271.5,440.833 271.5,439.167 271.5,437.5C 267.132,437.63 262.798,437.297 258.5,436.5C 257.006,436.709 255.839,437.376 255,438.5C 252.091,437.295 249.258,435.962 246.5,434.5C 243.749,434.854 241.083,435.521 238.5,436.5C 236.244,435.579 235.244,433.912 235.5,431.5C 231.5,431.5 227.5,431.5 223.5,431.5C 223.719,430.325 223.386,429.325 222.5,428.5C 220.336,427.586 218.336,426.419 216.5,425C 213.794,423.092 210.794,422.259 207.5,422.5C 207.5,421.5 207.5,420.5 207.5,419.5C 204.472,417.494 201.139,416.16 197.5,415.5C 197.146,413.459 197.146,411.626 197.5,410C 195.603,408.89 193.77,408.724 192,409.5C 191.578,406.24 190.078,403.574 187.5,401.5C 187.709,400.914 188.043,400.414 188.5,400C 187.207,399.51 185.873,399.343 184.5,399.5C 183.063,390.938 181.73,382.605 180.5,374.5C 182.045,375.23 182.878,376.563 183,378.5C 183.601,376.863 184.101,375.197 184.5,373.5C 183.569,366.204 183.235,358.871 183.5,351.5C 186.167,351.5 188.833,351.5 191.5,351.5C 191.261,353.467 191.594,355.301 192.5,357C 197.403,358.704 202.237,360.537 207,362.5C 207.483,361.552 207.649,360.552 207.5,359.5C 212.214,359.173 216.88,359.507 221.5,360.5C 218.394,362.557 215.061,364.39 211.5,366C 210.874,369.975 208.707,370.475 205,367.5C 201.901,369.878 200.234,372.878 200,376.5C 202.806,378.395 205.14,380.728 207,383.5C 207.333,381.5 207.667,379.5 208,377.5C 212.864,375.809 215.697,372.476 216.5,367.5C 218.833,367.5 221.167,367.5 223.5,367.5 Z"/></g>
<g><path style="opacity:1" fill="#82473f" d="M 341.5,311.5 C 341.852,340.852 341.352,370.185 340,399.5C 340.028,403.685 338.695,407.352 336,410.5C 335.829,415.864 335.329,421.198 334.5,426.5C 332.889,425.68 332.222,424.346 332.5,422.5C 331.5,422.5 330.5,422.5 329.5,422.5C 329.286,424.144 329.62,425.644 330.5,427C 328.833,428 327.167,429 325.5,430C 325.833,430.333 326.167,430.667 326.5,431C 325.687,432.314 324.687,433.481 323.5,434.5C 324.855,435.675 324.688,436.675 323,437.5C 321.933,435.717 320.433,435.217 318.5,436C 316.937,437.947 314.937,439.114 312.5,439.5C 325.966,429.596 334.133,416.263 337,399.5C 338.41,371.184 339.576,342.85 340.5,314.5C 340.263,313.209 340.596,312.209 341.5,311.5 Z"/></g>
<g><path style="opacity:1" fill="#663c27" d="M 337.5,306.5 C 338.5,309.167 339.5,311.833 340.5,314.5C 339.576,342.85 338.41,371.184 337,399.5C 334.133,416.263 325.966,429.596 312.5,439.5C 309.648,441.091 306.648,442.424 303.5,443.5C 301.658,443.723 299.825,444.057 298,444.5C 295.477,446.514 292.644,448.014 289.5,449C 284.018,449.181 278.851,450.348 274,452.5C 266.841,451.004 259.675,449.504 252.5,448C 245.53,445.343 238.53,442.843 231.5,440.5C 220.823,433.706 209.49,428.04 197.5,423.5C 196.167,423.5 194.833,423.5 193.5,423.5C 193.662,421.473 193.495,419.473 193,417.5C 191.071,412.34 188.404,407.673 185,403.5C 184.51,402.207 184.343,400.873 184.5,399.5C 185.873,399.343 187.207,399.51 188.5,400C 188.043,400.414 187.709,400.914 187.5,401.5C 190.078,403.574 191.578,406.24 192,409.5C 193.77,408.724 195.603,408.89 197.5,410C 197.146,411.626 197.146,413.459 197.5,415.5C 201.139,416.16 204.472,417.494 207.5,419.5C 207.5,420.5 207.5,421.5 207.5,422.5C 210.794,422.259 213.794,423.092 216.5,425C 218.336,426.419 220.336,427.586 222.5,428.5C 223.386,429.325 223.719,430.325 223.5,431.5C 227.5,431.5 231.5,431.5 235.5,431.5C 235.244,433.912 236.244,435.579 238.5,436.5C 241.083,435.521 243.749,434.854 246.5,434.5C 249.258,435.962 252.091,437.295 255,438.5C 255.839,437.376 257.006,436.709 258.5,436.5C 262.798,437.297 267.132,437.63 271.5,437.5C 271.5,439.167 271.5,440.833 271.5,442.5C 275.453,442.536 279.286,441.869 283,440.5C 289.499,441.461 295.999,441.295 302.5,440C 303.085,438.698 303.751,437.531 304.5,436.5C 304.56,437.043 304.893,437.376 305.5,437.5C 306.795,436.902 308.128,436.402 309.5,436C 310.641,435.259 310.641,434.425 309.5,433.5C 310.861,431.972 312.028,430.305 313,428.5C 315.25,427.292 317.417,425.959 319.5,424.5C 320.833,423.5 320.833,422.5 319.5,421.5C 322.724,415.545 326.058,409.711 329.5,404C 327.027,402.598 327.027,401.098 329.5,399.5C 329.869,392.132 331.202,384.966 333.5,378C 332.565,375.969 333.065,374.136 335,372.5C 336.078,356.289 336.245,340.289 335.5,324.5C 335.783,323.711 336.283,323.044 337,322.5C 337.499,317.177 337.666,311.844 337.5,306.5 Z"/></g>
<g><path style="opacity:1" fill="#964c4a" d="M 165.5,404.5 C 168.098,408.438 171.098,412.105 174.5,415.5C 175.314,413.234 175.814,410.9 176,408.5C 176.638,409.609 177.138,410.775 177.5,412C 177.756,419.096 177.422,426.263 176.5,433.5C 177.529,438.202 178.529,442.868 179.5,447.5C 176.61,447.417 175.943,448.917 177.5,452C 176.134,455.694 175.468,459.528 175.5,463.5C 173.712,463.215 172.045,463.548 170.5,464.5C 167.273,472.374 163.773,480.041 160,487.5C 159.626,486.584 159.126,485.75 158.5,485C 156.324,484.837 154.491,484.004 153,482.5C 151.898,475.709 151.065,468.876 150.5,462C 151.987,457.846 154.82,455.013 159,453.5C 159.499,448.177 159.666,442.844 159.5,437.5C 159.5,435.5 159.5,433.5 159.5,431.5C 158.167,431.5 156.833,431.5 155.5,431.5C 155.5,426.167 155.5,420.833 155.5,415.5C 156.833,415.5 158.167,415.5 159.5,415.5C 159.334,410.156 159.501,404.823 160,399.5C 161.055,402.056 162.888,403.723 165.5,404.5 Z"/></g>
<g><path style="opacity:1" fill="#934e48" d="M 168.5,319.5 C 171.264,339.631 173.431,359.964 175,380.5C 176.969,392.43 181.636,403.097 189,412.5C 189.167,414.333 189.333,416.167 189.5,418C 185.5,444.832 180,471.332 173,497.5C 172.006,502.118 171.506,506.785 171.5,511.5C 156.833,511.5 142.167,511.5 127.5,511.5C 127.739,509.533 127.406,507.699 126.5,506C 123.905,505.774 121.405,505.274 119,504.5C 118.333,506.5 117.667,508.5 117,510.5C 115.256,509.351 115.089,508.017 116.5,506.5C 115.392,503.497 113.725,502.997 111.5,505C 105.306,505.727 99.1397,505.561 93,504.5C 90.8491,504.773 88.8491,505.439 87,506.5C 85.0188,504.343 82.6855,502.676 80,501.5C 79.5045,499.527 79.3379,497.527 79.5,495.5C 84.8333,495.5 90.1667,495.5 95.5,495.5C 95.5,493.5 95.5,491.5 95.5,489.5C 100.833,489.5 106.167,489.5 111.5,489.5C 111.5,486.167 111.5,482.833 111.5,479.5C 112.833,479.5 114.167,479.5 115.5,479.5C 115.5,474.167 115.5,468.833 115.5,463.5C 119.5,463.5 123.5,463.5 127.5,463.5C 127.5,458.167 127.5,452.833 127.5,447.5C 135.167,447.5 142.833,447.5 150.5,447.5C 151.362,442.302 154.362,438.969 159.5,437.5C 159.666,442.844 159.499,448.177 159,453.5C 154.82,455.013 151.987,457.846 150.5,462C 151.065,468.876 151.898,475.709 153,482.5C 154.491,484.004 156.324,484.837 158.5,485C 159.126,485.75 159.626,486.584 160,487.5C 163.773,480.041 167.273,472.374 170.5,464.5C 172.045,463.548 173.712,463.215 175.5,463.5C 175.468,459.528 176.134,455.694 177.5,452C 175.943,448.917 176.61,447.417 179.5,447.5C 178.529,442.868 177.529,438.202 176.5,433.5C 177.422,426.263 177.756,419.096 177.5,412C 177.138,410.775 176.638,409.609 176,408.5C 175.814,410.9 175.314,413.234 174.5,415.5C 171.098,412.105 168.098,408.438 165.5,404.5C 165.579,403.07 165.246,401.736 164.5,400.5C 166.045,399.548 167.712,399.215 169.5,399.5C 165.684,382.028 165.684,364.528 169.5,347C 169.524,338.049 169.19,328.882 168.5,319.5 Z"/></g>
<g><path style="opacity:1" fill="#954e4a" d="M 341.5,310.5 C 341.833,310.5 342.167,310.5 342.5,310.5C 342.275,324.39 342.942,338.224 344.5,352C 344.555,359.072 343.888,366.072 342.5,373C 343.028,381.431 343.361,390.264 343.5,399.5C 344.833,399.5 346.167,399.5 347.5,399.5C 347.5,404.833 347.5,410.167 347.5,415.5C 350.607,415.174 352.94,416.341 354.5,419C 352.07,421.305 351.07,424.138 351.5,427.5C 350.448,427.351 349.448,427.517 348.5,428C 347.639,430.868 345.972,433.202 343.5,435C 332.833,435.667 332.833,436.333 343.5,437C 340.167,437.333 336.833,437.667 333.5,438C 330.85,439.823 327.516,441.656 323.5,443.5C 322.742,442.189 321.742,441.689 320.5,442C 319.594,443.699 319.261,445.533 319.5,447.5C 317.473,447.338 315.473,447.505 313.5,448C 313.642,451.973 315.642,454.14 319.5,454.5C 319.5,457.5 319.5,460.5 319.5,463.5C 320.833,463.5 322.167,463.5 323.5,463.5C 323.5,464.5 323.5,465.5 323.5,466.5C 324.978,466.238 326.311,466.571 327.5,467.5C 329.109,470.894 331.776,472.227 335.5,471.5C 335.281,472.675 335.614,473.675 336.5,474.5C 339.114,475.617 341.281,477.284 343,479.5C 343.5,479.167 344,478.833 344.5,478.5C 343.572,477.232 343.405,475.899 344,474.5C 346.333,477.167 348.667,477.167 351,474.5C 351.595,475.899 351.428,477.232 350.5,478.5C 355.425,479.429 355.758,481.096 351.5,483.5C 353.162,484.327 354.495,485.493 355.5,487C 352.5,487.333 349.5,487.667 346.5,488C 344.824,489.177 343.491,490.677 342.5,492.5C 341.167,491.167 339.833,491.167 338.5,492.5C 336.014,494.578 335.014,497.245 335.5,500.5C 336.5,500.5 337.5,500.5 338.5,500.5C 338.5,498.833 338.5,497.167 338.5,495.5C 348.167,495.5 357.833,495.5 367.5,495.5C 367.5,498.833 367.5,502.167 367.5,505.5C 357.033,504.278 346.367,503.611 335.5,503.5C 335.5,504.5 335.5,505.5 335.5,506.5C 332.552,506.223 329.719,506.556 327,507.5C 320.984,505.911 321.15,504.744 327.5,504C 321.537,502.878 316.204,504.211 311.5,508C 316.845,509.174 322.178,509.341 327.5,508.5C 330.063,508.737 330.063,509.237 327.5,510C 329.179,510.395 330.845,510.228 332.5,509.5C 334.038,509.453 335.038,510.12 335.5,511.5C 315.167,511.5 294.833,511.5 274.5,511.5C 275.251,492.148 276.251,472.814 277.5,453.5C 286.959,451.908 295.626,448.575 303.5,443.5C 306.648,442.424 309.648,441.091 312.5,439.5C 314.937,439.114 316.937,437.947 318.5,436C 320.433,435.217 321.933,435.717 323,437.5C 324.688,436.675 324.855,435.675 323.5,434.5C 324.687,433.481 325.687,432.314 326.5,431C 326.167,430.667 325.833,430.333 325.5,430C 327.167,429 328.833,428 330.5,427C 329.62,425.644 329.286,424.144 329.5,422.5C 330.5,422.5 331.5,422.5 332.5,422.5C 332.222,424.346 332.889,425.68 334.5,426.5C 335.329,421.198 335.829,415.864 336,410.5C 338.695,407.352 340.028,403.685 340,399.5C 341.352,370.185 341.852,340.852 341.5,311.5C 341.5,311.167 341.5,310.833 341.5,310.5 Z"/></g>
<g><path style="opacity:1" fill="#5e3a20" d="M 197.5,423.5 C 209.49,428.04 220.823,433.706 231.5,440.5C 232.122,442.335 233.456,443.502 235.5,444C 234.5,445 233.5,446 232.5,447C 234.641,446.914 236.974,447.081 239.5,447.5C 239.441,450.049 240.441,452.049 242.5,453.5C 248.394,455.485 254.394,456.985 260.5,458C 259.903,459.626 259.903,461.459 260.5,463.5C 261.624,461.631 262.457,459.631 263,457.5C 264.069,470.326 264.903,483.159 265.5,496C 264.311,497.895 263.311,499.895 262.5,502C 263.167,502.667 263.833,503.333 264.5,504C 261.79,505.747 258.79,506.747 255.5,507C 233.473,508.511 211.473,508.678 189.5,507.5C 189.5,506.5 189.5,505.5 189.5,504.5C 186.873,504.707 185.207,503.54 184.5,501C 185.051,499.042 185.385,497.042 185.5,495C 184.363,489.979 183.363,484.979 182.5,480C 185.993,479.835 187.826,478.002 188,474.5C 189.468,469.26 189.968,464.094 189.5,459C 190.866,455.306 191.532,451.472 191.5,447.5C 193.124,447.64 194.29,446.973 195,445.5C 195.521,440.148 196.187,434.815 197,429.5C 197.465,428.069 198.299,426.903 199.5,426C 198.619,425.292 197.953,424.458 197.5,423.5 Z"/></g>
<g><path style="opacity:1" fill="#5c3623" d="M 166.5,299.5 C 168.167,299.5 169.833,299.5 171.5,299.5C 171.5,299.833 171.5,300.167 171.5,300.5C 170.402,301.601 170.235,302.934 171,304.5C 172.808,307.438 174.308,310.438 175.5,313.5C 175.002,322.398 176.002,331.065 178.5,339.5C 178.864,350.74 179.531,362.407 180.5,374.5C 181.73,382.605 183.063,390.938 184.5,399.5C 184.343,400.873 184.51,402.207 185,403.5C 188.404,407.673 191.071,412.34 193,417.5C 193.495,419.473 193.662,421.473 193.5,423.5C 194.833,423.5 196.167,423.5 197.5,423.5C 197.953,424.458 198.619,425.292 199.5,426C 198.299,426.903 197.465,428.069 197,429.5C 196.187,434.815 195.521,440.148 195,445.5C 194.29,446.973 193.124,447.64 191.5,447.5C 191.532,451.472 190.866,455.306 189.5,459C 189.968,464.094 189.468,469.26 188,474.5C 187.826,478.002 185.993,479.835 182.5,480C 183.363,484.979 184.363,489.979 185.5,495C 185.385,497.042 185.051,499.042 184.5,501C 185.207,503.54 186.873,504.707 189.5,504.5C 189.5,505.5 189.5,506.5 189.5,507.5C 211.473,508.678 233.473,508.511 255.5,507C 258.79,506.747 261.79,505.747 264.5,504C 263.833,503.333 263.167,502.667 262.5,502C 263.311,499.895 264.311,497.895 265.5,496C 264.903,483.159 264.069,470.326 263,457.5C 262.457,459.631 261.624,461.631 260.5,463.5C 259.903,461.459 259.903,459.626 260.5,458C 254.394,456.985 248.394,455.485 242.5,453.5C 240.441,452.049 239.441,450.049 239.5,447.5C 236.974,447.081 234.641,446.914 232.5,447C 233.5,446 234.5,445 235.5,444C 233.456,443.502 232.122,442.335 231.5,440.5C 238.53,442.843 245.53,445.343 252.5,448C 259.675,449.504 266.841,451.004 274,452.5C 278.851,450.348 284.018,449.181 289.5,449C 292.644,448.014 295.477,446.514 298,444.5C 299.825,444.057 301.658,443.723 303.5,443.5C 295.626,448.575 286.959,451.908 277.5,453.5C 276.251,472.814 275.251,492.148 274.5,511.5C 240.167,511.5 205.833,511.5 171.5,511.5C 171.506,506.785 172.006,502.118 173,497.5C 180,471.332 185.5,444.832 189.5,418C 189.333,416.167 189.167,414.333 189,412.5C 181.636,403.097 176.969,392.43 175,380.5C 173.431,359.964 171.264,339.631 168.5,319.5C 166.953,312.946 166.287,306.279 166.5,299.5 Z"/></g>
</svg>
