<?xml version="1.0" encoding="UTF-8"?>
<!DOCTYPE svg PUBLIC "-//W3C//DTD SVG 1.1//EN" "http://www.w3.org/Graphics/SVG/1.1/DTD/svg11.dtd">
<svg xmlns="http://www.w3.org/2000/svg" version="1.1" width="512px" height="512px" style="shape-rendering:geometricPrecision; text-rendering:geometricPrecision; image-rendering:optimizeQuality; fill-rule:evenodd; clip-rule:evenodd" xmlns:xlink="http://www.w3.org/1999/xlink">
<g><path style="opacity:1" fill="#648596" d="M -0.5,-0.5 C 170.167,-0.5 340.833,-0.5 511.5,-0.5C 511.5,170.167 511.5,340.833 511.5,511.5C 436.5,511.5 361.5,511.5 286.5,511.5C 282.324,505.15 278.657,498.483 275.5,491.5C 275.788,485.313 277.455,479.646 280.5,474.5C 292.384,472.269 304.384,471.102 316.5,471C 331.54,466.732 346.873,465.399 362.5,467C 363.743,468.154 364.743,469.488 365.5,471C 366.833,471.667 368.167,471.667 369.5,471C 375.884,461.61 383.384,453.11 392,445.5C 396.107,439.605 399.941,433.605 403.5,427.5C 403.5,428.833 403.5,430.167 403.5,431.5C 404.552,431.351 405.552,431.517 406.5,432C 405.289,433.113 405.289,434.28 406.5,435.5C 404.74,436.078 402.74,437.078 400.5,438.5C 401.269,440.982 400.269,442.815 397.5,444C 399.166,447.342 399.666,451.175 399,455.5C 398.311,456.357 397.478,457.023 396.5,457.5C 395.59,455.345 394.423,453.345 393,451.5C 392.667,452.167 392.333,452.833 392,453.5C 391.751,452.376 391.251,451.376 390.5,450.5C 390.762,452.132 389.762,453.299 387.5,454C 388.285,456.042 387.952,458.042 386.5,460C 387.167,461 387.833,462 388.5,463C 390.674,462.063 393.007,461.229 395.5,460.5C 395.5,461.5 395.5,462.5 395.5,463.5C 399.5,463.5 403.5,463.5 407.5,463.5C 407.333,474.172 407.5,484.839 408,495.5C 408.273,497.329 409.107,498.829 410.5,500C 423.018,501.764 435.518,501.931 448,500.5C 450.454,501.198 452.787,502.198 455,503.5C 458.544,500.932 462.211,500.932 466,503.5C 467.4,501.604 469.233,500.271 471.5,499.5C 472.246,498.264 472.579,496.93 472.5,495.5C 474.833,495.5 477.167,495.5 479.5,495.5C 479.5,484.833 479.5,474.167 479.5,463.5C 482.167,463.5 484.833,463.5 487.5,463.5C 487.199,452.294 487.532,441.128 488.5,430C 487.013,425.846 484.18,423.013 480,421.5C 479.5,403.503 479.333,385.503 479.5,367.5C 478.167,367.5 476.833,367.5 475.5,367.5C 475.5,356.833 475.5,346.167 475.5,335.5C 474.167,335.5 472.833,335.5 471.5,335.5C 471.5,324.833 471.5,314.167 471.5,303.5C 470.167,303.5 468.833,303.5 467.5,303.5C 467.5,298.167 467.5,292.833 467.5,287.5C 466.167,287.5 464.833,287.5 463.5,287.5C 463.5,282.167 463.5,276.833 463.5,271.5C 460.833,271.5 458.167,271.5 455.5,271.5C 455.199,260.294 455.532,249.128 456.5,238C 455.013,233.846 452.18,231.013 448,229.5C 447.667,225.5 447.333,221.5 447,217.5C 442.136,215.809 439.303,212.476 438.5,207.5C 436.167,207.5 433.833,207.5 431.5,207.5C 431.662,205.473 431.495,203.473 431,201.5C 426.136,199.809 423.303,196.476 422.5,191.5C 414.833,191.5 407.167,191.5 399.5,191.5C 399.662,189.473 399.495,187.473 399,185.5C 394.136,183.809 391.303,180.476 390.5,175.5C 387.5,175.5 384.5,175.5 381.5,175.5C 381.5,177.167 381.5,178.833 381.5,180.5C 379.641,180.461 378.308,181.294 377.5,183C 380.578,189.586 382.578,196.42 383.5,203.5C 381.158,195.155 377.825,187.155 373.5,179.5C 373.273,174.981 371.773,170.981 369,167.5C 368.147,169.125 367.147,169.458 366,168.5C 366.051,165.059 364.885,162.226 362.5,160C 363.964,155.017 362.964,150.517 359.5,146.5C 359.833,145.833 360.167,145.167 360.5,144.5C 358.955,143.548 357.288,143.215 355.5,143.5C 355.5,140.833 355.5,138.167 355.5,135.5C 353.5,135.5 351.5,135.5 349.5,135.5C 349.312,133.897 349.812,132.563 351,131.5C 351.669,134.028 352.502,134.028 353.5,131.5C 352.129,128.195 349.963,125.529 347,123.5C 346.51,122.207 346.343,120.873 346.5,119.5C 342.407,118.059 341.407,119.559 343.5,124C 342.863,125.713 341.863,125.879 340.5,124.5C 339.77,122.659 339.103,120.825 338.5,119C 341.922,117.594 342.255,115.761 339.5,113.5C 338.108,114.605 336.941,115.939 336,117.5C 335.586,117.043 335.086,116.709 334.5,116.5C 333.608,111.045 330.941,106.711 326.5,103.5C 325.702,101.922 325.202,100.256 325,98.5C 322.593,98.3267 320.26,98.3267 318,98.5C 317.774,95.905 317.274,93.405 316.5,91C 314.001,89.6889 311.501,89.1889 309,89.5C 307.265,90.6819 306.265,92.3485 306,94.5C 305.553,91.0248 304.72,87.6915 303.5,84.5C 300.833,83.8333 298.167,83.1667 295.5,82.5C 295.66,80.8008 295.494,79.1341 295,77.5C 293.716,78.5719 293.383,79.9052 294,81.5C 293.311,82.3567 292.478,83.0233 291.5,83.5C 290.243,81.0301 288.743,78.6967 287,76.5C 286.167,77.5 285.333,78.5 284.5,79.5C 282.932,75.768 280.766,72.4347 278,69.5C 274.61,70.7324 274.777,71.5658 278.5,72C 277.953,72.9246 277.287,73.7579 276.5,74.5C 274.598,72.5617 272.431,70.895 270,69.5C 268.941,69.6301 268.108,70.1301 267.5,71C 268.833,72 270.167,73 271.5,74C 268.775,75.1074 265.941,75.9408 263,76.5C 261.943,74.7806 261.11,72.9472 260.5,71C 262.904,70.4921 263.571,69.3255 262.5,67.5C 260.615,68.6094 258.615,69.4427 256.5,70C 255.663,71.0113 255.33,72.1779 255.5,73.5C 252.833,74.1667 250.167,74.8333 247.5,75.5C 247.649,74.448 247.483,73.448 247,72.5C 246.196,73.8045 245.029,74.4712 243.5,74.5C 241.208,72.5513 238.541,71.5513 235.5,71.5C 235.853,69.3652 235.02,68.0319 233,67.5C 229.914,70.2635 226.581,72.5969 223,74.5C 221.585,72.0392 220.085,69.7059 218.5,67.5C 214.674,68.5883 211.007,69.9217 207.5,71.5C 207.5,70.5 207.5,69.5 207.5,68.5C 205.213,68.2761 203.047,67.6094 201,66.5C 198.108,68.008 197.275,70.1747 198.5,73C 198.138,74.2247 197.638,75.3914 197,76.5C 196.156,73.322 194.489,70.6554 192,68.5C 191.517,69.448 191.351,70.448 191.5,71.5C 188.833,71.5 186.167,71.5 183.5,71.5C 184.264,77.2203 182.93,77.887 179.5,73.5C 178.481,74.6872 177.314,75.6872 176,76.5C 175.667,75.8333 175.333,75.1667 175,74.5C 171.655,76.1803 169.488,78.847 168.5,82.5C 167.833,80.5 167.167,78.5 166.5,76.5C 163.464,78.036 161.297,80.3693 160,83.5C 156.158,82.2052 152.325,82.3718 148.5,84C 147.075,85.7141 147.408,87.0475 149.5,88C 148.859,90.1303 147.526,91.6303 145.5,92.5C 141.016,89.097 138.683,90.097 138.5,95.5C 136.473,95.3379 134.473,95.5045 132.5,96C 134.607,97.2635 135.607,99.0968 135.5,101.5C 136.675,101.281 137.675,101.614 138.5,102.5C 137.976,104.453 136.976,106.12 135.5,107.5C 136.246,108.736 136.579,110.07 136.5,111.5C 132.403,111.386 128.736,112.386 125.5,114.5C 123.488,114.16 121.488,113.827 119.5,113.5C 119.343,114.873 119.51,116.207 120,117.5C 122.542,114.614 124.375,114.947 125.5,118.5C 122.86,119.977 120.36,121.644 118,123.5C 115.98,122.968 115.147,121.635 115.5,119.5C 114.167,119.5 112.833,119.5 111.5,119.5C 111.5,120.833 111.5,122.167 111.5,123.5C 108.873,122.908 106.206,122.575 103.5,122.5C 103.238,123.978 103.571,125.311 104.5,126.5C 106.747,127.374 109.08,127.708 111.5,127.5C 111.5,132.833 111.5,138.167 111.5,143.5C 109.167,143.5 106.833,143.5 104.5,143.5C 104.358,146.617 103.024,149.117 100.5,151C 97.5639,152.949 94.5639,154.116 91.5,154.5C 93.9803,155.415 94.6469,156.915 93.5,159C 95.4202,164.197 96.0868,169.697 95.5,175.5C 92.2893,175.988 89.456,175.321 87,173.5C 85.8118,174.563 85.3118,175.897 85.5,177.5C 88.1662,177.066 89.3329,178.066 89,180.5C 87.6667,181.833 86.3333,181.833 85,180.5C 81.7085,182.024 81.8752,183.357 85.5,184.5C 83.604,185.466 81.604,185.799 79.5,185.5C 79.703,187.638 80.703,189.305 82.5,190.5C 80.5255,191.788 80.5255,193.455 82.5,195.5C 80.5065,197.816 79.5065,200.482 79.5,203.5C 78.1779,203.33 77.0113,203.663 76,204.5C 75.3348,209.599 75.8348,214.599 77.5,219.5C 77.3196,222.073 76.3196,224.24 74.5,226C 76.0589,226.98 77.7256,227.813 79.5,228.5C 78.6195,229.971 77.2861,230.804 75.5,231C 79.9126,234.5 80.5792,238.667 77.5,243.5C 78.6277,248.139 79.6277,252.805 80.5,257.5C 85.5508,261.928 90.3841,266.595 95,271.5C 95.1858,269.1 95.6858,266.766 96.5,264.5C 97.3857,265.325 97.719,266.325 97.5,267.5C 98.5,267.5 99.5,267.5 100.5,267.5C 100.351,266.448 100.517,265.448 101,264.5C 101.808,266.423 102.308,268.423 102.5,270.5C 101.811,276.147 101.311,281.814 101,287.5C 100.86,290.281 99.6937,292.447 97.5,294C 97.8333,294.333 98.1667,294.667 98.5,295C 97.5616,300.285 96.5616,305.785 95.5,311.5C 91.7346,322.896 89.068,334.563 87.5,346.5C 85.8864,353.948 84.8864,361.615 84.5,369.5C 86.9415,384.574 88.9415,399.741 90.5,415C 90.3333,417.5 90.1667,420 90,422.5C 88.0345,425.346 86.5345,428.846 85.5,433C 87.1775,435.547 87.8441,438.38 87.5,441.5C 88.8221,441.33 89.9887,441.663 91,442.5C 92.1356,445.096 92.969,447.763 93.5,450.5C 94.8333,450.5 96.1667,450.5 97.5,450.5C 96.9866,448.71 96.4866,447.044 96,445.5C 96.3333,445.167 96.6667,444.833 97,444.5C 97.4652,445.931 98.2986,447.097 99.5,448C 98.9491,449.398 98.6158,450.732 98.5,452C 99.5505,453.385 100.884,454.385 102.5,455C 102.065,457.398 102.731,459.731 104.5,462C 104.167,462.333 103.833,462.667 103.5,463C 106.432,463.295 108.432,464.795 109.5,467.5C 115.276,469.027 121.109,472.027 127,476.5C 127.494,474.866 127.66,473.199 127.5,471.5C 137.616,473.292 147.449,472.292 157,468.5C 159.248,469.229 161.415,470.229 163.5,471.5C 164.77,475.516 164.77,479.516 163.5,483.5C 165.62,484.957 166.953,486.957 167.5,489.5C 167.012,492.851 165.845,493.184 164,490.5C 162.83,493.505 161.664,496.505 160.5,499.5C 160.833,500.167 161.167,500.833 161.5,501.5C 164.337,500.491 165.67,498.491 165.5,495.5C 166.833,495.5 168.167,495.5 169.5,495.5C 169.414,497.677 168.747,499.677 167.5,501.5C 170.25,502.006 170.084,503.34 167,505.5C 166.505,507.473 166.338,509.473 166.5,511.5C 110.833,511.5 55.1667,511.5 -0.5,511.5C -0.5,340.833 -0.5,170.167 -0.5,-0.5 Z"/></g>
<g><path style="opacity:1" fill="#618293" d="M 373.5,179.5 C 372.318,176.991 370.318,175.657 367.5,175.5C 367.5,176.833 367.5,178.167 367.5,179.5C 366.448,179.649 365.448,179.483 364.5,179C 359.329,172.997 353.996,167.163 348.5,161.5C 348.297,159.956 347.63,158.622 346.5,157.5C 343.316,155.116 340.483,152.449 338,149.5C 294.717,148.186 251.217,148.186 207.5,149.5C 196.81,148.141 186.143,147.474 175.5,147.5C 174.106,147.621 172.772,147.954 171.5,148.5C 169.031,152.609 165.364,154.776 160.5,155C 158.513,156.319 157.346,158.152 157,160.5C 154.861,159.231 152.695,159.231 150.5,160.5C 151.5,161.333 152.5,162.167 153.5,163C 152.663,164.011 152.33,165.178 152.5,166.5C 150.692,166.491 149.025,166.991 147.5,168C 146.362,172.806 143.362,175.473 138.5,176C 134.771,178.8 133.438,182.3 134.5,186.5C 126.104,197.758 119.604,210.091 115,223.5C 108.599,247.475 104.099,271.809 101.5,296.5C 99.7768,301.613 97.7768,306.613 95.5,311.5C 96.5616,305.785 97.5616,300.285 98.5,295C 98.1667,294.667 97.8333,294.333 97.5,294C 99.6937,292.447 100.86,290.281 101,287.5C 101.311,281.814 101.811,276.147 102.5,270.5C 102.308,268.423 101.808,266.423 101,264.5C 100.517,265.448 100.351,266.448 100.5,267.5C 99.5,267.5 98.5,267.5 97.5,267.5C 97.719,266.325 97.3857,265.325 96.5,264.5C 95.6858,266.766 95.1858,269.1 95,271.5C 90.3841,266.595 85.5508,261.928 80.5,257.5C 79.6277,252.805 78.6277,248.139 77.5,243.5C 80.5792,238.667 79.9126,234.5 75.5,231C 77.2861,230.804 78.6195,229.971 79.5,228.5C 77.7256,227.813 76.0589,226.98 74.5,226C 76.3196,224.24 77.3196,222.073 77.5,219.5C 75.8348,214.599 75.3348,209.599 76,204.5C 77.0113,203.663 78.1779,203.33 79.5,203.5C 79.5065,200.482 80.5065,197.816 82.5,195.5C 80.5255,193.455 80.5255,191.788 82.5,190.5C 80.703,189.305 79.703,187.638 79.5,185.5C 81.604,185.799 83.604,185.466 85.5,184.5C 81.8752,183.357 81.7085,182.024 85,180.5C 86.3333,181.833 87.6667,181.833 89,180.5C 89.3329,178.066 88.1662,177.066 85.5,177.5C 85.3118,175.897 85.8118,174.563 87,173.5C 89.456,175.321 92.2893,175.988 95.5,175.5C 96.0868,169.697 95.4202,164.197 93.5,159C 94.6469,156.915 93.9803,155.415 91.5,154.5C 94.5639,154.116 97.5639,152.949 100.5,151C 103.024,149.117 104.358,146.617 104.5,143.5C 106.833,143.5 109.167,143.5 111.5,143.5C 111.5,138.167 111.5,132.833 111.5,127.5C 109.08,127.708 106.747,127.374 104.5,126.5C 103.571,125.311 103.238,123.978 103.5,122.5C 106.206,122.575 108.873,122.908 111.5,123.5C 111.5,122.167 111.5,120.833 111.5,119.5C 112.833,119.5 114.167,119.5 115.5,119.5C 115.147,121.635 115.98,122.968 118,123.5C 120.36,121.644 122.86,119.977 125.5,118.5C 124.375,114.947 122.542,114.614 120,117.5C 119.51,116.207 119.343,114.873 119.5,113.5C 121.488,113.827 123.488,114.16 125.5,114.5C 128.736,112.386 132.403,111.386 136.5,111.5C 136.579,110.07 136.246,108.736 135.5,107.5C 136.976,106.12 137.976,104.453 138.5,102.5C 137.675,101.614 136.675,101.281 135.5,101.5C 135.607,99.0968 134.607,97.2635 132.5,96C 134.473,95.5045 136.473,95.3379 138.5,95.5C 138.683,90.097 141.016,89.097 145.5,92.5C 147.526,91.6303 148.859,90.1303 149.5,88C 147.408,87.0475 147.075,85.7141 148.5,84C 152.325,82.3718 156.158,82.2052 160,83.5C 161.297,80.3693 163.464,78.036 166.5,76.5C 167.167,78.5 167.833,80.5 168.5,82.5C 169.488,78.847 171.655,76.1803 175,74.5C 175.333,75.1667 175.667,75.8333 176,76.5C 177.314,75.6872 178.481,74.6872 179.5,73.5C 182.93,77.887 184.264,77.2203 183.5,71.5C 186.167,71.5 188.833,71.5 191.5,71.5C 191.351,70.448 191.517,69.448 192,68.5C 194.489,70.6554 196.156,73.322 197,76.5C 197.638,75.3914 198.138,74.2247 198.5,73C 197.275,70.1747 198.108,68.008 201,66.5C 203.047,67.6094 205.213,68.2761 207.5,68.5C 207.5,69.5 207.5,70.5 207.5,71.5C 211.007,69.9217 214.674,68.5883 218.5,67.5C 220.085,69.7059 221.585,72.0392 223,74.5C 226.581,72.5969 229.914,70.2635 233,67.5C 235.02,68.0319 235.853,69.3652 235.5,71.5C 238.541,71.5513 241.208,72.5513 243.5,74.5C 245.029,74.4712 246.196,73.8045 247,72.5C 247.483,73.448 247.649,74.448 247.5,75.5C 250.167,74.8333 252.833,74.1667 255.5,73.5C 255.33,72.1779 255.663,71.0113 256.5,70C 258.615,69.4427 260.615,68.6094 262.5,67.5C 263.571,69.3255 262.904,70.4921 260.5,71C 261.11,72.9472 261.943,74.7806 263,76.5C 265.941,75.9408 268.775,75.1074 271.5,74C 270.167,73 268.833,72 267.5,71C 268.108,70.1301 268.941,69.6301 270,69.5C 272.431,70.895 274.598,72.5617 276.5,74.5C 277.287,73.7579 277.953,72.9246 278.5,72C 274.777,71.5658 274.61,70.7324 278,69.5C 280.766,72.4347 282.932,75.768 284.5,79.5C 285.333,78.5 286.167,77.5 287,76.5C 288.743,78.6967 290.243,81.0301 291.5,83.5C 292.478,83.0233 293.311,82.3567 294,81.5C 293.383,79.9052 293.716,78.5719 295,77.5C 295.494,79.1341 295.66,80.8008 295.5,82.5C 298.167,83.1667 300.833,83.8333 303.5,84.5C 304.72,87.6915 305.553,91.0248 306,94.5C 306.265,92.3485 307.265,90.6819 309,89.5C 311.501,89.1889 314.001,89.6889 316.5,91C 317.274,93.405 317.774,95.905 318,98.5C 320.26,98.3267 322.593,98.3267 325,98.5C 325.202,100.256 325.702,101.922 326.5,103.5C 330.941,106.711 333.608,111.045 334.5,116.5C 335.086,116.709 335.586,117.043 336,117.5C 336.941,115.939 338.108,114.605 339.5,113.5C 342.255,115.761 341.922,117.594 338.5,119C 339.103,120.825 339.77,122.659 340.5,124.5C 341.863,125.879 342.863,125.713 343.5,124C 341.407,119.559 342.407,118.059 346.5,119.5C 346.343,120.873 346.51,122.207 347,123.5C 349.963,125.529 352.129,128.195 353.5,131.5C 352.502,134.028 351.669,134.028 351,131.5C 349.812,132.563 349.312,133.897 349.5,135.5C 351.5,135.5 353.5,135.5 355.5,135.5C 355.5,138.167 355.5,140.833 355.5,143.5C 357.288,143.215 358.955,143.548 360.5,144.5C 360.167,145.167 359.833,145.833 359.5,146.5C 362.964,150.517 363.964,155.017 362.5,160C 364.885,162.226 366.051,165.059 366,168.5C 367.147,169.458 368.147,169.125 369,167.5C 371.773,170.981 373.273,174.981 373.5,179.5 Z"/></g>
<g><path style="opacity:1" fill="#5d7782" d="M 348.5,161.5 C 345.044,159.217 341.71,156.717 338.5,154C 334.389,152.109 330.056,151.109 325.5,151C 295.494,151.138 265.494,150.971 235.5,150.5C 224.486,150.93 213.486,151.596 202.5,152.5C 193.843,151.579 185.177,151.413 176.5,152C 169.708,154.895 163.375,158.562 157.5,163C 149.604,170.728 141.937,178.562 134.5,186.5C 133.438,182.3 134.771,178.8 138.5,176C 143.362,175.473 146.362,172.806 147.5,168C 149.025,166.991 150.692,166.491 152.5,166.5C 152.33,165.178 152.663,164.011 153.5,163C 152.5,162.167 151.5,161.333 150.5,160.5C 152.695,159.231 154.861,159.231 157,160.5C 157.346,158.152 158.513,156.319 160.5,155C 165.364,154.776 169.031,152.609 171.5,148.5C 172.772,147.954 174.106,147.621 175.5,147.5C 186.143,147.474 196.81,148.141 207.5,149.5C 251.217,148.186 294.717,148.186 338,149.5C 340.483,152.449 343.316,155.116 346.5,157.5C 347.63,158.622 348.297,159.956 348.5,161.5 Z"/></g>
<g><path style="opacity:1" fill="#010202" d="M 348.5,161.5 C 353.996,167.163 359.329,172.997 364.5,179C 365.448,179.483 366.448,179.649 367.5,179.5C 367.5,178.167 367.5,176.833 367.5,175.5C 370.318,175.657 372.318,176.991 373.5,179.5C 377.825,187.155 381.158,195.155 383.5,203.5C 391.191,229.918 399.358,256.251 408,282.5C 414.201,306.933 420.701,331.266 427.5,355.5C 426.481,370.759 422.981,385.426 417,399.5C 412.745,409.008 408.245,418.341 403.5,427.5C 399.941,433.605 396.107,439.605 392,445.5C 383.384,453.11 375.884,461.61 369.5,471C 368.167,471.667 366.833,471.667 365.5,471C 364.743,469.488 363.743,468.154 362.5,467C 346.873,465.399 331.54,466.732 316.5,471C 304.384,471.102 292.384,472.269 280.5,474.5C 277.909,475.254 276.076,476.921 275,479.5C 274.188,483.689 274.355,487.689 275.5,491.5C 278.657,498.483 282.324,505.15 286.5,511.5C 276.167,511.5 265.833,511.5 255.5,511.5C 255.667,496.163 255.5,480.83 255,465.5C 254.392,463.934 253.558,462.6 252.5,461.5C 247.356,459.228 244.69,455.228 244.5,449.5C 249.695,449.821 254.695,449.487 259.5,448.5C 268.173,448.666 276.84,448.5 285.5,448C 287.5,447.333 289.5,446.667 291.5,446C 300.226,439.974 308.559,433.474 316.5,426.5C 319.974,424.682 323.307,422.682 326.5,420.5C 330.918,418.417 333.918,415.084 335.5,410.5C 336.569,408.031 337.902,405.698 339.5,403.5C 341.115,391.874 342.115,380.04 342.5,368C 341.591,349.846 341.257,331.68 341.5,313.5C 341.5,309.5 341.5,305.5 341.5,301.5C 341.5,298.167 341.5,294.833 341.5,291.5C 341.5,288.833 341.5,286.167 341.5,283.5C 341.667,277.497 340.667,271.83 338.5,266.5C 338.5,266.167 338.5,265.833 338.5,265.5C 338.108,262.052 338.775,258.886 340.5,256C 340.167,255.5 339.833,255 339.5,254.5C 335.036,253.201 330.702,253.201 326.5,254.5C 310.685,254.85 295.018,255.183 279.5,255.5C 278.508,255.328 277.842,255.662 277.5,256.5C 276.076,258.515 275.41,260.848 275.5,263.5C 274.85,265.435 274.517,267.435 274.5,269.5C 273.539,271.265 273.205,273.265 273.5,275.5C 271.194,275.993 268.861,276.326 266.5,276.5C 264.606,269.401 260.272,266.734 253.5,268.5C 248.795,270.042 245.628,273.042 244,277.5C 243.292,278.381 242.458,279.047 241.5,279.5C 240.178,279.67 239.011,279.337 238,278.5C 238.359,273.193 238.359,267.859 238,262.5C 237.284,260.121 236.117,258.121 234.5,256.5C 224.224,255.785 213.891,255.118 203.5,254.5C 200.29,255.354 197.124,256.354 194,257.5C 191.577,256.374 189.077,255.374 186.5,254.5C 180.681,253.347 174.681,253.181 168.5,254C 165.959,255.848 164.959,258.348 165.5,261.5C 159.693,266.973 157.693,273.64 159.5,281.5C 159.611,282.117 159.944,282.617 160.5,283C 163.696,283.805 166.696,283.638 169.5,282.5C 177.111,280.524 184.778,278.858 192.5,277.5C 198.332,277 203.332,278.666 207.5,282.5C 208.262,287.393 207.262,291.726 204.5,295.5C 200.447,297.582 196.114,298.915 191.5,299.5C 186.156,299.334 180.823,299.501 175.5,300C 174.584,300.278 173.918,300.778 173.5,301.5C 171.629,301.859 170.129,302.859 169,304.5C 168.18,311.014 168.347,317.347 169.5,323.5C 170.065,343.659 170.732,363.659 171.5,383.5C 171.408,391.688 172.574,399.688 175,407.5C 175.708,408.381 176.542,409.047 177.5,409.5C 177.414,410.496 177.748,411.329 178.5,412C 183.595,414.606 188.262,417.772 192.5,421.5C 191.725,426.797 191.392,432.13 191.5,437.5C 190.861,462.162 190.528,486.828 190.5,511.5C 182.833,511.5 175.167,511.5 167.5,511.5C 172.105,503.785 173.605,495.451 172,486.5C 169.39,481.394 167.39,476.06 166,470.5C 164.212,467.372 161.545,466.039 158,466.5C 152.713,467.113 147.546,468.28 142.5,470C 133.391,471.846 125.058,470.179 117.5,465C 114.463,460.086 110.63,455.919 106,452.5C 104.606,450.612 103.44,448.612 102.5,446.5C 100.687,432.264 98.0206,418.098 94.5,404C 94.6448,403.228 94.9781,402.561 95.5,402C 94.0434,398.806 93.0434,395.473 92.5,392C 92.8333,391.667 93.1667,391.333 93.5,391C 91.6499,389.155 91.3166,387.155 92.5,385C 90.6992,384.683 90.3659,384.016 91.5,383C 90.7599,381.215 90.0933,379.382 89.5,377.5C 89.6033,367.276 90.1033,356.942 91,346.5C 92.6169,345.464 92.7836,344.297 91.5,343C 92.627,341.247 93.627,339.413 94.5,337.5C 93.3306,333.336 93.3306,329.169 94.5,325C 99.0418,316.447 101.375,306.947 101.5,296.5C 104.099,271.809 108.599,247.475 115,223.5C 119.604,210.091 126.104,197.758 134.5,186.5C 141.937,178.562 149.604,170.728 157.5,163C 163.375,158.562 169.708,154.895 176.5,152C 185.177,151.413 193.843,151.579 202.5,152.5C 213.486,151.596 224.486,150.93 235.5,150.5C 265.494,150.971 295.494,151.138 325.5,151C 330.056,151.109 334.389,152.109 338.5,154C 341.71,156.717 345.044,159.217 348.5,161.5 Z"/></g>
<g><path style="opacity:1" fill="#628698" d="M 403.5,427.5 C 408.245,418.341 412.745,409.008 417,399.5C 422.981,385.426 426.481,370.759 427.5,355.5C 420.701,331.266 414.201,306.933 408,282.5C 399.358,256.251 391.191,229.918 383.5,203.5C 382.578,196.42 380.578,189.586 377.5,183C 378.308,181.294 379.641,180.461 381.5,180.5C 381.5,178.833 381.5,177.167 381.5,175.5C 384.5,175.5 387.5,175.5 390.5,175.5C 391.303,180.476 394.136,183.809 399,185.5C 399.495,187.473 399.662,189.473 399.5,191.5C 407.167,191.5 414.833,191.5 422.5,191.5C 423.303,196.476 426.136,199.809 431,201.5C 431.495,203.473 431.662,205.473 431.5,207.5C 433.833,207.5 436.167,207.5 438.5,207.5C 439.303,212.476 442.136,215.809 447,217.5C 447.333,221.5 447.667,225.5 448,229.5C 452.18,231.013 455.013,233.846 456.5,238C 455.532,249.128 455.199,260.294 455.5,271.5C 458.167,271.5 460.833,271.5 463.5,271.5C 463.5,276.833 463.5,282.167 463.5,287.5C 464.833,287.5 466.167,287.5 467.5,287.5C 467.5,292.833 467.5,298.167 467.5,303.5C 468.833,303.5 470.167,303.5 471.5,303.5C 471.5,314.167 471.5,324.833 471.5,335.5C 472.833,335.5 474.167,335.5 475.5,335.5C 475.5,346.167 475.5,356.833 475.5,367.5C 476.833,367.5 478.167,367.5 479.5,367.5C 479.333,385.503 479.5,403.503 480,421.5C 484.18,423.013 487.013,425.846 488.5,430C 487.532,441.128 487.199,452.294 487.5,463.5C 484.833,463.5 482.167,463.5 479.5,463.5C 479.5,474.167 479.5,484.833 479.5,495.5C 477.167,495.5 474.833,495.5 472.5,495.5C 472.579,496.93 472.246,498.264 471.5,499.5C 469.233,500.271 467.4,501.604 466,503.5C 462.211,500.932 458.544,500.932 455,503.5C 452.787,502.198 450.454,501.198 448,500.5C 435.518,501.931 423.018,501.764 410.5,500C 409.107,498.829 408.273,497.329 408,495.5C 407.5,484.839 407.333,474.172 407.5,463.5C 403.5,463.5 399.5,463.5 395.5,463.5C 395.5,462.5 395.5,461.5 395.5,460.5C 393.007,461.229 390.674,462.063 388.5,463C 387.833,462 387.167,461 386.5,460C 387.952,458.042 388.285,456.042 387.5,454C 389.762,453.299 390.762,452.132 390.5,450.5C 391.251,451.376 391.751,452.376 392,453.5C 392.333,452.833 392.667,452.167 393,451.5C 394.423,453.345 395.59,455.345 396.5,457.5C 397.478,457.023 398.311,456.357 399,455.5C 399.666,451.175 399.166,447.342 397.5,444C 400.269,442.815 401.269,440.982 400.5,438.5C 402.74,437.078 404.74,436.078 406.5,435.5C 405.289,434.28 405.289,433.113 406.5,432C 405.552,431.517 404.552,431.351 403.5,431.5C 403.5,430.167 403.5,428.833 403.5,427.5 Z"/></g>
<g><path style="opacity:1" fill="#5a666f" d="M 193.5,211.5 C 188.589,212.798 183.589,214.131 178.5,215.5C 182.863,212.173 187.863,210.84 193.5,211.5 Z"/></g>
<g><path style="opacity:1" fill="#1f2934" d="M 269.5,215.5 C 282.85,215.167 296.183,215.501 309.5,216.5C 310.602,217.176 311.602,217.842 312.5,218.5C 312.167,218.5 311.833,218.5 311.5,218.5C 307.881,217.756 304.215,217.423 300.5,217.5C 290.167,216.833 279.833,216.167 269.5,215.5 Z"/></g>
<g><path style="opacity:1" fill="#414753" d="M 315.5,218.5 C 322.841,218.334 330.174,218.5 337.5,219C 338.823,219.816 339.489,220.983 339.5,222.5C 338.711,222.217 338.044,221.717 337.5,221C 329.923,220.965 322.59,220.131 315.5,218.5 Z"/></g>
<g><path style="opacity:1" fill="#8d9eac" d="M 212.5,210.5 C 208.353,211.325 204.019,211.825 199.5,212C 202.167,212.333 204.833,212.667 207.5,213C 205.956,213.29 204.623,213.956 203.5,215C 205.161,215.995 206.495,217.328 207.5,219C 206.201,220.326 204.868,221.66 203.5,223C 210.177,224.905 216.844,226.071 223.5,226.5C 222.167,227.167 220.833,227.833 219.5,228.5C 231.703,229.731 243.703,231.398 255.5,233.5C 256.681,234.636 260.014,234.969 265.5,234.5C 263.19,235.164 260.69,235.497 258,235.5C 228.181,233.75 198.348,232.25 168.5,231C 167.572,230.612 166.905,229.945 166.5,229C 168.331,222.461 172.331,217.961 178.5,215.5C 183.589,214.131 188.589,212.798 193.5,211.5C 199.744,210.542 206.077,210.209 212.5,210.5 Z"/></g>
<g><path style="opacity:1" fill="#89a4b5" d="M 212.5,210.5 C 231.629,210.966 250.629,212.632 269.5,215.5C 279.833,216.167 290.167,216.833 300.5,217.5C 294.5,217.5 288.5,217.5 282.5,217.5C 279.813,217.336 277.146,217.503 274.5,218C 278.808,219.487 282.808,221.487 286.5,224C 287.763,225.705 288.097,227.372 287.5,229C 280.46,230.014 273.46,231.347 266.5,233C 262.848,233.499 259.182,233.665 255.5,233.5C 243.703,231.398 231.703,229.731 219.5,228.5C 220.833,227.833 222.167,227.167 223.5,226.5C 216.844,226.071 210.177,224.905 203.5,223C 204.868,221.66 206.201,220.326 207.5,219C 206.495,217.328 205.161,215.995 203.5,215C 204.623,213.956 205.956,213.29 207.5,213C 204.833,212.667 202.167,212.333 199.5,212C 204.019,211.825 208.353,211.325 212.5,210.5 Z"/></g>
<g><path style="opacity:1" fill="#bfcdd0" d="M 282.5,217.5 C 288.5,217.5 294.5,217.5 300.5,217.5C 304.215,217.423 307.881,217.756 311.5,218.5C 311.5,218.833 311.5,219.167 311.5,219.5C 307.774,219.177 304.107,219.511 300.5,220.5C 305.022,223.258 309.355,226.258 313.5,229.5C 312.91,230.799 311.91,231.632 310.5,232C 312.927,232.902 315.26,233.736 317.5,234.5C 311.137,234.593 304.804,234.26 298.5,233.5C 297.294,232.12 297.627,230.953 299.5,230C 294.518,224.848 288.851,220.682 282.5,217.5 Z"/></g>
<g><path style="opacity:1" fill="#969fa7" d="M 311.5,219.5 C 311.5,219.167 311.5,218.833 311.5,218.5C 311.833,218.5 312.167,218.5 312.5,218.5C 313.5,218.5 314.5,218.5 315.5,218.5C 322.59,220.131 329.923,220.965 337.5,221C 338.044,221.717 338.711,222.217 339.5,222.5C 341.472,225.084 342.472,228.084 342.5,231.5C 341.338,229.014 340.004,226.514 338.5,224C 334.879,224.405 331.213,224.405 327.5,224C 322.428,221.588 317.095,220.088 311.5,219.5 Z"/></g>
<g><path style="opacity:1" fill="#d5dad9" d="M 311.5,219.5 C 317.095,220.088 322.428,221.588 327.5,224C 331.213,224.405 334.879,224.405 338.5,224C 340.004,226.514 341.338,229.014 342.5,231.5C 343.301,233.042 343.634,234.708 343.5,236.5C 334.791,236.081 326.124,235.414 317.5,234.5C 315.26,233.736 312.927,232.902 310.5,232C 311.91,231.632 312.91,230.799 313.5,229.5C 309.355,226.258 305.022,223.258 300.5,220.5C 304.107,219.511 307.774,219.177 311.5,219.5 Z"/></g>
<g><path style="opacity:1" fill="#a4b8c0" d="M 282.5,217.5 C 288.851,220.682 294.518,224.848 299.5,230C 297.627,230.953 297.294,232.12 298.5,233.5C 287.482,233.381 276.482,233.714 265.5,234.5C 260.014,234.969 256.681,234.636 255.5,233.5C 259.182,233.665 262.848,233.499 266.5,233C 273.46,231.347 280.46,230.014 287.5,229C 288.097,227.372 287.763,225.705 286.5,224C 282.808,221.487 278.808,219.487 274.5,218C 277.146,217.503 279.813,217.336 282.5,217.5 Z"/></g>
<g><path style="opacity:1" fill="#434b50" d="M 186.5,254.5 C 183.833,254.5 181.167,254.5 178.5,254.5C 173.289,253.823 169.789,255.823 168,260.5C 167.329,261.252 166.496,261.586 165.5,261.5C 164.959,258.348 165.959,255.848 168.5,254C 174.681,253.181 180.681,253.347 186.5,254.5 Z"/></g>
<g><path style="opacity:1" fill="#6c6d6f" d="M 326.5,254.5 C 330.702,253.201 335.036,253.201 339.5,254.5C 339.833,255 340.167,255.5 340.5,256C 338.775,258.886 338.108,262.052 338.5,265.5C 336.875,262.35 336.542,259.017 337.5,255.5C 336.311,254.571 334.978,254.238 333.5,254.5C 331.167,254.5 328.833,254.5 326.5,254.5 Z"/></g>
<g><path style="opacity:1" fill="#dbd4c8" d="M 326.5,254.5 C 328.833,254.5 331.167,254.5 333.5,254.5C 335.908,261.24 337.074,268.24 337,275.5C 339.043,277.088 338.876,278.421 336.5,279.5C 332.438,279.107 329.438,277.107 327.5,273.5C 327.709,272.914 328.043,272.414 328.5,272C 325.314,271.601 322.314,270.768 319.5,269.5C 318.228,269.57 317.062,269.903 316,270.5C 313.847,268.556 311.347,268.056 308.5,269C 309.167,269.667 309.833,270.333 310.5,271C 302.841,271.5 295.174,271.666 287.5,271.5C 286.753,267.807 285.42,267.807 283.5,271.5C 282.332,269.603 280.665,269.436 278.5,271C 279.276,272.77 279.11,274.603 278,276.5C 277.667,275.833 277.333,275.167 277,274.5C 276.768,275.737 276.268,276.737 275.5,277.5C 275.335,274.15 275.502,270.817 276,267.5C 277.852,263.712 279.019,259.712 279.5,255.5C 295.018,255.183 310.685,254.85 326.5,254.5 Z"/></g>
<g><path style="opacity:1" fill="#535655" d="M 277.5,256.5 C 277.59,259.152 276.924,261.485 275.5,263.5C 275.41,260.848 276.076,258.515 277.5,256.5 Z"/></g>
<g><path style="opacity:1" fill="#d6cfc0" d="M 178.5,254.5 C 181.167,254.5 183.833,254.5 186.5,254.5C 189.077,255.374 191.577,256.374 194,257.5C 197.124,256.354 200.29,255.354 203.5,254.5C 213.891,255.118 224.224,255.785 234.5,256.5C 235.15,258.435 235.483,260.435 235.5,262.5C 234.883,262.389 234.383,262.056 234,261.5C 233.899,264.435 232.399,265.769 229.5,265.5C 226.964,265.131 225.131,263.797 224,261.5C 223.751,262.624 223.251,263.624 222.5,264.5C 218.5,263.833 214.5,263.167 210.5,262.5C 208.884,263.115 207.551,264.115 206.5,265.5C 204.851,264.294 203.351,262.961 202,261.5C 199.023,264.542 196.857,268.042 195.5,272C 196.313,273.314 197.313,274.481 198.5,275.5C 196.369,276.169 194.369,276.835 192.5,277.5C 184.778,278.858 177.111,280.524 169.5,282.5C 166.813,282.664 164.146,282.497 161.5,282C 163.667,281.167 165.167,279.667 166,277.5C 169.204,271.166 171.537,264.499 173,257.5C 174.719,256.131 176.552,255.131 178.5,254.5 Z"/></g>
<g><path style="opacity:1" fill="#a1998e" d="M 234.5,256.5 C 236.117,258.121 237.284,260.121 238,262.5C 238.359,267.859 238.359,273.193 238,278.5C 239.011,279.337 240.178,279.67 241.5,279.5C 240.267,282.573 238.767,282.906 237,280.5C 236.791,274.419 236.291,268.419 235.5,262.5C 235.483,260.435 235.15,258.435 234.5,256.5 Z"/></g>
<g><path style="opacity:1" fill="#acb8ba" d="M 178.5,254.5 C 176.552,255.131 174.719,256.131 173,257.5C 171.537,264.499 169.204,271.166 166,277.5C 165.167,279.667 163.667,281.167 161.5,282C 164.146,282.497 166.813,282.664 169.5,282.5C 166.696,283.638 163.696,283.805 160.5,283C 159.944,282.617 159.611,282.117 159.5,281.5C 161.34,274.794 163.34,268.127 165.5,261.5C 166.496,261.586 167.329,261.252 168,260.5C 169.789,255.823 173.289,253.823 178.5,254.5 Z"/></g>
<g><path style="opacity:1" fill="#dacdbf" d="M 333.5,254.5 C 334.978,254.238 336.311,254.571 337.5,255.5C 336.542,259.017 336.875,262.35 338.5,265.5C 338.5,265.833 338.5,266.167 338.5,266.5C 338.127,272.556 339.127,278.223 341.5,283.5C 341.5,286.167 341.5,288.833 341.5,291.5C 340.5,291.5 339.5,291.5 338.5,291.5C 337.833,291.5 337.167,291.5 336.5,291.5C 324.033,281.441 310.366,279.774 295.5,286.5C 294.246,288.259 294.579,289.759 296.5,291C 304.493,294.222 312.827,295.722 321.5,295.5C 327.645,296.49 333.978,296.823 340.5,296.5C 340.216,298.415 340.549,300.081 341.5,301.5C 341.5,305.5 341.5,309.5 341.5,313.5C 340.539,315.265 340.205,317.265 340.5,319.5C 339.167,319.5 337.833,319.5 336.5,319.5C 336.739,317.533 336.406,315.699 335.5,314C 332.581,312.86 329.581,312.027 326.5,311.5C 314.043,311.701 301.543,312.368 289,313.5C 283.748,313.866 280.414,311.532 279,306.5C 278.105,302.79 277.105,299.123 276,295.5C 272.824,294.331 270.324,292.331 268.5,289.5C 269.246,288.264 269.579,286.93 269.5,285.5C 270.812,283.521 272.479,281.855 274.5,280.5C 275.386,279.675 275.719,278.675 275.5,277.5C 276.268,276.737 276.768,275.737 277,274.5C 277.333,275.167 277.667,275.833 278,276.5C 279.11,274.603 279.276,272.77 278.5,271C 280.665,269.436 282.332,269.603 283.5,271.5C 285.42,267.807 286.753,267.807 287.5,271.5C 295.174,271.666 302.841,271.5 310.5,271C 309.833,270.333 309.167,269.667 308.5,269C 311.347,268.056 313.847,268.556 316,270.5C 317.062,269.903 318.228,269.57 319.5,269.5C 322.314,270.768 325.314,271.601 328.5,272C 328.043,272.414 327.709,272.914 327.5,273.5C 329.438,277.107 332.438,279.107 336.5,279.5C 338.876,278.421 339.043,277.088 337,275.5C 337.074,268.24 335.908,261.24 333.5,254.5 Z"/></g>
<g><path style="opacity:1" fill="#697984" d="M 165.5,261.5 C 163.34,268.127 161.34,274.794 159.5,281.5C 157.693,273.64 159.693,266.973 165.5,261.5 Z"/></g>
<g><path style="opacity:1" fill="#4f4a4d" d="M 253.5,268.5 C 260.272,266.734 264.606,269.401 266.5,276.5C 268.861,276.326 271.194,275.993 273.5,275.5C 273.205,273.265 273.539,271.265 274.5,269.5C 274.816,272.978 274.316,276.312 273,279.5C 270.758,281.715 268.258,282.048 265.5,280.5C 264.171,276.371 262.171,272.538 259.5,269C 257.527,268.505 255.527,268.338 253.5,268.5 Z"/></g>
<g><path style="opacity:1" fill="#706a6a" d="M 338.5,266.5 C 340.667,271.83 341.667,277.497 341.5,283.5C 339.127,278.223 338.127,272.556 338.5,266.5 Z"/></g>
<g><path style="opacity:1" fill="#a19891" d="M 279.5,255.5 C 279.019,259.712 277.852,263.712 276,267.5C 275.502,270.817 275.335,274.15 275.5,277.5C 275.719,278.675 275.386,279.675 274.5,280.5C 272.479,281.855 270.812,283.521 269.5,285.5C 267.003,284.871 265.67,283.204 265.5,280.5C 268.258,282.048 270.758,281.715 273,279.5C 274.316,276.312 274.816,272.978 274.5,269.5C 274.517,267.435 274.85,265.435 275.5,263.5C 276.924,261.485 277.59,259.152 277.5,256.5C 277.842,255.662 278.508,255.328 279.5,255.5 Z"/></g>
<g><path style="opacity:1" fill="#0c0a09" d="M 336.5,291.5 C 336.567,292.959 336.234,294.292 335.5,295.5C 330.833,295.5 326.167,295.5 321.5,295.5C 312.827,295.722 304.493,294.222 296.5,291C 294.579,289.759 294.246,288.259 295.5,286.5C 310.366,279.774 324.033,281.441 336.5,291.5 Z"/></g>
<g><path style="opacity:1" fill="#d7c4ae" d="M 235.5,262.5 C 236.291,268.419 236.791,274.419 237,280.5C 238.767,282.906 240.267,282.573 241.5,279.5C 242.458,279.047 243.292,278.381 244,277.5C 245.628,273.042 248.795,270.042 253.5,268.5C 255.527,268.338 257.527,268.505 259.5,269C 262.171,272.538 264.171,276.371 265.5,280.5C 265.67,283.204 267.003,284.871 269.5,285.5C 269.579,286.93 269.246,288.264 268.5,289.5C 270.324,292.331 272.824,294.331 276,295.5C 277.105,299.123 278.105,302.79 279,306.5C 280.414,311.532 283.748,313.866 289,313.5C 301.543,312.368 314.043,311.701 326.5,311.5C 329.581,312.027 332.581,312.86 335.5,314C 336.406,315.699 336.739,317.533 336.5,319.5C 337.833,319.5 339.167,319.5 340.5,319.5C 340.5,330.167 340.5,340.833 340.5,351.5C 340.167,351.5 339.833,351.5 339.5,351.5C 339.666,342.827 339.5,334.16 339,325.5C 338.558,323.321 337.558,322.655 336,323.5C 335.51,322.207 335.343,320.873 335.5,319.5C 330.167,319.5 324.833,319.5 319.5,319.5C 319.762,318.022 319.429,316.689 318.5,315.5C 311.117,316.245 303.784,317.412 296.5,319C 290.833,319.667 285.167,319.667 279.5,319C 276.549,313.481 274.382,307.648 273,301.5C 271,298.833 269,296.167 267,293.5C 266.242,291.231 266.409,289.064 267.5,287C 266.437,285.812 265.103,285.312 263.5,285.5C 263.657,284.127 263.49,282.793 263,281.5C 260.805,280.405 258.638,279.405 256.5,278.5C 255.572,280.335 254.406,280.668 253,279.5C 250.931,280.264 248.764,280.764 246.5,281C 245.944,281.383 245.611,281.883 245.5,282.5C 243.436,282.762 242.103,283.929 241.5,286C 239.975,287.009 238.308,287.509 236.5,287.5C 232.628,287.179 229.461,288.512 227,291.5C 225.615,290.449 224.615,289.116 224,287.5C 223.667,290.833 223.333,294.167 223,297.5C 220.57,298.992 218.737,300.992 217.5,303.5C 216.808,302.975 216.308,302.308 216,301.5C 213,302.833 210,304.167 207,305.5C 206.184,304.177 205.017,303.511 203.5,303.5C 206.049,301.237 208.883,299.237 212,297.5C 212.667,295.833 212.667,294.167 212,292.5C 210.736,294.607 208.903,295.607 206.5,295.5C 207.69,293.447 208.357,291.113 208.5,288.5C 208.495,286.304 208.162,284.304 207.5,282.5C 203.332,278.666 198.332,277 192.5,277.5C 194.369,276.835 196.369,276.169 198.5,275.5C 197.313,274.481 196.313,273.314 195.5,272C 196.857,268.042 199.023,264.542 202,261.5C 203.351,262.961 204.851,264.294 206.5,265.5C 207.551,264.115 208.884,263.115 210.5,262.5C 214.5,263.167 218.5,263.833 222.5,264.5C 223.251,263.624 223.751,262.624 224,261.5C 225.131,263.797 226.964,265.131 229.5,265.5C 232.399,265.769 233.899,264.435 234,261.5C 234.383,262.056 234.883,262.389 235.5,262.5 Z"/></g>
<g><path style="opacity:1" fill="#594f48" d="M 207.5,282.5 C 208.162,284.304 208.495,286.304 208.5,288.5C 208.357,291.113 207.69,293.447 206.5,295.5C 205.833,295.5 205.167,295.5 204.5,295.5C 207.262,291.726 208.262,287.393 207.5,282.5 Z"/></g>
<g><path style="opacity:1" fill="#5d5552" d="M 336.5,291.5 C 337.167,291.5 337.833,291.5 338.5,291.5C 338.912,293.973 337.912,295.306 335.5,295.5C 336.234,294.292 336.567,292.959 336.5,291.5 Z"/></g>
<g><path style="opacity:1" fill="#e1c09a" d="M 274.5,315.5 C 274.319,318.397 274.652,321.23 275.5,324C 275.2,326.024 274.367,326.524 273,325.5C 272.517,326.448 272.351,327.448 272.5,328.5C 270.801,328.66 269.134,328.494 267.5,328C 267.957,327.586 268.291,327.086 268.5,326.5C 267.423,324.271 266.756,321.937 266.5,319.5C 264.833,319.5 263.167,319.5 261.5,319.5C 261.649,316.035 259.982,314.035 256.5,313.5C 255.749,314.376 255.249,315.376 255,316.5C 249.528,310.491 246.362,311.491 245.5,319.5C 243.5,319.5 241.5,319.5 239.5,319.5C 239.5,320.833 239.5,322.167 239.5,323.5C 236.612,323.22 235.112,324.553 235,327.5C 234.25,328.126 233.416,328.626 232.5,329C 228.36,329.851 224.36,331.018 220.5,332.5C 219.71,331.206 218.71,330.039 217.5,329C 219.001,327.748 220.668,326.748 222.5,326C 221,325.167 219.833,324 219,322.5C 215.319,324.666 211.486,326.333 207.5,327.5C 204.976,336.18 200.643,337.347 194.5,331C 193.552,330.517 192.552,330.351 191.5,330.5C 191.785,332.288 191.452,333.955 190.5,335.5C 189.74,330.693 187.073,328.526 182.5,329C 180.771,330.789 180.104,332.956 180.5,335.5C 178.833,335.5 177.167,335.5 175.5,335.5C 175.466,338.199 176.133,340.699 177.5,343C 176.874,343.75 176.374,344.584 176,345.5C 175.115,342.048 174.282,338.714 173.5,335.5C 173.448,333.097 173.781,330.764 174.5,328.5C 175.267,327.828 175.934,326.995 176.5,326C 181.375,324.364 186.375,323.531 191.5,323.5C 191.5,322.167 191.5,320.833 191.5,319.5C 193.199,319.62 194.865,319.954 196.5,320.5C 199.937,318.612 203.604,317.612 207.5,317.5C 207.281,316.325 207.614,315.325 208.5,314.5C 213.665,312.745 218.665,310.745 223.5,308.5C 223.36,306.876 224.027,305.71 225.5,305C 223.503,303.847 223.17,302.347 224.5,300.5C 227.805,297.905 230.139,294.571 231.5,290.5C 233.36,289.675 235.026,288.675 236.5,287.5C 238.308,287.509 239.975,287.009 241.5,286C 242.103,283.929 243.436,282.762 245.5,282.5C 248.434,283.143 251.767,283.476 255.5,283.5C 255.238,284.978 255.571,286.311 256.5,287.5C 257.848,285.389 257.515,283.555 255.5,282C 257.38,282.51 259.213,282.343 261,281.5C 263.517,290.46 265.851,299.46 268,308.5C 269.441,309.87 271.108,310.87 273,311.5C 273.41,312.901 273.91,314.234 274.5,315.5 Z"/></g>
<g><path style="opacity:1" fill="#97928a" d="M 338.5,291.5 C 339.5,291.5 340.5,291.5 341.5,291.5C 341.5,294.833 341.5,298.167 341.5,301.5C 340.549,300.081 340.216,298.415 340.5,296.5C 333.978,296.823 327.645,296.49 321.5,295.5C 326.167,295.5 330.833,295.5 335.5,295.5C 337.912,295.306 338.912,293.973 338.5,291.5 Z"/></g>
<g><path style="opacity:1" fill="#988f86" d="M 204.5,295.5 C 205.167,295.5 205.833,295.5 206.5,295.5C 202.086,298.527 197.086,300.194 191.5,300.5C 191.5,300.167 191.5,299.833 191.5,299.5C 196.114,298.915 200.447,297.582 204.5,295.5 Z"/></g>
<g><path style="opacity:1" fill="#615349" d="M 191.5,299.5 C 191.5,299.833 191.5,300.167 191.5,300.5C 185.464,300.36 179.464,300.693 173.5,301.5C 173.918,300.778 174.584,300.278 175.5,300C 180.823,299.501 186.156,299.334 191.5,299.5 Z"/></g>
<g><path style="opacity:1" fill="#e2d3c2" d="M 203.5,303.5 C 201.042,305.713 198.042,306.879 194.5,307C 189.826,307.434 185.159,307.934 180.5,308.5C 178.9,308.449 177.4,308.116 176,307.5C 174.725,309.717 173.725,312.051 173,314.5C 172.292,313.619 171.458,312.953 170.5,312.5C 170.5,310.167 170.5,307.833 170.5,305.5C 171.5,304.167 172.5,302.833 173.5,301.5C 179.464,300.693 185.464,300.36 191.5,300.5C 197.086,300.194 202.086,298.527 206.5,295.5C 208.903,295.607 210.736,294.607 212,292.5C 212.667,294.167 212.667,295.833 212,297.5C 208.883,299.237 206.049,301.237 203.5,303.5 Z"/></g>
<g><path style="opacity:1" fill="#dfc3aa" d="M 236.5,287.5 C 235.026,288.675 233.36,289.675 231.5,290.5C 230.139,294.571 227.805,297.905 224.5,300.5C 223.17,302.347 223.503,303.847 225.5,305C 224.027,305.71 223.36,306.876 223.5,308.5C 218.665,310.745 213.665,312.745 208.5,314.5C 207.614,315.325 207.281,316.325 207.5,317.5C 203.604,317.612 199.937,318.612 196.5,320.5C 194.865,319.954 193.199,319.62 191.5,319.5C 191.5,320.833 191.5,322.167 191.5,323.5C 186.375,323.531 181.375,324.364 176.5,326C 175.934,326.995 175.267,327.828 174.5,328.5C 174.565,328.062 174.399,327.728 174,327.5C 172.768,330.23 171.935,330.063 171.5,327C 170.642,322.205 170.309,317.372 170.5,312.5C 171.458,312.953 172.292,313.619 173,314.5C 173.725,312.051 174.725,309.717 176,307.5C 177.4,308.116 178.9,308.449 180.5,308.5C 185.159,307.934 189.826,307.434 194.5,307C 198.042,306.879 201.042,305.713 203.5,303.5C 205.017,303.511 206.184,304.177 207,305.5C 210,304.167 213,302.833 216,301.5C 216.308,302.308 216.808,302.975 217.5,303.5C 218.737,300.992 220.57,298.992 223,297.5C 223.333,294.167 223.667,290.833 224,287.5C 224.615,289.116 225.615,290.449 227,291.5C 229.461,288.512 232.628,287.179 236.5,287.5 Z"/></g>
<g><path style="opacity:1" fill="#695f59" d="M 173.5,301.5 C 172.5,302.833 171.5,304.167 170.5,305.5C 169.51,311.31 169.177,317.31 169.5,323.5C 168.347,317.347 168.18,311.014 169,304.5C 170.129,302.859 171.629,301.859 173.5,301.5 Z"/></g>
<g><path style="opacity:1" fill="#dec3a6" d="M 339.5,351.5 C 338.532,348.227 338.032,342.227 338,333.5C 336.826,337.046 336.16,340.713 336,344.5C 335.502,341.518 335.335,338.518 335.5,335.5C 333.022,334.805 331.022,333.305 329.5,331C 316.592,325.261 303.258,323.428 289.5,325.5C 284.888,325.306 280.722,323.973 277,321.5C 276.155,319.389 275.322,317.389 274.5,315.5C 273.91,314.234 273.41,312.901 273,311.5C 271.108,310.87 269.441,309.87 268,308.5C 265.851,299.46 263.517,290.46 261,281.5C 259.213,282.343 257.38,282.51 255.5,282C 257.515,283.555 257.848,285.389 256.5,287.5C 255.571,286.311 255.238,284.978 255.5,283.5C 251.767,283.476 248.434,283.143 245.5,282.5C 245.611,281.883 245.944,281.383 246.5,281C 248.764,280.764 250.931,280.264 253,279.5C 254.406,280.668 255.572,280.335 256.5,278.5C 258.638,279.405 260.805,280.405 263,281.5C 263.49,282.793 263.657,284.127 263.5,285.5C 265.103,285.312 266.437,285.812 267.5,287C 266.409,289.064 266.242,291.231 267,293.5C 269,296.167 271,298.833 273,301.5C 274.382,307.648 276.549,313.481 279.5,319C 285.167,319.667 290.833,319.667 296.5,319C 303.784,317.412 311.117,316.245 318.5,315.5C 319.429,316.689 319.762,318.022 319.5,319.5C 324.833,319.5 330.167,319.5 335.5,319.5C 335.343,320.873 335.51,322.207 336,323.5C 337.558,322.655 338.558,323.321 339,325.5C 339.5,334.16 339.666,342.827 339.5,351.5 Z"/></g>
<g><path style="opacity:1" fill="#dfc29d" d="M 274.5,315.5 C 275.322,317.389 276.155,319.389 277,321.5C 280.722,323.973 284.888,325.306 289.5,325.5C 303.258,323.428 316.592,325.261 329.5,331C 331.022,333.305 333.022,334.805 335.5,335.5C 335.335,338.518 335.502,341.518 336,344.5C 336.16,340.713 336.826,337.046 338,333.5C 338.032,342.227 338.532,348.227 339.5,351.5C 339.833,351.5 340.167,351.5 340.5,351.5C 340.563,368.843 340.229,386.176 339.5,403.5C 337.902,405.698 336.569,408.031 335.5,410.5C 332.833,413.833 329.833,416.833 326.5,419.5C 324.94,419.481 323.44,419.148 322,418.5C 319.374,419.955 316.874,421.622 314.5,423.5C 314.167,423.167 313.833,422.833 313.5,422.5C 314.734,420.448 316.4,418.781 318.5,417.5C 319.321,414.553 319.821,411.553 320,408.5C 321.527,406.779 322.527,404.779 323,402.5C 324.733,400.398 326.733,400.065 329,401.5C 330.667,396.182 332.834,392.349 335.5,390C 334.606,388.604 333.939,387.104 333.5,385.5C 334.396,383.199 334.562,380.866 334,378.5C 333.333,379.833 332.667,381.167 332,382.5C 330.151,379.992 330.484,377.659 333,375.5C 334.722,369.778 335.889,363.945 336.5,358C 336.333,356.167 336.167,354.333 336,352.5C 334.989,351.663 333.822,351.33 332.5,351.5C 333.257,344.599 330.257,340.599 323.5,339.5C 323.33,338.178 323.663,337.011 324.5,336C 315.489,329.998 305.822,328.665 295.5,332C 293.449,334.421 291.116,336.587 288.5,338.5C 287.614,339.325 287.281,340.325 287.5,341.5C 288.833,341.5 290.167,341.5 291.5,341.5C 291.785,343.288 291.452,344.955 290.5,346.5C 285.815,348.013 282.815,351.18 281.5,356C 281.624,359.012 281.791,362.179 282,365.5C 282.615,363.884 283.615,362.551 285,361.5C 285.36,363.421 286.194,365.088 287.5,366.5C 287.258,369.319 287.258,372.319 287.5,375.5C 289.927,375.523 292.26,376.023 294.5,377C 295.833,377.667 295.833,378.333 294.5,379C 296.303,379.637 297.636,380.803 298.5,382.5C 300.216,382.997 301.883,383.331 303.5,383.5C 302.478,384.354 301.645,385.354 301,386.5C 298.462,384.175 296.295,384.509 294.5,387.5C 286.047,383.297 280.381,376.63 277.5,367.5C 276.962,365.883 276.629,364.216 276.5,362.5C 276.346,356.141 276.679,349.808 277.5,343.5C 277.333,342.167 277.167,340.833 277,339.5C 275.624,338.295 274.458,336.962 273.5,335.5C 275.124,335.36 276.29,336.027 277,337.5C 277.687,335.432 277.52,333.432 276.5,331.5C 274.816,330.85 273.483,329.85 272.5,328.5C 272.351,327.448 272.517,326.448 273,325.5C 274.367,326.524 275.2,326.024 275.5,324C 274.652,321.23 274.319,318.397 274.5,315.5 Z"/></g>
<g><path style="opacity:1" fill="#e3c097" d="M 220.5,332.5 C 220.5,333.5 220.5,334.5 220.5,335.5C 221.5,335.5 222.5,335.5 223.5,335.5C 222.956,337.58 222.122,339.58 221,341.5C 218.787,340.198 216.454,339.198 214,338.5C 212.334,342.663 211.501,346.997 211.5,351.5C 210.167,351.5 208.833,351.5 207.5,351.5C 207.826,354.607 206.659,356.94 204,358.5C 202.697,360.94 201.53,363.44 200.5,366C 200.85,367.257 201.517,367.591 202.5,367C 204.359,365.442 205.859,363.609 207,361.5C 207.5,368.826 207.666,376.159 207.5,383.5C 208.833,383.5 210.167,383.5 211.5,383.5C 211.059,388.177 212.392,392.177 215.5,395.5C 216.478,395.023 217.311,394.357 218,393.5C 219.667,394.833 221.333,394.833 223,393.5C 223.447,390.025 224.28,386.691 225.5,383.5C 224.167,383.5 222.833,383.5 221.5,383.5C 222.315,379.856 223.148,376.189 224,372.5C 226.089,376.46 228.089,376.46 230,372.5C 231.472,367.5 231.972,362.5 231.5,357.5C 234.388,355.437 237.388,353.603 240.5,352C 239.62,350.644 239.286,349.144 239.5,347.5C 242.099,347.451 244.266,346.451 246,344.5C 247.741,341.691 248.908,338.691 249.5,335.5C 251.477,336.149 253.31,336.149 255,335.5C 259.364,336.792 260.531,339.459 258.5,343.5C 255.821,348.194 253.155,352.861 250.5,357.5C 250.167,357.5 249.833,357.5 249.5,357.5C 248.5,357.5 247.5,357.5 246.5,357.5C 244.091,362.613 242.091,367.946 240.5,373.5C 238.856,373.81 237.856,374.81 237.5,376.5C 235.582,380.708 234.249,385.208 233.5,390C 234.662,393.147 235.662,396.314 236.5,399.5C 237.5,399.5 238.5,399.5 239.5,399.5C 239.5,400.833 239.5,402.167 239.5,403.5C 240.5,403.5 241.5,403.5 242.5,403.5C 241.785,406.642 240.952,409.642 240,412.5C 242.228,410.887 244.728,410.22 247.5,410.5C 247.714,412.144 247.38,413.644 246.5,415C 248.833,415.667 251.167,415.667 253.5,415C 252.112,414.111 252.278,413.611 254,413.5C 256.04,416.146 258.04,416.146 260,413.5C 263.338,414.348 266.671,414.015 270,412.5C 275.675,410.157 280.842,406.99 285.5,403C 291.465,402.037 297.465,401.537 303.5,401.5C 303.246,398.986 302.413,396.652 301,394.5C 299.989,393.663 298.822,393.33 297.5,393.5C 297.737,392.209 297.404,391.209 296.5,390.5C 295.833,389.5 295.167,388.5 294.5,387.5C 296.295,384.509 298.462,384.175 301,386.5C 301.645,385.354 302.478,384.354 303.5,383.5C 301.883,383.331 300.216,382.997 298.5,382.5C 297.636,380.803 296.303,379.637 294.5,379C 295.833,378.333 295.833,377.667 294.5,377C 292.26,376.023 289.927,375.523 287.5,375.5C 287.258,372.319 287.258,369.319 287.5,366.5C 286.194,365.088 285.36,363.421 285,361.5C 283.615,362.551 282.615,363.884 282,365.5C 281.791,362.179 281.624,359.012 281.5,356C 282.815,351.18 285.815,348.013 290.5,346.5C 291.452,344.955 291.785,343.288 291.5,341.5C 290.167,341.5 288.833,341.5 287.5,341.5C 287.281,340.325 287.614,339.325 288.5,338.5C 291.116,336.587 293.449,334.421 295.5,332C 305.822,328.665 315.489,329.998 324.5,336C 323.663,337.011 323.33,338.178 323.5,339.5C 330.257,340.599 333.257,344.599 332.5,351.5C 333.822,351.33 334.989,351.663 336,352.5C 336.167,354.333 336.333,356.167 336.5,358C 335.889,363.945 334.722,369.778 333,375.5C 330.484,377.659 330.151,379.992 332,382.5C 332.667,381.167 333.333,379.833 334,378.5C 334.562,380.866 334.396,383.199 333.5,385.5C 333.939,387.104 334.606,388.604 335.5,390C 332.834,392.349 330.667,396.182 329,401.5C 326.733,400.065 324.733,400.398 323,402.5C 322.527,404.779 321.527,406.779 320,408.5C 319.821,411.553 319.321,414.553 318.5,417.5C 316.4,418.781 314.734,420.448 313.5,422.5C 313.833,422.833 314.167,423.167 314.5,423.5C 316.874,421.622 319.374,419.955 322,418.5C 323.44,419.148 324.94,419.481 326.5,419.5C 326.5,419.833 326.5,420.167 326.5,420.5C 322.363,421.207 319.03,423.207 316.5,426.5C 308.559,433.474 300.226,439.974 291.5,446C 289.5,446.667 287.5,447.333 285.5,448C 276.84,448.5 268.173,448.666 259.5,448.5C 253.491,448.666 247.491,448.499 241.5,448C 239.497,447.665 237.83,446.832 236.5,445.5C 235.5,443.833 234.167,442.5 232.5,441.5C 227.745,440.281 223.411,438.114 219.5,435C 220.337,433.989 220.67,432.822 220.5,431.5C 219.325,431.719 218.325,431.386 217.5,430.5C 218.736,428.689 218.736,426.856 217.5,425C 214.49,422.907 211.823,419.907 209.5,416C 207.236,415.764 205.069,415.264 203,414.5C 202.527,416.779 201.527,418.779 200,420.5C 199.275,418.842 198.108,418.342 196.5,419C 195.773,420.399 195.273,421.899 195,423.5C 194.292,422.619 193.458,421.953 192.5,421.5C 188.262,417.772 183.595,414.606 178.5,412C 177.748,411.329 177.414,410.496 177.5,409.5C 175.19,400.974 173.523,392.307 172.5,383.5C 172.17,367.325 172.504,351.325 173.5,335.5C 174.282,338.714 175.115,342.048 176,345.5C 176.374,344.584 176.874,343.75 177.5,343C 176.133,340.699 175.466,338.199 175.5,335.5C 177.167,335.5 178.833,335.5 180.5,335.5C 180.104,332.956 180.771,330.789 182.5,329C 187.073,328.526 189.74,330.693 190.5,335.5C 191.452,333.955 191.785,332.288 191.5,330.5C 192.552,330.351 193.552,330.517 194.5,331C 200.643,337.347 204.976,336.18 207.5,327.5C 211.486,326.333 215.319,324.666 219,322.5C 219.833,324 221,325.167 222.5,326C 220.668,326.748 219.001,327.748 217.5,329C 218.71,330.039 219.71,331.206 220.5,332.5 Z"/></g>
<g><path style="opacity:1" fill="#5a412e" d="M 273.5,334.5 C 273.5,334.833 273.5,335.167 273.5,335.5C 274.458,336.962 275.624,338.295 277,339.5C 277.167,340.833 277.333,342.167 277.5,343.5C 276.679,349.808 276.346,356.141 276.5,362.5C 275.671,355.011 275.171,347.344 275,339.5C 274.617,338.944 274.117,338.611 273.5,338.5C 270.955,335.925 268.288,335.925 265.5,338.5C 265.511,336.983 266.177,335.816 267.5,335C 269.473,334.505 271.473,334.338 273.5,334.5 Z"/></g>
<g><path style="opacity:1" fill="#080503" d="M 273.5,338.5 C 274.274,346.786 274.774,355.12 275,363.5C 275.2,365.32 276.034,366.653 277.5,367.5C 280.381,376.63 286.047,383.297 294.5,387.5C 295.167,388.5 295.833,389.5 296.5,390.5C 296.67,391.822 296.337,392.989 295.5,394C 286.935,397.449 278.268,400.616 269.5,403.5C 262.342,404.251 255.676,402.917 249.5,399.5C 248.92,397.251 247.587,395.585 245.5,394.5C 244.191,391.222 242.358,388.222 240,385.5C 239.306,381.446 239.473,377.446 240.5,373.5C 242.487,370.199 244.487,366.866 246.5,363.5C 249.211,360.492 251.878,357.492 254.5,354.5C 254.975,352.216 255.975,350.216 257.5,348.5C 261.276,346.057 263.943,342.724 265.5,338.5C 268.288,335.925 270.955,335.925 273.5,338.5 Z"/></g>
<g><path style="opacity:1" fill="#e6c194" d="M 272.5,328.5 C 273.483,329.85 274.816,330.85 276.5,331.5C 277.52,333.432 277.687,335.432 277,337.5C 276.29,336.027 275.124,335.36 273.5,335.5C 273.5,335.167 273.5,334.833 273.5,334.5C 271.372,333.371 269.039,333.204 266.5,334C 263.696,337.145 261.03,340.312 258.5,343.5C 260.531,339.459 259.364,336.792 255,335.5C 253.31,336.149 251.477,336.149 249.5,335.5C 248.908,338.691 247.741,341.691 246,344.5C 244.266,346.451 242.099,347.451 239.5,347.5C 239.286,349.144 239.62,350.644 240.5,352C 237.388,353.603 234.388,355.437 231.5,357.5C 231.972,362.5 231.472,367.5 230,372.5C 228.089,376.46 226.089,376.46 224,372.5C 223.148,376.189 222.315,379.856 221.5,383.5C 222.833,383.5 224.167,383.5 225.5,383.5C 224.28,386.691 223.447,390.025 223,393.5C 221.333,394.833 219.667,394.833 218,393.5C 217.311,394.357 216.478,395.023 215.5,395.5C 212.392,392.177 211.059,388.177 211.5,383.5C 210.167,383.5 208.833,383.5 207.5,383.5C 207.666,376.159 207.5,368.826 207,361.5C 205.859,363.609 204.359,365.442 202.5,367C 201.517,367.591 200.85,367.257 200.5,366C 201.53,363.44 202.697,360.94 204,358.5C 206.659,356.94 207.826,354.607 207.5,351.5C 208.833,351.5 210.167,351.5 211.5,351.5C 211.501,346.997 212.334,342.663 214,338.5C 216.454,339.198 218.787,340.198 221,341.5C 222.122,339.58 222.956,337.58 223.5,335.5C 222.5,335.5 221.5,335.5 220.5,335.5C 220.5,334.5 220.5,333.5 220.5,332.5C 224.36,331.018 228.36,329.851 232.5,329C 233.416,328.626 234.25,328.126 235,327.5C 235.112,324.553 236.612,323.22 239.5,323.5C 239.5,322.167 239.5,320.833 239.5,319.5C 241.5,319.5 243.5,319.5 245.5,319.5C 246.362,311.491 249.528,310.491 255,316.5C 255.249,315.376 255.749,314.376 256.5,313.5C 259.982,314.035 261.649,316.035 261.5,319.5C 263.167,319.5 264.833,319.5 266.5,319.5C 266.756,321.937 267.423,324.271 268.5,326.5C 268.291,327.086 267.957,327.586 267.5,328C 269.134,328.494 270.801,328.66 272.5,328.5 Z"/></g>
<g><path style="opacity:1" fill="#684a32" d="M 265.5,338.5 C 263.943,342.724 261.276,346.057 257.5,348.5C 259.848,344.829 262.514,341.496 265.5,338.5 Z"/></g>
<g><path style="opacity:1" fill="#b48a63" d="M 273.5,334.5 C 271.473,334.338 269.473,334.505 267.5,335C 266.177,335.816 265.511,336.983 265.5,338.5C 262.514,341.496 259.848,344.829 257.5,348.5C 255.975,350.216 254.975,352.216 254.5,354.5C 252.97,355.211 251.637,356.211 250.5,357.5C 253.155,352.861 255.821,348.194 258.5,343.5C 261.03,340.312 263.696,337.145 266.5,334C 269.039,333.204 271.372,333.371 273.5,334.5 Z"/></g>
<g><path style="opacity:1" fill="#ae967e" d="M 170.5,305.5 C 170.5,307.833 170.5,310.167 170.5,312.5C 170.309,317.372 170.642,322.205 171.5,327C 171.935,330.063 172.768,330.23 174,327.5C 174.399,327.728 174.565,328.062 174.5,328.5C 173.781,330.764 173.448,333.097 173.5,335.5C 172.504,351.325 172.17,367.325 172.5,383.5C 172.167,383.5 171.833,383.5 171.5,383.5C 170.732,363.659 170.065,343.659 169.5,323.5C 169.177,317.31 169.51,311.31 170.5,305.5 Z"/></g>
<g><path style="opacity:1" fill="#2d2319" d="M 273.5,338.5 C 274.117,338.611 274.617,338.944 275,339.5C 275.171,347.344 275.671,355.011 276.5,362.5C 276.629,364.216 276.962,365.883 277.5,367.5C 276.034,366.653 275.2,365.32 275,363.5C 274.774,355.12 274.274,346.786 273.5,338.5 Z"/></g>
<g><path style="opacity:1" fill="#654531" d="M 254.5,354.5 C 251.878,357.492 249.211,360.492 246.5,363.5C 246.975,361.216 247.975,359.216 249.5,357.5C 249.833,357.5 250.167,357.5 250.5,357.5C 251.637,356.211 252.97,355.211 254.5,354.5 Z"/></g>
<g><path style="opacity:1" fill="#ab8564" d="M 249.5,357.5 C 247.975,359.216 246.975,361.216 246.5,363.5C 244.487,366.866 242.487,370.199 240.5,373.5C 242.091,367.946 244.091,362.613 246.5,357.5C 247.5,357.5 248.5,357.5 249.5,357.5 Z"/></g>
<g><path style="opacity:1" fill="#9f7f65" d="M 240.5,373.5 C 239.473,377.446 239.306,381.446 240,385.5C 242.358,388.222 244.191,391.222 245.5,394.5C 239.254,390.296 236.587,384.296 237.5,376.5C 237.856,374.81 238.856,373.81 240.5,373.5 Z"/></g>
<g><path style="opacity:1" fill="#736557" d="M 341.5,313.5 C 341.257,331.68 341.591,349.846 342.5,368C 342.115,380.04 341.115,391.874 339.5,403.5C 340.229,386.176 340.563,368.843 340.5,351.5C 340.5,340.833 340.5,330.167 340.5,319.5C 340.205,317.265 340.539,315.265 341.5,313.5 Z"/></g>
<g><path style="opacity:1" fill="#050e12" d="M 101.5,296.5 C 101.375,306.947 99.0418,316.447 94.5,325C 93.3306,329.169 93.3306,333.336 94.5,337.5C 93.627,339.413 92.627,341.247 91.5,343C 92.7836,344.297 92.6169,345.464 91,346.5C 90.1033,356.942 89.6033,367.276 89.5,377.5C 90.0933,379.382 90.7599,381.215 91.5,383C 90.3659,384.016 90.6992,384.683 92.5,385C 91.3166,387.155 91.6499,389.155 93.5,391C 93.1667,391.333 92.8333,391.667 92.5,392C 93.0434,395.473 94.0434,398.806 95.5,402C 94.9781,402.561 94.6448,403.228 94.5,404C 98.0206,418.098 100.687,432.264 102.5,446.5C 98.5922,437.601 95.7589,428.268 94,418.5C 93.1191,406.643 91.1191,394.976 88,383.5C 87.5001,371.171 87.3335,358.838 87.5,346.5C 89.068,334.563 91.7346,322.896 95.5,311.5C 97.7768,306.613 99.7768,301.613 101.5,296.5 Z"/></g>
<g><path style="opacity:1" fill="#947c67" d="M 171.5,383.5 C 171.833,383.5 172.167,383.5 172.5,383.5C 173.523,392.307 175.19,400.974 177.5,409.5C 176.542,409.047 175.708,408.381 175,407.5C 172.574,399.688 171.408,391.688 171.5,383.5 Z"/></g>
<g><path style="opacity:1" fill="#e0c0a0" d="M 237.5,376.5 C 236.587,384.296 239.254,390.296 245.5,394.5C 245.343,395.873 245.51,397.207 246,398.5C 251.461,406.03 258.628,408.363 267.5,405.5C 268.167,404.833 268.833,404.167 269.5,403.5C 278.268,400.616 286.935,397.449 295.5,394C 296.337,392.989 296.67,391.822 296.5,390.5C 297.404,391.209 297.737,392.209 297.5,393.5C 298.822,393.33 299.989,393.663 301,394.5C 302.413,396.652 303.246,398.986 303.5,401.5C 297.465,401.537 291.465,402.037 285.5,403C 280.842,406.99 275.675,410.157 270,412.5C 266.671,414.015 263.338,414.348 260,413.5C 258.04,416.146 256.04,416.146 254,413.5C 252.278,413.611 252.112,414.111 253.5,415C 251.167,415.667 248.833,415.667 246.5,415C 247.38,413.644 247.714,412.144 247.5,410.5C 244.728,410.22 242.228,410.887 240,412.5C 240.952,409.642 241.785,406.642 242.5,403.5C 241.5,403.5 240.5,403.5 239.5,403.5C 239.5,402.167 239.5,400.833 239.5,399.5C 238.5,399.5 237.5,399.5 236.5,399.5C 235.662,396.314 234.662,393.147 233.5,390C 234.249,385.208 235.582,380.708 237.5,376.5 Z"/></g>
<g><path style="opacity:1" fill="#5e3a28" d="M 249.5,399.5 C 255.676,402.917 262.342,404.251 269.5,403.5C 268.833,404.167 268.167,404.833 267.5,405.5C 262.804,405.329 258.137,404.829 253.5,404C 251.959,402.629 250.625,401.129 249.5,399.5 Z"/></g>
<g><path style="opacity:1" fill="#a07255" d="M 245.5,394.5 C 247.587,395.585 248.92,397.251 249.5,399.5C 250.625,401.129 251.959,402.629 253.5,404C 258.137,404.829 262.804,405.329 267.5,405.5C 258.628,408.363 251.461,406.03 246,398.5C 245.51,397.207 245.343,395.873 245.5,394.5 Z"/></g>
<g><path style="opacity:1" fill="#76614f" d="M 335.5,410.5 C 333.918,415.084 330.918,418.417 326.5,420.5C 326.5,420.167 326.5,419.833 326.5,419.5C 329.833,416.833 332.833,413.833 335.5,410.5 Z"/></g>
<g><path style="opacity:1" fill="#806349" d="M 326.5,420.5 C 323.307,422.682 319.974,424.682 316.5,426.5C 319.03,423.207 322.363,421.207 326.5,420.5 Z"/></g>
<g><path style="opacity:1" fill="#dab389" d="M 232.5,441.5 C 231.5,441.5 230.5,441.5 229.5,441.5C 228.5,441.5 227.5,441.5 226.5,441.5C 227.03,444.682 228.03,447.682 229.5,450.5C 228.5,450.5 227.5,450.5 226.5,450.5C 226.5,449.5 226.5,448.5 226.5,447.5C 223.329,445.855 220.996,446.522 219.5,449.5C 220.722,451.978 222.722,452.978 225.5,452.5C 225.5,453.5 225.5,454.5 225.5,455.5C 229.065,455.201 230.398,456.535 229.5,459.5C 223.375,457.684 217.709,455.017 212.5,451.5C 208.063,447.209 203.896,447.209 200,451.5C 198.882,446.644 198.049,441.644 197.5,436.5C 196.201,435.91 195.368,434.91 195,433.5C 194.051,435.093 192.885,436.426 191.5,437.5C 191.392,432.13 191.725,426.797 192.5,421.5C 193.458,421.953 194.292,422.619 195,423.5C 195.273,421.899 195.773,420.399 196.5,419C 198.108,418.342 199.275,418.842 200,420.5C 201.527,418.779 202.527,416.779 203,414.5C 205.069,415.264 207.236,415.764 209.5,416C 211.823,419.907 214.49,422.907 217.5,425C 218.736,426.856 218.736,428.689 217.5,430.5C 218.325,431.386 219.325,431.719 220.5,431.5C 220.67,432.822 220.337,433.989 219.5,435C 223.411,438.114 227.745,440.281 232.5,441.5 Z"/></g>
<g><path style="opacity:1" fill="#1a140f" d="M 229.5,441.5 C 230.5,441.5 231.5,441.5 232.5,441.5C 234.167,442.5 235.5,443.833 236.5,445.5C 236.824,448.68 235.49,449.847 232.5,449C 229.156,447.233 228.156,444.733 229.5,441.5 Z"/></g>
<g><path style="opacity:1" fill="#e4bc8d" d="M 212.5,451.5 C 217.709,455.017 223.375,457.684 229.5,459.5C 232.301,461.815 234.634,464.648 236.5,468C 238.52,469.217 240.52,469.383 242.5,468.5C 244.833,470.833 247.167,473.167 249.5,475.5C 251.605,480.073 252.938,484.739 253.5,489.5C 253.5,493.5 253.5,497.5 253.5,501.5C 253.664,504.187 253.497,506.854 253,509.5C 251,504.167 249,504.167 247,509.5C 245.829,507.384 244.329,506.718 242.5,507.5C 240.884,506.885 239.551,505.885 238.5,504.5C 226.683,507.448 214.683,507.781 202.5,505.5C 201.22,503.298 201.22,501.132 202.5,499C 197.751,490.758 195.918,481.925 197,472.5C 197.745,470.797 198.579,469.13 199.5,467.5C 198.976,465.617 198.309,463.784 197.5,462C 200.351,458.998 203.685,455.831 207.5,452.5C 209.045,451.548 210.712,451.215 212.5,451.5 Z"/></g>
<g><path style="opacity:1" fill="#607d8c" d="M 87.5,346.5 C 87.3335,358.838 87.5001,371.171 88,383.5C 91.1191,394.976 93.1191,406.643 94,418.5C 95.7589,428.268 98.5922,437.601 102.5,446.5C 103.44,448.612 104.606,450.612 106,452.5C 110.63,455.919 114.463,460.086 117.5,465C 125.058,470.179 133.391,471.846 142.5,470C 147.546,468.28 152.713,467.113 158,466.5C 161.545,466.039 164.212,467.372 166,470.5C 167.39,476.06 169.39,481.394 172,486.5C 173.605,495.451 172.105,503.785 167.5,511.5C 167.167,511.5 166.833,511.5 166.5,511.5C 166.338,509.473 166.505,507.473 167,505.5C 170.084,503.34 170.25,502.006 167.5,501.5C 168.747,499.677 169.414,497.677 169.5,495.5C 168.167,495.5 166.833,495.5 165.5,495.5C 165.67,498.491 164.337,500.491 161.5,501.5C 161.167,500.833 160.833,500.167 160.5,499.5C 161.664,496.505 162.83,493.505 164,490.5C 165.845,493.184 167.012,492.851 167.5,489.5C 166.953,486.957 165.62,484.957 163.5,483.5C 164.77,479.516 164.77,475.516 163.5,471.5C 161.415,470.229 159.248,469.229 157,468.5C 147.449,472.292 137.616,473.292 127.5,471.5C 127.66,473.199 127.494,474.866 127,476.5C 121.109,472.027 115.276,469.027 109.5,467.5C 108.432,464.795 106.432,463.295 103.5,463C 103.833,462.667 104.167,462.333 104.5,462C 102.731,459.731 102.065,457.398 102.5,455C 100.884,454.385 99.5505,453.385 98.5,452C 98.6158,450.732 98.9491,449.398 99.5,448C 98.2986,447.097 97.4652,445.931 97,444.5C 96.6667,444.833 96.3333,445.167 96,445.5C 96.4866,447.044 96.9866,448.71 97.5,450.5C 96.1667,450.5 94.8333,450.5 93.5,450.5C 92.969,447.763 92.1356,445.096 91,442.5C 89.9887,441.663 88.8221,441.33 87.5,441.5C 87.8441,438.38 87.1775,435.547 85.5,433C 86.5345,428.846 88.0345,425.346 90,422.5C 90.1667,420 90.3333,417.5 90.5,415C 88.9415,399.741 86.9415,384.574 84.5,369.5C 84.8864,361.615 85.8864,353.948 87.5,346.5 Z"/></g>
<g><path style="opacity:1" fill="#c3a37f" d="M 229.5,441.5 C 228.156,444.733 229.156,447.233 232.5,449C 235.49,449.847 236.824,448.68 236.5,445.5C 237.83,446.832 239.497,447.665 241.5,448C 247.491,448.499 253.491,448.666 259.5,448.5C 254.695,449.487 249.695,449.821 244.5,449.5C 244.69,455.228 247.356,459.228 252.5,461.5C 253.387,470.801 253.721,480.134 253.5,489.5C 252.938,484.739 251.605,480.073 249.5,475.5C 247.167,473.167 244.833,470.833 242.5,468.5C 240.52,469.383 238.52,469.217 236.5,468C 234.634,464.648 232.301,461.815 229.5,459.5C 230.398,456.535 229.065,455.201 225.5,455.5C 225.5,454.5 225.5,453.5 225.5,452.5C 222.722,452.978 220.722,451.978 219.5,449.5C 220.996,446.522 223.329,445.855 226.5,447.5C 226.5,448.5 226.5,449.5 226.5,450.5C 227.5,450.5 228.5,450.5 229.5,450.5C 228.03,447.682 227.03,444.682 226.5,441.5C 227.5,441.5 228.5,441.5 229.5,441.5 Z"/></g>
<g><path style="opacity:1" fill="#e0ba92" d="M 212.5,451.5 C 210.712,451.215 209.045,451.548 207.5,452.5C 203.685,455.831 200.351,458.998 197.5,462C 198.309,463.784 198.976,465.617 199.5,467.5C 198.579,469.13 197.745,470.797 197,472.5C 195.918,481.925 197.751,490.758 202.5,499C 201.22,501.132 201.22,503.298 202.5,505.5C 214.683,507.781 226.683,507.448 238.5,504.5C 239.551,505.885 240.884,506.885 242.5,507.5C 244.329,506.718 245.829,507.384 247,509.5C 249,504.167 251,504.167 253,509.5C 253.497,506.854 253.664,504.187 253.5,501.5C 254.479,504.625 254.813,507.958 254.5,511.5C 233.167,511.5 211.833,511.5 190.5,511.5C 190.528,486.828 190.861,462.162 191.5,437.5C 192.885,436.426 194.051,435.093 195,433.5C 195.368,434.91 196.201,435.91 197.5,436.5C 198.049,441.644 198.882,446.644 200,451.5C 203.896,447.209 208.063,447.209 212.5,451.5 Z"/></g>
<g><path style="opacity:1" fill="#75624e" d="M 252.5,461.5 C 253.558,462.6 254.392,463.934 255,465.5C 255.5,480.83 255.667,496.163 255.5,511.5C 255.167,511.5 254.833,511.5 254.5,511.5C 254.813,507.958 254.479,504.625 253.5,501.5C 253.5,497.5 253.5,493.5 253.5,489.5C 253.721,480.134 253.387,470.801 252.5,461.5 Z"/></g>
<g><path style="opacity:1" fill="#495965" d="M 280.5,474.5 C 277.455,479.646 275.788,485.313 275.5,491.5C 274.355,487.689 274.188,483.689 275,479.5C 276.076,476.921 277.909,475.254 280.5,474.5 Z"/></g>
</svg>
